<svg height="1000" width="1000" xmlns="http://www.w3.org/2000/svg"><path d="M382.81 382.807c29.289 0 58.602 29.29 117.18 29.29s87.893 -29.29 117.182 -29.29c87.893 0 29.29 58.602 0 87.892 0 292.966 234.387 439.46 234.387 498.038H148.45c0 -58.602 234.387 -205.072 234.387 -498.038 -29.313 -29.289 -87.917 -87.892 -.024 -87.892zm146.494 -29.289c0 16.177 -13.112 29.29 -29.289 29.29s-29.289 -13.113 -29.289 -29.29 13.113 -29.289 29.29 -29.289c16.152 -.024 29.288 13.112 29.288 29.29zm29.29 -263.675c0 32.352 -26.226 58.602 -58.603 58.602 -32.353 0 -58.602 -26.225 -58.602 -58.602 0 -32.352 26.225 -58.602 58.602 -58.602 32.378 .024 58.602 26.25 58.602 58.602zM470.7 236.338c0 32.352 -26.226 58.602 -58.602 58.602s-58.603 -26.225 -58.603 -58.602c0 -32.353 26.226 -58.603 58.603 -58.603s58.602 26.226 58.602 58.603zm117.181 29.289c0 16.176 -13.112 29.289 -29.289 29.289s-29.289 -13.113 -29.289 -29.29 13.113 -29.288 29.29 -29.288 29.288 13.112 29.288 29.289z"/></svg>