<svg height="1000" width="1000" xmlns="http://www.w3.org/2000/svg"><path d="M714.455 149.656c.015 .01 .031 .02 .046 .03 53.429 -23.775 115.28 -39.76 222.068 -14.168C886.496 -18.706 751.51 29.27 666.336 121.069c.04 .022 .078 .044 .117 .066C466.968 12.16 328.543 59.505 214.14 183.448a973.276 973.276 0 0175.318 13.922c-42.482 22.008 -80.606 58.17 -111.496 111.611v.007C95.467 451.715 57.387 695.74 130.142 827.145l125.518 90.507c171.385 37 415.026 -96.42 508.25 -257.72 31.822 -55.063 45.33 -108.027 44.17 -157.61a1525.617 1525.617 0 0147.136 50.852C917.468 396.372 895.335 266.243 714.456 149.657zm79.61 338.428zM681.47 129.544a747.788 747.788 0 00-7.923 -4.492c2.63 1.468 5.27 2.96 7.923 4.492zm25.254 15.197c-.2 -.124 -.4 -.25 -.599 -.374 .197 .124 .4 .248 .599 .374zm-7.942 -4.917c-.854 -.52 -1.722 -1.04 -2.584 -1.561 .86 .52 1.733 1.04 2.584 1.561zM289.49 197.376zm181.337 60.901zM436.48 243.501zm-18.073 -7.13zm-35.83 -12.89zm-18.049 -5.879zM680.062 386.47zM471.744 258.695zm33.608 16.088zm17.121 8.83zm32.803 18.13zm16.031 9.46zm32.184 20.23zm30.782 20.92zm15.74 11.32zm102.548 84.537zm-57.739 -49.956zm29.493 24.74zm70.32 65.661zM95.242 958.78c53.173 -23.77 107.073 -34.734 161.26 -40.518L129.984 827.033c1.465 45.615 -14.824 88.916 -34.744 131.746z"/></svg>