<svg height="1000" width="1000" xmlns="http://www.w3.org/2000/svg"><path d="M700.455 166.98c125.299 121.751 103.37 215.216 21.059 290.425C685.258 261.789 537.208 328.095 507.532 42.259 477.856 328.095 329.807 261.786 293.55 457.405 211.24 382.195 189.317 288.73 314.611 166.98 36.844 325.665 136.841 529.684 340.585 696.998l.003 -.02c-.017 -.02 -.032 -.04 -.049 -.06 52.439 63.066 129.024 113.08 166.992 258.976C545.485 810.027 622.034 759.993 674.47 696.96l.007 .037C878.223 529.683 978.22 325.664 700.454 166.98zm-410.74 315.483c.022 -.175 .042 -.352 .064 -.527 -.022 .176 -.042 .352 -.064 .527zm3.371 124.991c-.056 -.222 -.11 -.447 -.163 -.67 .054 .22 .107 .447 .163 .67zm-1.238 -5.223c-.064 -.285 -.131 -.567 -.194 -.854 .063 .287 .128 .57 .194 .854zm-1.25 -5.919c-.064 -.326 -.126 -.656 -.19 -.983 .064 .328 .126 .657 .19 .983zm-1.073 -5.85c-.032 -.18 -.064 -.359 -.095 -.541 .031 .18 .063 .36 .095 .542zm-.927 -5.899c-.056 -.384 -.11 -.77 -.165 -1.156 .054 .387 .11 .774 .165 1.156zm-.889 -6.725a.229 .229 0 01-.003 -.037c0 .011 .002 .024 .003 .037zm-.6 -5.696c-.04 -.405 -.078 -.808 -.115 -1.214 .037 .406 .076 .81 .115 1.214zm-.582 -6.975c-.02 -.27 -.035 -.547 -.052 -.817 .016 .27 .032 .546 .052 .817zm-.368 -6.21c-.017 -.379 -.039 -.752 -.056 -1.132 .017 .38 .039 .754 .056 1.132zm.3 -38.496zm.65 -10.762c.011 -.16 .024 -.318 .036 -.48 -.012 .161 -.025 .32 -.036 .48zm.686 -8.756c.041 -.47 .08 -.942 .121 -1.409 -.04 .468 -.08 .94 -.12 1.409zm.939 -9.9c.01 -.093 .021 -.184 .03 -.277 -.009 .093 -.02 .184 -.03 .277zm-2.878 45.157c-.01 .487 -.02 .973 -.028 1.457 .008 -.484 .018 -.97 .028 -1.457zm-.077 7.84c0 .28 .004 .553 .006 .83 0 -.277 -.004 -.552 -.006 -.83zm.11 7.747c-.009 -.404 -.017 -.814 -.025 -1.22 .007 .408 .014 .815 .026 1.22zm51.35 141.097c.124 .154 .248 .309 .374 .462a42.866 42.866 0 01-.374 -.462zm-42.875 -80.586c.087 .316 .176 .63 .265 .944 -.088 -.314 -.178 -.628 -.265 -.944zm1.643 5.65c.01 .03 .018 .06 .027 .09a1.26 1.26 0 01-.027 -.09zm1.54 4.788c.102 .304 .202 .606 .305 .907a164.892 164.892 0 01-.305 -.907zm1.907 5.462c.036 .1 .074 .195 .112 .295a29.12 29.12 0 00-.112 -.295zm1.736 4.55c.102 .258 .202 .518 .304 .776 -.102 -.26 -.202 -.518 -.304 -.776zm2.091 5.104c.087 .202 .175 .404 .261 .604 -.085 -.2 -.175 -.402 -.26 -.604zm2.018 4.562c.08 .176 .16 .353 .24 .53 -.082 -.176 -.16 -.353 -.24 -.53zm2.214 4.691c.117 .241 .238 .483 .357 .725 -.119 -.241 -.24 -.483 -.357 -.725zm2.416 4.796c.008 .015 .016 .031 .024 .046 -.008 -.015 -.016 -.03 -.024 -.046zm2.214 4.126c.129 .233 .258 .467 .386 .7 -.128 -.233 -.257 -.467 -.386 -.7zm2.654 4.693c.012 .02 .024 .041 .036 .061 -.012 -.022 -.024 -.041 -.036 -.06zm2.356 3.933c.122 .2 .245 .403 .369 .604 -.124 -.2 -.246 -.404 -.37 -.604zm2.776 4.43c.087 .134 .175 .268 .26 .402 -.086 -.134 -.174 -.268 -.26 -.401zm2.628 3.995c.088 .13 .175 .26 .262 .391 -.087 -.13 -.174 -.26 -.262 -.391zm2.829 4.117zm5.774 7.92c.136 .18 .273 .36 .41 .54 -.137 -.18 -.273 -.36 -.41 -.54zM507.537 184.612c18.053 173.892 110.078 127.74 128.342 255.66a7.327 7.327 0 01.015 .067C621.743 382.32 569.452 339.245 507.072 339.245c-59.43 0 -109.725 39.092 -126.587 92.962 0 -.002 .002 -.003 .002 -.005 20.925 -117.952 109.39 -77.464 127.05 -247.59zM374.603 465.724a133.345 133.345 0 010 0zm5.471 -32.111zm-1.75 6.408zm-1.312 5.844zm-1.127 6.515zm-.844 7.115zm1.83 37.58c0 -.004 -.003 -.007 -.003 -.012 11.774 61.195 65.576 107.428 130.204 107.428 68.031 0 124.063 -51.235 131.705 -117.215 -3.283 107.136 -95.744 102.072 -131.24 238.47C473.162 593.643 385.347 594.235 376.87 497.074zm-1.874 -13.433c.031 .352 .047 .71 .082 1.061 -.036 -.35 -.05 -.708 -.082 -1.061zm262.364 -36.5zm1.022 6.222zm1.17 24.165a136.207 136.207 0 00.144 -5.664c0 1.9 -.059 3.785 -.144 5.664zm-.411 6.19zm-.068 -24.602zm86.268 23.297a35.687 35.687 0 00-.056 -.452c.02 .15 .037 .304 .056 .452zm3.253 37.867zm-.646 -10.672c-.003 -.036 -.005 -.072 -.008 -.107 .003 .036 .007 .072 .008 .107zm-.691 -8.797c-.034 -.397 -.067 -.795 -.103 -1.19 .036 .395 .069 .793 .103 1.19zm-.934 -9.818c-.003 -.037 -.007 -.073 -.011 -.111 .003 .037 .007 .073 .011 .111zm2.632 66.934c-.013 .277 -.027 .552 -.04 .829 .012 -.278 .026 -.552 .04 -.83zm-.38 6.659c-.012 .158 -.02 .32 -.032 .477 .012 -.158 .022 -.318 .031 -.477zm-.517 6.46c-.028 .31 -.059 .619 -.088 .929 .03 -.31 .06 -.619 .088 -.928zm-1.45 12.5c-.04 .295 -.083 .588 -.124 .88 .041 -.294 .083 -.587 .124 -.88zm-.99 6.46a57.75 57.75 0 00-.03 .169c.008 -.057 .02 -.113 .03 -.168zm-1 5.495c-.044 .228 -.087 .458 -.132 .686 .046 -.226 .088 -.457 .132 -.686zm-1.232 5.97c-.04 .181 -.082 .36 -.122 .539 .04 -.18 .082 -.358 .122 -.538zm-1.302 5.539c-.027 .109 -.054 .221 -.082 .33 .027 -.109 .054 -.22 .082 -.33zm-24.325 57.873zm22.905 -52.475c-.06 .219 -.122 .436 -.182 .652 .06 -.216 .122 -.433 .182 -.652zm-3.2 10.465a91.226 91.226 0 01-.206 .615c.07 -.205 .139 -.411 .207 -.615zm-3.667 10.054c-.059 .15 -.117 .301 -.178 .452 .059 -.15 .117 -.302 .178 -.452zm-2.065 5.026c-.037 .082 -.073 .163 -.107 .246 .034 -.082 .07 -.163 .107 -.246zm-2.092 4.72c-.02 .043 -.037 .086 -.057 .128a3.612 3.612 0 01.057 -.127zm-2.165 4.565c-.059 .121 -.12 .24 -.178 .36 .06 -.12 .12 -.24 .178 -.36zm-4.653 8.95c-.061 .113 -.126 .226 -.187 .34a19.014 19.014 0 01.187 -.34zM729.28 544.605c0 -.158 .003 -.313 .003 -.471 0 .158 -.003 .313 -.003 .471zm-.102 7.067c.008 -.305 .013 -.613 .02 -.918 -.007 .305 -.013 .613 -.02 .918zm.034 -15.318c.008 .39 .017 .779 .021 1.168 -.006 -.39 -.014 -.779 -.021 -1.168z"/></svg>