<svg height="1000" width="1000" xmlns="http://www.w3.org/2000/svg"><path d="M361.164 839.573L217.597 983.14h84.666a6162.812 6162.812 0 01102.591 -99.878l-43.69 -43.69zM964.647 370.466l-225.48 91.105L496.681 704.054l49.29 49.29c74.191 -65.986 147.982 -127.9 219.125 -183.37 -55.81 71.577 -117.503 145.281 -183.19 219.304l50.292 50.292L874.684 597.086l89.964 -226.62zm-476.61 -99.853h.004c15.734 127.106 26.066 267.164 31.231 410.85l62.685 -62.685 -.002 -349.61L486.066 45.956 390.163 269.17l-.002 328.363 -132.7 -132.7L31.976 373.73l89.967 226.62 330.165 330.165a5948.615 5948.615 0 01-50.6 52.625h87.122l8.05 -8.051 11.317 11.314h83.788C456.965 848.143 330.505 705.257 225.022 569.973c150.603 117.426 313.08 263.693 466.113 416.43h87.895L457.103 664.474C462.558 527.066 472.82 393.56 488.038 270.612zM309.03 267.219L192.53 413.77l126.843 -65.129 -3.457 114.78 66.092 -124.448v-85.006l51.954 -120.922L338.56 30.637l31.535 104.956L186.04 40.214 309.03 191.55 88.103 228.93zm281.63 -13.25v89.31l61.08 115.01 -5.017 -166.656 1.822 60.513 127.808 66.408L653.363 267.22l220.926 -38.287 -220.926 -37.38L776.353 40.216l-180.3 93.433 30.95 -103.01 -90.533 97.182 21.671 50.448z"/></svg>