<svg height="1000" width="1000" xmlns="http://www.w3.org/2000/svg"><path d="M962.354 376.643L293.988 28.787l-31.402 31.4C293.622 106.01 283.013 176.649 232.8 226.86S110.334 289.39 64.512 258.262l-29.787 29.786L381.79 957.207 678.915 782.455l-211.793 -16.92L573.4 659.228 395.447 645.54l92.62 -92.62 -160.24 -12.073 77.316 -77.315 -137.71 -10.457 69.236 -69.237 -119.997 -8.872c82.833 -15.03 154.752 -86.492 169.904 -169.904l9.664 119.174 68.443 -68.443 11.28 136.886 76.493 -76.492 12.896 159.447 91.797 -91.797 13.688 177.953L777.115 455.481l16.098 207.769L962.355 376.64z"/></svg>