<svg height="1000" width="1000" xmlns="http://www.w3.org/2000/svg"><path d="M324.216 31.24c-15.328 0 -29.292 14.356 -29.292 29.292v58.601h29.292v58.601H207.03c-133.282 0 -146.496 103.785 -146.48 146.48V851.56c0 22.932 -29.291 58.601 -29.291 58.601v58.602h937.49v-58.602s-29.291 -35.669 -29.291 -58.601V324.197c0 -42.71 -13.198 -146.48 -146.48 -146.48H675.792v-58.6h29.292V60.531c0 -14.937 -13.981 -29.292 -29.292 -29.292H324.216zm146.48 87.893h58.6c29.292 0 87.895 0 87.895 58.601H382.818c0 -58.601 58.585 -58.601 87.877 -58.601zM236.322 294.904H763.67c37.527 0 58.601 21.45 58.601 58.601v468.746c0 16.54 -15.106 29.292 -29.292 29.292H207.031c-14.186 0 -29.292 -12.754 -29.292 -29.292V353.505c0 -37.152 21.074 -58.601 58.585 -58.601zm410.16 410.161h117.186v58.601H646.483v-58.601zm0 -29.292v-205.08c0 -74.527 58.601 -117.187 58.601 -117.187s58.602 42.66 58.602 117.187v205.08H646.482zm-410.16 0v-205.08c0 -74.527 58.601 -117.187 58.601 -117.187s58.601 42.66 58.601 117.187v205.08H236.322zm205.08 0v-205.08c0 -74.527 58.6 -117.187 58.6 -117.187s58.602 42.66 58.602 117.187v205.08H441.401zm0 29.292h117.185v58.601H441.402v-58.601zm-205.08 0h117.186v58.601H236.323s0 -58.601 0 -58.601z"/></svg>