<svg height="1000" width="1000" xmlns="http://www.w3.org/2000/svg"><path d="M902.21 339.243l50.763 -3.84L780.565 149.384l39.888 196.041 41.577 -3.143c22.002 140.369 -4.175 275.002 -83.132 376.12L303.554 243.056C327.296 191.431 317.914 128.314 275.38 85.781 220.79 31.19 132.284 31.188 77.695 85.777c-54.59 54.59 -54.587 143.102 .002 197.69 42.463 42.461 105.445 51.875 157.026 28.277L339.441 416.46c-41.772 38.404 -85.801 74.552 -131.506 109.024l58.732 58.733c36.528 -43.956 74.015 -86.677 112.796 -127.732l330.66 330.66C609.031 866 474.477 892.146 334.194 870.167l3.149 -41.63L141.3 788.648l186.021 172.408 3.834 -50.699c168.858 72.105 346.33 67.497 470.63 -22.892l123.003 41.55L882.877 804.944C969.837 680.9 973.379 505.876 902.21 339.242zM114.954 246.235c-34.018 -34.017 -34.022 -89.18 0 -123.199 34.02 -34.02 89.174 -34.017 123.197 .003 34.017 34.022 34.016 89.176 -.002 123.194s-89.178 34.022 -123.195 .002zm461.134 28.563l-58.732 -58.733c-33.173 47.092 -69.587 90.943 -108.608 132.186l39.066 39.066c41.088 -39.652 83.72 -77.321 128.274 -112.52z"/></svg>