<svg height="1000" width="1000" xmlns="http://www.w3.org/2000/svg"><path d="M929.17 185.02C904.02 127.368 850.378 96.535 828.231 118.71l.005 -.003c-23.925 23.956 9.083 57.414 11.36 111.163C618.36 394.586 397.238 430.743 175.703 233.258c.978 -55.737 35.885 -90.095 11.462 -114.55l.002 .005C165.021 96.537 111.38 127.37 86.228 185.021c-84.427 193.52 -18.7 701.33 171.33 686.261C214.658 772.826 172.169 660.748 146.979 542.256c51.353 141.357 141.024 264.383 229.774 234.365C314.322 698.26 247.969 606.47 201.201 502.97c68.28 115.39 166.446 206.394 239.883 166.705C383.087 617.845 321.048 557.48 267.924 487.813c77.571 73.136 170.436 119.93 219.363 73.136C446.72 541.222 402.807 516.621 361.056 487.894l146.032 63.477L640.68 497.097C603.1 521.9 564.277 543.36 528.111 560.948c48.928 46.793 141.792 0 219.36 -73.136C694.345 557.479 632.306 617.844 574.31 669.675c73.436 39.689 171.602 -51.316 239.882 -166.704C767.425 606.468 701.073 698.26 638.642 776.62c88.75 30.017 178.422 -93.008 229.774 -234.365 -25.19 118.492 -67.679 230.57 -110.581 329.026C947.869 886.348 1013.595 378.54 929.169 185.02zm-753.487 48.22zm-31.586 -29.762zm20.956 20.101zm-10.637 -10.03zm696.572 7.73zm23.042 -18.063zm-22.97 18.008zm11.502 -8.906zm-354.86 20.139c92.235 0 167.01 -36.484 167.01 -81.492 0 -45.012 -74.775 -81.492 -167.01 -81.492s-167.01 36.486 -167.01 81.492c0 45.007 74.775 81.492 167.01 81.492zm0 -149.934c68.225 0 123.535 26.985 123.535 60.279 0 33.292 -55.31 60.279 -123.535 60.279S384.167 176.093 384.167 142.801c0 -33.29 55.31 -60.278 123.535 -60.278z"/></svg>