<svg height="1000" width="1000" xmlns="http://www.w3.org/2000/svg"><path d="M159.528 702.348C400.023 548.595 557.52 386.248 703.388 152.123L823.48 270.828C594.004 417.536 428.96 581.358 279.62 821.053l-120.092 -118.7s0 -.004 0 -.004zm393.55 -222.182a1554.408 1554.408 0 00-66.004 66.716c129.625 86.866 220.479 246.593 307.347 403.563L961.135 781.78C800.841 695.487 640.185 608.329 553.08 480.166zM170.043 398.4c77.982 77.078 178.603 87.749 243.85 110.303A1517.489 1517.489 0 00514.537 406.747C491.713 341.547 478.91 241.994 400.873 164.86 284.485 49.814 138.57 9.042 74.877 73.483l.002 .002C11.186 137.922 53.65 283.355 170.042 398.4zm-20.11 -250.525c32.583 -32.964 117.376 -1.982 189.392 69.2s103.982 155.611 71.399 188.576c-32.584 32.964 -117.377 1.982 -189.392 -69.2S117.35 180.842 149.932 147.876z"/></svg>