<svg height="1000" width="1000" xmlns="http://www.w3.org/2000/svg"><path d="M482.021 310.685c-.245 -81.357 -21.545 -147.51 -64.279 -221.384C435.602 46.058 492.556 39.793 522.02 41.622c20.112 99.054 23.968 175.246 15.28 270.91zm497.28 195.744C976.472 291.269 823.127 149.878 637.007 190.823c-33.146 7.294 -65.175 19.747 -95.352 36.638 -.158 27.32 -1.647 55.25 -4.354 85.072l-55.279 -1.847c-.082 -27.114 -2.515 -52.535 -7.289 -77.119C441.265 214.422 405.568 200.66 368.67 193.248c-23.395 -4.698 -46.525 -7.26 -68.52 -6.494l.003 -.005C146.18 192.099 16.168 326.683 18.643 514.953 21.467 730.111 177.676 935.36 364.826 972.94c47.896 9.621 115.691 10.196 147.781 -20.547 31.49 25.903 101.1 28.353 148.732 17.874C847.456 929.318 982.13 721.59 979.301 506.429zm-302.825 -98.06C668.259 489 627.928 530.616 543.085 518.147c-19.4 -69.245 51.598 -140.677 133.39 -109.778zM508.846 325.55c60.566 60.708 51.17 117.893 -8.69 172.537 -73.54 -47.277 -58.483 -146.854 8.69 -172.537zm-51.453 173.64c-79.01 33.336 -128.486 3.164 -156.655 -72.833 71.433 -50.414 158.072 .927 156.655 72.834zm-194.491 64.601c50.216 -71.571 149.107 -52.487 172.043 15.667 -63.112 58.06 -119.869 46.36 -172.043 -15.667zm37.1 177.225c-7.941 -87.068 79.844 -136.433 141.401 -99.253 -10.626 85.093 -61.499 112.852 -141.4 99.253zm184.666 88.871c-59.86 -54.644 -69.253 -111.829 -8.689 -172.537 67.173 25.68 82.23 125.258 8.689 172.537zm175.946 -90.8C581.047 754.532 529.548 727.956 516.953 643.134c60.68 -38.6 149.585 8.717 143.66 95.952zM539.926 570.783c35.19 -62.715 135.905 -63.101 171.96 16.543 -62.78 51.27 -120.726 52.226 -171.96 -16.543z"/></svg>