<svg height="1000" width="1000" xmlns="http://www.w3.org/2000/svg"><path d="M282.109 336.615l-211.8 149.502V318.962l275.383 -182.09 68.573 132.861L587.549 134.342l70.418 132.77L831.65 137.358l93.395 138.664 -2.477 219.838L790.051 342.707 608.015 475.486 540.428 340.347 359.052 467.242 282.108 336.615zm0 378.532l-211.8 149.52V697.511l275.383 -182.08 68.573 132.844L587.549 512.892l70.418 132.769L831.65 515.9l93.395 138.674 -2.477 219.838L790.051 721.258l-182.036 132.77L540.428 718.889 359.052 845.792 282.108 715.146z"/></svg>