<svg height="1000" width="1000" xmlns="http://www.w3.org/2000/svg"><path d="M202.101 485.965c0 228.12 296.394 476.071 296.394 476.071S794.892 714.116 794.878 485.965c.007 -604.506 -592.778 -593.1 -592.777 0zm211.932 249.403c-37.722 -40.808 -66.238 -93.92 -84.28 -151.682 -28.878 -8.05 -49.956 -34.66 -49.683 -66.07 .194 -22.347 11.15 -42.082 27.907 -54.328 -3.565 -64.163 5.61 -127.784 29.085 -181.776l29.024 171.142c29.012 7.962 50.214 34.635 49.941 66.141 -.199 22.977 -11.784 43.176 -29.339 55.33l27.346 161.242zm168.914 0l27.345 -161.24C592.736 561.975 581.15 541.774 580.95 518.795c-.275 -31.508 20.931 -58.18 49.944 -66.143l29.024 -171.14c23.475 53.991 32.65 117.614 29.085 181.778 16.754 12.246 27.711 31.979 27.903 54.324 .273 31.408 -20.802 58.017 -49.678 66.069 -18.044 57.761 -46.56 110.875 -84.282 151.683z"/></svg>