<svg height="1000" width="1000" xmlns="http://www.w3.org/2000/svg"><path d="M812.745 217.29l15.783 60.643 -72.812 14.346C717.46 181.498 638.837 90.029 530.696 65.956c74.96 63.784 127.448 143.104 159.159 229.052l-266.54 41.37c-.003 .006 -.007 .011 -.011 .017 12.275 -20.458 18.425 -48.11 15.43 -77.773 -5.83 -57.725 -44.026 -101.14 -85.313 -96.969S283.39 216 289.221 273.723c1.96 19.411 7.594 37.19 15.76 52.102 -.002 -.002 -.002 -.003 -.003 -.007 -86.893 2.311 -149.13 22.606 -180.951 74.561 41.112 38.616 122.482 45.4 186.066 35.323l39.566 107.462L246.703 957.941h66.66L432.49 628.583 647.335 957.94h65.504L488.889 529.814l-9.21 -138.027 226.595 -44.91c30.314 113.693 26.666 235.469 -7.506 346.322C785.36 592.302 800.648 439.78 761.347 309.682l124.096 -24.46 -3.508 -17.8 .034 -.006 3.51 17.81 -52.368 10.319 15.652 60.138L956.82 264.686 812.743 217.29zm-457.69 151.868zm3.954 .88zm-52.192 -40.995c-.16 -.27 -.32 -.54 -.477 -.813 .158 .273 .318 .542 .477 .813zm8.285 12.168c-.157 -.2 -.309 -.404 -.465 -.604 .155 .2 .308 .404 .465 .604zm-3.254 -4.375c-.197 -.28 -.395 -.557 -.589 -.84 .195 .283 .392 .562 .589 .84zm-2.059 -3.01c-.061 -.092 -.12 -.189 -.182 -.283 .061 .094 .122 .19 .182 .284zm6.83 9.26a94.13 94.13 0 00.784 .934c-.262 -.31 -.525 -.618 -.784 -.934zm3.372 3.864c.297 .323 .592 .651 .893 .969 -.3 -.319 -.596 -.645 -.893 -.97zm2.383 2.507c.358 .36 .718 .714 1.078 1.066 -.36 -.354 -.72 -.706 -1.078 -1.066zm26.374 17.688zm-23.034 -14.491zm2.784 2.434zm3.27 2.584zm3.19 2.27zm3.217 2.052zm3.544 1.983zm3.183 1.567zm21.955 5.382zm-7.55 -.827zm4.174 .574zm7.624 .245a55.69 55.69 0 010 0zm34.152 -13.298c-.176 .141 -.356 .275 -.532 .416 .175 -.141 .355 -.275 .532 -.416zm-3.02 2.311c-.231 .166 -.468 .321 -.7 .485 .232 -.164 .469 -.319 .7 -.485zm-3.124 2.114c-.294 .186 -.592 .356 -.887 .536 .294 -.18 .595 -.35 .887 -.536zm-3.225 1.913c-.36 .199 -.73 .376 -1.093 .567 .362 -.19 .732 -.37 1.093 -.567zm-3.327 1.7c-.435 .205 -.88 .384 -1.32 .579 .44 -.195 .883 -.375 1.32 -.58zm-3.423 1.48c-.519 .203 -1.051 .378 -1.576 .566 .525 -.188 1.056 -.363 1.576 -.567zm-3.519 1.252c-.616 .195 -1.245 .356 -1.868 .53 .623 -.174 1.25 -.334 1.868 -.53zm-3.61 1.015c-.765 .187 -1.543 .33 -2.319 .486 .777 -.153 1.555 -.299 2.319 -.486zm28.7 -16.713c.088 -.088 .178 -.173 .266 -.263 -.088 .09 -.178 .175 -.266 .263zm-2.932 2.77c.131 -.117 .263 -.23 .394 -.346 -.13 .117 -.263 .228 -.394 .345zm13.305 -15.543c-.007 .01 -.015 .022 -.022 .032 .008 -.012 .015 -.022 .022 -.032zm-2.357 3.386a.763 .763 0 000 0zm-2.471 3.215c-.031 .037 -.062 .075 -.093 .114 .031 -.039 .062 -.075 .093 -.114zm-2.586 3.044c-.054 .06 -.11 .12 -.163 .18 .054 -.06 .11 -.12 .163 -.18z"/></svg>