<svg height="1000" width="1000" xmlns="http://www.w3.org/2000/svg"><path d="M305.967 493.693c0 107.17 86.876 194.045 194.045 194.045S694.058 600.862 694.058 493.693 607.182 299.647 500.012 299.647 305.967 386.523 305.967 493.693zM500.084 377.062c64.452 0 116.7 52.248 116.7 116.7s-52.248 116.7 -116.7 116.7 -116.7 -52.248 -116.7 -116.7 52.248 -116.7 116.7 -116.7zm56.462 116.7c0 31.184 -25.279 56.464 -56.462 56.464S443.62 524.946 443.62 493.763c0 -31.184 25.28 -56.463 56.463 -56.463s56.462 25.28 56.462 56.463zm166.826 151.922c.002 -.002 .003 -.005 .005 -.006l34.781 114.649C827.818 692.872 871.135 598.376 871.135 493.75 871.135 311.5 739.746 159.948 566.521 128.63L541.82 47.205l-100.997 -.002 -25.553 85.23C251.204 170.792 129.008 317.996 129.008 493.752c0 98.755 38.584 188.494 101.494 254.977l-60.734 202.574h91.424l45.812 -140.64c40.75 24.878 86.664 42.134 135.768 49.745v90.894h101.584V760.18a271.836 271.836 0 01-44.26 3.63 271.009 271.009 0 01-57.306 -6.114c-38.636 -8.35 -74.19 -24.978 -104.727 -47.918 -28.97 -21.765 -53.426 -49.205 -71.694 -80.693 .14 .238 .285 .47 .423 .706 -23.342 -39.944 -36.73 -86.414 -36.73 -136.02 0 -105.763 60.81 -197.308 149.369 -241.62 -.022 .01 -.041 .02 -.062 .03C415.702 233.988 456.7 223.735 500.1 223.735c35.8 0 69.964 6.984 101.229 19.635 98.977 40.054 168.807 137.065 168.807 250.403 0 56.357 -17.275 108.673 -46.8 151.967a271.519 271.519 0 01-74.738 73.587c.007 -.005 .01 -.008 .017 -.012 -30.904 20.39 -66.241 34.601 -104.256 40.874v101.993a368.704 368.704 0 00136.538 -44.364l43.774 133.48h91.424L723.378 645.679c-.002 .001 -.003 .004 -.005 .006z"/></svg>