<svg height="1000" width="1000" xmlns="http://www.w3.org/2000/svg"><path d="M148.447 31.245C70.309 70.313 60.555 89.847 60.555 89.847c78.137 312.5 9.754 537.106 -29.29 732.425 0 0 19.535 48.823 175.784 87.892v-410.17c-.024 -156.25 -58.602 -468.75 -58.602 -468.75zm703.111 0s-58.602 312.499 -58.602 468.748V910.14C949.206 871.07 968.74 822.247 968.74 822.247 929.67 626.93 861.313 402.322 939.45 89.822c0 .025 -9.754 -19.51 -87.892 -58.577zM441.412 382.812c-78.138 0 -175.784 29.289 -175.784 29.289v527.351s97.647 29.29 175.784 29.29h117.181c78.138 0 175.784 -29.29 175.784 -29.29V412.101S636.73 382.812 558.593 382.812H441.412z"/></svg>