<svg height="1000" width="1000" xmlns="http://www.w3.org/2000/svg"><path d="M673.767 102.506C589.89 142.899 533.864 231.139 496.804 337.961 459.738 231.139 403.7 142.899 319.834 102.506 51.251 -26.874 -51.622 344.204 147.275 501.828h165.04s-48.895 -85.632 -54.62 -97.761C248.92 385.54 197.286 251.496 270.336 298.69c98.839 63.85 121.406 291.766 132.194 392.06 10.845 100.936 17.146 234.226 17.146 234.226h154.262s6.3 -133.29 17.155 -234.226C601.88 590.465 624.448 362.54 723.277 298.69c73.06 -47.194 21.407 86.861 12.65 105.377 -5.735 12.129 -54.63 97.761 -54.63 97.761h165.03C1045.226 344.204 942.353 -26.864 673.768 102.506z"/></svg>