<svg height="1000" width="1000" xmlns="http://www.w3.org/2000/svg"><path d="M522.4 450.805l52.492 -198.536 -34.276 -34.277 -32.768 73.194 -.619 -106.582 -46.012 -46.012 -23.663 38.588 -4.546 -66.798L357.282 34.655l-52.43 198.292L174.03 101.936l-61.41 61.413L244.466 295.38 42.795 348.706 75.5 381.412l99.573 -1.955 -72.639 28.891 76.957 76.957 64.306 3.998 -25.148 17.39 40.427 2.513 -32.92 22.765 34.348 34.347 201.432 -53.262 469.58 470.242h48.9v-73.92zm150.152 -44.81l62.271 4.24 -35.975 22.055 60.145 60.144L875.01 461.757l105.306 105.307V456.751l-52.597 -52.597 28.925 -109.39L820.078 158.2l-28.925 109.386 -74.671 -74.673 -54.588 55.727 76.553 76.556 -116.019 30.677 50.124 50.123zM876.741 461.3zM778.738 314.539zM336.137 906.422l40.216 -152.09 -27.141 -27.138 -23.667 38.61 -4.553 -66.83 -81.206 -81.205 -28.888 109.252 -74.4 -74.658L80.775 708.09l76.817 76.818L42.13 815.438l105.457 105.457h66.586l-32.228 30.248 112.21 -29.67 61.828 61.828h110.31L347.366 863.96z"/></svg>