<svg height="1000" width="1000" xmlns="http://www.w3.org/2000/svg"><path d="M866.805 819.607l-86.19 -101.092 -78.726 -10.57L524.717 498.362 693.85 302.778l-18.886 -16.333L515.522 470.823V177.571h-24.969V457.95L343.35 283.817l-19.069 16.12 166.272 196.688v3.072L311.838 706.365l-85.364 11.463 -86.5 101.452 53.704 23.723 -18.284 21.144 18.886 16.333 18.802 -21.742 32.563 50.737 86.502 -101.452 -1.624 -85.093L490.554 537.87v179.383L430.492 785v138.442l60.062 -18.162v36.048h24.97v-35.593l59.246 17.707V785l-59.247 -66.057v-192.78l161.543 191.091 -1.738 91.138 86.192 101.087 33.68 -52.48 22.174 26.23 19.068 -16.12L815.46 842.29zM294.985 333.254l-18.408 -98.917 95.616 33.851 45.15 -19.825L231.22 182.473l36.085 193.902zm444.48 43.121l36.086 -193.902 -186.124 65.89 46.634 20.478 97.456 -34.503L714.363 337.27zM502.676 109.322l43.763 75.701 54.97 16.564L502.583 30.657l-98.403 170.93 54.957 -16.631z"/></svg>