<svg height="1000" width="1000" xmlns="http://www.w3.org/2000/svg"><path d="M660.574 224.54c37.67 54.458 22.956 117.743 -17.185 144.205C669.779 235.563 407.832 163.512 570.698 31.788l.002 -.116C352.963 59.405 306.336 226.613 385.008 356.424 300.715 321.514 264.314 270.11 299.76 195.333 218.372 237.551 175.418 321.54 177.233 412.182c1.42 70.878 29.789 126.187 73.716 166.298C228.795 521.874 223 462.78 237.143 412.917c69.808 96.35 269.13 -39.063 287.312 -154.857C524.38 382.422 649.41 489.235 744.57 360.377c16.966 70.23 13.198 142.973 -4.735 201.5 36.634 -38.592 59.918 -88.568 61.64 -149.692 2.466 -87.65 -41.127 -145.449 -140.9 -187.643zM801.57 681.227L501.028 451.268 200.483 681.226zm-84.114 -64.359V473.36H594.181v49.184zm-435.55 64.36v295.306h435.551V681.226H281.907zm135.538 211.855h-72.282v-69.505h72.282v69.505zm0 -120.167h-72.282v-69.504h72.282v69.504zm116.771 120.167h-72.282v-69.505h72.282v69.505zm0 -120.167h-72.282v-69.504h72.282v69.504zm45.874 -69.502h72.282v69.504H580.09v-69.504zm73.675 264.734h-72.282V824.968h72.282v143.18z"/></svg>