<svg height="1000" width="1000" xmlns="http://www.w3.org/2000/svg"><path d="M964.455 706.875C907.027 669.183 817.307 619.795 817.307 564.295S907.03 457.12 964.45 419.429c-66.162 .828 -152.862 -21.407 -176.804 -69.578 -24.05 -48.4 19.522 -113.738 53.613 -180.223 -57.032 39.303 -112.464 90.592 -153.99 62.738S625.947 103.174 626.817 25.91l-.003 -.002c-32.512 67.545 -75.09 117.49 -123.191 117.49 -47.894 0 -91.866 -49.32 -124.33 -116.348 .716 76.872 -18.992 177.505 -60.452 205.318 -41.46 27.815 -96.954 -23.434 -153.99 -62.738 34.092 66.485 82.226 131.823 58.175 180.223 -23.85 47.998 -115.544 70.23 -181.367 69.578 57.299 37.678 153.987 89.428 153.992 144.866 .003 55.437 -96.687 104.905 -153.992 142.58 65.822 -.65 157.512 22.722 181.367 70.72C246.909 825.66 205.41 887.57 157.13 944.706c87.553 -30.102 127.214 -11.219 166.73 21.098h62.005C302.395 896.634 245.15 755.207 245.15 591.672 245.147 359.99 360.22 171.91 501.797 171.91h.002c141.577 0 256.647 188.087 256.647 419.762 0 163.536 -57.245 304.962 -140.715 374.132h53.274c38.765 -28.554 77.737 -50.116 175.18 -18.144C794.946 888.553 763.764 825.663 787.651 777.595c23.938 -48.175 110.643 -71.549 176.804 -70.72zM569.123 407.567c18.327 -22.986 30.112 -54.928 30.112 -90.318C599.233 247.36 554.737 190.95 500.08 190.95c-3.417 0 -6.952 -.434 -10.282 0l.003 .003c-49.909 6.485 -88.872 60.772 -88.872 126.298 0 36.289 12.432 68.696 31.58 91.785C328.718 428.565 320.87 603.464 320.87 726.25h71.978l19.097 256.266h182.883L611.72 726.25h68.309c0 -123.129 2.47 -301.106 -110.905 -318.682z"/></svg>