<svg height="1000" width="1000" xmlns="http://www.w3.org/2000/svg"><path d="M587.052 324.25c21.102 -26.262 34.658 -62.816 34.658 -103.276C621.71 141.059 570.5 76.566 507.594 76.566c-3.939 0 -8 -.489 -11.847 0 -57.44 7.42 -102.299 69.501 -102.299 144.408 0 41.5 14.322 78.54 36.338 104.955C310.326 348.252 301.288 548.237 301.288 688.616h82.847l21.987 293h210.49l19.45 -293h78.633C714.697 547.84 717.537 344.344 587.053 324.25zM777.245 35.735c66.374 42.96 109.08 107.493 109.08 180.233 0 72.312 -42.116 137.235 -107.857 180.233C891.043 363.722 968.747 295.106 968.747 215.968 968.704 136.548 890.495 68.07 777.245 35.735zm-80.904 314.839c84.063 -24.27 142.097 -75.512 142.097 -134.606 0 -59.343 -58.415 -110.479 -142.983 -134.606 49.612 32.087 81.452 80.272 81.452 134.606 0 54.012 -31.459 102.517 -80.567 134.606zM675.704 215.968c0 39.124 -22.784 74.267 -58.372 97.542 60.899 -17.59 102.974 -54.722 102.974 -97.542 0 -42.998 -42.325 -80.025 -103.647 -97.543 35.924 23.274 59.045 58.17 59.045 97.543zm-547.661 0c0 -72.74 42.704 -137.272 109.08 -180.233 -113.25 32.337 -191.5 100.813 -191.5 180.233 0 79.137 77.704 147.754 190.279 180.233C170.159 353.203 128.042 288.279 128.042 215.968zm47.884 0c0 59.094 58.034 110.336 142.098 134.606C268.918 318.486 237.457 269.98 237.457 215.968c0 -54.335 31.84 -102.518 81.452 -134.606 -84.57 24.127 -143.026 75.262 -142.983 134.606zm221.065 97.541C361.404 290.235 338.62 255.092 338.62 215.967c0 -39.371 23.121 -74.267 59.046 -97.543 -61.277 17.518 -103.647 54.546 -103.647 97.543 0 42.818 42.075 79.952 102.973 97.542z"/></svg>