<svg height="1000" width="1000" xmlns="http://www.w3.org/2000/svg"><path d="M429.444 682.2L687.94 423.706l-13.774 -13.773 58.608 -58.606 -85.187 -85.19 -58.608 58.609L575.205 310.97l-10.664 10.664c-37 -73.428 -30.083 -163.06 36.164 -276.254l-.001 -.003C278.754 -83.879 -68.505 308.231 42.878 615.656 147.21 555.002 254.804 529.12 335.113 551.061l-18.404 18.404 13.775 13.774L20.944 892.776v88.689h81.689L415.67 668.426l13.773 13.774zM955.56 400.235C840.786 467.405 750.397 473.8 676.508 435.138L449.061 662.585c23.584 80.61 -2.248 189.632 -63.779 295.475C692.705 1069.442 1084.818 722.183 955.56 400.235z"/></svg>