<svg height="1000" width="1000" xmlns="http://www.w3.org/2000/svg"><path d="M940.41 396.64C884.97 183.22 695.105 44.33 489.89 50.782 317.221 40.465 142.486 113.623 36.43 252.17 87.374 208.788 147.9 177.365 212.39 159.408c-121.587 104.88 -184.81 271.64 -155.592 440C58.93 544.212 72.059 490.683 94.489 441.867c0 -.02 0 -.039 0 -.058 2.242 100.583 36.068 199.511 101.954 280.02C121.4 571.745 152.695 339.816 278.384 249.485a253.741 253.741 0 00-4.157 3.08 383.311 383.311 0 0172.52 -28.207C555.861 166.58 770.414 295.205 826.48 510.76c35.866 137.98 -2.157 278.111 -88.972 376.356a402.575 402.575 0 0015.255 -18.335C647.972 849.043 648.79 745.7 780.122 644.327l-96.068 -71.303c-3.833 11.294 -7.913 21.85 -12.201 31.7L294.893 338.958c-36.492 -21.078 -59.607 21.956 -30.75 40.519l383.486 270.377C583.711 745.902 494.34 725.59 454.814 621.058c-105.322 89.107 -56.462 248.567 44.737 319.078 92.243 64.295 229.804 50.774 290.302 -61.714C923.278 765.87 987.974 579.622 940.412 396.641zM502.75 51.71c.478 .041 .959 .085 1.437 .126 -.478 -.04 -.957 -.085 -1.437 -.126zm13.075 1.264c.565 .062 1.13 .122 1.696 .184 -.565 -.062 -1.13 -.122 -1.696 -.184zm13.639 1.658c.334 .046 .671 .087 1.007 .133 -.337 -.048 -.673 -.088 -1.007 -.133zm17.671 137.106zm-11.506 -5.75zm-9.486 -4.444zm-9.25 -4.075zm-10.33 -4.24zm-11.226 -4.255zM454.067 156.19zm31.549 9.366zm-9.503 -3.1zm-10.87 -3.245zm-232.22 -5.059zM338.49 141.9zm-11.218 .178zm-10.19 .386zm-21.084 1.502zm-11.08 1.176zm-10.12 1.294zm-20.97 3.394zm-10.85 2.139zM97.627 374.897zm-2.559 30.286c.054 -1.008 .1 -2.018 .16 -3.026 -.06 1.007 -.106 2.016 -.16 3.026zm.588 -9.349zm.856 -10.305zM282.587 246.524c.175 -.119 .343 -.245 .518 -.364h.002c-.175 .12 -.345 .245 -.52 .364zm56.453 -104.63zm105.106 11.863zm-9.691 -2.153zm-11.116 -2.18zM412.12 147.52zm-10.085 -1.48zm-9.82 -1.226zm-11.204 -1.12zm-11.253 -.85zM569.606 61.632c.65 .139 1.298 .29 1.946 .432 -.648 -.143 -1.298 -.293 -1.946 -.432zm12.499 2.852c.99 .238 1.978 .483 2.968 .727 -.989 -.243 -1.978 -.488 -2.968 -.727zm12.621 3.209c1.058 .282 2.112 .562 3.168 .851 -1.056 -.289 -2.112 -.568 -3.168 -.851zm13.03 3.667c.88 .26 1.762 .51 2.642 .774 -.88 -.267 -1.762 -.515 -2.643 -.774zm27.486 8.95c.823 .295 1.64 .61 2.462 .908 -.822 -.298 -1.64 -.611 -2.462 -.907zm11.999 4.475c1.322 .512 2.637 1.041 3.956 1.563 -1.319 -.522 -2.636 -1.05 -3.956 -1.563zm11.978 4.816zm12.034 5.195c1.442 .644 2.884 1.284 4.32 1.942 -1.436 -.658 -2.877 -1.298 -4.32 -1.942zm12.379 5.732c1.238 .592 2.482 1.171 3.718 1.776 -1.236 -.605 -2.479 -1.183 -3.718 -1.776zm39.185 824.735c-1.143 .653 -2.282 1.312 -3.432 1.956 1.15 -.643 2.287 -1.303 3.432 -1.956zm-6.953 -15.509zm-18.397 16.715zm39.999 -39.306zm-5.368 5.952zm-5.49 5.849zm-11.329 11.36zm-5.834 5.505zm-5.935 5.381zm-24.764 20.255a397.73 397.73 0 01-4.497 3.313c1.503 -1.1 3.01 -2.196 4.497 -3.313zm12.577 -9.867zm-6.237 4.996zm-3.719 -262.954zM665.8 950.791a386.322 386.322 0 000 0zm6.522 -4.599a372.657 372.657 0 01-4.658 3.285c1.559 -1.087 3.118 -2.173 4.658 -3.285zm42.164 -16.289a403.999 403.999 0 01-4.11 2.214c1.377 -.728 2.742 -1.472 4.11 -2.214zm-8.735 4.623zm-8.974 4.495zm-9.157 4.333zm-9.323 4.156zm49.937 -25.37c.503 -.297 .999 -.604 1.5 -.902 -.502 .298 -.997 .607 -1.5 .903zm23.533 -14.893c.237 -.16 .477 -.315 .713 -.477 -.236 .16 -.476 .317 -.713 .477zm30.536 -22.6c.293 -.237 .583 -.475 .876 -.712 -.293 .237 -.583 .475 -.876 .713zm-23.185 17.511c.46 -.325 .922 -.645 1.381 -.97 -.459 .325 -.922 .645 -1.38 .97zm7.757 -5.6c.482 -.355 .964 -.71 1.442 -1.068 -.478 .357 -.962 .711 -1.442 1.068zm7.752 -5.854c.43 -.332 .86 -.667 1.289 -1 -.43 .335 -.86 .668 -1.29 1z"/></svg>