<svg height="1000" width="1000" xmlns="http://www.w3.org/2000/svg"><path d="M503.054 52.683c-244.59 0 -442.882 198.293 -442.882 442.891s198.283 442.883 442.882 442.883S945.936 740.172 945.936 495.575 747.646 52.683 503.054 52.683zm257.716 727.44c67.792 -99.72 80.319 -239.953 28.427 -371.078 -19.393 40.389 -60.673 68.275 -108.471 68.275 -66.418 0 -120.26 -53.842 -120.26 -120.26 0 -37.908 17.557 -71.7 44.965 -93.742 -17.997 -8.65 -30.903 -26.199 -33.014 -46.943 -9.89 11.666 -24.641 19.078 -41.132 19.078 -29.774 0 -53.91 -24.136 -53.91 -53.908 0 -17.767 8.598 -33.522 21.858 -43.344C468.18 129.693 436.61 125.376 405.346 125.537c32.39 -8.918 66.492 -13.708 101.717 -13.708 211.141 0 382.314 171.176 382.314 382.323 0 113.783 -49.725 215.937 -128.606 285.971z"/></svg>