<svg height="1000" width="1000" xmlns="http://www.w3.org/2000/svg"><path d="M484.22 759.521c127.27 117.458 295.616 193.455 480.802 202.156C956.61 776.052 880.27 608.125 762.856 480.863c15.42 61.255 23.064 127.961 21.239 199.155a16547.704 16547.704 0 00-32.899 -32.997 7204.295 7204.295 0 00-92.155 -90.513l51.954 -104.292 -105.917 52.765A6879.796 6879.796 0 00495.668 403.81l49.348 -99.058L442.202 355.97c-36.445 -32.248 -72.784 -63.66 -108.835 -94.055l41.81 -83.925 -89.19 44.433c-33.26 -27.404 -66.2 -53.86 -98.676 -79.23l35.628 -71.519 -77.987 38.85C110.242 84.104 76.149 59.025 42.865 35.488c23.429 33.094 48.37 66.95 74.62 101.388l-39.958 80.209 73.605 -36.667c25.056 31.992 51.158 64.414 78.188 97.141l-45.951 92.24 86.88 -43.28c29.59 34.978 60.146 70.222 91.5 105.576l-55.521 111.448 107.492 -53.55a6946.487 6946.487 0 0099.114 106.803l-53.19 106.773 105.23 -52.423a7393.759 7393.759 0 00128.16 129.243c-74.8 2.806 -144.948 -4.647 -208.814 -20.868z"/></svg>