<svg height="1000" width="1000" xmlns="http://www.w3.org/2000/svg"><path d="M954.381 499.855C954.381 247.912 750.144 43.676 498.205 43.676S42.03 247.914 42.03 499.855c0 88.864 25.436 171.776 69.387 241.901C89.459 690.754 77.277 634.552 77.277 575.497c0 -232.445 188.432 -420.877 420.872 -420.877s420.875 188.432 420.875 420.877c0 59.284 -12.282 115.693 -34.401 166.854 44.18 -70.25 69.758 -153.381 69.758 -242.496zM498.15 219.576L366.11 605.89 167.422 550.63v383.43L309.125 784.335l73.447 56.56 27.041 118.084h177.132l27.051 -118.136 73.375 -56.506 141.7 149.723V550.632L630.19 605.887 498.15 219.578zm65.337 404.86a706.31 706.31 0 01.245 6.687c.012 .339 .02 .681 .03 1.021a608.395 608.395 0 01.178 7.2c.036 1.84 .065 3.69 .087 5.557 .005 .438 .012 .871 .017 1.31 .022 2.316 .036 4.651 .036 7.011H432.213c0 -2.29 .012 -4.554 .034 -6.804 .007 -.664 .017 -1.322 .024 -1.983a641.167 641.167 0 01.12 -6.928c.036 -1.64 .08 -3.268 .126 -4.884 .017 -.568 .032 -1.139 .05 -1.703a659.611 659.611 0 01.236 -6.446c9.143 -216.39 121.517 -216.145 130.683 -.039z"/></svg>