<svg height="1000" width="1000" xmlns="http://www.w3.org/2000/svg"><path d="M823.677 756.857l-30.429 -76.265L560.281 470.778c114.794 -56 245.578 -50.127 278.074 101.982C1017.248 431.215 979.54 221.104 845.328 31.753c33.968 97.394 -37.078 194.423 -145.185 100.2 50.18 109.618 -56.034 177.951 -128.75 114.142C605.667 357.38 538.845 397.505 470.158 389.61L340 272.386a791.286 791.286 0 01131.954 -95.54l-83.13 -83.13L272.664 209.872C193.965 177.445 134 113.778 88.185 26.528L27.83 86.885c77.187 38.995 142.615 94.453 183.343 184.486L95.016 387.527l84.27 83.131c27.622 -47.843 59.81 -92.525 96.163 -133.47l120.72 134.356c6.236 68.235 -34.366 133.077 -143.865 98.983 63.817 73.519 -4.516 180.9 -114.135 130.17 94.221 109.294 -2.816 181.117 -100.2 146.78 189.354 135.696 399.464 173.815 541.011 -7.05l-.002 -.007C427.491 807.702 421.04 676.43 476.302 560.725l206.731 230.082 75.618 30.173c-21.499 13.42 -46.16 23.681 -74.017 30.747L964.361 960.12 855.968 680.383c-7.334 28.922 -18.107 54.404 -32.292 76.473z"/></svg>