<svg height="1000" width="1000" xmlns="http://www.w3.org/2000/svg"><path d="M441.412 31.245c-48.701 0 -87.892 26.127 -87.892 58.602v29.289h-87.893c-57.72 0 -117.181 59.485 -117.181 117.181v615.244c0 57.72 59.485 117.181 117.181 117.181h468.749c57.72 0 117.181 -59.485 117.181 -117.181V236.317c0 -57.72 -59.485 -117.181 -117.181 -117.181h-87.892v-29.29c0 -32.45 -39.192 -58.601 -87.893 -58.601H441.41zM265.628 236.342h468.749v615.243H265.628V236.342zm234.363 58.578v205.072H353.496l146.495 292.965V587.885h146.495L499.99 294.92z"/></svg>