<svg height="1000" width="1000" xmlns="http://www.w3.org/2000/svg"><path d="M897.365 600.162c-4.693 -2.005 -9.633 -3.19 -14.754 -3.63l.448 -1.036L737.714 532.493c-.03 -.012 -.059 -.021 -.088 -.034l-229.45 -99.453v118.656l176.586 -33.03 -5.925 22.903 -23.075 89.205 -54.623 1.969s0 0 0 .002l-92.963 3.348V797.93l96.372 41.771c.002 .002 .003 .002 .007 .003l145.347 63 .159 -.365a46.965 46.965 0 0011.33 6.89c44.572 19.035 111.142 -34.725 148.69 -120.071S941.939 619.195 897.367 600.16zm1.042 184.01c-16.893 38.398 -45.292 63.245 -63.43 55.5S815.83 794.52 832.721 756.121c16.892 -38.399 45.291 -63.246 63.43 -55.501s19.146 45.153 2.255 83.551zM325.595 68.411c-93.635 0 -169.542 39.053 -169.542 87.23 0 1.414 .073 2.82 .2 4.218v179.62c-24.802 21.747 -48.532 54.815 -65.9 94.884C54.29 517.566 58.991 600.154 100.4 621.088l-.034 .08 2.433 1.054c.003 .001 .006 .002 .01 .004l57.493 24.92v221.507h-.005c0 .067 .005 .132 .005 .198v2.467h.083c2.74 46.318 76.648 83.474 167.326 83.474s164.587 -37.156 167.326 -83.474h.09V163.392h-.664a45.811 45.811 0 00.673 -7.75c0 -48.175 -75.907 -87.23 -169.541 -87.23zm-.004 12.62c42.127 0 76.277 15.892 76.277 35.498s-34.15 35.497 -76.277 35.497c-42.126 0 -76.277 -15.892 -76.277 -35.497s34.15 -35.499 76.277 -35.499zm-90.792 514.401l-23.168 -24.342 71.859 -25.098L168.64 375.902l114.393 -17.976 110.73 232.17 -46.64 23.1L448.01 819.453 234.8 595.433z"/></svg>