<svg height="1000" width="1000" xmlns="http://www.w3.org/2000/svg"><path d="M392.589 31.245c-29.29 0 -39.068 6.592 -39.068 39.068v29.289h-87.893c-57.72 0 -68.357 10.662 -68.357 68.357v732.425c0 57.72 10.662 68.357 68.357 68.357h468.749c57.72 0 68.357 -10.662 68.357 -68.357V167.959c0 -57.72 -10.662 -68.357 -68.357 -68.357h-87.892v-29.29c0 -32.45 -9.755 -39.067 -39.069 -39.067H392.59zm-126.96 205.097c0 -78.138 -9.756 -68.358 68.356 -68.358 39.069 0 302.745 0 332.034 0 78.137 0 68.357 -9.754 68.357 68.358 0 39.068 0 556.64 0 595.71 0 78.137 9.755 68.356 -68.357 68.356 -39.068 0 -292.965 0 -332.034 0 -78.137 0 -68.357 9.755 -68.357 -68.357 0 -39.093 0 -556.666 0 -595.71zm48.822 -39.066h371.092c10.787 0 19.531 8.745 19.531 19.532v107.421c0 10.787 -8.745 19.531 -19.53 19.531H314.45c-10.787 0 -19.53 -8.745 -19.53 -19.53V216.807c0 -10.788 8.744 -19.532 19.53 -19.532zm0 175.781h371.092c10.787 0 19.531 8.745 19.531 19.531V500.01c0 10.787 -8.745 19.531 -19.53 19.531H314.45c-10.787 0 -19.53 -8.745 -19.53 -19.531V392.588c0 -10.787 8.744 -19.53 19.53 -19.53zm0 175.78h371.092c10.787 0 19.531 8.746 19.531 19.532v107.422c0 10.787 -8.745 19.53 -19.53 19.53H314.45c-10.787 0 -19.53 -8.744 -19.53 -19.53V568.369c0 -10.787 8.744 -19.531 19.53 -19.531zm0 175.78h371.092c10.787 0 19.531 8.746 19.531 19.532V851.57c0 10.787 -8.745 19.53 -19.53 19.53H314.45c-10.787 0 -19.53 -8.744 -19.53 -19.53V744.149c0 -10.786 8.744 -19.531 19.53 -19.531z"/></svg>