<svg height="1000" width="1000" xmlns="http://www.w3.org/2000/svg"><path d="M924.177 81.508C830.372 290.535 680.3 283.723 529.677 208.257l36.854 -52.805C542.337 118.847 498.298 92.314 457.629 80.406l-41.034 60.081C382.286 117.04 348.71 91.881 316.568 66.867l-.007 .006A568.422 568.422 0 00305.74 84C239.485 46.55 151.957 29.903 53.548 29.903c97.47 39.365 173.938 91.62 208.15 180.518 -1.983 27.02 -.302 54.352 -.302 87.703a596.847 596.847 0 0133.763 20.166L40.125 691.713l1.562 215.748L394.791 401.526c105.056 116.308 118.238 266.65 -67.344 383.765 101.29 29.482 195.727 30.997 280.145 11.389l17.083 -108.187 72.282 75.32c59.87 -34.309 148.138 -97.568 187.31 -153.932L821.684 501.726l107.047 29.608c65.69 -100.968 72.734 -319.839 -4.555 -449.826z"/></svg>