<svg height="1000" width="1000" xmlns="http://www.w3.org/2000/svg"><path d="M974.673 81.565C810.28 116.365 671.17 251.328 604.446 416.525c97.073 77.505 65.24 213.332 -30.205 262.55C553.6 665.495 528.91 657.568 502.357 657.568c-26.557 0 -51.253 7.928 -71.892 21.514C335.017 629.862 303.183 494.032 400.255 416.524 333.532 251.329 194.426 116.364 30.03 81.566c81.385 83.086 102.62 250.863 26.241 340.82 124.44 20.938 147.61 119.542 125.662 268.096 65.235 -40.716 145.54 -23.798 195.153 59.79a130.942 130.942 0 00-5.693 38.259c0 72.328 58.635 130.963 130.963 130.963S633.32 860.86 633.32 788.531a130.907 130.907 0 00-5.697 -38.268C677.237 666.681 757.538 649.764 822.771 690.48 800.822 541.926 823.992 443.323 948.433 422.383 872.053 332.43 893.288 164.651 974.673 81.565zM541.53 829.473c-42.248 0 -76.497 -34.25 -76.497 -76.497s34.25 -76.497 76.497 -76.497a76.27 76.27 0 0127.574 5.144s0 0 -.002 0a76.318 76.318 0 0119.543 11.112c.11 .087 .22 .17 .33 .26a79.185 79.185 0 012.004 1.64c.044 .037 .087 .075 .129 .112a77.223 77.223 0 015.696 5.382c.186 .194 .374 .388 .558 .584 .504 .538 1 1.083 1.487 1.634 .21 .239 .418 .482 .626 .723a76.93 76.93 0 014.26 5.413c.255 .355 .51 .708 .76 1.068a76.71 76.71 0 011.832 2.786c.306 .488 .615 .978 .91 1.472 .328 .55 .644 1.11 .959 1.667a76.72 76.72 0 011.094 2.01c.324 .615 .645 1.23 .952 1.854 .216 .443 .423 .893 .634 1.34a74.552 74.552 0 012.19 5.189c.127 .33 .26 .657 .38 .99 .37 1.015 .714 2.039 1.04 3.073 .114 .36 .217 .725 .324 1.087a73.347 73.347 0 011.492 5.815c.072 .33 .149 .66 .216 .993a75.853 75.853 0 01.6 3.364c.038 .238 .064 .48 .098 .72a77.807 77.807 0 01.353 2.766 63.25 63.25 0 01.111 1.139 76.376 76.376 0 01.192 2.522c.022 .36 .047 .718 .064 1.08 .054 1.183 .09 2.37 .09 3.565 0 1.026 -.037 2.044 -.077 3.06 -.025 .553 -.047 1.107 -.082 1.658 -2.443 40.043 -35.679 71.774 -76.341 71.774z"/></svg>