<svg height="1000" width="1000" xmlns="http://www.w3.org/2000/svg"><path d="M928.234 690.973C963.182 593.93 951.249 493.886 887.332 429.967 867.31 409.95 842.92 394.918 817.017 384.94c50.027 66.75 52.35 163.551 11.438 254.099a347.77 347.77 0 007.087 -16.837L747.4 556.809C778.143 475.21 768.84 390.48 715.036 336.677c-16.577 -16.57 -36.77 -29.021 -58.215 -37.274 39.591 52.817 43.1 128.37 13.753 200.406l-73.032 -54.185c-.003 .007 -.004 .013 -.007 .02C625.77 375.659 618.778 302.117 572.523 255.866c-13.888 -13.888 -30.8 -24.314 -48.767 -31.233 37.07 49.466 36.374 122.725 1.681 189.06a248.933 248.933 0 007.62 -15.914l-72.25 -53.606c21.525 -54.67 15.78 -111.863 -20.315 -147.965C429.552 185.273 416.226 177.053 402.076 171.6c28.903 38.569 28.64 95.49 2.14 147.319A194.798 194.798 0 00410.03 306.5l-73.388 -54.448c21.01 -45.775 17.755 -95.131 -12.696 -125.572 -8.695 -8.68 -19.26 -15.227 -30.505 -19.547 22.595 30.146 22.758 74.422 2.683 115.06L236.66 177.875a.575 .575 0 00-.018 .032c20.285 -37.742 19.132 -80.078 -6.307 -105.52C223.53 65.603 215.247 60.484 206.461 57.088c19.003 25.36 17.733 63.491 -1.69 97.129l-57.793 -42.874a56.323 56.323 0 002.331 -16.044c0 -31.132 -25.238 -56.37 -56.369 -56.37S36.571 64.172 36.571 95.3s25.238 56.364 56.37 56.364a56.405 56.405 0 0015.347 -2.132l41.693 56.555c-32.007 16.088 -67.016 16.106 -90.795 -1.72l-.003 .008c3.385 8.795 8.492 17.078 15.29 23.874 24.05 24.05 63.168 26.375 99.266 9.433 -.114 .053 -.227 .114 -.341 .167l44.918 60.93c-40.09 19.102 -83.424 18.587 -113.083 -3.64l-.007 .007c4.333 11.236 10.86 21.82 19.54 30.508 29.974 29.975 78.256 33.57 123.416 13.638l55.703 75.557a196.398 196.398 0 007.523 -3.6c-51.564 26.002 -108.011 26.077 -146.337 -2.645l-.005 .003c5.448 14.16 13.669 27.482 24.605 38.426 36.94 36.939 95.964 42.091 151.773 18.766l51.76 70.207a245.432 245.432 0 005.161 -2.245c-62.57 28.01 -129.34 26.265 -175.443 -8.282 6.917 17.962 17.344 34.87 31.22 48.753 45.557 45.56 117.583 53.034 186.612 26.273l53.927 73.151a291.853 291.853 0 007.033 -2.868c-73.115 30.958 -150.321 28.002 -204.032 -12.25 8.255 21.452 20.701 41.64 37.275 58.214 52.98 52.983 135.946 62.824 216.383 33.76l65.098 88.3a342.863 342.863 0 008.032 -3.14C537.712 870.752 446.83 866.39 383.228 818.723v.005c9.973 25.903 25.006 50.299 45.027 70.316 62.944 62.938 160.912 75.463 256.556 42.458 -.01 .003 -.022 .008 -.032 .012l22.954 31.133h250.534V713.253l-30.034 -22.285zm-3.465 9.202c-.146 .374 -.299 .747 -.447 1.122 .148 -.375 .3 -.748 .447 -1.122zm-3.723 9.12c-.187 .443 -.372 .886 -.561 1.329 .19 -.444 .375 -.886 .561 -1.328zm-8.727 19.1c-.265 .537 -.532 1.074 -.8 1.612 .266 -.537 .535 -1.075 .8 -1.613zm-4.799 9.43c-.173 .329 -.339 .658 -.514 .986 .173 -.328 .341 -.657 .514 -.985zm-5.327 9.784c-.2 .353 -.408 .706 -.608 1.06 .202 -.353 .409 -.706 .608 -1.06zm-4.986 8.57zm-11.864 18.653c-.414 .614 -.838 1.226 -1.255 1.84 .419 -.614 .841 -1.224 1.255 -1.84zm-5.946 8.552c-.428 .599 -.85 1.2 -1.28 1.796 .43 -.597 .853 -1.197 1.28 -1.796zm-7.295 9.925c-.221 .292 -.452 .581 -.676 .873 .224 -.292 .454 -.581 .676 -.873zm-6.221 7.96zm-7.136 8.682c-.387 .459 -.765 .92 -1.155 1.38 .39 -.458 .768 -.92 1.155 -1.38zM756.412 744.978a407.787 407.787 0 01-6.491 6.661 406.318 406.318 0 01-.002 0c2.2 -2.2 4.36 -4.426 6.492 -6.661zm71.834 -105.474zm-8.226 16.93zm-4.48 8.374zm-9.978 16.986zm-4.897 7.665zm-5.966 8.793zm-5.64 7.876zm-12.565 16.166zm-5.973 7.127zm-7.353 8.304zM737.621 579.816a5.902 5.902 0 00.075 -.16c-.024 .052 -.048 .107 -.075 .16zm3.728 180.124zm-7.041 6.496zm-8.656 7.542zm-7.473 6.19zm-8.439 6.614zm-8.086 6.005zm-7.542 5.325zm-9.291 6.164zm-7.672 4.824zm.07 -142.062c.519 -.543 1.03 -1.09 1.543 -1.636 -.516 .547 -1.026 1.093 -1.543 1.636zm5.905 -6.354c.487 -.535 .976 -1.068 1.457 -1.606 -.481 .538 -.97 1.072 -1.457 1.606zm12.246 -14.233c.413 -.508 .82 -1.017 1.229 -1.525 -.41 .508 -.816 1.017 -1.229 1.525zm5.366 -6.77c.35 -.455 .706 -.907 1.055 -1.364 -.348 .457 -.703 .908 -1.055 1.364zm10.804 -14.777c.265 -.384 .526 -.768 .788 -1.151 -.262 .384 -.522 .768 -.788 1.151zm4.828 -7.2c.186 -.285 .375 -.57 .56 -.855 -.185 .286 -.374 .57 -.56 .855zm9.278 -15.088c.126 -.217 .248 -.433 .372 -.65 -.124 .217 -.248 .434 -.372 .65zm4.25 -7.588zm-128.623 7.966zm69.297 -103.17zm-9.265 20.437zm-11.103 20.226zm-8.384 13.234zm-4.489 6.526zm-9.698 13.02zm-4.89 6.086zm-10.933 12.6zm53.356 87.13c-.542 .516 -1.085 1.025 -1.628 1.536 .543 -.51 1.087 -1.022 1.628 -1.535zm-6.673 6.19c-.465 .421 -.927 .847 -1.394 1.263 .467 -.418 .928 -.844 1.394 -1.263zm-7.801 6.863c-.32 .273 -.643 .537 -.964 .808 .321 -.27 .644 -.535 .964 -.808zm-6.553 5.432zm-7.542 5.943c-.253 .195 -.504 .394 -.757 .586 .255 -.194 .504 -.393 .757 -.586zm-7.502 5.58c-.467 .335 -.934 .665 -1.401 1 .467 -.335 .934 -.663 1.401 -1zm-6.983 4.903c-.518 .353 -1.032 .71 -1.552 1.06 .519 -.35 1.034 -.706 1.552 -1.06zm-15.413 9.938c-.52 .315 -1.042 .626 -1.565 .94 .52 -.314 1.042 -.623 1.565 -.94zM592.283 457.745c-.007 .013 -.013 .027 -.02 .041 .008 -.012 .013 -.026 .02 -.04zm-2.761 5.745c-.095 .19 -.188 .38 -.284 .572 .094 -.19 .19 -.38 .284 -.572zm-3.192 6.249c-.01 .019 -.022 .04 -.032 .06 .01 -.02 .02 -.041 .032 -.06zm-6.536 11.65c-.15 .254 -.303 .507 -.455 .76 .152 -.253 .305 -.504 .455 -.76zm-3.399 5.57c-.212 .339 -.423 .677 -.636 1.015 .212 -.338 .424 -.677 .636 -1.015zm-3.934 6.108c-.083 .127 -.165 .254 -.25 .38 .085 -.128 .166 -.255 .25 -.38zm-4.064 5.965c-.117 .168 -.24 .336 -.36 .504 .118 -.168 .24 -.336 .36 -.504zm-3.768 5.235c-.343 .467 -.691 .931 -1.039 1.398 .348 -.467 .696 -.931 1.04 -1.398zm-4.02 5.326c-.37 .48 -.74 .96 -1.112 1.438 .374 -.477 .742 -.959 1.112 -1.438zm-4.757 6c-.156 .192 -.31 .389 -.467 .58 .157 -.191 .31 -.388 .467 -.58zm-19.909 22.031c-.007 .007 -.013 .013 -.02 .02 -.004 .004 -.011 .011 -.016 .016 .005 -.005 .012 -.012 .016 -.016 .007 -.007 .013 -.013 .02 -.02zm15.183 -16.382c-.38 .443 -.769 .881 -1.152 1.322 .384 -.44 .772 -.88 1.152 -1.322zm-4.397 4.992zm-4.696 5.098c-.478 .506 -.951 1.015 -1.433 1.519 .482 -.504 .954 -1.013 1.433 -1.519zm52.326 78.362zm-5.72 5.284zm-6.558 5.75zm-6.4 5.327zm-5.846 4.642zm-7.2 5.4zm-6.289 4.48zm-13.605 8.923zm-6.304 3.81zM481.471 474.6a282.31 282.31 0 01-4.248 4.35 281.878 281.878 0 01-.002 0 282.344 282.344 0 004.25 -4.35zm43.862 -60.705zm-9.062 15.88zm-3.292 5.184zm-10.933 15.532zm-3.72 4.797zm-8.357 10.025zm-4.34 4.844zm45.38 72.278c-.502 .477 -1.005 .948 -1.508 1.42 .503 -.472 1.006 -.943 1.507 -1.42zm-5.123 4.768c-.532 .485 -1.063 .969 -1.596 1.448 .533 -.477 1.065 -.963 1.596 -1.448zm-5.899 5.234c-.265 .228 -.525 .462 -.791 .69 .266 -.229 .527 -.462 .791 -.69zm-5.928 4.982c-.474 .389 -.953 .767 -1.428 1.151 .474 -.384 .954 -.763 1.428 -1.151zm-5.318 4.233zm-5.855 4.439c-.377 .277 -.75 .562 -1.127 .839 .377 -.276 .75 -.56 1.127 -.84zm-6.503 4.669c-.378 .264 -.761 .518 -1.141 .779 .38 -.26 .762 -.518 1.141 -.78zm-5.482 3.708zm-5.886 3.779c-.425 .266 -.848 .537 -1.274 .8 .426 -.263 .85 -.533 1.274 -.8zm-6.884 4.177c-.181 .106 -.363 .207 -.543 .311 .18 -.106 .362 -.207 .543 -.311zm-19.349 -233.31c.018 -.041 .034 -.082 .052 -.122 -.018 .04 -.034 .082 -.052 .122zm12.937 135.176zm-4.681 4.337zm-4.538 4.024zm-5.674 4.766zm-4.99 3.993zm-4.736 3.622zm-5.588 4.054zm-5.372 3.694zm-4.93 3.234zm-5.18 3.227zm-5.966 3.5zm-5.131 2.85zm.51 -111.283c.327 -.344 .65 -.69 .977 -1.036 -.324 .344 -.648 .691 -.978 1.036zm3.737 -4.013c.343 -.379 .688 -.755 1.029 -1.135 -.34 .38 -.686 .756 -1.03 1.135zm4.029 -4.54c.17 -.197 .344 -.393 .514 -.59 -.168 .197 -.344 .393 -.514 .59zm3.98 -4.727c.189 -.232 .373 -.465 .56 -.698 -.187 .233 -.371 .466 -.56 .698zm3.323 -4.17zm3.426 -4.516c.185 -.248 .37 -.496 .553 -.745 -.18 .248 -.37 .496 -.553 .745zm6.652 -9.496c.153 -.233 .304 -.467 .458 -.7 -.154 .233 -.305 .467 -.458 .7zm2.94 -4.57c.131 -.21 .264 -.42 .394 -.63 -.13 .21 -.263 .419 -.395 .63zm5.82 -9.857c.01 -.017 .019 -.037 .03 -.055 -.01 .017 -.02 .036 -.03 .055zm2.478 -4.61c.068 -.132 .137 -.265 .207 -.396 -.07 .131 -.139 .264 -.207 .396zm-86.277 8.012c-.044 .044 -.085 .09 -.13 .134 -.04 .04 -.082 .078 -.123 .119 .04 -.041 .083 -.08 .124 -.121 .044 -.044 .085 -.088 .129 -.132zm38.253 -52.095zm-7.56 13.344a189.95 189.95 0 000 0zm-4.883 7.558c-.576 .848 -1.17 1.69 -1.76 2.533 .591 -.844 1.185 -1.686 1.76 -2.533zm-4.034 5.716c-.514 .706 -1.021 1.414 -1.547 2.117 .526 -.703 1.032 -1.41 1.547 -2.117zm-5.286 6.961c-.48 .604 -.968 1.204 -1.455 1.805 .487 -.6 .977 -1.2 1.455 -1.805zm-4.978 6.04c-.3 .35 -.59 .705 -.893 1.054 .304 -.349 .594 -.705 .893 -1.054zm-5.426 6.116zm36.27 56.392c-.335 .32 -.672 .63 -1.008 .95 .334 -.32 .672 -.63 1.007 -.95zm-3.813 3.56a207.278 207.278 0 000 0zm-4.003 3.572c-.36 .313 -.716 .628 -1.075 .938 .36 -.31 .717 -.625 1.075 -.938zm-4.663 3.967c-.098 .08 -.193 .164 -.29 .244 .096 -.078 .192 -.162 .29 -.244zm-4.392 3.541c-.173 .136 -.348 .268 -.52 .404 .172 -.136 .347 -.266 .52 -.404zm-4.055 3.109c-.304 .228 -.61 .455 -.918 .681 .307 -.226 .614 -.453 .918 -.681zm-4.238 3.098c-.275 .195 -.55 .393 -.825 .588 .275 -.194 .55 -.391 .825 -.588zm-4.795 3.333c-.04 .027 -.082 .056 -.122 .084 .041 -.027 .082 -.056 .122 -.084zm-8.917 5.706c-.1 .06 -.197 .119 -.297 .177 .098 -.06 .198 -.117 .297 -.177zm-35.487 -193.33c-.326 .637 -.679 1.266 -1.015 1.9 .336 -.635 .69 -1.265 1.015 -1.9zm-3.404 6.293c-.434 .765 -.893 1.523 -1.341 2.285 .448 -.762 .907 -1.52 1.34 -2.285zm-3.723 6.231c-.503 .805 -1.021 1.602 -1.54 2.402 .519 -.8 1.037 -1.597 1.54 -2.402zm-4.044 6.161zm-4.384 6.102c-.586 .78 -1.17 1.56 -1.77 2.334 .602 -.774 1.186 -1.555 1.77 -2.334zm-4.761 6.066c-.59 .718 -1.166 1.44 -1.769 2.152 .602 -.713 1.18 -1.434 1.769 -2.152zm-5.29 6.17c-.514 .573 -1.01 1.156 -1.534 1.725 .524 -.57 1.02 -1.151 1.534 -1.725zm-7.004 7.433zm-7.698 -75.318zm2.21 80.569zm-5.69 5.012zm-5.754 4.664zm-5.334 4zm-6.1 4.192zm-6.498 4.06c-.495 .293 -.99 .584 -1.488 .873 .497 -.29 .993 -.578 1.488 -.873zm-1.363 -64.396zm5.784 -6.134zm4.536 -5.235zm4.165 -5.204zm3.884 -5.264zm3.631 -5.341zm3.387 -5.424zm-26.044 33.262zm-6.401 6.035zm-5.382 4.647zm-5.336 4.247zm-5.389 3.95zM234.33 182.023c-.048 .085 -.1 .17 -.15 .255 .05 -.085 .1 -.17 .15 -.255zm-2.518 4.138c-.111 .175 -.224 .349 -.336 .524 .111 -.175 .226 -.35 .336 -.524zm-2.706 4.106c-.195 .285 -.397 .567 -.596 .851 .197 -.282 .4 -.566 .596 -.851zm-2.906 4.08c-.309 .418 -.631 .83 -.947 1.246 .317 -.416 .638 -.83 .947 -1.246zm-3.108 4.045c-.47 .591 -.963 1.171 -1.443 1.755 .482 -.584 .973 -1.165 1.443 -1.755zm-19.888 -41.559a124.878 124.878 0 001.556 -2.596c-.503 .87 -1.031 1.733 -1.556 2.596zm.458 61.54c-.591 .499 -1.19 .977 -1.784 1.465 .594 -.488 1.195 -.966 1.784 -1.465zm-4.59 3.72c-.591 .458 -1.188 .902 -1.781 1.348 .593 -.447 1.19 -.888 1.78 -1.348zm-4.722 3.506zm-4.854 3.3zm-5.007 3.095c-.457 .268 -.91 .54 -1.37 .803 .458 -.263 .913 -.535 1.37 -.803zm2.525 -53.852c.328 -.353 .643 -.711 .966 -1.066 -.323 .356 -.636 .715 -.966 1.066zm3.136 -3.487c.424 -.487 .835 -.98 1.25 -1.472 -.416 .492 -.825 .985 -1.25 1.472zm2.966 -3.535c.46 -.567 .91 -1.14 1.36 -1.71a121.19 121.19 0 01-1.36 1.71zm2.799 -3.577zm2.623 -3.599zm2.442 -3.595a126.334 126.334 0 001.477 -2.29c-.48 .768 -.978 1.528 -1.477 2.29zm-46.708 43.471zm28.874 -21.705zm-4.46 4.205zm-3.94 3.428zm-3.942 3.173zm-4.013 2.987zm-4.088 2.809zm-4.173 2.637zm20.76 33.545c-.348 .183 -.692 .375 -1.04 .555 .348 -.18 .694 -.37 1.04 -.555zm32.37 -23.84c.25 -.245 .506 -.476 .754 -.724a145.04 145.04 0 003.813 -3.96 143.458 143.458 0 01-3.81 3.962c-.249 .248 -.506 .476 -.755 .722zm-5.194 4.855c.552 -.492 1.112 -.969 1.657 -1.473 -.546 .504 -1.104 .98 -1.657 1.473zm13.303 -13.509c-.735 .857 -1.501 1.698 -2.263 2.543 .762 -.845 1.528 -1.688 2.263 -2.543zm16.309 86.462a160.507 160.507 0 000 0zm23.072 45.078c-.263 .14 -.524 .282 -.786 .419 .262 -.137 .523 -.28 .786 -.42zm59.516 73.449zm41.625 -30.493c-.404 .38 -.81 .762 -1.217 1.137 .408 -.377 .81 -.76 1.217 -1.137zm-6.18 5.584c-.454 .394 -.913 .778 -1.368 1.168 .455 -.39 .913 -.774 1.367 -1.168zm-5.649 4.73c-.42 .34 -.839 .69 -1.26 1.027 .422 -.338 .84 -.687 1.26 -1.028zm-6.054 4.727zm-6.662 4.822c-.8 .555 -1.605 1.09 -2.409 1.63 .805 -.54 1.61 -1.077 2.41 -1.63zm-5.265 3.517zm-6.825 4.25zm22.428 59.26a.02 .02 0 01-.008 .002c.003 -.002 .005 -.003 .008 -.003zm18.535 -9.453c-.129 .073 -.258 .149 -.385 .22 .127 -.071 .256 -.146 .385 -.22zm39.096 76.95zm44.114 66.342c-.442 .187 -.884 .377 -1.328 .561 .443 -.185 .886 -.375 1.328 -.561zm24.693 -12.027c-.492 .273 -.985 .54 -1.477 .81 .492 -.27 .987 -.537 1.477 -.81zm-5.927 3.18c-.438 .229 -.875 .458 -1.312 .684 .438 -.224 .874 -.455 1.312 -.684zm-12.841 6.254c-.421 .19 -.844 .377 -1.265 .564 .421 -.187 .844 -.374 1.265 -.564zm54.666 72.81zm20.908 -10.495zm-6.921 3.703zm37.664 86.135c-.436 .173 -.871 .349 -1.307 .52 .436 -.17 .87 -.347 1.307 -.52zm39.07 -18.82c-.375 .212 -.746 .43 -1.12 .64 .374 -.21 .745 -.428 1.12 -.64zm-8.323 4.588c-.258 .136 -.518 .267 -.777 .404 .26 -.137 .519 -.268 .777 -.404zm-7.187 3.689c-.503 .25 -1.003 .501 -1.507 .747 .502 -.246 1.004 -.497 1.507 -.747zm-8.521 4.1c-.04 .017 -.078 .037 -.12 .055 .04 -.017 .08 -.037 .12 -.055zm-7.535 3.347c-.407 .175 -.813 .343 -1.219 .514 .404 -.171 .812 -.339 1.219 -.514zm74.596 83.849zm25.62 -13.328zm-8.031 4.464zm-9.026 4.695zm44.06 104.119c-.123 .045 -.246 .091 -.366 .136 .122 -.046 .243 -.09 .365 -.136zm48.839 -22.721c-.193 .106 -.384 .209 -.576 .314 .19 -.106 .384 -.209 .576 -.314zm-9.243 4.959c-.326 .17 -.653 .343 -.98 .51 .327 -.167 .654 -.34 .98 -.51zm-19.667 9.52c-.278 .123 -.555 .247 -.832 .371 .277 -.124 .554 -.248 .832 -.372zM834.545 836.29c.005 -.005 .008 -.008 .012 -.011 .005 -.005 .008 -.008 .013 -.013 -.005 .005 -.008 .01 -.013 .013 -.002 .004 -.007 .007 -.012 .011zm-81.722 63.615c.25 -.146 .497 -.3 .745 -.447 -.248 .147 -.496 .3 -.745 .447zm8.856 -5.402c.489 -.307 .98 -.611 1.47 -.922 -.492 .31 -.981 .615 -1.47 .922zm18.708 -12.476zm9.477 -6.91c.263 -.198 .528 -.39 .788 -.587 -.262 .198 -.527 .39 -.788 .586zm9.01 -6.975c.618 -.491 1.231 -.992 1.849 -1.488 -.617 .497 -1.23 .998 -1.85 1.488zm8.452 -6.918c.597 -.501 1.195 -.997 1.791 -1.503 -.594 .506 -1.194 1.002 -1.79 1.503zm9.65 -8.34c.477 -.426 .949 -.863 1.424 -1.292 -.476 .429 -.948 .866 -1.424 1.292zm7.878 -7.23c.7 -.657 1.4 -1.313 2.097 -1.977a331.067 331.067 0 01-2.097 1.978zm26.041 -26.659c-.545 .61 -1.102 1.214 -1.652 1.823 .55 -.609 1.106 -1.214 1.652 -1.823zm-7.12 7.75c-.665 .706 -1.325 1.412 -1.994 2.115 .669 -.703 1.33 -1.41 1.993 -2.115z"/></svg>