<svg height="1000" width="1000" xmlns="http://www.w3.org/2000/svg"><path d="M961.975 551.697l-2.044 -18.81v-37.9l-.718 2.29a74.867 74.867 0 00-5.22 -19.036L940.099 350.398l-27.62 82.08c-11.98 -7.604 -26.19 -14.245 -42.515 -19.742L836.679 280.21l-27.051 119.03c-22.21 -2.924 -46.744 -4.284 -73.54 -3.819L703.324 284.23l-30.221 115.31c-22.036 2.414 -45.245 5.907 -69.597 10.577l-29.669 -69.969 -29.878 83.216a1192.442 1192.442 0 00-29.467 7.817v5.64a48.521 48.521 0 00-17.89 -.57l1.864 -10.787A1193.925 1193.925 0 00472.78 413.652l-9.735 -91.458 -47.72 67.73c-23.242 -8.793 -45.555 -16.228 -66.898 -22.396l-7.083 -114.29 -54.176 99.445c-26.693 -5.137 -51.428 -8.04 -74.085 -8.951l-6.386 -121.898L151.33 346.755c-17.023 2.636 -32.156 6.762 -45.256 12.214L92.836 273.385l-35.462 123.61a74.978 74.978 0 00-8.387 17.87l-.318 -2.38 -6.453 37.348 -5.217 18.186 2.305 -1.338 -14.372 83.165C12.31 632.984 134.24 735.333 426.636 825.288c10.688 11.064 25.667 17.954 42.262 17.954 18.399 0 34.816 -8.46 45.594 -21.695v16.2c305.335 -38.72 443.712 -119.041 445.44 -203.365v-84.399l2.043 1.711zM465.83 725.78a58.457 58.457 0 00-20.07 4.657l.304 -1.768a1557.344 1557.344 0 01-26.48 -8.38l-7.479 -78.503 -49.145 58.732c-23.95 -8.956 -46.452 -18.166 -67.513 -27.571L290.46 540.798 233.938 642.85c-21.81 -11.717 -41.599 -23.613 -59.445 -35.569l-7.84 -152.623L118.13 563.776C98.41 545.96 82.869 528.316 71.3 511.23l5.553 -48.983c68.276 -36.598 205.686 -31.14 391.66 54.524a48.652 48.652 0 003.834 3.714c-58.172 1.251 -101.838 21.057 -101.838 48.581 0 28.14 45.654 54.824 105.783 63.968l-10.463 92.744zm399.889 -93.542l-29.234 -115.79L802.766 665.51c-19.455 8.67 -40.783 16.952 -64.038 24.726l-32.83 -102.499 -32.24 121.555c-22.266 5.686 -45.908 10.943 -70.932 15.7L567.05 653.289l-24.311 81.737a1549.413 1549.413 0 01-28.246 3.851v8.516A58.903 58.903 0 00490.02 729.624l10.597 -93.937c70.26 4.72 126.965 -16.63 126.965 -47.983 0 -26.582 -40.73 -51.874 -95.924 -62.302 196.112 -51.698 331.306 -33.618 392.021 13.816l-2.868 49.212c-14.31 14.868 -32.628 29.606 -55.094 43.805z"/></svg>