<svg height="1000" width="1000" xmlns="http://www.w3.org/2000/svg"><path d="M250.464 827.884L200.135 933.1H954.2L895.482 827.884h-36.209C825.42 640.137 800.122 416.377 817.042 282.958 861.356 278.824 893.56 240 890.939 183.124 886.883 96.39 789.98 62.934 712.791 115.044 679.845 70.175 618.375 58.421 583.111 96.715 528.514 27.888 419.245 41.029 389.245 121.591c-63.08 -13.97 -110.545 15.98 -111.343 74.63 -.793 58.301 35.5 78.963 78.494 74.714 1.204 10.142 2.185 21.075 2.946 32.713C280.415 301.916 203.235 287.906 127.177 265.981 73.715 429.15 50.284 595.708 56.187 765.581c82.961 36.141 171.163 35.394 259.31 35.046a1585.78 1585.78 0 01-5.97 27.258h-59.063zM125.86 716.184c-4.543 -130.41 13.481 -237.186 54.594 -364.73l.003 .002c59.24 14.1 119.366 17.62 180.875 13.58 .545 105.217 -11.348 242.688 -32.93 367.912 -68.826 3.71 -137.759 8.202 -202.542 -16.764z"/></svg>