<svg height="1000" width="1000" xmlns="http://www.w3.org/2000/svg"><path d="M910.275 648.592l41.755 -2.696c-21.67 -17.049 -42.374 -31.37 -60.207 -70.8C881.006 525.382 864.047 478.609 787.096 462.982c3.477 5.008 6.706 10.061 9.754 15.138 -16.71 -6.082 -34.043 -6.085 -51.907 -.938 .005 -.842 .023 -1.68 .023 -2.524 0 -36.993 -4.392 -72.581 -12.48 -105.872 29.82 5.17 55.689 -.028 76.468 -18.582a329.305 329.305 0 01-3.024 18.853c55.136 -39.297 63.939 -74.275 62.017 -108.766 7.027 -42.69 23.32 -61.883 39.834 -83.958l-47.398 9.481c.533 -21.85 6.535 -44.538 26.143 -68.943 -138.933 10.492 -69.406 76.908 -75.09 204.876l-85.824 22.08C701.88 267.232 657.931 205.156 602.902 169.989a114.536 114.536 0 009.166 -7.126c12.734 13.312 30.659 21.615 50.535 21.615 38.63 0 69.946 -31.313 69.946 -69.944 0 -38.634 -31.316 -69.948 -69.946 -69.948 -17.314 0 -33.147 6.305 -45.362 16.726C592.15 36.482 548.352 20.017 498.477 20.017c-49.863 0 -93.65 16.455 -118.744 41.274C367.522 50.882 351.697 44.586 334.395 44.586c-38.63 0 -69.946 31.317 -69.946 69.948s31.316 69.944 69.946 69.944c19.864 0 37.783 -8.294 50.515 -21.593a114.929 114.929 0 009.153 7.111c-55.109 35.22 -99.099 97.432 -122.804 174.184l-87.204 -22.435C178.372 193.777 247.9 127.36 108.965 116.869c19.495 24.261 25.536 46.827 26.131 68.56L89.614 176.33c15.533 20.767 30.874 38.977 38.49 76.601 -3.504 36.893 2.4 74.031 61.459 116.122A330.337 330.337 0 01186.539 350.2c21.138 18.878 47.55 23.917 78.024 18.294 -8.134 33.374 -12.548 69.063 -12.548 106.164 0 .99 .021 1.974 .027 2.963 -18.388 -5.582 -36.221 -5.752 -53.396 .497a271.704 271.704 0 019.755 -15.136c-79.95 16.235 -95.14 66.092 -105.968 117.939 -17.2 35.07 -36.898 48.793 -57.466 64.975l40.29 2.6c-9.156 22.952 -23.591 43.07 -50.188 56.746 129.913 46.466 93.129 -75.428 147.523 -196.353l70.74 .706c3.594 47.509 14.44 92.08 30.998 131.625 -33.758 9.33 -57.616 26.72 -68.245 54.875 -43.988 45.4 -23.983 75.105 14.865 111.832 12.854 37.26 8.608 61 5.49 87.102l38.675 -33.977c6.848 28.424 3.394 48.861 .75 71.002L318.26 894.8c13.61 17.07 26.222 36.204 36.52 58.065C399.331 819.894 262.157 802.964 235.808 716.74l57.289 -56.158c44.156 90.616 119.656 150.35 205.389 150.35 85.423 0 160.69 -59.299 204.912 -149.362l56.28 55.17c-26.35 86.223 -163.523 103.155 -118.974 236.126 10.13 -21.499 22.496 -40.36 35.847 -57.216l41.43 36.404c-2.642 -22.142 -6.097 -42.58 .753 -71.003l38.673 33.977c-3.053 -25.572 -7.19 -48.873 4.728 -84.843 40.408 -37.78 62.153 -67.765 17.267 -114.092 -10.489 -27.786 -33.846 -45.1 -66.907 -54.517 16.645 -39.638 27.543 -84.34 31.147 -131.998l69.254 -.691c54.395 120.926 17.61 242.82 147.523 196.353 -26.56 -13.657 -40.992 -33.737 -50.15 -56.65zM344.423 597.88L324.316 302.442l44.95 -15.494 -24.843 310.933zm78.588 106.615L403.19 269.14l44.306 -22.825 -24.486 458.18zm157.88 0L556.405 246.316l44.306 22.825 -19.82 435.353zm53.742 -417.547l44.951 15.494L659.477 597.88 634.633 286.947z"/></svg>