<svg height="1000" width="1000" xmlns="http://www.w3.org/2000/svg"><path d="M832.92 35.156h-81.997l8.263 73.72h-512.9l8.24 -73.52H172.54L21.077 710.66v249.393h129.82L240.308 162.23h251.167v78.719c-14.463 4.703 -24.922 18.287 -24.922 34.316 0 1.529 .106 3.032 .29 4.51 -71.55 17.048 -102.333 87.619 -139.711 227.17l.003 .001C290.57 643.461 232.715 630.33 232.726 720.178c.008 48.664 107.174 79.524 232.836 84.943a46.222 46.222 0 00-2.592 15.28c.003 25.566 20.736 46.294 46.307 46.296s46.295 -20.717 46.292 -46.282a46.192 46.192 0 00-2.716 -15.635c122.367 -6.266 225.257 -36.82 225.25 -84.53C778.09 630.41 720.243 643.524 683.632 507 645.304 364.056 613.912 293.488 538.566 278.652a36.237 36.237 0 00.163 -3.385c0 -15.09 -9.266 -28.01 -22.416 -33.398v-79.638h248.853l89.391 797.624H984.38V710.458L832.923 35.156z"/></svg>