<svg height="1000" width="1000" xmlns="http://www.w3.org/2000/svg"><path d="M502.261 276.398c-126.086 0 -228.286 102.226 -228.286 228.316s102.21 228.303 228.286 228.303S730.538 630.804 730.538 504.714c0 -126.102 -102.19 -228.316 -228.277 -228.316zm4.302 302.066c-43.026 0 -77.9 -34.878 -77.9 -77.908s34.874 -77.902 77.9 -77.902 77.9 34.878 77.9 77.902c0 43.03 -34.874 77.908 -77.9 77.908zm26.844 .469a254.876 254.876 0 00-1.031 -4.865 77.759 77.759 0 01-25.813 4.397c-43.026 0 -77.9 -34.878 -77.9 -77.908 0 -23.652 10.55 -44.82 27.183 -59.107a255.36 255.36 0 00-3.76 -3.383c-17.226 15.202 -28.104 37.432 -28.104 62.218 0 45.832 37.144 82.979 82.97 82.979a82.783 82.783 0 0026.454 -4.331zm-31.034 168.943c-23.548 0 -46.31 -3.36 -67.845 -9.605 -17.27 45.8 -49.895 86.137 -95.626 112.543 -32.829 18.956 -68.725 27.893 -104.125 28.807 58.037 11.062 120.693 3.39 175.872 -28.489 43.74 -25.258 77.188 -61.562 98.876 -103.369a248.59 248.59 0 01-7.151 .112zM297.007 374.488c-48.013 -2.738 -97.316 8 -142.006 33.807C99.88 440.12 61.208 489.531 41.75 545.26c18.492 -30.204 44.834 -55.708 77.654 -74.664 46.394 -26.788 98.462 -34.725 147.367 -26.197 6.403 -25.093 16.713 -48.623 30.236 -69.91zM571.46 737.9c-21.902 6.481 -45.084 9.975 -69.087 9.975 -1.923 0 -3.84 -.027 -5.752 -.073 21.685 41.808 55.138 78.112 98.882 103.37 55.175 31.879 117.835 39.552 175.876 28.49C735.963 878.753 700.07 869.815 667.25 850.86 621.381 824.372 588.69 783.87 571.46 737.9zm13.001 -237.347c0 43.031 -34.874 77.908 -77.9 77.908a77.572 77.572 0 01-32.184 -6.964c-.363 1.548 -.705 3.1 -1.036 4.651a82.641 82.641 0 0033.613 7.117c45.827 0 82.97 -37.149 82.97 -82.979 0 -26.618 -12.548 -50.29 -32.036 -65.472a251.675 251.675 0 00-4.255 3.68c18.728 14.226 30.827 36.726 30.827 62.06zm266.67 -92.205c-45.094 -26.042 -94.887 -36.73 -143.309 -33.72a241.843 241.843 0 0130.212 70.051c49.292 -8.908 101.883 -1.078 148.7 25.956 32.822 18.966 59.156 44.47 77.646 74.678C944.925 489.585 906.254 440.174 851.133 408.35zM670.123 328.68a244.058 244.058 0 0146.24 60.492c26.989 -40.52 42.736 -89.145 42.736 -141.403C759.096 184.045 734.427 125.926 695.833 81.191c16.902 31.127 27.111 66.688 27.111 104.595 0 54.594 -19.893 104.503 -52.822 142.893zm-334.29 -1.124C303.473 289.316 283.96 239.851 283.96 185.787c0 -37.912 8.915 -73.472 25.822 -104.595C271.26 125.912 247.81 184.113 247.81 247.77c0 51.492 15.29 99.457 41.557 139.616a244.05 244.05 0 0146.465 -59.83zm171.123 89.757c-42.677 0 -77.81 32.217 -82.438 73.662 1.519 .494 3.042 .977 4.573 1.443 4.068 -39.204 37.199 -69.763 77.476 -69.763 39.62 0 72.305 29.582 77.233 67.86a253.153 253.153 0 005.302 -1.828c-5.644 -40.331 -40.26 -71.375 -82.146 -71.375z"/></svg>