<svg height="1000" width="1000" xmlns="http://www.w3.org/2000/svg"><path d="M820.492 375.51c-7.326 -10.927 -17.783 -20.713 -31.851 -28.487 -28.446 -15.72 -56 -14.625 -78.672 -3.646l.012 -.108c-61.47 29.806 -121.339 43.966 -181.644 54.672 -15.597 -5.912 -20.607 -17.597 -9.88 -37.868 36.881 -35.433 80.134 -64.041 123.854 -78.815 35.564 -4.67 63.739 -33.302 74.557 -66.988 45.677 -10.1 100.202 -6.016 134.031 30.735C828.857 112.475 752.38 97.825 683.423 114.423a105.175 105.175 0 00-7.235 -4.416C616.446 76.99 560.63 118.127 545.775 169.304c-11.514 30.021 -25.336 58.362 -41.379 84.977 -68.265 61.012 -132.954 37.077 -182.89 -30.413C282.986 168.569 249.076 96.33 229.725 28.341H33.45v135.517c110.2 51.658 272.155 243.367 237.353 299.61 -38.889 18.95 -81.256 34.907 -129.282 50.625a81.787 81.787 0 00-15.518 5.016c-.366 .117 -.72 .234 -1.085 .35l.104 .102C83.188 538.476 57.174 590.88 71.197 634.989c-37.781 74.265 -34.362 172.032 113.9 197.668C142.204 792.011 132.662 738.702 147.66 695.44c45.443 5.623 82.905 -28.111 95.194 -68.662 16.195 -41.209 41.476 -78.26 81.543 -90.854 43.285 -13.608 174.437 38.626 239.7 147.779 6.054 18.876 19.448 36.216 42.093 48.73 22.228 12.283 43.644 14.53 62.587 9.957 36.616 39.691 67.438 99.908 52.89 156.6C827.098 804.185 793.31 718.917 739.084 659.752c4.438 -32.532 -7.706 -66.703 -44.598 -87.095 -18.237 -10.08 -36.102 -13.221 -52.557 -11.304 -30.51 .209 -65.759 -5.428 -97.551 -16.826 -43.38 -30.841 -40.533 -60.32 -4.81 -79.477 53.403 -5.116 106.24 11.832 147.998 33.437a105.627 105.627 0 0012.783 8.3c50.64 27.99 97.087 3.988 119.567 -34.449 42.316 10.229 80.71 48.769 105.528 95.348C968.928 434.124 897.897 382.807 820.49 375.513z"/></svg>