<svg height="1000" width="1000" xmlns="http://www.w3.org/2000/svg"><path d="M461.333 482.846c5.026 25.96 3.221 162.812 3.221 162.812S413.548 528.388 408.522 502.432s2.723 -51.38 17.307 -56.788c14.584 -5.41 30.48 11.255 35.506 37.197l-.002 .005zm70.381 2.683c-5.026 25.966 -3.221 162.813 -3.221 162.813s51.006 -117.266 56.032 -143.227 -2.723 -51.38 -17.307 -56.788c-14.584 -5.409 -30.48 11.255 -35.505 37.198l.001 .004zm-4.49 -116.157c-9.603 -2.428 -19.601 -3.752 -29.892 -3.754 -12.55 -.002 -24.67 1.944 -36.152 5.506 -16.603 36.202 -46.666 64.94 -83.787 79.815 -6.681 16.876 -10.385 35.445 -10.385 54.95 0 77.488 130.329 456.72 130.329 456.72S627.665 583.364 627.662 505.89h.005c0 -18.593 -3.393 -36.325 -9.497 -52.564 -40.654 -14.25 -73.603 -44.868 -90.946 -83.953zM493.094 44.965c-193.447 0 -350.27 114.956 -350.27 256.766s156.82 256.766 350.27 256.766S843.361 443.537 843.361 301.731C843.36 159.921 686.54 44.965 493.093 44.965zM319.461 462.07c-86.068 0 -155.838 -69.774 -155.838 -155.84S233.393 150.39 319.462 150.39s155.839 69.77 155.839 155.84c-.002 86.066 -69.772 155.84 -155.839 155.84zm350.267 0C583.66 462.07 513.89 392.296 513.89 306.23S583.66 150.39 669.73 150.39s155.838 69.77 155.838 155.84c-.002 86.066 -69.771 155.84 -155.838 155.84zM327.179 191.627c-61.333 0 -111.06 49.73 -111.06 111.063s49.725 111.06 111.06 111.06S438.24 364.026 438.24 302.69C438.238 241.352 388.515 191.627 327.18 191.627zm17.531 133.877c-20.256 0 -36.677 -16.42 -36.677 -36.676s16.421 -36.679 36.677 -36.679 36.677 16.421 36.677 36.679c.002 20.256 -16.421 36.676 -36.677 36.676zM678.18 191.627c-61.333 0 -111.06 49.73 -111.06 111.063s49.725 111.06 111.06 111.06S789.242 364.026 789.242 302.69C789.24 241.352 739.516 191.627 678.181 191.627zm15.477 133.877c-20.255 0 -36.676 -16.42 -36.676 -36.676s16.42 -36.679 36.676 -36.679 36.677 16.421 36.677 36.679c0 20.256 -16.42 36.676 -36.677 36.676z"/></svg>