<svg height="1000" width="1000" xmlns="http://www.w3.org/2000/svg"><path d="M613.25 875.389L567.645 774.214l-40.638 116.842L486.373 775.477l-48.307 99.912L407.641 768.172c-36.971 46.46 -35.127 88.711 -35.616 139.379 109.142 42.082 210.603 38.817 312.778 0 5.185 -55.027 -5.682 -99.476 -38.424 -138.106L613.25 875.389zM408.67 591.375l36.413 -103.523 40.311 112.624 41.611 -103.719 41.614 105.027 41.613 -113.933 36.413 104.832c34.393 -62.421 40.647 -147.315 20.807 -209.734l133.941 -.002L727.268 76.05C593.76 24.546 458.804 30.276 326.743 76.05l-74.122 306.897h135.241c-29.27 71.824 -9.705 152.856 20.808 208.427zM707.664 215.04l23.35 107.76L574.143 308.755c29.362 -50.933 77.793 -77.065 133.522 -93.715zM527.266 371.33l48.478 64.012h-96.956l48.477 -64.012zM323.678 322.8l23.35 -107.76c58.562 12.505 106.662 38.94 133.523 93.716l-156.873 14.044zm494.162 291.1C650.232 646.526 457.49 646.41 271.64 627.95c7.206 .716 14.425 1.395 21.648 2.054l6.027 -50.983c4.508 1.857 9.471 2.801 14.666 2.524 18.683 -.995 33.021 -16.951 32.026 -35.635S329.06 512.894 310.377 513.89s-33.022 16.95 -32.027 35.626c.39 7.313 3.093 13.94 7.333 19.262 -11.478 26.348 -20.238 55.067 -25.803 84.294 -43.669 -38.085 -96.967 -46.72 -156.415 -36.548 .003 0 .004 -.002 .007 -.002C98.847 603.317 86.31 593.835 71.526 593.835c-18.71 0 -33.876 15.17 -33.876 33.87 0 18.71 15.166 33.88 33.876 33.88 8.866 0 16.91 -3.434 22.948 -9.008 -.007 -.005 -.016 -.012 -.024 -.017 49.995 34.786 103.76 44.251 160.494 33.8 -4.002 38.065 -2.322 75.745 6.007 108.95 -6.516 6.556 -10.368 15.709 -9.84 25.66 .996 18.684 16.949 33.024 35.631 32.03 18.684 -.998 33.022 -16.954 32.027 -35.636s-16.947 -33.017 -35.631 -32.02c-2.923 .156 -5.725 .716 -8.394 1.558l8.015 -67.803c203.066 30.353 547.249 56.687 688.887 -91.15L817.841 613.9zm-724.322 4.491c-.127 .027 -.255 .052 -.38 .079 .126 -.027 .253 -.052 .38 -.079zm-10.394 2.276c-.007 .002 -.012 .003 -.018 .005 .007 -.002 .013 -.003 .018 -.005zm-9.995 2.494c-.255 .066 -.511 .136 -.765 .202 .256 -.066 .51 -.136 .765 -.202zm-3.939 9.345zm-6.877 -6.345zm26.346 22.23zM75.698 638.154zm6.071 4.969zM299.194 541.217c.333 -.607 .664 -1.217 1 -1.82 -.336 .601 -.666 1.213 -1 1.82zm-4.093 7.691c-.132 .256 -.265 .509 -.397 .765 .132 -.256 .266 -.509 .397 -.765zm-23.469 79.042v36.343V627.95zm-8.28 56.712c-.036 .008 -.072 .016 -.108 .024 .037 -.008 .073 -.017 .108 -.024zm6.991 139.472zm1.29 -106.717V682.72v34.697zm6.405 -36.36zm-3.277 -13.43c.144 .156 .287 .314 .43 .471a103.258 103.258 0 01-.43 -.471zm3.06 3.415zm3.082 3.596c.24 .287 .481 .57 .72 .859 -.24 -.29 -.481 -.572 -.72 -.859z"/></svg>