<svg height="1000" width="1000" xmlns="http://www.w3.org/2000/svg"><path d="M499.99 31.245c-140.611 0 -234.386 93.946 -234.386 187.67 0 94.56 47.426 130.148 100.71 219.73 -6.789 92.721 -7.328 218.432 -7.328 389.093C389.428 726.243 413.937 648.155 434.06 590.605c28.236 87.451 52.697 206.177 65.907 378.112C513.202 796.78 537.638 678.055 565.874 590.605c20.122 57.55 44.632 135.638 75.073 237.133 0 -171.716 -.417 -298.063 -7.329 -390.931C686.608 348.179 734.33 313.008 734.33 218.915 734.378 125.19 640.63 31.244 499.992 31.244zm0 93.381c77.673 0 140.981 52.476 140.981 117.181 0 25.588 -10.784 49.388 -27.476 68.677C593.79 244.651 559.991 218.94 499.966 218.94s-93.798 25.711 -113.529 91.544c-16.69 -19.265 -27.475 -43.088 -27.475 -68.677 .049 -64.705 63.383 -117.18 141.029 -117.18z"/></svg>