<svg height="1000" width="1000" xmlns="http://www.w3.org/2000/svg"><path d="M499.99 265.63C617.173 412.126 412.1 353.524 177.738 353.524c100.171 33.383 176.2 58.922 230.71 80.563C321.07 462.224 202.64 486.831 31.242 499.993 202.64 513.18 321.07 537.787 408.447 565.9c-54.51 21.643 -130.539 47.182 -230.71 80.564 234.387 0 439.46 -58.603 322.254 87.892 38.407 -19.191 82.696 -38.26 125.417 -59.51 49.46 34.117 87.058 59.51 155.637 59.51 93.75 0 187.671 -93.75 187.671 -234.387S874.77 265.582 781.045 265.582c-69.044 0 -106.593 25.049 -156.568 59.51C582 304.012 538.178 284.723 499.992 265.63zm258.186 93.383c64.73 0 117.181 63.333 117.181 140.98s-52.475 140.98 -117.181 140.98c-17.696 0 -34.388 -5.294 -49.437 -13.725 49.093 -34.143 84.24 -75.024 84.24 -127.255S757.832 406.881 708.74 372.74c15.05 -8.432 31.74 -13.726 49.437 -13.726z"/></svg>