<svg height="1000" width="1000" xmlns="http://www.w3.org/2000/svg"><path d="M772.073 685.064c8.072 -46.396 12.224 -89.226 38.75 -129.662C880.98 448.435 980.351 344.386 943.436 206.61 920.767 122.02 848.824 78.433 779.938 81.272 721.104 83.7 669.74 126.859 640.056 190.267 582.656 150.65 515.652 139.83 462.029 166.655c-54.321 27.175 -90.517 86.825 -84.16 158.552 -9.386 4.761 -18.622 10.264 -27.624 16.476C320.562 278.275 269.2 235.117 210.363 232.688 141.477 229.85 69.534 273.435 46.864 358.027 9.95 495.803 109.321 599.85 179.48 706.819c26.525 40.435 30.677 83.265 38.749 129.662 26.82 -39.805 63.82 -76.139 97.499 -95.144 97.189 -54.853 225.432 -90.282 276.384 -192.86 -.03 -.015 -.06 -.03 -.09 -.044 28.36 13.543 56.567 26.822 82.554 41.489 33.679 19.005 70.679 55.339 97.5 95.143zM590.325 464.86c-11.723 -4.662 -23.28 -9.315 -34.488 -14.16 11.21 4.844 22.785 9.498 34.506 14.16h-.017zM445.668 358.848c20.487 -.973 40.225 3.43 57.17 11.908 30.276 15.144 51.124 41.205 52.69 79.81 -48.906 -21.17 -90.981 -46.098 -109.86 -91.718zM487.46 219.341c40.552 -20.285 97.058 -17.385 141.696 27.25l36.333 36.335 12.714 -49.057c17.012 -63.487 59.973 -92.678 103.55 -94.467l.002 .008c43.572 -1.805 89.652 22.759 107.177 85.384 24.95 89.153 -56.962 160.735 -112.946 240.065H613.07c1.633 -66.446 -33.478 -121.116 -84.798 -146.79C499.72 303.787 467.374 300.18 434.705 305.906c.068 4.017 .343 8.165 .817 12.433 -5.507 -49.304 16.898 -81.469 51.94 -99zm-43.066 136.366c-.122 -.322 -.25 -.64 -.37 -.964 .121 .323 .246 .642 .37 .964zm-2.08 -5.873zm-2.086 -6.958c-.002 -.003 -.002 -.008 -.003 -.012 -.003 -.013 -.006 -.027 -.01 -.04 .004 .013 .007 .027 .01 .04 .002 .003 .002 .008 .003 .012zm-1.362 -5.43c-.16 -.68 -.302 -1.347 -.453 -2.02 .151 .673 .294 1.342 .453 2.02zm-1.148 -5.24zm-.946 -5.046zm-.74 -4.764zm-52.119 36.815c0 -.002 0 -.002 -.002 -.002a206.667 206.667 0 01.002 .002zm2.746 9.3c-.143 -.45 -.289 -.903 -.43 -1.356 .141 .455 .287 .905 .43 1.355zm-6.535 -26.335zm1.72 8.597zm-280.48 25.437c17.525 -62.624 63.605 -87.189 107.177 -85.383l.003 -.008c43.577 1.788 86.538 30.978 103.55 94.467l12.715 49.056 36.333 -36.334c8.953 -8.953 18.388 -16.2 28.073 -21.944 25.129 69.527 82.927 110.859 147.3 144.854H141.577C109.15 475.332 86.638 428.833 101.364 376.21zm115.22 373.214L572.382 538.99s.002 0 .002 0L216.585 749.424zM714.54 905.956c-.408 29.974 27.674 54.734 62.501 54.734s63.579 -24.75 63.579 -54.734c.002 -66.477 -51.757 -52.82 -65.732 -157.394C762.22 853.545 715.477 839.817 714.54 905.956z"/></svg>