<svg height="1000" width="1000" xmlns="http://www.w3.org/2000/svg"><path d="M47.807 315.739l.002 -.003 -.002 -.002zm.002 -.003c52.713 96.369 113.671 149.81 113.88 257.872 .072 42.944 -31.36 57.53 -31.36 89.968 0 17.72 22.664 35.304 40.997 35.304 17.933 0 42.136 -18.913 42.133 -37.577 0 -32.24 -30.136 -44.061 -30.136 -81.993 0 -127.115 220.719 -48.146 231.177 128.682 5.346 90.448 -44.414 96.527 -44.414 140.075 0 34.874 22.951 47.83 46.688 47.83 23.217 0 42.134 -11.097 42.134 -47.83 0 -30.04 -39.889 -49.477 -38.72 -138.934 2.449 -187.422 158.558 -124.805 167.404 71.747 2.625 58.31 -37.579 78.795 -37.579 124.127 0 25.207 19.576 43.274 40.997 43.274 20.951 0 43.275 -19 43.275 -45.551 0 -47.798 -39.93 -64.725 -38.72 -124.127 4.389 -215.406 135.26 -365.177 159.432 -151.458 5.783 51.121 -30.749 69.36 -30.749 115.017 0 27.189 18.633 46.688 36.442 46.688 18.205 0 35.305 -18.6 35.305 -44.416 0 -44.148 -37.08 -65.71 -30.749 -118.435C789.024 427.957 901.64 394.737 955.426 315.739 717.206 -29.725 233.68 -30.297 47.808 315.738zm51.184 -.064C260.764 25.87 712.078 25.33 904.243 325.337 612.12 536.723 357.798 537.065 98.994 315.672zm551.795 -26.317c0 87.693 -71.09 158.78 -158.779 158.78S333.231 377.044 333.231 289.354 404.32 130.576 492.009 130.576s158.78 71.09 158.78 158.78zm-102.915 -6.179c0 31.453 -25.497 56.95 -56.95 56.95s-56.949 -25.497 -56.949 -56.95 25.497 -56.949 56.95 -56.949c31.45 0 56.949 25.497 56.949 56.95zm-375.8 353.44V457.853zm242.795 165.881V623.733zM591.081 849.2V670.437zM761.13 709.09V530.327z"/></svg>