<svg height="1000" width="1000" xmlns="http://www.w3.org/2000/svg"><path d="M733.283 592.725l36.904 105.735 -238.52 218.596 201.615 -324.33zm20.852 252.47l-36.908 -105.73 238.52 -218.592L754.136 845.196zM260.722 592.725L223.817 698.46l238.522 218.595L260.723 592.726zm-20.853 252.47l36.908 -105.73L38.257 520.874l201.61 324.32zM222.192 169.377c1.509 208.965 94.893 418.807 281.834 599.434C689.867 588.565 785.128 378.493 786.78 169.377c-160.277 35.369 -404.303 35.814 -564.587 0zm281.943 522.36C360.971 553.41 289.455 392.712 288.3 232.683c122.75 27.424 309.63 27.087 432.371 0 -1.26 160.144 -74.216 321.021 -216.535 459.056z"/></svg>