<svg height="1000" width="1000" xmlns="http://www.w3.org/2000/svg"><path d="M962.197 632.721v-56.663C857.543 534.335 795.91 495.403 776.957 433.318 761.396 382.339 808.346 314.522 896.818 232.822 804.391 283.482 736.352 317.888 709.4 269.87c-24.203 -43.11 2.905 -123.928 45.763 -229.913h-30.509c-34.18 54.107 -63.291 95.139 -74.097 84.992 -9.418 -8.843 -9.523 -40.664 -5.447 -84.992l-63.195 -.017c-41.82 93.652 -86.161 146.705 -150.37 155.815 -54.862 7.78 -125.906 -56.69 -205.942 -148.19 45.562 90.423 62.323 162.963 31.598 180.882 -36.32 21.188 -109.084 -3.79 -216.838 -49.031v20.698c74.129 47.047 142.42 92.978 129.667 110.059 -11.194 14.987 -62.238 12.393 -129.667 3.279v53.394c97.52 49.266 150.369 99.783 150.369 147.101 0 40.699 -81.272 123.781 -150.369 189.597v31.601C102.718 714.716 179.195 706.78 204.9 752.578c26.217 46.705 8.615 112.856 -25.06 209.209h57.751C298.777 879.14 356.951 812.863 387.96 815.776c21.966 2.077 11.706 69.542 -3.27 146.011h17.434c54.48 -151.398 121.613 -244.2 221.195 -240.812 87.38 2.99 170.294 90.953 261.512 153.64C837.15 816.268 749.313 733.171 768.24 717.71c19.902 -16.286 105.23 13.505 193.955 45.764v-28.328C903.984 695.43 850.434 657.267 864.128 643.614c12.311 -12.277 49.87 -14.26 98.068 -10.893zm-276.34 -67.683c-10.472 10.445 54.955 49.284 92.39 76.202C721.687 621.49 650.386 591.787 637.052 602.69c-9.628 7.874 35.013 50.098 59.27 79.786 -46.409 -31.895 -88.9 -76.499 -133.356 -77.995C497.602 602.253 460.156 680.807 427.87 800.81c8.487 -56.968 34.039 -146.207 15.686 -147.92 -26.029 -2.447 -88.927 90.36 -135.965 159.574 32.847 -99.543 62.69 -156.243 42.705 -191.848 -18.042 -32.14 -85.74 -12.599 -115.05 4.484C269.778 592.511 342.97 526.94 342.97 499.333c0 -40.182 -72.508 -85.396 -206.212 -123.461 80.377 12.668 184.01 35.921 196.107 19.724 9.455 -12.661 -68.49 -56.646 -115.921 -87.851 83.494 35.805 136.406 60 160.06 46.205 15.63 -9.12 6.93 -45.925 -16.25 -91.932 40.72 46.543 77.226 79.315 105.137 75.358 58.884 -8.35 84.32 -86.251 130.19 -234.931l.007 .004c-10.784 82.74 -32.623 186.393 -19.174 199.017 10.072 9.462 51.126 -66.988 82.8 -115.646C623.952 276 589.56 343.823 606.906 374.727c13.708 24.423 48.492 7.197 95.512 -18.572 -45.01 41.566 -69.19 76.024 -61.272 101.954 15.71 51.467 89.284 71.637 220.773 117.683 -67.52 -8.75 -160.457 -26.32 -176.063 -10.755z"/></svg>