<svg height="1000" width="1000" xmlns="http://www.w3.org/2000/svg"><path d="M916.55 709.171L789.991 582.614C751.814 544.437 687.367 521.04 631.625 526.577c-.003 .005 -.006 .01 -.007 .015 12.898 -21.217 24.275 -43.958 34.538 -67.814L586.798 379.42c-97.396 37.382 -164.89 108.468 -207.303 207.304l79.357 79.357c24.915 -7.572 47.246 -17.73 67.416 -30.047 -3.895 54.683 19.26 116.727 56.419 153.887L709.244 916.48c47.284 47.284 118.52 55.541 174.217 24.854l15.378 15.379 57.949 -57.948 -15.38 -15.38C972.09 827.69 963.833 756.457 916.55 709.172zM343.762 621.572C331.836 577.062 294.186 532.266 250.62 512.57c18.584 -10.175 36.694 -22.128 54.455 -35.378l-24.79 -92.523C192.343 370.736 112.12 394.477 38.594 449.431l24.79 92.522c21.648 5.036 42.488 7.059 62.653 6.56C99.822 587.269 90.46 643.01 102.069 686.335l39.537 147.552c14.772 55.127 63.9 91.63 118.165 92.716l4.796 17.898 67.56 -18.103L327.33 908.5c46.448 -28.073 70.742 -84.25 55.97 -139.377L343.765 621.571zM569.354 255.374a1.052 1.052 0 01-.046 .049c8.562 44.357 40.226 88.804 77.727 110.456l127.728 73.744c47.72 27.552 106.182 18.932 143.97 -17.374l15.494 8.947 33.765 -58.483 -32.317 -18.657 -33.764 58.481 33.764 -58.482 16.82 9.711c12.545 -50.874 -9.221 -105.81 -56.939 -133.362L767.83 156.66C729.3 134.414 673.012 129.536 629.825 145.831c-.008 .027 -.018 .056 -.027 .083 5.754 -19.66 9.964 -40.212 13.049 -61.414l-80.09 -46.24C493.206 88.785 454.645 159.764 441.965 247.476l80.09 46.24c18.238 -11.353 33.86 -24.216 47.298 -38.342zm10.555 -11.893c.002 -.002 .003 -.003 .005 -.005 -.002 0 -.003 .003 -.005 .005zm-5.202 6.069c.014 -.018 .03 -.035 .045 -.052 -.014 .016 -.029 .034 -.045 .052z"/></svg>