<svg height="1000" width="1000" xmlns="http://www.w3.org/2000/svg"><path d="M327.167 675.054l.018 .04c0 -.013 0 -.027 0 -.04h-.018zm552.434 121.132c117.092 -12.576 83.52 -171.675 0 -138.492 -95.564 37.968 -178.493 66.788 -256.154 83.587l25.552 -54.769a809.73 809.73 0 012.878 -1.755 172.362 172.362 0 01-.253 -4.666c.008 .246 .017 .494 .028 .74l.696 -1.494 -.752 .044c-2.944 -76.648 44.518 -159.563 151.225 -159.563C806.108 308.6 725.128 25.728 498.03 25.728l-.005 -.002C268.991 25.728 179.835 319.847 176.72 519.817c115.437 0 152.465 82.394 150.409 158.216 .67 .433 1.354 .858 2.03 1.287 0 0 -.003 0 -.003 -.002l31.117 66.691C288.685 731.343 214.096 702.756 130.206 657.693c-104.3 -56.026 -142.672 109.824 0 134.538 -142.238 2.64 -102.251 166.703 0 120.688 93.106 -41.897 177.469 -68.423 259.397 -80.642l-14.965 32.077a404.26 404.26 0 0079.846 14.088h1.09L431.69 827.249a708.373 708.373 0 0153.292 -2.79l-25.348 54.33a406.78 406.78 0 007.856 .404c-42.969 -1.834 -85.936 -10.356 -128.903 -26.774v102.428c101.324 34.238 202.652 32.644 303.977 0V852.419a596.409 596.409 0 01-31.613 9.542l-14.234 -30.506a773.249 773.249 0 00-10.37 -1.355c91.55 11.352 186.384 39.432 293.255 82.819 96.395 39.136 121.737 -111.465 0 -116.734zm-324.41 30.683l-23.426 50.207a445.354 445.354 0 01-29.044 2.147 442.932 442.932 0 0024.686 -1.692L502.62 824.406a726.717 726.717 0 0152.57 2.462zm-37.88 -70.212c1.554 -.103 3.111 -.226 4.668 -.341 -1.557 .116 -3.114 .238 -4.669 .34zm9.727 -.725zm9.771 -.876zm9.939 -1.04c1.744 -.196 3.486 -.385 5.231 -.593 -1.745 .21 -3.487 .399 -5.231 .592zm5.293 -.601l15.515 -33.253c-.014 .003 -.027 .005 -.042 .008a299.951 299.951 0 0015.878 -3.426l13.357 29.879c-15.055 2.75 -29.939 5.022 -44.707 6.79zm90.042 -62.662c2.253 -1.38 4.5 -2.76 6.747 -4.136 -2.246 1.375 -4.492 2.757 -6.747 4.136zm-18.64 50.528zm-13.696 2.851zM594.581 713.75zm4.95 -1.574c.796 -.27 1.592 -.535 2.376 -.819 -.784 .282 -1.581 .55 -2.375 .82zm4.049 -1.446c.708 -.266 1.418 -.53 2.12 -.806 -.7 .276 -1.41 .54 -2.12 .806zm3.823 -1.503c.676 -.277 1.352 -.552 2.021 -.839 -.669 .287 -1.345 .562 -2.021 .84zm3.717 -1.584c.654 -.29 1.31 -.579 1.959 -.876 -.65 .299 -1.304 .587 -1.96 .876zm3.642 -1.664c.64 -.302 1.28 -.603 1.913 -.913 -.635 .309 -1.274 .61 -1.913 .913zm3.577 -1.74zm3.514 -1.8zm3.472 -1.862zm3.416 -1.905zm3.38 -1.944a370.03 370.03 0 001.927 -1.134c-.64 .38 -1.284 .757 -1.928 1.134zm3.352 -1.977a1223.28 1223.28 0 010 0zm3.326 -2zm-2.324 -411.078c41.954 11.204 66.798 54.112 55.554 95.943 -6.464 24.061 -23.078 41.688 -44.367 50.883v.005C635.258 393.24 596.066 358.03 541.02 334.211c12.379 -40.134 54.447 -63.497 95.455 -52.538zm-141.56 125.423h.006c28.724 0 47.141 153.339 62.303 230.007 -26.153 -8.931 -52.518 -23.7 -61.382 -65.838 -8.869 42.184 -31.882 55.131 -63.23 65.838 11.22 -76.668 33.636 -230.007 62.304 -230.007zm56.837 315.642c-.017 .003 -.036 .005 -.055 .008 .017 -.003 .037 -.005 .055 -.008zm-24.18 2.508c-.041 .003 -.082 .005 -.125 .007 .042 -.002 .083 -.006 .126 -.007zM404.15 712.776a390.333 390.333 0 0015.889 4.045l18.597 39.858a579.246 579.246 0 01-58.783 -6.985l18.072 -38.734a265.081 265.081 0 006.225 1.817zm74.202 12.753c-.294 -.02 -.587 -.037 -.88 -.057 .294 .02 .586 .037 .88 .057zm-16.965 -1.516c-.2 -.022 -.4 -.047 -.6 -.07 .201 .021 .4 .047 .6 .07zm-8.278 -1.049c-.13 -.017 -.26 -.034 -.39 -.051 .131 .017 .261 .034 .39 .051zm-16.46 -2.67a57.37 57.37 0 01-.59 -.11c.195 .036 .393 .074 .59 .11zM302.07 377.614c-11.244 -41.83 13.6 -84.74 55.554 -95.944 41.008 -10.96 83.075 12.404 95.455 52.538 -55.046 23.82 -94.238 59.03 -106.642 94.294v-.005c-21.29 -9.194 -37.899 -26.822 -44.367 -50.883zm77.567 327.076c-.008 -.003 -.018 -.007 -.028 -.01 .01 .003 .02 .007 .028 .01zm-17.566 -7.418c-.063 -.03 -.127 -.06 -.192 -.09 .063 .03 .129 .059 .192 .09zm8.836 3.904c-.119 -.05 -.238 -.1 -.357 -.15 .119 .05 .238 .1 .357 .15zm-.918 46.745zm9.844 1.77zm67.342 7.496c8.061 .42 16.117 .672 24.177 .755l14.927 -31.992c4.392 .178 8.793 .277 13.204 .277 1.202 0 2.404 -.016 3.606 -.026 -.033 0 -.066 .002 -.097 .002l14.212 30.46c-23.45 1.545 -46.716 1.739 -70.03 .523zm-8.524 -.505zm63.93 67.724c-2.067 -.022 -4.134 -.02 -6.2 -.02 2.066 .003 4.132 -.002 6.2 .02zm-9.18 -.023zm-16.152 55.115zm-8.808 -.26zm17.57 .335zm15.846 -.31zm98.95 -14.646zm10.053 -2.629zm-79.065 15.086zm10.026 -1.18zm9.985 -1.394zm9.946 -1.6zm9.9 -1.801zm9.887 -2.003zm-5.453 -40.2zm-20.877 -2.024zm10.519 .949z"/></svg>