<svg height="1000" width="1000" xmlns="http://www.w3.org/2000/svg"><path d="M483.278 434.026C548.4 419.223 556.412 336.875 454.296 312.529 378.188 294.383 304.909 258.659 247.25 210.237a428.222 428.222 0 007.16 11.132c-23.902 -35.934 -43.456 -76.972 -57 -126.375a476.588 476.588 0 006.757 22.465c13.915 -19.474 13.224 -46.626 -3.199 -65.453C181.766 29.992 148.348 27.706 126.326 46.9c-19.112 16.657 -23.348 44.016 -11.582 65.345C95.206 97.69 67.515 98.157 48.404 114.816c-22.022 19.192 -24.307 52.596 -5.105 74.61 18.374 21.066 49.756 24.051 71.722 7.459a213.189 213.189 0 00-3.102 -1.587c28.112 14.097 61.877 38.941 96.101 69.907a730.241 730.241 0 00-8.91 -7.935c34.294 54.234 73.615 134.773 72.613 183.503 -2.245 109.068 112.438 147.774 135.533 71.734 62.949 60.659 89.735 150.156 47.482 234.06 74.745 135.852 283.893 248.29 500.855 187.614C602.027 790.16 730.735 620.37 483.278 434.027zM108.876 193.803zM93.92 187.479c.457 .164 .923 .341 1.383 .513 -.461 -.17 -.926 -.348 -1.383 -.513zm2.943 1.095c.597 .23 1.202 .475 1.808 .718 -.606 -.243 -1.21 -.487 -1.808 -.718zm2.977 1.188zm2.994 1.27zm3.008 1.345zm368.912 235.335c-.044 -.032 -.087 -.063 -.131 -.096a5.617 5.617 0 01.13 .096zm-17.896 -12.64c-.272 -.186 -.55 -.374 -.822 -.56 .272 .186 .55 .372 .822 .56zM330.471 310.32zm59.516 52.391zm-11.854 -9.918zm-9.528 -8.102zm-9.117 -7.896zm-10.253 -9.103zm-9.851 -8.995zm-61.72 -65.519c-8.093 -10.128 -15.825 -20.65 -23.146 -31.647 7.321 10.998 15.052 21.518 23.145 31.647zm34.218 38.702zm-8.778 -9.245c-8.75 -9.418 -17.185 -19.133 -25.26 -29.23 8.075 10.098 16.51 19.81 25.26 29.23zM244.44 300.32zm-27.483 -26.897zm18.159 17.494zm-9.134 -8.933zm45.725 47.603zm-27.039 -29.034zm9.171 9.553zm9.088 9.762zm33.96 39.367zm-16.645 -19.907zm8.315 9.785zm38.985 50.694zm-7.499 -10.481zm-7.626 -10.261zm15.618 21.442zm77.616 -17.812L376.753 487.37 405.65 382.695zm42.224 26.323c-.458 -.304 -.912 -.608 -1.372 -.912 .46 .304 .915 .606 1.372 .912zm-19.99 -12.873c-.788 -.492 -1.587 -.983 -2.382 -1.477 .795 .492 1.594 .984 2.382 1.477zm-9.702 -5.968c-.905 -.55 -1.805 -1.097 -2.72 -1.647 .913 .55 1.815 1.1 2.72 1.647zM392.62 499.458zm-7.723 -6.124z"/></svg>