<svg height="1000" width="1000" xmlns="http://www.w3.org/2000/svg"><path d="M960.245 581.629l-66.01 -21.787 1.554 1.626 -365.087 132.49L181.209 324.49 95.414 296.173C52.115 326.816 47.247 414.123 76.36 444.483L507.78 887.918 964.083 724.536C922.528 701.82 888.791 637.157 960.246 581.629zM483.55 701.289L124.043 328.54h10.761l357.92 365.419 -9.173 7.332zm27.486 173.31S461.3 816.492 525.755 739.157l390.662 -141.47s-44.923 77.142 7.648 122.703L511.035 874.6zM181.209 324.49l-11.93 -12.61L533.475 182.552 894.236 559.84l66.008 21.787c-.323 .25 -.626 .502 -.945 .753l7.7 -2.748L541.276 138.226 97.138 296.738l84.07 27.75z"/></svg>