<svg height="1000" width="1000" xmlns="http://www.w3.org/2000/svg"><path d="M867.377 145.702C805.657 81.364 558.087 83.225 359.368 117.033l12.604 137.85c116.916 -8.733 241.846 -6.29 312.206 65.374 68.184 73.74 64.592 198.643 50.223 315l137.082 19.245c43.365 -196.854 57.178 -444.045 -4.106 -508.8zm-547.436 -21.4a1281.858 1281.858 0 00-31.563 6.67l11.903 130.263a5358.031 5358.031 0 0131.847 -3.039L319.941 124.303zm542.376 569.232L729.171 674.896a5420.673 5420.673 0 01-4.574 31.662l129.535 18.18a1278.454 1278.454 0 008.185 -31.204zM249.22 140.524C155.03 165.459 89.917 198.127 93.702 232.646c4.766 43.48 74.683 41.022 166.864 32.413 0 .002 -11.346 -124.533 -11.346 -124.533zM842.701 763.39L718.859 746.043c-13.048 91.66 -18.878 161.375 24.319 168.235 34.295 5.448 70.072 -58.012 99.523 -150.888z"/></svg>