<svg height="1000" width="1000" xmlns="http://www.w3.org/2000/svg"><path d="M496.858 439.415c-23.44 10.918 -47.178 25.073 -70.442 42.1 21.915 -31.767 46.379 -56.652 71.68 -74.978l26.542 -265.472C536.266 87.177 468.942 63.242 382.2 74.14h.005c-67.465 8.476 -146.528 37.725 -209.443 92.238l65.266 370.87L241.9 655.55l114.255 16.489L388.87 595.86l45.428 80.686C590.606 694.955 710.23 674.2 769.754 634.046 781.633 511.028 685.756 357.556 496.859 439.416zm322.87 198.821c10.586 6.356 16.327 13.134 16.327 20.173 0 36.24 -151.582 65.618 -338.561 65.618s-338.56 -29.379 -338.56 -65.618c0 -7.072 5.795 -13.88 16.479 -20.265 -43.473 12.968 -68.951 28.689 -68.951 45.635 0 44.437 175.04 80.462 390.955 80.462s390.955 -36.023 390.955 -80.462c0 -16.907 -25.36 -32.594 -68.645 -45.543zm-658.394 4.429H68.708l49.085 21.829c9.31 -7.784 24.122 -15.121 43.542 -21.83zm-54.871 41.114c0 -7.292 4.73 -14.357 13.57 -21.075L30.97 714.256l89.073 -9.403c-8.837 -6.718 -13.58 -13.781 -13.58 -21.075zm30.386 31.148l-56.921 86.84L206.24 737.465c-28.824 -6.618 -52.41 -14.221 -69.392 -22.538zm95.28 27.947l-20.927 130.211L330.94 756.596c-36.358 -3.527 -69.64 -8.173 -98.813 -13.722zm131.328 16.518l22.764 151.175L485.517 764.2c-42.766 -.263 -83.809 -1.937 -122.06 -4.808zm148.137 4.79l109.609 149.704L634.66 759.137c-38.506 2.973 -79.893 4.728 -123.066 5.044zm155.487 -7.892l118.523 116.804L764.62 742.508c-28.78 5.548 -61.623 10.216 -97.538 13.782zM859.468 714.18c-16.823 8.477 -40.46 16.229 -69.523 22.969l126.925 64.615 -57.403 -87.584zm28.905 -30.402c0 7.227 -4.657 14.23 -13.34 20.892l90.8 9.586L859.906 652.95l-.111 .592c18.418 9.334 28.579 19.542 28.579 30.238zm-54.871 -41.114c19.925 6.883 35.007 14.428 44.265 22.438l50.457 -22.438h-94.722z"/></svg>