<svg height="1000" width="1000" xmlns="http://www.w3.org/2000/svg"><path d="M42.41 335.919c-46.056 135.47 73.753 179.96 159.773 83.55 -81.352 15.934 -140.62 -2.55 -159.774 -83.55zm674.685 35.53c312.145 -70.82 310.823 -417.81 72.504 -320.763v.005C947.063 24.2 894.463 263.103 768.907 292.089c77.348 -57.239 61.496 -111.452 31.037 -162.083 -12.552 179.91 -239.02 210.15 -305.39 327.83 .383 -.681 .764 -1.361 1.16 -2.037 -.523 0 -1.042 .02 -1.565 .022 -.01 .924 -.027 1.838 -.034 2.764 0 .002 -.002 .002 -.002 .003 1.695 -215.165 71.615 -334.076 169.403 -280.412 44.892 24.635 38 87.634 -14.294 105.014C756.954 260.864 775.932 161.624 672.828 102.1v-.005C585.128 51.46 455.744 115.474 438.89 274.697c0 0 0 .002 0 .002C376.343 12.775 157.772 -45.517 138.516 191.743a158.238 158.238 0 011.742 -3.552c.22 -.432 .444 -.848 .666 -1.274 .374 -.723 .748 -1.452 1.127 -2.16 .256 -.477 .52 -.935 .779 -1.404 .353 -.641 .706 -1.29 1.065 -1.918 .27 -.47 .545 -.922 .816 -1.385 .357 -.609 .712 -1.224 1.077 -1.82 .285 -.468 .577 -.92 .864 -1.38 .357 -.572 .71 -1.149 1.073 -1.708 .299 -.46 .602 -.904 .904 -1.356 .36 -.542 .72 -1.09 1.083 -1.62 .304 -.443 .616 -.871 .924 -1.305 .37 -.52 .735 -1.046 1.108 -1.556 .314 -.431 .637 -.847 .956 -1.27 .374 -.494 .744 -.995 1.12 -1.477 .325 -.416 .655 -.816 .983 -1.224 .38 -.473 .757 -.951 1.14 -1.413 .332 -.399 .668 -.781 1.003 -1.173 .387 -.453 .773 -.91 1.163 -1.352 .339 -.384 .686 -.754 1.027 -1.13 .392 -.428 .782 -.864 1.178 -1.282 .348 -.369 .7 -.72 1.05 -1.082 .4 -.409 .797 -.824 1.2 -1.223 .35 -.348 .706 -.682 1.06 -1.023 .409 -.393 .816 -.79 1.23 -1.173 .355 -.33 .717 -.647 1.076 -.97 .418 -.375 .832 -.752 1.253 -1.117 .36 -.312 .726 -.612 1.09 -.917 .424 -.356 .849 -.716 1.277 -1.062 .368 -.295 .738 -.579 1.107 -.868 .432 -.338 .863 -.679 1.3 -1.005 .369 -.277 .742 -.543 1.114 -.812 .442 -.322 .883 -.645 1.328 -.955 .372 -.26 .749 -.507 1.124 -.76 .45 -.303 .9 -.606 1.354 -.9 .376 -.243 .754 -.474 1.133 -.71 .458 -.285 .917 -.572 1.38 -.846 .38 -.226 .76 -.439 1.14 -.658 .469 -.267 .935 -.537 1.407 -.795 .38 -.207 .765 -.406 1.147 -.606 .477 -.25 .954 -.503 1.435 -.742 .382 -.19 .765 -.372 1.148 -.555 .488 -.233 .974 -.468 1.465 -.69 .384 -.175 .769 -.34 1.154 -.508 .496 -.216 .992 -.433 1.49 -.636 .385 -.158 .77 -.306 1.156 -.458 .508 -.199 1.015 -.398 1.524 -.586 .381 -.14 .766 -.274 1.15 -.408 .516 -.18 1.032 -.362 1.553 -.532 .384 -.126 .771 -.245 1.156 -.365a75.194 75.194 0 011.579 -.478c.382 -.111 .767 -.214 1.151 -.318a93.144 93.144 0 011.612 -.426c.382 -.097 .764 -.185 1.148 -.275 .547 -.126 1.093 -.254 1.643 -.37a90.35 90.35 0 011.138 -.23 80.516 80.516 0 011.677 -.318c.377 -.067 .755 -.127 1.132 -.188a97.155 97.155 0 011.708 -.263c.375 -.051 .75 -.1 1.126 -.148a84.336 84.336 0 011.737 -.205c.374 -.04 .747 -.073 1.122 -.11a74.392 74.392 0 011.769 -.148c.369 -.026 .74 -.049 1.11 -.072a80.199 80.199 0 012.896 -.126 77.92 77.92 0 012.918 -.034c.625 .003 1.254 .01 1.882 .024 .353 .008 .707 .022 1.061 .032a90.358 90.358 0 012.959 .149 88.525 88.525 0 012.977 .239 99.959 99.959 0 012.997 .331 96.782 96.782 0 013.008 .419 103.42 103.42 0 013.025 .507 116.308 116.308 0 016.092 1.275 110.094 110.094 0 013.058 .768c.74 .195 1.478 .398 2.219 .608 .285 .082 .572 .163 .858 .246a123.446 123.446 0 013.083 .939c.765 .243 1.534 .494 2.3 .754a137.257 137.257 0 013.143 1.1 147.069 147.069 0 013.871 1.465c.81 .318 1.62 .647 2.43 .982 .23 .097 .462 .19 .692 .288a172.228 172.228 0 013.127 1.351c.837 .372 1.676 .755 2.512 1.146 .206 .096 .414 .19 .619 .287 .85 .4 1.7 .81 2.55 1.225 .197 .097 .394 .193 .59 .29a179.32 179.32 0 012.592 1.31c.18 .094 .362 .186 .543 .28 .879 .457 1.76 .925 2.64 1.4 .168 .091 .336 .18 .504 .27 .895 .487 1.793 .985 2.688 1.492 .15 .085 .302 .17 .452 .255a196.78 196.78 0 012.733 1.584c.138 .082 .277 .161 .416 .245a193.83 193.83 0 012.773 1.676c.124 .077 .248 .15 .37 .227 .94 .579 1.878 1.17 2.816 1.77 .109 .07 .22 .138 .329 .208a217.45 217.45 0 012.868 1.873c.09 .06 .18 .12 .27 .18 .97 .646 1.939 1.304 2.908 1.969 .078 .053 .158 .107 .236 .16 .99 .684 1.978 1.38 2.968 2.084 .053 .037 .107 .077 .16 .114 1.01 .723 2.02 1.455 3.03 2.2 .034 .025 .066 .049 .102 .073a239.132 239.132 0 013.065 2.304c.022 .017 .042 .032 .064 .049 1.04 .795 2.08 1.6 3.117 2.419 -41.979 6.5 -88.023 39.691 -126.265 106.384 107.599 -64.557 184.847 -26.567 245.4 67.913 0 .002 .001 .003 .001 .003 0 -.002 -.002 -.002 -.002 -.003a449.595 449.595 0 016.956 20.899c.044 .145 .087 .29 .132 .435 .31 1.017 .592 2.05 .896 3.069a487.246 487.246 0 007.287 38.44c.4 .433 .786 .879 1.18 1.318C398.14 351.872 304.204 335.95 235.294 399.372c71.884 -4.174 130 20.285 178.413 64.918 -33.696 7.059 -65.616 18.36 -93.272 33.34 43.876 67.064 77.722 156.94 77.722 259.422 -98.133 20.587 -152.51 109.943 -164.71 220.513h399.62c-3.225 -67.15 -26.593 -118.195 -87.11 -159.16 85.517 5.795 134.831 96.918 142.965 159.163h54.532C731.308 867.468 674.464 778.131 576.65 757.055c0 -108.822 35.936 -192.345 79.819 -259.423C637.526 485.707 616.581 476.495 594.442 469.78c-33.839 74.638 -62.879 167.204 -69.132 287.093 -6.127 -118.57 1.788 -219.988 16.979 -295.17 41.92 -43.482 101.23 -73.572 174.804 -90.262zm-265.41 38.971c.054 .278 .1 .558 .154 .835a438.062 438.062 0 00-1.934 -9.328c.548 2.527 1.097 5.054 1.602 7.6 .058 .3 .12 .596 .177 .893zm36.722 105.929a160.75 160.75 0 00.106 -3.798c.002 -.073 .005 -.149 .007 -.222 -.002 .072 -.005 .144 -.007 .216 .008 -.455 .035 -.917 .038 -1.372a159.138 159.138 0 01-.144 5.176zm-.063 1.34a154.195 154.195 0 01-.314 4.923c-.007 .087 -.012 .173 -.018 .26a157.889 157.889 0 00.336 -5.248c-.002 .022 -.002 .044 -.003 .066zm-.002 .032zm-.311 5.193zm-.197 -28.15zm.41 4.996zm.263 6.285zM487.13 488.66zm-1.257 -7.538c-.2 -1.077 -.4 -2.153 -.626 -3.217 .328 1.538 .623 3.088 .903 4.647 -.087 -.48 -.187 -.951 -.277 -1.429zm.5 2.7zm-1.165 -5.986a147.667 147.667 0 00-4.183 -15.474 147.436 147.436 0 014.195 15.433c-.002 .013 -.007 .026 -.012 .041 0 -.002 0 0 0 0zm-9.647 -29.543zm2.015 4.713zm5.666 30.496zm-1.434 4.675zm-1.561 6.031zm-1.088 4.997c-.149 .75 -.284 1.506 -.421 2.263a128.587 128.587 0 01.42 -2.263zm-1.229 7.25c-.063 .442 -.133 .882 -.194 1.325 .06 -.445 .132 -.883 .194 -1.326zm-.579 4.534zm-.87 12.924c0 .023 -.002 .044 -.002 .067 0 -.023 .002 -.046 .002 -.067zm.503 17.321c.02 .251 .037 .5 .059 .75 -.02 -.235 -.052 -.477 -.07 -.712 .004 .007 .01 .016 .016 .024 -.002 -.022 -.003 -.041 -.005 -.062zM480 563.052c-.113 -.58 -.205 -1.147 -.312 -1.725 .108 .577 .2 1.146 .312 1.725zm-1.258 -7.128c-.097 -.606 -.176 -1.2 -.266 -1.803 .09 .602 .17 1.197 .266 1.803zm-.987 -7.035c-.067 -.553 -.126 -1.102 -.188 -1.653 .062 .55 .121 1.098 .188 1.653zm15.85 -13.686c.93 2.013 1.857 4.025 2.816 6.05a862.842 862.842 0 01-2.82 -6.038c.001 -.003 .002 -.007 .004 -.012zm33.07 -55.628zm-5.52 7.22c-.677 .922 -1.328 1.863 -1.992 2.795 .664 -.932 1.314 -1.874 1.992 -2.796zm-7.493 10.872c-.76 1.166 -1.533 2.323 -2.276 3.504 .743 -1.18 1.516 -2.338 2.276 -3.504zm-4.816 7.692zm-4.634 8.066zm-4.366 8.311zm-3.934 8.199c-.069 -1.226 -.127 -2.436 -.19 -3.655 .063 1.22 .121 2.43 .19 3.655zm-.56 -10.953a1078.301 1078.301 0 01-.204 -4.575c.066 1.523 .131 3.046 .204 4.575zm-.47 -11.16c-.053 -1.424 -.109 -2.852 -.158 -4.27 .047 1.418 .105 2.845 .159 4.27zm-.458 -14.338c-.023 -.934 -.038 -1.855 -.059 -2.787 .021 .932 .034 1.854 .059 2.787zm-.208 -10.59zm-.11 -10.827c-.007 -1.2 -.014 -2.404 -.016 -3.597 .002 1.194 .01 2.396 .016 3.597zm-37.67 -55.195c-.319 -.4 -.635 -.802 -.957 -1.2 0 -.003 0 -.007 0 -.008 .324 .399 .638 .806 .956 1.21zm19.032 31.204zm-2.393 -5.033zm-2.167 -4.195zm-2.737 -4.854zm-2.432 -4.002zm-3.097 -4.7zm-2.65 -3.756c-.408 -.56 -.824 -1.112 -1.24 -1.666 .416 .555 .832 1.108 1.24 1.666zm11.89 112.013zm-6.142 -8.956c-.075 -.107 -.151 -.21 -.227 -.319 .076 .108 .152 .212 .227 .319zm-5.285 -7.344c-.328 -.447 -.654 -.895 -.983 -1.34 .329 .445 .656 .893 .983 1.34zM448.432 324.331c-.021 -.141 -.04 -.285 -.061 -.424 .021 .14 .04 .284 .061 .424zm6.167 62.707c-.007 -.157 -.017 -.314 -.026 -.47 .008 .156 .018 .311 .026 .47zm-.523 -9.079c-.03 -.448 -.062 -.892 -.092 -1.338 .031 .447 .064 .89 .092 1.338zm-.639 -8.995c-.044 -.567 -.091 -1.13 -.136 -1.696 .045 .565 .092 1.129 .136 1.696zm-.752 -8.928c-.055 -.602 -.112 -1.202 -.168 -1.805 .056 .602 .113 1.202 .168 1.805zm-.869 -8.883a469.71 469.71 0 00-.184 -1.73c.061 .577 .122 1.153 .184 1.73zm-.99 -8.857c-.06 -.508 -.121 -1.017 -.18 -1.527 .06 .509 .12 1.018 .18 1.527zm-1.117 -8.878c-.051 -.385 -.102 -.772 -.154 -1.156 .052 .385 .103 .772 .154 1.156zm-6.041 43.25c.072 .26 .143 .52 .216 .78 .215 .774 .408 1.56 .618 2.337a456.33 456.33 0 00-2.845 -10.002c.68 2.29 1.365 4.576 2.012 6.883zm3.1 11.72c.14 .563 .264 1.134 .404 1.698a447.932 447.932 0 00-2.607 -10.065c.667 2.46 1.334 4.922 1.961 7.403 .08 .322 .161 .643 .241 .964zm.588 2.475a432.431 432.431 0 011.783 7.5c.078 .34 .154 .677 .23 1.017 .088 .387 .161 .779 .247 1.165a447.599 447.599 0 00-2.26 -9.681zm4.5 20.481s0 .002 0 0c-.008 -.007 -.015 -.015 -.022 -.024 .008 .008 .014 .016 .021 .024zm2.314 97.535c-.234 -.302 -.468 -.599 -.701 -.9 .233 .3 .467 .596 .7 .9zm-5.6 -7.097c-.324 -.403 -.647 -.81 -.973 -1.21 .326 .402 .649 .808 .973 1.21zm-25.352 -28.367c-.222 -.221 -.44 -.45 -.662 -.672 .221 .222 .44 .45 .662 .672zm18.95 20.625c-.342 -.403 -.686 -.8 -1.029 -1.199 .343 .4 .689 .796 1.03 1.2zm-5.982 -6.864c-.296 -.333 -.591 -.67 -.89 -1.003 .299 .331 .594 .669 .89 1.003zm-6.471 -7.059c-.423 -.448 -.849 -.89 -1.27 -1.336 .423 .446 .848 .89 1.27 1.336zm-12.93 -12.97c-.481 -.456 -.964 -.908 -1.447 -1.36 .482 .452 .966 .904 1.447 1.36zm79.839 74.544c-.126 -1.92 -.23 -3.815 -.348 -5.724 .116 1.907 .222 3.805 .348 5.724zm39.708 -73.58c.066 -.076 .136 -.147 .205 -.222 -.069 .075 -.139 .146 -.205 .222zm-6.015 6.977c.666 -.8 1.348 -1.589 2.022 -2.382 -.676 .793 -1.357 1.581 -2.022 2.382zM633.672 201.366c-63.547 -11.17 -84.01 94.548 -1.294 81.38 -29.209 -10.791 -31.333 -53.808 1.294 -81.38z"/></svg>