<svg height="1000" width="1000" xmlns="http://www.w3.org/2000/svg"><path d="M749.876 184.484H270.569c0 113.285 -66.349 41.795 -66.349 166.465v490.258c0 53.326 42.732 96.057 96.056 96.057H716.52c53.324 0 96.055 -42.733 96.055 -96.057V350.95c.002 -132.037 -62.7 -57.175 -62.7 -166.465zm-383.14 699.881l-.003 .008h-.004l.007 -.008L482.172 573.787H272.769L611.034 214.762l-91.28 262.144h228.197l-381.216 407.46zM194.092 45.521v146.586h76.358a257.087 257.087 0 00.119 -7.623h479.307c0 2.66 .047 5.176 .121 7.623h77.518V45.521H194.093z"/></svg>