<svg height="1000" width="1000" xmlns="http://www.w3.org/2000/svg"><path d="M121.091 121.963C215.6 140.182 360.514 283.39 373.678 374.549 288.37 365.498 140.8 222.462 121.09 121.963zm346.854 84.805L354.33 320.383c10.11 19.074 16.94 37.493 19.348 54.166 -16.385 -1.739 -35.072 -8.435 -54.705 -18.81l-124.74 124.74 51.721 51.72 273.71 -273.71 -51.72 -51.72zM121.091 121.963c9.989 1.925 20.543 5.26 31.443 9.77l30.747 -30.747L116.873 34.578l-86.106 86.104 66.408 66.409 33.605 -33.606c-4.394 -10.817 -7.701 -21.39 -9.689 -31.523zm703.462 553.58l-79.35 14.14 14.885 -78.147L681.01 625.49l15.815 -77.216L618.68 563.16l14.886 -78.146 -79.078 13.954L569.65 419.77l-92.024 -92.024L331.448 473.926 687.93 830.408c68.484 68.49 182.148 151.596 276.33 130.162C918.565 919.067 804.876 752.54 824.553 675.544z"/></svg>