<svg height="1000" width="1000" xmlns="http://www.w3.org/2000/svg"><path d="M495.208 16.952c-212.336 0 -384.472 216.064 -384.472 482.59S282.874 982.13 495.208 982.13 879.679 766.066 879.679 499.54 707.541 16.951 495.208 16.951zM329.862 801.028c-45.744 0 -82.826 -37.411 -82.826 -83.56s37.082 -83.559 82.826 -83.559 82.827 37.411 82.827 83.56c0 46.148 -37.083 83.559 -82.827 83.559zM195.744 355.148c0 -167.3 135.62 -302.921 302.92 -302.921s302.922 135.62 302.922 302.921S665.966 658.069 498.665 658.069 195.744 522.446 195.744 355.148zM652.6 801.028c-45.744 0 -82.827 -37.411 -82.827 -83.56S606.856 633.91 652.6 633.91s82.827 37.411 82.827 83.56c-.002 46.148 -37.083 83.559 -82.827 83.559zM830.723 735.3c-11.38 25.46 -24.527 49.506 -39.265 71.844C836.995 788.312 876.684 764.375 907.34 735.3h-76.616zm-671.032 0H89.866c28.429 26.964 64.77 49.547 106.432 67.73C182.638 781.86 170.38 759.21 159.692 735.3zm339.65 -154.647L304.891 467.275l-.715 -225.513L497.903 129.63l194.45 113.379 .716 225.513L499.34 580.653z"/></svg>