<svg height="1000" width="1000" xmlns="http://www.w3.org/2000/svg"><path d="M505.634 47.192c78.896 -3.136 156.195 19.64 230.744 61.829l-16.993 63.413C631.87 182.946 559.064 166.517 488.64 110.604l16.993 -63.412zm140.861 395.945c17.573 -11.53 30.721 -27.073 35.873 -46.272C691.95 361.145 672.74 323.34 636.936 295.27l32.12 -119.878c-51.37 -.404 -97.95 -12.31 -142.74 -38.775L494.341 255.94c-45.705 6.139 -81.79 29.961 -91.468 66.037 -5.216 19.436 -2.066 40.098 7.65 59.052 -106.862 25.868 -201.03 116.294 -234.81 242.24 -17.904 66.743 -16.253 133.23 .95 192.515C311.959 916.06 461.044 968.018 632.413 937.896c44.331 -42.696 79.246 -99.759 97.08 -166.245C763.471 644.94 727.106 518.76 646.497 443.138zm-19.668 265.394c-33.754 -6.002 -60.905 7.913 -74.858 41.931L356.067 697.97c6.097 -32.357 -13.739 -63.956 -45.365 -74.11l24.562 -91.572c32.484 6.966 65.835 -11.842 76.79 -43.034l195.898 52.496c-6.032 31.944 12.77 64.423 43.438 75.214l-24.563 91.567z"/></svg>