<svg height="1000" width="1000" xmlns="http://www.w3.org/2000/svg"><path d="M151.876 250.67c8.148 -46.121 42.33 -83.23 86.843 -95.617L105.49 22.079l-85.408 .002v96.796l131.795 131.795zM247.47 373.29c0 -67.003 54.314 -121.318 121.318 -121.318 7.698 0 15.217 .749 22.518 2.119 -8.62 -58.552 -59.056 -103.5 -120.003 -103.5 -67.003 0 -121.318 54.315 -121.318 121.319 0 59.304 42.562 108.637 98.8 119.199a122.245 122.245 0 01-1.314 -17.82zM953.409 955.7L245.769 682.902l32.222 -92.02 257.784 -52.815 52.82 -257.782 93.125 -33.333L953.41 955.7zM535.775 538.067l52.496 -256.203 -13.075 -34.14L244.91 578.01l33.305 12.827zM333.536 489.386l151.35 -151.35C469.782 288.23 423.53 251.97 368.79 251.97c-67.003 0 -121.318 54.314 -121.318 121.318 -.002 54.74 36.258 100.994 86.063 116.097z"/></svg>