<svg height="1000" width="1000" xmlns="http://www.w3.org/2000/svg"><path d="M26.787 897.266l29.662 -29.662 78.9 78.899 -29.663 29.662 -78.899 -78.9zM439.279 649.4c0 -47.384 -38.437 -85.822 -85.822 -85.822s-85.82 38.438 -85.82 85.82c0 47.384 38.416 85.8 85.822 85.822s85.842 -38.416 85.82 -85.82zm-171.24 8.204l-.789 -.788L104.812 819.253l78.9 78.9L346.15 735.715l-.898 -.898c-40.851 -3.893 -73.339 -36.38 -77.214 -77.212zm-.402 -8.205c0 -44.44 33.81 -81.007 77.1 -85.381C299.1 512.142 258.59 455.734 223.786 395.45L114.838 504.4l153.2 153.2a86.842 86.842 0 01-.4 -8.202zm171.206 8.752c-4.368 43.295 -40.932 77.092 -85.384 77.07a87.047 87.047 0 01-8.209 -.403l153.377 153.376 108.95 -108.95C546.97 744.242 490.547 703.653 438.844 658.15zM796.382 72.885L383.293 485.974c6.382 9.396 10.477 20.908 10.477 33.024 0 18.783 -8.972 35.587 -22.827 46.37 33.898 7.023 60.467 34.052 66.849 68.178 10.755 -14.282 27.832 -23.574 46.95 -23.574 12.117 0 22.96 3.427 32.206 9.659L930.035 206.544 959.03 43.893 796.38 72.885zM40.98 852.129L150.881 962.03l48.354 -48.353L89.334 803.776 40.98 852.129z"/></svg>