<svg height="1000" width="1000" xmlns="http://www.w3.org/2000/svg"><path d="M180.293 817.83C137.215 774.784 85.296 756.886 64.321 777.862c-21.005 21.007 -3.11 72.924 39.969 115.972s94.998 60.944 115.972 39.969c21.007 -20.974 3.11 -72.894 -39.969 -115.973zm19.826 90.683c-13.411 14.72 -50.173 3.068 -82.11 -26.027S71.054 817.873 84.465 803.153s50.172 -3.069 82.109 26.026c31.938 29.095 46.956 64.613 33.545 79.334zm-29.616 -75.625zm26.572 34.482zm-2.17 -3.927zM178.678 841.4zm13.353 17.381zm-20.596 -24.985zm33.424 57.116c-.207 -2.258 -.621 -4.62 -1.243 -7.072 .62 2.452 1.037 4.815 1.243 7.072zm-15.485 -36.087zm11.562 20.866zm4.076 18.715zm-1.46 -10.815a64.81 64.81 0 00-2.463 -7.518 65.185 65.185 0 012.462 7.518zm-17.675 -33.513zm-3.109 -3.926zM772.475 346.714l15.15 -198.104 -149.05 54.205C645.22 135.134 683.939 77.88 749.7 19.405L624.825 50.777 353.035 322.6c-90.273 90.272 2.286 171.552 -94.084 267.92L80.054 769.416l.413 .414c25.416 -4.682 65.432 13.627 99.828 48 27.864 27.864 45.171 59.415 48.251 83.911l170.8 -170.8c96.369 -96.369 177.647 -3.81 267.919 -94.082L981.098 323.027l-208.62 23.686zM166.556 829.161zm-4.493 -3.934zm-48.09 -26.781zm44.443 23.766zm-41.134 -22.861zm-9.413 -2.11zm47.01 22.21zm-23.2 -14.407zm7.893 4.198zm-14.876 -7.302zm3.394 1.435zm15.027 7.993zm3.7 2.372z"/></svg>