<svg height="1000" width="1000" xmlns="http://www.w3.org/2000/svg"><path d="M652.791 553.691l-101.46 -53.138 11.28 67.65 -78.107 -26.585c137.282 96.43 230.451 217.86 315.662 372.033 44.176 79.906 140.21 12.591 66.828 -66.828 80.73 66.248 152.283 -48.718 79.723 -79.723C822.574 714.052 716.54 644.847 652.792 553.691zM32.808 596.282c-26.89 40.273 16.158 99.48 105.942 65.06C30.49 726.309 122.622 819.66 187.71 746.157 254.478 670.793 333.866 600.825 417.31 567.595l24.756 -55.06 -63.961 12.226 94.449 -116.613C356.275 490.005 230.059 554.363 84.118 566.68c-25.731 2.165 -42.347 16.188 -51.31 29.602zm520.2 -196.52l84.905 -202.434L587.854 39.68 523.13 302.448l29.877 97.314zm270.48 171.642L588.8 451.011l218.226 16.799 16.463 103.594zM495.358 371.776L314.57 84.74l3.962 215.849 176.825 71.187zm-48.72 220.116L329.143 746.46l91.186 -20.09 26.31 -134.478zm162.04 -180.91l166.275 -76.065 -108.686 -3.05 -57.59 79.115zM483.587 593.69l37.043 230.848 71.004 -38.261L483.59 593.69z"/></svg>