<svg height="1000" width="1000" xmlns="http://www.w3.org/2000/svg"><path d="M973.581 591.804C973.581 385.089 905.2 145.342 730.66 32.52l-.002 -.003 -46.007 71.166c44.323 27.265 67.588 52.527 90.058 97.163 -15.547 21.515 -27.178 47.527 -36.944 76.863 7.95 17.69 13.691 49.26 13.716 70.165L681.478 336.45l-60.434 66.355L572.46 303.274c-63.917 78.582 -83.075 111.601 -181.897 104.868L362.63 321.979l-99.623 19.3S244.85 242.038 214.347 219.812c8.562 -35.79 34.058 -67.456 80.58 -95.978L250.735 42C88.995 155.403 23.215 380.748 23.215 591.805c181.17 91.112 235.22 194.651 225.15 304.526 27.011 15.21 54.95 30.32 87.69 39.102 44.776 12.011 92.805 17.779 142.199 17.773 49.393 -.008 99.977 -5.762 146.939 -17.773 42.52 -10.878 81.104 -27.868 116.128 -48.584 -1.566 -106.89 56.703 -212.506 232.26 -295.045zm-607.317 54.988C311.166 678.604 246.806 670.46 222.982 629.198c-13.599 -23.55 -10.645 -52.759 4.19 -79.596l-.002 -.002c25.028 -.428 54.533 -5.455 86.305 -17.597 30.267 -11.562 58.637 -27.403 81.277 -44.406 11.701 6.15 21.898 15.398 28.49 26.81 23.823 41.266 -1.882 100.572 -56.98 132.385zm53.1 199.61c19.235 -70.447 42.364 -140.893 79.031 -211.339 0 -.002 -.002 -.002 -.002 -.003h.003c0 .002 -.002 .002 -.002 .003 36.136 70.447 64.803 140.892 79.032 211.339 -52.69 -16.074 -105.376 -18.217 -158.065 0zM773.644 629.2c-23.825 41.26 -88.185 49.406 -143.281 17.594S549.56 555.674 573.386 514.409c6.591 -11.413 16.788 -20.66 28.49 -26.81 22.637 17.003 51.009 32.844 81.277 44.406 31.773 12.142 61.277 17.17 86.304 17.597l-.002 .002c14.834 26.838 17.788 56.045 4.19 79.596zM205.75 230.985c10.317 -27.217 17.329 -60.182 50.658 -81.615zm579.789 -20.119c-11.35 -21.513 -30.163 -59.078 -52.771 -75.954z"/></svg>