<svg height="1000" width="1000" xmlns="http://www.w3.org/2000/svg"><path d="M363.108 41.45h208.803c-39.6 235.389 -169.161 233.69 -208.803 0zm411.07 600.556C774.179 501.998 636.267 430.4 551.034 348.138c-91.418 -88.236 31.705 -246.31 31.705 -246.31l.003 -.006h-24.317c-44.567 154.482 -137.043 153.574 -181.712 0h-18.338s112.419 157.95 21.95 248.754C298.176 433.02 165.714 505.088 165.711 642.006c0 8.166 -.145 291.427 -.378 299.428l609.396 4.435c-.335 -9.442 -.551 -294.19 -.551 -303.863zM490.347 405.386c23.9 0 43.276 19.375 43.276 43.275s-19.375 43.276 -43.276 43.276S447.071 472.562 447.071 448.66c-.002 -23.9 19.374 -43.275 43.275 -43.275zm-269.224 237.32c0 -39.81 14.605 -72.194 35.301 -101.347h-.002l.003 -.003c0 .002 -.002 .002 -.002 .003h247.722c10.307 -11.922 25.53 -19.479 42.53 -19.479s32.224 7.557 42.53 19.48h94.268c20.703 28.955 35.304 61.593 35.304 101.35 0 12.944 .467 238.22 1.061 250.634L220.442 885.93c.394 -10.046 .679 -232.844 .679 -243.225z"/></svg>