<svg height="1000" width="1000" xmlns="http://www.w3.org/2000/svg"><path d="M488.743 727.552L394.61 890.594 60.917 697.937l94.131 -163.041 333.695 192.656zM697.326 149.128l-48.725 181.85L276.414 231.25 325.14 49.4l372.186 99.728zm-83.652 296.201l-71.96 173.969L185.657 472.018l71.96 -173.968 356.056 147.28zm87.198 -253.916l-28.21 105.282c106.77 27.908 203.438 41.316 298.075 22.323C897.54 254.6 807.912 220.64 700.873 191.413zm-86.986 297.343l-41.65 100.686c101.368 41.023 194.801 66.468 290.394 59.988C798.9 576.577 715.21 531.38 613.886 488.755zM431.844 866.725c93.955 53.003 182.347 89.727 276.924 95.763C655.714 882.788 579.746 827.355 486.29 772.42l-54.447 94.305z"/></svg>