<svg height="1000" width="1000" xmlns="http://www.w3.org/2000/svg"><path d="M458.41 34.812l-.002 .005h.002zm300.51 210.956c46.723 109.532 22.577 193.745 -35.478 240.696C751.986 112.653 340.252 263.282 458.408 34.816c-339.598 94.245 28.03 283.731 -98.207 351.72C296.253 420.97 192.44 415.832 234.114 242.438 7.26 426.841 99.706 868.354 397.756 951.772 315.934 908.986 260.084 823.315 260.084 724.581c0 -141.516 114.716 -256.23 256.23 -256.23s256.23 114.72 256.23 256.23c0 88.8 -45.178 167.04 -113.795 213.012C1014.936 813.895 966.381 357.465 758.922 245.767zM434.003 705.035c0 27.571 22.353 49.924 49.924 49.924s49.925 -22.353 49.925 -49.924S511.498 655.11 483.926 655.11c-27.57 .002 -49.924 22.354 -49.924 49.925zm82.33 -95.387c-81.765 0 -148.046 66.28 -148.046 148.046s66.282 148.045 148.046 148.045c81.761 0 148.045 -66.28 148.045 -148.045 0 -81.762 -66.28 -148.046 -148.045 -148.046zm-.034 241.382c-51.572 0 -93.381 -41.808 -93.381 -93.382 0 -16.382 4.231 -31.771 11.64 -45.156a50.323 50.323 0 01-.556 -7.457c0 -27.571 22.353 -49.923 49.925 -49.925a49.675 49.675 0 0128.921 9.245c1.147 -.042 2.294 -.087 3.45 -.087 51.575 0 93.382 41.808 93.382 93.382 0 51.572 -41.81 93.38 -93.381 93.38z"/></svg>