<svg height="1000" width="1000" xmlns="http://www.w3.org/2000/svg"><path d="M690.117 480.003l-163.534 99.102L363.065 479.99l-.002 295.243 163.527 92.202 163.532 -92.202 -.005 -295.23zM910.258 268.228c11.666 49.4 -11.941 149.713 -66.01 183.343C853.997 338.914 836.612 176.729 772.7 117.085 836.307 454.04 591.373 413.89 678.41 311.182c57.545 -67.905 -.372 -199.859 -34.165 -219.115 21.242 82.135 -27.761 135.877 -106.69 119.809C484.412 201.06 450.33 124.22 514.422 36.27l.007 -.008C416.18 61.125 357.094 165.561 415.351 253.1c43.83 65.86 87.66 119.275 17.04 154.17 -45.537 22.504 -97.532 -32.082 -89.923 -96.092 9.384 -78.94 -36.5 -155.85 -89.968 -171.958 90.16 207.515 -84.742 345.126 -47.83 150.32 -59.053 31.384 -63.948 115.122 -21.959 239.334C103.991 495.337 75.36 398.646 108.091 293.748 38.156 349.023 4.166 548.998 79.578 651.498c186.438 253.41 404.318 316.346 443.011 316.346 41.23 0 228.796 -65.744 369.696 -224.486 81.474 -91.786 99.298 -329.355 17.972 -475.13zM745.103 781.55L526.585 900.217 308.075 781.55V448.603l437.028 .036V781.55z"/></svg>