<svg height="1000" width="1000" xmlns="http://www.w3.org/2000/svg"><path d="M197.359 710.735C99.564 737.309 36.393 776.669 36.393 820.33c0 79.984 207.713 144.983 463.491 144.983s463.491 -65 463.491 -144.983c0 -43.505 -62.632 -83.026 -159.824 -109.595 33.598 17.313 53.656 37.535 53.656 59.364 0 62.652 -160.499 114.16 -357.32 114.16S143.71 832.746 143.71 770.099c0 -21.944 19.714 -41.993 53.656 -59.364h-.007zM594.207 104.73l.007 .005 -.003 -.008zm135.566 240.397C718.33 505.24 592.315 442.703 643.913 231.257c12.666 -51.908 -23.467 -111.56 -49.7 -126.522 51.57 130.885 -115.515 228.694 -111.167 68.678 -78.414 71.998 -24.984 164.25 9.329 237.657 26.011 55.659 24.077 104.96 -19.733 123.734C441.375 548.198 406.601 512.202 395.38 475.27c-4.992 -16.433 -3.331 -40.757 1.807 -74.103 -41.109 83.457 -105.254 89.516 -75.014 -61.462 -116.228 132.265 -74.233 387.75 87.78 465.782 -25.327 -49.652 -39.23 -111.28 -27.735 -163.814 0 0 0 0 0 -.002 0 0 0 0 0 .002 70.878 153.683 236.118 2.805 245.734 -134.672 26.31 86.997 22.619 213.982 -21.116 305.086 176.328 -68.832 215.888 -334.35 122.935 -466.96z"/></svg>