<svg height="1000" width="1000" xmlns="http://www.w3.org/2000/svg"><path d="M209.616 35.087C289.033 148.596 85.38 85.62 37.95 39.905c2.066 78.16 195.09 194.276 287.408 140.634C382.02 147.614 267.108 44.71 209.616 35.087zM100.443 185.004l.002 .007 .002 -.003zM517.6 362.074c21.384 136.841 168.56 79.985 198.917 238.673C638.514 541.234 412.743 627.587 517.6 362.074zM400.25 146.776l1.695 2.88C636.647 342.7 394.064 491.35 275.224 244.75c30.85 160.873 -152.874 86.218 -174.778 -59.74C-25.65 449.393 336.774 451.007 347.933 631.778c6.299 101.982 -151.72 38.835 -222.022 -95.225C601.556 1554.29 1587.32 512.113 400.249 146.775zm338.927 351.07c-41.824 114.413 198.613 223.693 31.146 332.22C820.947 763.4 774.947 608.606 599.021 617.24c227.19 141.316 82.51 403.477 -38.413 181.683 2.548 68.411 23.374 106.89 52.946 125.621C494.822 901.233 404.88 796.762 404.88 671.229c0 -76.141 33.022 -144.647 85.503 -191.98 -.782 -28.518 7.17 -66.409 27.218 -117.175 5.529 35.381 19.48 57.8 37.635 74.355 32.915 -15.207 69.55 -23.708 108.153 -23.708 86.925 0 166.804 36.472 213.683 102.364l-.002 -.003c85.124 147.442 -124.36 53.44 -137.893 -17.235zM515.804 723.402C595.378 766.45 500.498 616.118 449.74 602.982c83.582 -8.59 216.077 107.77 178.207 161.697C599.744 804.837 522.449 751.87 515.8 723.402h.003z"/></svg>