<svg height="1000" width="1000" xmlns="http://www.w3.org/2000/svg"><path d="M789.732 677.375c0 159.476 -129.264 288.741 -288.743 288.741 -159.477 0 -288.743 -129.264 -288.743 -288.741S341.51 388.633 500.989 388.633 789.732 517.9 789.732 677.375zM305.386 256.168c48.92 33.365 75.382 114.975 64.506 163.873A286.706 286.706 0 01433.02 396.7C395.768 367.269 371.89 290.567 399.56 236.655c25.791 -50.212 -20.396 -103.471 -71.4 -88.044 -59.266 17.927 -54.663 85.82 -22.774 107.557zm242.931 136.347a286.779 286.779 0 0192.773 32.343c-22.953 -68.28 8.65 -185.528 88.829 -233.506C776.808 163.304 787.479 62.516 703.579 37.12 631.383 15.26 566.935 90.197 602.483 161.75c42.522 85.63 6.674 192.848 -54.166 230.764zM224.313 594.583c16.272 -54.46 48.175 -102.163 90.513 -137.91C255.744 390.653 219.634 298.37 213.223 204.763 205.328 89.704 113.256 62.024 60.301 98.577c-52.346 36.13 -66.186 135.482 39.053 198.47 100.241 59.973 145.55 187.756 124.959 297.537zM921.956 237.11c-64.45 -29.783 -160.21 22.776 -161.002 120.79 -.367 45.716 -17.134 88.986 -48.274 123.13 37.848 40.785 64.047 92.52 73.323 149.936 -11.1 -102.075 .15 -158.165 61.319 -174.897C1033.263 405.246 998.416 272.447 921.955 237.11z"/></svg>