<svg height="1000" width="1000" xmlns="http://www.w3.org/2000/svg"><path d="M790.351 763.087c119.487 -88.05 181.866 -275.15 10.3 -356.415 76.201 117.928 -25.58 204.86 -118.436 80.854C607.05 346.869 842.85 266.404 548.98 45.672h-.005C643.426 185.101 513 329.532 424.848 160.693 478.07 442.463 297.662 485.067 279.08 306.46c-149.433 132.172 -113.11 300.442 -30.06 426.33L126.4 803.279c7.625 73.851 42.505 132.051 102.082 176.043L394.97 883.617c7.104 55.89 54.995 99.121 113.058 99.121 42.703 0 79.9 -23.393 99.43 -57.995l210.815 56.243c46.114 -57.846 64.672 -123.046 52.844 -196.35l-80.765 -21.548zM298.794 536.921c50.093 76.884 208.347 19.652 189.372 -116.893 20.854 62.54 73.703 56.45 128.26 -40.013 -74.21 200.29 42.573 330.257 120.73 270.301 3.507 28.604 -10.24 62.251 -31.665 90.13L471.628 678.054C455.36 693.93 442.8 712.633 433.6 732.791l-38.954 -12.343a110.42 110.42 0 01-5.298 -2.027 96.33 96.33 0 01-1.305 -.543 113.38 113.38 0 01-5.06 -2.275c-.156 -.075 -.307 -.156 -.463 -.233a116.272 116.272 0 01-4.489 -2.33 120.153 120.153 0 01-5.562 -3.225c-.644 -.397 -1.281 -.809 -1.92 -1.22a126.549 126.549 0 01-5.219 -3.546 127.763 127.763 0 01-2.447 -1.815 130.481 130.481 0 01-3.7 -2.902c-.55 -.448 -1.102 -.894 -1.645 -1.353a136.99 136.99 0 01-2.63 -2.265c-.298 -.263 -.59 -.536 -.885 -.801a140.8 140.8 0 01-5.223 -4.958c-.19 -.19 -.384 -.38 -.572 -.57a149.61 149.61 0 01-8.594 -9.474C308.999 644.115 292.8 589.92 298.795 536.923zm40.25 -443.074C213.996 156.894 310.52 211.793 311.711 273.863 397.75 197.946 304.428 169.578 339.043 93.847z"/></svg>