<svg height="1000" width="1000" xmlns="http://www.w3.org/2000/svg"><path d="M68.561 283.717C148.16 152.633 341.741 59.775 556.304 59.775c142.695 0 270.586 33.463 386.939 117.177l.903 188.74C786.356 245.363 589.522 188.887 400.34 260.96c34.79 37.874 56.073 88.437 56.073 143.972 0 117.57 -95.294 212.873 -212.853 212.873S30.707 522.5 30.707 404.93c-.01 -45.005 13.977 -86.817 37.853 -121.214zm174.42 162.574c24.172 0 43.767 -19.605 43.767 -43.786S267.153 358.72 242.982 358.72s-43.786 19.606 -43.786 43.786 19.623 43.786 43.786 43.786zm508.722 93.192c-24.18 0 -43.776 19.606 -43.776 43.786s19.596 43.777 43.776 43.777S795.48 607.45 795.48 583.269s-19.603 -43.786 -43.776 -43.786zm174.419 162.574C846.523 833.142 652.942 926 438.39 926 295.686 926 167.804 892.537 51.452 808.823l-.903 -188.73c157.78 120.319 354.624 176.795 543.796 104.742 -34.8 -37.884 -56.073 -88.448 -56.073 -143.983C538.272 463.293 633.566 368 751.125 368s212.863 95.293 212.863 212.852c.01 44.997 -13.976 86.8 -37.864 121.205z"/></svg>