<svg height="1000" width="1000" xmlns="http://www.w3.org/2000/svg"><path d="M336.584 266.184c-35.735 6.716 -88.431 67.843 -65.196 91.078L414.28 500.105 271.388 642.947c-28.578 28.578 57.157 114.264 85.735 85.686L500.015 585.791l142.893 142.842c28.578 28.578 114.313 -57.157 85.735 -85.686L585.75 500.105 728.643 357.262C757.22 328.684 671.486 242.998 642.908 271.576L500.015 414.418 357.123 271.576c-5.392 -5.343 -12.304 -6.961 -20.539 -5.393zM499.991 31.244c-258.897 0 -468.749 209.878 -468.749 468.75 0 258.896 209.852 468.748 468.749 468.748S968.74 758.865 968.74 499.993 758.888 31.245 499.99 31.245zm0 117.205c194.166 0 351.567 157.402 351.567 351.568S694.156 851.584 499.991 851.584 148.423 694.182 148.423 500.017C148.448 305.85 305.825 148.449 499.991 148.449z"/></svg>