<svg height="1000" width="1000" xmlns="http://www.w3.org/2000/svg"><path d="M455.318 540.201C425.152 509.766 404.56 454.885 404.56 391.637c0 -95.998 61.01 -173.913 103.826 -173.913 41.21 0 103.827 77.912 103.827 173.913 0 59.26 -18.328 110.825 -45.377 142.228 70.389 -35.133 120.745 -69.654 120.745 -178.661C687.58 216.062 557.36 45.924 504.54 45.924c-54.429 0 -183.042 170.138 -183.042 309.279 0 115.73 56.59 155.438 133.82 185zm211.99 64.114v-48.021c-52.672 19.557 -106.17 29.016 -159.275 29.092 4.669 -57.243 2.879 -116.538 -8.44 -193.83l-4.042 193.695C444.958 583.92 394.81 574.076 346.167 556.295v186.33c-6.496 49.891 -43.72 59.399 -43.056 104.082 .566 38.11 29.216 50.69 43.056 34.372v70.698h321.14V779.593c16.806 21.219 52.97 5.883 53.675 -41.634 .84 -56.638 -47.76 -67.366 -53.674 -133.643z"/></svg>