<svg height="1000" width="1000" xmlns="http://www.w3.org/2000/svg"><path d="M355.868 40.115c47.24 362.59 -183.824 548.295 -135.89 727.183 7.151 26.692 19.903 51.066 36.835 72.852 -5.008 -13.923 -7.881 -28.594 -8.207 -43.866 -2.054 -96.188 98.458 -179.798 170.309 -314.41 22.48 60.957 46.409 134.035 32.672 226.757C574.307 673.001 667.569 578.9 687.925 479.181c94.36 168.884 80.861 367.851 -97.844 470.644a183.939 183.939 0 01-12.699 6.645c48.648 -7.003 93.832 -24.876 129.12 -55.097h.001C996.003 653.444 756.94 201.973 355.868 40.115z"/></svg>