<svg height="1000" width="1000" xmlns="http://www.w3.org/2000/svg"><path d="M980.728 593.434C738.826 583.552 705.799 506.606 938.074 393.27c-99.765 10.579 -182.781 26.424 -251.64 52.168 33.59 -59.26 43.537 -108.879 21.272 -131.143 -6.873 -6.873 -16.362 -10.662 -27.925 -11.648L473.231 22.208H329.291L594.745 324.47l-2.082 2.434C545.046 351.123 489.66 392.18 436.629 445.21a820.27 820.27 0 00-19.017 19.666L35.774 125.072v389.993l258.688 176.9c1.42 9.938 5.102 18.172 11.246 24.316 23.047 23.046 75.403 11.582 137.426 -24.898 -26.87 71.82 -44.543 160.599 -55.385 270.637C460.905 710.296 545.377 748.641 611.102 949.76 574.795 736.12 804.886 829.604 971.855 960.287c-129.509 -198.47 -243.01 -346.15 8.871 -366.853zm-590.182 43.834c-.107 -.106 -.19 -.233 -.295 -.342 -10.822 -11.331 -7.43 -34.754 6.851 -63.529a220.22 220.22 0 012.798 -5.44c.057 -.107 .121 -.219 .18 -.328a238.95 238.95 0 012.87 -5.232c.104 -.185 .218 -.375 .323 -.561a271.914 271.914 0 012.971 -5.11c.153 -.255 .318 -.515 .472 -.77a303.25 303.25 0 013.061 -4.993c.219 -.349 .455 -.703 .677 -1.052a309.85 309.85 0 013.095 -4.8c.287 -.435 .593 -.878 .885 -1.313a366.453 366.453 0 013.118 -4.616c.365 -.529 .752 -1.064 1.122 -1.594 1.021 -1.463 2.044 -2.928 3.106 -4.403 .452 -.628 .93 -1.261 1.389 -1.891 1.013 -1.389 2.021 -2.774 3.068 -4.17 .516 -.687 1.056 -1.38 1.58 -2.066 1.022 -1.346 2.038 -2.69 3.092 -4.041 .602 -.772 1.233 -1.548 1.845 -2.324 1.008 -1.274 2.007 -2.546 3.04 -3.824 .697 -.86 1.424 -1.724 2.133 -2.586 .983 -1.195 1.954 -2.39 2.96 -3.589 .815 -.968 1.662 -1.94 2.49 -2.912 .934 -1.092 1.853 -2.185 2.805 -3.28 .966 -1.11 1.964 -2.219 2.95 -3.328 .85 -.958 1.683 -1.915 2.547 -2.873 1.084 -1.202 2.204 -2.404 3.31 -3.608 .797 -.867 1.576 -1.733 2.384 -2.6 1.352 -1.447 2.74 -2.893 4.12 -4.338 .59 -.616 1.162 -1.233 1.758 -1.849a520.577 520.577 0 016.066 -6.172 512.982 512.982 0 016.17 -6.066c.662 -.64 1.324 -1.255 1.987 -1.888 1.402 -1.338 2.803 -2.685 4.207 -3.995 .828 -.771 1.655 -1.515 2.482 -2.277 1.24 -1.142 2.48 -2.294 3.72 -3.413 .982 -.886 1.963 -1.74 2.948 -2.611 1.085 -.963 2.17 -1.94 3.256 -2.884 1.117 -.974 2.235 -1.913 3.352 -2.868 .946 -.808 1.894 -1.633 2.839 -2.428 1.231 -1.034 2.458 -2.032 3.687 -3.042 .829 -.682 1.659 -1.38 2.486 -2.05 1.311 -1.062 2.618 -2.089 3.925 -3.122 .739 -.586 1.482 -1.187 2.22 -1.764 1.387 -1.082 2.767 -2.126 4.149 -3.174 .652 -.496 1.308 -1.008 1.958 -1.496 1.463 -1.098 2.918 -2.157 4.374 -3.217 .56 -.408 1.124 -.834 1.683 -1.237a356.534 356.534 0 014.508 -3.18c.497 -.347 1 -.71 1.496 -1.053a349.934 349.934 0 014.7 -3.175c.409 -.272 .823 -.56 1.229 -.829a302.221 302.221 0 014.905 -3.16c.315 -.2 .633 -.412 .947 -.61a290.691 290.691 0 015.058 -3.102c.235 -.14 .473 -.292 .706 -.432a281.347 281.347 0 015.219 -3.035c.148 -.085 .299 -.175 .447 -.26a246.412 246.412 0 015.305 -2.908c.085 -.046 .173 -.094 .258 -.14a223.64 223.64 0 015.408 -2.78c.012 -.004 .022 -.012 .036 -.017 28.754 -14.273 52.16 -17.667 63.5 -6.874 .118 .112 .256 .202 .37 .318 13.33 13.331 6.08 44.219 -15.954 80.961C555.876 513.252 511.45 557.77 477.21 617.808c-39.227 24.745 -72.645 33.475 -86.661 19.458z"/></svg>