<svg height="1000" width="1000" xmlns="http://www.w3.org/2000/svg"><path d="M434.313 244.829c-31.546 -5.226 -44.06 154.404 -48.66 230.647l-132.04 .194c-5.639 -202.06 -8.301 -221.957 -38.93 -275.754 -14.003 -24.604 -55.27 -28.251 -55.27 -28.251 0 -26.207 -.265 -133.44 -.265 -133.44 72.708 0 123.122 52.494 154.873 110.256l4.732 -10.636c15.43 -33.046 52.309 -97.48 124.956 -97.48 229.113 0 83.353 630.06 283.668 578.123 12.937 -3.357 33.318 -45.329 -7.684 -45.329 -74.082 9.852 -101.69 410.72 -341.89 378.275 -23 -3.102 -36.887 -9.421 -36.887 -9.421L357.5 799.363c44.13 5.5 105.463 -29.484 113.385 -51.911 33.442 -94.774 87.46 -327.703 261.03 -327.703 66.328 0 141.866 64.188 141.866 176.92 0 184.119 -330.68 300.464 -405.901 -96.299C451.82 415.801 459.462 238.53 434.312 244.83z"/></svg>