<svg height="1000" width="1000" xmlns="http://www.w3.org/2000/svg"><path d="M718.791 427.929c-45.506 51.871 -22.4 42.716 -106.14 84.344l105.81 -84.784c-25.3 -33.674 -52.275 -64.374 -80.668 -90.248C586.955 414.689 552.487 426.206 484.6 455.428L637.122 336.632c-47.744 -43.347 -99.484 -73.02 -154.024 -80.128 -15.632 -2.037 -32.128 -.085 -48.492 4.964C372.957 168.79 401.981 135.597 445.71 50.12 384.256 71.628 374.206 82.918 344.593 181.487 308.656 116.03 195.54 68.52 101.71 56.087c85.342 58.775 150.834 114.04 149.559 185.457C181.326 228.593 124.159 239.947 46.37 281.927c124.675 -11.851 254.717 -5.917 292.7 48.542 -19.192 25.234 -31.293 54.002 -30.959 81.581 3.354 276.267 604.948 606.524 632.656 535.452C954.191 913.057 864.134 621.634 718.791 427.929z"/></svg>