<svg height="1000" width="1000" xmlns="http://www.w3.org/2000/svg"><path d="M495.749 48.115c-248.588 0 -450.111 201.52 -450.111 450.11 0 134.636 59.13 255.445 152.817 337.93V564.593l-27.33 -44.416h14.803l86.548 -223.204 85.41 223.204h15.944l-28.468 44.416v35.304h72.883V359.61l-27.331 -44.416h14.803L492.263 91.991l86.547 223.197h14.803l-28.468 44.416v171.96h71.745v-66.05l-28.468 -44.416h15.944l85.412 -223.204 86.548 223.204h14.803l-27.331 44.416v378.57c99.029 -82.566 162.06 -206.844 162.06 -345.86C945.863 249.634 744.343 48.114 495.754 48.114z"/></svg>