<svg height="1000" width="1000" xmlns="http://www.w3.org/2000/svg"><path d="M903.949 36.567l-68.2 112.74c-58.638 -19 -145.902 -15.29 -200.815 0L569.26 38.14c-107.875 201.502 -77.338 328.834 4.979 392.165 -12.581 7.874 -25.571 16.533 -38.976 26.017C192.167 182.6 -116.697 490.893 85.928 766.334h1.555c36.36 52.723 78.226 85.333 123.452 102.399 64.056 24.17 129.972 17.207 194.874 8.021S534.224 856.03 594.75 860.34c60.528 4.31 121.073 19.849 176.477 80.267 37.779 41.193 91.429 -3.17 46.449 -47.1C749.383 826.808 676.257 801.044 604.4 795.933s-140.783 9.16 -203.195 17.993c-62.413 8.834 -117.532 12.775 -164.887 -5.09 -22.21 -8.379 -43.839 -21.567 -64.696 -42.5h703.422c33.254 -117.37 36.783 -241.558 -1.022 -319.897C987.622 387.156 1033.31 247.182 903.95 36.566zM693.006 339.744c-72.362 34.92 -105.226 6.628 -119.287 -51.757 71.024 -44.07 113.321 -8.674 119.287 51.757zm90.346 0c5.965 -60.433 48.262 -95.83 119.286 -51.757 -14.058 58.385 -46.922 86.677 -119.286 51.757z"/></svg>