<svg height="1000" width="1000" xmlns="http://www.w3.org/2000/svg"><path d="M980.84 627.568c-45.052 -35.515 -99.748 -53.737 -154.025 -55.01v.018c-9.138 -.4 -17.798 .436 -26.893 1.2 -33.171 2.859 -66.274 12.219 -96.745 28.221l-25.938 -23.496c23.104 -63.923 9.082 -138.336 -42.095 -189.492L520.012 306.75c-34.369 -34.35 -80.824 -50.205 -125.595 -46.344 -20.938 1.798 -41.613 8.018 -60.597 18.48l-8.766 -7.952c15.759 -40.185 7.447 -87.696 -24.979 -120.118L228.82 99.878C207.55 78.614 178.797 68.801 151.09 71.187a94.045 94.045 0 00-18.888 3.625L76.076 22.325h-57.52v54.44l50.92 57.374c-12.622 34.61 -5.175 75.163 22.389 102.745l49.969 71.264c24.546 24.555 57.784 36.077 89.763 33.318 10.514 -.846 20.958 -3.37 30.96 -7.423l8.094 9.535c-30.84 59.367 -21.487 134.895 28.075 184.47l80.74 115.108c39.662 39.662 93.367 58.266 145.034 53.817 17.797 -1.47 35.477 -5.861 52.338 -12.964l20.873 24.565c-45.221 87.856 -36.27 197.533 26.181 277.155h223.642l-64.503 -78.497c-10.061 -10.69 -16.966 -22.948 -20.759 -35.79 26.582 4.864 54.573 -2.78 75.64 -23.808 23.716 -23.67 31.286 -56.097 22.81 -85.453 15.602 3.302 30.72 11.21 43.786 23.548l76.326 69.893 .146 130.107h.002l-.144 -358.159zM143.054 196.934c-7.06 -7.501 -10.106 -17.025 -9.207 -26.29 7.392 -1.857 14.418 -5.708 20.346 -11.647 5.561 -5.567 9.392 -12.088 11.5 -18.969 8.634 -.285 17.386 3.007 24.524 9.743l57.087 52.128a40.552 40.552 0 017.095 10.384c-13.067 -3.933 -27.273 -.781 -38.073 10.027 -12.067 12.076 -15.124 28.94 -9.163 43.444 -5.501 -1.854 -10.73 -4.944 -15.29 -9.246l-48.818 -59.574zm233.917 264.103c-5.19 -5.513 -9.06 -11.695 -11.625 -18.205 18.005 5.857 38.07 1.888 52.654 -12.691 16.905 -16.898 20.264 -41.153 10.16 -61.061 9.35 2.292 18.37 7.174 26.2 14.566l93.685 85.543c4.952 5.265 8.859 11.075 11.752 17.19 -19.282 -3.212 -39.316 2.696 -55.004 18.38 -19.8 19.793 -24.947 47.39 -15.356 71.214 -11.662 -2.468 -22.888 -8.227 -32.357 -17.166l-80.11 -97.769z"/></svg>