<svg height="1000" width="1000" xmlns="http://www.w3.org/2000/svg"><path d="M349.614 371.46c6.777 9.503 10.64 21.121 10.64 34.225 0 41.443 -38.571 81.972 -86.146 90.517S187.96 478.08 187.96 436.632c0 -8.169 1.519 -16.298 4.29 -24.157L20.612 457.21V683.3c7.584 -3.617 15.116 -7.743 23.385 -9.641 48.236 -11.09 87.382 14.71 87.382 56.788s-39.147 85.35 -87.382 96.435c-8.173 1.87 -15.884 2.246 -23.385 2.144v65.36L442.997 784.272c-11.092 -14.726 -17.563 -32.328 -17.563 -51.253 0 -51.701 48.141 -93.615 107.523 -93.615 58.23 0 105.62 40.313 107.435 90.628 1.8 .487 3.592 .964 5.411 1.484l328.596 -84.651V208.62L349.616 371.46zm424.362 234.563c-31.774 0 -57.53 -22.437 -57.53 -50.116s25.756 -50.116 57.53 -50.116 57.532 22.438 57.532 50.116 -25.76 50.116 -57.532 50.116zM448.318 88.493l-31.936 26.953c38.858 19.993 45.628 60.53 15.042 90.744 -30.696 30.322 -87.387 38.759 -126.616 18.844a79.665 79.665 0 01-10.626 -6.462L32.677 439.257l896.017 -235.16C828.46 116.836 633.378 74.838 448.318 88.495zM928.694 204.1z"/></svg>