<svg height="1000" width="1000" xmlns="http://www.w3.org/2000/svg"><path d="M398.685 851.954c-8.793 -17.953 -39.949 -22.725 -46.35 1.175 -5.607 20.85 15.343 34.773 31.568 31.481 1.61 53.984 88.713 58.518 88.713 3.382 0 -41.216 -48.679 -54.453 -73.931 -36.037zM883.36 429.205c0 -42.384 -67.577 -45.931 -67.577 -3.737 0 42.202 67.577 46.122 67.577 3.737zm-642.543 161.51c-7.849 -27.299 -57.064 -32.247 -66.39 2.555 -8.218 30.662 26.898 46.044 49.64 34.716 1.63 45.06 78.497 56.362 92.141 5.43 12.134 -45.284 -45.408 -66.451 -75.391 -42.7zM62.362 336.673c0 42.202 67.577 46.122 67.577 3.738S62.362 294.475 62.362 336.672zM353.438 436.9c0 28.766 31.393 39.737 51.384 30.39l-47.005 -46.755c-2.75 4.37 -4.38 9.815 -4.38 16.365zm271.06 -267.435c0 -42.385 -67.578 -45.932 -67.578 -3.737 0 42.202 67.577 46.122 67.577 3.737zm44.928 186.86c.56 -.324 1.085 -.664 1.628 -.995 6.988 19.959 40.616 26.294 47.374 1.338 4.608 -17.015 -8.519 -29.423 -22.326 -31.631 15.601 -47.915 -41.626 -111.805 -98.669 -78.868 -71.367 41.205 .922 151.189 71.993 110.156zM585.953 888.65c-27.113 15.622 -4.487 60.428 22.685 44.84s4.448 -60.503 -22.685 -44.84zM233.54 364.251c0 64.511 81.158 83.022 115.969 48.018L255.12 318.38c-12.893 9.577 -21.58 24.779 -21.58 45.87zM148.693 212.517l-74.57 -74.174C58.439 145.116 46.758 159.4 46.758 181.596c0 48.86 56.603 65.632 87.912 45.494 -.041 .703 -.098 1.394 -.098 2.126 0 31.962 38.757 41.958 57.567 26.517l-43.445 -43.216zM164.264 68.552c0 -33.674 -42.65 -42.83 -60.182 -24.015l48.4 48.147c7.009 -4.874 11.782 -12.868 11.782 -24.132zm82.519 117.94l71.014 70.64s0 0 -.002 .002l76.007 75.606c12.49 -7.497 21.243 -20.679 21.243 -39.858 0 -30.83 -22.597 -48.674 -47.022 -52.477 4.424 -8.008 7.002 -17.73 7.002 -29.22 0 -58.9 -67.605 -78.961 -105.5 -55.195 -8.706 -30.892 -51.939 -37.717 -70.932 -17.437l48.19 47.936zm651.425 618.78c34.197 -3.283 64.729 -25.856 64.729 -69.366 -.002 -38.946 -24.458 -63.825 -54.111 -73.679a91.316 91.316 0 00.374 -8.194c0 -12.379 -2.36 -23.401 -6.509 -33.042 13.148 -5.433 23.013 -17.22 23.013 -35.768 0 -13.319 -5.09 -23.706 -12.825 -31.059a26.228 26.228 0 003.91 -1.81c27.171 -15.587 4.449 -60.503 -22.685 -44.84 -13.487 7.771 -14.66 22.761 -9.095 33.949 -11.486 -1.416 -23.3 .893 -32.342 7.088 -4.341 -35.49 -34.647 -54.754 -65.018 -56.468 1.849 -5.856 2.876 -12.384 2.876 -19.616 0 -80.394 -124.968 -88.968 -131.26 -13.268 -23.112 -6.763 -48.5 -5.893 -69.768 2.935 1.822 -6.666 2.841 -13.974 2.841 -21.985 0 -83.11 -106.202 -105.185 -148.403 -57.533l118.142 117.522s0 0 .002 0l76.068 75.669 14.2 14.126s.034 -.032 .09 -.085c.017 -.017 .036 -.035 .06 -.057 .056 -.052 .122 -.116 .21 -.2 .044 -.042 .087 -.082 .139 -.132 .1 -.097 .216 -.207 .344 -.333a309.604 309.604 0 00.788 -.769c.016 -.016 .03 -.027 .046 -.044a215.264 215.264 0 003.164 -3.183c.03 -.03 .055 -.057 .085 -.087a320.18 320.18 0 0010.564 -11.411c-.002 0 -.003 -.002 -.005 -.002 10.703 -12.117 25.365 -30.39 38.762 -52.732 .32 -.534 .638 -1.073 .956 -1.61A303.13 303.13 0 00710.04 515c.299 -.525 .6 -1.042 .898 -1.572a298.757 298.757 0 003.005 -5.473c.367 -.683 .724 -1.379 1.087 -2.068 .395 -.752 .796 -1.496 1.186 -2.256 -.003 -.007 -.008 -.013 -.012 -.021 5.122 -9.963 9.825 -20.503 13.713 -31.533a881.951 881.951 0 0119.75 28.457 907.68 907.68 0 017.854 11.998c.26 .407 .523 .81 .784 1.22a907.47 907.47 0 0139.525 67.892c.297 .567 .599 1.13 .895 1.697a855.894 855.894 0 016.582 12.879c.455 .908 .908 1.819 1.362 2.73 2.15 4.33 4.275 8.682 6.36 13.065 11.398 23.99 21.741 48.736 30.546 73.852 .042 .119 .082 .24 .124 .36a667.848 667.848 0 012.988 8.738c.202 .604 .399 1.207 .597 1.811 .81 2.445 1.606 4.894 2.387 7.344 .248 .781 .49 1.562 .737 2.345a603.811 603.811 0 014.842 16.206c7.51 26.482 13.094 53.156 16.207 79.582 2.448 20.783 3.39 41.416 2.513 61.676 -26.474 -1.563 -54.06 -5.31 -82.077 -10.805 -.002 .007 -.003 .012 -.005 .018 -29.889 -5.863 -60.27 -13.759 -90.346 -23.2a936.22 936.22 0 01-10.574 -3.389c-1.567 -.513 -3.134 -1.024 -4.698 -1.545a998.186 998.186 0 01-68.943 -25.8 1001.692 1001.692 0 01-9.557 -4.047c-1.558 -.668 -3.117 -1.333 -4.667 -2.01a966.046 966.046 0 01-9.338 -4.123c-1.615 -.723 -3.23 -1.446 -4.837 -2.175 -26.5 -12.02 -51.783 -24.896 -75.155 -38.255 -14.724 -8.413 -28.708 -17.007 -41.737 -25.695 13.861 -6.503 26.153 -12.623 37.101 -18.354 .002 .002 .003 .003 .003 .005 .385 -.202 .75 -.396 1.131 -.598a745.741 745.741 0 005.774 -3.064 678.04 678.04 0 003.47 -1.873c.668 -.364 1.33 -.724 1.988 -1.083 .551 -.302 1.126 -.61 1.669 -.91 -.002 -.003 -.002 -.005 -.003 -.008 52.235 -28.781 66.734 -45.628 66.734 -45.628l-66.034 -65.683 -14.954 -14.874s0 -.002 0 -.002l-91.533 -91.049c-18.114 8.55 -31.397 25.641 -31.397 51.733 -.002 38.615 29.08 60.74 59.893 64.784a70.608 70.608 0 00-.612 9.318c0 16.245 5.149 29.57 13.405 39.86 -20.346 -3.87 -41.783 -1.385 -59.23 7.72 5.833 -29.034 -40.196 -43.503 -48.141 -13.853 -4.985 18.537 11.026 31.581 26.042 31.938 -9.082 11.513 -14.647 26.679 -14.647 45.616 0 70.065 76.111 96.969 125.065 74.651a73.669 73.669 0 00-.153 4.625c0 68.805 92.333 85.28 122.267 40.299 13.29 9.925 30.275 14.858 46.762 14.552 -3.825 8.898 -6 19.221 -6 31.021 0 89.552 124.342 108.615 157.396 44.491 38.732 45.205 124.292 50.661 143.561 -21.263 12.91 -48.2 -16.262 -85.206 -53.388 -100z"/></svg>