<svg height="1000" width="1000" xmlns="http://www.w3.org/2000/svg"><path d="M607.096 283.347H715.01V391.26H607.096V283.347zm0 215.827H715.01v107.913H607.096V499.174zM499.183 607.088h107.913V715H499.183V607.088zm-323.74 -323.74h107.913V391.26H175.443V283.347zM283.357 175.434H391.27v107.912H283.357V175.435zm215.826 0h107.913v107.912H499.183V175.435zM283.357 391.26H391.27v107.913H283.357V391.261zM391.27 499.174h107.912v107.913H391.27V499.174zM499.183 391.261h107.913v107.913H499.183V391.261zM391.27 283.347h107.912V391.26H391.27V283.347zm-107.913 323.74H391.27v107.914H283.357V607.088zM175.443 499.175h107.913v107.913H175.443V499.174zm431.653 215.827H715.01v107.912H607.096V715.001zM715.01 391.26h107.913v107.913H715.01V391.261zm-323.74 323.74h107.912v107.912H391.27V715.001zM715.01 607.088h107.913V715H715.01V607.088zm0 -431.653h107.913v107.912H715.01V175.435zM28.956 28.947V969.4h940.455V28.947H28.956zm901.88 254.4H822.924V391.26h107.912v107.913H822.924v107.913h107.912v107.913H822.924V822.91h107.912v107.913H822.924V822.911H715.01v107.913H607.098V822.911H499.185v107.913H391.272V822.911H283.36v107.913H175.447V822.911H67.534V715h107.913V607.086H67.534V499.173h107.913V391.26H67.534V283.347h107.913V175.435H67.534V67.522h107.913v107.913H283.36V67.522h107.912v107.913h107.913V67.522h107.913v107.913h107.913V67.522h107.913v107.913h107.912v107.912zM175.443 715.001h107.913v107.912H175.443V715.001z"/></svg>