<svg height="1000" width="1000" xmlns="http://www.w3.org/2000/svg"><path d="M606.935 100.094c15.814 2.73 31.34 9.419 45.931 20.902 66.66 52.465 25.932 106.06 -25.673 93.81 69.374 76.744 1.91 135.792 -72.082 96.761 19.59 51.265 -43.693 80.988 -97.754 29.626l.003 -.008a97.874 97.874 0 01-7.829 -8.369c-41.517 87.367 -50.74 148.435 -52.38 198.37 -.749 22.797 1.878 36.943 6.542 45.953 -84.291 81.05 -213.432 177.213 -264.532 196.254C89.064 792.05 71.089 775.235 43.298 809.07c-26.434 31.458 24.011 103.492 80.497 63.917 -51.501 80.621 51.342 144.382 82.659 31.349C232.419 807.419 368.54 694.304 465.232 613.042c.612 1.14 1.2 2.35 1.752 3.651 74.436 4.26 193.45 9.92 354.058 -73.096C1159.068 368.884 897.435 -178.842 606.933 100.094zM123.8 872.984zm773.387 -697.05c50.027 100.934 13.672 184.36 -124.458 246.113C841.678 347.821 899.087 267.91 897.187 175.934zM547.935 563.756C674.862 519.547 808.794 449.084 919.572 368.958 844.822 470.97 722.045 568.267 547.935 563.756z"/></svg>