<svg height="1000" width="1000" xmlns="http://www.w3.org/2000/svg"><path d="M499.555 38.038c-254.125 0 -460.77 205.453 -460.77 459.581s206.646 460.777 460.77 460.777S959.13 751.748 959.13 497.62 753.68 38.04 499.555 38.04zm0 806.66C308.03 844.698 152.48 689.15 152.48 497.621s155.547 -347.08 347.076 -347.08c191.527 0 347.073 155.55 347.073 347.078S691.08 844.7 499.555 844.7zm.04 -597.19c-138.445 0 -251.343 111.627 -251.343 250.076s112.903 251.352 251.343 251.352S749.665 636.033 749.668 497.584C749.671 359.136 638.04 247.508 499.595 247.508zm37.773 436.354l-36.94 -138.67 -37.021 138.977C388.27 669.399 329.087 609.575 314.332 534.299l138.35 -36.854 -138.29 -36.838C329.275 385.558 388.576 326.575 463.79 312.154l36.64 137.546 36.56 -137.244c74.601 14.967 133.252 73.85 147.893 148.57l-136.71 36.418 136.77 36.434c-14.515 74.946 -73.05 134.664 -147.575 149.985z"/></svg>