<svg height="1000" width="1000" xmlns="http://www.w3.org/2000/svg"><path d="M499.996 31.243V171.87H171.879l93.755 93.755L31.263 499.996H171.89v328.127l93.755 -93.754L500.016 968.74V828.113h328.127L734.39 734.358 968.76 499.986H828.133V171.86l-93.755 93.755L499.996 31.243zm0 234.371c129.44 0 234.371 104.931 234.371 234.371S629.436 734.357 499.996 734.357 265.624 629.426 265.624 499.985c0 -129.44 104.932 -234.371 234.372 -234.371zm93.754 234.372c0 51.775 -41.97 93.745 -93.754 93.745S406.24 551.761 406.24 499.986s41.97 -93.744 93.755 -93.744 93.754 41.97 93.754 93.744z"/></svg>