<svg height="1000" width="1000" xmlns="http://www.w3.org/2000/svg"><path d="M499.996 31.243c-77.667 0 -140.628 62.96 -140.628 140.627s62.961 140.628 140.628 140.628S640.623 249.537 640.623 171.87 577.663 31.243 499.996 31.243zm0 93.744c25.892 0 46.872 20.99 46.872 46.872s-20.99 46.872 -46.872 46.872c-25.893 0 -46.872 -20.99 -46.872 -46.872s20.99 -46.872 46.872 -46.872zm93.754 375c0 51.774 -41.97 93.744 -93.754 93.744 -51.774 0 -93.755 -41.97 -93.755 -93.745s41.97 -93.744 93.755 -93.744c51.784 0 93.754 41.97 93.754 93.744zm-93.754 187.499c-77.667 0 -140.628 62.96 -140.628 140.628S422.33 968.74 499.996 968.74s140.627 -62.96 140.627 -140.627S577.663 687.486 499.996 687.486zm0 93.755c25.892 0 46.872 20.99 46.872 46.872s-20.99 46.872 -46.872 46.872c-25.893 0 -46.872 -20.99 -46.872 -46.872s20.99 -46.872 46.872 -46.872zM905.945 265.614C867.112 198.359 781.112 175.311 713.848 214.144s-90.304 124.832 -51.47 192.097 124.832 90.303 192.096 51.47 90.304 -124.832 51.47 -192.097zm-81.185 46.873c12.941 22.422 5.264 51.088 -17.158 64.03s-51.087 5.264 -64.029 -17.158 -5.264 -51.088 17.157 -64.03 51.078 -5.254 64.03 17.158zM337.623 593.741C298.79 526.486 212.79 503.438 145.526 542.271S55.223 667.103 94.056 734.368s124.832 90.303 192.097 51.47 90.303 -124.832 51.47 -192.097zm-81.196 46.872c12.941 22.422 5.265 51.088 -17.157 64.03s-51.088 5.264 -64.03 -17.158 -5.264 -51.088 17.158 -64.03 51.088 -5.264 64.03 17.158zM94.046 265.614c-38.833 67.265 -15.784 153.264 51.47 192.097 67.265 38.833 153.264 15.784 192.097 -51.47s15.785 -153.265 -51.47 -192.098C218.888 175.311 132.879 198.36 94.046 265.614zm81.196 46.873c12.941 -22.422 41.607 -30.098 64.029 -17.157s30.097 41.607 17.157 64.029 -41.607 30.097 -64.03 17.157c-22.42 -12.941 -30.097 -41.607 -17.156 -64.029zm487.135 281.254c-38.833 67.265 -15.784 153.264 51.47 192.097 67.265 38.833 153.265 15.784 192.098 -51.47S921.729 581.103 854.475 542.27C787.21 503.438 701.21 526.486 662.376 593.74zm81.187 46.872c12.94 -22.422 41.607 -30.098 64.029 -17.157s30.097 41.607 17.157 64.029 -41.607 30.098 -64.03 17.157C738.31 691.701 730.624 663.035 743.565 640.613z"/></svg>