<svg height="1000" width="1000" xmlns="http://www.w3.org/2000/svg"><path d="M667.923 398.57c26.185 -8.983 55.948 -13.922 89.8 -13.922C725.516 255.278 626.558 81.495 495.548 17.728 367.212 78.027 260.526 253.637 233.373 384.649c33.69 0 63.482 4.623 89.8 13.365 -64.2 99.28 -108.905 262.834 -108.905 490.858 92.382 54.78 181.27 84.083 271.096 86.114C382.994 966.498 301.617 830.648 301.617 664.298c0 -97.708 28.085 -184.874 72.002 -241.905 13.513 8.944 25.788 19.355 36.902 31.146l29.834 -32.591C430.241 409.3 418.77 398.594 405.775 388.475a.124 .124 0 01.011 -.01c-.16 -.124 -.326 -.246 -.487 -.37 -.395 -.306 -.806 -.608 -1.204 -.913a295.94 295.94 0 00-5.083 -3.82c-.696 -.51 -1.405 -1.016 -2.108 -1.523a317.094 317.094 0 00-6.851 -4.811 348.175 348.175 0 00-4.574 -3.07c-.784 -.52 -1.563 -1.038 -2.356 -1.553a396.5 396.5 0 00-5.36 -3.414c-.583 -.367 -1.155 -.736 -1.744 -1.102a431.501 431.501 0 00-7.36 -4.46c-.512 -.304 -1.042 -.601 -1.555 -.905a456.121 456.121 0 00-6.032 -3.484c-.93 -.528 -1.879 -1.052 -2.82 -1.58 -1.07 -.598 -2.122 -1.199 -3.207 -1.795 -.005 .004 -.008 .01 -.013 .016 -9.605 -5.28 -19.752 -10.497 -30.547 -15.706 24.723 -61.506 62.421 -154.61 110.364 -160.03 18.76 -2.12 38.847 9.204 60.701 41.081 68.405 -113.748 133.365 36.47 171.064 118.95 -10.539 5.714 -20.483 11.31 -29.928 16.888 -.003 -.003 -.005 -.007 -.008 -.01 -.903 .533 -1.781 1.066 -2.676 1.6 -1.151 .687 -2.31 1.375 -3.445 2.061a622.026 622.026 0 00-5.129 3.144c-.856 .53 -1.725 1.06 -2.574 1.59 -2.236 1.4 -4.439 2.8 -6.61 4.205 -.862 .556 -1.704 1.117 -2.555 1.675 -1.504 .986 -3 1.973 -4.473 2.963 -.903 .607 -1.796 1.217 -2.688 1.825a409.222 409.222 0 00-4.224 2.923 334.633 334.633 0 00-6.998 5.028c-.664 .488 -1.338 .974 -1.995 1.465a338.7 338.7 0 00-6.173 4.708s.002 .002 .002 .002c-13.348 10.449 -25.2 21.421 -35.724 33.457l28.458 32.013c11.388 -12.127 24.053 -23 38.128 -32.379 43.596 57.046 71.45 143.878 71.45 241.172 0 166.253 -81.285 302.044 -183.571 310.67C593.616 972.9 682.566 944.78 776.834 888.88 776.836 661.433 732.128 497.978 667.927 398.575zm-277.19 236.227c22.581 -7.278 45.509 -11.726 68.565 -13.795 .117 98.122 2.489 187.383 38.065 281.304C534.621 811.23 531.821 719.4 531.635 621.888c23.066 2.482 46.031 6.915 68.676 12.91v-36.103h-80.72c-13.433 -43.958 -11.529 -87.917 1.605 -131.873h-51.348c13.702 43.957 17.798 87.914 1.906 131.873h-81.02v36.102zm68.91 -335.694c0 9.506 -14.06 17.212 -31.404 17.212s-31.404 -7.706 -31.404 -17.212 14.06 -17.212 31.404 -17.212 31.404 7.706 31.404 17.212zm134.477 0c0 9.506 -14.06 17.212 -31.405 17.212s-31.404 -7.706 -31.404 -17.212 14.06 -17.212 31.404 -17.212 31.405 7.706 31.405 17.212z"/></svg>