<svg height="1000" width="1000" xmlns="http://www.w3.org/2000/svg"><path d="M668.533 663.495l-92.146 -122.67c6.237 -11.717 9.781 -25.084 9.781 -39.283 0 -30.572 -16.39 -57.31 -40.856 -71.93v-96.14h44.414L502.04 81.266 413.213 333.47h44.414V430.8c-23.404 14.852 -38.953 40.974 -38.953 70.744 0 46.251 37.496 83.745 83.747 83.745a84.99 84.99 0 004.245 -.107l95.613 127.283 -33.808 25.47 222.42 157.66L701.134 638.939l-32.6 24.558zm251.68 -161.771c0 -55.03 -10.625 -107.567 -29.893 -155.713l76.532 -76.532L733.169 35.8l-76.496 76.496C613.776 95.115 567.383 84.811 518.853 82.758l37.161 93.116a328.222 328.222 0 0131.764 6.99 328.332 328.332 0 017.977 2.28c.664 .199 1.33 .391 1.99 .593a327.4 327.4 0 019.15 2.95c.617 .208 1.23 .427 1.845 .64 2.63 .907 5.245 1.848 7.843 2.82 .604 .225 1.21 .445 1.81 .673 3 1.142 5.981 2.326 8.94 3.553 .577 .24 1.148 .487 1.724 .73a326.014 326.014 0 017.73 3.373c.538 .244 1.078 .48 1.612 .725a332.052 332.052 0 018.705 4.147c.535 .264 1.066 .537 1.6 .804a327.27 327.27 0 017.609 3.937c.463 .248 .93 .489 1.393 .739a331.984 331.984 0 018.457 4.732c.488 .283 .971 .572 1.457 .857a329.524 329.524 0 017.497 4.523c.38 .237 .762 .467 1.141 .703a330.065 330.065 0 018.207 5.325c.428 .287 .852 .579 1.277 .866 2.492 1.685 4.96 3.4 7.4 5.15 .289 .207 .582 .41 .869 .618a332.912 332.912 0 017.934 5.912c.368 .283 .73 .57 1.098 .854a331.435 331.435 0 017.284 5.803c.196 .16 .397 .32 .592 .481 2.582 2.131 5.13 4.3 7.648 6.508 .3 .263 .595 .528 .895 .793a334.721 334.721 0 017.165 6.506c.102 .094 .204 .187 .305 .282a332.744 332.744 0 017.328 7.098c.238 .236 .472 .476 .71 .714 2.37 2.38 4.71 4.789 7.007 7.239a331.492 331.492 0 017.007 7.72c.174 .199 .347 .399 .522 .598a331.586 331.586 0 0113.168 16.01c.117 .151 .233 .306 .35 .458a332.072 332.072 0 0112.25 17.027c.073 .107 .142 .212 .212 .318a330.188 330.188 0 0111.248 17.993c.034 .058 .069 .119 .103 .177A328.633 328.633 0 01797.003 355c.007 .014 .013 .027 .021 .042a328.267 328.267 0 0123.092 61.17l.002 -.002c7.29 27.282 11.195 55.946 11.195 85.528 0 29.599 -3.9 58.283 -11.2 85.577l-.01 -.01c-13.69 51.21 -39.4 97.488 -73.878 135.7l62.422 169.216L966.832 734.035l-76.536 -76.537c19.292 -48.158 29.921 -100.72 29.921 -155.773zM717.664 860.762l-81.943 -57.294a329.848 329.848 0 01-35.662 13.555c-.525 .165 -1.05 .333 -1.577 .496a314.356 314.356 0 01-4.976 1.496c-.722 .21 -1.448 .414 -2.175 .621A334.94 334.94 0 01586.434 821l.002 .002c-27.302 7.305 -55.992 11.216 -85.596 11.216 -29.581 0 -58.245 -3.908 -85.526 -11.2A328.28 328.28 0 01354.142 797.93c-.017 -.008 -.033 -.017 -.051 -.024A329.479 329.479 0 01325.9 782.143a331.399 331.399 0 01-26.478 -18.406c-.013 -.008 -.023 -.018 -.035 -.027A332.34 332.34 0 01238.92 703.26a330.438 330.438 0 01-18.384 -26.422c-.012 -.018 -.023 -.038 -.035 -.056A330.218 330.218 0 01204.73 648.594c-.01 -.019 -.02 -.039 -.03 -.058a328.879 328.879 0 01-13.016 -29.83c-.002 -.007 -.005 -.012 -.007 -.018a327.973 327.973 0 01-10.085 -31.31c-7.308 -27.314 -11.228 -56.016 -11.228 -85.635 0 -29.606 3.912 -58.294 11.216 -85.598l.002 .002c12.338 -46.14 34.416 -88.299 63.89 -124.143 .059 -.073 .117 -.146 .176 -.217a332.296 332.296 0 0113.829 -15.744c.139 -.149 .275 -.297 .414 -.446a333.393 333.393 0 0114.603 -14.61c.217 -.204 .433 -.41 .65 -.613a332.833 332.833 0 0115.334 -13.48c.292 -.24 .582 -.484 .876 -.724a332.124 332.124 0 0116.017 -12.343c.366 -.265 .73 -.53 1.098 -.793a331.805 331.805 0 0116.669 -11.2c.429 -.27 .858 -.54 1.289 -.81a330.517 330.517 0 0118.757 -10.84 329.584 329.584 0 0139.681 -17.956 329.472 329.472 0 0118.963 -6.457c.62 -.19 1.241 -.376 1.863 -.562a325.12 325.12 0 019.346 -2.667 328.57 328.57 0 0137.453 -7.745l34.562 -92.195c-50.04 1.616 -97.854 12.017 -141.978 29.678L268.521 35.728 34.84 269.408l76.542 76.542c-19.286 48.163 -29.92 100.724 -29.92 155.778 0 55.077 10.635 107.663 29.936 155.844l-76.545 76.545 233.681 233.68 76.581 -76.58c48.149 19.267 100.693 29.886 155.723 29.886 55.055 0 107.624 -10.621 155.79 -29.908l76.522 76.524 56.572 -56.571 -72.059 -50.384z"/></svg>