<svg height="1000" width="1000" xmlns="http://www.w3.org/2000/svg"><path d="M864.764 703.498C823.054 563.744 630.384 485.629 452.72 452.944c34.448 153.247 -5.94 256.26 33.19 387.638 41.715 140.063 200.987 147.424 231.138 12.36 108.883 100.054 186.846 -18.347 147.715 -149.45v.006zM100.345 584.965C181.836 479.423 321.277 417.298 479.174 474.179c-75.023 175.917 -21.472 301.513 -97.42 398.4C300.79 975.87 161.547 911.487 179.145 780.61c-125.8 38.64 -153.885 -98.4 -78.798 -195.644zM317.162 84.114c130.646 75.522 168.382 229.206 159.385 406.501C299.642 389.024 248.842 478.528 121.465 425.835 -18.253 368.038 12.075 190.666 143.937 193.854 56.69 61.513 194.606 13.267 317.162 84.114zm356.754 13.623C535.508 132.33 467.486 297.712 467.21 482.45c192.174 -47.577 265.298 80.682 397.806 48.245C1006.281 496.117 990.524 319.274 843.913 279.308 933.153 172.222 805.996 64.723 673.916 97.737z"/></svg>