<svg height="1000" width="1000" xmlns="http://www.w3.org/2000/svg"><path d="M892.66 244.426L530.548 35.36C483.395 8.137 423.097 24.294 395.872 71.448L75.352 626.606C48.127 673.76 64.286 734.058 111.44 761.283l362.112 209.065c47.153 27.225 107.451 11.066 134.676 -36.087l320.52 -555.159C955.972 331.949 939.813 271.65 892.66 244.426zM461.59 117.818c11.927 -20.657 38.341 -27.736 59 -15.81s27.736 38.343 15.81 58.998c-11.927 20.657 -38.34 27.735 -59 15.81s-27.735 -38.343 -15.81 -58.998zm66.165 518.692c-18.417 -11.372 -31.386 -28.434 -38.21 -47.543l-19.3 121.474 -128.374 -79.25 .452 -.324h-.002l98.052 -70.313a94.225 94.225 0 01-6.584 .38c-.25 .006 -.5 .021 -.75 .024a90.928 90.928 0 01-3.538 -.012c-.31 -.007 -.621 -.027 -.932 -.037a88.902 88.902 0 01-2.598 -.111c-.463 -.028 -.925 -.072 -1.387 -.107 -.716 -.053 -1.433 -.106 -2.147 -.175 -.504 -.05 -1.006 -.115 -1.508 -.171 -.676 -.078 -1.349 -.156 -2.025 -.248 -.522 -.073 -1.042 -.157 -1.564 -.239a95.107 95.107 0 01-1.96 -.319c-.53 -.095 -1.06 -.2 -1.59 -.302a94.878 94.878 0 01-1.927 -.394 104.258 104.258 0 01-3.503 -.837 82.758 82.758 0 01-1.587 -.428 102.714 102.714 0 01-3.466 -1.039 80.55 80.55 0 01-1.903 -.64 90.538 90.538 0 01-1.543 -.545 96.244 96.244 0 01-1.903 -.727c-.503 -.197 -1.005 -.392 -1.506 -.599a89.026 89.026 0 01-1.922 -.829c-.486 -.214 -.972 -.423 -1.457 -.644 -.657 -.304 -1.308 -.625 -1.96 -.944 -.459 -.225 -.919 -.44 -1.376 -.673 -.698 -.358 -1.39 -.735 -2.082 -1.112 -.404 -.22 -.81 -.429 -1.214 -.654a92.71 92.71 0 01-2.735 -1.611c-.163 -.1 -.33 -.19 -.492 -.292 -.072 -.044 -.139 -.093 -.21 -.137a96.148 96.148 0 01-3.491 -2.28c-.44 -.302 -.867 -.619 -1.3 -.927a98.44 98.44 0 01-2.26 -1.648 94.507 94.507 0 01-1.466 -1.141 91.759 91.759 0 01-3.44 -2.852 95.982 95.982 0 01-1.718 -1.542c-.51 -.468 -1.021 -.934 -1.52 -1.413 -.514 -.492 -1.012 -.998 -1.513 -1.503 -.518 -.52 -1.042 -1.036 -1.547 -1.567 -.338 -.356 -.657 -.725 -.988 -1.085a92.04 92.04 0 01-3.674 -4.251c-.19 -.235 -.389 -.463 -.576 -.698a90.892 90.892 0 01-1.808 -2.37c-.22 -.297 -.445 -.591 -.662 -.89a92.685 92.685 0 01-2.275 -3.29 95.44 95.44 0 01-1.703 -2.666c-.115 -.186 -.226 -.375 -.34 -.563a94.157 94.157 0 01-8.035 -16.918c-.003 -.006 -.007 -.012 -.01 -.021 -9.22 -25.796 -7.161 -55.404 8.235 -80.339 26.858 -43.499 84.605 -57.156 128.102 -30.3 3.387 2.092 6.27 4.663 9.294 7.097 -2.058 -19.537 1.89 -40.5 12.912 -58.543 .002 0 .002 0 .003 0 .073 -.119 .137 -.24 .21 -.357 .205 -.333 .428 -.65 .636 -.978a94.655 94.655 0 011.817 -2.784c.366 -.532 .75 -1.042 1.124 -1.564 .501 -.698 1 -1.4 1.518 -2.08 .414 -.543 .844 -1.07 1.268 -1.602 .502 -.63 1.004 -1.262 1.522 -1.878 .445 -.53 .903 -1.046 1.36 -1.562a87.048 87.048 0 011.576 -1.752 94.742 94.742 0 011.428 -1.5 86.907 86.907 0 014.847 -4.63 85.583 85.583 0 011.527 -1.331 84.5 84.5 0 011.818 -1.49c.512 -.41 1.021 -.826 1.542 -1.225 .644 -.494 1.3 -.97 1.956 -1.447 .504 -.365 1.002 -.74 1.512 -1.095 .736 -.513 1.487 -.998 2.236 -1.486 .445 -.29 .883 -.596 1.334 -.878a90.134 90.134 0 013.6 -2.147c.389 -.22 .788 -.419 1.18 -.632a90.536 90.536 0 012.579 -1.372c.525 -.266 1.059 -.51 1.589 -.765 .749 -.36 1.497 -.723 2.255 -1.062 .571 -.256 1.146 -.494 1.722 -.737a93.57 93.57 0 012.198 -.907c.595 -.234 1.194 -.455 1.793 -.677a87.94 87.94 0 012.2 -.786 95.304 95.304 0 014.06 -1.28 101.57 101.57 0 011.847 -.518 92.386 92.386 0 012.29 -.579c.608 -.147 1.217 -.295 1.83 -.429a89.164 89.164 0 012.389 -.482c.59 -.114 1.18 -.234 1.773 -.336 .855 -.147 1.715 -.27 2.574 -.395 .542 -.078 1.08 -.166 1.622 -.235a94.958 94.958 0 013.209 -.336c.338 -.031 .675 -.075 1.014 -.102a95.112 95.112 0 014.226 -.24c.435 -.015 .873 -.01 1.31 -.02a96.522 96.522 0 012.96 -.027c.552 .007 1.103 .033 1.655 .047 .876 .027 1.752 .052 2.63 .103 .588 .034 1.177 .083 1.766 .129a84.562 84.562 0 012.523 .22c.604 .062 1.207 .137 1.81 .21a89.724 89.724 0 016.781 1.092 80.027 80.027 0 014.307 .966c.571 .142 1.143 .28 1.713 .434 .88 .236 1.757 .496 2.633 .76 .522 .156 1.046 .304 1.567 .471a92.776 92.776 0 012.934 1.005c.409 .146 .824 .28 1.231 .43a93.8 93.8 0 017.91 3.375c.508 .243 1.012 .504 1.516 .756a92.908 92.908 0 013.623 1.91 94.201 94.201 0 013.647 2.129c43.492 26.858 56.774 83.001 29.917 126.498 -.075 .121 -.155 .236 -.23 .356a87.774 87.774 0 01-2.567 3.874c-.236 .339 -.476 .672 -.716 1.007a93.628 93.628 0 01-2.77 3.675c-10.83 13.609 -25.012 23.482 -40.496 29.207 3.902 1.703 7.776 3.444 11.497 5.742 24.8 15.312 39.561 40.468 42.708 67.328a93.084 93.084 0 01.482 5.672c.03 .523 .069 1.044 .09 1.568 .031 .788 .037 1.576 .047 2.365 .008 .605 .02 1.21 .017 1.817a99.245 99.245 0 01-.05 2.284 89.806 89.806 0 01-.215 4.144 91.803 91.803 0 01-.175 1.997 88.52 88.52 0 01-.226 2.155 91.683 91.683 0 01-.287 2.116c-.098 .681 -.19 1.363 -.302 2.041 -.136 .82 -.297 1.636 -.455 2.453 -.11 .564 -.204 1.129 -.324 1.691a93.32 93.32 0 01-.946 4.005c-.136 .52 -.292 1.036 -.435 1.555a96.208 96.208 0 01-.747 2.591c-.176 .572 -.37 1.14 -.558 1.706a91.693 91.693 0 01-.83 2.418c-.206 .577 -.427 1.15 -.646 1.723a92.939 92.939 0 01-1.664 4.063 88.777 88.777 0 01-1.111 2.43c-.246 .524 -.49 1.047 -.747 1.568a100.676 100.676 0 01-1.365 2.634c-.232 .434 -.452 .87 -.69 1.3a93.923 93.923 0 01-2.259 3.868c-26.854 43.494 -83.61 57.764 -127.11 30.905zm12.6 255.135c-11.928 20.657 -38.342 27.735 -59 15.81s-27.736 -38.342 -15.81 -58.999c11.926 -20.657 38.34 -27.735 59 -15.81s27.735 38.341 15.81 58.999z"/></svg>