<svg height="1000" width="1000" xmlns="http://www.w3.org/2000/svg"><path d="M632.597 398.023c-6.784 0 -13.314 .861 -19.85 1.79C631.78 375.469 643.42 344.71 643.42 311.4c0 -79.277 -63.27 -142.543 -142.541 -142.547 -79.273 .004 -144.343 63.27 -144.343 142.547 0 33.027 11.917 64.153 30.672 88.414 -5.973 -.747 -11.873 -1.791 -18.046 -1.791 -79.277 0 -144.352 65.072 -144.352 144.352s65.075 144.352 144.352 144.352c32.346 0 62.212 -10.858 86.245 -29.036l-72.43 173.462 233.965 -.015L543.44 655.122c24.574 19.656 55.587 31.605 89.155 31.605 79.284 0 142.551 -65.072 142.551 -144.352S711.874 398.023 632.597 398.023z"/></svg>