<svg height="1000" width="1000" xmlns="http://www.w3.org/2000/svg"><path d="M633.79 526.305l28.748 49.832c54.742 -7.909 111.214 17.419 140.555 68.291 38.474 66.692 15.19 151.798 -51.453 190.304s-151.326 15.8 -189.8 -50.899c-30.998 -53.737 -22.252 -119.707 17.185 -163.39l-27.036 -46.87 81.8 -47.267zM376.018 162.307S315.659 -60.123 188.417 72.299l15.754 14.968s87.02 -104.404 149.01 86.46l22.839 -4.894zM898.564 387.78C820.182 251.927 669.341 184.284 523.12 205.404L446.332 72.298 227.829 198.544 300.05 323.73C194.711 440.405 171.345 616.606 254.145 760.13c102.77 178.142 328.982 238.793 506.989 135.944S1001.335 565.931 898.564 387.78zM763.732 872.23C642.368 942.358 488.14 901.014 418.074 779.544 361.624 681.677 377.556 561.526 449.373 481.98l-49.24 -85.358 73.724 -42.601C430.34 227.375 370.802 298.796 370.802 298.796l-11.097 -10.542c78.19 -81.372 120.518 27.479 130.047 56.58l59.359 -34.298 52.35 90.758c99.693 -14.404 202.535 31.726 255.972 124.36 70.07 121.47 27.662 276.453 -93.7 346.577zM603.587 559.882s-33.59 -123.787 -104.404 -50.09l8.767 8.328s48.427 -58.102 82.926 48.117l12.71 -2.724z"/></svg>