<svg height="1000" width="1000" xmlns="http://www.w3.org/2000/svg"><path d="M880.93 300.432C853.941 284.35 822.844 281.798 785.591 288.776l-.003 .005c-24.022 4.5 -50.142 13.764 -78.153 27.839 .406 -9.796 .64 -19.475 .64 -28.998h-.304a69.522 69.522 0 001.295 -13.278c0 -75.65 -123.682 -136.98 -276.25 -136.98s-276.251 61.331 -276.251 136.98c0 4.48 .448 8.908 1.295 13.278h-.142c-1.066 159.065 31.697 318.436 29.16 477.336 -1.205 75.599 92.77 135.725 245.256 135.725S660.26 839.13 660.26 764.958a907.734 907.734 0 01.523 -30.329c80.025 4.324 147.078 -32.246 194.129 -83.588 48.86 -53.316 78.81 -122.129 86.505 -186.656S934.901 332.601 880.93 300.432zM433.838 214.598c116.403 0 210.763 31.921 210.763 71.298 0 .577 -.025 1.152 -.066 1.726a24.639 24.639 0 01-.192 1.793c0 .003 0 .007 -.002 .011a26.117 26.117 0 01-.299 1.655c-.01 .05 -.017 .1 -.027 .15a25.609 25.609 0 01-.394 1.54c-.022 .083 -.04 .168 -.065 .251a27.414 27.414 0 01-.481 1.46c-.038 .107 -.069 .212 -.108 .317a29.712 29.712 0 01-.564 1.399c-.052 .121 -.097 .243 -.15 .364 -.201 .45 -.422 .899 -.645 1.348 -.067 .134 -.127 .27 -.198 .403a32.21 32.21 0 01-.72 1.297c-.084 .147 -.16 .294 -.25 .44a37.575 37.575 0 01-.79 1.255c-.102 .156 -.196 .312 -.3 .467a39.073 39.073 0 01-.861 1.219c-.118 .161 -.23 .324 -.351 .486 -.299 .4 -.615 .796 -.935 1.19 -.131 .166 -.26 .332 -.396 .497a47.014 47.014 0 01-1.002 1.163c-.15 .17 -.295 .34 -.448 .51a49.755 49.755 0 01-1.066 1.132c-.168 .175 -.329 .349 -.5 .523a60.527 60.527 0 01-1.128 1.104c-.185 .178 -.367 .358 -.556 .534 -.385 .36 -.784 .717 -1.186 1.077 -.204 .18 -.403 .362 -.61 .543a71.286 71.286 0 01-1.246 1.051c-.22 .183 -.439 .368 -.664 .55a93.555 93.555 0 01-1.305 1.03c-.236 .184 -.472 .369 -.713 .551a93.728 93.728 0 01-1.367 1.01c-.253 .185 -.504 .37 -.76 .552 -.463 .329 -.938 .656 -1.414 .982 -.274 .188 -.547 .375 -.825 .562 -.48 .32 -.969 .637 -1.462 .956 -.292 .187 -.582 .377 -.879 .562a108.882 108.882 0 01-1.513 .934 94.757 94.757 0 01-2.497 1.478c-.326 .188 -.651 .375 -.98 .562a117.65 117.65 0 01-1.615 .892c-.344 .188 -.689 .375 -1.037 .562a138.16 138.16 0 01-1.658 .87c-.36 .187 -.72 .373 -1.088 .559a214.95 214.95 0 01-1.71 .853c-.377 .185 -.752 .37 -1.134 .553 -.58 .28 -1.165 .557 -1.755 .832a166.683 166.683 0 01-6.06 2.695 178.099 178.099 0 01-4.511 1.849 264.507 264.507 0 01-1.923 .75 224.041 224.041 0 01-6.775 2.488 256.948 256.948 0 01-7.129 2.382c-.528 .168 -1.06 .334 -1.591 .501a250.989 250.989 0 01-3.742 1.14 249.757 249.757 0 01-2.117 .62c-.561 .164 -1.126 .324 -1.691 .485a271.144 271.144 0 01-3.905 1.08 315.536 315.536 0 01-2.162 .576 553.388 553.388 0 01-4.009 1.03c-.606 .151 -1.218 .301 -1.828 .452a314.52 314.52 0 01-4.12 .983 268.642 268.642 0 01-4.2 .953c-.755 .166 -1.512 .333 -2.274 .497 -.657 .142 -1.32 .28 -1.983 .42a299.897 299.897 0 01-4.319 .88c-.781 .155 -1.561 .31 -2.348 .462 -.677 .13 -1.36 .258 -2.04 .385a320.769 320.769 0 01-2.372 .44c-.698 .127 -1.401 .251 -2.104 .375 -.79 .14 -1.58 .28 -2.375 .418 -.715 .122 -1.436 .241 -2.153 .363 -.796 .131 -1.591 .265 -2.392 .394 -.726 .117 -1.457 .232 -2.187 .346a335.525 335.525 0 01-4.645 .705c-.814 .119 -1.625 .24 -2.443 .355 -.757 .108 -1.52 .21 -2.283 .315 -.81 .111 -1.62 .223 -2.435 .33 -.774 .103 -1.553 .201 -2.33 .3 -.819 .105 -1.634 .21 -2.456 .312 -.78 .097 -1.567 .188 -2.35 .28 -.828 .098 -1.653 .198 -2.485 .292 -.791 .09 -1.589 .175 -2.384 .263a481.575 481.575 0 01-2.509 .27c-.8 .084 -1.61 .164 -2.414 .244 -.842 .085 -1.68 .17 -2.527 .25 -.81 .077 -1.628 .15 -2.443 .223 -.85 .078 -1.696 .157 -2.547 .23 -.835 .073 -1.677 .14 -2.518 .208 -.837 .068 -1.672 .139 -2.513 .204 -.87 .066 -1.747 .129 -2.62 .192 -.821 .061 -1.638 .122 -2.46 .178 -.886 .06 -1.779 .116 -2.668 .173 -.822 .052 -1.64 .107 -2.466 .158 -.91 .054 -1.828 .103 -2.74 .154 -.81 .043 -1.616 .092 -2.426 .133 -.935 .047 -1.876 .09 -2.816 .134 -.803 .037 -1.601 .078 -2.406 .112 -.95 .041 -1.905 .076 -2.86 .112 -.8 .031 -1.595 .063 -2.396 .092 -.963 .032 -1.93 .058 -2.895 .086 -.803 .023 -1.601 .051 -2.407 .073 -1.003 .026 -2.012 .044 -3.021 .065 -.769 .017 -1.533 .036 -2.305 .049 -1.173 .02 -2.35 .032 -3.527 .046 -.612 .007 -1.222 .017 -1.835 .022a635.603 635.603 0 01-5.294 .023c-.036 0 -.072 0 -.108 0 -1.807 0 -3.608 -.008 -5.404 -.023 -.533 -.005 -1.065 -.014 -1.596 -.02 -1.258 -.014 -2.518 -.027 -3.769 -.048 -.69 -.012 -1.375 -.03 -2.063 -.044 -1.09 -.022 -2.181 -.042 -3.266 -.07 -.728 -.018 -1.448 -.042 -2.173 -.064 -1.046 -.031 -2.092 -.058 -3.132 -.095 -.72 -.024 -1.435 -.055 -2.155 -.082 -1.036 -.039 -2.073 -.077 -3.105 -.12 -.724 -.032 -1.443 -.067 -2.165 -.102 -1.021 -.047 -2.043 -.093 -3.061 -.146 -.728 -.037 -1.45 -.08 -2.175 -.12 -1 -.056 -2.002 -.108 -2.997 -.169 -.742 -.044 -1.48 -.094 -2.22 -.141 -.974 -.062 -1.95 -.122 -2.919 -.19 -.739 -.05 -1.472 -.106 -2.21 -.16 -.96 -.07 -1.921 -.137 -2.876 -.212 -.754 -.058 -1.503 -.122 -2.254 -.183 -.927 -.075 -1.855 -.15 -2.779 -.23 -.766 -.066 -1.528 -.137 -2.292 -.207 -.902 -.082 -1.805 -.161 -2.705 -.248a323.149 323.149 0 01-2.264 -.226c-.896 -.09 -1.791 -.175 -2.682 -.27 -.752 -.077 -1.496 -.16 -2.245 -.242 -.886 -.097 -1.772 -.19 -2.652 -.292 -.743 -.085 -1.478 -.173 -2.217 -.26 -.876 -.103 -1.752 -.205 -2.623 -.314 -.733 -.09 -1.46 -.184 -2.19 -.277 -.869 -.111 -1.739 -.22 -2.603 -.334 -.725 -.097 -1.443 -.195 -2.163 -.294 -.855 -.117 -1.711 -.233 -2.56 -.353 -.726 -.103 -1.447 -.21 -2.17 -.317a545.534 545.534 0 01-2.499 -.37c-.72 -.11 -1.433 -.222 -2.15 -.334 -.822 -.129 -1.647 -.256 -2.463 -.39 -.71 -.114 -1.414 -.233 -2.121 -.35 -.813 -.136 -1.625 -.27 -2.433 -.41 -.703 -.12 -1.4 -.244 -2.096 -.368a501.563 501.563 0 01-2.39 -.426c-.7 -.127 -1.396 -.26 -2.092 -.389 -.776 -.145 -1.552 -.29 -2.321 -.438a288.811 288.811 0 01-2.073 -.409 453.701 453.701 0 01-2.294 -.458 369.747 369.747 0 01-2.027 -.42c-.757 -.159 -1.515 -.317 -2.265 -.478a286.634 286.634 0 01-1.997 -.437c-.74 -.164 -1.482 -.327 -2.216 -.493 -.666 -.15 -1.326 -.303 -1.988 -.457a307.308 307.308 0 01-4.12 -.98 354.962 354.962 0 01-6.133 -1.554 272.929 272.929 0 01-1.874 -.5 291.736 291.736 0 01-5.893 -1.648 255.94 255.94 0 01-1.83 -.538 473.454 473.454 0 01-1.944 -.584c-.604 -.183 -1.203 -.37 -1.798 -.555a273.298 273.298 0 01-5.495 -1.771c-.582 -.195 -1.16 -.392 -1.736 -.587a212.803 212.803 0 01-3.49 -1.226 271.533 271.533 0 01-3.41 -1.253 250.469 250.469 0 01-3.314 -1.278 235.435 235.435 0 01-3.22 -1.303 226.668 226.668 0 01-3.139 -1.334 220.895 220.895 0 01-3.04 -1.355 230.194 230.194 0 01-1.463 -.677 123.799 123.799 0 01-1.487 -.705c-.473 -.227 -.94 -.457 -1.406 -.687a165.46 165.46 0 01-1.443 -.718c-.458 -.231 -.91 -.466 -1.36 -.7a108.844 108.844 0 01-1.39 -.73 141.881 141.881 0 01-2.657 -1.453c-.42 -.236 -.835 -.476 -1.25 -.714 -.437 -.253 -.873 -.504 -1.3 -.759a114.58 114.58 0 01-1.199 -.726c-.42 -.257 -.842 -.513 -1.253 -.773 -.385 -.243 -.762 -.486 -1.14 -.73 -.405 -.263 -.81 -.524 -1.206 -.789a139.11 139.11 0 01-1.082 -.735c-.391 -.27 -.783 -.537 -1.163 -.808 -.343 -.243 -.678 -.489 -1.012 -.734 -.377 -.275 -.754 -.55 -1.12 -.827a62.55 62.55 0 01-.96 -.744c-.358 -.28 -.715 -.557 -1.061 -.837 -.309 -.25 -.606 -.5 -.907 -.75 -.34 -.284 -.679 -.567 -1.008 -.852 -.29 -.25 -.567 -.503 -.849 -.755 -.319 -.287 -.642 -.574 -.953 -.864 -.27 -.25 -.527 -.504 -.788 -.757 -.304 -.294 -.608 -.587 -.9 -.882 -.25 -.253 -.488 -.506 -.73 -.76 -.284 -.299 -.571 -.596 -.844 -.896 -.23 -.253 -.447 -.508 -.668 -.761 -.266 -.304 -.534 -.607 -.787 -.913 -.21 -.254 -.408 -.508 -.61 -.763 -.246 -.309 -.493 -.615 -.726 -.925 -.192 -.256 -.372 -.516 -.557 -.773 -.222 -.31 -.448 -.62 -.66 -.934 -.172 -.258 -.332 -.516 -.496 -.773 -.203 -.315 -.409 -.631 -.597 -.949 -.153 -.256 -.292 -.513 -.438 -.771 -.18 -.321 -.367 -.643 -.535 -.966 -.132 -.255 -.25 -.51 -.375 -.767 -.16 -.328 -.324 -.656 -.471 -.985 -.113 -.255 -.21 -.509 -.317 -.765 -.137 -.333 -.28 -.666 -.403 -1 -.095 -.254 -.171 -.508 -.258 -.763 -.114 -.338 -.233 -.676 -.334 -1.015 -.073 -.25 -.132 -.503 -.197 -.754 -.092 -.346 -.188 -.69 -.265 -1.037 -.054 -.243 -.092 -.49 -.137 -.734 -.068 -.358 -.141 -.713 -.194 -1.07 -.034 -.236 -.052 -.472 -.08 -.709 -.042 -.369 -.092 -.737 -.12 -1.107a24.644 24.644 0 01-.065 -1.764C223.074 246.52 317.434 214.6 433.836 214.6zM871.925 457.49c-5.842 49.022 -29.568 105.822 -67.21 146.893 -36.194 39.49 -81.895 63.761 -139.374 60.57 8.365 -89.96 25.102 -180.008 34.97 -263.847 81.131 -51.849 126.338 -52.28 146.134 -40.478 20.026 11.94 31.321 47.842 25.48 96.863z"/></svg>