<svg height="1000" width="1000" xmlns="http://www.w3.org/2000/svg"><path d="M715.986 503.736c0 119.131 -96.578 215.71 -215.709 215.71s-215.71 -96.579 -215.71 -215.71 96.58 -215.709 215.71 -215.709 215.71 96.579 215.71 215.71zm116.603 46.415c7.209 -50.4 63.744 -85.308 133.802 -89.898 -4.6 -50.591 -17.127 -98.804 -36.886 -144.061 -63.59 29.48 -129.965 25.605 -160.425 -15.018C738.474 260.338 754.905 196.173 801.588 143.247 763.529 111.364 719.24 85.854 671.708 67.165c-24.045 65.961 -73.42 110.433 -123.815 103.23s-85.316 -63.744 -89.9 -133.804v.005C407.125 41.21 357.458 53.273 311.991 73.211c29.974 63.884 27.754 130.09 -13.078 160.705 -40.63 30.453 -105.42 15.561 -158.203 -30.565 -31.681 37.927 -57.198 80.628 -75.8 127.942 65.964 24.048 110.437 73.43 103.228 123.809s-63.744 85.316 -133.802 89.902c4.56 50.299 17.33 99.022 36.885 144.061 34.73 -15.953 69.808 -21.659 99.645 -17.465 25.41 3.643 46.686 13.689 60.78 32.487 30.843 41.138 14.763 106.717 -32.782 159.862 38.056 31.886 82.347 57.39 129.88 76.077 24.044 -65.96 73.419 -110.442 123.814 -103.23s85.315 63.745 89.9 133.805c50.869 -4.614 100.535 -16.672 146.002 -36.61C657.716 869.647 660.665 802.187 701.818 771.342c18.795 -14.097 43.993 -17.562 69.391 -13.861 29.467 4.212 60.786 19.992 88.81 44.426 31.372 -37.723 57.323 -80.976 75.8 -127.937C869.853 649.923 825.38 600.554 832.589 550.154zM500.222 766.898C354.805 766.898 236.924 649.019 236.924 503.6S354.804 240.302 500.222 240.302 763.521 358.185 763.521 503.6 645.64 766.898 500.222 766.898z"/></svg>