<svg height="1000" width="1000" xmlns="http://www.w3.org/2000/svg"><path d="M495.134 40.674c-253.289 0 -458.621 205.334 -458.621 458.622s205.323 458.622 458.621 458.622 458.632 -205.33 458.632 -458.62S748.424 40.674 495.134 40.674zm5.17 852.039C282.2 892.713 105.395 715.909 105.395 497.806S282.201 102.892 500.303 102.892s394.908 176.81 394.908 394.914S718.403 892.713 500.303 892.713zm1.653 -669.237C350.197 223.476 227.17 346.5 227.17 498.26s123.026 274.79 274.786 274.79S776.742 650.021 776.742 498.26c0 -151.755 -123.026 -274.784 -274.785 -274.784zm126.309 404.65l-48.309 -83.731h96.657c-8.294 32.287 -25.297 61.075 -48.348 83.732zM579.957 454.39l48.358 -83.82c23.056 22.682 40.055 51.502 48.33 83.82h-96.688zm-29.76 -129.075l-48.505 84.07L453.18 325.302a180.758 180.758 0 0148.484 -6.591c16.814 0 33.088 2.306 48.533 6.605zM423.428 454.39h-96.74c8.279 -32.334 25.29 -61.166 48.364 -83.853l48.377 83.853zm-96.708 90.005h96.708l-48.328 83.764c-23.067 -22.662 -40.082 -51.462 -48.38 -83.764zm174.946 135.544c-16.774 0 -33.008 -2.295 -48.418 -6.572l48.445 -83.968 48.437 83.954a180.808 180.808 0 01-48.464 6.586z"/></svg>