<svg height="1000" width="1000" xmlns="http://www.w3.org/2000/svg"><path d="M903.762 320.579l-75.066 20.112 -10.34 38.59L755.56 316.488 778.246 293.8l-15.744 -58.76 -58.76 -15.744 -22.685 22.685L618.203 179.13l38.674 -10.362L676.99 93.703 622.04 38.753l-75.063 20.112 -20.112 75.063 28.008 28.008 -85.87 23.007 -8.22 -30.676 -58.76 -15.745 -43.016 43.016 8.22 30.679 -86.051 23.056 10.28 -38.369 -54.953 -54.95 -75.065 20.113 -20.112 75.066 54.953 54.95 38.564 -10.332 -23 85.833 -30.657 -8.215 -43.016 43.016 15.745 58.762 30.657 8.214 -23.04 85.977L133.24 527.044l-75.066 20.112 -20.116 75.066 54.95 54.952 75.067 -20.112 10.39 -38.77 63.14 63.142 -22.423 22.424 15.744 58.76 58.76 15.745 22.424 -22.424 63.081 63.083 -38.673 10.362 -20.113 75.063 54.95 54.951 75.063 -20.112 20.112 -75.063 -28.618 -28.62 86.165 -23.088 8.292 30.946 58.76 15.745 43.016 -43.016 -8.292 -30.946 85.985 -23.04 -10.448 38.994 54.953 54.95 75.065 -20.114 20.112 -75.065 -54.953 -54.95 -38.793 10.394 23.1 -86.204 30.968 8.299 43.016 -43.017L843.112 536.73l-30.966 -8.297 23.059 -86.054 28.329 28.33L938.6 450.595l20.116 -75.065 -54.954 -54.954zM707.1 503.899C679.2 622.828 472.217 656.184 437.52 716.277c0 -75.824 -156.903 -194.749 -127.86 -318.872 27.896 -119.209 180.467 -105.798 211.058 8.367C606.34 320.158 734.591 386.71 707.1 503.9z"/></svg>