<svg height="1000" width="1000" xmlns="http://www.w3.org/2000/svg"><path d="M786.926 254.192l54.907 -96.472 -96.503 54.922C596.358 85.036 371.645 91.735 230.631 232.75 89.62 373.76 82.92 598.47 210.52 747.443l-54.934 96.523 96.493 -54.918C401.05 916.897 625.952 910.272 767.052 769.17c141.1 -141.1 147.725 -366.007 19.873 -514.977zm-19.11 -20.662zm-269.33 269.33l-93.52 -93.52 93.52 93.519 191.81 -191.81 -191.81 191.81zM308.288 310.165c90.384 -90.382 228.983 -103.147 332.99 -38.3L404.495 406.628 269.933 643.06C205.153 539.064 217.935 400.52 308.29 310.166zm381.142 381.14C599.059 781.677 460.48 794.45 356.479 729.63L533.206 629.048l58.804 -32.67 -.509 -.508 1.424 -.81L727.696 358.261c64.886 104.012 52.132 242.644 -38.265 333.043z"/></svg>