<svg height="1000" width="1000" xmlns="http://www.w3.org/2000/svg"><path d="M858.223 148.074L666.603 37.834c-6.308 10.913 -27.573 47.915 -43.177 91.222l-10.145 -5.83C485.426 345.695 363.93 552.497 237.438 770.387c-38.126 65.668 -24.28 144.69 30.81 176.34 55.09 31.652 130.992 4.189 168.794 -61.662C562.47 666.568 684.19 459.882 812.886 237.905l-13.064 -7.504c29.96 -34.615 51.813 -70.931 58.401 -82.328zM475.162 428.826l131.44 -230.03c-3.613 38.562 5.034 74.163 39.36 93.956 45.387 26.168 93.365 -1.338 132.4 -39.465l-100.304 175.54H475.16z"/></svg>