<svg height="1000" width="1000" xmlns="http://www.w3.org/2000/svg"><path d="M862.278 361.47l19.97 -46.382 -57.447 14.797c-24.363 -18.712 -50.855 -35.927 -78.905 -51.527l-11.027 -93.786 -60.158 59.003C645.235 230.981 614.733 220.014 583.74 210.782L569.722 91.562l-95.941 94.097c-26.274 -4.205 -52.442 -7.101 -78.192 -8.64L342.487 43.62l-82.094 139.056C66.88 213.36 -56.48 347.535 76.218 621.839 458.859 722.866 814.337 343.16 845.622 880.024 1039.86 669.918 998.546 487.837 862.278 361.467zM425.764 625.633c-76.38 14.518 -159.14 27.334 -244.745 21.853 87.214 224.507 406.188 450.558 511.176 179.365C488.758 894.889 507.25 719.738 425.764 625.634z"/></svg>