<svg height="1000" width="1000" xmlns="http://www.w3.org/2000/svg"><path d="M867.035 300.143C781.507 161.375 628.058 69.003 499.559 24.908 455.995 38.8 412.657 57.909 370.825 81.864l165.644 128.99 -45.216 45.712 162.371 123.988L349.051 285.39l62.34 -60.153L245.909 172.711c-40.976 37.16 -78.496 79.768 -110.816 127.43 88.356 237.311 88.356 283.642 0 520.958 238.987 182.507 491.065 191.146 731.943 0 -72.289 -237.313 -72.294 -283.64 0 -520.957zm-120.65 261.79c-61.4 -30.677 -121.416 -49.925 -180.834 -57.54 -23.464 148.652 -22.879 297.306 4.847 445.958H453.841c36.046 -148.99 30.649 -297.977 4.466 -446.963 -61.135 6.778 -122.136 26.205 -183.875 58.545V422.86c155.35 -43.686 326.531 -29.263 471.953 0v139.072z"/></svg>