<svg height="1000" width="1000" xmlns="http://www.w3.org/2000/svg"><path d="M924.937 50.252c-81.757 18.18 -163.513 31.85 -245.27 40.19L541.894 354.346l90.63 40.238L408.136 763.8l80.85 -330.651 -43.916 -20 -139.145 38.884 115.837 -97.988L506.859 99.831C372.465 100.511 238.072 85.218 103.677 50.252h-.001c59.57 50.764 102.957 185.535 102.957 344.128 0 86.497 -13.48 165.04 -34.717 227.497C232.623 761.16 339.47 860.562 522.688 963.695 701.22 868.642 803.524 775.387 861.488 636.888 837.111 572.424 821.98 487.791 821.98 394.381c-.003 -158.595 43.385 -293.366 102.956 -344.13z"/></svg>