<svg height="1000" width="1000" xmlns="http://www.w3.org/2000/svg"><path d="M17.026 97.041v-.002l-.003 -.002zm476.866 376.86L614.68 594.69l121.594 119.983 119.17 120.784 120.73 119.117V812.454L416.07 252.354l83.114 -83.115 -53.953 -53.953L310.507 250.011C267.01 227.918 226.106 198.448 190.96 163.31 149.11 121.47 116.338 72.52 93.925 20.14 55.497 31.704 29.412 56.833 17.025 97.038c96.904 41.47 181.795 121.936 229.904 216.548L115.294 445.22l53.953 53.953 83.975 -83.975 549.853 549.853h54.056l-8.932 -1.56 -18.527 -102.27 -102.26 -18.518 -17.714 -101.46L607.424 722.722 588.91 620.457l-102.27 -18.524L468.126 499.668 366.66 481.955 342.501 348.28l35.433 6.443 -.801 .805L493.89 473.9z"/></svg>