<svg height="1000" width="1000" xmlns="http://www.w3.org/2000/svg"><path d="M966.637 481.534l-.002 -.005c-40.308 15.002 -104.109 33.645 -168.578 -21.656L609.237 297.908 795.479 138.153 700.842 27.825l-203.235 174.33L294.371 27.825l-94.637 110.328 186.243 159.755L197.155 459.875c-64.47 55.3 -128.27 36.657 -168.579 21.656v.003c-26.89 67.723 5.889 130.065 94.437 105.769C75.055 669.314 62.511 817.64 182.72 931.197c107.592 101.643 284.457 -57.804 185.158 -130.72C330.363 772.93 294.585 741.497 279.199 702.91 346.513 642.49 383.076 593.289 341.102 530.507c10.564 -10.765 22.482 -21.883 35.878 -33.374l120.625 -103.47 120.625 103.47c13.396 11.491 25.314 22.608 35.879 33.374 -41.976 62.781 -5.411 111.985 61.903 172.403 -15.387 38.589 -51.165 70.021 -88.679 97.567 -99.298 72.917 77.567 232.364 185.158 130.72C932.7 817.64 920.155 669.314 872.197 587.303c88.55 24.296 121.329 -38.046 94.438 -105.769zm-694.73 192.343c-3.34 -31.062 6.79 -66.424 37.825 -107.392l-37.825 107.392zM685.483 566.485c31.036 40.968 41.163 76.33 37.825 107.392L685.483 566.485z"/></svg>