<svg height="1000" width="1000" xmlns="http://www.w3.org/2000/svg"><path d="M865.779 863.085L809.797 789.01l-16.523 12.426C665.273 665.796 619.85 538.125 556.851 394.146c19.79 -43.929 40.484 -87.417 63.346 -129.756l29.99 17.37C751.06 158.07 782.002 438.894 719.967 555.468 923.946 503.216 1100.902 172.119 874.89 41.633 819.08 138.3 736.586 110.967 602.261 33.173l-95.323 165.625 25.111 14.543c-11.652 20.19 -22.399 39.97 -32.44 59.39a1464.69 1464.69 0 00-32.44 -59.392l25.109 -14.543L396.955 33.173c-134.326 77.795 -216.82 105.127 -272.63 8.46C-101.682 172.12 75.273 503.216 279.249 555.471 217.214 438.897 248.157 158.073 349.03 281.76l29.99 -17.369c22.864 42.34 43.557 85.827 63.348 129.759 -63 143.977 -108.423 271.65 -236.423 407.288L189.42 789.01l-55.98 74.075 4.883 3.672a1172.12 1172.12 0 01-13.318 11.615c19.31 36.625 57.314 56.82 99.675 73.19a715.503 715.503 0 0012.008 -10.825l24.468 18.404 55.98 -74.075 -15.827 -11.904c87.625 -103.66 144.41 -224.938 198.3 -348.289 53.888 123.35 110.675 244.627 198.3 348.288l-15.829 11.906 55.983 74.075 24.47 -18.404a724.39 724.39 0 0012.006 10.822c42.36 -16.369 80.365 -36.564 99.676 -73.189A1191.848 1191.848 0 01860.896 866.76l4.881 -3.672z"/></svg>