<svg height="1000" width="1000" xmlns="http://www.w3.org/2000/svg"><path d="M817.117 251.618l121.767 9.808c8.412 -10.608 21.5 -63.971 8.412 -77.025L818.653 55.758c-13.088 -13.088 -66.417 0 -77.026 8.376l9.772 121.767 65.718 65.718zm132.905 576.887a308.682 308.682 0 004.335 4.543C859.387 733.768 913.359 549.706 765.29 355.561l45.548 -60.838L708.33 192.221l-60.838 45.558C460.953 95.54 283.751 139.732 182.087 59.204l-.039 -.441 -7.694 -6.059A173.884 173.884 0 01170.007 48.7c1.42 1.385 2.85 2.74 4.283 4.086l-.002 .417 52.921 610.259L24.453 890.339l88.264 88.264L333.484 781.322l616.537 47.186zm-7.382 -8.178L342.37 773.378 675.073 476.066l33.677 -44.983c143.271 170.58 151.065 294.382 233.89 389.244zM182.148 59.91c94.941 83.303 218.905 90.833 389.839 234.412l-45 33.697L234.233 655.6 182.148 59.91zm49.441 686.88L641.881 336.499l61.704 -37.03 -37.03 61.704L256.265 771.464 231.589 746.79z"/></svg>