<svg height="1000" width="1000" xmlns="http://www.w3.org/2000/svg"><path d="M266.924 571.17L56.171 784.845c105.471 343.381 454.021 75.951 264.665 -108.812 -38.068 -37.146 -56.37 -75.34 -53.912 -104.861zm-9.031 94.843c18.992 13.767 34.2 28.034 46.09 42.452C247.299 715.622 145.5 793.428 124.049 849.81 115.086 836.083 106.914 819.87 99.847 800.902L257.893 666.013zM144.056 875.151c57.893 -6.832 155.72 -89.818 177.122 -141.896 69.888 122.776 -80.941 241.79 -177.122 141.896zM385.622 592.69c-23.53 18.23 -46.895 36.42 -69.903 54.58L376.17 748.73c41.576 -24.874 82.893 -50.611 123.226 -77.093 40.333 26.48 81.651 52.217 123.226 77.093l60.45 -101.46c-23.007 -18.16 -46.372 -36.348 -69.902 -54.579C845.246 421.631 1013.056 226.763 945.981 35.574 876.616 199.327 692.704 353.829 499.395 504.579 306.087 353.83 122.177 199.327 52.812 35.574 -14.263 226.76 153.547 421.629 385.622 592.69zm292.334 83.34c-189.355 184.764 159.195 452.195 264.666 108.813L731.868 571.171c2.458 29.518 -15.842 67.713 -53.912 104.86zm-.343 57.224c21.404 52.078 119.23 135.064 177.124 141.896C758.557 975.046 607.725 856.03 677.613 733.255zm221.329 67.648c-7.065 18.968 -15.238 35.18 -24.202 48.907C853.292 793.428 751.492 715.623 694.807 708.466c11.89 -14.418 27.1 -28.685 46.09 -42.452l158.045 134.889z"/></svg>