<svg height="1000" width="1000" xmlns="http://www.w3.org/2000/svg"><path d="M751.889 684.516L886.227 550.178l-55.61 -55.609c-21.672 42.616 -47.598 81.898 -76.96 118.124C708.7 567.79 664.43 523.84 620.181 481.023 750.472 342.507 868.356 198.46 958.648 28.167 785.58 124.62 639.153 239.323 498.588 366.782 358.027 239.324 211.6 124.622 38.532 28.167c90.292 170.292 208.174 314.338 338.466 452.856C332.75 523.838 288.48 567.787 243.525 612.69c-29.36 -36.226 -55.29 -75.508 -76.961 -118.123l-55.61 55.61 134.34 134.34C194.03 769.684 121.448 833.538 38.628 887.148l54.717 54.718c54.217 -82.212 120.41 -152.46 202.951 -206.347L430.32 869.543l55.61 -55.61C445.055 790.317 405.85 764.176 369.082 735.293c43.623 -43.54 86.944 -86.38 129.509 -129.145 42.564 42.765 85.887 85.606 129.51 129.145 -36.767 28.884 -75.974 55.023 -116.848 78.64l55.61 55.61L700.889 735.517c82.542 53.888 148.732 124.134 202.949 206.345l54.717 -54.717C875.736 833.535 803.155 769.682 751.89 684.515z"/></svg>