<svg height="1000" width="1000" xmlns="http://www.w3.org/2000/svg"><path d="M908.594 729.258l-.002 -.005C779.906 685.513 669.63 617.333 574.542 530.515l-47.434 47.433c86.803 96.954 157.96 206.59 207.365 325.43 44.673 107.453 186.347 25.272 82.335 -82.336 122.993 89.27 207.597 -52.42 91.786 -91.784zM477.526 429.662C391.363 328.264 319.758 209.684 259.344 80.004c-39.492 -84.77 -173.006 -1.2 -94.486 94.484C70.703 87.525 -13.187 209.12 85.218 254.128c124.494 56.939 241.16 133.226 343.026 224.816l49.282 -49.283zM96.366 728.251C402.557 624.178 604.55 381.798 745.617 79c39.495 -84.77 173.006 -1.199 94.485 94.484 94.155 -86.963 178.046 34.631 79.64 79.64 -285.822 130.726 -530.417 363.4 -649.249 649.25C225.82 1009.832 84.145 927.645 188.157 820.04 65.164 909.31 -19.44 767.62 96.367 728.255v-.004z"/></svg>