<svg height="1000" width="1000" xmlns="http://www.w3.org/2000/svg"><path d="M971.37 222.668L848.89 353.656 803.411 191.664l-101.737 140.77 -48.355 -109.77 -81.414 144.007 -79.791 -138.89 -67.11 140.793L328.736 222.667 290.96 352.002 180.55 205.12l3.757 173.887L23.753 222.667l137.243 445.571c24.226 49.654 140.128 88.044 344.325 92.047 216.06 4.24 347.32 -34.204 370.201 -92.052l-.003 .005 95.852 -445.571zM208.066 646.626c-26.835 0 -48.587 -21.757 -48.587 -48.586s21.752 -48.586 48.587 -48.586c26.835 0 48.587 21.757 48.587 48.586 0 26.834 -21.752 48.586 -48.587 48.586zm169.303 46.763c-26.835 0 -48.587 -21.756 -48.587 -48.586s21.752 -48.585 48.587 -48.585 48.587 21.756 48.587 48.585c0 26.832 -21.752 48.586 -48.587 48.586zm255.9 0c-26.835 0 -48.587 -21.756 -48.587 -48.586s21.752 -48.585 48.587 -48.585 48.587 21.756 48.587 48.585c0 26.832 -21.752 48.586 -48.587 48.586zM821.44 646.626c-26.835 0 -48.587 -21.757 -48.587 -48.586s21.752 -48.586 48.587 -48.586c26.835 0 48.587 21.757 48.587 48.586 0 26.834 -21.752 48.586 -48.587 48.586z"/></svg>