<svg height="1000" width="1000" xmlns="http://www.w3.org/2000/svg"><path d="M651.9 251.005C422.136 118.349 168.559 127.4 85.526 271.217S121.443 639.16 351.21 771.816s483.34 123.61 566.374 -20.207C1000.618 607.787 881.667 383.662 651.9 251.005zm204.377 438.147C801.25 784.462 607.214 775.454 422.89 669.031S133.743 399.074 188.77 303.764s249.065 -86.304 433.39 20.117 289.146 269.958 234.117 365.27zM773.412 375.997c12.689 -48.555 64.097 -93.21 97.336 -121.095C833.726 244.493 738.548 265 713.226 289.538zM275.333 164.447C241.986 150.924 202.01 107.663 185.611 63.99 165.976 97.063 167 154.947 176.237 200.205zm247.817 28.808C491.449 143.428 484.522 82.83 497.39 48.51c-35.749 20.062 -73.898 94.71 -84.78 124.934zm87.014 559.634C651.722 727.755 674.324 661.087 671 626.87c27.52 26.86 41.62 104.877 44.139 134.913zM858.55 470.9c47.16 11.615 81.319 3.897 103.162 -22.652 .47 38.448 -15.771 80.144 -35.225 103.16zm-770.37 19.52c-.98 48.56 -17.284 79.557 -48.572 93.795 37.013 10.404 81.494 5.503 108.764 -7.331zM371.498 644.73c-11.621 -47.153 11.705 -112.518 38.245 -134.36 -38.445 -.471 -95.747 46.98 -118.758 66.438zm184.934 198.053c33.643 35.041 36.233 84.08 24.171 116.265 33.53 -18.808 69.32 -69.333 79.523 -97.684zm-122.69 -32.011c-48.562 1.02 -103.156 57.14 -124.996 83.675C308.274 856.004 334.45 777.85 347.28 750.584zm422.917 -20.72c47.163 7.997 81.32 29.914 103.163 65.547 .477 -38.253 -15.772 -86.7 -35.229 -117.812zM140.999 357.984c33.144 -14.017 92 -11.7 134.473 7.589 -9.497 -37.265 -51.153 -77.47 -89.686 -102.946zm503.243 -24.41c-35.71 4.436 -85.526 35.869 -112.662 73.81 -10.408 -37.02 5.564 -92.666 26.197 -133.995z"/></svg>