<svg height="1000" width="1000" xmlns="http://www.w3.org/2000/svg"><path d="M718.166 301.085l67.187 -256.23L611.12 179.233 488.129 48.271l-122.99 130.962L205.707 55.105l63.773 245.98h448.685zM664.377 187.28c26.418 0 47.83 21.414 47.83 47.835 0 26.414 -21.412 47.829 -47.83 47.829s-47.829 -21.414 -47.829 -47.829 21.411 -47.835 47.83 -47.835zM487.78 162.57l48.263 44.124 -48.263 63.448 -48.263 -63.448L487.78 162.57zm-166.11 24.712c26.418 0 47.83 21.414 47.83 47.835 0 26.414 -21.412 47.829 -47.83 47.829s-47.829 -21.414 -47.829 -47.829 21.411 -47.835 47.83 -47.835zm175.818 252.754C404.466 265.386 172.313 330.444 166.518 515.023c-6.176 196.724 251.301 246.536 330.97 442.93C572.911 761.586 823.526 699.936 829.433 515.023 835.733 317.89 590.35 280.053 497.488 440.035z"/></svg>