<svg height="1000" width="1000" xmlns="http://www.w3.org/2000/svg"><path d="M524.999 117.45L393.754 226.332l58.54 430.193 75.784 53.153 80.25 -50.07L654.18 230.432zM753.09 403.625l79.264 -140.323L800.3 198.443l-55.307 24.636 -53.119 154.895 12.38 61.897zM287.885 349.021l6.774 -53.732L217.335 179.623l-51.394 -20.998 -4.312 56.973 77.324 115.627zM861.27 457.726L754.107 480.88l-137.926 330.36 30.24 67.226 91.951 -6.217L905.37 558.062zM192.423 422.924l-38.03 126.778L352.09 861.243l70.949 22.667L442.1 825.465 315.106 431.021z"/></svg>