<svg height="1000" width="1000" xmlns="http://www.w3.org/2000/svg"><path d="M818.925 695.32a62.59 62.59 0 00.82 -9.983c0 -32.453 -25.292 -62.333 -67.755 -86.136C875.207 463.571 871.343 253.652 740.382 122.69 605.429 -12.263 386.63 -12.263 251.678 122.69 120.715 253.653 116.853 463.573 240.073 599.204c-42.46 23.803 -67.752 53.68 -67.752 86.132 0 4.199 .448 8.352 1.277 12.458 -49.129 29.42 -78.166 65.754 -78.166 105.082 0 98.046 180.398 177.53 402.936 177.53s402.935 -79.481 402.935 -177.53c0 -40.438 -30.7 -77.712 -82.378 -107.557zM277.338 149.188c120.835 -120.834 316.743 -120.834 437.576 0s120.835 316.74 0 437.576C654.86 646.819 576.26 677.01 497.552 677.372 445.791 677.22 394.06 664.172 347.6 638.206c-.59 .104 -1.17 .216 -1.757 .321 -24.557 -13.656 -47.65 -30.908 -68.504 -51.763C156.504 465.93 156.504 270.02 277.338 149.188zm456.573 136.6c-28.151 28.151 -86.71 15.235 -130.793 -28.85s-57 -102.642 -28.85 -130.793c28.151 -28.152 86.71 -15.236 130.794 28.85s57 102.642 28.85 130.793zm-189.55 347.391C488.04 689.503 370.878 663.66 282.674 575.456S168.627 370.09 224.95 313.767c56.323 -56.323 173.485 -30.48 261.688 57.724s114.047 205.365 57.724 261.688z"/></svg>