<svg height="1000" width="1000" xmlns="http://www.w3.org/2000/svg"><path d="M971.102 277.636l.944 -.944 -18.359 -236.3L716.562 21.216l-.944 .944 -.003 -.003v.005l-274.31 274.31 .216 2.677 -2.68 -.217 2.897 2.898 14.321 177.035 -64.29 -64.288c-8.858 83.291 -56.357 127.957 -138.23 138.23l36.13 36.127L33.318 844.494v120.713h104.769l263.927 -263.93 37.71 37.71c10.637 -81.505 55.457 -128.85 138.23 -138.23l-62.927 -62.924 176.423 13.706 2.87 2.87 -.208 -2.663 2.671 .207 .003 -.005L971.1 277.638zm-287.189 142.74L675.97 318.107l-103.484 -8.37L726.042 156.18l.419 .022 8.339 103.075 102.265 7.946L683.912 420.375z"/></svg>