<svg height="1000" width="1000" xmlns="http://www.w3.org/2000/svg"><path d="M843.003 413.88l-62.38 -31.98 -143.676 38.497 76.109 -131.825 -6.946 -107.71 -114.735 36.96v-64.536L513.955 37.161 408.889 153.28v175.63l-67.764 -117.37L271.8 177.264l-18.255 84.844 130.509 226.05 -149.16 39.966 -45.616 54.51 66.764 24.4 130.34 -34.923 -54.309 94.065 10.864 122.328 65.953 -30.651v64.557l91.245 129.946 91.246 -129.95v-141.93l42.155 132.757 69.993 53.333 26.4 -83.944L641.38 503.783 801.767 460.81l41.236 -46.932zm-355.73 253.067l.002 .002 -28.1 -143.953L378.05 498.561l81.127 -24.433 43.591 -223.332 43.791 224.35 77.74 23.413 -77.74 23.418 -43.79 224.35 -15.497 -79.38z"/></svg>