<svg height="1000" width="1000" xmlns="http://www.w3.org/2000/svg"><path d="M785.346 485.488V184.02L506.325 22.923 227.305 184.02V484L66.88 576.621v251.007l217.381 125.504L496.012 830.88h18.046l187.506 108.255 17.075 10.572 .651 -.338 6.519 3.764L943.19 827.629V576.622L785.346 485.488zm-58.737 161.29L639.673 596.6c23.769 -19.798 54.328 -31.718 87.679 -31.718 33.09 0 63.442 11.725 87.128 31.248l-87.87 50.647zM200.167 594.954c23.467 -18.803 53.229 -30.073 85.638 -30.073 34.021 0 65.124 12.42 89.09 32.938l-84.939 48.958 -89.79 -51.822zm88.777 -318.581l83.3 48.014a138.023 138.023 0 00-1.469 20.005c0 56.871 34.631 105.65 83.953 126.409v78.735L288.945 453.82V276.373zm273.537 269.04v-75.267c48.532 -21.108 82.481 -69.458 82.481 -125.755 0 -5.294 -.33 -10.508 -.915 -15.644l79.66 -45.599v169.18L562.48 545.414zM671.327 188.797l-80.554 46.43C567.747 217.714 539.029 207.3 507.868 207.3c-29.473 0 -56.75 9.333 -79.104 25.158l-81.547 -47.065L506.324 93.53l165.002 95.267zm-522.616 513.18c0 -5.115 .303 -10.156 .848 -15.123l84.597 48.76v93.359C184.048 808.572 148.71 759.413 148.71 701.976zm190.215 126.415v-89.367l83.513 -47.806c.276 3.553 .46 7.132 .46 10.757 0 56.878 -34.64 105.661 -83.973 126.416zM590.259 701.976c0 -4.2 .219 -8.347 .59 -12.45l79.96 46.088v91.245c-47.494 -21.54 -80.55 -69.336 -80.55 -124.883zm185.32 128.346v-91.297l88.204 -50.49c.43 4.424 .664 8.904 .664 13.441 0 58.737 -36.953 108.827 -88.868 128.346z"/></svg>