<svg height="1000" width="1000" xmlns="http://www.w3.org/2000/svg"><path d="M546.34 877.354c0 27.527 30.226 52.032 62.043 52.032v-.003c31.117 0 63.29 -24.36 63.29 -53.34 0 -57.746 -54.356 -84.263 -63.29 -183.961C601.247 791.62 546.34 821.913 546.34 877.354zM969.395 446.948c21.647 -37.097 .185 -102.022 -35.304 -118.263l-263.777 89.077a346.98 346.98 0 00-7.017 -13.679L882.842 246.808c3.974 -19.296 -3.954 -43.403 -18.22 -62.54s-34.631 -34.31 -55.8 -36.388L584.813 310.279a211.558 211.558 0 00-9.429 -6.638L718.856 78.51C710.743 44.471 661.145 16.836 622.06 18.243l.008 .017c-5.582 .365 -10.939 .8 -15.944 2.26L410.154 327.88C382.833 210.568 360.466 84.261 234.994 138.177c42.55 114.205 54.409 238.921 79.2 330.637C253.872 541.076 160.352 625.28 19.644 685.752v294.526h302.92C413.087 806.968 501.317 684.721 574.234 683.48l11.39 -.424L523.93 505.445l41.27 -13.76 -65.651 -154.11 134.52 181.036 -54.4 14.667 69.48 147.414 291.778 -10.856c30.276 -28.715 34.803 -98.75 5.692 -126.226l-241.941 6.927a308.828 308.828 0 00-.706 -11.228l265.422 -92.362z"/></svg>