<svg height="1000" width="1000" xmlns="http://www.w3.org/2000/svg"><path d="M404.787 890.127L355.291 559.226l-99.425 134.393C169.919 587.578 162.8 433.035 247.744 318.22 328.266 209.377 467.13 169.19 589.165 208.88L572.04 94.358 712.443 73.363C507.217 -31.875 250.116 23.725 108.46 215.199 -33.577 407.191 -11.02 670.203 150.843 835.581L73.878 939.617l330.909 -49.489zM841.901 170.16L922.517 61.19 591.613 110.67l49.489 330.91 95.5 -129.09c82.294 105.863 87.94 257.469 4.28 370.556C661.685 790.098 526.053 830.725 405.502 794.27l16.414 109.725 -148.82 22.256c205.647 107.042 464.318 51.774 606.57 -140.505C1020.342 595.59 999.554 335.79 841.902 170.16z"/></svg>