<svg height="1000" width="1000" xmlns="http://www.w3.org/2000/svg"><path d="M962.81 146.053l14.822 -55.318C938.94 52.002 884.233 38.803 831.718 51.637l-14.823 55.318 26.94 7.219 -60.389 225.37 -15.031 -4.028c-15.636 24.492 -53.32 36.326 -93.856 29.085l-15.032 56.1c25.943 2.365 51.544 5.985 76.846 10.725C652.514 593.476 622.714 793.497 665.68 961.857 792.647 816.68 863.44 646.534 869.799 467.581c24.4 8.645 48.54 18.28 72.427 28.868l15.032 -56.1c-38.727 -13.996 -65.447 -43.086 -66.742 -72.115l-15.032 -4.027 60.389 -225.37 26.938 7.217zM793.487 486.13c-19.944 -5.343 -31.779 -25.845 -26.437 -45.786a38.032 38.032 0 01.752 -2.434 37.244 37.244 0 0114.7 -19.039c.033 -.021 .064 -.044 .096 -.065a37.05 37.05 0 012.804 -1.672c.066 -.036 .131 -.072 .196 -.106a37.16 37.16 0 012.869 -1.374c.094 -.041 .187 -.082 .282 -.121a36.938 36.938 0 012.93 -1.085 37.523 37.523 0 013.34 -.916 37.303 37.303 0 013.443 -.605c.13 -.017 .26 -.03 .39 -.045a37.121 37.121 0 013.136 -.235c.121 -.003 .241 -.003 .364 -.005a37.503 37.503 0 013.226 .065c.098 .007 .195 .018 .292 .025a37.76 37.76 0 013.331 .39c.059 .01 .117 .022 .176 .032a37.474 37.474 0 013.462 .75 37.837 37.837 0 013.396 1.09c.052 .02 .107 .036 .158 .055a37.773 37.773 0 013.105 1.341c.083 .041 .17 .078 .255 .12a36.866 36.866 0 012.848 1.571c.1 .061 .2 .118 .3 .178 .902 .56 1.77 1.16 2.614 1.788 .105 .077 .21 .154 .312 .232a36.41 36.41 0 012.392 1.993c.1 .092 .2 .18 .3 .272a37.538 37.538 0 012.18 2.193c.088 .096 .178 .194 .266 .29a37.386 37.386 0 013.948 5.264c.057 .092 .112 .185 .17 .278a37.744 37.744 0 011.535 2.771c.039 .078 .075 .156 .114 .236a37.149 37.149 0 011.302 2.967c.021 .054 .041 .11 .06 .163a37.437 37.437 0 011.054 3.165c.007 .023 .012 .046 .018 .069a37.196 37.196 0 01.63 17.522 37.425 37.425 0 01-.518 2.234c-5.346 19.939 -25.846 31.774 -45.79 26.432zM562.027 329.811h-15.564V96.492h27.889V39.223c-47.4 -27.398 -103.657 -25.988 -151.061 0v57.27h27.889V329.81h-15.56c-8.764 27.705 -42.101 48.889 -83.13 52.385v58.078c25.67 -4.429 51.337 -7.56 77.002 -9.528 -39.06 178.233 -16.077 379.15 69 530.655C583.558 788.31 607.902 605.638 567.728 431.135c25.808 2.034 51.616 5.095 77.429 9.139v-58.078C604.127 378.7 570.792 357.517 562.026 329.81zm-25.821 101.61c0 20.644 -16.74 37.383 -37.387 37.383s-37.387 -16.74 -37.387 -37.384c0 -.856 .04 -1.705 .097 -2.547a37.245 37.245 0 019.268 -22.187c.029 -.032 .055 -.066 .085 -.098a37.312 37.312 0 012.26 -2.324c.06 -.057 .12 -.117 .182 -.175a37.43 37.43 0 012.394 -2.049c.09 -.07 .177 -.14 .267 -.21a37.28 37.28 0 012.52 -1.786 37.388 37.388 0 012.985 -1.747 18.666 18.666 0 01.395 -.2 36.43 36.43 0 012.776 -1.275c.139 -.057 .277 -.11 .416 -.165a37.135 37.135 0 012.915 -1.022c.136 -.04 .274 -.077 .411 -.117a36.87 36.87 0 013.066 -.755c.122 -.024 .246 -.042 .366 -.065a37.262 37.262 0 013.24 -.475c.089 -.008 .18 -.012 .268 -.02a37.992 37.992 0 013.402 -.164c.024 0 .049 -.002 .073 -.002s.047 .002 .072 .002a37.859 37.859 0 013.428 .166c.085 .007 .17 .011 .255 .019a37.805 37.805 0 013.27 .48c.117 .022 .235 .039 .352 .063a36.612 36.612 0 013.087 .764c.136 .039 .274 .075 .408 .116a37.075 37.075 0 012.923 1.027c.142 .056 .284 .11 .424 .168a37.062 37.062 0 012.768 1.28c.14 .072 .28 .141 .42 .215a37.653 37.653 0 015.477 3.53c.114 .088 .226 .178 .34 .268a37.66 37.66 0 014.757 4.503c.07 .078 .137 .16 .207 .238 .699 .801 1.366 1.63 1.994 2.488 .044 .06 .087 .124 .13 .184a38.114 38.114 0 011.813 2.747c.018 .032 .036 .062 .054 .093a37.19 37.19 0 015.135 16.765 37.215 37.215 0 01.076 2.27zM338.388 420.7l-15.032 -56.1c-40.537 7.241 -78.22 -4.592 -93.857 -29.085l-15.03 4.028 -60.39 -225.37 26.94 -7.219L166.197 51.636C113.68 38.802 58.975 52.001 20.282 90.734l14.822 55.318 26.939 -7.219 60.388 225.372 -15.032 4.027c-1.295 29.03 -28.012 58.119 -66.74 72.116l15.032 56.1c23.888 -10.587 48.025 -20.224 72.426 -28.869 6.36 178.953 77.153 349.099 204.12 494.276 42.968 -168.359 13.165 -368.379 -70.693 -530.43 25.3 -4.741 50.903 -8.361 76.845 -10.726zm-107.524 19.644c5.343 19.941 -6.493 40.442 -26.438 45.786s-40.445 -6.492 -45.788 -26.433a38.035 38.035 0 01-.515 -2.21s0 0 .002 0a37.17 37.17 0 01.63 -17.562c.004 -.015 .007 -.03 .011 -.046a37.688 37.688 0 011.059 -3.18c.02 -.051 .036 -.102 .055 -.15a37.733 37.733 0 012.956 -5.984c.056 -.09 .11 -.18 .166 -.27a37.873 37.873 0 011.758 -2.586c.073 -.097 .146 -.194 .22 -.292a36.787 36.787 0 012.236 -2.68 37.57 37.57 0 012.181 -2.194c.098 -.091 .2 -.18 .299 -.27a36.652 36.652 0 012.393 -1.992c.103 -.079 .21 -.154 .312 -.232a36.736 36.736 0 012.615 -1.788c.098 -.06 .2 -.117 .299 -.178a37.014 37.014 0 012.849 -1.572c.083 -.04 .17 -.078 .254 -.119a37.629 37.629 0 013.105 -1.34c.052 -.02 .107 -.037 .16 -.057a37.999 37.999 0 013.395 -1.09 37.657 37.657 0 013.462 -.75c.058 -.01 .117 -.022 .175 -.032a37.396 37.396 0 013.331 -.39c.098 -.006 .196 -.017 .292 -.024a36.729 36.729 0 013.226 -.065c.121 .003 .243 .002 .364 .005a36.72 36.72 0 013.137 .235c.129 .015 .26 .027 .389 .044a36.422 36.422 0 013.061 .524c.127 .027 .255 .053 .38 .082a37.269 37.269 0 016.27 2 36.973 36.973 0 013.151 1.495c.066 .035 .132 .073 .196 .107a37.33 37.33 0 012.805 1.674c.031 .021 .061 .042 .093 .063a37.242 37.242 0 0114.703 19.041c.275 .8 .532 1.607 .754 2.434z"/></svg>