<svg height="1000" width="1000" xmlns="http://www.w3.org/2000/svg"><path d="M969.798 467.489C953.492 425.347 926.772 393.52 892.712 371.016c32.654 -17.428 60.761 -42.345 81.715 -75.564C935.252 264.206 890.544 246.886 843.667 241.42c18.33 -24.416 30.498 -54.246 33.914 -90.367 -52.894 -5.328 -113.66 -3.092 -169.119 11.031C709.79 130.78 697.447 96.627 666.071 60.824c-50.496 12.87 -96.82 38.88 -128.638 74.05C511.818 95.96 466.827 64.181 410.892 48.948c-37.358 28.768 -57.535 61.223 -63.898 93.675C303.897 119.191 252.151 109.195 194.328 114.431c-3.023 36.26 2.637 67.562 14.81 94.24 -54.79 -.725 -110.33 14.518 -161.604 48.017 24.908 30.615 53.462 55.002 84.567 73.525 -38.89 16.899 -72.235 43.027 -96.016 79.353 45.195 23.04 92.662 37.71 140.104 43.384 -24.148 26.828 -41.124 60.672 -47.557 102.463 53.785 6.824 111.7 4.759 164.354 -8.783 -1.329 31.385 9.17 65.504 35.001 101.03 56.711 -14.963 110.883 -44.257 146.581 -83.072 37.76 99.384 5.013 222.73 -67.472 331.474C346.776 750.707 205.658 812.819 146.633 735.325c-13.029 126.029 16.638 237.154 191.96 246.686 -.299 .319 -.595 .64 -.897 .96h118.309c296.912 7.117 324.441 -144.05 289.115 -294.775 -31.13 52.679 -105.858 58.058 -171.978 87.126 10.53 -40.429 14.847 -81.58 12.294 -122.646 3.26 1.698 6.56 3.311 9.894 4.836 42.714 -29.967 63.314 -63.204 67.778 -96.197 52.091 19.147 111.54 26.894 162.688 26.54 5.515 -37.051 -.027 -68.347 -13.39 -94.59 53.615 1.53 107.781 -7.367 157.393 -25.775zM532.646 374.707a196.604 196.604 0 00-1.581 14.087 291.423 291.423 0 00-19.513 -7.706 152.6 152.6 0 00-13.754 14.708A202.326 202.326 0 00488.19 380a364.405 364.405 0 00-21.8 4.818 222.281 222.281 0 002.433 -13.073 476.23 476.23 0 00-21.903 -2.255 359.949 359.949 0 0011.73 -10.973 427.469 427.469 0 00-15.81 -8.093 478.222 478.222 0 0017.542 -6.543A381.991 381.991 0 00451.02 332c7.535 .114 15.064 .039 22.555 -.248a375.716 375.716 0 00-3.018 -14.21 261.266 261.266 0 0024.115 7.838 229.168 229.168 0 0015.978 -13.507 220.739 220.739 0 007.38 14.596 366.922 366.922 0 0021.18 -5.758 204.171 204.171 0 00-1.823 14.021 523.322 523.322 0 0023.687 1.82 494.17 494.17 0 00-13.513 11.387 437.745 437.745 0 0016.346 8.56 676.646 676.646 0 00-18.082 6.078 295.88 295.88 0 009.62 12.517 501.785 501.785 0 00-22.8 -.385z"/></svg>