<svg height="1000" width="1000" xmlns="http://www.w3.org/2000/svg"><path d="M628.535 523.464l120.982 33.61 -74.326 -47.29L710.518 420.8l-62.567 71.653L620.235 474.82l-74.16 88.614C512.908 516.35 542.179 429.947 587.523 347.407L642.53 290.77l80.833 50.564 26.078 111.522 155.287 42.708L781.448 426.75 756.556 317.602l-87.078 -54.58 46.785 -48.17 82.807 -66.303 -101.834 35.483 -10.57 -4.08L765.397 25.923l-113.04 140.783L566.89 133.714V18.634L528.96 159.813l136.32 52.202 -76.6 79.534c-30.158 16.421 -52.643 15.909 -72.48 4.073l-10.008 -21.63 81.424 -65.193 -96.096 33.483L433.337 116.524l28.055 -61.11 -61.638 43.892L221.943 60.156l176.712 73.696 22.437 48.504 -121.183 25.792 -64.875 -81.022 30.762 88.283 -50.963 10.847L98.666 151.512l51.293 58.5 -77.71 62.224 101.314 -35.303 27.046 30.846L357.42 234.82l-6.27 85.16 40.51 -92.356 46.025 -9.674 45.55 98.469c3.668 19.412 5.252 37.287 4.411 52.882l-87.953 -34.317 80.163 69.17c-11.853 25.188 -37.433 35.528 -80.337 22.644L252.762 329.464l-54.488 36.139 -31.919 -72.77 6.596 89.565 -18.576 12.32L27.539 298.624l119.726 145.928 105.502 -70c21.223 14.585 42.55 29.015 63.922 43.375l-23.62 81.203 -94.9 39.405 124.532 -7.37 26.403 -91.547a8720.632 8720.632 0 0033.366 22.093c96.414 147.72 111.053 368.533 3.79 343.946 17.69 75.211 -47.241 132.182 -106.758 157.794H655.4C520.858 890.07 490.06 746.558 557.909 608.116l70.627 -84.648z"/></svg>