<svg height="1000" width="1000" xmlns="http://www.w3.org/2000/svg"><path d="M801.974 688.526c33.598 17.313 53.656 37.537 53.656 59.364 0 62.652 -160.499 114.16 -357.32 114.16S142.13 810.537 142.13 747.89c0 -21.944 19.715 -41.993 53.657 -59.364h-.005C97.987 715.1 34.816 754.46 34.816 798.121c0 79.983 207.713 144.983 463.491 144.983s463.491 -65 463.491 -144.983c0 -43.505 -62.632 -83.026 -159.824 -109.595zM270.983 634.77c11.19 12.572 24.72 23.777 40.02 33.563L277.51 723.55c92.085 75.348 295.318 85.309 412.805 -.948l-34.53 -44.27C677.678 666.4 697.3 651.558 713.543 633.646 653.853 577.911 677.35 517.795 832.368 445.12v-.016c0 -191.148 -90.29 -424.232 -335.98 -424.232 -243.61 0 -335.98 222.328 -335.98 424.232C306.612 513.67 321.363 587.48 270.984 634.769zM489.376 491.743h.003c0 .002 -.002 .002 -.002 .003 23.596 42.543 42.319 85.082 51.61 127.623 -25.379 18.908 -70.82 21.656 -103.222 0 12.562 -42.543 27.666 -85.082 51.61 -127.623 0 -.002 -.001 -.002 -.001 -.003zm183.73 -180.612c61.797 11.347 70.85 58.42 61.396 118.02l-.003 .006c-60.593 41.027 -125.416 76.383 -202.228 37.135l-2.165 -65.494c83.275 3.462 127.99 -30.409 143 -89.667zM632.89 285.152c-50.438 73.297 -241.632 73.36 -284.206 -.4 90.068 21.191 185.201 20.867 284.206 .4zm-385.213 144c-9.453 -59.6 -.401 -106.674 61.396 -118.021 15.01 59.257 59.725 93.126 143 89.666l-2.165 65.494c-76.807 39.248 -141.632 3.893 -202.228 -37.135l-.003 -.005z"/></svg>