<svg height="1000" width="1000" xmlns="http://www.w3.org/2000/svg"><path d="M651.935 216.91C702.353 166.272 713.22 95.093 676.215 57.925S568.337 31.673 517.92 82.311c-50.414 50.634 -61.285 121.815 -24.28 158.983s107.876 26.25 158.294 -24.385zm120.963 -95.375C1091.503 410.077 300.632 365.555 50.917 64.981c60.5 87.194 147.066 155.613 242.973 206.766L232.37 257.53c58.903 37.268 125.85 68.463 196.112 92.566C315.65 402.938 314.031 573.691 311.393 698.365h79.878l21.195 283.004h202.968l18.75 -283.004h75.805C715.973 588.107 711.03 472.052 654.126 401.19c69.277 7.82 137.068 8.08 199.175 -.168l-51.56 -11.915c180.442 -13.61 245.384 -109.481 -28.844 -267.57z"/></svg>