<svg height="1000" width="1000" xmlns="http://www.w3.org/2000/svg"><path d="M711.526 458.701C715.5 353.88 554.35 287.7 505.46 423.674 456.57 287.7 295.418 353.88 299.394 458.701c3.732 98.33 161.972 140.365 206.066 236.031 44.094 -95.666 202.338 -137.7 206.066 -236.03zM122.294 370.06l150.895 65.16c3.029 -17.688 10.272 -33.941 20.455 -48.013l-64.302 -30.812C286.512 271.8 349.358 216.882 418.317 190.347 341.233 130.288 295.091 92.66 265.783 17.034H135.959c112.502 84.73 152.009 145.138 133.301 204.102C192.662 161.573 111.538 128.556 29.762 99.356l-11.903 69.805c77.997 17.995 155.087 41.287 226.8 96.129 -25.452 32.44 -67.01 66.136 -122.366 104.771zM237.31 671.838L19.798 545.43v99.513c241.066 12.192 313.513 229.197 0 269.456v79.716L309.052 856.322C219.28 749.89 300.905 660.872 393.227 608.302c-11.344 -8.573 -22.696 -17.05 -33.66 -25.591l-122.255 89.126zm754.134 315.45L829.57 791.646C699.06 878.563 610.472 779.3 598.871 615.165c-15.343 11.717 -30.462 23.697 -44.374 36.342l30.605 231.012c107.23 -62.037 300.225 32.253 274.75 104.769h131.593zM964.06 680.915l.002 .002 10.05 -86.434L807.668 630.23c-9.79 -47.12 -10.969 -81.314 43.155 -128.435 -42.61 -6.535 -84.99 -11.62 -127.102 -13.793 -6.818 19.424 -19.205 36.871 -34.876 53.274 71.543 30.124 93.975 81.42 51.346 156.53l223.872 -16.89zM699.964 377.76c10.51 11.925 18.783 25.842 23.883 41.15 65.055 -19.972 126.06 -46.06 183.45 -77.61L723.275 232.1c78.174 -54.487 162.017 -76.01 256.431 -99.697C998.98 10.478 934.616 12.366 832.6 24.808 799.903 107.829 702.548 184.651 578.97 258.143c75.669 6.772 261.18 53.755 120.995 119.62z"/></svg>