<svg height="1000" width="1000" xmlns="http://www.w3.org/2000/svg"><path d="M967.301 960.589L802.825 859.592 909.588 709.546 714.36 759.77 651.794 582.873l-112.17 139.383L436.366 409.452 349.8 692.234 176.67 553.731l72.136 210.642 -190.445 8.658 95.224 95.221 -98.11 92.34h204.667L315 908.863l-33.165 -72.65 110.382 40.167 55.908 -163.683 63.824 181.63 111.365 -83.957 4.005 108.328 124.717 -13.905 -39.7 55.798zM343.374 660.305l7.284 5.828L437.224 383.35l103.258 312.805L652.652 556.77l38.265 108.19V336.687L794.995 207.666V43.149h-95.384v77.598h-58.058V43.15h-96.42v77.598H488.11V43.15h-96.42v77.598h-57.02V43.15h-95.38v164.517l104.085 129.029z"/></svg>