<svg height="1000" width="1000" xmlns="http://www.w3.org/2000/svg"><path d="M969.425 852.813C851.197 868.14 746.492 863.146 655.4 840.509 763.639 749.532 841.109 613.66 863.756 458.698c2.926 -5.844 5.428 -12.15 7.433 -18.826 28.752 14.36 54.307 35.27 73.75 62.002L962.27 389.356 872.793 375.41c-1.606 -5.825 -3.697 -11.275 -6.243 -16.237 5.598 -84.505 -3.815 -176.446 -37.01 -250.813 16.68 -8.961 25.98 -23.676 21.846 -37.341C847.554 58.353 833.216 50.017 815.608 48.567c.35 -2.12 .163 -4.234 -.669 -6.232 -3.445 -8.279 -16.418 -11.45 -28.97 -7.087S766.03 49.862 769.478 58.141c.3 .72 .695 1.385 1.131 2.026C757.597 69.18 750.848 82 754.48 94.012c4.144 13.698 20.577 22.333 40.144 22.669 11.29 72.41 12.219 154.422 -3.8 225.955 -5.77 4.745 -11.112 10.666 -15.827 17.532l-103.95 -16.202 -17.332 112.519c30.75 -22.63 65.928 -35.09 101.594 -38.404a117.758 117.758 0 00.19 20.349C709.073 588.175 623.981 705.41 500.824 778.144 378.56 705.991 293.758 590.035 247.036 442.031c1.007 -7.667 1.244 -15.76 .601 -24.093 36.243 3.072 72.049 15.56 103.284 38.547L333.59 343.966l-105.471 16.439c-4.92 -7.21 -10.536 -13.375 -16.607 -18.258 -15.905 -71.416 -14.949 -153.22 -3.685 -225.464 20.518 .294 38.03 -8.465 42.328 -22.671 3.458 -11.434 -2.492 -23.599 -14.292 -32.516 .91 -1.003 1.664 -2.114 2.18 -3.355 3.446 -8.28 -3.938 -18.528 -16.49 -22.893s-25.526 -1.192 -28.971 7.087c-.81 1.944 -1 3.995 -.689 6.054 -18.903 .737 -34.605 9.282 -38.644 22.63 -3.989 13.182 4.525 27.343 20.106 36.372 -33.667 74.795 -43.145 167.546 -37.396 252.661 -2.385 4.803 -4.35 10.047 -5.871 15.631l-87.72 13.672L59.7 501.873c19.116 -26.28 44.139 -46.933 72.299 -61.27a119.337 119.337 0 004.279 11.736c21.465 157.676 99.735 296.08 209.659 388.298C254.933 863.199 150.31 868.123 32.19 852.81c159.626 115.262 326.235 130.072 468.483 78.085 142.39 51.99 309.119 37.182 468.75 -78.083z"/></svg>