<svg height="1000" width="1000" xmlns="http://www.w3.org/2000/svg"><path d="M927.338 177.267C911.841 370.785 776.14 330.744 776.14 197.069h-.005C776.135 91.493 663.87 52.661 628.879 169.41 549.867 88.64 446.23 90.045 368.045 173.575c-33.059 -123.47 -148.82 -85.102 -148.82 22.11 0 133.675 -135.7 173.717 -151.199 -19.803 -72.489 82.22 -63.455 174.92 2.413 240.783 47.46 47.457 126.241 50.239 192.031 17.416 -5.092 38.018 -7.863 79.349 -7.863 124.05 84.282 84.998 112.207 202.28 112.207 358.344 23.905 22.683 48.6 38.477 73.735 47.579 9.683 -71.652 1.151 -140.701 -1.112 -210.647l54.73 80.357 57.667 -81.348c-1.439 69.992 -7.356 139.982 -1.446 209.975 24.73 -9.39 49.404 -24.743 73.713 -45.915 0 -151.156 16.2 -275.228 122.112 -358.343 0 -43.027 -2.558 -82.94 -7.284 -119.771 64.515 29.715 139.978 25.703 185.996 -20.31 65.868 -65.864 74.903 -158.564 2.413 -240.783zM370.084 606.188c-29.837 0 -56.71 -42.997 -60.024 -96.038s18.182 -96.04 48.02 -96.04c29.836 0 56.709 42.998 60.023 96.04 3.315 53.043 -18.182 96.038 -48.019 96.038zm311.124 -96.037c-3.314 53.042 -30.187 96.04 -60.024 96.04s-51.334 -42.998 -48.02 -96.04 30.188 -96.038 60.025 -96.038 51.336 42.997 48.02 96.038z"/></svg>