<svg height="1000" width="1000" xmlns="http://www.w3.org/2000/svg"><path d="M892.66 244.426L530.548 35.36C483.395 8.137 423.097 24.294 395.872 71.448L75.352 626.606C48.127 673.76 64.286 734.058 111.44 761.283l362.112 209.065c47.153 27.225 107.451 11.066 134.676 -36.087l320.52 -555.159C955.972 331.949 939.813 271.65 892.66 244.426zM461.59 117.818c11.927 -20.657 38.341 -27.736 59 -15.81s27.736 38.343 15.81 58.998c-11.927 20.657 -38.34 27.735 -59 15.81s-27.735 -38.343 -15.81 -58.998zm179.065 283.847c.002 .003 .002 .007 .003 .008l24.751 157.907c0 .002 0 .003 -.002 .005l2.573 16.401L413.562 672 371.46 403.389l254.408 -96.065 14.786 94.34zm-100.3 489.98c-11.928 20.657 -38.342 27.735 -59 15.81s-27.736 -38.342 -15.81 -58.999c11.926 -20.657 38.34 -27.735 59 -15.81s27.735 38.341 15.81 58.999z"/></svg>