<svg height="1000" width="1000" xmlns="http://www.w3.org/2000/svg"><path d="M853.095 70.188H145.27c-41.462 0 -75.073 33.611 -75.073 75.073v707.825c0 41.462 33.611 75.073 75.073 75.073h707.825c41.462 0 75.074 -33.611 75.074 -75.073V145.261c0 -41.462 -33.612 -75.073 -75.074 -75.073zM237.892 857.96c-53.847 0 -97.497 -43.651 -97.497 -97.497s43.651 -97.497 97.497 -97.497 97.497 43.652 97.497 97.497 -43.651 97.497 -97.497 97.497zM499.184 596.67c-53.846 0 -97.497 -43.651 -97.497 -97.497s43.652 -97.497 97.497 -97.497 97.497 43.651 97.497 97.497S553.03 596.67 499.184 596.67zm261.29 -261.292c-53.846 0 -97.496 -43.65 -97.496 -97.496s43.651 -97.497 97.497 -97.497 97.496 43.651 97.496 97.497c-.002 53.846 -43.652 97.496 -97.496 97.496z"/></svg>