<svg height="1000" width="1000" xmlns="http://www.w3.org/2000/svg"><path d="M853.095 70.188H145.27c-41.462 0 -75.073 33.611 -75.073 75.073v707.825c0 41.462 33.611 75.073 75.073 75.073h707.825c41.462 0 75.074 -33.611 75.074 -75.073V145.261c0 -41.462 -33.612 -75.073 -75.074 -75.073zm-92.62 70.196c53.846 0 97.496 43.651 97.496 97.497s-43.65 97.497 -97.496 97.497S662.978 291.726 662.978 237.88s43.651 -97.497 97.497 -97.497zm-522.583 0c53.847 0 97.497 43.651 97.497 97.497s-43.651 97.497 -97.497 97.497S140.395 291.726 140.395 237.88c.002 -53.847 43.651 -97.497 97.497 -97.497zm0 717.577c-53.847 0 -97.497 -43.651 -97.497 -97.497s43.651 -97.497 97.497 -97.497 97.497 43.652 97.497 97.497 -43.651 97.497 -97.497 97.497zm0 -261.291c-53.846 0 -97.496 -43.651 -97.496 -97.497s43.651 -97.497 97.497 -97.497 97.497 43.651 97.497 97.497 -43.651 97.497 -97.497 97.497zM760.476 857.96c-53.847 0 -97.497 -43.651 -97.497 -97.497s43.651 -97.497 97.497 -97.497 97.496 43.652 97.496 97.497c-.002 53.847 -43.652 97.497 -97.496 97.497zm0 -261.291c-53.846 0 -97.496 -43.651 -97.496 -97.497s43.651 -97.497 97.497 -97.497 97.496 43.651 97.496 97.497 -43.65 97.497 -97.496 97.497z"/></svg>