<svg height="1000" width="1000" xmlns="http://www.w3.org/2000/svg"><path d="M945.737 310.192C896.13 265.525 843.837 225.688 790.908 192.1 778.086 143.474 671.872 41.762 608.072 98.769 562.213 30.752 466.7 29.713 399.85 58.509 195.999 42.801 80.214 135.137 36.226 303.088v663.386h369.091C395.011 857.974 416.386 739.28 461.183 660.142c74.927 18.912 163.255 36.84 263.73 57.899 79.672 16.696 110.68 -35.19 131.299 -127.302l-62.429 42.219 -19.56 -86.582 -89.046 60.22L664.15 513.516l-84.343 57.037L558.96 478.268l-85.402 57.75L444.307 406.54l138.111 -93.4 20.849 92.283 85.401 -57.754 21.027 93.082 84.343 -57.037 19.56 86.582 89.046 -60.22 15.017 66.47c40.657 -52.616 68.675 -129.8 28.077 -166.356z"/></svg>