<svg height="1000" width="1000" xmlns="http://www.w3.org/2000/svg"><path d="M573.276 963.165L972.38 905.399 804.338 532.55c-3.183 66.715 -11.698 129.722 -28.652 186.858L624 526.524c-2.007 42.136 -6.992 82.275 -16.484 119.383L449.86 504.61c-2.657 23.353 -6.556 45.83 -12.16 67.108l-89.573 -55.894L968.486 39.451H791.599L236.383 528.605l180.696 99.323a233.053 233.053 0 01-11.088 19.908L132.345 548.573 621.12 39.451H463.5L35.768 562.27 376.257 685.27c-16.022 15.899 -35.205 29.574 -58.235 40.547l221.135 52.776c-21.37 23.173 -47.676 43.03 -79.92 58.894l244.827 24.163c-32.912 41.27 -75.661 75.7 -130.788 101.515z"/></svg>