<svg height="1000" width="1000" xmlns="http://www.w3.org/2000/svg"><path d="M655.04 522.756c28.97 -45.374 50.03 -96.06 61.495 -152.598 -11.04 2.205 -21.863 4.793 -32.508 7.672L322.65 16.437l-128.42 .008L591.57 413.803c-24.082 12.62 -46.643 27.32 -67.487 44.041C498.084 427.066 470.473 403.07 436.067 382.331l-3.3 -3.3c13.05 -33.307 -28.802 -73.548 -71.041 -71.044L72.219 18.465h-56.55v58.158l285.968 285.99c-7.348 41.05 29.679 80.79 68.195 72.963 21.314 37.046 52.329 65.578 84.78 92.873 -15.607 20.258 -29.325 42.21 -41.142 65.553L17.312 197.828V325.47l361.165 361.18a526.775 526.775 0 00-6.996 29.7c53.774 -11.165 103.028 -31.218 146.903 -58.078 134.06 134.066 233.69 205.26 413.386 268.756C883.266 746.004 797.81 665.532 655.04 522.755zm-129.966 30.42L557.5 518.36c85.333 80.945 212.878 219.522 275.315 309.068C744.175 765.471 605.813 638.193 525.074 553.175z"/></svg>