<svg height="1000" width="1000" xmlns="http://www.w3.org/2000/svg"><path d="M483.561 43.258C425.731 50.767 380.58 113.623 380.58 189.483c0 42.015 14.408 79.533 36.596 106.273C296.907 318.362 287.81 520.859 287.81 663.022h83.403l22.127 296.7h211.917l19.576 -296.7h79.152c0 -142.554 2.864 -348.614 -128.51 -368.967 21.234 -26.61 34.893 -63.59 34.893 -104.569 0 -80.916 -51.565 -146.225 -114.896 -146.225 -3.958 0 -8.06 -.513 -11.917 0l.005 -.003zm177.79 -.908c63.334 0 115.017 64.853 115.017 145.766 0 40.983 -14.065 78.163 -35.304 104.77 131.374 20.355 128.68 226.415 128.68 368.97h-78.573l-20.5 297.225h-122.99L667.04 661.855h79.716c0 -142.554 2.693 -348.614 -128.681 -368.97C639.309 266.28 653.378 229.1 653.378 188.116c0 -51.926 -21.571 -97.051 -53.525 -122.99 14.749 -12.148 30.64 -20.391 48.97 -22.776 3.854 -.51 8.568 0 12.529 0zM391.944 65.126c-31.784 26.193 -53.525 71.175 -53.525 122.99 0 42.02 14.253 80.311 36.442 107.052C254.593 317.774 246.174 519.698 246.18 661.855h83.13l21.64 297.226H227.96L206.32 661.855h-84.272c0 -142.158 9.554 -344.081 129.823 -366.687C229.682 268.432 215.43 230.137 215.43 188.116c0 -75.854 44.662 -138.252 102.492 -145.766 3.855 -.513 8.567 0 12.528 0 22.689 0 43.657 8.297 61.494 22.776z"/></svg>