<svg height="1000" width="1000" xmlns="http://www.w3.org/2000/svg"><path d="M856.19 615.981C762.298 546.554 696.026 517.212 612.183 485.533c8.134 -18.649 12.197 -37.177 11.845 -53.977a83.07 83.07 0 0034.635 -2.82 43.102 43.102 0 009.915 15.404c16.898 16.897 44.292 16.893 61.188 -.002 16.897 -16.897 16.898 -44.292 .002 -61.19A43.1 43.1 0 00714.1 372.933c8.262 -28.107 1.31 -59.737 -20.864 -81.912C671.07 268.855 639.46 261.901 611.364 270.145A43.039 43.039 0 00600.67 252.483c-16.897 -16.897 -44.29 -16.895 -61.187 .002s-16.898 44.294 -.002 61.19a43.07 43.07 0 0016.555 10.334 83.075 83.075 0 00-2.606 40.852c-15.992 .306 -33.391 4.465 -50.879 12.202C473.184 301.109 443.3 237.645 378.698 150.273 283.323 21.287 172.504 27.021 232.666 193.802c.27 .75 .555 1.517 .83 2.272C128.123 124.508 53.867 166.11 143.811 304.27 202.38 394.237 307.296 519.977 387.83 531.9c-.066 14.534 3.085 27.85 9.701 38.937C301.314 645.617 116.88 794.495 50.978 831.236c-27.52 91.26 -4.97 154.801 111.453 111.46 34.735 -66.95 187.352 -253.495 263.472 -347.358 12.234 5.145 26.535 6.76 41.832 5.117 -.26 81.848 133.953 194.72 228.561 256.323 142.934 93.053 182.52 10.35 100.357 -100.728a863.385 863.385 0 0016.008 5.963c166.77 60.16 172.507 -50.66 43.528 -146.034z"/></svg>