<svg height="1000" width="1000" xmlns="http://www.w3.org/2000/svg"><path d="M925.567 456.533h.003c-91.114 -8.66 -159.3 -59.819 -181.92 -131.895C730.66 283.248 679.202 253.346 620 235.24 556.328 76.928 513.235 -9.27 313.556 13.34 385.28 69.45 442.73 144.75 472.155 213.792c-57.6 -16.523 -111.651 -25.26 -161.944 -27.413C200.581 162.357 77.603 211.91 41.457 328.788V957.34H456.27C184.534 858.952 113.103 362.549 398.14 457.414c-5.01 14.824 -10.078 28.993 -14.894 42.092 64.039 166.209 221.844 313.335 330.502 327.973 12.94 .465 33.013 -5.315 56.235 -16.321a62.54 62.54 0 01-12.53 -5.487c-24.28 -14.002 -36.442 -42.764 -35.636 -76.066 -22.944 12.047 -47.206 13.959 -66.536 2.81 -28.599 -16.494 -37.81 -56.617 -25.71 -98.14 -22.105 5.403 -43.15 1.795 -56.913 -11.954 -17.307 -17.289 -18.594 -46.07 -6.032 -74.003 -7.17 -1.197 -13.577 -4.221 -18.575 -9.213 -17.17 -17.154 -11.255 -50.873 13.214 -75.317 24.468 -24.442 58.227 -30.352 75.398 -13.199 7.536 7.527 10.621 18.245 9.65 29.968 21.807 -5.117 42.506 -1.428 56.101 12.153 11.997 11.983 16.28 29.496 13.606 48.416 16.671 -4.395 33.119 -3.148 47.014 4.866 18.216 10.506 28.565 30.6 30.558 54.532 29.662 -19.756 62.695 -24.812 88.257 -10.068 30.163 17.394 41.654 57.557 32.765 100.92 46.788 -65.04 67.45 -147.652 10.956 -234.842z"/></svg>