<svg height="1000" width="1000" xmlns="http://www.w3.org/2000/svg"><path d="M29.886 25.331v119.571c149.552 105.672 307.792 287.76 126.408 244.844 111.371 107.378 203.03 52.23 339.361 264.201 59.316 92.226 14.57 157.046 -58.08 176.515C344.211 855.48 214.593 771.092 324.833 724.557c-115.625 -2.825 -130.56 93.553 -75.517 156.458 -54.462 -18.79 -89.716 -66.9 -83.913 -118.178 -70.28 94.14 -10.455 181.898 105.907 199.732h696.944V290.68c-30.712 -137.097 -185 -171.134 -201.566 -6.835 28.487 -71.02 99.37 -40.215 163.987 36.443 -21.997 -14.62 -47.264 -22.41 -70.605 -21.64 -38.472 1.268 -72.846 23.567 -80.856 71.747 109.007 -89.917 165.02 67.698 120.391 149.905C851.355 609.182 714.576 480.387 714.304 372.67c-54.55 60.905 -15.236 211.17 102.117 238.959C594.02 587.483 668.329 356.67 576.51 307.762 632.526 556.645 237.361 121.391 128.963 25.342L29.886 25.33z"/></svg>