<svg height="1000" width="1000" xmlns="http://www.w3.org/2000/svg"><path d="M961.141 457.673L908.358 563.69 850.154 255.491l1.439 254.418L712.932 220.946l72.066 306.665 169.763 353.027 -22.52 -180.175zm-672.69 212.101l289.19 194.41L288.446 834.962l282.271 70.676 -103.126 38.676 224.327 -9.834 198.646 24.834zM106.557 620.086l90.969 105.445 140.19 27.313zm28.508 -466.562c-36.861 39.314 -58.63 90.056 -67.69 140.718l748.854 555.364L72.99 425.376c9.988 32.648 26.765 58.406 49.13 71.318h.003l800.8 426.827L496.095 122.715C466.782 13.319 242.744 38.676 135.065 153.525z"/></svg>