<svg height="1000" width="1000" xmlns="http://www.w3.org/2000/svg"><path d="M982.554 544.787C902.594 455.83 820.89 376.481 739.992 305.64 612.475 193.976 487.474 104.95 374.44 33.465H230.903C349.42 105.22 499.678 214.175 601.308 331.06 429.638 289.026 208.379 202.073 33.939 126.988v119.434c.333 .145 .667 .289 1 .433l-9.112 -2.866c339.275 148.613 696.48 258.236 956.614 300.868l-.616 -.194c.243 .041 .489 .083 .73 .122zm-866.319 19.917c-5.82 21.773 -37.151 79.008 -37.151 104.917 0 35.117 28.199 63.693 63.298 62.825 35.102 -.868 63.295 -31.46 63.3 -66.576 0 -26.064 -32.568 -81.394 -38.531 -102.943C143.5 477.426 190.58 354.022 249.535 344.679 186.421 320.505 123.08 294.815 60.223 267.797c43.72 44.944 77.649 215.945 56.012 296.906zm367.723 237.769c-6.326 23.078 -40.054 84.562 -40.049 112.23 .002 37.275 29.032 66.09 66.29 65.795s67.672 -29.576 67.672 -66.851c0 -27.497 -31.027 -89.176 -38.672 -111.609 -28.767 -84.43 -7.744 -280.337 41.43 -275.27 42.94 4.419 49.414 95.795 31.767 155.876 -4.064 13.83 -23.477 49.839 -23.48 66.503 .002 22.455 17.606 39.93 40.05 39.752 22.442 -.183 40.048 -17.93 40.053 -40.385 0 -16.566 -17.491 -52.63 -22.098 -66.145C628.83 629.264 660.047 507.953 702.575 493.366 599.775 465.637 490.51 431.571 378.91 392.25c108.737 74.906 130.305 318.101 105.047 410.226zm441.578 -257.03C863.716 533.56 797.397 518.327 727.903 500.1 776.414 538.333 796.04 658.522 769.451 758c-7.236 27.069 -46.182 98.216 -46.185 130.421 0 43.652 35.05 79.173 78.685 78.1 43.635 -1.076 78.685 -39.107 78.685 -82.76 0 -32.398 -40.486 -101.179 -47.895 -127.967 -29.35 -106.107 25.948 -196.041 92.796 -210.352z"/></svg>