<svg height="1000" width="1000" xmlns="http://www.w3.org/2000/svg"><path d="M957.21 29.263C878.936 164.833 713.503 232.326 548.637 220.231 431.765 299.053 210.198 402.963 36.246 438.723v283.11C503.218 570.217 1023.855 461.037 957.209 29.264zm-120.312 508.36c0 29.536 29.197 51.247 57.439 51.247v.003c28.875 0 56.313 -20.302 56.313 -48.348 0 -56.51 -41.384 -78.844 -56.313 -162.651 -14.449 83.965 -57.439 100.88 -57.439 159.748zM433.537 665.265c0 22.682 -24.966 40.99 -24.966 61.674 0 24.864 22.824 42.433 46.883 42.433 23.53 0 48.085 -19.687 48.085 -45.873s-27.343 -40.837 -27.343 -61.928c.002 -34.163 13.62 -60.72 34.644 -79.579 -41.606 16.093 -84.792 31.398 -128.96 46.256 30.393 -.677 51.657 10.803 51.657 37.017zM170.54 805.686c-12.7 63.456 -45.74 77.82 -45.74 124.415 0 24.077 23.802 41.776 46.827 41.776 23.541 0 45.905 -16.552 45.905 -39.411 0 -44.835 -31.95 -63.302 -44.878 -127.243 8.014 -62.842 55.428 -113.221 107.71 -143.93 -54.94 17.422 -110.672 34.553 -166.155 51.994 24.91 9.66 47.136 34.318 56.33 92.399zM815.553 416.715c-60.859 51.102 -137.344 93.839 -223.287 131.727 60.389 -5.898 125.212 20.524 142.678 80.322C709.295 739.97 653 775.09 653 856.687c0 42.978 42.051 74.096 86.309 74.096 43.285 0 88.036 -33.279 88.036 -78.546 0 -85.261 -58.834 -113.12 -83.995 -224.518 19.949 -111.17 45.427 -170.481 72.204 -211.005z"/></svg>