<svg height="1000" width="1000" xmlns="http://www.w3.org/2000/svg"><path d="M714.27 621.122c9.854 -109.85 71.013 -68.889 67.428 101.54l34.824 113.693c11.01 -96.86 88.31 -116.095 97.041 3.426l10.735 -606.402L698.995 462.233l15.276 158.888zM602.3 771.4c13.423 -130.161 71.937 -146.851 75.693 -86.968L692.486 458.95 515.347 656.62c33.186 -30.683 67.577 -2.215 86.953 114.78zM790.954 77L276.892 591.077C239.634 540.33 210.335 485.766 193.124 431.333c-145.35 115.82 -38.584 211.763 46.758 261.034C187.98 762.794 127.325 817.172 64.563 867.68c0 50.25 30.444 75.01 74.997 75C188.697 876.495 243.93 815.375 314.876 767.367c41.74 72.294 127.898 189.627 265.9 51.62 -58.15 -18.382 -113.104 -49.805 -164.603 -88.64L930.235 216.27l15.63 -153.567L790.955 77z"/></svg>