<svg height="1000" width="1000" xmlns="http://www.w3.org/2000/svg"><path d="M787.148 34.542C755.428 218.885 678.443 296.878 638.147 393.427 586.458 294.455 531.115 178.265 500.268 5.168c-31.321 181.96 -91.744 295.59 -146.973 393.126C313.796 301.876 241.165 215.214 208.981 34.541 165.076 289.697 34.427 341.097 34.427 519.983c0 89.755 88.725 155.733 174.552 155.733 10.426 0 20.784 -.884 30.954 -2.563 -2.908 21.442 -4.487 44.056 -4.487 68.207 0 136.117 134.615 236.174 264.823 236.174 133.14 0 259.62 -93.564 259.62 -222.792 0 -29.251 -2.413 -56.51 -6.784 -82.411 11.258 2.22 22.676 3.385 34.044 3.385 87.755 0 171.122 -61.697 171.122 -146.91 0 -171.72 -125.754 -239.591 -171.122 -494.265zM207.287 658.028c-85.075 0 -154.044 -69.892 -154.044 -156.107S122.211 345.814 207.287 345.814c32.927 0 63.44 10.477 88.477 28.313a83.447 83.447 0 00-26.496 -4.311c-48.003 0 -86.917 40.651 -86.917 90.8s38.913 90.8 86.917 90.8c1.391 0 2.773 -.043 4.148 -.11 -13.282 32.117 -23.869 65.625 -30.453 102.51a152.6 152.6 0 01-35.676 4.214zm290.37 289.54c-122.393 0 -221.614 -100.514 -221.614 -224.504 0 -21.913 3.113 -43.088 8.893 -63.111a224.724 224.724 0 0111.27 -30.547s-.003 .002 -.003 .002c13.341 -29.401 32.76 -55.385 56.64 -76.287 0 .002 0 .003 -.001 .003a217.761 217.761 0 016.114 -5.146c.217 -.176 .433 -.356 .651 -.53a223.374 223.374 0 0120.434 -14.675s0 -.001 0 -.001c34.088 -21.67 74.404 -34.21 117.616 -34.21 42.302 0 81.832 12.011 115.457 32.844a219.093 219.093 0 016.151 3.966c.307 .204 .615 .408 .922 .613a221.747 221.747 0 016.134 4.273c.014 .01 .027 .021 .042 .031 .543 .394 1.07 .81 1.61 1.21 -15.83 -7.567 -33.418 -11.816 -51.964 -11.816 -69.06 0 -125.043 58.46 -125.043 130.578s55.983 130.58 125.043 130.58S701.053 732.375 701.053 660.26c0 -13.318 -1.92 -26.165 -5.47 -38.269a222.89 222.89 0 017.482 16.685 225.135 225.135 0 016.797 19.513c6.112 20.542 9.41 42.316 9.41 64.876 0 123.988 -99.22 224.502 -221.615 224.502zm287.799 -289.54a152.386 152.386 0 01-35.863 -4.277C732.213 570.8 694.848 500.887 653.146 421.946c26.895 -45.596 76.08 -76.132 132.309 -76.132 31.752 0 61.26 9.74 85.776 26.428a83.478 83.478 0 00-30.321 -5.69c-48.003 0 -86.917 40.65 -86.917 90.799s38.913 90.8 86.917 90.8c48.005 0 86.918 -40.655 86.918 -90.8a94.91 94.91 0 00-2.19 -20.222c8.897 19.737 13.86 41.677 13.86 64.793 0 86.216 -68.967 156.107 -154.043 156.107z"/></svg>