<svg height="1000" width="1000" xmlns="http://www.w3.org/2000/svg"><path d="M786.329 613.3c52.934 25.188 85.411 56.999 85.411 91.996 0 80.754 -168.676 145.926 -376.943 145.926 -208.265 0 -376.944 -65.17 -376.944 -145.926 0 -34.997 32.477 -66.813 85.411 -91.997C102.91 645.816 38.141 695.072 38.141 749.71c0 97.82 204.383 177.652 456.656 177.647S951.453 847.53 951.453 749.711c0 -54.637 -64.769 -103.895 -165.124 -136.41zM494.795 809.987c136.98 0 248.257 -43.64 248.257 -96.755 0 -29.853 -36.015 -55.31 -91.104 -72.963 29.131 13.72 47.83 30.025 47.83 49.171 0 43.847 -91.903 79.307 -204.983 79.307S289.812 733.286 289.812 689.439c.002 -19.148 18.7 -35.452 47.83 -49.173 -55.088 17.653 -91.105 43.112 -91.105 72.964 0 53.114 111.278 96.755 248.258 96.755zm-10.258 -634.23c.002 .035 .003 .07 .005 .103 .002 -.036 .003 -.07 .007 -.106l-.012 .003zm5.7 543.21c86.88 0 162.073 -67.004 201.566 -165.284 -12.508 13.577 -24.747 21.462 -35.305 22.284 -31.737 2.467 -44.564 -58.384 -38.72 -153.212 -12.87 26.92 -27.702 43.643 -43.274 43.643 -44.542 0 -81.342 -124.771 -89.962 -290.537 -8.616 165.764 -45.418 290.533 -89.961 290.533 -11.049 0 -22.065 -8.205 -31.886 -22.284 2.519 81.83 -9.569 134.123 -38.72 131.856 -10.552 -.82 -22.797 -8.706 -35.304 -22.284 39.491 98.279 114.685 165.284 201.566 165.284zM530.264 86.14c0 26.24 -21.271 47.51 -47.51 47.51S435.243 112.38 435.243 86.14s21.271 -47.51 47.51 -47.51 47.511 21.27 47.511 47.51z"/></svg>