<svg height="1000" width="1000" xmlns="http://www.w3.org/2000/svg"><path d="M788.396 771.928c-30.269 -3.48 -55.76 -29.093 -59.51 -47.597 25.393 -5.074 44.853 -32.01 44.853 -64.093 0 -35.71 -24.436 -65 -54.02 -65 -2.866 0 -9.166 -1.422 -11.911 -.907L633.64 283.965V31.269l-99.78 -.024V788.4l49.437 -35.711s17.525 53.946 67.745 108.039 200.514 108.039 200.514 108.039V752.713s-42.402 23.284 -63.162 19.216zM348.962 139.283C298.717 85.215 148.423 31.245 148.448 31.245v216.053s42.402 -23.284 63.162 -19.216c30.27 3.48 55.76 29.093 59.51 47.597 -25.393 5.074 -44.853 32.01 -44.853 64.093 0 35.71 24.436 65 54.02 65 2.867 0 9.166 1.422 11.911 .907l74.167 310.366v252.696h99.78v-757.13l-49.437 35.71S399.184 193.375 348.963 139.282z"/></svg>