<svg height="1000" width="1000" xmlns="http://www.w3.org/2000/svg"><path d="M664.165 454.268C522.646 489.557 425.775 485.073 386.434 357.32c-6.118 -19.862 -14.57 -36.593 -24.728 -50.386l14.902 6.131c-9.354 -45.672 5.272 -79.883 38.659 -105.11 -40.221 -8.519 -80.025 -13.081 -114.636 31.85 10.556 -26.261 -1.417 -73.973 -25.077 -87.741 -14.636 50.949 -40.037 72.543 -72.327 76.854C157.273 203.762 180.349 56.364 180.349 56.364L157.471 46.42c-25.968 92.62 -2.83 154.26 12.27 181.642 -24.117 -3.745 -50.713 -13.369 -78.657 -25.372l38.312 71.211c-28.393 -13.706 -57.485 -9.892 -85.18 -.588 62.468 40.974 35.964 75.729 -6.011 115.51 27.446 -5.734 55.624 -20.912 77.818 -24.32 -13.323 36.701 -16.147 81.633 -2.468 133.11 101.51 382.077 422.298 492.701 651.288 419.7C1061.589 822.73 965.525 379.433 664.16 454.27z"/></svg>