<svg height="1000" width="1000" xmlns="http://www.w3.org/2000/svg"><path d="M685.16 679.06l75.123 -280.367L555.687 193.623 275.968 268.92l-75.124 280.366 204.596 205.07 279.72 -75.297zM316.913 313.667L538.88 253.865 700.03 416.03l-58.784 221.965 -87.164 23.311C787.152 450.963 486.184 196.521 297.658 386.64l19.256 -72.972zM619.375 28.848l-469.08 125.258L24.82 622.386l343.608 343.02L837.51 840.146 962.984 371.869 619.374 28.848zm-62.432 42.64l-16.745 65.604c0 .005 0 .008 0 .013h-.003l.003 -.013c-.571 -30.241 -74.17 -33.183 -209.732 -8.533l226.477 -57.07zm-470.89 475.8c99.092 -59.556 128.059 -253.705 70.88 -322.245l64.006 59.482 -58.793 231.962 -76.093 30.801zm251.09 345.544C326.947 805.934 281.875 725.278 199.303 612.394l152.37 160.747 -14.53 119.691zm-39.485 -506.19l19.256 -72.973L538.88 253.866 700.03 416.031l-58.784 221.965 -87.164 23.311C787.152 450.965 486.184 196.522 297.658 386.642zm240.566 508.003C657.716 843.08 700.77 821.665 715.586 782.379l47.311 48.452 -224.673 63.815zm244.39 -539.29c31.587 -41.667 -62.97 -177.62 -126.109 -255.338l240.817 240.622 -114.708 14.716zm23.41 76.583l116.861 -9.06 -57.072 226.475c13.12 -134.301 -.072 -177.153 -59.79 -217.415z"/></svg>