<svg height="1000" width="1000" xmlns="http://www.w3.org/2000/svg"><path d="M838.876 624.135l107.218 -8.923L749.341 485.8l166.038 -75.426L774.441 362.962 911.835 295.49 798.913 256.317l86.844 -100.409 -157.741 27.998 11.6 -137.79L620.41 160.208 547.785 37.463l-41.13 125.705L399.333 93.594l12.589 170.28L245.99 154.737l93.178 -29.021L198.647 40.382 43.682 40.377v123.557l189.016 89.883L118.11 287.892l251.454 152.34 -185.111 6.304 144.092 91.874 -200.337 81.514 163.764 48.41L161.76 820.832l188.32 -49.28 21.833 191.47 126.9 -149.592 92.393 148.4 35.757 -142.035 92.73 48.253L699.102 639.88l165.002 99.963 -98.375 14.168 194.63 135.21 1.964 -160.854L838.876 624.136zm-223.539 135.88l-253.79 -68.002L488.38 218.673l60.383 16.181 9.161 -34.19 133.008 35.64 -9.161 34.189 60.396 16.184 -126.83 473.338zm39.649 -458.602l14.012 -52.299 -98.476 -26.387 -14.013 52.3 -41.944 -11.241L483.852 378.41l122.771 57.039 -34.357 65.764 66.148 29.817L696.928 312.65zM517.298 509.067l-60.86 -27.482 .155 -.628h-.22L406.778 666.06l182.364 48.864 24.082 -89.873L490.798 559.125z"/></svg>