<svg height="1000" width="1000" xmlns="http://www.w3.org/2000/svg"><path d="M968.282 902.599v-96.796L359.84 838.552a173.076 173.076 0 002.58 -29.806c0 -.384 -.01 -.768 -.014 -1.153L968.28 693.061v-99.078l-607.93 188.02a170.746 170.746 0 00-8.067 -31.548L968.278 426.58V299.037L341.41 726.32a172.302 172.302 0 00-16.936 -25.318L968.274 122.518V23.44l-.007 .013h-78.574L301.755 677.668a172.49 172.49 0 00-25.377 -17.91l434.527 -636.3H581.082L252.795 648.438a170.635 170.635 0 00-23.207 -7.18L421.65 23.457h-93.381L212.767 638.223a173.588 173.588 0 00-20.508 -1.416L224.64 23.454h-87.685l33.73 614.47a171.02 171.02 0 00-21.737 3.918L32.18 23.439v294.947l101.714 327.931C66.715 669.711 18.5 733.591 18.5 808.745c0 94.973 76.988 171.96 171.96 171.96 54.743 0 103.506 -25.58 134.998 -65.437l156.554 48.824H704.08L339.403 894.738a171.268 171.268 0 0012.4 -26.384L968.279 902.6z"/></svg>