<svg height="1000" width="1000" xmlns="http://www.w3.org/2000/svg"><path d="M972.501 780.49l.012 -229.02 -174.456 6.361a318.028 318.028 0 003.513 -76.705l92.81 -53.888L790.68 404 777.093 380.47C759.22 338.353 732.436 300.274 698.43 269.134L943.175 25.736l-187.714 -.008 -95.27 213.399a317.567 317.567 0 00-34.197 -19.859L611.229 98.41l-69.592 92.467c-52.042 -9.83 -103.938 -6.326 -151.902 8.28L353.236 19.86l-247.6 .008 205.309 215.521a320.851 320.851 0 00-45.052 34.599L146.77 230.018l60.297 112.734c-14.344 24.362 -25.686 51.034 -33.36 79.671 -9.037 33.728 -12.308 67.636 -10.457 100.698l-103.896 78.19 123.385 15.078a321.209 321.209 0 0013.567 31.25L19.92 722.66V921.16L226.454 696.665a320.298 320.298 0 0031.02 35.724l-47.813 112.453L337.765 790.37a319.944 319.944 0 0046.034 18.985L285.143 975.45l211.469 .008L479.454 825.058a317.368 317.368 0 0056.458 -4.47l62.874 93.194 27.058 -122.676c23.86 -11.964 46.207 -26.864 66.44 -44.4l100.297 34.061L751.439 678.524a317.443 317.443 0 0020.725 -37.453l200.337 139.42zM491.814 644.373c-77.114 0 -139.63 -62.514 -139.63 -139.628s62.516 -139.63 139.63 -139.63 139.63 62.513 139.63 139.63c0 77.114 -62.518 139.628 -139.63 139.628z"/></svg>