<svg height="1000" width="1000" xmlns="http://www.w3.org/2000/svg"><path d="M754.704 699.784c74.561 -68.966 121.26 -167.62 121.26 -277.192C875.966 214.085 706.938 45.058 498.436 45.058S120.91 214.09 120.91 422.592c0 109.58 46.705 208.24 121.274 277.205l-6.625 .435c-51.236 88.406 -10.034 159.245 48.429 227.119C270.084 870.26 260.946 811.894 297.902 742.48a376.293 376.293 0 0022.091 12.867c-22.336 82.216 3.137 150.734 52.979 208.83 -8.008 -52.813 -10.29 -111.63 15.65 -180.304a373.693 373.693 0 0019.505 5.344c3.47 70.353 25.667 135.923 54.79 199.73 -2.609 -62.039 1.832 -124.943 17.795 -189.255a382.546 382.546 0 0017.727 .427c6.015 0 11.992 -.156 17.939 -.433 15.963 64.316 20.406 127.221 17.795 189.264 29.131 -63.824 51.331 -129.41 54.793 -199.783a376.397 376.397 0 0019.485 -5.348c25.963 68.696 23.681 127.533 15.671 180.36 49.862 -58.12 75.333 -126.669 52.95 -208.928a377.058 377.058 0 0022.065 -12.868c37.017 69.458 27.878 127.853 13.969 184.97C771.57 859.48 812.772 788.64 761.534 700.237l-6.829 -.452zM263.194 486.675c0 -129.963 105.36 -235.319 235.323 -235.319S733.84 356.71 733.84 486.675 628.48 721.999 498.517 721.999 263.195 616.64 263.195 486.675zM547.15 431.138c-39.321 0 -71.2 -31.878 -71.2 -71.2 0 -11.042 2.517 -21.496 7.003 -30.822C416.84 341.429 366.785 399.413 366.785 469.093c0 78.646 63.755 142.399 142.4 142.399S651.582 547.738 651.582 469.093c-.002 -35.778 -13.199 -68.47 -34.987 -93.482 -7.142 31.779 -35.513 55.528 -69.447 55.528zm-45.13 123.517c-25.56 0 -46.28 -20.72 -46.28 -46.28s20.72 -46.28 46.28 -46.28c25.56 0 46.28 20.72 46.28 46.28s-20.72 46.28 -46.28 46.28z"/></svg>