<svg height="1000" width="1000" xmlns="http://www.w3.org/2000/svg"><path d="M90.063 37.443l.003 .002v-.002zm.003 .002c0 420.13 52.825 719.249 410.787 924.2C861.5 755.154 912.107 458.73 912.107 37.444c-268.42 40.715 -555.147 40.215 -822.04 0zM504.5 259.189c87.06 0 157.634 70.732 157.634 157.983S591.56 575.155 504.5 575.155c-87.06 0 -157.635 -70.732 -157.635 -157.983S417.44 259.19 504.5 259.19zM786 345.292c32.572 20.819 64.68 45.245 96.169 73.303 -31.494 28.062 -63.855 52.411 -96.852 73.075 6.263 -23.78 9.616 -48.745 9.616 -74.499 0 -24.807 -3.107 -48.887 -8.932 -71.878zm-563.086 -.005c-5.827 22.993 -8.933 47.073 -8.933 71.883 0 25.754 3.352 50.72 9.615 74.5 -32.834 -20.595 -65.16 -44.914 -96.766 -73.076 31.628 -28.18 63.7 -52.58 96.084 -73.308zm352.921 71.833c0 39.496 -31.947 71.514 -71.355 71.514S433.125 456.616 433.125 417.12c0 -39.496 31.947 -71.513 71.355 -71.513s71.355 32.017 71.355 71.513z"/></svg>