<svg height="1000" width="1000" xmlns="http://www.w3.org/2000/svg"><path d="M734.701 83.051C506.948 -48.441 215.724 29.593 84.231 257.345s-53.458 518.977 174.295 650.47 518.977 53.457 650.47 -174.294S962.453 214.544 734.7 83.051zm115.122 619.312C763.877 851.142 586.06 909.357 452.653 832.379S280.778 572.394 366.73 423.61 630.492 216.614 763.899 293.592s171.873 259.985 85.924 408.77zM739.049 443.778C669 403.45 575.624 433.948 530.493 511.894s-24.932 173.83 45.119 214.157c70.048 40.328 163.425 9.83 208.556 -68.116s24.93 -173.83 -45.12 -214.157zM606.66 588.223c-32.046 0 -58.027 -25.971 -58.027 -58.002s25.98 -58.002 58.027 -58.002 58.026 25.97 58.026 58.002c0 32.036 -25.98 58.002 -58.026 58.002z"/></svg>