<svg height="1000" width="1000" xmlns="http://www.w3.org/2000/svg"><path d="M980.659 342.83C826.958 264.029 679.256 311.949 571.699 409.988c-33.392 -28.74 -76.84 -46.114 -124.35 -46.114 -10.428 0 -20.657 .85 -30.628 2.46C370.33 211.863 264.298 69.392 103.516 25.853v-.001C-45.748 313.24 3.291 569.46 221.116 604.524 150.894 666.814 114.254 747.82 117.293 832.842c118.727 37.219 203.978 8.06 257.495 -57.424C270.965 740.326 210.91 630.11 239.675 522.753c18.282 -68.231 68.23 -119.494 129.786 -142.295 -66.506 29.793 -112.842 96.557 -112.842 174.146 0 105.335 85.395 190.73 190.73 190.73s190.73 -85.39 190.73 -190.73c0 -46.292 -16.497 -88.728 -43.926 -121.762 48.37 51.129 69.87 125.409 50.319 198.38C615.959 737.626 510.475 802.848 403.98 783.041c7.059 94.824 60.059 172.746 175.481 196.873 43.363 -66.903 53.165 -147.119 27.186 -246.972C797.149 857.329 961.25 680.925 980.664 342.83h-.005z"/></svg>