<svg height="1000" width="1000" xmlns="http://www.w3.org/2000/svg"><path d="M939.133 274.119l-10.521 -20.61C916.99 230.746 889.13 221.713 866.377 233.328L681.41 327.773a46.05 46.05 0 00-21.282 22.54 46.25 46.25 0 00-6.055 10.615l-45.358 111.588L592.65 449.594 495.095 282.262V93.858C495.095 68.3 474.39 47.58 448.843 47.58h-23.13c-25.543 0 -46.252 20.718 -46.252 46.28v207.788a46.077 46.077 0 009.482 28.063c.28 .524 .559 1.048 .862 1.567l83.465 143.167L330.112 574.9l11.918 -95.293c2.017 -16.118 -4.516 -31.325 -16.045 -41.092L196.59 278.597c-16.07 -19.866 -45.197 -22.932 -65.052 -6.85l-17.974 14.563c-19.854 16.078 -22.918 45.22 -6.845 65.087l116.763 144.307 -21.978 175.719a46.073 46.073 0 003.908 25.143 46.115 46.115 0 007.422 17.155l79.675 113.67a47.98 47.98 0 002.03 2.662c3.929 11.468 12.317 21.389 24.16 26.927l188.141 87.98c.48 .224 .966 .427 1.45 .634 15.42 10.507 36.342 11.012 52.543 -.316L731.057 826.242c20.937 -14.642 26.05 -43.495 11.415 -64.444l-13.25 -18.967c-14.636 -20.95 -43.473 -26.064 -64.41 -11.422l-136.866 95.708 -92.709 -43.352L659.89 626.125A46.123 46.123 0 00672.88 612.23a46.162 46.162 0 0010.068 -15.228L754.815 420.2l164.167 -83.825c22.753 -11.62 31.774 -39.493 20.153 -62.253zm-673.539 577.42c0 64.72 -52.46 117.187 -117.174 117.187S31.245 916.26 31.245 851.54c0 -64.72 52.46 -117.187 117.175 -117.187S265.594 786.82 265.594 851.54z"/></svg>