<svg height="1000" width="1000" xmlns="http://www.w3.org/2000/svg"><path d="M545.342 692.216a379.65 379.65 0 01-20.64 -19.16C447.59 595.947 417.66 500.872 457.844 460.695c40.18 -40.178 135.257 -10.251 212.37 66.856a380.297 380.297 0 0118.547 19.928L562.194 220.275l-45.44 95.912C470.002 216.042 409.445 87.066 409.445 87.066l39.55 249.863L141.965 30.005 33.302 28.54l-1.494 111.615 314.106 313.97L83.847 412.645s126.97 59.572 226.774 106.159l-92.294 45.33 327.015 128.083zM914.5 919.657L815.378 633.855l83.647 69.31L865.028 509.178l-84.577 91.486 -46.055 11.5 -65.519 -35.768 -97.634 97.635 35.766 65.515 -11.46 45.896 -89.788 83.006 193.987 33.997 -61.874 -78.724L914.5 919.657zM691.913 769.694l72.63 -72.63c134.619 136.907 64.453 207.427 -72.63 72.63z"/></svg>