<svg height="1000" width="1000" xmlns="http://www.w3.org/2000/svg"><path d="M43.82 56.075C253.54 188.879 447.491 293.05 671.72 316.74c79.375 8.385 93.232 68.127 61.76 136.69 -51.71 112.657 32.037 279.908 219.062 381.146 -11.666 54.572 -90.314 100.509 -138.755 84.377C773.458 834.782 710.632 745.922 642.571 770.028c-139.214 49.304 -282.576 59.79 -379.917 6.724C391.792 759.227 514.726 724.893 622.998 670.79c-195.61 29.255 -427.207 30.01 -514.969 -68.192 177.554 7.094 321.469 -10.918 482.14 -51.136C376.165 531.75 140.877 492.62 74.637 361.41c157.9 49.233 369.648 67.56 512.896 68.557C364.366 373.746 64.226 219.792 43.819 56.075z"/></svg>