<svg height="1000" width="1000" xmlns="http://www.w3.org/2000/svg"><path d="M895.777 798.025C834.335 763.83 798.387 705.458 794.774 651.979 775.424 365.616 298.238 328.31 55.35 42.331l-.002 .008c12.602 364.393 412.64 362.635 648.245 545.276C551.127 521.588 301.235 536.08 120.337 418.745c84.388 274.23 385.387 183.94 606.43 258.483C595.13 664.372 421.534 738.718 257.41 679.924c144.934 228.447 332.947 75.854 515.093 77.201 -91.869 23.409 -186.77 125.793 -313.62 116.19 154.55 148.75 235.514 4.347 346.23 -51.03 -11.168 13.29 -18.223 30.217 -19.055 48.9 -2.01 45.103 32.926 83.295 78.029 85.305s83.294 -32.926 85.304 -78.029c1.628 -36.535 -20.988 -68.53 -53.613 -80.437z"/></svg>