<svg height="1000" width="1000" xmlns="http://www.w3.org/2000/svg"><path d="M979.893 704.94l.003 .005C957.387 577.76 884.58 563.935 772.513 546.327c14.606 -78.77 34.773 -174.554 8.334 -227.695C747.015 250.621 676.854 256.407 632.567 280.608l85.593 46.89C614.09 308.038 561.95 192.245 492.092 174.816 394.694 150.517 346.156 283.521 292.527 376.218 147.539 311.033 44.232 280.975 22.926 387.808 -25.038 628.292 400.594 764.165 630.55 797.795l20.423 -48.48 109.853 71.008C895.36 831.129 994.724 788.757 979.892 704.94z"/></svg>