<svg height="1000" width="1000" xmlns="http://www.w3.org/2000/svg"><path d="M728.526 338.222c45.405 -107.552 127.56 18.793 103.154 109.88C812.69 518.982 749.478 562.958 659.5 505.087l.001 -.003C452.701 372.076 506.598 306.957 401.841 198.3 437.734 350 331.284 253.835 235.213 131.373c27.684 -16.562 58.684 -28.207 92.003 -34.102l215.106 144.963 40.136 -84.022a504.382 504.382 0 0116.89 11.377C716.244 251.892 703.1 57.455 738.324 17.315L19.811 15.833l3.539 702.789C99.8 772.035 228.042 704.013 176.228 618.12a627.365 627.365 0 01-10.64 -18.34l58.803 -34.879L103.911 350.521c2.741 -32.236 10.037 -62.36 21.24 -89.82 140.224 144.16 359.161 371.14 162.58 326.894 59.669 55.833 268.177 97.208 291.673 191.272C598.91 856.958 529.626 919.02 470.642 919.02c-79.199 0 -161.474 -63.404 -87.456 -136.791 -47.003 7.814 -69.4 40.958 -70.636 78.487s18.888 79.518 57.184 105.394h590.887V331.496C946.837 215.55 724.349 167.233 728.526 338.22zM19.812 15.832v-.004z"/></svg>