<svg height="1000" width="1000" xmlns="http://www.w3.org/2000/svg"><path d="M907.97 364.271C825.065 220.242 665.718 148.125 511.105 169.715L463.921 87.746l-108.147 62.625C320.045 87.748 231.278 -32.264 121.534 77.48l11.419 17.944s96.091 -122.691 202.427 66.759l-127.45 73.802 47.012 81.67c-96.443 123.547 -114.075 298.418 -31.007 442.73 109.136 189.6 350.738 254.63 539.63 145.247S1017.108 553.87 907.97 364.272zm-98.94 270.44c-1.896 122.523 -64.993 199.273 -145.305 232.052 16.695 -25.542 26.635 -57.567 26.635 -92.34 0 -83.487 -57.25 -151.165 -127.874 -151.165S434.612 690.936 434.612 774.422c0 31.974 8.404 61.621 22.734 86.044C380.892 824.249 321.678 748.473 319.201 634.712c-1.934 -89.057 32.27 -147.786 110.56 -190.651 -29.558 55.324 -18.013 119.63 13.482 146.522C424.45 467.793 591.948 396.14 527.647 283.925h.002c-.024 -.042 -.05 -.085 -.075 -.127A139.49 139.49 0 00525.3 279.99c-.133 -.217 -.264 -.433 -.399 -.65a159.644 159.644 0 00-2.592 -4.024c-.056 -.085 -.117 -.17 -.175 -.256a170.704 170.704 0 00-2.574 -3.72c-.202 -.286 -.404 -.572 -.61 -.857a177.052 177.052 0 00-2.946 -3.983c-.095 -.124 -.195 -.248 -.29 -.372a193.073 193.073 0 00-3.708 -4.678 208.261 208.261 0 00-3.312 -3.964c-.116 -.136 -.238 -.27 -.355 -.406a214.703 214.703 0 00-3.216 -3.64 252.732 252.732 0 00-4.646 -5.021c-.066 -.07 -.127 -.138 -.193 -.206l-.002 -.124a671.694 671.694 0 017.657 3.626c.676 .324 1.346 .651 2.018 .977a632.958 632.958 0 015.695 2.796c.672 .334 1.346 .667 2.013 1.002a625.152 625.152 0 017.204 3.669c.19 .1 .377 .2 .567 .299a570.841 570.841 0 016.394 3.379c.755 .404 1.504 .812 2.255 1.218 1.618 .876 3.22 1.757 4.81 2.638 .722 .401 1.45 .803 2.167 1.205 146.445 82.175 170.968 187.773 104.927 309.16 66.141 -35.471 94.707 -87.704 66.892 -163.675 63.869 42.893 97.574 128.24 96.148 220.33z"/></svg>