<svg height="1000" width="1000" xmlns="http://www.w3.org/2000/svg"><path d="M370.929 961.953c88.355 -.121 191.255 -.491 268.206 -.695C839.102 811.095 653.153 606.84 485.421 636.409c148.123 111.982 19.25 295.432 -114.492 325.544zM726.399 192.92c.022 1.414 0 2.824 0 4.245C880.373 559.602 460.34 565.934 493.91 219.558 412.622 415.456 234.799 215.386 316.304 41.578v-.002C-42.24 249.595 417.68 484.879 296.43 689.854 228.026 805.49 74.29 634.59 85.292 442.614 -11.786 689.039 58.9 865.259 185.662 960.816c3.338 .816 49.476 1.124 114.153 1.17a125.962 125.962 0 01-19.439 -6.674c-41.722 -18.308 -66.254 -118.988 56.94 -171.96 -24.599 151.195 268.933 26.185 45.551 -320.001l.003 -.003c166.18 52.41 271.104 117.017 346.195 232.314 52.946 -47.217 90.927 -127.316 102.491 -206.12C916.35 641.695 877.361 875.64 676.86 961.167c44.337 -.088 74.063 -.072 77.225 .17C1055.854 893.537 1025.78 483.735 726.399 192.92z"/></svg>