<svg height="1000" width="1000" xmlns="http://www.w3.org/2000/svg"><path d="M966.443 44.066c-.003 .002 -.005 .005 -.008 .007 0 -.002 0 -.002 0 -.003l-.111 .097C878.15 119.387 795.949 186.505 741.652 230.244c-35.946 -26.679 -78.37 -45.112 -124.48 -52.53L507.316 59.907l41.116 115.066a282.66 282.66 0 00-7.204 .664L372.465 41.372l58.763 126.679L200.076 43.959l115.54 151.698L73.951 50.91l198.965 262.625L104.348 217.373l135.86 174.343 -80.13 -31.369 127.86 137.256c5.386 40.993 19.46 79.245 40.303 112.86l-13.93 12.383 -54.778 -61.77L146.179 661.611l62.786 70.798 -95.277 84.502 -20.71 -8.209 4.68 22.426 -70.565 62.586c-7.253 48.299 20.913 80.708 71.644 80.784l24.339 -21.587 3.382 16.2 121.347 -99.033 -21.654 -8.584 54.458 -48.3 60.62 68.358L454.584 781.017l-52.455 -59.148 20.138 -17.874c43.424 26.6 94.492 41.943 149.149 41.943 157.924 0 285.94 -128.02 285.94 -285.943 0 -42.287 -9.187 -82.425 -25.662 -118.541l85.783 -76.462c74.03 -65.661 59.073 -118.42 48.968 -220.926z"/></svg>