<svg height="1000" width="1000" xmlns="http://www.w3.org/2000/svg"><path d="M497.625 312.202c-254.046 0 -459.99 139.833 -459.99 312.317s205.944 312.313 459.99 312.313S957.614 797.003 957.614 624.519c0 -172.488 -205.944 -312.317 -459.99 -312.317zm.004 594.772c-212.652 0 -385.04 -117.046 -385.04 -261.425s172.388 -261.43 385.04 -261.43 385.04 117.045 385.04 261.43c0 144.38 -172.389 261.425 -385.04 261.425zM95.03 480.694c36.185 -81.362 51.71 -162.772 45.723 -244.235 37.381 48.688 70.303 98.924 61.337 161.704zM496.974 153.83c-42.972 20.013 -48.255 62.759 -31.885 111.606C502.553 377.243 354.5 245.675 360.319 156.111l-44.414 189.036 352.95 -11.216C559.633 324.238 459.376 223.641 496.973 153.827l.003 .002zM609.036 32.756c9.938 103.377 -149.527 140.272 7.442 255.438C575.524 155.88 694.388 130.367 609.036 32.756zM190.374 402.003c60.967 -74.2 86.5 -160.303 80.433 -285.162 53.248 43.79 58.992 144.365 55.428 217.773zm517.28 -280.425c-53.247 43.791 -58.223 144.098 -54.662 217.51l300.557 245.42c-15.582 -69.394 -20.287 -112.397 -4.377 -132.87 23.548 -30.304 22.765 -76.78 -4.649 -121.66 -14.737 93.719 -76.236 58.724 -122.99 -104.77C767.01 410.419 680.616 216.663 707.654 121.578zM124.552 728.22c38.697 18.777 57.636 1.2 77.188 -15.226 8.724 25.146 7.221 52.745 5.386 80.427 39.547 3.136 77.224 .618 81.932 -58.252 39.824 58.71 -31.46 92.345 18.61 124.115 28.392 18.025 70.343 -51.931 76.057 -109.457 7.664 61.79 -15.765 127.873 64.57 161.977L204.488 852.375 124.552 728.22zm733.645 21.636c-41.78 51.277 -64.666 -20.81 -68.216 -65.134 -31.43 40.152 -1.11 114.889 -33.931 146.362C751.903 811.11 732.697 786.305 706.603 771.12c4.497 47.357 -10.193 92.233 -73.03 123.216l121.738 -32.705L858.196 749.855zm-200.101 133.87c-67.533 20.157 -95.538 -51.138 -106.052 -103.38 -8.24 68.481 -33.518 119.83 -107.265 126.201l125.122 5.2 88.195 -28.021z"/></svg>