<svg height="1000" width="1000" xmlns="http://www.w3.org/2000/svg"><path d="M117.77 69.338c0 390.93 72.66 680.147 384.4 860.132C806.558 753.73 887.59 461.347 887.59 69.338c-250.829 44.827 -504.05 50.17 -769.82 0zm364.034 752.254C368.012 817.628 168.396 485.875 327.284 304.298v.003c-31.32 182.638 64.127 196.082 110.452 125.796C481.962 363 386.97 237.309 560.714 185.484 467.766 299.03 637.741 598.858 678.607 388.57 799.18 632.914 601.332 825.762 481.804 821.592zM616.747 670.624c0 88.91 -52.528 160.992 -117.328 160.992S382.089 759.541 382.089 670.624 434.619 509.63 499.42 509.63s117.328 72.075 117.328 160.993z"/></svg>