<svg height="1000" width="1000" xmlns="http://www.w3.org/2000/svg"><path d="M967.262 527.407C837.802 305.625 711.24 230.744 586.448 245.425L533.913 128.342l-48.654 138.987 -98.214 -58.145 -1.553 122.936 -90.804 3.462 24.428 59.569c-34.122 31.669 -68.17 67.058 -102.17 104.956L35.956 411.663l87.504 148.04 -71.087 76.196 70.7 5.453 -78.91 116.759L254.917 631.522l170.71 82.917 -97.026 33.922 69.343 26.886 -63.492 43.367 101.74 1.895 -9.002 91.295L542.866 771.386a778.47 778.47 0 0012.282 -.34c.55 -.02 1.1 -.038 1.647 -.057 4 -.149 7.966 -.324 11.893 -.53 .36 -.02 .72 -.042 1.08 -.061a708.818 708.818 0 0011.458 -.71c.238 -.017 .481 -.031 .72 -.049a708.428 708.428 0 0011.474 -.912c.533 -.047 1.062 -.095 1.594 -.142a679.483 679.483 0 0022.442 -2.384c.439 -.054 .88 -.107 1.317 -.161a634.818 634.818 0 0010.735 -1.438c.374 -.054 .744 -.11 1.117 -.163a631.166 631.166 0 0010.62 -1.62c.037 -.007 .074 -.012 .11 -.018a616.016 616.016 0 0010.463 -1.796c.445 -.08 .888 -.16 1.333 -.24a570.869 570.869 0 0010.238 -1.957c.02 -.003 .037 -.008 .057 -.012a580.535 580.535 0 0010.083 -2.124 548.827 548.827 0 0010.597 -2.434c.318 -.076 .632 -.153 .948 -.23a544.242 544.242 0 0019.076 -4.98c.311 -.088 .623 -.175 .933 -.263a509.108 509.108 0 009.263 -2.71c.034 -.01 .068 -.021 .102 -.031 3.12 -.946 6.2 -1.915 9.245 -2.902 .085 -.028 .171 -.054 .256 -.082a497.39 497.39 0 008.903 -2.989 480.759 480.759 0 0017.871 -6.58c.15 -.057 .301 -.116 .452 -.175a455.593 455.593 0 0024.82 -10.58c.082 -.038 .161 -.076 .243 -.113C930.284 651.343 967.264 527.411 967.264 527.411h-.003v-.003zm-263.487 -71.08c8.921 -33.294 43.138 -53.051 76.433 -44.13a62.458 62.458 0 0116.51 7.101c-.291 -.007 -.576 -.042 -.87 -.042 -19.349 0 -35.035 15.186 -35.035 33.922 0 18.734 15.686 33.922 35.035 33.922 13.14 0 24.576 -7.017 30.57 -17.38a62.314 62.314 0 01-2.076 18.913c-8.92 33.295 -43.144 53.05 -76.439 44.129 -33.29 -8.92 -53.05 -43.139 -44.128 -76.434z"/></svg>