<svg height="1000" width="1000" xmlns="http://www.w3.org/2000/svg"><path d="M664.307 75.617C616.684 60.795 552.144 67.637 531.07 114.332c-30.597 -40.676 -93.334 -27.26 -107.623 19.21 -14.289 46.462 26.253 96.472 87.126 94.67 -6.002 66.26 86.388 106.638 159.432 76.3 -.923 37.648 16.21 81.611 59.217 87.687 -12.467 35.316 6.056 81.993 55.8 81.993 61.368 0 74.145 -70.815 40.996 -103.631 18.472 -20.263 25.025 -49.07 21.64 -76.3 33.701 23.599 67.447 -12.717 65.844 -39.16 -2.957 -48.688 -39.711 -70.133 -65.844 -47.38 -17.158 -53.848 -72.62 -62.41 -102.492 -31.885 2.63 -14.48 .39 -25.552 -10.246 -37.581 44.08 -11.116 36.879 -73.51 9.126 -91.46 -33.935 -21.944 -69.14 -7.18 -79.73 28.822h-.007zm177.579 535.456c-69.326 0 -68.777 -104.983 0 -104.983s69.326 104.983 0 104.983zM928.988 405.93c-44.62 0 -44.263 -67.571 0 -67.571s44.62 67.571 0 67.571zM845.96 114.087c-44.62 0 -44.263 -67.571 0 -67.571s44.62 67.571 0 67.571zM346.447 213.5c-44.62 0 -44.262 -67.571 0 -67.571s44.621 67.57 0 67.57zm118.63 83.084v.005L358.04 481.986 62.694 650.562C11.575 680.068 2.875 737.244 49.838 787.146c90.905 96.606 203.318 155.949 330.028 190.544 67.57 18.439 109.212 -10.819 109.212 -77.073l.411 -341.447L597.085 372.803l-132.009 -76.22zm-102.56 601.53C263.559 864.312 40.549 741.683 126.12 692.278l266.164 -154.16 -29.768 359.992zM494.999 312.498l-56.414 104.875z"/></svg>