<svg height="1000" width="1000" xmlns="http://www.w3.org/2000/svg"><path d="M558.369 29.683l.007 .002 -.01 -.01zm277.867 224.34c94.058 152.897 -38.773 227.338 -75.16 167.406C686.79 299.08 897.967 123.931 558.375 29.685c69.695 70.956 70.498 184.63 -3.702 219.903C474.044 287.914 360.744 238.619 412.6 103.698 267.982 191.768 238.598 337.684 288.473 478.357 229.405 432.51 112.245 346.715 195.09 249.463 83.948 271.589 54.992 366.199 113.098 425.977c95.99 98.749 25.385 231.824 -54.662 91.104C10.78 757.11 358.19 810.864 361.356 968.048h36.146C381.13 834.136 275.626 757.13 162.377 662.946l58.993 -182.11c.274 2.07 .554 4.11 .836 6.145 .314 -8.949 .966 -17.258 1.917 -24.684 6.035 41.021 19.684 141.11 81.759 210.616 40.452 -8.147 75.343 -123.447 62.974 -304.934l171.828 -61.55c.007 -.005 .013 -.007 .02 -.012l.003 .005 -.023 .007C415.006 391.972 388.337 535.645 463.754 607.8l87.207 -202.63 166.72 -43.603C591.18 442.19 511.265 548.12 575.328 643.709L688.185 485.962l205.195 30.78c-244.27 42.46 -306.55 198.787 -338.572 343.7 6.054 34.29 20.873 70.705 39.513 107.606H621C531.747 726.169 883.295 707.966 937.587 561.498 989.896 420.384 952.003 348.123 836.237 254.02z"/></svg>