<svg height="1000" width="1000" xmlns="http://www.w3.org/2000/svg"><path d="M742.356 271.163c66.525 73.318 4.913 161.574 -100.29 147.637C511.996 401.567 501.949 275.88 527.297 224.867 575.208 128.432 493.035 26.877 345.629 35.977 547.526 186.619 242.009 353.083 200.879 32.06l.003 -.003c-30.497 29.204 -58.8 120.676 -23.282 184.15C322.27 474.759 172.471 602.839 100.59 396.963c-54.553 174.778 13.36 385.493 197.358 491.768l109.27 -109.27 -33.569 -34.073c-43.537 -43.43 -45.063 -113.87 -1.57 -157.287l80.086 -80.087 -17.5 -17.462 111.803 -41.166 -41.25 111.566 -17.035 -16.997 -79.924 78.75c-24.346 24.302 -24.434 62.13 0 86.508l34.601 34.604L586.554 600.122l-26.742 -26.684 147.825 -54.43 -54.545 147.51 -30.336 -30.27L478.684 779.644l36.529 36.528c24.422 24.315 62.131 24.324 86.508 0l86.437 -86.435 -17.15 -17.114 111.804 -41.17 -41.25 111.569 -17.831 -17.793 -85.837 87.117c-43.519 43.42 -115.32 43.353 -158.863 0l-36.336 -36.879 -97.52 97.063c64.788 28.214 141.357 44.615 229.515 44.615 488.838 -.002 465.576 -607.23 167.666 -685.983z"/></svg>