<svg height="1000" width="1000" xmlns="http://www.w3.org/2000/svg"><path d="M41.499 252.94l.003 .007 .002 -.003zm585.716 -85.89c69.896 50.339 7.728 77.246 -69.926 68.084 65.199 36.114 105.13 84.267 54.993 128.073C562.603 406.613 489.868 324.907 480.199 252.5 464.959 138.377 453.761 78.172 303.611 84.574c76.077 59.784 73.313 129.628 33.613 180.35l271.358 271.36 12.475 -60.901 44.119 -15.45L795.96 799.245 456.168 668.975l15.98 -44.652 69.07 -14.155L254.368 323.319C184.662 348.572 97.478 336.426 41.502 252.947 30.246 340.93 95.078 392.203 173.324 428.618c278.568 129.65 122.012 300.905 -40.961 133.205 45.998 261.705 542.044 444.274 737.713 302.027C1028.568 748.628 925.466 244 627.216 167.05z"/></svg>