<svg height="1000" width="1000" xmlns="http://www.w3.org/2000/svg"><path d="M876.959 782.414L578.594 405.471V136.623s14.767 -.667 30.75 -.667l-.004 .003c15.984 0 28.468 -26.012 28.468 -38.879S625.324 62.697 609.34 62.697H382.718c-15.984 0 -28.468 21.515 -28.468 34.383s12.484 38.878 28.468 38.88l30.749 .666V398.64C313.89 525.43 112.825 782.413 112.825 782.413c-8.808 15.206 -17.083 36.055 -17.083 60.353 0 59.134 49.396 108.185 108.187 108.187h584.2c58.792 0 108.188 -48.156 108.188 -108.187 0 -26.506 -11.497 -46.85 -19.357 -60.353zm-88.943 133.11H204.999c-39.462 0 -72.62 -32.998 -72.62 -72.779 0 -16.347 5.554 -30.374 11.464 -40.603 0 0 239.4 -308.128 306.245 -393.427v-164.28l91.978 3.42v161.472l305.576 392.816c5.276 9.082 12.995 22.768 12.995 40.603 -.002 40.382 -33.16 72.777 -72.62 72.777zM392.403 136.103h189.04z"/></svg>