<svg height="1000" width="1000" xmlns="http://www.w3.org/2000/svg"><path d="M605.655 194.459h.002zM840.12 355.597l-52.762 52.762 -39.274 -39.275c-13.107 -13.112 -33.111 -14.167 -56.306 -7.44l-41.244 -41.243 40.53 -40.53 -85.41 -85.411 -40.53 40.53 -41.407 -41.408c6.857 -23.357 5.74 -43.122 -7.442 -56.304L234.546 55.568l65.744 297.695c14.686 14.687 34.012 17.222 56.284 11.326l39.475 39.475L41.95 758.164v170.82L481.462 489.473l39.311 39.311c-5.695 22.036 -3.228 41.73 11.326 56.284l39.275 39.275 -68.969 68.968 98.1 98.1L938.218 453.696l-98.1 -98.1z"/></svg>