<svg height="1000" width="1000" xmlns="http://www.w3.org/2000/svg"><path d="M957.71 375.86C874.164 322.159 791.268 289.655 702.768 294.036 701.378 200.423 668.515 117.309 620.94 39.097 545.284 87.914 468.262 135.139 422.608 218.965 335.378 171.593 248.146 158.38 160.913 162.358c-.057 87.23 10.656 174.458 56.608 261.693C130.395 476.581 84.723 549.837 37.648 622.387c81.302 45.663 163.51 86.797 254.941 81.824 3.275 84.978 37.635 169.952 81.827 254.938C451.27 907.784 521.489 851.115 572.749 779.272c81.6 47.032 169.82 60.948 261.695 56.61v.008c4.105 -94.129 -9.36 -182.982 -56.608 -261.7C856.604 532.262 914.964 464.097 957.709 375.86zM501.707 657.71c-91.117 0 -164.982 -73.867 -164.982 -164.984S410.59 327.74 501.707 327.74c91.117 0 164.982 73.868 164.982 164.985 0 91.12 -73.866 164.985 -164.982 164.985z"/></svg>