<svg height="1000" width="1000" xmlns="http://www.w3.org/2000/svg"><path d="M435.343 622.874C513.493 503.39 374.87 402.276 288.708 532.94h-.002C172.873 402.623 6.172 475.825 102.966 642.424 3.05 709.885 27.842 899.41 185.087 871.175c12.437 154.066 289.466 83.87 235.427 -37.05C588.403 775.636 529.15 665.11 435.343 622.873zM290.64 796.813c-48.589 0 -87.98 -39.389 -87.98 -87.977s39.391 -87.983 87.98 -87.983 87.98 39.389 87.98 87.983c0 48.588 -39.391 87.977 -87.98 87.977zM855.112 423.989l-.007 .017c50.592 -152.39 -84.503 -251.62 -172.779 -97.722 -99.776 -48.616 -239.485 19.724 -144.6 170.824 -95.492 130.325 46.871 225.33 137.902 170.694 68.615 119.397 223.477 10.183 175.27 -85.457 131.237 7.3 148.057 -149.814 4.215 -158.355zM756.17 576.964c-38.742 22.375 -88.28 9.101 -110.644 -29.65s-9.088 -88.303 29.656 -110.678c38.742 -22.375 88.284 -9.102 110.647 29.647 22.364 38.75 9.088 88.302 -29.659 110.68zM387.902 194.307C451.372 85.152 364.632 -11.36 258.126 79.215 176.623 -3.367 42.972 47.905 91.407 194.903 -30.144 238.25 86.293 446.52 172.127 376.79c83.43 122.777 159.752 51.087 173.55 -33.71 113.228 37.198 166.206 -107.527 42.225 -148.773zM269.544 301.778c-39.18 10.506 -79.45 -12.752 -89.944 -51.943s12.76 -79.48 51.94 -89.985c39.18 -10.506 79.452 12.75 89.947 51.943 10.497 39.19 -12.758 79.477 -51.943 89.985zm434.541 522.458c42.487 -58.207 -45.16 -119.698 -61.382 -24.413 -46.583 -59.81 -113.438 8.963 -40.024 52.326 -92.722 47.472 5.178 111.019 42.778 53.577 8.287 96.454 118.462 35.432 56.774 -21.095 78.29 12.847 78.138 -62.727 1.854 -60.396zm-43.05 52.776c-12.215 0 -22.119 -9.903 -22.119 -22.121s9.904 -22.117 22.12 -22.117c12.215 0 22.119 9.903 22.119 22.117 0 12.219 -9.904 22.12 -22.12 22.12zm-13.12 -729.657c82.348 -17.893 14.516 -115.139 -38.62 -46.657 -.22 -67.408 -103.01 -56.988 -63.837 25.01h.002c-66.671 -1.384 -41.536 91.398 8.499 65.33 -26.107 80.586 79.442 93.26 65.365 9.55 62.95 39.672 91.417 -23.634 28.591 -53.234zm-57.264 29.72c-12.216 0 -22.12 -9.903 -22.12 -22.12s9.904 -22.118 22.12 -22.118c12.216 0 22.119 9.903 22.119 22.117 0 12.217 -9.903 22.121 -22.12 22.121z"/></svg>