<svg height="1000" width="1000" xmlns="http://www.w3.org/2000/svg"><path d="M838.375 126.717l-.003 .008C818.168 109.35 795.036 94.57 769.785 82.046c-201.997 -100.18 -486.64 5.48 -636.152 235.962 -1.843 2.847 -3.246 5.955 -5.032 8.808 .886 -.776 1.636 -1.749 2.519 -2.518 -78.492 111.12 -68.606 266.145 30.832 365.583 106.376 106.38 276.412 110.458 388.237 13.214 -9.117 12.825 -19.336 25.63 -30.834 37.122 -111.146 111.147 -291.56 111.147 -402.707 0C81.916 705.483 57.942 664.697 44.918 620.663 50.624 748.585 113.1 860.037 228.025 917.03c202 100.18 487.897 -5.481 637.407 -235.962C996.257 479.398 979.807 248.343 838.376 126.717zm-59.39 195.105C771.805 438.314 644.893 568.8 495.426 613.469c-1.843 .55 -3.695 .84 -5.528 1.359l1.873 -.941c-73.79 24.797 -144.476 -1.377 -164.66 -65.562 -21.592 -68.659 22.422 -155.778 98.658 -199.433 -8.53 2.894 -17.353 6.348 -25.898 10.63 -82.628 41.419 -162.285 133.26 -139.724 205 7.05 22.417 19.87 40.187 37.19 52.822C238.343 596.988 203.09 550.02 206.574 483.708c7.18 -138.123 162.245 -259.977 311.71 -304.65 130.78 -39.087 238.76 13.163 258.097 101.748l-.002 .007c2.762 12.657 3.506 26.448 2.605 41.01zm-302.41 34.533c20.754 17.19 13.107 51.398 -17.083 76.406s-71.49 31.339 -92.241 14.15 -13.107 -51.398 17.083 -76.406c30.19 -25.006 71.49 -31.338 92.241 -14.15z"/></svg>