<svg height="1000" width="1000" xmlns="http://www.w3.org/2000/svg"><path d="M668.734 782.482c-52.956 -37.426 -24.458 -110.394 5.314 -165.238 25.046 -46.139 88.835 -73.336 122.477 -53.912 26.548 15.328 32.185 52.72 17.798 90 34.806 -19.168 71.455 -20.457 92.056 1.659 15.453 16.577 17.359 42.163 8.794 68.197C1017.078 618.718 920.715 468.934 801.18 399.916h.004a285.404 285.404 0 00-22.245 -11.569c6.61 -74.992 -41.33 -170.287 -161.794 -251.386 -1.41 13.582 -3.338 26.839 -5.815 39.75 23.986 19.706 46.082 44.24 65.04 75.04 -24.305 -17.717 -49.051 -29.21 -74.625 -35.883 -3.08 10.186 -6.578 20.111 -10.526 29.757a265.455 265.455 0 0150.462 32.016c-22.165 -2.355 -43.348 -3.262 -63.951 -3.398a274.99 274.99 0 01-26.708 40.586c-81.635 -10.434 -163.19 -2.947 -243.712 21.496C269.564 264.94 160.603 201.649 30.189 181.562c17.235 21.228 32.091 42.992 44.208 65.389 45.777 11.28 93.018 31.764 140.472 66.305C172.465 300.642 134.54 298.655 98.82 304.62c5.76 18.747 9.564 37.953 11.224 57.669l55.42 15.788 -54.853 21.457c-1.24 23.433 -5.486 47.585 -13.031 72.537 19.528 4.433 40.1 4.878 62.318 .517 -25.672 19.39 -51.299 31.54 -76.499 38.364 -7.713 18.087 -17.122 36.586 -28.336 55.524 122.27 -24.677 196.941 -61.647 235.005 -103.178 53.205 27.481 100.678 59.897 143.507 105.506l-105.868 54.853c50.527 37.214 114.861 55.256 171.678 48.4 15.633 32.38 38.433 65.128 68.37 99.722 74.362 85.922 170.255 101.773 209.527 8.138 -29.97 21.983 -82.766 20.785 -108.55 2.567zm232.407 59.587l-3.445 -71.465c-16.183 49.101 -57.854 67.047 -102.07 81.89l80.336 12.496c4.527 62.418 20.197 93.944 77.03 84.849 22.626 -51.202 1.127 -89.447 -51.85 -107.77z"/></svg>