<svg height="1000" width="1000" xmlns="http://www.w3.org/2000/svg"><path d="M522.106 118.44c-13.097 33.19 -45.754 51.399 -72.941 40.671S410.554 112.781 423.649 79.59s45.754 -51.4 72.942 -40.672 38.61 46.331 25.515 79.523zm140.165 52.2c-23.884 32.24 -64.657 42.515 -91.066 22.949s-28.457 -61.563 -4.573 -93.803S631.29 57.271 657.7 76.837c26.41 19.565 28.457 61.562 4.572 93.803zm124.985 86.394c-30.944 29.966 -75.932 33.708 -100.477 8.36s-19.36 -70.19 11.585 -100.157 75.932 -33.708 100.478 -8.359 19.359 70.19 -11.586 100.156zm116.05 182.06c-54.28 30.186 -118.329 18.61 -143.056 -25.853s-.77 -104.98 53.51 -135.166 118.33 -18.61 143.057 25.853 .77 104.98 -53.51 135.166zM328.904 249.418C209.887 355.895 93.95 508.959 55.126 754.567c-45.354 286.9 308.063 235.045 273.074 81.807C283.502 640.626 394.737 561.227 538.78 594.284c64.031 14.695 129.753 -9.563 167.696 -78.855C752.105 432.1 692.017 307.155 583.9 243.179 499.617 193.307 403.48 182.7 328.908 249.416l-.003 .003z"/></svg>