<svg height="1000" width="1000" xmlns="http://www.w3.org/2000/svg"><path d="M716.67 768.968H840.78v-56.825c38.51 -13.64 77.024 -38.094 115.537 -71.591C917.683 606.379 879.822 587.325 840.78 578.192v-58.006H385.308v39.654H211.904c31.19 75.678 99.927 127.608 173.404 144.868v64.26h114.228c-27.149 68.438 -78.18 122.966 -136.26 170.011h499.541C793.577 891.963 742.594 837.49 716.67 768.97zM464.224 486.458l96.116 -43.274 -41.61 -137.18L409.89 199.072l-62.385 28.088 32.915 108.53L33.71 491.763l24.463 54.339L404.904 390.02zm240.355 -3.257L952.305 383.87l-138.073 -3.835 93.146 -133.951L764.14 322.659l41.888 -186.355 -148.997 237.02L640.91 309.58l-58.938 173.489 122.22 -57.27z"/></svg>