<svg height="1000" width="1000" xmlns="http://www.w3.org/2000/svg"><path d="M841.365 420.142l-119.561 47.1 28.005 -81.098 -43.39 22.651C683.6 280.151 666.793 151.51 675.967 22.865c-47.572 64.527 -88.861 143.882 -118.18 223.962h-153.49C368.204 162.739 321.257 89.232 274.47 15.562c8.188 138.26 3.313 267.461 -7.106 394.653l-46.108 -24.07 28.005 81.097L129.7 420.142l103.359 105.459 -80.448 5.445c59.571 38.163 133.662 63.173 176.883 116.153 54.188 77.334 84.36 155.26 87.258 303.38 44.382 20.738 99.595 19.617 139.596 0 9.482 -151.645 29.222 -219.958 83.161 -300.8 42.896 -54.76 118.416 -79.957 178.946 -118.733l-80.448 -5.445L841.365 420.143zm-420.63 255.9C426.13 597.137 391.194 551.496 319.524 534.68c32.033 -37.229 67.664 -32.845 102.998 3.854v.002c35.134 36.492 28.687 92.934 -1.79 137.508zm131.714 0c-28.679 -44.575 -32.855 -101.014 3.75 -137.507l.003 -.002c35.104 -34.992 69.282 -40.576 98.854 -8.752l-1.357 6.304C585.1 553.946 550.288 599.225 552.448 676.043z"/></svg>