<svg height="1000" width="1000" xmlns="http://www.w3.org/2000/svg"><path d="M497.335 48.197c-246.584 0 -446.477 199.895 -446.477 446.47s199.9 446.47 446.477 446.47 446.47 -199.886 446.47 -446.47c0 -246.575 -199.888 -446.47 -446.47 -446.47zm-.051 858.832C269.45 907.03 84.754 722.332 84.754 494.5S269.45 81.97 497.285 81.97s412.53 184.699 412.53 412.53S725.116 907.03 497.283 907.03zM798.492 527.99l-122.205 32.743 -48.18 -42.046 23.928 -23.928 -22.33 -22.331 47.255 -41.238 120.2 31.574 -82.643 -64.349 94.25 -82.247L691.15 356.413 677.07 249.995l-32.815 122.463 -61.07 20.897 -8.998 -33.581 -32.83 8.796 -12.13 -61.767 89.894 -89.895 -99.472 41.127 -24.015 -122.29L471.52 258.543l-96.7 -39.255 87.129 87.992 -11.969 60.948 -31.545 -8.452 -8.88 33.146 -59.227 -20.265 -32.78 -122.344L303.48 356.626 185.975 316.42l94.23 82.23 -82.748 64.433 120.355 -31.615 45.93 40.082 -23.21 23.21 24.805 24.806 -46.851 40.887L196.122 527.667l85.05 65.348 -93.998 82.029 118.773 -40.64 14.394 103.646 32.725 -119.77 57.115 -19.544 8.254 30.81 31.56 -8.457 11.941 60.81 -87.116 87.977 96.687 -39.248L495.635 853.5l24.03 -122.364 99.457 41.121L529.24 682.374l12.102 -61.626 32.844 8.8 8.372 -31.244 58.956 20.174 32.76 119.896 14.408 -103.755 118.887 40.68 -94.016 -82.045zM619.127 216.901l-.005 .005 .005 -.002zm0 555.353l-.005 -.002 .005 .005z"/></svg>