<svg height="1000" width="1000" xmlns="http://www.w3.org/2000/svg"><path d="M914.61 369.99C859.473 480.612 672.973 396.844 734.683 277.747 796.609 158.23 716.385 77.215 543.364 73.903c164.034 23.474 103.294 230.286 15.943 259.645 -77.143 25.93 -116.554 -13.046 -101.35 -71.744C482.278 167.897 408.935 125.09 348.633 138.814c127.03 109.423 -72.764 231.097 -154.876 111.607C141.963 175.05 147.903 87.676 256.393 46.576h-.005C118.802 51.391 60.525 183.103 59.378 250.421c-4.291 252.038 299.6 129.306 305.2 251.675C370.67 635.295 168.72 656.034 159.593 491.846 105.89 708.226 274.94 820.858 419.985 783.17l-1.542 -.888 -.002 -267.425L650.037 381.147l231.594 133.712 .002 267.426 -231.597 133.71L468.832 811.375c-28.097 45.483 -64.05 70.146 -100.845 77.908 165.117 94.703 384.7 102.315 506.763 -23.915C999.823 736.033 994.237 524.688 914.613 369.99zm-165.6 282.208c0 56.674 -45.943 102.618 -102.617 102.618S543.775 708.872 543.775 652.198 589.719 549.58 646.393 549.58 749.01 595.524 749.01 652.198z"/></svg>