<svg height="1000" width="1000" xmlns="http://www.w3.org/2000/svg"><path d="M914.784 715.502l49.779 7.88 -29.542 -36.364 .384 -.54h-.822L501.07 152.845 367.833 250.78 17.08 48.076v65.746l361 208.703 110.462 -80.854 315.444 389.468L308.608 552.563 324.55 413.629 17.08 235.677v68.627l113.321 65.523 43.367 207.29 33.858 -162.64 49.742 28.76L238.01 608.362l.589 .093 44.535 242.293L303.967 736.84l38.897 228.065L398.282 638.35l42.092 229.002 39.651 -216.774 34.542 70.243 31.19 -63.737 36.711 5.81 43.012 259.289 40.615 -246.049 24.956 3.95 47.83 122.848 28.8 -74.333 35.267 191.868 34.34 -187.755 32.717 45.816z"/></svg>