<svg height="1000" width="1000" xmlns="http://www.w3.org/2000/svg"><path d="M357.187 645.084l288.929 -288.93zm288.929 0l-288.93 -288.93zm-7.2 -281.665V65.053H363.207v298.366H66.097v275.71h297.11v297.11h275.71V639.13h298.367v-275.71H638.915zM204.92 587.201c-47.822 0 -86.588 -38.764 -86.588 -86.586s38.764 -86.585 86.588 -86.585 86.589 38.764 86.589 86.585 -38.766 86.586 -86.589 86.586zm296.732 296.73c-47.82 0 -86.586 -38.764 -86.586 -86.588s38.765 -86.589 86.586 -86.589 86.586 38.765 86.586 86.59 -38.764 86.588 -86.586 86.588zm0 -593.455c-47.82 0 -86.586 -38.764 -86.586 -86.588 0 -47.823 38.765 -86.587 86.586 -86.587s86.586 38.764 86.586 86.587 -38.764 86.588 -86.586 86.588zm296.724 296.725c-47.822 0 -86.589 -38.764 -86.589 -86.586s38.765 -86.585 86.589 -86.585c47.822 0 86.589 38.764 86.589 86.585s-38.767 86.586 -86.59 86.586z"/></svg>