<svg height="1000" width="1000" xmlns="http://www.w3.org/2000/svg"><path d="M910.694 482.21l41.005 -6.37L935.453 371.261l-41.825 6.497a411.942 411.942 0 00-43.796 -97.642l33.301 -26.805 -66.359 -82.445 -33.61 27.052A406.712 406.712 0 00697.22 135.443L713 94.695 614.307 56.474 598.52 97.24A406.578 406.578 0 00492.725 85.573L486.083 42.81l-104.58 16.246 6.597 42.458a411.91 411.91 0 00-97.857 42.606L263.67 111.103l-82.445 66.359 26.06 32.377c-24.67 25.403 -46.275 54.32 -64.017 86.35L105.2 281.447l-38.22 98.69 37.275 14.436A406.753 406.753 0 0091.73 502.33l-38.372 5.961 16.246 104.579 37.726 -5.86a411.906 411.906 0 0043.455 99.898l-29.411 23.674 66.359 82.445 28.956 -23.307a406.714 406.714 0 0088.507 64.946l-13.257 34.236 98.69 38.221 13.252 -34.217a406.687 406.687 0 00108.968 11.645l5.686 36.6 104.579 -16.246 -5.762 -37.09a411.914 411.914 0 0099.688 -44.644l23.902 29.695 82.446 -66.359 -24.304 -30.195a406.698 406.698 0 0063.35 -88.116l36.98 14.321 38.221 -98.69L899.861 589.2c8.458 -35.64 11.964 -71.582 10.834 -106.99zm-407.8 358.792C432.682 657.115 199.38 599.392 193.882 426.24 188.02 241.646 416.453 206.214 502.894 356.033 589.49 192.49 805.606 253.422 811 426.24c5.75 184.226 -233.94 230.858 -308.106 414.762z"/></svg>