<svg height="1000" width="1000" xmlns="http://www.w3.org/2000/svg"><path d="M947.58 634.409l18.698 -113.29 -41.121 -6.786A414.964 414.964 0 00914.612 406.981L953.347 392.4 912.895 284.938l-39.406 14.834a420.341 420.341 0 00-63.384 -86.53l27.648 -33.69 -88.764 -72.839 -28.686 34.958c-30.024 -17.776 -62.646 -31.958 -97.37 -41.897l7.747 -46.932 -113.292 -18.7 -8.141 49.333a414.835 414.835 0 00-102.509 12.27l-18.4 -48.88 -107.46 40.453 19.288 51.243a420.303 420.303 0 00-80.912 60.23l-43.783 -35.93 -72.838 88.762 45.07 36.985a415.075 415.075 0 00-39.954 90.814l-58.631 -9.68L30.42 483.032l59.23 9.776c-.73 33.593 2.596 66.579 9.61 98.4l-56.338 21.208 40.452 107.462 55.83 -21.015a420.302 420.302 0 0057.078 81.398l-36.968 45.049 88.763 72.839 35.795 -43.621c28.052 17.778 58.528 32.352 90.988 43.17l-8.848 53.605 113.291 18.7 8.453 -51.205a415.206 415.206 0 00103.15 -7.874l17.453 46.367L715.82 916.839 699.202 872.69c31.447 -16.27 60.708 -36.485 87.072 -60.073l34.953 28.684 72.84 -88.763 -33.509 -27.496c18.974 -29.925 34.3 -62.609 45.304 -97.518l41.72 6.886zm-137.5 49.368a351.851 351.851 0 01-11.816 18.194 352.402 352.402 0 01-3.718 5.24c-.248 .343 -.492 .687 -.742 1.03a348.446 348.446 0 01-3.677 4.964c-.265 .35 -.532 .7 -.798 1.051a352.286 352.286 0 01-3.88 5.022c-.108 .137 -.22 .272 -.327 .41a353.546 353.546 0 01-18.178 21.198c-.16 .171 -.316 .344 -.476 .516a339.29 339.29 0 01-4.436 4.669c-.245 .253 -.489 .506 -.734 .757a348.452 348.452 0 01-4.55 4.6 355.824 355.824 0 01-21.302 19.481 356.296 356.296 0 01-59.308 40.518v-.002a354.432 354.432 0 01-18.266 9.256c-.41 .194 -.819 .392 -1.231 .584a360.352 360.352 0 01-5.339 2.434c-.523 .233 -1.047 .467 -1.572 .7a357.623 357.623 0 01-5.406 2.333c-.438 .184 -.876 .364 -1.314 .547a353.43 353.43 0 01-32.626 11.754 346.72 346.72 0 01-7.114 2.094c-.156 .044 -.314 .088 -.47 .132a352.466 352.466 0 01-35.12 7.97 351.906 351.906 0 01-69.285 5.067 361.873 361.873 0 01-17.202 -.86c-.628 -.046 -1.255 -.091 -1.883 -.14a339.075 339.075 0 01-4.83 -.414 362.7 362.7 0 01-4.435 -.447 364.649 364.649 0 01-20.304 -2.719c-.134 -.021 -.268 -.041 -.401 -.061 -.557 -.092 -1.108 -.2 -1.664 -.295a356.41 356.41 0 01-6.871 -1.224c-1.412 -.268 -2.811 -.564 -4.216 -.849 -1.402 -.284 -2.806 -.56 -4.2 -.858 -1.712 -.37 -3.414 -.764 -5.117 -1.155 -1.039 -.24 -2.082 -.472 -3.116 -.72a359.404 359.404 0 01-5.759 -1.442c-.763 -.196 -1.53 -.39 -2.292 -.591a338.799 338.799 0 01-6.292 -1.733c-.527 -.15 -1.055 -.298 -1.58 -.45a358.119 358.119 0 01-6.762 -2.031c-.309 -.097 -.617 -.192 -.925 -.29a354.163 354.163 0 01-7.2 -2.343c-.097 -.032 -.193 -.065 -.29 -.098a358.61 358.61 0 01-7.508 -2.634v.002c-21.25 -7.73 -41.45 -17.366 -60.41 -28.711l.003 -.002c-.38 -.227 -.75 -.462 -1.126 -.69a353.775 353.775 0 01-5.567 -3.424c-.917 -.578 -1.824 -1.168 -2.734 -1.754a371.417 371.417 0 01-3.96 -2.573 386.794 386.794 0 01-3.017 -2.024 374.152 374.152 0 01-6.694 -4.636c-1.084 -.77 -2.157 -1.55 -3.231 -2.329 -1.095 -.798 -2.193 -1.59 -3.278 -2.4 -.943 -.702 -1.874 -1.42 -2.81 -2.131a353.61 353.61 0 01-13.4 -10.718c-.499 -.419 -1.001 -.834 -1.497 -1.256a353.676 353.676 0 01-4.24 -3.673 447.088 447.088 0 01-1.467 -1.29 372.085 372.085 0 01-4.316 -3.894 341.79 341.79 0 01-1.077 -.995 345.603 345.603 0 01-4.615 -4.338c-.015 -.015 -.032 -.03 -.046 -.044a356.594 356.594 0 01-24.557 -26.05 356.45 356.45 0 01-37.923 -53.884 354.945 354.945 0 01-12.959 -24.835c-.145 -.307 -.292 -.614 -.437 -.922a361.251 361.251 0 01-2.628 -5.733c-.151 -.338 -.302 -.68 -.453 -1.02a346.364 346.364 0 01-2.584 -5.952c-.037 -.088 -.073 -.178 -.111 -.266a353.736 353.736 0 01-9.927 -26.462c-.049 -.146 -.098 -.292 -.147 -.437a352.89 352.89 0 01-2.012 -6.33c-.085 -.277 -.171 -.556 -.256 -.833a352.558 352.558 0 01-1.893 -6.405c-.034 -.122 -.068 -.246 -.102 -.369a351.565 351.565 0 01-13.349 -93.413 357.568 357.568 0 01.473 -20.955c.036 -.69 .063 -1.38 .102 -2.069 .097 -1.691 .22 -3.385 .34 -5.08 .081 -1.14 .162 -2.28 .257 -3.42a367.989 367.989 0 01.82 -8.69 332.888 332.888 0 01.427 -3.888 371.304 371.304 0 01.657 -5.204c.136 -1.022 .261 -2.044 .405 -3.068a359.367 359.367 0 011.274 -8.374 367.95 367.95 0 011.442 -8.102c.152 -.808 .314 -1.611 .47 -2.418a337.696 337.696 0 011.204 -5.889c.171 -.805 .341 -1.613 .519 -2.417a346.61 346.61 0 011.773 -7.68c.022 -.084 .04 -.17 .06 -.255a351.97 351.97 0 012.013 -7.814c.212 -.789 .431 -1.573 .648 -2.358a361.292 361.292 0 011.61 -5.657c.234 -.795 .465 -1.589 .703 -2.38a346.375 346.375 0 012.25 -7.204c.05 -.151 .095 -.307 .146 -.458a351.739 351.739 0 0126.474 -60.889 352.013 352.013 0 013.581 -6.333c.005 -.007 .01 -.016 .015 -.024a353.065 353.065 0 0119.338 -29.806c.207 -.287 .413 -.576 .621 -.86a350.58 350.58 0 014.633 -6.219 356.17 356.17 0 013.57 -4.615c.357 -.452 .717 -.9 1.076 -1.35a354.32 354.32 0 0111.783 -14.041c.49 -.553 .973 -1.115 1.465 -1.665 1.018 -1.136 2.052 -2.257 3.083 -3.38 .76 -.828 1.52 -1.657 2.29 -2.477a362.815 362.815 0 012.921 -3.075 356.126 356.126 0 015.434 -5.549 342.17 342.17 0 012.879 -2.832c.902 -.88 1.802 -1.765 2.715 -2.635 1.138 -1.088 2.293 -2.158 3.447 -3.23 .75 -.696 1.491 -1.404 2.246 -2.095a356.34 356.34 0 0154.545 -40.98v.002a357.042 357.042 0 0110.056 -5.903c.961 -.545 1.918 -1.094 2.884 -1.63a330.514 330.514 0 013.961 -2.153 336.255 336.255 0 012.864 -1.53A357.158 357.158 0 01349 183.02a364.204 364.204 0 014.382 -2.159c.73 -.35 1.462 -.693 2.192 -1.039a354.931 354.931 0 0124.083 -10.343c.343 -.132 .684 -.268 1.027 -.399a361.958 361.958 0 015.924 -2.204c.344 -.124 .689 -.25 1.033 -.372a361.973 361.973 0 016.212 -2.168c.104 -.036 .21 -.07 .314 -.106a353.403 353.403 0 0134.682 -9.745 351.692 351.692 0 0177.858 -8.693c.217 0 .432 0 .65 0a355.53 355.53 0 018.555 .123c2.258 .059 4.518 .139 6.783 .241 .646 .03 1.292 .064 1.94 .097 2.08 .104 4.16 .226 6.245 .367 .883 .06 1.768 .132 2.654 .2 1.88 .141 3.761 .29 5.646 .462 1.17 .108 2.341 .234 3.513 .354 1.63 .166 3.26 .328 4.893 .515 1.596 .186 3.197 .399 4.795 .606 1.24 .16 2.48 .307 3.721 .48 2.874 .403 5.752 .836 8.633 1.313 2.636 .435 5.256 .91 7.869 1.401a356.083 356.083 0 0112.192 2.519c1.616 .362 3.227 .732 4.834 1.116 1.538 .37 3.073 .749 4.602 1.137 .65 .165 1.297 .333 1.946 .5a363.199 363.199 0 0116.5 4.697 351.939 351.939 0 0167.303 28.888 351.484 351.484 0 015.416 3.102c.442 .258 .887 .514 1.329 .774a340.463 340.463 0 016.589 3.98 364.076 364.076 0 014.995 3.144c.406 .26 .807 .525 1.212 .788a351.792 351.792 0 0122.189 15.615c.275 .21 .555 .419 .832 .63a348.31 348.31 0 014.806 3.762c.393 .314 .788 .626 1.18 .942a361.88 361.88 0 014.698 3.834c.32 .267 .64 .538 .963 .805a354.618 354.618 0 0125.314 23.37c.238 .244 .48 .485 .718 .73a333.387 333.387 0 015.085 5.316c1.496 1.594 2.978 3.2 4.443 4.82a356.458 356.458 0 0143.762 59.93h-.002c.116 .2 .226 .405 .342 .606a354.2 354.2 0 013.468 6.136c.491 .891 .968 1.79 1.452 2.684 .762 1.41 1.52 2.82 2.265 4.238 .545 1.041 1.08 2.088 1.615 3.136a353.781 353.781 0 013.6 7.243 344.368 344.368 0 011.702 3.59c.571 1.222 1.145 2.438 1.703 3.665 .473 1.039 .93 2.088 1.394 3.132a354.677 354.677 0 016.64 16.021c.21 .545 .428 1.088 .635 1.635 .682 1.796 1.344 3.6 1.998 5.408 .2 .557 .404 1.113 .602 1.671 .667 1.876 1.319 3.759 1.958 5.647 .138 .41 .274 .824 .413 1.236a353.182 353.182 0 0111.024 41.28 351.765 351.765 0 017.03 74.126c-.004 .314 -.017 .63 -.02 .944a358.114 358.114 0 01-.173 7.008c-.031 .922 -.072 1.844 -.111 2.765a374.237 374.237 0 01-.275 5.515c-.052 .907 -.101 1.816 -.16 2.723a350.595 350.595 0 01-.572 7.589c-.03 .343 -.064 .69 -.095 1.034 -.22 2.448 -.468 4.9 -.74 7.353 -.097 .876 -.202 1.752 -.307 2.628a381.46 381.46 0 01-.73 5.793c-.115 .849 -.226 1.696 -.346 2.543a353.682 353.682 0 01-1.22 8.02c-.006 .027 -.008 .053 -.013 .082 -.008 .053 -.02 .107 -.028 .16a361.605 361.605 0 01-1.453 8.157c-.2 1.049 -.414 2.092 -.623 3.137a363.874 363.874 0 01-1.027 5.031 355.547 355.547 0 01-.859 3.883 354.499 354.499 0 01-2.011 8.469c-.276 1.1 -.563 2.195 -.849 3.29 -.43 1.65 -.863 3.3 -1.316 4.938 -.183 .661 -.375 1.315 -.562 1.974a351.376 351.376 0 01-37.781 86.935zM559.25 185.489C385.554 156.82 221.5 274.383 192.832 448.082 164.16 621.78 281.729 785.83 455.427 814.5S793.175 725.606 821.845 551.906 732.946 214.16 559.25 185.49zm101.44 368.256l-96.27 -78.998L360.951 722.693l-50.556 -41.487L513.864 433.26 384.574 327.164 570.027 262.42l197.04 161.698L660.69 553.745z"/></svg>