<svg height="1000" width="1000" xmlns="http://www.w3.org/2000/svg"><path d="M940.239 378.197l-53.81 93.681c-32.835 -14.044 -67.86 -23.88 -104.486 -28.725v-108.23H677.177V443.08a400.15 400.15 0 00-101.98 27.294L522.3 378.194l-70.218 39.498L423.11 377.134a153.559 153.559 0 0022.112 -44.46l105.707 -11.567L540.52 215.305l-101.148 10A155.374 155.374 0 00406.104 176.81L446.51 86.565 350.24 43.485l-40.011 89.372a153.508 153.508 0 00-59.217 6.67L194.57 60.508l-85.852 62.718 58.095 81.335c-9.771 15.508 -16.907 32.995 -20.7 51.94L44.055 267.67l10.408 105.797 107.854 -11.802a155.377 155.377 0 0028.78 37.287l-45.63 101.912 96.264 43.08 46.002 -102.753a153.555 153.555 0 0046.195 -3.988l66.482 91.069 61.853 -45.19 22.765 39.307a407.772 407.772 0 00-76.29 76.226l-95.975 -55.294 -50.106 91.105 93.812 54.496A403.323 403.323 0 00328.5 793.858H219.377v104.77h109.587c3.24 23.493 8.548 46.289 15.68 68.327h330.184C628.176 945.985 595.67 899.141 595.67 844.673c0 -74.031 60.012 -134.039 134.04 -134.039s134.038 60.008 134.038 134.04c0 54.464 -32.506 101.31 -79.16 122.281h178.425V390.723l-22.776 -12.528zm-637.264 1.143c-47.338 2.889 -88.059 -33.136 -90.948 -80.472s33.15 -88.052 80.487 -90.941 88.06 33.143 90.948 80.479c2.89 47.336 -33.148 88.046 -80.487 90.934z"/></svg>