<svg height="1000" width="1000" xmlns="http://www.w3.org/2000/svg"><path d="M898.613 478.11c-26.078 -66.156 -79.876 -52.148 -51.328 20.246l3.84 9.739c-53.445 13.002 -75.662 -10.698 -93.45 -50.992 6.97 -41.51 8.306 -83.163 2.688 -123.542 -2.683 -19.27 9.78 -29.745 23.121 -39.822 15.745 -.124 31.406 -4.528 45.509 -14.334 19.3 13.166 45.74 8.982 59.978 -9.854 14.679 -19.423 10.835 -47.066 -8.59 -61.744a44.719 44.719 0 00-4.087 -2.74C936.904 44.14 877.633 -4.728 739.152 101.35a45.073 45.073 0 00-3.347 -2.801c-19.423 -14.68 -47.066 -10.832 -61.744 8.59 -14.438 19.103 -10.945 46.152 7.659 61.003 -9.137 27.982 -2.09 55.913 13.858 78.309 -.654 13.054 -5.285 24.027 -19.432 35.042 -17.87 13.922 -36.908 31.669 -55.898 52.523C576.781 311.884 543.394 277.187 514.865 237.425l4.122 -1.743c71.662 -30.303 44 -78.515 -21.49 -50.824 -32.313 -76.396 -78.804 -44.706 -50.831 21.492 -80.28 33.944 -54.652 83.02 21.496 50.824l3.528 -1.493c27.81 54.375 64.723 93.592 112.124 122.506 -33.411 44.625 -64.065 98.044 -84.723 156.14C430.945 481.03 367.545 497.805 296.223 553.505L295.08 551.7c-44.207 -69.863 -93.228 -44.15 -46.623 29.503h.005c-60.725 38.42 -40.595 90.983 29.503 46.628 38.017 60.094 88.233 36.26 46.626 -29.497l-3.861 -6.102c71.131 -31.74 123.6 -21.328 154.71 40.3 -2.303 18.676 -3.324 37.575 -2.89 56.58C410.97 796.333 309.702 900.606 199.772 834.793 110.061 781.093 60.616 565.957 167.764 516.375c-173.272 27.3 -140.61 308.4 -22.094 394.077 134.363 97.136 345.407 19.022 441.639 -131.763 17.98 -18.017 35.209 -37.677 51.375 -58.64 54.941 19.104 92.644 67.378 106.766 129.823l-3.62 -.226c-77.67 -4.898 -74.445 50.587 -3.482 55.072 -5.217 82.768 50.552 75.184 55.075 3.462 86.985 5.494 85.998 -49.863 3.477 -55.072l-6.708 -.421C794.726 759.797 749.114 696.679 687.68 646.744c21.347 -37.142 39.158 -76.608 52.175 -117.031 28.859 33.762 71.335 39.379 128.364 21.676 30.434 74.948 82.38 58.53 50.648 -21.94C985.71 503.077 975.78 447.686 898.61 478.113z"/></svg>