<svg height="1000" width="1000" xmlns="http://www.w3.org/2000/svg"><path d="M972.485 347.167C914.73 131.364 703.879 .22 501.817 54.433v.005C299.767 108.642 -28.84 384.543 28.905 600.33s414.31 386.408 616.366 332.203S1030.239 562.968 972.486 347.166zM410.332 165.252c108.703 -57.628 224.022 -55.925 257.593 3.808 33.567 59.724 -27.329 154.856 -136.032 212.481S307.871 437.466 274.3 377.734C240.73 318.002 301.63 222.88 410.332 165.252zm-295.335 309.57c0 -40.677 32.975 -73.648 73.647 -73.648s73.647 32.973 73.647 73.647S229.32 548.47 188.644 548.47 114.997 515.496 114.997 474.82zm508.63 400.6C515.934 904.313 358.18 860.348 239.676 778.924c266.48 121.112 624.236 23.305 670.77 -416.61v.006c50.627 189.17 -109.712 465.586 -286.82 513.1z"/></svg>