<svg height="1000" width="1000" xmlns="http://www.w3.org/2000/svg"><path d="M366.648 580.665v146.423L492.23 800.3l125.58 -73.212V580.663l-125.58 -73.21 -125.582 73.212zm10.92 143.758l-.522 -135.437 117.79 -66.91L377.568 724.423zM893.638 22.06l-59.789 .003c-13.323 13.323 -15.88 33.35 -7.685 49.258l-53.14 41.381C765.64 106.4 756.068 102.587 745.6 102.587c-23.348 0 -42.276 18.928 -42.276 42.277 0 6.721 1.577 13.07 4.366 18.711l-52.29 40.718c-7.637 -7.565 -18.143 -12.24 -29.743 -12.24 -23.348 0 -42.276 18.93 -42.276 42.277a42.054 42.054 0 005.866 21.477l-50.236 39.12c-10.766 -34.265 -73.342 -38.78 -92.082 -8.801l-49.165 -36.813a42.153 42.153 0 002.742 -14.982c0 -23.348 -18.928 -42.277 -42.275 -42.277a42.083 42.083 0 00-25.503 8.562l-54.803 -41.039a42.162 42.162 0 002.636 -14.716c0 -23.348 -18.928 -42.277 -42.276 -42.277a42.081 42.081 0 00-25.275 8.387L154.48 67.144c5.808 -15.117 2.63 -32.902 -9.553 -45.087l-59.788 .003c-16.497 16.497 -16.497 43.282 .003 59.783 15.586 15.586 40.34 16.442 56.944 2.586l57.622 43.146a42.097 42.097 0 00-3.696 17.284c0 23.348 18.928 42.275 42.275 42.275 10.475 0 20.052 -3.818 27.438 -10.127l53.81 40.292a42.133 42.133 0 00-3.58 17.026c0 23.348 18.927 42.274 42.275 42.274 10.374 0 19.868 -3.742 27.223 -9.941l56.173 42.06v82.292l1.58 -.017 -202.56 117.262 -.003 291.1 251.422 145.55 251.423 -145.55 .002 -291.101L539.054 389.907l1.55 -.018v-69.256l63.863 -49.73a42.08 42.08 0 0021.19 5.698c23.347 0 42.275 -18.926 42.275 -42.274 0 -4.018 -.572 -7.9 -1.62 -11.582l55.31 -43.07a42.08 42.08 0 0023.977 7.462c23.347 0 42.275 -18.927 42.275 -42.275a42.157 42.157 0 00-2.64 -14.722l55.15 -42.946c16.417 10.897 38.784 9.116 53.25 -5.349 16.503 -16.499 16.503 -43.284 .002 -59.784zM651.054 746.713L491.941 839.39 332.83 746.713l.002 -185.355 159.114 -92.676 159.112 92.676 -.002 185.355z"/></svg>