<svg height="1000" width="1000" xmlns="http://www.w3.org/2000/svg"><path d="M959.942 307.418C952.044 44.462 635.697 -48.247 508.938 200.588 382.403 -27.363 48.022 26.549 56.605 307.419c8.051 263.457 301.265 369.415 452.333 631.078C659.861 677.091 968.361 587.726 959.942 307.418zm-58.71 132.235C826.76 598.283 620.746 689.117 508.347 879.229 397.337 691.47 205.238 590.874 124.576 439.653h1.503c-.805 -2.047 -1.227 -4.115 -1.227 -6.202 0 -42.986 173.81 -77.834 388.213 -77.834s388.213 34.846 388.213 77.834c0 2.087 -.423 4.156 -1.227 6.202h1.181zm8.867 -218.566c-7.264 31.959 -57.109 35.985 -111.33 8.993s-92.29 -74.781 -85.025 -106.74 57.11 -35.985 111.331 -8.993 92.289 74.78 85.024 106.74zm-671.844 -94.32c-8.25 36.01 34.987 89.853 96.574 120.265s118.202 25.876 126.452 -10.134c8.251 -36.007 -34.987 -89.853 -96.574 -120.265s-118.2 -25.874 -126.452 10.134z"/></svg>