<svg height="1000" width="1000" xmlns="http://www.w3.org/2000/svg"><path d="M596.575 152.544c71.615 -55.102 102.744 60.886 60.285 92.107 -55.526 40.83 -119.88 -46.255 -60.285 -92.107zM539.798 50.805c65.195 16.093 31.186 85.437 -6.822 75.25 -49.703 -13.318 -47.428 -88.642 6.822 -75.25zm372.292 53.502v-.008c-11.359 .452 -20.954 3.652 -26.036 7.927 -72.415 60.897 62.336 170.583 45.282 258.104 -20.474 105.056 -103.988 64.388 -156.22 6.793 -186.023 -205.14 -7.404 .255 -37.356 144.898C717.38 620.42 583.26 559.809 519.278 525.417 430.108 477.492 334.073 371.197 235.14 387.311c-100.065 16.302 -80.23 111.482 -15.849 96.223 87.765 -20.8 168.6 -2.197 176.596 116.599 6.352 94.38 -53.694 173.25 -163.101 115.216 -26.066 -13.825 -52.007 -26.879 -92.827 4.53 -50.372 38.757 -41.83 96.312 -9.56 128.647 68.238 46.19 181.296 41.357 280.422 19.04 -83.73 56.2 -240.902 75.062 -326.532 12.697 -22.142 5.958 -43.26 5.416 -55.178 7.409v79.243h680.055C815.196 923.691 872.12 825.046 901.513 725.711c30.367 61.15 -.675 162.583 -69.163 241.204h134.077V136.004c-12.202 -25.452 -35.406 -32.452 -54.336 -31.696zM594.188 780.514C499.502 911.896 372.358 747.787 517.582 642.25v-.005c77.114 -56.039 298.154 -55.555 295.802 71.57 -2.041 110.395 -169.706 -1.97 -219.195 66.7zM884.246 584.923C806.432 617.358 748.399 512.599 832.404 475.63c100.946 -44.42 111.344 84.487 51.842 109.292z"/></svg>