<svg height="1000" width="1000" xmlns="http://www.w3.org/2000/svg"><path d="M460.136 814.08l505.972 153.716L812.402 461.819C648.072 769.69 641.658 477.65 547.388 407.495A104.5 104.5 0 00528.02 380.767c-38.512 -38.513 -99.56 -40.72 -140.671 -6.651l-11.44 -11.385a46.523 46.523 0 007.265 -25.02c0 -25.824 -20.934 -46.758 -46.757 -46.758a46.531 46.531 0 00-25.209 7.387L260.62 247.996a46.53 46.53 0 007.482 -25.355c0 -25.825 -20.934 -46.76 -46.757 -46.76 -9.43 0 -18.202 2.802 -25.547 7.604l-51.44 -51.194a46.529 46.529 0 007.698 -25.695c0 -25.824 -20.933 -46.759 -46.756 -46.759a46.536 46.536 0 00-25.886 7.82L42.45 30.872 28.64 44.747l37.105 36.927a46.521 46.521 0 00-7.202 24.923c0 25.824 20.93 46.759 46.757 46.759a46.52 46.52 0 0025.112 -7.327l51.596 51.349a46.53 46.53 0 00-7.42 25.26c0 25.825 20.93 46.76 46.756 46.76a46.524 46.524 0 0025.452 -7.544l50.5 50.258a46.53 46.53 0 00-7.637 25.599c0 25.824 20.93 46.758 46.757 46.758a46.516 46.516 0 0025.788 -7.76l11.29 11.237c-34.194 41.114 -32.03 102.26 6.528 140.815a104.603 104.603 0 0024.137 18.012c67.063 96.473 366.323 101.652 55.976 267.306zM448.048 408.293c0 .002 -.002 .002 0 0a52.146 52.146 0 012.587 -.228c.036 -.002 .073 -.007 .109 -.008a44.718 44.718 0 012.693 -.083c4.034 0 7.951 .51 11.686 1.472a46.609 46.609 0 0119.753 10.674 46.724 46.724 0 014.64 4.87 46.565 46.565 0 0110.677 29.742 46.528 46.528 0 01-7.044 24.675L428.572 415.14a46.463 46.463 0 0119.475 -6.847zm31.522 85.219a46.544 46.544 0 01-7.934 4.305 46.623 46.623 0 01-18.199 3.675 46.709 46.709 0 01-13.905 -2.102 46.698 46.698 0 01-19.158 -11.594c-8.462 -8.462 -13.693 -20.151 -13.693 -33.063 0 -.005 0 -.01 0 -.013 0 -.935 .032 -1.863 .09 -2.784 .002 -.062 .01 -.124 .014 -.186a49.988 49.988 0 01.248 -2.667 46.477 46.477 0 017.504 -20.29l65.032 64.72zm110.75 98.952c103.797 75.586 181.527 56.3 202.809 -8.99v-.005l92.76 304.58L581.311 795.281c65.299 -21.295 84.59 -99.026 9.008 -202.817z"/></svg>