<svg height="1000" width="1000" xmlns="http://www.w3.org/2000/svg"><path d="M35.1 963.258L105.98 319c13.12 209.853 7.968 452.033 69.333 576.536 21.849 -165.6 30.628 -327.94 20.596 -485.553 29.688 139.79 69.306 276.267 76.96 423.408 14.42 -109.07 24.7 -217.457 62.005 -330.338 -1.48 127.116 -33.462 243.547 24.72 307.056 28.141 -99.467 56.53 -198.698 61.34 -321.505 41.475 120.625 35.769 264.839 48.65 399.775 16.413 -132.713 29.795 -502.77 91.466 -620.411 -6.061 243.702 -7.53 436.667 53.424 534.73 60.248 -75.408 65.452 -223.15 66.844 -363.351 42.532 120.406 71.09 257.586 73.819 425.749 16.82 -140.308 36.4 -280.615 84.608 -420.912 -11.209 172.16 -2.504 306.041 38.073 378.619 26.83 -108.319 49.73 -216.637 56.781 -324.977 35.918 161.416 25.349 311.19 32.576 465.43H35.1z"/></svg>