<svg height="1000" width="1000" xmlns="http://www.w3.org/2000/svg"><path d="M709.264 831.647C683.838 783.348 656.819 734.299 627.874 685.63 677.256 509.954 754.332 309.077 933.451 61.858 755.07 180.55 622.369 359.519 531.259 536.786 417.772 377.808 277.817 236.896 97.913 158.938c141.1 159.33 278.104 353.22 366.911 524.03 -20.059 50.385 -36.628 99.122 -49.807 144.667C392.423 661.435 268.95 493.242 142.347 488.352c133.358 133.903 220.74 344.756 146.35 458.408h97.94a887.122 887.122 0 00-2.2 12.656H558.28a2421.76 2421.76 0 003.745 -14.07c.667 4.593 1.27 9.138 1.735 13.576h210.306a9497.251 9497.251 0 00-5.693 -11.448h87.323C809.544 816.86 834.588 650.696 878.125 460.295c-99.422 89.616 -149.45 222.832 -168.862 371.352zM82.214 649.125c96.908 147.931 112.8 228.4 74.844 297.18l123.379 -.002C256.493 814.665 222.94 733.732 82.214 649.123z"/></svg>