<svg height="1000" width="1000" xmlns="http://www.w3.org/2000/svg"><path d="M743.176 247.574l31.345 8.4 37.557 -140.16L481.838 27.327l-13.91 51.913C278.696 80.573 133.698 327.93 78.888 532.483l22.183 112.03C194.275 366.6 325.581 201.7 448.726 168.678l46.452 12.447C375.707 217.359 266.856 337.85 223.241 500.624c-43.917 163.902 -9.126 323.76 77.527 414.557l75.068 20.114a190.092 190.092 0 004.579 11.401l2.543 -9.492 69.523 18.63 -2.543 9.492a188.591 188.591 0 009.667 -7.584l84.907 22.75C664.955 945.186 775.015 824.14 818.931 660.238c43.616 -162.776 9.591 -321.55 -75.755 -412.665z"/></svg>