<svg height="1000" width="1000" xmlns="http://www.w3.org/2000/svg"><path d="M522.162 32.126l-125.235 98.565 147.308 311.704L700.14 66.639 522.162 32.126zm-465.99 636.01L88.359 581.06l303.051 6.482L56.172 668.136zm547.34 -213.078L884.721 191.8l-50.427 -78.25 -119.987 59.122L603.51 455.057zM274.545 35.956L493.387 470.87 186.61 53.796l87.938 -17.84zM58.29 290.227L36.156 404.58 416.802 518.9 219.369 359.089l-25.823 60.25L58.291 290.227zM86.238 55.15l353.945 423.77L34.837 126.995 86.238 55.15zM940.046 201.24L815.227 363.405 959.984 288.57l-19.939 -87.329zM38.732 457.894l204.812 74.19 -203.06 3.542 -1.754 -77.73 .002 -.002zm755.826 -32.3L846.8 547.49l-31.886 124.127 -66.05 -3.414 -89.855 97.011 64.8 69.253 -206.12 5.691 -22.776 -29.608L377.615 767.277l-35.303 30.75L249.344 681.032 20.186 788.396v190.86h959.347V338.93z"/></svg>