<svg height="1000" width="1000" xmlns="http://www.w3.org/2000/svg"><path d="M617.416 712.069l-18.192 244.2h285.743l-55.963 -181.03h-76.742V407.378l119.25 -147.83V42.868h-125.62V145.07h-76.467V42.868H542.438v102.201h-75.097V42.868H340.354v102.201h-75.098V42.868H139.622v216.678l119.25 147.83v367.863h-76.735l-55.963 181.029H420.81l-16.092 -244.2h-77.484C313.627 639.706 316.515 563.556 337.865 504.675a242.288 242.288 0 011.747 -4.684c4.439 -11.512 9.614 -22.314 15.53 -32.254 .136 -.229 .268 -.462 .405 -.689a191.5 191.5 0 012.024 -3.27c.23 -.364 .453 -.734 .686 -1.096a172.8 172.8 0 011.934 -2.932c.292 -.435 .58 -.878 .874 -1.31 .622 -.908 1.256 -1.8 1.891 -2.69 .339 -.477 .676 -.959 1.018 -1.43a154.248 154.248 0 011.863 -2.489c.384 -.504 .764 -1.012 1.15 -1.51a155.568 155.568 0 011.854 -2.322c.418 -.515 .834 -1.034 1.256 -1.543 .611 -.735 1.235 -1.458 1.858 -2.18 .452 -.522 .902 -1.045 1.36 -1.559a161.075 161.075 0 011.858 -2.04c.484 -.524 .969 -1.048 1.46 -1.563a144.137 144.137 0 011.866 -1.915 144.966 144.966 0 011.553 -1.548 130.582 130.582 0 011.884 -1.801 125.178 125.178 0 017.185 -6.28 134.216 134.216 0 013.75 -2.924 118.048 118.048 0 011.898 -1.392c.648 -.467 1.3 -.93 1.955 -1.382 .656 -.453 1.319 -.895 1.985 -1.336a124.536 124.536 0 011.977 -1.287 112.713 112.713 0 012.067 -1.27c.664 -.401 1.328 -.805 2 -1.193 .71 -.41 1.432 -.81 2.155 -1.205 .67 -.369 1.338 -.739 2.017 -1.094 .744 -.39 1.496 -.765 2.25 -1.139 .674 -.336 1.345 -.676 2.026 -.998 .778 -.37 1.567 -.72 2.356 -1.072 .671 -.3 1.342 -.607 2.022 -.896 .817 -.347 1.647 -.672 2.475 -1.002 .67 -.265 1.336 -.54 2.014 -.796 .859 -.323 1.73 -.62 2.599 -.924 .666 -.234 1.324 -.475 1.997 -.697 .912 -.3 1.84 -.576 2.765 -.854 .644 -.196 1.282 -.402 1.933 -.587 .987 -.28 1.992 -.532 2.992 -.79 .607 -.155 1.205 -.324 1.82 -.472 1.133 -.272 2.285 -.513 3.437 -.754 .494 -.102 .979 -.221 1.477 -.32a126.393 126.393 0 015.029 -.885C437.224 391.145 429.92 377.82 424.832 362.993h-.003c-5.103 -14.871 -7.976 -31.255 -7.976 -48.482 0 -67.94 43.245 -122.768 96.356 -122.768 3.32 0 6.758 -.513 9.992 0h.005c48.499 6.299 86.362 59.066 86.362 122.768 0 17.276 -2.913 33.636 -8.059 48.482 -3.328 9.601 -7.592 18.567 -12.616 26.73 -.036 .058 -.068 .118 -.104 .177a123.81 123.81 0 01-2.888 4.443c-.087 .127 -.166 .26 -.253 .387a125.716 125.716 0 01-3.057 4.266c-.083 .11 -.16 .23 -.246 .34a120.91 120.91 0 01-3.468 4.392s0 0 .002 0c0 0 0 .002 -.002 .002 .276 .052 .548 .117 .825 .17a112.67 112.67 0 013.611 .758c.592 .135 1.176 .29 1.765 .435 .883 .217 1.766 .43 2.642 .667 .643 .175 1.28 .364 1.917 .548 .81 .233 1.616 .467 2.418 .718 .657 .205 1.309 .424 1.96 .64 .773 .256 1.542 .518 2.308 .79a123.312 123.312 0 016.135 2.387c.74 .312 1.472 .633 2.203 .96 .632 .281 1.265 .566 1.893 .858 .73 .343 1.455 .697 2.18 1.054 .615 .304 1.233 .604 1.844 .917 .732 .377 1.457 .772 2.18 1.163 .59 .319 1.18 .628 1.764 .956 .784 .44 1.557 .904 2.333 1.363 .51 .301 1.026 .591 1.532 .902a124.215 124.215 0 013.671 2.334c.547 .36 1.082 .74 1.621 1.111 .696 .477 1.395 .949 2.083 1.438 .59 .42 1.171 .858 1.755 1.29 .626 .462 1.255 .922 1.874 1.396 .597 .458 1.187 .928 1.778 1.399 .594 .471 1.188 .943 1.775 1.424 .595 .489 1.184 .987 1.773 1.487 .57 .484 1.137 .97 1.7 1.465a139.64 139.64 0 013.396 3.083c.582 .547 1.163 1.094 1.74 1.652 .527 .513 1.05 1.032 1.575 1.555 .576 .574 1.152 1.15 1.72 1.735 .507 .52 1.004 1.052 1.504 1.582 .572 .607 1.146 1.21 1.71 1.83 .475 .52 .94 1.054 1.41 1.582 .576 .65 1.156 1.292 1.725 1.953 .369 .428 .725 .87 1.091 1.304a167.385 167.385 0 013.705 4.562c.344 .438 .696 .87 1.037 1.314 .574 .747 1.136 1.513 1.7 2.274 .395 .533 .794 1.057 1.183 1.594 .547 .754 1.083 1.523 1.621 2.287 .395 .562 .79 1.121 1.18 1.689 .528 .771 1.05 1.554 1.571 2.338 .384 .577 .767 1.156 1.147 1.74a218.536 218.536 0 012.63 4.18 176.763 176.763 0 012.544 4.267c.492 .85 .983 1.703 1.467 2.565 .33 .588 .655 1.184 .98 1.778 .488 .89 .978 1.78 1.456 2.681 .294 .555 .581 1.117 .871 1.676 .497 .958 .997 1.913 1.483 2.884 .204 .406 .399 .82 .601 1.229a237.509 237.509 0 013.695 7.827l.002 -.002c26.397 58.851 33.576 138.189 17.305 216.554h-81.049z"/></svg>