<svg height="1000" width="1000" xmlns="http://www.w3.org/2000/svg"><path d="M310.77 59.89v183.66l400.225 -99.57V59.89c0 .002 -400.224 .002 -400.224 .002zm400.225 119.555l-400.224 99.57v87.868L710.995 266.158v-86.713zM742.5 60.033h54.173v874.455h-54.173V60.033zm-519.74 0h54.173v874.455h-54.173V60.033zm88.012 664.785v88.175h132.046c7.45 -34.278 36.137 -59.84 70.38 -59.84s62.868 25.565 70.32 59.84h127.476v-86.224L310.77 724.818zm0 122.601v85.553h400.224v-85.553H583.762C576.611 882.132 547.73 908.11 513.2 908.11s-63.41 -25.982 -70.562 -60.69H310.772z"/></svg>