<svg height="1000" width="1000" xmlns="http://www.w3.org/2000/svg"><path d="M816.455 563.78C927.016 422.494 988.208 240.453 978.686 38.957l-.005 .003C843.993 187.6 572.851 146.198 461.602 34.94L315.86 98.419l94.133 94.13L292.795 309.465l-93.99 -93.987 -54.757 137.018c16.791 16.79 32.007 37.211 45.28 60.19L38.958 562.693v173.098L236.416 538.734c24.05 114.99 6.122 244.839 -79.634 322.127 180.557 5.608 344.922 -42.772 478.466 -130.478l177.656 10.934 3.552 -177.538zM379.385 396.055L496.562 279.117l42.53 42.528c32.3 32.287 32.3 84.765 -.003 117.065s-84.76 32.292 -117.053 -.008l-42.65 -42.647z"/></svg>