<svg height="1000" width="1000" xmlns="http://www.w3.org/2000/svg"><path d="M914.426 622.962l-44.814 25.874L806.976 540.349l78.344 -45.234 -56.837 -98.443 -78.343 45.234L686.266 331.273l44.814 -25.874L669.577 198.876l-15.841 9.145C581.03 84.617 499.008 37.786 454.686 23.924h-83.394c102.75 36.874 177.827 107.679 232.066 213.18l-14.86 8.58C494.506 136.603 371.406 55.327 237.135 23.923H37.868c169.347 27.027 313.804 129.682 416.16 299.398l-2.942 1.698C367.189 242.12 281.049 170.182 184.218 120.242c64.163 45.023 121.839 107.04 177.423 184.734C261.745 205.091 159.79 122.354 35.439 80.481v68.88c112.682 31.181 222.037 115.075 309.257 237.085l-14.642 8.453 61.503 106.523 44.81 -25.871 63.873 110.633L137.86 795.409 128.99 780.04 27.309 838.747l74.58 129.176 101.682 -58.706L194.7 893.85 557.08 684.627l62.636 108.487 -44.81 25.87 61.504 106.524L975.93 729.484 914.427 622.962zM338.255 102.86c81.47 33.64 154.838 96.595 193.79 175.417l-22.214 12.825L338.255 102.861z"/></svg>