<svg height="1000" width="1000" xmlns="http://www.w3.org/2000/svg"><path d="M887.302 228.015l-132.934 -20.01 38.767 -51.236L632.329 34.019l-40.863 53.995C524.916 48.7 456.43 31.705 405.873 36.875l.008 .044c-7.224 .694 -14.077 2.438 -20.509 4.047C365.18 46.038 349.484 55.3 339.586 68.387L508.7 197.427l-37.718 49.859 31.781 24.26C331.754 481.916 135.815 662.19 25.595 905.048l96.875 73.328C330.126 797.978 441.463 573.939 601.74 347.09l30.048 22.937 38.767 -51.236 55.401 122.482 83.087 62.856c102.083 -42.91 147.56 -118.835 161.35 -213.24l-83.09 -62.874z"/></svg>