<svg height="1000" width="1000" xmlns="http://www.w3.org/2000/svg"><path d="M499.99 31.245c-258.87 0 -468.748 209.877 -468.748 468.748s209.877 468.75 468.749 468.75S968.74 758.864 968.74 499.992 758.888 31.245 499.99 31.245zm0 117.204c194.167 0 351.568 157.402 351.568 351.568S694.156 851.584 499.991 851.584 148.423 694.182 148.423 500.017C148.448 305.826 305.85 148.449 499.991 148.449zm234.387 205.074s-39.534 83.308 -50.245 125.956c-13.995 55.784 5.735 85.931 -14.607 140 -8.8 15.857 18.897 40.686 18.284 55.147 -.54 12.206 -48.358 38.162 -58.872 43.382 -10.515 5.245 -72.893 28.53 -90.784 28.603 -18.922 .097 -18.112 -41.544 -50.172 -41.568 -47.01 -.05 -169.632 -35.908 -169.632 -35.908 -18.554 -4.779 -52.72 -1.96 -52.72 -22.696s24.288 -35.882 45.857 -35.931l85 7.45c20.637 -1.298 42.279 -13.382 42.94 -40.392 -.342 -39.975 -4.288 -70.662 -24.582 -103.112L336.069 351.538c-4.706 -9.78 -5.833 -26.471 7.794 -33.922s29.093 3.628 34.388 13.26l87.99 119.705c9.388 8.75 26.102 10.417 24.682 -8.186L452.075 264.258c-2.427 -12.648 3.995 -27.99 18.652 -27.99 19.216 0 31.054 7.328 30.687 18.97l42.72 175.76c3.333 8.553 15.172 7.402 18.358 -.49l12.181 -170.932c.613 -5.441 7.745 -14.951 21.398 -12.966s21.52 16.593 20.073 22.255l-3.946 168.872c2.77 14.975 14.534 17.157 23.7 8.798l59.78 -106.911c3.628 -8.971 17.867 -10.833 26.078 -7.28 7.622 5.05 12.622 11.74 12.622 21.177z"/></svg>