<svg height="1000" width="1000" xmlns="http://www.w3.org/2000/svg"><path d="M838.451 67.148L246.48 543.246l-24.168 -24.69L36.094 654.135C67.31 769.96 141.467 859.21 226.465 941.75L389.401 762.356 270.28 633.6l5.22 -15.7 89.265 111.555 73.058 -77.922 11.19 -54.477 51.724 -12.623 7.94 -48.365 47.15 -10.399 3.114 -43.21 51.166 -14.681 5.888 -40.524 43.132 -11.778 12.65 -42.065 42.362 -16.606L726.33 321.16l34.147 -13.786 8.218 -31.491 34.193 -13.728 6.846 -30.217L843.38 218.97l7.535 -33.5 30.861 -7.445 4.884 -33.518 28.26 -1.839 32.943 -35.139L838.452 67.148zM307.417 762.514l-73.766 78.992C224.116 763.353 189.865 703.464 120.974 669.19l62.087 -41.923 124.357 135.248z"/></svg>