<svg height="1000" width="1000" xmlns="http://www.w3.org/2000/svg"><path d="M968.74 265.63S889.674 432.272 868.276 517.566c-27.99 111.569 4.068 195.882 -36.618 304.068C761.34 948.521 756.584 969.036 499.99 968.767c-94.02 -.098 -363.309 -71.79 -363.309 -71.79C99.55 887.444 31.265 893.057 31.265 851.586s48.578 -71.74 91.74 -71.863L292.98 794.65c41.298 -2.598 84.534 -26.765 85.858 -80.784C378.15 633.938 370.235 572.54 329.67 507.615L172.097 261.78c-9.412 -19.559 -11.642 -52.941 15.588 -67.844s58.186 7.255 68.75 26.52l175.98 239.387c18.799 17.476 52.23 20.857 49.363 -16.373L404.058 87.197C399.229 61.878 412.072 31.24 441.36 31.24c38.456 0 62.108 14.681 61.349 37.916l85.44 351.52c6.692 17.107 30.369 14.828 36.741 -.956L649.229 77.883c1.25 -10.907 15.466 -29.902 42.77 -25.956 27.303 3.97 43.038 33.21 40.147 44.51l-7.893 337.77c5.54 29.95 29.068 34.313 47.402 17.597L891.24 237.956c7.255 -17.941 35.71 -21.667 52.181 -14.559 15.343 10 25.319 23.383 25.319 42.23z"/></svg>