<svg height="1000" width="1000" xmlns="http://www.w3.org/2000/svg"><path d="M946.709 492.692l-24.645 9.014C917.084 442.062 898.25 380.478 865.679 321.527l-49.039 34.45C772.436 277.812 713.23 199.534 640.564 126.87 586.913 228.911 523.418 319.008 450.72 397.808L93.35 39.362H29.577v61.496L388.841 460.12C307.097 536.54 215.354 600.63 114.329 653.11c67.085 67.085 138.956 122.701 211.106 165.633l-36.126 51.409c67.27 37.172 137.973 56.448 205.309 57.652l-9.795 26.771c103.484 25.66 203.85 7.772 273.476 -47.348l-.02 -.013c-24.724 5.902 -52.301 8.522 -81.805 7.75C561.834 877.34 423.09 787.599 295.317 659.822L425.112 530.027l99.408 75.764 -30.299 30.302 153.403 80.512 -23.156 23.16L840.721 853.26 727.212 637.012l-24.304 24.304L622.39 507.913l-29.14 29.144 -75.76 -99.403L647.287 307.858c133.399 133.398 225.372 278.763 259.827 396.16 -.586 22.131 -3.188 42.984 -7.76 62.128l.015 .027c55.106 -69.637 72.988 -169.997 47.34 -273.481zM114.326 653.11l.003 -.002 -.003 -.003z"/></svg>