<svg height="1000" width="1000" xmlns="http://www.w3.org/2000/svg"><path d="M910.158 324.206H675.784V89.837c0 -32.36 -26.232 -58.596 -58.596 -58.596H382.812c-32.364 0 -58.596 26.237 -58.596 58.596v234.369H89.847c-32.364 0 -58.596 26.237 -58.596 58.596v234.376c0 32.364 26.237 58.596 58.596 58.596h234.369V910.15c0 32.365 26.237 58.597 58.596 58.597h234.376c32.364 0 58.596 -26.237 58.596 -58.597V675.774H910.16c32.36 0 58.591 -26.232 58.596 -58.596V382.802c0 -32.364 -26.238 -58.596 -58.597 -58.596z"/></svg>