<svg height="1000" width="1000" xmlns="http://www.w3.org/2000/svg"><path d="M382.81 31.237c-32.463 0 -58.597 26.133 -58.597 58.596v234.375H89.839c-32.463 0 -58.597 26.133 -58.597 58.596V617.18c0 32.462 26.134 58.596 58.597 58.596h234.374V910.15c0 32.463 26.134 58.597 58.597 58.597h234.374c32.463 0 58.596 -26.134 58.596 -58.597V675.775h234.375c32.463 0 58.596 -26.134 58.596 -58.596V382.804c0 -32.463 -26.133 -58.596 -58.596 -58.596H675.78V89.833c0 -32.463 -26.133 -58.596 -58.596 -58.596H382.81zm0 263.676h234.374L499.997 412.1 382.81 294.913zm0 146.482h234.374L499.997 558.582 382.81 441.395zm0 146.483h234.374L499.997 705.065 382.81 587.878z"/></svg>