<svg height="1000" width="1000" xmlns="http://www.w3.org/2000/svg"><path d="M382.81 968.736c-32.463 0 -58.597 -26.133 -58.597 -58.596V675.765H89.839c-32.463 0 -58.597 -26.133 -58.597 -58.596V382.794c0 -32.462 26.134 -58.596 58.597 -58.596h234.374V89.823c0 -32.462 26.134 -58.596 58.597 -58.596h234.374c32.463 0 58.596 26.134 58.596 58.596v234.375h234.375c32.463 0 58.596 26.134 58.596 58.596V617.17c0 32.463 -26.133 58.596 -58.596 58.596H675.78V910.14c0 32.463 -26.133 58.596 -58.596 58.596H382.81zm0 -263.669h234.374L499.997 587.88 382.81 705.067zm0 -146.482h234.374L499.997 441.398 382.81 558.585zm0 -146.489h234.374L499.997 294.91 382.81 412.096z"/></svg>