<svg height="1000" width="1000" xmlns="http://www.w3.org/2000/svg"><path d="M518.772 643.475c-37.8 -65.471 -134.275 -48.49 -131.779 29.765 2.602 81.499 119.228 129 131.78 175.841 11.49 -42.864 133.847 -97.74 131.393 -175.841 -2.416 -76.95 -92.67 -96.834 -131.394 -29.765zM666.492 317.95c103.64 115.846 -78.381 163.795 -112.532 82.46 -29.62 -70.552 12.631 -116.74 65.631 -119.76C754.144 272.976 800.395 122.158 703.486 52.802c21.443 40.94 10.9 85.633 -25.053 117.297C651.338 29.495 488.275 -11.25 386.905 96.072c105.473 -21.734 134.647 18.285 153.74 84.27 32.814 113.439 -129.066 137.555 -117.3 -20.496 -49.469 31.135 -66.454 103.082 0 166.264 44.216 42.032 26.064 102.492 -26.194 102.492C309.921 428.967 187.044 281.768 280.993 156.43c-69.053 26.508 -115.96 49.997 -132.1 116.16 -13.845 -57.464 12.622 -108.318 61.495 -133.24C11.538 153.746 65.8 359.56 209.251 401.274c128.093 37.243 9.567 212.19 -95.659 58.078C102.218 678.262 238.634 716.683 378.93 812.372c61.962 42.261 90.381 67.671 90.381 107.715 0 69.195 102.664 70.134 102.664 -6.13 0 -41.296 35.465 -67.55 104.18 -110.696C788.675 732.615 875.446 625.481 875.446 549.31 875.448 414.544 791.78 372.355 666.492 317.947zM518.886 881.987C499.054 807.98 314.804 732.934 310.693 604.187 306.746 480.538 459.17 453.72 518.886 557.155c61.178 -105.962 203.766 -74.546 207.582 47.032 3.869 123.382 -189.435 210.073 -207.582 277.8zM895.272 129.442c-134.903 127.674 35.447 125.963 -3.907 311.24 165.59 -214.004 -27.572 -218.458 3.907 -311.24z"/></svg>