<svg height="1000" width="1000" xmlns="http://www.w3.org/2000/svg"><path d="M877.577 958.292L821.613 777.263h-76.74V409.4L864.123 261.57V44.893H738.502v102.202h-76.467V44.893H535.048v102.202h-75.097V44.893H332.964v102.202h-75.097V44.893H132.232V261.57l119.253 147.832v367.86H174.75l-55.964 181.029h758.793zM477.033 365.286c.814 .905 1.62 1.825 2.419 2.761 .22 .26 .438 .524 .66 .785 .794 .946 1.585 1.898 2.364 2.877 .066 .082 .13 .168 .195 .251a144.438 144.438 0 014.088 5.44c.46 .641 .922 1.275 1.375 1.928 .464 .669 .92 1.355 1.376 2.037a142.338 142.338 0 012.834 4.377c.647 1.039 1.285 2.094 1.915 3.163 .288 .486 .578 .966 .862 1.458 .923 1.6 1.832 3.223 2.718 4.887 0 0 0 -.002 .002 -.002 0 0 0 .002 0 .002 .107 -.184 .22 -.36 .328 -.545a150.185 150.185 0 012.422 -3.997c.39 -.616 .79 -1.215 1.185 -1.822 .557 -.856 1.114 -1.715 1.684 -2.553 .487 -.715 .985 -1.418 1.481 -2.119 .484 -.686 .97 -1.372 1.465 -2.046a127.983 127.983 0 011.725 -2.296 137.236 137.236 0 013.253 -4.103c.34 -.413 .685 -.82 1.029 -1.226a139.18 139.18 0 012.302 -2.671c.175 -.2 .357 -.392 .535 -.59a138.607 138.607 0 015.985 -6.262h-.026c52.517 -51.514 135.45 -49.233 177.213 0h-.007a99.722 99.722 0 013.044 3.769c.047 .06 .092 .126 .137 .185 .915 1.195 1.81 2.416 2.679 3.661 .202 .29 .394 .594 .595 .886a100.856 100.856 0 012.054 3.114c.28 .446 .547 .904 .822 1.356 .563 .924 1.122 1.853 1.661 2.802 .32 .563 .623 1.141 .934 1.713 .465 .859 .928 1.718 1.372 2.594 .338 .669 .662 1.35 .988 2.03 .387 .802 .77 1.608 1.139 2.427 .344 .764 .674 1.54 1.002 2.318a117 117 0 01.943 2.29c.338 .854 .661 1.716 .98 2.586 .265 .72 .524 1.44 .775 2.17a114.383 114.383 0 011.562 4.9 109.812 109.812 0 011.363 5.042c.275 1.112 .54 2.235 .786 3.369 .13 .598 .251 1.204 .374 1.81 .243 1.203 .477 2.413 .686 3.642 .094 .552 .18 1.11 .265 1.666 .205 1.3 .402 2.606 .57 3.934 .061 .492 .114 .992 .17 1.487 .164 1.408 .317 2.824 .438 4.26 .034 .412 .057 .83 .09 1.244 .116 1.537 .219 3.082 .287 4.65 .16 3.73 .2 7.542 .073 11.46C720.173 572.487 549.27 614.52 497.838 748.436 443.507 614.513 267.925 580.54 272.138 446.384a146.662 146.662 0 011.281 -15.068c.062 -.458 .122 -.92 .19 -1.375 .2 -1.37 .424 -2.725 .662 -4.073a129.233 129.233 0 011.37 -6.747c.302 -1.31 .616 -2.61 .954 -3.897 .111 -.42 .227 -.839 .34 -1.256a129.59 129.59 0 011.123 -3.902c.106 -.344 .22 -.684 .328 -1.028a127.628 127.628 0 011.33 -4.01c.066 -.187 .138 -.371 .204 -.557a122.586 122.586 0 0110.04 -21.339c.133 -.225 .26 -.455 .396 -.678a117.825 117.825 0 012.014 -3.198c.222 -.342 .44 -.69 .666 -1.03a118.573 118.573 0 012 -2.911c.276 -.39 .548 -.781 .83 -1.168a117.612 117.612 0 012.032 -2.716 115.83 115.83 0 014.032 -4.959c43.29 -50.401 123.9 -58.112 175.104 -1.184z"/></svg>