<svg height="1000" width="1000" xmlns="http://www.w3.org/2000/svg"><path d="M720.414 307.666l-54.691 -14.65 22.727 -84.822 70.443 18.874 31.85 -118.87L480.19 24.985l-31.853 118.87 68.579 18.375 -22.73 84.827L440.74 232.74c-74.087 -19.853 -150.03 22.95 -169.878 97.03L173.606 692.72c-19.85 74.085 24.185 150.365 98.272 170.21l279.675 74.938c74.087 19.854 149.119 -24.52 168.972 -98.608l97.251 -362.947C837.625 402.23 794.5 327.523 720.414 307.666zm-17.206 282.252c-31.59 104.324 -183.683 101.22 -256.6 201.464C431.226 667.494 292.25 599.918 325.794 488.912 357.272 384.76 499.373 383.11 525.672 496.664c77.284 -76.885 211.216 -17.963 177.536 93.253z"/></svg>