<svg height="1000" width="1000" xmlns="http://www.w3.org/2000/svg"><path d="M892.66 244.426L530.548 35.36C483.395 8.137 423.097 24.294 395.872 71.448L75.352 626.606C48.127 673.76 64.286 734.058 111.44 761.283l362.112 209.065c47.153 27.225 107.451 11.066 134.676 -36.087l320.52 -555.159C955.972 331.949 939.813 271.65 892.66 244.426zM461.59 117.818c11.927 -20.657 38.341 -27.736 59 -15.81s27.736 38.343 15.81 58.998c-11.927 20.657 -38.34 27.735 -59 15.81s-27.735 -38.343 -15.81 -58.998zm78.764 773.827c-11.927 20.657 -38.34 27.735 -59 15.81s-27.735 -38.342 -15.81 -58.999c11.927 -20.657 38.341 -27.735 59 -15.81s27.736 38.341 15.81 58.999zm139.7 -306.284c-.389 .248 -.788 .487 -1.18 .733a191.112 191.112 0 01-4.212 2.567c-.569 .336 -1.138 .674 -1.713 1.005 -1.729 1 -3.472 1.983 -5.245 2.94 -.343 .185 -.696 .365 -1.042 .55a227.724 227.724 0 01-4.764 2.462 208.28 208.28 0 01-1.55 .774 249.876 249.876 0 01-5.708 2.728c-.295 .136 -.596 .268 -.893 .403 -1.75 .8 -3.518 1.581 -5.298 2.346 -.449 .192 -.898 .389 -1.35 .58a299.499 299.499 0 01-6.12 2.517c-83.769 33.282 -194.535 34.032 -228.786 68.091 -.082 .078 -.17 .156 -.25 .236 7.26 -27.633 -5.427 -66.822 -20.908 -110.97 -.124 -.354 -.25 -.717 -.377 -1.071 -.93 -2.65 -1.869 -5.316 -2.814 -8 -1.671 -4.744 -3.353 -9.519 -5.04 -14.355C368.769 498.657 354.894 455.46 352.878 413.812a205.765 205.765 0 01-.19 -5.246c0 -.03 -.002 -.059 -.002 -.088 -.245 -10.314 .285 -20.516 1.745 -30.545 .06 -.418 .112 -.839 .177 -1.256 .18 -1.168 .387 -2.333 .592 -3.496 .117 -.666 .23 -1.333 .358 -1.997a145.643 145.643 0 01.635 -3.104 159.05 159.05 0 01.516 -2.366 146.08 146.08 0 01.686 -2.835 142.52 142.52 0 011.414 -5.233c.274 -.94 .56 -1.876 .851 -2.81a142.086 142.086 0 01.777 -2.42 145.333 145.333 0 011.053 -3.019c.263 -.73 .52 -1.462 .796 -2.187a145.655 145.655 0 011.31 -3.3c.256 -.626 .503 -1.256 .768 -1.881a134.877 134.877 0 011.728 -3.855c.2 -.428 .382 -.859 .586 -1.287a135.863 135.863 0 012.586 -5.156 143.742 143.742 0 012.562 -4.621c.202 -.35 .41 -.691 .613 -1.04a140.468 140.468 0 012.8 -4.556 134.88 134.88 0 012.286 -3.442c.162 -.235 .32 -.478 .483 -.711a126.987 126.987 0 012.94 -4.047c.074 -.1 .15 -.192 .226 -.29a122.443 122.443 0 012.73 -3.44c.25 -.307 .505 -.606 .758 -.908 .788 -.939 1.586 -1.859 2.392 -2.76 .25 -.282 .503 -.566 .755 -.843a114.629 114.629 0 012.977 -3.147c.052 -.053 .105 -.11 .156 -.163a109.32 109.32 0 013.33 -3.218c.185 -.173 .374 -.338 .561 -.508a106.836 106.836 0 012.765 -2.443c.285 -.243 .572 -.482 .858 -.722a109.18 109.18 0 012.706 -2.18c.243 -.19 .484 -.382 .728 -.57a99.266 99.266 0 017.046 -4.912c.27 -.171 .542 -.334 .813 -.503a95.68 95.68 0 012.81 -1.68c.317 -.182 .633 -.365 .95 -.541a96.038 96.038 0 013.02 -1.62c.208 -.107 .413 -.22 .624 -.326a92.06 92.06 0 013.754 -1.793c.136 -.062 .275 -.116 .41 -.178a91.498 91.498 0 013.29 -1.389c.34 -.136 .683 -.267 1.026 -.399a96.176 96.176 0 012.822 -1.04c.344 -.12 .69 -.244 1.036 -.36a94.335 94.335 0 013.387 -1.072c.13 -.039 .26 -.083 .391 -.12a93.894 93.894 0 013.83 -1.023c.317 -.078 .635 -.146 .954 -.22a92.87 92.87 0 014.123 -.872 100.99 100.99 0 012.74 -.472c.385 -.06 .771 -.126 1.156 -.182a92.63 92.63 0 013.8 -.478c.137 -.015 .271 -.021 .407 -.036a99.678 99.678 0 013.411 -.277c.452 -.03 .906 -.047 1.36 -.07a98.187 98.187 0 013.99 -.12c.851 -.007 1.703 .002 2.555 .017 .438 .008 .877 .008 1.316 .021 1.216 .037 2.43 .097 3.643 .178 .462 .031 .924 .078 1.386 .116 .801 .066 1.604 .136 2.404 .22 .564 .061 1.126 .128 1.69 .198a103.75 103.75 0 012.117 .284c.58 .083 1.16 .166 1.737 .261 .736 .12 1.468 .253 2.2 .389 .76 .14 1.52 .285 2.278 .442a95.117 95.117 0 012.69 .591c.628 .148 1.253 .312 1.878 .47 .6 .153 1.2 .308 1.798 .471a104.67 104.67 0 013.631 1.069c.67 .21 1.34 .418 2.007 .64 .503 .168 1 .349 1.5 .526 1.295 .455 2.582 .933 3.862 1.438 .445 .175 .89 .346 1.333 .528 .718 .295 1.433 .603 2.147 .913a108.319 108.319 0 013.49 1.586c.386 .184 .767 .375 1.152 .564a112.012 112.012 0 017.528 4.062c.294 .174 .59 .343 .883 .52a110.112 110.112 0 013.178 1.993c.764 .496 1.525 .995 2.28 1.511 .172 .117 .342 .241 .515 .36a114.817 114.817 0 017.465 5.628 111.14 111.14 0 012.852 2.413c.2 .175 .398 .353 .596 .53a116.308 116.308 0 017.195 6.959c.015 .014 .028 .029 .042 .044a120.88 120.88 0 012.11 2.296c.17 .19 .34 .38 .51 .572 .681 .766 1.353 1.543 2.015 2.33 .111 .133 .22 .268 .331 .4a117.523 117.523 0 016.116 8.025c.092 .13 .183 .26 .275 .39 .596 .863 1.182 1.74 1.758 2.624 .142 .217 .283 .438 .423 .656 .58 .9 1.152 1.81 1.71 2.73 11.12 18.37 17.899 40.731 18.022 66.18 21.987 -12.835 44.083 -18.685 64.758 -18.95v.004c18.23 -.233 35.353 3.884 50.312 11.406a101.4 101.4 0 012.91 1.523c.054 .03 .106 .057 .16 .088a97.82 97.82 0 012.956 1.676 107.67 107.67 0 012.576 1.567c.105 .065 .21 .132 .314 .197 .829 .524 1.65 1.06 2.46 1.606 .12 .082 .24 .165 .364 .246a101.44 101.44 0 012.353 1.647c.134 .097 .266 .194 .4 .292 .762 .555 1.516 1.117 2.26 1.692 .141 .107 .278 .216 .417 .326 .734 .572 1.46 1.151 2.177 1.742 .144 .12 .286 .24 .43 .36a99.555 99.555 0 012.099 1.792c.143 .127 .285 .256 .427 .385 .684 .608 1.363 1.224 2.03 1.85 .14 .131 .275 .267 .416 .399a95.838 95.838 0 011.968 1.915c.127 .127 .251 .26 .377 .389 .653 .662 1.3 1.328 1.935 2.008 .09 .096 .178 .197 .268 .294a100.804 100.804 0 017.462 9.07c.217 .298 .44 .588 .655 .886 .326 .458 .637 .923 .956 1.385 .324 .472 .654 .94 .972 1.418 .273 .41 .533 .83 .798 1.243 .348 .542 .7 1.082 1.037 1.631 .239 .387 .467 .781 .699 1.171 .35 .587 .703 1.175 1.04 1.77 .213 .374 .417 .754 .626 1.13 .343 .624 .688 1.247 1.02 1.878 .19 .365 .374 .735 .56 1.102a97.396 97.396 0 01.983 1.97c.171 .358 .338 .718 .506 1.079a98 98 0 01.94 2.061c.15 .346 .298 .696 .447 1.042 .304 .716 .605 1.436 .895 2.16 .134 .336 .265 .676 .395 1.013a93.843 93.843 0 011.185 3.234c.27 .774 .53 1.552 .782 2.337a102.08 102.08 0 011.923 6.827c.07 .29 .14 .578 .208 .867 .205 .878 .4 1.76 .584 2.646 .056 .266 .112 .53 .165 .796 .183 .922 .353 1.85 .511 2.781 .041 .237 .083 .473 .122 .711a102.8 102.8 0 01.433 2.932c.027 .204 .056 .406 .083 .608a108.43 108.43 0 01.348 3.126c.015 .152 .033 .304 .047 .457 .105 1.121 .19 2.248 .258 3.38 .005 .082 .012 .163 .017 .245 .214 3.696 .238 7.45 .061 11.26l.005 -.008c-.796 17.163 -5.661 35.392 -15.474 53.905 -10.937 20.62 -27.402 36.565 -47.22 49.212z"/></svg>