<svg height="1000" width="1000" xmlns="http://www.w3.org/2000/svg"><path d="M840.788 312.225L874.586 320c20.47 -89.103 29.613 -179.054 27.33 -268.756l-223.203 .001v33.248H585.3V35.665H422.006v48.827H329.1V51.246L99.069 51.244c-2.31 89.645 7.012 179.713 27.331 268.757l33.805 -7.699c8.155 38.35 18.651 76.538 31.448 114.457l-79.628 12.01L235.06 698.072l58.486 -52.46c19.621 32.67 41.082 64.959 64.43 96.774l69.066 -51.138 -96.796 71.744c49.087 68.977 106.066 135.9 170.82 200.428C565.618 898.85 621.661 832.125 670.743 762.992l-27.926 -20.614c23.448 -32.014 45.011 -64.517 64.729 -97.413l59.207 53.107L889.787 438.764 809.22 426.618c12.83 -37.894 23.369 -76.06 31.569 -114.392zM337.975 257.25h325.962c3.284 137.304 -51.677 258.462 -162.98 376.883C388.993 515.467 334.652 394.46 337.975 257.25zM575.08 692.385l.002 .002c-22.853 28.105 -47.164 55.127 -74.017 81.992 0 0 -.002 -.002 -.002 -.003 26.857 -26.863 51.165 -53.882 74.017 -81.99z"/></svg>