<svg height="1000" width="1000" xmlns="http://www.w3.org/2000/svg"><path d="M896.861 594.998l-203.527 63.688 111.73 -377.974L532.727 615.767 476.81 376.481l-26.174 130.761C380.685 324.864 273.604 153.465 176.766 35.857H29.135v92.838C160.158 256.138 282.34 466.456 342.013 676.151l-166.491 -219.6 70.61 303.212L84.142 672.538l91.379 178.605L52.298 840.066 161.684 948.05H338.31L282.476 866.56l95.72 25.192 .908 -34.08h.002l2.453 -91.868 78.927 90.68L516.42 744.623l22.995 -45.989 -1.681 176.328 80.608 -60.455 -57.236 133.547h269.3L960.547 752.834l-166.145 45.69L896.86 594.999zM762.263 132.858l-117.047 109.3 -4.121 153.096 96.228 -144.743zm134.993 581.245l67.19 -33.024V603.64z"/></svg>