<svg height="1000" width="1000" xmlns="http://www.w3.org/2000/svg"><path d="M883.364 504.003c47.707 -51.276 75.511 -112.717 75.511 -178.769 -.001 -86.588 -49.573 -164.927 -127.262 -223.18 27.53 37.173 45.046 78.868 45.046 123.758 0 46.247 -16.482 89.742 -45.495 127.668l-18.709 -53.946 -89.786 28.102C683.014 274.071 630.715 242.05 563.584 230.38 546.637 144.232 522.46 44.824 501.634 44.824s-45.003 99.408 -61.952 185.555c-67.125 11.67 -119.422 43.69 -159.077 97.248L190.843 299.53l-18.7 53.923C143.124 315.52 126.638 272.023 126.638 225.778c0 -44.89 17.486 -86.587 45.046 -123.757C93.965 160.303 44.392 238.644 44.392 325.23c0 66.062 27.813 127.511 75.532 178.793l-19.543 56.354 89.907 41.513c-9.626 75.555 -14.046 162.929 -14.046 262.641 100.662 58.44 212.205 87.488 325.391 86.775 113.187 .712 224.73 -28.335 325.392 -86.773 0 -99.705 -4.42 -187.074 -14.044 -262.627l89.937 -41.527 -19.553 -56.378zM544.989 667.476c-9.582 78.66 -22.556 198.91 -22.556 273.447h-41.602c0 -74.611 -12.998 -195.024 -22.583 -273.68C316.3 658.15 255.234 608.433 255.234 608.433s4.495 -32.94 8.9 -58.778c.007 -.039 .013 -.078 .02 -.117 .34 -1.997 .681 -3.95 1.017 -5.842a1039.556 1039.556 0 01.49 -2.716 456.435 456.435 0 011.037 -5.502c.04 -.199 .078 -.393 .117 -.59a463.192 463.192 0 01.347 -1.744c.041 -.198 .08 -.398 .12 -.592a262.27 262.27 0 01.442 -2.12c75.024 25.267 154.016 38.008 233.937 37.544 79.89 .434 158.882 -12.277 233.906 -37.543a230.02 230.02 0 01.432 2.072c.05 .243 .1 .493 .15 .742 .1 .49 .2 .99 .3 1.498 .055 .28 .109 .558 .164 .843 .128 .648 .253 1.312 .383 1.987 .053 .273 .105 .551 .157 .828 .115 .608 .229 1.224 .345 1.85 .067 .362 .134 .732 .201 1.102 .087 .48 .175 .963 .263 1.452 .068 .383 .139 .767 .207 1.158 .106 .592 .21 1.192 .317 1.798 .102 .58 .204 1.167 .306 1.757 .088 .504 .175 1.011 .263 1.522 .08 .466 .158 .933 .238 1.403 .073 .433 .147 .868 .22 1.304 .086 .505 .17 1.01 .256 1.52 .075 .446 .148 .897 .223 1.346 .138 .83 .275 1.663 .412 2.5 .076 .463 .153 .925 .228 1.39 .083 .517 .167 1.033 .25 1.552 .07 .437 .14 .874 .21 1.312 .079 .495 .159 .988 .238 1.484 .112 .706 .224 1.413 .335 2.119 .087 .544 .172 1.088 .257 1.632 .09 .573 .18 1.144 .268 1.716 .068 .437 .135 .871 .202 1.306 .085 .544 .168 1.087 .252 1.628 .063 .417 .129 .833 .192 1.248 .134 .876 .268 1.748 .398 2.612 .041 .27 .082 .536 .122 .804 .108 .713 .216 1.422 .323 2.126 .039 .26 .078 .52 .117 .78a1281.273 1281.273 0 00.414 2.759c2.24 15.03 3.853 26.848 3.853 26.848s-58.922 50.614 -203.075 59.045z"/></svg>