<svg height="1000" width="1000" xmlns="http://www.w3.org/2000/svg"><path d="M499.99 31.245c-258.896 0 -468.748 209.877 -468.748 468.748 0 258.897 209.852 468.75 468.749 468.75S968.74 758.864 968.74 499.992 758.888 31.245 499.99 31.245zm0 117.204c194.167 0 351.568 157.402 351.568 351.568S694.156 851.584 499.991 851.584 148.423 694.182 148.423 500.017C148.448 305.85 305.825 148.449 499.991 148.449zm0 58.574c-129.435 0 -234.386 78.701 -234.386 175.784 0 58.602 117.181 58.602 117.181 0 0 -32.352 52.476 -58.602 117.181 -58.602 64.73 0 117.182 26.225 117.182 58.602 0 32.353 -58.603 29.29 -117.182 58.602a39.016 39.016 0 00-9.166 6.422c-48.408 30.662 -49.437 83.284 -49.437 110.784v29.29c0 32.45 26.128 58.602 58.603 58.602 32.45 0 58.602 -26.128 58.602 -58.603v-29.289c0 -87.892 175.784 -78.7 175.784 -175.784C734.376 285.724 629.45 207.023 499.99 207.023zm0 468.75c32.353 0 58.603 26.225 58.603 58.602 0 32.352 -26.225 58.602 -58.602 58.602 -32.353 0 -58.602 -26.226 -58.602 -58.602 .024 -32.353 26.25 -58.603 58.602 -58.603z"/></svg>