<svg height="1000" width="1000" xmlns="http://www.w3.org/2000/svg"><path d="M904.503 263.683L491.348 25.42 78.192 263.683v476.528l413.154 238.264L904.504 740.21l-.002 -476.526zM384.677 689.728l-102.345 59.088L179.988 689.728V571.552l102.344 -59.088 102.345 59.088v118.176zM282.332 512.455L179.988 453.367V335.191l102.344 -59.088 102.345 59.088v118.176l-102.345 59.088zm308.109 177.193v118.177l-102.345 59.087L385.752 807.825V689.648l102.073 -58.932L385.752 571.783V453.607l102.344 -59.088 102.345 59.088v118.176l-102.073 58.933 102.073 58.932zM488.096 394.358L385.752 335.272V217.095l102.344 -59.088 102.345 59.088V335.27L488.096 394.36zm307.378 295.37l-102.345 59.088L590.785 689.728V571.552l102.344 -59.088 102.345 59.088v118.176zM693.129 512.455L590.785 453.367V335.191l102.344 -59.088 102.345 59.088v118.176l-102.345 59.088z"/></svg>