<svg height="1000" width="1000" xmlns="http://www.w3.org/2000/svg"><path d="M319.116 748.409h360.051l23.813 -155.1H295.304zM266.427 405.217l18.769 122.243H713.09l18.771 -122.274C664.328 377.619 584.465 361.678 498.88 361.718c-85.402 .037 -165.07 15.98 -232.452 43.5zm558.29 50.677L890.58 93.026C869.404 65.908 816.95 57.796 783.259 75.3l-19.206 125.111h-529.82L215.023 75.266C181.33 57.762 128.877 65.876 107.702 92.99l65.875 362.949c.08 -.057 .16 -.113 .24 -.17C103.3 506.505 60.37 573.802 60.448 647.624c0 .13 0 .262 0 .393 .166 157.791 196.73 285.618 439.036 285.51s438.6 -128.112 438.432 -285.902c0 -.131 0 -.263 0 -.394C937.837 573.606 894.998 506.52 824.719 455.894zm-161.303 395.13l8.618 -56.131h-345.78l8.611 56.097c-35.66 -10.294 -70.145 -21.768 -96.252 -41.616L174.36 455.382c26.774 -19.194 57.509 -35.997 91.359 -49.878L248.803 295.312h500.68l-16.913 110.16c33.85 13.876 64.582 30.679 91.362 49.866L759.668 809.41c-26.11 19.848 -60.594 31.319 -96.255 41.616z"/></svg>