<svg height="1000" width="1000" xmlns="http://www.w3.org/2000/svg"><path d="M320.694 563.162L252.26 445.705 320.696 328.25h136.871l68.436 117.456 -68.438 117.457h-136.87zM540.597 443.843L472.162 326.386 540.599 208.93h136.87l68.436 117.456 -68.437 117.457h-136.87zm-444.63 -6.581L27.533 319.805 95.97 202.35H232.84l68.436 117.456 -68.438 117.457H95.968zM317.473 309.505L249.036 192.048 317.474 74.59h136.87l68.436 117.457 -68.437 117.457H317.472zm221.494 635.33L470.531 827.378l68.437 -117.457H675.84l68.435 117.457 -68.437 117.457h-136.87zM754.855 817.54L686.419 700.084l68.437 -117.457h136.871l68.436 117.457L891.725 817.54h-136.87zm-434.16 -3.214L252.258 696.87l68.437 -117.457h136.871l68.436 117.457 -68.438 117.456h-136.87zm218.271 -122.35L470.531 574.52l68.437 -117.456H675.84l68.435 117.456 -68.437 117.457h-136.87zm-436.474 -.303L34.057 574.216l68.435 -117.457h136.87l68.436 117.457 -68.437 117.457H102.49zm657.256 -375.13L691.313 199.088 759.75 81.63h136.87l68.436 117.457L896.62 316.544h-136.87z"/></svg>