<svg height="1000" width="1000" xmlns="http://www.w3.org/2000/svg"><path d="M501.884 62.467C272.926 170.037 82.595 483.334 34.154 717.062c139.891 0 242.186 44.55 316.035 122.91l20.442 -22.333C315.92 761.345 244.008 715.429 149.193 669.685c50.973 -126.809 128.7 -318.767 227.544 -329.94 38.679 -4.374 80.098 18.978 125.151 84.696 141.036 -234.52 274.97 75.189 352.696 245.244 -92.99 50.416 -164.76 96.484 -220.274 153.533l18.007 20.256C725.117 765.947 827.148 717.06 969.616 717.06 912.158 486.254 735.613 176.226 501.884 62.466zm-60.368 535.299c0 24.528 -32.814 38.048 -73.291 30.202s-73.292 -34.092 -73.292 -58.62 32.814 -38.05 73.292 -30.202 73.291 34.091 73.291 58.62zm114.66 0c0 24.528 32.815 38.048 73.292 30.202s73.292 -34.092 73.292 -58.62 -32.814 -38.05 -73.292 -30.202c-40.48 7.846 -73.292 34.091 -73.292 58.62z"/></svg>