<svg height="1000" width="1000" xmlns="http://www.w3.org/2000/svg"><path d="M725.526 328.569l233.452 -93.382V70.06zM664.028 33.618l-37.58 174.234L764.242 33.618zm294.95 476.016v-78.579L793.854 484.58zM644.662 352.48C551.96 228.822 438.055 153.041 357.686 156.608h.003c-18.545 .823 -35.837 5.136 -50.108 14.803 -33.078 22.41 -22.017 72.414 -44.414 122.99C186.66 467.196 109.4 592.531 41.101 685.011v201.565c120.082 -41.62 298.92 -84.72 560.288 -93.381 54.84 -1.82 96.934 24.554 129.824 2.277 81.19 -55.002 51.783 -238.84 -64.91 -411.105 -7.292 -10.765 -14.03 -21.742 -21.64 -31.886zm-257.35 -62.178c31.443 -19.114 115.137 52.99 186.937 161.052s104.513 211.157 73.07 230.272c-12.925 7.856 -34.682 .29 -60.808 -18.84C549.244 625.023 509.465 576.425 471.608 520.54 434.061 465.115 403.606 410.361 382.065 361.763c-10.086 -36.36 -9.143 -62.71 5.248 -71.46z"/></svg>