<svg height="1000" width="1000" xmlns="http://www.w3.org/2000/svg"><path d="M832.45 346.084C753.122 279.014 711.324 147.4 848.822 76.549 664.529 90.572 651.906 279.987 711.173 365.291c101.384 145.97 80.845 219.268 17.03 269.568 -6.999 -18.369 -15.259 -36.685 -24.286 -54.972 -138.26 20.275 -271.883 37.804 -402.795 0 -11.492 20.56 -20.71 41.117 -27.667 61.676C202.815 591.058 175.57 517.878 281.55 365.29 340.817 279.988 328.196 90.57 143.901 76.548c137.497 70.851 95.698 202.464 16.372 269.535C-17.216 496.19 -.444 747.955 275.835 829.936c6.591 17.662 14.979 35.324 25.287 52.988 134.266 -13.384 268.53 -12.684 402.795 0 14.411 -19.89 25.087 -39.63 32.606 -59.246 257.345 -87.87 269.115 -331.126 95.927 -477.595z"/></svg>