<svg height="1000" width="1000" xmlns="http://www.w3.org/2000/svg"><path d="M489.8 55.638C94.024 61.398 118.763 504.511 242.584 854.074c-28.62 18.353 -33.717 12.45 -30.71 33.27 2.153 14.919 24.338 45.304 34.245 50.394s18.278 5.562 33.21 4.572 117.654 -17.102 95.974 -44.118C281.703 766.765 128.496 185.573 499.18 168.796c370.686 16.776 217.48 597.97 123.883 729.397 -21.68 27.017 81.04 43.127 95.973 44.118s23.304 .52 33.21 -4.572 32.092 -35.476 34.246 -50.393c3.007 -20.82 -2.09 -14.918 -30.71 -33.27C879.602 504.511 904.342 61.398 508.566 55.638c-3.116 -.046 -6.216 -.01 -9.384 0 -3.17 -.01 -6.27 -.046 -9.386 -.002zm-88.967 43.204c13.462 0 24.374 10.912 24.374 24.374s-10.912 24.374 -24.374 24.374 -24.374 -10.912 -24.374 -24.374c0 -13.462 10.912 -24.374 24.374 -24.374zm196.7 0c13.463 0 24.375 10.912 24.375 24.374s-10.912 24.374 -24.374 24.374S573.16 136.678 573.16 123.216c-.002 -13.462 10.912 -24.374 24.374 -24.374zM264.4 213.157c13.462 0 24.374 10.912 24.374 24.374s-10.912 24.374 -24.374 24.374 -24.374 -10.912 -24.374 -24.374 10.912 -24.374 24.374 -24.374zm469.568 0c13.462 0 24.374 10.912 24.374 24.374s-10.912 24.374 -24.374 24.374 -24.374 -10.912 -24.374 -24.374 10.912 -24.374 24.374 -24.374zM213.639 400.35c13.462 0 24.374 10.912 24.374 24.374s-10.912 24.374 -24.374 24.374 -24.374 -10.912 -24.374 -24.374S200.177 400.35 213.64 400.35zm571.087 0c13.461 0 24.373 10.912 24.373 24.374s-10.912 24.374 -24.373 24.374 -24.374 -10.912 -24.374 -24.374 10.912 -24.374 24.374 -24.374zM230.518 600.22c13.462 0 24.374 10.912 24.374 24.374s-10.912 24.374 -24.374 24.374 -24.374 -10.913 -24.374 -24.374 10.912 -24.374 24.374 -24.374zm537.329 0c13.462 0 24.374 10.912 24.374 24.374s-10.912 24.374 -24.374 24.374 -24.374 -10.913 -24.374 -24.374 10.912 -24.374 24.374 -24.374zM270.735 764.136c13.462 0 24.374 10.912 24.374 24.374s-10.912 24.374 -24.374 24.374S246.36 801.972 246.36 788.51s10.913 -24.374 24.374 -24.374zm456.894 0c13.462 0 24.374 10.912 24.374 24.374s-10.912 24.374 -24.374 24.374S703.255 801.972 703.255 788.51s10.912 -24.374 24.374 -24.374z"/></svg>