<svg height="1000" width="1000" xmlns="http://www.w3.org/2000/svg"><path d="M441.412 690.43c-87.892 -292.966 87.892 -292.966 0 -585.93h117.181c87.893 292.964 -87.892 292.964 0 585.93H441.412zM31.242 836.9v58.602H968.74V836.9c0 -58.603 0 -58.603 -58.603 -58.603 0 0 -29.289 -58.602 -58.602 -58.602 -58.602 0 -58.602 87.892 -117.181 87.892 -58.603 0 -58.603 -87.892 -117.182 -87.892s-58.602 87.892 -117.181 87.892S441.389 719.695 382.81 719.695s-58.603 87.892 -117.182 87.892S207.026 719.695 148.447 719.695c-29.29 0 -58.603 58.602 -58.603 58.602 -58.602 .025 -58.602 .025 -58.602 58.603zM207.026 690.43c-87.893 -292.966 87.892 -292.966 0 -585.93h117.181c87.893 292.964 -87.892 292.964 0 585.93H207.026zm468.749 0c-87.893 -292.966 87.892 -292.966 0 -585.93h117.181c87.892 292.964 -87.892 292.964 0 585.93H675.775z"/></svg>