<svg height="1000" width="1000" xmlns="http://www.w3.org/2000/svg"><path d="M575.108 516.578v-33.024C684.813 431.409 765.288 262.236 765.288 61.06h-522.71c0 199.992 79.188 369.281 187.9 422.493v33.024c-108.715 53.207 -187.9 222.503 -187.9 422.493h522.71c0 -201.17 -80.477 -370.35 -190.18 -422.493zM331.69 255.157c103.417 46.299 233.863 46.255 346.194 -7.973C649.95 351.016 591.367 425.5 522.281 436.955c2.925 3.963 4.676 8.845 4.676 14.149 0 13.185 -10.689 23.874 -23.873 23.874S479.21 464.288 479.21 451.104c0 -5.38 1.8 -10.328 4.802 -14.32C417.118 425.106 360.262 354.414 331.69 255.157zm171.392 373.5c-13.185 0 -23.873 -10.69 -23.873 -23.874s10.688 -23.874 23.873 -23.874 23.873 10.69 23.873 23.874 -10.689 23.874 -23.873 23.874zm23.873 53.188c0 13.186 -10.689 23.874 -23.873 23.874s-23.873 -10.69 -23.873 -23.874 10.688 -23.874 23.873 -23.874c13.184 0 23.873 10.69 23.873 23.874zm-23.873 -129.79c-13.185 0 -23.873 -10.69 -23.873 -23.874s10.688 -23.874 23.873 -23.874 23.873 10.69 23.873 23.874 -10.689 23.874 -23.873 23.874zm-147.56 331.268c115.52 -194.547 179.27 -198.906 298.308 0H355.523z"/></svg>