<svg height="1000" width="1000" xmlns="http://www.w3.org/2000/svg"><path d="M603.485 47.041c65.3 13.658 106.375 42.58 128.43 76.462 -30.195 -5.163 -59.779 -8.768 -88.713 -10.835L606.402 78.7l-37.557 32.062a723.403 723.403 0 00-43.486 2.272L467.921 81.446l-29.088 44.486c-15.784 3.46 -31.28 7.494 -46.465 12.117l-57.447 -29.18 -22.057 59.995a548.72 548.72 0 00-49.939 27.122L199.18 185.648l-.87 56.63a570.344 570.344 0 00-35.89 32.491H93.606l6.966 71.395a669.988 669.988 0 00-24.798 35.854L36.02 374.863v76.95c-.029 .06 -.06 .117 -.09 .176l.005 .002v509.875h36.078C117.88 780.587 256.409 707.558 401.49 795.602c82.14 49.848 182.9 121.494 290.681 80.299 -1.759 15.494 -6.38 30.43 -13.453 43.946l185.924 37.46c5.827 -15.107 10.864 -30.641 14.842 -45.949 -6.938 4.467 -20.214 9.292 -38.598 6.415C760.35 905.157 776.294 812.429 839.898 803.902c21.285 -2.842 41.222 6.26 53.726 21.917l35.651 -75.798c-132.79 11.85 -252.75 -60.08 -385.074 -32.496l.005 .002c69.16 14.462 111.141 46.052 132.138 82.523 -14.299 1.102 -28.111 1.163 -41.477 .305l-21.118 -19.978 -26.58 12.552a249.848 249.848 0 01-33.772 -11.224l-15.06 -30.116 -21.232 11.626C503.16 754.67 489.937 744.827 477.417 733.812l-3.524 -52.148 -37.936 9.81c-14.635 -14.87 -29.535 -26.684 -44.592 -35.77l-2.482 -38.48 -46.533 18.309c-22.842 -5.268 -45.769 -5.122 -68.41 -.499C360.18 458.76 535.389 454.884 626.547 509.181c-10.192 11.075 -22.235 20.163 -35.374 26.843l129.791 138.294c13.509 -8.934 26.613 -18.666 38.73 -28.839 -8.243 -.4 -27.579 -9.8 -34.05 -15.752 -67.333 -61.885 13.819 -124.452 64.083 -94.76 18.494 10.926 29.962 28.996 31.078 49l67.734 -46.503C773.463 470.15 722.652 347.409 598.838 293.192l-.007 .002c45.036 48.695 61.808 95.804 60.363 136.046C641.78 416.072 622.907 405.609 602.938 397.636L575.99 356.208l-35.46 24.885a318.36 318.36 0 00-30.815 -2.954l-37.2 -35.241 -29.735 38.343c-15.45 2.08 -30.992 5.065 -46.525 8.912l-30.689 -25.317 -19.04 40.565a523.11 523.11 0 00-40.513 16.763L259.987 405.97l-16.844 50.527c-23.889 15.139 -46.725 32.15 -67.98 50.803C242.36 238.783 578.166 173.515 750.589 211.665a125.443 125.443 0 01-12.594 37.703l185.925 37.46c5.827 -15.108 10.863 -30.63 14.841 -45.943 -6.938 4.461 -14.616 10.378 -23.326 9.19C825.14 237.77 830.016 143.345 899.173 133.424c21.26 -3.06 41.221 6.267 53.729 21.917 1.95 -19.858 3.506 -69.547 4.245 -89.543C824.354 77.652 735.805 19.475 603.486 47.041z"/></svg>