<svg height="1000" width="1000" xmlns="http://www.w3.org/2000/svg"><path d="M169.066 73.896l496.213 192.807c-1.251 16.58 -5.844 31.686 -11.575 44.854l230.428 80.574c12.778 -23.026 23.517 -46.562 32.696 -70.489a65.076 65.076 0 01-37.195 11.621c-36.113 0 -65.387 -29.275 -65.387 -65.388a65.393 65.393 0 012.42 -17.62v-.002a65.175 65.175 0 0113.528 -25.147c11.99 -13.846 29.684 -22.62 49.438 -22.62 28.195 0 52.221 17.847 61.4 42.861 7.823 -30.078 14.028 -60.56 19.463 -91.236L483.579 68.56c59.651 27.757 101.039 55.611 129.107 82.551L177.406 42.783c-27.072 -7.251 -38.44 23.039 -8.338 31.112zM716.757 150.6l95.819 20.058 -30.258 39.902 -65.561 -59.96zM202.844 446.574l.003 .01 -.002 -.012zm-.553 145.823L63.365 167.807C55.25 140.984 23.517 147.3 32.54 177.133l104.8 524.388c-16.857 10.29 -34.735 15.362 -51.204 17.769l53.086 238.265c26.304 -1.29 51.964 -4.581 77.132 -9.404A65.057 65.057 0 01186.862 922.68c-11.558 -18.618 -12.613 -40.777 -4.815 -59.584h.002a65.721 65.721 0 014.514 -8.9 64.921 64.921 0 015.654 -7.907c.08 -.094 .157 -.192 .237 -.287a65.32 65.32 0 013.18 -3.499c.133 -.137 .272 -.27 .407 -.404a64.862 64.862 0 013.232 -3.037c.111 -.098 .219 -.2 .331 -.297a65.79 65.79 0 014.408 -3.475 66.436 66.436 0 013.912 -2.65c.002 -.001 .003 -.001 .005 -.002a70.244 70.244 0 012.636 -1.547c.266 -.148 .532 -.289 .8 -.433a66.444 66.444 0 011.938 -1.008c.29 -.144 .576 -.287 .866 -.428a71.842 71.842 0 012.166 -.992c.19 -.083 .382 -.175 .575 -.256a67.89 67.89 0 012.737 -1.09c.248 -.093 .497 -.176 .747 -.265a69.402 69.402 0 012.049 -.7 66.658 66.658 0 012.919 -.861c.306 -.083 .613 -.17 .92 -.248a67.289 67.289 0 012.737 -.64c.231 -.049 .465 -.087 .698 -.132a65.882 65.882 0 012.116 -.384 71.405 71.405 0 012.852 -.398c.404 -.048 .808 -.097 1.212 -.137 .598 -.06 1.2 -.106 1.798 -.148 .466 -.032 .934 -.066 1.401 -.09a65.802 65.802 0 012.238 -.075c.462 -.007 .923 -.002 1.385 .002a58.134 58.134 0 012.888 .076c.423 .022 .845 .05 1.267 .08 .518 .036 1.035 .069 1.552 .116 .258 .025 .514 .059 .772 .085a68.088 68.088 0 013.359 .44c.318 .052 .636 .098 .954 .152a68.898 68.898 0 012.626 .512c.606 .13 1.21 .263 1.814 .411 .144 .034 .286 .075 .43 .111 1.425 .36 2.839 .762 4.237 1.216 .027 .008 .051 .017 .078 .025 .659 .215 1.313 .445 1.965 .68 .183 .067 .368 .132 .55 .2 .65 .242 1.297 .492 1.94 .754 .11 .044 .218 .093 .328 .137a65.51 65.51 0 016.185 2.95c.083 .045 .166 .087 .25 .133 .648 .356 1.29 .723 1.927 1.102 .102 .06 .2 .12 .302 .182a65.228 65.228 0 015.925 4.017 65.201 65.201 0 0115.903 17.51c14.873 23.955 12.382 53.782 -4.027 74.774 29.68 -9.22 58.851 -20.027 87.778 -31.591L202.85 446.581c7.379 61.15 6.25 108.762 -.557 145.814zm69.113 179.57l-47.2 -4.167 16.66 -88.841 30.54 93.007zM600.89 483.114l.007 .007 -.005 -.008zM971.139 795.67L600.897 483.122c36.716 52.346 58.445 96.146 69.589 132.866L66.409 47.091c-19.817 -19.817 -44.81 .73 -22.776 22.776l615.293 676.071c-9.328 13.557 -20.752 24.226 -32.195 32.688l159.267 184.992c22.581 -13.552 43.647 -28.566 63.56 -44.698a65.075 65.075 0 01-38.022 -8.533c-18.983 -10.96 -30.374 -30.003 -32.37 -50.27a65.74 65.74 0 01-.24 -9.553c.008 -.165 .016 -.331 .024 -.496a64.154 64.154 0 01.15 -2.122c.017 -.178 .037 -.356 .054 -.536a65.465 65.465 0 01.918 -6.27c.072 -.365 .14 -.73 .219 -1.097a68.562 68.562 0 01.695 -2.895 71.234 71.234 0 01.382 -1.407 67.547 67.547 0 01.524 -1.71c.11 -.348 .211 -.697 .328 -1.044 .3 -.891 .62 -1.779 .963 -2.663 .122 -.316 .254 -.63 .381 -.946a66.189 66.189 0 01.787 -1.874 68.612 68.612 0 011.358 -2.889c.142 -.285 .28 -.572 .428 -.856a67.556 67.556 0 011.464 -2.693 65.931 65.931 0 011.591 -2.6c.166 -.26 .338 -.515 .508 -.77a63.89 63.89 0 011.222 -1.787 78.525 78.525 0 01.571 -.797 65.712 65.712 0 011.436 -1.889c.13 -.165 .255 -.336 .386 -.499a65.841 65.841 0 011.881 -2.233c.19 -.217 .39 -.428 .584 -.643a65.652 65.652 0 011.421 -1.523 67.573 67.573 0 012.168 -2.14c.236 -.224 .47 -.45 .708 -.669a66.223 66.223 0 012.087 -1.834c.227 -.19 .46 -.37 .69 -.558a65.35 65.35 0 011.538 -1.221 71.451 71.451 0 012.32 -1.695c.346 -.242 .69 -.485 1.039 -.72a62.774 62.774 0 011.482 -.958 63.091 63.091 0 011.664 -1.017 60.606 60.606 0 011.448 -.839c.428 -.24 .864 -.468 1.298 -.696 .382 -.2 .764 -.4 1.149 -.594a68.629 68.629 0 011.4 -.685c.345 -.165 .696 -.32 1.043 -.478a65.484 65.484 0 015.426 -2.17c.27 -.095 .54 -.19 .81 -.28a65.247 65.247 0 011.77 -.563c.24 -.072 .479 -.141 .719 -.212a66.282 66.282 0 016.433 -1.528c.074 -.013 .146 -.03 .217 -.042a67.597 67.597 0 012.122 -.346c.149 -.021 .3 -.042 .448 -.063a65.423 65.423 0 019.303 -.636c.078 0 .158 0 .237 0 .774 .005 1.55 .023 2.326 .056 .014 0 .029 .002 .044 .002a64.63 64.63 0 017.207 .715 65.187 65.187 0 0122.626 7.98c24.417 14.098 36.301 41.567 31.745 67.82 21.812 -22.134 42.428 -45.43 62.471 -69.278zM820.07 730.821l-46.156 19.43 -26.796 -84.705 72.953 65.275zM483.571 68.559l.008 .002 -.008 -.005z"/></svg>