<svg height="1000" width="1000" xmlns="http://www.w3.org/2000/svg"><path d="M920.1 220.814L528.544 67.05C477.937 46.205 450.392 49.052 405.5 66.107L98.865 177.265c-40.917 14.912 -42.09 23.051 -43.566 64.875L40.856 698.505c-2.353 53.657 -1.279 64.705 45.333 84.938l362.206 158.764c37.715 16.166 62.258 14.928 88.151 6.28L891.33 838.21c42.804 -14.226 48.8 -18.727 50.427 -71.797l14.995 -487.841c1.29 -33.871 -11.082 -48.141 -36.652 -57.759zM495.536 696.715c-15.175 214.121 -17.15 214.21 -250.503 115.606C102.398 752.055 75.743 732.676 78.9 638.85L89.594 321.136c2.475 -73.533 6.247 -79.948 150.548 -15.659 274.794 122.43 274.02 128.435 255.394 391.24zM437.764 351.668L221.25 256.917C153.844 227.425 134.12 203.33 256.051 159.194 466.464 83.03 467.484 83.162 637.81 149.346 824.115 221.73 894.645 254.258 773.706 301.32c-144.3 56.156 -249.94 87.982 -335.942 50.347zm474.705 175.117C904.442 790.284 894.83 800.14 677.754 865.533 540.443 906.886 518.841 915.482 523.756 842.072L545.19 521.937c6.272 -93.666 14.767 -100.384 184.85 -163.56 186.142 -69.138 189.255 -55.57 182.43 168.408zm-613.487 -67.25c-9.647 116.228 -140.155 25.809 -186.796 129.911C50.023 728.201 227.352 780.96 337.216 826.565c95.329 39.572 133.828 -9.492 137.627 -128.879C482.998 441.235 310.753 317.658 298.982 459.536zM639.169 830.06c169.468 8.995 266.16 -112.065 248.163 -362.19C878.84 349.864 751.719 357.123 761.598 473.281c4.61 54.226 -41.61 158.185 -107.102 167.108C525.756 657.925 520.118 823.744 639.17 830.071l-.002 -.01zm53.496 -416.683C546.9 421.563 553.86 511.147 598.176 567.375c102.938 130.613 247.216 -162.574 94.49 -153.997zM566.028 342.71C849.124 287.308 820.772 200.876 590.636 170.34 378.943 142.255 368.085 381.448 566.028 342.71z"/></svg>