<svg height="1000" width="1000" xmlns="http://www.w3.org/2000/svg"><path d="M330.201 836.408c-10.913 45.542 -51.868 79.405 -100.754 79.405 -5.85 0 -11.58 -.51 -17.165 -1.44l-36.783 54.957h200.67l36.885 -137.576c-12.263 9.784 -27.793 15.65 -44.701 15.65A71.387 71.387 0 01330.2 836.408zM635.78 634.68a174.651 174.651 0 0017.79 -20.017l311.317 209.43v-201.78L684.92 546.704a173.575 173.575 0 003.657 -26.755l148.26 10.307a54.408 54.408 0 01-10.687 -32.462c0 -30.19 24.475 -54.662 54.662 -54.662s54.662 24.473 54.662 54.662c0 14.886 -5.959 28.375 -15.611 38.233l45.026 3.131V371.75l-287.235 76.394a172.857 172.857 0 00-11.166 -23.81L964.889 277.51V32.494h-6.65l-79.61 79.61c26.928 7.908 46.596 32.786 46.596 62.274 0 35.85 -29.061 64.912 -64.912 64.912 -29.486 0 -54.365 -19.669 -62.274 -46.596L668.891 321.842c6.532 9.726 10.346 21.43 10.346 34.025 0 20.333 -9.94 38.333 -25.216 49.44 -23.297 -30.93 -56.689 -53.827 -95.284 -63.784 6.455 -26.824 30.59 -46.76 59.394 -46.76a60.973 60.973 0 0121.384 3.855L818.541 32.498H616.765l-82.538 304.566a175.277 175.277 0 00-19.007 -1.039c-.725 0 -1.448 .018 -2.172 .027L533.614 32.496H366.2l16.103 60.266c48.962 4.19 87.404 45.235 87.404 95.28 0 32.492 -16.216 61.182 -40.979 78.471l21.893 81.934A173.12 173.12 0 00432 357.23l-37.114 -75.835a95.947 95.947 0 01-20.84 2.304c-52.83 0 -95.658 -42.83 -95.658 -95.659 0 -29.674 13.514 -56.19 34.72 -73.735l-40.04 -81.81H28.049v6.65L384.39 395.49a174.542 174.542 0 00-11.81 15.129L28.047 178.84v201.78l79.882 21.516a65.47 65.47 0 01-.359 -6.829c0 -35.85 29.063 -64.912 64.912 -64.912s64.912 29.062 64.912 64.912a64.597 64.597 0 01-12.53 38.323l122.102 32.886a172.685 172.685 0 00-3.744 19.11L28.048 463.773v167.412L345.565 546.91a172.2 172.2 0 005.23 18.815L28.049 723.203v246.13H34.7L139.933 864.374c-8.958 -15.329 -14.114 -33.153 -14.114 -52.19 0 -57.232 46.398 -103.63 103.63 -103.63 19.134 0 37.043 5.207 52.424 14.25L382.846 622.097a174.644 174.644 0 0014.768 15.372l-45.766 68.381a71.84 71.84 0 0116.508 -1.93c30.36 0 56.298 18.87 66.774 45.514l20.525 -76.557a172.268 172.268 0 0022.772 6.567l-20.207 289.89h167.412L549.253 680.02a172.362 172.362 0 0024.94 -6.934l78.056 159.953c11.394 -18.696 31.973 -31.18 55.468 -31.18 35.848 0 64.912 29.061 64.912 64.912s-29.062 64.912 -64.912 64.912a65.565 65.565 0 01-7.552 -.453l18.596 38.107h246.13v-5.543L635.781 634.685z"/></svg>