<svg height="1000" width="1000" xmlns="http://www.w3.org/2000/svg"><path d="M817.07 544.222c7.711 92.585 -83.7 245.437 -193.121 267.794C519.854 833.283 410.189 778.663 373.27 668.57c44.877 79.005 150.7 110.218 222.366 41.927C470.687 752.876 379.717 613.927 367.685 509.756a230.532 230.532 0 00-6.845 19.209c-81.163 119.22 -54.194 282.462 62.807 368.919 119.86 88.569 289.014 63.173 377.581 -56.688l.005 -.003C867.384 751.66 869.958 634.63 817.07 544.223zM527.597 436.463c57.333 -25.611 74.036 -95.685 8.473 -137.997C415.948 220.943 356.573 459.624 214.492 428.941l-.002 .005c110.174 108.29 165.773 -56.95 268.097 -74.631 36.461 -6.302 70.705 33.458 45.01 82.148zM499.216 239.44c87.929 26.927 158.21 101.082 167.394 186.518 3.384 31.516 .615 61.553 -11.764 86.411h.003c57.618 -19.138 94.905 -63.572 88.878 -119.656C735.24 313.727 645.507 243.472 544.479 236.225c-16.516 -1.185 -30.389 1.097 -45.264 3.214zM622.11 424.585c-.706 -9.84 -3.457 -18.32 -6.19 -27.386 -9.806 51.083 -52.3 88.567 -107.715 88.603 -20.443 .018 -40.467 -3.565 -57.944 -12.587 17.79 35.825 50.399 61.061 86.776 61.026 51.235 -.05 89.399 -49.45 85.073 -109.656zM343.644 333.142C240.533 352.23 80.998 306.074 84.81 174.188c-67.754 135.657 111.197 279.38 258.834 158.954zM613.67 206.192C508.1 41.202 388.347 215.21 254.547 200.331 206.872 195.033 175.903 136.609 222.88 88.573 143.168 98.605 101.012 174.79 170.528 247.082 297.89 379.53 444.578 120.917 613.67 206.192zm.005 .002l-.005 -.003v.002zM591.13 116.53c23.953 13.538 44.75 29.883 58.562 49.193l.003 -.005C655.293 123.266 635.727 80.049 593.109 55.959 533.087 22.033 451.949 38.994 412.596 93.382c-6.436 8.894 -9.467 17.97 -12.958 27.543C448.812 83.715 526.202 79.83 591.129 116.53zM427.598 544.836c32.75 121.625 164.408 146.006 257.824 93.586 -13.205 44.987 -46.083 93.797 -106.693 132.01C719.389 744.686 798.957 587.468 777.149 453.76l-.005 .005C720.45 584.376 550.548 607.01 427.598 544.836z"/></svg>