<svg height="1000" width="1000" xmlns="http://www.w3.org/2000/svg"><path d="M930.048 452.047C880.868 454.965 821.854 436.97 775.026 400.07c-28.95 -22.813 -48.72 -49.224 -58.603 -75.22 47.184 -38.232 75.959 -89.025 75.959 -144.74 0 -9.312 -11.158 -17.85 -30.364 -25.405 -2.655 10.501 -8.524 21.31 -17.346 30.908 0 0 -.002 -.002 -.002 -.002a86.433 86.433 0 01-4.192 4.261c-24.718 23.414 -58.92 28.62 -76.394 11.628 -.002 -.002 -.003 -.003 -.005 -.005a31.65 31.65 0 01-2.119 -2.299c-.127 -.15 -.258 -.3 -.382 -.452a31.535 31.535 0 01-1.764 -2.392c-.107 -.16 -.207 -.323 -.312 -.486a32.144 32.144 0 01-1.506 -2.58c-.014 -.028 -.03 -.055 -.044 -.083a32.553 32.553 0 01-1.255 -2.79c-.074 -.183 -.149 -.365 -.221 -.55a35.07 35.07 0 01-.948 -2.84c-.051 -.175 -.095 -.353 -.142 -.532a36.948 36.948 0 01-.679 -2.954c-.01 -.049 -.021 -.098 -.03 -.146a40.25 40.25 0 01-.427 -3.156 42.534 42.534 0 01-.207 -3.773c-.002 -.175 .003 -.353 .003 -.528a46.065 46.065 0 01.112 -3.227c.005 -.063 .005 -.127 .01 -.19a51.123 51.123 0 01.382 -3.39c.03 -.207 .059 -.416 .092 -.625a53.945 53.945 0 01.635 -3.37c.037 -.171 .082 -.343 .122 -.514a57.723 57.723 0 01.873 -3.329c.026 -.088 .047 -.176 .075 -.266a61.304 61.304 0 011.158 -3.455c.082 -.223 .163 -.445 .246 -.667a65.914 65.914 0 011.389 -3.398c.078 -.176 .161 -.35 .241 -.527a69.832 69.832 0 011.557 -3.22c.07 -.133 .134 -.269 .204 -.403a73.65 73.65 0 011.868 -3.334 79.979 79.979 0 019.241 -12.58c-28.77 -4.403 -60.998 -7.893 -94.7 -10.338a482.659 482.659 0 00-77.936 -6.314h-.008c-15.861 0 -31.52 .791 -46.95 2.284 -46.716 .382 -91.758 2.996 -130.159 8.198 .389 .353 .78 .7 1.163 1.061 5.516 5.226 10.087 10.917 13.676 16.793 0 0 0 0 -.002 0a73.458 73.458 0 012.122 3.72c.041 .075 .082 .15 .122 .225a71.316 71.316 0 011.912 3.897 65.67 65.67 0 011.582 3.796c.005 .014 .012 .027 .017 .042a63.675 63.675 0 011.297 3.783c.03 .098 .056 .194 .087 .292a56.591 56.591 0 011.777 7.802 48.478 48.478 0 01.567 7.096c0 .154 .002 .309 .002 .462a43.168 43.168 0 01-.145 3.428c-.003 .034 -.008 .066 -.012 .1a40.462 40.462 0 01-.418 3.205c-.026 .15 -.047 .301 -.075 .45a37.415 37.415 0 01-.71 3.146c-.034 .122 -.073 .244 -.107 .366a35.22 35.22 0 01-.928 2.812c-.046 .12 -.085 .24 -.131 .357a33.372 33.372 0 01-1.272 2.85c-.079 .155 -.164 .309 -.246 .466a32.423 32.423 0 01-1.492 2.572c-.036 .057 -.068 .116 -.106 .171a31.513 31.513 0 01-2.238 2.984 31.607 31.607 0 01-2.166 2.351C319.3 218.489 285.097 213.284 260.379 189.87a85.706 85.706 0 01-4.786 -4.918c-.002 .002 -.003 .002 -.005 .003C245.313 173.541 239.165 160.481 237.605 148.29c-18.447 8.524 -29.127 19.06 -29.127 31.82 0 55.216 28.27 105.588 74.701 143.7 -9.749 26.332 -29.647 53.143 -58.985 76.259 -46.827 36.897 -105.845 54.895 -155.022 51.977 -4.618 23.786 -6.596 47.745 -6.596 72.77 0 180.508 124.547 334.369 298.5 388.529C308.341 872.32 309.4 775.39 347.884 727.086 177.685 591.113 250.223 444.503 417.05 386.377c2.316 .51 4.644 .997 6.985 1.463 -21.892 23.078 -35.481 55.17 -35.481 90.674 0 59.987 38.764 110.245 90.913 123.675 -16.893 -18.08 -28.283 -52.077 -28.283 -91.068 0 -57.933 25.126 -104.897 56.12 -104.897s56.118 46.964 56.118 104.897c0 39 -11.394 73.002 -28.292 91.078 52.17 -13.414 90.956 -63.683 90.956 -123.685 0 -36.78 -14.586 -69.894 -37.878 -93.122a366.3 366.3 0 007.782 -1.903c164.02 53.25 207.485 215.006 55.34 343.596 48.98 47.887 28.492 143.965 -13.192 186.257 173.954 -54.16 300.15 -208.02 300.15 -388.53 .004 -25.016 -3.625 -48.98 -8.243 -72.764zM328.488 250.894c19.36 -16.874 59.266 -17.324 89.131 -1.005 29.863 16.317 38.38 43.227 19.02 60.103 -19.36 16.874 -59.266 17.324 -89.131 1.007 -29.864 -16.32 -38.38 -43.23 -19.02 -60.105zm254.754 -1.008c29.864 -16.32 69.769 -15.87 89.13 1.004 19.36 16.876 10.845 43.786 -19.02 60.107s-69.769 15.869 -89.13 -1.007c-19.36 -16.874 -10.844 -43.784 19.02 -60.104z"/></svg>