<svg height="1000" width="1000" xmlns="http://www.w3.org/2000/svg"><path d="M737.292 92.012C508.952 -39.822 216.975 38.415 85.142 266.756s-53.596 520.318 174.744 652.15 520.317 53.596 652.15 -174.745S965.632 223.844 737.292 92.01zm-54.53 94.233c161.77 93.4 225.989 290.838 156.983 458.994L358.777 164.272c101.915 -41.59 221.28 -37.325 323.987 21.973zM313.956 825.036C152.13 731.606 87.922 534.064 157.044 365.87l481.07 481.07C536.162 888.604 416.722 884.37 313.956 825.038zm411.953 -29.058L208.063 278.133a366.255 366.255 0 0162.884 -62.937L788.76 733.01a366.169 366.169 0 01-62.852 62.968z"/></svg>