<svg height="1000" width="1000" xmlns="http://www.w3.org/2000/svg"><path d="M966.076 719.697L817.344 476.457l20.236 -35.056 -4.161 -2.404c33.513 -61.25 34.51 -141.068 -.66 -234.12 -76.688 12.31 -135.327 39.357 -174.714 78.584a124.967 124.967 0 00-9.725 -6.224 123.993 123.993 0 00-10.421 -5.387c14.497 -53.745 8.975 -117.924 -18.29 -190.058C520.616 97.685 451.688 138.125 415.45 197.64l-4.161 -2.404 -20.236 35.059 -284.975 -7.21L16.329 378.56l232.812 97.577 -25.566 44.29 55.683 32.155c-58.058 23.72 -101.19 58.647 -128.347 103.08l205.045 118.404C380.878 728.304 389.886 673.6 381.824 611.81l54.893 31.699 59.647 -103.331c.002 .002 .005 .003 .007 .005l-59.648 103.33 55.681 32.154c-58.056 23.72 -101.19 58.647 -128.347 103.08L569.102 897.15c24.922 -45.761 33.93 -100.464 25.868 -162.255l54.894 31.7 25.566 -44.29 200.897 152.87 89.75 -155.478z"/></svg>