<svg height="1000" width="1000" xmlns="http://www.w3.org/2000/svg"><path d="M961.618 779.633l-59.205 -220.95c-28.034 -35.36 -82.207 -9.586 -96.834 29.264 -11.687 31.02 -98.834 47.82 -126.74 -56.29s63.304 -118.955 95.995 -91.673c27.863 23.257 100.155 23.014 78.63 -59.905l-3.699 -12.343a178.832 178.832 0 013.699 12.343l10.32 34.442 -50.63 -188.956 -270.537 72.491C505.37 281.5 492.123 236.77 522.352 211.461 582.75 160.895 542.498 24.332 421.286 56.82S345.4 232.06 394.061 241.533c9.675 1.88 29.45 58.02 10.567 93.497l-205.26 55 54.729 204.252c-9.092 36.95 -67.509 42.519 -100.321 15.638C128.347 589.065 19.268 628.204 46.959 731.557s149.399 64.71 157.474 23.22c1.983 -10.225 55.62 -48.213 88.564 -15.318L347.83 944.1l223.53 -59.896c57.279 -28.151 11.065 -69.866 -28.103 -84.652 -31 -11.677 -51.783 -126.584 52.338 -154.48s131.715 97.758 99.584 125.699c-8.057 7.003 -26.129 84.08 30.732 71.912l-7.141 2.024 11.23 -3.01a77.412 77.412 0 01-4.077 .983l10.465 -2.968a96.047 96.047 0 01-6.178 1.93l231.41 -62.007z"/></svg>