<svg height="1000" width="1000" xmlns="http://www.w3.org/2000/svg"><path d="M644.342 506.59c0 81.938 -66.424 148.362 -148.362 148.362S347.618 588.528 347.618 506.59c0 -81.938 66.424 -148.362 148.362 -148.362s148.362 66.424 148.362 148.362zM324.517 439.743c0 43.38 -35.166 78.545 -78.545 78.545s-78.545 -35.166 -78.545 -78.545c0 -43.378 35.166 -78.544 78.545 -78.544s78.545 35.166 78.545 78.544zM137.973 397.142c0 28.116 -22.793 50.908 -50.908 50.908S36.157 425.257 36.157 397.142c0 -28.116 22.793 -50.908 50.908 -50.908s50.908 22.793 50.908 50.908zm689.44 177.396c0 43.379 -35.165 78.545 -78.544 78.545s-78.545 -35.166 -78.545 -78.545c0 -43.379 35.166 -78.545 78.545 -78.545s78.545 35.166 78.545 78.545zm131.051 42.41c0 28.115 -22.793 50.907 -50.908 50.907s-50.908 -22.793 -50.908 -50.908c0 -28.116 22.793 -50.908 50.908 -50.908s50.908 22.793 50.908 50.908zM508.402 255.52c0 43.38 -35.166 78.547 -78.547 78.547S351.31 298.901 351.31 255.52c0 -43.38 35.166 -78.546 78.546 -78.546s78.547 35.166 78.547 78.546zM438.352 96.834c0 28.116 -22.793 50.908 -50.908 50.908S336.536 124.95 336.536 96.834c0 -28.116 22.793 -50.908 50.908 -50.908s50.908 22.793 50.908 50.908zm204.839 661.582c0 43.38 -35.166 78.547 -78.547 78.547s-78.547 -35.166 -78.547 -78.547c0 -43.38 35.166 -78.546 78.547 -78.546s78.547 35.166 78.547 78.546zm14.968 158.912c0 28.116 -22.792 50.908 -50.908 50.908s-50.908 -22.793 -50.908 -50.908c0 -28.116 22.793 -50.908 50.908 -50.908s50.908 22.793 50.908 50.908zM759.813 322.79c0 43.38 -35.166 78.547 -78.547 78.547S602.718 366.17 602.718 322.79c0 -43.381 35.167 -78.548 78.548 -78.548s78.547 35.167 78.547 78.548zm88.862 -116.092c0 28.116 -22.793 50.908 -50.908 50.908s-50.909 -22.793 -50.909 -50.908c0 -28.116 22.793 -50.908 50.909 -50.908s50.908 22.793 50.908 50.908zm-456.97 484.177c0 43.38 -35.167 78.547 -78.548 78.547S234.61 734.255 234.61 690.875c0 -43.381 35.167 -78.548 78.547 -78.548s78.548 35.167 78.548 78.548zm-143.717 116.51c0 28.115 -22.793 50.907 -50.908 50.907S146.172 835.5 146.172 807.384c0 -28.116 22.792 -50.908 50.908 -50.908s50.908 22.793 50.908 50.908zm211.882 27.187c0 28.16 -22.828 50.988 -50.988 50.988s-50.988 -22.828 -50.988 -50.988 22.828 -50.989 50.988 -50.989 50.988 22.828 50.988 50.989zM632.368 190.795c0 28.16 -22.828 50.988 -50.988 50.988s-50.988 -22.828 -50.988 -50.988 22.828 -50.988 50.988 -50.988 50.988 22.828 50.988 50.988zm-407.853 408.09c0 28.16 -22.829 50.99 -50.99 50.99s-50.99 -22.83 -50.99 -50.99c0 -28.161 22.829 -50.99 50.99 -50.99s50.99 22.829 50.99 50.99zm643.777 -172.5c0 28.16 -22.828 50.988 -50.988 50.988s-50.989 -22.828 -50.989 -50.988 22.828 -50.988 50.989 -50.988 50.988 22.828 50.988 50.988zM310.84 277.143c0 28.161 -22.829 50.99 -50.99 50.99s-50.99 -22.829 -50.99 -50.99c0 -28.16 22.829 -50.99 50.99 -50.99s50.99 22.83 50.99 50.99zm471.28 471.28c0 28.161 -22.83 50.99 -50.991 50.99s-50.99 -22.829 -50.99 -50.99c0 -28.16 22.829 -50.99 50.99 -50.99s50.99 22.83 50.99 50.99z"/></svg>