<svg height="1000" width="1000" xmlns="http://www.w3.org/2000/svg"><path d="M854.342 261.42l19.676 -31.603 47.275 29.434 33.294 -48.59 -83.833 -57.443c-47.276 68.995 -105.255 37.21 -161.64 -.878l51.68 -75.419L695.133 31.926 343.82 544.611l-44.715 -31.209c-47.705 -33.293 -106.602 49.743 -58.26 83.48l45.433 31.706 -6.572 9.59C190.651 593.406 93.811 601.909 51.916 663.052h.003C4.485 732.267 45.384 842.816 142.634 909.46s214.324 64.334 261.752 -4.883C446.408 843.25 419.709 749.907 345.435 683.07l6.117 -8.927 38.691 27.002c44.365 30.961 103.724 -51.749 58.26 -83.48l-39.406 -27.498L613.64 291.664C667.743 329 721.638 370.83 678.984 433.079l83.83 57.443 56.326 -82.2 -52.438 -32.648 21.518 -34.557 53.954 33.593 35.02 -51.106L803.66 277.82l21.518 -34.557 29.163 18.158zM193.232 875.85C157.759 875.849 129 847.09 129 811.618s28.756 -64.232 64.233 -64.232 64.233 28.759 64.233 64.232c-.002 35.474 -28.759 64.23 -64.233 64.23z"/></svg>