<svg height="1000" width="1000" xmlns="http://www.w3.org/2000/svg"><path d="M443.115 31.245v475.154C317.237 536.643 239.691 663.207 269.935 789.084c25.637 106.786 121.981 181.44 231.78 179.626 129.432 .245 234.575 -104.457 234.82 -233.914C736.755 627.57 664.16 533.896 560.292 507.28V324.174h117.177v-87.889H560.292v-87.864h175.777V31.244H443.114zm49.435 585.91c1.519 -.025 3.039 -.025 4.583 0 1.519 -.025 3.039 -.025 4.583 0 64.728 0 117.177 52.473 117.177 117.177S566.419 851.509 501.716 851.509C436.987 853.715 382.725 803.031 380.519 738.302 378.313 674.04 428.31 619.973 492.549 617.155z"/></svg>