<svg height="1000" width="1000" xmlns="http://www.w3.org/2000/svg"><path d="M520.992 180.313c20.778 24.336 29.933 56.297 12.235 107.99 141.096 48.305 274.17 103.175 436.291 91.701C851.1 285.626 717.74 215.003 533.006 145.224l6.547 -19.124L263.213 31.492l-30.044 87.753c97.212 16.636 189.633 47.29 276.34 94.608l11.483 -33.54zm10.496 235.76l15.765 -20.55L250.283 167.698l-72.348 94.305c111.27 59.93 210.995 134.922 296.97 227.826l27.652 -36.044c15.29 38.047 13.35 80.607 -29.267 136.158 151.627 116.324 290.834 237.345 492.427 289.654C860.457 716.582 727.344 576.31 531.487 416.074zM272.55 444.99L114.703 173.499l-86.214 50.126c67.253 81.985 120.74 171.98 157.848 271.49l32.953 -19.158c-.262 34.403 -15.335 66.815 -66.121 96.34 80.593 138.619 150.05 276.922 289.83 381.786C413.278 794.011 354.683 642.71 253.765 455.913l18.788 -10.922z"/></svg>