<svg height="1000" width="1000" xmlns="http://www.w3.org/2000/svg"><path d="M568.967 518.334l80.307 -84.83c34.187 14.733 71.888 14.2 99.417 -13.326L973.146 195.727 930.025 152.61 773.522 316.786l-29.518 -28.14L901.179 123.764 868.86 91.445 708.27 259.909l-29.519 -28.14L840.013 62.597 809.16 31.745 584.707 256.197c-28.657 28.657 -29.46 64.572 -15.374 97.365l-84.513 80.633L76.086 25.51c-125.64 134.106 112.62 445.575 330.705 483.13L33.311 864.98C10.07 951.71 54.3 994.504 139.898 971.565L492.59 599.01l309.266 373.28C890.65 996.08 936.53 951.7 912.418 861.738L568.966 518.329z"/></svg>