<svg height="1000" width="1000" xmlns="http://www.w3.org/2000/svg"><path d="M187.194 124.786h623.979zm343.188 343.189V935.92c114.397 -.397 228.793 -5.16 343.189 -62.36L811.173 124.787c-311.99 -124.795 -311.99 -124.795 -623.98 0l-62.397 748.775c114.396 57.199 228.792 61.96 343.188 62.359V467.975H218.393v-93.597h561.58v93.597h-249.59zm93.597 249.592h-31.2v-31.2h31.2v31.2zm0 -62.398h-31.2v-31.2h31.2v31.2zm0 -62.399h-31.2v-31.199h31.2v31.2zm62.398 124.797h-31.199v-31.2h31.2v31.2zm0 -62.398h-31.199v-31.2h31.2v31.2zm0 -62.399h-31.199v-31.199h31.2v31.2zm62.397 124.797h-31.199v-31.2h31.2v31.2zm0 -62.398h-31.199v-31.2h31.2v31.2zm0 -62.399h-31.199v-31.199h31.2v31.2zM374.388 561.572h31.199v31.2h-31.2v-31.2zm0 62.398h31.199v31.199h-31.2v-31.2zm0 62.398h31.199v31.199h-31.2v-31.2zM311.989 561.572h31.2v31.2h-31.2v-31.2zm0 62.398h31.2v31.199h-31.2v-31.2zm0 62.398h31.2v31.199h-31.2v-31.2zM249.591 561.572h31.2v31.2h-31.2v-31.2zm0 62.398h31.2v31.199h-31.2v-31.2zm0 62.398h31.2v31.199h-31.2v-31.2zM311.99 343.179c-8.615 0 -15.6 -6.983 -15.6 -15.6s6.983 -15.6 15.6 -15.6 15.601 6.983 15.601 15.6 -6.985 15.6 -15.6 15.6zm93.597 0c-8.615 0 -15.6 -6.983 -15.6 -15.6s6.983 -15.6 15.6 -15.6 15.6 6.983 15.6 15.6 -6.985 15.6 -15.6 15.6zm93.597 0c-8.615 0 -15.6 -6.983 -15.6 -15.6s6.983 -15.6 15.6 -15.6 15.6 6.983 15.6 15.6 -6.984 15.6 -15.6 15.6zm93.597 0c-8.615 0 -15.6 -6.983 -15.6 -15.6s6.983 -15.6 15.6 -15.6 15.6 6.983 15.6 15.6 -6.985 15.6 -15.6 15.6zm93.597 0c-8.615 0 -15.6 -6.983 -15.6 -15.6s6.983 -15.6 15.6 -15.6 15.6 6.983 15.6 15.6 -6.985 15.6 -15.6 15.6z"/></svg>