<svg height="1000" width="1000" xmlns="http://www.w3.org/2000/svg"><path d="M563.251 497.205L427.341 380.123c13.882 -33.707 5.473 -73.902 -23.661 -99 -36.395 -31.352 -91.312 -27.264 -122.662 9.128 -31.35 36.393 -27.265 91.309 9.13 122.66 28.962 24.949 69.636 27.433 100.847 9.08l134.672 116.015L552.33 676.16l396.964 191.158L701.481 503.025l-138.229 -5.82zM315.571 384.147c-20.342 -17.523 -22.627 -48.22 -5.104 -68.561 17.523 -20.343 48.219 -22.626 68.562 -5.103s22.628 48.219 5.105 68.561c-17.524 20.343 -48.219 22.626 -68.563 5.103zm-143.723 -93.96c29.358 -19.33 44.472 -55.924 34.876 -91.739 -11.987 -44.739 -57.972 -71.289 -102.71 -59.3C59.277 151.137 32.73 197.12 44.716 241.859c9.538 35.6 40.608 59.657 75.442 61.97l44.36 165.548 -53.736 124.576 212.61 367.797 .226 -424.826L216.617 457.262 171.848 290.187zM80.591 232.73c-6.7 -25.006 8.138 -50.71 33.145 -57.41s50.71 8.138 57.41 33.146c6.7 25.008 -8.14 50.71 -33.146 57.41S87.29 257.738 80.59 232.73zm188.46 -57.668c36.394 31.35 91.31 27.264 122.66 -9.127a87.555 87.555 0 006.93 -9.246l127.581 34.184 69.478 93.323 364.315 -.197L644.605 101.674 539.56 146.987 412.684 112.99c1.112 -25.693 -9.107 -51.625 -30.105 -69.715C346.185 11.922 291.268 16.01 259.917 52.402c-31.348 36.393 -27.262 91.309 9.132 122.66zM313.682 63.888c25.007 -6.7 50.71 8.139 57.409 33.146 6.701 25.008 -8.139 50.711 -33.146 57.411s-50.71 -8.138 -57.409 -33.146c-6.7 -25.007 8.139 -50.71 33.146 -57.411z"/></svg>