<svg height="1000" width="1000" xmlns="http://www.w3.org/2000/svg"><path d="M846.815 378.367L544.288 164.333c14.496 -12.364 23.7 -30.749 23.7 -51.295 0 -37.226 -30.178 -67.406 -67.406 -67.406s-67.406 30.18 -67.406 67.406c0 20.105 8.812 38.144 22.773 50.492L153.551 378.367h693.264zM660.768 869.854L788.273 415.995H212.09l127.506 453.859h321.174zM521.178 466.763c102.127 81.007 -15.918 132.724 31.103 191.7 19.386 24.315 58.522 3.283 67.97 -43.657C645.254 705.118 597.056 809.54 501.816 809.54 460.724 808.294 425.72 776.292 403.88 727.547 371.41 604.246 577.746 559.833 521.178 466.764zM199.836 901.294h588.44v55.465h-588.44v-55.465z"/></svg>