<svg height="1000" width="1000" xmlns="http://www.w3.org/2000/svg"><path d="M965.18 967.095l-.005 -.008 -.002 -47.625L634.047 585.827C620.168 551.05 615.495 522.375 611.804 496.302c12.04 4.075 25.873 1.35 35.468 -8.25 13.474 -13.48 13.471 -35.333 -.002 -48.81 -12.765 -12.769 -33.034 -13.42 -46.587 -1.996 -7.545 -24.784 -20.948 -49.779 -49.126 -78.778C522.08 328.14 478.035 318.935 435.627 329.945l40.828 -40.827 -73.26 -73.26 38.133 -38.134L344.09 80.486l-38.134 38.133L205.421 18.084H19.801v197.012l94.84 94.84L77.374 347.2l97.238 97.238 37.264 -37.265 73.26 73.26L435.6 329.975c34.587 -2.645 70.078 9.223 96.528 35.68 48.087 48.104 48.102 126.1 .006 174.211 -29.513 29.526 -70.272 40.893 -108.477 34.18A45.165 45.165 0 00412.08 554.278c-13.331 -13.334 -32.898 -16.628 -49.313 -9.887a125.474 125.474 0 01-4.784 -4.533C333.242 515.11 321.265 482.445 321.981 450.01c-7.825 38.285 .308 77.175 25.294 104.969 -17.022 17.761 -16.81 45.968 .67 63.456 17.71 17.715 46.422 17.721 64.135 .002a45.205 45.205 0 009.256 -13.381c47.593 16.055 94.212 6.367 162.264 30.272l44.706 45.046c-12.7 13.527 -12.477 34.78 .735 47.998 13.154 13.158 34.265 13.435 47.798 .902l236.03 237.822h52.312zM424.805 661.68c-10.488 10.493 -10.488 27.51 .002 38.003s27.497 10.497 37.988 .002c10.49 -10.494 10.487 -27.509 -.002 -38.003s-27.501 -10.492 -37.988 -.002zm257.137 -283.81c18.943 -18.95 18.938 -49.67 -.002 -68.615s-49.655 -18.945 -68.591 -.002c-18.936 18.943 -18.938 49.668 .002 68.615s49.647 18.95 68.59 .002zm-4.67 179.305c10.49 10.494 27.498 10.497 37.989 .002s10.487 -27.51 -.002 -38.003c-10.49 -10.494 -27.501 -10.492 -37.988 -.002 -10.488 10.492 -10.488 27.509 .002 38.003z"/></svg>