<svg height="1000" width="1000" xmlns="http://www.w3.org/2000/svg"><path d="M499.995 148.428c-194.167 0 -351.558 157.402 -351.558 351.557S305.84 851.543 499.995 851.543 851.553 694.141 851.553 499.985 694.16 148.428 499.995 148.428zm0 175.784c97.078 0 175.784 78.696 175.784 175.783S597.082 675.78 499.995 675.78 324.21 597.083 324.21 499.995 402.917 324.212 499.995 324.212zm58.597 287.106v333.98c0 12.941 -10.49 23.441 -23.441 23.441h-70.313c-12.942 0 -23.442 -10.49 -23.442 -23.441v-333.98c0 -12.941 10.49 -23.441 23.442 -23.441h70.313c12.951 0 23.441 10.49 23.441 23.441zm0 -556.645v333.98c0 12.941 -10.49 23.441 -23.441 23.441h-70.313c-12.942 0 -23.442 -10.49 -23.442 -23.441V54.673c0 -12.941 10.49 -23.441 23.442 -23.441h70.313c12.951 .01 23.441 10.5 23.441 23.441z"/></svg>