<svg height="1000" width="1000" xmlns="http://www.w3.org/2000/svg"><path d="M877.555 297.928c-1.804 5.439 -3.654 10.91 -5.505 16.413 21.066 102.995 13.275 214.907 -39.86 337.085 7.711 -78.473 6.436 -153.532 -5.691 -225.482 -14.314 27.848 -32.567 54.83 -51.243 81.993 2.65 78.029 -11.89 160.383 -50.107 248.257 6.13 -62.411 5.007 -122.572 -1.137 -181.072 -25.027 28.458 -52.964 55.81 -84.27 80.856 -7.414 49.485 -21.363 100.728 -44.416 153.74 4.135 -42.126 4.8 -83.739 3.414 -124.127 -69.4 47.2 -151.82 84.945 -251.672 105.905 84.085 -47.192 151.19 -95.88 206.121 -145.766 -36.136 -7.528 -73.316 -12.477 -110.462 -15.943 49.11 -12.41 97.62 -17.251 144.63 -15.943 33.592 -34.353 61.659 -68.904 84.27 -104.77C608.968 497.807 545.552 494.55 481.447 498.828 555.05 463.21 628.371 450.77 701.233 455.554c18.825 -38.752 31.693 -78.837 40.997 -119.571 -55.413 -5.236 -115.742 7.912 -184.486 25.054 62.072 -56.864 129.165 -81.563 195.872 -88.827 3.47 -28.226 5.295 -56.504 5.625 -85.662C451.507 -32.43 533.021 704.046 50.968 822.368c396.646 245.706 1164.72 -110.59 826.59 -524.44zM805.884 57.68c19.62 -9.545 43.437 -10.106 61.496 6.832 10.306 96.978 -21.26 301.955 -145.767 445.271 94.956 -173.06 101.915 -298.376 84.27 -452.1v-.003z"/></svg>