<svg height="1000" width="1000" xmlns="http://www.w3.org/2000/svg"><path d="M329.182 596.49c24.3 0 44.003 -19.695 44.003 -44.003S353.48 508.492 329.182 508.492c-24.3 0 -44.003 19.686 -44.003 43.995s19.703 44.003 44.003 44.003zm-212.48 -43.72c0 -115.762 93.255 -209.732 208.733 -210.893 -2.275 -17.251 -3.341 -35.124 -2.813 -53.874C333.116 -79.295 903.93 -3.206 817.64 349.257c-31.954 130.53 -87.697 254.586 -139.183 367.846 -48.127 105.9 26.631 98.097 33.613 63.953l163.012 3.548C869.144 1056.23 370.808 999.932 530.016 649.638 582.23 534.755 625.497 422.364 659.262 310.471 697.897 182.48 404.299 134.542 510.124 407.481c15.174 39.153 28.357 87.253 28.13 134.616l.265 10.664c0 116.477 -94.423 210.902 -210.911 210.902S116.703 669.25 116.703 552.77z"/></svg>