<svg height="1000" width="1000" xmlns="http://www.w3.org/2000/svg"><path d="M499.99 312.494c-97.082 0 -175.783 83.946 -175.783 187.5s78.701 187.499 175.784 187.499 175.784 -83.946 175.784 -187.5 -78.701 -187.5 -175.784 -187.5zm-43.945 46.886h87.892v93.75h87.892v93.75h-87.892v93.75h-87.892v-93.75h-87.893v-93.75h87.893v-93.75zM499.99 31.245c43.946 140.611 87.892 140.611 87.892 234.387 0 0 -43.946 46.887 -87.892 46.887s-87.892 -46.887 -87.892 -46.887c0 -93.75 43.946 -93.75 87.892 -234.387zm0 937.497C456.045 828.13 412.099 828.13 412.099 734.355c0 0 43.946 -46.888 87.892 -46.888s87.892 46.888 87.892 46.888c0 93.774 -43.946 93.774 -87.892 234.387z"/></svg>