<svg height="1000" width="1000" xmlns="http://www.w3.org/2000/svg"><path d="M499.992 234.847c-146.446 0 -265.171 118.725 -265.171 265.17S353.546 765.19 499.99 765.19 765.164 646.464 765.164 500.018c0 -146.47 -118.725 -265.171 -265.171 -265.171zm-66.275 66.274H566.29v132.573h132.572v132.573H566.29v132.572H433.717V566.267H301.144V433.694h132.573V301.12zM31.242 31.245c187.5 93.75 234.387 46.887 328.113 140.612 0 0 0 93.75 -46.888 140.613C265.579 359.358 171.83 359.358 171.83 359.358 78.129 265.633 124.992 218.745 31.24 31.245zm937.499 937.498C781.24 874.993 734.354 921.856 640.628 828.13c0 0 0 -93.75 46.888 -140.613C734.403 640.63 828.153 640.63 828.153 640.63c93.725 93.75 46.838 140.613 140.589 328.112zm0 -937.498C874.99 218.744 921.853 265.632 828.103 359.38c0 0 -93.75 0 -140.637 -46.887S640.578 171.88 640.578 171.88C734.377 78.13 781.24 124.993 968.74 31.244zM31.242 968.743C124.992 781.243 78.13 734.356 171.88 640.606c0 0 93.75 0 140.638 46.888s46.887 140.613 46.887 140.613C265.63 921.88 218.743 874.994 31.244 968.744z"/></svg>