<svg height="1000" width="1000" xmlns="http://www.w3.org/2000/svg"><path d="M716.51 636.708c-.073 120.808 -97.058 218.676 -216.642 218.602C380.408 855.237 283.57 757.393 283.496 636.708 283.423 515.9 380.286 417.885 499.868 417.81s216.568 97.794 216.642 218.602c0 .122 0 .22 0 .294zM499.99 89.847c54.117 164.068 108.26 164.068 108.26 273.43 0 0 -54.118 54.682 -108.26 54.682 -54.117 0 -108.26 -54.681 -108.26 -54.681 .025 -109.362 54.143 -109.362 108.26 -273.431zm468.749 820.316C801.043 875.482 773.984 922.86 680.235 868.178c0 0 -19.804 -74.706 7.254 -122.058s101.005 -67.378 101.005 -67.378c93.75 54.633 66.691 102.01 180.245 231.421zm-937.498 0C144.795 780.776 117.736 733.4 211.486 678.717c0 0 73.946 20.025 101.004 67.378s7.255 122.058 7.255 122.058c-93.75 54.706 -120.808 7.329 -288.504 42.01z"/></svg>