<svg height="1000" width="1000" xmlns="http://www.w3.org/2000/svg"><path d="M765.161 499.991C764.671 646.437 645.553 764.77 499.108 764.28 353.348 763.79 235.31 645.75 234.82 499.99 234.33 353.545 352.662 234.43 499.108 233.938s265.563 117.843 266.053 264.289c0 .588 0 1.176 0 1.764zM31.241 31.241c187.5 93.75 234.387 46.888 328.113 140.613 0 0 0 93.75 -46.888 140.613 -46.888 46.888 -140.637 46.888 -140.637 46.888C78.128 265.63 124.99 218.742 31.24 31.243zm937.498 937.5C781.239 874.99 734.352 921.852 640.626 828.126c0 0 0 -93.75 46.888 -140.613C734.4 640.627 828.15 640.627 828.15 640.627c93.726 93.75 46.838 140.613 140.588 328.112zm0 -937.5C874.989 218.742 921.85 265.63 828.1 359.379c0 0 -93.75 0 -140.637 -46.887S640.576 171.878 640.576 171.878C734.376 78.128 781.238 124.99 968.738 31.24zM31.24 968.742C124.991 781.24 78.13 734.352 171.878 640.602c0 0 93.75 0 140.638 46.888s46.887 140.613 46.887 140.613C265.63 921.878 218.742 874.99 31.243 968.74z"/></svg>