<svg height="1000" width="1000" xmlns="http://www.w3.org/2000/svg"><path d="M675.766 499.993c0 103.554 -78.701 187.5 -175.784 187.5S324.198 603.547 324.198 499.993s78.701 -187.5 175.784 -187.5 175.784 83.947 175.784 187.5zM500.006 31.245C543.954 171.856 587.9 171.856 587.9 265.632c0 0 -43.946 46.887 -87.892 46.887s-87.893 -46.887 -87.893 -46.887c0 -93.75 43.946 -93.75 87.893 -234.387zm0 937.497C456.06 828.13 412.115 828.13 412.115 734.355c0 0 43.946 -46.888 87.893 -46.888s87.892 46.888 87.892 46.888c0 93.774 -43.946 93.774 -87.892 234.387z"/></svg>