<svg height="1000" width="1000" xmlns="http://www.w3.org/2000/svg"><path d="M499.99 417.958c-119.582 0 -216.494 97.942 -216.494 218.75s96.937 218.75 216.495 218.75 216.494 -97.942 216.494 -218.75S619.574 417.958 499.991 417.958zm-54.117 54.682h108.26v109.362h108.259v109.362h-108.26v109.362h-108.26V691.364H337.614V582.002h108.26V472.64zM499.99 89.847c54.117 164.068 108.26 164.068 108.26 273.43 0 0 -54.118 54.682 -108.26 54.682 -54.117 0 -108.26 -54.681 -108.26 -54.681 .025 -109.362 54.143 -109.362 108.26 -273.431zM968.74 910.163C801.044 875.482 773.985 922.86 680.236 868.153c0 0 -19.804 -74.705 7.254 -122.058s101.005 -67.378 101.005 -67.378c93.75 54.658 66.691 102.034 180.245 231.446zm-937.498 0C144.796 780.776 117.737 733.4 211.487 678.717c0 0 73.946 20.025 101.004 67.378s7.255 122.058 7.255 122.058c-93.75 54.706 -120.808 7.329 -288.504 42.01z"/></svg>