<svg height="1000" width="1000" xmlns="http://www.w3.org/2000/svg"><path d="M66.889 742.976h864.27v161.76H66.889v-161.76zm503.94 -130.359v-99.523c48.086 -26.121 79.805 -75.192 79.805 -131.532 0 -82.53 -68.052 -149.428 -151.965 -149.428S346.713 299.032 346.713 381.562c0 55.664 30.944 104.217 76.853 129.931v101.124l-.596 61.56H66.878v-161.75h129.135c-19.48 -39.934 -30.338 -84.39 -30.338 -131.223 0 -173.611 149.23 -314.36 333.323 -314.36S832.32 207.593 832.32 381.204c0 46.833 -10.858 91.29 -30.338 131.223h129.145v161.75H570.851l-.021 -61.56z"/></svg>