<svg height="1000" width="1000" xmlns="http://www.w3.org/2000/svg"><path d="M370.873 731.76l532.54 -532.543L971.137 29.465 801.39 97.197 268.85 629.728zM94.864 611.315l.002 -.002 -.002 -.002zm83.352 -83.353l-83.35 83.352 116.571 116.571L27.751 911.571l60.375 60.375L271.812 788.26l116.656 116.657 83.352 -83.353C348.87 750.58 248.4 649.525 178.217 527.963zM282.872 376.926l117.923 109.238 73.793 -73.79 -61.55 -57.018 60.706 -56.233L38.957 38.615l304.564 282.13zm434.741 260.578L594.258 523.232l-73.793 73.792 71.788 66.501 -56.55 52.389 434.788 260.508L661.12 689.837z"/></svg>