<svg height="1000" width="1000" xmlns="http://www.w3.org/2000/svg"><path d="M746.916 192.62C765.438 140.63 767.364 86.022 754.568 34.5h-.003v.002c-1.318 47.477 -15.888 96.082 -43.274 140.075C638.241 291.937 491.457 343.913 356.674 310.91c10.155 -4.506 19.953 -9.426 29.308 -14.818C462.138 252.22 497.678 187.957 491.89 117.305c-14.404 42.533 -48.022 80.566 -97.936 109.324C300.262 280.606 163.836 288.415 28.401 259.65v72.883c80.031 15.941 160.073 18.666 231.207 6.71 8.16 5.577 16.674 10.83 25.652 15.7l-1.272 .084L489.97 594.694l-181.432 39.783L892.84 967.078l-213.2 -343.25 113.188 -29.14L614.313 349.665c40.141 -23.37 75.19 -55.375 101.533 -95.131 78.859 28.61 165.371 38.889 248.267 31.963v-76.302c-71.871 7.012 -146.63 1.513 -217.197 -17.577z"/></svg>