<svg height="1000" width="1000" xmlns="http://www.w3.org/2000/svg"><path d="M193.318 260.223c183.238 152.268 169.143 203.382 21.59 407.746 80.217 56.545 153.28 210.158 127.397 297.284H29.268L41.164 41.679C178.73 55 276.786 178.912 193.322 260.223h-.003zM341.126 35.493c-131.401 263.433 161.097 520.37 495.887 427.7 -17.767 149.455 -1.864 295.302 118.924 301.277V35.49l-614.81 .005zm139.535 928.215C395.837 917.963 369.782 859.86 358.606 804.85c126.215 -14.324 231.13 28.71 268.361 160.403l-146.306 -1.545zM404.838 460.035c-195 237.248 -67.015 358.635 158.352 302.993 32.905 69.943 71.338 138.659 140.878 200.46h133.235c-19.37 -27.375 -44.99 -53.186 -80.816 -76.448C827.1 764.373 835.633 652.756 767.495 522.082c-98.54 -15.509 -159.903 -1.33 -254.322 28.46 -25.278 -45.829 -65.81 -67.26 -108.34 -90.509l.006 .002zM907.2 960.856C788.874 928.246 800.49 810.281 852.872 753.097c56.31 29.958 85.455 62.044 112.21 118.463v91.481l-57.883 -2.185zm52.528 -199.14V530.338z"/></svg>