<svg height="1000" width="1000" xmlns="http://www.w3.org/2000/svg"><path d="M755.068 378.636l.003 -.003C742.122 333.96 708.558 304.746 644.252 275.295 667.152 160.465 612.072 94.827 507.49 33.838l8.374 84.302C441.826 68.656 335.773 17.646 240.727 22.09c-31.682 1.457 -64.389 6.432 -98.713 16.454l116.339 122.217c-63.55 .365 -169.84 9.26 -228.584 52.905l62.884 102.216L20.97 353.111V485.1l77.482 43.763L20.97 595.57v90.066c55.627 -4.52 130.704 3.607 197.819 -18.843 -47.444 55.635 -62.553 135.343 -119.08 204.944 75.584 -2.878 150.958 -12.682 231.505 -56.407l-18.805 149.245C440.783 916.75 567.572 796.273 556.684 693.412l1.8 -8.597a191.69 191.69 0 0023.601 11.85l226.978 80.43c12.414 -26.848 25.873 -53.83 40.137 -80.814a79.291 79.291 0 01-28.808 5.403c-43.912 0 -79.508 -35.598 -79.508 -79.51s35.596 -79.51 79.508 -79.51c39.112 0 71.602 28.247 78.245 65.45 23.684 -40.033 48.775 -79.76 74.728 -118.735L755.066 378.635z"/></svg>