<svg height="1000" width="1000" xmlns="http://www.w3.org/2000/svg"><path d="M470.894 185.307c-6.323 -8.976 -9.79 -21.327 -7.863 -36.71 8.385 -66.896 60.861 -77.501 72.938 .005 2.543 16.324 .294 28.712 -4.722 37.471 16.606 -11.324 27.215 -34.021 21.448 -69.287 -17.92 -109.579 -97.007 -97.985 -109.582 0 -4.265 33.238 9.041 56.523 27.781 68.52zm-232.73 7.658c-3.42 -8.341 -4.669 -19.266 -2.535 -32.974 12.078 -77.505 64.553 -66.9 72.939 -.005 1.399 11.163 -.05 20.725 -3.36 28.567 15.982 -12.116 26.53 -32.612 22.647 -60.377 -12.689 -90.734 -92.256 -105.277 -110.557 0 -5.73 32.953 4.557 54.117 20.866 64.79zm554.09 271.11H764.85V248.428c-7.294 5.126 -14.587 8.055 -21.881 9.417l-15.703 -57.51 -15.176 55.59c-7.643 -1.954 -15.287 -4.685 -22.932 -7.497v215.646h-24.464c0 30.312 15.443 50.1 35.577 59.354v56.106c0 39.35 -30.397 70.886 -69.16 70.886H529.885V523.726c20.397 -9.112 36.117 -28.973 36.117 -59.652h-29.165V211.987c-7.014 2.645 -14.03 4.915 -21.045 6.513l-14.953 -54.764L485.4 220.28c-8.085 -1.134 -16.17 -3.737 -24.256 -8.292v252.087H438.44c0 30.582 15.72 50.449 36.12 59.596v126.75H373.105c-38.763 0 -70.885 -32.122 -70.885 -70.886v-55.616c20.606 -9.022 36.55 -28.948 36.55 -59.844h-27.703V227.93c-7.653 3.968 -15.304 6.503 -22.956 7.834l-15.86 -58.092 -15.606 57.16c-7.09 -1.538 -14.18 -3.87 -21.27 -6.902v236.144H211.21c0 30.368 15.5 50.17 35.687 59.402v56.058c0 69.209 57.003 126.21 126.21 126.21h101.452v180.26c-43.141 6.878 -79.922 30.075 -79.922 69.562h215.167c0 -39.61 -36.778 -62.778 -79.92 -69.6V705.743H631.11c69.21 0 124.484 -57.594 124.484 -126.21v-55.57c20.66 -8.999 36.659 -28.94 36.659 -59.89zm-94.64 -241.349c-6.64 -8.825 -10.025 -22.374 -7.108 -41.1 12.078 -77.505 64.553 -66.9 72.938 -.004 2.207 17.608 -2.65 31.25 -10.776 40.394 19.845 -12.061 34.484 -36.868 30.09 -72.208 -12.32 -99.075 -89.436 -115.433 -107.178 0 -5.844 38.022 5.131 61.74 22.034 72.917z"/></svg>