<svg height="1000" width="1000" xmlns="http://www.w3.org/2000/svg"><path d="M295.84 300.282h94.697c8.312 0 15.049 -8.689 15.049 -19.404V144.19c0 -10.717 -6.737 -19.404 -15.049 -19.404H295.84c-8.311 0 -15.049 8.687 -15.049 19.404v136.687c0 10.717 6.738 19.404 15.05 19.404zm515.333 430.934v-249.59H561.582v249.59H436.786l249.591 249.592L935.968 731.216zM222.29 803.365c-8.615 0 -15.6 -6.984 -15.6 -15.6V428.976c0 -8.615 6.983 -15.6 15.6 -15.6h553.782c8.615 0 15.6 6.983 15.6 15.6v16.759h48.548v268.957h48.95v-465.11c0 -8.638 -131.754 -140.396 -140.397 -140.396h-148.16c5.272 2.146 8.954 6.983 8.954 12.616v193.16c0 7.625 -6.738 13.806 -15.049 13.806H263.451c-8.311 0 -15.048 -6.18 -15.048 -13.805V121.803c0 -5.633 3.681 -10.47 8.954 -12.616H124.796a15.567 15.567 0 00-15.601 15.6v748.775c0 8.642 6.958 15.6 15.6 15.6h450.36l-85.798 -85.797H222.291z"/></svg>