<svg height="1000" width="1000" xmlns="http://www.w3.org/2000/svg"><path d="M240.107 679.06L194.095 953.79h623.862L771.945 679.059h-50.433V322.155L811.66 221.32V40.197H706.487v85.754h-64.053V40.197H537.259v85.754h-63.262V40.197H368.824v85.754h-63.262V40.197h-105.17v181.12l90.148 100.835v356.907h-50.433zM506.026 363.236c37.79 0 68.424 30.635 68.424 68.423 0 26.108 -14.625 48.793 -36.126 60.328l34.608 175.68H439.09L473.7 491.977c-21.486 -11.54 -36.1 -34.217 -36.1 -60.315 0 -37.79 30.635 -68.423 68.424 -68.423z"/></svg>