<svg height="1000" width="1000" xmlns="http://www.w3.org/2000/svg"><path d="M964.095 319.42h-.005C955.62 49.49 629.186 -41.585 493.361 193.665 411.636 -35.983 32.206 44.89 40.966 319.421c2.391 74.86 32.22 141.537 75.73 202.143l207.662 -69.219c-38.76 -2.037 -79.83 -18.426 -134.027 -63.587 62.503 -36.885 112.87 -40.471 177.303 -45.737 52.087 -28.06 129.608 -52.465 163.987 -34.163 60.416 -35.72 135.744 -81.626 211.814 -110.462v-.002h.005c-.002 0 -.003 .002 -.005 .002 9.912 38.854 10.403 86.85 6.832 132.1L729.77 303.165c-100.346 22.552 -150.822 219.893 -1.137 137.794l20.499 -33.024c3.438 30.97 6.61 59.626 0 85.409C682.762 540.159 614.928 578.61 547.566 609.5 512.961 639.928 444.984 737.334 425.029 821.87c39.024 39.161 68.127 76.81 78.183 114.34 40.294 -150.364 469.48 -342.838 460.884 -616.79zm-529.928 44.526c25.347 -12.609 52.933 -19.399 83.903 -17.394 8.915 61.998 -50.31 54.905 -83.903 17.394z"/></svg>