<svg height="1000" width="1000" xmlns="http://www.w3.org/2000/svg"><path d="M920.148 389.352C936.873 308.929 888.22 239.757 809.501 259.659c22.594 -63.664 -15.163 -119.98 -66.878 -143.81l-.007 .01C702.396 97.327 653.801 97.724 621.361 130.01 587.8 28.197 438.948 .994 398.51 119.694c-60.985 -63.15 -190.517 20.769 -171.515 103.48C123.504 172.61 41.049 348.473 109.893 414.61 21.53 434.88 30.925 572.982 102.438 598.345c-62.843 83.898 -15.027 152.11 61.338 151.13 8.046 38.205 23.982 61.771 42.611 74.331l-16.16 10.814c20.544 15.733 51.115 15.102 78.571 4.008 77.216 71.307 189.135 102.19 250.119 -16.611C444.445 881.6 368.689 847.185 321.369 795.934c9.614 -15.923 13.27 -34.428 7.057 -53.783l-15.475 10.353c-5.888 -19.87 -22.651 -40.666 -54.993 -59.109 12.402 -32.579 6.239 -74.151 -19.995 -108.854 43.253 -32.769 43.02 -75.095 20.866 -118.136 42.696 -20.28 62.232 -47.297 63.58 -98.735 5.962 -6.282 13.352 -8.116 19.043 5.736 41.765 101.635 77.759 89.011 66.171 -14.395 -3.072 -27.423 62.056 -20.611 58.576 10.149 -13.527 119.51 23.185 149.378 58.992 11.705 10.514 -40.429 63.879 -6.542 54.17 15.494 -48.965 111.182 -25.118 125.618 49.424 35.111 29.59 -35.928 59.544 11.49 41.948 32.11 -73.72 86.384 -68.715 110.614 25.172 56.61 7.05 -4.053 15.443 -6.804 24.755 -8.79 -6.885 24.735 -8.22 49.916 -1.956 72.893 -55.905 52.666 -57.006 150.523 8.243 231.779C682.6 710.259 715.53 658.384 763.505 644.717c15.408 10.18 34.854 18.313 58.915 23.671 18.037 4.018 34.362 5.319 49.061 4.334 34.35 34.626 37.723 94.592 -48.749 165.05C925.26 802.379 953.882 725.516 929.756 652.233c75.82 -56.38 59.945 -211.302 -9.61 -262.881z"/></svg>