<svg height="1000" width="1000" xmlns="http://www.w3.org/2000/svg"><path d="M708.816 377.474C646.49 521.656 532.938 641.986 382.526 707.441 571.023 686.275 707.93 538.257 708.816 377.474zm113.94 0C738.665 572.012 585.46 734.362 382.522 822.672 636.844 794.112 821.557 594.405 822.757 377.474zm141.449 0c-111.111 257.038 -313.54 471.55 -581.68 588.242C718.56 927.976 962.622 664.103 964.205 377.474zm-592.513 153.97C320.522 491.07 262.507 444.35 244.161 426.006 169.689 351.53 161.095 277.89 217.966 221.023c56.871 -56.869 129.63 -48.016 204.983 27.331 18.153 18.156 64.098 74.774 104.18 125.226l69.795 -70.888C555.37 236.368 501.58 153.885 475.336 127.642 359.292 27.498 217.676 23.139 118.894 120.808h.003C6.418 232.019 25.3 379.102 124.587 478.39c26.617 26.616 111.092 81.577 177.879 123.36l69.225 -70.307zm-56.457 78.268c42.98 26.722 75.833 46.33 75.833 46.33l61.496 -61.495C440.562 585.302 413.89 564.639 383.3 540.584l-68.063 69.127zM536.32 385.169c24.566 31.033 45.77 58.246 55.17 70.446l61.497 -61.496s-20.46 -34.28 -48.067 -78.623l-68.6 69.673z"/></svg>