<svg height="1000" width="1000" xmlns="http://www.w3.org/2000/svg"><path d="M617.575 460.87c0 -64.949 -52.654 -117.577 -117.578 -117.577 -64.95 0 -117.578 52.653 -117.578 117.577 0 64.95 52.653 117.578 117.578 117.578 64.949 0 117.578 -52.629 117.578 -117.578zM499.997 931.205c-75.82 0 -146.941 -18.666 -210.366 -50.513L421.005 618.878c23.682 11.829 50.734 18.37 78.992 18.37s55.308 -6.541 78.992 -18.37l131.373 261.814c-63.424 31.847 -134.546 50.513 -210.365 50.513zm407.328 -705.49c37.897 65.663 57.3 136.588 61.432 207.44l-292.406 17.141c-1.599 -26.412 -9.468 -53.12 -23.584 -77.59 -14.14 -24.47 -33.323 -44.635 -55.407 -59.22L758.417 68.816c59.268 38.98 110.987 91.239 148.909 156.9zm-814.656 0c37.897 -65.661 89.64 -117.92 148.933 -156.925l161.057 244.673c-22.084 14.608 -41.266 34.75 -55.407 59.22s-21.986 51.177 -23.584 77.613L31.262 433.155c4.107 -70.852 23.51 -141.802 61.408 -207.44z"/></svg>