<svg height="1000" width="1000" xmlns="http://www.w3.org/2000/svg"><path d="M909.74 214.336c1.161 26.927 -2.443 53.615 -12.041 79.43C877.47 216.458 837.839 108.923 720.395 58.476 689.444 47.675 655.149 39.904 617.34 35.816h-.005c79.462 96.898 53.913 169.053 10.395 239.296C629.295 191.42 555.194 161.782 465.376 189.168c139.301 .28 123.838 104.807 92.16 197.116 -16.385 31.513 -27.884 64.814 -27.884 101.63 0 41.238 13.13 75.13 36.18 101.25L34.602 913.83v46.688H151.57L665.814 640.361a98.901 98.901 0 0033.215 5.725c54.867 0 99.346 -44.599 99.346 -99.611s-44.48 -99.611 -99.346 -99.611 -99.345 44.598 -99.345 99.61c0 7.093 .752 14.008 2.158 20.682l-18.878 11.537c-4.386 -18.328 -4.587 -38.778 .216 -61.165C603.034 424.956 684.81 376.54 720.973 298.88c18.706 34.48 47.298 59.136 75.16 59.216 37.899 .11 58.777 -44.017 48.971 -99.078C925.834 375.194 900.34 555.21 822.326 637.1 950.621 578.523 996.42 370.181 909.742 214.337z"/></svg>