<svg height="1000" width="1000" xmlns="http://www.w3.org/2000/svg"><path d="M651.212 421.028C616.731 354.605 613.692 296.417 643.56 292.036c7.092 -1.04 14.973 .853 24.052 5.467C649.555 283.36 631.515 275.904 618.419 277.824l.005 .002c-33.784 4.956 -29.16 70.265 9.839 145.39S726.754 554.98 760.535 550.02c11.687 -1.716 18.049 -11.126 20.767 -25.142 -3.255 4.265 -7.518 6.83 -13.12 7.652 -29.867 4.384 -82.488 -45.082 -116.97 -111.503zM901.735 304.837c30.52 -39.762 15.003 -80.423 -13.472 -101.042 -8.393 -6.979 -17.948 -11.513 -27.48 -12.411 -23.196 -4.958 -47.996 2.824 -63.15 30.51 -17.907 32.718 -31.565 55.945 -45.97 74.584C688.591 214.194 614.314 170.44 570.744 195.622a50.845 50.845 0 00-4.2 2.73c-.061 -.077 -.13 -.167 -.19 -.24C400.225 339.506 334.08 349.451 248.176 376.884c-66.623 21.275 -77.596 143.807 -30.42 254.846 -36.67 4.716 -79.268 8.18 -130.146 10.793 -95.797 4.92 -49.812 139.527 58.7 101.781 -96.26 58.304 7.52 169.527 52.586 91.18 23.613 -41.053 50.29 -76.201 79.509 -106.826 74.756 86.311 182.019 134.197 219.629 81.464 58.81 -82.466 177.505 -133.306 315.288 -180.138l.002 -.003a92.725 92.725 0 00-.778 -1.75 50.382 50.382 0 006.002 -2.938c41.187 -23.805 42.804 -102.2 9.369 -191.646 22.413 -4.353 47.533 -6.317 83.965 -7.042 100.725 -2.003 88.32 -144.615 -10.145 -121.77zm-106.224 290.12a43.786 43.786 0 01-2.439 1.827c-.145 .102 -.289 .204 -.433 .304a41.388 41.388 0 01-2.64 1.674C745.133 624.693 661.8 564.289 603.872 463.845S535.355 260.953 580.222 235.02a43.656 43.656 0 011.992 -1.078 41.793 41.793 0 011.597 -.76c.127 -.058 .253 -.122 .382 -.18a43.881 43.881 0 011.993 -.826c.002 0 .002 -.002 .003 -.002a44.777 44.777 0 012.057 -.738c37.096 -12.3 94.121 23.294 143.435 86.757a1074.807 1074.807 0 01-9.72 9.53c-13.83 11.745 -30.13 22.553 -51.457 34.866 -20.596 34.647 25.185 104.718 60.214 104.718 28.19 -11.886 48.907 -20.419 68.778 -26.524 25.158 69.74 24.835 130.863 -3.987 154.175z"/></svg>