<svg height="1000" width="1000" xmlns="http://www.w3.org/2000/svg"><path d="M655.543 547.34c7.013 -33.903 -2.26 -70.066 -28.022 -95.83C596.26 420.247 549.706 413.28 510.444 430.208l-29.305 -29.092c8.893 -21.397 8.399 -44.178 -8.481 -61.057l-71.71 -71.717c-19.092 -19.093 -42.19 -21.67 -63.355 -14.414l-53.486 -53.49c7.79 -20.627 6.681 -42.26 -9.514 -58.455l-71.71 -71.712C183.621 51.008 160.277 48.55 138.957 56.049L101.04 18.132H19.047v37.581l61.656 61.026c-6.873 21.482 -4.374 44.44 13.45 62.266l71.71 71.71c16.705 16.706 38.374 17.858 58.86 9.926l54.074 54.077c-6.91 21.508 -4.429 44.508 13.423 62.358l71.71 71.714c17.667 17.67 40.885 17.945 62.384 8.47l27.516 27.316c-19.26 40.083 -12.912 88.835 19.44 121.19 22.185 22.185 52.08 32.126 81.606 29.987l.128 .39c.662 -.2 1.37 -.385 2.047 -.58a109.564 109.564 0 0026.022 -5.664c60.313 -9.75 152.235 -5.194 212.16 25.813 73.107 37.825 104.413 114.56 69.896 171.318 -33.402 54.922 -115.331 71.26 -187.73 24.433l52.061 -23.715L595.008 766.997l17.803 42.903 45.046 135.399 217.486 -10.35 15.536 -55.237 54.37 -15.538 11.22 -217.487L655.543 547.344zm-144.649 20.8C499.45 556.694 494.371 541.24 495.565 526.01l22.09 21.93c30.542 30.32 85.297 -25.892 55.688 -55.287l-19.126 -18.988c13.062 .497 25.85 5.635 35.682 15.468 11.314 11.316 16.414 26.552 15.374 41.613a56.071 56.071 0 01-1.445 9.304c-.041 .17 -.078 .34 -.12 .51a53.13 53.13 0 01-.471 1.716c-.074 .26 -.144 .519 -.221 .777 -.158 .523 -.331 1.044 -.504 1.564 -.101 .304 -.2 .607 -.305 .908a53.833 53.833 0 01-.544 1.463c-.126 .328 -.251 .657 -.384 .983a56.381 56.381 0 01-.586 1.384 54.408 54.408 0 01-1.63 3.414 51.176 51.176 0 01-1.29 2.345c-.23 .394 -.46 .79 -.7 1.179a54.24 54.24 0 01-.712 1.122c-.24 .372 -.48 .745 -.73 1.114 -.263 .387 -.538 .769 -.811 1.15 -.248 .346 -.492 .696 -.75 1.038 -.301 .403 -.617 .798 -.93 1.194 -.249 .314 -.49 .63 -.746 .94 -.37 .445 -.754 .88 -1.137 1.318 -.22 .25 -.43 .506 -.656 .752a58.582 58.582 0 01-1.913 2.01c-.8 .8 -1.626 1.566 -2.462 2.31 -.25 .223 -.509 .438 -.764 .658a55.908 55.908 0 01-1.859 1.536c-.274 .215 -.547 .432 -.822 .642a56.133 56.133 0 01-2.202 1.594c-.159 .11 -.314 .225 -.473 .333a55.893 55.893 0 01-2.78 1.755c-.204 .122 -.415 .235 -.622 .353a58.8 58.8 0 01-2.268 1.24 57.024 57.024 0 01-3.173 1.516c-.192 .085 -.384 .175 -.576 .258a55.97 55.97 0 01-3.093 1.22c-.002 0 -.005 .003 -.007 .003a55.175 55.175 0 01-3.065 .993c-.2 .058 -.401 .114 -.602 .17a56.02 56.02 0 01-2.683 .691c-.165 .037 -.33 .078 -.494 .116a55.584 55.584 0 01-6.547 1.05c-.073 .006 -.147 .01 -.219 .019a56.09 56.09 0 01-3.429 .22 55.11 55.11 0 01-9.959 -.568c-.075 -.012 -.15 -.022 -.225 -.034a54.367 54.367 0 01-3.238 -.594c-9.662 -2.092 -18.793 -6.835 -26.232 -14.272z"/></svg>