<svg height="1000" width="1000" xmlns="http://www.w3.org/2000/svg"><path d="M822.86 855.121V44.148H170.322V855.12h-14.889l59.542 113.2 59.542 -113.2h-33.589V731.31h76.302v123.812h-13.917l59.542 113.2 59.541 -113.2h-34.561V731.31h71.747v123.812h-11.117l59.541 113.2 59.542 -113.2h-36.218V731.31h77.438v123.812H595.18l59.542 113.2 59.542 -113.2h-34.889V731.31h72.883v123.812H740.33l59.542 113.2 59.542 -113.2h-36.552zM387.833 318.067h71.747v135.744h-71.747V318.067zM317.23 453.811h-76.302V318.067h76.302v135.744zM531.328 318.067h77.438v135.744h-77.438V318.067zm148.044 0h72.883v135.744h-72.883V318.067zm72.882 -203.956v133.107H679.37V114.11h72.883zm-143.487 0v133.107h-77.438V114.11h77.438zm-149.186 0v133.107h-71.747V114.11h71.747zm-142.351 0v133.107h-76.302V114.11h76.302zM240.927 660.45v-135.79h76.302v135.79h-76.302zm146.907 0v-135.79h71.747v135.79h-71.747zm143.494 0v-135.79h77.438v135.79h-77.438zm148.044 0v-135.79h72.883v135.79h-72.883z"/></svg>