<svg height="1000" width="1000" xmlns="http://www.w3.org/2000/svg"><path d="M399.614 449.091L183.761 729.578c3.152 13.306 6.545 24.404 10.414 33.844 -64.35 25.275 -110.006 123.026 -67.764 178.58 33.681 23.275 51.419 9.559 68.345 1.438C181.853 903.954 161.39 858.234 249.381 816.446c7.428 3.08 15.667 6.036 24.896 9.127l298.5 -245.8 -14.647 11.391C467.197 586.998 412.064 533.315 399.613 449.091zM615.13 106.455c-29.442 33.31 -47.445 76.958 -47.868 124.806l-.008 -.008 -153.85 199.926c10.527 87.96 66.152 144.292 159.405 148.566L761.765 424.15c55.452 -.964 105.14 -25.535 139.451 -64.1l-2.002 1.935C747.42 357.954 637.424 296.34 615.13 106.455zm-67.825 371.732l-28.39 -25.703 61.312 -67.723 28.39 25.703 -61.312 67.723zM758.341 41.844c-49.767 .01 -95.082 19.044 -129.085 50.219 21.992 189.38 131.012 251.477 281.706 256.115 24.204 -32.03 38.562 -71.917 38.554 -115.158 0 -.026 0 -.051 0 -.077C949.495 127.381 863.903 41.823 758.341 41.844z"/></svg>