<svg height="1000" width="1000" xmlns="http://www.w3.org/2000/svg"><path d="M904.77 420.882v-124.5h-49.493C821.398 234.679 793.58 147.612 717.577 102.694 630.451 104.39 550.388 203.129 467.984 237.883 435.948 200.932 385.03 172.576 311.99 179.386c-70.914 6.601 -107.66 60.48 -139.69 116.997H62.4v124.5h33.184l75.732 286.373a86.293 86.293 0 00-15.32 -1.388c-51.69 0 -93.596 45.834 -93.596 102.372s41.905 102.371 93.597 102.371c51.65 0 93.527 -45.76 93.593 -102.236h122.873c.066 56.477 41.944 102.236 93.593 102.236s93.528 -45.76 93.594 -102.236h231.187l9.219 -44.01H904.77V676.62h-86.338L872 420.884h32.771z"/></svg>