<svg height="1000" width="1000" xmlns="http://www.w3.org/2000/svg"><path d="M656.947 236.573l-33.896 21.015L603.11 387.58l-.017 .056 74.745 -115.378zM536.744 407.641L383.29 356.907l-42.571 26.272 28.039 33.745zM403.615 152.638c6.227 -3.473 11.46 -8.41 15.108 -14.728 12.64 -21.897 1.508 -51.992 -24.862 -67.22s-57.995 -9.823 -70.634 12.075c-3.648 6.32 -5.305 13.323 -5.198 20.453C227.648 62.7 129.456 53.286 50.64 91.658c205.145 59.005 375.167 165.795 523.315 302.311C553.185 298.772 486.986 212.56 403.615 152.637zM269.89 200.513L50.41 580.88c16.278 26.79 40.23 48.515 81.009 46.802l219.48 -380.368c-24.95 -17.927 -52.075 -33.39 -81.01 -46.802zm520.442 177.402l-353.121 109.02L354.686 648.52 776.9 955.144 949.586 464.85z"/></svg>