<svg height="1000" width="1000" xmlns="http://www.w3.org/2000/svg"><path d="M644.507 169.384c-22.092 -18.132 -48.14 -31.59 -78.708 -39.607A84.29 84.29 0 00545.082 111.39C525.609 71.14 500.576 30.265 500.576 30.265s-25.01 40.845 -44.48 81.078a84.18 84.18 0 00-18.068 15.23c-36.299 7.255 -66.62 21.721 -91.838 42.219C158.17 137.912 -11.102 326.818 48.8 525.91c24.095 80.072 142.06 131.486 203.312 97.941 -115.453 .19 -149.752 -125.228 -114.05 -212.22 22.82 -55.607 62.848 -87.008 118.213 -87.327 -18.34 68.735 -24.9 150.518 -24.9 238.29h137.648c-3.29 23.433 -4.732 48.838 -4.915 75.414 -3.195 28.732 17.473 148.916 17.473 148.916s58.973 -97.518 69.682 -129.236c12.002 46.805 44.502 133.908 44.502 133.908s32.18 -86.26 44.322 -133.225c11.311 32.414 69.448 128.552 69.448 128.552s21.298 -123.84 17.313 -150.156c-.219 -26.126 -1.664 -51.106 -4.903 -74.175H758.57c0 -87.755 -6.557 -169.528 -24.888 -238.255 57.538 -1.275 99.006 30.293 122.398 87.291 35.7 86.993 1.403 212.413 -114.05 212.221 61.25 33.545 179.216 -17.869 203.31 -97.94C1005.61 325.601 833.897 135.608 644.507 169.383zM374.686 352c17.34 18.433 41.978 31.625 76.359 37.518 0 .049 .003 .097 .003 .145 0 26.222 -21.258 47.477 -47.475 47.477S356.1 415.886 356.1 389.664c0 -15.348 7.29 -28.985 18.587 -37.662zm267.582 37.663c-.002 26.221 -21.258 47.476 -47.475 47.476S547.32 415.885 547.32 389.664c0 -.6 .022 -1.19 .046 -1.784 32.049 -6.95 54.967 -20.724 71.05 -39.388a47.606 47.606 0 019.44 7.12l.025 .093c.017 -.008 .031 -.017 .047 -.025 8.842 8.621 14.34 20.657 14.34 33.984zm-419.41 486.372c-23.028 85.932 95.813 112.132 117.43 31.465 8.686 -32.429 -7.86 -205.535 -7.86 -205.535s-100.883 141.636 -109.57 174.07zm431.945 -174.07s-16.547 173.106 -7.86 205.535c21.617 80.667 140.457 54.467 117.43 -31.465 -8.69 -32.433 -109.57 -174.07 -109.57 -174.07zm-108.965 46.261s-32.034 124.442 -29.43 149.119c6.476 61.374 96.24 55.946 89.34 -9.43C603.15 863.24 545.838 748.226 545.838 748.226zm-160.89 139.688c-6.9 65.379 82.863 70.805 89.34 9.43 2.601 -24.676 -29.43 -149.118 -29.43 -149.118s-57.31 115.014 -59.91 139.688z"/></svg>