<svg height="1000" width="1000" xmlns="http://www.w3.org/2000/svg"><path d="M968.57 432.502L773.534 358.707 807.145 152.9l-196.84 68.837L503.761 42.478 397.22 221.739 200.38 152.901l33.61 205.806L38.955 432.5 196.99 568.553 95.016 750.45l208.513 2.637 38.806 204.888L503.76 825.965l161.424 132.012L703.99 753.088l208.513 -2.64L810.534 568.553 968.57 432.503zm-453.814 364.18c-155.537 0 -281.62 -126.088 -281.62 -281.624 0 -155.532 126.083 -281.62 281.62 -281.62 72.751 0 139.055 27.59 189.03 72.871 -17.199 -6.688 -35.384 -11.365 -54.236 -13.272 -7.472 -.765 -15.182 0 -22.854 0 -122.79 0 -221.856 99.061 -221.856 221.853s99.066 221.853 221.856 221.853c28.128 0 54.985 -5.599 79.729 -15.374 -50.27 46.724 -117.625 75.313 -191.669 75.313z"/></svg>