<svg height="1000" width="1000" xmlns="http://www.w3.org/2000/svg"><path d="M63.158 813.018v-.002zM677.243 375.02L889.706 152.608l-.978 -1.172 52.676 -53.918 -16.64 -16.64 -36.17 31.11L822.76 47.6c-11.017 .656 -20.716 3.357 -23.15 17.362l30.399 36.18L367.744 478.06c-.003 0 -.007 -.002 -.008 -.002 -22.042 -.543 -32.715 14.972 -36.17 22.426 -18.154 39.155 -29.29 81.175 -52.45 120.819C208.662 685.96 119.29 746.117 63.157 813.018c33.695 46.455 79.579 86.815 119.375 130.221 16.107 -.982 25.112 -19.02 36.895 -30.386C271.564 814.4 309.515 724.86 370.627 633.603c31.25 -20.083 71.472 -39.399 70.9 -62.2 25.321 3.487 45.963 13.99 54.969 41.957 -11.056 54.194 4.848 76.418 13.021 107.793l86.813 -20.256C569.692 656.17 564.55 591.175 553.648 531.604L664.29 439.63c69.21 50.928 141.137 97.185 224.839 123.264l18.084 -47.748C827.688 488.39 730.116 431.277 677.243 375.02zM443.428 530.572L403.269 486.23s-.001 0 -.001 0l-.002 -.002 9.15 -7.648L618.783 305.77l33.749 48.092 -46.503 38.918 -.166 -.131L443.428 530.572z"/></svg>