<svg height="1000" width="1000" xmlns="http://www.w3.org/2000/svg"><path d="M178.668 478.451zM674.731 36.401c-79.411 76.767 12.725 198.331 85.043 110.963C834.096 286.5 772.826 403.72 602.98 300.91c10.008 -20.866 15.735 -45.075 15.735 -70.893 0 -78.482 -52.908 -142.1 -118.177 -142.1s-118.178 63.622 -118.178 142.1c0 25.265 5.492 48.984 15.105 69.543C225.934 404.735 163.808 287.102 238.453 147.364c72.318 87.37 164.452 -34.195 85.043 -110.962C30.397 115.552 -82.248 387.146 180.801 478.452h-2.132c1.236 .165 2.462 .36 3.692 .544 17.562 6.015 36.79 11.226 57.724 15.533 97.995 38.558 168.879 131.871 174.63 223.042C349.379 762.608 298.747 840.089 298.747 840.089l51.26 75.437 -80.374 45.777h159.825C350.63 882.459 406.568 793.765 499.939 793.765c94.652 0 144.168 93.84 70.481 167.538h158.176L649.87 915.526l51.261 -75.437S649.685 761.354 583.587 716.486c6.242 -90.827 76.951 -183.554 174.562 -221.96 20.932 -4.309 40.157 -9.519 57.716 -15.533 1.23 -.184 2.458 -.377 3.693 -.545h-2.133C1080.473 387.145 967.829 115.552 674.729 36.401z"/></svg>