<svg height="1000" width="1000" xmlns="http://www.w3.org/2000/svg"><path d="M672.179 78.727c-79.582 60.18 12.754 155.477 85.228 86.987 71.964 105.381 17.083 194.73 -140.23 127.967a268.925 268.925 0 00-14.68 -14.545c3.532 -12.768 5.464 -26.381 5.464 -40.532 0 -72.452 -50.046 -131.179 -111.787 -131.179S384.386 166.16 384.386 238.605c0 14.15 1.933 27.768 5.467 40.537a269.417 269.417 0 00-14.674 14.54C217.868 360.442 162.989 271.095 234.953 165.714c72.474 68.49 164.812 -26.806 85.228 -86.987C-8.346 148.126 -110.657 406.237 287.02 444.258c-25.64 68.284 -41.349 146.146 -43.392 222.727 -69.582 64.357 -116.125 129.35 -116.125 129.35l93.027 93.047 -76.75 51.175h220.944C221.658 797.465 323.18 736.769 492.636 736.769c171.781 0 261.647 70.034 127.917 203.788h223.27l-79.075 -51.175 93.027 -93.047S814.442 735.825 748.892 673.76C747.624 595.008 731.733 514.555 705.339 444.256c397.676 -38.02 295.364 -296.13 -33.161 -365.53z"/></svg>