<svg height="1000" width="1000" xmlns="http://www.w3.org/2000/svg"><path d="M876.31 170.686C817.95 76.302 746.226 14.866 716.113 33.454c-3.841 2.37 -6.814 5.937 -8.967 10.538C600.475 240.805 450.177 343.909 278.19 450.736c-68.027 4.006 -112.05 44.732 -128.285 90.797l-45.606 -45.515c-1.48 21.754 13.675 46.56 41.2 61.158a121.057 121.057 0 00-1.5 8.476h-.001v.002C66.085 621.734 -6.272 753.556 58.292 907.66c57.786 137.933 286.542 63.16 224.652 -44.851C253.625 811.646 225.919 759.344 240.078 711.427c82.685 38.45 163.35 -26.388 146.907 -107.79a703.938 703.938 0 0116.533 -5.178c.875 -16.132 1.573 -32.478 .645 -48.178C559.921 458.055 712.296 385.391 911.349 378.36c6.171 .638 11.604 -.341 16.102 -3.117 30.112 -18.59 7.214 -110.18 -51.142 -204.554z"/></svg>