<svg height="1000" width="1000" xmlns="http://www.w3.org/2000/svg"><path d="M928.841 334.088l24.07 -24.08L739.692 96.788l-24.073 24.074 57.775 93.552 -49.788 49.788 40.338 40.34 -63.915 -16.766 -21.456 21.457 41.02 41.026 -64.994 -17.05 -21.06 21.058 41.702 41.705 -66.073 -17.334L498.2 489.607 222.46 213.87l58.348 -92.987L256.736 96.82 43.513 310.038l24.073 24.08 93.55 -57.784 46.106 46.106 40.93 -40.93 -17.015 64.845 21.117 21.117 41.613 -41.611 -17.299 65.925 20.716 20.717 42.299 -42.295 -17.584 67.01 114.284 114.284L171.527 816.278l-42.031 104.128L233.422 878.17 498.198 613.397l264.804 264.804 104.129 42.032L824.89 816.3 560.09 551.503l275.761 -275.76z"/></svg>