<svg height="1000" width="1000" xmlns="http://www.w3.org/2000/svg"><path d="M671.438 176.097C656.535 92.886 584.549 32.029 499.992 31.245c-97.083 .907 -175.048 80.318 -174.142 177.401 .784 84.534 61.642 156.544 144.852 171.422v95.22c-62.451 17.01 -99.289 81.422 -82.28 143.872 10.908 40.073 42.207 71.347 82.28 82.28v97.033c-45.515 16.888 -68.725 67.451 -51.838 112.966 12.622 34.019 44.853 56.788 81.152 57.328 48.53 -.687 87.304 -40.613 86.617 -89.143 -.514 -36.299 -23.284 -68.529 -57.328 -81.152v-97.966c62.451 -17.01 99.29 -81.421 82.28 -143.871 -10.908 -40.073 -42.207 -71.348 -82.28 -82.28v-94.288c95.563 -17.083 159.19 -108.383 142.133 -203.97zM499.99 324.209C435.26 325.655 381.608 274.38 380.163 209.65 378.717 145.043 429.87 91.415 494.501 89.847a102.905 102.905 0 015.49 0c64.73 0 117.181 52.475 117.181 117.181S564.697 324.21 499.991 324.21z"/></svg>