<svg height="1000" width="1000" xmlns="http://www.w3.org/2000/svg"><path d="M590.118 411.987c15.128 -1.146 27.053 -13.755 27.053 -29.177V207.028c0 -16.176 -13.112 -29.289 -29.289 -29.289h-29.289V60.533c0 -16.176 -13.112 -29.288 -29.289 -29.288h-58.602c-16.177 0 -29.29 13.137 -29.29 29.288V177.74H412.1c-16.177 0 -29.29 13.113 -29.29 29.29v175.783c0 15.425 11.93 28.034 27.063 29.177C309.33 588.015 207.027 638.014 207.027 705.066c0 175.784 142.254 263.676 292.965 263.676S792.957 880.85 792.957 705.066c0 -67.034 -102.29 -117.044 -202.837 -293.08zM499.99 880.872c-87.966 0 -175.784 -87.892 -175.784 -175.784 0 -29.313 146.495 -175.783 175.784 -263.676C529.28 529.305 675.775 675.8 675.775 705.088c0 87.893 -87.966 175.784 -175.784 175.784z"/></svg>