<svg height="1000" width="1000" xmlns="http://www.w3.org/2000/svg"><path d="M498.85 260.608C287.858 260.608 -25.674 73.307 24 524.481h.002C41.766 685.844 179.184 775.835 299.04 733.524 363.334 710.828 443.557 560.096 498.852 560.096S634.37 710.83 698.664 733.524C818.517 775.832 953.537 685.48 973.703 524.481 1030.365 72.046 703.36 260.608 498.85 260.608zm-358.473 153.75c84.625 -83.485 169.254 -76.479 253.88 0 -84.626 106.606 -211.567 72.234 -253.88 0zm453.695 0c84.627 -76.479 169.254 -83.485 253.88 0 -42.313 72.234 -169.255 106.606 -253.88 0z"/></svg>