<svg height="1000" width="1000" xmlns="http://www.w3.org/2000/svg"><path d="M882.034 99.405C619.767 70.097 -84.22 510.567 119.707 757.585 224.96 885.09 350.94 886.067 470.159 820.576l104.114 110.09c0 .003 0 .007 0 .01l.008 -.007c47.007 4.146 77.487 -12.478 82.496 -65.571L587.388 733.963C777.417 557.646 920.934 247.15 882.034 99.403zM764.078 248.902c26.027 0 47.126 18.711 47.126 41.791s-21.098 41.791 -47.126 41.791c-26.027 0 -47.126 -18.71 -47.126 -41.79s21.1 -41.792 47.126 -41.792zm-72.464 142.641c26.028 0 47.126 18.711 47.126 41.791s-21.097 41.791 -47.126 41.791c-26.027 0 -47.126 -18.71 -47.126 -41.79s21.1 -41.792 47.126 -41.792zm-94.251 115.855c26.027 0 47.126 18.71 47.126 41.79S623.39 590.98 597.363 590.98s-47.127 -18.71 -47.127 -41.79 21.1 -41.791 47.127 -41.791zM317.87 794.33c-26.027 0 -47.127 -18.71 -47.127 -41.79s21.1 -41.791 47.127 -41.791c26.028 0 47.126 18.71 47.126 41.79s-21.1 41.791 -47.126 41.791zm8.925 -252.853c-30.958 0 -56.052 -22.255 -56.052 -49.706s25.097 -49.706 56.052 -49.706c30.958 0 56.052 22.255 56.052 49.706s-25.095 49.706 -56.052 49.706z"/></svg>