<svg height="1000" width="1000" xmlns="http://www.w3.org/2000/svg"><path d="M500.054 35.99C245.096 35.99 38.41 242.678 38.41 497.636s206.686 461.644 461.644 461.644S961.7 752.593 961.7 497.635 755.013 35.99 500.054 35.99zm165.493 640.26c-81.802 146.005 -214.483 132.066 -313.179 3.06 -34.447 55.4 -123.827 97.808 -191.06 87.324C118.276 712.897 87.743 648.734 74.096 578.528c45.645 44.262 125.836 59.087 166.337 -5.665 63.219 95.03 196.082 100.685 273.911 -9.86 46.536 66.499 167.927 126.112 257.044 -21.402 39.917 79.442 116.127 53.23 161.6 1.362C923.882 626.1 891.354 702.19 842.118 764.479c-66.733 37.568 -116.124 15.798 -176.57 -88.228zM500.843 60.309c240.122 0 434.782 194.658 434.782 434.78 0 9.032 -.309 17.992 -.852 26.888C874.066 538.918 800.706 495.007 766.596 436.72c-92.893 129.007 -175.26 142.946 -252.252 -3.059 -72.15 131.93 -203.473 142.879 -267.837 39.185C180.185 563.28 135.272 574.726 67.28 527.713a440.99 440.99 0 01-1.216 -32.624c0 -240.121 194.658 -434.78 434.78 -434.78zM219.215 826.299c47.652 16.748 100.012 10.432 128.062 -42.114 94.688 147.514 268.83 87.902 318.271 21.403 34.129 38.963 74.614 40.67 114.565 22.707C704.568 891.678 607.174 929.867 500.846 929.867c-107.439 0 -205.757 -38.992 -281.63 -103.568z"/></svg>