<svg height="1000" width="1000" xmlns="http://www.w3.org/2000/svg"><path d="M938.52 532.06C894.4 484.787 832.09 473.528 806.886 557.65c58.863 -39.174 118.503 52.305 66.104 92.788 -42.8 33.07 -119.98 37.287 -168.6 10.698C644.35 628.307 599.568 587.441 567.592 531.432c111.27 26.675 233.17 -2.12 278.825 -88.445C970.449 208.455 722.694 51.022 624.106 205.369c-34.81 54.494 -19.144 119.948 68.55 115.25 -56.76 -42.173 -3.71 -124.024 52.092 -88.382 45.586 29.117 43.888 101.166 19.037 150.698 -29.562 58.928 -118.104 98.931 -185.353 48.14C511.9 304.88 560.067 114.082 367.618 51.669 83.9 -40.348 -12.356 394.111 333.131 452.54c.003 .005 .007 .008 .01 .013 -57.543 1.026 -108.015 15.812 -178.959 50.647C-37.424 597.285 1.302 902.774 196.705 869.69c67.23 -11.385 99.864 -98.175 1.712 -127.52 32.204 57.737 -54.55 91.848 -81.727 3.783C94.731 674.799 157.92 599.879 219 580.212c59.474 -19.151 107.732 -21.158 160.823 -11.374 -71.34 66.783 -110.254 156.866 -82.62 241.027 86.815 264.4 374.665 160.948 317.529 -13.06 -20.175 -61.438 -80.769 -90.726 -132.62 -19.848 68.568 -17.262 98.38 75.61 35.472 96.265 -51.39 16.876 -117.39 -26.377 -128.737 -80.616 -15.248 -72.895 38.5 -150.542 106.751 -185.758 43.243 68.978 75.728 94.91 162.326 140.744C825.312 836.184 1073.164 676.34 938.52 532.06z"/></svg>