<svg height="1000" width="1000" xmlns="http://www.w3.org/2000/svg"><path d="M505.128 142.54c-201.856 0 -366.291 175.564 -366.291 393 .002 83.209 23.927 161.496 64.863 225.116C156.04 734.85 109.228 703.604 62.525 665.266v185.457h340.856C309.784 785.874 244.4 690.378 244.4 581.325c0 -145.403 116.761 -263.272 260.729 -263.272s260.728 117.87 260.728 263.272c0 109.05 -65.383 204.55 -158.98 269.398h340.856V665.268c-46.839 38.737 -94.173 70.587 -142.447 96.661 41.525 -63.9 66.137 -142.523 66.137 -226.389C871.422 318.105 706.988 142.541 505.132 142.541h-.004z"/></svg>