<svg height="1000" width="1000" xmlns="http://www.w3.org/2000/svg"><path d="M936.302 530.458h-.003C884.828 481.052 765.363 521.518 662.01 620.18 521.663 416.97 379.48 215.595 209.765 41.754 448.562 407.573 419.794 463.24 63.57 150.56c162.515 202.274 356.921 362.033 561.328 508.456C531.916 765.8 497.175 885.587 548.318 934.673c54.504 52.311 185.83 4.468 292.946 -107.127s149.538 -244.778 95.04 -297.089zM723.11 728.008c-18.982 21.442 -27.298 44.153 -18.598 52.85 9.562 9.563 36.06 -1.432 59.187 -24.559 23.127 -23.129 34.122 -49.625 24.56 -59.187 -9.32 -9.32 -34.718 .889 -57.411 22.82A36575.762 36575.762 0 01706.233 684.28c45.569 -43.956 98.486 -62.017 121.236 -40.183 23.92 22.958 5.503 81.389 -41.508 130.365S680.87 844.707 656.949 821.75c-21.924 -21.04 -7.593 -71.99 31.144 -118.058a7865.123 7865.123 0 0035.016 24.316zm95.083 77.394c-81.963 85.393 -183.225 122.47 -224.927 82.442 -38.9 -37.338 -12.36 -128.686 57.907 -210.107a6437.171 6437.171 0 0021.744 15.33C621.245 753.66 602.246 820.844 631.17 848.61c31.26 30.004 106.584 2.561 168.021 -61.444C860.63 723.161 884.961 646.773 853.7 616.77l.005 -.003c-29.645 -28.453 -98.603 -4.92 -158.049 52.18 -5.065 -7.346 -10.13 -14.69 -15.195 -22.034C759.62 571.168 851.112 540.24 890.563 578.109c41.703 40.031 9.596 141.9 -72.369 227.294zM209.75 41.738l.015 .016 -.01 -.016z"/></svg>