<svg height="1000" width="1000" xmlns="http://www.w3.org/2000/svg"><path d="M171.898 53.126s-7.822 130.294 .428 290.296C103.179 393.157 57.112 482.79 57.4 590.028l141.553 -.365c12.364 68.556 30.001 134.943 56.425 193.958 20.38 45.517 46.185 87.505 83.664 120.895 37.481 33.39 89.372 56.182 144.418 56.182s106.875 -22.793 144.355 -56.182c37.481 -33.39 63.284 -75.38 83.664 -120.895 14.873 -33.217 26.931 -68.767 36.866 -105.723 55.27 -10.815 108.408 -45.246 141.917 -96.827 34.953 -53.797 50.863 -122.174 50.698 -203.89l-148.438 .243c11.363 -175.146 2.438 -324.298 2.438 -324.298l-165.44 9.689s11.256 200.206 -10.36 396.02a1518.703 1518.703 0 01-2.62 22.18c-18.195 -12.758 -36.416 -29.19 -52.953 -49.6C502.251 355.708 420.041 309.214 336.482 301.316c-5.035 -132.851 .853 -238.502 .853 -238.502L171.898 53.126zm177.445 419.968c27.839 9.426 58.218 29.056 85.432 62.64 41.87 51.676 92.28 93.553 147.403 119.129 -6.656 22.537 -13.956 43.173 -21.936 60.997 -14.036 31.346 -29.868 53.45 -42.716 64.895s-19.958 14.198 -34.063 14.198c-14.105 0 -21.276 -2.752 -34.124 -14.198s-28.68 -33.551 -42.716 -64.895C379.917 656.214 360.478 566.035 349.343 473.094z"/></svg>