<svg height="1000" width="1000" xmlns="http://www.w3.org/2000/svg"><path d="M499.993 413.056c60.14 0 150.355 -30.073 150.355 -90.209S620.273 172.492 499.993 52.211C379.713 172.493 349.638 262.701 349.638 322.847s90.226 90.209 150.355 90.209zm156.254 270.625c-30.075 52.086 -49.13 145.241 2.945 175.314 52.084 30.073 145.244 49.14 309.554 5.115C924.716 699.8 861.632 628.66 809.546 598.587S686.324 631.596 656.248 683.68zm-312.497 0C313.675 631.596 242.536 568.514 190.45 598.575 138.367 628.648 75.283 699.79 31.253 864.098c164.309 44.026 257.469 24.96 309.554 -5.114S373.814 735.767 343.75 683.68zm156.243 90.208c-30.075 0 -60.14 30.073 -60.14 60.146s0 60.136 60.14 120.282c60.14 -60.135 60.14 -90.208 60.14 -120.282 .01 -30.073 -30.065 -60.146 -60.14 -60.146zM656.247 503.265c15.033 26.043 56.107 37.05 82.15 22.012S790.48 495.204 812.49 413.056c-82.15 -22.013 -108.191 -6.977 -134.234 8.06 -26.043 15.026 -37.042 56.106 -22.01 82.149zm-312.497 0c15.032 -26.043 4.033 -67.123 -22.01 -82.148 -26.043 -15.038 -52.084 -30.074 -134.234 -8.061 22.01 82.148 48.052 97.185 74.095 112.221 26.031 15.037 67.117 4.03 82.15 -22.012zm276.535 90.202c0 66.439 -53.862 120.275 -120.276 120.275 -66.439 0 -120.275 -53.861 -120.275 -120.275 0 -66.44 53.862 -120.275 120.275 -120.275s120.276 53.86 120.276 120.275z"/></svg>