<svg height="1000" width="1000" xmlns="http://www.w3.org/2000/svg"><path d="M349.281 40.207c-54.7 .232 -105.386 11.334 -130.097 19.074 0 0 224.177 38.041 242.828 192.8C291.66 6.46 105.845 303.509 105.845 303.509 144.585 293.346 255.517 263.18 329.6 275.906c50.68 8.706 100.087 54.656 97.956 54.078C306.77 359.7 114.883 897.26 147.463 940.912c29.057 33.384 58.142 21.99 87.2 5.057C249.045 832.046 361.287 332.199 498.633 372.547c.02 .007 .042 -.006 .061 0 11.562 3.96 22.5 10.903 23.095 21.511 1.132 20.205 -11.913 53.23 -8.835 76.17 7.143 53.225 17.566 71.739 32.722 90.306 36.197 -20.345 70.834 -93.706 77.998 -131.742 32.436 14.204 84.576 47.102 127.111 169.28 22.235 -114.49 -9.834 -204.798 -115.107 -244.9 45.587 -19.706 244.019 80.002 268.238 135.581C927.483 388.54 760.8 265.917 622.03 272.433c26.605 -6.94 55.841 1.17 83.664 -19.317 37.332 -27.49 80.87 -51.166 121.443 -76.595C690.692 117.172 564.777 146.475 555.912 207.902 548.948 71.57 443.153 39.808 349.282 40.206z"/></svg>