<svg height="1000" width="1000" xmlns="http://www.w3.org/2000/svg"><path d="M711.768 730.752c-4.582 -30.725 -28.424 -58.019 -64.318 -78.34C551.869 591.47 535.12 487.802 579.208 419.585c56.212 -16.177 94.633 -48.81 94.633 -86.437 0 -34.226 -31.793 -64.32 -79.846 -81.656 24.63 -24.558 39.892 -58.587 39.892 -96.204C633.887 80.43 573.479 19.742 498.963 19.742S364.038 80.428 364.038 155.288c0 37.61 15.255 71.635 39.879 96.19 -48.072 17.334 -79.879 47.434 -79.879 81.67 0 38.072 39.343 71.031 96.647 87.004 44.818 67.958 25.745 170.347 -72.864 233.216 -34.584 20.195 -57.3 47.287 -61.725 77.416 -62.151 26.303 -101.09 63.965 -101.09 105.8 0 79.501 140.566 143.956 313.963 143.956S812.932 916.092 812.932 836.584c0 -41.853 -38.97 -79.528 -101.164 -105.833z"/></svg>