<svg height="1000" width="1000" xmlns="http://www.w3.org/2000/svg"><path d="M730.234 693.516c142.238 53.295 70.295 210.155 -54.032 209.64 -97.374 -.408 -102.714 -51.043 -169.237 -51.324 -58.587 -.255 -84.097 56.192 -155.661 55.894C220.913 907.183 128.647 751.232 280.98 699.462 480.64 631.612 388.883 514.119 508.313 515.297c116.63 1.148 40.817 110.364 221.918 178.216l.002 .002zM617.783 442.69c101.43 -4.073 101.624 -231.666 -5.057 -227.34 -108.437 4.409 -98.124 231.498 5.057 227.34zm-201.599 3.358c101.093 -8.677 89.13 -236 -17.195 -226.833 -108.07 9.328 -85.64 235.673 17.195 226.833zM260.451 608.112C361.042 595.412 338.422 368.78 232.63 382.174c-107.532 13.628 -74.5 238.866 27.822 225.938zm514.37 3.326c101.503 1.923 117.513 -225.187 10.744 -227.172 -108.518 -2 -114.007 225.226 -10.745 227.172zM201.318 333.875c58.262 -4.87 34.863 -79.064 -12.898 -134.86 -32.61 64.175 -34.39 138.81 12.898 134.86zm605.708 -5.329C748.74 327.8 765.818 251.9 808.634 192.688c37.732 61.907 45.7 136.467 -1.607 135.858zM625.244 173.601C567.41 180.083 577.046 102.284 613.782 37.932c43.335 57.05 58.393 130.41 11.462 135.669zm-231.237 7.146c-57.424 9.041 -51.868 -69.093 -18.535 -135.004 46.265 55.058 65.14 127.665 18.535 135.004z"/></svg>