<svg height="1000" width="1000" xmlns="http://www.w3.org/2000/svg"><path d="M847.207 257.71L549.349 85.41c-27.966 -16.177 -73.306 -16.177 -101.274 0l-297.858 172.3C130.33 269.214 124.6 285.8 133 300.242l349.108 199.335c11.68 1.602 23.917 1.501 35.52 -.329L863.923 301.083c9.122 -14.635 3.56 -31.645 -16.716 -43.372zm-535.913 53.73c-24.333 14.437 -63.783 14.437 -88.114 0 -24.333 -14.438 -24.33 -37.846 0 -52.283 24.333 -14.437 63.783 -14.437 88.114 0 24.333 14.436 24.333 37.844 0 52.282zM543.67 449.317c-24.332 14.437 -63.783 14.437 -88.114 0 -24.332 -14.438 -24.33 -37.845 0 -52.282 24.333 -14.438 63.783 -14.438 88.114 0 24.333 14.437 24.333 37.844 0 52.282zm0 -274.742c-24.332 14.438 -63.783 14.438 -88.114 0 -24.332 -14.437 -24.33 -37.844 0 -52.282 24.333 -14.437 63.783 -14.437 88.114 0 24.333 14.438 24.333 37.845 0 52.282zm231.518 137.372c-24.333 14.437 -63.783 14.437 -88.114 0s-24.33 -37.845 0 -52.282c24.333 -14.438 63.783 -14.438 88.114 0 24.333 14.437 24.331 37.843 0 52.282zm87.211 5.04L526.753 509.063c-7.631 8.958 -14.113 19.438 -18.871 30.374V912.05c9.094 10.374 24.541 11.735 42.07 1.613L836.46 748.216c27.977 -16.156 50.659 -55.443 50.659 -87.751V352.96c0 -21.357 -9.917 -34.308 -24.72 -35.972zM627.877 776.74c.047 26.895 -19.557 60.083 -43.788 74.124s-43.912 3.62 -43.959 -23.275c0 -.063 0 -.127 0 -.19 -.046 -26.896 19.558 -60.082 43.788 -74.124s43.912 -3.621 43.96 23.274c0 .064 0 .127 0 .19zm0 -239.277c.047 26.895 -19.557 60.082 -43.788 74.124s-43.912 3.62 -43.959 -23.275c0 -.063 0 -.127 0 -.19 -.046 -26.895 19.558 -60.083 43.788 -74.124s43.912 -3.62 43.96 23.275c0 .065 0 .128 0 .19zM737.08 593.36c.047 26.896 -19.557 60.083 -43.788 74.124s-43.912 3.621 -43.959 -23.274c0 -.064 0 -.127 0 -.19 -.047 -26.896 19.558 -60.084 43.788 -74.125s43.912 -3.62 43.96 23.275c0 .063 0 .127 0 .19zm109.19 57.291c.047 26.896 -19.557 60.082 -43.788 74.124s-43.912 3.621 -43.959 -23.274c0 -.064 0 -.127 0 -.19 -.046 -26.896 19.558 -60.084 43.788 -74.125s43.912 -3.62 43.96 23.275c0 .063 0 .127 0 .19zm0 -239.277c.047 26.896 -19.557 60.083 -43.788 74.124s-43.912 3.621 -43.959 -23.274c0 -.064 0 -.127 0 -.19 -.046 -26.896 19.558 -60.083 43.788 -74.124 24.23 -14.042 43.912 -3.621 43.96 23.274 0 .063 0 .127 0 .19zM490.617 539.223c-4.861 -11.113 -11.5 -21.75 -19.312 -30.786L136.027 316.999c-14.715 1.739 -24.558 14.676 -24.558 35.959V660.46c0 32.308 22.681 71.595 50.66 87.751l286.508 165.447c17.47 10.088 32.873 8.77 41.98 -1.508V539.224zm-250.55 162.279c-.046 26.895 -19.729 37.316 -43.958 23.274S152.274 677.548 152.32 650.652c0 -.063 0 -.127 0 -.19 .047 -26.896 19.73 -37.317 43.959 -23.275s43.835 47.229 43.788 74.124c0 .066 0 .127 0 .19zm0 -120.33c-.046 26.895 -19.729 37.316 -43.958 23.274S152.274 557.218 152.32 530.322c0 -.063 0 -.127 0 -.19 .047 -26.896 19.73 -37.316 43.959 -23.274s43.835 47.228 43.788 74.123c0 .064 0 .127 0 .19zm0 -118.947c-.046 26.895 -19.729 37.316 -43.958 23.274S152.274 438.271 152.32 411.375c0 -.063 0 -.127 0 -.19 .047 -26.895 19.73 -37.316 43.959 -23.274s43.835 47.228 43.788 74.123c0 .066 0 .13 0 .19zM458.462 827.59c-.047 26.896 -19.73 37.316 -43.96 23.274s-43.834 -47.228 -43.787 -74.123c0 -.064 0 -.127 0 -.19 .047 -26.896 19.73 -37.317 43.959 -23.275s43.835 47.228 43.788 74.124c0 .063 0 .127 0 .19zm0 -120.33c-.047 26.895 -19.73 37.316 -43.96 23.274S370.668 683.306 370.715 656.41c0 -.064 0 -.127 0 -.19 .047 -26.896 19.73 -37.317 43.959 -23.275s43.835 47.228 43.788 74.124c0 .063 0 .127 0 .19zm0 -118.947c-.047 26.896 -19.73 37.317 -43.96 23.275S370.668 564.36 370.715 537.465c0 -.064 0 -.127 0 -.19 .047 -26.896 19.73 -37.317 43.959 -23.275s43.835 47.229 43.788 74.124c0 .063 0 .127 0 .19z"/></svg>