<svg height="1000" width="1000" xmlns="http://www.w3.org/2000/svg"><path d="M859.998 316.824L529.506 505.947c-9.601 10.444 -17.616 23.331 -22.982 36.735v367.684c8.863 11.881 24.993 13.94 43.428 3.295L836.46 748.214c27.977 -16.156 50.659 -55.443 50.659 -87.751V352.96c0 -22.492 -11 -35.657 -27.121 -36.136zM737.08 593.36c.047 26.896 -19.557 60.083 -43.788 74.124s-43.912 3.621 -43.959 -23.274c0 -.064 0 -.127 0 -.19 -.047 -26.896 19.558 -60.084 43.788 -74.125s43.912 -3.62 43.96 23.275c0 .063 0 .127 0 .19zM847.207 257.71L549.349 85.41c-27.966 -16.177 -73.306 -16.177 -101.274 0l-297.858 172.3c-19.897 11.51 -25.623 28.106 -17.207 42.551l349.065 199.311c10.497 1.443 21.443 1.514 31.978 .183l351.18 -200.962C872.44 284.7 866.43 268.83 847.206 257.71zm-535.913 53.73c-24.333 14.437 -63.783 14.437 -88.114 0 -24.333 -14.438 -24.33 -37.846 0 -52.283 24.333 -14.437 63.783 -14.437 88.114 0 24.333 14.436 24.333 37.844 0 52.282zm232.374 .506c-24.333 14.437 -63.783 14.437 -88.114 0 -24.333 -14.438 -24.333 -37.845 0 -52.282s63.783 -14.438 88.114 0c24.332 14.437 24.332 37.844 0 52.282zm231.52 .002c-24.333 14.437 -63.783 14.437 -88.114 0s-24.33 -37.845 0 -52.282c24.333 -14.438 63.783 -14.438 88.114 0 24.333 14.437 24.331 37.843 0 52.282zM489.26 536.205C484.551 526.2 478.421 516.672 471.326 508.461L136.007 317c-14.703 1.749 -24.538 14.685 -24.538 35.958V660.46c0 32.308 22.681 71.595 50.66 87.751l286.508 165.447c16.63 9.604 31.388 8.871 40.622 -.087V536.205zM240.068 701.502c-.047 26.895 -19.73 37.316 -43.96 23.274s-43.834 -47.228 -43.787 -74.124c0 -.063 0 -.127 0 -.19 .047 -26.896 19.73 -37.317 43.959 -23.275s43.835 47.229 43.788 74.124c0 .066 0 .127 0 .19zM458.46 588.314c-.047 26.896 -19.73 37.317 -43.96 23.275S370.668 564.36 370.715 537.465c0 -.064 0 -.127 0 -.19 .047 -26.896 19.73 -37.317 43.959 -23.275s43.835 47.229 43.788 74.124c0 .063 0 .127 0 .19z"/></svg>