<svg height="1000" width="1000" xmlns="http://www.w3.org/2000/svg"><path d="M489.873 540.994h1.508a124.024 124.024 0 00-13.633 -24.386L130.424 318.292c-11.552 4.05 -18.954 16.218 -18.954 34.666V660.46c0 32.308 22.681 71.595 50.66 87.751l286.508 165.447c17.01 9.823 32.05 8.818 41.238 -.73V540.996h-.002zM314.019 757.31l-57.185 -33.016v-59.93l57.185 33.017v59.93zm48.63 -132.524c-4.12 6.265 -11.142 11.523 -21.067 15.781l-10.137 3.742c-7.18 2.813 -11.88 5.711 -14.097 8.696 -2.217 2.873 -3.326 6.834 -3.326 11.883v7.577l-57.185 -33.015v-8.25c0 -9.202 1.742 -16.333 5.227 -21.392 3.484 -5.17 10.824 -10.024 22.017 -14.56l10.137 -3.91c6.02 -2.36 10.401 -5.328 13.146 -8.906 2.852 -3.516 4.278 -7.857 4.278 -13.018 0 -7.856 -2.535 -15.435 -7.604 -22.74 -5.068 -7.415 -12.145 -13.744 -21.226 -18.987 -8.555 -4.939 -17.795 -8.366 -27.72 -10.28 -9.928 -2.028 -20.276 -2.448 -31.048 -1.26v-52.86c12.779 2.664 24.448 5.922 35.007 9.775s20.75 8.613 30.572 14.284c25.767 14.878 45.41 31.829 58.927 50.856 13.517 18.915 20.275 39.09 20.275 60.527 .002 10.994 -2.056 19.681 -6.176 26.057zM847.206 257.71L549.349 85.41c-27.966 -16.177 -73.306 -16.177 -101.274 0l-297.858 172.3c-23.859 13.8 -27.345 34.915 -10.492 50.864l330.556 188.744c18.233 4.556 39.068 4.525 57.265 -.102L858.46 307.851c15.992 -15.861 12.246 -36.55 -11.253 -50.141zm-337.671 67.822l-7.197 -4.032c-8.03 -4.497 -13.154 -9.582 -15.374 -15.251 -2.319 -5.725 -1.932 -14.827 1.16 -27.31l2.97 -11.209c1.73 -6.674 1.899 -12.145 .506 -16.413 -1.272 -4.334 -4.16 -7.762 -8.666 -10.285 -6.854 -3.84 -15.063 -5.22 -24.626 -4.142 -9.66 1.025 -19.637 4.42 -29.931 10.186 -9.694 5.43 -18.501 12.23 -26.423 20.398 -8.018 8.113 -14.9 17.4 -20.646 27.86l-46.12 -25.84c10.37 -10.417 20.558 -19.526 30.568 -27.328s20.58 -14.82 31.71 -21.057c29.202 -16.36 56.359 -26.09 81.47 -29.185 25.012 -3.152 46.87 .512 65.573 10.988 9.596 5.377 15.88 11.51 18.85 18.404 2.873 6.84 3.04 15.852 .506 27.036l-3.117 11.127c-2.067 7.961 -2.497 13.687 -1.29 17.18 1.109 3.437 3.868 6.392 8.274 8.86l6.61 3.702 -64.807 36.312zm74.025 41.471L531.272 337.71 596.08 301.4l52.288 29.294 -64.807 36.308zm283.536 -49.06L521.473 515.726a123.993 123.993 0 00-14.336 25.404v370.007c8.98 11.182 24.793 12.927 42.815 2.522L836.46 748.212c27.977 -16.156 50.659 -55.443 50.659 -87.751v-307.5c0 -19.008 -7.859 -31.356 -20.022 -35.018zM723.35 740.013l-57.185 33.014v-59.93l57.185 -33.016v59.931zm48.63 -188.679c-4.12 11.02 -11.142 24.39 -21.067 40.11l-10.139 15.447c-7.18 11.105 -11.88 19.43 -14.097 24.974 -2.217 5.433 -3.326 10.676 -3.326 15.725v7.576l-57.185 33.014v-8.25c0 -9.202 1.742 -18.345 5.227 -27.427 3.484 -9.195 10.824 -22.523 22.017 -39.984l10.137 -15.616c6.02 -9.311 10.401 -17.34 13.147 -24.088 2.851 -6.81 4.277 -12.795 4.277 -17.958 0 -7.856 -2.535 -12.508 -7.604 -13.959 -5.068 -1.562 -12.145 .28 -21.226 5.523 -8.555 4.94 -17.795 12.18 -27.72 21.73 -9.928 9.435 -20.276 20.965 -31.048 34.591v-52.86c12.779 -12.09 24.448 -22.306 35.007 -30.649 10.56 -8.34 20.75 -15.347 30.572 -21.017 25.767 -14.876 45.41 -20.605 58.927 -17.187 13.517 3.306 20.275 15.678 20.275 37.114 .003 10.997 -2.055 22.061 -6.175 33.192z"/></svg>