<svg height="1000" width="1000" xmlns="http://www.w3.org/2000/svg"><path d="M487.468 537.929h2.578c-3.87 -8.572 -8.785 -16.832 -14.48 -24.258L132.353 317.701c-12.652 3.329 -20.884 15.8 -20.884 35.256v307.502c0 32.308 22.681 71.595 50.66 87.751l286.508 165.447c15.595 9.007 29.54 8.913 38.833 1.48l-.002 -377.208zm-247.4 163.573c-.047 26.895 -19.73 37.316 -43.96 23.274s-43.834 -47.228 -43.787 -74.124c0 -.063 0 -.127 0 -.19 .047 -26.896 19.73 -37.317 43.959 -23.275s43.835 47.229 43.788 74.124c0 .066 0 .127 0 .19zm0 -239.277c-.047 26.895 -19.73 37.316 -43.96 23.274s-43.834 -47.228 -43.787 -74.124c0 -.063 0 -.127 0 -.19 .047 -26.895 19.73 -37.316 43.959 -23.274s43.835 47.228 43.788 74.123c0 .066 0 .13 0 .19zM349.257 644.21c-.047 26.895 -19.73 37.316 -43.959 23.274S261.463 620.257 261.51 593.361c0 -.063 0 -.127 0 -.19 .047 -26.896 19.73 -37.317 43.959 -23.275s43.835 47.229 43.788 74.124a3.094 3.094 0 010 .19zM458.46 827.59c-.047 26.896 -19.73 37.316 -43.96 23.274s-43.834 -47.228 -43.787 -74.123c0 -.064 0 -.127 0 -.19 .047 -26.896 19.73 -37.317 43.959 -23.275s43.835 47.228 43.788 74.124c0 .063 0 .127 0 .19zm0 -239.277c-.047 26.896 -19.73 37.317 -43.96 23.275S370.668 564.36 370.715 537.465c0 -.064 0 -.127 0 -.19 .047 -26.896 19.73 -37.317 43.959 -23.275s43.835 47.229 43.788 74.124c0 .063 0 .127 0 .19zM847.207 257.71L549.349 85.41c-27.966 -16.177 -73.306 -16.177 -101.274 0l-297.858 172.3c-22.077 12.77 -26.71 31.8 -13.931 47.209l338.9 193.507c13.06 2.621 27.17 3 40.527 1.12L864.627 299.88c8.096 -14.356 2.301 -30.762 -17.421 -42.17zM455.557 122.294c24.332 -14.437 63.782 -14.437 88.113 0 24.333 14.438 24.331 37.845 0 52.282 -24.332 14.438 -63.783 14.438 -88.114 0 -24.332 -14.437 -24.332 -37.844 0 -52.282zM311.293 311.44c-24.333 14.438 -63.783 14.438 -88.114 0 -24.333 -14.437 -24.33 -37.845 0 -52.282 24.333 -14.437 63.783 -14.437 88.114 0 24.333 14.436 24.333 37.844 0 52.282zm28.5 69.192c-24.333 -14.437 -24.333 -37.844 0 -52.282s63.783 -14.437 88.114 0c24.333 14.438 24.333 37.845 0 52.282 -24.33 14.439 -63.781 14.439 -88.114 0zm203.876 68.687c-24.332 14.437 -63.783 14.437 -88.114 0 -24.332 -14.438 -24.33 -37.845 0 -52.282 24.333 -14.438 63.783 -14.438 88.114 0 24.333 14.437 24.333 37.844 0 52.282zm27.642 -206.056c-24.333 -14.438 -24.333 -37.845 0 -52.283s63.783 -14.437 88.114 0c24.333 14.438 24.333 37.845 0 52.283 -24.33 14.437 -63.781 14.437 -88.114 0zm203.876 68.686c-24.333 14.437 -63.783 14.437 -88.114 0s-24.33 -37.845 0 -52.282c24.333 -14.438 63.783 -14.438 88.114 0 24.333 14.437 24.331 37.843 0 52.282zm86 4.934L528.1 507.49C518 518.91 509.775 533.016 504.732 547.454v360.182c8.35 14.238 25.457 17.435 45.219 6.022L836.459 748.211c27.977 -16.156 50.659 -55.443 50.659 -87.751v-307.5c0 -21.935 -10.462 -34.997 -25.932 -36.079zM627.877 776.74c.046 26.895 -19.558 60.083 -43.789 74.124s-43.912 3.62 -43.959 -23.275c0 -.063 0 -.127 0 -.19 -.046 -26.896 19.558 -60.082 43.788 -74.124s43.912 -3.621 43.96 23.274c0 .064 0 .127 0 .19zm0 -239.277c.046 26.895 -19.558 60.082 -43.789 74.124s-43.912 3.62 -43.959 -23.275c0 -.063 0 -.127 0 -.19 -.046 -26.895 19.558 -60.083 43.788 -74.124s43.912 -3.62 43.96 23.275c0 .065 0 .128 0 .19zm218.392 113.19c.047 26.895 -19.557 60.081 -43.788 74.123s-43.912 3.621 -43.959 -23.274c0 -.064 0 -.127 0 -.19 -.046 -26.896 19.558 -60.084 43.788 -74.125s43.912 -3.62 43.96 23.275c0 .063 0 .127 0 .19zm0 -239.278c.047 26.896 -19.557 60.083 -43.788 74.124s-43.912 3.621 -43.959 -23.274c0 -.064 0 -.127 0 -.19 -.046 -26.896 19.558 -60.083 43.788 -74.124 24.23 -14.042 43.912 -3.621 43.96 23.274 0 .063 0 .127 0 .19z"/></svg>