<svg height="1000" width="1000" xmlns="http://www.w3.org/2000/svg"><path d="M492.118 542.799c-4.161 -10.43 -9.925 -20.555 -16.803 -29.458L150.525 318.573c-22.384 -6.866 -39.056 6.69 -39.056 34.385V660.46c0 32.308 22.681 71.595 50.66 87.751l286.508 165.447c18.474 10.667 34.632 8.576 43.482 -3.374V542.8h-.002zM349.257 644.21c-.047 26.895 -19.73 37.316 -43.959 23.274S261.463 620.257 261.51 593.361c0 -.063 0 -.127 0 -.19 .047 -26.896 19.73 -37.317 43.959 -23.275s43.835 47.229 43.788 74.124a3.094 3.094 0 010 .19zM847.207 257.71L549.349 85.41c-27.966 -16.177 -73.306 -16.177 -101.274 0l-297.858 172.3c-14.37 8.313 -21.335 19.279 -20.938 30.173l353.067 211.724c11.519 1.554 23.57 1.46 35.012 -.319L857.925 308.366c16.6 -15.925 13.036 -36.915 -10.72 -50.656zM543.67 449.318c-24.332 14.437 -63.783 14.437 -88.114 0 -24.332 -14.438 -24.33 -37.845 0 -52.282 24.333 -14.438 63.783 -14.438 88.114 0 24.333 14.437 24.333 37.844 0 52.282zm0 -274.742c-24.332 14.438 -63.783 14.438 -88.114 0 -24.332 -14.437 -24.33 -37.844 0 -52.282 24.333 -14.437 63.783 -14.437 88.114 0 24.333 14.438 24.333 37.845 0 52.282zM870.224 319.12l-347.322 194.71c-9.411 12.312 -16.705 26.89 -20.562 41.39v347.457c7.08 18.36 25.724 23.623 47.61 10.983L836.46 748.212c27.977 -16.156 50.659 -55.443 50.659 -87.751V352.959c0 -17.327 -6.528 -29.117 -16.894 -33.842zm-242.347 457.62c.047 26.896 -19.557 60.084 -43.788 74.125s-43.912 3.62 -43.959 -23.275c0 -.063 0 -.127 0 -.19 -.046 -26.896 19.558 -60.082 43.788 -74.124s43.912 -3.621 43.96 23.274c0 .064 0 .127 0 .19zM737.08 593.362c.047 26.896 -19.557 60.083 -43.788 74.124s-43.912 3.621 -43.959 -23.274c0 -.064 0 -.127 0 -.19 -.047 -26.896 19.558 -60.084 43.788 -74.125s43.912 -3.62 43.96 23.275c0 .063 0 .127 0 .19zM846.27 411.375c.047 26.896 -19.557 60.083 -43.788 74.124s-43.912 3.621 -43.959 -23.274c0 -.064 0 -.127 0 -.19 -.046 -26.896 19.558 -60.083 43.788 -74.124 24.23 -14.042 43.912 -3.621 43.96 23.274 0 .063 0 .127 0 .19z"/></svg>