<svg height="1000" width="1000" xmlns="http://www.w3.org/2000/svg"><path d="M847.207 257.71L549.349 85.41c-27.966 -16.177 -73.306 -16.177 -101.274 0l-297.858 172.3c-21.998 12.725 -26.68 31.667 -14.07 47.047l339.226 193.692c17.538 3.488 36.943 2.942 53.876 -1.675l327.758 -187.56c17.634 -16.02 14.38 -37.518 -9.801 -51.505zm-535.913 53.73c-24.333 14.437 -63.783 14.437 -88.114 0 -24.333 -14.438 -24.33 -37.846 0 -52.283 24.333 -14.437 63.783 -14.437 88.114 0 24.333 14.436 24.333 37.844 0 52.282zM543.67 449.317c-24.332 14.437 -63.783 14.437 -88.114 0 -24.332 -14.438 -24.33 -37.845 0 -52.282 24.333 -14.438 63.783 -14.438 88.114 0 24.333 14.437 24.333 37.844 0 52.282zM455.554 259.664c24.332 -14.438 63.783 -14.438 88.114 0 24.332 14.437 24.332 37.844 0 52.282s-63.783 14.437 -88.114 0c-24.333 -14.438 -24.333 -37.845 0 -52.282zm88.116 -85.088c-24.332 14.438 -63.783 14.438 -88.114 0 -24.332 -14.437 -24.33 -37.844 0 -52.282 24.333 -14.437 63.783 -14.437 88.114 0 24.333 14.438 24.333 37.845 0 52.282zm231.518 137.372c-24.333 14.437 -63.783 14.437 -88.114 0s-24.33 -37.845 0 -52.282c24.333 -14.438 63.783 -14.438 88.114 0 24.333 14.437 24.331 37.843 0 52.282zm92.501 6.19L520.827 516.63a124.174 124.174 0 00-13.356 23.742h1.687v373.024c9.223 9.119 24.058 9.927 40.793 .264L836.459 748.213c27.977 -16.156 50.659 -55.443 50.659 -87.751V352.96c0 -18.697 -7.607 -30.94 -19.429 -34.823zM627.877 776.74c.047 26.895 -19.557 60.083 -43.788 74.124s-43.912 3.62 -43.959 -23.275c0 -.063 0 -.127 0 -.19 -.046 -26.896 19.558 -60.082 43.788 -74.124s43.912 -3.621 43.96 23.274c0 .064 0 .127 0 .19zm0 -239.277c.047 26.895 -19.557 60.082 -43.788 74.124s-43.912 3.62 -43.959 -23.275c0 -.063 0 -.127 0 -.19 -.046 -26.895 19.558 -60.083 43.788 -74.124s43.912 -3.62 43.96 23.275c0 .065 0 .128 0 .19zm109.196 176.233c.047 26.895 -19.557 60.083 -43.788 74.124s-43.912 3.62 -43.959 -23.275c0 -.063 0 -.127 0 -.19 -.046 -26.896 19.558 -60.083 43.788 -74.124s43.912 -3.621 43.96 23.274c0 .064 0 .127 0 .19zm0 -239.277c.047 26.896 -19.557 60.083 -43.788 74.124s-43.912 3.621 -43.959 -23.274c0 -.064 0 -.127 0 -.19 -.046 -26.896 19.558 -60.083 43.788 -74.125s43.912 -3.62 43.96 23.275c0 .063 0 .127 0 .19zM846.27 650.652c.047 26.896 -19.557 60.082 -43.788 74.124s-43.912 3.621 -43.959 -23.274c0 -.064 0 -.127 0 -.19 -.046 -26.896 19.558 -60.084 43.788 -74.125s43.912 -3.62 43.96 23.275c0 .063 0 .127 0 .19zm0 -239.277c.047 26.896 -19.557 60.083 -43.788 74.124s-43.912 3.621 -43.959 -23.274c0 -.064 0 -.127 0 -.19 -.046 -26.896 19.558 -60.083 43.788 -74.124 24.23 -14.042 43.912 -3.621 43.96 23.274 0 .063 0 .127 0 .19zM491.894 542.247c-4.116 -10.165 -9.744 -20.021 -16.438 -28.724l-343 -195.847c-12.71 3.29 -20.987 15.775 -20.987 35.283V660.46c0 32.308 22.681 71.595 50.66 87.751L448.636 913.66c18.316 10.577 34.36 8.615 43.257 -3.066V542.248zM240.068 701.502c-.047 26.895 -19.73 37.316 -43.96 23.274s-43.834 -47.228 -43.787 -74.124c0 -.063 0 -.127 0 -.19 .047 -26.896 19.73 -37.317 43.959 -23.275s43.835 47.229 43.788 74.124c0 .066 0 .127 0 .19zm0 -239.277c-.047 26.895 -19.73 37.316 -43.96 23.274s-43.834 -47.228 -43.787 -74.124c0 -.063 0 -.127 0 -.19 .047 -26.895 19.73 -37.316 43.959 -23.274s43.835 47.228 43.788 74.123c0 .066 0 .13 0 .19zM458.46 827.59c-.047 26.896 -19.73 37.316 -43.96 23.274s-43.834 -47.228 -43.787 -74.123c0 -.064 0 -.127 0 -.19 .047 -26.896 19.73 -37.317 43.959 -23.275s43.835 47.228 43.788 74.124c0 .063 0 .127 0 .19zm0 -239.277c-.047 26.896 -19.73 37.317 -43.96 23.275S370.668 564.36 370.715 537.465c0 -.064 0 -.127 0 -.19 .047 -26.896 19.73 -37.317 43.959 -23.275s43.835 47.229 43.788 74.124c0 .063 0 .127 0 .19z"/></svg>