<svg height="1000" width="1000" xmlns="http://www.w3.org/2000/svg"><path d="M847.207 257.71L549.349 85.41c-27.966 -16.177 -73.306 -16.177 -101.274 0l-297.858 172.3c-19.077 11.034 -25.128 26.744 -18.18 40.752L484.883 499.93a123.89 123.89 0 0025.59 .221l355.776 -203.59c5.513 -13.513 -.825 -28.315 -19.042 -38.852zm-303.54 54.236c-24.332 14.437 -63.782 14.437 -88.113 0 -24.333 -14.438 -24.333 -37.845 0 -52.282s63.783 -14.438 88.114 0c24.332 14.437 24.332 37.844 0 52.282zm313.345 4.934L533.06 502.262c-11.396 11.235 -20.897 25.966 -26.893 41.318v366.277c8.779 12.323 25.094 14.598 43.784 3.805L836.459 748.215c27.977 -16.156 50.659 -55.443 50.659 -87.751V352.96c0 -23.854 -12.374 -37.216 -30.107 -36.08zM627.877 537.463c.047 26.895 -19.557 60.082 -43.788 74.124s-43.912 3.62 -43.959 -23.275c0 -.063 0 -.127 0 -.19 -.046 -26.895 19.558 -60.083 43.788 -74.124s43.912 -3.62 43.96 23.275c0 .065 0 .128 0 .19zm218.393 113.19c.047 26.895 -19.557 60.081 -43.788 74.123s-43.912 3.621 -43.959 -23.274c0 -.064 0 -.127 0 -.19 -.046 -26.896 19.558 -60.084 43.788 -74.125s43.912 -3.62 43.96 23.275c0 .063 0 .127 0 .19zM488.902 535.44c-5.158 -10.77 -11.968 -20.958 -19.834 -29.51L137.9 316.838c-15.745 .829 -26.429 13.949 -26.429 36.12V660.46c0 32.308 22.681 71.595 50.66 87.751l286.508 165.447c16.42 9.483 31.01 8.878 40.267 .237V535.44h-.003zM240.068 462.225c-.047 26.895 -19.73 37.316 -43.96 23.274s-43.834 -47.228 -43.787 -74.124c0 -.063 0 -.127 0 -.19 .047 -26.895 19.73 -37.316 43.959 -23.274s43.835 47.228 43.788 74.123c0 .066 0 .13 0 .19zM349.257 644.21c-.047 26.895 -19.73 37.316 -43.959 23.274S261.463 620.257 261.51 593.361c0 -.063 0 -.127 0 -.19 .047 -26.896 19.73 -37.317 43.959 -23.275s43.835 47.229 43.788 74.124a3.094 3.094 0 010 .19zM458.46 827.59c-.047 26.896 -19.73 37.316 -43.96 23.274s-43.834 -47.228 -43.787 -74.123c0 -.064 0 -.127 0 -.19 .047 -26.896 19.73 -37.317 43.959 -23.275s43.835 47.228 43.788 74.124c0 .063 0 .127 0 .19z"/></svg>