<svg height="1000" width="1000" xmlns="http://www.w3.org/2000/svg"><path d="M905.85 246.805C855.274 159.208 742.881 128.718 655.55 179.738 365.77 349.02 457.101 294.314 161.105 465.202v.005C73.51 515.777 43.465 627.91 94.04 715.507s162.938 118.033 250.298 67.066C639.565 610.337 548.02 664.703 838.783 497.103c87.63 -50.507 117.64 -162.702 67.066 -250.298zm-76.363 226.343L587.254 613c13.251 -7.652 21.212 -19.478 24.889 -34.037 33.364 -19.455 76.958 -44.64 165.572 -95.426 26.075 -14.944 45.6 -36.336 57.851 -61.517l-.005 -.002c20.423 -41.969 20.116 -93.435 -4.788 -136.764 -3.595 -6.265 -8.173 -11.497 -12.517 -17 21.205 64.073 -4.699 136.671 -65.537 171.537C682.83 479.846 640.894 504.07 609.868 522.157c-13.02 -53.156 -51.19 -115.25 -92.032 -153.938 -58.988 34.83 -81.738 48.71 -229.63 133.472 -60.032 34.403 -86.015 105.537 -66.324 168.975 -.724 -.375 -1.453 -.742 -2.17 -1.131 -3.4 -4.22 -6.774 -8.453 -9.56 -13.307C185.249 612.9 184.942 561.433 205.364 519.464l-.003 -.002c12.25 -25.18 31.776 -46.572 57.851 -61.517C393.696 383.162 426.574 363.888 472.895 336.679c-16.703 -7.199 -32.418 -8.175 -45.472 -.517L669.656 196.309c162.982 -94.1 325.39 181.25 159.831 276.838z"/></svg>