<svg height="1000" width="1000" xmlns="http://www.w3.org/2000/svg"><path d="M935.586 718.128C920.58 662.113 862.93 628.798 806.93 643.844c-185.815 49.933 -126.664 34.863 -316.17 84.72 -56.08 14.755 -89.29 72.642 -74.283 128.657s72.647 89.289 128.657 74.284c189.274 -50.72 130.066 -35.873 316.17 -84.72 56.087 -14.725 89.29 -72.643 74.282 -128.657zm-73.42 109.22L736.044 861.04C673.26 877.862 629.711 708.405 690.764 692.048l126.122 -33.692c101.06 -27.078 144.77 142.334 45.28 168.993zM411.13 306.796c-34.047 -34.05 -89.314 -34.052 -123.362 0C172.715 421.853 209.124 386.59 95.577 498.988c-34.224 33.874 -34.047 89.317 0 123.364s89.34 34.07 123.362 0C331.83 509.301 295.55 544.692 411.13 430.16c34.2 -33.898 34.047 -89.315 0 -123.364zM201.664 618.112c-61.621 61.623 -163.7 -42.379 -103.04 -103.04l90.159 -90.157c-29.662 29.258 67.763 138.314 103.039 103.041l-90.158 90.156zM805.249 446.51c-48.817 -178.551 -32.71 -122.078 -81.5 -304.165h.002C709.314 88.456 653.864 56.447 599.978 70.882s-86.145 69.956 -71.462 123.773c49.615 181.874 33.72 125.339 81.501 304.17 14.398 53.893 69.888 85.896 123.773 71.46s86.173 -69.966 71.458 -123.774zm-177.9 50.467L589.5 355.724c14.808 55.266 174.112 2.824 161.429 -43.253l37.848 141.248c25.467 95.036 -135.562 139.795 -161.428 43.258z"/></svg>