<svg height="1000" width="1000" xmlns="http://www.w3.org/2000/svg"><path d="M711.918 658.271l56.706 .582 -85.393 -96.238 55.453 -39.76C648.36 451.842 623.976 416.468 602.09 345.449l73.487 33.328 -91.041 -122.5 50.051 -16.884C549.923 172.492 508.561 105.054 486.09 37.38l-.003 .487C450.763 113.2 398.21 178.966 334.602 238.589l73.542 -7.692L308.035 357.75 356.39 342.3 290.87 449.342l32.21 19.195L195.855 648.22l70.391 .365 -100.79 162.968 123.9 -15.81 23.45 62.572L422.833 816.47l-23.715 163.62h144.385L529.785 837.059l55.365 23.763 19.89 -48.335 86.312 40.868 109.983 -40.453 -89.42 -154.63z"/></svg>