<svg height="1000" width="1000" xmlns="http://www.w3.org/2000/svg"><path d="M238.264 545.791c46.803 153.95 -107.141 214.28 -214.28 321.425 24.614 82.527 23.89 83.248 107.142 107.145C238.267 867.216 291.836 706.512 452.548 760.081L238.264 545.793zm646.279 212.237c.014 74.046 -60.755 134.086 -135.735 134.101C673.829 892.144 613.035 832.127 613.02 758.081c0 -.018 0 -.035 0 -.052 -.015 -74.047 60.755 -134.087 135.735 -134.101s135.773 60.001 135.788 134.048c0 .017 0 .034 0 .052zm-284.165 -7.403c0 -.017 0 -.036 0 -.053 -.014 -77.496 63.586 -140.329 142.056 -140.344 31.944 -.006 61.427 10.402 85.16 27.971C970.09 515.728 1054.685 328.331 862.347 135.996 487.352 -239 131.122 438.656 238.263 545.791l214.284 214.28c25.12 25.12 81.616 24.752 148.546 4.652a139.808 139.808 0 01-.715 -14.098z"/></svg>