<svg height="1000" width="1000" xmlns="http://www.w3.org/2000/svg"><path d="M547.971 431.432c13.457 -155.006 78.1 -289.867 171.457 -375.427h171.099C797.17 141.565 743.394 276.424 732.425 431.432H870.25v154.922H735.606c16.345 142.705 70.404 265.705 158.9 344.807H723.404C634.9 852.06 571.494 729.05 551.818 586.354H438.934C419.258 729.06 355.853 852.06 267.348 931.161H96.257C184.752 852.06 238.793 729.05 255.157 586.354h-145.83V431.432H258.34C247.351 276.426 193.592 141.565 100.237 56.005h171.109c93.338 85.56 157.99 220.419 171.437 375.427h105.19z"/></svg>