<svg height="1000" width="1000" xmlns="http://www.w3.org/2000/svg"><path d="M274.128 492.325C475.252 682.76 724.995 848.288 965.924 962.74 852.1 723.12 685.441 471.347 494.475 269.844c9.591 -5.737 19.397 -11.235 29.465 -16.44l79.72 6.834 53.95 -126.834 -134.476 11.29C458.424 183.69 398.476 226.771 344.337 274.83 297.008 196.14 233.678 134.928 154.33 97.882a70.86 70.86 0 001.037 -11.993c0 -38.922 -31.558 -70.48 -70.481 -70.48S14.404 46.968 14.404 85.89s31.558 70.47 70.482 70.47A70.72 70.72 0 0099.7 154.785c34.411 86.67 96.715 145.457 174.66 188.603 -49.126 53.27 -91.862 112.02 -127.106 177.187l-11.29 134.476 126.031 -53.15 -6.84 -79.715a1179.249 1179.249 0 0118.974 -29.862zm55.997 -67.718l99.64 -99.636c92.994 92.99 174.55 213.96 229.056 328.695C543.244 598.754 423.125 517.606 330.125 424.608z"/></svg>