<svg height="1000" width="1000" xmlns="http://www.w3.org/2000/svg"><path d="M962.314 644.079L845 677.077 957.09 496.06l-133.62 56.192L929.173 352.687l-141.635 83.987 36.139 -240.66L722.806 422.1 584.118 141.252l44.841 321.844L499.767 360.729l82.825 167.26L347.762 377.875 491.28 271.283 240.18 42.42H39.42l.003 127.669L218.84 307.82 101.598 421.096l459.469 307.17L397.573 716.808l181.832 149.289L428.183 876.71l221.282 79.287L640.493 821.41h-42.5c0 -73.705 -1.445 -179.347 63.438 -194.975C651.487 611.52 645.443 591.978 645.443 570.57c0 -46.786 28.796 -84.717 64.313 -84.717s64.313 37.931 64.313 84.717c0 21.917 -6.319 41.889 -16.686 56.93 59.455 16.88 64.07 120.513 64.07 193.911h-44.781l-10.256 136.108 179.231 -116.18 -95.688 8.549 112.357 -205.81z"/></svg>