<svg height="1000" width="1000" xmlns="http://www.w3.org/2000/svg"><path d="M499.658 93.708l-30.429 81.778L428.341 99.413l-15.216 77.976 -58.005 -73.22 8.56 105.374c35.94 35.94 235.491 36.467 271.96 0l7.608 -105.375 -58.004 73.22L570.028 99.414l-40.889 75.122L499.658 93.708zm3.2 182.372c-85.623 0 -155.114 88.819 -155.114 198.26 0 58.226 20.402 110.311 51.703 146.593C233.53 658.736 222.693 791.383 222.693 985.013h562.733c0 -192.91 2.36 -332.885 -175.555 -367.685 29.354 -36.08 48.095 -86.866 48.095 -142.988 0 -109.44 -69.489 -198.26 -155.114 -198.26h.007z"/></svg>