<svg height="1000" width="1000" xmlns="http://www.w3.org/2000/svg"><path d="M911.659 595.706C964.962 542.402 978.67 469.694 942.277 433.3 905.885 396.907 833.175 410.615 779.87 463.918c-10.36 10.36 -19.202 21.457 -26.494 32.873C570.58 386.7 110.085 645.598 404.387 866.808l-.002 .003h-232.66l-51.578 93.091h501.454L449.073 758.572c47.328 -52.078 131.532 -85.226 189.138 -87.874 26.896 87.938 70.684 221.314 139.878 289.201h118.685C812.767 869.113 747.463 747.124 736.96 609.112c3.155 6.336 7.22 12.137 12.294 17.212 36.391 36.394 109.102 22.686 162.406 -30.618zm-618.45 86.706C322.706 509.452 586.22 416.27 742.25 471.86L842.607 222.133l-160.109 161L719.956 67.71 638.324 254.8 611.27 179.46l-63.784 162.825L390.2 41.125l27.003 280.23L163.251 113.77l141.62 272.794 -151.53 -57.47 66.841 121.161L60.136 446.2l204.826 132.95 -203.06 58.516 231.308 44.749z"/></svg>