<svg height="1000" width="1000" xmlns="http://www.w3.org/2000/svg"><path d="M573.298 773.407l-1.742 23.39H430.232l-1.542 -23.39H168.78l334.51 196.068L837.824 773.407zM503.441 184.965c2.643 0 5.375 -.436 7.944 0l.007 .005c28.423 3.691 52.235 27.466 62.803 59.987h263.637L503.307 48.897l-334.52 196.06h263.941c11.577 -35.273 38.917 -59.992 70.713 -59.992zM417.18 598.717h-61.615c-20.826 -110.767 6.92 -232.732 94.533 -246.318 -14.162 -17.767 -23.273 -42.452 -23.273 -69.81 0 -22.33 5.888 -42.867 15.762 -59.293h-150.07v566.49H429.77L417.18 598.716zM564.486 223.296c9.774 16.497 15.582 37.058 15.582 59.296 0 28.047 -9.607 53.097 -24.404 70.94 80.204 15.09 118.712 131.428 95.097 245.184h-64.45l-14.233 191.068h142V223.296H564.485z"/></svg>