<svg height="1000" width="1000" xmlns="http://www.w3.org/2000/svg"><path d="M883.386 363.074c36.285 74.398 2.38 240.809 -115.238 263.09C817.878 584.497 852.331 480.02 833.378 437c-64.759 88.582 -147.289 4.76 -64.143 -80.45 55.241 -56.616 74.341 -128.09 19.57 -206.559C805.75 224.797 718.5 308.08 658.728 255.444c-40.36 -35.537 -19.072 -113.383 44.192 -133.72 -50.176 -17.377 -88.83 5.236 -97.843 40.225C572.197 130.134 529.062 109.307 540.933 56.497l-.007 -.002c-59.576 26.45 -42.582 102.863 -15.22 135.894 52.124 62.91 -58.344 97.082 -91.321 -9.785 -10.012 32.806 -45.667 40.022 -66.315 14.134C355.01 180.363 331.781 137.887 345.241 96.721c-38.876 27.429 -58.967 83.876 -35.874 117.413 54.511 79.163 -21.843 140.136 -109.8 76.101 67.863 88.884 39.401 223.146 -30.44 268.528C196.46 499.118 184.513 394.59 127.815 373.946 157.39 461.525 84.01 526.792 48.455 489.184v470.16h90.642C163.946 853.944 221.37 788.965 355.58 763.71 315.061 714.882 289.387 645.658 289.387 568.924c0 -147.776 93.515 -267.666 209.172 -267.666s209.173 119.893 209.173 267.666c0 74.832 -23.44 143.538 -62.224 192.138 146.82 23.104 202.078 89.946 222.477 198.284h93.676V531.583C949.678 473.78 928.824 377.016 883.385 363.075zM158.06 233.95C112.737 143.3 283.953 121.776 167.44 40.891c-4.35 61.61 -185.652 88.16 -9.38 193.06z"/></svg>