<svg height="1000" width="1000" xmlns="http://www.w3.org/2000/svg"><path d="M941.727 532.476c0 -46.692 -112.282 -86.784 -272.179 -103.898a683.734 683.734 0 00-.934 -10.557c-.046 -.491 -.092 -.984 -.14 -1.475a620.458 620.458 0 00-1.142 -10.69c-.06 -.519 -.119 -1.036 -.18 -1.555a561.049 561.049 0 00-1.34 -10.492 484.817 484.817 0 00-1.78 -11.876c-.043 -.27 -.08 -.547 -.124 -.815l.012 .13c-1.166 -7.096 -2.476 -14.077 -3.966 -20.888 164.98 -16.514 281.773 -57.27 281.773 -104.89 0 -53.888 -149.574 -98.98 -349.283 -110.107C590.259 89.597 559.546 43.554 518.638 30.16c-7.863 -2.575 -16.102 -3.945 -24.588 -3.945 -3.394 0 -6.91 -.428 -10.216 0l.005 .002C435.81 32.462 397.984 83.273 395.654 145.63 198.355 157.206 51.185 202.014 51.182 255.469c-.002 47.644 116.915 88.42 282.036 104.917 -2.577 10.408 -4.78 21.19 -6.652 32.234l.01 -.1c-.052 .307 -.095 .62 -.147 .927a555.997 555.997 0 00-1.711 10.82c-.075 .508 -.146 1.017 -.219 1.523a609.981 609.981 0 00-1.472 10.818c-.07 .554 -.136 1.112 -.205 1.669a686.021 686.021 0 00-1.225 10.494C162.644 445.99 51.184 485.955 51.182 532.474c-.003 53.284 146.24 97.972 342.587 109.72l3.76 50.462C198.952 704 50.635 748.926 50.635 802.628c0 62.265 199.368 112.735 445.298 112.735S941.233 864.892 941.233 802.628C941.235 749.085 793.8 704.263 596.108 692.758l3.333 -50.578C795.636 630.402 941.727 585.735 941.727 532.478zM814.182 517.668c0 35.021 -88.25 65.044 -211.557 76.207l2.351 -35.679h67.864c0 -24.763 .1 -51.76 -.674 -79.215l.003 .032c-.003 -.088 -.007 -.176 -.008 -.263a1206.07 1206.07 0 00-.377 -11.352c-.012 -.36 -.026 -.72 -.039 -1.078a1071.79 1071.79 0 00-.499 -11.312c-.02 -.392 -.036 -.783 -.056 -1.175 -.05 -.964 -.103 -1.926 -.154 -2.888 86.248 14.163 143.146 38.601 143.146 66.722zm0 -277.005c0 30.868 -68.556 57.85 -169.24 71.462 -16.207 -37.504 -41.82 -64.356 -82.29 -70.631 15.965 -20.024 26.929 -46.89 29.39 -76.912 128.813 10.082 222.14 40.063 222.14 76.082zm-636.59 0c.001 -35.584 91.82 -65.274 218.511 -75.708 2.607 30.682 14.152 57.893 30.82 77.995 -36.465 6.863 -60.998 33.046 -77.494 69.404C247.476 298.817 177.592 271.704 177.592 240.663zm0 277.005c0 -27.9 56.457 -52.18 141.907 -66.393 -.082 1.021 -.165 2.042 -.241 3.063 -.047 .615 -.09 1.229 -.134 1.844a954.376 954.376 0 00-.737 10.79c-.041 .661 -.078 1.32 -.117 1.98a1052.77 1052.77 0 00-.587 10.586c-.037 .76 -.072 1.518 -.108 2.278a1125.28 1125.28 0 00-.443 10.122c-.012 .301 -.027 .608 -.04 .91l.01 -.112c-.872 22.638 -1.097 44.793 -1.097 65.46h71.513l2.657 35.68C266.557 582.717 177.593 552.693 177.593 517.669zM814 788.176c0 44.473 -142.406 80.525 -318.072 80.525S177.858 832.65 177.858 788.176c0 -35.908 92.848 -66.323 221.073 -76.706l7.554 101.406c48.041 16.894 140.497 15.075 181.705 0l6.672 -101.247C722.085 722.162 814 752.449 814 788.176z"/></svg>