<svg height="1000" width="1000" xmlns="http://www.w3.org/2000/svg"><path d="M952.485 418.099C907.34 375.591 823.408 391.603 765.014 453.863c-10.616 11.316 -19.633 23.388 -27.05 35.812C546.587 400.724 116.963 651.998 403.667 867.495l-.003 .002h-232.66l-51.578 93.092H620.88L448.351 759.259C495.68 707.18 579.883 674.032 637.49 671.383c26.895 87.939 70.683 221.314 139.877 289.202h118.685C818.695 876.986 757.196 766.927 739.743 642.263c.433 .426 .835 .874 1.28 1.292 45.143 42.508 129.074 26.496 187.47 -35.763S997.63 460.607 952.488 418.099zm-515.488 89.57V23.104H339.09V585.06c25.621 -30.921 59.587 -56.987 97.907 -77.393zM630.297 23.1h-95.396v446.977c31.695 -8.065 64.034 -12.66 95.396 -13.462V23.1zm-396.64 825.672V23.1H135.75v872.288l31.87 -46.616zM833.637 392.86V23.105h-97.903v442.05A212.51 212.51 0 01751.9 445.706c24.36 -25.97 53.161 -43.859 81.74 -52.844z"/></svg>