<svg height="1000" width="1000" xmlns="http://www.w3.org/2000/svg"><path d="M844.565 280.276c23.222 -28.007 38.297 -67.308 38.297 -111.32 0 -79.48 -47.246 -145.327 -107.764 -153.19 -4.037 -.62 -8.334 0 -12.472 0 -24.715 0 -47.715 9.518 -66.844 25.848L32.728 89.624l610.025 44.172v23.245a196.767 196.767 0 00-.272 6.394L32.727 207.583l609.833 44.16v29.652L32.727 325.55l542.358 39.275v8.182c-3.954 10.137 -7.403 20.834 -10.403 31.98L32.727 443.506l507.23 36.73v38.082L32.727 555.04l508.125 36.795v44.369l-508.125 36.79 590.086 42.731v32.513L32.727 790.964 637.66 834.77v30.353L32.727 908.918l613.527 44.426 1.483 22.51H869.5l23.155 -310.829h87.282c0 -148.916 -9.519 -361.065 -135.374 -384.744zM662.558 253.187c.037 .073 .075 .146 .112 .217l-2.007 -.353 1.894 .136z"/></svg>