<svg height="1000" width="1000" xmlns="http://www.w3.org/2000/svg"><path d="M913.056 595.561C966.44 542.176 980.17 469.324 943.714 432.9c-36.452 -36.454 -109.276 -22.726 -162.66 30.66 -10.37 10.37 -19.225 21.48 -26.526 32.912C729.15 481.19 698.441 472.996 665.13 470.826L631.122 196.665l37.413 -39.964L657.722 88.323l-35.352 37.765 -1.183 -9.536 -13.932 1.728 1.112 8.96 -43.784 -24.183 10.813 68.378 41.281 22.8 34.24 276.034c-18.992 -.278 -38.667 1.274 -58.553 4.469L425.42 185.59l19.057 -46.93L409.865 78.71l-19.057 46.933 -5.803 -10.051 -12.157 7.02 5.927 10.266 -50.577 -7.02 34.613 59.953 50.578 7.02 164.286 284.546c-18.96 3.79 -37.998 9.027 -56.709 15.534L302.954 307.573l4.037 -49.82L255.98 210.954l-4.298 53.032L239.265 253.43l-9.092 10.695 9.738 8.279 -47.68 8.036 51.013 46.799 51.05 -8.603 211.543 179.835C341.914 562.15 212.77 722.648 404.939 867.106H171.906l-51.658 93.235h502.268L449.719 758.694c47.397 -52.16 131.75 -85.354 189.45 -88.027 26.93 88.082 70.79 221.671 140.104 289.676h118.884C814.014 869.42 748.609 747.215 738.074 608.973c3.16 6.35 7.234 12.163 12.319 17.248 36.454 36.454 109.276 22.725 162.661 -30.66z"/></svg>