<svg height="1000" width="1000" xmlns="http://www.w3.org/2000/svg"><path d="M176.51 760.584h75.066v32.334H127.61v-32.334l62.27 -54.955c5.559 -5.028 9.673 -9.94 12.338 -14.74s3.998 -9.788 3.998 -14.967c0 -7.998 -2.705 -14.434 -8.112 -19.309 -5.331 -4.874 -12.453 -7.311 -21.365 -7.311 -6.855 0 -14.358 1.486 -22.508 4.455 -8.15 2.893 -16.871 7.236 -26.165 13.024v-37.475c9.902 -3.275 19.69 -5.75 29.364 -7.425 9.674 -1.752 19.156 -2.628 28.448 -2.628 20.413 0 36.256 4.494 47.53 13.481 11.35 8.988 17.025 21.519 17.025 37.589 0 9.294 -2.4 17.975 -7.197 26.05 -4.8 7.999 -14.89 18.738 -30.278 32.221l-36.448 31.99zm681.262 64.18c11.501 2.972 20.224 8.151 26.165 15.539 6.018 7.311 9.027 16.643 9.027 27.992 0 16.91 -6.475 29.781 -19.423 38.618 -12.95 8.76 -31.84 13.139 -56.671 13.139 -8.76 0 -17.557 -.725 -26.394 -2.171a166.005 166.005 0 01-26.05 -6.284v-33.934c8.226 4.113 16.377 7.237 24.45 9.37 8.15 2.056 16.148 3.084 23.993 3.084 11.654 0 20.566 -2.017 26.735 -6.055 6.246 -4.037 9.37 -9.826 9.37 -17.367 0 -7.77 -3.2 -13.635 -9.597 -17.596 -6.322 -4.037 -15.692 -6.056 -28.107 -6.056h-17.595V814.71h18.508c11.044 0 19.27 -1.713 24.68 -5.141 5.407 -3.504 8.111 -8.798 8.111 -15.881 0 -6.55 -2.628 -11.615 -7.883 -15.195s-12.682 -5.37 -22.28 -5.37c-7.083 0 -14.243 .8 -21.479 2.399s-14.434 3.96 -21.594 7.083v-32.22c8.684 -2.438 17.29 -4.266 25.822 -5.485 8.53 -1.219 16.91 -1.827 25.136 -1.83 22.165 0 38.732 3.657 49.7 10.97 11.044 7.236 16.567 18.166 16.568 32.79 0 9.979 -2.628 18.166 -7.884 24.565 -5.256 6.324 -13.025 10.78 -23.309 13.37zM460.307 449.919h38.847V339.663l-39.874 8.226v-29.934l39.646 -8.227h41.818v140.19h38.846v30.39H460.308V449.92zm506.86 517.242V686.37h-280.79V249.585H343.19v311.99H31.199V967.16z"/></svg>