<svg height="1000" width="1000" xmlns="http://www.w3.org/2000/svg"><path d="M499.99 207.028c-66.028 0 -120.882 44.314 -139.166 104.362 -19.95 -10.196 -41.985 -16.47 -65.907 -16.47 -80.907 0 -146.495 65.587 -146.495 146.494 0 3.48 .687 6.643 .908 10.074C80.604 475.385 31.218 540.335 31.218 617.198c0 97.083 78.7 175.784 175.783 175.784h585.93c97.083 0 175.784 -78.701 175.784 -175.784 0 -76.862 -49.387 -141.813 -118.112 -165.71 .245 -3.432 .908 -6.593 .908 -10.074 0 -80.907 -65.588 -146.494 -146.495 -146.494 -23.946 0 -45.956 6.298 -65.907 16.47C620.873 251.342 566.045 207.028 499.992 207.028zM382.81 382.812l117.18 117.181L617.173 382.812l58.603 58.602L558.593 558.596l117.182 117.181 -58.603 58.602L499.991 617.2 382.81 734.378l-58.603 -58.602L441.39 558.596 324.207 441.414l58.603 -58.602z"/></svg>