<svg height="1000" width="1000" xmlns="http://www.w3.org/2000/svg"><path d="M903.485 516.276c-9.948 -49.893 -53.23 -67.537 -93.598 -59.661V264.91l22.38 -18.236 -12.373 -8.699 60.317 -62.35C880.209 110.216 769.534 33.632 700.342 49.165l-38.26 77.855 -14.665 -10.31 -32.739 92.98c.34 .779 .701 1.537 1.05 2.309C512.554 380.64 318.653 413.995 172.254 465.984 18.7 520.522 112.461 787.017 247.811 882.168s417.943 93.23 417.308 -69.724C664.514 656.93 630.226 462.987 754.558 308.78c.433 .05 .854 .112 1.29 .161l37.786 -30.79v183.096C754.89 475.9 723.933 514.951 736.578 571.775l47.56 249.156 166.902 -55.49L903.483 516.277zM567.312 879.854l-148.595 23.072L262.58 852.464 157.99 723.93 125.228 556.338h506.565l2.52 245.722 -67.001 77.795zM818.297 585.818c-26.333 0 -47.68 -21.343 -47.68 -47.678s21.347 -47.679 47.68 -47.679 47.68 21.344 47.68 47.679 -21.348 47.678 -47.68 47.678z"/></svg>