<svg height="1000" width="1000" xmlns="http://www.w3.org/2000/svg"><path d="M892.273 146.69c-34.487 0 -62.445 27.976 -62.445 62.472 0 20.895 10.27 39.384 26.022 50.725l-98.754 155.055c21.036 11.14 35.375 33.25 35.375 58.714 0 36.667 -29.718 66.4 -66.377 66.4s-66.377 -29.726 -66.377 -66.4c0 -33.348 24.576 -60.949 56.599 -65.68l-67.76 -159.002c29.812 -6.956 52.027 -33.69 52.027 -65.63 0 -37.234 -30.17 -67.418 -67.39 -67.418s-67.389 30.19 -67.389 67.418c0 28.853 18.131 53.464 43.613 63.083l-86.783 148.035c28.493 8.823 49.193 35.39 49.193 66.786 0 38.599 -31.282 69.898 -69.873 69.898S432.08 499.854 432.08 461.248c0 -29.552 18.344 -54.805 44.255 -65.03L390.254 246.68c25.825 -9.439 44.26 -34.234 44.26 -63.336 0 -37.234 -30.17 -67.418 -67.389 -67.418s-67.39 30.19 -67.39 67.418c0 31.359 21.412 57.72 50.409 65.25l-68.884 159.76c30.934 5.65 54.387 32.733 54.387 65.302 0 36.667 -29.718 66.4 -66.377 66.4s-66.377 -29.726 -66.377 -66.4c0 -26.073 15.03 -48.624 36.888 -59.49L140.722 259.708c15.612 -11.356 25.772 -29.759 25.772 -50.547 0 -34.5 -27.958 -62.471 -62.445 -62.471s-62.446 27.975 -62.446 62.471 27.958 62.467 62.446 62.467c1.447 0 2.876 -.067 4.298 -.163l88.319 478.511c-53.513 1.41 -53.647 78.336 1.487 78.336h12.97l.115 .618H785.11l.115 -.618h14.858c53.69 0 54.651 -78.37 0 -78.37h-.394L888.001 271.47a62.516 62.516 0 004.272 .16c34.487 0 62.445 -27.965 62.445 -62.466 0 -34.503 -27.958 -62.472 -62.445 -62.472z"/></svg>