<svg height="1000" width="1000" xmlns="http://www.w3.org/2000/svg"><path d="M969.014 27.438c-185.527 6.82 -336.012 46.941 -451.03 108.825l-57.442 96.045 -9.69 -54.744c-20.533 14.426 -39.56 29.667 -57.103 45.618l-28.67 87.898 -9.835 -49.122c-85.117 95.27 -123.195 210.49 -113.58 328.257H97.85v95.732h78.718l-84.465 74.158L48.688 925.81l28.356 30.943H422.6l28.356 -30.943L407.538 760.103 327.6 685.947h68.924v-95.732h-126.71c49.879 -25.842 98.308 -61.596 146.262 -102.918l-58.194 3.032 .537 -.596 104.477 -44.478c91.328 -85.06 182.116 -185.14 279.24 -269.525l-47.772 -10.114 110.467 -41.143C857.106 84.613 911.5 50.796 969.01 27.439z"/></svg>