<svg height="1000" width="1000" xmlns="http://www.w3.org/2000/svg"><path d="M748.774 187.178a192.633 192.633 0 00-32.195 2.03C578.64 126.843 534.04 35.656 472.45 35.656c-53.284 0 -50.638 98.4 152.61 203.778 -.358 .477 -.729 .939 -1.081 1.423 -15.503 21.263 -218.314 -96.794 -280.79 -96.67 -84.121 .172 39.291 198.991 240.289 167.792 19.07 -2.963 -9.445 28.411 -7.098 46.235v-.006a76.337 76.337 0 003.83 15.805C384.105 368.888 261.82 404.696 190.73 460.708 140.234 432.49 138.49 332.916 86.44 358.681c-55.32 27.372 -21.212 174.452 25.976 223.192 -31.945 138.492 70.209 303.809 151.45 354.086h640.903c34.754 -24.661 15.216 -44.057 0 -62.398C885.971 850.9 827.851 836.083 779.974 842.36c-69.672 -28.37 170.131 -186.661 .844 -373.446 31.903 1.818 68.309 -.715 100.012 -10.686a73.93 73.93 0 002.217 1.517l1.399 -2.686c29.101 -9.796 53.837 -26.116 66.79 -51.49C967.167 374.373 848.02 189.253 748.774 187.179zm31.144 155.726c-17.23 0 -31.2 -13.969 -31.2 -31.2s13.97 -31.198 31.2 -31.198c17.231 0 31.2 13.968 31.2 31.199s-13.97 31.199 -31.2 31.199z"/></svg>