<svg height="1000" width="1000" xmlns="http://www.w3.org/2000/svg"><path d="M447.274 31.351l.003 .007 .002 -.002zm504.809 220.711c-16.862 -29.23 -54.232 -39.23 -83.458 -22.34 -22.02 12.724 -33.137 37.086 -30.073 60.828l-205.708 62.504L447.278 31.36C338.87 133.969 287.2 282.82 307.244 428.009l-69.858 12.29 20.82 118.087 -82.01 76.747 36.443 62.634L327.048 663.07l14.646 19.272L119.51 959.864h494.675L581.508 783.568c96.354 40.14 205.734 47.072 309.041 16.246L704.987 478.12 861.875 331.115c19.02 14.623 45.73 17.217 67.81 4.458 29.233 -16.893 39.26 -54.28 22.399 -83.51z"/></svg>