<svg height="1000" width="1000" xmlns="http://www.w3.org/2000/svg"><path d="M564.395 554.208c24.305 -42.097 9.883 -95.927 -32.214 -120.231s-95.924 -9.883 -120.23 32.217 -9.88 95.924 32.214 120.23c42.096 24.303 95.924 9.88 120.23 -32.216zM384.818 504.731a103.04 103.04 0 0113.716 -46.284c9.943 -17.221 24.092 -30.492 40.394 -39.29L292.194 165.056c-52.84 32.61 -98.82 78.319 -132.042 135.859 -37.068 64.204 -52.518 134.756 -50.713 203.809v.005l275.38 .002zm53.819 96.317l-134.01 230.907c57.436 32.73 119.017 49.112 180.841 50.713 67.407 1.752 133.992 -15.204 193.28 -46.883L542.022 598.611c-30.596 18.599 -69.925 20.698 -103.386 2.436zM692.144 160.267L541.815 421.71c30.31 18.36 47.923 49.925 49.708 83.015H883.51C886.716 368.208 818.178 233.95 692.144 160.266z"/></svg>