<svg height="1000" width="1000" xmlns="http://www.w3.org/2000/svg"><path d="M162.472 434.848l130.983 35.097c.007 -.054 .017 -.107 .023 -.16a208.717 208.717 0 00-1.703 26.035l74.659 -35.834L319.536 392a209.21 209.21 0 00-13.878 29.327c.092 -.239 .175 -.48 .266 -.716L175.635 385.7l14.968 -55.85L34.791 370.71l114.212 114.408L162.47 434.85zm131.914 28.654c.032 -.204 .059 -.408 .092 -.611 -.032 .204 -.059 .408 -.092 .611zm1.209 -6.87c.046 -.242 .085 -.482 .132 -.724 -.047 .24 -.087 .482 -.132 .723zm1.401 -6.672c.078 -.345 .144 -.691 .224 -1.036 -.08 .346 -.146 .69 -.224 1.036zm6.517 -22.735zm-4.52 14.62zm2.414 -8.238zm666.11 187.019L853.005 507.332l-14.968 55.855 -130.02 -34.84c-.038 .252 -.087 .504 -.126 .753a208.939 208.939 0 002.646 -31.81l-69.959 34.68 43.92 65.327a209.582 209.582 0 0010.037 -20.946c-.13 .316 -.25 .64 -.382 .958l130.72 35.026 -13.467 50.267 156.11 -41.977zm-260.18 -88.27zm-1.134 5.96zm-1.314 5.979zm-7.871 25.778c-.243 .645 -.494 1.282 -.742 1.923 .25 -.64 .5 -1.28 .742 -1.923zM701.465 557c-.18 .59 -.375 1.17 -.56 1.76 .186 -.587 .382 -1.17 .56 -1.76zm-2.121 6.588c-.214 .63 -.442 1.255 -.662 1.883 .22 -.628 .447 -1.251 .662 -1.883zM372.477 331.062c.547 -.426 1.109 -.832 1.66 -1.25a210.417 210.417 0 00-19.148 16.485l78.433 25.78 14.17 -78.299a209.458 209.458 0 00-31.465 11.114L348.809 188.294l50.073 -28.912L259.819 78.098l-.146 161.659 45.066 -26.02 67.738 117.324zm31.999 -20.538c.427 -.224 .86 -.433 1.29 -.652 -.428 .22 -.864 .43 -1.29 .652zm-28.035 17.55zm5.395 -3.868zm5.509 -3.694c.868 -.561 1.744 -1.107 2.62 -1.657 -.876 .548 -1.752 1.095 -2.62 1.657zm5.615 -3.515c.781 -.472 1.572 -.928 2.36 -1.39 -.788 .463 -1.579 .918 -2.36 1.39zm5.713 -3.33c.651 -.365 1.31 -.714 1.966 -1.073 -.657 .36 -1.315 .708 -1.966 1.074zm.214 -154.28l-.003 -.005 -.002 .002zM691.694 782.19L624.307 665.472a209.728 209.728 0 0025.027 -21.364l-76.05 -26.504 -14.449 79.847a209.747 209.747 0 0022.873 -8.062c-.63 .265 -1.254 .543 -1.888 .801l67.805 117.443 -45.066 26.02 140.072 80.705 -.86 -161.077 -50.076 28.908zM587.589 686.825c-.907 .411 -1.81 .825 -2.724 1.223 .912 -.398 1.817 -.812 2.724 -1.223zm26.86 -14.629c-.258 .166 -.511 .339 -.77 .504 .26 -.165 .513 -.339 .77 -.504zm-4.867 3.031c-.489 .297 -.972 .602 -1.462 .894 .49 -.294 .973 -.599 1.462 -.894zm-5.213 3.053c-.64 .362 -1.275 .734 -1.917 1.09 .642 -.356 1.277 -.728 1.917 -1.09zm-5.426 2.97c-.754 .4 -1.506 .805 -2.265 1.195 .76 -.39 1.51 -.795 2.265 -1.194zm-5.604 2.857c-.84 .413 -1.678 .83 -2.523 1.232 .845 -.402 1.683 -.82 2.523 -1.232zM331.865 619.32a209.665 209.665 0 0021.899 25.572l27.129 -77.846L299.14 551.178a209.813 209.813 0 008.52 24.87c-.158 -.381 -.329 -.758 -.484 -1.14l-117.424 67.795 -26.019 -45.066L83.026 737.705l161.078 -.86L215.196 686.77 331.91 619.386c-.014 -.022 -.029 -.044 -.046 -.066zm-21.577 -37.198zm19.026 33.575c-.42 -.601 -.847 -1.197 -1.258 -1.805 .41 .606 .839 1.2 1.258 1.805zm-3.446 -5.119c-.487 -.749 -.982 -1.492 -1.462 -2.248 .48 .755 .974 1.499 1.462 2.248zm-3.394 -5.382c-.518 -.847 -1.036 -1.693 -1.54 -2.547 .504 .854 1.022 1.7 1.54 2.547zm-3.28 -5.564zm-3.131 -5.708zm-2.972 -5.841zM838.001 393.96l-.002 -.003 -.002 .003zM666.32 367.556c.324 .416 .63 .845 .953 1.265a209.745 209.745 0 00-16.098 -18.67l-25.056 74.756 76.36 13.819a209.793 209.793 0 00-10.6 -28.79c.194 .428 .401 .85 .592 1.28l116.62 -67.33L838 393.958l81.285 -139.065 -161.659 -.141 26.02 45.066 -117.328 67.74zm22.819 36.566zm-20.19 -33.075zm3.779 5.239zm3.623 5.363zm3.462 5.478zm3.287 5.58zm3.11 5.668zm-110.3 -97.722c.29 .111 .587 .212 .875 .324l34.903 -130.262 55.844 14.963L626.674 29.864 512.266 144.075l50.268 13.468 -35.088 130.949c.2 .026 .4 .06 .599 .087a209.148 209.148 0 00-23.963 -1.754l34.124 71.094 65.703 -44.174a208.887 208.887 0 00-28 -13.093zm-3.254 -1.208zm-5.63 -1.956zm-5.748 -1.816a215.105 215.105 0 00-5.942 -1.694c-.075 -.02 -.15 -.036 -.225 -.056 .075 .02 .151 .036 .226 .056a204.762 204.762 0 015.94 1.694zm-26.45 -6.1c-.491 -.081 -.985 -.15 -1.479 -.228 .492 .079 .986 .149 1.48 .229zm13.737 2.716c-.501 -.117 -1.002 -.216 -1.501 -.328 .5 .111 1 .21 1.501 .328zm-6.863 -1.475c-.497 -.098 -.993 -.182 -1.491 -.277 .497 .095 .995 .18 1.49 .277zM468.5 631.76l-69.392 47.257a209.366 209.366 0 0021.643 10.455c-.224 -.092 -.452 -.175 -.674 -.27L385.045 819.95l-50.268 -13.468 41.978 156.112 113.294 -114.51 -55.85 -14.967L469.048 703.06c-.028 -.005 -.056 -.01 -.083 -.014a208.675 208.675 0 0034.96 2.513l-35.423 -73.8zm-43.116 59.562c.579 .224 1.155 .455 1.737 .674 -.582 -.219 -1.158 -.448 -1.737 -.674zm6.466 2.384c.61 .214 1.214 .437 1.826 .644 -.614 -.207 -1.217 -.43 -1.826 -.644zm14.141 4.409c.33 .09 .652 .19 .983 .28a206.845 206.845 0 010 .002c-.33 -.088 -.652 -.19 -.983 -.282zm-7.613 -2.243c.654 .205 1.299 .424 1.956 .623 -.657 -.2 -1.304 -.418 -1.956 -.623zm24.083 6.04zm-6.917 -1.43z"/></svg>