<svg height="1000" width="1000" xmlns="http://www.w3.org/2000/svg"><path d="M788.981 116.185C771.736 73.747 725.365 43.302 669.41 43.302c-111.787 0 -119.418 70.543 -177.651 107.047C301.824 82.93 259.57 431.87 331.188 643.445c-30.02 62.25 -59.912 148.003 -85.412 263.065 110.807 59.783 232.27 75.416 355.304 19.357C588.988 852.33 573.409 791.578 558.223 739.876c48.795 -24.626 116.231 -28.436 168.693 28.07 .5 -59.866 -42.774 -83.173 -88.24 -82.59l-40.332 -85.188c86.333 -89.088 152.41 -199.32 119.447 -313.13 -20.09 -74.976 113.523 -121.324 238.593 -104.8C908.57 140.967 847.197 122.801 788.981 116.183zM533.648 660.53c17.09 -14.547 34.129 -29.982 50.613 -46.183l34.453 72.774c-26.2 4.23 -51.077 15.851 -66.576 32.413 -6.432 -21.14 -12.698 -40.718 -18.49 -59.003zM723.101 134.133c-7.121 0 -12.893 -5.774 -12.893 -12.893 0 -7.12 5.774 -12.892 12.893 -12.892s12.892 5.773 12.892 12.892c0 7.12 -5.771 12.893 -12.892 12.893z"/></svg>