<svg height="1000" width="1000" xmlns="http://www.w3.org/2000/svg"><path d="M374.313 458.815l-81.318 -81.317 59.152 -177.43C381.71 111.354 381.71 81.79 500.012 81.79s118.278 29.564 147.866 118.278l59.151 177.43 -81.317 81.317C593.601 426.703 549.022 407.06 500.038 407.06s-93.613 19.642 -125.725 51.754zm243.976 125.674c0 65.336 -52.966 118.278 -118.278 118.278 -65.335 0 -118.278 -52.966 -118.278 -118.278 0 -65.336 52.967 -118.278 118.278 -118.278S618.29 519.152 618.29 584.49zm53.388 -46.014l111.079 -29.762 124.091 139.924c62.046 69.963 87.651 84.757 28.5 187.177 -59.151 102.445 -84.756 87.65 -176.365 68.898L575.764 867.207 546.003 756.128c43.862 -11.75 83.148 -40.522 107.664 -82.975 24.492 -42.403 29.762 -90.817 18.01 -134.68zm-217.68 217.679l-29.76 111.079 -183.22 37.504C149.41 923.49 123.805 938.26 64.654 835.84 5.502 733.394 31.132 718.626 93.153 648.663L217.245 508.738 328.323 538.5c-11.75 43.862 -6.481 92.277 18.035 134.705 24.493 42.427 63.778 71.223 107.64 82.95z"/></svg>