<svg height="1000" width="1000" xmlns="http://www.w3.org/2000/svg"><path d="M498.942 38.516c-30.3 .66 -59.394 8.168 -87.72 20.463l43.862 81.878c14.467 -5.17 29.282 -8.666 43.861 -8.772 49.982 0 102.885 26.656 143.277 96.486l166.669 289.486 55.557 -90.66L724.095 181.783C670.518 89.148 585.523 37.778 498.942 38.517c.002 0 0 0 0 0zM224.084 275.349L95.427 500.502C46.382 585.342 42.915 681.5 83.732 757.816c16.915 31.628 42.565 57.571 73.102 78.95l46.784 -78.95c-15.681 -12.403 -29.044 -27.11 -38.012 -43.854 -24.393 -45.63 -25.978 -106.557 8.771 -166.673L332.275 275.35h-108.19zm625.741 397.663c-3.049 14.993 -7.473 28.008 -14.62 40.953 -25.02 45.25 -74.116 78.942 -152.05 78.942H364.439l55.555 93.567h263.162c106.315 0 192.072 -50.036 233.923 -125.73 14.75 -26.708 22.878 -57.002 26.314 -87.733l-93.569 .002zM352.262 393.755L142 272.53l210.264 -121.23 -.002 242.456zm342.077 75.156l210.264 121.227 .002 -242.457L694.34 468.911zm-438.298 368.89L466.305 716.575l.002 242.456L256.042 837.801z"/></svg>