<svg height="1000" width="1000" xmlns="http://www.w3.org/2000/svg"><path d="M448.446 31.245C304.746 40.827 196.51 161.685 196.51 309.283c0 36.25 6.863 70.907 19.362 102.671 12.746 32.378 29.265 69.878 159.633 193.48l37.99 -22.157c-2.378 -6.74 -3.628 -14.02 -3.628 -21.592 0 -30.613 21.25 -56.201 49.657 -62.574v-44.387C349.524 447.91 262.221 355.729 262.221 242.91c0 -111.005 78.75 -202.254 186.225 -211.666zm492.597 773.82C1004.671 674.528 955.186 519.43 828.666 445.63 797.588 427.493 764.45 416.17 730.97 411.243c-34.117 -5.025 -74.534 -9.338 -245.662 42.916v44.314c6.986 1.274 13.824 3.847 20.319 7.622 26.225 15.294 37.548 46.691 28.823 74.73l38.063 22.206C633.346 510.19 756.018 479.92 852.733 536.315c95.122 55.49 133.995 170 88.309 268.75zm-909.8 43.579c80.072 120.931 237.792 155.196 364.312 81.397 31.078 -18.138 57.352 -41.446 78.332 -68.26 21.372 -27.328 45.27 -60.538 86.054 -236.396l-37.99 -22.158c-4.583 5.466 -10.22 10.172 -16.692 13.947 -26.225 15.294 -58.798 9.51 -78.455 -12.158l-38.064 22.206c49.167 99.633 13.799 222.107 -82.941 278.53C210.652 961.241 93.03 937.981 31.241 848.643zm442.105 -549.19c-57.916 0 -111.47 19.044 -154.754 51.298 13.308 18.873 29.878 35.466 48.677 48.726 30.465 -20.196 66.936 -31.985 106.102 -31.985 41.299 0 79.583 13.088 111.004 35.342 27.598 -6.74 55.466 -12.157 83.726 -15.147C620.309 333.57 550.799 299.453 473.348 299.453zm226.054 395.734c28.97 -50.686 39.412 -107.034 33.407 -161.053a200.392 200.392 0 00-66.103 18.21c2.083 36.765 -6.053 74.56 -25.637 108.824 -20.638 36.128 -51.005 63.087 -85.809 79.46 -8.014 27.5 -17.328 54.608 -28.872 80.833 70.294 -14.779 134.289 -58.505 173.015 -126.274zm-452.01 -.367c28.972 50.662 72.06 88.014 121.348 109.755 9.534 -21.079 15.466 -43.872 17.427 -66.937 -32.549 -16.544 -60.883 -42.573 -80.466 -76.838C285.064 624.674 277.123 584.625 280.505 545.998c-19.583 -20.76 -38.137 -42.451 -54.852 -65.686 -22.525 68.872 -16.986 146.74 21.74 214.509z"/></svg>