<svg height="1000" width="1000" xmlns="http://www.w3.org/2000/svg"><path d="M640 144.357l-2.212 70.784 -49.776 13.274 -2.212 55.303L319.238 549.173c1.699 48.781 -33.369 82.323 -64.15 79.635 -46.11 -4.03 -64.36 -33.335 -64.152 -72.997 -30.793 33.479 -47.305 75.926 -47.56 118.355 31.523 .005 63.147 8.557 91.097 25.437l-5.27 18.844c-47.965 33.866 -101.43 89.98 -127.393 135.367 -3.194 5.582 -5.81 10.754 -7.93 15.545l-62.185 17.398 -2.903 81.184 81.184 -2.918 17.543 -62.74c4.652 -2.083 9.657 -4.63 15.044 -7.71C187.772 868.71 243.617 815.56 277.523 767.74l18.923 -5.294c16.313 27.696 24.895 58.972 25.006 89.797 43.577 .008 87.876 -16.566 121.667 -48.666 -47.101 -6.921 -74.793 -34.44 -71.895 -65.257 4.74 -50.384 34.05 -63.23 76.319 -61.94l270.99 -270.987 44.242 -1.095 12.157 -44.245 77.423 -3.318 82.968 -295.34 -295.32 82.963zm184.373 176.068l-76.299 2.26 -12.543 45.552 -115.02 4.554 3.417 -115.027 50.103 -13.666 2.277 -71.744 205.001 -56.912 -56.936 204.984z"/></svg>