<svg height="1000" width="1000" xmlns="http://www.w3.org/2000/svg"><path d="M858.483 802.197l109.704 83.243c23.86 -61.98 6.248 -134.729 -49.335 -176.908C876.104 676.094 821.73 669.529 774.8 686.25l-16.61 -12.602 -2.171 -4.121A352.728 352.728 0 00786.06 618.15l75.53 -2.083 15.468 -49.387 -61.016 -44.947a357.436 357.436 0 004.464 -55.827l67.73 -34.362 -7.143 -51.262 -74.737 -14.613a354.677 354.677 0 00-24.944 -62.841l44.565 -61.67 -29.802 -42.322 -73.338 21.303c-.918 -.971 -1.818 -1.953 -2.75 -2.917a361.067 361.067 0 00-37.003 -33.31l14.083 -72.532L652.33 85.526l-55.65 48.472a355.94 355.94 0 00-55.286 -17.162L523.14 45.242l-51.597 -4.226 -29.733 67.864a356.353 356.353 0 00-45.877 5.781L350.487 56.008l-49.006 16.66 -.252 74.691a353.705 353.705 0 00-59.502 38.612l-69.21 -31.183L137.068 192.5l35.428 67.223a353.024 353.024 0 00-29.726 50.95l-76.037 2.097 -15.469 49.388 61.43 45.25c-2.937 18.327 -4.423 36.844 -4.503 55.374l-68.111 34.555 7.143 51.263 74.825 14.629a355.962 355.962 0 0016.594 45.869l-49.372 61.23 27.541 43.813 76.665 -17.922a360.203 360.203 0 0015.078 16.639 365.714 365.714 0 0034.606 31.503l-14.917 76.838 44.836 25.854 58.544 -50.988a350.33 350.33 0 0051.544 16.232l19.129 75.02 51.597 4.225 30.983 -70.733a358.243 358.243 0 0063.786 -9.64l49.237 57.045 48.05 -19.248 -2.607 -52.657 30.441 23.097c-3.601 49.913 16.956 101.045 59.668 133.456C789 995.007 863.838 992.41 917.11 952.75l-109.7 -83.213c-19.357 -14.658 -23.805 -42.444 -9.741 -61.014s41.49 -20.99 60.813 -6.327zM432.671 741.744c-62.036 -6.988 -121.617 -35.012 -168.384 -83.4C157.37 547.765 160.447 371.89 271.025 265.01s286.552 -105.005 393.438 5.57c94.124 97.346 102.905 246.189 28.22 353.365L510.758 485.916C514.2 436.25 493.235 385.62 450.522 353.208c-55.547 -42.146 -130.385 -39.55 -183.657 .112l109.7 83.213c19.324 14.663 24.372 41.694 10.309 60.266 -14.063 18.57 -42.058 21.738 -61.383 7.077l-109.7 -83.213c-23.86 61.98 -6.249 134.729 49.334 176.908 42.71 32.381 97.518 38.402 144.616 21.502L554.03 728.545a279.08 279.08 0 01-121.36 13.2z"/></svg>