<svg height="1000" width="1000" xmlns="http://www.w3.org/2000/svg"><path d="M720.714 427.243h253.37l-.97 -100.893h-19.323v-97.146c-53.366 12.178 -102.356 35.64 -132.312 97.146H584.793c0 -.002 0 -.005 0 -.007l-398.28 .027c-8.767 32.034 -15.276 56.207 -21.098 75.527C125.753 377.582 27.164 311.31 27.164 311.31c13.861 72.555 46.674 130.829 94.21 177.995 -9.221 11.1 -20.65 23.508 -35.46 39.448C4.554 682.857 19.147 764.266 24.69 848.873c53.523 67.839 160.538 64.816 224.866 42.348 -2.044 -94.026 12.533 -183.742 76.846 -275.487 78.76 72.964 199.049 38.207 257.021 -25.447 25.993 -28.543 29.652 -62.21 25.48 -100.066h111.812v-62.978z"/></svg>