<svg height="1000" width="1000" xmlns="http://www.w3.org/2000/svg"><path d="M500.002 31.242S265.626 148.424 265.626 441.396V675.77c0 58.597 0 58.597 58.597 58.597H675.78c58.597 0 58.597 0 58.597 -58.597V441.396C734.377 148.425 500.002 31.242 500.002 31.242zm0 146.48s117.182 58.597 117.182 263.674v117.182H382.809V441.396c0 -205.077 117.193 -263.673 117.193 -263.673zm-209.71 644.53h419.41c13.622 0 24.675 11.041 24.675 24.674v97.141c0 13.622 -11.042 24.675 -24.675 24.675h-419.41c-13.623 0 -24.675 -11.042 -24.675 -24.675v-97.141c.01 -13.633 11.052 -24.675 24.674 -24.675z"/></svg>