<svg height="1000" width="1000" xmlns="http://www.w3.org/2000/svg"><path d="M785.895 596.87C785.881 501.838 724.69 515.71 685.968 371.3 645.911 221.907 613.017 147.25 535.372 130.343a43.302 43.302 0 003.696 -17.555c-.003 -24.034 -19.494 -43.52 -43.53 -43.525 -24.036 -.003 -43.52 19.48 -43.518 43.51a43.363 43.363 0 004.046 18.317c-75.26 18.282 -107.761 92.922 -147.197 240.15 -38.678 144.402 -99.877 130.513 -99.864 225.547 .005 26.708 30.529 48.346 78.465 63.786a48.89 48.89 0 00-1.969 13.749c.005 27.042 21.934 48.969 48.983 48.972 24.921 .003 45.476 -18.608 48.554 -42.686 35.744 4.552 74.667 6.935 114.426 6.943 150.255 .03 288.441 -33.805 288.432 -90.681zm-56.841 44.481c.265 -.28 .535 -.557 .795 -.841 -.051 .22 -.093 .432 -.146 .652l-.65 .19zM626.862 369.796C659.369 509.79 729.63 538.531 733.25 606.146l-86.423 31.134c6.076 -86.768 -65.737 -113.46 -64.66 -226.092 1.228 -128.679 -36.83 -208.85 -83.168 -242.284 77.94 7.889 110.016 124.032 127.863 200.892zm262.143 -20.064c31.109 87.825 34.532 205.14 2.017 326.484 -34.104 127.281 -99.758 230.232 -175.01 289.547h.004C818.875 924.738 907.326 825.236 942.83 692.723 977.317 564.033 953.2 436.644 889.004 349.73zm-38.76 318.86c25.524 -95.265 .748 -191.416 -57.184 -258.548 29.533 66.754 36.212 154.718 12.142 244.54 -25.245 94.22 -78.367 169.206 -141.129 211.233 87.069 -27.45 159.89 -99.137 186.17 -197.225zM664.063 865.82v.005l.012 -.01zM108.102 676.216C75.59 554.873 79.011 437.558 110.12 349.733 45.926 436.646 21.809 564.036 56.293 692.724c35.506 132.514 123.956 232.016 226.815 273.04h.005C207.862 906.45 142.208 803.5 108.1 676.218zm85.82 -21.633c-24.07 -89.822 -17.39 -177.786 12.142 -244.54 -57.932 67.132 -82.708 163.284 -57.184 258.548 26.28 98.087 99.102 169.774 186.17 197.225C272.288 823.789 219.166 748.803 193.92 654.583zm141.143 211.242v-.005l-.013 -.004z"/></svg>