<svg height="1000" width="1000" xmlns="http://www.w3.org/2000/svg"><path d="M652.63 84.588C613.41 33.288 558.44 22.44 487.73 93.15 416.907 22.326 361.911 33.208 322.705 84.585c-109.758 -2.187 -190.3 127.988 -189.438 314.44l123.114 -116.82c-4.499 34.237 -6.75 69.166 -6.75 102.562 0 9.282 .234 18.482 .694 27.589 -43.662 2.605 -74.399 43.802 -75.139 110.715 -1.017 91.78 54.771 197.161 124.608 235.38 15.783 8.637 30.928 13.091 44.937 13.773 3.943 48.936 10.228 111.68 -7.918 150.634 -21.896 47.008 53.267 52.575 61.308 8.134 24.915 41.942 88.576 3.13 53.592 -30.54l.003 .002C421.669 871.536 403.502 807.902 387.8 760.124c11.01 -7.74 20.195 -19.008 27.002 -33.399 22.988 11.16 47.492 17.21 72.93 17.21s49.942 -6.052 72.93 -17.212c6.806 14.39 15.99 25.66 27 33.399 -15.7 47.779 -33.868 111.413 -63.914 140.333h.005c-34.984 33.669 28.676 72.481 53.591 30.54 8.041 44.44 83.204 38.874 61.309 -8.134C620.508 883.907 626.792 821.163 630.736 772.226c14.007 -.682 29.155 -5.136 44.938 -13.773C745.51 720.234 801.3 614.853 800.282 523.073c-.74 -66.916 -31.477 -108.112 -75.141 -110.715a549.256 549.256 0 00.693 -27.589c0 -33.406 -2.26 -68.339 -6.768 -102.579l123.131 116.835C843.061 212.498 762.455 82.295 652.631 84.588z"/></svg>