<svg height="1000" width="1000" xmlns="http://www.w3.org/2000/svg"><path d="M958.208 450.721l-112.28 -20.732c-6.909 -13.32 -18.643 -24.181 -33.864 -29.687a62.412 62.412 0 00-5.784 -1.774L680.54 149.687c11.937 -23.956 13.455 -52.64 1.672 -78.628C661.214 24.75 605.933 4.555 558.745 25.952L89.515 217.35C32.344 243.275 6.626 309.79 32.071 365.892c10.84 23.902 29.23 42.034 51.176 53L254.118 840.2l7.239 18.414c-33.082 30.636 -53.798 74.436 -53.798 123.082h335.444c0 -92.634 -75.091 -167.724 -167.722 -167.724 -.303 0 -.605 .01 -.908 .012l-11.959 -32.859 1.871 .455 -3.272 -4.308L224.047 400.966l-.13 -1.592L600.975 210.582 733.399 435.97c-.192 .492 -.396 .978 -.577 1.477a62.342 62.342 0 00-2.445 8.708l-105.56 64.291 35.493 32.331 51.448 109.77 52.487 9.768 -21.35 -151.797 8.051 -4.855a61.728 61.728 0 0019.017 11.022c27.2 9.839 56.79 -.565 72.289 -23.477l38.455 147.623 45.873 -27.323 9.195 -107.552 4.329 .779 18.103 -56.013zM120.84 246.095c40.43 -6.689 78.625 20.66 85.314 61.097 6.688 40.428 -20.662 78.63 -61.093 85.318S66.433 371.84 59.747 331.413c-6.689 -40.428 20.662 -78.63 61.093 -85.318zM542.73 118.292C537.73 88.082 558.17 59.535 588.38 54.537c24.363 -4.03 47.628 8.483 58.349 29.322a55.055 55.055 0 011.725 3.693c.051 .12 .098 .238 .147 .357A55.717 55.717 0 01650 91.622c.013 .036 .027 .073 .04 .11a55.607 55.607 0 011.293 4.59 54.68 54.68 0 01.796 3.865c0 .002 .002 .005 .002 .007a55.357 55.357 0 01.232 16.673c-3.242 23.413 -21.338 43.022 -45.884 47.082 -.89 .147 -1.78 .27 -2.669 .372 -.284 .033 -.567 .054 -.852 .083a57.065 57.065 0 01-1.805 .16c-.338 .023 -.674 .038 -1.01 .054a54.643 54.643 0 01-1.64 .062 57.875 57.875 0 01-2.646 -.012c-.348 -.01 -.696 -.02 -1.042 -.036a51.68 51.68 0 01-1.609 -.102c-.33 -.024 -.662 -.047 -.992 -.078a55.928 55.928 0 01-1.727 -.195c-.28 -.036 -.56 -.064 -.837 -.103a51.505 51.505 0 01-2.486 -.408c-.023 -.005 -.046 -.008 -.069 -.013a55.935 55.935 0 01-2.462 -.528c-.28 -.066 -.556 -.143 -.835 -.216a61.026 61.026 0 01-1.623 -.432c-.324 -.093 -.644 -.195 -.968 -.294a57.532 57.532 0 01-1.458 -.467 56.046 56.046 0 01-3.368 -1.262 53.167 53.167 0 01-1.396 -.6c-.307 -.136 -.613 -.27 -.918 -.412a48.984 48.984 0 01-1.492 -.729c-.253 -.127 -.51 -.25 -.76 -.38a56.78 56.78 0 01-2.166 -1.19c-.01 -.006 -.022 -.011 -.031 -.017 -13.816 -8.02 -24.075 -21.922 -26.886 -38.915z"/></svg>