<svg height="1000" width="1000" xmlns="http://www.w3.org/2000/svg"><path d="M609.68 370.32C559.695 309.458 630.59 167.35 655.85 109.15h-38.538L642.74 40.385H355.265l29.323 68.764h-39.282c30.659 84.007 104.27 181.942 48.091 261.172 -58.309 82.24 -195.88 153.26 -195.88 282.939 0 167.598 135.745 304.702 303.342 304.702S805.561 820.852 805.561 653.26c0 -129.402 -131.769 -204.871 -195.882 -282.94zM500.942 908.063c-136.05 0 -246.702 -111.85 -246.702 -247.897 0 -49.94 26.011 -88.79 57.482 -123.35H693.75c30.334 34.724 55.088 74.11 55.088 123.35C748.84 796.21 636.993 908.062 500.942 908.062z"/></svg>