<svg height="1000" width="1000" xmlns="http://www.w3.org/2000/svg"><path d="M500.402 32.254C242.132 32.313 32.809 241.73 32.866 500.001c0 .07 0 .14 0 .211 .059 258.272 209.477 467.596 467.747 467.536 258.272 -.059 467.595 -209.477 467.536 -467.747 0 -.07 0 -.14 0 -.21C968.09 241.517 758.674 32.194 500.402 32.253zm-19.335 35.032L502.83 54.72l21.762 12.567v25.131l-21.762 12.568L481.067 92.417v-25.13zm-369.59 208.628l21.763 -12.568 21.763 12.568v25.13l-21.763 12.568 -21.763 -12.567v-25.131zm44.379 449.344l-21.763 12.568 -21.762 -12.568v-25.13l21.762 -12.568 21.763 12.568v25.13zm365.587 207.778l-21.763 12.567 -21.762 -12.567v-25.13l21.762 -12.568 21.763 12.567v25.131zm-20.861 -58.854C293.965 874.219 126.435 706.754 126.398 500.135c0 -.046 0 -.093 0 -.139C126.361 293.381 293.825 125.852 500.445 125.815c206.617 -.038 374.147 167.427 374.184 374.046 0 .046 0 .092 0 .14C874.666 706.616 707.2 874.144 500.582 874.18zM887.03 723.527l-21.763 12.567 -21.762 -12.567v-25.13l21.762 -12.568 21.763 12.567v25.13zm.855 -422.482l-21.762 12.567L844.36 301.045v-25.131l21.763 -12.568 21.762 12.568v25.13zM681.12 228.74C636.17 198.745 583.346 179.624 526.403 175.147v649.731c56.946 -4.477 109.766 -23.601 154.717 -53.594V228.74zM324.404 774.247c46.262 29.775 100.543 48.162 158.888 51.2v-650.87C424.945 177.612 370.664 196 324.404 225.774v548.472zm-43.11 -515.353C215.78 318.506 174.662 404.46 174.68 500.013c0 .04 0 .08 0 .12 .018 95.51 41.129 181.413 106.612 240.997V258.894zm442.938 4.196v473.843C787.112 677.518 826.353 593.35 826.338 500.012c0 -.041 0 -.08 0 -.121C826.32 406.595 787.085 322.474 724.232 263.089z"/></svg>