<svg height="1000" width="1000" xmlns="http://www.w3.org/2000/svg"><path d="M384.104 738.775l-2.154 1.106L183.698 353.887l1.71 -.879L276.75 33.81 51.154 263.094l156.08 614.132 426.055 101.24L748.883 871.899zM202.094 353.999l190.255 370.42 370.03 135.038 .626 -.577L980.572 449.803 838.202 185.055 297.612 20.202l-95.518 333.797zm250.377 140.617c9.476 -16.414 36.202 -18.727 59.693 -5.165s34.85 37.865 25.374 54.28c-9.477 16.414 -36.205 18.725 -59.694 5.165s-34.849 -37.865 -25.373 -54.28zm340.997 -4.44C806.495 427.04 805.778 364.42 776.202 302.913c75.477 33.656 104.297 130.373 17.266 187.265zm-31.234 -27.474v.005C707.347 330.117 581.425 203.435 439.327 237.127c-122.874 29.132 -10.116 156.77 128.339 190.49 152.916 37.239 329.06 162.377 212.505 285.637C672.599 827.018 469.845 717.218 486.284 581.19c34.815 63.645 159.447 166.9 235.347 84.698C828.017 550.677 570.055 483.485 483.209 445.771 393.814 406.958 212.358 278.065 325.103 186.236c167.32 -136.272 471.382 58.423 437.13 276.466zM498.736 373.108C386.128 290.412 439.376 245.906 548.498 265.989c-49.434 22.185 -59.075 60.754 -49.762 107.119z"/></svg>