<svg height="1000" width="1000" xmlns="http://www.w3.org/2000/svg"><path d="M789.742 64.123L171.566 279.551l36.913 652.401L826.653 716.525 789.741 64.123zm-36.325 23.47C627.633 199.49 314.396 365.823 179.751 280.11L753.417 87.593zM179.063 292.216c128.985 63.452 98.48 361.193 37.582 603.643L179.063 292.216zm63.012 617.311l90.48 -146.353L563.76 684.953C492.224 762.445 350.168 856.222 242.075 909.528zm85.61 -155.623L306.64 369.649 670.47 242.122l21.047 384.255L327.686 753.904zM694.019 487.612L677.925 244.186 778.631 104.663C770.68 224.868 738.31 391.92 694.018 487.612zm-137.104 62.91c-41.537 -2.945 -70.942 -43.354 -65.674 -90.253s43.212 -82.533 84.749 -79.589a65.935 65.935 0 0119.837 4.552c-3.193 -31.161 -11.069 -61.938 -23.743 -90.389h-.002l-253.017 85.798 17.218 266.784c112.103 25.272 189.353 -22.439 229.347 -96.868a67.265 67.265 0 01-8.714 -.036z"/></svg>