<svg height="1000" width="1000" xmlns="http://www.w3.org/2000/svg"><path d="M712.814 728.687l-3.935 -5.888 34.594 -21.99 -92.28 -145.18 -37.932 24.112 -16.28 -24.355c25.536 -22.72 42.869 -54.45 47.013 -90.207l126.621 184.409L965.75 590.694 619.197 85.986l-195.134 58.893 113.365 165.102a143.202 143.202 0 00-35.448 -4.433c-59.848 0 -111.097 36.774 -132.413 88.956L241.61 208.145 46.474 267.04l346.551 504.71L588.16 712.854 504.82 591.485c27.752 -.542 53.562 -8.99 75.28 -23.185l15.255 22.822 -32.063 20.382 92.28 145.18 35.403 -22.505 3.754 5.615c-31.638 22.994 -53.762 59.424 -60.628 100.834L822.525 722.736c-40.613 -13.997 -78.543 -9.992 -109.712 5.951zm93.133 103.147c0 19.934 -16.159 36.093 -36.093 36.093s-36.092 -16.16 -36.092 -36.093c0 -19.933 16.159 -36.092 36.092 -36.092s36.093 16.159 36.093 36.092z"/></svg>