<svg height="1000" width="1000" xmlns="http://www.w3.org/2000/svg"><path d="M295.84 97.054h94.697c8.312 0 15.049 8.686 15.049 19.404v136.686c0 10.716 -6.737 19.405 -15.049 19.405H295.84c-8.311 0 -15.049 -8.687 -15.049 -19.405V116.458c0 -10.718 6.738 -19.404 15.05 -19.404zm390.537 356.838l249.591 249.591H811.173v249.591H561.582V703.483H436.786L686.377 453.892zM544.452 774h-322.16c-8.615 0 -15.6 -6.983 -15.6 -15.6V399.613c0 -8.616 6.983 -15.6 15.6 -15.6h553.782c8.615 0 15.6 6.983 15.6 15.6v137.552l97.498 97.497V220.218c0 -8.638 -131.754 -140.396 -140.397 -140.396h-148.16c5.272 2.146 8.954 6.983 8.954 12.616v193.16c0 7.625 -6.738 13.806 -15.049 13.806H263.45c-8.311 0 -15.048 -6.18 -15.048 -13.806V92.438c0 -5.633 3.681 -10.47 8.954 -12.616H124.795a15.567 15.567 0 00-15.6 15.6v748.775c0 8.642 6.957 15.6 15.6 15.6H544.45V774zm283.85 -58.282v144.078h45.269c8.643 0 15.6 -6.958 15.6 -15.6v-128.48l-60.868 .002z"/></svg>