<svg height="1000" width="1000" xmlns="http://www.w3.org/2000/svg"><path d="M726.09 910.05c-25.958 0 -48.786 -2.734 -68.88 -7.782 -27.592 -9.788 -51.932 -21.37 -81.655 -62.205a163.372 163.372 0 01-7.968 -11.968l-1.676 -2.8C538.343 777.866 532.02 715.334 528.833 656.861l-.42 -15.508V191.655c0 -14.484 -1.844 -29.404 -8.135 -42.856 -4.864 -8.194 -11.297 -8.806 -16.295 -6.315 -6.433 3.205 -14.433 13.302 -15.716 33.538 1.845 141.762 -3.102 343.23 -5.141 480.84h-151.91V191.662c0 -14.484 -1.83 -29.404 -8.127 -42.856 -5.041 -8.48 -11.783 -8.958 -17.168 -5.845 -6.893 3.992 -15.021 15.825 -15.021 38.621 1.19 154.635 -2.927 321.373 -5.234 475.279h-151.9V191.663c0 -41.674 -17.26 -77.468 -70.926 -77.678l-16.421 -.067C80.387 75.23 114.175 58.607 168.799 58.607c35.19 0 68.084 13.94 90.82 37.666l3.69 -3.338 4.32 -3.716c32.7 -25.21 70.188 -30.603 98.602 -30.603 35.141 0 67.976 13.897 90.711 37.547l3.557 -3.22 4.32 -3.716c32.725 -25.21 70.188 -30.604 98.627 -30.604 64.419 0 120.745 46.621 121.977 113.9 .318 17.244 .486 37.121 .52 58.834 0 122.17 -5.433 463.47 -1.391 487.885l1.954 10.81c1.015 5.023 2.088 9.805 3.263 14.392 19.072 73.518 46.63 90.393 96.666 89.303 22.342 -2.012 42.245 -10.298 57.725 -19.114l-32.18 -57.936 142.039 4.62 -56.586 151.265c-.427 -1.695 -12.119 -23.282 -26.745 -49.892 -13.212 17.319 -49.786 47.36 -144.598 47.36z"/></svg>