<svg height="1000" width="1000" xmlns="http://www.w3.org/2000/svg"><path d="M834.151 746.181H695.7l-1.323 -2.362c.49 -84.65 33.397 -171.258 95.912 -239.562 46.71 -51.036 81.982 -118.204 100.056 -184.93L809.936 270.7l74.623 -13.468L799.99 206.911l101.644 -17.26C891.434 113.345 845.396 56.837 750.767 56.837 658.418 74.781 395.339 80.258 259.243 62.62c-17.25 -5.616 -34.628 -8.921 -51.58 -9.503 -.125 -.034 -.26 -.066 -.384 -.1 .072 .032 .141 .064 .214 .096C163.245 51.646 121.933 68.767 93.52 111.937c-39.466 59.968 2.555 162.902 95.195 162.902 5.234 0 10.013 -.283 14.382 -.813v.716h115.69c-17.5 70.517 -60.898 148.958 -111.16 228.001a551.13 551.13 0 00-12.28 20.28l68.024 69.687 -109.717 18.377c-63.817 167.627 -53.462 355.03 94.143 355.03v-.002l15.268 .108v.228h167.162v-.304h440.53c132.802 .002 151.03 -219.967 -36.607 -219.967zm-392.475 105.78c-.003 -.913 -.03 -1.844 -.054 -2.77 .024 .928 .05 1.859 .054 2.77zm-4.284 -34.949c.027 .116 .046 .227 .073 .343 -.027 -.114 -.046 -.226 -.073 -.34C432.144 793.876 417.1 774.58 397.454 762.159h.007c19.642 12.422 34.683 31.715 39.931 54.854zm4.116 28.952zm-.449 -6.236zm-.747 -6.526c-.122 -.902 -.236 -1.8 -.375 -2.715 .141 .915 .255 1.814 .375 2.715zm-1.087 -6.975c-.14 -.795 -.262 -1.577 -.416 -2.38 .154 .803 .276 1.586 .416 2.38zM231.034 263.547c27.374 -23.312 -1.12 -78.421 -33.909 -124.26H310.16c18.893 36.467 20.835 78.575 11.202 124.26h-90.327zm87.11 510.011c50.573 -16.81 107.88 15.314 119.248 65.442 1.945 8.576 3.193 16.661 3.82 24.299 .073 -.798 .11 -1.623 .166 -2.433 -1.261 18.085 -6.633 33.14 -15.237 45.607h-1.01a74.904 74.904 0 01-2.99 4.007l1.577 -.69c-14.455 18.904 -36.66 31.532 -63.057 39.683h-27.445l1.336 -.586c-28.92 -.008 -62.121 -2.733 -62.121 -2.733 42.895 -.686 61.388 -18.841 68.423 -39.646 -30.565 11.11 -63.139 -8.86 -73.385 -38.344 -13.829 -39.793 12.209 -81.82 50.677 -94.606zm123.495 81.496c-.018 .897 -.027 1.803 -.064 2.685 .037 -.883 .044 -1.788 .064 -2.685zm-17.793 54.562z"/></svg>