<svg height="1000" width="1000" xmlns="http://www.w3.org/2000/svg"><path d="M949.076 249.561C845.53 -11.949 501.222 29.631 176.652 113.57v.003c-6.767 66.452 4.333 134.382 27.348 203.3C353.27 148.077 767.6 87.375 949.076 249.56zM128.012 119.791v.01l-73.581 18.667c11.001 152.16 55.632 258.164 117.834 340.215 -32.25 20.168 -79.355 38.33 -134.097 52.303 11.046 12.864 27.744 31.523 59.487 36.107 48.437 -8.444 77.814 -29.21 104.795 -51.844 148.66 166.063 370.958 231.963 493.63 437.24l96.354 -.255C567.391 536.846 157.952 711.34 128.012 119.791z"/></svg>