<svg height="1000" width="1000" xmlns="http://www.w3.org/2000/svg"><path d="M915.757 415.227L956.53 296.943c-56.44 -24.41 -101.825 -51.848 -138.654 -85.522 2.477 -55.075 -20.78 -110.155 -66.111 -165.236 1.472 26.888 1.173 53.778 -3.107 80.669C684.53 45.754 580.577 15.467 489.475 65.136c68.216 -4.951 128.163 15.946 144.922 66.127C383.147 98.447 127.049 352.337 572.638 609.408c120.907 69.76 37.776 249.192 -203.412 146.433C47.776 618.89 71.125 364.33 186.903 231.151c14.287 24.046 26.16 51.072 36.927 79.467 37.178 -94.76 109.942 -133.81 182.492 -173.177C304.542 89.513 207.392 108.64 112.05 153.855c20.22 11.209 37.254 26.35 51.985 44.337C-57.376 330.64 12.37 744.904 303.249 912.845c370.198 213.737 808.835 -257.858 405.922 -411.56C419.405 390.746 488.58 234.437 627.013 253.954l-11.139 77.712 299.88 83.559z"/></svg>