<svg height="1000" width="1000" xmlns="http://www.w3.org/2000/svg"><path d="M728.096 719.836c158.102 -70.591 267.53 -240.4 207.091 -465.953C884.117 63.286 776.195 48.143 671.694 149.713c-46.377 45.077 -138.83 42.62 -153.112 109.523 221.3 -88.807 269.169 63.34 98.569 91.225C386.77 388.114 278.303 673.178 41.322 679.012h-.005c32.304 40.027 147.352 80.241 286.265 93.694l90.938 157.342c-16.408 8.468 -31.467 19.763 -44.202 34.195h447.655C788.842 920.985 713.507 899.705 646.34 915.018L560.99 767.342c58.053 -8.931 114.949 -24.218 167.109 -47.507zm-9.66 -529.1c0 -14.404 11.678 -26.082 26.082 -26.082s26.082 11.677 26.082 26.082c.002 14.405 -11.677 26.082 -26.082 26.082s-26.082 -11.676 -26.082 -26.082zm-102.29 733.982a164.236 164.236 0 00-17.318 8.562C557.503 910.044 499.07 902.733 447.546 918.326l-82.47 -142.69c52.671 3.133 107.878 2.296 162.67 -3.872l88.402 152.954z"/></svg>