<svg height="1000" width="1000" xmlns="http://www.w3.org/2000/svg"><path d="M502.994 39.418C290.175 174.615 136.144 547.242 136.144 982.725h731.818c0 -435.483 -152.151 -808.11 -364.968 -943.307zM294.705 514.113l35.803 29.935 -12.266 -68.685c14.374 -21.41 29.68 -40.37 45.774 -56.586l37.523 53.383 7.7 -90.277c18.348 -11.64 37.423 -19.902 57.05 -24.467l35.76 70.69 35.76 -70.695c19.498 4.535 38.451 12.722 56.686 24.24l8.075 94.67L641.8 420.507c15.47 15.83 30.202 34.204 44.066 54.855l-12.265 68.686 35.804 -29.937c47.6 86.433 82.107 202.139 96.679 333.264C786.523 784.585 754.255 729.43 713.112 686.57l7.828 -69.83 -49.995 32.576C659.049 640.48 646.65 632.548 633.815 625.6l-6.493 -79.87 -51.268 56.272a270.97 270.97 0 00-43.778 -8.623l-30.24 -64.822 -30.241 64.825a271.435 271.435 0 00-46.571 9.435l-48.438 -53.166 -6.16 75.769c-12.954 6.99 -25.462 14.98 -37.46 23.893l-49.993 -32.576L291 686.564c-41.136 42.854 -73.403 97.997 -92.967 160.774 14.57 -131.106 49.077 -246.8 96.671 -333.225z"/></svg>