<svg height="1000" width="1000" xmlns="http://www.w3.org/2000/svg"><path d="M954.511 218.82c-10.316 -17.086 -40.625 -24.702 -50.185 -32.66 -29.889 -24.876 -96.307 -45.18 -152.893 12.987l-.007 -.007c-7.302 6.396 -13.586 11.07 -19.18 15.082 -20.308 -22.377 -47.65 -25.025 -73.458 -25.117 -29.423 -.096 -68.618 16.847 -78.817 44.285C573.99 203.64 531.088 189.78 500.957 189.442c-30.69 -.342 -69.944 22.102 -81.447 42.939 -10.331 -33.574 -52.142 -49.299 -81.514 -47.65 -30.744 1.728 -71.64 23.994 -82.267 59.295 -58.282 -31.768 -114.4 -14.892 -152.31 19.5C27.277 332.607 9.2 446.43 34.765 564.225c14.858 68.443 41.182 113.213 90.831 135.11l.04 -.02c11.652 5.136 21.627 10.537 31.693 14.07L123.724 873.54c11.76 28.587 38.384 27.436 74.036 8.227L263.322 698.59c9.691 13.482 19.34 23.865 29.03 31.805l4.215 130.941c36.319 37.439 55.298 15.153 74.08 -7.8l-9.562 -100.101c5.815 -.114 11.706 -.558 17.691 -1.24 38.45 -4.375 79.83 -30.733 99.334 -84.061 22.065 51.725 53.472 60.467 88.176 61.79 19.133 .734 38.79 .866 54.496 -14.4l26.231 157.824c34.046 26.81 55.409 12.308 73.19 -13.866L703.198 718.005c2.891 -.552 5.795 -1.153 8.711 -1.732 8.475 -1.682 16.542 -3.355 24.108 -6.061l39.042 146.017c30.274 7.008 57.838 7.993 70.373 -24.423L784.77 651.344c32.557 22.62 71.344 -1.635 92.183 -28.343 34.047 -43.652 33.586 -108.86 27.897 -170.357 2.112 -1.447 3.98 -3.075 5.52 -4.915 15.376 -17.8 24.409 -80.983 25.39 -115.943 .495 20.274 10.838 46.216 33.304 43.595C1009.13 365.496 981.606 263.686 954.51 218.82zm-55.657 177.778c-1.718 4.372 -4.284 8.5 -7.42 12.233 -.141 .166 -.281 .331 -.424 .497a55.745 55.745 0 01-1.153 1.301c-.143 .157 -.294 .307 -.44 .462a55.547 55.547 0 01-2.002 2.012 46.888 46.888 0 01-1.871 1.71 51.305 51.305 0 01-1.171 .988c-.265 .219 -.526 .44 -.793 .654a55.336 55.336 0 01-1.956 1.485c-.237 .173 -.478 .338 -.718 .506a62.102 62.102 0 01-1.519 1.034c-.246 .161 -.492 .323 -.74 .481a56.974 56.974 0 01-2.039 1.239c-.054 .03 -.107 .065 -.163 .097l-1.853 -44.983a38.525 38.525 0 012.192 -1.126c.145 -.068 .29 -.139 .433 -.205a35.619 35.619 0 012.149 -.912c.093 -.036 .184 -.066 .277 -.1a32.232 32.232 0 011.859 -.626c.182 -.055 .365 -.114 .547 -.165a29.71 29.71 0 011.922 -.48c.224 -.046 .443 -.082 .664 -.123a24.916 24.916 0 011.312 -.205c.256 -.033 .516 -.073 .769 -.097a19.253 19.253 0 013.28 -.049 16.257 16.257 0 011.77 .214c.146 .026 .296 .047 .442 .077 .36 .075 .713 .163 1.056 .263 .1 .03 .195 .063 .29 .093 .65 .205 1.268 .455 1.85 .753 .075 .038 .151 .074 .226 .113a10.87 10.87 0 01.936 .564c2.863 1.948 4.661 5.241 4.689 10.046 .026 4.209 -.859 8.324 -2.402 12.251zm-70.8 -5.48c-1.3 -14.707 12.769 -18.146 24.906 -12.466v-.003l7.334 43.902c-11.701 -7.163 -30.09 -7.11 -32.24 -31.432zm-4.44 -92.194c.001 8.175 -6.865 14.805 -15.335 14.805s-15.334 -6.63 -15.334 -14.805c0 -8.178 6.866 -14.806 15.334 -14.806s15.334 6.63 15.334 14.806zm88.693 8.199c-8.47 0 -15.334 -6.63 -15.334 -14.806s6.866 -14.806 15.334 -14.806 15.334 6.63 15.334 14.806c0 8.176 -6.864 14.806 -15.334 14.806z"/></svg>