<svg height="1000" width="1000" xmlns="http://www.w3.org/2000/svg"><path d="M951.827 381.086c-9.214 -34.381 -44.552 -54.784 -78.934 -45.57 -21.931 5.877 -38.158 22.389 -44.656 42.498L664.615 333.47 620.247 170.491c20.356 -6.377 37.117 -22.698 43.047 -44.829C672.508 91.28 652.107 55.942 617.723 46.73S548.003 57.916 538.79 92.3c-5.97 22.272 .5 44.936 15.136 60.65L434.194 271.73 270.02 228.44c4.517 -20.724 -1.263 -43.24 -17.375 -59.352 -25.17 -25.17 -65.974 -25.17 -91.143 0s-25.17 65.973 0 91.143c16.537 16.537 39.824 22.207 60.99 17.013l43.022 163.16L144.979 561.902c-15.71 -14.613 -38.357 -21.07 -60.611 -15.106 -34.382 9.214 -54.784 44.55 -45.571 78.933 9.214 34.382 44.551 54.784 78.933 45.572 22.886 -6.134 39.565 -23.847 45.45 -45.144l164.07 44.667 44.832 164.688c-21.049 6.021 -38.504 22.613 -44.584 45.302 -9.214 34.383 11.188 69.72 45.571 78.933 34.382 9.212 69.72 -11.19 78.934 -45.571 6.042 -22.548 -.653 -45.506 -15.674 -61.236L557.667 732.562l164.22 43.304c-5.456 21.329 .151 44.905 16.85 61.601 25.17 25.17 65.973 25.17 91.143 0s25.17 -65.972 0 -91.141c-16.275 -16.275 -39.08 -22.01 -59.974 -17.24l-43.56 -165.2L844.98 444.309c15.733 15.046 38.71 21.757 61.275 15.71 34.383 -9.214 54.786 -44.55 45.572 -78.934zm-508.48 312.125C335.109 664.209 270.877 552.955 299.877 444.722 320.701 367.006 383.934 311.977 458.01 297.861c-47.903 22.137 -85.992 64.586 -100.718 119.542 -26.323 98.24 31.978 199.22 130.22 225.542 75.465 20.22 152.538 -9.497 196.155 -68.887C645.636 667.36 543.21 719.968 443.347 693.21z"/></svg>