<svg height="1000" width="1000" xmlns="http://www.w3.org/2000/svg"><path d="M495.086 48.707C249.023 48.707 49.552 248.18 49.552 494.241s199.47 445.534 445.534 445.534S940.62 740.303 940.62 494.241 741.148 48.707 495.086 48.707zm-.012 827.403c-212.547 0 -384.848 -172.304 -384.848 -384.848S282.528 106.414 495.074 106.414s384.848 172.302 384.848 384.848S707.62 876.11 495.074 876.11zm44.238 -721.546h-88.494l-55.98 352.271 -160.94 49.442v99.365h155.19l35.914 35.553h-38.066v81.27H603.19v-81.27h-38.06l35.912 -35.553h155.19v-99.365l-160.94 -49.44 -55.98 -352.273zm6.027 314.739H444.787c0 -194.272 100.552 -194.017 100.552 0z"/></svg>