<svg height="1000" width="1000" xmlns="http://www.w3.org/2000/svg"><path d="M850.84 653.67L656.793 601.676c6.373 -69.371 -.014 -148.292 -37.663 -222.184C613.513 185.906 677.485 5.689 832.717 47.284c170.87 45.822 152.018 434.381 18.124 606.387zm-12.776 81.835C827.344 1109.665 447.077 938.54 640.63 682.602l197.434 52.903zm-680 -81.809L352.112 601.7c-6.373 -69.37 .015 -148.292 37.663 -222.184C395.392 185.932 331.42 5.714 176.188 47.31 5.31 93.097 24.161 481.656 158.064 653.696zm12.813 81.825c10.729 374.194 390.988 203.034 197.435 -52.903L170.877 735.52z"/></svg>