<svg height="1000" width="1000" xmlns="http://www.w3.org/2000/svg"><path d="M846.197 632.307c-20.576 58.404 -47.827 120.02 -167.16 7.628 94.73 -87.773 170.035 -170.595 171.756 -291.22C854.219 108.58 577.952 67.565 476.629 264.265 410.55 134.974 287.319 116.648 201.23 173.715L50.333 26.452H17.274v77.98l128.202 125.097c-23.62 35.232 -38.419 80.17 -39.143 132.839l-.003 .005c-3.299 239.653 293.314 293.66 317.7 545.037C482.606 821.553 553.47 754.454 620.487 693.37c89.15 91.391 75.63 126.323 -5.705 164.486 93.644 62.423 239.934 120.01 361.2 127.17C981.268 862.911 914.09 726.055 846.198 632.306z"/></svg>