<svg height="1000" width="1000" xmlns="http://www.w3.org/2000/svg"><path d="M265.617 89.833v585.935c0 58.595 0 58.595 58.595 58.595H675.77c58.594 0 58.594 0 58.594 -58.595V89.833c0 -58.594 0 -58.594 -58.594 -58.594H324.212c-58.595 0 -58.595 0 -58.595 58.594zm117.19 58.595h234.378v410.151H382.807V148.428zm-91.144 673.821h416.665c14.38 0 26.046 11.657 26.046 26.046v94.4c0 14.38 -11.656 26.046 -26.046 26.046H291.663c-14.379 0 -26.046 -11.656 -26.046 -26.046v-94.4c0 -14.39 11.667 -26.046 26.046 -26.046z"/></svg>