<svg height="1000" width="1000" xmlns="http://www.w3.org/2000/svg"><path d="M807.03 389.086h-.003c-27.226 32.161 -105.293 66.446 -197.014 95.176 -3.367 -34.886 -8.008 -64.516 -12.467 -80.944 -11.725 -8.643 -32.122 -10.513 -55.55 -8.012L442.608 30.363l-103.627 .005 106.69 392.52c-23.062 10.614 -41.027 22.603 -46.983 33.033 4.374 16.114 15.033 43.32 29.36 74.433 -96.472 19.039 -182.434 27.1 -217.748 15.887 53.798 198.214 139.67 342.663 234.591 421.355h313.17c92.127 -102.54 121.268 -312.122 48.97 -578.51z"/></svg>