<svg height="1000" width="1000" xmlns="http://www.w3.org/2000/svg"><path d="M632.439 256.802c-7.733 32.809 -37.18 57.238 -72.35 57.238 -41.062 0 -74.353 -33.29 -74.353 -74.35a74.325 74.325 0 013.047 -21.071L243.438 69.3l6.63 286.613c31.76 8.462 55.162 37.413 55.162 71.836 0 41.062 -33.29 74.35 -74.353 74.35a74.333 74.333 0 01-19.32 -2.551L62.551 744.376l278.795 -6.448c7.824 -32.681 37.212 -56.985 72.292 -56.985 41.061 0 74.352 33.29 74.352 74.35 0 5.801 -.687 11.438 -1.943 16.857l251.581 153.114 -6.248 -270.11c-35.326 -5.765 -62.297 -36.41 -62.297 -73.365 0 -41.061 33.29 -74.35 74.353 -74.35 5.948 0 11.725 .72 17.27 2.037l157.81 -259.292 -286.08 6.617zm-66.321 371.4c-72.299 41.743 -164.744 16.97 -206.484 -55.328C317.89 500.572 342.66 408.13 414.96 366.39c72.299 -41.742 164.74 -16.972 206.484 55.33 41.742 72.299 16.972 164.74 -55.326 206.483z"/></svg>