<svg height="1000" width="1000" xmlns="http://www.w3.org/2000/svg"><path d="M222.34 690.583c-38.114 3.525 -53.168 24.362 -57.51 50.399l106.218 101.805 1.526 1.596 .07 -.068 14.27 13.676c35.537 -3.265 56.291 -20.187 52.364 -51.642L222.34 690.583zM59.285 868.28c-32.635 52.643 28.677 119.309 99.654 87.057l99.626 -97.28L171.066 766.45 59.285 868.28zM502.204 49.034C1190.843 588.91 535.22 846.36 330.88 620.859l-82.07 74.765 84.987 88.977 4.14 -4.044C762.715 1161.892 1382.304 302.402 502.205 49.034z"/></svg>