<svg height="1000" width="1000" xmlns="http://www.w3.org/2000/svg"><path d="M499.981 57.515c-90.248 0 -174.76 26.876 -244.759 73.294l129.967 129.967c72.221 -34.536 157.286 -34.536 229.544 0L744.7 130.81C674.74 84.426 590.268 57.515 499.982 57.515zm-369.174 197.71c-46.42 70 -73.293 154.472 -73.293 244.721 0 90.248 26.875 174.76 73.293 244.76L260.775 614.738c-34.537 -72.22 -34.537 -157.287 0 -229.543L130.807 255.225zm738.383 0L739.223 385.191c34.537 72.22 34.537 157.323 0 229.543L869.19 744.703c46.42 -70 73.296 -154.473 73.296 -244.76C942.449 409.738 915.573 325.226 869.19 255.226zM385.227 739.225L255.259 869.194c70 46.382 154.473 73.293 244.76 73.293 90.247 0 174.759 -26.876 244.721 -73.293L614.773 739.226c-72.26 34.537 -157.327 34.537 -229.547 0zM632.724 500.06c0 73.293 -59.413 132.745 -132.745 132.745 -73.294 0 -132.745 -59.412 -132.745 -132.745 0 -73.294 59.413 -132.745 132.745 -132.745s132.745 59.412 132.745 132.745z"/></svg>