<svg height="1000" width="1000" xmlns="http://www.w3.org/2000/svg"><path d="M499.984 31.245c-234.383 0 -468.742 117.18 -468.742 292.962 0 117.179 87.89 175.781 87.89 292.96 0 87.891 -29.288 87.891 -29.288 146.494 0 29.289 93.773 62.498 175.781 87.89v117.18h468.767V851.55s176.884 -54.607 175.781 -87.89C908.36 709.078 880.884 705.058 880.884 617.168c0 -58.603 89.14 -178.551 87.89 -292.961C968.727 148.425 734.368 31.245 499.985 31.245zM324.202 382.784c64.73 0 117.18 52.474 117.18 117.179 0 64.73 -52.475 117.18 -117.18 117.18s-117.18 -52.475 -117.18 -117.18c0 -64.705 52.475 -117.18 117.18 -117.18zm351.563 0c64.73 0 117.18 52.474 117.18 117.179 0 64.73 -52.475 117.18 -117.18 117.18s-117.18 -52.475 -117.18 -117.18c0 -64.705 52.475 -117.18 117.18 -117.18zm-175.78 205.094c29.288 0 87.89 117.18 87.89 146.493 0 58.602 0 58.602 -29.29 58.602H441.406c-29.289 0 -29.289 0 -29.289 -58.602 -.024 -29.314 58.577 -146.493 87.866 -146.493z"/></svg>