<svg height="1000" width="1000" xmlns="http://www.w3.org/2000/svg"><path d="M920.927 682.105C1026.276 499.643 938.29 251.615 725.828 128.95 513.367 6.29 255.725 54.765 150.38 237.232c-10.184 17.638 -17.216 35.915 -23.866 54.599C238.203 138.43 427.768 79.159 569.522 161c153.698 88.734 192.374 308.583 86.586 491.818C605.694 740.14 531.59 803.013 451.07 835.571c185.987 57.053 381.6 -.6 469.857 -153.465zM637.514 265.527C545.208 126.983 345.053 122.63 191.491 254.926 37.929 387.225 -11.74 606.794 80.573 745.342c8.923 13.394 19.305 24.47 30.095 35.364C40.539 645.824 60.734 477.194 163.195 388.924 274.286 293.218 439 328.358 531.693 467.491c44.176 66.304 63.771 144.127 60.302 217.969C691.576 554.557 714.853 381.6 637.52 265.526l-.005 .002zM163.887 426.43c-95.25 94.669 -93.314 277.26 2.23 401.568s250.22 148.338 345.47 53.671C419.728 939.473 346.073 932.945 260.473 840.88 183.55 758.145 212.829 601.426 308.48 506.36c45.582 -45.305 99.698 -69.83 151.464 -73.503 -81.228 -83.32 -216.26 -85.735 -296.056 -6.428z"/></svg>