<svg height="1000" width="1000" xmlns="http://www.w3.org/2000/svg"><path d="M478.615 30.301c66.969 95.343 -45.969 626.057 -176.374 267.029C208.584 634.984 76.087 649.453 75.93 493.267 -63.913 648.172 161.522 924.45 246.584 969.7h101.813C258.71 891.545 198.429 817.358 187.899 704.14c92.405 18.407 140.342 40.938 158.717 -121.186C465.24 752.078 543.771 486.518 614.552 373.737c-3.219 78.75 -6.531 182.529 44.624 253.686 17.063 23.718 64.905 31.468 106.905 30.874 -19.374 31.405 -87.593 135.5 -33.219 174.217 54.374 38.719 64.593 -.75 50.5 31.593 -25.905 40.78 -44.905 76.905 -115.373 105.592h109.5C893.58 933.136 995.858 790.67 962.266 704.982c-43 36.437 -85.5 60.343 -119.717 57.687C938.486 621.89 916.455 477.702 871.362 330.36c-39.5 141.374 -65.405 161.124 -106.592 194.373C821.612 390.641 597.896 105.893 478.617 30.298z"/></svg>