<svg height="1000" width="1000" xmlns="http://www.w3.org/2000/svg"><path d="M38.151 875.79l.003 -.007h-.005zM936.776 191.943c-20.147 0 -36.481 16.334 -36.481 36.482 0 4.082 .68 8 1.917 11.664 -52.132 20.38 -41.69 119.197 -34.258 212.074 -29.229 26.239 -62.646 22.883 -92.226 -15.934 -3.683 -97.122 -28.394 -223.902 18.108 -261.656a36.556 36.556 0 00-.645 6.81c0 20.146 16.333 36.481 36.482 36.481s36.481 -16.334 36.481 -36.481c0 -20.147 -16.333 -36.482 -36.481 -36.482 -13.979 0 -26.116 7.867 -32.241 19.412 -72.19 11.42 -49.795 141.61 -43.007 248.794 -3.445 56.5 -16.827 107.626 -37.023 151.125C701.748 448.347 633.727 343.378 570.746 290.542 448.802 188.23 277.732 198.035 158.878 303.957S34.625 604.53 139.89 722.383c16.597 16.53 35.647 29.418 56.243 38.738C120.408 792.332 62.343 834.03 38.155 875.784h627.239c191.03 0 261.875 -189.916 224.058 -405.624C883 382.666 869.956 284.805 907.158 249.713c6.623 9.199 17.418 15.194 29.618 15.194 20.148 0 36.481 -16.334 36.481 -36.481s-16.334 -36.482 -36.481 -36.482z"/></svg>