<svg height="1000" width="1000" xmlns="http://www.w3.org/2000/svg"><path d="M778.348 207.024V89.866c0 -29.289 0 -58.602 -29.29 -58.602l-58.627 .002c-29.29 0 -29.29 29.289 -29.29 58.602v117.155c-16.2 0 -29.313 13.115 -29.288 29.29v58.602c0 16.176 13.112 29.289 29.289 29.289V734.4c0 64.73 -52.476 117.181 -117.181 117.181S426.779 799.106 426.779 734.4c0 0 29.29 -29.29 29.29 -58.602s87.892 -58.603 87.892 -87.893c0 -29.289 -29.29 -29.289 -29.29 -29.289S426.78 646.51 368.178 646.51 221.682 558.616 221.682 558.616s-29.289 0 -29.289 29.29 87.892 58.602 87.892 87.892c0 29.289 29.29 58.602 29.29 58.602 0 129.436 104.926 234.387 234.386 234.387 129.437 0 234.388 -104.926 234.388 -234.387V324.202c16.165 -.013 29.264 -13.12 29.264 -29.287v-58.603c0 -16.168 -13.1 -29.274 -29.264 -29.287z"/></svg>