<svg height="1000" width="1000" xmlns="http://www.w3.org/2000/svg"><path d="M929.039 478.724l27.62 -131.365 -99.953 -89.603L729.13 299.517l-21.19 100.778C682.58 346.162 636.16 302.588 576.852 282.1l96.796 -31.685 27.62 -131.365L601.316 29.447 473.739 71.208l-27.621 131.364 75.674 67.837c-62.822 -5.429 -123.185 15.72 -168.414 55.18l20.9 -99.402 -99.954 -89.603 -127.575 41.76 -27.621 131.365 99.953 89.603 96.75 -31.67c-16.575 24.028 -28.76 51.673 -35.142 82.028 -6.518 30.992 -6.358 61.832 -.514 91.036L203.756 472.2 76.18 513.96 48.56 645.325l99.953 89.603L276.09 693.167l21.163 -100.65c25.394 54.09 71.817 97.615 131.12 118.064l-96.799 31.686 -27.62 131.365 99.953 89.603 127.576 -41.761L559.103 790.11l-75.71 -67.87c62.861 5.412 123.256 -15.785 168.486 -55.309l-20.934 99.567 99.954 89.603 127.575 -41.76 27.621 -131.365 -99.953 -89.603L689.219 625.1c16.608 -24.051 28.817 -51.73 35.209 -82.125 6.522 -31.017 6.355 -61.88 .499 -91.105l76.542 68.615L929.04 478.724zM471.6 644.122C389.973 626.959 337.717 546.876 354.88 465.249c17.163 -81.627 97.246 -133.883 178.873 -116.72s133.883 97.246 116.72 178.872C633.31 609.026 553.227 661.285 471.6 644.121zm4.921 -245.45l-71.236 71.236 26.073 97.31 97.31 26.075 71.236 -71.235L573.83 424.746z"/></svg>