<svg height="1000" width="1000" xmlns="http://www.w3.org/2000/svg"><path d="M741.441 118.762C528.67 -16.537 247.046 45.412 112.42 257.127c-.037 .058 -.076 .117 -.113 .176C-22.319 469.018 41.03 750.329 253.802 885.627s494.395 73.35 629.023 -138.365c.037 -.058 .075 -.117 .112 -.176C1017.563 535.371 954.214 254.06 741.441 118.762zM313.958 708.955l-150.388 23.83L86.177 535.713l93.39 -114.56 137.54 90.16 -3.15 197.64zM448.208 69.438l-60.284 94.853 -177.416 88.52 -52.046 -40.28C197.05 146.094 341.144 73.943 368.465 76.753c37.306 -18.628 81.262 -9.706 79.742 -7.314zm319.965 710.716L660.397 901.696l-178.311 21.48L465.989 807.633 643.68 713.721l124.492 66.433zM649.242 538.186L481.387 439.05l38.126 -195.995 186.182 .671 89.652 177.384L649.242 538.187zM802.65 185.335l-65.304 -17.349L664.52 97.546c0 -.002 127.28 59.061 138.13 87.79zm83.948 486.213l9.894 -175.863 31.938 -59.976c12.958 8.237 10.966 194.095 -26.7 251.967 -24.972 15.003 -15.132 -16.128 -15.132 -16.128z"/></svg>