<svg height="1000" width="1000" xmlns="http://www.w3.org/2000/svg"><path d="M892.66 244.426L530.548 35.36C483.395 8.137 423.097 24.294 395.872 71.448L75.352 626.606C48.127 673.76 64.286 734.058 111.44 761.283l362.112 209.065c47.153 27.225 107.451 11.066 134.676 -36.087l320.52 -555.159C955.972 331.949 939.813 271.65 892.66 244.426zM461.59 117.818c11.927 -20.657 38.341 -27.736 59 -15.81s27.736 38.343 15.81 58.998c-11.927 20.657 -38.34 27.735 -59 15.81s-27.735 -38.343 -15.81 -58.998zm78.764 773.827c-11.927 20.657 -38.34 27.735 -59 15.81s-27.735 -38.342 -15.81 -58.999c11.927 -20.657 38.341 -27.735 59 -15.81s27.736 38.341 15.81 58.999zm113.054 -303.51v-.01c-49.979 80.613 -154.581 53.92 -168.348 -33.083l-6.314 154.595L333.66 625.866l126.723 -80.225C380.756 570.562 302.844 494.473 352.53 414.424c56.77 -91.45 221.457 -68.78 266.727 -114.048 -15.166 56.591 88.503 200.099 34.15 287.759z"/></svg>