<svg height="1000" width="1000" xmlns="http://www.w3.org/2000/svg"><path d="M762.736 465.496C688.604 518.69 616.485 522.874 538.694 491.28a72.097 72.097 0 00.122 -4.043c0 -39.058 -31.665 -70.721 -70.72 -70.721a70.66 70.66 0 00-19.736 2.812L66.83 38.762l-24.24 .218 .11 58.597 361.12 360.171a70.432 70.432 0 00-6.445 29.489c0 39.055 31.663 70.72 70.72 70.72a71.17 71.17 0 0011.268 -.903c26.287 76.847 19.93 149.24 -24.607 216.421 125.14 85.114 319.332 163.645 481.386 173.41C943.202 780.388 853.466 593.32 762.735 465.497z"/></svg>