<svg height="1000" width="1000" xmlns="http://www.w3.org/2000/svg"><path d="M495.56 129.252c-242.865 0 -439.749 145.666 -439.749 325.366 0 101.057 62.266 191.352 159.958 251.031l-27.3 206.686L385.106 769.639c35.295 6.755 72.307 10.354 110.455 10.354 242.866 0 439.75 -145.674 439.75 -325.375 0 -179.692 -196.884 -325.366 -439.75 -325.366zM306.164 535.128c24.745 0 44.81 20.06 44.81 44.81 0 24.746 -20.064 44.809 -44.81 44.809s-44.81 -20.064 -44.81 -44.81 20.064 -44.809 44.81 -44.809zm188.784 89.618c-24.745 0 -44.81 -20.064 -44.81 -44.81s20.064 -44.809 44.81 -44.809c24.745 0 44.81 20.06 44.81 44.81 0 24.746 -20.064 44.809 -44.81 44.809zm194.703 0c-24.745 0 -44.81 -20.064 -44.81 -44.81s20.064 -44.809 44.81 -44.809c24.745 0 44.809 20.06 44.809 44.81 0 24.746 -20.061 44.809 -44.81 44.809z"/></svg>