<svg height="1000" width="1000" xmlns="http://www.w3.org/2000/svg"><path d="M876.15 812.612c48.64 -32.988 78.804 -78.839 78.804 -129.545C954.954 582.61 836.596 501.17 690.584 501.17S426.21 582.608 426.21 683.067s118.367 181.897 264.374 181.897c35.553 0 69.458 -4.84 100.424 -13.597l133.618 99.742L876.149 812.613zM767.165 268.498c0 -115.517 -158.985 -209.166 -355.1 -209.166S56.964 152.975 56.964 268.498c0 54.347 35.192 103.848 92.877 141.04L93.88 637.83 286.326 464.16c39.09 8.72 81.462 13.508 125.74 13.508 196.115 0 355.1 -93.647 355.1 -209.17z"/></svg>