<svg height="1000" width="1000" xmlns="http://www.w3.org/2000/svg"><path d="M684.812 415.052c0 32.378 -26.248 58.626 -58.626 58.626S567.56 447.43 567.56 415.052s26.248 -58.626 58.626 -58.626 58.626 26.248 58.626 58.626zm42.779 88.626c0 16.188 -13.123 29.312 -29.313 29.312s-29.312 -13.123 -29.312 -29.312 13.123 -29.313 29.312 -29.313 29.313 13.123 29.313 29.313zM193.342 633.333c-23.187 0 -49.75 9.781 -77.842 33.718C96.03 701.46 85.187 739.677 85.187 779.958c0 72.157 34.843 137.781 91.657 186.5a467.888 467.888 0 01-.312 -17.563c0 -91.407 39.75 -172.623 101.092 -222.811 .032 -47.345 -34.313 -92.752 -84.282 -92.752zm723.093 146.594c0 -40.281 -10.843 -78.5 -30.312 -112.907C858.06 643.083 831.497 633.302 808.28 633.302c-49.968 0 -84.312 45.407 -84.312 92.718C785.31 776.24 825.06 857.427 825.06 948.832c0 5.874 -.126 11.719 -.312 17.562 56.842 -48.686 91.686 -114.279 91.686 -186.467zM31.25 33.553v462.218c0 40 37.75 78.842 94.062 112.25 22.469 -11.843 45.438 -18.658 68 -18.658 56.687 0 104.374 39.657 121.25 94.126 3.687 .969 7.342 1.657 11 2.593 27 -19.376 51.28 -23.843 67.75 -23.843 34.28 0 64.53 18.876 82.28 47.437 8.375 .408 17 1.063 24.938 1.063 8.157 0 16.624 -.343 25.281 -.843 17.75 -28.687 48.031 -47.657 82.407 -47.657 15.781 0 38.75 4.25 64.374 21.624 5.188 -1.438 10.376 -3.031 15.593 -4.531 18 -52.313 64.78 -89.938 120.03 -89.938 20.063 0 40.438 5.343 60.532 14.75 59.592 -34.592 100 -73.03 100 -108.092V33.553H31.25zm131.874 393.218c-40.469 0 -73.281 -32.813 -73.281 -73.281s32.812 -73.281 73.28 -73.281 73.282 32.78 73.282 73.28c.002 40.47 -32.813 73.282 -73.281 73.282zm190.501 134.312c-64.719 0 -117.218 -52.5 -117.218 -117.218s52.5 -117.219 117.218 -117.219 117.219 52.469 117.219 117.219c.03 64.718 -52.47 117.218 -117.219 117.218zm293.092 0C582 561.083 529.5 508.583 529.5 443.865s52.5 -117.219 117.218 -117.219 117.219 52.469 117.219 117.219c.03 64.718 -52.47 117.218 -117.219 117.218zm190.5 -134.312c-40.469 0 -73.281 -32.813 -73.281 -73.281s32.812 -73.281 73.28 -73.281c40.47 0 73.282 32.78 73.282 73.28 0 40.47 -32.813 73.282 -73.281 73.282zM182.53 335.49c0 17.794 -14.425 32.218 -32.219 32.218S118.093 353.284 118.093 335.49c0 -17.794 14.425 -32.219 32.22 -32.219s32.218 14.425 32.218 32.219zm25.655 55.407c0 7.093 -5.75 12.843 -12.843 12.843s-12.842 -5.75 -12.842 -12.843 5.75 -12.843 12.842 -12.843 12.843 5.75 12.843 12.843zM856.624 335.49c0 17.794 -14.425 32.218 -32.219 32.218S792.186 353.284 792.186 335.49c0 -17.794 14.425 -32.219 32.22 -32.219s32.218 14.425 32.218 32.219zm25.655 55.407c0 7.093 -5.75 12.843 -12.843 12.843s-12.842 -5.75 -12.842 -12.843 5.75 -12.843 12.842 -12.843 12.843 5.75 12.843 12.843zM393.373 703.333c-15.907 0 -34.157 6.876 -53.407 23.718 -13.343 24.219 -20.813 51.124 -20.813 79.469 0 50.812 23.908 97 62.908 131.28a322.028 322.028 0 01-.22 -12.342c0 -64.343 27.282 -121.53 69.377 -156.876 0 -33.25 -23.563 -65.25 -57.845 -65.25zM682.467 806.55c0 -28.343 -7.437 -55.25 -20.812 -79.468 -19.25 -16.843 -37.47 -23.75 -53.408 -23.72 -34.28 0 -57.842 31.97 -57.842 65.282 42.093 35.343 69.374 92.5 69.374 156.876 0 4.126 -.063 8.25 -.22 12.342 39 -34.312 62.908 -80.498 62.908 -131.312zM391.749 415.052c0 32.378 -26.248 58.626 -58.626 58.626S274.497 447.43 274.497 415.052s26.248 -58.626 58.626 -58.626 58.626 26.248 58.626 58.626zm42.781 88.626c0 16.188 -13.123 29.312 -29.312 29.312s-29.313 -13.123 -29.313 -29.312 13.123 -29.313 29.313 -29.313 29.312 13.123 29.312 29.313z"/></svg>