<svg height="1000" width="1000" xmlns="http://www.w3.org/2000/svg"><path d="M18.69 865.022v118.211h114.774l215.432 -215.13L232.25 651.459zM795.466 673.785L705.033 496.932l77.232 -72.214 186.094 94.795L875.61 337.438l70.587 -66.002 -49.932 -49.931 52.072 -52L831.267 52.442l-52.032 52.032L728.7 53.939 501.275 294.116 326.353 204.67l91.037 178.036 -78.134 82.514L173.398 379.988l86.74 168.79 -63.504 67.065 184.214 184.213 66.464 -62.146 172.82 88.812L533.213 657.589l81.518 -76.222 180.734 92.418zm-71.149 -484.31c48.402 0 87.64 39.238 87.64 87.639s-39.238 87.64 -87.64 87.64c-48.4 0 -87.639 -39.239 -87.639 -87.64s39.238 -87.64 87.64 -87.64zM310.306 605.51c0 -46.969 38.075 -85.044 85.044 -85.044s85.043 38.075 85.043 85.044 -38.077 85.043 -85.043 85.043c-46.97 0 -85.044 -38.075 -85.044 -85.043zM471.188 440.8c0 -48.401 39.238 -87.64 87.64 -87.64s87.64 39.239 87.64 87.64 -39.24 87.64 -87.64 87.64 -87.64 -39.239 -87.64 -87.64zM662.144 124.23L480.6 31.754l94.132 184.788zm141.22 152.885c0 44.371 -35.97 80.34 -80.341 80.34s-80.341 -35.969 -80.341 -80.34 35.97 -80.34 80.34 -80.34 80.341 35.969 80.341 80.34zM613.913 386.22c30.175 30.175 30.305 78.97 .289 108.985s-78.81 29.887 -108.986 -.288c-30.174 -30.175 -30.304 -78.97 -.288 -108.985s78.81 -29.887 108.985 .288zm-167.05 167.048c28.734 28.735 29.018 75.041 .63 103.427s-74.691 28.103 -103.427 -.632c-28.735 -28.735 -29.018 -75.042 -.631 -103.427s74.692 -28.104 103.427 .632z"/></svg>