<svg height="1000" width="1000" xmlns="http://www.w3.org/2000/svg"><path d="M499.99 31.245c-14.436 0 -29.436 49.142 -43.945 111.274A360.632 360.632 0 00278.57 216.317C224.33 182.592 178.643 158.205 168.422 168.425c-10.196 10.196 14.24 55.71 47.893 109.852a360.877 360.877 0 00-74.093 177.745c-62.01 14.485 -110.98 29.534 -110.98 43.946 0 14.436 49.143 29.436 111.274 43.946a360.632 360.632 0 0073.799 177.475c-33.726 54.24 -58.112 99.927 -47.893 110.147 10.221 10.197 55.711 -14.24 109.853 -47.892a360.877 360.877 0 00177.744 74.093c14.486 62.01 29.51 110.98 43.947 110.98s29.436 -49.143 43.946 -111.274a360.632 360.632 0 00177.475 -73.8c54.24 33.726 99.926 58.113 110.147 47.893 10.196 -10.196 -14.24 -55.71 -47.892 -109.852A360.877 360.877 0 00857.734 543.94c62.01 -14.485 110.98 -29.534 110.98 -43.946 0 -14.436 -49.142 -29.436 -111.274 -43.946A360.632 360.632 0 00783.642 278.572c33.725 -54.24 58.112 -99.927 47.892 -110.147 -10.22 -10.196 -55.71 14.24 -109.852 47.892A360.877 360.877 0 00543.937 142.225C529.452 80.239 514.427 31.245 499.991 31.245zm6.201 252.4c117.058 3.358 210.196 99.24 210.147 216.347C716.24 619.477 619.304 716.266 499.819 716.17 380.457 716.07 283.741 619.355 283.643 499.992c-.049 -119.485 96.764 -216.397 216.25 -216.445 2.107 .024 4.215 .048 6.298 .097z"/></svg>