<svg height="1000" width="1000" xmlns="http://www.w3.org/2000/svg"><path d="M859.755 572.144c3.596 17.922 -9.862 58.15 -19.747 73.181 31.097 10.755 79.19 8.299 114.313 8.127 -17.824 -25.946 -60.026 -67.796 -94.566 -81.308zM612.57 505.492c-81.217 -150.717 54.745 -147.606 90.556 -85.581 39.411 68.265 45.77 163.888 -54.73 221.917C568.949 687.697 479.509 589.673 494.15 451.756 523.03 179.67 397.532 6.813 48.324 125.35v402.033c85.564 -172.587 249.78 -205.766 249.78 67.672 0 184.004 299.349 292.953 473.69 103.493 76.294 -82.911 93.895 -276.981 1.99 -389.1C685.028 201.172 398.926 335.1 612.571 505.49zM950.29 390.568c-25.64 -11.764 -77.348 -24.555 -110.134 -19.07 7.394 17.174 14.548 47.81 18.453 65.376 28.87 -6.027 64.735 -30.024 91.68 -46.306zM804.228 195.644v.002l.005 -.002zm0 .002c-23.399 8.886 -63.668 33.604 -80.615 57.74 15.458 6.022 39.278 20.572 52.81 29.037 14.166 -22 21.322 -59.61 27.805 -86.777zm-234.38 84.027c14.121 -8.71 40.087 -18.947 54.997 -24.647 -9.02 -24.56 -34.718 -52.94 -52.491 -74.481 -7.01 24.027 -11.558 71.061 -2.506 99.127zm2.503 -99.133l.003 .005 .002 -.005zM463.707 814.726c-.577 41.477 17.002 96.205 28.221 137.287 23.796 -27.854 57.127 -84.859 67.127 -130.55 -36.072 2.02 -67.673 -.63 -95.348 -6.737zm233.549 -31.078c14.426 41.99 87.959 78.866 136.807 106.754C830.745 848.156 808.866 769.306 776.74 734.118c-25.755 20.184 -54.528 36.876 -79.482 49.53zm-527.527 38.284c39.357 -3.092 125.31 -33.155 175.388 -70.599 -25.51 -25.487 -42.471 -54.373 -53.7 -80.435C242.982 703.896 194.376 778.76 169.73 821.932zM272.215 578.138c4.973 -42.142 -3.42 -74.718 -12.348 -95.927 -57.541 7.114 -132.035 45.219 -173.081 69.183 35.295 16.841 123.419 33.615 185.428 26.744z"/></svg>