<svg height="1000" width="1000" xmlns="http://www.w3.org/2000/svg"><path d="M887.382 778.75C1023.29 591.715 1006.935 328.452 838.275 159.79 666.195 -12.29 395.634 -25.846 208.031 119.112 180.866 87.311 154.59 55.58 131.077 25.528L30.228 126.382c30.057 23.27 61.964 49.07 94.01 75.705 -148.21 187.735 -135.703 460.875 37.58 634.158 168.095 168.095 430.151 184.893 617.068 50.463l39.824 39.822 150.802 37.557L926.938 818.303 887.383 778.75zM644.706 536.074L416.955 308.326l85.267 -85.274 -62.174 -62.18C616.509 152.07 762.7 363.344 644.706 536.073zM435.912 161.106l-101.292 101.3a11201.906 11201.906 0 01-38.102 -42.355c45.652 -37.62 93.479 -55.765 139.394 -58.945zM228.579 291.084a6525.56 6525.56 0 0141.146 36.22L164.494 432.542l64.127 64.131 80.109 -80.114 467.254 467.25C402.486 1135.219 -73.493 672.158 228.578 291.085z"/></svg>