<svg height="1000" width="1000" xmlns="http://www.w3.org/2000/svg"><path d="M945.905 76.131c-13.92 .73 -96.966 11.246 -101.608 44.92 -19.051 -5.161 -38.372 -3.51 -52.36 6.073 -10.514 7.204 -16.327 17.747 -17.565 29.581 -22.197 -5.216 -43.382 -2.964 -58.243 7.997 -12.481 9.205 -18.48 23.088 -18.43 38.864 -28.19 -6.693 -55.117 -3.883 -73.983 10.032 -13.27 9.79 -20.74 23.763 -22.755 39.819 -44.091 -12.983 -87.056 -10.14 -116.389 11.496 -23.903 17.63 -34.698 44.735 -33.228 75.36 -90.295 -23.389 -171.111 -1.4 -176.274 107.73C266.64 626.154 70.805 694.03 64.814 944.555 203.587 736.942 562.178 399.074 532.015 677.027c-15.713 144.79 -180.972 48.15 -413.24 225.141C330.277 756.234 556.133 872.413 572.138 665.296c38.95 21.362 57.005 12.233 90.153 -12.22 47.567 -35.086 52.992 -80.95 33.116 -126.994 13.601 -3.054 26.027 -8.389 36.645 -16.22 33.039 -24.37 41.039 -66.835 26.204 -111.689 14.615 -1.053 27.884 -5.362 38.564 -13.24 22.114 -16.311 28.19 -44.216 19.581 -74.08 13.968 .069 26.703 -3.35 36.615 -10.664 19.09 -14.082 23.051 -39.087 13.302 -65.107 8.713 -1.032 16.81 -3.808 23.635 -8.483 16.822 -11.527 21.635 -31.593 14.846 -51.844 34.64 -6.527 39.139 -84.995 41.108 -98.625z"/></svg>