<svg height="1000" width="1000" xmlns="http://www.w3.org/2000/svg"><path d="M31.274 324.208c97.083 0 175.784 78.7 175.784 175.783s-78.7 175.784 -175.784 175.784V324.207zM880.856 412.1s87.892 0 87.892 87.892 -87.892 87.893 -87.892 87.893L265.613 529.282V470.68l615.243 -58.578zM661.616 68.4s50.735 -29.29 80.048 21.446c29.29 50.735 -21.446 80.049 -21.446 80.049L248.87 408.203l-29.289 -50.736L661.615 68.4zm58.603 761.714s50.735 29.289 21.446 80.048c-29.289 50.735 -80.049 21.446 -80.049 21.446L219.558 642.565l29.289 -50.735 471.372 238.284zM316.37 876.658s29.29 50.736 -21.446 80.049 -80.049 -21.446 -80.049 -21.446L123.063 717.638l50.735 -29.289 142.573 188.308zM214.876 64.748S244.166 14.011 294.925 43.3s21.446 80.049 21.446 80.049L173.823 311.682l-50.735 -29.289L214.876 64.746z"/></svg>