<svg height="1000" width="1000" xmlns="http://www.w3.org/2000/svg"><path d="M386.88 545.12c0 -38.623 -34.324 -70.504 -83.727 -84.848v-30.835c-4.3 4.966 -10.602 8.119 -17.643 8.119 -12.956 0 -23.462 -10.623 -23.462 -23.716s10.506 -23.708 23.462 -23.708c7.041 0 13.343 3.15 17.643 8.114V366.25c0 -13.008 -26.684 -22.937 -59.597 -22.937s-59.594 9.92 -59.592 22.937v93.556c-49.408 13.657 -83.735 44.55 -83.735 85.314 0 3.243 .874 6.413 2.524 9.484h-2.166v429.897H386.52V554.604h-2.16c1.65 -3.072 2.524 -6.24 2.524 -9.484h-.003zM961.56 140.642C928.12 61.655 825.14 49.68 769.103 120.214 694.811 -33.834 494.434 74.404 545.901 202.136l-.002 .011c-51.15 4.58 -80.868 53.563 -74.863 98.282 20.197 61.58 66.073 87.78 120.308 88.09 -53.326 13.954 -107.66 10.79 -141.235 -34.36l-158.596 59.803 210.63 100.233C535.968 476.32 587.027 474.302 637.2 487.416c-39.074 .222 -73.8 13.903 -97.72 44.548l.574 .274a79.664 79.664 0 00-7 8.784 132.113 132.113 0 00-4.085 6.762c-24.126 45.884 22.886 92.566 71.439 82.39 -44.645 70.912 36.027 126.065 92.982 111.255 -19.589 -50.257 4.595 -97.497 42.404 -135.756 -27.492 48.248 -27.063 102.46 19.313 151.666 51.284 36.007 144.713 30.005 162.04 -55.804 13.006 14.528 41.309 25.533 55.799 27.437V136.086l-11.389 4.555zM642.555 319.843c2.625 -47.5 -6.606 -76.557 -42.771 -104.929 46.817 16.903 93.319 16.148 145.452 -14.732C693.33 244.3 664.4 259.96 642.556 319.843zm160.736 92.443c-47.963 13.615 -85.81 67.802 -67.925 122.177C675.992 480.673 725.28 396.47 783.427 388.256c-18.15 -30.695 -19.525 -71.112 14.234 -101.696 -22.553 68.567 43.51 136.851 106.734 123.835 -31.85 33.975 -72.944 26.713 -101.102 1.89z"/></svg>