<svg height="1000" width="1000" xmlns="http://www.w3.org/2000/svg"><path d="M605.798 383.902c.41 -5.523 .6 -11.047 .526 -16.562C604.828 258.62 504.042 154.78 504.042 154.78h-.002v.002s-97.793 113.602 -96.294 222.323c.018 1.274 .062 2.547 .106 3.82C316.492 261.178 187.708 198.484 27.601 198.484c0 0 .98 187.566 123.911 286.976 72.07 58.277 195.589 58.535 259.406 99.078 100.543 63.868 42.6 251.828 -62.533 396.3h316.147C558.611 835.294 501.745 647.245 603.154 583.403c64.33 -40.497 187.906 -40.117 259.405 -97.936C985.491 386.057 986.471 198.489 986.471 198.489c-180.535 0 -297.695 73.216 -380.673 185.413z"/></svg>