<svg height="1000" width="1000" xmlns="http://www.w3.org/2000/svg"><path d="M498.586 56.1C252.002 56.1 52.109 255.995 52.109 502.57s199.9 446.471 446.477 446.471 446.47 -199.887 446.47 -446.47C945.056 255.993 745.168 56.1 498.586 56.1zm1.089 862.022c-227.834 0 -412.53 -184.698 -412.53 -412.53S271.841 93.065 499.675 93.065 912.204 277.76 912.204 505.593s-184.698 412.53 -412.53 412.53zm90.588 -445.86c.703 -6.844 .11 -13.66 0 -20.497C588.89 352.086 496.882 257.033 496.882 257.028c0 0 -90.2 104.165 -88.827 203.846 .036 3.261 .903 7 1.136 10.246C348 394.824 266.271 354.962 167.766 354.962c0 0 .514 149.5 85.411 228.897 49.771 46.552 135.861 47.338 179.93 79.716 47.606 34.98 42.924 116.54 12.528 201.566 -7.358 11.959 -20.317 20.334 -35.305 20.497 -2.318 .024 -6.834 -1.137 -6.834 -1.137l99.077 33.022 93.382 -31.885c-2.22 .365 -4.516 1.137 -6.832 1.137 -17.543 0 -32.349 -10.949 -38.72 -26.195 -.146 -.326 .11 -.824 0 -1.136C521.695 776.17 518.24 696.63 565.206 662.434 609.63 630.086 695.762 630.038 745.135 583.86c84.897 -79.403 85.408 -228.897 85.41 -228.897 -109.549 0 -184.634 45.542 -240.283 117.299zM499.242 645.36C469.176 631.662 448.829 600.888 448.829 565.71s20.346 -64.943 50.413 -78.64c29.7 13.846 50.413 43.732 50.413 78.64s-20.716 65.807 -50.413 79.651z"/></svg>