<svg height="1000" width="1000" xmlns="http://www.w3.org/2000/svg"><path d="M499.22 159.9C278.892 159.9 99.94 338.75 99.94 558.956s178.953 399.058 399.28 399.058S898.502 779.159 898.502 558.957 719.549 159.899 499.22 159.899zm0 729.706c-182.16 0 -329.8 -148.59 -329.8 -330.649s147.636 -329.61 329.8 -329.61c182.16 0 329.795 147.552 329.795 329.61S681.38 889.606 499.22 889.606zm70.372 -340.832c-.112 -.616 -.209 -1.233 -.339 -1.851 -2.303 -11.003 -7 -20.894 -13.43 -29.241l92.011 -248.81 -148.769 220.61a72.453 72.453 0 00-15.347 1.528c-39.069 8.168 -64.115 46.442 -55.944 85.489 8.173 39.047 46.468 64.082 85.537 55.913 16.452 -3.44 30.403 -12.232 40.448 -24.158l254.637 39.25 -238.804 -98.73zM332.002 22.12H647.74v117.15H332V22.12z"/></svg>