<svg height="1000" width="1000" xmlns="http://www.w3.org/2000/svg"><path d="M512.388 293.333c147.155 255.873 328.126 75.912 314.308 -86.548C818.366 108.863 724.52 19.907 555.663 26.855v-.002c-11.256 .463 -23.389 2.085 -35.305 3.414C190.278 67.185 68.612 327.581 347.261 534.755c170.685 126.9 164.199 253.097 -170.82 409.967h244.843c54.582 -51.744 190.556 -32.82 230.037 -3.414C812.407 826.644 782.196 554.999 575.019 463.014 311.912 346.197 343.765 154.214 528.331 119.098c104.66 -19.915 190.856 33.36 207.26 99.077 24.187 96.875 -71.224 211.374 -223.202 75.16zM619.13 884.416c-54.7 6.594 -101.958 -12.302 -105.562 -42.202 -3.605 -29.9 37.81 -59.486 92.509 -66.08 54.7 -6.594 101.957 12.302 105.562 42.202s-37.81 59.486 -92.509 66.08zM726.86 685.485c3.52 25.547 -31.504 51.476 -78.239 57.917 -46.732 6.44 -87.466 -9.049 -90.987 -34.596s31.504 -51.476 78.238 -57.917c46.733 -6.44 87.467 9.05 90.987 34.596zM674.532 572.319c5.34 19.927 -19.878 44 -56.332 53.767 -36.453 9.768 -70.33 1.53 -75.67 -18.397s19.88 -44 56.334 -53.766c36.452 -9.769 70.329 -1.532 75.668 18.396zm-92.337 -75.967c3.907 14.58 -14.547 32.194 -41.22 39.34s-51.463 1.12 -55.37 -13.461c-3.907 -14.581 14.547 -32.195 41.22 -39.341s51.463 -1.12 55.37 13.462zM458.245 436.914c17.027 -4.562 32.851 -.714 35.346 8.594s-9.286 20.553 -26.315 25.116 -32.853 .715 -35.345 -8.593c-2.495 -9.31 9.285 -20.553 26.314 -25.117zm-43.68 -42.43c11.747 -3.149 22.666 -.492 24.387 5.928 1.72 6.422 -6.406 14.18 -18.155 17.328 -11.747 3.148 -22.666 .492 -24.387 -5.928 -1.72 -6.423 6.406 -14.18 18.155 -17.328z"/></svg>