<svg height="1000" width="1000" xmlns="http://www.w3.org/2000/svg"><path d="M496.47 388.252C512.56 328.2 683.912 251.365 680.475 141.997 677.09 34.23 550.699 6.373 496.47 100.297c-52.936 -91.681 -188.046 -67.9 -184.547 41.7C315.57 256.126 478.89 322.648 496.47 388.252zM329.661 757.79l166.681 205.022 166.684 -205.02L496.342 552.77zm635.41 -273.642C961.789 381.313 798.79 262.269 798.79 262.269S629.91 385.608 633.003 484.148c2.645 84.255 88.728 114.279 143.382 65.464l-47.912 114.744 141.135 -.008 -47.95 -114.833C877.068 597.118 967.8 569.58 965.07 484.148zm-592.471 7.41c0 -47.824 -38.168 -87.077 -85.992 -87.077 -4.093 0 -8.032 .518 -11.976 1.08 11.482 -14.687 18.503 -33.241 18.503 -53.334 0 -47.822 -38.165 -85.987 -85.985 -85.99 -47.82 .003 -87.072 38.168 -87.072 85.99 0 19.923 7.187 38.7 18.503 53.334 -3.602 -.45 -7.161 -1.08 -10.884 -1.08 -47.824 0 -87.078 39.255 -87.078 87.078s39.255 87.078 87.078 87.078c19.513 0 37.527 -6.55 52.024 -17.516l-43.69 104.635 141.135 -.008L232.83 559.572c14.825 11.857 33.533 19.066 53.78 19.066 47.825 0 85.99 -39.253 85.99 -87.078zM207.143 266.239h.013z"/></svg>