<svg height="1000" width="1000" xmlns="http://www.w3.org/2000/svg"><path d="M731.09 440.816c92.433 -43.234 88.384 -189.63 179.928 -183.878C782.111 171.306 785.423 353.99 626.973 295.537c34.6 -95.879 -71.613 -196.45 -2.854 -257.08C472.399 69.061 603.963 195.92 450.513 266.625 407.278 174.195 260.886 178.243 266.636 86.7c-85.63 128.907 97.049 125.594 38.599 284.042 -95.88 -34.6 -196.45 71.613 -257.08 2.854 30.604 151.72 157.463 20.153 228.168 173.606C183.89 590.437 187.94 736.832 96.396 731.08c128.907 85.63 125.596 -97.049 284.042 -38.6 -34.599 95.878 71.613 196.447 2.856 257.077 151.72 -30.604 20.155 -157.463 173.605 -228.168 43.235 92.433 189.63 88.382 183.877 179.927C826.407 772.409 643.726 775.72 702.178 617.272c95.879 34.597 196.448 -71.613 257.077 -2.856C928.652 462.7 801.794 594.265 731.09 440.815z"/></svg>