<svg height="1000" width="1000" xmlns="http://www.w3.org/2000/svg"><path d="M890.627 402.341c-40.003 0 -64.654 20.476 -102.767 43.082C780.264 405.1 764.414 367.693 742.117 335.03 785.06 324.06 816.97 321.118 845.253 292.836c27.626 -27.626 27.626 -82.878 -13.796 -124.298C790.019 127.101 734.784 127.116 707.159 154.742c-28.287 28.287 -31.23 60.197 -42.191 103.133C632.301 235.572 594.891 219.718 554.56 212.12c22.605 -38.11 43.078 -62.752 43.078 -102.742C597.663 70.31 558.594 31.241 499.991 31.241s-97.647 39.068 -97.647 78.137c0 39.998 20.477 64.64 43.082 102.742 -40.328 7.598 -77.737 23.45 -110.402 45.748C324.053 214.922 321.11 183.011 292.827 154.726 265.201 127.1 209.95 127.1 168.53 168.52s-41.422 96.673 -13.796 124.298c28.287 28.287 60.197 31.238 103.135 42.204 -22.298 32.665 -38.15 70.072 -45.747 110.398C174.012 422.817 149.369 402.343 109.38 402.343c-39.069 0 -78.138 39.068 -78.138 97.647s39.068 97.648 78.138 97.648c39.99 .012 64.633 -20.463 102.743 -43.07 7.597 40.324 23.45 77.732 45.747 110.393 -42.934 10.965 -74.841 13.912 -103.118 42.191 -27.626 27.626 -27.626 82.878 13.795 124.298s96.673 41.422 124.299 13.796c28.28 -28.279 31.223 -60.189 42.184 -103.128 32.667 22.298 70.077 38.15 110.405 45.747 -22.609 38.12 -43.091 62.766 -43.091 102.762 0 39.068 39.068 78.138 97.647 78.138s97.647 -39.069 97.647 -78.138c.013 -40.005 -20.464 -64.653 -43.073 -102.766 40.328 -7.598 77.737 -23.451 110.4 -45.752 10.969 42.944 13.912 74.854 42.196 103.137 27.626 27.626 82.878 27.626 124.298 -13.796C872.88 790.03 872.88 734.778 845.255 707.152 816.98 678.859 785.068 675.917 742.119 664.95c22.298 -32.667 38.149 -70.075 45.745 -110.403 38.121 22.61 62.767 43.092 102.763 43.092 39.068 0 78.137 -39.069 78.137 -97.648s-39.07 -97.648 -78.138 -97.648zM499.99 617.171c-32.36 0 -61.648 -13.114 -82.851 -34.314 .002 -.002 .002 -.003 .002 -.005 -.001 .002 -.002 .002 -.004 .003C395.927 561.648 382.81 532.348 382.81 499.99c0 -64.705 52.475 -117.18 117.18 -117.18 64.731 0 117.182 52.475 117.182 117.18S564.697 617.171 499.991 617.171z"/></svg>