<svg height="1000" width="1000" xmlns="http://www.w3.org/2000/svg"><path d="M962.224 34.866H743.405l-82.453 63.427C651.886 82.415 641.026 68.853 628.184 56.01L644.04 34.866H326.915l14.8 19.026C328.18 67.018 317.382 81.858 307.89 98.288L226.494 34.861 34.1 34.863V52.83l249.472 103.597c-3.013 13.934 -4.227 29.566 -4.227 44.396 0 2.319 -.077 4.044 0 6.344L34.1 174.4V298.08l256.873 -34.886c4.893 14.796 11.057 29.204 19.026 42.284L34.101 419.641v167.02L341.712 346.704c10.94 10.6 21.796 19.528 34.886 27.484L34.1 817.106v145.878h154.334L420.994 393.217c12.74 4.037 26.482 8.049 40.17 9.516l-75.052 560.256h198.73L509.791 402.735c13.596 -1.84 27.557 -7.241 40.17 -11.628l232.558 571.882h179.705V848.824L592.244 371.02c11.137 -7.121 21.132 -15.23 30.655 -24.314l339.325 261.099V431.273L656.728 305.48C664.329 293.01 672 279.351 676.81 265.31l285.413 38.057V170.173L687.383 207.17c.077 -2.295 0 -4.028 0 -6.344 0 -14.07 -1.513 -29.014 -4.227 -42.284L962.226 43.322v-8.458z"/></svg>