<svg height="1000" width="1000" xmlns="http://www.w3.org/2000/svg"><path d="M754.92 684.726l-64.007 -59.74C919.97 384.174 1036.24 129.608 951.573 44.944 892.044 -14.584 748.519 25.219 584.838 133.72l.312 -.324c-60.299 39.917 -122.854 88.866 -185.215 145.77a1692.076 1692.076 0 00-6.947 6.369 1800.673 1800.673 0 00-32.705 30.861l-58.92 -54.993C313.193 154.248 257.634 106.598 164.719 31.353l-5.995 96.92L98.963 72.496 76.188 95.273l58.581 62.764 -103.104 6.374c81.564 100.355 127.403 133.31 232.472 132.235l55.915 59.908C82.09 601.457 -41.175 865.09 45.13 951.39c84.989 84.982 341.922 -33.25 583.603 -264.102l61.752 66.163 -144.042 46.195 411.665 159.012L799.089 546.993l-44.167 137.732zM884.069 174.731c37.88 37.88 -28.095 168.532 -153.194 317.754 9.907 -27.73 9.988 -49.934 -2.005 -61.925 -25.861 -25.858 -99.2 4.424 -173.066 68.323l-87.982 -82.116C654.798 236.137 838.008 128.671 884.068 174.731zm-708.334 708.34C129.45 836.785 238.192 652.01 420.414 464.088l81.686 87.52C433.192 628.254 399.373 706.407 426.202 733.23c11.734 11.732 33.292 11.854 60.241 2.523 -146.27 121.282 -273.425 184.6 -310.71 147.316z"/></svg>