<svg height="1000" width="1000" xmlns="http://www.w3.org/2000/svg"><path d="M931.876 426.148h.004c-55.843 -417.462 -777.487 -533.704 -867.842 0 -20.155 119.03 109.888 167.97 269.345 184.316C288.346 804.574 238.999 936.89 488.04 936.89c266.627 0 209.627 -143.64 157.332 -330.4 161.643 -22.42 299.9 -80.2 286.504 -180.343zM549.775 106.557c66.455 -12.597 129.71 77.997 39.902 95.022 -66.452 12.59 -129.707 -77.997 -39.902 -95.022zm-142.985 7.345c42.555 27.54 -1.142 76.894 -32.63 56.519 -42.557 -27.542 1.142 -76.897 32.63 -56.519zm-30.073 91.929c42.508 -27.509 101.499 39.121 44.049 76.3 -42.51 27.505 -101.497 -39.121 -44.05 -76.3zM180.523 469.157c-47.973 -31.043 1.285 -86.683 36.783 -63.712 47.97 31.04 -1.285 86.68 -36.783 63.712zm72.78 -132.121c-69.561 11.963 -80.096 -120.38 13.917 -136.558 69.564 -11.962 80.1 120.389 -13.917 136.558zm115.287 93.788c57.866 37.445 -1.552 104.557 -44.37 76.85 -57.865 -37.444 1.553 -104.556 44.37 -76.85zm237.55 47.83C518.527 535.352 396.946 398.029 515.352 321.408c87.61 -56.698 209.194 80.626 90.786 157.246zM727.173 286.33c-40.438 -12.321 -42.988 -82.983 11.662 -66.334 40.44 12.323 42.99 82.983 -11.662 66.334zm64.074 192.741c-82.492 -53.384 2.212 -149.058 63.25 -109.554 82.492 53.384 -2.213 149.058 -63.25 109.554z"/></svg>