<svg height="1000" width="1000" xmlns="http://www.w3.org/2000/svg"><path d="M937.922 340.157c-.669 -.607 -2.403 -1.547 -4.931 -2.728 -11.696 -6.26 -23.542 -10.98 -35.527 -14.216C872.925 314 846.398 304.64 846.398 304.64L290.22 88.805C241.322 74.694 187.836 72.815 126.987 90.572l-.002 -.002L83.333 308.88l169.036 71.261 66.736 342.347a52.512 52.512 0 00-2.122 1.822L74.426 776.99l-2.117 149.121 286.688 -91.627 50.204 -9.745a43.987 43.987 0 002.518 .07c28.39 -.059 51.364 -27.227 51.313 -60.682 0 -.072 0 -.143 0 -.215 -.05 -33.453 -23.106 -60.526 -51.496 -60.467 -8.336 .018 -16.197 2.387 -23.153 6.552L324.519 410.559l352.245 148.496L839.41 548.733l98.512 -208.575zm-84.15 137.211c-18.482 34.969 -48.903 51.944 -67.947 37.912s-19.499 -53.753 -1.017 -88.722c18.481 -34.969 48.902 -51.943 67.946 -37.912s19.499 53.754 1.017 88.722z"/></svg>