<svg height="1000" width="1000" xmlns="http://www.w3.org/2000/svg"><path d="M564.5 464.675v-77.867c0 -6.397 -2.965 -15.857 -23.97 -15.857 -20.98 0 -23.97 9.46 -23.97 15.857v77.867c0 6.397 4.166 13.701 23.97 13.701s23.97 -7.304 23.97 -13.701zm-76.96 499.778l-5.907 -228.087c-27.745 -1.03 -43.726 -1.422 -58.53 -5.172 -10.27 -2.598 -15.318 -10 -15.318 -21.422V382.616c0 -7.525 -.662 -12.01 -12.696 -11.937 -20.393 .148 -100.147 1.153 -100.147 1.153l14.779 -25.49c2.745 -4.731 5.27 -8.26 12.427 -8.26 5.122 0 45.563 5 73.21 2.303 14.069 -1.372 20.343 -2.99 26.667 -12.548 11.177 -16.961 8.947 -57.843 -11.299 -86.226 -4.902 -6.862 .393 -12.966 8.971 -10.147 18.799 6.128 50.294 5.196 50.294 5.196V76.513c0 -5.441 -3.235 -8.628 -9.804 -8.628H346.144S361.73 37.444 384.28 34.283c24.633 -3.48 77.133 -2.99 115.71 -2.99s91.079 -.49 115.712 2.99c22.548 3.186 38.137 33.602 38.137 33.602H539.796c-6.568 0 -9.803 3.187 -9.803 8.628V236.66s31.495 .932 50.294 -5.196c8.578 -2.794 13.872 3.284 8.97 10.147 -20.245 28.383 -22.475 69.265 -11.299 86.226 6.324 9.583 12.574 11.176 26.667 12.548 27.648 2.697 68.088 -2.303 73.211 -2.303 7.157 0 9.682 3.529 12.427 8.26l14.78 25.49s-79.756 -1.005 -100.148 -1.153c-12.034 -.097 -12.696 4.388 -12.696 11.937v327.156c0 11.446 -5.05 18.848 -15.319 21.422 -14.803 3.725 -30.784 4.142 -58.529 5.172l-5.907 228.087c-.098 3.75 -5.857 4.314 -12.476 4.314 -6.568 -.025 -12.328 -.588 -12.426 -4.314zM459.476 478.376c19.804 0 23.971 -7.304 23.971 -13.701v-77.867c0 -6.397 -2.966 -15.857 -23.97 -15.857s-23.971 9.46 -23.971 15.857v77.867c0 6.397 4.167 13.701 23.97 13.701z"/></svg>