<svg height="1000" width="1000" xmlns="http://www.w3.org/2000/svg"><path d="M616.828 500.927c0 63.725 -51.47 117.647 -117.647 117.647 -63.725 0 -117.647 -51.47 -117.647 -117.647S433.004 383.28 499.181 383.28s117.647 51.47 117.647 117.647zM469.77 206.81h58.823c17.158 0 29.412 12.255 29.412 29.412v58.824c0 17.157 -12.254 29.412 -29.412 29.412H469.77c-17.157 0 -29.412 -12.255 -29.412 -29.412v-58.824c0 -17.157 14.706 -29.412 29.412 -29.412zm235.294 235.294h58.823c17.157 0 29.412 12.255 29.412 29.412v58.823c0 17.157 -12.255 29.412 -29.412 29.412h-58.823c-17.158 0 -29.412 -12.255 -29.412 -29.412v-58.823c0 -17.157 12.254 -29.412 29.412 -29.412zM469.77 674.946h58.823c17.158 0 29.412 12.255 29.412 29.412v58.823c0 17.157 -12.254 29.412 -29.412 29.412H469.77c-17.157 0 -29.412 -12.255 -29.412 -29.412v-58.823c0 -14.706 14.706 -29.412 29.412 -29.412zM236.927 442.104h58.823c17.157 0 29.412 12.255 29.412 29.412v58.823c0 17.157 -12.255 29.412 -29.412 29.412h-58.823c-17.157 0 -29.412 -12.255 -29.412 -29.412v-58.823c0 -17.157 12.255 -29.412 29.412 -29.412zM499.181 31.864c-259.803 0 -468.136 210.784 -468.136 468.137 0 259.803 210.783 468.137 468.136 468.137S967.318 757.354 967.318 500 758.985 31.865 499.18 31.865zm0 117.648c193.628 0 350.49 156.862 350.49 350.49S692.809 850.49 499.18 850.49 148.692 693.63 148.692 500.001s156.862 -350.49 350.49 -350.49z"/></svg>