<svg height="1000" width="1000" xmlns="http://www.w3.org/2000/svg"><path d="M969.803 798.149L837.161 665.507H701.186l-33.248 -33.492c29.8 -37.177 47.634 -84.357 47.634 -135.71 0 -48.948 -16.2 -94.111 -43.525 -130.431L811.38 226.258c20.008 23.858 37.007 51.632 51.401 85.146l.003 .003C907.898 215.763 947.39 120.118 968.122 24.469 872.477 48.914 776.833 85.293 681.186 129.807c34.419 17.177 64.383 35.398 90.437 57.016l-138.8 138.908C595.849 296.551 549.16 279.134 498.4 279.134c-50.783 0 -97.492 17.436 -134.477 46.641L225.62 186.462c25.952 -21.458 55.765 -39.576 89.992 -56.656C219.967 85.292 124.323 48.913 28.68 24.468c20.73 95.65 60.223 191.294 105.337 286.938l.003 -.003c14.2 -33.063 30.944 -60.535 50.604 -84.178L323.616 367.41c-26.63 36.053 -42.384 80.63 -42.384 128.893 0 50.82 17.462 97.557 46.705 134.556l-34.618 34.645H159.642L27 798.146h133.78l-21.169 21.185 40.487 39.492 19.178 -19.216 .002 130.82L331.925 837.784l-.003 -131.094 36.398 -36.472c36.26 27.165 81.29 43.256 130.083 43.256 47.597 0 91.608 -15.324 127.396 -41.292l39.082 39.416 -.002 126.184 132.647 132.643 .002 -125.042 39.202 39.538 41.671 -40.908 -45.535 -45.868h136.94zM627.674 496.306c0 26.936 -8.246 51.941 -22.34 72.646l-67.798 -68.294 71.35 -71.496c11.92 19.572 18.788 42.555 18.788 67.144zM498.405 367.038c26.465 0 51.061 7.967 71.552 21.613l-72.042 72.097L426.54 388.851c20.553 -13.771 45.27 -21.814 71.866 -21.814zm-129.27 129.268c0 -23.778 6.449 -46.04 17.652 -65.18l70.092 70.69 -66.073 66.126c-13.682 -20.505 -21.67 -45.135 -21.67 -71.635zm129.27 129.269c-24.496 0 -47.398 -6.815 -66.918 -18.651L496.5 541.778l66.128 66.695c-18.924 10.86 -40.838 17.102 -64.223 17.102z"/></svg>