<svg height="1000" width="1000" xmlns="http://www.w3.org/2000/svg"><path d="M119.133 31.244L470.701 412.1l322.254 380.856L412.099 470.702 31.242 119.135l87.892 -87.892zM853.225 532.05c-73.26 -43.088 -164.607 -42.549 -237.817 .49l88.676 88.677c19.583 -5.148 40.245 -4.78 59.78 .294l89.361 -89.363v-.097zm83.48 83.456l-89.361 89.362c5 19.534 5.342 40.196 .196 59.779l88.676 88.676c43.04 -73.186 43.578 -164.533 .49 -237.817zm-404.165 0c-43.015 73.21 -43.554 164.558 -.466 237.817l89.362 -89.362c-5 -19.534 -5.367 -40.196 -.196 -59.779l-88.701 -88.676zm232.106 232.13c-19.582 5.148 -40.245 4.805 -59.779 -.293l-89.362 89.362c73.26 43.088 164.607 42.549 237.818 -.49l-88.677 -88.677v.098z"/></svg>