<svg height="1000" width="1000" xmlns="http://www.w3.org/2000/svg"><path d="M60.217 58.761S125.59 37.688 239.783 97.063c118.939 61.848 166.97 227.69 259.16 229.815C591.14 324.754 639.181 158.91 758.11 97.063 872.296 37.688 937.677 58.76 937.677 58.76v166.688s-74.216 -4.784 -114.916 26.338c-29.572 22.605 -88.195 105.874 -139.176 156.15 75.788 54.273 124.73 140.156 124.73 236.818 0 164.112 -141.066 297.15 -315.087 297.15S178.132 808.867 178.132 644.755c0 -99.503 51.866 -187.592 131.487 -241.527C259.784 352.613 203.81 273.695 175.143 251.776 134.435 220.656 60.217 225.438 60.217 225.438V58.76zm289.7 585.664c0 78.014 64.309 141.254 143.64 141.254s143.65 -63.248 143.65 -141.254S572.897 503.17 493.557 503.17s-143.64 63.25 -143.64 141.255z"/></svg>