<svg height="1000" width="1000" xmlns="http://www.w3.org/2000/svg"><path d="M920.633 616.598C907.201 603.165 889.891 594.926 870.17 591.515L641.449 407.012C622.545 388.11 593.71 382.621 561.74 388.854c-2.654 -7.572 -6.722 -14.318 -12.313 -19.908l-104.72 -84.472 .825 -.824c-3.808 -3.807 -8.22 -6.803 -13.085 -9.066L385.283 236.54c-14.05 -14.05 -36.745 -16.411 -61.158 -8.83 -1.151 -7.087 -4.04 -13.305 -8.822 -18.087l-90.716 -73.18c11.275 -28.538 9.99 -55.881 -6.22 -72.092C191.993 37.979 136.157 51.057 93.652 93.563S38.066 191.905 64.44 218.277c16.168 16.166 43.408 17.485 71.861 6.31l73.239 90.793c4.783 4.784 11.004 7.673 18.092 8.825 -7.58 24.413 -5.22 47.107 8.83 61.156l42.413 52.579a44.795 44.795 0 005.158 6.394L368.868 549.5c5.589 5.59 12.333 9.66 19.905 12.313 -6.233 31.973 -.745 60.808 18.159 79.713l184.512 228.735c3.413 19.715 11.651 37.016 25.08 50.443C668.628 972.81 778.94 946.97 862.92 862.991S972.735 668.7 920.632 616.596zM723.628 782.013c36.656 -36.656 83.927 -49.812 110.274 -32.126 1.27 3.03 2.226 6.246 2.873 9.62 -8.63 3.511 -17.458 9.343 -25.352 17.237 -20.948 20.948 -27.394 48.464 -14.397 61.462 2.604 2.604 5.796 4.413 9.395 5.496a164.307 164.307 0 01-8.54 9.246c-36.656 36.657 -83.927 49.815 -110.274 32.126 -11.377 -27.16 2.51 -69.551 36.021 -103.06z"/></svg>