<svg height="1000" width="1000" xmlns="http://www.w3.org/2000/svg"><path d="M638.468 393.425c-1.566 -2.253 -4.141 -4.297 -7.723 -5.893 -56.572 -38.46 -142.865 -1.867 -112.663 92.717 74.632 233.744 472.575 35.757 389.465 -217.51C856.494 107.146 752.796 40.073 612.6 38.396v.017C432.349 36.253 227.726 142.608 147.974 298.06c-113.14 220.513 -55.85 432.427 68.323 655.943l371.554 -.003a65.152 65.152 0 004.382 .042c.289 -.008 .566 -.032 .853 -.042l104.928 -.002c-20.445 -6.83 -40.72 -15.382 -60.618 -25.424 19.654 -33.116 4.608 -86.586 -45.166 -85.245 -22 .594 -37.207 11.533 -45.643 26.317 -1.603 -26.28 -19.393 -50.948 -53.394 -50.031a66.489 66.489 0 00-2.57 .131c36.339 -28.323 25.492 -101.275 -32.531 -99.71 -16.027 .433 -28.439 6.363 -37.268 15.26 7.893 -24.902 -3.334 -56.252 -33.691 -60.319 57.143 -14.844 52.532 -110.591 -13.86 -108.797 -9.022 .245 -16.9 2.231 -23.64 5.506 16.606 -19.304 14.24 -53.047 -7.103 -67.083a61.808 61.808 0 0011.013 .669c69.137 -1.801 71.297 -105.832 6.47 -110.566 .56 -1.35 1.114 -2.7 1.698 -4.042 13.636 -6.752 19.978 -21.713 19.027 -35.9a273.297 273.297 0 014.798 -7.303c7.966 6.22 18.5 9.95 31.625 9.594 47.783 -1.25 61.36 -54.678 40.744 -84.3a398.58 398.58 0 0126.012 -17.973 177.421 177.421 0 019.615 -5.679c4.156 21.537 20.482 39.993 48.998 39.226 38.462 -1.008 54.759 -35.837 48.898 -64.834 20.092 -.745 40.059 .874 58.9 4.513 -7.566 25.807 5.98 58.194 40.64 57.26 19.364 -.51 32.129 -11.076 38.313 -24.731 4.922 3.68 9.418 7.584 13.411 11.698 1.59 10.356 7.175 19.87 16.754 24.917a62.469 62.469 0 011.195 3.188c1.489 4.338 2.667 8.843 3.566 13.467 -44.698 1.78 -47.082 67.496 -7.15 73.937a175.519 175.519 0 01-4.465 11.316c-8.224 6.176 -12.842 15.81 -13.854 25.79a174.3 174.3 0 01-13.593 18.252c-3.699 -9.73 -12.358 -17.243 -26.025 -16.873 -30.184 .817 -36.044 38.674 -17.605 52.854a144.43 144.43 0 01-19.95 9.156c-7.926 2.922 -15.957 5.36 -23.907 6.84 3.257 -12.551 -3.454 -27.859 -20.156 -27.409 -14.393 .387 -21.355 12.07 -20.926 23.214 -8.141 -4.112 -15.716 -10.679 -22.44 -20.438 21.517 -6.35 19.658 -42.599 -5.606 -42.39 3.528 -7.594 9.426 -14.392 16.936 -19.91 4.726 3.834 13.08 6.527 25.107 6.367 24.494 -.316 33.829 -12.037 28.051 -20.825 .057 .005 .115 .007 .17 .012 -.102 -.093 -.214 -.178 -.323 -.27z"/></svg>