<svg height="1000" width="1000" xmlns="http://www.w3.org/2000/svg"><path d="M470.7 617.193H353.52V500.012l-87.893 -58.603V31.24H470.7V89.84l-87.892 58.602v117.182l87.892 58.602v292.965zm58.604 0V324.228l87.893 -58.602V148.444L529.304 89.842V31.24h205.073v410.146l-87.892 58.602V617.17l-117.182 .024zm117.182 58.58c58.602 0 87.892 29.288 87.892 58.602H265.629c0 -29.29 29.29 -58.603 87.893 -58.603h292.965zm146.469 117.18c29.289 0 58.602 29.289 58.602 58.602v117.181h-703.11V851.555c0 -29.29 29.289 -58.602 58.602 -58.602h585.906zM587.882 207.023c0 48.53 -39.338 87.893 -87.892 87.893s-87.892 -39.338 -87.892 -87.893c0 -48.529 39.337 -87.892 87.892 -87.892s87.892 39.362 87.892 87.892z"/></svg>