<svg height="1000" width="1000" xmlns="http://www.w3.org/2000/svg"><path d="M878.19 603.862c-23.292 22.72 -45.825 43.759 -71.055 56.835 -1.774 -28.158 -5.73 -54.382 -12.862 -77.795 17.75 -24.177 30.227 -50.072 33.775 -81.86h-.003c-18.367 17.54 -38.248 26.353 -59.956 28.13C740.344 491.967 695.18 470.185 623.64 471.766 619.488 447.102 613.431 424.2 604.654 403.81c11.223 -22.072 16.245 -50.389 15.499 -79.933v.002c-12.232 15.204 -28.328 25.848 -46.565 31.39C541.075 320.846 490.791 302.85 413.212 310.085c22.586 -12.578 42.016 -30.67 55.432 -59.276 -19.725 8.514 -38.725 10.005 -57.211 5.074C408.015 189.308 378.68 143.634 335.819 117.042 326.968 89.465 309.262 62.13 274.472 35.26c3.866 19.547 1.392 38.478 -5.277 57.002C256.67 90.025 243.712 88.811 230.474 88.61 222.975 60.355 197.637 17.656 197.637 17.656l-124.05 2.02c36.68 7.598 54.841 38.08 54.954 89.544C54.55 138.84 30.807 111.663 20.519 65.582L15.492 188.05c27.886 9.031 62.031 12.517 103.34 9.691 -6.265 53.954 -2.833 96.24 9.266 128.098 -13.611 11.425 -32.895 17.939 -54.854 22.141 25.644 18.148 56.282 27.599 87.08 25.321 33.79 29.144 85.805 36.358 152.665 25.713 .949 67.757 18.112 108.51 44.557 133.805 -3.467 22.923 -17.759 40.845 -37.596 54.769h.003c33.849 .966 62.935 -8.365 88.594 -25.117 32.38 10.992 69.562 13.987 105.88 18.423 -1.71 14.265 -2.683 27.503 -3 39.818 -21.78 6.79 -43.564 3.114 -65.345 -2.256l.002 .003c20.129 31.696 42.744 58.07 72.17 69.856 19.864 73.5 79.83 90.907 146.024 99.594l-2.904 2.832c1.366 .776 2.744 1.513 4.113 2.279 -9.005 24.036 -27.261 44.84 -54.372 71.275h.003c108.22 52.654 226.527 80.806 351.325 93.192C957.217 835.17 922.959 718.49 878.19 603.861zM329.98 309.276C223.355 369.116 192.603 290.719 191.644 182.099c86.941 -35.808 147.964 4.56 138.336 127.177zm64.311 90.946c76.556 -18.701 130.89 11.932 131.055 86.093 -93.039 38.372 -117.958 -15.83 -131.055 -86.093zm185.662 161.392c89.22 -33.936 160.571 .803 138.335 127.175C620.081 745.477 579.68 667.424 579.953 561.614z"/></svg>