<svg height="1000" width="1000" xmlns="http://www.w3.org/2000/svg"><path d="M845.975 786.745c21.538 -69.87 26.02 -146.886 20.537 -223.365C948.178 523.53 983.463 412.818 930.678 300.33c-9.166 68.374 -54.74 104.608 -92.486 94.693 -17.1 -52.695 -45.2 -99.934 -81.122 -139.824C775.566 179.806 726.508 90.596 624.222 48.723c35.435 48.486 35.085 94.925 11.142 113.856 -50.3 -25.277 -105.832 -40.455 -162.912 -43.362C439.605 56.359 357.817 21.01 272.134 48.159c52.599 15.041 79.793 50.647 72.329 77.572 -51.506 8.284 -99.778 23.892 -141.805 48.184 -56.98 -32.318 -137.284 -12.34 -175.222 64.36 37.889 -23.017 79.027 -16.959 94 3.695C108.17 258.02 96.42 275.813 86.443 295.472l.008 .005c-94.158 185.52 -57.007 365.68 119.975 436.208 133.401 53.158 308.82 -45.71 252.812 -201.566 -25.2 167.226 -267.62 99.548 -240.595 -52.432 27.963 -157.25 251.352 -205.02 341.79 -48.384 68.717 119.026 5.235 238.294 -104.61 322.878C363.284 823.436 211.685 839.838 26.496 780.65v201.566h675.305c21.884 -14.315 41.17 -30.26 58.136 -47.562 93.017 9.871 186.76 -62.921 208.375 -186.443 -43.898 46.88 -94.233 57.429 -122.339 38.534z"/></svg>