<svg height="1000" width="1000" xmlns="http://www.w3.org/2000/svg"><path d="M383.393 534.278h227.759v53.529h70.298v66.043h46.705V547.607h48.315V653.85h56.75V534.28h60.353v-87.686l-512.459 -.002C363.09 382.704 310.377 336.13 247.878 336.13l-.005 -.007c-77.342 0 -140.074 70.897 -140.074 158.294s62.729 158.29 140.074 158.295c65.087 0 119.806 -50.434 135.519 -118.436zm-178.243 .557c-23.216 0 -42.034 -18.82 -42.034 -42.034s18.82 -42.034 42.034 -42.034 42.034 18.82 42.034 42.034c0 23.216 -18.82 42.034 -42.034 42.034zm91.976 -317.612h227.76v119.57h50.779v-69.661h48.313v69.662H746.95v-50.399h-63.194v-56.369h63.194v-12.804h60.354v-87.686H294.848C276.824 65.648 224.11 19.075 161.612 19.075l-.005 -.008C84.264 19.067 21.532 89.964 21.532 177.36s62.73 158.29 140.075 158.295c65.087 0 119.805 -50.434 135.518 -118.435zM82.432 177.4c0 -51.486 35.446 -93.221 79.168 -93.221s79.163 41.735 79.163 93.221c0 51.487 -35.445 93.222 -79.163 93.222S82.432 228.888 82.432 177.4zm897.926 660.573v-66.636H477.01L357.44 664.297l-121.854 67.19v179.93l121.854 64.907L477.01 859.026h234.592v15.988h82.566v48.314h-82.566v55.27h268.756v-92.312h-86.155v-48.314l86.155 .002zm-662.94 10.778c-16.102 0 -29.156 -13.053 -29.156 -29.155s13.054 -29.155 29.155 -29.155 29.155 13.053 29.155 29.155 -13.051 29.155 -29.155 29.155z"/></svg>