<svg height="1000" width="1000" xmlns="http://www.w3.org/2000/svg"><path d="M330.513 88.654v820.98zM88.723 667.485H909.48zM662.002 88.654v820.98zm-573.28 247.34h817.14zm353.711 106.431l113.497 113.497zm1.483 112.014L554.449 443.908zM770.142 106.813l113.496 113.496zm1.484 112.016L882.158 108.297zm-660.68 559.147l113.497 113.497zm1.482 112.016L222.96 779.46zM322.185 88.654h16.313v820.98h-16.313V88.655zm332.789 0h14.682v820.983h-14.682V88.654zM88.722 656.596H909.48v10.89H88.722v-10.89zm0 -326.045H909.48v10.889H88.722v-10.889zm798.27 -115.276l-8.038 8.081L766.744 111.747l8.037 -8.08 112.21 111.608zm-112.47 7.894l-8 -8.12L879.257 103.96l8 8.12L774.52 223.168zM559.126 549.694l-8.038 8.081L438.88 446.166l8.038 -8.08 112.21 111.608zm-112.5 7.894l-8 -8.12L551.365 438.38l8 8.12L446.628 557.587zm-218.772 328.85l-8.038 8.08L107.607 782.91l8.037 -8.081 112.21 111.609zm-112.532 7.893l-8 -8.119 112.736 -111.09 8 8.12 -112.736 111.09zM499.183 88.654c-43.615 0 -78.972 33.538 -78.972 74.91s35.357 74.91 78.972 74.91 78.973 -33.539 78.973 -74.91 -35.358 -74.91 -78.973 -74.91zm0 138.455c-36.998 0 -66.992 -28.45 -66.992 -63.546s29.993 -63.547 66.992 -63.547 66.992 28.45 66.992 63.547 -29.993 63.546 -66.992 63.546zM167.695 88.654c-43.615 0 -78.973 33.538 -78.973 74.91s35.358 74.91 78.973 74.91 78.972 -33.539 78.972 -74.91S211.31 88.654 167.695 88.654zm0 138.455c-36.998 0 -66.992 -28.45 -66.992 -63.546s29.993 -63.547 66.992 -63.547 66.992 28.45 66.992 63.547 -29.993 63.546 -66.992 63.546zM826.89 423.074c-43.615 0 -78.972 33.538 -78.972 74.91s35.357 74.91 78.972 74.91c43.616 0 78.973 -33.538 78.973 -74.91s-35.357 -74.91 -78.973 -74.91zm0 138.455c-36.998 0 -66.992 -28.45 -66.992 -63.546s29.994 -63.547 66.992 -63.547c36.998 0 66.992 28.45 66.992 63.547 0 35.094 -29.993 63.546 -66.992 63.546zm-329.34 198.287c-43.615 0 -78.972 33.538 -78.972 74.91s35.357 74.91 78.972 74.91 78.973 -33.538 78.973 -74.91 -35.357 -74.91 -78.973 -74.91zm0 138.455c-36.997 0 -66.992 -28.45 -66.992 -63.547s29.994 -63.547 66.992 -63.547 66.992 28.45 66.992 63.547S534.55 898.27 497.551 898.27z"/></svg>