<svg height="1000" width="1000" xmlns="http://www.w3.org/2000/svg"><path d="M499.99 31.24C236.316 31.24 31.243 148.42 31.243 265.627c0 58.602 29.29 87.892 58.602 117.181C60.556 412.097 31.242 489.082 31.242 529.303v322.254c0 58.602 58.602 117.181 117.181 117.181h703.111c58.602 0 117.181 -29.289 117.181 -117.181V499.989c0 -37.034 -29.289 -87.892 -58.602 -117.18 29.289 -29.29 58.602 -58.603 58.602 -117.182C968.74 148.445 763.667 31.24 499.991 31.24zm0 117.204c205.074 0 351.568 29.29 351.568 117.182 0 29.289 -29.289 87.892 -58.602 117.181 29.289 29.29 58.602 117.181 58.602 146.495v322.254h-703.11V529.302c0 -29.29 29.289 -117.182 58.602 -146.495C177.761 353.518 148.448 294.915 148.448 265.626c0 -87.893 146.47 -117.182 351.543 -117.182zm.025 61.52l20.711 20.712c11.446 11.446 11.446 30 0 41.421L272.124 520.7c-11.446 11.447 -30 11.447 -41.421 0l-20.711 -20.71c-11.447 -11.447 -11.447 -30 0 -41.422L458.594 209.965c11.421 -11.422 29.975 -11.422 41.421 0zm196.789 72.5l20.71 20.711c11.447 11.447 11.447 30 0 41.422L344.65 717.513c-11.447 11.447 -30 11.447 -41.422 0l-20.711 -20.71c-11.446 -11.447 -11.446 -30 0 -41.422L655.408 282.489c11.421 -11.446 29.975 -11.446 41.397 -.024zm72.524 196.79l20.711 20.71c11.446 11.446 11.446 30 0 41.422L541.437 789.988c-11.446 11.446 -30 11.446 -41.422 0l-20.71 -20.711c-11.447 -11.446 -11.447 -30 0 -41.422L727.905 479.253c11.422 -11.422 29.976 -11.422 41.422 0z"/></svg>