<svg height="1000" width="1000" xmlns="http://www.w3.org/2000/svg"><path d="M174.6 780.575v173.274h67.82C232.66 893.358 207.01 836.089 174.6 780.575zm.001 -417.121l-.002 395.323c58.121 42.153 107.948 87.908 119.897 148.442 -6.84 -86.701 -8.116 -172.944 28.468 -259.646 10.265 75.11 15.75 150.372 52.385 225.482C424.713 769.12 492.275 725.765 574.64 731.845c-57.923 50.581 -109.71 107.71 -145.766 185.626 61.38 -58.886 130.399 -75.467 202.705 -79.716 -48.435 34.236 -92.797 68.228 -115.683 116.097H683.26c13.513 -55.266 -8.572 -107.818 -34.263 -163.555 53.801 35.424 99.625 78.81 120.713 151.458 6.878 -76.047 -7.482 -143.68 -29.605 -208.393 -.002 0 -.002 -.002 -.003 -.002v-.007c.002 .003 .002 .007 .003 .008 34.795 16.807 59.704 42.982 74.908 78.517V363.452C815.01 -96.55 174.6 -96.075 174.6 363.452z"/></svg>