<svg height="1000" width="1000" xmlns="http://www.w3.org/2000/svg"><path d="M481.15 45c-22.774 -.4 -44.91 8.31 -60.354 29.609 -57.064 78.68 -76.976 153.373 -86.548 217.51 -8.8 58.954 -26.336 116.452 -60.353 169.681C211.9 558.803 145.479 705.045 130.405 788.634c-11.435 63.155 34.919 82.003 63.774 13.666C233.652 708.82 321.882 557.06 432.185 599.595c99.935 38.528 17.402 238.213 -43.274 297.225 -48.966 47.625 -14.044 100.358 46.688 43.275C500.04 879.525 588.865 760.2 620.085 653.118c12.154 -41.687 30.79 -85.36 67.19 -105.908C764.907 503.38 846.83 432.183 878.594 287.564 899.85 190.788 780.088 150.241 712.33 214.682 701.991 116.412 621.685 93.119 563.145 145.215 582.783 91.335 531.247 45.88 481.15 44.999z"/></svg>