<svg height="1000" width="1000" xmlns="http://www.w3.org/2000/svg"><path d="M42.204 911.83l317.59 -373.304 125.428 137.686L84.014 957.725l-41.81 -45.896zM370.651 499.518l154.42 169.508 146.426 -97.533 -190.121 -208.7L370.65 499.518zm558.92 -399.322c-10.29 58.86 -243.721 210.37 -160.806 32.878C612.349 221.561 559.035 178.76 615.633 122.061 508.73 127.523 493.281 293.953 507.725 341.206l34.02 37.342c-4.17 -60.873 .79 -94.513 38.024 -139.408 26.84 40.195 36.054 65.74 101.509 13.614 -18.315 104.362 106.477 36.525 173.048 21.297 -29.732 27.393 -68.562 63.828 -75.82 108.18 -2.421 14.79 12.126 34.951 27.564 49.968 -18.413 4.359 -80.91 17.38 -75.231 51.133 5.677 33.754 23.696 23.16 6.851 29.78 -24.185 5.393 -41.277 10.9 -77.228 -4.246l36.81 40.406c55.359 28.84 144.125 14.268 163.019 -28.985 -28.815 -2.382 -52.888 -9.124 -64.344 -22.494C881.79 481.53 926.098 421.25 963.182 351.463 897.59 388.411 881.026 386.17 854.036 383.3c69.248 -28.008 91.382 -212.427 75.538 -283.104z"/></svg>