<svg height="1000" width="1000" xmlns="http://www.w3.org/2000/svg"><path d="M845.6 321.42c-20.42 -9.743 -42.684 -13.557 -65.696 -11.989 29.548 -9.364 58.75 -17.418 86.907 -23.471 33.516 -32.542 80.543 -86.979 96.365 -129.839 -48.873 -8.435 -118.428 10.343 -160.625 18.537 -19.012 21.711 -40.166 43.078 -62.574 63.917 12.551 -18.936 20.189 -39.853 21.938 -62.097 6.112 -77.81 -90.474 -137.03 -161.192 -99.03 45.387 7.436 72.245 41.616 72.577 89.204 .537 77.251 -52.087 120.137 -170.515 171.022l-.002 .003c63.506 .52 120.369 -13.017 164.576 -36.365 -50.32 40.783 -102.236 78.367 -147.853 110.964 51.408 -22.406 110.036 -47.988 170.106 -71.008 -42.102 26.633 -82.028 68.97 -113.18 123.968l.004 .002c103.284 -77.12 166.735 -101.25 233.367 -62.16 41.046 24.082 57.216 64.43 40.963 107.454 68.266 -42.245 65.273 -155.5 -5.166 -189.111zM429.003 465.235l.005 -.002C397.857 410.24 357.936 367.905 315.836 341.27c60.065 23.02 118.693 48.6 170.1 71.007C440.315 379.678 388.397 342.092 338.076 301.309c44.205 23.348 101.072 36.886 164.577 36.367l-.002 -.003C384.224 286.786 331.601 243.903 332.137 166.651c.33 -47.588 27.192 -81.768 72.577 -89.203 -70.718 -38 -167.304 21.221 -161.192 99.029 1.749 22.245 9.387 43.163 21.938 62.099C243.054 217.737 221.9 196.371 202.888 174.659 160.693 166.465 91.135 147.687 42.263 156.122c15.82 42.858 62.848 97.299 96.365 129.839 28.155 6.051 57.35 14.106 86.895 23.467 -23.008 -1.567 -45.27 2.248 -65.686 11.989C89.4 355.027 86.404 468.284 154.671 510.528c-16.252 -43.022 -.083 -83.373 40.964 -107.454 66.633 -39.09 130.085 -14.96 233.369 62.16zM639.11 699.334C571.94 661.174 561.112 594.158 576.258 466.152l-.003 -.003c-32.05 54.477 -48.753 110.223 -50.768 160C515.389 562.615 508.227 499.05 501.929 443.328c-5.422 55.805 -12.012 119.557 -22.17 183.526C477.875 576.9 461.167 520.885 428.964 466.148l-.003 .003c15.146 128.006 4.318 195.022 -62.852 233.182C324.731 722.84 281.701 716.667 252.568 681.08c2.452 80.245 102.03 134.28 166.359 90.083 18.39 -12.636 32.685 -29.71 42.81 -50.047 -6.845 29.824 -14.77 58.827 -24.067 86.146 14.002 40.64 32.518 110.267 64.26 148.375 29.207 -35.131 52.84 -103.078 64.26 -148.375 -8.836 -27.413 -16.46 -56.727 -23.126 -86.998 10.146 20.713 24.584 38.087 43.23 50.899 64.328 44.197 163.908 -9.84 166.36 -90.083 -29.134 35.589 -72.162 41.76 -113.542 18.255z"/></svg>