<svg height="1000" width="1000" xmlns="http://www.w3.org/2000/svg"><path d="M765.669 680.596h-3.111c25.175 -19.323 40.461 -44.804 40.461 -72.778 .002 -57.88 -65.415 -105.508 -148.588 -109.554C710.188 311.517 390.913 366.86 443.376 234.602c-113.898 41.25 -127.571 149.85 -100.1 229.406 9.65 12.397 36.418 24.682 61.142 33.973h-48.426c-88.556 0 -160.707 49.311 -160.707 109.84 0 13.87 3.8 27.126 10.706 39.327 9.38 10.927 39.81 23.088 71.646 33.448h-49.19c-104.651 0 -189.914 62.287 -189.914 138.734S123.8 957.52 228.448 957.52h537.22c104.652 0 189.17 -61.744 189.17 -138.19S870.32 680.596 765.668 680.596zM109.014 653.09C224.202 434.279 48.052 435.975 118.051 290.306c-170.68 151.316 48.694 126.277 -9.037 362.783zm764.266 3.024c112.487 -221.211 -3.364 -300.1 -20.716 -513.806 -69.393 293.017 68.05 243.25 20.716 513.806zM270.091 445.235C214.215 280.235 370.122 192.588 229.771 34c82.632 208.742 -121.14 223.53 40.32 411.235z"/></svg>