<svg height="1000" width="1000" xmlns="http://www.w3.org/2000/svg"><path d="M327.135 61.63l.01 -.003h-.01zm122.748 332.907l-.008 -.007 -.002 .003zm512.779 323.402C689.12 609.905 742.944 477.516 449.884 394.536c78.422 54.373 124.795 107.384 147.32 156.115C437.738 488.771 276.482 484.258 150.59 567.841c82.418 -199.23 338.104 -275.144 440.863 -229.54 -3.2 9.18 -7.06 18.09 -11.526 26.622l299.464 60.067a652.659 652.659 0 0011.276 -31.7l.616 .235c19.74 -33.74 16.552 -62.643 .145 -93.34 -2.282 22.883 -11.747 42.785 -28.776 65.546 -50.705 5.677 -97.005 -30.022 -104.088 -80.866 -7.204 -51.705 28.871 -99.458 80.574 -106.66 16.171 -2.254 31.95 -.267 46.224 5.106 14.116 31.727 19.889 56.277 15.65 82.15 19.8 -21.139 30.42 -43.45 27.484 -72.064 2.102 -25.45 3.486 -50.977 4.43 -76.551C642.016 160.058 622.433 -13.042 327.145 61.627 439 70.893 511.505 106.2 553.865 152.16c-46.874 -10 -96.494 -13.703 -147.042 -11.367l-.005 .008C279.194 146.689 147.238 191.294 43.54 270.624v687.92h135.034c47.94 -242.184 292.692 -295.8 398.967 -240.43 -12.457 14.55 -27.594 27.366 -44.626 38.164L762.223 958.03a652.892 652.892 0 0025.83 -22.007l.314 .387c33.959 -19.353 45.651 -45.978 46.791 -80.764 -13.492 18.774 -31.767 31.313 -58.122 42.556C730.508 877.658 708.406 823.731 727.65 776.265c19.613 -48.379 74.732 -71.696 123.11 -52.083 15.16 6.147 27.854 15.781 37.536 27.602 -3.653 34.328 -10.937 58.367 -27.48 78.582 27.543 -8.356 47.815 -22.247 59.615 -48.178 14.59 -21.042 28.591 -42.514 42.232 -64.25zM637.966 137.243c16.82 -2.343 32.354 9.394 34.698 26.212s-9.393 32.355 -26.212 34.698a30.657 30.657 0 01-2.461 .217 30.846 30.846 0 01-2.785 .032c-.068 -.002 -.138 0 -.209 -.003a31.082 31.082 0 01-2.606 -.218c-.112 -.015 -.227 -.023 -.339 -.04a30.529 30.529 0 01-2.435 -.438c-.149 -.032 -.297 -.06 -.446 -.097a30.631 30.631 0 01-2.262 -.63c-.181 -.057 -.363 -.113 -.54 -.173a30.907 30.907 0 01-2.707 -1.065 30.62 30.62 0 01-2.592 -1.313 30.908 30.908 0 01-1.716 -1.046 31.302 31.302 0 01-.744 -.509 32.081 32.081 0 01-1.53 -1.134 26.024 26.024 0 01-.782 -.651 30.611 30.611 0 01-1.344 -1.2c-.272 -.261 -.532 -.532 -.794 -.803a31.954 31.954 0 01-1.165 -1.248c-.271 -.312 -.526 -.638 -.785 -.961 -.338 -.42 -.675 -.842 -.992 -1.28 -.26 -.365 -.503 -.747 -.749 -1.124 -.28 -.429 -.566 -.854 -.824 -1.297 -.245 -.42 -.462 -.857 -.687 -1.29 -.225 -.433 -.46 -.857 -.666 -1.302 -.22 -.476 -.406 -.974 -.601 -1.465 -.171 -.426 -.358 -.845 -.509 -1.28 -.194 -.557 -.346 -1.134 -.509 -1.705 -.112 -.397 -.246 -.781 -.344 -1.185a30.688 30.688 0 01-.457 -2.391c-.032 -.207 -.086 -.405 -.116 -.612 -.005 -.04 -.007 -.08 -.011 -.12a31.507 31.507 0 01-.2 -2.27 42.219 42.219 0 01-.056 -1.404s-.002 0 -.002 0c-.241 -15.301 10.934 -28.742 26.48 -30.907zm75.998 490.93c-6.38 15.738 -24.313 23.325 -40.049 16.944s-23.323 -24.312 -16.943 -40.05c6.38 -15.738 24.313 -23.325 40.049 -16.944s23.323 24.313 16.943 40.05z"/></svg>