<svg height="1000" width="1000" xmlns="http://www.w3.org/2000/svg"><path d="M502.69 37.888c-249.467 0 -451.955 202.487 -451.955 451.955 0 108.675 38.46 208.197 102.463 286.084l-40.581 70.508h258.187L241.458 622.742l-43.625 76.087c-40.748 -59.434 -64.42 -131.547 -64.42 -208.985 0 -203.81 165.462 -369.274 369.273 -369.274S871.96 286.033 871.96 489.844c0 76.26 -22.769 147.542 -62.392 206.45l-42.606 -73.55 -129.35 223.693H895.8L853.7 773.393C916.536 695.819 954.642 597.389 954.642 489.846 954.642 240.379 752.155 37.89 502.687 37.89l.003 -.002zm7.97 147.375c-98.097 -3.867 -223.55 52.03 -259.646 204.413l118.435 27.9c52.582 -148.666 177.168 -138.082 220.926 -55.8C642.58 459.947 415.541 570.938 426.39 733.025h151.457C590.502 541.647 809.85 492.251 694.004 285.478 659.016 223.031 586.954 188.271 510.661 185.265v-.003h-.002zm106.363 681.572c0 62.396 -50.581 112.977 -112.975 112.977S391.072 929.232 391.072 866.835 441.653 753.858 504.048 753.858s112.975 50.58 112.975 112.977z"/></svg>