<svg height="1000" width="1000" xmlns="http://www.w3.org/2000/svg"><path d="M382.81 272.175c-119.485 0 -218.088 89.51 -232.549 205.072H31.242v58.603h119.02c14.46 115.563 113.063 205.072 232.548 205.072h29.289a29.226 29.226 0 0029.289 -29.289v-58.602h87.892v-58.602h-87.892V418.645h87.892v-58.603h-87.892V301.44a29.226 29.226 0 00-29.29 -29.289l-29.288 .025zm410.145 0a29.226 29.226 0 00-29.289 29.289v58.602h58.602v58.602h-58.602v175.784h58.602v58.602h-58.602v58.603a29.226 29.226 0 0029.289 29.289h175.784V272.197l-175.784 -.024z"/></svg>