<svg height="1000" width="1000" xmlns="http://www.w3.org/2000/svg"><path d="M768.872 171.599c-34.781 -30.275 -82.082 -1.63 -131.18 37.017C636.185 190.611 623.98 183.3 623.98 163.784c0 0 50.177 -11.418 62.398 -31.199 10.935 -17.691 12.645 -45.884 0 -62.398C647.083 18.869 530.378 19.622 499.193 19.622c-31.2 0 -147.9 -.751 -187.185 50.565 -12.645 16.513 -10.935 44.71 0 62.398 12.226 19.78 62.398 31.2 62.398 31.2 0 14.294 -13.913 23.44 -13.843 46.546 -51.222 -39.18 -100.664 -69.2 -135.75 -37.462 -62.81 56.803 3.65 183.13 40.69 255.265C241.857 490.811 233.912 553.558 249.58 600.57c31.2 93.6 124.8 156 124.8 218.386 0 31.2 -31.198 31.2 -31.198 62.399s62.398 93.6 156 93.6c93.6 0 155.999 -62.398 155.999 -93.6 0 -31.2 -31.2 -31.2 -31.2 -62.399 0 -62.398 93.601 -124.8 124.801 -218.386 15.676 -47.027 7.718 -109.802 -15.948 -172.5 35.61 -72.75 100.06 -200.762 36.039 -256.471zM374.38 257.386c-32.411 32.41 -61.077 72.306 -83.416 114.496 -30.815 -52.26 -86.016 -131.389 -42.91 -171.114 28.98 -26.714 106.635 31.883 119.893 42.253a185.163 185.163 0 006.458 14.365h-.026zm256.913 -16.26c20.59 -16.173 87.705 -65.295 114.878 -41.19 43.644 38.705 -9.304 118.286 -39.2 171.133 -22.274 -41.893 -50.783 -81.48 -82.99 -113.683 2.984 -5.966 5.388 -11.353 7.312 -16.26z"/></svg>