<svg height="1000" width="1000" xmlns="http://www.w3.org/2000/svg"><path d="M613.467 244.119c0 64.116 0 146.787 0 210.927H386.511c0 -64.116 0 -146.787 0 -210.927zM363.595 181.105h-39.362l29.558 48.063v600.577c0 77.009 65.22 138.993 146.223 138.993S646.238 906.754 646.238 829.745V229.168l29.558 -48.063h-39.362zm87.67 328.352c14.95 0 27.034 11.495 27.034 25.71s-12.083 25.784 -27.035 25.784 -27.107 -11.544 -27.107 -25.784 12.132 -25.71 27.107 -25.71zm87.792 42.132c23.554 0 42.647 18.161 42.647 40.538s-19.093 40.538 -42.647 40.538 -42.646 -18.161 -42.646 -40.538 19.093 -40.538 42.646 -40.538zm41.2 -142.08c.148 14.215 -11.838 25.857 -26.789 26.004s-27.205 -11.25 -27.352 -25.465c0 -.172 0 -.367 0 -.539 -.148 -14.216 11.838 -25.857 26.789 -26.005s27.205 11.25 27.352 25.465c0 .196 0 .367 0 .54zm4.927 -280.805c.148 14.216 -11.838 25.858 -26.789 26.005s-27.205 -11.25 -27.352 -25.465c0 -.172 0 -.367 0 -.539 -.148 -14.216 11.837 -25.857 26.789 -26.005s27.205 11.25 27.352 25.465c0 .172 0 .367 0 .54zM512.93 71.794c0 22.402 -19.092 40.538 -42.646 40.538S427.638 94.172 427.638 71.794 446.73 31.256 470.284 31.256s42.646 18.137 42.646 40.538z"/></svg>