<svg height="1000" width="1000" xmlns="http://www.w3.org/2000/svg"><path d="M924.288 846.647c81.938 -68.75 27.78 -243.184 -79.527 -353.786C947.667 394.577 827.26 318.351 703.946 288.404c53.652 42.323 42.251 94.846 62.79 142.314 -33.858 -19.796 -70.2 -32.35 -107.445 -34.457 -140.022 -11.078 -132.23 91.676 -2.734 136.355 -61.864 -22.13 -65.684 -131.912 32.039 -101.472l-.059 -.318C857.15 509.635 942.714 761.89 853.914 777.62 808.892 785.596 745.97 756.066 670.487 681.36c37.583 -8.608 60.78 -46.601 104.867 -79.438C709.764 598.342 652.737 570.45 639.58 648.995 601.48 606.94 560.605 554.077 517.556 489.506 381.522 285.476 261.663 176.223 175.655 140.504c28.17 -10.948 56.784 -31.121 106.127 -11.447C211.812 55.707 151.436 21.395 124.855 127.447c-4.79 -.337 -9.416 -.375 -13.851 -.08H111C3.105 134.491 .678 325.623 180.465 605.66 40.175 262.997 111.038 163.817 266.867 299.547c-75.12 34.338 -42.183 88.156 -10.472 143.316 -2.51 -59.834 38.525 -75.078 47.423 -108.305 46.285 47.217 98.29 112.205 153.38 194.802 15.06 22.581 29.96 43.81 44.683 63.824 -28.366 20.57 -15.444 64.935 -69.492 88.176 60.624 1.429 105.57 -6.636 103.944 -43.173C693.189 834.717 825.696 887.211 896.87 862.36c-2.974 27.3 17.423 56.078 -12.35 95.97 65.857 -35.973 103.023 -72.55 39.768 -111.683z"/></svg>