<svg height="1000" width="1000" xmlns="http://www.w3.org/2000/svg"><path d="M343.4 186.015c0 -15.073 -1.902 -30.597 -8.457 -44.604 -5.245 -8.824 -12.26 -9.32 -17.854 -6.083 -7.183 4.154 -15.63 16.468 -15.63 40.188 1.23 160.907 -3.054 334.41 -5.445 494.56H137.939v-484.07c0 -43.363 -17.96 -80.61 -73.804 -80.83L47.057 105.1C82.392 64.849 117.57 47.544 174.392 47.544c36.618 0 70.847 14.513 94.514 39.202l3.83 -3.472 4.512 -3.867c34.027 -26.24 73.027 -31.853 102.604 -31.853 36.557 0 70.724 14.46 94.383 39.08l3.7 -3.35 4.494 -3.867C516.473 53.177 555.457 47.564 585.04 47.564c67.041 0 125.643 48.522 126.935 118.53 .724 38.861 .654 90.533 .182 146.824 15.455 -43.74 45.66 -99.21 99.532 -99.21 44.473 0 133.41 2.226 133.41 273.496 0 196.75 -102.237 309.12 -172.988 364.135 9.112 3.518 18.711 4.966 28.458 4.966 48.923 0 88.946 -40.022 88.946 -40.022v55.6s-16.676 54.474 -138.968 54.474c-36.443 0 -66.15 -5.873 -90.42 -16.25 -75.35 24.017 -166.39 37.37 -166.39 37.37v-60.042s46.776 -2.356 103.93 -26.705C560.42 810.069 552.712 737.47 549.047 670.097l-.445 -16.136V186.019c0 -15.073 -1.912 -30.597 -8.457 -44.604 -5.061 -8.527 -11.747 -9.155 -16.956 -6.562 -6.685 3.324 -15.01 13.841 -16.346 34.898 1.913 147.504 -3.228 357.152 -5.359 500.346H343.412V186.02l-.012 -.002zm366.744 281.691l-.06 4.007 -.28 16.503c-1.195 71.518 -2.478 137.433 -3.134 181.87 0 43.81 3.858 77.934 10.552 104.29 48.487 -56.404 85.586 -140.837 85.586 -267.17 0 -359.056 -89.898 -127.275 -92.664 -39.499z"/></svg>