<svg height="1000" width="1000" xmlns="http://www.w3.org/2000/svg"><path d="M565.336 660.006c-36.084 -36.085 -94.59 -36.085 -130.675 0s-36.085 94.59 0 130.675c36.085 36.085 94.59 36.085 130.675 0 36.085 -36.087 36.085 -94.59 0 -130.675zM815.798 540.222l-92.562 92.561c-123.29 -123.29 -323.183 -123.29 -446.473 0l-92.561 -92.561c174.41 -174.413 457.184 -174.413 631.595 0zm65.336 -65.34c-210.495 -210.496 -551.776 -210.496 -762.272 0L23.578 379.598c263.119 -263.118 689.721 -263.118 952.84 0l-95.285 95.284z"/></svg>