<svg height="1000" width="1000" xmlns="http://www.w3.org/2000/svg"><path d="M269.464 75.761C131.601 154.937 38.282 302.799 38.282 473.191c0 171.306 94.357 319.719 233.44 398.556C179.194 780.715 119.135 636.694 119.135 473.191c-.002 -162.346 58.899 -306.245 150.33 -397.43zm463.495 4.574c88.869 91.37 145.758 233.163 145.758 392.885 0 160.15 -57.62 301.547 -146.916 392.885C865.73 785.925 956.154 640.653 956.154 473.22S866.4 160.606 732.959 80.335zM248.948 473.22c0 -129.418 54.174 -242.646 134.386 -301.792C263.551 219.413 178.339 336.27 178.339 473.22c0 137.285 85.82 254.019 206.124 301.792C303.823 716.02 248.948 603.035 248.948 473.22zm580.775 0c.03 -122.618 -68.32 -229.262 -168.531 -284.717 68.595 62.313 112.74 166.856 112.74 284.717 0 119.205 -45.06 223.774 -115.027 285.846C760.305 703.974 829.723 596.753 829.723 473.22zm-480.688 .03c0 -86.918 35.974 -161.978 87.497 -198.777C353.364 302.43 293.944 380.661 293.944 473.25c0 93.411 60.425 172.557 144.751 199.844C385.955 636.904 349.035 561.42 349.035 473.25zM588.847 280.967c46.492 38.841 76.706 110.637 76.706 192.281 0 82.894 -31.187 154.936 -78.869 193.38 74.907 -32.103 127.467 -106.705 127.467 -193.38C714.149 387.46 662.565 313.59 588.847 280.968zm-77.956 131.125c-39.601 0 -71.675 32.103 -71.675 71.674 0 30.199 18.676 56.002 45.091 66.56V965.95h53.139V550.34c26.44 -10.555 45.12 -36.38 45.12 -66.572 0 -39.571 -32.102 -71.643 -71.675 -71.674z"/></svg>