<svg height="1000" width="1000" xmlns="http://www.w3.org/2000/svg"><path d="M666.972 285.693C595.14 245.443 502.802 234.418 429.445 249.582L349.731 75.889c-17.38 27.391 -30.511 56.158 -38.826 86.637l-.427 -58.69C285.935 165.963 272.4 241.778 289.215 311.737 215.617 296.167 140.935 292.158 64.8 303.679c66.448 19.834 102.89 46.4 149.532 91.117C162.02 413.826 96.8 453.786 33.072 531.744 102.237 514.48 159.532 509.38 207.51 519.44 135.468 563.242 82.527 628.929 35.19 741.994c70.006 -33.616 126.547 -36.71 200.74 -36.82 -44.978 63.859 -68.784 150.706 -70.816 220.047 47.835 -50.716 112.35 -117.277 170.002 -153.943 5.854 58.301 29.3 113.673 70.087 166.158 -.473 -93.338 24.031 -188.139 73.732 -284.408l4.462 -2.219 1.497 -1.301c58.309 -24.074 118.404 -37.173 178.458 -40.64l-28.4 -20.154C701.936 574.877 775.69 564.874 865.75 560.98c14.88 -25.096 26.864 -47.277 36.764 -67.819L890.232 445.56l-47.61 60.063 -15.365 -53.574 -43.806 56.908 -14.674 -50.888L722.26 519.4l-14.961 -55 -46.517 61.332 2.384 -80.219 43.969 -83.124 14.96 54.993 46.518 -61.32 14.964 54.987 45.71 -58.486 12.768 52.465 47.61 -60.057 15.366 53.57 48.01 -62.365c4.435 -21.004 8.958 -43.807 14.367 -69.693C859.144 259.308 760.054 275.845 666.97 285.69z"/></svg>