<svg height="1000" width="1000" xmlns="http://www.w3.org/2000/svg"><path d="M498.361 43.075c-247.27 0 -447.72 200.45 -447.72 447.72 0 49.534 8.062 97.181 22.915 141.723C151.851 585.326 221.778 552.25 283.282 531.07c-69.718 10.95 -129.494 46.098 -214.195 7.76C130.61 484.692 240.064 410.445 339.217 399.104c51.834 -42.148 132.843 -85.718 174.85 -72.69 59.457 -52.4 132.549 -119.117 210.824 -167.197l.002 .002c20.8 31.503 33.365 70.091 24.47 112.859 -156.716 39.398 -120.255 290.407 26.303 131.507 12.375 25.477 18.344 51.954 17.73 80.759 -63.715 65.968 -130.59 122.95 -198.77 171.464 .908 46.777 -10.968 103.18 -37.086 165.38 -10.988 26.163 -14.297 70.973 44.585 105.218 197.233 -46.805 343.96 -224.06 343.96 -435.609C946.083 243.524 745.633 43.075 498.362 43.075z"/></svg>