<svg height="1000" width="1000" xmlns="http://www.w3.org/2000/svg"><path d="M625.653 348.488l-.022 .013 .015 -.003zm8.02 -314.296c.056 .068 .11 .138 .165 .207l-68.101 63.235 71.96 -7.318 -30.02 58.732 74.19 -31.346c50.99 136.434 1.21 300.846 -102.496 324.204 -14.5 -56.09 -81.689 -80.113 -68.893 -127.939a44.49 44.49 0 0014.648 6.978 44.593 44.593 0 0012.68 1.506l-.77 .869 44.743 51.992 43.851 -26.81c-15.083 3.79 -55.905 -9.772 -61.265 -35.663a44.427 44.427 0 0015.418 -23.45 45.53 45.53 0 00.625 -2.691l20.138 39.806 10.18 -33.047c14.868 10.876 24.32 26.542 22.4 41.226l32.513 -57.33L524.972 219.717 411.762 126.06l33.348 60.934 -94.002 -38.513 68.518 60.905c-79.17 54.912 -43.062 165.828 -3.492 232.612C304.01 423.116 215.037 291.003 229.4 159.192l95.953 -41.66L264.75 107.508l56.951 -65.165L259.275 64.85c.072 -.131 .136 -.263 .21 -.394C-68.81 193.795 32.483 780.084 135.215 879.511c-8.364 -57.997 -10.477 -95.241 -3.73 -111.438 6.227 40.908 14.46 79.907 24.786 115.537l5.21 -117.188c10.628 7.428 23.985 20.243 40.423 38.526 -9.397 -26.032 -13.232 -51.68 -12.652 -74.648 39.553 81.246 131.318 135.01 204.039 121.504 43.764 -8.129 81.51 -24.822 112.724 -47.725l14.248 30.059c-39.13 9.82 -44.47 63.636 -28.734 107.466 3.408 -38.769 22.153 -58.096 42.372 -62.988 -12.861 30.94 -9.156 59.713 -6.073 86.107 19.79 -23.684 41.861 -46.399 46.072 -76.738 17.036 14.295 24.014 41.906 2.326 76.157 51.323 -30.173 61.55 -81.889 15.55 -112.485l-62.528 -66.87a250.053 250.053 0 0031.097 -35.236l76.596 30.762c-7.692 26.695 11.37 61.448 38.547 84.453 -15.704 -33.71 -9.41 -58.652 4.997 -72.348 3.177 33.907 20.747 56.927 36.528 78.126 5.32 -30.548 13.241 -61.414 -.418 -89.676 21.482 3.042 41.345 22.556 39.66 62.16 28.03 -49.4 11.9 -97.005 -40.566 -100.478L577.107 723.273c24.874 -44.815 36.414 -97.155 33.17 -151.078 27.67 -67.666 97.61 -23.027 106.317 95.868 53.477 -156.665 130.81 -75.295 114.71 47.803 18.103 -35.844 34.061 -57.538 47.662 -66.344l37.185 149.146c.805 -45.34 -1.666 -93.76 -6.966 -143.384 13.87 19.14 22.105 64.43 24.002 131.744C1018.157 562.444 931.533 88.282 633.674 34.195zM368.417 774.176c-53.864 14.2 -135.963 -22.228 -164.027 -104.649 23.943 -41.097 72.854 -42.861 122.532 44.061C289.648 590.368 430.368 533.523 450.587 623.143c-.002 69.998 -18.613 134.277 -82.168 151.032zm207.729 190.096c.027 -.044 .052 -.087 .08 -.131 -.017 .01 -.032 .02 -.049 .029l-.031 .102z"/></svg>