<svg height="1000" width="1000" xmlns="http://www.w3.org/2000/svg"><path d="M817.35 618.049c-9.806 -4.197 -31.033 6.964 -56.15 25.952L617.192 499.994 761.21 355.977c25.112 18.983 46.335 30.14 56.138 25.944C852.22 366.977 986.686 53.172 966.76 33.245 946.834 13.3 633.03 147.785 618.084 182.656c-4.2 9.803 6.952 31.022 25.932 56.129L499.999 382.801 355.982 238.785c18.98 -25.11 30.133 -46.327 25.932 -56.129C366.97 147.786 53.167 13.3 33.24 33.245 13.313 53.172 147.78 366.976 182.652 381.92c9.804 4.197 31.026 -6.96 56.138 -25.944l144.018 144.017L238.8 644.001c-25.117 -18.988 -46.344 -30.149 -56.15 -25.952C147.779 632.993 13.313 946.798 33.239 966.725 53.166 986.67 366.971 852.185 381.915 817.313c4.201 -9.8 -6.947 -31.015 -25.923 -56.117L500 617.188l144.007 144.008c-18.973 25.102 -30.122 46.317 -25.923 56.117 14.945 34.872 328.75 169.357 348.676 149.412C986.687 946.798 852.22 632.993 817.35 618.049z"/></svg>