<svg height="1000" width="1000" xmlns="http://www.w3.org/2000/svg"><path d="M215.566 821.358l152.101 86.874C449.353 867.744 526.621 810.1 596.759 742.427 558.34 640.155 465.813 538.902 341.882 433.58c126.74 46.74 261.301 141.178 332.308 226.925a1362.5 1362.5 0 0052.836 -65.092C710.888 533.3 589.68 414.543 478.693 349.121c130.394 24.705 261.16 92.342 308.24 161.39 25 -38.33 47.77 -77.276 68.013 -116.079C793.424 296.747 701.966 212.348 538.674 135.686c154.92 29.876 278.036 91.562 360.355 165.1 8.893 -21.215 16.938 -42.193 24.068 -62.804l.017 -.008C714.939 102.787 486.756 34.681 214.49 41.497c-23.229 52.824 -43.661 110.44 -60.165 170.661 118.498 -4.097 245.024 10.795 362.201 46.878C449.995 202.579 349.629 159.162 228.793 125.123c-.145 .007 -.29 .008 -.435 .015l.022 -.134c.139 .04 .276 .078 .414 .117 207.78 -9.33 413.218 124.453 494.383 235.381C615.363 323.69 387.037 280.218 210.483 276.76 336.597 313.306 472.569 395.63 539.8 466.403 421.611 405.29 252.031 340.799 129.295 322.009c-5.083 27.88 -9.26 56.013 -12.402 84.224 191.963 32.99 327.423 174.272 407.546 312.635C364.058 562.529 231.962 506.56 111.097 479.813c-1.092 23.863 -1.394 47.652 -.834 71.257 147.23 26.852 303.163 123.703 382.051 225.814 -73.499 -6.805 -112.182 -7.491 -163.537 0 29.01 29.964 42.634 59.93 52.71 91.192C327.755 823.13 238.407 780.29 179.142 754.133c44.883 -24.51 114.941 -20.427 163.428 -24.51C288.405 677.503 194.935 638.626 115.732 631.81c13.946 122.445 54.15 235.804 130.016 322.484a585.032 585.032 0 0043.365 -13.082l-73.55 -119.856z"/></svg>