<svg height="1000" width="1000" xmlns="http://www.w3.org/2000/svg"><path d="M901.136 42.183C724.083 163.98 343.88 35.181 193.386 158.715 46.443 279.343 39.61 559.344 222.136 627.949l3.386 -3.703c72.228 -52.915 170.957 -66.37 259.182 -41.873C504.299 478.738 435.38 355.038 276.592 346.406c80.316 -24.725 152.26 -11.946 208.873 22.418 54.921 -36.073 127.859 -43.428 192.019 -23.097 26.59 -48.138 10.71 -120.939 -68 -146.36 22.518 -.913 42.48 3.027 59.714 10.501 47.27 -44.913 142.518 -40.2 169.863 39.771 -40.634 -49.195 -98.58 -40.644 -127.038 -8.542 32.086 36.42 41.967 90.107 25.634 134.131 47.284 33.021 81.633 85.96 86.263 158.19C767.937 410.324 643.692 397.078 567.847 448.357c39.8 59.56 56.166 133.908 39.87 201.968 47.665 44.62 80.604 107.75 85.804 188.875C616.815 670.547 445.254 654.522 343.247 727.273l-1.888 -.258C554.463 1106.03 1126.953 910.22 901.137 42.183zm-745.515 913.77C203.035 816.531 273.25 709.822 380.436 631.743 227.37 662.376 130.18 768.338 40.989 887.51c16.008 45.214 51.219 71.05 114.63 68.443zM486.225 410.238c22.827 43.122 66.411 140.615 11.548 218.089C373.83 583.683 223.51 650.027 149.667 763.612l121.282 -26.95c86.988 -112.216 219.23 -89.27 278.909 -73.71 23.72 -74.752 23.53 -164.066 -25.289 -221.647 47.348 -49.075 131.48 -65.285 191.5 -38.256 -76.467 -48.078 -158.865 -42.598 -229.843 7.207v-.017h-.002z"/></svg>