<svg id="svg4" width="12" height="16" version="1.1" viewBox="0 0 12 16" xmlns="http://www.w3.org/2000/svg"><path id="path4753" d="m2 0.9902344c-1.11 0-2 0.8997652-2 2.009766a2 2 0 0 0 1 1.720703v6.558594c-0.59 0.35-1 0.990703-1 1.720703 0 1.11 0.89 2 2 2a1.993 1.993 0 0 0 1-3.720703v-3.609375c0.67 0.7 1.440781 1.269453 2.300781 1.689453 0.8600001 0.42 2.02875 0.6306254 2.96875 0.640625v-0.0195312c0.3600002 0.6100002 1.000469 1.019531 1.730469 1.019531 1.11 0 2-0.89 2-2s-0.89-2-2-2c-0.73 0-1.380469 0.4095317-1.730469 1.019531v-0.0195312c-1.05-0.02-2.268906-0.3595317-3.128906-1.019531-0.75-0.5800002-1.500625-1.611406-1.890625-2.441406a1.993 1.993 0 0 0-1.25-3.548828zm0 0.8105468c0.65 0 1.199219 0.5492186 1.199219 1.199219 0 0.65-0.5492186 1.199219-1.199219 1.199219-0.66 0-1.199219-0.5492186-1.199219-1.199219s0.5492186-1.199219 1.199219-1.199219zm8 6c0.65 0 1.199219 0.5492186 1.199219 1.199219s-0.549219 1.199219-1.199219 1.199219c-0.66 0-1.199219-0.549219-1.199219-1.199219s0.5492186-1.199219 1.199219-1.199219zm-8 4c0.65 0 1.199219 0.549219 1.199219 1.199219 0 0.66-0.5492186 1.199219-1.199219 1.199219s-1.199219-0.549219-1.199219-1.199219 0.5492186-1.199219 1.199219-1.199219z"/></svg>
