<svg xmlns="http://www.w3.org/2000/svg" width="16" height="16" viewBox="0 0 16 16"><path d="M7.5 0A7.497 7.497 0 0 0 4 14.13v-1.05C2.14 11.92 .91 9.86 .91 7.5A6.59 6.59 0 0 1 7.5 .91a6.59 6.59 0 0 1 6.59 6.59A6.553 6.553 0 0 1 11 13.08v1.05c2.37 -1.25 4 -3.75 4 -6.63C15 3.36 11.64 0 7.5 0zm0 2.99C5.02 2.99 3 5.01 3 7.49c0 1.07 .39 2.03 1 2.8V8.31a3.593 3.593 0 0 1 3.5 -4.4c1.98 0 3.59 1.61 3.59 3.59 0 .28 -.03 .54 -.09 .81v1.98c.61 -.77 1 -1.74 1 -2.8C12 5.01 9.98 2.99 7.5 2.99zM7 6C6.45 6 6 6.45 6 7v1c0 .55 .45 1 1 1H6c-.55 0 -1 .45 -1 1v2h1v3c0 .55 .45 1 1 1h1c.55 0 1 -.45 1 -1v-3h1v-2C10 9.45 9.55 9 9 9H8c.55 0 1 -.45 1 -1V7C9 6.45 8.55 6 8 6H7zm0 1h1v1H7V7zm-1 3h3v1H8v4H7v-4H6v-1z"/></svg>