<svg xmlns="http://www.w3.org/2000/svg" width="14" height="16" viewBox="0 0 14 16"><path fill-rule="evenodd" d="M13 2h-1v1.5c0 .28 -.22 .5 -.5 .5h-2C9.22 4 9 3.78 9 3.5V2H6v1.5C6 3.78 5.78 4 5.5 4h-2C3.22 4 3 3.78 3 3.5V2H2C1.45 2 1 2.45 1 3v11c0 .55 .45 1 1 1h11c.55 0 1 -.45 1 -1V3c0 -.55 -.45 -1 -1 -1zm0 12H2V5h11v9zM5 3H4V1h1v2zm6 0h-1V1h1v2zM6 7H5V6h1v1zm2 0H7V6h1v1zm2 0H9V6h1v1zm2 0h-1V6h1v1zM4 9H3V8h1v1zm2 0H5V8h1v1zm2 0H7V8h1v1zm2 0H9V8h1v1zm2 0h-1V8h1v1zm-8 2H3v-1h1v1zm2 0H5v-1h1v1zm2 0H7v-1h1v1zm2 0H9v-1h1v1zm2 0h-1v-1h1v1zm-8 2H3v-1h1v1zm2 0H5v-1h1v1zm2 0H7v-1h1v1zm2 0H9v-1h1v1z"/></svg>