<svg xmlns="http://www.w3.org/2000/svg" width="14" height="16" viewBox="0 0 14 16"><path fill-rule="evenodd" d="M3 5C3 4.45 3.45 4 4 4s1 .45 1 1S4.55 6 4 6 3 5.55 3 5zm8 0c0 -.55 -.45 -1 -1 -1S9 4.45 9 5s.45 1 1 1 1 -.45 1 -1zm0 6c0 -.55 -.45 -1 -1 -1s-1 .45 -1 1 .45 1 1 1 1 -.45 1 -1zM13 1H5v2.17c.36 .19 .64 .47 .83 .83h2.34C8.59 3.22 9.5 2.72 10.51 2.95c.75 .19 1.36 .8 1.53 1.55 .31 1.38 -.72 2.59 -2.05 2.59C9.19 7.09 8.51 6.65 8.16 6H5.83C5.41 6.8 4.5 7.28 3.49 7.03 2.76 6.86 2.15 6.25 1.97 5.51 1.72 4.49 2.2 3.59 3 3.17V1H1C.45 1 0 1.45 0 2v12c0 .55 .45 1 1 1l5 -5h2.17C8.59 9.22 9.5 8.72 10.51 8.95c.75 .19 1.36 .8 1.53 1.55 .31 1.38 -.72 2.59 -2.05 2.59 -.8 0 -1.48 -.44 -1.83 -1.09H6.99L4 15h9c.55 0 1 -.45 1 -1V2c0 -.55 -.45 -1 -1 -1z"/></svg>