<svg width="16" height="16" viewBox="0 0 16 16" xmlns="http://www.w3.org/2000/svg"><path d="M8.51 1C4.36 1 1 4.36 1 8.5S4.36 16 8.5 16 16 12.64 16 8.5c0 -1.03 -.2 -2.02 -.59 -2.91l-1 1c.19 .61 .3 1.25 .3 1.91 0 3.42 -2.78 6.2 -6.2 6.2C5.09 14.7 2.3 11.92 2.3 8.5S5.08 2.3 8.5 2.3c1.2 0 2.31 .34 3.27 .94l.94 -.94A7.46 7.46 0 0 0 8.51 1zm6.99 1L9 7C8.94 6.98 8 7 8 7 7.45 7 7 7.45 7 8v1c0 .55 .45 1 1 1h1c.55 0 1 -.45 1 -1v-.92L16 2.5 15.5 2zM8 4v1h1V4H8zM5 5v1h1V5H5zM4 8v1h1V8H4zm8 0v1h1V8h-1z"/></svg>