<svg xmlns="http://www.w3.org/2000/svg" width="12" height="16" viewBox="0 0 12 16"><path fill-rule="evenodd" d="M6 15C2.69 15 0 14.1 0 13v-2c0 -.17 .09 -.34 .21 -.5 .67 .86 3 1.5 5.79 1.5s5.12 -.64 5.79 -1.5c.13 .16 .21 .33 .21 .5v2c0 1.1 -2.69 2 -6 2zm0 -4C2.69 11 0 10.1 0 9V7c0 -.11 .04 -.21 .09 -.31C.12 6.63 .16 6.56 .21 6.5 .88 7.36 3.21 8 6 8s5.12 -.64 5.79 -1.5c.05 .06 .09 .13 .12 .19 .05 .1 .09 .21 .09 .31v2c0 1.1 -2.69 2 -6 2zM6 7C2.69 7 0 6.1 0 5V3C0 1.9 2.69 1 6 1s6 .9 6 2v2C12 6.1 9.31 7 6 7zM6 2C3.79 2 2 2.45 2 3s1.79 1 4 1 4 -.45 4 -1S8.21 2 6 2z"/></svg>