<svg width="16" height="14" viewBox="0 0 16 14" xmlns="http://www.w3.org/2000/svg"><path d="M14.447 0a.5 .5 0 0 0 -.332 .146l-2.11 2.11C10.892 1.483 9.566 .926 8.06 .926 3 .926 0 6.926 0 6.926s1.162 2.323 3.258 4.078l-2.065 2.064a.5 .5 0 1 0 .707 .707L14.822 .853A.5 .5 0 0 0 14.447 0zM8 2.926a3.98 3.98 0 0 1 2.478 .857L9.045 5.217C8.74 5.03 8.385 4.927 8 4.927c-1.11 0 -2 .89 -2 2a2 2 0 0 0 .293 1.044L4.86 9.403C4.32 8.722 4 7.864 4 6.926c0 -2.2 1.8 -4 4 -4zm5.857 .97L11.865 5.89h-.002c.09 .33 .137 .678 .137 1.036 0 2.22 -1.78 4 -4 4 -.358 0 -.705 -.048 -1.036 -.137l-1.566 1.565a6.61 6.61 0 0 0 2.662 .57c4.94 0 7.94 -6 7.94 -6a14.873 14.873 0 0 0 -2.143 -3.03z"/></svg>