<svg width="12" height="16" viewBox="0 0 12 16" xmlns="http://www.w3.org/2000/svg"><path d="M1 1A1 1 0 0 0 0 2v12a1 1 0 0 0 1 1h10a1 1 0 0 0 1 -1V4.5L8.5 1H1zm0 1h4a.68 .68 0 0 0 -.31 .2 1.08 1.08 0 0 0 -.23 .47 4.22 4.22 0 0 0 -.09 1.47c.06 .61 .174 1.21 .34 1.8A21.78 21.78 0 0 1 3.6 8.6c-.5 1 -.8 1.66 -.91 1.84a7.156 7.156 0 0 0 -.69 .3c-.362 .165 -.7 .38 -1 .64V2zm4.494 0H8l3 3v4.14a3.743 3.743 0 0 0 -.64 -.28 4.22 4.22 0 0 0 -.75 -.11c-.412 .003 -.82 .03 -1.23 .08a3 3 0 0 1 -1 -.64A6.07 6.07 0 0 1 6.09 5.86c.11 -.662 .177 -1.33 .2 -2 .02 -.25 .02 -.5 0 -.75a1.05 1.05 0 0 0 -.2 -.88A.82 .82 0 0 0 5.494 2zM5.43 6.79c-.002 .006 -.006 .012 -.008 .02A5.65 5.65 0 0 0 6.59 8.89c.275 .238 .594 .417 .94 .53 -.64 .09 -1.23 .2 -1.81 .33 -.617 .15 -1.223 .347 -1.81 .59s.22 -.44 .61 -1.25c.36 -.734 .663 -1.498 .902 -2.28A5.65 5.65 0 0 1 5.42 6.8l.01 -.01zm2.56 3.41c.447 .215 .913 .395 1.39 .53 .404 .11 .813 .19 1.23 .23h.38V14H1.5a.743 .743 0 0 1 -.17 0 2.12 2.12 0 0 0 .73 -.44 10.14 10.14 0 0 0 1.78 -2.38c.31 -.13 .58 -.23 .81 -.31l.42 -.14c.45 -.13 .94 -.23 1.44 -.33s1 -.16 1.48 -.2z"/></svg>