<svg xmlns="http://www.w3.org/2000/svg" width="12" height="16" viewBox="0 0 12 16"><path fill-rule="evenodd" d="M5.05 .31c.81 2.17 .41 3.38 -.52 4.31C3.55 5.67 1.98 6.45 .9 7.98c-1.45 2.05 -1.7 6.53 3.53 7.7C2.23 14.52 1.76 11.16 4.13 9.07c-.61 2.03 .53 3.33 1.94 2.86 1.39 -.47 2.3 .53 2.27 1.67 -.02 .78 -.31 1.44 -1.13 1.81 3.42 -.59 4.78 -3.42 4.78 -5.56 0 -2.84 -2.53 -3.22 -1.25 -5.61C9.22 4.37 8.71 5.37 8.85 6.99c.09 1.08 -1.02 1.8 -1.86 1.33C6.32 7.91 6.33 7.13 6.93 6.54 8.18 5.31 8.68 2.45 5.05 .32L5.03 .3l.02 .01z"/></svg>