<svg xmlns="http://www.w3.org/2000/svg" width="14" height="16" viewBox="0 0 14 16"><path fill-rule="evenodd" d="M13 4h-1.38c.19 -.33 .33 -.67 .36 -.91 .06 -.67 -.11 -1.22 -.52 -1.61C11.1 1.1 10.65 1 10.1 1h-.11c-.53 .02 -1.11 .25 -1.53 .58 -.42 .33 -.73 .72 -.97 1.2C7.26 2.3 6.94 1.9 6.52 1.58 6.1 1.26 5.52 1 4.99 1h-.03C4.4 1 3.9 1.09 3.52 1.48 3.11 1.87 2.94 2.42 3 3.09c.03 .23 .17 .58 .36 .91H1.98c-.55 0 -1 .45 -1 1v3h1v5c0 .55 .45 1 1 1h9c.55 0 1 -.45 1 -1V8h1V5c0 -.55 -.45 -1 -1 -1H13zM8.22 3.12c.17 -.36 .42 -.67 .75 -.92 .3 -.23 .72 -.39 1.05 -.41h.09c.45 0 .66 .11 .8 .25s.33 .39 .3 .95c-.05 .19 -.25 .61 -.5 1h-2.9l.41 -.88v.01zM4.09 2.04C4.22 1.91 4.4 1.79 5 1.79c.31 0 .72 .17 1.03 .41 .33 .25 .58 .55 .75 .92L7.2 4H4.3C4.05 3.61 3.85 3.19 3.8 3c-.03 -.56 .16 -.81 .3 -.95l-.01 -.01zM7 12.99H3V8h4v5 -.01zm0 -6H2V5h5v2 -.01zm5 6H8V8h4v5 -.01zm1 -6H8V5h5v2 -.01z"/></svg>