<svg width="12" height="16" viewBox="0 0 12 16" xmlns="http://www.w3.org/2000/svg"><path d="M2 .99C.89 .99 0 1.89 0 3a2 2 0 0 0 1 1.72v6.56C.41 11.63 0 12.27 0 13c0 1.11 .89 2 2 2a1.993 1.993 0 0 0 1 -3.72V7.67c.67 .7 1.44 1.27 2.3 1.69 .86 .42 2.03 .63 2.97 .64v-.02c.36 .61 1 1.02 1.73 1.02 1.11 0 2 -.89 2 -2S11.11 7 10 7C9.27 7 8.62 7.41 8.27 8.02V8C7.22 7.98 6 7.64 5.14 6.98 4.39 6.4 3.64 5.37 3.25 4.54A1.993 1.993 0 0 0 2 .99zm0 .81c.65 0 1.2 .55 1.2 1.2 0 .65 -.55 1.2 -1.2 1.2C1.34 4.2 .8 3.65 .8 3S1.35 1.8 2 1.8zm8 6c.65 0 1.2 .55 1.2 1.2s-.55 1.2 -1.2 1.2C9.34 10.2 8.8 9.65 8.8 9c0 -.65 .55 -1.2 1.2 -1.2zm-8 4c.65 0 1.2 .55 1.2 1.2 0 .66 -.55 1.2 -1.2 1.2S.8 13.65 .8 13 1.35 11.8 2 11.8z"/></svg>