<svg width="14" height="16" viewBox="0 0 14 16" xmlns="http://www.w3.org/2000/svg"><path d="M9 0L6 3l3 3V4h1c.27 .02 .48 .11 .69 .31s.3 .42 .31 .69v6.28A1.993 1.993 0 0 0 12 15a1.993 1.993 0 0 0 1 -3.72V5c-.03 -.78 -.34 -1.47 -.94 -2.06S10.78 2.03 10 2H9V0zM2 1A1.993 1.993 0 0 0 1 4.72V11c.03 .78 .34 1.47 .94 2.06S3.22 13.97 4 14h1v2l3 -3L5 10v2H4c-.27 -.02 -.48 -.11 -.69 -.31S3.01 11.27 3 11V4.72A1.993 1.993 0 0 0 2 1zm0 .8c.66 0 1.2 .55 1.2 1.2 0 .65 -.55 1.2 -1.2 1.2C1.35 4.2 .8 3.65 .8 3S1.35 1.8 2 1.8zm10 10c.65 0 1.2 .55 1.2 1.2s-.55 1.2 -1.2 1.2c-.66 0 -1.2 -.55 -1.2 -1.2s.55 -1.2 1.2 -1.2z"/></svg>