<svg width="10" height="16" viewBox="0 0 10 16" xmlns="http://www.w3.org/2000/svg"><path d="M1.99 1C.88 1 0 1.89 0 3a2 2 0 0 0 1 1.72v6.56C.41 11.63 0 12.27 0 13c0 1.11 .89 2 2 2s2 -.89 2 -2c0 -.53 -.2 -1 -.53 -1.36 .09 -.06 .48 -.41 .59 -.47C4.31 11.06 4.62 11 5 11c1.05 -.05 1.95 -.45 2.75 -1.25S8.95 7.77 9 6.73h-.02C9.59 6.37 10 5.73 10 5 10 3.89 9.11 3 8 3A1.993 1.993 0 0 0 7 6.72v.3C6.98 7.54 6.77 8 6.37 8.4s-.86 .61 -1.38 .63c-.83 .02 -1.48 .16 -2 .45V4.72A1.993 1.993 0 0 0 1.99 1zM2 1.8c.66 0 1.2 .55 1.2 1.2 0 .65 -.55 1.2 -1.2 1.2C1.35 4.2 .8 3.65 .8 3S1.35 1.8 2 1.8zm6 2.01c.65 0 1.2 .55 1.2 1.2S8.65 6.21 8 6.21c-.66 0 -1.2 -.55 -1.2 -1.2 0 -.65 .55 -1.2 1.2 -1.2zm-6 8c.65 0 1.2 .55 1.2 1.2 0 .65 -.55 1.2 -1.2 1.2 -.66 0 -1.2 -.55 -1.2 -1.2s.55 -1.2 1.2 -1.2z"/></svg>