<svg width="12" height="16" viewBox="0 0 12 16" xmlns="http://www.w3.org/2000/svg"><path d="M7 0L4 3l3 3V4h1c.27 .02 .48 .11 .69 .31S8.99 4.73 9 5v6.28A1.993 1.993 0 0 0 10 15a1.993 1.993 0 0 0 1 -3.72V5c-.03 -.78 -.34 -1.47 -.94 -2.06C9.46 2.35 8.78 2.03 8 2H7V0zM4 3C4 1.89 3.11 1 2 1A1.993 1.993 0 0 0 1 4.72v6.56A1.993 1.993 0 0 0 2 15a1.993 1.993 0 0 0 1 -3.72V4.72C3.59 4.38 4 3.74 4 3zM2 1.8c.65 0 1.2 .55 1.2 1.2 0 .65 -.55 1.2 -1.2 1.2C1.34 4.2 .8 3.65 .8 3S1.35 1.8 2 1.8zm0 10c.65 0 1.2 .55 1.2 1.2 0 .66 -.55 1.2 -1.2 1.2S.8 13.65 .8 13 1.35 11.8 2 11.8zm8 0c.65 0 1.2 .55 1.2 1.2s-.55 1.2 -1.2 1.2c-.66 0 -1.2 -.55 -1.2 -1.2s.55 -1.2 1.2 -1.2z"/></svg>