<svg width="12" height="16" viewBox="0 0 12 16" xmlns="http://www.w3.org/2000/svg"><path d="M3.727 3c-.892 0 -1.82 .294 -2.536 .924C.455 4.572 0 5.524 0 6.7c0 .96 .433 1.89 .943 2.67 .523 .8 1.202 1.557 1.854 2.202a24.57 24.57 0 0 0 1.793 1.6c.154 .125 1.43 1.047 1.43 1.047s.94 -.68 1.39 -1.046a24.563 24.563 0 0 0 1.793 -1.602c.652 -.645 1.332 -1.403 1.854 -2.203C11.567 8.59 12 7.66 12 6.7 12 5.523 11.546 4.57 10.81 3.923 10.09 3.294 9.164 3 8.272 3 7.27 3 6.488 3.486 6 3.895 5.513 3.485 4.73 3 3.727 3zm0 2c.344 0 .687 .172 .994 .43 .192 .16 .333 .315 .456 .45 .255 .277 .432 .47 .826 .47a.868 .868 0 0 0 .496 -.14c.146 -.095 .265 -.232 .395 -.38 .112 -.13 .232 -.27 .388 -.4C7.588 5.172 7.93 5 8.273 5c.472 0 .91 .157 1.214 .426C9.773 5.678 10 6.074 10 6.7c0 .387 -.19 .92 -.617 1.575C8.967 8.91 8.395 9.56 7.797 10.152c-.595 .59 -1.193 1.1 -1.645 1.465l-.15 .123a22.6 22.6 0 0 1 -1.8 -1.588C3.605 9.56 3.033 8.912 2.618 8.275 2.19 7.62 2 7.087 2 6.7c0 -.626 .227 -1.022 .514 -1.274C2.82 5.156 3.256 5 3.727 5z"/></svg>