<svg width="16" height="16" viewBox="0 0 16 16" xmlns="http://www.w3.org/2000/svg"><path d="M4 4a4 4 0 0 0 0 8c.69 0 1.34 -.302 1.852 -.62A9.587 9.587 0 0 0 7.31 10.228a15.45 15.45 0 0 0 .69 -.7 14.47 14.47 0 0 0 .69 .7 9.464 9.464 0 0 0 1.458 1.154C10.66 11.7 11.308 12 12 12a4 4 0 0 0 0 -8c-.69 0 -1.34 .302 -1.852 .62A9.587 9.587 0 0 0 8.69 5.772c-.254 .242 -.488 .482 -.69 .7 -.202 -.218 -.436 -.46 -.69 -.7C6.885 5.373 6.382 4.95 5.85 4.62 5.34 4.3 4.692 4 4 4zm0 2c.137 0 .403 .073 .797 .318a7.49 7.49 0 0 1 1.137 .91A14.22 14.22 0 0 1 6.687 8c-.21 .232 -.468 .503 -.753 .773a7.49 7.49 0 0 1 -1.137 .91C4.403 9.926 4.137 10 4 10A2 2 0 0 1 4 6zm8 0a2 2 0 0 1 0 4c-.137 0 -.403 -.073 -.797 -.318 -.374 -.232 -.767 -.56 -1.137 -.91C9.78 8.503 9.523 8.233 9.313 8c.21 -.232 .468 -.503 .753 -.773a7.483 7.483 0 0 1 1.137 -.91C11.597 6.074 11.863 6 12 6z"/></svg>