<svg width="14" height="16" viewBox="0 0 14 16" xmlns="http://www.w3.org/2000/svg"><path d="M7 .98c-3.86 0 -7 3.12 -7 7s3.14 7 7 7 7 -3.14 7 -7 -3.14 -7 -7 -7zm0 1.31c3.14 0 5.7 2.54 5.7 5.69 0 3.15 -2.56 5.7 -5.7 5.7S1.3 11.12 1.3 7.98 3.86 2.3 7 2.3v-.01zm0 1.72c-.28 0 -.51 .1 -.7 .28 -.19 .18 -.28 .42 -.28 .7a.942 .942 0 0 0 .28 .7c.18 .19 .42 .3 .7 .3a1 1 0 0 0 .7 -.3c.19 -.18 .28 -.42 .28 -.7 0 -.28 -.1 -.51 -.28 -.7C7.52 4.1 7.28 4.01 7 4.01zM6 6.99c-.27 .02 -.48 .13 -.69 .31 -.2 .2 -.3 .44 -.31 .69h1v3c.02 .27 .11 .5 .31 .69 .2 .2 .42 .31 .69 .31h1c.27 0 .48 -.11 .69 -.31 .2 -.19 .3 -.42 .31 -.69H8v-3C7.98 7.74 7.89 7.51 7.69 7.3 7.49 7.11 7.27 7 7 6.99H6z"/></svg>