<svg xmlns="http://www.w3.org/2000/svg" width="14" height="16" viewBox="0 0 14 16"><path fill-rule="evenodd" d="M4.5 6L4 6.5v5l.5 .5h2l.5 -.5v-5L6.5 6h-2zM6 11H5V7h1v4zm6.27 -7.25C12.05 2.37 11.96 1.12 12 0H9.02c0 .27 -.13 .48 -.39 .69C8.38 .89 8 .99 7.5 .99 7 .99 6.62 .9 6.37 .69 6.14 .49 6.01 .27 6.01 0H3c.05 1.13 -.03 2.38 -.25 3.75C2.55 5.13 1.95 5.88 1 6v9c.02 .27 .11 .48 .31 .69 .2 .21 .42 .3 .69 .31h11c.27 -.02 .48 -.11 .69 -.31 .21 -.2 .3 -.42 .31 -.69V6c-.95 -.13 -1.53 -.88 -1.75 -2.25h.02zM13 15H2V7C2.89 6.5 3.48 5.75 3.72 4.75S4.03 2.5 4 1h1c-.02 .78 .16 1.47 .52 2.06 .36 .58 1.02 .89 2 .94 .98 -.02 1.64 -.33 2 -.94C9.88 2.47 10.02 1.78 10 1h1c.02 1.42 .13 2.55 .33 3.38 .2 .81 .69 2 1.67 2.63v8V15zM8.5 6L8 6.5v5l.5 .5h2l.5 -.5v-5L10.5 6h-2zm1.5 5H9V7h1v4z"/></svg>