<svg xmlns="http://www.w3.org/2000/svg" width="14" height="16" viewBox="0 0 14 16"><path fill-rule="evenodd" d="M7 4C6.17 4 5.5 3.33 5.5 2.5S6.17 1 7 1s1.5 .67 1.5 1.5S7.83 4 7 4zm7 6c0 1.11 -.89 2 -2 2h-1C9.89 12 9 11.11 9 10l2 -4h-1C9.45 6 9 5.55 9 5H8v8c.42 0 1 .45 1 1h1c.42 0 1 .45 1 1H3c0 -.55 .58 -1 1 -1h1c0 -.55 .58 -1 1 -1h.03L6 5H5c0 .55 -.45 1 -1 1H3l2 4c0 1.11 -.89 2 -2 2H2C.89 12 0 11.11 0 10L2 6H1V5h3C4 4.45 4.45 4 5 4h4c.55 0 1 .45 1 1h3v1h-1l2 4zM2.5 7L1 10h3L2.5 7zM13 10L11.5 7 10 10h3z"/></svg>