<svg xmlns="http://www.w3.org/2000/svg" width="12" height="16" viewBox="0 0 12 16"><path fill-rule="evenodd" d="M6.5 0C3.48 0 1 2.19 1 5c0 .92 .55 2.25 1 3 1.34 2.25 1.78 2.78 2 4v1h5v-1c.22 -1.22 .66 -1.75 2 -4 .45 -.75 1 -2.08 1 -3C12 2.19 9.52 0 6.5 0zm3.64 7.48c-.25 .44 -.47 .8 -.67 1.11C8.61 10 8.22 10.65 8.02 11.82 8 11.87 8 11.93 8 11.99H5c0 -.06 0 -.13 -.02 -.17C4.78 10.65 4.39 9.99 3.53 8.59c-.2 -.31 -.42 -.67 -.67 -1.11C2.44 6.78 2 5.65 2 5 2 2.8 4.02 1 6.5 1c1.22 0 2.36 .42 3.22 1.19C10.55 2.94 11 3.94 11 5c0 .66 -.44 1.78 -.86 2.48zM4 14h5c-.23 1.14 -1.3 2 -2.5 2S4.23 15.14 4 14z"/></svg>