<svg width="16" height="16" viewBox="0 0 16 16" xmlns="http://www.w3.org/2000/svg"><path d="M8.01 2.785a.34 .34 0 0 0 -.1 .016L.27 5.18a.35 .35 0 0 0 0 .67L2 6.4v1.77c-.3 .17 -.5 .5 -.5 .86 0 .19 .05 .36 .14 .5 -.08 .14 -.14 .31 -.14 .5v2.58c0 .55 2 .55 2 0v-2.58c0 -.19 -.05 -.36 -.14 -.5 .08 -.14 .14 -.31 .14 -.5 0 -.38 -.2 -.69 -.5 -.86V6.72l4.89 1.53c.06 .02 .14 .02 .2 0l7.64 -2.38a.35 .35 0 0 0 0 -.67L8.1 2.81l.01 -.01a.34 .34 0 0 0 -.1 -.015zM8.02 5c.55 0 1 .22 1 .5s-.45 .5 -1 .5 -1 -.22 -1 -.5 .45 -.5 1 -.5zM4 8v2.5c0 1 1.8 1.5 4 1.5s4 -.5 4 -1.5V8L8.17 9.19c-.104 .028 -.218 .025 -.34 0L4 8z"/></svg>