<svg width="16" height="16" viewBox="0 0 16 16" xmlns="http://www.w3.org/2000/svg"><path d="M8.5 .75C8.5 .336 8.164 0 7.75 0S7 .336 7 .75v5.19L4.39 3.33C4.1 3.04 3.624 3.04 3.33 3.33c-.292 .293 -.292 .768 0 1.06L5.94 7H.75C.336 7 0 7.336 0 7.75s.336 .75 .75 .75h5.19l-2.61 2.61c-.292 .292 -.292 .767 0 1.06 .293 .292 .768 .292 1.06 0L7 9.56v5.19c0 .414 .336 .75 .75 .75s.75 -.336 .75 -.75V9.56l2.61 2.61c.292 .292 .767 .292 1.06 0 .292 -.293 .292 -.768 0 -1.06L9.56 8.5h5.19c.414 0 .75 -.336 .75 -.75S15.164 7 14.75 7H9.56l2.61 -2.61c.292 -.292 .292 -.767 0 -1.06 -.293 -.292 -.768 -.292 -1.06 0L8.5 5.94V.75z"/></svg>