<svg xmlns="http://www.w3.org/2000/svg" width="16" height="16" viewBox="0 0 16 16"><path fill-rule="evenodd" d="M14.7 5.34c.13 -.32 .55 -1.59 -.13 -3.31 0 0 -1.05 -.33 -3.44 1.3C10.13 3.05 9.06 3.01 8 3.01s-2.13 .04 -3.13 .32C2.48 1.69 1.43 2.03 1.43 2.03 .75 3.75 1.17 5.02 1.3 5.34 .49 6.21 0 7.33 0 8.69 0 13.84 3.33 15 7.98 15S16 13.84 16 8.69C16 7.33 15.51 6.21 14.7 5.34zM8 14.02c-3.3 0 -5.98 -.15 -5.98 -3.35 0 -.76 .38 -1.48 1.02 -2.07C4.11 7.62 5.94 8.14 8 8.14c2.07 0 3.88 -.52 4.96 .46 .65 .59 1.02 1.3 1.02 2.07 0 3.19 -2.68 3.35 -5.98 3.35zM5.49 9.01c-.66 0 -1.2 .8 -1.2 1.78s.54 1.79 1.2 1.79c.66 0 1.2 -.8 1.2 -1.79S6.15 9.01 5.49 9.01zm5.02 0c-.66 0 -1.2 .79 -1.2 1.78s.54 1.79 1.2 1.79c.66 0 1.2 -.8 1.2 -1.79s-.53 -1.78 -1.2 -1.78z"/></svg>