<svg width="16" height="16" viewBox="0 0 16 16" xmlns="http://www.w3.org/2000/svg"><path d="M4.5 1C3.367 1 2.058 1.58 2 4c-.058 2.41 .16 2.38 1 3 .23 .59 0 1 0 1S0 9.366 0 12c0 .44 .46 1 1 1h6c0 .552 .455 .998 .994 .998H15c.55 0 1 -.56 1 -1 0 -2.634 -3.006 -4 -3.006 -4s-.23 -.41 0 -1c.842 -.62 1.06 -.59 1 -3 -.058 -2.42 -1.36 -3 -2.494 -3s-2.442 .58 -2.5 3c-.058 2.41 .16 2.38 1 3 .23 .59 0 1 0 1s-.804 .37 -1.58 1.09C7.55 8.71 6 8 6 8S5.77 7.59 6 7c.84 -.62 1.058 -.59 1 -3C6.942 1.58 5.633 1 4.5 1z"/></svg>