<svg xmlns="http://www.w3.org/2000/svg" width="12" height="16" viewBox="0 0 12 16"><path fill-rule="evenodd" d="M6 0C2.69 0 0 2.69 0 6v1c0 .55 .45 1 1 1v5c0 1.1 2.24 2 5 2s5 -.9 5 -2V8c.55 0 1 -.45 1 -1V6C12 2.69 9.31 0 6 0zm3 10v.5c0 .28 -.22 .5 -.5 .5S8 10.78 8 10.5V10c0 -.28 -.22 -.5 -.5 -.5S7 9.72 7 10v2.5c0 .28 -.22 .5 -.5 .5S6 12.78 6 12.5v-2C6 10.22 5.78 10 5.5 10s-.5 .22 -.5 .5v.5c0 .55 -.45 1 -1 1S3 11.55 3 11v-1C2.45 10 2 9.55 2 9V7.2c.91 .49 2.36 .8 4 .8 1.64 0 3.09 -.31 4 -.8V9c0 .55 -.45 1 -1 1zM6 7C4.32 7 2.88 6.59 2.29 6 2.88 5.41 4.32 5 6 5c1.68 0 3.12 .41 3.71 1C9.12 6.59 7.68 7 6 7zM6 4C3.24 4 1 4.89 1 6 1 3.24 3.24 1 6 1s5 2.24 5 5C11 4.9 8.76 4 6 4z"/></svg>