<svg width="16" height="16" viewBox="0 0 16 16" xmlns="http://www.w3.org/2000/svg"><path d="M1.86 .33a.65 .65 0 0 0 -.45 .19C.48 1.48 .01 2.74 .01 3.99c0 1.26 .47 2.52 1.4 3.48 .25 .26 .66 .26 .91 0s.25 -.68 0 -.94C1.64 5.83 1.3 4.91 1.3 3.99c0 -.92 .34 -1.84 1.02 -2.54a.66 .66 0 0 0 .01 -.93A.65 .65 0 0 0 1.86 .33zm12.28 .004a.628 .628 0 0 0 -.46 .195c-.25 .26 -.25 .68 0 .94 .68 .7 1.02 1.62 1.02 2.54s-.34 1.83 -1.02 2.54c-.25 .26 -.25 .68 0 .94a.65 .65 0 0 0 .92 0C15.53 6.53 16 5.27 16 4.01A5.048 5.048 0 0 0 14.59 .53a.628 .628 0 0 0 -.45 -.196zM4.34 1.7c-.16 0 -.33 .06 -.45 .19C3.32 2.47 3.04 3.24 3.04 4s.29 1.53 .85 2.11c.25 .25 .66 .25 .9 0 .25 -.25 .25 -.67 0 -.92C4.47 4.86 4.31 4.43 4.31 4s.16 -.86 .48 -1.19c.25 -.26 .25 -.67 0 -.92A.613 .613 0 0 0 4.34 1.7zm7.312 .003a.634 .634 0 0 0 -.44 .188c-.25 .25 -.25 .67 0 .92 .32 .33 .477 .76 .477 1.19s-.16 .86 -.48 1.19c-.25 .26 -.25 .67 0 .92a.63 .63 0 0 0 .9 0c.57 -.58 .85 -1.35 .85 -2.11 0 -.76 -.28 -1.53 -.85 -2.11a.634 .634 0 0 0 -.458 -.187zM8.088 2.38A1.62 1.62 0 0 0 6.4 4c-.01 .89 .72 1.62 1.62 1.62a1.62 1.62 0 0 0 .068 -3.24zM6.82 6.62l-3.15 8.37h1.49l.86 -1h4l.84 1h1.49L9.21 6.62c-.38 .2 -.78 .3 -1.19 .3 -.41 0 -.83 -.1 -1.2 -.3zm1.19 .78L9.02 11h-2l.99 -3.6zm-.99 4.59h2l1 1h-4l1 -1z"/></svg>