<svg width="10" height="16" viewBox="0 0 10 16" xmlns="http://www.w3.org/2000/svg"><path d="M2 1A1.993 1.993 0 0 0 1 4.72V6.5l3 3v1.78A1.993 1.993 0 0 0 5 15a1.993 1.993 0 0 0 1 -3.72V9.5l3 -3V4.72A1.993 1.993 0 0 0 8 1 1.993 1.993 0 0 0 7 4.72V6L5 8 3 6V4.72A1.993 1.993 0 0 0 2 1zm0 .8c.65 0 1.2 .55 1.2 1.2 0 .65 -.55 1.2 -1.2 1.2C1.34 4.2 .8 3.65 .8 3S1.35 1.8 2 1.8zm6 0c.65 0 1.2 .55 1.2 1.2S8.65 4.2 8 4.2C7.34 4.2 6.8 3.65 6.8 3 6.8 2.35 7.35 1.8 8 1.8zm-3 10c.65 0 1.2 .55 1.2 1.2 0 .65 -.55 1.2 -1.2 1.2 -.66 0 -1.2 -.55 -1.2 -1.2 0 -.65 .55 -1.2 1.2 -1.2z"/></svg>