<svg width="16" height="16" viewBox="0 0 16 16" xmlns="http://www.w3.org/2000/svg"><path d="M16 0s-.38 .08 -1.08 .28c-.69 .2 -1.56 .56 -2.64 1.08 .07 .7 .31 1.25 .7 1.64s.96 .64 1.66 .72c.51 -1.08 .86 -1.96 1.06 -2.66C15.91 .38 16 0 16 0zm-4.8 1.93c-.58 .33 -1.16 .7 -1.73 1.13C8.89 3.5 8.33 4 7.78 4.54 7.08 5.24 6.45 6.35 6 6.99H3L0 10h3L5 8c-.34 .77 -1.02 2.98 -1 3l1 1c.02 .02 2.23 -.64 3 -1l-2 2v3l3 -3v-3c.64 -.45 1.75 -1.09 2.45 -1.78C12 7.67 12.5 7.09 12.92 6.52c.44 -.58 .81 -1.16 1.14 -1.72 -.36 -.08 -.7 -.19 -1.03 -.34a3.39 3.39 0 0 1 -.86 -.63c-.27 -.27 -.47 -.55 -.63 -.88 -.16 -.31 -.27 -.66 -.34 -1.02z"/></svg>