<svg width="16" height="16" viewBox="0 0 16 16" xmlns="http://www.w3.org/2000/svg"><path d="M8 0C3.58 0 0 3.58 0 8s3.58 8 8 8 8 -3.58 8 -8S12.42 0 8 0zm-.076 1.21a6.59 6.59 0 0 1 .076 0c.92 0 1.81 .17 2.64 .53 .81 .34 1.55 .83 2.17 1.45s1.11 1.36 1.45 2.17c.36 .83 .53 1.72 .53 2.64 0 .92 -.17 1.81 -.53 2.64 -.34 .81 -.83 1.55 -1.45 2.17a6.72 6.72 0 0 1 -2.17 1.45c-.83 .36 -1.72 .53 -2.64 .53 -.92 0 -1.81 -.17 -2.64 -.53 -.81 -.34 -1.55 -.83 -2.17 -1.45A6.773 6.773 0 0 1 1.74 10.64 6.59 6.59 0 0 1 1.21 8c0 -.92 .17 -1.81 .53 -2.64 .34 -.81 .83 -1.55 1.45 -2.17S4.55 2.08 5.36 1.74a6.59 6.59 0 0 1 2.564 -.53zM5.2 5.02C4.53 5.02 4 5.55 4 6.21v.59C4 7.47 4.53 8 5.2 8h.59c.66 0 1.19 -.53 1.19 -1.2v-.59c0 -.66 -.53 -1.19 -1.19 -1.19H5.2zm5 0C9.53 5.02 9 5.55 9 6.21v.59C9 7.47 9.53 8 10.2 8h.59c.66 0 1.19 -.53 1.19 -1.2v-.59c0 -.66 -.53 -1.19 -1.19 -1.19h-.59zM3.66 9c-.43 0 -.8 .61 -.66 1 .72 1.87 2.91 3 5 3s4.28 -1.12 5 -3c.14 -.39 -.34 -1 -.75 -1H3.66z"/></svg>