<svg xmlns="http://www.w3.org/2000/svg" width="16" height="16" viewBox="0 0 16 16"><path fill-rule="evenodd" d="M12 1C9.79 1 8 2.31 8 3.92 8 5.86 8.5 6.95 8 10 8 5.5 5.23 3.66 4 3.66 4.05 3.16 3.52 3 3.52 3s-.22 .11 -.3 .34c-.27 -.31 -.56 -.27 -.56 -.27l-.13 .58S.7 4.29 .68 6.87c.2 .33 1.53 .6 2.47 .43 .89 .05 .67 .79 .47 .99C2.78 9.13 2 8 1 8S0 9 1 9s1 1 3 1c-3.09 1.2 0 4 0 4H3c-1 0 -1 1 -1 1h6c3 0 5 -1 5 -3.47C13 10.68 12.57 9.74 12 9c-1.11 -1.46 .23 -2.68 1 -2 .77 .68 3 1 3 -2C16 2.79 14.21 1 12 1zM2.5 6C2.22 6 2 5.78 2 5.5S2.22 5 2.5 5s.5 .22 .5 .5S2.78 6 2.5 6z"/></svg>