<svg width="16" height="16" viewBox="0 0 16 16" xmlns="http://www.w3.org/2000/svg"><path d="M8.332 2.064c-.21 -.024 -.435 .04 -.61 .215L4 6H2C1.45 6 1 6.45 1 7v2c0 .55 .45 1 1 1h2l3.72 3.72c.47 .47 1.28 .14 1.28 -.53V2.81c0 -.418 -.316 -.705 -.668 -.746zm5.328 .276v.02l-.67 .67a6.996 6.996 0 0 1 2.06 4.98c0 1.94 -.78 3.7 -2.06 4.98l.67 .67A7.973 7.973 0 0 0 16 8C16 5.78 15.11 3.78 13.66 2.34zm-1.41 1.43l-.69 .67a5.05 5.05 0 0 1 1.48 3.58c0 1.39 -.56 2.66 -1.48 3.56l.69 .67A5.97 5.97 0 0 0 14 8.02C14 6.37 13.33 4.86 12.25 3.77zm-1.42 1.42l-.67 .67c.55 .55 .89 1.31 .89 2.16 0 .85 -.34 1.6 -.89 2.16l.67 .67C11.55 10.11 12 9.11 12 8.02A3.99 3.99 0 0 0 10.83 5.19z"/></svg>