<svg width="16" height="16" viewBox="0 0 16 16" xmlns="http://www.w3.org/2000/svg"><path d="M7.967 .002a1.504 1.504 0 0 0 -.9 .328l-1.34 1.08a1.5 1.5 0 0 1 -.77 .31L3.26 1.91c-.7 .08 -1.25 .63 -1.33 1.328l-.192 1.7c-.03 .3 -.158 .56 -.328 .78L.33 7.056a1.504 1.504 0 0 0 0 1.88l1.08 1.338c.17 .22 .28 .48 .31 .77l.19 1.697c.08 .7 .63 1.25 1.328 1.33l1.7 .192c.3 .03 .56 .158 .78 .328l1.34 1.08c.55 .44 1.328 .44 1.877 0l1.34 -1.08c.22 -.17 .48 -.28 .77 -.31l1.697 -.19c.7 -.08 1.25 -.63 1.33 -1.328l.192 -1.7c.03 -.3 .158 -.56 .328 -.78l1.08 -1.34a1.504 1.504 0 0 0 0 -1.878l-.002 .002 -1.08 -1.34a1.5 1.5 0 0 1 -.31 -.77l-.188 -1.698a1.51 1.51 0 0 0 -1.33 -1.33l-1.7 -.19c-.3 -.03 -.56 -.16 -.78 -.33L8.946 .33A1.504 1.504 0 0 0 7.967 .002zM7.87 4c.44 0 .83 .05 1.17 .13 .34 .09 .63 .22 .88 .39 .23 .17 .41 .38 .55 .63 .13 .25 .19 .55 .19 .88 0 .22 0 .42 -.08 .59l-.02 -.01c-.06 .17 -.17 .33 -.3 .47 -.13 .16 -.14 .19 -.33 .38 -.16 .17 -.31 .3 -.52 .45C9.3 8 9.21 8.1 9.13 8.18s-.14 .17 -.19 .27 -.08 .19 -.11 .3S8.8 8.88 8.8 9H7.13c0 -.22 0 -.31 .03 -.48C7.19 8.33 7.24 8.16 7.3 8c.06 -.14 .14 -.28 .25 -.42 .11 -.13 .23 -.25 .41 -.38 .27 -.19 .36 -.3 .48 -.52s.2 -.38 .2 -.59c0 -.27 -.06 -.45 -.2 -.58 -.13 -.13 -.31 -.19 -.58 -.19 -.09 0 -.19 .02 -.3 .05s-.17 .09 -.25 .16 -.14 .11 -.2 .2a.41 .41 0 0 0 -.09 .28h-2c0 -.38 .13 -.56 .27 -.83 .16 -.27 .36 -.5 .61 -.67s.55 -.3 .88 -.38S7.48 4 7.87 4zm-.37 6h1c.28 0 .5 .22 .5 .5v1c0 .28 -.22 .5 -.5 .5h-1C7.23 12 7 11.78 7 11.5v-1c0 -.28 .23 -.5 .5 -.5z"/></svg>