<svg width="16" height="16" viewBox="0 0 16 16" xmlns="http://www.w3.org/2000/svg"><path d="M7.97 .002a1.5 1.5 0 0 0 -.9 .328L5.73 1.41a1.5 1.5 0 0 1 -.77 .31l-1.7 .19c-.7 .08 -1.25 .63 -1.33 1.33l-.19 1.7c-.03 .3 -.16 .56 -.33 .78L.33 7.06a1.5 1.5 0 0 0 0 1.88l1.08 1.34c.17 .22 .282 .48 .312 .77l.19 1.7c.08 .7 .628 1.25 1.33 1.33l1.7 .192c.3 .03 .56 .158 .78 .328l1.34 1.08c.55 .44 1.33 .44 1.88 0l1.34 -1.08c.22 -.17 .48 -.28 .77 -.31l1.7 -.19c.7 -.08 1.25 -.63 1.33 -1.33l.19 -1.7c.03 -.3 .16 -.56 .33 -.78l1.08 -1.34a1.5 1.5 0 0 0 0 -1.88h-.003L14.6 5.73a1.5 1.5 0 0 1 -.31 -.77l-.19 -1.7A1.51 1.51 0 0 0 12.77 1.93l-1.7 -.19c-.3 -.03 -.558 -.16 -.778 -.33L8.952 .33a1.5 1.5 0 0 0 -.98 -.327zm3.53 4.01l1.5 1.55 -6.5 6.45L3 8.512l1.5 -1.5 2 2 5 -5z"/></svg>