<svg height="1000" width="875" xmlns="http://www.w3.org/2000/svg"><path d="M827.9 499.6l-25.2 307.2c-6.4 79.5 -124.8 68.6 -118.3 -9.5L703.9 558l-80.3 4.5c19.8 40.4 30.9 85.7 30.9 133.8 0 80.5 -31.5 153.7 -82.6 208l-76.8 -76.8C608.2 703.1 520.7 501 350.6 501c-50.6 0 -96.7 19.3 -131.3 50.8L142.6 475c42.9 -40.4 97.8 -68.6 159 -78.5l147 -167.4 -83.2 -48.4 -100.8 89.8c-58.5 52.4 -137.8 -36.1 -79.1 -88.7L318.4 63.3c19.1 -17.2 47 -19.9 69.3 -7 0 0 272.1 158 272.5 158.4 31.6 19.7 40.4 70.3 11.9 102.7L558 447.3l207.2 -11.6c36.2 -2.1 65.7 28.2 62.7 63.9zM701.2 198.8c-54.9 0 -99.4 -44.5 -99.4 -99.4C601.8 44.5 646.3 0 701.2 0s99.4 44.5 99.4 99.4c0 54.9 -44.5 99.4 -99.4 99.4zM350.8 891.6c40.6 0 78.3 -12.5 109.6 -33.8l77.5 77.6c-196.7 154.1 -491 16 -491 -239.3 0 -70.5 24.2 -135.6 64.8 -186.9l77.6 77.5c-87.3 127.9 4.1 304.9 161.5 304.9z"/></svg>