<svg height="1000" width="1250" xmlns="http://www.w3.org/2000/svg"><path d="M629.1 492.2c-3.3 3.1 -175 161.1 -176.2 162.7l-180.8 66c-9.4 3.9 -14.9 7.2 -13.7 17.4 .4 2.9 1.2 44.1 2 54.1 -1.4 1 -.2 0 -1.2 1.2 0 0 -222.1 71.4 -223.7 71.4C8 875 -8.8 881.3 4.9 861.7 7.4 858.2 462.7 409.4 480.3 391.2c25.4 -26.4 48.8 -29.5 48.8 -29.5l100 128.5v2zm312.7 234.6C930.7 713.3 488.3 146.5 473.2 127.9c-26.7 -33.6 0 -32.8 37.5 -33 19 -.2 207.7 -1.2 227.6 -1.2 47.1 -.1 56 1.2 75 25 4.1 5.3 400.6 480.1 404.7 485 10.7 13.1 29.7 37.3 14 45.7 -4.7 2.6 -223.8 93.2 -230 95.5 -19.8 7.8 -34.2 13.3 -60.2 -18.1zm298.2 3.1c11.8 2.7 13.9 8.2 3.4 16 -3.9 2.7 -241.6 149.6 -245.7 152C968.2 915 923.4 901 893 894.5 879.1 891.6 296.7 761.1 291.4 759.6c-5.1 -1.8 -8.6 -2 -9 -6.9 -.6 -7.8 11.7 -10.9 21.7 -14.8 9.8 -3.7 283.8 -102.7 293.4 -106.8 9.3 -4.1 22 -5.3 28.1 -5.7 9.6 -.6 117 16.4 127.5 18.2l111.5 144.5c19.2 22.3 40.5 42.8 71.7 28.5 4.9 -2.3 229.5 -100.8 229.5 -100.8 26.2 4.9 69.7 13.5 74.2 14.1z"/></svg>