<svg height="1000" width="750" xmlns="http://www.w3.org/2000/svg"><path d="M698.1 914.5c4.3 27.9 8.1 56 12.9 85.3H52.6c-7.8 0 -11.9 -1.4 -10.3 -11.1 4.1 -25.2 6.8 -50.6 9.8 -75.8 .9 -9.4 4.4 -13.3 14.8 -13.3 230.7 2 224.4 .6 237.1 -4.7 18.4 -7.8 29.1 -25.2 29.1 -45.1 -.2 -83.8 -.6 -167.8 -.4 -251.6 0 -7.4 -2.3 -11.5 -9 -13.2 -30.6 -7.7 -61.1 -15.1 -92.9 -22.9 -10.4 24 -20.4 47.7 -30.7 71.7 3.5 6.4 55.5 5.7 68.9 5.7v53.9H45.8c2 -16.8 3.3 -32.9 6.2 -48.7 .6 -2.7 7.1 -6 10.8 -6.2 16.4 -.8 33 -.6 49.6 -.2 7.8 0 11.5 -2.2 14.8 -10.2 32.5 -79.5 26.4 -60.9 131.5 -314.4C320.2 165 323.1 165.2 322.4 143 321 106.6 272.8 99.4 248.7 99.8c-58.6 .8 -75 -1 -198.8 -1C35.8 11.9 41.7 36.1 37.4 10.4 36 2.1 39.4 0 46.4 0l662.3 .4c-1.6 10.5 -3.1 21.1 -4.7 31.4 -2.5 19 -5.5 37.9 -7.8 57.1 -.6 5.6 -2.4 8.4 -8.4 8.4 -40.2 .2 -80.5 .2 -120.7 .9 -36.5 .8 -73.4 .6 -109.8 3.9 -26.1 2.4 -45.5 24.7 -36.9 52 16.8 52.9 54.1 135 71.3 174.2C620 629.5 611.6 635 655.8 638.1c12.8 1 26.1 .2 39.8 .2 2.5 18.3 5.1 35.1 7.8 53.7H476.9v-52.7c20.3 0 39.8 -.2 59.3 .2 6.9 0 9.8 -1.4 6.7 -8.6 -8.6 -20.2 -17 -40.3 -25.8 -60.4 -3.1 -7.2 -8 -9.4 -16.4 -6.8 -24.2 7 -48.5 13.1 -72.9 18.9 -8.4 2.2 -11.7 5.5 -11.5 14.7 1.6 112.3 1.8 249 2 252.1 .7 24.6 17 41.8 41 45.1 1.7 .4 25.2 5.5 220.1 5.1 16.2 0 16.4 -.2 18.7 14.9zM356.5 512.7c4.9 1.7 12.9 3.1 18 3.1s13.2 -1.4 18 -3.1c25.4 -8.2 51.3 -15.2 76.9 -22.9 2.2 -1 5.6 -2.8 7.7 -4.1C464 451.8 451.5 418.9 438.6 386.3 421.2 342 404 268.6 385.8 224.6c-2.9 -1.6 -3.7 4.7 -18.3 0 -33.4 85.9 -66.6 171.5 -100.2 258 3 1.8 8.1 4.3 11.3 5.7 26 8.4 52 16.2 77.9 24.4z"/></svg>