<svg height="1000" width="1000" xmlns="http://www.w3.org/2000/svg"><path d="M307.7 531.3l36.1 -104 36 104h-72.1zM687.5 500c25.8 0 46.9 21 46.9 46.9s-21.1 46.9 -46.9 46.9 -46.9 -21.1 -46.9 -46.9S661.7 500 687.5 500zM906.3 125c51.7 0 93.7 42 93.7 93.8v562.5c0 51.7 -42 93.7 -93.7 93.7H93.8C42 875 0 833 0 781.3V218.8C0 167 42 125 93.8 125h812.5zM489.4 687.5c21.5 0 36.6 -21.2 29.5 -41.5L414.1 344C408 326.6 388.2 312.5 369.8 312.5h-52.1c-18.4 0 -38.2 14.1 -44.3 31.5L168.6 646c-7.1 20.3 8 41.5 29.5 41.5h33.1c12.3 0 25.5 -9.4 29.5 -21L275.1 625h137.3l14.4 41.5c4.4 12.6 16.2 21 29.5 21h33.1zm338.7 -31.2V343.8c0 -17.3 -14 -31.3 -31.2 -31.3h-31.3c-17.2 0 -31.2 14 -31.2 31.3v71.1c-14.8 -5.3 -30.4 -8.7 -46.9 -8.7 -77.5 0 -140.6 63.1 -140.6 140.7S610 687.5 687.5 687.5c19.4 0 37.9 -3.9 54.7 -11.1 5.8 6.7 14 11.1 23.4 11.1h31.3c17.2 0 31.2 -14 31.2 -31.3z"/></svg>