<svg height="1000" width="875" xmlns="http://www.w3.org/2000/svg"><path d="M851.6 312.5h-39.1v125h39.1c12.9 0 23.4 10.5 23.4 23.4v78.2c0 12.9 -10.5 23.4 -23.4 23.4h-39.1v125h39.1c12.9 0 23.4 10.5 23.4 23.4v78.2c0 12.9 -10.5 23.4 -23.4 23.4h-39.1v93.8c0 51.7 -42 93.7 -93.7 93.7h-625C42 1000 0 958 0 906.3V93.8C0 42 42 0 93.8 0h625c51.7 0 93.7 42 93.7 93.8v93.7h39.1c12.9 0 23.4 10.5 23.4 23.4v78.2c0 12.9 -10.5 23.4 -23.4 23.4zM406.3 250c-69 0 -125 56.1 -125 125s56 125 125 125 125 -56.1 125 -125S475.2 250 406.3 250zM625 712.5V675C625 612.9 566.2 562.5 493.7 562.5H484c-23.8 10 -50.2 15.6 -77.7 15.6s-53.8 -5.6 -77.8 -15.6h-9.7c-72.5 0 -131.3 50.4 -131.3 112.5v37.5c0 20.7 19.5 37.5 43.8 37.5h349.9c24.3 0 43.8 -16.8 43.8 -37.5z"/></svg>