<svg height="1000" width="1125" xmlns="http://www.w3.org/2000/svg"><path d="M1031.3 62.5c51.7 0 93.7 42 93.7 93.8v687.5c0 51.7 -42 93.7 -93.7 93.7H93.8C42 937.5 0 895.5 0 843.8V156.3C0 104.5 42 62.5 93.8 62.5h937.5zM343.8 250c-69 0 -125 56.1 -125 125s56 125 125 125 125 -56.1 125 -125S412.7 250 343.8 250zm218.7 462.5V675c0 -62.1 -58.8 -112.5 -131.3 -112.5h-9.7c-23.8 10 -50.2 15.6 -77.7 15.6S290 572.5 266 562.5h-9.7C183.8 562.5 125 612.9 125 675v37.5c0 20.7 19.5 37.5 43.8 37.5h349.9c24.3 0 43.8 -16.8 43.8 -37.5zM1000 609.4v-31.3c0 -8.6 -7 -15.6 -15.6 -15.6H703.1c-8.6 0 -15.6 7 -15.6 15.6v31.3c0 8.6 7 15.6 15.6 15.6h281.3c8.6 0 15.6 -7 15.6 -15.6zm0 -125v-31.3c0 -8.6 -7 -15.6 -15.6 -15.6H703.1c-8.6 0 -15.6 7 -15.6 15.6v31.3c0 8.6 7 15.6 15.6 15.6h281.3c8.6 0 15.6 -7 15.6 -15.6zm0 -125v-31.3c0 -8.6 -7 -15.6 -15.6 -15.6H703.1c-8.6 0 -15.6 7 -15.6 15.6v31.3c0 8.6 7 15.6 15.6 15.6h281.3c8.6 0 15.6 -7 15.6 -15.6z"/></svg>