<svg height="1000" width="750" xmlns="http://www.w3.org/2000/svg"><path d="M740.1 627.8c23 23.7 3.4 59.7 -32.5 59.7H437.5V750h218.7c17.3 0 31.3 14 31.3 31.2v187.5c0 17.3 -14 31.3 -31.3 31.3H93.7c-17.2 0 -31.2 -14 -31.2 -31.3V781.2C62.5 764 76.5 750 93.7 750h218.8v-62.5H42.4c-35.9 0 -55.5 -36 -32.5 -59.7l184 -190.3H97.8c-29.9 0 -46.2 -32.4 -27.1 -53.8L292.1 136.6c-6.7 -12.9 -10.9 -27.3 -10.9 -42.9C281.2 42 323.2 0 375 0s93.7 42 93.7 93.7c0 15.6 -4.1 30 -10.8 42.9l221.4 247.1c19.1 21.4 2.8 53.8 -27.1 53.8h-96.1zM375 62.5c-17.3 0 -31.3 14 -31.3 31.2 0 17.3 14 31.3 31.3 31.3s31.3 -14 31.3 -31.3c0 -17.2 -14 -31.2 -31.3 -31.2zm218.8 781.3H156.3v62.5h437.5v-62.5z"/></svg>