<svg height="1000" width="875" xmlns="http://www.w3.org/2000/svg"><path d="M437.5 728.8h.1c48.3 -60.9 77.3 -115.1 87.9 -162.5 44.1 -171.9 -219.9 -171.9 -175.9 0 9.6 46.4 38.6 100.6 87.9 162.5zm269.8 143c69.6 -30 98 -104.7 72.3 -169.2C729.8 582.2 625.6 373.5 555.3 235.6 522.2 169.3 500.6 118.7 437.4 118.7c-66.1 0 -85.2 53.3 -116 112.1C313.3 251 124.6 626.1 95.1 702.6 60.3 800.3 136.7 895 234.4 880.5c48 -4.4 102.7 -36.9 166.3 -107.3C343.7 700.7 307.9 635.9 294.4 578.9 271.2 473.4 330.2 382.6 437.5 382.6c126.9 0 239.7 136.6 36.8 390.6 69.6 77.3 150.9 134.3 233 98.6zm91.8 -265.9c0 1.3 32.9 69.7 32.9 77.3 49.3 135.4 -52.2 254.4 -175 254.3 -21.7 0 -104.9 2.7 -219.5 -121.9C336.4 925.7 260.4 937.5 218 937.5 95.2 937.5 -6.3 818.6 43 683.2c1.7 -5.1 21.8 -63.9 229.1 -478.5C310.8 124.4 348.6 62.5 437.5 62.5c96 0 109.9 7.7 361.6 543.4z"/></svg>