<svg height="1000" width="875" xmlns="http://www.w3.org/2000/svg"><path d="M843.8 812.5c17.2 0 31.2 14 31.2 31.3v62.5c0 17.2 -14 31.2 -31.2 31.2H31.3C14 937.5 0 923.5 0 906.3v-62.5c0 -17.3 14 -31.3 31.3 -31.3h812.5zm0 -250c17.2 0 31.2 14 31.2 31.3v62.5c0 17.2 -14 31.2 -31.2 31.2H31.3C14 687.5 0 673.5 0 656.3v-62.5c0 -17.3 14 -31.3 31.3 -31.3h812.5zm0 -250c17.2 0 31.2 14 31.2 31.3v62.5c0 17.2 -14 31.2 -31.2 31.2H31.3C14 437.5 0 423.5 0 406.3v-62.5c0 -17.3 14 -31.3 31.3 -31.3h812.5zm0 -250c17.2 0 31.2 14 31.2 31.3v62.5c0 17.2 -14 31.2 -31.2 31.2H31.3C14 187.5 0 173.5 0 156.3V93.8C0 76.5 14 62.5 31.3 62.5h812.5z"/></svg>