<svg height="1000" width="875" xmlns="http://www.w3.org/2000/svg"><path d="M31.3 437.5C14 437.5 0 423.5 0 406.3v-62.5c0 -17.3 14 -31.3 31.3 -31.3h812.5c17.2 0 31.2 14 31.2 31.3v62.5c0 17.2 -14 31.2 -31.2 31.2H31.3zm812.5 375c17.2 0 31.2 14 31.2 31.3v62.5c0 17.2 -14 31.2 -31.2 31.2H31.3C14 937.5 0 923.5 0 906.3v-62.5c0 -17.3 14 -31.3 31.3 -31.3h812.5zm6.1 -750c13.9 0 25.1 11.2 25.1 25V162.5c0 13.8 -11.2 25 -25 25H337.5c-13.8 0 -25 -11.2 -25 -25V87.5c0 -13.8 11.2 -25 25 -25h512.4zm0 500c13.9 0 25.1 11.2 25.1 25V662.5c0 13.8 -11.2 25 -25 25H337.5c-13.8 0 -25 -11.2 -25 -25V587.5c0 -13.8 11.2 -25 25 -25h512.4z"/></svg>