<svg height="1000" width="875" xmlns="http://www.w3.org/2000/svg"><path d="M25.1 687.5C11.2 687.5 0 676.3 0 662.5V587.5c0 -13.8 11.2 -25 25 -25h512.5c13.8 0 25 11.2 25 25V662.5c0 13.8 -11.2 25 -25 25H25.1zm0 -500C11.2 187.5 0 176.3 0 162.5V87.5c0 -13.8 11.2 -25 25 -25h512.5c13.8 0 25 11.2 25 25V162.5c0 13.8 -11.2 25 -25 25H25.1zm818.7 125c17.2 0 31.2 14 31.2 31.3v62.5c0 17.2 -14 31.2 -31.2 31.2H31.3C14 437.5 0 423.5 0 406.3v-62.5c0 -17.3 14 -31.3 31.3 -31.3h812.5zm0 500c17.2 0 31.2 14 31.2 31.3v62.5c0 17.2 -14 31.2 -31.2 31.2H31.3C14 937.5 0 923.5 0 906.3v-62.5c0 -17.3 14 -31.3 31.3 -31.3h812.5z"/></svg>