<svg height="1000" width="875" xmlns="http://www.w3.org/2000/svg"><path d="M843.8 312.5c17.2 0 31.2 14 31.2 31.3v62.5c0 17.2 -14 31.2 -31.2 31.2H31.3C14 437.5 0 423.5 0 406.3v-62.5c0 -17.3 14 -31.3 31.3 -31.3h812.5zm0 500c17.2 0 31.2 14 31.2 31.3v62.5c0 17.2 -14 31.2 -31.2 31.2H31.3C14 937.5 0 923.5 0 906.3v-62.5c0 -17.3 14 -31.3 31.3 -31.3h812.5zm-632.7 -625c-13 0 -23.6 -10.6 -23.6 -23.6V86.1c0 -13 10.6 -23.6 23.6 -23.6h452.8c13 0 23.6 10.6 23.6 23.6v77.8c0 13 -10.6 23.6 -23.6 23.6H211.1zm452.8 500H211.1c-13 0 -23.6 -10.6 -23.6 -23.6v-77.8c0 -13 10.6 -23.6 23.6 -23.6h452.8c13 0 23.6 10.6 23.6 23.6v77.8c0 13 -10.6 23.6 -23.6 23.6z"/></svg>