<svg height="1000" width="875" xmlns="http://www.w3.org/2000/svg"><path d="M737.8 62.5c75.5 0 136.9 61.7 136.6 137.2v457.9C779.4 624.9 679.6 587.2 584.1 554.5 629.3 468 659 377 659 377H485.6v-61h213.8v-37.2H485.6v-98.4h-99.4v98.4H172.4V316h213.8v61H206.3v32.6h348.1S535 468.7 502.7 527.4C409.4 498.7 323.5 478.7 254.4 478.7 89.1 478.7 52.3 561.7 60 637.9 66.5 698.6 111.7 787 249.6 787c125.9 0 227.6 -72.3 290.2 -158.2C659 683.7 785.2 751.5 875 801.6c-1 75.2 -62 135.9 -137.2 135.9H137.2C61.3 937.5 0 876.2 0 800.3V199.7C0 123.8 61.3 62.5 137.2 62.5h600.6zM92.3 630.8C90.4 596.5 113.7 532 245.4 532c48.7 0 126.6 24.8 213.7 61.3C409.7 658.2 330.6 735.7 228.9 735.7 112.4 735.7 94.3 670.2 92.3 630.8z"/></svg>