<svg height="1000" width="875" xmlns="http://www.w3.org/2000/svg"><path d="M812.5 218.8c34.4 0 62.5 28.1 62.5 62.5v343.9c-.4 27.3 -3.7 55.9 -10 82.6l-51.7 220.1c-10 42.4 -47.7 72.3 -91.2 72.3h-386c-29.9 0 -58.2 -14.5 -75.7 -38.7L15 624.2C-10.4 589.3 -2.7 540.4 32.2 515s83.8 -17.7 109.2 17.2l46.1 63.5V125c0 -34.4 28.1 -62.5 62.5 -62.5s62.5 28.1 62.5 62.5v296.9c0 8.6 7 15.6 15.6 15.6h31.3c8.6 0 15.6 -7 15.6 -15.6V62.5C375 28.1 403.1 0 437.5 0S500 28.1 500 62.5v359.4c0 8.6 7 15.6 15.6 15.6h31.3c8.6 0 15.6 -7 15.6 -15.6V125c0 -34.4 28.1 -62.5 62.5 -62.5s62.5 28.1 62.5 62.5v296.9c0 8.6 7 15.6 15.6 15.6h31.3c8.6 0 15.6 -7 15.6 -15.6V281.3c0 -34.4 28.1 -62.5 62.5 -62.5zM343.8 812.5c17.1 0 31.2 -14.1 31.2 -31.2S360.9 750 343.8 750s-31.3 14.1 -31.3 31.3 14.1 31.2 31.3 31.2zm0 -187.5c17.1 0 31.2 -14.1 31.2 -31.2s-14.1 -31.3 -31.2 -31.3 -31.3 14.1 -31.3 31.3 14.1 31.2 31.3 31.2zm125 250c17.1 0 31.2 -14.1 31.2 -31.2s-14.1 -31.3 -31.2 -31.3 -31.3 14.1 -31.3 31.3 14.1 31.2 31.3 31.2zm0 -187.5c17.1 0 31.2 -14.1 31.2 -31.2S485.9 625 468.8 625s-31.3 14.1 -31.3 31.3 14.1 31.2 31.3 31.2zm125 62.5c17.1 0 31.2 -14.1 31.2 -31.2s-14.1 -31.3 -31.2 -31.3 -31.3 14.1 -31.3 31.3 14.1 31.2 31.3 31.2zm62.5 125c17.1 0 31.2 -14.1 31.2 -31.2s-14.1 -31.3 -31.2 -31.3S625 826.6 625 843.8s14.1 31.2 31.3 31.2zm62.5 -250c17.1 0 31.2 -14.1 31.2 -31.2s-14.1 -31.3 -31.2 -31.3 -31.3 14.1 -31.3 31.3 14.1 31.2 31.3 31.2z"/></svg>