<svg height="1000" width="875" xmlns="http://www.w3.org/2000/svg"><path d="M502.3 317.8c0 -76.8 10.2 -135.2 -69.3 -135 0 0 -74 0 -105.9 96.7L183.6 266.2c0 -96.3 91.2 -203.7 263.1 -203.7C618.2 62.5 666 173.8 666 223.2v287.3c0 53.8 63.1 103.2 63.1 103.2L618.2 723c-19.4 -18.1 -75.8 -71.4 -88.5 -91.4C441.4 769.9 171.3 761.1 171.3 547.3c0 -199.3 235.9 -226 331 -229.5zm0 169.5V408c-65.8 2.2 -164.4 20.7 -164.4 112.9 0 99.2 164.4 122.7 164.4 -33.6zM768 806.6C752.9 826.2 631.3 937.5 427.1 937.5S66.8 797.9 18.9 740.2c-13.2 -15 2 -22 10.8 -16.2 143.2 86.9 366.8 230.1 727.5 59.2 14.7 -7.2 26 3.9 10.8 23.4zm77.7 4.3c-12.7 30.9 -31.2 52.4 -41.4 60.6 -10.7 8.8 -18.6 5.3 -12.7 -7.4s37.7 -90.9 24.8 -107.5c-12.7 -16.2 -72.3 -8.4 -93.7 -6.2 -21.1 1.9 -25.4 3.9 -27.4 -.6 -4.5 -11.1 42.4 -30.3 73.3 -34.2 30.6 -3.5 80 -1.5 89.8 11.2 7.2 9.9 0 52.9 -12.7 84.1z"/></svg>