<svg height="1000" width="1250" xmlns="http://www.w3.org/2000/svg"><path d="M27.3 635.4c4.5 -8.3 10.2 -9.6 19 -4.9 20.3 10.9 40.2 22.2 60.9 32.6 65.8 32.8 177.3 73.3 248.9 90.4 33.7 8.2 89 18.5 123.4 23.1 43.1 5.8 113.4 10.5 157 10.5 7.9 0 20.7 -.2 28.5 -.4 34 -.8 68 -3.5 101.8 -7.4 91.3 -10.6 234.2 -48.1 318.9 -83.6 5.7 -2.3 11.6 -3.9 17.8 -2.3 13.1 3.5 17.6 17.5 8 27.1 -4.8 4.4 -13.2 10.9 -18.7 14.5 -60 41.2 -125.4 71.1 -194.6 93.5 -39.7 12.8 -105.4 28.2 -146.6 34.4 -28.6 4.4 -75.1 8.6 -103.9 9.4 -1.4 0 -3.6 .3 -4.9 .6h-41.2c-1.4 -.3 -3.6 -.6 -4.9 -.6 -7.1 -.4 -14.1 -.6 -20.9 -.8 -27.4 -1.3 -71.5 -5.9 -98.5 -10.4C433 853.9 362.6 835.6 320.3 820.3 232.7 788.7 105.3 712.6 35.9 650.4c-3.5 -3.1 -5.8 -7.4 -8.6 -11.1v-3.9zM335.9 127.1c5.5 0 10.8 0 16.2 .2 6.5 1 12.9 1.6 19.2 3 41.6 8.6 69.1 33.8 85.7 72 13.5 31.1 16.8 63.9 15.9 97.3 -.8 30.1 -6.5 59 -20.2 86.1 -17.9 36 -45.7 60.4 -85.5 68.2 -44 8.6 -84.2 -1 -119.2 -30.1 -.9 -.9 -2.1 -1.9 -4.3 -3.7v141.4c0 2 0 3.9 -.1 5.9 -.6 5.8 -4.1 9.7 -9.8 9.7 -13.7 .2 -27.6 .2 -41.2 0 -5.7 -.1 -9.2 -3.9 -9.6 -9.7 -.2 -2 -.2 -3.9 -.2 -5.9V152.7c0 -13.4 2.6 -16 16 -16h22.5c9 0 13.5 3.9 14.8 12.9 1 5.3 1.8 10.8 2.6 16 .1 .8 .4 2 .8 2.8 4.8 -3.8 9.1 -7.3 13.8 -10.6 18.4 -13.5 51.6 -26.7 74.2 -29.5zM243.4 209c.2 27.5 0 54.7 0 82.2 0 27.6 .2 54.9 0 82.4 -.1 .2 -.1 .4 -.1 .5 0 2.2 1.5 4.9 3.4 6 21.9 15.4 45.7 26 73 27.1 39.5 1.8 69.9 -14 83.2 -55.6 6.3 -19.6 7.8 -39.5 7.8 -59.8 0 -21.9 -1.9 -43.6 -9.5 -64.5 -12.5 -34.1 -36.4 -48.4 -65.5 -50.5 -32.8 -2.6 -62.3 7.2 -89 25.7 -1.9 1.1 -3.4 3.8 -3.4 5.9 0 .2 0 .4 .1 .6zm401.7 -81.9c7.8 0 15.6 0 23.3 -.1 7 .9 14 1.5 21.1 2.5 15 2.1 29.4 6 42.5 13.9 22.7 13.4 33.4 34.1 37.1 59.3 1 6.5 1.8 17 1.8 23.5 0 .5 0 1.2 0 1.7V435c0 .2 0 .6 0 .9 0 1.2 -.1 3.3 -.2 4.5 -.1 5.1 -4.3 9.2 -9.4 9.2 -10.5 .2 -21.3 .2 -31.8 0 -5.7 -.2 -9.4 -4.1 -10.6 -10.1 -1.3 -7.1 -2.3 -14.1 -3.5 -21.5 -.9 .4 -2.3 1.4 -3.1 2.1 -23 19 -49.2 31.5 -78.7 36 -25.6 3.9 -50.8 2.3 -74 -10.6C535.4 432 521.7 410.9 517.8 383.6c-3 -20.5 -1.6 -40.8 7.6 -60C537.3 299 557.6 283.8 582.8 275c21.1 -7.4 43 -8.8 65.1 -7.6 17.4 1.1 45.4 5.4 62.5 9.6 .7 .1 1.5 0 2.5 .1 .2 -.7 .3 -1.9 .4 -2.7 -.2 -16.2 0 -32.4 -.6 -48.6 -.4 -11.5 -3.1 -22.7 -10.4 -32C694.1 183 682.2 179.3 669.5 177.3c-24.4 -3.7 -48.6 -1.7 -72.6 2.8 -15.5 2.9 -30.7 7.2 -45.9 11.1 -9.2 2.4 -13.1 -.2 -13.3 -9.6 -.2 -6.4 .2 -12.8 0 -19.3 -.2 -7.6 3.3 -12.7 10.3 -15 11.6 -3.9 23.1 -8.2 35 -11.4 15.4 -3.7 40.7 -7.3 56.5 -8 1.7 -.2 3.7 -.6 5.6 -.8zm68.4 249.5c-.2 -9.2 .2 -18.2 .2 -27.6s-.2 -18.5 0 -27.9c0 -3.1 -1 -4.7 -4.1 -5.1 -16.4 -2.1 -32.5 -5.3 -48.9 -6.6 -3.8 -.5 -10 -.8 -13.8 -.8 -9.8 0 -25.3 2.3 -34.6 5.1 -15.6 5.1 -27.1 14.2 -32 30.4 -1.5 5.1 -2.8 13.4 -2.8 18.7 0 5.4 1.3 14 3 19.2 3 10.6 13.9 22.2 24.2 26 10.5 4.3 21.7 4.7 32.8 3.5 27.1 -2.7 51.2 -13.3 73 -29.1 1.7 -1 3 -3.5 3 -5.4 0 -.1 0 -.3 0 -.4zm507.6 252.7v33.8c-1.4 7 -2.5 14.2 -4.1 21.3 -8.6 39.6 -23.2 76.5 -48.2 108.6 -6.4 7.6 -17.6 19.4 -24.9 26.1 -2.2 2.1 -6.4 4.3 -9.3 4.9 -5.7 1.4 -9 -2.3 -8 -8 .4 -1.7 1.2 -4.3 1.9 -5.8 11.3 -29 22.9 -58.1 30.9 -88.1 4.1 -14.9 7.6 -29.9 6.8 -45.5 -.4 -10.2 -4.9 -17.6 -14.8 -20.4 -7.6 -2.2 -20.2 -4.6 -28.2 -5.2 -22.2 -1.8 -44.7 -.4 -67 1.7 -15.2 1.6 -30.2 3.4 -45.5 4.9 -.9 .1 -2.5 .2 -3.5 .2 -.2 0 -.6 0 -.8 0 -2.9 .2 -6.2 -.6 -7 -3.5 -.2 -.8 -.4 -2 -.4 -2.8 0 -1.5 .6 -3.7 1.4 -5 1.6 -2.3 4.9 -5.3 7.2 -6.9 23.6 -16.2 50.2 -25.1 78.1 -30.4 14.3 -2.6 37.6 -4.8 52.1 -4.8 6.8 0 17.8 .5 24.5 1.1 11.6 .7 30 4.1 41 7.6 8.4 2.7 15.8 6.4 17.8 16.2zm-258 -240.6c.6 1.3 1 2.5 1.7 4.7 5.1 -15.1 10.2 -29.3 15.1 -43.4l68 -195.3c.9 -2.7 2.1 -5.3 3.1 -8 1.8 -5.6 8.1 -10.2 14 -10.2 .3 0 .7 0 1 0 12.9 0 26 -.2 38.9 0 5.5 0 8 3.1 7.2 8.6 -.5 3.1 -1.9 7.9 -3.1 10.8 -45.6 117 -91.6 233.9 -137.9 350.7 -4.2 10.3 -12.2 26.4 -18 36 -17.2 29.1 -43.7 42.6 -77.1 41.8 -9.2 -.4 -24 -2.1 -33 -3.9 -10.6 -1.8 -14.3 -6.7 -14.5 -17.4 -.2 -6.4 -.2 -12.8 0 -19.3 .2 -6.9 3.5 -9.8 10.2 -9.4 4.9 .4 9.7 1.5 14.6 1.9 2.6 .3 6.7 .6 9.3 .6 5.8 0 15.2 -1.2 20.8 -2.7 14.1 -3.7 23.8 -13.3 29.7 -26 6.6 -14.3 11.7 -29.3 18.2 -43.5 3.7 -8.3 2.9 -15.1 -.4 -23.1C892.2 346.9 853.7 252.1 815.4 157.4c-1.2 -3.2 -2.9 -8.5 -3.7 -11.9 -1 -4.9 1.4 -8.8 6.3 -8.8 15 -.2 29.9 0 44.7 .2 6.2 0 10.3 3.7 12.5 9.4 4.1 10.9 8.4 21.9 12.3 33 25.2 69.9 50.4 139.6 75.6 209.4z"/></svg>