<svg height="1000" width="1250" xmlns="http://www.w3.org/2000/svg"><path d="M1218.8 687.5c17.1 0 31.2 14.1 31.2 31.3v62.5c0 17.1 -14.1 31.2 -31.2 31.2H1125C1125 916 1041 1000 937.5 1000S750 916 750 812.5H500C500 916 416 1000 312.5 1000S125 916 125 812.5H93.8C42 812.5 0 770.5 0 718.8v-625C0 42 42 0 93.8 0h625c51.7 0 93.7 42 93.7 93.8v93.7h86.1c24.8 0 48.7 10 66.2 27.5L1160 410.2c17.5 17.5 27.5 41.4 27.5 66.2v211.1h31.3zM312.5 906.3c51.8 0 93.8 -42 93.8 -93.8s-42 -93.7 -93.8 -93.7 -93.7 41.9 -93.7 93.7 41.9 93.8 93.7 93.8zM593.8 421.9v-93.8c0 -8.6 -7.1 -15.6 -15.7 -15.6H468.8V203.1c0 -8.6 -7.1 -15.6 -15.7 -15.6h-93.7c-8.6 0 -15.6 7 -15.6 15.6v109.4H234.4c-8.6 0 -15.6 7 -15.6 15.6v93.8c0 8.6 7 15.6 15.6 15.6h109.4v109.4c0 8.6 7 15.6 15.6 15.6h93.7c8.6 0 15.7 -7 15.7 -15.6V437.5h109.3c8.6 0 15.7 -7 15.7 -15.6zm343.7 484.4c51.8 0 93.8 -42 93.8 -93.8s-42 -93.7 -93.8 -93.7 -93.7 41.9 -93.7 93.7 41.9 93.8 93.7 93.8zM1093.8 500v-23.6L898.6 281.3h-86.1V500h281.3z"/></svg>