<svg height="1000" width="1125" xmlns="http://www.w3.org/2000/svg"><path d="M25.3 687.5C4.5 687.5 -6 662.3 8.8 647.5L139.7 516.6c9.1 -9.2 24 -9.2 33.1 0l130.9 130.9c14.8 14.8 4.3 40 -16.5 40h-68.7C258.2 793.6 384.9 856.7 500 871.1V500H398.4C385.5 500 375 489.5 375 476.6v-78.2c0 -12.9 10.5 -23.4 23.4 -23.4H500v-10.7C427.2 338.6 375 269.1 375 187.5 375 83.1 460.4 -1.4 565.2 0 667.2 1.4 750 85.5 750 187.5c0 81.6 -52.2 151.1 -125 176.8V375h101.6c12.9 0 23.4 10.5 23.4 23.4v78.2c0 12.9 -10.5 23.4 -23.4 23.4H625v371.1C740.5 856.6 866.8 793.6 906.5 687.5h-68.7c-20.8 0 -31.3 -25.2 -16.5 -40L952.2 516.6c9.1 -9.2 24 -9.2 33.1 0l130.9 130.9c14.8 14.8 4.3 40 -16.5 40h-63.3C993.9 887.9 770 1000 562.5 1000 355.4 1000 131.2 888.2 88.6 687.5H25.3zM562.5 125C528 125 500 153 500 187.5s28 62.5 62.5 62.5S625 222 625 187.5 597 125 562.5 125z"/></svg>