<svg height="1000" width="1125" xmlns="http://www.w3.org/2000/svg"><path d="M821.4 589.7c-25.9 0 -46.9 -21 -46.9 -46.9s21 -46.8 46.9 -46.8 46.9 21 46.9 46.8 -21 46.9 -46.9 46.9zm-517.8 0c-25.9 0 -46.9 -21 -46.9 -46.9s21 -46.8 46.9 -46.8 46.9 21 46.9 46.8 -21 46.9 -46.9 46.9zM838.2 307.5l93.6 -162.1c1.8 -2.7 3.3 -7.6 3.3 -10.9 0 -10.8 -8.7 -19.5 -19.5 -19.5 -6.7 0 -14.5 4.9 -17.5 10.9l-94.8 164.2C739.9 261.6 632 238.6 562.5 238.6s-177.4 23 -240.8 51.5L226.9 125.9c-3 -6 -10.8 -10.9 -17.5 -10.9 -10.8 0 -19.5 8.7 -19.5 19.5 0 3.3 1.5 8.2 3.3 10.9l93.6 162.1C126 395 16.1 557.7 0 750h1125C1108.9 557.7 998.9 395 838.2 307.5z"/></svg>