<svg height="1000" width="875" xmlns="http://www.w3.org/2000/svg"><path d="M677.9 420.7c93.8 22.9 107.3 98.8 107.3 183C785.2 827 641.8 1000 411.3 1000 223.4 1000 89.8 850.8 90 709.8c0 -72.5 27.8 -120.5 99.8 -140.1 -6 -16.2 -15.6 -40.6 -15.6 -58 0 -45.9 48.7 -102.7 94.4 -102.7 13.4 0 26.7 3.9 39 8.4 -24.2 -68.8 -91 -247.5 -91 -316.4C216.6 44.7 245.1 0 305.9 0 384 0 472.7 281.2 491.6 336.9 516 275.6 594.1 18.4 681.3 18.4c54.6 0 85.3 43.5 85.3 95.5 0 58.9 -65.8 243.1 -88.7 306.8zM608.8 210.9l-64.7 183 66.4 11.8c16.6 -45.7 92 -251.8 92 -289.1 0 -13.9 -4.5 -31.2 -21.3 -31.2 -31.2 0 -64.6 101.5 -72.4 125.5zM277.9 94.3c0 56.9 67.6 234.4 88.9 290.7 15 -8.6 38.7 -5.3 69.1 -2.8L368.4 186.3C306.3 5.1 277.9 71.1 277.9 94.3zm-4.5 382.3c-15 0 -39.6 26.1 -39.8 41.2 0 40.6 109.4 190.8 150.2 190.8 11.1 0 20.7 -12.3 20.7 -22.3 0 -25 -73.8 -209.7 -131.1 -209.7zm360 363.8c108 -120.1 95.9 -309.7 60.5 -341.2C647.1 458 486.9 442.4 423.8 442.4c-33.8 0 -34 12.5 -34 25.6 0 85.3 181.5 77.5 235.6 77.5 21.9 0 30.9 19.3 33 41.2 -14.5 14.5 -34.6 22.9 -53.5 30.1 -18.4 6.6 -37.3 13.9 -52.9 25.6 -43 31.2 -85.4 84.7 -85.4 140 0 34.6 20.7 64.3 20.7 98.3 0 .6 -3.9 12.7 -3.9 14.4C419.7 890.6 404.1 827.5 402 774.6c-6.7 1.8 -15.7 1.2 -22.9 1.2 10 34.7 -23.2 82 -74.2 82C231.1 857.8 133 746.1 191 688.1c56.1 70.1 68.4 100.4 99.8 100.4 7.8 0 22.9 -6.7 22.9 -16.2 0 -25 -83.8 -142.8 -106.1 -142.8 -32.8 0 -73.6 48.6 -40.2 133.4 44.1 108.8 135.7 172.5 251.7 172.5 84.8 0 157.5 -32.5 214.3 -95zM440.8 594.3c6.3 16.2 12.9 32.5 18.4 49.1 12.3 -13.9 25.2 -26.8 39.6 -37.3 -19.5 -4 -39 -5.7 -58 -11.8z"/></svg>