<svg height="1000" width="875" xmlns="http://www.w3.org/2000/svg"><path d="M436.9 466.8L702.5 201.2c18.4 -18.4 48.1 -18.4 66.2 0l44.2 44.1c18.3 18.4 18.3 48.1 0 66.2L624.8 500l188.3 188.3c18.3 18.3 18.3 48 0 66.2l-44.2 44.3c-18.3 18.4 -48 18.4 -66.2 0L437.1 533.2c-18.5 -18.4 -18.5 -48 -.2 -66.4zm-375 66.4c-18.3 -18.4 -18.3 -48 .2 -66.4L327.7 201.2c18.2 -18.4 47.9 -18.4 66.2 0l44.2 44.3c18.3 18.2 18.3 47.9 0 66.2L249.8 500l188.1 188.5c18.3 18.1 18.3 47.8 0 66.2l-44.2 44.1c-18.1 18.4 -47.8 18.4 -66.2 0z"/></svg>