<svg height="1000" width="875" xmlns="http://www.w3.org/2000/svg"><path d="M438.1 533.2L172.5 798.8c-18.4 18.4 -48.1 18.4 -66.2 0L62.1 754.7c-18.3 -18.4 -18.3 -48.1 0 -66.2L250.4 500.2 62.1 311.9c-18.3 -18.3 -18.3 -48 0 -66.2l44 -44.5c18.3 -18.4 48 -18.4 66.2 0l265.6 265.6c18.5 18.4 18.5 48 .2 66.4zm375 -66.4c18.3 18.4 18.3 48 0 66L547.5 798.4c-18.2 18.4 -47.9 18.4 -66.2 0l-44.2 -44.1c-18.3 -18.2 -18.3 -47.9 0 -66.2L625.4 499.8 437.1 311.5c-18.3 -18.1 -18.3 -47.8 0 -66.2l44.2 -44.1c18.1 -18.4 47.8 -18.4 66.2 0z"/></svg>