<svg height="1000" width="625" xmlns="http://www.w3.org/2000/svg"><path d="M345.7 499.4L611.3 765c18.4 18.4 18.4 48.1 0 66.2l-44.1 44.2c-18.4 18.3 -48.1 18.3 -66.2 0L312.5 687.3 124.2 875.6c-18.3 18.3 -48 18.3 -66.2 0L13.7 831.4c-18.4 -18.3 -18.4 -48 0 -66.2L279.3 499.6c18.4 -18.5 48 -18.5 66.4 -.2zm-66.4 -375c18.4 -18.3 48 -18.3 66 0L610.9 390c18.4 18.2 18.4 47.9 0 66.2l-44.1 44.2c-18.2 18.3 -47.9 18.3 -66.2 0L312.3 312.1 124 500.4c-18.1 18.3 -47.8 18.3 -66.2 0L13.7 456.2C-4.7 438.1 -4.7 408.4 13.7 390z"/></svg>