<svg height="1000" width="625" xmlns="http://www.w3.org/2000/svg"><path d="M279.3 500.6L13.7 235c-18.4 -18.4 -18.4 -48.1 0 -66.2l44.1 -44.2c18.4 -18.3 48.1 -18.3 66.2 0l188.3 188.3L500.6 124.6c18.3 -18.3 48 -18.3 66.2 0l44.5 44c18.4 18.3 18.4 48 0 66.2L345.7 500.4c-18.4 18.5 -48 18.5 -66.4 .2zm66.4 375c-18.4 18.3 -48 18.3 -66.4 -.2L13.7 609.8c-18.4 -18.2 -18.4 -47.9 0 -66.2L58 499.4c18.2 -18.3 47.9 -18.3 66.2 0l188.3 188.3L501 499.6c18.1 -18.3 47.8 -18.3 66.2 0l44.1 44.2c18.4 18.1 18.4 47.8 0 66.2z"/></svg>