<svg height="1000" width="968.8" xmlns="http://www.w3.org/2000/svg"><path d="M484.4 15.6C752 15.6 968.8 232.4 968.8 500S752 984.4 484.4 984.4 0 767.6 0 500 216.8 15.6 484.4 15.6zM265.6 468.8c0 34.5 28.2 62.5 62.7 62.5 34.6 0 62.5 -28 62.5 -62.5 0 -5.7 -1.9 -10.8 -3.3 -16.1 1.2 0 2.3 .4 3.3 .4 13.5 0 25.8 -8.8 29.9 -22.2 5.1 -16.4 -4.3 -34 -20.9 -38.9L243.6 345.1c-16.6 -4.9 -34 4.3 -38.9 20.9 -5.1 16.4 4.3 34 20.9 38.9l60.5 18.1c-12.5 11.6 -20.5 27.6 -20.5 45.7zm328.2 301.1c26.1 31.5 74.8 -7.8 47.8 -40C602.5 683 545.1 656.1 484.2 656.1c-61 0 -118.4 26.9 -157.4 73.8 -26.6 31.8 21.6 71.9 48 40 54.5 -65.2 164.7 -65.2 219 0zm149.6 -365C760 400 769.3 382.6 764.5 366 759.6 349.6 742 340.2 725.6 345.1L569.3 392c-16.4 4.9 -25.7 22.3 -20.9 38.9 4.1 13.4 16.4 22.2 29.9 22.2 1.2 0 2.2 -.2 3.3 -.4 -1.5 5.1 -3.3 10.4 -3.3 16.1 0 34.5 28 62.5 62.5 62.5 34.6 0 62.5 -28 62.5 -62.5 0 -18.2 -8.2 -34.4 -20.5 -45.8z"/></svg>