<svg height="1000" width="625" xmlns="http://www.w3.org/2000/svg"><path d="M578.1 500c25.9 0 46.9 21 46.9 46.9v62.5c0 25.9 -21 46.9 -46.9 46.9H390.6v296.8c0 25.9 -21 46.9 -46.8 46.9h-62.5c-25.9 0 -46.9 -21 -46.9 -46.9V656.3H46.9C21 656.3 0 635.3 0 609.4v-62.5C0 521 21 500 46.9 500H134C92.9 433.6 62.5 354.8 62.5 281.3 62.5 108.7 174.4 0 312.5 0s250 108.7 250 281.3c0 73.5 -30.4 152.3 -71.5 218.7h87.1zM312.5 156.3c-57.8 0 -93.7 47.8 -93.7 125 0 67.6 53 152.6 93.7 197 40.7 -44.4 93.8 -129.4 93.8 -197 0 -77.2 -36 -125 -93.8 -125z"/></svg>