<svg height="1000" width="875" xmlns="http://www.w3.org/2000/svg"><path d="M781.3 62.5c51.7 0 93.7 42 93.7 93.8v687.5c0 51.7 -42 93.7 -93.7 93.7H93.8C42 937.5 0 895.5 0 843.8V156.3C0 104.5 42 62.5 93.8 62.5h687.5zM248 751l37.7 -65.1c-20.1 -24.4 -45.9 -31.8 -77.3 -22.2l-27.9 48.2c-10.8 18.6 -4.5 42.6 14.2 53.3 18.6 10.8 42.6 4.5 53.3 -14.2zM519.3 645.7c17.2 -31.8 -4.8 -78.1 -44.3 -78.1H353.7L521.3 277.3C532 258.8 525.8 234.8 507 224c-18.5 -10.7 -42.5 -4.5 -53.3 14.3l-17.4 30.1 -17.4 -30.1c-10.7 -18.6 -34.5 -25 -53.3 -14.3 -18.5 10.8 -25 34.6 -14.2 53.3l40 69.2L263.7 567.6h-99.6c-21.5 0 -39.1 17.6 -39.1 39s17.6 39.1 39.1 39.1h355.2zm191.6 0c21.5 0 39.1 -17.4 39.1 -39.1 0 -21.4 -17.6 -39 -39.1 -39H609.4C558.2 479.1 519.9 412.7 494.3 368.4c-23.2 19.1 -46.4 75.7 -13.8 132.4 32.2 55.5 80.2 139 144.5 250.2 10.7 18.5 34.6 25 53.3 14.2 18.6 -10.7 25 -34.5 14.3 -53.3l-38.3 -66.2h56.6z"/></svg>