<svg height="1000" width="1250" xmlns="http://www.w3.org/2000/svg"><path d="M228.3 309.6c-14.6 17.4 -38.1 31 -61.5 29.1 -2.9 -23.5 8.6 -48.5 22.1 -63.7 14.6 -17.8 40.2 -30.5 61.1 -31.4 2.3 24.2 -7.2 48.2 -21.7 66zm21.3 33.6c13.3 .9 51.4 4.8 75.8 41.2 -2 1.5 -45.3 26.3 -44.7 78.7 .6 62.5 54.7 83.2 55.2 83.8 -.4 1.5 -8.6 29.5 -28.3 58.4 -17.4 25.4 -35.1 50.2 -63.5 50.8 -27.3 .3 -36.5 -16.5 -67.9 -16.5 -31.3 0 -41.4 15.9 -67.4 16.8 -27.4 1 -48.1 -26.9 -65.4 -52.3C7.8 552.7 -19.3 459.6 17.4 396.5 35.2 365 67.6 345.3 102.5 344.7c27 -.6 51.6 17.8 68 17.8 16 0 45.1 -21.3 79.1 -19.3zm196.1 -70.7h143c73.6 0 125.2 50.7 125.2 125S661.5 523 586.7 523h-81.8v130.1h-59.2V272.5zm59.2 49.8v151.1h68c51.5 0 80.8 -27.7 80.8 -75.7 0 -48.1 -29.3 -75.4 -80.7 -75.4h-68.1zm316.8 333.8c-54.9 0 -93.2 -32.9 -93.4 -82.1 0 -48.8 37.1 -76.9 105.7 -81l73.8 -4.5v-21.1c0 -31.1 -20.3 -47.9 -56.4 -47.9 -29.7 0 -51.4 15.5 -55.9 38.9h-53.3c1.7 -49.2 48.2 -85.2 110.9 -85.2 67.6 0 111.5 35.6 111.5 90.5v189.4H910v-45.7h-1.2c-15.6 29.9 -50 48.7 -87.1 48.7zm16 -45.2c40 0 70.3 -25.4 70.3 -60.9v-21.5l-65.6 4.1c-36.9 2.2 -56.3 16 -56.3 40.1 0 23 20.1 38.2 51.6 38.2zm200.2 145.7c-4.5 0 -19.2 -.5 -22.7 -1.3v-45.7c3.7 .4 12.7 .9 17.4 .9 26.2 0 40.8 -11.1 49.8 -39.6l5.5 -16.8L987.9 377h61.7l69.5 224.8h1.2L1189.8 377h60.2l-103.7 291c-23.6 66.6 -50.8 88.6 -108.4 88.6z"/></svg>