<svg height="1000" width="750" xmlns="http://www.w3.org/2000/svg"><path d="M622.5 524.8c0 3.7 -6.9 119.5 120.5 179.5 -23.9 71.9 -105.5 231.6 -200.4 233 -54.9 0 -87.1 -35 -149.2 -35 -64.1 0 -98.9 33.8 -148.1 35C151.2 940.2 60.9 764.5 35.9 692.8 17.2 638.2 7.8 585.4 7.8 534.2 7.8 360.9 123.6 275.8 232.6 274c52.8 0 119.9 38.5 149.2 38.5 27.8 0 103.6 -45.9 172.9 -40.4 73.2 5.6 128.7 34.5 165.4 87.1 -65.6 39.8 -98 93.9 -97.6 165.6zM511.9 204.1c-38.3 44.7 -84.8 70.9 -135.7 67 -4.3 -53.9 15.8 -101.8 50 -140.4 31 -36.2 85.5 -65.5 132.6 -68.2 1.6 20.7 6.4 78.3 -46.9 141.6z"/></svg>