<svg height="1000" width="1000" xmlns="http://www.w3.org/2000/svg"><path d="M687.9 831.6L533.2 986.3c-18.3 18.3 -48 18.3 -66.3 0L312.2 831.6c-29.5 -29.5 -8.6 -80 33.2 -80h99.9V554.7H248.4v99.9c0 41.8 -50.5 62.7 -80 33.2L13.7 533.1c-18.3 -18.3 -18.3 -48 0 -66.3L168.4 312.1c29.5 -29.5 80 -8.6 80 33.2v100h196.9V248.4h-100c-41.8 0 -62.7 -50.5 -33.2 -80L466.8 13.7c18.3 -18.3 48 -18.3 66.3 0l154.7 154.7c29.5 29.5 8.6 80 -33.2 80h-99.9v196.9h196.9v-99.9c0 -41.8 50.5 -62.7 80 -33.2l154.7 154.7c18.3 18.3 18.3 48 0 66.3L831.6 687.9c-29.5 29.5 -80 8.6 -80 -33.2v-100H554.7v196.9h100c41.8 0 62.7 50.5 33.2 80z"/></svg>