<svg height="1000" width="1000" xmlns="http://www.w3.org/2000/svg"><path d="M421.9 507.8c0 30.2 -24.5 54.7 -54.7 54.7S312.5 538 312.5 507.8c0 -86.1 70.1 -156.2 156.3 -156.2S625 421.7 625 507.8c0 30.2 -24.5 54.7 -54.7 54.7S515.6 538 515.6 507.8c0 -25.8 -21 -46.9 -46.8 -46.9s-46.9 21.1 -46.9 46.9zm46.9 -343.7c189.5 0 343.7 154.2 343.7 343.7 0 187.5 -139.5 214.5 -140.6 281.7 -.3 116.1 -94.8 210.5 -211 210.5 -30.2 0 -54.6 -24.5 -54.6 -54.7s24.4 -54.7 54.6 -54.7c56 0 101.6 -45.5 101.6 -101.5v-.8C564.4 645.1 703.1 654.6 703.1 507.8 703.1 378.6 598 273.4 468.8 273.4S234.4 378.6 234.4 507.8c0 30.2 -24.5 54.7 -54.7 54.7S125 538 125 507.8C125 318.3 279.2 164.1 468.8 164.1zM312.5 625c34.5 0 62.5 28 62.5 62.5S347 750 312.5 750 250 722 250 687.5 278 625 312.5 625zm-250 250c34.5 0 62.5 28 62.5 62.5S97 1000 62.5 1000 0 972 0 937.5 28 875 62.5 875zM1000 507.8c0 30.2 -24.5 54.7 -54.7 54.7S890.6 538 890.6 507.8c0 -2.2 0 -4.4 0 -6.5v-.4C887.7 322.3 773 163.8 605.2 106.5 576.7 96.7 561.4 65.6 571.2 37 580.9 8.4 612 -6.8 640.6 3c211.3 72.1 355.6 271.5 359.3 496 .1 2.9 .1 5.9 .1 8.8zM298.8 857.5l-66.3 66.3L76.2 767.5l66.3 -66.3z"/></svg>