<svg height="1000" width="1000" xmlns="http://www.w3.org/2000/svg"><path d="M934 652.5c23 12.7 31.2 41.8 18 64.5l-38 65.9c-13.2 22.8 -42.4 30.3 -64.9 16.7l-271 -164.3 6.8 316.8c.6 26.3 -20.6 47.9 -46.8 47.9H462c-26.3 0 -47.5 -21.6 -46.9 -47.9l6.8 -316.8 -271 164.3C128.4 813.2 99.2 805.7 86 783L48 717.1C34.8 694.3 43 665.2 66 652.5L343.8 500 66 347.5C43 334.8 34.8 305.7 48 283l38 -65.9c13.2 -22.8 42.4 -30.3 64.9 -16.7l271 164.3L415.1 47.9C414.5 21.6 435.7 0 462 0h76c26.3 0 47.5 21.6 46.9 47.9l-6.8 316.8 271 -164.3c22.5 -13.6 51.7 -6.1 64.9 16.6l38 65.9c13.2 22.8 5 51.9 -18 64.6L656.3 500z"/></svg>