<svg height="1000" width="1125" xmlns="http://www.w3.org/2000/svg"><path d="M1010.7 603.9c-27.1 27.9 -59.3 54.1 -95.5 77.7l143.4 215.7H860.2L770.5 757c-34.4 14.1 -70.1 26.2 -106.4 36.6l63.6 103.7H463.1l44.5 -72.5c-45.5 5.3 -90.6 7.2 -134 5.3l-42.9 67.2H132.2l67.4 -101C111.7 761.3 65 702.7 66 634.2c.6 -50.4 27.4 -106.1 81.5 -161.9C223.4 394.1 335.9 330.5 463.1 290.8c-43.6 15.8 -82 36.2 -121.1 60 -60.9 31.6 -114.7 70.1 -155.3 113.5C74.6 583.4 95.9 702.1 224 759.6L595.5 202l294.7 442.1c25.4 -18.5 48.5 -38.6 68.4 -59.7C1150 380.9 1063.5 178.3 765.6 131.8 632.2 111.1 478.9 120.7 333.4 160.7 216 180.3 101.6 222.7 0 274.4 230.7 143.7 542.8 75 794.1 113.5c214.9 32.8 332.5 135.7 330.9 263.6 -.8 70.6 -38.5 148.7 -114.3 226.8zM644.3 761.1c36 -10.3 71.3 -23 104.9 -37.5L595.5 483.4l-199 311.1c43.9 1.4 89.4 -1.7 135.1 -8.6l63.9 -104.1z"/></svg>