<svg height="1000" width="1000" xmlns="http://www.w3.org/2000/svg"><path d="M500 15.6c269.6 0 484.4 171.2 484.4 437.5C984.4 601.2 903.5 741 690.8 741c-58.8 0 -119.5 0 -138.1 -66.6 -34.4 44.4 -93.7 74.9 -146.5 74.9 -115.6 0 -187.5 -79.2 -187.5 -206.8C218.7 368.2 342.3 246.7 488 246.7c38.1 0 88.4 7.6 117.1 42.5v-.2c1.5 -12.9 13.2 -23.4 26.2 -23.4h87.9c29.4 0 51.6 26.9 46 55.8l-45.8 236.5c-6.7 33.6 -7.5 57.8 26.4 58.7 72.4 -7.7 113.6 -87.7 113.6 -163.5C859.4 253.2 695.6 140.6 500 140.6 301.8 140.6 140.6 301.8 140.6 500S301.8 859.4 500 859.4c69 0 136.6 -20 194.2 -57 19.9 -12.7 46.3 -8.3 61.2 10l19.9 24.3c17.7 21.7 12.6 53.8 -10.8 69.1 -78.3 51 -170.4 78.6 -264.5 78.6C232.3 984.4 15.6 767.7 15.6 500S232.3 15.6 500 15.6zm-42.3 594.6c47.4 0 113.6 -54 113.6 -142 0 -49.9 -26 -79.7 -69.6 -79.7 -54.4 0 -114.5 54.2 -114.5 142.1 0 49.1 27 79.6 70.5 79.6z"/></svg>