<svg height="1000" width="875" xmlns="http://www.w3.org/2000/svg"><path d="M621.8 406.3c-10.3 60.9 -49.9 111.6 -104.1 137.5 15 -37.3 24.9 -84.8 27.8 -137.5h76.3zm0 -62.5h-76.3C542.6 291 532.7 243.5 517.7 206.2c54.2 25.9 93.8 76.6 104.1 137.6zM437.5 190.1c15 14.5 40.6 67.2 45.8 153.7h-91.6c5.2 -86.5 30.8 -139.2 45.8 -153.7zm-80.2 16.1c-15 37.3 -24.9 84.8 -27.8 137.6h-76.3c10.3 -61 49.9 -111.7 104.1 -137.6zm0 337.6C303.1 517.9 263.5 467.2 253.2 406.2h76.3c2.9 52.8 12.8 100.3 27.8 137.6zm126 -137.5c-5.2 86.4 -30.8 139.1 -45.8 153.6 -15 -14.5 -40.6 -67.2 -45.8 -153.6h91.6zM875 700c0 18.8 -6.3 31.3 -18.7 37.5 -6.3 25 -6.3 112.5 0 143.8 12.4 12.4 18.7 24.9 18.7 37.5V950c0 31.3 -25 50 -50 50H187.5C81.3 1000 0 918.8 0 812.5v-625C0 81.2 81.3 0 187.5 0H825c31.3 0 50 18.7 50 50v650zM437.5 125c-138.1 0 -250 111.9 -250 250s111.9 250 250 250 250 -111.9 250 -250S575.6 125 437.5 125zM750 875V750H187.5c-31.2 0 -62.5 25 -62.5 62.5s25 62.5 62.5 62.5H750z"/></svg>