<svg height="1000" width="875" xmlns="http://www.w3.org/2000/svg"><path d="M437.5 437.5c34.4 .1 62.4 28.1 62.5 62.5 0 34.5 -28 62.5 -62.5 62.5S375 534.5 375 500s28 -62.5 62.5 -62.5zM855.8 250c32 57.4 29.3 142.8 -49.1 250 78.4 107.2 81.1 192.6 49.1 250 -56.9 102.3 -198.5 85.2 -227.1 81.8 -42 100.1 -106 168.2 -191.2 168.2S288.3 931.9 246.3 831.8C217.7 835.2 76.1 852.3 19.2 750c-32 -57.4 -29.3 -142.8 49.1 -250C-10.1 392.8 -12.8 307.4 19.2 250c21.2 -38.1 79.1 -98.9 227.1 -81.8C288.3 68.1 352.3 0 437.5 0s149.2 68.1 191.2 168.2c148 -17.3 205.9 43.7 227.1 81.8zM123.7 687.5c7.3 12.9 37.1 23.2 85.2 21.5 -5.3 -25.4 -10 -51.5 -13.2 -78.4C180.6 618.4 166.4 606 153 593.3c-29.5 45.9 -37.1 80 -29.3 94.2zm72.1 -318.1c3.1 -26.4 7.5 -52.5 13.1 -78.6 -3.6 0 -7.8 -.8 -11.2 -.8 -42 0 -67.4 10.5 -74 22.5 -7.8 14.2 -.2 48.3 29.3 94.2 13.4 -12.7 27.6 -25.1 42.8 -37.3zM437.5 125c-18.6 0 -43.5 26.4 -66.2 72.8 22 7.3 44 15.6 66.2 25.1 22.2 -9.5 44.2 -17.8 66.2 -25.1C481 151.4 456.1 125 437.5 125zm0 750c18.6 0 43.5 -26.4 66.2 -72.8 -22 -7.3 -44 -15.6 -66.2 -25.1 -22.2 9.5 -44.2 17.8 -66.2 25.1 22.7 46.4 47.6 72.8 66.2 72.8zm0 -218.7c86.2 0 156.2 -70 156.2 -156.3S523.7 343.8 437.5 343.8 281.2 413.7 281.2 500s70 156.3 156.3 156.3zm313.8 31.2c7.8 -14.2 .2 -48.3 -29.3 -94.2 -13.4 12.7 -27.6 25.1 -42.7 37.3 -3.2 26.9 -7.9 53 -13.2 78.4 48.1 1.7 78.1 -8.6 85.2 -21.5zM722 406.7c29.5 -45.9 37.1 -80 29.3 -94.2 -6.6 -12 -32 -22.5 -74 -22.5 -3.4 0 -7.6 .8 -11.2 .8 5.6 26.1 10 52.2 13.2 78.6 15.1 12.2 29.3 24.6 42.7 37.3z"/></svg>