<svg height="1000" width="1250" xmlns="http://www.w3.org/2000/svg"><path d="M1250 390.4v105.5L625 886.5 0 496.1V390.6l625 390.7zM870.1 531.1C731.8 346.7 478.5 314.8 303.3 460.2c-5.1 4.3 -10.1 8.5 -15 13h-.6C360.2 364.5 484.2 292.8 624.8 292.8s264.7 71.8 337.3 180.8zm-429.9 36.7C481.3 510 548.6 472.1 624.6 472.1c76.6 0 144.3 38.3 185.2 96.7l-88.7 55.4c-41.4 -57 -101.6 -93 -168.8 -93 -40.8 0 -79.1 13.3 -112.1 36.6zM202.3 314.6c-22.4 17.8 -47.4 43.2 -66.8 63.7C240.8 218 422.7 113.5 624.8 113.5c204.9 0 385.2 105.4 489.7 265l-95.4 59.4 -1.3 -2c-194 -270.5 -558 -325 -815.5 -121.3zm912.2 63.9z"/></svg>