<svg height="1000" width="1000" xmlns="http://www.w3.org/2000/svg"><path d="M318.2 466.2l17.2 59.9h-50l17.7 -59.9c2.5 -8.6 5.2 -19.5 7.6 -29.7 2.3 10.2 5 21.1 7.5 29.7zm325.2 -62.7c56 0 90.1 32.8 90.1 95.7 0 62.7 -32 97.3 -90.1 97.3H615v-193h28.4zM1000 218.8v562.5c0 51.7 -42 93.7 -93.7 93.7H93.8C42 875 0 833 0 781.3V218.8C0 167 42 125 93.8 125h812.5c51.7 0 93.7 42 93.7 93.8zM479.4 656.5L367.9 328.4c-3 -8.8 -12.9 -15.9 -22.2 -15.9h-70.1c-9.3 0 -19.2 7.1 -22.2 15.9L141.9 656.5c-5.2 15.2 6.1 31 22.2 31H221c9.7 0 19.8 -7.6 22.5 -17l16.8 -58.4h100.3l17.2 58.6c2.7 9.3 12.8 16.8 22.4 16.8h57c16.1 0 27.4 -15.8 22.2 -31zM840.2 499.2c0 -115.1 -74.1 -186.7 -193.3 -186.7H534.8c-12.9 0 -23.4 10.5 -23.4 23.4v328.2c0 12.9 10.5 23.4 23.4 23.4h112.1c119.2 0 193.3 -72.1 193.3 -188.3z"/></svg>