<svg height="1000" width="1250" xmlns="http://www.w3.org/2000/svg"><path d="M209.4 553.7l-37.1 -81.6H70.5l-37.1 81.6H0L121.5 297.1 243 553.7h-33.6zM121.5 362.1l-38.3 83h76.6zm220.1 200L220.1 305.5h33.4L341.6 493l88.1 -187.5h33.2zM499 553.7V305.5h30.3v248.2H499zM907.4 327.9v225.8h-33.8V327.9h-80.4v-22.4h194.5v22.4h-80.3zm342.6 99.4c0 18 -3.3 34.8 -10 50.4 -6.6 15.7 -16 29.5 -27.7 41.2s-25.6 21.1 -41.2 27.8c-15.6 6.6 -32.4 9.9 -50.4 9.9s-34.8 -3.3 -50.4 -9.9c-15.6 -6.7 -29.5 -16 -41.2 -27.8s-21.1 -25.3 -27.7 -41.2c-6.7 -15.6 -10 -32.4 -10 -50.4s3.3 -34.7 10 -50.3c6.6 -15.7 16 -29.5 27.7 -41.3s25.4 -16.4 41.2 -23.2c15.6 -6.6 32.4 -10 50.4 -10s34.8 3.4 50.4 10 29.5 11.3 41.2 23.2c11.7 11.8 20.9 25.6 27.7 41.3 6.7 15.6 10 32.4 10 50.3zm-30.3 0c0 -14.2 -2.5 -27.3 -7.6 -39.6S1200 364.8 1191 355.9c-9 -9 -19.5 -16.1 -31.6 -21.3 -12.1 -5.3 -25 -7.8 -38.7 -7.8s-26.6 2.5 -38.7 7.8 -22.6 12.3 -31.6 21.3c-9 8.9 -16 19.5 -21.1 31.8s-7.6 25.6 -7.6 39.6c0 14.3 2.5 27.4 7.6 39.7 5.1 12.3 12.1 22.8 21.1 31.8 9 9 19.5 16 31.6 21.3s25 7.8 38.7 7.8 26.6 -2.5 38.7 -7.8c12.1 -5.3 22.6 -12.3 31.6 -21.3s16 -19.5 21.1 -31.8c5.1 -12.3 7.6 -25.6 7.6 -39.7zm-185.1 188.9c11.7 1.8 20.5 11.7 20.9 24 0 13.3 -11 24.3 -24.3 24.3s-24.2 -11 -24.2 -24.3c0 -12.1 9 -22 20.5 -23.8v-11.3l-156.8 17.6v10.5c10.9 2.2 19.3 11.9 19.3 23.6 0 13.3 -10.9 20 -24.2 20s-24.2 -6.7 -24.2 -20c0 -11.5 8.2 -21.4 19.3 -23.6v-9.6l-55.4 6.3v46.3H817v26.9h-11.5v-12.9h-9.8v12.9h-11.5v-26.9h11.5v-45.3l-74.8 8.4c-15.8 22.4 -37.1 26.5 -37.1 26.5l.2 13.1 9.9 .4 .2 23.6h-8l-.2 -9.7h-10.1l-.2 9.7h-8l.2 -23.6 9.9 -.4 .2 -13.1s-21.3 -4.3 -37.1 -26.5L566 630.9v45.3h11.5v26.9H566v-12.9h-9.8v12.9h-11.5V676h11.5v-46.3l-55.4 -6.3v9.6c10.9 2.2 19.3 11.9 19.3 23.6 0 13.3 -10.9 20 -24.2 20 -13.3 0 -24.2 -6.7 -24.2 -20 0 -11.5 8.2 -21.4 19.3 -23.6v-10.5L334.2 604.9v11.3c11.5 1.8 20.5 11.7 20.5 23.8 0 13.3 -11 24.3 -24.2 24.3s-24.3 -11 -24.3 -24.3c0 -12.1 9 -22 20.6 -23.8v-12.3L153.1 584.4l474.4 26.3c-1.1 -4.3 -2.1 -8.9 -2.7 -14 -.6 -4.1 -1 -8.2 -1.2 -12.7L497.1 568.2l126.7 3.7c0 -.8 0 -1.6 .2 -2.2 5.5 -33.6 49.8 -46.3 49.8 -46.3l2.2 -51.5h-46.1l-37.1 81.6h-33.4L680.9 296.9l121.4 256.6h-33.4l-37.1 -81.6h-46.4l2.1 51.3s44.3 12.7 49.8 46.3c0 .8 .2 1.4 .2 2.2L864.3 568l-126.6 15.8c-.2 4.5 -.6 8.8 -1.2 12.7 -.6 5.1 -1.5 9.8 -2.7 14l474.4 -26.1 -173.6 19.5v12.3zM642.4 445.1h34.9l3.4 -78.7 3.3 78.7h34.9l-38.2 -83z"/></svg>