<svg height="1000" width="1000" xmlns="http://www.w3.org/2000/svg"><path d="M885 62.5c76.1 0 126.5 60.9 112.9 136.3L887.1 801.4c-13.9 75.2 -86.7 136.1 -162.7 136.1H115C38.9 937.5 -11.5 876.6 2.3 801.4L112.9 198.6C126.8 123.4 199.6 62.5 275.6 62.5H885zM771.3 740.8l12.3 -15.4L598.2 492.2l-8.7 -14.3c38.6 -27.7 65.4 -47.4 68.9 -50 15.4 -12.9 12.3 -40.6 -5.3 -61.1 -17.9 -21.1 -44.9 -28.1 -59.9 -15.4 0 0 -28.2 26.5 -66.1 63.2l-9.5 -8.7L316.2 186.3l-17.4 9.4 -36.7 56.4 134.4 195 40 57.8c-23.4 24 -45.9 47.6 -64 68.1L259.2 512.3l-30.7 30.1 102.4 93.9 79.3 119.2 34.9 -24.8L402 605.3c24.4 -14.9 52.7 -33.4 81.4 -53l225.4 214.9z"/></svg>