<svg height="1000" width="750" xmlns="http://www.w3.org/2000/svg"><path d="M189.7 708.3c26.9 26.9 62.7 41.7 100.8 41.7 24.3 0 47.8 -6.9 69 -18.7L257.8 980.5c-8.6 21.1 -36 26.2 -51.6 9.7l-70.8 -74.7 -102.9 3.9c-22.7 .9 -38.7 -22 -30.2 -43L91 659.1c14.7 11.5 31.1 21 49.6 26 41 11 32.1 6.2 49.1 23.2zm558 168.1c8.5 21 -7.5 43.9 -30.2 43l-102.9 -3.9 -70.8 74.7c-15.6 16.5 -43 11.4 -51.6 -9.7L390.5 731.3c21.2 11.8 44.7 18.7 69 18.7 38.1 0 73.9 -14.8 100.8 -41.7 16.9 -17 7.9 -12.2 49.1 -23.2 18.5 -5 34.9 -14.5 49.6 -26zm-234 -212.3c-25.9 26.3 -66.1 31 -97.2 11.3 -10.5 -6.6 -29.1 -12 -41.5 -12 -12.4 0 -31 5.4 -41.5 12 -31.1 19.7 -71.3 15 -97.2 -11.3 -28.7 -29.3 -32 -27.5 -75.7 -39.4 -27.1 -7.4 -48.4 -29 -55.6 -56.6C90.4 512.7 94.2 519.4 54.3 478.8 34.4 458.5 26.7 429.1 33.9 401.4c14.7 -55.5 14.6 -47.7 0 -103.1 -7.2 -27.6 .5 -57.1 20.4 -77.3C94.2 180.4 90.4 187.1 105 131.6 112.2 104 133.5 82.4 160.6 75c54.5 -14.8 47.9 -11 87.8 -51.6C268.2 3.2 297.2 -4.7 324.3 2.7c54.5 14.9 47 14.9 101.4 0 27.1 -7.4 56.1 .5 75.9 20.7C541.5 64 535 60.2 589.4 75c27.2 7.4 48.4 29 55.6 56.6 14.6 55.5 10.9 48.8 50.7 89.4 19.9 20.2 27.6 49.7 20.4 77.3 -14.6 55.5 -14.6 47.7 0 103.2 7.2 27.6 -.5 57.1 -20.4 77.3 -39.8 40.6 -36.1 33.9 -50.7 89.3 -7.2 27.6 -28.4 49.2 -55.6 56.6 -42.5 11.6 -45.9 9 -75.7 39.4zm-323 -320.4c0 103.5 82.5 187.5 184.3 187.5s184.3 -84 184.3 -187.5S476.8 156.1 375 156.1s-184.3 84 -184.3 187.6z"/></svg>