<svg height="1000" width="750" xmlns="http://www.w3.org/2000/svg"><path d="M375 312.5c-86.3 0 -156.2 -69.9 -156.2 -156.2S288.7 0 375 0s156.3 69.9 156.3 156.3S461.3 312.5 375 312.5zM270.7 798.4l57.4 76.6c25.8 34.6 19 83.6 -15.6 109.4 -14.1 10.5 -30.7 15.6 -46.9 15.6 -23.6 0 -47 -10.7 -62.5 -31.2l-93.7 -125c-21.3 -28.6 -20.7 -68 1.5 -95.8l89.7 -112.1 120.1 100zM549.4 635.9L639.1 748c22.2 27.8 22.8 67.2 1.5 95.8l-93.7 125c-15.3 20.5 -38.7 31.2 -62.5 31.2 -16.4 0 -32.8 -5.1 -46.9 -15.6C402.9 958.6 396.1 909.6 421.9 875l57.4 -76.6 -50 -62.5zM735.7 283.2c24.8 35.4 16.4 84 -18.9 109l-79.3 55.7c-33.2 23.2 -69.1 40.8 -106.3 54.4v60.2H218.7v-60.4c-37.1 -13.6 -73 -31.2 -106.2 -54.4L33.2 392C-2 367.2 -10.5 318.6 14.3 283.2 39.1 248 87.7 239.5 123 264.3l79.3 55.4c102.8 72.3 242.4 72.3 345.4 0L627 264.1c35.3 -24.6 83.9 -16.2 108.7 19.1z"/></svg>