<svg height="1000" width="1000" xmlns="http://www.w3.org/2000/svg"><path d="M282.8 33.2L500 375H0C0 230.5 68.9 101.4 177.3 14.8c32.9 -26.1 83.4 -16.4 105.5 18.4zm686 154.3c17.1 0 31.2 14.1 31.2 31.3v62.5c0 17.1 -14.1 31.2 -31.2 31.2H875v125c0 98.8 -44.9 188.3 -117.8 255.3C824.8 710.2 875 770.9 875 843.7c0 86.4 -69.9 156.3 -156.2 156.3S562.5 930.1 562.5 843.7c0 -17.3 3.3 -33.5 8.6 -49.2 -42 11.6 -87.1 18 -133.6 18s-91.4 -6.4 -133.6 -18c5.1 15.7 8.6 31.9 8.6 49.2 0 86.4 -69.9 156.3 -156.3 156.3S0 930.1 0 843.7C0 770.9 50.2 710.2 117.8 692.8 44.9 625.8 0 536.3 0 437.5h750v-125c0 -68.9 56.1 -125 125 -125h93.7zM156.3 906.3c34.3 0 62.5 -28.2 62.5 -62.5s-28.2 -62.5 -62.5 -62.5 -62.5 28.1 -62.5 62.5 28.1 62.5 62.5 62.5zm625 -62.5c0 -34.4 -28.2 -62.5 -62.5 -62.5s-62.5 28.1 -62.5 62.5 28.1 62.5 62.5 62.5 62.5 -28.2 62.5 -62.5z"/></svg>