<svg height="1000" width="1250" xmlns="http://www.w3.org/2000/svg"><path d="M1125 125c69 0 125 56 125 125v500c0 69 -56 125 -125 125H400.9c-33.2 0 -65 -13.2 -88.4 -36.6L18.3 544.2c-24.4 -24.4 -24.4 -64 0 -88.4L312.5 161.6C332.7 141.4 372.3 125 400.9 125H1125zM959.6 621.2L838.4 500 959.6 378.8c12.2 -12.2 12.2 -32 0 -44.2l-44.2 -44.2c-12.2 -12.2 -32 -12.2 -44.2 0L750 411.6 628.8 290.4c-12.2 -12.2 -32 -12.2 -44.2 0l-44.2 44.2c-12.2 12.2 -12.2 32 0 44.2L661.6 500 540.4 621.2c-12.2 12.2 -12.2 32 0 44.2l44.2 44.2c12.2 12.2 32 12.2 44.2 0L750 588.4l121.2 121.2c12.2 12.2 32 12.2 44.2 0l44.2 -44.2c12.2 -12.2 12.2 -32 0 -44.2z"/></svg>