<svg height="1000" width="1125" xmlns="http://www.w3.org/2000/svg"><path d="M427.6 657c-68.1 68.1 -116.5 86.3 -167.8 105.5 -50.8 19 -103.5 39.3 -172.2 103L17.7 796.1c-24.8 -24.6 -23.6 -65.6 3.5 -88 71 -58.5 129.3 -80.3 177.9 -98.4C217 603.1 333.8 572.1 391.9 418.2 408.7 373.6 482.4 155.3 761 51.5 792 40 814.4 31.6 841.1 11.9 849.9 5.3 866.1 0 877.1 0c13.7 0 32.7 7.8 42.4 17.4l73.6 73c-58.9 54.1 -103.3 71.1 -150 88.6C787.9 199.8 730.7 221.2 653 298.9S553.9 433.8 533.1 489c-19.2 51.4 -37.4 99.9 -105.5 168zm679.7 -453.1c24.8 24.6 23.6 65.7 -3.6 88 -71 58.6 -129.3 80.3 -177.9 98.5C907.8 397.1 791 428.1 732.9 582c-17.4 46 -91.2 263 -369 366.6C333 960.1 310.5 968.4 284 988.1c-8.9 6.5 -25 11.9 -36 11.9 -13.7 0 -32.8 -7.8 -42.5 -17.4l-73.6 -73.1c58.8 -54.1 103.2 -71 149.8 -88.6 55.3 -20.6 112.4 -42 190.1 -119.7S571 566.4 591.7 511.1c19.2 -51.4 37.4 -99.9 105.5 -168 68.2 -68 116.6 -86.2 167.9 -105.5C916 218.5 968.7 198.3 1037.4 134.5z"/></svg>