<svg height="1000" width="1000" xmlns="http://www.w3.org/2000/svg"><path d="M969.2 395.5c34.3 4.9 42.4 51.4 11.8 67.7L789.3 566.1l145.5 163.2c23.1 25.9 0 66.9 -33.9 59.5L688.8 742.6l8.1 219.8c.8 22.8 -17.3 37.6 -36 37.6 -10.1 0 -20.3 -4.3 -27.7 -14L500 812.3 366.9 986c-7.5 9.7 -17.7 14 -27.8 14 -18.6 0 -36.8 -14.8 -35.9 -37.6l8 -219.8L99.1 788.8c-2.7 .6 -5.3 .9 -7.9 .9 -29.3 0 -47.3 -36.5 -26 -60.4L210.7 566.1 19 463.3C-11.6 446.9 -3.5 400.4 30.8 395.5l214.8 -30.1L163.9 161.6c-13 -32.5 22.7 -62.8 52 -44.2l183.6 117L466.1 25C471.4 8.3 485.7 0 500 0s28.6 8.3 33.9 25l66.6 209.4 183.6 -117c29.3 -18.6 65 11.7 52 44.2l-81.7 203.8zm-308 213.3l-69.6 -78 91.6 -49.2L580.6 467.2l39 -97.4 -87.8 55.9L500 325.6l-31.9 100.1 -87.7 -55.9 39 97.4 -102.7 14.4 91.7 49.2 -69.6 78 101.4 -22.1 -3.9 105L500 608.8l63.7 82.9 -3.9 -105z"/></svg>