<svg height="1000" width="1250" xmlns="http://www.w3.org/2000/svg"><path d="M187.5 906.3c0 -17.3 14 -31.3 31.3 -31.3h343.7V299.3C522.6 281.9 492 248.1 477.8 206.6L219.9 120.1C203.6 114.6 194.8 96.9 200.3 80.6l19.8 -59.3C225.6 5 243.3 -3.9 259.7 1.6L490 78.8C517 32 567 0 625 0c86.3 0 156.3 70 156.3 156.2 0 6.7 -1.2 13.2 -2 19.6l250.8 84.1c16.3 5.5 25.1 23.2 19.6 39.6l-19.8 59.2c-5.5 16.4 -23.2 25.2 -39.6 19.7l-277.4 -93c-8 5.4 -16.5 10 -25.4 13.9v669.4c0 17.3 -14 31.3 -31.3 31.3H218.7c-17.2 0 -31.2 -14 -31.2 -31.3v-62.5zM0 593.8C0 562.1 -2.6 576.7 166.1 239.2c34.5 -68.9 133.2 -69 167.7 0C504 579.6 500 563.1 500 593.8 500 680 388.1 750 250 750S0 680 0 593.8zm109.4 -31.3h281.2L250 281.3zM750 843.8c0 -31.7 -2.6 -17.1 166.1 -354.6 34.5 -68.9 133.2 -69 167.7 0C1254 829.6 1250 813.1 1250 843.8c0 86.2 -111.9 156.2 -250 156.2S750 930 750 843.8zm109.4 -31.3h281.2L1000 531.3z"/></svg>