<svg height="1000" width="1250" xmlns="http://www.w3.org/2000/svg"><path d="M1031.3 875c17.2 0 31.2 14 31.2 31.3v62.5c0 17.2 -14 31.2 -31.2 31.2H593.8c-17.3 0 -31.3 -14 -31.3 -31.2V299.3c-8.9 -3.9 -17.4 -8.5 -25.4 -13.9l-277.4 93c-16.4 5.5 -34.1 -3.3 -39.6 -19.7l-19.8 -59.2c-5.5 -16.4 3.3 -34.1 19.7 -39.6l250.7 -84.1c-.8 -6.4 -1.9 -12.9 -1.9 -19.6C468.8 70 538.7 0 625 0c58 0 108 32 135 78.8L990.3 1.6c16.4 -5.4 34.1 3.4 39.6 19.7l19.8 59.3c5.5 16.4 -3.3 34.1 -19.7 39.6l-257.8 86.4c-14.2 41.5 -44.8 75.3 -84.7 92.7V875h343.8zM1250 593.8C1250 680 1138.1 750 1000 750S750 680 750 593.8c0 -30.7 -4 -14.2 166.1 -354.6 34.6 -69 133.3 -68.9 167.7 0C1252.6 576.7 1250 562.1 1250 593.8zM859.4 562.5h281.2L1000 281.3zM333.8 489.2C502.6 826.7 500 812.1 500 843.8 500 930 388.1 1000 250 1000S0 930 0 843.8C0 813.1 -4 829.6 166.1 489.2c34.6 -69 133.3 -68.9 167.7 0zM109.4 812.5h281.2L250 531.3z"/></svg>