<svg height="1000" width="1250" xmlns="http://www.w3.org/2000/svg"><path d="M500 656.3c0 86.2 -111.9 156.2 -250 156.2S0 742.5 0 656.3C0 625.6 -4 642.1 166.1 301.7c34.6 -69 133.3 -68.9 167.7 0C502.6 639.2 500 624.6 500 656.3zM250 343.8L109.4 625h281.2zm1000 312.5c0 86.2 -111.9 156.2 -250 156.2S750 742.5 750 656.3c0 -30.7 -4 -14.2 166.1 -354.6 34.6 -69 133.3 -68.9 167.7 0C1252.6 639.2 1250 624.6 1250 656.3zM859.4 625h281.2L1000 343.8zm171.9 250c17.2 0 31.2 14 31.2 31.3v62.5c0 17.2 -14 31.2 -31.2 31.2H218.8c-17.3 0 -31.3 -14 -31.3 -31.2v-62.5c0 -17.3 14 -31.3 31.3 -31.3h343.7V299.3C516.6 279.2 482.1 237.8 471.9 187.5H218.8c-17.3 0 -31.3 -14 -31.3 -31.2V93.8c0 -17.3 14 -31.3 31.3 -31.3h281.9C529.2 24.8 574 0 625 0s95.8 24.8 124.3 62.5h281.9c17.3 0 31.3 14 31.3 31.3v62.5c0 17.2 -14 31.2 -31.3 31.2H778.1c-10.2 50.3 -44.7 91.7 -90.6 111.8V875h343.7z"/></svg>