<svg height="1000" width="1250" xmlns="http://www.w3.org/2000/svg"><path d="M0 312.5c0 -68.9 56.1 -125 125 -125h187.5v625H125C56.1 812.5 0 756.4 0 687.5v-375zm1125 -125c68.9 0 125 56.1 125 125v375c0 68.9 -56.1 125 -125 125H937.5v-625H1125zm-750 625v-625h500v625H375zM718.8 359.4c-26 0 -46.9 20.9 -46.9 46.9s20.9 46.8 46.9 46.8 46.8 -20.9 46.8 -46.8 -20.9 -46.9 -46.8 -46.9zm0 187.5c-26 0 -46.9 20.9 -46.9 46.9s20.9 46.8 46.9 46.8 46.8 -20.9 46.8 -46.8 -20.9 -46.9 -46.8 -46.9zM531.3 359.4c-26 0 -46.9 20.9 -46.9 46.9s20.9 46.8 46.9 46.8 46.8 -20.9 46.8 -46.8 -20.9 -46.9 -46.8 -46.9zm0 187.5c-26 0 -46.9 20.9 -46.9 46.9s20.9 46.8 46.9 46.8 46.8 -20.9 46.8 -46.8 -20.9 -46.9 -46.8 -46.9z"/></svg>