<svg height="1000" width="1000" xmlns="http://www.w3.org/2000/svg"><path d="M0 875V125h35.2v750H0zm52.5 -.5V125h17.8v749.5H52.5zm53 0V125h17.3v749.5h-17.3zm87.6 0V125h17.3v749.5h-17.3zm70.3 0V125H298v749.5h-34.6zm87.6 0V125h17.3v749.5H351zm35.2 0V125h17.3v749.5h-17.3zm35.1 0V125h17.3v749.5h-17.3zm69.8 0V125h35.1v749.5h-35.1zm87.6 0V125h35.1v749.5h-35.1zm70.3 0V125h35.2v749.5H649zm70.3 0V125h35.2v749.5h-35.2zm52.5 0V125h35.1v749.5h-35.1zm88.1 0V125h52.5v749.5h-52.5zm69.8 0V125h17.8v749.5h-17.8zm35.1 .5V125h35.2v750h-35.2z"/></svg>