<svg height="1000" width="968.8" xmlns="http://www.w3.org/2000/svg"><path d="M719.7 710.7c25.2 52.2 59.2 98.1 100.4 137.9C733 932.6 614.8 984.4 484.4 984.4c-130.7 0 -249 -52 -336 -136.2 41.4 -39.8 75.4 -85.9 100.6 -138L192.8 683c-21.7 44.9 -51 84.6 -86.5 119.1C39.8 719.3 0 614.5 0 500S39.8 280.7 106.3 197.7c34.7 33.7 63.4 72.4 84.9 116l56.1 -27.6c-25 -50.6 -58.6 -95.5 -99.1 -134.3C235.4 67.6 353.7 15.6 484.4 15.6c130.8 0 249.2 52.2 336.3 136.4 -40.6 39 -74.2 83.9 -99.2 134.7l56 27.6C799 270.5 827.9 231.8 862.7 198c66 82.9 105.9 187.7 105.9 302 0 114.5 -40.1 219.5 -106.5 302.5C826.8 768 797.7 728.3 776 683.6zM273.8 648.2c33.8 -105.2 28 -211.3 -1.3 -300.4l-59.4 19.6c26 78.5 30.3 171.1 1.2 261.7zM696.3 348.6c-29.3 88.9 -35.2 195 -1.4 300.4l59.6 -19.1c-29.1 -90.8 -24.6 -183.4 1.2 -261.7z"/></svg>