<svg height="1000" width="968.8" xmlns="http://www.w3.org/2000/svg"><path d="M414.6 20.1c-2.9 97.7 -33.2 186.3 -87.5 256.3L176 125.2C246.3 67.2 329.1 32.4 414.6 20.1zm69.8 413.5l-90.5 -90.4C466.6 254.5 506.3 140.4 508.6 15.6 610 20.7 710 56.8 792.8 125.2zm-374.8 -242l151.1 151.2C191 397.1 102.1 427.3 4.5 430.3 16.8 344.7 51.6 261.9 109.6 191.6zm531.6 398.8L550.8 500 859.2 191.6c68.3 82.8 104.5 182.8 109.5 284.2 -125 2.5 -239 42.2 -327.5 114.6zm-156.8 -24l90.4 90.4C502.3 745.3 462.7 859.4 460.2 984.4 358.8 979.3 258.8 943 176 874.8zm374.8 242L708 657.2c69.7 -54.1 158.4 -84.3 256.3 -87.5C952 655.3 917.2 738.1 859.2 808.4zM327.5 409.6L418 500 109.6 808.4C41.2 725.6 5.1 625.6 0 524.2c124.8 -2.1 238.9 -42 327.5 -114.6zm226.6 570.3c3.1 -97.7 33.4 -186.5 87.5 -256.3l151.2 151.2c-70.3 58 -153.2 92.8 -238.7 105.1z"/></svg>