<svg height="1000" width="1000" xmlns="http://www.w3.org/2000/svg"><path d="M62.5 750v-93.7h875V750c-.1 46 -28.1 108.2 -62.5 138.8v80c0 17.2 -14 31.2 -31.2 31.2h-62.5C764 1000 750 986 750 968.8v-31.3H250v31.3c0 17.2 -14 31.2 -31.2 31.2h-62.5C139 1000 125 986 125 968.8v-80C90.6 858.2 62.6 796 62.5 750zM968.8 500c17.2 0 31.2 14 31.2 31.3v31.2c0 17.3 -14 31.3 -31.2 31.3H31.3C14 593.8 0 579.8 0 562.5v-31.2C0 514 14 500 31.3 500h31.2V135.2C62.5 60.6 123.1 0 197.8 0c30.9 0 73.7 17.7 95.6 39.6L331 77.2C389.4 51.6 446.5 62.4 486.7 94.1l.4 -.4c5 -5 14.9 -9.1 22.1 -9.1 7.1 0 17 4.1 22 9.1l22.1 22.1c5.1 5.1 9.2 15 9.2 22.1s-4.1 17.1 -9.2 22.1L347.5 365.8c-5 5.1 -14.9 9.2 -22.1 9.2s-17 -4.1 -22.1 -9.2l-22 -22.1c-5.1 -5 -9.2 -14.9 -9.2 -22s4.1 -17 9.2 -22.1l.3 -.3C249.9 259 239.1 201.9 264.7 143.6L227.1 106C220.4 99.3 207.3 93.8 197.8 93.8c-22.9 0 -41.5 18.6 -41.5 41.5V500h812.5z"/></svg>