<svg height="1000" width="1000" xmlns="http://www.w3.org/2000/svg"><path d="M876.2 440.7c118.6 70.8 140.6 144.1 111.9 183 -9.2 13.4 -49.1 70.7 -289 61.7 -42.6 59.4 -88.4 104.1 -131.8 135.3C623 925.8 673.4 986.8 689.5 1000c0 0 -6.8 -.3 -16.8 -6.6 -5.3 -3.1 -12.9 -9.3 -17.1 -13.8C625.1 948 586.2 897.7 546.8 834.8 461 889.7 388.4 891.6 374.1 853.3c-9.5 -21.2 3 -51.8 17.7 -76.9 -61.2 34.2 -120.5 52.5 -169.4 41.3C209.2 814.7 188 807 177.1 782.1c-8.8 -18.7 -11.7 -47.4 -.3 -92.1 17.8 -69 73.4 -160.8 92.4 -190.8 7.4 16.8 -40.5 -78.5 -50.7 -182.1C44.3 317.1 2.5 334.4 .6 335.2c3 -4.8 15.3 -14.2 34.7 -19 42.9 -10.7 106.7 -19.3 181.6 -22 -4.7 -101.7 30 -165.5 70.3 -158.7h.4c22.1 2.5 41.5 26.5 55.6 50.6 1.3 -68.7 15.3 -128 48.9 -164.2 9.2 -10 26.5 -24.5 53.5 -21.5h.1c20.5 1.7 46.8 13.5 79.7 45.9 50 48.9 100.7 140.6 118.2 173.7 72.7 7.2 134.3 24.5 183.1 46.4C889.9 165.7 917.5 91.6 920.8 71c1.3 2.5 5.8 16.5 -.8 39.6 -12.2 42.2 -36.3 101 -71 166.6 89.4 46.3 127.6 107.4 103.2 139.3 -6.5 9.7 -23.5 24.5 -76 24.2zM724.1 648.1c137.6 -8.5 155.6 -40.2 153.4 -65.4 -3.7 -41.5 -41.4 -80.6 -95.8 -114.9 1.7 48 -11.1 106.7 -57.6 180.3zM423.6 757.2c-37.2 59.5 18 77.3 97.3 34.6 -13.7 -23.6 -27.2 -48.6 -40.2 -74.6 -18.9 14.4 -38 27.8 -57.1 40zm420 -334.7c70.8 2.4 57.4 -54.4 -18.9 -101.4 -11.6 20.2 -31.5 52.5 -44.4 72 21.9 9.2 43.2 19 63.3 29.4zM545.3 777.3c55.4 -35.5 117.5 -93.9 165.5 -166.8 36.1 -54.6 51.1 -109.4 49.7 -155.4C700.7 421.2 585.9 371.6 433.8 343.3c.7 -36.1 4.1 -38.8 4.3 -39.7 21.3 2.6 55.8 7.9 76.9 11.8 63.6 11.9 164.5 39.7 225.3 62 -30.5 -64.8 -80.9 -92.2 -81.1 -92.2 3.1 -.4 54.9 11.7 95.4 85.3 16.5 -21.8 31.7 -43 45.6 -63.4C741.7 276.9 660 252.4 573 247.1c-65.3 -3.8 -120.4 10.6 -159.4 34.8 .4 68.9 14.9 193.3 66.4 338.8 -32.9 17.8 -34.7 15.3 -36.5 16.1C409.9 557.2 370.8 423.4 356.3 338.3c-41.2 59.3 -39.4 116.2 -39.4 116.3 -1.8 -2.4 -17.2 -53.6 26.3 -125.4 -26.5 -3.4 -51.8 -5.8 -75.9 -7.6 3.1 65.8 22.6 148.7 61.7 226.7 29 58 68.6 98.2 108.8 120.1C497.2 633.4 596.1 559.7 697.1 442c29.2 17.6 31.5 22.8 32.2 23.4 -15.4 20.6 -31.6 40.8 -48.7 60.8 -42 49.1 -116.5 122.6 -166.1 164 73.3 6.7 122.1 -23.8 122.1 -23.9 -1.6 3.3 -39.1 42.4 -123.6 39.9 10.8 25.2 21.5 49 32.3 71.1zm53.5 -560.5C595.7 212 521.5 101.9 488.5 110.1c-33 -2.1 -70.7 44.9 -74.7 147.1 41.3 -25.9 98 -43.6 185 -40.4zm-255.2 6.1c-7.4 -13.1 -16.9 -24.4 -28.2 -26.6h-.1c-48.5 -2.7 -48.4 103.2 -48.2 96.9 26.6 0 54.4 .8 82.8 2.5 -3.2 -24.8 -5.4 -49.2 -6.3 -72.8zm-54.8 316.4c-60.1 120.1 -38.8 149.6 -38.4 150 14.4 30.3 74.5 39.5 165.8 -8.8C373.4 657.6 329.4 616.8 288.8 539.3zm410.3 146.1z"/></svg>