<svg height="1000" width="875" xmlns="http://www.w3.org/2000/svg"><path d="M718.8 187.5c86.1 0 156.2 70.1 156.2 156.3v251.6C875 657 838.7 713 782.4 738.1L625 808.4v82.2c0 25.9 -21 46.9 -46.9 46.9H46.9C21 937.5 0 916.5 0 890.6V109.4C0 83.5 21 62.5 46.9 62.5h531.2c25.9 0 46.9 21 46.9 46.9v78.1h93.8zM750 595.4V343.8c0 -17.3 -14 -31.3 -31.2 -31.3H625v359L731.5 624c10.2 -4.6 18.5 -17.4 18.5 -28.6zM406.3 750c17.2 0 31.2 -14 31.2 -31.2V281.3c0 -17.3 -14 -31.3 -31.2 -31.3S375 264 375 281.3v437.5c0 17.2 14 31.2 31.3 31.2zm-187.5 0C236 750 250 736 250 718.8V281.3C250 264 236 250 218.8 250s-31.3 14 -31.3 31.3v437.5c0 17.2 14 31.2 31.3 31.2z"/></svg>