<svg height="1000" width="875" xmlns="http://www.w3.org/2000/svg"><path d="M364.3 572.3c0 37.7 -27.4 49.6 -61 49.6h-88.1V518.6h89.9c36.3 .1 59.2 15.2 59.2 53.7zM349.2 411.5c0 31.9 -20.9 44.7 -50.4 44.7h-83.4v-87.5h77.4c29.7 0 56.4 8.3 56.4 42.8zm258.4 45.3c37.5 0 56.3 21.9 59.6 58H545.7c2.3 -35.7 26.2 -58 61.9 -58zM875 156.3v687.5c0 51.7 -42 93.7 -93.7 93.7H93.8C42 937.5 0 895.5 0 843.8V156.3C0 104.5 42 62.5 93.8 62.5h687.5c51.7 0 93.7 42 93.7 93.8zm-344.3 205h151.9v-36.9H530.7v36.9zm-84 215.5c0 -47.1 -22.3 -87.7 -68.4 -100.8 33.6 -16 51.2 -34.6 51.2 -72.3 0 -74.6 -55.7 -92.8 -119.9 -92.8H132.8v375h181.8c68.2 -.4 132.1 -33 132.1 -109.1zm295.5 -28.9c0 -80.3 -47.1 -147.3 -132 -147.3 -82.9 0 -138.9 62.1 -138.9 143.7 0 84.6 53.3 142.6 138.9 142.6 64.8 0 106.8 -29.1 127.1 -91.4h-65.8c-7.2 23.2 -36.3 35.4 -59 35.4 -43.7 0 -66.6 -25.6 -66.6 -69h195.7c.2 -4.5 .6 -9.4 .6 -14z"/></svg>