<svg height="1000" width="1125" xmlns="http://www.w3.org/2000/svg"><path d="M453.1 463.3c85.2 24 126.4 88.3 126.4 175.2 0 140.6 -118.2 201 -244 201H0V147.3h326.4c118.5 0 221.3 33.6 221.3 171.5 0 69.9 -32.5 114.8 -94.6 144.5zm-301 -197.9V427h154.3c54.3 0 92.8 -23.7 92.8 -82.5 0 -63.6 -49.4 -79.1 -104.3 -79.1H152.1zm162.7 456.5c62 0 112.5 -21.9 112.5 -91.8C427.3 559.2 385 531.3 318 531.3H152.1v190.6h162.7zM1015 251.8H734.4v-68.2H1015v68.2zm110 344.3c0 8.8 -.6 17.6 -1.2 25.8H762.3c0 80.2 42.4 127.5 123.1 127.5 41.7 0 95.7 -22.6 108.7 -65.4h121.5c-37.3 114.6 -114.8 168.5 -234.5 168.5 -158.3 0 -256.5 -107 -256.5 -263 0 -150.4 103.7 -265.3 256.5 -265.3 157.2 0 243.9 123.7 243.9 271.9zM762.5 535.2h224C980.7 468.8 945.9 428.1 876.8 428.1c-66.1 0 -109.8 41.2 -114.3 107.1z"/></svg>