<svg height="1000" width="1250" xmlns="http://www.w3.org/2000/svg"><path d="M718.8 62.5c34.5 0 62.5 28 62.5 62.5v187.5c0 34.5 -28 62.5 -62.5 62.5H531.3c-34.6 0 -62.5 -28 -62.5 -62.5V125c0 -34.5 27.9 -62.5 62.5 -62.5h187.5zM406.3 171.9v140.6c0 18.5 4.2 35.9 11.4 51.6C350.8 411.7 301.1 481.2 279 562.5h-96.5C209.2 436.2 288.3 329.1 396.4 265.6H240.7c-18.5 45.8 -63.3 78.2 -115.7 78.2 -69 0 -125 -56 -125 -125s56 -125 125 -125c52.4 0 97.2 32.3 115.7 78.1h165.5zM312.5 625c34.5 0 62.5 28 62.5 62.5V875c0 34.5 -28 62.5 -62.5 62.5H125c-34.5 0 -62.5 -28 -62.5 -62.5V687.5C62.5 653 90.5 625 125 625h187.5zM1125 93.8c69 0 125 55.9 125 125s-56 125 -125 125c-52.4 0 -97.2 -32.4 -115.7 -78.2H853.6c108.1 63.5 187.2 170.6 213.9 296.9H971C948.9 481.2 899.2 411.7 832.3 364.1c7.2 -15.7 11.4 -33.1 11.4 -51.6V171.9h165.6c18.5 -45.8 63.3 -78.2 115.7 -78.2zm0 531.2c34.5 0 62.5 28 62.5 62.5V875c0 34.5 -28 62.5 -62.5 62.5H937.5C903 937.5 875 909.5 875 875V687.5C875 653 903 625 937.5 625H1125z"/></svg>