<svg height="1000" width="875" xmlns="http://www.w3.org/2000/svg"><path d="M875 700c0 18.8 -6.3 31.3 -18.7 37.5 -6.3 25 -6.3 112.5 0 143.8 12.4 12.4 18.7 24.9 18.7 37.5V950c0 31.3 -25 50 -50 50H187.5C81.3 1000 0 918.8 0 812.5v-625C0 81.2 81.3 0 187.5 0H825c31.3 0 50 18.7 50 50v650zM281.3 281.3v62.5c0 17.2 13.9 31.2 31.2 31.2h93.8v218.8c0 17.2 13.9 31.2 31.2 31.2H500c17.3 0 31.3 -14 31.3 -31.2V375H625c17.3 0 31.3 -14 31.3 -31.2v-62.5C656.3 264 642.3 250 625 250h-93.7v-93.7C531.3 139 517.3 125 500 125h-62.5c-17.3 0 -31.2 14 -31.2 31.3V250h-93.8c-17.3 0 -31.2 14 -31.2 31.3zM743.8 875V750H187.5c-31.2 0 -62.5 25 -62.5 62.5s25 62.5 62.5 62.5h556.3z"/></svg>