<svg height="1000" width="1250" xmlns="http://www.w3.org/2000/svg"><path d="M1001 375c138.6 .5 251.1 115.3 249 253.9C1247.9 766 1135.4 876.3 997.5 875 863.1 873.7 750.3 760 750 625.5c-.1 -72.9 31 -138.6 80.7 -184.4l-29.2 -47L633.6 665.3c-7.6 12.3 -25.4 22.2 -39.8 22.2H492.1C464.4 795.3 366.5 875 250 875 111.4 875 -.8 762.3 0 623.5 .8 486.3 113.5 374.7 250.6 375c29.5 .1 57.8 5.3 84 14.7L392 296.9h-95.1c-25.6 0 -46.4 -20.6 -46.9 -46 -.5 -26.3 21.7 -47.8 47.9 -47.8h170.9c17.2 0 31.2 14 31.2 31.3v31.2h221.8l-29.1 -46.9h-98.9c-17.3 0 -31.3 -13.9 -31.3 -31.2v-31.3c0 -17.2 14 -31.2 31.3 -31.2h125c14.3 0 32.2 9.9 39.8 22.2l151.7 244.4C938.4 380.8 969 374.9 1001 375zM364.7 519.1l-46.2 74.6h84.6c-5.8 -28.4 -19.4 -54.1 -38.4 -74.6zM250 781.3c63.9 0 119 -38.7 143.2 -93.8H234.4c-36.7 0 -59.2 -40.4 -39.9 -71.5l88.9 -143.6C272.6 470 261.5 468.8 250 468.8c-86.2 0 -156.2 70 -156.2 156.2s70 156.3 156.2 156.3zM567.6 593.8L712.7 359.4H463.6l-48.3 78c44.6 39.4 75 94.3 82.8 156.4h69.5zm424 187.2c89.9 4.8 164.7 -67.1 164.7 -156 0 -86.2 -70.1 -156.2 -156.3 -156.2h-.1c-10.8 0 -28.2 2.1 -38.7 4.8l86.9 140c9.1 14.6 4.6 33.9 -10.1 43l-26.6 16.5c-14.6 9.1 -33.9 4.6 -43 -10.1L881.6 523.2c-24.8 28.8 -39.3 66.7 -37.7 107.9 3.1 80.2 67.5 145.7 147.7 149.9z"/></svg>