<svg height="1000" width="1250" xmlns="http://www.w3.org/2000/svg"><path d="M781.3 187.5c-51.8 0 -93.8 -42 -93.8 -93.7S729.5 0 781.3 0 875 42 875 93.8s-42 93.7 -93.7 93.7zm-7.9 236.3l-80.7 -64.6 -113.8 97.5 80.8 53.8c15.3 10.2 27.8 33.5 27.8 52v250c0 34.5 -28 62.5 -62.5 62.5s-62.5 -28 -62.5 -62.5V595.9L402.9 489.5C387.5 479.2 375 455.9 375 437.4c0 -15.8 9.8 -37.1 21.9 -47.4L615.6 202.5c9.7 -8.3 27.9 -15.1 40.7 -15.1 12.1 0 29.6 6.2 39 13.8l139.1 111.3h103.1c34.5 0 62.5 28 62.5 62.5s-28 62.5 -62.5 62.5H812.4c-12.1 0 -29.5 -6.1 -39 -13.7zM1000 500c138 0 250 112 250 250s-112 250 -250 250S750 888 750 750 862 500 1000 500zm0 375c69 0 125 -56 125 -125S1069 625 1000 625 875 681 875 750s56 125 125 125zM250 500c138 0 250 112 250 250s-112 250 -250 250S0 888 0 750 112 500 250 500zm0 375c69 0 125 -56 125 -125S319 625 250 625 125 681 125 750s56 125 125 125z"/></svg>