<svg height="1000" width="875" xmlns="http://www.w3.org/2000/svg"><path d="M812.5 62.5c34.4 0 62.5 28.1 62.5 62.5v750c0 34.4 -28.1 62.5 -62.5 62.5h-750C28.1 937.5 0 909.4 0 875V125C0 90.6 28.1 62.5 62.5 62.5h750zm-125 502.7h-.2v-68.3C687.3 400.4 665 335.7 484.6 335.7h-33.8c-58.6 0 -127.2 16.3 -136.2 75.8h-2.1V265.6h-125v453.1h125v-67.9h1.8c15.6 46.7 51.3 75.8 137.5 75.8h33c180.4 0 202.7 -64.9 202.7 -161.4zm-125 -56.4v44.7c0 42.4 -6.6 66 -75 66H399c-56.4 0 -86.1 -12.7 -86.1 -69.7v-37.1c0 -57.2 29.7 -69.7 86.1 -69.7h88.5c68.4 -.4 75 23.4 75 65.8z"/></svg>