<svg height="1000" width="1000" xmlns="http://www.w3.org/2000/svg"><path d="M812.5 93.8v93.7H625V93.8c0 -17.3 14 -31.3 31.3 -31.3h125c17.2 0 31.2 14 31.2 31.3zM124.8 312.5c1 -34.4 28 -62.5 62.4 -62.5H375v312.5h-62.5V875c0 34.5 -28 62.5 -62.5 62.5H62.5C28 937.5 0 909.5 0 875v-85.9C6.8 535.6 119.9 495.8 124.8 312.5zm750.4 0c4.9 183.3 118 223.1 124.8 476.6V875c0 34.5 -28 62.5 -62.5 62.5H750c-34.5 0 -62.5 -28 -62.5 -62.5V562.5H625V250h187.8c34.4 0 61.4 28.1 62.4 62.5zM343.8 62.5c17.2 0 31.2 14 31.2 31.3v93.7H187.5V93.8c0 -17.3 14 -31.3 31.3 -31.3h125zm93.7 500V250h125v312.5h-125z"/></svg>