<svg height="1000" width="1125" xmlns="http://www.w3.org/2000/svg"><path d="M562.3 218.8c-36.1 0 -70.3 7.4 -102.5 18.5 -26 -20.1 -46.1 -47.5 -57.7 -79.5 49.3 -21.3 103.6 -33 160.4 -33 57 0 111.3 11.9 160.5 33.2 -11.5 32 -31.6 59.4 -57.6 79.5C633 226.2 598.6 218.7 562.3 218.7zm-242.8 638C226.8 787.5 164.8 679.7 156.8 557c14.3 -4.1 29.1 -6 44 -6 18 0 34.9 3.5 51.5 9 8.1 86.5 50.8 162.5 115.1 214 -8 31.3 -24.4 59.8 -47.9 82.8zm437.9 -83.2C821.3 722.1 864.1 646.5 872.1 560.2c16.8 -5.5 34 -9.2 51.9 -9.2 14.7 0 29.3 1.9 43.4 5.8 -7.6 122.7 -69.5 230.5 -162.1 299.8 -23.5 -23 -39.9 -51.7 -47.9 -83zM979.1 373.2c67.6 39.9 119.1 104.1 144.7 180.5 2.6 7.2 -.4 15.2 -6.8 19.2 -6.5 3.9 -14.7 2.5 -19.5 -3.2 -18.4 -21.1 -37.1 -37.1 -57.1 -49C928.5 454.5 785 493.9 720.3 608.6c-64.6 114.6 -26.2 261.7 85.8 327.9 19.9 11.9 42.7 20.5 69.9 26.2 7.4 1.6 12.5 8.2 12.5 15.8 -.2 7.8 -5.3 14.3 -12.7 15.6 -77.6 15.3 -157.4 1.6 -225 -38.4C615.6 935 586.5 907.8 562.3 877.3 538.1 907.8 509 935 473.8 955.7c-67.5 40 -147.4 53.7 -225 38.4 -7.4 -1.3 -12.5 -7.8 -12.7 -15.6 0 -7.6 5.3 -14.2 12.5 -15.8 27 -5.9 50 -14.3 70 -26.2C430.5 870.3 468.9 723.2 404.3 608.6 339.7 493.9 196.1 454.5 84.2 520.7c-19.9 11.7 -38.7 27.9 -57 49 -4.9 5.7 -13.1 7.1 -19.6 3.2 -6.4 -4.1 -9.4 -12 -6.8 -19.2 26 -76.4 77.5 -140.4 145.1 -180.5 34.4 -20.3 71.1 -32.4 108 -38.8C242 299.8 234.4 263.3 234.4 224.6c0 -80.1 28.5 -157.8 80.1 -219.1C319.3 -.4 327.3 -1.8 334 2c6.4 3.7 9.4 11.7 7 18.9 -8.6 27 -12.9 51.6 -12.9 75.2 0 132.4 105.1 240 234.4 240S796.9 228.5 796.9 96.1c0 -23.8 -4.1 -48.2 -12.9 -75.2 -2.4 -7.2 .6 -15.2 7 -18.9 6.7 -3.8 14.7 -2.4 19.5 3.5 51.8 61.3 80.1 139 80.1 219.1 0 38.7 -7.8 75.2 -19.5 109.8 37.1 6.4 73.6 18.5 108 38.8zm-416.8 252c51.8 0 93.8 -42 93.8 -93.8s-42 -93.7 -93.8 -93.7 -93.7 42 -93.7 93.7 41.9 93.8 93.7 93.8z"/></svg>