<svg height="1000" width="968.8" xmlns="http://www.w3.org/2000/svg"><path d="M153.1 131.2C339.5 -43 633.8 -46.9 823.2 138.7c28 27.5 -12.5 72.4 -43.7 42C613.9 19.7 358 23.8 195.7 174.4c-31.8 29.5 -71.3 -16.2 -42.6 -43.1zm193.2 817.6C94.9 874 -48 615.4 14.6 366.6c10.4 -41 68.8 -24.4 59 13.9 -55.2 217.4 69 443.5 288.1 509.7 41.8 12.5 22.3 69.8 -15.4 58.6zm289.2 -3.9C598 957.2 577 900.6 618.4 886.9 825.6 817.6 945.3 602.3 898 392c-9.5 -42.4 49.9 -53.9 58.6 -15.4 55.7 242.3 -83 489.8 -321.1 568.3zM512.7 790.6c0 16 -12.9 28.9 -28.9 28.9s-28.9 -12.9 -28.9 -28.9l.4 -140.2c0 -15.8 12.9 -28.9 28.9 -28.9 16 0 28.9 12.9 28.9 28.9zM651.4 265.2c0 -42.5 63.4 -38.2 63.4 0v139.9c0 135.3 -118.5 177.5 -230.4 176 -111.9 1.5 -230.5 -40.7 -230.5 -176V265.2c0 -38.2 63.5 -42.5 63.5 0 -2.8 172.3 -13.7 257.5 167 258.8 176.1 -1.1 171.1 -81.2 167 -258.8z"/></svg>