<svg height="1000" width="1000" xmlns="http://www.w3.org/2000/svg"><path d="M324.2 228.3c0 45.7 -32 95.9 -141.6 95.9H45.7l41 -173.4h132.4c82.3 0 105.1 45.5 105.1 77.5zm246.5 -77.5c82.2 0 105.1 45.5 104.9 77.5 0 45.7 -31.9 95.9 -136.9 95.9H401.8l36.5 -173.4h132.4zM173.4 406.4c82.3 0 105.1 45.7 105.1 77.6 0 50.2 -32 95.9 -141.6 95.9H0L41 406.4h132.4zm351.8 0c82 0 104.9 45.7 104.9 77.6 0 50.2 -31.9 95.9 -136.9 95.9H356.3l36.5 -173.5h132.4zm369.7 -105c82.2 0 105.1 45.7 104.9 77.5 0 50.2 -31.8 95.9 -136.9 95.9H726l36.5 -173.4h132.4zm-54.7 269.3c82.3 0 104.9 45.7 104.9 77.5 0 50.2 -27.3 95.9 -136.9 95.9H671.3l36.5 -173.4h132.4zM470.3 675.8c82.2 0 105.1 45.7 104.9 77.5 0 45.7 -27.3 95.9 -136.9 95.9H301.4l36.5 -173.4h132.4z"/></svg>