<svg height="1000" width="1000" xmlns="http://www.w3.org/2000/svg"><path d="M812.5 750c69 0 125 56 125 125v62.5c0 34.5 -28 62.5 -62.5 62.5H250c-34.5 0 -62.5 -28 -62.5 -62.5V875c0 -69 56 -125 125 -125h500zm-250 187.5c34.5 0 62.5 -28 62.5 -62.5s-28 -62.5 -62.5 -62.5S500 840.5 500 875s28 62.5 62.5 62.5zM640.6 125c-8.6 0 -15.6 7 -15.6 15.6v31.3c0 8.6 7 15.6 15.6 15.6h308.3l-34.1 125H640.6c-8.6 0 -15.6 7 -15.6 15.6v31.3c0 8.6 7 15.6 15.6 15.6h257.1l-34.1 125h-223c-8.6 0 -15.6 7 -15.6 15.6v31.3c0 8.6 7 15.6 15.6 15.6h206l-34.1 125h-500L295.4 500H93.7C42 500 0 458 0 406.3V93.8C0 42 42 0 93.7 0H1000l-34.1 125H640.6zM125 375h159.1L261.4 125H125v250z"/></svg>