<svg height="1000" width="1125" xmlns="http://www.w3.org/2000/svg"><path d="M765.6 125c-8.6 0 -15.6 7 -15.6 15.6v31.3c0 8.6 7 15.6 15.6 15.6h308.3l-34.1 125H765.6c-8.6 0 -15.6 7 -15.6 15.6v31.3c0 8.6 7 15.6 15.6 15.6h257.1l-34.1 125h-223c-8.6 0 -15.6 7 -15.6 15.6v31.3c0 8.6 7 15.6 15.6 15.6h206l-34.1 125H375V0h750l-34.1 125H765.6zM310.2 654.3c5.8 14.5 .3 31 -13.1 39.2l-77 47.2c-24.5 15 -62.1 11.8 -81.3 -9.3C-45 530.3 -46.1 225.7 134.7 23.4 156.4 -1 192.4 -7.6 220.4 9.6l76.7 47.1c13.4 8.2 19 24.7 13.1 39.2l-50.4 123.5c-5.4 13.3 -19.2 21.5 -33.7 20.1l-87.9 -8.7c-34.5 93.7 -33.8 196.9 0 288.6l87.9 -8.7c14.6 -1.4 28.3 6.8 33.7 20.1zM937.5 750c69 0 125 56 125 125v62.5c0 34.5 -28 62.5 -62.5 62.5H312.5C278 1000 250 972 250 937.5V875c0 -69 56 -125 125 -125h562.5zM656.3 937.5c34.5 0 62.5 -28 62.5 -62.5s-28 -62.5 -62.5 -62.5 -62.5 28 -62.5 62.5 27.9 62.5 62.5 62.5z"/></svg>