<svg height="1000" width="750" xmlns="http://www.w3.org/2000/svg"><path d="M742.5 997.7c-2.1 1.3 -5.7 2.3 -8.1 2.3 -4.9 0 -10.9 -3.4 -13.4 -7.5L476.2 589.3c8.3 -3.3 19.7 -11.6 25.3 -18.5l246.2 405.5c1.3 2 2.3 5.7 2.3 8.1 0 4.8 -3.4 10.8 -7.5 13.3zM278.9 613.9l122.7 299.9c13.1 32 -2.2 68.5 -34.2 81.5 -31.9 13.1 -68.4 -2.2 -81.5 -34.2L215.4 788.7zm-91.4 -442c-47.5 0 -85.9 -38.5 -85.9 -86S140 0 187.5 0s85.9 38.5 85.9 85.9 -38.4 86 -85.9 86zm302.4 330.3c16 20.3 12.6 49.8 -7.7 65.8 -18.3 14.4 -48 14.9 -65.9 -7.7L216.5 307.9c-1.3 -1.6 -4 -2.9 -6.1 -2.9 -4.3 0 -7.8 3.5 -7.8 7.8 0 1.5 .8 3.6 1.7 4.8l61.3 77.8v209.4l-128.7 354c-11.8 32.5 -47.7 49.2 -80.1 37.4C24.3 984.4 7.6 948.6 19.4 916.1L125 625.7V350.9l-31.3 40.2v155.8c0 25.6 -20.4 46.4 -45.9 46.8C21.5 594.2 0 572.1 0 545.8V358.9L119.2 205.6c9.3 -11.9 23.1 -18 37 -18v-.1h62.5c13.9 0 27.6 6.1 36.8 17.8z"/></svg>