<svg height="1000" width="875" xmlns="http://www.w3.org/2000/svg"><path d="M872.3 435c3.9 17.3 4.7 261.9 -4.9 296.3 -13.9 49.4 -35 86.7 -68.8 121.2 -46.6 47.7 -96.5 73.3 -159.9 81.9 -36.6 4.9 -393 3.7 -421.9 -1.6C129.9 917.2 43.4 845.5 12.9 748.6 .6 709.4 -.8 680.3 .4 482c1 -158.2 1.9 -185.7 6 -202.9C28.7 187.7 89.7 116.2 174.6 82.6 220.7 64.3 250.8 61.5 386.3 63.1c86.4 1 112.1 2.1 123.7 5.6 48 14.7 90.2 40.7 127.9 79.2 52.9 53.9 79.7 113.8 79.9 178.3 .2 33.6 5.4 46.1 25.2 57.6 12.5 7.2 16.8 8 56 9.8 23.5 .9 45.3 3.3 48.9 5.2 11.1 6.1 20.9 20.5 24.4 36.2zM243.2 310.7c-23.9 24.1 -11.8 70.6 20.7 79.7 6 1.6 47.4 2.8 99.2 2.4 84 -.4 89.2 -.8 98.2 -6.5 16.6 -10.5 24.1 -23.6 24.1 -42.2 0 -20.7 -8.1 -33.6 -26.2 -42.7 -12.5 -6.5 -15.4 -6.7 -101.2 -6.7 -95.3 0 -99.6 .6 -114.8 16zM617.8 701c28.1 -16 33.2 -54.9 9.5 -77C610.7 608.6 611.7 608.6 436.7 608.8c-170.1 .2 -176.2 .6 -190 13.1 -11 9.9 -18.2 29.5 -16 43.7 2.1 15.1 15.2 31.9 29.1 37.9 7 3.1 44.5 5.5 177.5 3.9l151.4 -1.7z"/></svg>