<svg height="1000" width="1000" xmlns="http://www.w3.org/2000/svg"><path d="M336.3 443C483.8 472.3 590 617.4 556.1 779.3 533.8 885.4 448 971.3 341.8 993.6 160.4 1031.6 0 893.6 0 718.8V234.4c0 -26 20.9 -46.9 46.9 -46.9h93.7c26 0 46.9 20.9 46.9 46.9v484.4c0 51.7 42 93.7 93.8 93.7s93.7 -42 93.7 -93.7c0 -40.3 -25.6 -74.7 -61.1 -87.9 -18.8 -7.1 -32.6 -23.1 -32.6 -43v-98.4c0 -29.1 26.5 -52.2 55 -46.5zM408.2 0c318.8 16.8 575 273 591.6 591.8 1 18 -13.3 33.2 -31.2 33.2h-62.7c-16.4 0 -30.1 -12.9 -31.1 -29.3C860.2 342.8 657 137.7 404.3 124 387.9 123.2 375 109.6 375 93V31.3C375 13.3 390.2 -1 408.2 0zm.6 187.5c215 16.6 387.1 188.7 403.5 403.7C813.7 609.4 799 625 780.9 625H718c-16.2 0 -29.5 -12.5 -31.1 -28.7C673.4 445.9 553.9 325 403.9 312.7 387.7 311.5 375 298 375 281.6v-62.7c0 -18.3 15.6 -32.8 33.8 -31.4z"/></svg>