<svg height="1000" width="875" xmlns="http://www.w3.org/2000/svg"><path d="M317.2 382.8c9.4 -9.6 12.1 -9.9 71.1 -9.9 53.1 0 54.9 .1 62.7 4.1 11.3 5.6 16.2 13.6 16.2 26.5 0 11.5 -4.7 19.5 -14.9 26.2 -5.4 3.5 -8.7 3.7 -60.7 4.1 -32 .2 -57.6 -.4 -61.5 -1.6C310 426.6 302.5 397.7 317.2 382.8zm119.9 184.6c108.2 0 107.6 0 118 9.2 14.4 13.6 11.5 37.7 -6.1 47.6l-17.9 2.9 -93.6 1.2c-82.4 1 -105.7 -.4 -110 -2.3 -8.6 -3.7 -16.6 -14.3 -17.9 -23.5 -1.2 -8.8 3.1 -21.1 9.9 -27.1 8.6 -7.6 12.3 -8 117.6 -8zm436.3 254.1c-6.8 55.5 -44.9 98.4 -99.8 112.3 -14 3.5 -18.9 3.7 -337.7 3.5 -308.2 0 -324 -.2 -335.9 -3.5C83.6 929.5 69.5 923 56.4 914.3 45.5 906.8 29.3 891.2 23.2 882.2 15.8 871.3 7.2 852.3 3.7 839.3 .2 826.2 0 820.9 0 500.6 0 182 0 175.2 3.5 161.3c12.3 -48.2 50.6 -85.1 100 -96.1 14.3 -3.1 648.6 -3.7 664.1 -.6 41.4 8.4 74 33.4 92.9 71.1 15.1 29.9 13.7 -2.9 14.3 352.8 .4 226.2 0 321.3 -1.4 333zM706.6 459.8c-2.1 -9.8 -8.2 -18.8 -15 -22.5 -2.1 -1.2 -15.6 -2.5 -30.3 -3.3 -24.2 -1.2 -26.9 -1.6 -34.7 -6.1 -12.1 -7 -15.5 -14.8 -15.7 -35.7 0 -39.9 -16.6 -77 -49.4 -110.4 -23.4 -23.8 -49.4 -40 -79.3 -49 -7 -2.1 -23 -2.9 -76.5 -3.5 -83.8 -1 -102.6 .8 -131.1 12.1 -52.7 20.9 -90.4 65.2 -104.3 121.9 -2.5 10.5 -3.1 27.7 -3.7 125.6 -.8 122.6 0 140.8 7.8 165 19 60 72.5 104.3 126.2 114.1 18 3.3 238.7 4.1 261.1 .9 39.3 -5.2 70.1 -21 99 -50.5 20.9 -21.3 34 -44.6 42.6 -75.2 6.3 -21.3 5.7 -172.7 3.3 -183.4z"/></svg>