<svg height="1000" width="750" xmlns="http://www.w3.org/2000/svg"><path d="M651.3 464.8c67.3 53.8 108.6 139 99.3 233.6 -13.4 138 -137.1 239.1 -275.4 239.1H66.4c-17.2 0 -31.2 -14 -31.2 -31.2v-93.8c0 -17.3 14 -31.2 31.2 -31.2h62.3V218.8H66.4c-17.2 0 -31.2 -14 -31.2 -31.3V93.8c0 -17.3 14 -31.3 31.2 -31.3h389.5c145.7 0 262.6 126 248.2 275 -4 39.5 -27.6 96.6 -52.8 127.3zm-366.8 -246v187.5h171.4c51.7 0 93.7 -42 93.7 -93.8s-42 -93.7 -93.7 -93.7H284.5zm171.4 562.5c60.4 0 109.4 -49 109.4 -109.4S516.3 562.5 455.9 562.5H284.5v218.8h171.4z"/></svg>