<svg height="1000" width="1000" xmlns="http://www.w3.org/2000/svg"><path d="M860.4 172.9L758.8 274.4l51.7 51.8c18.4 18.3 18.4 48 0 66.2l-33.9 34c23 50.9 35.9 107.6 35.9 167.2 0 224.4 -181.8 406.2 -406.2 406.2S0 818.2 0 593.8 181.8 187.5 406.3 187.5c59.5 0 116.2 12.9 167.1 35.9l34 -33.9c18.4 -18.4 48.1 -18.4 66.2 0l51.8 51.7L827 139.6zm116.2 -55.7c12.9 0 23.4 10.5 23.4 23.4s-10.5 23.5 -23.4 23.5h-46.9c-12.9 0 -23.4 -10.6 -23.4 -23.5s10.5 -23.4 23.4 -23.4h46.9zM859.4 0c12.9 0 23.4 10.5 23.4 23.4v46.9c0 12.9 -10.5 23.5 -23.4 23.5S835.9 83.2 835.9 70.3V23.4C835.9 10.5 846.5 0 859.4 0zm66.2 107.4c-9 9.2 -23.8 9.2 -33.2 0 -9.2 -9.2 -9.2 -24 0 -33.2L925.6 41c9.2 -9.2 24 -9.2 33.2 0 9.2 9.2 9.2 24 0 33.2zm-132.4 0L760 74.2c-9.2 -9.2 -9.2 -24 0 -33.2 9.1 -9.2 24 -9.2 33.2 0l33.2 33.2c9.1 9.2 9.1 24 0 33.2 -9.2 9.2 -24.1 9.2 -33.2 0zm132.4 66.4l33.2 33.2c9.2 9.2 9.2 24.1 0 33.2 -9.2 9.2 -24 9.2 -33.2 0L892.4 207c-9.2 -9.1 -9.2 -24 0 -33.2 9.2 -9.2 24 -9.2 33.2 0zM218.8 531.3c0 -69 56 -125 125 -125 17.1 0 31.2 -14.1 31.2 -31.3s-14.1 -31.2 -31.2 -31.2c-103.4 0 -187.5 84.1 -187.5 187.5 0 17.1 14 31.2 31.2 31.2s31.3 -14.1 31.3 -31.2z"/></svg>