<svg height="1000" width="1250" xmlns="http://www.w3.org/2000/svg"><path d="M1169.7 477.7c-18.4 9.2 -18.4 35.4 0 44.6 49.2 24.7 80.3 74.9 80.3 130v14.9c0 80.3 -65.1 145.3 -145.3 145.3 -62.5 0 -118 -40 -137.8 -99.3C954.1 674.9 945.9 625 892.4 625H357.5c-51.7 0 -59.4 43.2 -74.4 88.2 -19.8 59.3 -75.3 99.3 -137.8 99.3C65 812.5 0 747.5 0 667.2v-14.9c0 -55 31.1 -105.3 80.3 -130 18.4 -9.2 18.4 -35.4 0 -44.6C31.1 453 0 402.7 0 347.7v-14.9C0 252.5 65 187.5 145.3 187.5c62.5 0 118 40 137.8 99.3 12.8 38.3 21 88.2 74.4 88.2h534.9c51.8 0 59.5 -43.2 74.5 -88.2 19.8 -59.3 75.3 -99.3 137.8 -99.3 80.3 0 145.3 65 145.3 145.3v14.9c0 55 -31.1 105.3 -80.3 130z"/></svg>