<svg height="1000" width="875" xmlns="http://www.w3.org/2000/svg"><path d="M590.8 1000H159.2c-45.3 0 -86.8 -24.6 -109.4 -63.8C18.2 881.4 0 817.9 0 750 0 611.3 75.5 490.4 187.5 425.6V124.9l-31.2 .1C139 125 125 111 125 93.7l.1 -62c0 -17.2 14 -31.2 31.2 -31.2L593.7 0C611 0 625 14 625 31.3l-.1 61.9c0 17.3 -14 31.2 -31.2 31.3h-31.2v301.1c27.6 16 52.9 35.4 75.5 57.6l77 -77 -18.4 -18.3c-12.2 -12.2 -12.2 -32 0 -44.2l22.1 -22.1c12.2 -12.2 32 -12.2 44.2 0l102.9 103c12.2 12.2 12.2 31.9 0 44.1l-22 22.2c-12.2 12.2 -32 12.2 -44.2 0l-18.4 -18.4 -84.8 84.9C730.3 613.7 750 679.5 750 750c0 67.9 -18.2 131.4 -49.8 186.2 -22.6 39.2 -64.1 63.8 -109.4 63.8zM234.5 506.7C186 534.8 148.3 576.5 124 625h502C601.7 576.5 564 534.8 515.5 506.7l-46.7 -27.1v-355l-187.5 .2v354.8z"/></svg>