<svg height="1000" width="875" xmlns="http://www.w3.org/2000/svg"><path d="M531.3 265.6c-17.2 0 -31.3 -14 -31.3 -31.2s14.1 -31.3 31.3 -31.3 31.2 14.1 31.2 31.3 -14.1 31.2 -31.2 31.2zM875 700c0 18.8 -6.3 31.3 -18.7 37.5 -6.3 25 -6.3 112.5 0 143.8 12.4 12.4 18.7 24.9 18.7 37.5V950c0 31.3 -25 50 -50 50H187.5C81.3 1000 0 918.8 0 812.5v-625C0 81.2 81.3 0 187.5 0H825c31.3 0 50 18.7 50 50v650zM468.8 109.4c-86.4 0 -156.3 56 -156.3 125 0 40.8 24.8 76.5 62.5 99.4v25.6c0 17.2 14.1 31.2 31.3 31.2h125c17.1 0 31.2 -14 31.2 -31.2v-25.6C600.2 310.9 625 275.2 625 234.4c0 -69 -69.9 -125 -156.2 -125zm-225 326.7c-3.4 8 .1 17.2 8.2 20.5l137.6 59.2 -137.5 58.8c-8 3.3 -11.5 12.5 -8.2 20.5l12.4 28.7c3.3 8 12.4 11.6 20.5 8.2l192 -82.4 191.9 82.2c8.1 3.4 17.2 -.2 20.5 -8.2l12.4 -28.7c3.3 -8 -.2 -17.2 -8.2 -20.5L548 515.6l137.4 -59c8 -3.3 11.5 -12.5 8.2 -20.5l-12.4 -28.7c-3.3 -8 -12.4 -11.5 -20.5 -8.2l-192.1 82.2 -192 -82.2c-8 -3.3 -17.2 .2 -20.5 8.2zm500 438.9V750H187.5c-31.2 0 -62.5 25 -62.5 62.5s25 62.5 62.5 62.5h556.3zM406.3 265.6c-17.2 0 -31.3 -14 -31.3 -31.2s14.1 -31.3 31.3 -31.3 31.2 14.1 31.2 31.3 -14.1 31.2 -31.2 31.2z"/></svg>