<svg height="1000" width="1000" xmlns="http://www.w3.org/2000/svg"><path d="M687.5 187.5C687.5 291.1 603.6 375 500 375S312.5 291.1 312.5 187.5 396.4 0 500 0s187.5 83.9 187.5 187.5zM456.2 470.9c8 4.9 12.6 13.3 12.6 22.4v480.4c0 19.9 -21.7 32.4 -40 23.2C309.5 936.9 137 920.5 51.7 916 22.6 914.5 0 891.2 0 863.2V428c0 -30.5 26.5 -54.7 58.2 -52.9 94.5 5.4 282.2 24.9 398 95.8zm485.6 -95.8c31.7 -1.8 58.2 22.4 58.2 52.9v435.2c0 28 -22.6 51.3 -51.7 52.9 -85.3 4.4 -257.7 20.8 -376.9 80.8 -18.4 9.3 -40.1 -3.3 -40.1 -23.2V493.6c0 -9.1 4.5 -17.8 12.5 -22.7 115.8 -70.9 303.6 -90.5 398 -95.8z"/></svg>