<svg height="1000" width="875" xmlns="http://www.w3.org/2000/svg"><path d="M875 700c0 18.8 -6.3 31.2 -18.7 37.5 -6.3 25 -6.3 112.5 0 143.8 12.4 12.4 18.7 24.9 18.7 37.5V950c0 31.3 -25 50 -50 50H187.5C81.3 1000 0 918.8 0 812.5v-625C0 81.2 81.3 0 187.5 0H825c31.3 0 50 18.7 50 50v650zM281.3 328.1v93.8c0 8.6 6.9 15.6 15.6 15.6h109.4v109.4c0 8.6 6.9 15.6 15.6 15.6h93.7c8.7 0 15.7 -7 15.7 -15.6V437.5h109.3c8.7 0 15.7 -7 15.7 -15.6v-93.8c0 -8.6 -7 -15.6 -15.7 -15.6H531.3V203.1c0 -8.6 -7 -15.6 -15.7 -15.6h-93.7c-8.7 0 -15.6 7 -15.6 15.6v109.4H296.9c-8.7 0 -15.6 7 -15.6 15.6zM743.8 875V750H187.5c-31.2 0 -62.5 25 -62.5 62.5s25 62.5 62.5 62.5h556.3z"/></svg>