<svg height="1000" width="875" xmlns="http://www.w3.org/2000/svg"><path d="M570.9 609.2c0 82.9 -77.6 81 -85.8 81h-158V530.6h158c83.1 0 85.8 62.3 85.8 78.6zm-98 -142.8H327.1v-141h145.8c68.3 0 75.1 39.8 75.1 70.1 0 72.9 -73.7 70.9 -75.1 70.9zM875 208.3v583.4c-.2 80.2 -65.6 145.6 -145.8 145.8H145.8C65.6 937.3 .2 871.9 0 791.7V208.3C.2 128.1 65.6 62.7 145.8 62.5h583.4c80.2 .2 145.6 65.6 145.8 145.8zM660.3 620.8c0 -42.1 -13 -113.8 -95.8 -131.5v-1.4c44.7 -19.2 72.9 -55.2 72.9 -108.7 0 -13.7 3.9 -126.5 -151.6 -126.5h-248v510.4c250.4 0 273.2 3.2 319.5 -11.2 27.8 -8.6 103 -35.1 103 -131.1z"/></svg>