<svg height="1000" width="875" xmlns="http://www.w3.org/2000/svg"><path d="M468.8 812.5c17.2 0 31.2 14 31.2 31.3v62.5c0 17.2 -14 31.2 -31.2 31.2h-62.5c-17.3 0 -31.3 -14 -31.3 -31.2v-62.5c0 -17.3 14 -31.3 31.3 -31.3h62.5zm-187.5 0c17.2 0 31.2 14 31.2 31.3v62.5c0 17.2 -14 31.2 -31.2 31.2h-62.5c-17.3 0 -31.3 -14 -31.3 -31.2v-62.5c0 -17.3 14 -31.3 31.3 -31.3h62.5zm375 0c17.2 0 31.2 14 31.2 31.3v62.5c0 17.2 -14 31.2 -31.2 31.2h-62.5c-17.3 0 -31.3 -14 -31.3 -31.2v-62.5c0 -17.3 14 -31.3 31.3 -31.3h62.5zm187.5 -375c17.2 0 31.2 14 31.2 31.3v62.5c0 17.2 -14 31.2 -31.2 31.2h-62.5c-17.3 0 -31.3 -14 -31.3 -31.2v-62.5c0 -17.3 14 -31.3 31.3 -31.3h62.5zm0 187.5c17.2 0 31.2 14 31.2 31.3v62.5C875 736 861 750 843.8 750h-62.5C764 750 750 736 750 718.8v-62.5C750 639 764 625 781.3 625h62.5zm0 187.5c17.2 0 31.2 14 31.2 31.3v62.5c0 17.2 -14 31.2 -31.2 31.2h-62.5c-17.3 0 -31.3 -14 -31.3 -31.2v-62.5c0 -17.3 14 -31.3 31.3 -31.3h62.5zm0 -562.5c17.2 0 31.2 14 31.2 31.3v62.5C875 361 861 375 843.8 375h-62.5C764 375 750 361 750 343.8v-62.5C750 264 764 250 781.3 250h62.5zm0 -187.5c17.2 0 31.2 14 31.2 31.3v62.5c0 17.2 -14 31.2 -31.2 31.2H125v718.8c0 17.2 -14 31.2 -31.2 31.2H31.3C14 937.5 0 923.5 0 906.3V125C0 90.5 28 62.5 62.5 62.5h781.3z"/></svg>