<svg height="1000" width="875" xmlns="http://www.w3.org/2000/svg"><path d="M468.8 437.5c17.2 0 31.2 14 31.2 31.3v62.5c0 17.2 -14 31.2 -31.2 31.2h-62.5c-17.3 0 -31.3 -14 -31.3 -31.2v-62.5c0 -17.3 14 -31.3 31.3 -31.3h62.5zm187.5 0c17.2 0 31.2 14 31.2 31.3v62.5c0 17.2 -14 31.2 -31.2 31.2h-62.5c-17.3 0 -31.3 -14 -31.3 -31.2v-62.5c0 -17.3 14 -31.3 31.3 -31.3h62.5zm187.5 0c17.2 0 31.2 14 31.2 31.3v62.5c0 17.2 -14 31.2 -31.2 31.2h-62.5c-17.3 0 -31.3 -14 -31.3 -31.2v-62.5c0 -17.3 14 -31.3 31.3 -31.3h62.5zm-562.5 0c17.2 0 31.2 14 31.2 31.3v62.5c0 17.2 -14 31.2 -31.2 31.2h-62.5c-17.3 0 -31.3 -14 -31.3 -31.2v-62.5c0 -17.3 14 -31.3 31.3 -31.3h62.5zm187.5 375c17.2 0 31.2 14 31.2 31.3v62.5c0 17.2 -14 31.2 -31.2 31.2h-62.5c-17.3 0 -31.3 -14 -31.3 -31.2v-62.5c0 -17.3 14 -31.3 31.3 -31.3h62.5zm187.5 0c17.2 0 31.2 14 31.2 31.3v62.5c0 17.2 -14 31.2 -31.2 31.2h-62.5c-17.3 0 -31.3 -14 -31.3 -31.2v-62.5c0 -17.3 14 -31.3 31.3 -31.3h62.5zm187.5 0c17.2 0 31.2 14 31.2 31.3v62.5c0 17.2 -14 31.2 -31.2 31.2h-62.5c-17.3 0 -31.3 -14 -31.3 -31.2v-62.5c0 -17.3 14 -31.3 31.3 -31.3h62.5zm0 -187.5c17.2 0 31.2 14 31.2 31.3v62.5C875 736 861 750 843.8 750h-62.5C764 750 750 736 750 718.8v-62.5C750 639 764 625 781.3 625h62.5zm0 -375c17.2 0 31.2 14 31.2 31.3v62.5C875 361 861 375 843.8 375h-62.5C764 375 750 361 750 343.8v-62.5C750 264 764 250 781.3 250h62.5zm-375 375c17.2 0 31.2 14 31.2 31.3v62.5C500 736 486 750 468.8 750h-62.5C389 750 375 736 375 718.8v-62.5C375 639 389 625 406.3 625h62.5zm0 -375c17.2 0 31.2 14 31.2 31.3v62.5C500 361 486 375 468.8 375h-62.5C389 375 375 361 375 343.8v-62.5C375 264 389 250 406.3 250h62.5zM281.3 812.5c17.2 0 31.2 14 31.2 31.3v62.5c0 17.2 -14 31.2 -31.2 31.2h-62.5c-17.3 0 -31.3 -14 -31.3 -31.2v-62.5c0 -17.3 14 -31.3 31.3 -31.3h62.5zm187.5 -750c17.2 0 31.2 14 31.2 31.3v62.5c0 17.2 -14 31.2 -31.2 31.2h-62.5c-17.3 0 -31.3 -14 -31.3 -31.2V93.8c0 -17.3 14 -31.3 31.3 -31.3h62.5zm187.5 0c17.2 0 31.2 14 31.2 31.3v62.5c0 17.2 -14 31.2 -31.2 31.2h-62.5c-17.3 0 -31.3 -14 -31.3 -31.2V93.8c0 -17.3 14 -31.3 31.3 -31.3h62.5zm187.5 0c17.2 0 31.2 14 31.2 31.3v62.5c0 17.2 -14 31.2 -31.2 31.2h-62.5c-17.3 0 -31.3 -14 -31.3 -31.2V93.8c0 -17.3 14 -31.3 31.3 -31.3h62.5zm-750 375c17.2 0 31.2 14 31.2 31.3v62.5c0 17.2 -14 31.2 -31.2 31.2H31.3C14 562.5 0 548.5 0 531.3v-62.5c0 -17.3 14 -31.3 31.3 -31.3h62.5zm0 375c17.2 0 31.2 14 31.2 31.3v62.5c0 17.2 -14 31.2 -31.2 31.2H31.3C14 937.5 0 923.5 0 906.3v-62.5c0 -17.3 14 -31.3 31.3 -31.3h62.5zm0 -187.5c17.2 0 31.2 14 31.2 31.3v62.5C125 736 111 750 93.8 750H31.3C14 750 0 736 0 718.8v-62.5C0 639 14 625 31.3 625h62.5zm0 -375c17.2 0 31.2 14 31.2 31.3v62.5C125 361 111 375 93.8 375H31.3C14 375 0 361 0 343.8v-62.5C0 264 14 250 31.3 250h62.5zm0 -187.5c17.2 0 31.2 14 31.2 31.3v62.5c0 17.2 -14 31.2 -31.2 31.2H31.3C14 187.5 0 173.5 0 156.3V93.8C0 76.5 14 62.5 31.3 62.5h62.5zm187.5 0c17.2 0 31.2 14 31.2 31.3v62.5c0 17.2 -14 31.2 -31.2 31.2h-62.5c-17.3 0 -31.3 -14 -31.3 -31.2V93.8c0 -17.3 14 -31.3 31.3 -31.3h62.5z"/></svg>