<svg height="1000" width="1250" xmlns="http://www.w3.org/2000/svg"><path d="M831.4 500c8.8 0 17.6 -1.2 26 -3.7L1125 419.9v347.7c0 28.5 -19.5 53.5 -47.3 60.5L655.1 933.8c-19.7 4.9 -40.6 4.9 -60.6 0L172.3 828.1C144.5 821.3 125 796.3 125 767.6V419.9l267.6 76.6c8.4 2.5 17.2 3.7 26 3.7 33 0 64 -17.6 81 -45.9L625 246.1l125.6 208.2c16.8 28.1 47.8 45.7 80.8 45.7zm415.3 -219.1c8.8 17.9 -.6 39.4 -19.9 45.1L840.2 436.3c-13.8 3.9 -28.7 -1.9 -36.1 -14.2L625 125l488.5 -62.3c13.5 -1.8 26.5 5.3 32.6 17.4zM103.9 80.1c6.1 -12.1 19 -19 32.4 -17.4L625 125 445.7 421.9c-7.4 12.3 -22.3 18.1 -36.1 14.2L23 325.8C3.9 320.3 -5.7 298.8 3.3 280.9z"/></svg>