<svg height="1000" width="1125" xmlns="http://www.w3.org/2000/svg"><path d="M1093.8 562.5c17.1 0 31.2 14.1 31.2 31.3v375c0 17.1 -14.1 31.2 -31.2 31.2H656.3C639.1 1000 625 985.9 625 968.8v-375c0 -17.2 14.1 -31.3 31.3 -31.3h156.2V750L875 708.4l62.5 41.6V562.5h156.3zm-750 -125c-17.2 0 -31.3 -14.1 -31.3 -31.2v-375C312.5 14.1 326.6 0 343.8 0H500v187.5l62.5 -41.6 62.5 41.6V0h156.3c17.1 0 31.2 14.1 31.2 31.3v375c0 17.1 -14.1 31.2 -31.2 31.2H343.8zm125 125c17.1 0 31.2 14.1 31.2 31.3v375c0 17.1 -14.1 31.2 -31.2 31.2H31.3C14.1 1000 0 985.9 0 968.8v-375c0 -17.2 14.1 -31.3 31.3 -31.3h156.2V750L250 708.4l62.5 41.6V562.5h156.3z"/></svg>