<svg height="1000" width="1250" xmlns="http://www.w3.org/2000/svg"><path d="M250 500c0 69 -56 125 -125 125S0 569 0 500 56 375 125 375s125 56 125 125zM125 750c34.5 0 62.5 28 62.5 62.5S159.5 875 125 875 62.5 847 62.5 812.5 90.5 750 125 750zm0 -687.5c69 0 125 56 125 125s-56 125 -125 125S0 256.5 0 187.5s56 -125 125 -125zm312.5 375c34.5 0 62.5 28 62.5 62.5s-28 62.5 -62.5 62.5S375 534.5 375 500s28 -62.5 62.5 -62.5zm0 312.5c34.5 0 62.5 28 62.5 62.5S472 875 437.5 875 375 847 375 812.5 403 750 437.5 750zm0 -687.5c69 0 125 56 125 125s-56 125 -125 125 -125 -56 -125 -125 56 -125 125 -125zm437.5 375c34.5 0 62.5 28 62.5 62.5s-28 62.5 -62.5 62.5 -62.5 -28 -62.5 -62.5 28 -62.5 62.5 -62.5zm0 312.5c34.5 0 62.5 28 62.5 62.5S909.5 875 875 875s-62.5 -28 -62.5 -62.5S840.5 750 875 750zm0 -687.5c69 0 125 56 125 125s-56 125 -125 125 -125 -56 -125 -125 56 -125 125 -125zm312.5 375c34.5 0 62.5 28 62.5 62.5s-28 62.5 -62.5 62.5S1125 534.5 1125 500s28 -62.5 62.5 -62.5zm0 312.5c34.5 0 62.5 28 62.5 62.5s-28 62.5 -62.5 62.5S1125 847 1125 812.5s28 -62.5 62.5 -62.5zm0 -625c34.5 0 62.5 28 62.5 62.5s-28 62.5 -62.5 62.5S1125 222 1125 187.5s28 -62.5 62.5 -62.5z"/></svg>