<svg height="1000" width="1000" xmlns="http://www.w3.org/2000/svg"><path d="M906.3 250c51.7 0 93.7 42 93.7 93.8v562.5c0 51.7 -42 93.7 -93.7 93.7H93.8C42 1000 0 958 0 906.3V343.8C0 292 42 250 93.8 250H250v-93.7c0 -51.8 42 -93.8 93.8 -93.8h312.5c51.7 0 93.7 42 93.7 93.8V250h156.3zM375 187.5V250h250v-62.5H375zm312.5 484.4v-93.8c0 -8.6 -7 -15.6 -15.6 -15.6H562.5V453.1c0 -8.6 -7 -15.6 -15.6 -15.6h-93.8c-8.6 0 -15.6 7 -15.6 15.6v109.4H328.1c-8.6 0 -15.6 7 -15.6 15.6v93.8c0 8.6 7 15.6 15.6 15.6h109.4v109.4c0 8.6 7 15.6 15.6 15.6h93.8c8.6 0 15.6 -7 15.6 -15.6V687.5h109.4c8.6 0 15.6 -7 15.6 -15.6z"/></svg>