<svg height="1000" width="1250" xmlns="http://www.w3.org/2000/svg"><path d="M294.8 375c-13.7 0 -26.3 -8.8 -30.1 -22C255.2 319.9 250 285.4 250 250s5.2 -69.9 14.7 -103.1c3.8 -13.1 16.4 -21.9 30.1 -21.9h65.9c21.5 0 36.4 21.2 29 41.4C380.1 192.9 375 221 375 250s5.1 57.1 14.7 83.6c7.3 20.2 -7.5 41.4 -29 41.4h-65.9zM175.6 45.6c-32.3 60.8 -96.9 226.5 .4 408.8 11 20.7 -3.8 45.6 -27.3 45.6h-68c-12.1 0 -23.5 -6.9 -28.6 -17.9C6.1 383.5 0 298.3 0 250 0 167.3 18.4 88.9 50.6 18.2 55.6 7 67.1 0 79.4 0h69c23.4 0 38.2 24.8 27.2 45.6zM1199.3 18.1c32.3 70.8 50.7 149.2 50.7 231.9s-18.4 161.1 -50.7 231.9c-5.1 11.1 -16.5 18.1 -28.8 18.1h-68.8c-23.6 0 -38.3 -25.1 -27.1 -45.9 94 -175.4 35.1 -341.7 -.6 -408.7C1063 24.7 1078 0 1101.4 0h69.2c12.2 0 23.7 7 28.7 18.1zM955.2 125c13.7 0 26.3 8.8 30.1 22 9.5 33.1 14.7 67.6 14.7 103s-5.1 69.9 -14.7 103c-3.8 13.2 -16.4 22 -30.1 22h-65.9c-21.5 0 -36.4 -21.2 -29 -41.4C869.9 307.1 875 279 875 250s-5.1 -57.1 -14.7 -83.6c-7.3 -20.2 7.5 -41.4 29 -41.4h65.9zM728 320.5l254.9 612.2c6.7 15.9 -.9 34.2 -16.8 40.8l-57.6 24.1c-15.9 6.6 -34.2 -.9 -40.9 -16.8L771.5 750H478.4l-96 230.8c-6.7 15.9 -25 23.4 -40.9 16.8l-57.6 -24.1C268 966.9 260.4 948.6 267.1 932.7L522 320.5C508.2 300.4 500.1 276.2 500.1 250 500.1 181 556 125 625 125s124.9 56 124.9 125c0 26.2 -8.1 50.4 -21.9 70.5zM530.5 625h189L625 398.1z"/></svg>