<svg height="1000" width="1250" xmlns="http://www.w3.org/2000/svg"><path d="M500.9 423.4l169.4 213.2S637.9 836.5 520.8 929.8C403.6 1023.1 0 996.5 0 996.5S7.4 951.3 21.5 888.2L206.3 669.1c7.7 -9.2 -1.7 -22.7 -13 -18.5l-118 43.1C103.5 612.3 139.2 537.4 182 503.3c117.1 -93.2 318.9 -79.9 318.9 -79.9zM1243.2 60.6c10.7 13.5 8.5 33.1 -5 43.8l-454 347.3 66.6 83.8c9.9 12.5 3.2 31.1 -12.4 34.4l-114.9 24.3L554.1 381l49.5 -106.6c6.8 -14.5 26.4 -16.8 36.3 -4.3l66.7 83.9L1160.7 6.8c13.4 -10.7 33 -8.5 43.7 5z"/></svg>