<svg height="1000" width="750" xmlns="http://www.w3.org/2000/svg"><path d="M605.9 473.9C695.7 495.4 752.3 549 741.3 669 727.1 818.6 621 858.6 462.2 867.2V1000h-94.8V869.6c-24 0 -49.2 0 -75.1 -.6v131h-94.8V867.2s-17.3 -.6 -190.1 -.6l19 -112.7c67.9 1.2 98.3 6.7 104 -31.4V297.9c-9 -48 -48.2 -43.2 -123 -41.9V155.1c114.7 .5 155.3 1 190.1 0V0h94.8v152c25.2 -.6 50.5 -1.2 75.1 -1.2V0h94.8v155.1c121.8 10.5 213.8 48 224.3 160 8 81.9 -26.5 131.1 -80.6 158.8zM294.2 262.8v188.9c53.5 0 220.9 12.4 220.9 -94.1 0 -111.4 -167.4 -94.8 -220.9 -94.8zm0 491.7c64 0 260 13.6 260 -104 0 -121.8 -196 -104 -260 -104v208z"/></svg>