<svg height="1000" width="875" xmlns="http://www.w3.org/2000/svg"><path d="M835.6 743.5L451.8 934.6c-3.8 1.6 -10.2 2.9 -14.3 2.9 -4.1 0 -10.5 -1.3 -14.3 -2.9L39.4 743.5c-7.8 -3.9 -7.8 -10.3 0 -14.2l91.9 -45.7c3.8 -1.6 10.2 -2.9 14.3 -2.9 4.2 0 10.6 1.3 14.4 2.9l263.2 130.9c3.8 1.6 10.2 2.9 14.3 2.9 4.1 0 10.6 -1.3 14.3 -2.9L715 683.6c3.8 -1.6 10.3 -3 14.4 -3s10.5 1.4 14.3 3l91.9 45.8c7.9 3.8 7.9 10.2 0 14.1zm0 -266.7c7.9 4 7.9 10.4 0 14.3l-383.8 191c-3.8 1.7 -10.2 3 -14.3 3 -4.1 0 -10.5 -1.3 -14.3 -3L39.4 491.1c-7.8 -3.9 -7.8 -10.4 0 -14.3l91.9 -45.7c3.8 -1.7 10.2 -3 14.3 -3 4.2 0 10.6 1.3 14.4 3l263.2 131c3.8 1.6 10.2 2.9 14.3 2.9s10.5 -1.3 14.3 -2.9L715 431.1c3.8 -1.7 10.3 -3 14.4 -3s10.5 1.3 14.3 3zM39.4 254.7c-7.9 -3.6 -7.9 -9.5 0 -13.1L423.2 65.2c3.8 -1.5 10.2 -2.7 14.3 -2.7s10.5 1.2 14.3 2.7l383.8 176.4c7.8 3.6 7.8 9.5 0 13.1L451.8 431.1c-3.8 1.5 -10.2 2.7 -14.3 2.7s-10.5 -1.2 -14.3 -2.7z"/></svg>