<svg height="1000" width="875" xmlns="http://www.w3.org/2000/svg"><path d="M851.6 937.5c12.9 0 23.4 10.5 23.4 23.4v39.1H0v-39.1C0 948 10.5 937.5 23.4 937.5h39.1V46.9C62.5 21 83.5 0 109.4 0h656.2c25.9 0 46.9 21 46.9 46.9v890.6h39.1zM250 148.4v78.2c0 12.9 10.5 23.4 23.4 23.4h78.2c12.9 0 23.4 -10.5 23.4 -23.4v-78.2C375 135.5 364.5 125 351.6 125h-78.2c-12.9 0 -23.4 10.5 -23.4 23.4zm0 187.5v78.2c0 12.9 10.5 23.4 23.4 23.4h78.2c12.9 0 23.4 -10.5 23.4 -23.4v-78.2c0 -12.9 -10.5 -23.4 -23.4 -23.4h-78.2c-12.9 0 -23.4 10.5 -23.4 23.4zM351.6 625c12.9 0 23.4 -10.5 23.4 -23.4v-78.2C375 510.5 364.5 500 351.6 500h-78.2c-12.9 0 -23.4 10.5 -23.4 23.4v78.2c0 12.9 10.5 23.4 23.4 23.4h78.2zM500 937.5V773.4C500 760.5 489.5 750 476.6 750h-78.2c-12.9 0 -23.4 10.5 -23.4 23.4v164.1h125zM625 601.6v-78.2C625 510.5 614.5 500 601.6 500h-78.2c-12.9 0 -23.4 10.5 -23.4 23.4v78.2c0 12.9 10.5 23.4 23.4 23.4h78.2c12.9 0 23.4 -10.5 23.4 -23.4zm0 -187.5v-78.2c0 -12.9 -10.5 -23.4 -23.4 -23.4h-78.2c-12.9 0 -23.4 10.5 -23.4 23.4v78.2c0 12.9 10.5 23.4 23.4 23.4h78.2c12.9 0 23.4 -10.5 23.4 -23.4zm0 -187.5v-78.2C625 135.5 614.5 125 601.6 125h-78.2c-12.9 0 -23.4 10.5 -23.4 23.4v78.2c0 12.9 10.5 23.4 23.4 23.4h78.2c12.9 0 23.4 -10.5 23.4 -23.4z"/></svg>