<svg height="1000" width="968.8" xmlns="http://www.w3.org/2000/svg"><path d="M484.4 15.6c267.5 0 484.4 216.9 484.4 484.4S751.9 984.4 484.4 984.4 0 767.5 0 500 216.9 15.6 484.4 15.6zm0 843.8C683 859.4 843.8 698.6 843.8 500 843.8 301.3 683 140.6 484.4 140.6 285.7 140.6 125 301.4 125 500c0 198.7 160.8 359.4 359.4 359.4zm0 -609.4c138 0 250 111.9 250 250s-112 250 -250 250 -250 -111.9 -250 -250 111.9 -250 250 -250zm0 375c68.9 0 125 -56.1 125 -125S553.3 375 484.4 375s-125 56.1 -125 125 56 125 125 125z"/></svg>