<svg height="1000" width="1125" xmlns="http://www.w3.org/2000/svg"><path d="M1125 468.8c0 46.1 -25.3 86 -62.5 107.6V875c0 18 -13.8 62.5 -62.5 62.5 -12.1 0 -29.6 -6.2 -39 -13.7L794.9 790.9C711.5 724.2 606.8 687.5 500 687.5h-54.8c-5.5 19.9 -8.7 40.8 -8.7 62.5 0 56.8 19.1 109.2 51.1 151.3 30.9 40.4 .3 98.7 -50.6 98.7H292c-23.3 0 -45.4 -12.4 -55.5 -33.3C204.6 901.1 186.6 827.7 186.6 750c0 -21.2 1.5 -42 4.2 -62.5H125c-69 0 -125 -56 -125 -125V375C0 306 56 250 125 250h375c106.8 0 211.5 -36.7 294.9 -103.4L961 13.7C972.3 4.6 986.1 0 1000 0c48.9 0 62.5 45.4 62.5 62.5v298.6c37.2 21.6 62.5 61.5 62.5 107.7zM937.5 745V192.5l-64.6 51.7C767.5 328.6 635 375 500 375v187.5c135 0 267.5 46.4 372.9 130.8z"/></svg>