<svg height="1000" width="875" xmlns="http://www.w3.org/2000/svg"><path d="M0 62.5h250v250H0v-250zm234.4 234.4V78.1H15.6v218.8h218.8zM312.5 62.5h250v250h-250v-250zm234.4 234.4V78.1H328.1v218.8h218.8zM625 62.5h250v250H625v-250zm234.4 234.4V78.1H640.6v218.8h218.8zM0 375h250v250H0V375zm234.4 234.4V390.6H15.6v218.8h218.8zM312.5 375h250v250h-250V375zm234.4 234.4V390.6H328.1v218.8h218.8zM625 375h250v250H625V375zm234.4 234.4V390.6H640.6v218.8h218.8zM0 687.5h250v250H0v-250zm234.4 234.4V703.1H15.6v218.8h218.8zm78.1 -234.4h250v250h-250v-250zm234.4 234.4V703.1H328.1v218.8h218.8zM625 687.5h250v250H625v-250z"/></svg>