<svg height="1000" width="1000" xmlns="http://www.w3.org/2000/svg"><path d="M953.1 250c25.9 0 46.9 21 46.9 46.9v156.2c0 25.9 -21 46.9 -46.9 46.9h-15.6v325c0 25 -18.7 50 -50 50H875v62.5c0 34.5 -28 62.5 -62.5 62.5H750c-34.5 0 -62.5 -28 -62.5 -62.5V875h-375v62.5c0 34.5 -28 62.5 -62.5 62.5h-62.5C153 1000 125 972 125 937.5V875C90.5 875 62.5 847 62.5 812.5V500H46.9C21 500 0 479 0 453.1V296.9C0 271 21 250 46.9 250h15.6v-93.8C62.5 68.7 256.3 0 500 0s437.5 68.7 437.5 156.2V250h15.6zM218.8 781.3c34.5 0 62.5 -28 62.5 -62.5s-28 -62.5 -62.5 -62.5 -62.5 27.9 -62.5 62.5 27.9 62.5 62.5 62.5zM250 562.5h500c34.5 0 62.5 -28 62.5 -62.5V250c0 -34.5 -28 -62.5 -62.5 -62.5H250c-34.5 0 -62.5 28 -62.5 62.5v250c0 34.5 28 62.5 62.5 62.5zm531.3 218.8c34.5 0 62.5 -28 62.5 -62.5s-28 -62.5 -62.5 -62.5 -62.5 27.9 -62.5 62.5 27.9 62.5 62.5 62.5z"/></svg>