<svg height="1000" width="1250" xmlns="http://www.w3.org/2000/svg"><path d="M968.8 437.5c155.4 0 281.2 125.8 281.2 281.3S1124.2 1000 968.8 1000 687.5 874.2 687.5 718.8 813.3 437.5 968.8 437.5zm125 293.5v-24.5c0 -10.5 -8.6 -19 -19 -19H1000v-106c0 -10.4 -8.5 -19 -19 -19h-24.5c-10.4 0 -19 8.6 -19 19V731c0 10.5 8.6 19 19 19h118.3c10.4 0 19 -8.5 19 -19zm-125 -356c-73.4 0 -141.2 23.3 -197.1 62.5H0V281.3c0 -50 43.8 -93.8 93.8 -93.8H250V93.8C250 43.8 293.8 0 343.8 0h312.5C706.2 0 750 43.8 750 93.8v93.7h156.3c49.9 0 93.7 43.8 93.7 93.8v95.3c-10.3 -1 -20.7 -1.6 -31.2 -1.6zM625 187.5V125H375v62.5h250zM638.3 625c-8.5 29.8 -13.3 61.2 -13.3 93.8C625 775 638.9 828 662.9 875H93.7C43.7 875 0 831.2 0 781.3V500h375v93.8c0 17.2 14 31.2 31.2 31.2h232.1z"/></svg>