<svg height="1000" width="1125" xmlns="http://www.w3.org/2000/svg"><path d="M562.5 62.5c302.2 0 547.3 195.9 547.3 437.5S864.7 937.5 562.5 937.5 15.2 741.6 15.2 500 260.3 62.5 562.5 62.5zM395.7 760.1C515.9 759 590 712.6 625.6 640 555.7 627.4 502.7 567.1 502.7 494.6c0 -81.6 67.1 -147.8 149.8 -147.8h.1c9.3 0 24.4 1.7 33.5 3.8 1 -3.7 2.3 -9.7 2.9 -13.4C702.6 250.9 660 194.9 536.7 194.9H276.1L125.2 762.8zM699.2 404.5l-18.4 71.8 -29.3 -71.8h-61.2l-52.1 176.4h73.9l15.3 -69.6 21.9 69.6h69.1l43.3 -176.4h-62.5zm284.9 355.6L1025.5 596H822.6L926.2 194.9H745.6l-41.7 160.8c57.4 20.7 98.4 75 98.4 138.8 0 81.6 -67.1 147.7 -149.8 147.7h-.1c-6.2 0 -16.1 -.7 -22.3 -1.6l-30.9 119.5h384.9zM413.5 526.2c31.5 0 58 14.6 47.1 58.2 -11.4 45.8 -42.6 52 -74.1 52h-48.2l26.9 -110.2h48.3zM455.1 332c35.3 0 62.9 -2.5 53.8 34.3 -7.4 30.3 -41.4 58.9 -76.5 58.9h-41.8L413.4 332h41.7z"/></svg>