<svg height="1000" width="875" xmlns="http://www.w3.org/2000/svg"><path d="M781.3 0C831.2 0 875 43.8 875 93.8v812.5c0 49.9 -43.8 93.7 -93.7 93.7H93.8C43.8 1000 0 956.2 0 906.3V93.8C0 43.8 43.8 0 93.8 0h687.5zM250 850v-75c0 -12.5 -12.5 -25 -25 -25h-75c-12.5 0 -25 12.5 -25 25v75c0 12.5 12.5 25 25 25h75c12.5 0 25 -12.5 25 -25zm0 -250v-75c0 -12.5 -12.5 -25 -25 -25h-75c-12.5 0 -25 12.5 -25 25v75c0 12.5 12.5 25 25 25h75c12.5 0 25 -12.5 25 -25zm250 250v-75c0 -12.5 -12.5 -25 -25 -25h-75c-12.5 0 -25 12.5 -25 25v75c0 12.5 12.5 25 25 25h75c12.5 0 25 -12.5 25 -25zm0 -250v-75c0 -12.5 -12.5 -25 -25 -25h-75c-12.5 0 -25 12.5 -25 25v75c0 12.5 12.5 25 25 25h75c12.5 0 25 -12.5 25 -25zm250 250V525c0 -12.5 -12.5 -25 -25 -25h-75c-12.5 0 -25 12.5 -25 25v325c0 12.5 12.5 25 25 25h75c12.5 0 25 -12.5 25 -25zm0 -500V150c0 -12.5 -12.5 -25 -25 -25H150c-12.5 0 -25 12.5 -25 25v200c0 12.5 12.5 25 25 25h575c12.5 0 25 -12.5 25 -25z"/></svg>