<svg height="1000" width="875" xmlns="http://www.w3.org/2000/svg"><path d="M0 906.3V375h875v531.3c0 51.7 -42 93.7 -93.7 93.7H93.8C42 1000 0 958 0 906.3zM625 523.4v78.2c0 12.9 10.5 23.4 23.4 23.4h78.2c12.9 0 23.4 -10.5 23.4 -23.4v-78.2C750 510.5 739.5 500 726.6 500h-78.2c-12.9 0 -23.4 10.5 -23.4 23.4zm0 250v78.2c0 12.9 10.5 23.4 23.4 23.4h78.2c12.9 0 23.4 -10.5 23.4 -23.4v-78.2C750 760.5 739.5 750 726.6 750h-78.2c-12.9 0 -23.4 10.5 -23.4 23.4zm-250 -250v78.2c0 12.9 10.5 23.4 23.4 23.4h78.2c12.9 0 23.4 -10.5 23.4 -23.4v-78.2C500 510.5 489.5 500 476.6 500h-78.2c-12.9 0 -23.4 10.5 -23.4 23.4zm0 250v78.2c0 12.9 10.5 23.4 23.4 23.4h78.2c12.9 0 23.4 -10.5 23.4 -23.4v-78.2C500 760.5 489.5 750 476.6 750h-78.2c-12.9 0 -23.4 10.5 -23.4 23.4zm-250 -250v78.2c0 12.9 10.5 23.4 23.4 23.4h78.2c12.9 0 23.4 -10.5 23.4 -23.4v-78.2C250 510.5 239.5 500 226.6 500h-78.2c-12.9 0 -23.4 10.5 -23.4 23.4zm0 250v78.2c0 12.9 10.5 23.4 23.4 23.4h78.2c12.9 0 23.4 -10.5 23.4 -23.4v-78.2C250 760.5 239.5 750 226.6 750h-78.2c-12.9 0 -23.4 10.5 -23.4 23.4zM781.3 125c51.7 0 93.7 42 93.7 93.8v93.7H0v-93.7C0 167 42 125 93.8 125h93.7V31.3C187.5 14.1 201.6 0 218.8 0h62.5c17.1 0 31.2 14.1 31.2 31.3V125h250V31.3C562.5 14.1 576.6 0 593.8 0h62.5c17.1 0 31.2 14.1 31.2 31.3V125h93.8z"/></svg>