<svg height="1000" width="875" xmlns="http://www.w3.org/2000/svg"><path d="M0 906.3V375h875v531.3c0 51.7 -42 93.7 -93.7 93.7H93.8C42 1000 0 958 0 906.3zm125 -375v187.5c0 17.1 14.1 31.2 31.3 31.2h187.5c17.1 0 31.2 -14.1 31.2 -31.2V531.3C375 514.1 360.9 500 343.8 500H156.3c-17.2 0 -31.3 14.1 -31.3 31.3zM781.3 125c51.7 0 93.7 42 93.7 93.8v93.7H0v-93.7C0 167 42 125 93.8 125h93.7V31.3C187.5 14.1 201.6 0 218.8 0h62.5c17.1 0 31.2 14.1 31.2 31.3V125h250V31.3C562.5 14.1 576.6 0 593.8 0h62.5c17.1 0 31.2 14.1 31.2 31.3V125h93.8z"/></svg>