<svg height="1000" width="1000" xmlns="http://www.w3.org/2000/svg"><path d="M93.8 62.5h812.5c51.7 0 93.7 42 93.7 93.8v687.5c0 51.7 -42 93.7 -93.7 93.7H93.8C42 937.5 0 895.5 0 843.8V156.3C0 104.5 42 62.5 93.8 62.5zm0 62.5c-17.2 0 -31.3 14.1 -31.3 31.3v19.5c0 6.4 5.3 11.7 11.7 11.7h226.6c6.4 0 11.7 -5.3 11.7 -11.7v-39.1c0 -6.4 -5.3 -11.7 -11.7 -11.7h-207zm832 187.5c6.4 0 11.7 -5.3 11.7 -11.7V156.3c0 -17.2 -14.1 -31.3 -31.2 -31.3H412.5c-3.9 0 -7.6 2 -9.8 5.3l-59 88.5H74.2c-6.4 0 -11.7 5.2 -11.7 11.7v70.3c0 6.4 5.3 11.7 11.7 11.7h851.6zM500 828.1c129.3 0 234.4 -105.1 234.4 -234.3S629.3 359.4 500 359.4 265.6 464.5 265.6 593.8 370.7 828.1 500 828.1zm0 -406.2c94.7 0 171.9 77.1 171.9 171.9S594.7 765.6 500 765.6 328.1 688.5 328.1 593.8 405.3 421.9 500 421.9zM406.3 625c17.1 0 31.2 -14.1 31.2 -31.2 0 -34.4 28.1 -62.5 62.5 -62.5 17.2 0 31.3 -14.1 31.3 -31.3S517.2 468.8 500 468.8c-68.9 0 -125 56 -125 125 0 17.1 14.1 31.2 31.3 31.2z"/></svg>