<svg height="1000" width="1000" xmlns="http://www.w3.org/2000/svg"><path d="M1000 281.3v562.5c0 51.7 -42 93.7 -93.7 93.7H93.8C42 937.5 0 895.5 0 843.8V281.3c0 -51.8 42 -93.8 93.8 -93.8h171.8l24 -64.3c13.7 -36.5 48.7 -60.7 87.7 -60.7h245.2c39 0 74 24.2 87.7 60.7l24.2 64.3h171.9c51.7 0 93.7 42 93.7 93.8zM734.4 562.5C734.4 433.2 629.3 328.1 500 328.1S265.6 433.2 265.6 562.5 370.7 796.9 500 796.9 734.4 691.8 734.4 562.5zm-62.5 0c0 94.7 -77.2 171.9 -171.9 171.9S328.1 657.2 328.1 562.5 405.3 390.6 500 390.6s171.9 77.2 171.9 171.9z"/></svg>