<svg height="1000" width="1000" xmlns="http://www.w3.org/2000/svg"><path d="M749.6 686.9c-9.8 9.8 -19.5 14.7 -9.8 44s19.6 68.5 19.6 68.5 -186 -39.2 -205.5 -44.1C536.5 753.5 518 760 518 779.7s11.3 220.3 11.3 220.3h-58.6S482 799.2 482 779.7s-18.7 -26.2 -35.7 -24.4c-19.7 4.9 -205.7 44.1 -205.7 44.1s9.8 -39.2 19.8 -68.5c9.5 -29.3 0 -34.2 -10 -44C245.3 682 44.9 506.4 44.9 506.4l34.2 -14.8c19.5 -9.6 14.5 -22.3 9.8 -34C84 442.8 49.6 326.2 49.6 326.2s93 19.5 112.7 24.4c14.7 4.7 19.5 -4.9 24.4 -14.7s29.3 -63 29.3 -63 102.8 116.7 107.6 121.6c19.8 14.7 39.3 0 34.4 -19.5 0 -19.5 -53.9 -253.1 -53.9 -253.1s58.8 34 78.3 43.7c14.9 9.8 24.6 9.8 34.4 -9.7C426.6 141.2 499.8 0 499.8 0s73.4 141.2 83.4 155.9c9.8 19.5 19.7 19.5 34.4 9.7 19.5 -9.7 78.3 -43.7 78.3 -43.7S642 355.5 642 375c-4.9 19.5 14.8 34.2 34.4 19.5C681.3 389.8 784 272.9 784 272.9s24.4 53.5 29.3 63.2 9.7 19.4 24.4 14.7c19.5 -4.9 112.7 -24.4 112.7 -24.4S915.8 443 911.1 457.8c-4.7 11.5 -9.7 24.4 9.8 34l34.2 14.6S754.5 682 749.6 686.9z"/></svg>