<svg height="1000" width="1000" xmlns="http://www.w3.org/2000/svg"><path d="M971.7 179.7c69.7 147.4 5.4 324.4 -134.6 408.2L158.8 991.2c-10.2 5.9 -21.1 8.8 -32 8.8 -21.3 0 -42 -10.9 -53.8 -30.5L9 862.3C-8.8 832.6 .8 794.3 30.5 776.6L721.1 366.2c29.5 -17.8 39.3 -56.2 21.5 -85.7C730.9 260.9 710.2 250 688.9 250c-11 0 -22.1 2.7 -32.1 8.8l-53.7 32c-10.1 5.9 -21.1 8.8 -32 8.8 -21.3 0 -42 -10.9 -53.7 -30.5L453.3 161.9c-17.8 -29.7 -8.2 -68 21.5 -85.7l53.7 -32.1C578.5 14.3 633.8 0 688.3 0c116 0 228.9 64.6 283.4 179.7zm-347.1 25.4c16.6 -10 35.4 -14.9 54.5 -16.4L638.9 68c-20.5 4.1 -40.3 10.7 -59.2 19.9l40 120.1zM285 843.4l60.1 -35.8L227 732.4l-60.2 35.8zM494.9 718.6l60.2 -35.8L436.9 607.6l-60.1 35.8zM711.5 589.8l60.2 -35.7L653.5 478.9l-60.1 35.7zm39.9 -385.3c17.9 10.5 33.6 25.4 44.7 43.5l89.3 -89.2c-12.9 -16.6 -27.8 -31.5 -44.2 -44.2zM911.7 415c9 -19.1 15.6 -39 19.7 -59.3L813.5 316.4c-.2 8.8 -1.4 17.8 -3.5 26.6 -3.2 12.1 -8.2 23 -14.5 33.4z"/></svg>