<svg height="1000" width="1000" xmlns="http://www.w3.org/2000/svg"><path d="M983.3 703.6c10.3 5.4 16.7 16 16.7 27.7 0 11.5 -6.4 22.2 -16.6 27.6 -4.8 2.5 -118.7 61.9 -260.7 61.9 -12 0 -23.4 -.2 -34.2 -.6 22.2 43.5 32.2 74.9 32.8 76.6 3.5 11.1 .6 23.3 -7.6 31.5 -5.1 5.1 -15 9.2 -22.2 9.2 -2.6 0 -6.8 -.6 -9.3 -1.4C678.7 935 608.6 912.7 531.3 859.4v125c0 8.6 -7 15.6 -15.7 15.6h-31.2c-8.7 0 -15.6 -7 -15.6 -15.6V859.3c-77.4 53.4 -147.5 75.7 -151 76.8 -2.5 .8 -6.7 1.4 -9.3 1.4 -7.2 0 -17.1 -4.1 -22.2 -9.2a31.349 31.349 0 0 1 -7.6 -31.5c.6 -1.8 10.6 -33.2 32.8 -76.6 -10.8 .4 -22.2 .6 -34.2 .6 -142 0 -255.9 -59.4 -260.7 -61.9C7.4 754 0 741.6 0 731.3c0 -10.4 7.5 -22.8 16.7 -27.7 3 -1.6 63.2 -33 149.9 -50.4C41.1 506.5 2.5 337.4 .7 329.7 .3 327.8 0 324.8 0 322.9c0 -7.1 4.1 -17 9.1 -22.1 5.9 -5.9 13.9 -9.1 22.1 -9.1 2.3 0 4.5 .2 6.8 .7 7.5 1.7 169 38.3 313.6 155.8 0 -2.9 0 -5.7 0 -8.6 0 -232 117.1 -417.4 122.1 -425.2C479.4 5.4 489.4 0 500 0c9.4 0 21.2 6.4 26.3 14.4 5 7.8 122.1 193.2 122.1 425.2 0 2.9 0 5.7 0 8.6C793 330.7 954.5 294.1 962 292.4c2.3 -.5 4.5 -.7 6.8 -.7 8.2 0 16.1 3.2 22.1 9.1 7.5 7.6 10.7 18.5 8.4 28.9 -1.8 7.7 -40.4 176.8 -165.9 323.5 86.7 17.4 146.9 48.8 149.9 50.4z"/></svg>