<svg height="1000" width="1000" xmlns="http://www.w3.org/2000/svg"><path d="M976.5 343.8c15.3 0 26.5 14.3 22.8 29.1l-11.7 46.8c-2.6 10.5 -12 17.8 -22.8 17.8h-39.2c26.3 22.9 43.1 56.2 43.1 93.8V625c0 31.5 -12 59.9 -31.2 81.9v105.6c0 34.5 -28 62.5 -62.5 62.5h-62.5C778 875 750 847 750 812.5V750H250v62.5C250 847 222 875 187.5 875H125C90.5 875 62.5 847 62.5 812.5V706.9C43.3 684.9 31.2 656.5 31.2 625v-93.7c0 -37.6 16.9 -70.9 43.2 -93.8H35.2c-10.8 0 -20.2 -7.3 -22.8 -17.8L.7 372.9C-3 358.1 8.2 343.8 23.5 343.8h116.9l32.5 -81.3C206.3 179 286 125 376 125h248c90 0 169.7 54 203.1 137.5l32.5 81.3h116.9zM288.9 308.9L250 406.3h500l-38.9 -97.4C696.8 273.3 662.4 250 624 250H376c-38.4 0 -72.8 23.3 -87.1 58.9zM187.5 624.6c37.5 0 93.8 6.2 93.8 -31.1C281.3 556.1 225 500 187.5 500S125 524.9 125 562.3s25 62.3 62.5 62.3zm625 0c37.5 0 62.5 -24.9 62.5 -62.3S850 500 812.5 500s-93.7 56.1 -93.7 93.5c0 37.3 56.2 31.1 93.7 31.1z"/></svg>