<svg height="1000" width="937.5" xmlns="http://www.w3.org/2000/svg"><path d="M856.8 414.7c47.1 17.9 80.7 63.2 80.7 116.5V625c0 31.5 -12 59.9 -31.3 81.9v105.6c0 34.5 -27.9 62.5 -62.5 62.5h-62.5c-34.5 0 -62.5 -28 -62.5 -62.5V750h-500v62.5c0 34.5 -27.9 62.5 -62.5 62.5H93.7C59.2 875 31.2 847 31.2 812.5V706.9C12 684.9 0 656.5 0 625v-93.8C0 477.9 33.6 432.6 80.7 414.7l22 -54.9 38.9 -97.3C175 179 254.8 125 344.7 125h248.1c90 0 169.7 54 203.1 137.5l38.9 97.3zM257.7 308.9l-38.9 97.4h500l-39 -97.4C665.6 273.3 631.1 250 592.8 250H344.7c-38.3 0 -72.8 23.3 -87 58.9zM156.3 624.6c37.5 0 93.7 6.2 93.7 -31.1C250 556.1 193.8 500 156.3 500s-62.5 24.9 -62.5 62.3 24.9 62.3 62.5 62.3zm625 0c37.5 0 62.5 -24.9 62.5 -62.3S818.8 500 781.3 500s-93.8 56.1 -93.8 93.5c0 37.3 56.2 31.1 93.8 31.1z"/></svg>