<svg height="1000" width="1000" xmlns="http://www.w3.org/2000/svg"><path d="M937.5 250c34.5 0 62.5 28 62.5 62.5v500c0 34.5 -28 62.5 -62.5 62.5h-875C28 875 0 847 0 812.5v-500C0 278 28 250 62.5 250H125v-93.7C125 139 139 125 156.3 125h187.5c17.2 0 31.2 14 31.2 31.3V250h250v-93.7C625 139 639 125 656.3 125h187.5c17.2 0 31.2 14 31.2 31.3V250h62.5zM375 515.6v-31.2c0 -8.7 -7 -15.6 -15.6 -15.6H140.6c-8.6 0 -15.6 6.9 -15.6 15.6v31.2c0 8.7 7 15.7 15.6 15.7h218.8c8.6 0 15.6 -7 15.6 -15.7zm500 0v-31.2c0 -8.7 -7 -15.6 -15.6 -15.6h-78.1v-78.2c0 -8.6 -7 -15.6 -15.7 -15.6h-31.2c-8.7 0 -15.6 7 -15.6 15.6v78.2h-78.2c-8.6 0 -15.6 6.9 -15.6 15.6v31.2c0 8.7 7 15.7 15.6 15.7h78.2v78.1c0 8.6 6.9 15.6 15.6 15.6h31.2c8.7 0 15.7 -7 15.7 -15.6v-78.1h78.1c8.6 0 15.6 -7 15.6 -15.7z"/></svg>