<svg height="1000" width="1250" xmlns="http://www.w3.org/2000/svg"><path d="M1062.5 375c103.6 0 187.5 83.9 187.5 187.5v156.3c0 17.2 -14 31.2 -31.2 31.2H1125c0 103.6 -83.9 187.5 -187.5 187.5S750 853.6 750 750H500c0 103.6 -83.9 187.5 -187.5 187.5S125 853.6 125 750H31.3C14 750 0 736 0 718.8V500C0 441.8 39.9 393.4 93.8 379.4l93.5 -238.3c19 -47.5 65 -78.6 116.1 -78.6h417.8c33.1 0 76.9 21 97.6 46.9L1031.2 375h31.3zm-750 468.8c51.7 0 93.8 -42.1 93.8 -93.8s-42.1 -93.7 -93.8 -93.7 -93.7 42 -93.7 93.7 42 93.8 93.7 93.8zM453.1 375V187.5H303.4l-75 187.5h224.7zm93.8 0h324.3l-150 -187.5H546.9V375zm390.6 468.8c51.7 0 93.8 -42.1 93.8 -93.8s-42.1 -93.7 -93.8 -93.7 -93.7 42 -93.7 93.7 42 93.8 93.7 93.8z"/></svg>