<svg height="1000" width="1250" xmlns="http://www.w3.org/2000/svg"><path d="M812.5 406.3c17.3 0 31.3 13.9 31.3 31.2s-14 31.3 -31.3 31.3 -31.2 -14 -31.2 -31.3 13.9 -31.2 31.2 -31.2zM1218.8 625c17.2 0 31.2 14 31.2 31.3v62.5c0 17.2 -14 31.2 -31.2 31.2H562.5c0 103.5 -84 187.5 -187.5 187.5S187.5 853.5 187.5 750H125C56 750 0 694 0 625V125C0 56 56 0 125 0h687.5C985 0 1125 140 1125 312.5V625h93.8zM375 843.8c51.7 -.1 93.7 -42.1 93.8 -93.8 0 -51.8 -42 -93.7 -93.8 -93.7s-93.7 41.9 -93.7 93.7 41.9 93.8 93.7 93.8zM500 375V250c0 -34.5 -28 -62.5 -62.5 -62.5h-250c-34.5 0 -62.5 28 -62.5 62.5v125c0 34.5 28 62.5 62.5 62.5h250c34.5 0 62.5 -28 62.5 -62.5zm375 250V250c0 -34.5 -28 -62.5 -62.5 -62.5h-125c-34.5 0 -62.5 28 -62.5 62.5v375h250z"/></svg>