<svg height="1000" width="1000" xmlns="http://www.w3.org/2000/svg"><path d="M582.4 305.9C702.9 364.6 752.9 510 694.1 630.5 669.5 680.9 629.5 719.1 582.6 742l-199.2 97.3L272.1 727.9c-12.1 -12.1 -31.9 -12.1 -44.2 0s-12.3 32.1 0 44.2l96.1 96.1L63.1 995.5C41.4 1006.1 15 997.1 4.5 975.4c-6.1 -12.5 -5.7 -26.8 0 -38.5L254.7 423.8l98 98.1c6.1 6 14.1 9.2 22.1 9.2 8 0 16 -3.2 22.1 -9.2 12.3 -12.1 12.3 -31.9 0 -44.2L289.1 369.9c69.7 -84.5 190.4 -114.2 293.3 -64zm179.9 -68.2c79.5 -38.1 173.4 -18.4 237.7 59.2 -81.2 98.2 -210 102.5 -296.7 15.4l-15.6 -15.6C600.6 210 604.9 81.4 703.1 0c77.6 64.3 97.3 158.2 59.2 237.7z"/></svg>