<svg height="1000" width="1125" xmlns="http://www.w3.org/2000/svg"><path d="M985.8 625H413.2l12.8 62.5h524.3c30 0 52.3 27.9 45.7 57.3l-10.8 47.4c36.5 17.7 61.7 55.1 61.7 98.4 0 61 -49.9 110.3 -111 109.4C877.6 999.2 829.7 951.9 828.2 893.6c-.9 -31.8 11.9 -60.6 32.8 -81.1H451.5c20.3 19.9 32.9 47.5 32.9 78.1 0 62.2 -51.8 112.2 -114.6 109.3C314 997.3 268.7 952.3 265.8 896.5c-2.3 -43 20.4 -80.9 54.8 -100.7L183.4 125H46.9C21 125 0 104 0 78.1V46.9C0 21 21 0 46.9 0h200.2c22.3 0 41.5 15.7 46 37.5L311 125h767.1c30.1 0 52.4 27.9 45.7 57.3l-92.3 406.2c-4.9 21.4 -23.8 36.5 -45.7 36.5zM796.9 328.1h-93.8V250c0 -17.3 -14 -31.2 -31.2 -31.2h-31.3c-17.2 0 -31.2 13.9 -31.2 31.2v78.1h-93.8c-17.2 0 -31.2 14 -31.2 31.3v31.2c0 17.3 14 31.3 31.2 31.3h93.8V500c0 17.3 14 31.3 31.2 31.3h31.3c17.2 0 31.2 -14 31.2 -31.3v-78.1h93.8c17.2 0 31.2 -14 31.2 -31.3v-31.2c0 -17.3 -14 -31.3 -31.2 -31.3z"/></svg>