<svg height="1000" width="1000" xmlns="http://www.w3.org/2000/svg"><path d="M998.2 739.8c1.2 6.9 1.8 13.7 1.6 20.6v177.1c0 34.6 -27.9 62.5 -62.5 62.5h-875C27.7 1000 -.2 972.1 -.2 937.5V760.2c0 -6.9 .6 -13.7 1.8 -20.6L53.7 427.1C58.8 397.1 85 375 115.4 375h165.9V250H93.8C76.6 250 62.5 235.9 62.5 218.8V31.3C62.5 14.1 76.6 0 93.8 0h500C610.9 0 625 14.1 625 31.3v187.6c0 17.2 -14.1 31.3 -31.2 31.3H406.3v125h478.1c30.6 0 56.6 22.1 61.7 52.1zM546.9 484.4v31.2c0 17.2 14 31.3 31.2 31.3h31.3c17.2 0 31.2 -14.1 31.2 -31.3v-31.2c0 -17.2 -14 -31.3 -31.2 -31.3h-31.3c-17.2 0 -31.2 14.1 -31.2 31.3zm-62.5 125c-17.2 0 -31.3 14 -31.3 31.2v31.3c0 17.2 14.1 31.2 31.3 31.2h31.2c17.2 0 31.3 -14 31.3 -31.2v-31.3c0 -17.2 -14.1 -31.2 -31.3 -31.2h-31.2zM421.9 453.1h-31.3c-17.2 0 -31.2 14.1 -31.2 31.3v31.2c0 17.2 14 31.3 31.2 31.3h31.3c17.2 0 31.2 -14.1 31.2 -31.3v-31.2c0 -17.2 -14 -31.3 -31.2 -31.3zM156.3 156.3h375V93.8h-375v62.5zm78.1 390.6c17.2 0 31.2 -14.1 31.2 -31.3v-31.2c0 -17.2 -14 -31.3 -31.2 -31.3h-31.3c-17.2 0 -31.2 14.1 -31.2 31.3v31.2c0 17.2 14 31.3 31.2 31.3h31.3zm31.2 125c0 17.2 14.1 31.2 31.3 31.2h31.2c17.2 0 31.3 -14 31.3 -31.2v-31.3c0 -17.2 -14.1 -31.2 -31.3 -31.2h-31.2c-17.2 0 -31.3 14 -31.3 31.2v31.3zm421.9 218.7v-31.2c0 -8.6 -7 -15.6 -15.6 -15.6H328.1c-8.6 0 -15.6 7 -15.6 15.6v31.2c0 8.6 7 15.7 15.6 15.7h343.8c8.6 0 15.6 -7.1 15.6 -15.7zm46.9 -218.7v-31.3c0 -17.2 -14.1 -31.2 -31.3 -31.2h-31.2c-17.2 0 -31.3 14 -31.3 31.2v31.3c0 17.2 14.1 31.2 31.3 31.2h31.2c17.2 0 31.3 -14 31.3 -31.2zm93.7 -156.3v-31.2c0 -17.2 -14 -31.3 -31.2 -31.3h-31.3c-17.2 0 -31.2 14.1 -31.2 31.3v31.2c0 17.2 14 31.3 31.2 31.3h31.3c17.2 0 31.2 -14.1 31.2 -31.3z"/></svg>