<svg height="1000" width="1000" xmlns="http://www.w3.org/2000/svg"><path d="M567.6 375c23.2 114 124.2 200 244.9 200 21.7 0 42.4 -3.7 62.5 -8.9v402.6c0 17.3 -14 31.3 -31.2 31.3h-62.5C764 1000 750 986 750 968.7V687.5L500 875h62.5c34.5 0 62.5 28 62.5 62.5v31.2c0 17.3 -14 31.3 -31.2 31.3H250c-68.9 0 -125 -56.1 -125 -125V375c0 -34.5 -28 -62.5 -62.5 -62.5S0 284.5 0 250s28 -62.5 62.5 -62.5C165.9 187.5 250 271.6 250 375v167.9C358.9 378.9 528.1 375 567.6 375zM875 187.5l125 -125V325c0 103.6 -83.9 187.5 -187.5 187.5S625 428.6 625 325V62.5l125 125h125zM734.4 343.8c17.2 0 31.2 -14 31.2 -31.3s-14 -31.2 -31.2 -31.2 -31.3 13.9 -31.3 31.2 14 31.3 31.3 31.3zm156.2 0c17.3 0 31.3 -14 31.3 -31.3s-14 -31.2 -31.3 -31.2 -31.2 13.9 -31.2 31.2 14 31.3 31.2 31.3z"/></svg>