<svg height="1000" width="1125" xmlns="http://www.w3.org/2000/svg"><path d="M590.2 426.6c0 33.6 -20.5 52.9 -56.6 52.9h-47.5V373.6h47.7c35.9 0 56.4 19.2 56.4 53zM683 548.8c0 -16.8 13.5 -26.3 39.5 -28.1l45.9 -2.9v15c0 25 -21.1 42.8 -49.3 42.8 -22 0 -36.1 -10.6 -36.1 -26.8zm442 -394.5v687.5c0 51.8 -42 93.7 -93.7 93.7H93.8C42 935.5 0 893.6 0 841.8V154.3C0 102.5 42 60.5 93.8 60.5h937.5c51.7 0 93.7 42 93.7 93.8zM249.6 385.2c16.4 1.3 32.8 -8.2 43.2 -20.4 10.1 -12.5 16.8 -29.3 15 -46.2 -14.4 .5 -32.4 9.5 -42.8 22 -9.3 10.8 -17.3 28.1 -15.4 44.6zM368 530.7c-.4 -.4 -38.3 -14.9 -38.7 -58.6 -.4 -36.6 29.9 -54.1 31.2 -55.1 -17.1 -25.4 -43.7 -28.1 -52.9 -28.7 -23.8 -1.4 -44.1 13.5 -55.5 13.5 -11.5 0 -28.7 -12.9 -47.4 -12.5 -24.4 .3 -47.3 14.2 -59.6 36.3 -25.6 44.1 -6.6 109.4 18.2 145.3 12.1 17.8 26.7 37.3 45.9 36.5 18.1 -.8 25.4 -11.7 47.2 -11.7 22.1 0 28.4 11.7 47.5 11.5 19.9 -.4 32.2 -17.7 44.5 -35.5 13.5 -20.3 19.2 -39.9 19.6 -41zM632.4 426.4c0 -52 -36.1 -87.5 -87.7 -87.5h-100v266.4h41.4v-91h57.3c52.3 0 89 -36 89 -87.9zm175.8 46.3c0 -38.5 -30.9 -63.3 -78.1 -63.3 -44 0 -76.4 25.2 -77.6 59.5h37.3c3.2 -16.4 18.4 -27.1 39.1 -27.1 25.4 0 39.5 11.7 39.5 33.6V490l-51.6 3.2c-48 2.9 -74 22.6 -74 56.8 0 34.6 26.7 57.4 65.2 57.4 26 0 50 -13.1 60.9 -34h.8v32.1H808V472.7h.2zm199.6 -60.8h-42l-48.6 157.4h-.8L867.8 411.9h-43.6l70.1 194 -3.7 11.7c-6.2 19.9 -16.6 27.7 -34.9 27.7 -3.4 0 -9.6 -.4 -12.1 -.6v32.1c2.3 .7 12.7 .9 15.8 .9 40.4 0 59.4 -15.4 76 -62.1z"/></svg>