<svg height="1000" width="1125" xmlns="http://www.w3.org/2000/svg"><path d="M635 327.7c.2 15.7 -8.4 30.7 -22.9 36.6 18.6 6.4 21.5 17.9 21.5 35.9v26.4h-32.4c-.6 -28.9 7 -49.1 -28.9 -49.1h-35.2v49.1h-32V291.2l76.3 .6c26 0 53.6 3.9 53.6 35.9zm-57.5 22.1c11.2 0 21.5 -2.5 21.5 -15.4 0 -12.5 -10.9 -14.5 -20.9 -14.5h-41v29.9h40.4zm-32.6 174.8c30.5 0 54.5 10.6 54.5 44.3 0 54.5 -59.4 45.6 -96.3 45.6l-.2 45.5H440l-39.8 -45 -41.6 45H230.9l.2 -135.4h129.8l40.1 44.5 41 -44.5h102.9zM342.2 631.4L379.3 592l-35 -39.5h-81.4V577h70.9v27.5h-70.9v26.9h79.3zm128.5 16.1V539.1l-49.4 53.5zm73.8 -60.6c11.6 0 20.5 -5.5 20.5 -18 0 -11.9 -8.9 -16.4 -19.9 -16.4h-42v34.4h41.4zm-61.7 -267h-76v24.4h73.9v27.6h-73.9v26.9h76v28H374.4V291.4h108.4v28.5zM1125 498.8h-.4 .4zm-380.1 62.3c-.2 14.9 -8.2 29.9 -23.2 36 17.9 6.4 21.5 18.5 21.5 35.9l-.2 27h-32.5l.2 -22.5c0 -23 -7.4 -27 -28.9 -27h-34.3l-.2 49.5h-32.5l.2 -135.4h77c25.4 0 52.9 4.5 52.9 36.5zm-57 21.9c10.9 0 21.5 -2.5 21.5 -16 0 -12.5 -11 -14.5 -20.9 -14.5h-41V583h40.4zM350.4 426.8h-32.8V320.9l-46.9 105.9h-28.5L195.3 320.9v105.9h-66l-12.5 -29.9H49.4l-12.5 29.9H2L60 291.4h47.8l54.9 128.3V291.4h52.9l42.4 91.8 38.5 -91.8h53.9v135.4zm-289.5 -58h44.4l-22.5 -54zm932.5 310.3c67.9 0 107 4.3 131.8 -11.9v176.5c0 51.8 -42 93.8 -93.8 93.8H93.8C42 937.5 0 895.5 0 843.7V445.9h52c8.2 -19.7 4.2 -10.4 12.5 -29.9H102c8.2 19.5 4.3 10.2 12.5 29.9h103.3v-22.3c4.3 9.8 2.1 4.9 9.9 22.3h57.7c4.6 -10.7 5 -11.3 9.9 -22.3v22.3H560v-49c12.5 0 15.6 -.2 19.1 .4 0 0 -.4 21.3 .2 48.4h129.9v-17.4c14.4 11.5 34 17.4 58 17.4h52.3c8.2 -19.7 4.3 -10.3 12.5 -29.9h37.1c12.7 29.3 .4 1 12.9 29.9h103.2v-42.8c23 38.5 15.2 25.2 25.7 42.8h81.3V266h-77.9v36C990.4 262.5 1002 281.6 992.4 266h-84.6v40.2c-12.1 -28.5 -9 -21 -17.2 -40.2h-63.3c-.7 0 -4.4 .4 -4.4 -.6h-54c-25 0 -45.1 6.3 -59.9 18.2v-18.2h-77.9v10.4C610 263.9 590.6 265.8 505.3 265.4c-.2 0 -22.7 -.2 -22.7 0H281.4c-4.8 11.9 -13.2 32.1 -24.6 58.6 -5.4 -11.7 -21.4 -46.5 -27.1 -58.6h-89.9v41.2c-14.4 -33.9 -9.1 -21.4 -17.5 -41.2H44.7C38.1 280.9 18 327.9 -.4 370.7V156.2c0 -51.7 42 -93.7 93.8 -93.7h937.5c51.7 0 93.7 42 93.7 93.7v342.6c-73.6 -.4 -85.9 -1.7 -106 9.8v-9.8c-88.5 0 -104.5 -3.3 -126.8 10.2v-10.2H739.1v10c-22.3 -12.7 -41.8 -10 -147.9 -10v11c-12.3 -7.3 -28.3 -11 -47.4 -11H430.5c-6.9 7.4 -24.4 26.8 -30.7 33.6C375 504.9 379.3 509.8 369.5 498.8H207.2v180.3h160.2c6.4 -6.8 25.2 -27.1 31.4 -34 24.8 27.9 20.1 22.9 30.1 34h95.5c0 -28.7 .2 -16.2 .2 -44.9 22.5 .4 47.5 -.4 67 -12.1 0 27.1 -.2 33.4 -.2 57h77.4c0 -36.1 .1 -14.5 .1 -49.4 12.2 0 15.1 0 18.4 .2 .2 2.5 0 0 0 49.2 298.4 0 285 2.1 306.1 -8.8v8.8zm70.9 -126c-9 0 -18 1.4 -18 12.7 0 23.8 56.2 -.6 76.7 26.4v50.4c-9.5 13.8 -27.5 17.4 -43.9 17.4h-62.5l.2 -28.9h62.5c8 0 16.4 -2.6 16.4 -12.5 0 -28.6 -83.4 10.9 -83.4 -53.6 0 -27.5 21.5 -40.4 46.5 -40.4h64.2v28.5h-58.7zm-111.4 77.8c8 0 17 -2 17.2 -12.5 0 -29.1 -83.4 10.9 -83.4 -53.6 0 -27.5 20.9 -40.4 45.9 -40.4h64.9v28.5h-59.4c-8.4 0 -18 1.6 -18 12.5 0 29.5 83.8 -13.4 83.8 51.4 0 32 -22.3 43 -51.2 43h-62.9l.2 -28.9h62.9zm-82.4 -78.4h-75.2V577h73.8v27.5h-74v26.9l75.4 .6 -.2 28H762.5l.2 -135.4h107.8v27.9zm-110 -211.1c.6 -.6 3.4 -1.9 14.3 -1.9 2 0 3.9 .1 6.1 .1l-14.3 33.1c-4.5 0 -6.2 -.8 -6.6 -1 -.4 -.4 -2.2 -3.7 -2.2 -15.4 0 -10.6 2.2 -14.5 2.7 -14.9zm39.9 -20.5h-.2 .2zm-31.6 -29.7h31.4v29.7c-34 -.6 -64.7 -8 -64.7 38.5 0 23 5.5 38.8 31.5 38.8h14.4l45.9 -106.4h48.5l54.5 127.7V291.8h49.4l56.8 93.9v-93.9h33v134.8h-46.1L962.5 325.2v101.4h-65.8l-12.9 -29.9h-67l-12.5 29.9h-37.5c-44.5 0 -64.5 -23.1 -64.5 -66.4 0 -45.6 20.6 -69 66.5 -69zm82.2 23.6l-22.7 53.9h44.6zM653.5 291.4h33v135.4h-33V291.4z"/></svg>