<svg height="1000" width="1125" xmlns="http://www.w3.org/2000/svg"><path d="M243.6 394.1c.1 -23 0 -45.9 0 -68.9v-68.9c0 -2.6 .7 -4 2.7 -5.3 22.4 -15.6 47.1 -23.7 74.6 -21.7 24.4 1.8 44.3 13.7 54.9 42.4 6.4 17.4 8 35.5 8 54.1 0 17 -1.4 33.8 -6.7 50C366 410.5 340.6 424 307.4 422.5c-22.8 -1 -42.8 -9.8 -61.3 -22.9 -1.8 -1.6 -2.7 -3.1 -2.5 -5.5zm302.5 28.6c-10.2 -3.9 -17.2 -11.2 -20.3 -21.9 -3.3 -10.6 -3.3 -21.1 -.2 -31.7 3.9 -13.4 13.7 -21.3 26.7 -25.5 13.3 -4.3 27 -4.9 40.7 -3.8 13.6 1.4 27.1 3.9 40.8 5.7 2.7 .4 3.5 1.6 3.5 4.3 -.2 7.8 0 15.6 0 23.4 0 7.7 -.2 15.5 0 23.1 0 2.3 -.8 3.7 -2.5 4.9 -18.4 13.3 -38.5 22 -61.2 24.4 -9.3 1 -18.5 .6 -27.5 -2.9zM1125 156.3v687.5c0 51.7 -42 93.7 -93.7 93.7H93.8C42 937.5 0 895.5 0 843.8V156.3C0 104.5 42 62.5 93.8 62.5h937.5c51.7 0 93.7 42 93.7 93.8zm-405.3 46.6c.8 3.3 1.8 6.7 3.2 10 32.2 79.3 64.2 158.8 96.6 238.1 2.8 6.8 3.4 12.5 .4 19.3 -5.4 12.1 -9.5 24.6 -15.2 36.5 -5.1 10.8 -13.1 18.6 -24.8 21.9 -8.2 2.2 -16.6 2.5 -25.2 1.8 -4.1 -.4 -8.2 -1.4 -12.3 -1.6 -5.5 -.4 -8.2 2.2 -8.4 7.8 -.2 5.5 -.2 11 0 16.2 .2 9 3.1 13.1 12.1 14.7 9.2 1.5 18.4 3.1 27.7 3.3 28 .6 50.2 -10.5 64.7 -35 5.6 -9.5 10.9 -19.7 15 -30C892.2 408 930.7 310 969.1 211.9c1.2 -2.9 2.2 -5.8 2.6 -9 .8 -4.7 -1.4 -7 -6.1 -7.2 -10.9 -.2 -21.7 0 -32.6 0 -6 0 -10.3 2.7 -12.5 8.4 -.8 2.1 -1.7 4.5 -2.5 6.6l-56.9 163.5c-4.1 11.9 -8.2 23.7 -12.7 36.3 -.7 -1.7 -1.1 -2.7 -1.5 -3.7 -21.1 -58.4 -42.2 -117 -63.3 -175.4 -3.3 -9.1 -6.8 -18.5 -10.4 -27.7 -1.7 -4.9 -5.2 -7.8 -10.5 -7.8 -12.5 -.2 -25 -.4 -37.5 -.2 -4.3 0 -6.4 3.1 -5.5 7.2zM473.4 402.3c3.4 22.9 14.9 40.7 35.2 52 19.3 10.7 40.4 12.1 61.9 9 24.8 -3.7 46.7 -14.3 66 -30.3 .8 -.6 1.6 -1.2 2.8 -1.9 .9 6.2 1.7 12.1 2.9 17.9 1 5.1 4.1 8.4 8.8 8.6 9 .2 17.8 .2 26.7 0 4.5 -.2 7.5 -3.1 7.8 -7.6 .2 -1.6 .2 -3.1 .2 -4.5V272.1c0 -7.1 -.3 -14.1 -1.3 -21.1 -3.2 -21.1 -12.1 -38.5 -31.1 -49.6 -10.9 -6.5 -23 -9.8 -35.5 -11.6 -5.9 -.7 -11.7 -1.3 -17.8 -2.1h-19.5c-1.6 .2 -3.2 .6 -4.9 .6 -16 .8 -31.9 2.7 -47.3 6.8 -9.9 2.6 -19.5 6.3 -29.3 9.6 -5.8 1.9 -8.8 6.2 -8.6 12.7 .2 5.5 -.2 10.9 0 16.2 .2 8 3.5 10.1 11.2 8 12.7 -3.3 25.5 -6.8 38.4 -9.4 20.2 -3.7 40.5 -5.2 60.8 -2.3 10.5 1.5 20.5 4.7 27.5 13.7 6.1 7.8 8.2 17.1 8.6 26.7 .6 13.5 .4 27.2 .6 40.6 0 .8 -.2 1.4 -.4 2.4 -.8 0 -1.6 0 -2.1 -.2 -17.2 -4.1 -34.6 -7 -52.4 -8 -18.5 -1 -36.9 .2 -54.5 6.2 -21.1 7.5 -38.1 20.1 -48 40.7 -8 16.2 -9 33.2 -6.7 50.3zM192.8 208.8v342.4c0 1.5 0 3.3 .2 4.9 .4 4.8 3.3 8 8 8.2 11.5 .2 23 .2 34.5 0 4.9 0 7.9 -3.4 8.1 -8.1 .1 -1.5 .1 -3.3 .1 -4.8V432.8c1.8 1.4 2.8 2.4 3.8 3.1 29.3 24.5 62.9 32.5 99.8 25.2 33.4 -6.6 56.4 -27.1 71.6 -57 11.4 -22.7 16.3 -47.1 17 -72.3 1 -27.9 -1.9 -55.4 -13.2 -81.4 -13.9 -32 -37 -53.3 -71.7 -60.4 -5.3 -1.1 -10.8 -1.5 -16 -2.3h-13.7c-2.4 .4 -4.7 .6 -7 1 -22.9 2.7 -43.6 11.3 -62.2 24.8 -3.9 2.7 -7.6 5.8 -11.5 8.8 -.2 -1 -.6 -1.6 -.8 -2.4 -.7 -4.5 -1.3 -9 -2.1 -13.5 -1.2 -7.6 -4.9 -10.7 -12.5 -10.9h-19c-11.5 -.2 -13.4 2 -13.4 13.3zm771.3 453.3c-5.3 -1.4 -10 0 -14.9 2C863.5 700 774.4 723 682 734c-28.3 3.3 -56.8 5.5 -85.3 6.2 -52 1.4 -103.9 -1.5 -155.5 -8.4 -34.8 -4.7 -69.3 -11.1 -103.5 -19.3 -72.3 -17.4 -142 -42.4 -208.4 -75.8 -17.2 -8.6 -34 -18.1 -51 -27.3 -7.4 -4.1 -12.1 -3 -16 4.1v3.3c2.3 3.1 4.3 6.6 7.2 9.4 70.3 62.9 149.6 110.3 238.3 142.4 42.8 15.4 86.7 26.7 131.5 34.1 27.3 4.5 54.6 7.5 82.4 8.8 5.8 .2 11.7 .4 17.6 .8 1.3 0 2.7 .4 4.1 .6h34.5c1.4 -.2 2.8 -.6 4.1 -.6 29.1 -.8 58.2 -3.5 87.1 -7.8C710.9 798.2 752 788.7 792 775.8 849.8 757 904.7 732 954.9 697.5c5.5 -3.7 11.1 -7.5 15.6 -12.1 8.4 -8.6 4.5 -20.4 -6.4 -23.3zm98.4 -54.1c-1.6 -8.2 -7.8 -11.3 -14.8 -13.7 -11.2 -3.7 -22.7 -5.4 -34.4 -6.4 -21.5 -1.8 -43 -.8 -64.1 3.1 -23.4 4.3 -45.7 11.9 -65.4 25.6 -2.4 1.6 -4.7 3.5 -6.1 5.9 -1.1 1.7 -1.3 4.5 -.9 6.6 .5 2.5 3.3 3.1 5.8 2.9 1.2 0 2.4 0 3.5 -.2l38.1 -4.1c18.8 -1.7 37.5 -2.9 56.3 -1.5 8 .6 15.8 2.3 23.4 4.3 8.4 2.1 12.1 8.6 12.5 17 .6 13 -2.3 25.5 -5.7 38 -6.8 25.2 -16.2 49.7 -25.9 73.9 -.6 1.5 -1.4 3.3 -1.6 4.9 -.8 4.8 2 7.8 6.6 6.8 2.8 -.6 5.9 -2.2 7.9 -4.1 7.2 -7 14.6 -14.1 20.7 -21.9 20.9 -26.9 33.2 -57.8 40.4 -91 1.4 -5.9 2.3 -11.9 3.3 -17.8 .4 -9.2 .4 -18.7 .4 -28.3z"/></svg>