<svg height="1000" width="1125" xmlns="http://www.w3.org/2000/svg"><path d="M468.2 156.1c189.8 0 343.3 153.5 343.3 343.3 0 189.3 -153.5 343.4 -343.3 343.4C278.9 842.8 124.8 688.7 124.8 499.4c0 -189.8 154.1 -343.3 343.4 -343.3zm-78 546v-406C308.8 327.7 250.8 406.8 250.8 499.4c0 92.6 58 171.7 139.4 202.8zm155.9 .6C627.5 671.1 685.5 592 685.5 499.4c0 -92.6 -58 -171.7 -139.4 -203.3v406.6zM1031.3 62.5c51.7 0 93.7 42 93.7 93.8v687.5c0 51.7 -42 93.7 -93.7 93.7H93.8C42 937.5 0 895.5 0 843.8V156.3C0 104.5 42 62.5 93.8 62.5h937.5zM643.9 875c205.1 0 392 -167 392 -371.5C1035.9 279.7 849 125 643.9 125H467.6C260.2 125 89.1 279.7 89.1 503.5 89.1 708 260.2 875 467.6 875h176.3z"/></svg>