<svg height="1000" width="1125" xmlns="http://www.w3.org/2000/svg"><path d="M842.8 477.1v-63c80.4 0 75.2 .4 75.2 .4 14.2 2.5 25.9 14.2 25.9 31.2 0 17.2 -11.7 28.3 -25.9 30.9 -2.4 .7 -6.5 .5 -75.2 .5zm83.6 39.5c14.6 2.9 26.3 16.2 26.3 33.2 0 17.6 -11.7 30.3 -26.3 33.2 -5.5 1.4 -6.3 1 -83.6 1v-68.4c77.1 0 78.1 -.4 83.6 1zM1125 156.3v687.5c0 51.7 -42 93.7 -93.7 93.7H93.8C42 937.5 0 895.5 0 843.8V156.3C0 104.5 42 62.5 93.8 62.5h937.5c51.7 0 93.7 42 93.7 93.8zM355.5 375.6H244.1c0 131 20.9 214.2 -69.9 214.2 -38.1 0 -75.8 -11.1 -111.7 -28.9v54.7c58.6 16.2 132.8 16.2 132.8 16.2 191.2 0 160.2 -93.1 160.2 -256.2zm348.6 8.8C580.3 353.1 381.8 355.3 381.8 500.2c0 150.6 211.4 143.7 322.3 115.6v-55.3c-93 48.3 -210 43 -210 -60.5s116.8 -108.6 210 -60.9v-54.7zm358.4 175.2c0 -36.2 -32.2 -59.6 -74.2 -62.5v-1.6c38.1 -5.3 59.2 -30.3 59.2 -59 0 -37.1 -30.7 -58.6 -72.3 -60.5 0 0 12.3 -.6 -235 -.6v249h239.7c47.4 .2 82.6 -25.2 82.6 -64.8z"/></svg>