<svg height="1000" width="1125" xmlns="http://www.w3.org/2000/svg"><path d="M943.2 801.4c0 13.2 -9 22.8 -21.9 22.8 -13.3 0 -21.9 -10.1 -21.9 -22.8s8.6 -22.9 21.9 -22.9c12.9 0 21.9 10.2 21.9 22.9zM336.1 778.5c12.7 0 21.1 10.2 21.3 22.9 0 13.2 -8.6 22.8 -21.3 22.8 -13.8 0 -21.8 -10.1 -21.8 -22.8s8 -22.9 21.8 -22.9zm229.5 -.6c10.2 0 17 5.9 18.8 17h-37.3c1.5 -10.1 8 -17 18.5 -17zm210.6 .6c13.3 0 21.8 10.2 21.8 22.9 0 13.2 -8.5 22.8 -21.8 22.8s-21.3 -10.1 -21.3 -22.8 8 -22.9 21.3 -22.9zm206.8 51c0 .6 .6 1 .6 2.1 0 .6 -.6 1 -.6 2.2 -.6 .6 -.6 1 -1 1.6 -.6 .5 -.9 .9 -2.1 .9 -.6 .6 -1 .6 -2.2 .6 -.6 0 -.9 0 -2.1 -.6 -.6 0 -1 -.6 -1.6 -.9 -.6 -.6 -1 -1 -1 -1.6 -.5 -1 -.5 -1.6 -.5 -2.2 0 -.9 0 -1.5 .5 -2.1 0 -1 .6 -1.6 1 -2.2 .6 -.5 1 -.5 1.6 -.9 1 -.6 1.5 -.6 2.1 -.6 1 0 1.6 0 2.2 .6 1 .6 1.5 .6 2.1 .9 .6 .4 .4 1.2 1 2.2zm-4.3 2.7c1 0 1 -.6 1.6 -.6 .6 -.5 .6 -.9 .6 -1.5s0 -1 -.6 -1.6c-.6 0 -1 -.6 -2.2 -.6H975v6.9h1.6V832h.5l2.2 2.8h1.6zm146.3 -674v687.5c0 51.8 -42 93.8 -93.7 93.8H93.8C42 939.5 0 897.5 0 845.7V158.2C0 106.4 42 64.5 93.8 64.5h937.5c51.7 0 93.7 41.9 93.7 93.7zM125 430.9c0 149.4 121.3 270.5 270.5 270.5 53.1 0 105.3 -16 149.4 -45.1C402.5 540.4 403.5 321.9 544.9 206.1 500.8 176.8 448.6 160.9 395.5 160.9 246.3 160.7 125 282 125 430.9zm437.5 212.5c137.7 -107.5 137.1 -316.8 0 -424.8 -137.1 108 -137.7 317.5 0 424.8zm-277.9 149c0 -17 -11.2 -28.1 -28.7 -28.7 -9 0 -18.6 2.7 -25 12.7 -4.7 -8 -12.7 -12.7 -23.9 -12.7 -7.4 0 -14.8 2.7 -20.7 10.5v-8.6h-16v71.7h16c0 -36.9 -4.9 -59 17.6 -59 19.9 0 16 19.9 16 59h15.5c0 -35.7 -4.9 -59 17.5 -59 20 0 16 19.6 16 59H285v-44.9h-.4zm87.7 -26.8h-15.5v8.6c-5.2 -6.4 -12.7 -10.5 -22.8 -10.5 -20.1 0 -35.6 16 -35.6 37.7 0 21.8 15.5 37.7 35.6 37.7 10.1 0 17.6 -3.7 22.8 -10.6v9h15.5v-71.9zm79.1 50c0 -29.3 -44.8 -16 -44.8 -29.7 0 -11.1 23.3 -9.3 36.2 -2.1l6.4 -12.7c-18.3 -11.9 -59 -11.7 -59 16 0 27.9 44.8 16.2 44.8 29.3 0 12.3 -26.4 11.3 -40.5 1.6l-6.8 12.3c21.9 14.8 63.7 11.7 63.7 -14.7zm69.1 18.2l-4.3 -13.3c-7.4 4.1 -23.8 8.6 -23.8 -8v-32.4H518v-14.5h-25.6v-21.9h-16v21.9h-14.9v14.3h14.9v32.6c0 34.4 33.8 28.1 44.1 21.3zm26 -26.2h53.7c0 -31.6 -14.5 -44.1 -34 -44.1 -20.7 0 -35.5 15.4 -35.5 37.7 0 40 44.1 46.7 66 27.7l-7.4 -11.7C574 829.7 551 828.5 546.5 807.6zm115.4 -42c-9 -3.9 -22.6 -3.5 -29.7 8.6v-8.6h-16v71.7h16v-40.4c0 -22.7 18.6 -19.8 25 -16.4zm20.7 35.8c0 -22.3 22.7 -29.5 40.4 -16.4l7.5 -12.7c-22.7 -17.8 -63.9 -8 -63.9 29.3 0 38.6 43.8 46.4 63.9 29.3L723 818.2c-17.9 12.7 -40.4 5 -40.4 -16.8zm130.3 -35.8h-16v8.6c-16.2 -21.5 -58.4 -9.4 -58.4 27.2 0 37.5 43.7 48.2 58.4 27.1v9h16v-71.9zm65.8 0C874 763.3 857.2 760 849 774.2v-8.6h-15.4v71.7H849v-40.4c0 -21.5 17.6 -20.1 25 -16.4zm78.7 -29.1H942v37.7c-16 -21.3 -58.4 -9.9 -58.4 27.2 0 37.9 43.9 48 58.4 27.1v9h15.4v-101zm14.9 -146.7v9h1.5v-9h3.7v-1.5h-8.9v1.5h3.7zm12.9 241.8c0 -.9 0 -2.1 -.6 -3.1 -.6 -.6 -1 -1.5 -1.6 -2.1 -.6 -.6 -1.6 -1 -2.1 -1.6 -1 0 -2.2 -.6 -3.2 -.6 -.6 0 -1.5 .6 -2.7 .6 -1 .6 -1.6 1 -2.1 1.6 -1 .6 -1.6 1.5 -1.6 2.1 -.6 1 -.6 2.2 -.6 3.1 0 .6 0 1.6 .6 2.8 0 .6 .6 1.5 1.6 2.1 .5 .6 .9 1 2.1 1.6 1 .6 2.1 .6 2.7 .6 1 0 2.2 0 3.2 -.6 .5 -.6 1.5 -1 2.1 -1.6s1 -1.5 1.6 -2.1c.6 -1.2 .6 -2.2 .6 -2.8zm6.2 -243.5h-2.7l-3.2 6.8 -3.1 -6.8h-2.7v10.5h1.6v-8l3.1 6.9h2.1l2.8 -6.9v8h2.1v-10.5zm8.6 -157.2C1000 282 878.7 160.7 729.5 160.7c-53.1 0 -105.3 16.1 -149.4 45.2 140.8 115.8 142.9 334.9 0 450.2 44.1 29.3 96.7 45.1 149.4 45.1C878.7 701.4 1000 580.3 1000 430.9z"/></svg>