<svg height="1000" width="1125" xmlns="http://www.w3.org/2000/svg"><path d="M363.9 504.3c0 23.8 -19 42 -43 42 -18 0 -31.3 -10.2 -31.3 -29.3 0 -23.8 18.6 -43 42.4 -43 18.2 0 31.9 11.2 31.9 30.3zM157.2 409.6c22.1 0 38.7 2.9 34.2 29.1 -3.9 24.8 -20.5 27.7 -42 27.7l-16 .6 8.4 -52.2c.4 -3.3 3.3 -5.2 6.2 -5.2h9.2zm554.7 0c16.6 0 35.2 .9 35.4 21.6 0 29.3 -17.6 35.2 -43 35.2l-15.6 .6 8.2 -52.2c.4 -3.3 2.7 -5.2 6.2 -5.2h8.8zM1125 156.3v687.5c0 51.7 -42 93.7 -93.7 93.7H93.8C42 937.5 0 895.5 0 843.8V156.3C0 104.5 42 62.5 93.8 62.5h937.5c51.7 0 93.7 42 93.7 93.8zM250.6 420.7c0 -41 -31.7 -54.7 -67.8 -54.7h-78.1c-4.9 0 -9.8 3.9 -10.2 9.2l-32 199.4c-.6 3.9 2.3 7.8 6.3 7.8h37.1c5.2 0 10.1 -5.6 10.7 -11.1l8.8 -52c1.9 -14 25.8 -9.1 35.1 -9.1 55.9 0 90.1 -33.2 90.1 -89.5zM415 437.9h-37.1c-7.4 0 -7.8 10.7 -8.2 16C358.4 437.3 342 434.4 323.4 434.4c-47.8 0 -84.3 42 -84.3 88.3 0 38 23.8 62.8 61.9 62.8 17.6 0 39.4 -9.5 51.7 -23.2 -.9 2.9 -1.9 9.2 -1.9 12.1 0 4.5 1.9 7.8 6.2 7.8h33.6c5.3 0 9.8 -5.6 10.8 -11.1l19.9 -125.6c.6 -3.7 -2.4 -7.6 -6.3 -7.6zm79.1 191.2L618.6 448.2c.9 -.9 .9 -1.9 .9 -3.3 0 -3.3 -2.9 -6.8 -6.2 -6.8h-37.5c-3.3 0 -6.9 1.9 -8.8 4.9l-51.8 76.1 -21.5 -73.2c-1.5 -4.3 -5.8 -7.8 -10.7 -7.8h-36.5c-3.3 0 -6.3 3.5 -6.3 6.8 0 2.4 38.1 111 41.4 121.3 -5.2 7.4 -40 55.9 -40 61.7 0 3.5 2.9 6.3 6.3 6.3h37.5c3.5 -.2 6.8 -2.2 8.7 -5.1zM805.3 420.7c0 -41 -31.7 -54.7 -67.8 -54.7H660c-5.3 0 -10.2 3.9 -10.8 9.2l-31.6 199.2c-.4 3.9 2.5 7.8 6.2 7.8h40.1c3.9 0 6.8 -2.9 7.8 -6.2l8.8 -56.7c1.9 -14 25.7 -9.1 35.1 -9.1 55.5 0 89.7 -33.2 89.7 -89.5zm164.4 17.2h-37.1c-7.4 0 -7.8 10.7 -8.4 16 -10.7 -16.6 -27.3 -19.5 -46.3 -19.5 -47.8 0 -84.3 42 -84.3 88.3 0 38 23.8 62.8 61.9 62.8 18.1 0 40 -9.5 51.7 -23.2 -.6 2.9 -1.9 9.2 -1.9 12.1 0 4.5 1.9 7.8 6.2 7.8h33.8c5.3 0 9.8 -5.6 10.8 -11.1L976 445.5c.6 -3.7 -2.4 -7.6 -6.3 -7.6zm92.8 -65c0 -4 -2.9 -6.9 -6.3 -6.9h-36.1c-2.9 0 -5.8 2.4 -6.2 5.3l-31.7 203.1 -.6 1c0 3.5 3 6.8 6.9 6.8h32.2c4.9 0 9.8 -5.6 10.2 -11.1l31.6 -197.7v-.5zM886.7 474c18.2 0 31.9 11.2 31.7 30.3 0 24 -19 42 -42.4 42 -18 0 -31.7 -10.4 -31.7 -29.3 0 -24 18.6 -43 42.4 -43z"/></svg>