<svg height="1000" width="1125" xmlns="http://www.w3.org/2000/svg"><path d="M918.2 451.8s14.8 72.6 18.1 87.8h-65.2c6.4 -17.3 31.2 -84.9 31.2 -84.9 -.3 .6 6.5 -17.8 10.4 -29.1zM1125 156.3v687.5c0 51.7 -42 93.7 -93.7 93.7H93.8C42 937.5 0 895.5 0 843.8V156.3C0 104.5 42 62.5 93.8 62.5h937.5c51.7 0 93.7 42 93.7 93.8zM297.9 646.9L421.3 343.8h-83l-76.8 207 -8.4 -42L225.8 369.3C221.3 350 207.4 344.5 190.2 343.7H63.9l-1.4 6.1c30.9 7.8 58.4 19.1 82.4 33.4l69.9 263.7h83.1zm184.3 .4l49.2 -303.5h-78.5l-49 303.5h78.3zM755.5 548c.4 -34.5 -20.7 -60.9 -65.9 -82.6 -27.5 -13.8 -44.3 -23.2 -44.3 -37.5 .4 -12.9 14.3 -26.1 45.1 -26.1 25.6 -.6 44.4 5.4 58.4 11.5l7.1 3.3L766.6 351c-15.4 -6.1 -40 -12.9 -70.3 -12.9 -77.5 0 -132 41.4 -132.4 100.4 -.6 43.5 39 67.8 68.7 82.4 30.3 14.8 40.6 24.6 40.6 37.7 -.3 20.3 -24.6 29.7 -47 29.7 -31.3 0 -48.1 -4.9 -73.7 -16.2l-10.3 -4.9 -10.9 68.2c18.3 8.4 52.3 15.8 87.5 16.2 82.4 .2 136.1 -40.7 136.7 -103.6zm275.8 99.3L968 343.8h-60.8c-18.7 0 -33 5.4 -41 25.1L749.6 647.3H832s13.5 -37.5 16.4 -45.5h100.8c2.4 10.7 9.4 45.5 9.4 45.5h72.6z"/></svg>