<svg height="1000" width="1000" xmlns="http://www.w3.org/2000/svg"><path d="M895.7 499.8l89.9 87.9c26.7 25.4 14.3 70.4 -20.9 78.8l-122.3 31.3 34.5 121.1c9.7 34.8 -23.1 67.7 -58 57.9L697.8 842.3l-31.2 122.4c-8.4 35.5 -54.3 47.2 -78.7 20.9L500 895.7l-87.9 89.9c-24.6 26 -70.1 15.4 -78.7 -20.9L302.1 842.3l-121 34.5c-34.9 9.8 -67.7 -23.1 -58 -57.9l34.5 -121.1L35.3 666.5C.1 658.1 -12.3 613.1 14.4 587.7l89.9 -87.9L14.4 411.9C-12.3 386.6 .1 341.6 35.3 333.2l122.3 -31.3L123.1 180.8c-9.7 -34.8 23.1 -67.7 58 -57.9l121.1 34.5L333.4 35c8.3 -35 54.1 -47 78.7 -20.9l87.9 90.5 87.9 -90.5C612.8 -12.3 658.4 .4 666.6 35l31.2 122.4 121.1 -34.5c34.9 -9.8 67.7 23.1 58 57.9l-34.5 121.1 122.3 31.3c35.1 8.4 47.6 53.4 20.9 78.7z"/></svg>