<svg height="1000" width="875" xmlns="http://www.w3.org/2000/svg"><path d="M218.8 250v250H125V250C125 111.9 236.9 0 375 0h125c138.1 0 250 111.9 250 250v250h-93.7V250c0 -57.6 -31.7 -107.4 -78.2 -134.6V500h-93.7V93.7h-93.8V500h-93.7V115.4c-46.5 27.2 -78.1 77 -78.1 134.6zm652.9 417.8c13.5 40.4 -16.6 82.2 -59.2 82.2v218.7c0 17.2 -14.1 31.3 -31.2 31.3h-62.5c-17.2 0 -31.3 -14.1 -31.3 -31.3V750h-500v218.7c0 17.2 -14.1 31.3 -31.2 31.3H93.8c-17.2 0 -31.3 -14.1 -31.3 -31.3V750C19.9 750 -10.2 708.2 3.1 667.8L24 605.3c8.6 -25.6 32.4 -42.8 59.4 -42.8h708c27 0 50.8 17.2 59.4 42.8z"/></svg>