<svg height="1000" width="1250" xmlns="http://www.w3.org/2000/svg"><path d="M406.3 687.5c121.2 0 219.3 98.6 218.7 220 -.3 51.2 -42.4 92.5 -93.7 92.5H93.8C42.4 1000 .3 958.7 0 907.5c-.6 -121.4 97.5 -220 218.8 -220 4.6 0 9.3 .7 13.7 2.1 25.4 8.3 52 13.5 80 13.5s54.6 -5.2 80 -13.5c4.4 -1.4 9.1 -2.1 13.7 -2.1zM312.5 625C208.9 625 125 541.1 125 437.5S208.9 250 312.5 250 500 333.9 500 437.5 416.1 625 312.5 625zM1156.3 0c51.6 0 93.7 43.5 93.7 96.9v618.7c0 53.4 -42.1 96.9 -93.7 96.9H678.6c-12.8 -49.4 -40.2 -92.4 -77.5 -125H750v-125h250v125h125V125H437.5v97.3c-36.9 -21.6 -79.3 -34.8 -125 -34.8V96.9C312.5 43.5 354.6 0 406.2 0h750z"/></svg>