<svg height="1000" width="1000" xmlns="http://www.w3.org/2000/svg"><path d="M968.8 750c17.2 0 31.2 14 31.2 31.3v62.5c0 17.2 -14 31.2 -31.2 31.2H62.5C28 875 0 847 0 812.5V156.3C0 139 14 125 31.3 125h62.5c17.2 0 31.2 14 31.2 31.3V750h843.8zM906.3 187.5c17.2 0 31.2 14 31.2 31.3v230.5c0 41.8 -50.5 62.7 -80 33.2l-63.3 -63.3L606.7 606.7c-24.4 24.4 -64 24.4 -88.4 0L375 463.4l-90 90c-12.2 12.2 -32 12.2 -44.2 0l-44.1 -44.2c-12.2 -12.2 -12.2 -32 0 -44.2L330.8 330.8c24.4 -24.4 64 -24.4 88.4 0l143.3 143.3L705.8 330.8l-63.3 -63.3c-29.5 -29.5 -8.6 -80 33.2 -80h230.6z"/></svg>