<svg height="1000" width="1000" xmlns="http://www.w3.org/2000/svg"><path d="M650 625c-12.5 0 -25 -12.5 -25 -25V337.5c0 -12.5 12.5 -25 25 -25h75c12.5 0 25 12.5 25 25V600c0 12.5 -12.5 25 -25 25h-75zm187.5 0c-12.5 0 -25 -12.5 -25 -25V150c0 -12.5 12.5 -25 25 -25h75c12.5 0 25 12.5 25 25v450c0 12.5 -12.5 25 -25 25h-75zM275 625c-12.5 0 -25 -12.5 -25 -25V462.5c0 -12.5 12.5 -25 25 -25h75c12.5 0 25 12.5 25 25V600c0 12.5 -12.5 25 -25 25h-75zm187.5 0c-12.5 0 -25 -12.5 -25 -25V212.5c0 -12.5 12.5 -25 25 -25h75c12.5 0 25 12.5 25 25V600c0 12.5 -12.5 25 -25 25h-75zm506.3 125c17.2 0 31.2 14 31.2 31.3v62.5c0 17.2 -14 31.2 -31.2 31.2H62.5C28 875 0 847 0 812.5V156.3C0 139 14 125 31.3 125h62.5c17.2 0 31.2 14 31.2 31.3V750h843.8z"/></svg>