<svg height="1000" width="1125" xmlns="http://www.w3.org/2000/svg"><path d="M656.3 875c17.2 0 31.2 14 31.2 31.3v62.5c0 17.2 -14 31.2 -31.2 31.2h-625C14 1000 0 986 0 968.8v-62.5C0 889 14 875 31.3 875h625zm406.2 -625h31.3c17.2 0 31.2 14 31.2 31.3v62.5c0 69.8 -46.1 128.3 -109.4 148.3v234.5c0 86.7 -74.8 156.3 -163.2 147.7C775.2 866.7 718.8 797.4 718.8 719.9v-48c0 -43.2 -35 -78.2 -78.2 -78.2H625v218.8H62.5V125c0 -69 56 -125 125 -125H500c69 0 125 56 125 125v375h15.6c94.9 0 171.9 77 171.9 171.9v54.7c0 33.1 29.7 59.5 63.9 53.9 26.9 -4.4 45.5 -29.8 45.5 -57V492C858.6 472.1 812.5 413.6 812.5 343.7v-62.5c0 -17.2 14 -31.2 31.3 -31.2H875v-93.8C875 139 889 125 906.3 125s31.2 14 31.2 31.2V250h62.5v-93.8c0 -17.2 14 -31.2 31.3 -31.2s31.2 14 31.2 31.2V250zM508 343.3c9 -13.7 -2.3 -30.8 -20.3 -30.8H375l22.7 -99.2c3.9 -13 -7.3 -25.8 -22.7 -25.8H242.2c-11.8 0 -21.7 7.6 -23.2 17.8l-31.3 209c-1.9 12.3 9.1 23.2 23.2 23.2h116l-45 162.3c-3.5 12.9 7.8 25.2 22.8 25.2 8.2 0 16 -3.7 20.3 -10.2z"/></svg>