<svg height="1000" width="1062.5" xmlns="http://www.w3.org/2000/svg"><path d="M1030.8 562.5c18.7 0 34 16.4 31.4 34.9C1047 705.3 995 801.3 919.4 872.5c-12.2 11.4 -31.6 10.4 -43.4 -1.3L567.4 562.5h463.4zM999.9 435.9c1.3 17.9 -13.7 32.8 -31.6 32.8H531.2v-437c0 -17.8 15 -32.9 32.9 -31.6 233.3 16.1 419.7 202.5 435.8 435.8zM437.5 562.5l304.4 304.4c13.4 13.4 12.4 36.1 -3.1 47.1 -74.7 53 -165.7 84.7 -264.1 86C224.3 1003.1 8.8 797.9 .3 547.6 -8 303.9 169.9 100.6 402.7 67.7c18.4 -2.6 34.8 12.7 34.8 31.3v463.5z"/></svg>