<svg height="1000" width="1000" xmlns="http://www.w3.org/2000/svg"><path d="M986.3 341.4c18.2 18.2 18.2 47.9 -.2 66.4L408 986.3c-18.2 18.4 -47.8 18.4 -66.2 0L13.7 658c-18.4 -18.4 -18.4 -48 0 -66.4l77.5 -77.5c18.2 -18.4 47.9 -18.4 66.2 0L375 731.8 842.8 264.1c18.1 -18.4 47.8 -18.4 66.2 0zm-633.4 207L134.2 329.3c-12.1 -12.1 -12.1 -31.8 0 -44.1l88.5 -88.5c12.1 -12.3 32 -12.3 44.1 0L375 305.1 670.9 9.2c12.1 -12.3 32 -12.3 44.1 0l88.3 88.5c12.1 12.1 12.1 31.8 0 44.1L397.1 548.4c-12.1 12.3 -32.1 12.3 -44.2 0z"/></svg>