<svg height="1000" width="1000" xmlns="http://www.w3.org/2000/svg"><path d="M144.5 406.3L78.3 229.7c-1.1 -2.9 -2 -7.8 -2 -11 0 -17.2 14 -31.2 31.3 -31.2h111.2V125h-46.9c-8.7 0 -15.6 -7 -15.6 -15.6V78.1c0 -8.6 6.9 -15.6 15.6 -15.6h46.9V15.6C218.8 7 225.7 0 234.4 0h31.2c8.7 0 15.7 7 15.7 15.6v46.9h46.8c8.7 0 15.7 7 15.7 15.6v31.3c0 8.6 -7 15.6 -15.7 15.6h-46.8v62.5h111.1c17.3 0 31.3 14 31.3 31.2 0 3.2 -.9 8.1 -2 11l-66.2 176.6H375c17.3 0 31.3 13.9 31.3 31.2v31.3c0 17.2 -14 31.2 -31.3 31.2h-31.1c.2 70 14.1 182 31.1 250H125c17 -68 30.9 -180 31.1 -250H125c-17.3 0 -31.2 -14 -31.2 -31.2v-31.3c0 -17.3 13.9 -31.2 31.2 -31.2h19.5zm338.2 491.3c9.6 4.8 17.3 17.3 17.3 28v43.2c0 17.2 -14 31.2 -31.3 31.2H31.2C14 1000 0 986 0 968.8v-43.2c0 -10.7 7.7 -23.2 17.3 -28L62.5 875v-31.3c0 -17.2 14 -31.2 31.2 -31.2h312.5c17.3 0 31.3 14 31.3 31.2V875zM663.9 589.5l-48 -40.7c-12.2 -10.3 -22.1 -31.6 -22.1 -47.6V386.7c0 -6.4 5.2 -11.7 11.7 -11.7H657c6.5 0 11.7 5.3 11.7 11.7v50.8H717v-50.8c0 -6.4 5.2 -11.7 11.7 -11.7h105.1c6.5 0 11.7 5.3 11.7 11.7v50.8h48.3v-50.8c0 -6.4 5.2 -11.7 11.7 -11.7H957c6.5 0 11.8 5.3 11.8 11.7v114.4c0 16 -10 37.4 -22.2 47.7l-48 40.6L905 750H657.5zm86.1 4.3v62.5h62.5v-62.5c0 -17.3 -14 -31.3 -31.2 -31.3s-31.3 14 -31.3 31.3zm232.7 303.8c9.6 4.8 17.3 17.3 17.3 28v43.2c0 17.2 -14 31.2 -31.3 31.2h-375c-17.2 0 -31.2 -14 -31.2 -31.2v-43.2c0 -10.7 7.7 -23.2 17.3 -28L625 875v-31.3c0 -17.2 14 -31.2 31.2 -31.2h250c17.3 0 31.3 14 31.3 31.2V875z"/></svg>