<svg height="1000" width="1000" xmlns="http://www.w3.org/2000/svg"><path d="M500 218.8c-60.4 0 -109.4 -49 -109.4 -109.4S439.6 0 500 0s109.4 49 109.4 109.4S560.4 218.8 500 218.8zM843.8 875c17.2 0 31.2 14 31.2 31.3v62.5c0 17.2 -14 31.2 -31.2 31.2H156.3C139 1000 125 986 125 968.8v-62.5C125 889 139 875 156.3 875h687.5zM986.1 359.7c7.7 5.1 13.9 16.8 13.9 26 0 4.1 -1.5 10.3 -3.3 14L796.4 812.5H203.6L3.3 399.7C1.5 396.1 0 389.8 0 385.8c0 -9.3 6.2 -20.9 13.9 -26l55.8 -31.3c14.4 -9.6 32.9 -5 43.2 8.9 15.3 20.8 48.7 37.6 74.6 37.6 1.8 0 4.7 -.1 6.5 -.2 50.1 -3.4 87.2 -48.5 87.2 -98.6 0 -14.5 11.8 -26.2 26.2 -26.2h75.7c11.8 0 22.7 7.8 25.2 19.4 8.6 41 49.7 74.4 91.7 74.4s83.1 -33.4 91.7 -74.4c2.5 -11.6 13.4 -19.4 25.2 -19.4h75.7c14.4 0 26.1 11.7 26.1 26.2 0 45.9 30.7 88.8 75.9 97.1 4.9 1 12.8 1.8 17.8 1.8 25.7 0 59.1 -16.8 74.5 -37.4 10.5 -13.9 29 -18.9 43.5 -9.1z"/></svg>