<svg height="1000" width="625" xmlns="http://www.w3.org/2000/svg"><path d="M15.6 562.3c0 -143.4 116.8 -353.7 219.9 -440.2 -27.3 -6.7 -48 -30.3 -48 -59.6C187.5 28 215.5 0 250 0h125c34.5 0 62.5 28 62.5 62.5 0 29.4 -20.7 52.9 -48 59.6 47.6 40 97.7 106.8 138.4 180.8L317.1 513.7c-2.5 2.6 -4.5 7.5 -4.5 11.1 0 3.5 2 8.5 4.5 11l22.1 22.1c2.6 2.5 7.5 4.6 11.1 4.6s8.5 -2.1 11 -4.6L557.2 362c31.2 69.2 52.2 140.5 52.2 200.3C609.4 663 566.1 706.5 500 727.5v85H125v-85C58.9 706.5 15.6 663.1 15.6 562.3zM593.8 875c17.2 0 31.2 14 31.2 31.3v62.5c0 17.2 -14 31.2 -31.2 31.2H31.3C14 1000 0 986 0 968.8v-62.5C0 889 14 875 31.3 875h562.5z"/></svg>