<svg height="1000" width="1000" xmlns="http://www.w3.org/2000/svg"><path d="M499.8 .4v125h-125V.4h125zM0 125.3h125v125H0v-125zM250 .4v125H125V.4h125zm125 499.8h125v125H375v-125zM0 375.2h125v125H0v-125zM749.7 .4v125h-125V.4h125zm250 0v125h-125V.4h125zM250 500.2v125H125v-125h125zM999.6 875h-125V750h125v125zm0 -250h-125V500h125v125zm-249.9 375V875h125v125h-125zm250 -624.8h-125v-125h125v125zM250 1000V875h125v125H250zm-250 0V875h125v125H0zm499.8 0V875h125v125h-125zM0 625.1h125v125H0v-125zM624.8 250.3h-125v-125h125v125zm-125 250v-125h125v125h-125zm-125 250h125v125h-125v-125zm250 -125v-125h125v125h-125zm0 -249.9v-125h125v125h-125zm0 374.9h125v125h-125v-125zM125 750.1h125v125H125v-125zM375 250.3H250v-125h125v125zm374.8 499.8v-125h125v125h-125zm-250 -374.9h-125v-125h125v125zm250 -249.9h125v125h-125v-125zm-250 499.8h125v125h-125v-125zm-125 -249.9l.2 125H250v-125h124.8zm374.9 125v-125h125v125h-125zM250 250.3v125H125v-125h125zm0 374.8h125v125H250v-125z"/></svg>