<svg height="1000" width="750" xmlns="http://www.w3.org/2000/svg"><path d="M718.8 62.5c17.2 0 31.2 14 31.2 31.3v343.7L625 500c0 93.2 3 185.5 25.8 312.5H99.2C122 685.5 125 594.4 125 500L0 437.5V93.8C0 76.5 14 62.5 31.3 62.5h109.5c17.3 0 31.3 14 31.3 31.3v93.7h93.5V93.8c0 -17.3 14 -31.3 31.3 -31.3h156.2c17.3 0 31.3 14 31.3 31.3v93.7h93.7V93.8c0 -17.3 14 -31.3 31.3 -31.3h109.4zM437.5 625V500c0 -34.5 -28 -62.5 -62.5 -62.5s-62.5 28 -62.5 62.5v125h125zm281.3 250c17.2 0 31.2 14 31.2 31.3v62.5c0 17.2 -14 31.2 -31.2 31.2H31.3C14 1000 0 986 0 968.8v-62.5C0 889 14 875 31.3 875h687.5z"/></svg>