<svg height="1000" width="875" xmlns="http://www.w3.org/2000/svg"><path d="M781.3 875c17.2 0 31.2 14 31.2 31.3v62.5c0 17.2 -14 31.2 -31.2 31.2H93.8c-17.3 0 -31.3 -14 -31.3 -31.2v-62.5C62.5 889 76.5 875 93.8 875h687.5zm31.2 -562.5c34.5 0 62.5 28 62.5 62.5 0 5.3 -1.3 13.6 -2.9 18.6L729.4 812.5H145.6L2.9 393.6C1.3 388.6 0 380.3 0 375c0 -34.5 28 -62.5 62.5 -62.5H375v-93.7h-78.1c-8.7 0 -15.7 -7 -15.7 -15.7v-93.7c0 -8.7 7 -15.6 15.7 -15.6H375V15.6C375 7 382 0 390.6 0h93.8C493 0 500 7 500 15.6v78.2h78.1c8.6 0 15.6 6.9 15.6 15.6v93.7c0 8.7 -7 15.7 -15.6 15.7H500v93.7h312.5z"/></svg>