<svg height="1000" width="750" xmlns="http://www.w3.org/2000/svg"><path d="M37.1 532.2C16.6 523.1 0 497.5 0 475.1V206.9c0 -10.7 6.1 -25.5 13.7 -33.1l17.6 -17.5L3.5 100.7C1.6 96.9 0 90.3 0 86v-.1C0 73 10.5 62.5 23.4 62.5h289c207 0 374.8 168 374.8 375v375H62.5v-28.4c0 -53.3 38.7 -115.9 86.3 -139.7l111.8 -56c28.6 -14.3 51.8 -51.9 51.8 -83.8v-98.3l-43.2 21.6c-10.7 5.3 -21.6 19 -24.5 30.6l-18 59.8c-4.8 15.9 -21.2 33.9 -36.7 40.1l-24.9 10c-6.2 2.4 -16.6 4.4 -23.3 4.4 -7.3 0 -18.6 -2.4 -25.3 -5.4zM101.6 250C80 250 62.5 267.5 62.5 289.1s17.5 39 39.1 39 39 -17.5 39 -39S123.1 250 101.6 250zm617.2 625c17.2 0 31.2 14 31.2 31.3v62.5c0 17.2 -14 31.2 -31.2 31.2H31.3C14 1000 0 986 0 968.8v-62.5C0 889 14 875 31.3 875h687.5z"/></svg>