<svg height="1000" width="750" xmlns="http://www.w3.org/2000/svg"><path d="M234.4 140.6C234.4 63 297.3 0 375 0s140.6 63 140.6 140.6c0 77.7 -62.9 140.7 -140.6 140.7S234.4 218.3 234.4 140.6zm497.3 2.7c24.4 24.4 24.4 64 0 88.4L546.9 416.5v521c0 34.5 -28 62.5 -62.5 62.5h-31.3c-34.5 0 -62.5 -28 -62.5 -62.5V718.7h-31.2v218.8c0 34.5 -28 62.5 -62.5 62.5h-31.3c-34.5 0 -62.5 -28 -62.5 -62.5v-521L18.3 231.7c-24.4 -24.4 -24.4 -64 0 -88.4 24.4 -24.4 64 -24.4 88.4 0l169.2 169.2h198.2L643.3 143.3c24.4 -24.4 64 -24.4 88.4 0z"/></svg>