<svg height="1000" width="968.8" xmlns="http://www.w3.org/2000/svg"><path d="M256.8 424.8L107.6 195.5C200.6 79.9 340 16.2 482.6 15.6c82.6 -.6 167 20.5 243.8 64.9 84.7 49.2 149.2 119.9 190.2 201.1l-401 -21.1C402.1 253.9 294.1 317.8 256.8 424.8zm64.3 75.2c0 -90.4 73 -163.3 163.3 -163.3S647.7 409.8 647.7 500 574.6 663.3 484.4 663.3 321.1 590.2 321.1 500zm615 -174.2c85 218.5 0 472.4 -209.7 593.5C641.6 968.6 548 988.5 457.2 983.6l219 -336.7c62.3 -95.7 61.1 -220.5 -12.9 -307.1zM261.1 593c51.4 100.9 160 162.7 272.5 141.6L409.2 978.3C177.3 942.8 0 742.2 0 500 0 402.2 29.1 310.7 78.9 234.6z"/></svg>