<svg height="1000" width="1250" xmlns="http://www.w3.org/2000/svg"><path d="M907.1 481.8a62.35 62.35 0 0 1 30.4 53.6V1000H750V812.5c0 -69 -56 -125 -125 -125s-125 56 -125 125V1000H312.5V535.4c0 -19.5 13.6 -43.6 30.4 -53.6L562.5 350V250h-93.7c-17.3 0 -31.3 -14 -31.3 -31.2v-62.5c0 -17.3 14 -31.3 31.3 -31.3h93.7V31.3C562.5 14 576.5 0 593.8 0h62.5c17.2 0 31.2 14 31.2 31.3V125h93.8c17.2 0 31.2 14 31.2 31.3v62.5c0 17.2 -14 31.2 -31.2 31.2h-93.8v100zM0 773.4c0 -22.8 17 -48.5 37.9 -57.5L250 625v375H31.2C14 1000 0 986 0 968.8V773.4zm1212.1 -57.5c23 9.9 37.9 32.5 37.9 57.5v195.3c0 17.3 -14 31.3 -31.3 31.3H1000V625z"/></svg>