<svg height="1000" width="1250" xmlns="http://www.w3.org/2000/svg"><path d="M1203.1 375c25.9 0 46.9 21 46.9 46.9v515.6c0 34.5 -28 62.5 -62.5 62.5H62.5C28 1000 0 972 0 937.5V234.4c0 -25.9 21 -46.9 46.9 -46.9H125V31.3C125 14 139 0 156.3 0h31.2c17.3 0 31.3 14 31.3 31.3v156.2h125V31.3C343.8 14 357.7 0 375 0h31.3c17.2 0 31.2 14 31.2 31.3v156.2h125V46.9C562.5 21 583.5 0 609.4 0h281.2c25.9 0 46.9 21 46.9 46.9V375h265.6zM250 789.1v-78.2c0 -12.9 -10.5 -23.4 -23.4 -23.4h-78.2c-12.9 0 -23.4 10.5 -23.4 23.4v78.2c0 12.9 10.5 23.4 23.4 23.4h78.2c12.9 0 23.4 -10.5 23.4 -23.4zm0 -187.5v-78.2C250 510.5 239.5 500 226.6 500h-78.2c-12.9 0 -23.4 10.5 -23.4 23.4v78.2c0 12.9 10.5 23.4 23.4 23.4h78.2c12.9 0 23.4 -10.5 23.4 -23.4zm0 -187.5v-78.2c0 -12.9 -10.5 -23.4 -23.4 -23.4h-78.2c-12.9 0 -23.4 10.5 -23.4 23.4v78.2c0 12.9 10.5 23.4 23.4 23.4h78.2c12.9 0 23.4 -10.5 23.4 -23.4zm250 375v-78.2c0 -12.9 -10.5 -23.4 -23.4 -23.4h-78.2c-12.9 0 -23.4 10.5 -23.4 23.4v78.2c0 12.9 10.5 23.4 23.4 23.4h78.2c12.9 0 23.4 -10.5 23.4 -23.4zm0 -187.5v-78.2C500 510.5 489.5 500 476.6 500h-78.2c-12.9 0 -23.4 10.5 -23.4 23.4v78.2c0 12.9 10.5 23.4 23.4 23.4h78.2c12.9 0 23.4 -10.5 23.4 -23.4zm0 -187.5v-78.2c0 -12.9 -10.5 -23.4 -23.4 -23.4h-78.2c-12.9 0 -23.4 10.5 -23.4 23.4v78.2c0 12.9 10.5 23.4 23.4 23.4h78.2c12.9 0 23.4 -10.5 23.4 -23.4zm312.5 187.5v-78.2C812.5 510.5 802 500 789.1 500h-78.2c-12.9 0 -23.4 10.5 -23.4 23.4v78.2c0 12.9 10.5 23.4 23.4 23.4h78.2c12.9 0 23.4 -10.5 23.4 -23.4zm0 -187.5v-78.2c0 -12.9 -10.5 -23.4 -23.4 -23.4h-78.2c-12.9 0 -23.4 10.5 -23.4 23.4v78.2c0 12.9 10.5 23.4 23.4 23.4h78.2c12.9 0 23.4 -10.5 23.4 -23.4zm0 -187.5v-78.2C812.5 135.5 802 125 789.1 125h-78.2c-12.9 0 -23.4 10.5 -23.4 23.4v78.2c0 12.9 10.5 23.4 23.4 23.4h78.2c12.9 0 23.4 -10.5 23.4 -23.4zM1125 789.1v-78.2c0 -12.9 -10.5 -23.4 -23.4 -23.4h-78.2c-12.9 0 -23.4 10.5 -23.4 23.4v78.2c0 12.9 10.5 23.4 23.4 23.4h78.2c12.9 0 23.4 -10.5 23.4 -23.4zm0 -187.5v-78.2c0 -12.9 -10.5 -23.4 -23.4 -23.4h-78.2c-12.9 0 -23.4 10.5 -23.4 23.4v78.2c0 12.9 10.5 23.4 23.4 23.4h78.2c12.9 0 23.4 -10.5 23.4 -23.4z"/></svg>