<svg height="1000" width="1125" xmlns="http://www.w3.org/2000/svg"><path d="M562.5 224.6l427.2 376.8c3 2.7 7 4 10.3 6.2v361.1c0 17.3 -14 31.3 -31.3 31.3H156.2C139 1000 125 986 125 968.7V607.5c3.5 -2.3 7.5 -3.7 10.7 -6.5zM750 734.4v-93.8C750 632 743 625 734.4 625H625V515.6C625 507 618 500 609.4 500h-93.8c-8.6 0 -15.6 7 -15.6 15.6V625H390.6c-8.6 0 -15.6 7 -15.6 15.6v93.8c0 8.6 7 15.6 15.6 15.6H500v109.4c0 8.6 7 15.6 15.6 15.6h93.8c8.6 0 15.6 -7 15.6 -15.6V750h109.4c8.6 0 15.6 -7 15.6 -15.6zm364.6 -272.9c5.8 5.1 10.4 15.5 10.4 23.2 0 6.6 -3.6 16 -8 20.9l-41.8 46.5c-5.1 5.8 -15.5 10.4 -23.2 10.4 -6.6 0 -16 -3.6 -20.9 -8L583.2 159.4c-4.9 -4.3 -14.2 -7.8 -20.7 -7.8s-15.8 3.5 -20.7 7.8L93.9 554.5c-4.9 4.4 -14.2 8 -20.8 8 -7.7 0 -18.2 -4.6 -23.3 -10.4L8 505.6C3.6 500.7 0 491.3 0 484.7 0 477 4.6 466.6 10.4 461.5l500 -441.4C522.6 9 546 0 562.5 0c16.6 0 40 9 52.2 20.1z"/></svg>