<svg height="1000" width="750" xmlns="http://www.w3.org/2000/svg"><path d="M656.3 125c51.7 0 93.7 42 93.7 93.8v687.5c0 51.7 -42 93.7 -93.7 93.7H93.8C42 1000 0 958 0 906.3V218.8C0 167 42 125 93.8 125H250C250 56.1 306.1 0 375 0s125 56.1 125 125h156.3zM375 78.1c-26 0 -46.9 20.9 -46.9 46.9s20.9 46.9 46.9 46.9S421.9 151 421.9 125 401 78.1 375 78.1zm236.7 452.8c9.2 -9.2 9.4 -23.9 .2 -33.2l-55.1 -55.5c-9.1 -9.2 -24 -9.4 -33.2 -.2l-207 205.5 -89.8 -90.7c-9.2 -9.1 -24.1 -9.3 -33.2 -.2l-55.5 55.1c-9.2 9.2 -9.4 24 -.2 33.2l161.3 162.7c9.2 9.2 24 9.4 33.2 .2z"/></svg>