<svg height="1000" width="750" xmlns="http://www.w3.org/2000/svg"><path d="M656.3 125c51.7 0 93.7 42 93.7 93.8v687.5c0 51.7 -42 93.7 -93.7 93.7H93.8C42 1000 0 958 0 906.3V218.8C0 167 42 125 93.8 125H250C250 56.1 306.1 0 375 0s125 56.1 125 125h156.3zM187.5 828.1c26 0 46.9 -20.9 46.9 -46.8s-20.9 -46.9 -46.9 -46.9 -46.9 20.9 -46.9 46.9 20.9 46.8 46.9 46.8zm0 -187.5c26 0 46.9 -20.9 46.9 -46.8s-20.9 -46.9 -46.9 -46.9 -46.9 20.9 -46.9 46.9 20.9 46.8 46.9 46.8zm0 -187.5c26 0 46.9 -20.9 46.9 -46.8s-20.9 -46.9 -46.9 -46.9 -46.9 20.9 -46.9 46.9 20.9 46.8 46.9 46.8zM375 78.1c-26 0 -46.9 20.9 -46.9 46.9s20.9 46.9 46.9 46.9S421.9 151 421.9 125 401 78.1 375 78.1zm250 718.8v-31.3C625 757 618 750 609.4 750H328.1c-8.6 0 -15.6 7 -15.6 15.6v31.3c0 8.6 7 15.6 15.6 15.6h281.3c8.6 0 15.6 -7 15.6 -15.6zm0 -187.5v-31.3c0 -8.6 -7 -15.6 -15.6 -15.6H328.1c-8.6 0 -15.6 7 -15.6 15.6v31.3c0 8.6 7 15.6 15.6 15.6h281.3c8.6 0 15.6 -7 15.6 -15.6zm0 -187.5v-31.3C625 382 618 375 609.4 375H328.1c-8.6 0 -15.6 7 -15.6 15.6v31.3c0 8.6 7 15.6 15.6 15.6h281.3c8.6 0 15.6 -7 15.6 -15.6z"/></svg>