<svg height="1000" width="1000" xmlns="http://www.w3.org/2000/svg"><path d="M906.3 125c51.7 0 93.7 42 93.7 93.8v562.5c0 51.7 -42 93.7 -93.7 93.7H93.8C42 875 0 833 0 781.3V218.8C0 167 42 125 93.8 125h812.5zM426 561.9c-80.5 74 -180.1 30.1 -180.3 -63.7 0 -90 105.1 -123.4 184.8 -60.9 5.6 4.5 14 2.7 17.7 -3.3l34.2 -59.6c3 -4.9 2.2 -7.2 -1.9 -11.1C381.3 266.8 143.6 310.2 143.6 500.2c0 195.3 232.8 243.5 337.5 132.6 3.9 -4.1 4.3 -10.3 .9 -15l-38.1 -54.1c-4.1 -5.9 -12.5 -6.7 -17.9 -1.8zm371.9 0c-80.5 74 -180.1 30.1 -180.1 -63.7 0 -90 105.1 -123.4 184.7 -60.9 5.7 4.5 14.1 2.7 17.8 -3.3l34.2 -59.6c2.9 -4.9 2.1 -7.2 -2 -11.1C753.3 266.8 515.6 310.2 515.6 500.2c0 195.3 232.8 243.7 337.3 132.6 3.9 -4.1 4.3 -10.3 1 -15l-38.1 -54.1c-4.1 -5.9 -12.5 -6.7 -17.9 -1.8z"/></svg>