<svg height="1000" width="875" xmlns="http://www.w3.org/2000/svg"><path d="M621.3 300.8c12.1 -12.3 30.8 6 18.5 18.7L493 493c1.7 16 -3.5 32.8 -15.9 45.1 -21.6 21.5 -56.4 21.5 -78.1 0 -21.7 -21.7 -21.7 -56.7 0 -78.1 12.3 -12.3 28.9 -17.6 45.1 -15.9l49.3 -39.8c-32.1 -29.9 -75 -48.2 -122.3 -48.2 -99.2 0 -184.8 80.8 -180.9 190.2 -1.9 -12.3 -2.7 -25 -2.7 -37.9C187.5 368.7 300.4 250 440.2 250c62.1 0 118.8 27.9 162.7 65.6zM457.6 518.6c11 -10.8 11 -28.6 0 -39.5 -10.9 -10.9 -28.5 -10.9 -39.4 0 -11 10.9 -11 28.5 0 39.5 10.9 10.7 28.5 10.7 39.4 0zM437.5 62.5C678.7 62.5 875 258.8 875 500S678.7 937.5 437.5 937.5 0 741.2 0 500 196.3 62.5 437.5 62.5zm0 750C609.8 812.5 750 672.3 750 500S609.8 187.5 437.5 187.5 125 327.7 125 500s140.2 312.5 312.5 312.5z"/></svg>