<svg height="1000" width="1250" xmlns="http://www.w3.org/2000/svg"><path d="M1123.4 636.1c73.5 25.4 126.6 94.4 126.6 176.6 0 103.5 -84 187.5 -187.5 187.5H531.2c-103.5 0 -187.5 -84 -187.5 -187.5 0 -98.8 76.8 -178.9 173.7 -186.1 -.4 -5.7 -1.8 -11.2 -1.8 -17 0 -120.9 98.1 -218.8 218.8 -218.8 88.6 0 164.6 53.1 199 128.9 19.3 -12.1 42 -19.5 66.6 -19.5 68.9 0 125 56 125 125 0 3.7 -1.2 7.2 -1.6 10.9zM282.8 592c20.7 20.7 44.7 36.3 70.3 46.9C334.4 658 318.9 680.1 307 704.3l-148.6 49.4c-23.2 7.6 -45.3 -14.2 -37.5 -37.5l57.2 -171.5L16.4 463.9c-21.9 -11 -21.9 -42 0 -53l161.7 -81L120.9 158.4c-7.6 -23 14.5 -45.1 37.5 -37.5l171.7 57.2L410.9 16.4c11 -21.9 42.2 -21.9 53 0l81 161.7 171.5 -57.2c23.2 -7.6 45.3 14.3 37.5 37.5L695.7 332c-20.7 3 -40.8 7.5 -60 14.7 -10.5 -23.1 -24.6 -44.9 -43.5 -63.9 -85.4 -85.3 -224 -85.3 -309.4 0 -85.3 85.2 -85.3 223.8 0 309.2zm-9.4 -154.7c0 -90.4 73.7 -163.9 164.1 -163.9 66.4 0 123.6 39.9 149.4 96.7 -71.1 44 -121.1 118.6 -131.6 205.1 -17.4 5.7 -33.6 13.7 -49.2 22.8C330.7 583.4 273.4 517 273.4 437.3z"/></svg>