<svg height="1000" width="1125" xmlns="http://www.w3.org/2000/svg"><path d="M997.1 440.4c72.8 13.3 127.9 76.8 127.9 153.4 0 86.3 -69.9 156.2 -156.2 156.2h-500C382.4 750 312.5 680.1 312.5 593.8c0 -75.8 53.9 -138.7 125.4 -153.2 0 -1 -.4 -2.1 -.4 -3.1C437.5 334 521.5 250 625 250c62.7 0 117.8 31.1 151.8 78.1 20.3 -9.7 42.9 -15.6 67 -15.6 76.5 0 139.8 55.3 153.3 127.9zm-754.7 67.2c6 6.1 12.9 11 19.9 16.2 -7.6 22.3 -12.1 45.7 -12.1 70.1 0 4.9 1 9.4 1.4 14.1l-115.7 38.5C116 652.9 97.1 634.2 103.7 614.3l49 -147.1L14.1 397.9c-18.8 -9.4 -18.8 -36.2 0 -45.6L152.7 283l-49 -147.1c-6.6 -19.9 12.1 -38.8 32 -32.2l147.1 49L352.1 14.1c9.4 -18.8 36.2 -18.8 45.6 0L467 152.7l147.1 -49c19.9 -6.6 38.8 12.1 32.2 32l-17.4 52.2c-1.4 0 -2.5 -.4 -3.9 -.4 -50 0 -96.1 15.2 -135.2 40.4C416.4 170.5 310 174.8 242.4 242.4c-73.1 73.2 -73.1 192.2 0 265.2zM378.7 394.3c-35.5 16.2 -65.4 41.6 -87.5 72.7C266 444.1 250 411.5 250 375c0 -68.9 56.1 -125 125 -125 24.2 0 46.9 7.2 66 19.3 -31.4 34.4 -53.9 77.2 -62.3 125zm645.7 422.3c15.1 8.6 20.1 27.5 11.7 42.6l-71.5 125c-5.8 10.1 -16.4 15.8 -27.1 15.8 -5.3 0 -10.5 -1.4 -15.4 -4.1C907 987.3 901.8 968.4 910.4 953.3l71.4 -125c8.6 -15.2 27.8 -20.1 42.6 -11.7zm-187.5 0c15.1 8.6 20.1 27.5 11.7 42.6l-71.5 125c-5.8 10.1 -16.4 15.8 -27.1 15.8 -5.3 0 -10.5 -1.4 -15.4 -4.1 -15.1 -8.6 -20.3 -27.5 -11.7 -42.6l71.4 -125c8.6 -15.2 27.8 -20.1 42.6 -11.7zm-187.5 0c15.1 8.6 20.1 27.5 11.7 42.6l-71.5 125c-5.8 10.1 -16.4 15.8 -27.1 15.8 -5.3 0 -10.5 -1.4 -15.4 -4.1C532 987.3 526.8 968.4 535.4 953.3l71.4 -125c8.6 -15.2 27.8 -20.1 42.6 -11.7zm-187.5 0c15.1 8.6 20.1 27.5 11.7 42.6l-71.5 125c-5.8 10.1 -16.4 15.8 -27.1 15.8 -5.3 0 -10.5 -1.4 -15.4 -4.1 -15.1 -8.6 -20.3 -27.5 -11.7 -42.6l71.4 -125c8.6 -15.2 27.8 -20.1 42.6 -11.7z"/></svg>