<svg height="1000" width="1000" xmlns="http://www.w3.org/2000/svg"><path d="M359.2 722.9c15 8.5 20.3 27.7 11.7 42.5l-125 218.8c-5.9 10.1 -16.4 15.8 -27.2 15.8 -5.2 0 -10.5 -1.4 -15.4 -4.1 -15 -8.4 -20.3 -27.5 -11.7 -42.6l125 -218.7c8.6 -15.3 27.7 -20.3 42.6 -11.7zm187.5 0c15 8.5 20.3 27.7 11.7 42.5l-125 218.8c-5.9 10.1 -16.4 15.8 -27.2 15.8 -5.2 0 -10.5 -1.4 -15.4 -4.1 -15 -8.4 -20.3 -27.5 -11.7 -42.6l125 -218.7c8.6 -15.3 27.7 -20.3 42.6 -11.7zm-375 0c15 8.5 20.3 27.7 11.7 42.5l-125 218.8C52.5 994.3 42 1000 31.3 1000c-5.3 0 -10.6 -1.4 -15.5 -4.1C.8 987.5 -4.5 968.4 4.1 953.3l125 -218.7c8.6 -15.3 27.7 -20.3 42.6 -11.7zm750 0c15 8.5 20.3 27.7 11.7 42.5l-125 218.8c-5.9 10.1 -16.4 15.8 -27.2 15.8 -5.2 0 -10.5 -1.4 -15.4 -4.1 -15 -8.4 -20.3 -27.5 -11.7 -42.6l125 -218.7c8.6 -15.3 27.7 -20.3 42.6 -11.7zm-187.5 0c15 8.5 20.3 27.7 11.7 42.5l-125 218.8c-5.9 10.1 -16.4 15.8 -27.2 15.8 -5.2 0 -10.5 -1.4 -15.4 -4.1 -15 -8.4 -20.3 -27.5 -11.7 -42.6l125 -218.7c8.6 -15.3 27.7 -20.3 42.6 -11.7zM812.5 250C916 250 1000 334 1000 437.5S916 625 812.5 625h-625C84 625 0 541 0 437.5c0 -83 54.3 -152.7 129.1 -177.3C126.6 246.7 125 233 125 218.8 125 97.9 223 0 343.7 0c84.6 0 157.1 48.4 193.4 118.7C565.8 84.6 608.2 62.5 656.2 62.5c86.4 0 156.3 69.9 156.3 156.3 0 10.9 -1 21.4 -3.1 31.6 1 0 1.9 -.4 3.1 -.4z"/></svg>