<svg height="1000" width="1125" xmlns="http://www.w3.org/2000/svg"><path d="M684.6 440.4c72.8 13.3 127.9 76.8 127.9 153.4 0 86.3 -69.9 156.2 -156.2 156.2h-500C69.9 750 0 680.1 0 593.8 0 518 53.9 454.9 125.4 440.6c0 -1 -.4 -2.1 -.4 -3.1C125 334 209 250 312.5 250c62.7 0 117.8 31.1 151.8 78.1 20.3 -9.7 42.9 -15.6 67 -15.6 76.5 0 139.8 55.3 153.3 127.9zm424.6 -3.3c12.1 -2.3 20.7 11.7 12.5 21.1 -52.8 64.7 -132.6 104.1 -219.9 104.1 -10.2 0 -19.8 -1.9 -29.7 -2.9C860 482.4 807.4 417.8 735 389.8 714.1 335.4 672.1 292.6 619.9 269.3 626.4 119.5 749.8 0 902 0c17.3 0 34.7 1.6 51.7 4.7 12.1 2.1 14.9 18.3 4.1 24.4C888.3 68.4 845.5 141.4 845.5 220.7c0 137.7 126.2 242.4 263.7 216.4zM711.9 816.6c15.1 8.6 20.1 27.5 11.7 42.6l-71.5 125c-5.8 10.1 -16.4 15.8 -27.1 15.8 -5.3 0 -10.5 -1.4 -15.4 -4.1 -15.1 -8.6 -20.3 -27.5 -11.7 -42.6l71.4 -125c8.6 -15.2 27.8 -20.1 42.6 -11.7zm-187.5 0c15.1 8.6 20.1 27.5 11.7 42.6l-71.5 125c-5.8 10.1 -16.4 15.8 -27.1 15.8 -5.3 0 -10.5 -1.4 -15.4 -4.1C407 987.3 401.8 968.4 410.4 953.3l71.4 -125c8.6 -15.2 27.8 -20.1 42.6 -11.7zm-187.5 0c15.1 8.6 20.1 27.5 11.7 42.6l-71.5 125c-5.8 10.1 -16.4 15.8 -27.1 15.8 -5.3 0 -10.5 -1.4 -15.4 -4.1 -15.1 -8.6 -20.3 -27.5 -11.7 -42.6l71.4 -125c8.6 -15.2 27.8 -20.1 42.6 -11.7zm-187.5 0c15.1 8.6 20.1 27.5 11.7 42.6l-71.5 125C83.8 994.3 73.2 1000 62.5 1000c-5.3 0 -10.5 -1.4 -15.4 -4.1C32 987.3 26.8 968.4 35.4 953.3l71.4 -125c8.6 -15.2 27.8 -20.1 42.6 -11.7z"/></svg>