<svg height="1000" width="1125" xmlns="http://www.w3.org/2000/svg"><path d="M669.5 688.9c79.9 6.8 143 73 143 154.9 0 86.3 -69.9 156.2 -156.2 156.2H187.5C84 1000 0 916 0 812.5 0 730.7 52.9 661.7 126.2 636.1 126 632.4 125 628.9 125 625c0 -103.5 84 -187.5 187.5 -187.5 70.7 0 131.6 39.6 163.5 97.5 22.4 -21.5 52.9 -35 86.5 -35 68.9 0 125 56.1 125 125 0 23.4 -6.8 45.1 -18 63.9zm434.6 -106.1c16 -3.1 27.3 15.6 17 28.3C1055.9 691.4 959.6 742 853.3 748.6 831.6 703.5 794.9 667 748.8 645.9c.8 -6.8 1.2 -13.9 1.2 -20.9C750 521.7 665.8 437.5 562.5 437.5c-24.8 0 -48.8 4.9 -71.1 14.1 -10 -10.4 -21.1 -19.4 -32.6 -27.8 -2.2 -16 -3.5 -32.2 -3.5 -48.8C455.3 167.8 623.2 0 830.1 0c22.8 0 45.7 2.1 68.5 6.2 16 3.2 19.8 24.7 5.5 32.7 -92 52.3 -148.6 149.6 -148.6 255.4 0 183.6 166.8 323.1 348.6 288.5z"/></svg>