<svg height="1000" width="1203.1" xmlns="http://www.w3.org/2000/svg"><path d="M290.2 593.8v.1h-95.5c-12.5 0 -22.8 -10.5 -22.8 -23V492c0 -14.9 13.6 -23.2 21.1 -23.2h91.4v12.8c0 20.9 17.2 32.7 38.1 32.7h39.4c21.1 0 38.1 -17.2 38.1 -38.1v-39.9c0 -20.7 -6.8 -38.1 -29.7 -38.1 36.1 -29.6 72.7 -41.8 87.9 -47 29.3 -110.4 82 -180.5 193.9 -214.3 107.7 -32.2 299.9 -6 364.3 166 144.3 44.2 208.8 180.9 179.9 303 -25.4 107.2 -121.7 196.4 -256.8 194.3 -96.9 100.4 -264.1 95.5 -364.1 10.9C421.9 819.3 306.3 727.5 290.2 593.8zm444.2 15.6C751.4 715 851 737.3 913.7 725c76.3 -15 137.7 -73.2 155.6 -149.4C1080.7 527.9 1074 477.9 1051 435l-20.5 -38.3c2.3 43.9 -24.4 118.3 -92.8 150.2 127.9 -132.3 4.1 -275.8 -132.2 -294C708.2 240 642.8 278.3 582.4 338.3c93.8 9.2 171.3 52.3 198.9 146.1C722.5 388.1 580.1 373.8 520.3 404.7 451 440.2 403.1 510.2 409 588.1c7 92.6 77.1 131.6 112.1 155.8 -8.8 -42.3 -7.8 -139.2 57 -181.4C507.2 679.7 633 844.9 842.4 778.9 776.8 750.8 713.5 699.8 734.4 609.4zM250 406.3h-77.7c-17.4 0 -31.7 -14.3 -31.7 -31.7v-77.3c0 -17.4 14.3 -31.7 31.7 -31.7H250c17.4 0 31.6 14.3 31.6 31.7v77.3c0 17.4 -14.2 31.7 -31.6 31.7zM19.7 328.1C8.8 328.1 0 319.3 0 308.4v-54.3c0 -10.9 8.8 -19.7 19.7 -19.7h54.1c10.8 0 19.8 8.8 19.8 19.7v54.3c0 10.9 -8.8 19.7 -19.8 19.7H19.7zm308.4 -49.4v-41.8c0 -9.9 8.2 -18.2 18.2 -18.2h41.8c9.9 0 18.1 8.3 18.1 18.2v41.8c0 10 -8.2 18.2 -18.1 18.2h-41.8c-10 0 -18.2 -8.2 -18.2 -18.2zM109.4 460v48.8c0 12.3 -10 22.5 -22.3 22.5H37.9c-12.3 0 -22.3 -10.2 -22.3 -22.5V460c0 -12.3 10 -22.5 22.3 -22.5h49c12.5 0 22.5 10.2 22.5 22.5z"/></svg>