<svg height="1000" width="1000" xmlns="http://www.w3.org/2000/svg"><path d="M812.5 250C916 250 1000 334 1000 437.5S916 625 812.5 625h-625C84 625 0 541 0 437.5c0 -83 54.3 -152.7 129.1 -177.3C126.6 246.7 125 233 125 218.8 125 97.9 222.9 0 343.7 0c84.6 0 157.1 48.4 193.4 118.7C565.8 84.6 608.2 62.5 656.2 62.5c86.4 0 156.3 69.9 156.3 156.3 0 10.9 -1 21.4 -3.1 31.6 1 0 1.9 -.4 3.1 -.4zM171.9 730.9c4.9 -16.6 26.9 -15.9 31.2 0 25 87.1 78.2 109.9 78.2 171.2 0 54.1 -42 97.9 -93.8 97.9S93.8 956.2 93.8 902.1c0 -61.1 53.1 -84.5 78.1 -171.2zm312.5 0c4.9 -16.6 26.9 -15.9 31.2 0 25 87.1 78.2 109.9 78.2 171.2 0 54.1 -42 97.9 -93.8 97.9s-93.7 -43.8 -93.7 -97.9c0 -61.1 53.1 -84.5 78.1 -171.2zm312.5 0c4.9 -16.6 26.9 -15.9 31.2 0 25 87.1 78.2 109.9 78.2 171.2 0 54.1 -42 97.9 -93.8 97.9s-93.7 -43.8 -93.7 -97.9c0 -61.1 53.1 -84.5 78.1 -171.2z"/></svg>