<svg height="1000" width="1250" xmlns="http://www.w3.org/2000/svg"><path d="M1050 442.6c114.1 23 200 124 200 244.9 0 138.1 -111.9 250 -250 250H281.3C126 937.5 0 811.5 0 656.3 0 533.6 78.5 429.3 187.9 390.8c-.2 -5.3 -.4 -10.5 -.4 -15.8C187.5 202.3 327.3 62.5 500 62.5c115.8 0 216.8 62.9 270.9 156.6 29.7 -19.9 65.6 -31.6 104.1 -31.6 103.5 0 187.5 84 187.5 187.5 0 23.8 -4.5 46.7 -12.5 67.6zM768.4 562.5c27.7 0 41.8 -33.6 22 -53.3L584.6 303.3c-12.1 -12.1 -32.1 -12.1 -44.2 0L334.6 509.2c-19.8 19.7 -5.9 53.3 22 53.3h127.8v218.8c0 17.1 14 31.2 31.2 31.2h93.8c17.2 0 31.2 -14.1 31.2 -31.2V562.5h127.8z"/></svg>