<svg height="1000" width="1000" xmlns="http://www.w3.org/2000/svg"><path d="M93.8 687.5c51.7 0 93.7 42 93.7 93.8S145.5 875 93.8 875 0 833 0 781.3s42 -93.8 93.8 -93.8zm812.5 0c51.7 0 93.7 42 93.7 93.8S958 875 906.3 875s-93.8 -42 -93.8 -93.7 42 -93.8 93.8 -93.8zm-232.5 21.7c26.4 13.7 45 40.4 45 72.1s-18.6 58.3 -45 72c9 28.3 3.3 60.2 -19.1 82.6 -16 16.1 -36.9 24.1 -58 24.1 -8.4 0 -16.6 -2.4 -24.6 -4.9C558.4 981.4 531.6 1000 500 1000s-58.4 -18.6 -72.1 -44.9c-8 2.7 -16.2 4.9 -24.6 4.9 -21.1 0 -42 -8 -58 -24.1C322.9 913.5 317 881.6 326 853.3c-26.4 -13.7 -44.9 -40.4 -44.9 -72s18.5 -58.4 44.9 -72.1c-8.8 -28.3 -3.1 -60.2 19.3 -82.6s54.3 -28.4 82.6 -19.4c13.7 -26.3 40.5 -44.9 72.1 -44.9s58.4 18.6 72.1 44.9c28.3 -8.8 60.1 -3.1 82.6 19.4 22.3 22.4 28.1 54.3 19.1 82.6zM1000 437.5C1000 541 916 625 812.5 625h-84.8c-6.8 -15.6 -16.4 -30.1 -28.9 -42.6 -26.3 -26.3 -61.5 -41.2 -99.2 -41.6C573.2 515 537.7 500 500 500s-73.2 15 -99.6 40.8c-37.7 .4 -72.9 15.3 -99.2 41.6 -12.5 12.5 -21.9 27 -28.9 42.6h-84.8C84 625 0 541 0 437.5c0 -83 54.3 -152.7 129.1 -177.3C126.6 246.7 125 233 125 218.8 125 97.9 222.9 0 343.7 0c84.6 0 157.1 48.4 193.4 118.7C565.8 84.6 608.2 62.5 656.2 62.5c86.4 0 156.3 69.9 156.3 156.3 0 10.9 -1 21.4 -3.1 31.6 1 0 1.9 -.4 3.1 -.4C916 250 1000 334 1000 437.5z"/></svg>