<svg height="1000" width="1125" xmlns="http://www.w3.org/2000/svg"><path d="M578.1 906.3c43.2 0 78.2 34.9 78.2 78.1 0 8.6 -7 15.6 -15.7 15.6H171.9c-8.7 0 -15.6 -7 -15.6 -15.6 0 -43.2 34.9 -78.1 78.1 -78.1h109.4V661.7L14.2 332.1C-16.1 301.8 5.3 250 48.2 250h716.1c42.9 0 64.3 51.8 34 82.1L468.8 661.7v244.6h109.3zM843.8 0C999.1 0 1125 125.9 1125 281.3S999.1 562.5 843.8 562.5c-53.6 0 -103.1 -15.8 -145.7 -41.8L767 451.9c23.4 10.6 49.3 16.8 76.8 16.8 103.3 0 187.5 -84.1 187.5 -187.5S947.1 93.7 843.8 93.7c-69.1 0 -128.9 38 -161.5 93.8H579.7C618.5 78.5 721.5 0 843.8 0z"/></svg>