<svg height="1000" width="750" xmlns="http://www.w3.org/2000/svg"><path d="M750 281.3c0 68.7 -44.5 127.1 -106.3 148.2 -.9 54.9 -14.8 98.6 -42.1 132.6 -55.1 68.4 -148.5 77.2 -230.9 84.8 -50.2 4.7 -97.5 9 -129.1 25 -13.9 7 -23 16 -29.1 26.1 58.6 22.5 100 79.3 100 145.8 0 86.3 -69.9 156.2 -156.2 156.2S0 930.1 0 843.8c0 -70 45.9 -129.2 109.4 -149.3V305.3C45.9 285.4 0 226.2 0 156.2 0 69.9 69.9 0 156.3 0s156.2 69.9 156.2 156.2c0 70 -45.9 129.2 -109.4 149.1v281.2c46.7 -22.4 103.7 -27.9 158.8 -33 70.1 -6.4 136.3 -12.7 166.4 -50.2 13.3 -16.4 20.3 -40.6 21.5 -72.1C485 412.3 437.5 352.3 437.5 281.2 437.5 194.9 507.4 125 593.8 125S750 194.9 750 281.2zM156.3 125c-17.2 0 -31.3 14.1 -31.3 31.3s14.1 31.2 31.3 31.2 31.2 -14.1 31.2 -31.2S173.4 125 156.3 125zm0 750c17.1 0 31.2 -14.1 31.2 -31.2s-14.1 -31.3 -31.2 -31.3S125 826.6 125 843.8s14.1 31.2 31.3 31.2zM593.8 250c-17.2 0 -31.3 14.1 -31.3 31.3s14.1 31.2 31.3 31.2S625 298.4 625 281.3 610.9 250 593.8 250z"/></svg>