<svg height="1000" width="1000" xmlns="http://www.w3.org/2000/svg"><path d="M981 311.9c11.7 7.8 19 21.8 19 35.7v304.7c0 14 -7.3 27.9 -19 35.7L524 992.8c-15.7 9.7 -32.4 9.6 -48 0L19 688C7.3 680.2 0 666.3 0 652.3V347.6c0 -13.9 7.3 -27.9 19 -35.7L476 7.2c15.7 -9.7 32.4 -9.6 48 0zM543 123.3v200.3l186.4 124.5L879.5 347.6zm-86 0L120.5 347.6l150.1 100.5L457 323.6V123.3zM85.9 428v144l107.7 -72zM457 876.7V676.3L270.6 551.9 120.5 652.3zm43 -275.2L651.8 500 500 398.4 348.2 500zm43 275.2L879.5 652.3 729.4 551.9 543 676.3v200.4zM914.1 572V428l-107.7 72z"/></svg>