<svg height="1000" width="921.9" xmlns="http://www.w3.org/2000/svg"><path d="M825.2 396.3c60 0 65.4 103.7 -.6 103.7h-21.1v86.5h-51.9V396.3h73.6zm96.7 292.4C839.6 868.2 684.4 984.4 484.4 984.4 216.8 984.4 0 767.6 0 500S216.8 15.6 484.4 15.6c190.2 0 337.5 104.9 426.1 270.3L547.3 498.4zm-75.2 24.4l-117.8 -60C676 739.6 591.4 792.6 489.8 792.6 328.7 792.6 198.4 662.3 198.4 501.8c0 -161.2 130.3 -291.4 291.4 -291.4 94.6 0 173.7 45.9 228.4 123.8l116.2 -67.6C754.9 144.3 629.9 71.3 484.4 71.3 247.7 71.3 55.7 263.3 55.7 500s192 428.7 428.7 428.7c153.5 0 286.1 -82.2 362.3 -215.6z"/></svg>