<svg height="1000" width="1000" xmlns="http://www.w3.org/2000/svg"><path d="M952 616.6c9.5 5.5 13.8 16.8 10.9 27.5A483.47 483.47 0 0 1 856.1 828.9c-7.5 8.2 -19.4 10 -29 4.5l-83.2 -48c-35.1 29.8 -75.3 53.1 -118.7 68.5V950c0 10.9 -7.6 20.5 -18.4 22.9 -68.1 15.2 -141.6 16 -213.2 0 -10.8 -2.4 -18.4 -12 -18.4 -22.9v-96.1C331.6 838.7 291.4 815.4 256.4 785.4l-83.2 48c-9.3 5.5 -21.4 3.5 -28.9 -4.5C96.1 776.6 59.2 713.7 37.5 644.1c-3.1 -10.5 1.2 -21.8 10.7 -27.3l83.2 -48C123 523.4 123 477 131.4 431.6l-83.2 -48c-9.5 -5.5 -14 -16.8 -10.7 -27.3A483.47 483.47 0 0 1 144.3 171.5c7.5 -8.2 19.4 -10 28.9 -4.5l83.1 48c35.1 -29.8 75.3 -53.1 118.7 -68.5V50.4c0 -10.9 7.6 -20.5 18.4 -22.9 68.1 -15.2 141.6 -16 213.2 0 10.8 2.4 18.4 12 18.4 22.9v95.9c43.6 15.2 83.8 38.5 118.7 68.5l83.3 -48c9.3 -5.5 21.4 -3.5 28.9 4.5 48.2 52.3 85.1 115.2 106.8 184.8 3.1 10.5 -1.2 21.8 -10.7 27.3l-83.3 48c8.4 45.4 8.4 91.8 0 137.2zm-452 39.7c86.1 0 156.3 -70.2 156.3 -156.3S586.1 343.8 500 343.8 343.8 413.9 343.8 500 413.9 656.3 500 656.3z"/></svg>