<svg height="1000" width="1250" xmlns="http://www.w3.org/2000/svg"><path d="M1000.2 373l-16 28c-5.9 10.3 -18.4 14.6 -29.5 10.5C931.6 402.9 910.5 390.6 892 375.2c-9 -7.4 -11.3 -20.5 -5.5 -30.7l16 -27.9c-13.4 -15.6 -24 -33.8 -31 -53.5h-32.2c-11.8 0 -21.9 -8.4 -23.9 -20.1 -3.9 -23.5 -4.1 -48.1 0 -72.5 2 -11.7 12.1 -20.3 23.9 -20.3h32.2c7 -19.7 17.6 -37.9 31 -53.5l-16 -27.9C880.7 58.6 882.8 45.5 892 38.1 910.5 22.7 931.8 10.4 954.7 1.8c11.1 -4.1 23.6 .2 29.5 10.5l16 27.9c20.5 -3.7 41.4 -3.7 61.9 0l16 -27.9C1084 2 1096.5 -2.3 1107.6 1.8c23.1 8.6 44.2 20.9 62.7 36.3 9 7.4 11.3 20.5 5.5 30.7l-16 27.9c13.4 15.6 24 33.8 31 53.5h32.2c11.8 0 21.9 8.4 23.9 20.1 3.9 23.5 4.1 48.1 0 72.5 -2 11.7 -12.1 20.3 -23.9 20.3h-32.2c-7 19.7 -17.6 37.9 -31 53.5l16 27.9c5.8 10.2 3.7 23.3 -5.5 30.7 -18.5 15.4 -39.8 27.7 -62.7 36.3 -11.1 4.1 -23.6 -.2 -29.5 -10.5l-16 -28c-20.3 3.8 -41.4 3.8 -61.9 0zM979.7 258.2c75.2 57.8 160.9 -27.9 103.1 -103.1C1007.6 97.1 921.9 183 979.7 258.2zM754.5 558.8l65.8 32.8c19.7 11.3 28.3 35.4 20.5 56.8 -17.4 47.3 -51.5 90.7 -83.2 128.6 -14.4 17.3 -39.4 21.6 -59.2 10.3l-56.8 -32.8c-31.2 26.8 -67.6 48 -107.2 61.9V882c0 22.7 -16.2 42.2 -38.5 46.1 -48 8.2 -98.4 8.6 -148.2 0C325.2 924.2 308.6 904.9 308.6 882v-65.6c-39.7 -14.1 -76 -35.1 -107.2 -61.9l-56.9 32.6c-19.5 11.3 -44.7 7 -59.1 -10.3C53.7 738.9 20.3 695.5 2.9 648.4c-7.8 -21.3 .8 -45.3 20.5 -56.8l65.1 -32.8C80.9 518 80.9 476 88.5 435L23.4 402C3.7 390.6 -5.1 366.6 2.9 345.3 20.3 298 53.7 254.7 85.4 216.8c14.4 -17.4 39.4 -21.7 59.1 -10.4l56.9 32.9c31.2 -26.8 67.5 -48.1 107.2 -62v-65.8c0 -22.4 16 -42 38.3 -45.9 48 -8.2 98.6 -8.6 148.4 -.2 22.5 3.9 39.1 23.3 39.1 46.1v65.6c39.6 14.1 76 35.2 107.2 62l56.8 -32.9c19.6 -11.3 44.8 -7 59.2 10.4 31.7 37.9 64.9 81.3 82.2 128.5 7.9 21.3 .2 45.3 -19.5 56.9l-65.8 32.8c7.6 41 7.6 83 0 124zM524.8 600C640.4 449.6 468.7 277.9 318.4 393.6c-115.7 150.3 56 322 206.4 206.4zm475.4 356.8l-16 28c-5.9 10.3 -18.4 14.6 -29.5 10.5C931.6 986.7 910.5 974.4 892 959c-9 -7.4 -11.3 -20.5 -5.5 -30.7l16 -27.9c-13.4 -15.6 -24 -33.8 -31 -53.5h-32.2c-11.8 0 -21.9 -8.4 -23.9 -20.1 -3.9 -23.5 -4.1 -48.1 0 -72.5 2 -11.7 12.1 -20.3 23.9 -20.3h32.2c7 -19.7 17.6 -37.9 31 -53.5l-16 -28c-5.8 -10.1 -3.7 -23.2 5.5 -30.6 18.5 -15.5 39.8 -27.8 62.7 -36.4 11.1 -4.1 23.6 .2 29.5 10.6l16 27.9c20.5 -3.7 41.4 -3.7 61.9 0l16 -27.9c5.9 -10.4 18.4 -14.7 29.5 -10.6 23.1 8.6 44.2 20.9 62.7 36.4 9 7.4 11.3 20.5 5.5 30.6l-16 28c13.4 15.6 24 33.8 31 53.5h32.2c11.8 0 21.9 8.4 23.9 20.1 3.9 23.4 4.1 48 0 72.5 -2 11.7 -12.1 20.3 -23.9 20.3h-32.2c-7 19.7 -17.6 37.9 -31 53.5l16 27.9c5.8 10.2 3.7 23.3 -5.5 30.7 -18.5 15.4 -39.8 27.7 -62.7 36.3 -11.1 4.1 -23.6 -.2 -29.5 -10.5l-16 -28c-20.3 3.7 -41.4 3.7 -61.9 0zm-20.5 -115c75.2 57.8 160.9 -27.9 103.1 -103.1 -75.2 -57.8 -160.9 27.9 -103.1 103.1z"/></svg>