<svg height="1000" width="1000" xmlns="http://www.w3.org/2000/svg"><path d="M0 791.6C80.7 848.4 228.1 875 375 875s294.3 -26.6 375 -83.4V875c0 68.9 -168 125 -375 125S0 943.9 0 875v-83.4zM625 250C418 250 250 193.9 250 125S418 0 625 0s375 56.1 375 125S832 250 625 250zM0 586.7c80.7 66.4 228.3 100.8 375 100.8S669.3 653.1 750 586.7v100.8c0 68.9 -168 125 -375 125S0 756.4 0 687.5V586.7zm812.5 21.5V484c75.6 -13.5 142.2 -35.4 187.5 -67.4V500c0 46.3 -75.6 86.5 -187.5 108.2zM375 312.5c207 0 375 69.9 375 156.3S582 625 375 625 0 555.1 0 468.8 168 312.5 375 312.5zm428.3 110C786.1 376.2 743.8 338.7 686.1 310.7c125.4 -6.2 244.6 -32.6 313.9 -81.6v83.4c0 47.5 -79.5 88.9 -196.7 110z"/></svg>