<svg height="1000" width="1125" xmlns="http://www.w3.org/2000/svg"><path d="M812.5 375c0 172.7 -181.8 312.5 -406.2 312.5 -80.1 0 -154.5 -18.2 -217.4 -48.8C146.3 663.5 87.1 687.5 15.6 687.5 9.4 687.5 3.9 684 1.4 678.1S0 665.6 4.3 661.1c.6 -.6 43.7 -47.4 69.9 -106.4C27.5 503.7 0 442 0 375 0 202.3 181.8 62.5 406.2 62.5S812.5 202.3 812.5 375zm238.3 429.7c26.2 59.2 69.3 105.8 69.9 106.4 4.3 4.7 5.5 11.4 2.9 17 -2.3 5.7 -8 9.4 -14.2 9.4 -71.5 0 -130.7 -24 -173.3 -48.8 -62.9 30.8 -137.3 48.8 -217.4 48.8 -168.3 0 -312.8 -78.9 -374.4 -191.2 20.3 2.1 40.9 3.7 62 3.7C664.6 750 875 581.8 875 375c0 -13.3 -.8 -26.4 -2.5 -39.3 148 46.7 252.5 158.6 252.5 289.3 0 67 -27.5 128.9 -74.2 179.7z"/></svg>