<svg height="1000" width="1000" xmlns="http://www.w3.org/2000/svg"><path d="M500 62.5c276.2 0 500 181.9 500 406.3S776.2 875 500 875h-.9C439.5 875 346 858 290.2 837.1 242.2 875.5 145 937.5 15.6 937.5 7 937.5 0 930.5 0 921.9c0 -3.5 1.9 -8.3 4.3 -10.8 1 -.9 82.5 -88.7 107 -187C41.8 654.3 0 565.5 0 468.8 0 244.4 223.9 62.5 500 62.5zm187.5 453.1v-93.7c0 -8.7 -7 -15.6 -15.6 -15.6H562.5V296.9c0 -8.7 -7 -15.6 -15.6 -15.6h-93.8c-8.6 0 -15.6 6.9 -15.6 15.6v109.4H328.1c-8.6 0 -15.6 6.9 -15.6 15.6v93.7c0 8.7 7 15.7 15.6 15.7h109.4v109.3c0 8.7 7 15.7 15.6 15.7h93.8c8.6 0 15.6 -7 15.6 -15.7V531.3h109.4c8.6 0 15.6 -7 15.6 -15.7z"/></svg>