<svg height="1000" width="1250" xmlns="http://www.w3.org/2000/svg"><path d="M125 468.8c0 -36.4 6.4 -71.3 17.4 -104.7l635.7 491.4C729.9 868 678.5 875 625 875c-75 0 -145.9 -13.9 -209.8 -37.9 -48 38.3 -145.1 100.4 -274.6 100.4 -6.2 0 -11.7 -3.7 -14.2 -9.4a15.437 15.437 0 0 1 2.9 -17c1 -1.1 82.4 -88.8 107 -187.1C166.8 654.3 125 565.6 125 468.8zm1112.9 425.9c13.7 10.6 16.2 30.3 5.7 43.6l-38.3 49.4c-10.8 13.7 -30.3 16 -44 5.5L12.1 105.1C-1.6 94.5 -3.9 75 6.6 61.3L44.9 12.1c10.8 -13.7 30.3 -16 44 -5.5l205.2 158.8C382.4 101.8 497.9 62.5 625 62.5c276.2 0 500 181.8 500 406.3 0 96 -41.8 183.7 -110.5 253.3z"/></svg>