<svg height="1000" width="1000" xmlns="http://www.w3.org/2000/svg"><path d="M500 62.5c276.1 0 500 181.9 500 406.3S776.1 875 500 875c-75 0 -145.9 -13.8 -209.8 -37.9C242.2 875.5 145 937.5 15.6 937.5 7 937.5 0 930.5 0 921.9c0 -3.5 1.9 -8.3 4.3 -10.8 1 -1 82.5 -88.7 107.1 -187C41.8 654.3 0 565.5 0 468.8 0 244.4 223.9 62.5 500 62.5zm46.9 590.7c59.1 -7.1 104.2 -60.5 96.3 -123.1C637.5 485.2 602.9 449.4 559.4 437l-97.8 -28c-7 -2 -12 -8.5 -12 -15.8 0 -9.1 7.4 -16.4 16.5 -16.4H530.3c5.7 0 14.7 1.9 19.9 4.3 9.4 4.3 20.2 3.3 27.6 -4L612 342.9c10.3 -10.3 9.1 -27.9 -3.1 -35.9 -18.5 -12.2 -39.7 -19.7 -62 -22.4V250c0 -17.3 -14 -31.3 -31.3 -31.3h-31.2c-17.3 0 -31.3 14 -31.3 31.3v34.3c-59.1 7 -104.2 60.5 -96.3 123.1 5.7 44.9 40.3 80.7 83.8 93.1l97.8 28c7 2 12 8.5 12 15.8 0 9.1 -7.4 16.4 -16.5 16.4h-64.1c-7 0 -13.8 -1.4 -20 -4.3 -9.4 -4.3 -20.2 -3.3 -27.6 4L388 594.6c-10.3 10.3 -9.1 27.9 3.1 35.9 18.5 12.2 39.7 19.7 62 22.4v34.6c0 17.3 14 31.2 31.3 31.2h31.2c17.3 0 31.3 -13.9 31.3 -31.2v-34.3z"/></svg>