<svg height="1000" width="875" xmlns="http://www.w3.org/2000/svg"><path d="M851.6 375H609.4c-26 0 -46.9 -20.9 -46.9 -46.9V85.9C562.5 73 573 62.5 585.9 62.5h78.2c12.9 0 23.4 10.5 23.4 23.4V250h164.1c12.9 0 23.4 10.5 23.4 23.4v78.2c0 12.9 -10.5 23.4 -23.4 23.4zM312.5 328.1c0 26 -20.9 46.9 -46.9 46.9H23.4C10.5 375 0 364.5 0 351.6v-78.2C0 260.5 10.5 250 23.4 250h164.1V85.9C187.5 73 198 62.5 210.9 62.5h78.2c12.9 0 23.4 10.5 23.4 23.4v242.2zm0 586c0 12.9 -10.5 23.4 -23.4 23.4h-78.2c-12.9 0 -23.4 -10.5 -23.4 -23.4V750H23.4C10.5 750 0 739.5 0 726.6v-78.2C0 635.5 10.5 625 23.4 625h242.2c26 0 46.9 20.9 46.9 46.9v242.2zm375 0c0 12.9 -10.5 23.4 -23.4 23.4h-78.2c-12.9 0 -23.4 -10.5 -23.4 -23.4V671.9c0 -26 20.9 -46.9 46.9 -46.9h242.2c12.9 0 23.4 10.5 23.4 23.4v78.2c0 12.9 -10.5 23.4 -23.4 23.4H687.5v164.1z"/></svg>