<svg height="1000" width="1000" xmlns="http://www.w3.org/2000/svg"><path d="M390.6 562.5c26 0 46.9 20.9 46.9 46.9v218.7c0 41.8 -50.4 62.7 -79.9 33.2l-60.7 -64.4 -194 193.9c-12.1 12.1 -32 12.1 -44.1 0L9.2 941.2c-12.1 -12.1 -12.1 -32 0 -44.1l193.7 -194 -64.2 -60.5c-29.5 -29.7 -8.6 -80.1 33.2 -80.1h218.7zm218.8 -125c-26 0 -46.9 -20.9 -46.9 -46.9V171.9c0 -41.8 50.4 -62.7 79.9 -33.2l60.7 64.4L897.1 9.2c12.1 -12.1 32 -12.1 44.1 0l49.6 49.6c12.1 12.1 12.1 32 0 44.1l-193.9 194 64.4 60.5c29.5 29.5 8.6 80.1 -33.2 80.1H609.4zm187.5 265.6l193.9 194.2c12.1 12.1 12.1 32 0 44.1L941.2 991c-12.1 12.1 -32 12.1 -44.1 0l-194 -193.9 -60.5 64.2c-29.5 29.5 -80.1 8.6 -80.1 -33.2V609.4c0 -26 20.9 -46.9 46.9 -46.9h218.7c41.8 0 62.7 50.4 33.2 79.9zM357.4 138.9c29.5 -29.5 80.1 -8.6 80.1 33v218.7c0 26 -20.9 46.9 -46.9 46.9H171.9c-41.8 0 -62.7 -50.4 -33.2 -79.9l64.4 -60.7L9.2 102.9C-2.9 90.8 -2.9 70.9 9.2 58.8L58.8 9.2c12.1 -12.1 32 -12.1 44.1 0l194 193.9z"/></svg>