<svg height="1000" width="875" xmlns="http://www.w3.org/2000/svg"><path d="M9.2 834.6l193.9 -194L138.8 580c-29.5 -29.5 -8.6 -80 33.2 -80h218.7c25.9 0 46.8 21 46.8 46.9v218.7c0 41.8 -50.4 62.7 -79.9 33.2l-60.7 -64.4 -194 193.9c-12.2 12.2 -32 12.2 -44.2 0L9.2 878.8c-12.3 -12.2 -12.3 -32 0 -44.2zM865.8 165.4l-193.9 194 64.3 60.6c29.5 29.5 8.6 80 -33.2 80H484.3c-25.9 0 -46.8 -21 -46.8 -46.9V234.4c0 -41.8 50.4 -62.7 79.9 -33.2l60.7 64.4 194 -193.9c12.2 -12.2 32 -12.2 44.2 0l49.5 49.5c12.2 12.2 12.2 32 0 44.2z"/></svg>