<svg height="1000" width="1000" xmlns="http://www.w3.org/2000/svg"><path d="M4.5 805.1C87.1 674.4 249 349.6 733.2 585.2c77.5 37.3 163.5 77.9 206.8 98.2 15.7 7.2 22.9 25.8 15.9 41.6l-98.5 222.9c-.2 .1 -.2 .5 -.4 .7 -7.6 15.9 -26.5 22.7 -42.4 15.1C423.2 777.7 397.1 745.9 266 965c0 0 -.2 .2 -.2 .4 -9.2 15.1 -28.7 19.6 -43.7 10.4L15.2 848.4C.4 839.3 -4.3 819.9 4.5 805.1zm991 -609.6C912.3 327.3 750.6 650.4 266.2 416 188.7 378.5 102.5 337.9 59.2 317.6 43.6 310.4 36.3 291.8 43.4 276L142 53.1c.2 -.2 .2 -.6 .4 -.8 7.6 -15.8 26.5 -22.6 42.4 -15 389.6 185 416.6 218.2 548 -1.8 .4 -.7 .8 -1.3 1.2 -1.9 9.8 -14.7 29.5 -18.4 44.1 -8.6l206.7 127.1c14.8 9.2 19.5 28.6 10.7 43.4z"/></svg>