<svg height="1000" width="1125" xmlns="http://www.w3.org/2000/svg"><path d="M1075.2 470.7c13.1 2.6 23 14.7 23 28.8 0 14.6 -10.4 26.7 -24 29.3L966.9 715c1.1 3.2 1.6 6.3 1.6 9.4 0 14.2 -10 26.2 -23.6 28.8L844 929.5c1 2.6 1.5 5.2 1.5 8.4 0 16.2 -13.1 29.8 -29.8 29.8 -8.4 0 -16.2 -3.7 -21.4 -9.4H585c-5.2 6.3 -13.6 10.4 -22.5 10.4S545.2 964.6 540 958.3H331.3c-5.3 6.3 -13.1 10.5 -22.5 10.5 -16.2 0 -29.9 -13.1 -29.9 -29.9 0 -3.6 1.1 -7.3 2.1 -10.4L180.1 753.2c-13.6 -2.6 -23.6 -14.6 -23.6 -28.8 0 -3.6 .5 -6.2 1.6 -9.4L50.3 528.8C36.7 525.6 26.8 513.6 26.8 499.5c0 -14.7 10.4 -26.7 24.6 -29.3l104.1 -180c0 -1 -.5 -2.1 -.5 -3.1 0 -12.1 7.3 -22 17.7 -26.7L282.1 70.5C281 67.9 280 64.2 280 61.1c0 -16.8 13.6 -29.8 29.8 -29.8 9.4 0 17.3 4.1 23 10.9H540c5.2 -6.8 13.1 -10.9 22.5 -10.9s17.3 4.1 22.5 10.9h208.2c5.8 -6.8 13.6 -11 23 -11 16.2 0 29.8 13.1 29.8 29.9 0 3.1 -1 6.2 -2 9.4l108.3 187.3c15.6 .5 28.7 13.6 28.7 29.3 0 5.2 -1.5 9.9 -3.6 14.1zM299.9 880.3v-148h-85.3zm0 -163.7v-98.9L212 710.3c1 2.1 2.1 4.2 2.6 6.3h85.3zm0 -121.9V413.2L202 311.7c-4.7 3.1 -9.9 4.7 -15.1 5.2L85.4 492.7c.5 2.1 .5 4.2 .5 6.8 0 2.6 0 5.2 -1 7.8l108.8 188.4c2.6 .5 5.2 2.1 7.8 3.1zm0 -199.9V254.1L214.1 285c0 .5 .5 1.6 .5 2.1 0 5.7 -1.6 11 -4.2 15.1zm0 -157.4V120.7l-85.3 147.5zm637.7 76.4l-.5 -.6L745.6 511.5l124.5 131.3 69.1 -326.4zM569.8 693.6l-21.9 23h44.4zm-.5 -22L724.2 511 562 339.9 406.6 504.7zm10.5 11.5l32.9 33.5h242.2l11.6 -54.9L734.6 522.5zM801.6 86.7L573 328.9 735.1 500 925.6 302.2c-2.6 -4.1 -4.2 -9.4 -4.2 -15.1V286L808.4 89.3c-2.6 -.5 -4.7 -1.5 -6.8 -2.6zm-17.8 -4.2h-8.4L450.5 199.7 562 317.4zm-241.2 0h-203L439 187.2 728.9 82.5H582.4c-5.3 5.2 -12.1 8.4 -19.9 8.4s-14.7 -3.2 -19.9 -8.4zm-227 11v138.1l107.2 -38.7L322.9 87.8c-1.4 .4 -3.8 1.1 -5.2 1.5zm0 154.9v162.7l80 82.1L551 328.9 434.3 205.5zm0 181V578l71.1 -74.9zm0 171.6v115.6h210.3l33.5 -34.5 -161.7 -168zm13.6 316.5h2.6L510.7 732.3H315.6v175.2l2.1 3.2c4.7 1.6 8.3 3.6 11.5 6.8zm253.7 0h203.5L607.5 732.3h-74.8L353.8 917.5h188.3c5.2 -4.7 12.6 -8.4 20.4 -8.4s15.2 3.7 20.4 8.4zm234.4 -23l34 -162.2H627.9l174.2 179.4c2.1 -1 4.2 -2.1 6.8 -2.6zM842.4 851l68 -118.7h-42.9zm68 -134.4c.5 -2.1 1.6 -4.2 2.6 -5.8l-33.5 -35.5 -8.9 41.3h39.8zm129.2 -209.8c-.5 -2.6 -1 -4.7 -1 -7.3 0 -3.2 1 -5.8 1.5 -8.4L950.7 336.3l-67.5 320.1 40.3 42.9c2.6 -1.5 5.2 -2.6 7.8 -3.6z"/></svg>