<svg height="1000" width="1000" xmlns="http://www.w3.org/2000/svg"><path d="M88.7 595.7c28.1 131.1 51.5 252 133.2 341.8H66.4C29.9 937.5 0 907.8 0 871.1V128.9C0 92.4 29.7 62.5 66.4 62.5h112.7c-27 24.6 -51 53.1 -72.1 85.2C18.4 284.4 54.3 434.4 88.7 595.7zM933.6 62.5c36.7 0 66.4 29.7 66.4 66.4v742.4c0 36.7 -29.9 66.4 -66.4 66.4H831.8c75.6 -75 118.4 -179.9 112.1 -319.5L675.6 676c-3.3 63.5 -25.2 124.6 -112.1 142.9 -48.7 10.4 -88.7 -1.1 -113.9 -22.8C418.8 769.7 394.1 735.5 352.9 539.8c-41.8 -196.2 -33.2 -237.5 -16 -274 14.3 -29.9 46.3 -57.2 94.4 -67.6 87.5 -18.3 132.2 29.1 161.3 85.8l267.8 -57.2C834 159.2 799.2 104.3 757.4 62.5h176.2z"/></svg>