<svg height="1000" width="1000" xmlns="http://www.w3.org/2000/svg"><path d="M997.1 499.6c8 53.4 -.7 108 -25.2 156.1l-68.6 134.6c-21 41.2 -71.6 91.8 -112.8 112.9l-135.1 68.7c-48.4 24.7 -103.5 33.5 -157.2 25L348.3 973.1C302.7 965.9 239 933.5 206.3 900.7L99.4 793.8C66.5 761 34 697.1 26.8 651.3L3.2 502.3C1.4 491.2 0 473.1 0 461.8c0 -34.3 12.6 -87 28.2 -117.6L96.8 209.7c21 -41.3 71.6 -91.9 112.8 -112.9L344.7 28C392.7 3.5 447.1 -5.1 500.4 2.9c1.7 136.7 112.6 247 249.7 247 0 137.1 110.3 248.1 247 249.7zM343.8 718.8c34.5 0 62.5 -28 62.5 -62.5s-28 -62.5 -62.5 -62.5 -62.5 27.9 -62.5 62.5 27.9 62.5 62.5 62.5zm62.5 -312.5c34.5 0 62.5 -28 62.5 -62.5s-28 -62.5 -62.5 -62.5 -62.5 27.9 -62.5 62.5 27.9 62.5 62.5 62.5zm312.5 250c34.5 0 62.5 -28 62.5 -62.5s-28 -62.5 -62.5 -62.5 -62.5 27.9 -62.5 62.5 27.9 62.5 62.5 62.5z"/></svg>