<svg height="1000" width="1000" xmlns="http://www.w3.org/2000/svg"><path d="M996.8 497.6c8.6 54.1 -.2 109.4 -25 158.2l-68.6 134.5c-21 41.2 -71.6 91.8 -112.8 112.9l-135 68.7c-48.5 24.7 -103.6 33.5 -157.3 24.9L348.3 973.1C302.6 965.9 239 933.5 206.3 900.8l-107 -107C66.5 761 34 697.2 26.7 651.3L3.1 502.4C1.4 491.3 0 473.1 0 461.9c0 -34.3 12.6 -87 28.2 -117.6L96.7 209.8c21.1 -41.3 71.6 -91.9 112.9 -112.9l135 -68.8C393.1 3.4 448.1 -5.3 501.9 3.2l149.8 23.7c53.7 8.5 103.5 33.9 142 72.4l106.9 106.9c32.9 32.8 65.4 96.7 72.6 142.5zm-653 221.2c34.5 0 62.5 -28 62.5 -62.5s-28 -62.5 -62.5 -62.5 -62.5 27.9 -62.5 62.5 27.9 62.5 62.5 62.5zm62.5 -312.5c34.5 0 62.5 -28 62.5 -62.5s-28 -62.5 -62.5 -62.5 -62.5 27.9 -62.5 62.5 27.9 62.5 62.5 62.5zm312.5 250c34.5 0 62.5 -28 62.5 -62.5s-28 -62.5 -62.5 -62.5 -62.5 27.9 -62.5 62.5 27.9 62.5 62.5 62.5z"/></svg>