<svg height="1000" width="1000" xmlns="http://www.w3.org/2000/svg"><path d="M500 15.6c267.5 0 484.4 216.9 484.4 484.4S767.5 984.4 500 984.4 15.6 767.5 15.6 500 232.5 15.6 500 15.6zm228.8 677.3c3.1 -3.6 5.6 -10.5 5.6 -15.2 0 -4.2 -2 -10.4 -4.5 -13.9l-48 -65.5c-8.7 -11.9 -26.1 -13 -36.1 -2.1 -.5 .6 -52.5 55.9 -128 55.9 -95.3 0 -145.1 -78.3 -145.1 -155.6 0 -83 54.3 -148.6 144.3 -148.6 69.1 0 120.4 46.2 120.9 46.6 10.7 9.9 27.7 7.8 35.6 -4.5l43.7 -67.7c2.1 -3.2 3.8 -8.9 3.8 -12.7 0 -5 -2.8 -12.1 -6.2 -15.8 -2.8 -3.1 -71.2 -76 -202 -76C353.1 217.8 232 339.1 232 497.9c0 160.7 116.8 284.3 282.2 284.3 136.9 0 211.5 -85.7 214.6 -89.3z"/></svg>