<svg height="1000" width="1000" xmlns="http://www.w3.org/2000/svg"><path d="M926.4 645.3h49.2C925.2 859.7 758 984.4 507.5 984.4 205.5 985 23.4 803 23.4 499.6c0 -302 181.7 -484 484.1 -484 250.7 0 418 124.1 469.1 339.1h-49.4C878.7 168 732.1 64.1 507.9 64.1 230.9 64.1 72 223 72 500c0 269.4 149.7 425.8 412.3 435.5v-96c0 -94.1 -51.9 -145.3 -145.6 -145.3C217.3 694.2 144.5 621.3 144.5 500c0 -119.9 71.4 -192 190.2 -193.5 60.1 -126.2 281.7 -135.4 346.2 0C799.7 308 871.1 380.1 871.1 500c0 121.1 -72.7 193.8 -193.8 193.8 -93.7 0 -145.2 51.5 -145.2 145.3v96C742.3 927.7 880.2 824.7 926.4 645.3zM697.3 356.1c7.4 41.2 22 203.5 -140.2 235.9 23.9 34.6 64.4 53.3 120.2 53.3 93.7 0 145.4 -51.6 145.4 -145.3 0 -87.2 -44.6 -137.1 -125.4 -143.9zM537.7 546.3C679.9 527 652 376.5 647.6 356.8 505.8 376.3 532.9 526.1 537.7 546.3zM507.8 257.8l-.3 .5c-55.3 0 -96.1 18.9 -120.3 53.4 55.4 10.7 96.4 40.3 120.3 84.9 23.9 -44.6 64.9 -74.2 120.3 -84.9 -24.3 -35 -64.1 -53.9 -120 -53.9zm-139.7 99.1h.5c-5.4 19.6 -31.6 170.2 109.9 189.4C483.2 526.4 511 377.5 368.1 356.9zm-29.8 288.4h.6c55.3 0 95.7 -18.9 119.4 -53.3C315.7 564.2 305.2 428.8 318.4 356.1 237.6 363.3 193 413.4 193 500c0 93.8 51.5 145.3 145.3 145.3zm103.9 24.2h.5c28.3 14.9 50 37.8 65.6 66.1 12.4 -23.9 41.8 -53.5 65.6 -66.1C545.6 653.9 523 632.3 507.8 604c-12.5 23.7 -41.9 53 -65.6 65.5z"/></svg>