<svg height="1000" width="1250" xmlns="http://www.w3.org/2000/svg"><path d="M312.5 437.5c0 -68.9 -56.1 -125 -125 -125H125C125 209 209 125 312.5 125h625c103.5 0 187.5 84 187.5 187.5h-62.5c-68.9 0 -125 56.1 -125 125v125h-625v-125zM1125 375c68.9 0 125 56.1 125 125 0 46.1 -25.4 85.9 -62.5 107.6v236.1c0 17.2 -14.1 31.3 -31.2 31.3h-125c-17.2 0 -31.3 -14.1 -31.3 -31.3v-31.2H250v31.2c0 17.2 -14.1 31.3 -31.2 31.3h-125C76.6 875 62.5 860.9 62.5 843.7V607.6C25.4 585.9 0 546.1 0 500 0 431.1 56.1 375 125 375h62.5c34.6 0 62.5 27.9 62.5 62.5V625h750V437.5c0 -34.6 27.9 -62.5 62.5 -62.5h62.5z"/></svg>