<svg height="1000" width="1250" xmlns="http://www.w3.org/2000/svg"><path d="M410.7 430.1c12.9 56.8 -28.3 127.5 -100.9 127.5h-62.5l12.5 -46.5C263.3 499 274 490 287.7 490h20.1c24.2 0 40.6 -22.8 35.8 -44.1C339.5 427.9 324.2 417 307.8 417h-38.7l-50.3 186.9C215 616 204.3 624.8 191 624.8l-48.2 .2 68.1 -254.1c3.6 -12.5 14.1 -21.3 28 -21.3h72.2c47.1 0 88.7 32 99.6 80.5zm-305.6 54.7c-48.7 0 -48.3 73 0 73h22c8.3 0 14.9 7.6 12.5 16.2l-13.8 51h-24.2C36.1 625 -13.7 563.7 3.3 497.7c14.3 -52.8 55.3 -80.3 100 -80.3h78.1l-12.1 46.1c-3.7 12.7 -14.4 21.3 -27.9 21.3h-36.3zm483.4 -68c36.7 0 65 34.4 55.6 71.9l-27.3 101.1c-5.5 20.7 -23.8 34.8 -45.7 34.8l-112.3 -.4c-83.8 0 -75.2 -124.6 1.4 -124.6h94.5l-6.8 25.8c-3.8 12.1 -14.5 21.1 -27.8 21.1h-42.2c-10.3 0 -10.3 15.4 0 15.4h68.2c9 0 10 -7.6 10.7 -10.3l16.8 -62.1c.6 -2 3.7 -10.4 -4.1 -10.4H457.2c-18.9 0 -32.4 -17.4 -27.7 -36.1l6.8 -26.2h152.2zm648 -67.2c8.8 0 15.1 7.8 12.7 16.2l-51.7 191.8c-10 40.4 -47.3 67.4 -87.7 67.4l69.5 -260c2.3 -9.1 10.7 -15.4 20.3 -15.4h36.9zM775 417.4c67.2 0 115.8 63.1 98.2 127.7l-17.1 64.7c-2.4 9.5 -11.2 15.2 -20.2 15.2h-37.3c-8.8 0 -14.8 -7.8 -12.5 -16.2l20.7 -78.1C813.3 508 795.9 485 771.5 485h-38.7l-33.6 125c-2.3 9.3 -10.9 15.2 -20.3 15.2H642c-8.2 0 -14.9 -7.6 -12.5 -16.2l51.2 -191.4H775v-.2zm192 145.7h143.2l-11.2 41c-3.7 12.1 -14.4 20.9 -27.7 20.9H941c-39 0 -65 -37.1 -55.3 -71.7l21.1 -78.1c9.4 -34.4 40.5 -57.8 75.4 -57.8h92.4c37.1 0 64.9 34.6 55.3 71.9l-6.3 23.4c-5.6 21.5 -24.8 34.4 -45.3 34.4H974l6.9 -25.4c3.1 -12.1 14 -21.1 27.7 -21.1h42.2c3.9 0 6.4 -2 7.6 -5.9l1.4 -5.1c1.3 -5.2 -2.6 -9.9 -7.7 -9.9h-64.2c-8 0 -13.5 4.1 -15.2 11.7L957 550c-1.7 6.4 3 13.1 10 13.1z"/></svg>