<svg height="1000" width="968.8" xmlns="http://www.w3.org/2000/svg"><path d="M483.6 15.6c276.9 0 485.2 215.1 485.2 484.4 0 287.3 -231.5 484.4 -485.2 484.4C221.9 984.4 0 770.5 0 500 0 240.4 204.5 15.6 483.6 15.6zm1.6 87.3C254.3 102.9 87.3 294.1 87.3 500c0 214.5 178.1 396.1 397.9 396.1 201.5 0 396.1 -158.4 396.1 -396.1C881.4 277.7 705.1 102.9 485.2 102.9zm208.9 401.6l114.1 -.6v45.3h-98.6L674.4 634c-9 21.5 -40.8 17 -43.5 -6.1l-5.3 -43.5 -13.3 162.1c-2.1 27.5 -43 27.7 -45.1 -.2l-9.6 -125.8 -9 114.5c-2.1 27.9 -43.5 27.5 -45.3 -.4l-8.8 -140.3L485 751.6c-1.8 28.3 -43.6 28.3 -45.4 .2l-9.3 -143.2 -9 137.5c-1.8 27.9 -43.2 28.3 -45.3 .2L364.8 593.4l-7.4 85.1c-2.3 26.8 -41.2 27.7 -45.1 1.4L291.4 537.1c-3.9 7.6 -11.7 12.5 -20.3 12.5H170.9v-45.3h85.7l25.8 -54.1c9.6 -20.1 39.7 -15.8 43 6.4l3.5 23.9 15 -175.4c2.4 -27.6 43.2 -27.6 45.4 .4l8 111.3 10.3 -156.6c2 -28.2 43.6 -28.2 45.3 0l8.4 129.4 10 -163.4c1.7 -28.2 43.5 -28.3 45.3 0l11.5 184.2 6.9 -87.7c2.1 -27.8 43.1 -28 45.3 0L590.4 457l8.4 -100.4c2.2 -26.9 41.8 -27.9 45.1 -.7l21.5 181.2 7.8 -18.5c3.4 -8.6 11.8 -14.1 20.9 -14.1zm-152.3 10.1c8 0 14.6 -6.6 14.6 -14.6 0 -8.2 -6.6 -14.6 -14.6 -14.6H499v-42.8c0 -8.2 -6.6 -14.7 -14.6 -14.7s-14.7 6.7 -14.7 14.7v42.8H427c-8.1 0 -14.7 6.6 -14.7 14.6 0 8.2 6.6 14.6 14.7 14.6h42.7v42.8c0 8.2 6.7 14.7 14.7 14.7 8.2 0 14.6 -6.7 14.6 -14.7v-42.8h42.8z"/></svg>