<svg height="1000" width="968.8" xmlns="http://www.w3.org/2000/svg"><path d="M483.6 15.6c276.9 0 485.2 215.1 485.2 484.4 0 287.3 -231.5 484.4 -485.2 484.4C221.9 984.4 0 770.5 0 500 0 240.4 204.5 15.6 483.6 15.6zm1.6 87.3C254.3 102.9 87.3 294.1 87.3 500c0 214.5 178.1 396.1 397.9 396.1 201.5 0 396.1 -158.4 396.1 -396.1C881.4 277.7 705.1 102.9 485.2 102.9zm-.8 118.2c159.9 0 200.2 151 200.2 278.9S644.3 778.9 484.4 778.9 284.2 627.9 284.2 500 324.4 221.1 484.4 221.1zm0 105.3c-82.3 0 -86.2 117.4 -86.2 173.6 0 18.2 .4 42.4 3.8 67.2L508.4 371.5c11.1 -19.2 5.5 -32.8 -6.1 -42.8 -5.4 -1.4 -11.5 -2.3 -17.9 -2.3zm79.7 90.2l-119 205.5c-24.4 36.5 12.9 51.5 39.3 51.5 82.2 0 86.1 -117.2 86.1 -173.6 0 -22.1 -.8 -53.3 -6.4 -83.4z"/></svg>