<svg height="1000" width="968.8" xmlns="http://www.w3.org/2000/svg"><path d="M483.8 15.6c275 0 485 213.3 485 484.4 0 287.5 -230.7 484.4 -485 484.4C218.4 984.4 0 766.4 0 500 0 243.8 202.3 15.6 483.8 15.6zm1.2 880.3c230.6 0 339.2 -187.7 342.1 -192L668.9 633.4v69.7H543.6v109.4H423V703.1H298.4v-75.6H423V591l-11.1 -23H298.4v-75.4h54.5l-248 -110.4C93.2 419.5 87.3 458.8 87.3 500c0 215.2 178.9 395.9 397.7 395.9zM656.1 627.7L549.2 580.3l-5.6 10.9v36.5h112.5zm12.7 -100.4L866 615.4c10.2 -35.9 15.4 -74.2 15.4 -115.2C881.4 278.7 705.3 102.9 485 102.9c-178 0 -285 105.5 -339.3 191.6l160 71.3 -53.4 -99.6h128.6l77.3 167.4 44.9 19.9L587.9 266h128.5l-123 226.6h75.4v34.7z"/></svg>