<svg height="1000" width="968.8" xmlns="http://www.w3.org/2000/svg"><path d="M483.6 15.6c276.9 0 485.2 215.1 485.2 484.4 0 287.3 -231.5 484.4 -485.2 484.4C221.9 984.4 0 770.5 0 500 0 240.4 204.5 15.6 483.6 15.6zm1.6 87.3C254.3 102.9 87.3 294.1 87.3 500c0 214.5 178.1 396.1 397.9 396.1 201.5 0 396.1 -158.4 396.1 -396.1C881.4 277.7 705.1 102.9 485.2 102.9zM268.9 431.6C294.3 267.8 426.2 244.7 481.6 244.7c195 0 249.1 161.2 249.1 262.1 0 124.3 -80.1 259.6 -251.8 259.6 -76 0 -193.5 -39.1 -213.7 -189.4h122.1c2.9 58.7 38.3 88.2 106.5 88.2 45.5 0 113.2 -35.5 113.2 -161.7C607 342.4 511.1 346.1 496.3 346.1c-64.7 0 -101 28.5 -109 85.5h35.6l-96.1 96.1 -95.7 -96.1h37.8z"/></svg>