<svg height="1000" width="968.8" xmlns="http://www.w3.org/2000/svg"><path d="M484.4 15.6c267.6 0 484.4 217 484.4 484.4 0 267.6 -216.8 484.4 -484.4 484.4S0 767.6 0 500C0 232.6 216.8 15.6 484.4 15.6zm0 878c148.6 0 278.1 -82.9 345.1 -204.7 -2.7 -.6 24.4 11.3 -425.6 -189.1 .4 62.5 31.5 140.4 105.3 140.4 36.5 0 60.1 -20.3 70.9 -32.6l70.5 85.8C600 737.9 540.2 751 495.5 751 404.7 751 260.4 696.5 260.4 503.1c0 -22.2 2.3 -43.7 6.4 -64.2L112.9 370.3C23.8 624 212.5 893.6 484.4 893.6zm379.3 -293c.4 .4 .6 .6 1.1 .8 8.6 -32.5 13.3 -66.4 13.3 -101.6 0 -217 -176.5 -393.5 -393.5 -393.5 -137.5 0 -258.6 70.8 -329.1 178.1l146.3 65.2C340.4 288.9 405.9 248.8 498.4 248.8c39.3 0 99.6 8.2 152.6 53.7l-78.9 81.3C533.4 345.3 462.9 338.9 426.2 405.3z"/></svg>