<svg height="1000" width="968.8" xmlns="http://www.w3.org/2000/svg"><path d="M483.6 15.6c276.9 0 485.2 215.1 485.2 484.4 0 287.3 -231.5 484.4 -485.2 484.4C221.9 984.4 0 770.5 0 500 0 240.4 204.5 15.6 483.6 15.6zm1.6 880.5c201.5 0 396.1 -158.4 396.1 -396.1C881.4 277.7 705.1 102.9 485.2 102.9 254.3 102.9 87.3 294.1 87.3 500c0 214.5 178.1 396.1 397.9 396.1zM618.6 363.3c41.8 0 136.7 10.1 136.7 134 0 124 -94.9 134 -136.7 134h-104v-268h104zm1.5 211.9c46.9 0 67.4 -29.9 67.4 -77.9 0 -82.1 -60.9 -78 -68.4 -78l-37.9 .2v155.7h38.9zM397.9 363.3c65.8 0 98.6 30.3 98.6 90.8 0 17.6 -5.9 90.8 -111.5 90.8h-52.8v86.5h-67.6V363.3h133.3zm-9.6 131.4c54.5 0 58.6 -81.2 -1.8 -81.2h-55.3v81.2h57.1z"/></svg>