<svg height="1000" width="968.8" xmlns="http://www.w3.org/2000/svg"><path d="M483.6 15.6c276.9 0 485.2 215.1 485.2 484.4 0 287.3 -231.5 484.4 -485.2 484.4C221.9 984.4 0 770.5 0 500 0 240.4 204.5 15.6 483.6 15.6zm1.6 87.3C254.3 102.9 87.3 294.1 87.3 500c0 214.5 178.1 396.1 397.9 396.1 201.5 0 396.1 -158.4 396.1 -396.1C881.4 277.7 705.1 102.9 485.2 102.9zm7 103.9c5.5 -.6 22.4 2 22.4 22.5l12.9 209.4 9.6 -115.9c0 -11.7 9.2 -20.7 20.7 -20.7s20.7 9.2 20.7 20.7c0 4.9 -1 -11.1 11.1 159.2L601 356.6c.6 -5.6 5.6 -18.1 19.9 -18.1 7.4 0 19.3 4.5 20.7 17.4l22.5 188.4 10.3 -25c3.5 -8.6 10.2 -12.9 19.9 -12.9h113.3V548h-99.4l-35.5 86.6c-7.7 19.3 -38.1 17.7 -40.7 -6.1l-7.8 -62.3 -14.6 180.9c-.6 5.8 -5.9 18.1 -20 18.1 -5.8 0 -19.1 -4.1 -20.7 -18.1 0 -3.7 1.2 11.3 -12.1 -152.2l-10.3 141c-2.2 9.4 -9.4 18.2 -20.7 18.2 -5.7 0 -19.2 -3.9 -20.7 -18.2 0 -3.7 1 13.1 -11.4 -171.3l-11.3 185.2c0 12.3 -7 24.2 -20.7 24.2C451.6 774 441 766 441 750.6L429.7 579.3C418.4 760 419.3 743.4 419.3 747.1c-2.1 9.3 -9.3 18.1 -20.7 18.1 -5.8 0 -19.1 -4.1 -20.7 -18.1 0 -1.4 -.8 -2.2 -.8 -5.1L365 568.9l-9.5 110.8c-1.4 12.7 -13.1 18.1 -20.7 18.1 -11.4 0 -18.8 -8 -20.7 -17.3L292.4 531.2c-3.9 7.9 -6.9 16.5 -21.7 16.5H170.3v-41.6h87.5l26.8 -54.5c8.6 -19.4 35.5 -14.1 38.8 5.2l6.1 39.9 16.4 -191.2c0 -11.8 9.4 -20.7 20.7 -20.7 1 0 20.7 -.4 20.7 24.2l9.6 134.9 12.9 -180.8c0 -19.7 18.5 -20.7 19.9 -20.7 1.2 0 20.7 1.3 20.7 20.7l10.3 157.4 12.2 -191.2c.1 -2.2 -1.2 -20.1 19.3 -22.5z"/></svg>