<svg height="1000" width="968.8" xmlns="http://www.w3.org/2000/svg"><path d="M483.8 15.6c274.8 0 485 212.9 485 484.4 0 287.3 -230.7 484.4 -485 484.4C218.2 984.4 0 766.2 0 500 0 243.8 202.3 15.6 483.8 15.6zm1.2 880.3c239.4 0 346.3 -199.6 349.2 -203.7l-250.6 -111H407.2c18 76.8 76.4 98.1 131.5 98.1 37.3 0 75.4 -12.1 92.4 -21.1l19.5 90C622.9 763.7 576 779.1 524 779.1c-112.1 0 -221.1 -67 -243.3 -197.9h-52.8v-57.6h44.6c0 -31.8 .7 -25.9 .7 -38.1h-45.5v-57.6h9.2L108.6 371.1C94.5 411.7 87.3 454.7 87.3 500c0 215.2 178.9 395.9 397.7 395.9zM452.3 523.6l-.9 -.7 1.7 .7h-.8zm150.8 -38.1l265.8 118.2c8.2 -32.4 12.4 -66.8 12.4 -103.3C881.3 279.3 705.5 103.1 484.8 103.1c-25.4 0 -207.3 -6.2 -333.4 182.8l159.3 70.5c8.1 -14 16.8 -27.3 27.2 -39.2C384.2 265.4 449 234.6 525.2 234.6c49.4 0 92.4 11.3 121.7 24.2l-22.7 92.4c-21.1 -9 -54.3 -19.6 -90 -19.6 -39.1 0 -74.6 12.9 -99.8 43.8 -6.7 7.4 -12.3 17.2 -17.2 27.9l55.8 24.6h137.4v57.6h-7.3z"/></svg>