<svg height="1000" width="875" xmlns="http://www.w3.org/2000/svg"><path d="M441.1 0c.5 .3 422.9 243.2 424 243.6 5.9 2.3 7.2 6.8 7.2 12.8 -.1 163 -.1 326 0 489 .1 .2 .1 .6 .1 .9 0 4 -3 8.7 -6.7 10.4C824 780.1 459.8 987.7 438.1 1000h-5.8C277.3 910.8 6 755 5.7 754.8 3.7 753.9 2 751.3 2 749c0 -.1 0 -.3 0 -.5C2 746.8 2 307.2 2 254.2c-.1 -.2 -.1 -.5 -.1 -.7 0 -3.5 2.6 -7.5 5.8 -9C53.1 219 416.4 11.7 437.6 0h3.5zm-20.4 39.9l-.4 -.3c-126.5 72 -252.9 144 -379.3 216 0 .2 .2 .5 .3 .7l60.2 22.7c-15 11.7 -16.2 11.7 -20.8 10 -.2 0 -47.2 -18.1 -52.3 -19.5v450.1C30.1 716.8 153.5 503 153.7 502.8c3.1 -5.5 5.8 -3.8 17.8 -3 2.7 .2 2.9 .4 1.5 2.8C92.5 641.9 101.9 625.6 41.2 731c-1.6 2.7 -1.2 2.2 2.4 2.2h364.3c2.8 0 3.3 -.5 3.3 -3.2v-17.4c0 -2.6 4.6 -1.5 -35.9 -1.9 -14.5 -.2 -27.6 -6.3 -41.7 -24.8C319.2 667 305 647.9 290.9 628.8c-4.5 -6 -6.7 -4.6 -32.7 -4.6 -3.5 0 -3.5 0 -3.5 3.5 .6 51.2 .3 49.4 2 63.8 1 8.6 4.2 8.2 18.9 9.4 6.1 .5 7.6 8 1 9.6 -3 .8 -61.7 1 -65.7 -.2 -2 -.5 -3.5 -2.5 -3.5 -4.5 0 -2.3 1.8 -4.4 4 -4.7 6.5 -1.5 12.1 1.6 13.1 -8.7 2.5 -26.7 2.2 -17.6 2.1 -155.1 0 -21.1 -.7 -24.6 -10.5 -26.5 -2.3 -.4 -6.9 -.3 -9.1 -1 -5.7 -2 -3.9 -9.5 3.4 -9.5 65.8 0 90 -2.1 109.5 9.5 15.1 9 23.5 22.4 24.5 39.8 1.7 28.5 -12.8 43.7 -29.3 63.7 -.6 .5 -1 1.4 -1 2.2 0 .7 .4 1.6 1 2.1 5 6.4 9.7 13 15 19.2 53.8 64.9 47.1 59.7 80.6 64.6 1.8 .2 2 -.8 2 -2.3v-21.4c0 -2 .6 -2.8 2.8 -2.5 5.8 .9 15.3 1.6 21.2 1.6 6.9 0 18 -1 24.8 -2.2 2.1 -.3 2.9 .4 2.9 2.6 0 .2 1.7 52.1 1.7 52.4 -.1 2.9 1.3 3.1 3.7 3.1h364.7c-53.1 -91.8 -106 -183.5 -158.7 -275 4.4 -1.3 -.8 0 13 -2.7 4 -.8 4.1 -.8 6.1 2.8 14.3 24.7 151 261.7 151.1 261.8V269.5c-3.3 1 -201.7 75.7 -206.5 77.5 -2.1 .9 -3.1 .4 -3.8 -1.7 -1.2 -3.7 -2.6 -7.3 -4 -11 -.7 -1.5 -.2 -2.2 1.2 -2.7 .2 0 186.6 -70 201.2 -75.7C706.3 182.5 579.1 109.4 451.3 36l169.6 293.7 -.6 .7c-18.7 -1.8 -20.4 -3.2 -23 -7.7C595.3 319.4 453.7 73.2 437.1 45 419.3 73.7 273.9 330.6 270.4 330.8c-5.8 .3 -11.5 .1 -18.1 .1 56.3 -97.3 112.4 -194.3 168.3 -291zm101.4 253.7c3.1 -.2 7.9 -.9 10.9 -1.6 3.3 -.6 4.9 .4 5 3.7 0 .2 .2 37.3 -1.6 40 -1.9 2.7 -3.7 2.4 -5.1 -.4 -9.8 -18.9 12.1 -18.9 -76.4 -23.4 -1.4 0 -2 .4 -2 1.8 0 .2 7.3 238.3 7.3 238.5 0 1.7 1 2.3 2.4 2.9 4.8 1.9 12.4 5.5 17 7.9 14.2 8.5 22.2 21.2 24.2 37.7 2.8 23.1 -5.4 69.9 -62.9 72.6 -5.4 .2 -55.2 2.1 -66.7 -45.4C365.1 590.3 390.3 564 413 556.8c2.2 -.4 4 -2.5 4 -4.7 0 -.2 0 -.4 0 -.5 .2 -11 5.8 -209.2 7.2 -237 .1 -2.1 -1.2 -2.3 -2.6 -2.3 -63.2 1 -71.8 -.6 -78.6 16.7 -4.7 12 -8.1 2.5 -7.7 .4 2.1 -11.7 4.2 -23.4 6.5 -35.1 .7 -4.2 2.8 -5.1 6.7 -3.7 10.9 4.1 13.1 3.3 72.7 3.8 3.4 0 3.5 -.2 3.6 -3.6 1.3 -53.7 1.1 -44.2 1.9 -57.7 0 -.2 .1 -.5 .1 -.7 0 -1.9 -1.5 -4.1 -3.3 -4.8 -10.9 -5.7 -17.1 -14.8 -17.3 -27.1 -.7 -28.9 34.6 -42.3 53.4 -22.5 13.4 14.1 11.4 36.9 -4.8 47.2 -2.4 1.3 -4.4 4.6 -4.4 7.4 0 .3 .1 .8 .1 1.1 0 1.1 -.2 -8.5 2 58.6 0 1.8 .8 2.2 2.4 2.2 .2 0 44.9 -.2 67.3 -.7zM133.3 276.8c38.8 -8.8 63.9 -1.1 102.6 3.3 5.4 .6 7.3 2.3 7 7.8 -.4 9.7 -2.2 43.6 -2.4 45.2 -.1 1.8 -1.5 3.9 -3.2 4.6 -7.9 3.3 -7 -8.7 -7.8 -14.3C223.4 279.6 85.2 259.6 83.8 373c-.7 46.7 33.2 104.8 105.6 99.4 53.2 -3.9 37.1 -39.4 48.5 -40 .2 0 .5 0 .7 0 2.9 0 5.3 2.4 5.3 5.3 0 .4 -.1 .9 -.1 1.3 -3.6 21.2 -6.7 37 -6.8 37.4C234 494.3 67.7 519.5 54.7 394.2 49.4 343.8 75.1 290 133.3 276.8zM289.6 448h-38.1c-.1 0 -.3 0 -.4 0 -2 0 -4.2 -1.6 -4.8 -3.5 4.7 -7.3 11.5 1.8 11.5 -12 -.2 -50.3 .4 -74.2 .4 -78.3 0 -6.7 -1 -9.1 -6.5 -9.7 -13.6 -1.4 -6 -6.5 -2.1 -6.6 23.1 -.2 44.2 -.3 58.7 1.4 17.1 2.1 32.6 24.7 15.5 44.2 -4 4.4 -7.9 8.7 -12 13.2 1.8 2.2 13.4 17.2 33.7 38.4 5.2 5.4 12 6.9 19.3 6.1h.1c2.2 0 4.2 -1.8 4.3 -4.1 .5 -6.7 .5 9.2 .8 -79.3 0 -11 -.6 -12.8 -6.3 -13.3 -7.7 -.7 -7.8 -4.4 -1.3 -6.6l37.3 -.2c.6 0 8.7 1.1 1.9 6.6 0 .1 -.3 0 -.4 0 -7.1 .5 -7.7 2 -7.9 9 -.5 85.8 .2 78.6 .8 83.7 .3 1.6 .6 4.3 10 4.2 4.9 0 7.5 6.5 0 6.6 -20.2 .2 -40.5 0 -60.8 .1 -20.8 0 -26.3 -12.1 -47.2 -40.6 -3.2 -4.3 -16.3 -4.6 -16.1 -.8 1.8 32.2 0 34.8 7.9 34.6 9.2 -.2 9.2 6.9 1.6 6.9h.1zm537.1 -19.8c-2.4 13.9 .3 20.2 -10.3 20.2 -120.3 -.9 -93.4 -.5 -99.1 -.6 -2 -.2 -5.2 -.9 -7.1 -1.5 -4.9 -1.1 2.9 -2.4 -.7 -10.9 -2.8 -6.6 -5.5 -13.2 -8.1 -19.9 -.4 -1.6 -2 -2.8 -3.6 -2.8 -.1 0 -.2 0 -.3 0 -3.5 -.2 -9.3 -.3 -12.9 -.3 -4.3 0 -11.3 .2 -15.6 .4 -1.1 .2 -2.5 1.1 -3.1 2.1 -3.1 7.1 -6 14.2 -8.8 21.5 -2.5 6.3 15.3 2.6 23.8 4.2 5.8 1.1 8.8 7.3 1.3 7.3h-51.5c-5.7 0 -6.1 -6.2 -1.5 -6.3 .2 0 .4 0 .6 0 4.2 0 9.1 -3 11 -6.8 2.9 -5.8 5.5 -11.7 8 -17.7 35.5 -82.3 33.3 -78.5 36 -81.3 .6 -.8 1.9 -1.5 2.9 -1.5s2.4 .7 2.9 1.5c5.8 6.5 36 87.3 46.2 101.4 3.9 5.3 11.2 3.9 12.4 3.9 7.1 .3 7.8 -2.2 8.1 -8.4 .1 -3.6 .1 2.3 .1 -80.5 0 -8.7 -4.6 -7.3 -10.8 -8.3 -.5 0 -5 -1.3 -.2 -6 .4 -.4 -1.7 -.5 42.4 -.3 4.5 0 10.4 5.4 -2.4 6.7 0 0 -.1 0 -.2 0 -2.8 0 -5 2.3 -5 5 0 .2 0 .4 0 .5 -.1 3.2 -.3 76 .6 80.5 .5 2.7 3.2 4.8 5.9 4.8 .1 0 .3 0 .4 0 25.9 .8 29.1 .8 31.3 -6.7 3.2 -11.3 8 -4.9 7.2 -.3zM622.2 553.9c-8.3 0 -8.7 -6.6 -1.2 -6.7 70.1 -.3 54.9 .8 72.6 -1.2 3.3 -.4 4.7 .4 4.4 3.7 -.5 6.6 -1.2 13.2 -1.9 19.8 -.5 4.2 -6.3 5.1 -6.7 -.3 -.7 -10.4 -4.2 -8.7 -30.5 -9.9 -3.1 -.2 -3.2 0 -3.2 3v31.5c0 3.2 0 3.1 3.2 2.8 6 -.5 20.1 .7 30.6 -2.9 .9 -.4 6.4 -3.5 6 3.4 0 .4 -1.5 20.2 -2.3 22.2 -1 2.6 -3.7 3 -5.1 .7 -2.2 -3.9 0 -10 -7.2 -10.4 -30.1 -1.7 -25.2 -5 -25.2 11.7 0 24 -1.5 31.5 7.6 31.8 32.5 .9 28.1 0 32.1 -11.2 1.6 -4.6 6.8 -3.5 6.2 1.1 -.9 6.3 -1.7 12.6 -2.4 18.9 0 .7 -.3 4.6 -9.1 4.6 -72.6 -.1 -67.5 -.3 -68.8 -.6 -5.3 -1 -4.3 -5.8 .4 -6.7 2.2 -.4 7.9 1 8.2 -5 4.7 -109.8 -.2 -100.3 -7.7 -100.3zM621.4 340c4.8 1.2 6.1 3.4 5.7 9.1 -.6 10.3 -.6 17.5 -1 18.9 -1.3 4.3 -6.2 4.1 -6.6 -.5 -.7 -9.4 -5.9 -15.3 -14.8 -17.9 -51.3 -15.1 -64 30.2 -53 59 11.5 30.1 43 31.1 56.4 26.9 11.5 -3.6 11.4 -12.7 13.4 -14.8 2.4 -2.5 4.4 -3.6 6.1 2.2 0 .2 1.2 23.2 -11.7 24.9 -3.1 .4 -37.8 7.2 -63.8 -6.6 -41 -21.9 -32.7 -69.3 -13.4 -88.6C566 325.2 616.6 338.8 621.3 340h.1zM566 547.2c6.4 0 7.2 5.8 .3 6.7 -5.1 .6 -9.7 -.9 -9.7 10.6 0 3.9 -.4 56.8 .7 81 .3 4.4 2.3 6.8 6.8 7.1 42.9 2.4 29.2 -3.2 36.7 -12.4 3.5 -4.4 5.4 1.7 5.4 2.1 .6 26.6 -7.9 24.2 -10.2 24.2l-74.5 -.3c-3.8 -.5 -4 -5.9 -.8 -6.6 3.9 -1 9.6 .8 10 -5.5 1.9 -31 1.1 -87.2 .6 -93.4 -.5 -7.3 -5.4 -6.4 -11 -7.2 -4.9 -.8 -3.9 -6.3 .6 -6.3 2.9 0 35.1 -.1 45.1 0zM504.2 434.3c.2 8 5.6 6.7 11.8 7 5.1 .2 4.9 6.6 -.2 6.7 -12.6 0 -26.7 0 -42.2 -.1 -7.5 0 -6.6 -6.6 0 -6.6 8.8 0 6.3 3.1 6.7 -89 0 -9.9 -6.4 -6.9 -9.2 -8.2 -5.1 -2.4 -2.7 -6.1 .8 -6.2 2.5 0 39.4 -.8 41.3 .4 1.9 1.2 3.7 3.2 -.8 5.6 -2 1 -7.6 -.5 -8.1 4.8 0 .4 -1.6 3.2 -.2 85.6h.1zm-72 535.7c.7 .5 2.2 .9 3.1 .9 1 0 2.4 -.4 3.2 -.9C471.7 950.8 794 767.7 824.1 750.2c-.3 -.8 22 -.3 -354.5 -.5 -2.4 0 -3.1 .7 -3 3 0 .2 2.4 87 2.4 98.4 -.2 4.3 -1.4 11 -2.7 15.1 -1.1 3.6 .8 -1 -26.4 62.9 -1.4 3.4 -1.9 4.4 -3.9 -.1 -8.1 -20.2 -16.1 -40.5 -24.5 -60.6 -2.2 -4.9 -4 -13.3 -4 -18.7 0 -.6 0 -1.7 .1 -2.3 .3 -4.8 1.5 -31.5 2.9 -93.8 0 -3.8 0 -3.9 -3.9 -3.9H49.2c5 3.2 348.3 200.3 382.8 220.2zM254.6 601.3c0 4.7 .7 5.5 5.4 5.9 22.5 2.3 41 7.3 50.1 -14.3 11.7 -28.3 5.2 -67.2 -24.4 -75.9 -3.9 -1.1 -31.2 -5.4 -31.1 3 .1 15.7 0 22.6 0 81.3zm206.6 -29.4c0 4.2 2 75.6 2.1 76.4 .6 19.5 -50 11.3 -49.3 -5 .2 -3.9 2.7 -73.1 2.2 -77 -27.6 14.5 -28.2 78.5 12.5 95.3 3.7 1.6 9.9 2.9 14 2.9 10.8 0 24.1 -7.5 29.8 -16.7 9.6 -15.2 13.3 -57.6 -10.6 -76.2 -.2 .1 -.5 .2 -.7 .2v.1zm-24 -386.7c-19.2 0 -19 28.8 -.2 29 18.9 .3 19.8 -29 .2 -29.1v.1zM280.6 388c0 3.5 .8 4.7 4.3 5 26.6 2.7 24.4 -21.5 23.7 -26.1C305.3 345 280.5 347 280.6 351.7c.1 8.8 -.1 26.7 0 36.3zm414.7 12.5l-11.9 -30.9c-4.2 10.7 -8.1 20.6 -12.2 30.9h24.1z"/></svg>