<svg height="1000" width="1000" xmlns="http://www.w3.org/2000/svg"><path d="M953.1 687.5c25.9 0 46.9 21 46.9 46.9v93.7c0 25.9 -21 46.9 -46.9 46.9H875v78.1c0 25.9 -21 46.9 -46.9 46.9h-93.7c-25.9 0 -46.9 -21 -46.9 -46.9V400.9L400.9 687.5H625V875H171.9C146 875 125 854 125 828.1V312.5H46.9C21 312.5 0 291.5 0 265.6v-93.7C0 146 21 125 46.9 125H125V46.9C125 21 146 0 171.9 0h93.7c25.9 0 46.9 21 46.9 46.9v552.2L599.1 312.5H375V125h411.6L902.5 9.2c12.2 -12.2 32 -12.2 44.2 0l44.1 44.1c12.2 12.2 12.2 32 0 44.2L875 213.4v474.1h78.1z"/></svg>