<svg height="1000" width="1000" xmlns="http://www.w3.org/2000/svg"><path d="M976.6 437.5c12.9 0 23.4 10.5 23.4 23.4v78.2c0 12.9 -10.5 23.4 -23.4 23.4h-59.3c-27.2 183 -171.8 327.6 -354.8 354.8v59.3c0 12.9 -10.5 23.4 -23.4 23.4h-78.2c-12.9 0 -23.4 -10.5 -23.4 -23.4v-59.3C254.5 890.1 109.9 745.5 82.7 562.5H23.4C10.5 562.5 0 552 0 539.1v-78.2C0 448 10.5 437.5 23.4 437.5h59.3C109.9 254.5 254.5 109.9 437.5 82.7V23.4C437.5 10.5 448 0 460.9 0h78.2c12.9 0 23.4 10.5 23.4 23.4v59.3c183 27.2 327.6 171.8 354.8 354.8h59.3zM562.5 790.3C676.3 766 766.1 676.1 790.3 562.5h-79.4c-12.9 0 -23.4 -10.5 -23.4 -23.4v-78.2c0 -12.9 10.5 -23.4 23.4 -23.4h79.4C766 323.7 676.1 233.9 562.5 209.7v79.4c0 12.9 -10.5 23.4 -23.4 23.4h-78.2c-12.9 0 -23.4 -10.5 -23.4 -23.4v-79.4C323.7 234 233.9 323.9 209.7 437.5h79.4c12.9 0 23.4 10.5 23.4 23.4v78.2c0 12.9 -10.5 23.4 -23.4 23.4h-79.4C234 676.3 323.9 766.1 437.5 790.3v-79.4c0 -12.9 10.5 -23.4 23.4 -23.4h78.2c12.9 0 23.4 10.5 23.4 23.4v79.4zm0 -290.3c0 34.5 -28 62.5 -62.5 62.5s-62.5 -28 -62.5 -62.5 28 -62.5 62.5 -62.5 62.5 28 62.5 62.5z"/></svg>