<svg height="1000" width="1250" xmlns="http://www.w3.org/2000/svg"><path d="M1031.3 875c17.1 0 31.2 14.1 31.2 31.3v62.5c0 17.1 -14.1 31.2 -31.2 31.2H218.8c-17.2 0 -31.3 -14.1 -31.3 -31.2v-62.5c0 -17.2 14.1 -31.3 31.3 -31.3h812.5zm125 -625c51.7 0 93.7 42 93.7 93.8s-42 93.7 -93.7 93.7c-5.1 0 -10.2 -.8 -15.1 -1.6L1000 812.5H250L108.8 435.9c-4.9 .8 -10 1.6 -15 1.6C42 437.5 0 395.5 0 343.8S42.2 250 93.9 250s93.8 42 93.8 93.8c0 13.8 -3.3 26.9 -8.6 38.6l141.2 84.8c29.9 18 69 7.8 86.3 -22.7L565.8 166C544.9 148.8 531.2 123 531.2 93.7 531.2 42 573.2 0 625 0s93.7 42 93.7 93.7c0 29.3 -13.6 55.1 -34.5 72.3l159.2 278.5c17.3 30.5 56.2 40.7 86.3 22.7l141.4 -84.8c-5.5 -11.9 -8.6 -24.8 -8.6 -38.6 0 -51.8 42 -93.8 93.8 -93.8z"/></svg>