<svg height="1000" width="1250" xmlns="http://www.w3.org/2000/svg"><path d="M1062.5 62.5c103.6 0 187.5 56 187.5 125l-187.5 31.3V375c0 170.4 -113.8 314.1 -269.5 359.6l80.6 217.9c4.4 12.1 -1.9 25.6 -14 30l-44.1 16.1c-12.1 4.4 -25.6 -1.9 -30 -14L698.6 749.4c-3.8 .1 -7.4 .6 -11.1 .6h-76.3l74.9 202.5c4.4 12.2 -1.9 25.6 -14 30L628 998.6c-12.1 4.4 -25.6 -1.9 -30 -14L511.2 750H322.8L85.4 868.7C46.2 888.3 0 859.8 0 815.9c0 -16.3 10.6 -37.4 23.6 -47.2L750 197.2v-41C750 70 820 0 906.2 0c51 0 95.8 24.8 124.3 62.5h32zM906.3 203.1c25.8 0 46.8 -21 46.8 -46.8 0 -25.9 -21 -46.9 -46.8 -46.9s-46.9 21 -46.9 46.9c0 25.8 21 46.8 46.9 46.8z"/></svg>