<svg height="1000" width="1000" xmlns="http://www.w3.org/2000/svg"><path d="M990.8 362.7c5 5.1 9.1 14.9 9.1 22 0 7.2 -4.1 17.1 -9.2 22.2l-44.2 44.2c-5 5 -14.9 9.1 -22.1 9.1 -7.1 0 -17 -4.1 -22.1 -9.1L548.8 97.5c-5 -5 -9.1 -14.9 -9.1 -22.1s4.1 -17 9.1 -22.1L593.1 9.2c5.1 -5 15 -9.1 22.1 -9.1s17.1 4.1 22.1 9.1zM640.2 492.4L747.8 384.8l88.4 88.4L622 687.4c-21 21 -61.5 43.4 -90.5 50.1l-234.8 54.2L97.5 990.9c-5.1 5.1 -15 9.2 -22.1 9.2S58.3 996 53.3 990.9L9.1 946.7C4 941.7 -.1 931.8 -.1 924.6s4.1 -17 9.2 -22.1L208.3 703.3l54.2 -234.9c6.7 -28.9 29.1 -69.4 50.1 -90.4L526.8 163.8l88.4 88.4L507.6 359.8zM533.6 599l18.2 -18.2L419.2 448.2 401 466.4c-7 7 -14.5 20.5 -16.7 30.2l-35.8 154.9 154.9 -35.8c9.7 -2.2 23.2 -9.7 30.2 -16.7z"/></svg>