<svg height="1000" width="1000" xmlns="http://www.w3.org/2000/svg"><path d="M954.3 488.7c27.5 10.3 45.7 36.5 45.7 65.8v215c0 26.6 -15 51 -38.9 62.9l-195.3 97.7c-19.7 9.9 -43.1 9.9 -62.9 0L500 828.5 297.1 930.1c-19.8 9.9 -43.2 9.9 -62.9 0L38.9 832.4C15 820.5 0 796.1 0 769.5v-215C0 525.2 18.2 499 45.5 488.7L234.2 418V206.1c0 -29.3 18.1 -55.5 45.7 -65.9L475.2 67c16 -6.1 33.6 -6.1 49.4 0l195.3 73.2c27.6 10.4 45.7 36.6 45.7 65.9V418zM699.2 419.5V276.4l-166 72.2v133.2zM300.8 203.3v1.2L500 285.4l199.2 -80.9v-1.2L500 128.7zm164 568.6V624.6l-166 75.8v154.5zm0 -218.8V552L265.6 477.3 66.4 552v1.1L265.6 634zm468.8 218.8V624.6l-166 75.8v154.5zm0 -218.8V552L734.4 477.3 535.2 552v1.1L734.4 634z"/></svg>