<svg height="1000" width="875" xmlns="http://www.w3.org/2000/svg"><path d="M543.1 500l325 325.1c9.2 9.1 9.2 24 0 33.1 -64 64.1 -167.9 64.1 -232 0L410.5 632.6 362 681.1c8.4 21.4 13 44.6 13 68.9 0 103.6 -83.9 187.5 -187.5 187.5S0 853.6 0 750 83.9 562.5 187.5 562.5c8.8 0 17.6 .6 26.1 1.8L277.9 500l-64.3 -64.3c-8.5 1.2 -17.2 1.8 -26.1 1.8C83.9 437.5 0 353.6 0 250S83.9 62.5 187.5 62.5 375 146.4 375 250c0 24.3 -4.6 47.5 -13 68.9l48.5 48.5L636.1 141.8c64.1 -64.1 168 -64.1 232 0 9.2 9.1 9.2 24 0 33.1zM187.5 312.5c34.5 0 62.5 -28 62.5 -62.5s-28 -62.5 -62.5 -62.5S125 215.5 125 250s28 62.5 62.5 62.5zm0 500c34.5 0 62.5 -28 62.5 -62.5s-28 -62.5 -62.5 -62.5S125 715.5 125 750s28 62.5 62.5 62.5z"/></svg>