<svg height="1000" width="1250" xmlns="http://www.w3.org/2000/svg"><path d="M612.9 471.7c-19.3 0 -31.3 -13.7 -30.7 -13.9 -8.4 -11.1 -5.8 .6 -4.7 3.7 -21.3 -20.1 -10.3 -49.6 -9.9 -50.8 1.3 -3.7 0 -4.3 -1.2 -3.7 -1.9 .6 -4.1 3.7 -4.1 3.7C563.9 393 580.5 382 580.5 382l.4 .4c1.9 3 -.8 6.3 -1.2 17.6 3.1 -4.5 15.4 -12.9 22.3 -15.4 -2.2 2.9 -4.1 7 -4.1 12.9 7.2 -8.2 14.6 -5.1 15.6 -4.7 -23.9 23.2 -13.7 51.9 6.2 51.9 11.2 0 22.5 -12.5 27.2 -20.9 4.7 4.7 12.5 10.8 14.4 12.9 -7.4 15.3 -21.5 35 -48.4 35zm102.3 -41.2c0 5.6 -5.6 8 -10.5 8.8 1.4 -3 3.5 -10 -.4 -17.6 1.4 .2 10.9 1 10.9 8.8zm20.2 10.1c-.8 12.7 -13.5 22.7 -28.6 20.7 3.9 3.4 12.9 5.9 17.6 3.7 -7.6 13.5 -45.1 14.7 -45.1 -12.5 -5.7 5.7 -4.1 14.5 0 18.2C675 469.3 668 464.6 666.8 456.3c-2.5 -19.8 8.6 -12.7 -20.3 -35.4 -9.4 -7.2 -5.9 -12.9 -7.8 -16.6 -2.2 -4.3 -13.7 -8 -8.8 -16.6 -.2 3.1 1.9 5.7 5.1 6.8 3.5 1.4 6.2 .4 9.3 2 3.4 2.3 1.8 7.6 4.3 9.8 2.2 1.5 8.2 -.6 12.9 3.5 5.1 3.9 16 13.1 20.7 16.8 8.6 7 17.2 -.8 14.5 -9 8.8 5.1 9.7 19.3 2.5 24.4 20.7 4.7 25.4 -19.7 9.8 -22.3 14.2 -1.3 26.4 8.4 26.4 20.9zm-77 -35.9c8.4 -11.9 26 -29.9 46.5 -30.9 -11.5 -1.5 -29.5 6.3 -38.5 17.6 1.8 -7.6 10 -19.7 19.9 -25.4 0 0 -4.9 6.3 -2.7 7.2 3.1 1.6 11.3 -11.1 21.9 -11.5 0 0 -7.8 3.9 -6.3 6.7 1.2 1.7 6.5 -2.6 15.6 -2.6 11.4 0 21.3 6.9 26 12.1 -7.8 -2.1 -22.6 1.6 -26.9 5.3 -.6 -.4 -23.1 -17.6 -43 30.3 -9.4 -7.4 -8.6 -7.3 -12.5 -8.8zM1132 506.1c72.7 0 118 38.2 118 95.5 0 55 -33.2 95.5 -115.4 95.5 -40.5 0 -80.5 -2.6 -100.8 -4.1l14.4 -16V526.2l-14.4 -16c20.1 -1.6 57.8 -4.1 98.2 -4.1zm-29.5 147.6c49.6 6.3 91.4 -2.7 91.4 -52.7 0 -44 -32.6 -57.8 -91.4 -51.4v104.1zM589.1 353.5c.2 .6 -5.5 -4.5 -6.5 -14.6 -.4 -4.5 0 -38.7 39.1 -36.9 21.9 1.1 32.6 16.2 32.6 32.2 0 8.4 -4.5 19.7 -10.7 26.9 -4.3 -4.3 -11 -9 -15.1 -15.2 7.4 -10.9 4.3 -28.1 -9.2 -28.1 -8.4 0 -15.2 8.8 -12.5 19.3 -1.3 4.7 -1.9 10.9 -.9 15.6 -9.6 -5 -12.7 -11.7 -14.7 -17.5 -2.5 4.8 -4.1 11.7 -2.1 18.3zm-.8 11.7c.6 -3.3 -6.1 -8.9 -9.4 -10.1 9.4 -.4 13.7 1.2 13.7 1.2 -2.6 -3.4 -3.1 -8.8 -2 -13.1 4.9 11.9 22.9 13.8 27.2 23.8 -.6 -4.5 -4.7 -9.2 -9.4 -11.9 -2.5 -6.3 -.6 -18.4 2.5 -21.5 -.9 17.2 23.5 26.9 28.6 39.4C636.7 362.3 625 355.5 619.7 349.2c-1.9 -4.1 -.4 -11.3 1.6 -13.8 -1 18.9 30.8 27.9 27.5 46.6 1.8 .8 4.1 2.4 3.7 5.1 2.6 -.6 5.1 -3.3 5.7 -5.3 1.4 8.8 -3.7 17.6 -9.4 20.3 3.2 -7.8 -5.2 -10.9 -13.1 -9.9 0 0 3.2 -4.5 2 -6.7 -1.6 -2.9 -15.6 -1.5 -21.9 .6 2.2 -.2 7.1 .4 9 1 -4.1 5.7 -1.9 13.9 2.5 8.2 0 0 -2.1 6.8 -.5 8.4 1.5 1.6 5 .4 5 .4 -2.3 5.3 -10.3 9 -16 9 2.2 -.8 5.3 -4.5 5.9 -6.7 -1.6 1 -5.3 1.4 -6.9 1 12 -5.8 0 -25.8 -13.6 -16 1.9 -5.3 7.2 -10.3 11.3 -11.9 -2.5 -1 -5.3 -1.6 -8.4 -2.2 3.5 -2.9 12.3 -5.4 16.6 -5 -6.8 -1.6 -19.3 .6 -25 7.2 1.8 0 6.4 1 8.4 1.6 -7.8 1.3 -18.4 8.5 -21.5 12.1 .6 -4.3 2 -8.2 1 -11 -1.6 -3.9 -5.9 -5.4 -15.2 -3.5 6.2 -6.2 18.9 -10 19.9 -13.5zm50.6 14.5s-1.8 -5.9 -8.2 -8.4c1.3 4.3 2.9 8.4 8.2 8.4zm75.9 7.2l1.4 -1.4c1 -.7 3.1 -1.7 5.3 -2.7v36c-3.3 -1.6 -6.9 -2.2 -11 -2.2 -4.6 0 -9.7 1 -9.7 1 -1 -1 -7 -5.7 -10 -6.3 8 8.4 1 19.2 -5.8 14.1v-30.7c1.3 -1.5 2.5 -3.5 4.1 -5.1 3.3 -4.1 8.9 -6.6 14.6 -6.6 3.5 0 7 .8 9.2 2.7zM156.1 597.5c42.9 12.5 37.8 39.2 37.8 49.2 0 15.2 -6.2 26.5 -19.3 34.4C150 695.5 126.4 692.6 5.9 692.6l16.4 -16.8v-63.1L0 584.2h22.1v-57.6L5.9 509.8h109.5c25.2 0 72.3 8.6 72.3 48.8 0 3.7 1.9 29.9 -31.6 38.9zM75.4 543.8v40.8c20.7 0 57.8 6.4 57.8 -17.2v-5.9c0 -19.3 -18.7 -17.8 -57.8 -17.8zm0 115.6c39.8 0 64.2 3.7 64.2 -18.2h-.3v-8.8c0 -21.7 -40.1 -17.2 -63.9 -17.2v44.2zM273 621.7v30.1l117.4 -.4 -27.5 41.4H204.3l14.5 -16V526.2l-14.5 -16 143.6 -.4v.4l27.5 41H273v29.1h72.7l-27.5 41.4v.4zM692.4 504.3c144.1 0 151.5 193.9 -.6 193.9C541 698.2 548 504.3 692.4 504.3zm-.6 151.4c76.2 0 72.3 -107.8 .4 -108 -72.5 0 -73.5 108 -.4 108zM513.5 639.5l.4 37.1 14 16h-83.2l15.1 -16 -.4 -37.9L373.2 510.2h87.7l-12.5 14 41.1 72.7h.5l40.1 -72.7 -11.9 -14h81.4zM458 343.9c-17.8 -13 -18.5 -27.5 -18.7 -29.1 14.2 8.4 17.5 7.9 77.9 7.9 -11.3 0 46.9 -6.1 62.9 44.7 -.8 0 -16.4 9.4 -20.3 15.4 10.3 -3.7 17.3 -2.1 17.5 -2.1 -15.6 9.9 -18.7 28.9 -18.7 40 1.8 -4.1 5.3 -7.2 5.3 -6.8 -1.2 4.9 -2.8 13.6 -1.6 23.4 -16.8 13.9 -31.2 16.8 -50.8 16.8H443c.8 -.2 15.2 -8.8 15.4 -9 3.7 -2.1 5.3 -4.3 5.3 -12.5v-75.8c0 -8.2 -2.6 -10.3 -5.7 -12.9zm42 10.8v67.6c9.2 0 45.1 6.6 45.1 -33.8 0 -40.3 -36.1 -33.8 -45.1 -33.8zm447.1 155.5l76.5 .2 -14.4 16.2V693h-41.6c-7.8 -24.8 -87.5 -87.9 -94.7 -108.6h-.6V677l14.4 16h-76.2l14.1 -16.2V526.6L810.2 510h61.7c5.6 18.3 77.7 71.2 88.3 99.4h.5v-83zM738.7 322.5c63.8 3.1 66 58.2 66 65.6 0 13.1 -6.5 66.4 -71.7 66.4h-.6c7.1 -8.4 6.9 -23.2 -4.3 -31.8 2.4 0 38.5 6.2 38.5 -33.8 0 -40.5 -35.9 -33.8 -45.1 -33.8v8.4c-10.6 -1.6 -14.5 .6 -14.7 .6 4.1 -3.6 8.8 -5.1 11.9 -5.7 -13.8 -3.1 -26.5 4.7 -28.5 6.8 1.6 -3.5 4.7 -6.6 6.9 -8.8 -4.5 1.6 -8.4 3.8 -11.9 5.9 0 -10.2 .3 -14.6 -5.7 -18.5C661.7 330.9 660.9 316 660.7 314.6c13.9 8.3 15.1 7.9 78 7.9z"/></svg>