<svg height="1000" width="1125" xmlns="http://www.w3.org/2000/svg"><path d="M161.1 193.2C160 159.6 165 127.1 185.9 99c.6 14.5 2.4 28.3 8.2 42.2C205.7 87.5 232.6 44.9 276.8 13.3c-3.8 11.5 -6.9 23 -5.9 34.6 17 -14.5 36.7 -34.8 86.7 -44.4 28.7 -5.5 58 -3.9 82.2 2C515 23.6 559 72.5 576 146.7c10.3 45.1 1.3 87.9 -16.2 129.7 -10.2 24.2 -23.5 47.6 -40.5 68.5 -3.9 -3.7 -7.6 -7.4 -11.3 -10.9 -83.6 -79.7 -52.3 -49.2 -73 -73.1 -2.2 -2.3 -2 -4.3 -.2 -7 16.2 -26.4 23 -55.1 19.5 -85.9 -2.2 -19.2 -8.4 -36.9 -22.1 -51.2C403.9 86.9 355.7 87.5 327.7 118c-22.2 24.4 -27.5 53.5 -21.3 85.1 .4 2.6 .8 5.3 0 7.6 -6.6 26.8 -8.9 53.9 -4.8 81.3 .2 1 .2 2.1 .2 3.1 0 .6 -.2 1 -.4 2.2C258.8 275.8 231.1 242 217 195.3c-16.2 34.8 -21.7 69.3 -12.9 105.7 -30.5 -29.7 -41.6 -67 -43 -107.8zm917.2 240.6c1 1.2 2.4 1.9 3.3 2.7v1c-29.3 -7 -58.2 -3.5 -86.9 2.5 -18.1 3.9 -35.7 9.2 -52.1 17.6 -5.7 2.9 -11.2 6.5 -15.6 9.2 -11.4 -4.7 -22.1 -10.7 -33.6 -13.3 -47.9 -10.3 -89.5 2.4 -122.1 39.1 -38.5 43.3 -67.4 92.9 -91.2 145.5l-2.4 5.3c-.2 .4 -.4 .5 -.7 .7 -23.7 -16.2 -42.2 -39.6 -70.6 -50 .6 -.7 .8 -1.7 1.4 -2.5C648 536.5 695.5 489.1 754.5 454.1c31.2 -18.6 64.4 -31.4 100.6 -36.1 3.5 -.4 6.8 -.8 10.3 -2.2 -8.6 0 -17.2 -.6 -25.6 .2 -41.4 3.7 -79.1 18.8 -114.6 39.5 -27 15.6 -51.2 34.5 -71.5 58.2 -.8 .9 -1.2 2.1 -1.7 3.3 -.6 -.6 -1.4 -1.2 -2 -1.8 21.5 -60.3 60 -107.4 112.7 -143.1 .4 .4 1 .6 1.4 .9 -2.4 3.4 -4.9 6.5 -6.9 10 -3.5 6.5 -7.2 12.7 -9.9 19.5 -3.5 8.4 3.1 16.8 23.4 1 35.6 -27.5 57.8 -51.4 95.5 -57.8 1.4 -.2 2.6 -.6 3.7 -.6h4.9c-1.9 1.4 -3.1 2.2 -4.3 2.9 -22.6 15.3 -23 14.5 -29.3 23.5 -5.1 7.2 -.4 15.6 9.2 13.3 5.1 -1.2 10.1 -2.6 15 -4.3 18.4 -6.5 37.1 -11.4 56.7 -12.5 27.1 -1.6 52.9 3.7 77.9 13.8 29.5 12.1 55.7 29.3 78.3 52zM618.6 776.6c2.9 2.5 3.7 4.6 1.7 8.2 -49.4 98 -119.3 174 -226.6 192.9 -52.3 9.2 -103.3 5.3 -152.1 -16.8 -36.1 -16 -67.6 -38.2 -92.2 -69.5 -3.9 -5.1 -7.2 -10.5 -11.5 -16.8 -1.4 15.2 .2 29.1 2.9 42.8 -.4 .4 -.8 .6 -1.2 1 -6.2 -6.7 -12.8 -12.9 -18.5 -20.2C97.3 868 83 833.2 74 796.1 51 701.8 73 642.2 89.3 598.6c-17 9.4 -31.7 20.1 -46.1 31.7C65.8 566.2 105.5 513.3 152.7 465c4.7 4.1 6.5 9.2 5.9 14.5 -.4 1.9 -11.5 76 -10.9 87.3 36.9 -36.9 79.1 -65 126.5 -85.7 -14.6 21.6 -21.5 45.7 -23 72.8 26.1 -23.8 54.1 -39.3 90.6 -27.1 -16.6 17.7 -60.2 59.5 -75.4 125.5 -10 42.8 -7.4 84.2 16 122.3 21.9 35.8 54.3 54.3 96.5 54.3 24.6 0 46.5 -9.8 66.6 -23 36.1 -24.1 64.1 -55.7 85.9 -93 3.8 -6.3 2.2 -4.1 3.8 -5.9 38.8 31.5 6.4 5.1 83.4 69.6zm335.9 -90.7c39.4 12.9 69.3 36.8 85.5 76 18 45.1 4.1 96.5 -33.9 128.9 -32.1 27.4 -69.8 37.5 -111.4 34 -1.1 0 -2.3 0 -3.7 .6 29.5 20.9 61.7 29.7 99.4 20.7 -4.3 4.7 -7.6 9.2 -11.5 12.7 -24 21.3 -52.5 33 -83.8 38.7 -77.3 14.2 -147.6 -25 -166 -111.2 -1 -4.1 -1.2 -8.2 -1.8 -12.5 -21.1 16 -32 66.6 -1.3 102.2 -3.1 -1 -5.1 -1.4 -7.1 -2.2 -41.6 -16.2 -67.1 -55.2 -65.4 -100 1.8 -45.3 9.6 -80 -25.4 -109.3 -32.2 -27 -64.4 -53.6 -96.7 -80.3 -15.8 -13.1 -28.9 -28.3 -33.2 -49 -1.9 -9 -2.7 -18.4 -3.5 -27.6 -1 -11.9 -6.4 -21.5 -15.4 -28.9 -8.8 -7.6 -18.2 -14.4 -27 -21.9 -17.3 -14.6 -24 -36.9 -14.2 -58.4 5.5 25.2 18.7 37 44.1 39.7 8.6 1 17.4 1.5 26 2.9 15.8 2.4 25 11.9 27.9 27.8 1.4 6.6 2.6 13.2 4.3 19.9 3.2 10.9 8.8 15.6 20.3 16.4 9 .6 18.2 1 27.2 1.7 14.8 1.2 27.7 7.5 39.2 17 37.9 31.7 76.2 62.9 114.3 94.4 11.1 9.1 23.4 16 38.3 16.6 32.6 1.1 56.6 -29.7 48.4 -62.1 -.4 -1.4 -.8 -3 -.2 -5.5 4.7 3.9 9.6 7.4 13.7 11.5 27.5 27.4 35.4 76.8 17 109.6 -4.1 7.4 -10.4 13.8 -15.8 21.1 1.3 .4 3.5 1 5.8 1.1 27.4 2.8 53.2 -1.9 76 -17.7 30.9 -21.3 35.2 -61 10.6 -89.1C926 693.2 917.8 688.1 898.4 680.3c12.7 -2.6 37.5 -.4 56.1 5.6zM194.1 350.2c-10.3 -18 -25.7 -30.5 -43.1 -41.6 26.7 -1 51.9 .4 77.3 7.2C214.6 292 211.7 267.6 218.6 240.2c10.3 23.3 26.7 39.3 46 52.4 38.5 25.8 69.8 38.3 91.3 59 6.6 6.4 12.3 13.8 18.7 21.3 -1.6 -4.1 -2.7 -8.1 -4.3 -11.8 -9.8 -20.7 -25.4 -36.3 -44.1 -48.8 -3.5 -2.3 -5.5 -4.9 -6.7 -8.8 -6.4 -24.4 -5.8 -49 -1.3 -73.4 1.9 -10.8 5.4 -21.3 8.8 -31.9 1.5 -4.6 4.4 -8.9 7.8 -12.8 1.1 13.4 0 49.8 38.2 89.8 21.1 22.1 43.8 42.8 66.3 63.9 17.5 16.6 35.7 32.6 49.8 52.3 2.1 3.1 4.3 6.5 7.4 9.2 -9.8 -25.4 -27.7 -47.1 -47.3 -66 -18.7 -18.2 -37.9 -36 -57 -53.5 -6.5 -5.9 -9 -13.1 -10 -21.3 -2.3 -20.3 0 -40.3 8.4 -59 1 -2 2.2 -3.9 3.7 -6.5 1 8.2 1.2 15.5 2.8 22.7 9.3 45.1 39.8 70.9 96.3 124 19.5 18.4 37.7 37.5 50 61.7 9.3 18.2 14.2 37.1 11.1 57.8 -.2 1.2 1 3.4 2.1 4 12.2 5 19.6 13.4 19 27.9 15 -5.1 24.4 -15.6 32 -28.3 8.2 39.4 -17.8 98.2 -53.1 114.6 .8 -8.8 9.8 -45.7 -32.2 -54.1 -13.3 -2.5 -25 -2.5 -44.8 -4.1 9.2 -17.6 20.4 -40.2 1 -43.7 -48.6 -9 -103.1 3.7 -112.9 8.9 16 .8 31.9 2 45.9 6.5 -3.9 12.7 -7.8 24.8 -11.3 36.9 -3.7 12.7 4.1 28.5 18.2 18.8 2.3 -1.8 4.5 -3.8 6.4 -5.3 -6 34.9 -5.7 31 -5.5 35.7 .6 19.9 18.6 15.3 30.7 14.3 -4.9 23 -57.6 53.3 -88.7 50.4 13.7 -9.2 24.8 -20.1 31.1 -35 -12.7 1.6 -25.2 3.1 -37.5 4.7l-.6 -1.8c9.2 -6.6 15.6 -15.2 19.9 -25.5 17 -41.3 -7 -74.3 -48.8 -78 -17.8 -1.5 -34.8 1.6 -50.6 10.8 12.1 -30.5 33.6 -52 63.7 -67.4 -29.7 -8.4 -17.4 -5.3 -48.1 -12.3 28.5 -18.2 59 -25.8 90.9 -28.5 -10.2 -6.3 -94 -7.1 -137.2 40.8 15.5 2.7 30.3 5.4 45.4 8.2 -46.5 13.7 -86 38.5 -121.9 69.5 2.1 -9.4 5.3 -18.5 6.4 -27.9 1.2 -8.8 1.6 -18 .2 -26.6 -2.9 -18.3 -17.4 -29.5 -38.5 -31.8 -15.4 -1.8 -30.4 .2 -45.5 2.5 -1.7 .2 -3.3 .6 -5.6 0 30.8 -28.9 70.3 -42.4 103.7 -65.4 11.7 -8.8 13.3 -16 5.8 -29.1zm250.8 52.3c6.5 31.3 24.6 49.8 46.5 47.5 -9 -22.1 -23.6 -38.1 -46.5 -47.5z"/></svg>