<svg height="1000" width="875" xmlns="http://www.w3.org/2000/svg"><path d="M583.8 521.5c11.8 6.6 26.6 21.4 33.2 33.2 6.6 11.6 11.9 31.9 11.9 45.3 0 .1 0 .4 0 .5 -.1 26.7 -8.9 49 -26.7 67s-39.9 26.9 -66.6 26.9c-26.2 0 -48 -8.8 -65.3 -26.3s-25.9 -40 -25.9 -67.6c0 -26.2 8.8 -47.9 26.6 -65.2s39.5 -25.9 65.3 -25.9c.3 0 .9 -.1 1.2 -.1 13.7 0 34.4 5.5 46.3 12.2zM0 62.5h875v875H0v-875zm731.9 729l-.1 -516.3 -109 23.6V451C607.6 435.7 591.3 424.6 574 417.8c-14.9 -5.6 -39.9 -10.2 -55.8 -10.2 -.6 0 -1.7 0 -2.3 0 -34.5 0 -65.6 8.6 -93.2 25.6 -23.2 14.3 -52 45.6 -64.3 69.9 -15.3 29.5 -23 62.2 -23 98.1 0 36.7 7.6 69.9 22.7 99.4 12.2 24.4 41 55.7 64.3 69.8 27.8 17.1 59.6 25.6 95.5 25.6 52.1 0 88.4 -17 108.9 -51.1h1.3v46.6h103.8z"/></svg>