<svg height="1000" width="1000" xmlns="http://www.w3.org/2000/svg"><path d="M421.9 507.8c0 30.2 -24.5 54.7 -54.7 54.7S312.5 538 312.5 507.8c0 -86.1 70.1 -156.2 156.3 -156.2S625 421.7 625 507.8c0 30.2 -24.5 54.7 -54.7 54.7S515.6 538 515.6 507.8c0 -25.8 -21 -46.9 -46.8 -46.9s-46.9 21.1 -46.9 46.9zm46.9 -343.7c189.5 0 343.7 154.2 343.7 343.7 0 187.5 -139.5 214.5 -140.6 281.7 -.3 116.1 -94.8 210.5 -211 210.5 -30.2 0 -54.6 -24.5 -54.6 -54.7s24.4 -54.7 54.6 -54.7c56 0 101.6 -45.5 101.6 -101.5v-.8C564.4 645.1 703.1 654.6 703.1 507.8 703.1 378.6 598 273.4 468.8 273.4S234.4 378.6 234.4 507.8c0 30.2 -24.5 54.7 -54.7 54.7S125 538 125 507.8C125 318.3 279.2 164.1 468.8 164.1zm524.3 -102c9.2 9.2 9.2 24 0 33.2L823.2 265.2c-9.2 9.2 -24 9.2 -33.2 0L734.8 210c-9.2 -9.2 -9.2 -24 0 -33.2L904.7 6.9c9.2 -9.2 24 -9.2 33.2 0zM330 614.7l55.3 55.3c9.1 9.1 9.1 24 0 33.1l-290 290c-9.2 9.2 -24 9.2 -33.2 0L6.9 937.9c-9.2 -9.2 -9.2 -24 0 -33.2l290 -290c9.1 -9.1 24 -9.1 33.1 0z"/></svg>