<svg height="1000" width="875" xmlns="http://www.w3.org/2000/svg"><path d="M872.1 132.8c1.9 7.4 2.9 15.4 3.1 23.5v687.6c0 51.8 -42 93.8 -93.8 93.8H93.9c-8 0 -16 -1 -23.4 -2.9C55.5 930.9 42 923.4 30.9 913.3c-2.4 -2.2 -4.5 -4.3 -6.5 -6.5C14.3 895.7 6.8 882.2 2.9 867.2 1 859.8 0 851.8 0 843.8V156.3C0 104.5 42 62.5 93.8 62.7h687.5c8 0 16 1 23.4 2.9 3.7 .8 7.2 2 10.5 3.3 3.7 1.4 7.3 3 10.8 4.9 2.7 1.4 5.2 3 7.8 4.7 2.1 1.6 4.3 3.1 6.4 4.9 4.9 3.9 9.4 8.4 13.5 13.3 3.3 4.1 6.5 8.8 9.2 13.5 2.5 4.4 4.7 8.9 6.4 13.8 1 3 2 5.9 2.8 8.8zm-59.6 711V500h-375V125H93.8c-17.2 0 -31.3 14.1 -31.3 31.3V500h375v375h343.8c17.1 0 31.2 -14.1 31.2 -31.2z"/></svg>