<svg height="1000" width="1250" xmlns="http://www.w3.org/2000/svg"><path d="M1244.7 501.8c9.6 14.4 5.7 33.7 -8.6 43.5l-51.9 34.6c-14.5 9.6 -33.8 5.8 -43.4 -8.6 -42.6 -63.9 -46.7 -74.4 -78.3 -98.3v152H375L269.5 414.1l-74.4 67.5C183.4 493.4 167.6 500 151 500H90.4C66.8 500 45.1 486.5 34.6 465.4l-28 -55.8c-10.5 -21.1 -8.4 -46.5 5.9 -65.5L158.2 150.2c3.3 -4.5 8.2 -7.2 12.5 -10.6 -7.8 -4.2 -15.6 -8.2 -22.1 -14.6C116.6 93 112.7 43.4 136.7 7c5.5 -8.2 17.2 -9.3 24.2 -2.3l83.8 83.6L326.4 6.6c8.6 -8.6 23 -7.2 29.7 3 29.4 44.5 24.6 105 -14.7 144.3L500 312.5h460.2c99.2 0 191.2 49.2 246.2 131.8zM578.5 475.2c5.9 -5.7 2.7 -15.4 -5.1 -16.6l-44.5 -6.5L509 411.7c-3.7 -7.2 -14.1 -7.2 -17.6 0l-19.9 40.4 -44.5 6.5c-8.1 1.2 -11.4 10.9 -5.5 16.6l32.2 31.4 -7.6 44.4c-1.4 8 7 14 14.1 10.3L500 540.4l39.8 20.9c7.1 3.7 15.5 -2.3 14.1 -10.3l-7.6 -44.4zm218.8 0c5.8 -5.7 2.7 -15.4 -5.1 -16.6l-44.5 -6.5 -20 -40.4c-3.7 -7.2 -14 -7.2 -17.5 0l-20 40.4 -44.5 6.5c-8 1.2 -11.3 10.9 -5.5 16.6l32.3 31.4 -7.7 44.4c-1.3 8 7.1 14 14.1 10.3l39.8 -20.9 39.9 20.9c7 3.7 15.4 -2.3 14.1 -10.3L765 506.6zm218.7 0c5.9 -5.7 2.7 -15.4 -5.1 -16.6l-44.5 -6.5 -19.9 -40.4c-3.7 -7.2 -14.1 -7.2 -17.6 0L909 452.1l-44.5 6.5c-8.1 1.2 -11.4 10.9 -5.5 16.6l32.2 31.4 -7.6 44.4c-1.4 8 7 14 14.1 10.3l39.8 -20.9 39.8 20.9c7.1 3.7 15.5 -2.3 14.1 -10.3l-7.6 -44.4zM375 968.8V687.5h687.5v281.3c0 17.1 -14.1 31.2 -31.2 31.2h-125C889.1 1000 875 985.9 875 968.8V812.5H562.5v156.3c0 17.1 -14.1 31.2 -31.2 31.2h-125C389.1 1000 375 985.9 375 968.8z"/></svg>