<svg height="1000" width="1000" xmlns="http://www.w3.org/2000/svg"><path d="M746.5 265.6h101v468h-101v-40.4c-38.7 48.4 -103.1 47 -144.2 28.7C551.2 699 515.8 647.5 515.8 581.6c0 -58.2 28.9 -113 84.6 -138.2 39.4 -17.8 102.9 -20.7 146.1 25.2v-203zm-126.4 316c0 35.6 26.6 65.5 64.9 65.5 38.6 0 64.8 -32.1 64.8 -64.3C749.8 549.4 723 518 685 518c-38.3 0 -64.9 32 -64.9 63.6zm-251.9 -316h100.9v468H368.2v-40.4C329.5 741.6 265 740.2 224 721.9 172.9 699 137.5 647.5 137.5 581.6c0 -58.2 28.9 -113 84.6 -138.2 39.4 -17.8 102.9 -20.7 146.1 25.2v-203zm-126.4 316c0 35.6 26.6 65.5 64.8 65.5 38.7 0 64.9 -32.1 64.9 -64.3 0 -33.4 -26.8 -64.8 -64.9 -64.8 -38.4 0 -64.8 32 -64.8 63.6zM875 187.5H125c-34.4 0 -62.5 28.3 -62.5 62.5v500c0 34.4 28.3 62.5 62.5 62.5h750c34.4 0 62.5 -28.3 62.5 -62.5V250c0 -34.4 -28.3 -62.5 -62.5 -62.5zm0 -62.5c68.8 0 125 56.2 125 125v500c0 68.8 -56.2 125 -125 125H125C56.2 875 0 818.8 0 750V250C0 181.2 56.2 125 125 125h750z"/></svg>