<svg height="1000" width="1000" xmlns="http://www.w3.org/2000/svg"><path d="M966.8 439.6c18 -1.1 33.2 13.1 33.2 31.2v58.4c0 18.1 -15.2 32.4 -33.2 31.2l-33.6 -2.1C922.9 635.4 892.6 706 847.5 765l25.3 22.3c13.5 12 14.2 32.8 1.4 45.6l-41.3 41.3c-12.7 12.8 -33.6 12.1 -45.5 -1.4L765 847.5c-58.9 45.1 -129.6 75.4 -206.7 85.7l2.1 33.6c1.1 18 -13.1 33.2 -31.2 33.2h-58.4c-18.1 0 -32.4 -15.2 -31.2 -33.2l2.1 -33.6C364.6 922.9 294 892.5 235 847.5l-22.3 25.3c-12 13.5 -32.8 14.2 -45.6 1.4l-41.3 -41.3c-12.8 -12.8 -12.1 -33.6 1.4 -45.6L152.5 765C107.4 706.1 77.1 635.4 66.8 558.3l-33.6 2.1C15.2 561.5 0 547.3 0 529.2v-58.4c0 -18.1 15.2 -32.4 33.2 -31.2l33.6 2.1C77.1 364.6 107.5 293.9 152.5 235l-25.3 -22.4C113.7 200.7 113 179.9 125.8 167.1l41.3 -41.3c12.8 -12.8 33.6 -12.1 45.6 1.4l22.3 25.3C293.9 107.4 364.6 77.1 441.7 66.8l-2.1 -33.6C438.5 15.2 452.7 0 470.8 0h58.4c18.1 0 32.4 15.2 31.2 33.2l-2.1 33.6c77.1 10.3 147.8 40.6 206.7 85.7l22.4 -25.3c11.9 -13.5 32.7 -14.2 45.5 -1.4l41.3 41.3c12.8 12.7 12.1 33.6 -1.4 45.5L847.5 235c45.1 58.9 75.4 129.6 85.7 206.7zm-416.3 -247l-7.9 125.2c20.2 4.7 38.9 12.7 55.9 23.4l83.3 -94.3C643.5 219.3 598.9 200.5 550.5 192.6zm-101 0c-48.4 7.9 -93 26.7 -131.3 54.3l83.3 94.3c17 -10.6 35.8 -18.7 55.9 -23.4zM246.9 318.2c-27.6 38.3 -46.4 82.9 -54.3 131.3l125.2 7.9c4.8 -20.1 12.8 -38.9 23.4 -55.9zm-54.3 232.3c7.9 48.4 26.7 93 54.3 131.3l94.3 -83.3c-10.6 -17 -18.7 -35.8 -23.4 -55.9zm256.9 256.9l7.8 -125.2c-20.1 -4.8 -38.8 -12.8 -55.9 -23.4l-83.2 94.3c38.3 27.6 82.9 46.4 131.3 54.3zM500 562.5c34.5 0 62.5 -28 62.5 -62.5s-28 -62.5 -62.5 -62.5 -62.5 28 -62.5 62.5 28 62.5 62.5 62.5zm50.5 244.9c48.4 -7.9 93 -26.7 131.3 -54.3l-83.3 -94.3c-17 10.6 -35.8 18.7 -55.9 23.4zM753.1 681.8c27.6 -38.3 46.4 -82.9 54.3 -131.4l-125.2 -7.8c-4.7 20.1 -12.7 38.9 -23.4 55.9zM682.2 457.4l125.2 -7.8c-7.9 -48.5 -26.7 -93.1 -54.3 -131.4l-94.3 83.3c10.6 17 18.7 35.8 23.4 55.9z"/></svg>