<svg height="1000" width="1250" xmlns="http://www.w3.org/2000/svg"><path d="M464.8 588.3l43.6 -59H623l-43.5 59H464.8zM0 552.5h168.9l-9.1 12.5H0v-12.5zm337.7 -23.2h133.2c-11.1 15.2 -47.1 59.2 -111.7 59.2H163.7l80.2 -109h99.7c10.9 0 10.9 4.3 5.4 11.5 -5.4 7.2 -14.8 20.1 -20.3 27.6 -2.7 3.7 -8 10.7 9 10.7zm620.1 -13.5H836.3l76.8 -104.3h121.5zm-771.7 13.5l-9.1 12.5H0v-12.5h186.1zm216.8 -52c5.5 -7.2 5.7 -11.5 -5.2 -11.5H180.1l39.8 -54.3h230.3c58.4 0 73.4 46.1 57 68.4 -12.1 16.4 -26.3 35.9 -26.3 35.9h-89.1c-17 0 -11.7 -6.8 -9 -10.7 5.5 -7.4 14.7 -20.3 20.1 -27.8zM0 588.3v-12.5h152l-9.2 12.5H0zm630.9 0s43.3 -59 43.5 -59h114.7l-43.6 59H630.9zm433.6 .2l9.1 -12.5H1250v12.5h-185.5zm43.5 -59.2h142v12.5h-151.2zm-26.4 35.7l9.2 -12.5H1250V565h-168.4zM760.9 411.5h114.7l-76.8 104.3H518.4l76.7 -104.3h114.7l-44 59.8H717zm65.5 117.8h260.5l-43.5 59.2H859.2c-47.1 0 -59.8 -22.7 -45.3 -42.2 4.1 -5.5 12.5 -17 12.5 -17z"/></svg>