<svg height="1000" width="1250" xmlns="http://www.w3.org/2000/svg"><path d="M968.8 500c-17.2 0 -31.3 -14.1 -31.3 -31.2s14.1 -31.3 31.3 -31.3 31.2 14.1 31.2 31.3S985.9 500 968.8 500zM625 343.8c-94.7 0 -171.9 -77.2 -171.9 -171.9S530.3 0 625 0s171.9 77.1 171.9 171.9S719.7 343.8 625 343.8zM116.8 710.9L82.2 658.8C65 632.8 67.4 591.2 101.8 570.7c14.4 -8.6 34.1 -19.5 56 -31.2 61.7 53.3 154.3 8.2 154.7 -70.4 92 -34.5 201.2 -62.9 312.5 -62.9 88.1 0 174.4 18 252.3 42.6 -22.8 103.3 116.4 158.6 171.3 68.6 41.8 20.3 76.6 39.6 99.8 53.5 34.4 20.5 36.8 62.3 19.6 88.1l-34.8 52.1c-19.9 29.5 -57.2 34.8 -83.8 19.2C1017.8 711.5 939.6 668.2 843.7 635.4v177.1H406.2V635.2c-95.8 33 -174 76.1 -205.6 94.9 -26.6 15.6 -63.9 10.7 -83.8 -19.2zm602 -39c-26 0 -46.9 20.9 -46.9 46.9s20.9 46.8 46.9 46.8 46.8 -20.9 46.8 -46.8 -20.9 -46.9 -46.8 -46.9zM531.3 484.4c-26 0 -46.9 20.9 -46.9 46.9s20.9 46.8 46.9 46.8 46.8 -20.9 46.8 -46.8 -20.9 -46.9 -46.8 -46.9zM218.8 500c-17.2 0 -31.3 -14.1 -31.3 -31.2s14.1 -31.3 31.3 -31.3 31.2 14.1 31.2 31.3S235.9 500 218.8 500zm1000 375c17.1 0 31.2 14.1 31.2 31.3v62.5c0 17.1 -14.1 31.2 -31.2 31.2H31.3C14.1 1000 0 985.9 0 968.8v-62.5C0 889.1 14.1 875 31.3 875h1187.5z"/></svg>