<svg height="1000" width="1000" xmlns="http://www.w3.org/2000/svg"><path d="M491.5 692.5c-2.7 0 -171.9 234.2 -173.3 234.2 -1.3 0 -169.1 -118.1 -169.8 -119.6S317.6 561.6 317.6 558.3c0 -4.3 -253.1 -85.9 -268.8 -92 -2.5 -1 61.4 -198.8 61.9 -199.4 1.2 -1.4 282.1 91.8 284.2 91.8 .8 0 1.8 -1.2 2 -2.5 .8 -4 1.9 -290.3 3.3 -292.2 1.6 -2.4 204.1 -1.4 205.3 -.6 2.9 1.9 6.8 304.9 11.9 304.9 2.7 0 270.9 -91.8 272.1 -90.5 1.5 1.8 62.3 199.6 61.5 200.4 -1.8 1.8 -273.8 92 -274.6 95.3 -.6 2.8 161.7 238.5 161.1 240.1s-167 124 -168.6 124C667 937.2 495.1 692.5 491.4 692.5h.1z"/></svg>