<svg height="1000" width="875" xmlns="http://www.w3.org/2000/svg"><path d="M750 62.5c69 0 125 56 125 125v625c0 69 -56 125 -125 125H125c-69 0 -125 -56 -125 -125v-625c0 -69 56 -125 125 -125h625zM250 750c34.5 0 62.5 -28 62.5 -62.5S284.5 625 250 625s-62.5 28 -62.5 62.5 28 62.5 62.5 62.5zm0 -187.5c34.5 0 62.5 -28 62.5 -62.5s-28 -62.5 -62.5 -62.5 -62.5 28 -62.5 62.5 28 62.5 62.5 62.5zM250 375c34.5 0 62.5 -28 62.5 -62.5S284.5 250 250 250s-62.5 28 -62.5 62.5 28 62.5 62.5 62.5zm375 375c34.5 0 62.5 -28 62.5 -62.5S659.5 625 625 625s-62.5 28 -62.5 62.5 28 62.5 62.5 62.5zm0 -187.5c34.5 0 62.5 -28 62.5 -62.5s-28 -62.5 -62.5 -62.5 -62.5 28 -62.5 62.5 28 62.5 62.5 62.5zM625 375c34.5 0 62.5 -28 62.5 -62.5S659.5 250 625 250s-62.5 28 -62.5 62.5 28 62.5 62.5 62.5z"/></svg>