<svg height="1000" width="1250" xmlns="http://www.w3.org/2000/svg"><path d="M1156.3 375c51.7 0 93.7 42 93.7 93.8v437.5c0 51.7 -42 93.7 -93.7 93.7H718.8C667 1000 625 958 625 906.3v-90.7L891.1 549.5c47.1 -47.2 58 -116.7 33.2 -174.5h232zM937.5 734.4c25.9 0 46.9 -21 46.9 -46.9s-21 -46.9 -46.9 -46.9 -46.9 21 -46.9 46.9 21 46.9 46.9 46.9zM846.9 369.7c37.5 37.4 37.5 98.1 0 135.6L505.3 846.9c-37.5 37.5 -98.2 37.5 -135.6 0L28.1 505.3c-37.5 -37.5 -37.5 -98.1 0 -135.6L369.7 28.1c37.5 -37.5 98.2 -37.5 135.6 0zM187.5 484.4c25.9 0 46.9 -21 46.9 -46.9s-21 -46.9 -46.9 -46.9 -46.9 21 -46.9 46.9 21 46.9 46.9 46.9zm250 250c25.9 0 46.9 -21 46.9 -46.9s-21 -46.9 -46.9 -46.9 -46.9 21 -46.9 46.9 21 46.9 46.9 46.9zm0 -250c25.9 0 46.9 -21 46.9 -46.9s-21 -46.9 -46.9 -46.9 -46.9 21 -46.9 46.9 21 46.9 46.9 46.9zm0 -250c25.9 0 46.9 -21 46.9 -46.9s-21 -46.9 -46.9 -46.9 -46.9 21 -46.9 46.9 21 46.9 46.9 46.9zm250 250c25.9 0 46.9 -21 46.9 -46.9s-21 -46.9 -46.9 -46.9 -46.9 21 -46.9 46.9 21 46.9 46.9 46.9z"/></svg>