<svg height="1000" width="937.5" xmlns="http://www.w3.org/2000/svg"><path d="M208.5 420l212.2 371.3L13.9 748.2C2.5 747 -3.7 734.3 2.3 724.5zm-194 196.1C10.3 622.8 0 619.9 0 612V294c0 -6.1 6.6 -9.8 11.8 -6.7l149.7 89.8zm21.1 211.2c-7.8 -3.8 -4.3 -15.7 4.3 -14.7l397.6 43.5v128.3c0 11.4 -11.8 18.9 -22.2 14.2zM194.3 323.9L35 228.8c-4.9 -3 -5 -10.1 -.2 -13.3L329.3 22.9c14.1 -8 29.6 8 21.1 21.8zm274.5 19.9H255.4L442.1 14.9C448.2 5 458.5 0 468.8 0s20.5 5 26.6 14.9l186.7 328.9H468.8zm456.9 -56.5c5.2 -3.1 11.8 .6 11.8 6.7v318c0 7.9 -10.4 10.8 -14.5 4.1l-147 -239zm-182.5 36.6L587.1 44.7c-8.5 -13.8 7 -29.8 21.1 -21.8l294.5 192.6c4.8 3.2 4.7 10.3 -.2 13.3zm154.4 488.7c8.7 -1 12.1 10.9 4.3 14.7L522.2 998.5c-10.4 4.8 -22.2 -2.7 -22.2 -14.1V856.1zM729 420l206.2 304.5c6 9.8 -.2 22.5 -11.6 23.7l-406.8 43.1zM468.8 406.3h196.1L468.8 749.5 272.6 406.3h196.2z"/></svg>