<svg height="1000" width="1250" xmlns="http://www.w3.org/2000/svg"><path d="M1187.5 187.5c34.5 0 62.5 28 62.5 62.5v500c0 34.5 -28 62.5 -62.5 62.5H62.5C28 812.5 0 784.5 0 750V250c0 -34.5 28 -62.5 62.5 -62.5h1125zm-593.7 500v-15.6c0 -8.7 -7 -15.6 -15.7 -15.6H140.6c-8.6 0 -15.6 6.9 -15.6 15.6v15.6c0 8.6 7 15.6 15.6 15.6h437.5c8.7 0 15.7 -7 15.7 -15.6zm-453.2 -125c0 8.6 7 15.6 15.7 15.6h31.2c8.6 0 15.6 -7 15.6 -15.6v-31.2c0 -8.7 -7 -15.7 -15.6 -15.7h-31.2c-8.7 0 -15.7 7 -15.7 15.7v31.2zm125 0c0 8.6 7 15.6 15.7 15.6h31.2c8.6 0 15.6 -7 15.6 -15.6v-31.2c0 -8.7 -7 -15.7 -15.6 -15.7h-31.2c-8.7 0 -15.7 7 -15.7 15.7v31.2zm125 0c0 8.6 7 15.6 15.7 15.6h31.2c8.6 0 15.6 -7 15.6 -15.6v-31.2c0 -8.7 -7 -15.7 -15.6 -15.7h-31.2c-8.7 0 -15.7 7 -15.7 15.7v31.2zm125 0c0 8.6 7 15.6 15.7 15.6h31.2c8.6 0 15.6 -7 15.6 -15.6v-31.2c0 -8.7 -7 -15.7 -15.6 -15.7h-31.2c-8.7 0 -15.7 7 -15.7 15.7v31.2zm78.2 -125v-93.7c0 -17.3 -14 -31.3 -31.3 -31.3H156.3c-17.3 0 -31.3 14 -31.3 31.3v93.7c0 17.3 14 31.3 31.3 31.3h406.2c17.3 0 31.3 -14 31.3 -31.3zm531.2 250v-15.6c0 -8.7 -7 -15.6 -15.6 -15.6H671.9c-8.7 0 -15.6 6.9 -15.6 15.6v15.6c0 8.6 6.9 15.6 15.6 15.6h437.5c8.6 0 15.6 -7 15.6 -15.6z"/></svg>