<svg height="1000" width="1000" xmlns="http://www.w3.org/2000/svg"><path d="M922.4 382.6c94.8 32.5 105.2 144.2 17.6 189.1l-121.1 62c-34.8 17.8 -57.2 49.2 -59.8 83.9l-9.2 120.9c-6.7 87.4 -127.2 130.4 -204 72.7L439.8 831.4C409.3 808.5 367.6 799.9 328.3 808.5l-136.7 29.8C92.7 859.9 7.8 774.7 48.1 694.2l55.6 -111.3c15.9 -32 12.5 -68.7 -9.1 -98.2L19.3 382.4C-35.2 308.2 33 212.6 134.6 220.6L275 231.5c40.4 3.2 80 -10.9 105.9 -37.7l90 -93.2c65.3 -67.4 192.2 -41.3 214.8 44.2L717 262.9c9 33.9 36.8 61.9 74.5 74.8zM312.5 500C347 500 375 472 375 437.5S347 375 312.5 375 250 403 250 437.5s28 62.5 62.5 62.5zm250 187.5c34.5 0 62.5 -28 62.5 -62.5s-28 -62.5 -62.5 -62.5S500 590.5 500 625s28 62.5 62.5 62.5zm31.3 -250c17.2 0 31.2 -14 31.2 -31.2S611 375 593.8 375s-31.3 14 -31.3 31.3 14 31.2 31.3 31.2z"/></svg>