<svg height="1000" width="968.8" xmlns="http://www.w3.org/2000/svg"><path d="M484.4 15.6C752 15.6 968.8 232.4 968.8 500S752 984.4 484.4 984.4 0 767.6 0 500 216.8 15.6 484.4 15.6zM296.9 419.1l56 56.1c28.7 28.9 73.9 -14.5 44.2 -44.1L341 375l56.1 -56.1c29.3 -29.1 -14.9 -73.4 -44.2 -44.1l-56 56.1 -56.1 -56.1c-29.1 -29.3 -73.4 14.8 -44.1 44.1l56 56.1 -56 56.1c-29.7 29.4 15.2 73 44.1 44.1zm187.5 393.4c68.9 0 125 -56.1 125 -125s-56.1 -125 -125 -125 -125 56.1 -125 125 56 125 125 125zM772.1 431.1L716 375l56.1 -56.1c29.3 -29.1 -14.9 -73.4 -44.2 -44.1l-56 56.1 -56.1 -56.1c-29.1 -29.3 -73.4 14.8 -44.1 44.1l56 56.1 -56 56.1c-29.7 29.4 15.2 73 44.1 44.1l56.1 -56.1 56 56.1c28.7 28.9 73.9 -14.5 44.2 -44.1z"/></svg>