<svg height="1000" width="875" xmlns="http://www.w3.org/2000/svg"><path d="M.2 965C10.4 881.3 61.5 664.5 312.5 500 61.3 335.5 10.4 118.7 .2 35 -2 16.4 12.7 .2 31.4 .2L94.5 0c15.9 -.2 29.1 11.5 31.3 27.1 1.3 9.8 3.5 21.7 6.6 35.4h610.2c3.1 -13.7 5.3 -25.8 6.6 -35.4C751.4 11.5 764.6 0 780.5 0l63.2 .2c18.8 0 33.3 16.2 31.1 34.8 -11.3 93.5 -73 353.9 -409.2 520.9 -61.9 30.8 -112.1 65 -153.7 100.3h249.2C550.2 646.9 540 637.5 527.9 628.5c41.8 -21.9 79.9 -44.9 114.3 -69.1C824.4 713.1 865.4 891 874.4 965c2.4 18.6 -12.3 34.8 -31 34.8l-63.1 .2c-15.8 .2 -29.1 -11.5 -31.3 -27.2 -1.1 -9.5 -3.7 -21.8 -6.8 -35.3h-610c-3.1 13.7 -5.2 25.8 -6.6 35.3 -2.2 15.7 -15.4 27.2 -31.3 27.2l-63.1 -.2C12.5 999.8 -2 983.6 .2 965zM437.5 428.9c49 -26.6 90.6 -55.5 125.4 -85.1h-251c35 29.6 76.6 58.3 125.6 85.1zM693.6 187.5h-512c11.2 20.3 24.8 41.2 41.1 62.5h429.8c16.1 -21.3 29.7 -42.2 41.1 -62.5zm-512.2 625h511C681.1 792.2 667.2 771.3 651 750H222.5c-16.1 21.3 -29.7 42.2 -41.1 62.5z"/></svg>