<svg height="1000" width="1250" xmlns="http://www.w3.org/2000/svg"><path d="M683.4 461.5H554.3v-116h129.1v116zm0 -399v118.6H554.3V62.5h129.1zm152.7 282.8v116H707v-116h129.1zM530.9 204.5v117.4H401.8V204.5h129.1zm152.5 0v117.4H554.3V204.5h129.1zM1224 399.8l26 17.4c-3.7 7.6 -13.7 28.5 -16.6 33.4 -46.3 88.5 -136.5 89 -178.3 88.3C948.6 796.1 721.1 937.7 413.7 937.7c-142 0 -250.6 -43.6 -323.1 -129.3C16 719.9 -12.3 591 4.7 491.8h849c44.2 .8 77.6 -11.7 94.5 -20.9 -38.4 -59 -28.7 -148.4 7.3 -202.7l18.1 -27.4L1001 259c47.6 36.7 73.8 77.5 80.3 124.4 49.8 -9.4 114.6 -2.5 142.7 16.4zM225.8 345.3h.2v116H96.9v-116h128.9zm152.5 0v116H249.2v-116h129.1zm152.6 0v116H401.8v-116h129.1zM378.3 204.5v117.4H249.2V204.5h129.1z"/></svg>