<svg height="1000" width="1125" xmlns="http://www.w3.org/2000/svg"><path d="M582.1 437.5L875 542.1v426.6c0 17.3 -14 31.3 -31.2 31.3h-125c-17.3 0 -31.3 -14 -31.3 -31.3V750H375v218.7c0 17.3 -14 31.3 -31.2 31.3h-125c-17.3 0 -31.3 -14 -31.3 -31.3V551C114.9 525.1 62.5 456.4 62.5 375c0 -34.5 28 -62.5 62.5 -62.5s62.5 28 62.5 62.5c.1 34.4 28.1 62.4 62.5 62.5h332.1zm480.4 -218.7v62.5c0 69 -56 125 -125 125H875v69.4L625 386.5V93.8C625 65.9 658.6 52 678.3 71.7l53.3 53.3h104.8c21.3 0 46.4 15.5 55.9 34.6l14 27.9h125c17.2 0 31.2 14 31.2 31.3zm-218.7 0c0 -17.3 -14 -31.3 -31.3 -31.3s-31.2 14 -31.2 31.3 13.9 31.2 31.2 31.2 31.3 -14 31.3 -31.2z"/></svg>