<svg height="1000" width="1250" xmlns="http://www.w3.org/2000/svg"><path d="M406.3 625C389.1 625 375 610.9 375 593.8v-500c0 -17.2 14.1 -31.3 31.3 -31.3h281.2v250L781.3 250l93.7 62.5v-250h281.3c17.1 0 31.2 14.1 31.2 31.3v500c0 17.1 -14.1 31.2 -31.2 31.2h-750zm812.5 125c17.1 0 31.2 14.1 31.2 31.3v62.5c0 17.1 -14.1 31.2 -31.2 31.2H1057c3.4 9.8 5.7 20.3 5.7 31.3 0 51.7 -42 93.7 -93.8 93.7s-93.7 -42 -93.7 -93.7c0 -11 2.1 -21.5 5.7 -31.3H494.3c3.4 9.8 5.7 20.3 5.7 31.3 0 51.7 -42 93.7 -93.7 93.7s-93.8 -42 -93.8 -93.7c0 -11 2.1 -21.5 5.7 -31.3H156.3C139.1 875 125 860.9 125 843.8V125H31.3C14.1 125 0 110.9 0 93.8V31.3C0 14.1 14.1 0 31.3 0h187.5C235.9 0 250 14.1 250 31.3V750h968.8z"/></svg>