<svg height="1000" width="1125" xmlns="http://www.w3.org/2000/svg"><path d="M574.6 542.4L471.1 231.1c-5.5 -16.3 3.3 -34 19.7 -39.5l120.3 -40 64.7 194.1 118.5 -39.3L729.7 112.3 849 72.5c16.2 -5.5 34 3.3 39.5 19.7l117.9 353.9c5.5 16.2 -3.3 34 -19.7 39.4L671.3 590.6c-28.9 -22 -61.5 -38.5 -96.7 -48.2zm548.8 95.1c5.5 16.4 -3.5 34 -19.7 39.5L687.1 816C685 928.9 583.2 1017.8 465.6 996.9c-76.9 -13.5 -139 -77.8 -151 -154.7C303.5 770.1 334 705.3 385 665.4L204.9 125H31.3C14.1 125 0 110.9 0 93.7V31.2C0 14.1 14.1 0 31.3 0H250c27 0 50.8 17.2 59.4 42.8l194.1 582.4c58.4 1.2 110 29.3 143.6 72.3l417 -139.1c16.2 -5.5 33.9 3.3 39.4 19.7zM500 906.3c51.8 0 93.8 -42 93.8 -93.8s-42 -93.7 -93.8 -93.7 -93.7 41.9 -93.7 93.7 41.9 93.8 93.7 93.8z"/></svg>