<svg height="1000" width="1000" xmlns="http://www.w3.org/2000/svg"><path d="M500 812.5C275.6 812.5 93.8 630.7 93.8 406.3S275.6 0 500 0s406.3 181.8 406.3 406.3S724.4 812.5 500 812.5zM456.6 190.2C392.8 192 341.4 245.7 341.2 312.1c0 54.1 35.2 102.4 85.4 117.4L548.2 466c13.9 4.1 23.7 18.4 23.7 34.4 0 19.7 -14.3 35.7 -31.9 35.7h-75.9c-12.5 0 -24.3 -3.3 -34.8 -9.9 -8.8 -5.5 -19.9 -5.3 -27.3 1.9l-31.9 30.3c-9.7 9.4 -8.6 25.4 2.4 33.4 24.4 18.2 53.7 28.5 83.9 30.1v33.2c0 17.9 14.5 32.4 32.5 32.4h21.6c18 0 32.5 -14.5 32.5 -32.4v-32.8c63.8 -1.8 115.4 -55.5 115.4 -121.9C658.4 446.3 623.2 398 573 383L451.4 346.5c-13.9 -4.1 -23.7 -18.4 -23.7 -34.4 0 -19.7 14.3 -35.7 31.9 -35.7h75.9c12.5 0 24.3 3.3 34.8 9.9 8.8 5.5 19.9 5.3 27.4 -1.9l31.8 -30.3c9.8 -9.4 8.6 -25.4 -2.4 -33.4 -24.4 -18.2 -53.7 -28.5 -83.9 -30.1v-33.2c0 -17.9 -14.5 -32.4 -32.5 -32.4h-21.6c-18 0 -32.5 14.5 -32.5 32.4v32.8zm480.9 497.3c34.6 0 62.5 27.9 62.5 62.5v187.5c0 34.6 -27.9 62.5 -62.5 62.5h-875C27.9 1000 0 972.1 0 937.5V750c0 -34.6 27.9 -62.5 62.5 -62.5h63.3c38.5 50.8 87.1 93.2 142.6 125H143.7c-10.3 0 -18.7 7 -18.7 15.6v31.3c0 8.6 8.4 15.6 18.7 15.6h712.4c10.3 0 18.7 -7 18.7 -15.6v-31.3c0 -8.6 -8.4 -15.6 -18.7 -15.6H731.4c55.5 -31.8 104.3 -74.2 142.6 -125h63.5z"/></svg>