<svg height="1000" width="1000" xmlns="http://www.w3.org/2000/svg"><path d="M562.5 326.6C463.3 306.1 373.8 254.7 307 179.9c21.9 -63.3 54.3 -120.3 95.5 -169C419.7 -9.6 452.7 .8 456.8 27.1c13.7 89.7 50.6 173.7 105.7 244.6v54.9zM781.3 125H1000l-62.5 125v312.7C937.5 735.4 797.7 875 625 875H474.8L347.5 984.6c-12 10.3 -27.6 16 -43.2 15.4C123 992.6 39.1 903.5 5.1 851 -6.6 832.8 2.7 808.6 23.6 803.3L304.7 733c-25 -18.7 -50.2 -39.2 -76 -64.1C129.1 573.2 62.5 444.1 62.5 305.9c0 -80.9 18.4 -157.5 50.8 -226 11.3 -24 45.9 -22.7 56.6 1.7C248 259.8 421.1 385.4 625 397.5V281.4C625 195.1 694.9 125 781.2 125zm0 187.7c17.1 0 31.2 -14.1 31.2 -31.3 0 -17.1 -14.1 -31.2 -31.2 -31.2S750 264.3 750 281.4c0 17.2 14.1 31.3 31.3 31.3z"/></svg>