<svg height="1000" width="1000" xmlns="http://www.w3.org/2000/svg"><path d="M892.6 672.7l107.4 186 -13.7 113.8c-2.5 20.6 -24.2 33.1 -43.3 25l-105.4 -45 -106.2 -184c58.4 -23.2 112.3 -56.1 161.2 -95.8zm83 -184.7C872.8 650.4 693.5 750 500 750c-69.1 0 -136.5 -13.1 -199.3 -37L162.4 952.5 57 997.5c-19.1 8.2 -40.8 -4.3 -43.3 -25L0 858.7 139.2 617.6C97.6 582.8 60.3 542.6 29.9 496.4c-9.8 -14.7 -4.3 -35 11 -43.8l54.2 -31.4c14.5 -8.4 32.4 -3.5 41.8 10.4 18.9 28.1 41.2 53.5 65.7 76.2L336 276.7C321.5 250.1 312.5 220 312.5 187.5 312.5 83.9 396.4 0 500 0s187.5 83.9 187.5 187.5c0 32.5 -9 62.6 -23.6 89.2l101.2 175.2c-45 45.2 -100.4 78 -161.4 95.5L504 374.6c-1.4 0 -2.7 .4 -4 .4s-2.6 -.4 -4 -.4L364.4 602.5C407.8 616.7 453.3 625 500 625c148.9 0 287.1 -75.9 367.4 -200 9.1 -14 26.9 -19.2 41.5 -11.1l54.9 30.4c15.5 8.6 21.3 28.7 11.8 43.7zM500 125c-34.5 0 -62.5 28 -62.5 62.5s28 62.5 62.5 62.5 62.5 -28 62.5 -62.5S534.5 125 500 125z"/></svg>