<svg height="1000" width="937.5" xmlns="http://www.w3.org/2000/svg"><path d="M937.5 777.5l-281.2 160V812.1L0 812.3C35.7 775 165 640.8 314.6 470.9 378.3 398.2 467 308.2 450.8 221.7 440.4 166.4 368.4 122.5 288.1 156.2c-16.8 7.1 -47.9 34 -51.4 48.3 55.3 9.2 93.8 58 93.8 110.9 0 61.9 -50 112.1 -111.9 112.1 -72.9 0 -121.5 -66.6 -110.8 -131 2.4 -15.4 10 -52.4 35.6 -93.2C172.5 156.6 231.6 96.1 347.1 71.9c202.7 -42.4 315.6 71.5 324.2 80.4 56.4 58.4 93.7 177.2 25 299.5C637.7 556.1 538.1 675 477.9 743.4h178.4V617zm-215 -52.9v106.3l92 -53.2zM262.1 315.2c0 -24 -19.5 -43.7 -43.7 -43.7 -24.3 0 -43.8 19.5 -43.8 43.7 0 24.3 19.5 43.8 43.8 43.8 24.2 0 43.7 -19.5 43.7 -43.8zm-101 428h223.5C418.9 705.7 563.3 546.3 635.5 417.6 707 290.4 624.2 196.3 624.2 196.3 596.5 167.2 552.1 125.6 463.7 121.5c13.3 10.7 33 33 47.4 69.7 23.3 59.2 13.1 135.9 -55.4 220.1C352 538.7 211.1 689.6 161.1 743.2z"/></svg>