<svg height="1000" width="1250" xmlns="http://www.w3.org/2000/svg"><path d="M35.8 499.6C4.6 504 -12.8 464.8 11.3 444.6L240.6 217.4c42.6 -36.3 104 -40 150.6 -9L625 379.5v82.6c0 56.4 10.3 111.3 28.8 162.8h-435c-27.8 0 -41.8 -33.6 -22.1 -53.3L375 437.4zm1087.6 66.6c81.9 40.9 131.2 125.1 126.3 217.5 -6.6 123.4 -116.6 216.3 -240.2 216.3H34.7C15.5 1000 0 984.4 0 965.2 0 949 11.3 934.9 27.1 931.4 202 892.5 493 825.7 875 812.4 757.9 734.3 687.5 602.9 687.5 462.1V249.9L571.1 201.4c-11.5 -5.8 -11.5 -22.2 0 -28l116.4 -48.5L567.1 26.6C557.3 16.7 564.2 0 578.2 0h463.7c19.7 0 38.2 9.2 50 24.9L1237.5 219c6.9 9.2 12.5 26 12.5 37.5 0 8.2 -3 20.7 -6.6 28l-28 55.9c-9.5 19 -34.5 34.5 -55.8 34.5h-60.5c-16.6 0 -32.5 -6.6 -44.2 -18.3L1000 312.4H875v71.7c0 32 23.2 69.5 51.8 83.8zm-168 -436.8c-8.4 33.5 16.7 56.6 42.1 57.9 22.7 1.3 41.7 -14.3 47.1 -35.6z"/></svg>