<svg height="1000" width="875" xmlns="http://www.w3.org/2000/svg"><path d="M750 687.5c69 0 125 56 125 125s-56 125 -125 125c-46.2 0 -86 -25.3 -107.7 -62.5H232.7C211 912.2 171.2 937.5 125 937.5c-69 0 -125 -56 -125 -125 0 -46.2 25.3 -86 62.5 -107.7V295.2C25.3 273.5 0 233.7 0 187.5c0 -69 56 -125 125 -125 46.2 0 86 25.3 107.7 62.5h409.6C664 87.8 703.8 62.5 750 62.5c69 0 125 56 125 125s-56 125 -125 125c-.7 0 -1.3 -.2 -2 -.2l-76.6 127.6c10 17.9 16.1 38.2 16.1 60.1s-6.2 42.2 -16.1 60.1L748 687.7c.7 0 1.3 -.2 2 -.2zm-562.5 17.3c15.8 9.2 36 29.4 45.2 45.2h406.9L564.5 624.8c-.7 0 -1.3 .2 -2 .2 -69 0 -125 -56 -125 -125s56 -125 125 -125c.7 0 1.3 .2 2 .2L639.6 250H232.7c-9.2 15.8 -29.4 36 -45.2 45.2v409.6zM531.3 500c0 17.2 14 31.3 31.2 31.3s31.3 -14.1 31.3 -31.3 -14.1 -31.2 -31.3 -31.2 -31.2 14 -31.2 31.2zm250 -312.5c0 -17.2 -14.1 -31.2 -31.3 -31.2s-31.2 14 -31.2 31.2 14 31.3 31.2 31.3 31.3 -14.1 31.3 -31.3zM125 156.3c-17.2 0 -31.2 14 -31.2 31.2s14 31.3 31.2 31.3 31.3 -14.1 31.3 -31.3S142.2 156.3 125 156.3zM93.8 812.5c0 17.2 14 31.3 31.2 31.3s31.3 -14.1 31.3 -31.3S142.2 781.3 125 781.3s-31.2 14 -31.2 31.2zM750 843.8c17.2 0 31.3 -14.1 31.3 -31.3S767.2 781.3 750 781.3s-31.2 14 -31.2 31.2 14 31.3 31.2 31.3z"/></svg>