<svg height="1000" width="875" xmlns="http://www.w3.org/2000/svg"><path d="M176.2 445.7c17.4 -82.8 73 -151.8 147.8 -186.9 7.1 9.6 54.7 75.8 99 154.3 -125 33.2 -234.9 32.8 -246.8 32.6zM614.5 300.8c-4.9 6.8 -45 60.7 -139.9 96.5C430.9 317 382.4 251 375 241c84.6 -20.5 173.8 1.6 239.5 59.8zM273.6 710.9c28 -57 103.5 -130.4 211.2 -167.1 37.5 97.2 53.1 178.9 57 202.3 -85.9 36.5 -189.1 26.6 -268.2 -35.2zm193 -211.3C370.1 526.8 282.4 604.9 239.1 678.9c-42.6 -47.5 -68.6 -110 -68.6 -178.5 0 -2.7 .2 -5.5 .2 -8.2 11.7 .4 141 1.9 274.2 -37.9 7.6 15 15.1 30.1 21.7 45.3zm68.2 31.8C618.4 518 692 539.8 701 542.8 689.1 617 646.5 681.3 586.5 721.7c-2.7 -16.2 -16.8 -94.4 -51.7 -190.3zm-39.7 -94.5c98.7 -40.4 143.4 -97.6 149 -105.3 37.3 45.4 59.8 103.2 60.4 166.3 -8.8 -2 -97.1 -19.8 -185.9 -8.6 -7.3 -17.6 -14.1 -33.2 -23.5 -52.4zM875 156.3v687.5c0 51.7 -42 93.7 -93.7 93.7H93.8C42 937.5 0 895.5 0 843.8V156.3C0 104.5 42 62.5 93.8 62.5h687.5c51.7 0 93.7 42 93.7 93.8zM750 500C750 327.7 609.8 187.5 437.5 187.5S125 327.7 125 500s140.2 312.5 312.5 312.5S750 672.3 750 500z"/></svg>