<svg height="1000" width="1000" xmlns="http://www.w3.org/2000/svg"><path d="M500 15.6c267.1 0 484.4 217.3 484.4 484.4S767.1 984.4 500 984.4 15.6 767.1 15.6 500 232.9 15.6 500 15.6zM820.3 239c-8.8 11.8 -78.1 100.7 -231.1 163.1 14.6 29.8 25.2 53.9 36.4 81.3 137.7 -17.3 274.4 10.4 288.1 13.3C912.8 399.1 877.9 309.4 820.3 239zm-46 -47.8C672.5 100.9 534.3 66.8 403 98.4c11.5 15.3 86.6 117.6 154.4 242.2C704.5 285.5 766.8 201.8 774.3 191.2zm-450.2 -65C208.4 180.8 121.8 287.5 95 415.9c18.5 .2 189 1 382.5 -50.4C408.9 243.6 335 141.2 324.1 126.2zM86.3 500.6c0 106.3 40.3 203.3 106.3 276.7 67.1 -114.8 203 -235.8 352.6 -278 -10.4 -23.5 -21.7 -47 -33.5 -70.2C305.1 490.9 104.6 488.4 86.5 488c-.1 4.2 -.2 8.4 -.2 12.6zM246 827c122.6 95.6 282.6 111.1 415.6 54.5C655.5 845.2 631.4 718.7 573.4 567.7 406.6 624.6 289.3 738.7 246 827zm485.2 16.6C824 780.8 890.1 681.4 908.5 566.3 894.3 561.8 780.4 527.9 650.8 548.6c54.1 148.7 76.1 269.8 80.4 295z"/></svg>