<svg height="1000" width="1000" xmlns="http://www.w3.org/2000/svg"><path d="M842.5 238.4c87.7 31.9 157.5 83.5 157.5 168.1v313c0 59.1 -53.7 112.6 -140.6 152.1V672.5c0 -25.8 -21 -46.8 -46.9 -46.8s-46.9 21 -46.9 46.8v232.3c-64.5 17.8 -138.8 29.4 -218.7 32.7V735.1c0 -25.8 -21 -46.8 -46.9 -46.8s-46.9 21 -46.9 46.8v202.4C373.2 934.2 298.9 922.6 234.4 904.8V672.5c0 -25.8 -21 -46.8 -46.9 -46.8s-46.9 21 -46.9 46.8v199.1C53.7 832.1 0 778.6 0 719.5v-313c0 -210.1 428.8 -219 500 -219 29.7 0 121.9 1.8 219.1 18.9l215 -138.6c4.3 -2.9 12.1 -5.3 17.3 -5.3 9.3 0 20.9 6.2 26 13.9l17.3 26c2.9 4.4 5.3 12.1 5.3 17.4 0 9.2 -6.2 20.8 -13.9 26zM500 531.7c224.4 0 406.3 -56 406.3 -125.2 0 -41.6 -66.3 -78.4 -167.7 -101L506.8 454.9c-4.3 2.9 -12.1 5.3 -17.3 5.3 -9.2 0 -20.9 -6.3 -26 -13.9l-17.3 -26c-2.9 -4.4 -5.3 -12.2 -5.3 -17.4 0 -9.2 6.2 -20.9 13.9 -26L597 285.1c-31.1 -2.3 -63.5 -3.7 -97 -3.7 -224.4 0 -406.3 56 -406.3 125.1 0 69.2 181.9 125.2 406.3 125.2z"/></svg>