<svg height="1000" width="1125" xmlns="http://www.w3.org/2000/svg"><path d="M562.5 62.5c310.7 0 562.5 111.9 562.5 250v375c0 138.1 -251.8 250 -562.5 250S0 825.6 0 687.5v-375C0 174.4 251.8 62.5 562.5 62.5zM400.4 371.8c10 -37.2 4.9 -76.1 -14.4 -109.5l-50 -86.6C191.6 202.4 93.8 253.6 93.8 312.5c0 60.1 102 112.2 251.3 138.4 26.9 -19.4 46.6 -46.7 55.3 -79.1zm162.1 97c41.2 0 80.9 -2 118.9 -5.3C665.7 412.4 618.6 375 562.5 375s-103.2 37.4 -118.9 88.5c38 3.3 77.7 5.3 118.9 5.3zm125 -281.3V162c-39.8 -3.6 -81.6 -5.7 -125 -5.7s-85.2 2.1 -125 5.7v25.5c0 68.9 56.1 125 125 125s125 -56.1 125 -125zM779.2 451c149.7 -26.1 252.1 -78.3 252.1 -138.5 0 -59 -98.3 -110.4 -243.1 -136.9l-50.1 86.7c-19.3 33.4 -24.4 72.3 -14.4 109.5 8.7 32.5 28.5 59.8 55.5 79.2z"/></svg>