<svg height="1000" width="1000" xmlns="http://www.w3.org/2000/svg"><path d="M903.9 96.8c67 67 98.5 155.5 96 243.3 -82 -44.3 -184.3 -34.3 -251.5 32.8 -79.8 79.8 -79.5 209.3 -2 295.1 -31.7 10.8 -84.7 19.5 -118.2 19.5 -.7 0 -2 0 -2.7 0H457.7l-79.3 79.2c-19 19.1 -21.6 46.9 -11.7 71.8 4.7 11.6 8.4 31.3 8.4 43.8 0 65.1 -52.8 117.9 -117.8 117.9 -27.1 0 -64.5 -15.6 -83.6 -34.8C143.9 935.6 135.4 894.2 144.2 855.9c-38.3 8.7 -79.7 .3 -109.6 -29.5C15.5 807.4 .1 770 .1 743.1 .1 678 52.8 625.2 117.9 625.2c12.5 0 32.1 3.8 43.7 8.4 24.9 9.9 52.9 7.2 71.8 -11.7l79.4 -79.3V375c0 -125 54 -209 123.3 -278.2C489.6 43.4 594.4 0 670 0s180.4 43.4 233.9 96.8z"/></svg>