<svg height="1000" width="875" xmlns="http://www.w3.org/2000/svg"><path d="M624 224c26.4 16.2 188.5 130.9 188.5 350.2C812.5 793 639.6 937.5 441 937.5 241.8 937.5 62.5 780.7 62.5 567.4c0 -212.9 166 -327.2 196.9 -343.4 36.5 -19.7 62.9 -29.9 104.5 -63.1 20.5 -16.2 37.7 -39.4 42.9 -96.6 29.7 35.7 65.5 77.1 90.9 94.3 41.4 27.3 83 38.1 126.3 65.4zm4.9 636c8.2 -8.2 3.7 -25.6 -8.2 -16.6 -16.6 12.3 -53.7 27.3 -106.4 27.3 -67.4 0 -100.6 -26 -100.6 -26 -12.1 0 -22.1 14.1 -12.7 23.5 51.9 47.8 188.6 31 227.9 -8.2zM522.5 757.2c-12.7 5.3 -55.5 32.8 -43.8 48.9 4.7 6.4 10.2 2.5 23.8 -9.2 14.1 -11.4 23.5 -21.5 52.2 -21.5 49.4 0 35.3 38.9 51.7 30.7 19.4 -9.6 -4.1 -40.9 -12.1 -46.3 -15.2 -10 -54.8 -9.6 -71.8 -2.6zM703.1 791c76.4 6.5 126 -207 30.9 -207 -39.1 0 -118.2 81 -159.8 81.6C526 666.6 459 569.9 362.3 570.9c-129.7 .8 -176.9 153.5 -101.2 205.5C372.9 852 515.8 692.6 576.2 694.3c38.1 1.4 97.2 94.8 126.9 96.7z"/></svg>