<svg height="1000" width="1250" xmlns="http://www.w3.org/2000/svg"><path d="M203.1 187.5c26 0 46.9 20.9 46.9 46.9v531.2c0 26 -20.9 46.9 -46.9 46.9h-93.7c-26 0 -46.9 -20.9 -46.9 -46.9V562.5H15.6C7 562.5 0 555.5 0 546.9v-93.8c0 -8.6 7 -15.6 15.6 -15.6h46.9V234.4c0 -26 20.9 -46.9 46.9 -46.9h93.7zm1031.3 250c8.6 0 15.6 7 15.6 15.6v93.8c0 8.6 -7 15.6 -15.6 15.6h-46.9v203.1c0 26 -20.9 46.9 -46.9 46.9h-93.7c-26 0 -46.9 -20.9 -46.9 -46.9V234.4c0 -26 20.9 -46.9 46.9 -46.9h93.7c26 0 46.9 20.9 46.9 46.9v203.1h46.9zM890.6 62.5c26 0 46.9 20.9 46.9 46.9v781.2c0 26 -20.9 46.9 -46.9 46.9h-93.7c-26 0 -46.9 -20.9 -46.9 -46.9V562.5H500v328.1c0 26 -20.9 46.9 -46.9 46.9h-93.7c-26 0 -46.9 -20.9 -46.9 -46.9V109.4c0 -26 20.9 -46.9 46.9 -46.9h93.7c26 0 46.9 20.9 46.9 46.9v328.1h250V109.4c0 -26 20.9 -46.9 46.9 -46.9h93.7z"/></svg>