<svg height="1000" width="1250" xmlns="http://www.w3.org/2000/svg"><path d="M817.8 203.3c-38.5 34.4 -73.7 71.3 -105.3 109H593.7v-250H790l28.2 140.6zM531.3 62.5v250H285l50 -250h196.2zM901 203.3l-23.3 -20.7 -24 -120.1h193.2c14.2 0 26.7 9.8 30.1 23.6l46.8 187.5c.4 1.6 -.2 3 0 4.5 -1.9 -1.9 -3.9 -4.3 -6 -6L1076.2 235l-41.6 37.1c-11.6 10.1 -22.7 20.9 -33.8 31.8C970.3 269.1 936.5 235.2 901 203.3zM31.3 312.5C10.9 312.5 -3.9 293.4 1 273.6L47.9 86.1c3.5 -13.8 16 -23.6 30.2 -23.6h193.2l-50 250h-190zM665.2 375C601.4 466.2 562.5 558 562.5 628.1c0 94.8 36.3 181.1 95.3 246.9H250v31.3c0 17.1 -14.1 31.2 -31.2 31.2h-62.5c-17.2 0 -31.3 -14.1 -31.3 -31.2V875L85.9 562.5H31.3C14.1 562.5 0 548.4 0 531.3v-62.5c0 -17.2 14.1 -31.3 31.3 -31.3h39L62.5 375h602.7zm411.2 -56.2c101.1 90.2 173.6 237.8 173.4 309.3 0 170.9 -139.8 309.4 -312.5 309.4S624.8 799 624.8 628.1c0 -96.3 97.3 -255.6 234.4 -378.1 53.5 47.7 100.6 98.8 138.7 149.2 23.2 -27.3 49.4 -54.5 78.5 -80.5zm-36.4 448c65.3 -47.3 80.5 -138.9 44.2 -210.6 -4.5 -8.7 -9.6 -17.9 -15.1 -27.3l-77.7 91.8S869.5 459.6 860.4 448.6c-64.3 79.9 -96.5 126.6 -96.5 179.5 0 106.5 77.9 171.9 173.6 171.9 38.3 0 73.8 -12.3 102.5 -33.2z"/></svg>