<svg height="1000" width="1125" xmlns="http://www.w3.org/2000/svg"><path d="M1093.8 312.5H903.7l-50 -250h193.2c14.2 0 26.7 9.8 30.2 23.6l46.9 187.5c4.9 19.8 -9.9 38.9 -30.2 38.9zM531.3 62.5v250H285l50 -250h196.2zm258.7 0l50 250H593.7v-250H790zm-758.7 250C10.9 312.5 -3.9 293.4 1 273.6L47.9 86.1c3.5 -13.8 16 -23.6 30.2 -23.6h193.2l-50 250h-190zm1062.5 125c17.1 0 31.2 14.1 31.2 31.3v62.5c0 17.1 -14.1 31.2 -31.2 31.2h-54.7L1000 875v31.3c0 17.1 -14.1 31.2 -31.2 31.2h-62.5c-17.2 0 -31.3 -14.1 -31.3 -31.2V875H250v31.3c0 17.1 -14.1 31.2 -31.2 31.2h-62.5c-17.2 0 -31.3 -14.1 -31.3 -31.2V875L85.9 562.5H31.3C14.1 562.5 0 548.4 0 531.3v-62.5c0 -17.2 14.1 -31.3 31.3 -31.3h39L62.5 375h1000l-7.8 62.5h39.1z"/></svg>