<svg height="1000" width="1000" xmlns="http://www.w3.org/2000/svg"><path d="M251.4 381.5c12.9 8 17.4 23.9 12.4 38.2 -5.9 16.8 -10.1 34.4 -12.2 52.6 -1.8 15.5 -13.7 27.7 -29.3 27.7H32.6C14.8 500 -.1 485.1 1.1 467.3 4.3 417 23.9 338.9 44.9 293 52.6 276.2 74 270.6 89.7 280.4zM623.1 15.6c17.9 4.6 27.2 24.6 20.3 41.8l-73.2 203.2c-4.4 12.4 -16.2 20.6 -29.4 20.6h-81.6c-12.1 0 -25.3 -9.2 -29.4 -20.6L356.6 57.4C349.7 40.2 359 20.2 376.9 15.6 416.3 5.5 457.5 0 500 0s83.7 5.5 123.1 15.6zM218.8 562.5c17.2 0 31.2 14 31.2 31.3v125C250 736 236 750 218.8 750H31.3C14 750 0 736 0 718.8v-125c0 -17.3 14 -31.3 31.3 -31.3h187.5zm0 250c17.2 0 31.2 14 31.2 31.3v125c0 17.2 -14 31.2 -31.2 31.2H31.3C14 1000 0 986 0 968.8v-125c0 -17.3 14 -31.3 31.3 -31.3h187.5zm150.9 -554c5.6 13.9 0 29 -12.3 37.6 -11.7 8.2 -22.6 17.4 -32.8 27.5C314 334.1 298.1 337 285.4 329l-162 -101.2c-15.8 -9.9 -20.1 -31.6 -8.2 -45.9C147.8 142.5 210.5 90 255 64.9c16.2 -9.2 36.9 -1 43.8 16.2zm408 241.5c-15.6 0 -27.5 -12.2 -29.3 -27.7 -2.1 -18.2 -6.3 -35.8 -12.2 -52.6 -5 -14.3 -.5 -30.2 12.4 -38.2L910.3 280.4c15.7 -9.8 37.1 -4.2 44.8 12.6 21 45.9 40.6 124 43.8 174.3 1.2 17.8 -13.7 32.7 -31.5 32.7H777.7zM884.8 181.9c11.9 14.3 7.5 36 -8.2 45.9L714.6 329c-12.7 8 -28.6 5.1 -39.3 -5.4 -10.1 -10.1 -21 -19.3 -32.8 -27.5 -12.2 -8.6 -17.8 -23.7 -12.3 -37.6l71 -177.4C708.1 63.9 728.8 55.7 745 64.9c44.5 25.1 107.2 77.5 139.8 117zm84 380.6c17.2 0 31.2 14 31.2 31.3v125c0 17.2 -14 31.2 -31.2 31.2H781.3C764 750 750 736 750 718.8v-125c0 -17.3 14 -31.3 31.3 -31.3h187.5zm0 250c17.2 0 31.2 14 31.2 31.3v125c0 17.2 -14 31.2 -31.2 31.2H781.3C764 1000 750 986 750 968.8v-125c0 -17.3 14 -31.3 31.3 -31.3h187.5zm-500 -465.6c10.2 -1.7 20.5 -3.2 31.2 -3.2s21 1.5 31.3 3.2v575c0 8.6 -7 15.6 -15.7 15.6h-31.2c-8.7 0 -15.6 -7 -15.6 -15.6v-575zm-125 81.1c15.9 -24 37.5 -43.6 62.5 -58.2v552.1c0 8.6 -7 15.6 -15.7 15.6h-31.2c-8.7 0 -15.6 -7 -15.6 -15.6V428zm250 -58.2c24.9 14.6 46.5 34.2 62.5 58.2v493.9c0 8.6 -7 15.6 -15.7 15.6h-31.2c-8.7 0 -15.6 -7 -15.6 -15.6V369.8z"/></svg>