<svg height="1000" width="1250" xmlns="http://www.w3.org/2000/svg"><path d="M1183.6 370.1h66.4l-193.8 380.5h-70.1l55.7 -105.7L921.7 418.2c6 12.9 9.4 28.3 9.4 46.4v128.2c0 18.1 .5 36.3 1.9 52.3h-58.2c-1.6 -13.5 -2.1 -26.5 -2.1 -39.4 -31.5 38.6 -69 49.8 -120.9 49.8 -77.2 0 -118.4 -40.9 -118.4 -87.9 0 -6.3 .4 -12.1 1.4 -17.6 -16.4 63.1 -71.1 105.9 -143.2 105.9 -45.5 0 -88.1 -16.3 -114.6 -48.7 0 12.9 -.8 25.8 -2.2 38.1h-61.5c1 -19.9 2.1 -44.5 2.1 -64.6V249.6h62.7V407c30.7 -36.5 73.1 -47.2 114.7 -47.2 69.7 0 147.2 47 147.2 148.8 0 10.9 -.9 21.5 -2.9 31.6 13.9 -47.6 67 -65.4 149.8 -67.2 26.8 -.5 56.7 -.7 81.5 -.7v-6.7c0 -45.7 -29.3 -64.4 -80.1 -64.4 -37.7 0 -65.6 15.6 -68.4 42.5h-65.8c7 -67.1 77.5 -84.1 139.7 -84.1 53.5 0 101.1 13.6 123.6 50.8l-21.3 -40.3h73.2l107.3 214.7zM476 612.9c58.2 0 98 -42 98 -105.1 0 -63.3 -39.8 -105.1 -98 -105.1 -57.8 0 -98.1 41.8 -98.1 105.1 0 63.1 40.3 105.1 98.1 105.1zm392.4 -92.4v-6.4c-23.1 0 -51.4 .2 -77 1.1 -56.8 1.8 -92.2 12.1 -92.2 49.4 0 24.3 19.4 50.4 68.4 50.4 65.8 0 100.8 -35.9 100.8 -94.5zm-804.5 3.1c6.8 113.9 154.7 112.1 178.1 42.2h64.6c-12.5 67.2 -83.9 90.1 -145.3 90.1C49.6 655.9 .2 594.3 .2 511.3 .2 419.9 51.4 359.8 162.3 359.8c88.5 0 153.1 46.3 153.1 147.2v16.6H63.9zm185.5 -41.8C244.9 375 78.5 371.3 65 481.8h184.4z"/></svg>