<svg height="1000" width="1000" xmlns="http://www.w3.org/2000/svg"><path d="M941.3 262.7c12.6 24.9 43.8 81.3 42.9 166.1C984 502.2 932.4 591.9 869 628.9c-29.2 17.4 -80.5 31.5 -114.4 31.6 -.3 0 -102.9 5 -157.3 -32.8 -11.4 -8 -17.8 -17.5 -17.8 -27.4 0 -12 9.4 -17.5 12.4 -21.5 19.2 -24.9 29.5 -55 29.5 -75.3C621.4 439.6 600 387.7 557 341.2c-2.3 -2.4 -84 -98 -238.8 -98C194.7 243.2 77.1 307 26.3 397.8 73.3 179.1 267.7 15.6 499.8 15.6c188.2 0 361.3 90.2 441.4 247.1zM415.6 929c2.5 1.2 56.6 40.3 131.1 53.2 -12.8 1.2 -33.6 2.2 -46.4 2.2 -170 0 -366.4 -124.9 -438.6 -278.8C11.4 597.3 14.7 498.7 16.8 474.6 24.9 407.7 69.7 358 108.3 328.5c57.9 -44.3 134.4 -69.7 210 -69.7 13.8 0 85.8 1.8 151.6 36.3 63.6 33.4 92.5 73.4 110.5 104.5 3 5.3 7.3 14.2 9.6 19.8 -8.3 -9.1 -78.3 -86.3 -193.5 2 -44.7 32.4 -94.6 101.5 -111.3 154.1 -27.6 78.9 -25.1 173 39.3 265.7 19.9 29.6 60.7 69 91.1 87.8zM905.3 737c3.8 2.5 7 8.2 7 12.8 0 2.4 -1.1 6.1 -2.4 8.1C817 905.3 660.2 970.6 591.6 970.6c-44.4 0 -94 -13.6 -140.1 -38.3C387.1 897.8 354.9 856.6 342.1 839.2 251.7 715.1 287 600.3 316.1 543c15.8 -31 49.7 -74.7 75.7 -97.7 -6.8 13.6 -12.5 37 -12.7 52.3 0 158 155.9 281.2 335 281.2h.7c38.5 0 99 -10.9 135.1 -24.4 11.3 -4.3 29.2 -12.3 39.9 -17.9 1.9 -1 5.2 -1.9 7.3 -1.9 2.5 0 6.1 1.1 8.2 2.4z"/></svg>