<svg height="1000" width="1125" xmlns="http://www.w3.org/2000/svg"><path d="M786.3 162.5l176.2 176.2c7.4 7.4 7.4 19.5 0 26.9L535.9 792.2l-181.2 20.1c-24.2 2.7 -44.7 -17.8 -42 -42l20.1 -181.2L759.4 162.5c7.4 -7.4 19.5 -7.4 26.9 0zm316.4 -44.7c29.7 29.7 29.7 77.9 0 107.8l-69.1 69.1c-7.4 7.4 -19.5 7.4 -27 0L830.5 118.6c-7.5 -7.5 -7.5 -19.6 0 -27l69.1 -69.1c29.9 -29.7 78.1 -29.7 107.8 0zM750 676.2c0 -6.3 2.5 -12.1 6.8 -16.6L835 581.4c14.8 -14.6 40 -4.3 40 16.6v308.3c0 51.7 -42 93.7 -93.7 93.7H93.8C42 1000 0 958 0 906.3V218.8C0 167 42 125 93.8 125H652c20.9 0 31.4 25.2 16.6 40l-78.2 78.2c-4.5 4.3 -10.3 6.8 -16.6 6.8H125v625h625V676.2z"/></svg>