<svg height="1000" width="1250" xmlns="http://www.w3.org/2000/svg"><path d="M1249.8 497.3c2.2 21.1 -10.3 27.9 -10.3 27.9s-52 38.3 -91.8 26.8c-39.9 -11.6 -42 -84.4 -42 -84.4h-3.7l-40.5 111.7s-16.2 54.5 -40.4 44.5c-24.2 -9.9 -23.6 -36.3 -23.6 -36.3s-37.7 41.6 -107.1 36.3c-60.7 -4.5 -80.2 -52.1 -80.2 -52.1s-40.7 28.1 -154.5 50.6c-51 5.6 -87.1 -25.2 -87.1 -25.2 -4.7 4.7 -35.2 19.9 -35.2 19.9S489.8 637.1 473 606.6c-16.8 -30.4 -5.8 -124.4 -5.8 -124.4h-3.1s-25.2 51.4 -38.3 97.5c-13.1 46.1 -29.3 41.4 -29.3 41.4s-29.9 2.7 -36.7 -22.3c-6.9 -25.2 10.9 -116.6 10.9 -116.6l-2.5 .6s-1.6 -2.7 -24.6 46.1c-39.3 95.5 -48.7 97.7 -71.3 93.6 -22.7 -4.1 -23.7 -32.7 -23.7 -32.7l-31 17.2s-75.4 32.5 -114.9 2.6C76.6 589.7 67.6 566.2 64.5 551.6c0 0 -33.3 -3.6 -54.9 -12 -21.7 -8.3 .2 -35.7 .2 -35.7s6.8 -10.3 19.5 0 36.7 5.7 36.7 5.7C68 493 70.9 471.1 81.2 448c21.5 -48.2 54 -64.4 80.7 -65 26.8 -.4 45.7 6.8 61.9 29.9C260.2 502.5 127.3 548 127.3 548s-3.5 23.7 32.7 23.1c36.3 -.4 91.4 -39.8 91.4 -39.8 2.5 -30.1 23.6 -124.1 29.3 -138.1 5.6 -14.1 27.7 -11.6 27.7 -11.6s17.4 -3.7 20.5 14.7c3.3 18.3 -12.5 93 -12.5 93l2.5 3.1c1.6 -7.2 39.9 -71.3 39.9 -71.3s22.1 -38.3 55.7 -36.7 -1.6 104.5 -1.6 104.5l2.5 3.1 2.6 -4.7c4.3 -11.5 54.1 -87.1 54.1 -87.1s18.7 -22.1 36.1 -16.8c17.2 5.1 18.4 13.1 19.3 27.7s-13.6 101.8 -13.6 101.8 -8.4 57 10.5 56S563.9 548 563.9 548s14.6 -112.5 24.6 -205.2c9.9 -92.8 52.9 -155.3 52.9 -155.3s12.7 -19.5 45.9 -32.6c21.9 -7.8 45.7 -2.6 57 45.1 18.6 80.1 -45.5 171.7 -72 205.5 11.5 -11.4 30.8 -23.7 53.1 -10.4 78.7 49.4 14.2 158 14.2 158 23.1 -7.4 64.5 -35.1 64.5 -35.1s1 -11.9 1.4 -14.7C819.5 422.7 868 393.6 877 386.7c9.3 -7 91.9 -38.7 95.7 46.9S869.3 549 869.3 549s9.4 24.6 48.9 18.4c39.4 -6.3 84.5 -44.5 84.5 -44.5 1.6 -35.2 24.6 -119.2 29.3 -131.3 4.7 -12.1 33.6 -12.7 36.7 -5.9 4.3 13.7 .6 73.5 .6 73.5l3.2 -1c11.5 -34.2 35.7 -60.9 35.7 -60.9s19.3 -19 35.2 -14.3c15.8 4.5 9.9 59.4 9.9 59.4s-8.4 59.9 18.4 62.5c26.7 2.7 57.2 -20.9 57.2 -20.9s18.8 -7.6 20.9 13.3zM120.9 507.6s12.1 3.7 38.9 -14.8c26.7 -18.4 32 -47.7 17.7 -61.4 -14 -13.4 -55 13.7 -56.6 76.2zM653.7 265.8s-31 106.5 -32 138.1c0 0 86.9 -140.6 78.1 -187.9 -8.8 -47.2 -46.1 49.8 -46.1 49.8zm44.5 270.3c24.7 -64.6 -7 -88.8 -7 -88.8s-45.7 -25.2 -65 39.4c-19.4 64.7 -12.5 87.7 -12.5 87.7s59.9 26.2 84.5 -38.3zm165.3 -28.5s30.6 2.2 51.5 -27.7 2.6 -49.8 2.6 -49.8 -16.8 -21.7 -38.3 17.8c-21.7 39.2 -15.8 59.7 -15.8 59.7z"/></svg>