<svg height="1000" width="968.8" xmlns="http://www.w3.org/2000/svg"><path d="M561.7 105.9c-21.1 -4.3 -43.1 -6.5 -65.4 -7.1V63.3c152.5 4.3 285.3 85.9 360.5 208.2L826 289.3c-11.9 -19 -24.8 -36.8 -39.5 -53l-35.1 30.3c-50.8 -57.8 -120 -99 -199.1 -114.1zM104.3 629.7c7.6 21.1 16.2 41.2 26.6 60.7L100 708.2C66.6 646.5 47.1 575.2 47.1 500S66.4 353.5 100 292l30.9 17.8c-10.4 18.9 -19.6 39.4 -26.6 60.5l44.3 15C136.1 421.1 129.7 460 129.7 500s7 78.9 19.5 114.6zm311.9 218l-9.2 46.4c21.1 3.8 43.4 6.5 65.5 7.1v35.7C319.9 932.4 186.5 850.4 111.3 728.7l31.3 -18.3c11.3 18.9 24.8 36.7 39.4 53.5L217.2 733c51 57.8 120.1 99 199 114.7zm-234 -611.6c-14.6 16.2 -27.5 34.2 -39.2 53.2l-30.9 -17.8C187.3 149.2 320.1 67.6 472.7 63.3v35.5c-22.3 .6 -44.4 2.8 -65.5 7.1l9.2 46.4c-79.1 15.1 -148.2 56.3 -199 114.1zm604.3 527.8c14.7 -16.8 28.1 -34.6 39.3 -53.5l31.4 18.3C782 850.4 648.6 932.6 496.1 936.9v-35.7c22.3 -.6 44.3 -3.3 65.4 -7.1l-9.2 -46.4C631.4 832 700.6 790.8 751.4 733zM968.8 500c0 267.6 -216.8 484.4 -484.4 484.4S0 767.6 0 500 216.8 15.6 484.4 15.6 968.8 232.4 968.8 500zm-23.9 0C944.9 245.9 738.5 39.5 484.4 39.5S23.8 245.9 23.8 500s206.5 460.5 460.6 460.5S944.9 754.1 944.9 500zM868.8 291.8c33.5 61.7 52.9 133 52.9 208.2s-19.4 146.5 -52.9 207.8L837.9 690c10.3 -19.5 18.9 -39.4 26.6 -60.5l-45 -15c12.5 -35.8 19.6 -74.7 19.6 -114.7s-6.5 -78.9 -19 -114.6l44.4 -15.1C857.4 349 848.2 328.5 837.9 309.6zM511.3 638.9l26 130.2c-16.8 3.4 -34.6 5.5 -52.9 5.5s-36.2 -2.1 -53 -5.5l26 -130.2C425.6 632.4 397.9 616.2 377.9 593l-100 87.5C254.7 653.9 236.3 623 225 589.1l125.4 -43.2c-4.9 -14.5 -7.6 -29.7 -7.6 -45.9s2.7 -31.2 7.6 -45.9l-126 -43.2c11.9 -34.1 30.3 -64.8 53.5 -91.4l100 87.5c20.1 -23.2 47.7 -40 79.5 -46.5l-26 -129.6c16.8 -3.9 34.6 -5.5 53 -5.5s36.1 1.7 52.9 5.5l-26 129.6c31.9 6.5 59.6 23.3 79.5 46.5l100 -87.5c23.3 26.6 41.6 57.5 53.5 91.4l-125.9 43.2c4.8 14.5 7.6 29.7 7.6 45.9s-2.8 31.3 -7.6 45.9l125.4 43.2c-11.4 34.1 -29.7 64.8 -53 91.4L590.8 593c-20.1 23.2 -47.6 39.4 -79.5 45.9z"/></svg>