<svg height="1000" width="1000" xmlns="http://www.w3.org/2000/svg"><path d="M343.8 421.9c-17.3 0 -31.3 -14 -31.3 -31.3v-31.2c0 -17.3 14 -31.3 31.3 -31.3h312.5c17.2 0 31.2 14 31.2 31.3v31.2c0 17.3 -14 31.3 -31.2 31.3H343.8zm-31.3 156.2v-31.2c0 -17.3 14 -31.3 31.3 -31.3h312.5c17.2 0 31.2 14 31.2 31.3v31.2c0 17.3 -14 31.3 -31.2 31.3H343.8c-17.3 0 -31.3 -14 -31.3 -31.3zM500 814.7c32.1 0 64.1 -9.9 91.5 -29.7L1000 490v416.3c0 51.7 -42 93.7 -93.7 93.7H93.8C42 1000 0 958 0 906.3V490l408.5 295c27.4 19.8 59.4 29.7 91.5 29.7zM964.1 318.3c22.7 17.7 35.9 44.9 35.9 73.7v20.8L812.5 548.3V187.5h-625v360.8L0 412.8V392c0 -25.2 16.1 -58.2 35.9 -73.7 17.3 -13.6 33.7 -26.4 57.8 -44.6v-86.2c0 -51.8 42 -93.8 93.8 -93.8H339c5.9 -4.2 11.4 -8.3 17.6 -12.8C389.5 57 454.7 -.7 500 0c45.3 -.7 110.5 57 143.4 80.9 6.2 4.5 11.7 8.6 17.6 12.8h151.5c51.8 0 93.7 42 93.7 93.8v86.2c24.2 18.3 40.6 31 57.9 44.6z"/></svg>