<svg height="1000" width="875" xmlns="http://www.w3.org/2000/svg"><path d="M781.3 62.5c51.7 0 93.7 42 93.7 93.8v687.5c0 51.7 -42 93.7 -93.7 93.7H93.8C42 937.5 0 895.5 0 843.8V156.3C0 104.5 42 62.5 93.8 62.5h687.5zM347.9 511.9c20.5 15 61.3 51 89.6 50.6 28.3 .4 69.1 -35.6 89.6 -50.6C704.2 383.4 702.4 383.1 750 346v-49.1C750 271 729 250 703.1 250H171.9C146 250 125 271 125 296.9V346c47.6 37 45.8 37.4 222.9 165.9zM750 425.3c-27.3 21.1 -65.1 49.3 -186.1 137.1C537.2 581.9 490 625.3 437.5 625c-52.2 .3 -98.7 -42.3 -126.4 -62.5C190.1 474.6 152.3 446.4 125 425.3v277.8c0 25.9 21 46.9 46.9 46.9h531.2C729 750 750 729 750 703.1V425.3z"/></svg>