<svg height="1000" width="1000" xmlns="http://www.w3.org/2000/svg"><path d="M981.1 372.7c7.6 -6.1 18.9 -.4 18.9 9.1v399.5c0 51.7 -42 93.7 -93.7 93.7H93.8C42 875 0 833 0 781.3V382c0 -9.7 11.1 -15.2 18.9 -9.1 43.8 33.9 101.8 77.1 301 221.8 41.2 30.1 110.8 93.4 180.1 93 69.7 .6 140.6 -64.1 180.3 -93C879.5 450 937.3 406.6 981.1 372.7zM500 625c-45.3 .8 -110.5 -57 -143.4 -80.9C97.5 356.1 77.7 339.5 18 292.8 6.6 283.8 0 270.3 0 255.9v-37.1C0 167 42 125 93.8 125h812.5c51.7 0 93.7 42 93.7 93.8v37.1c0 14.4 -6.6 28.1 -18 36.9 -59.7 46.8 -79.5 63.3 -338.6 251.3C610.5 568 545.3 625.8 500 625z"/></svg>