<svg height="1000" width="1000" xmlns="http://www.w3.org/2000/svg"><path d="M1000 906.3c0 51.7 -42 93.7 -93.7 93.7H93.8C42 1000 0 958 0 906.3V392c0 -25.1 16.1 -58.2 35.9 -73.7C84.6 280.1 124.8 249.2 356.6 80.9 389.5 57 454.7 -.7 500 0c45.3 -.7 110.5 57 143.4 80.9 231.8 168.3 272.1 199.2 320.7 237.4 19.8 15.5 35.9 48.6 35.9 73.7v514.3zm-128.3 -384c-5 -7.3 -15 -9 -22.1 -3.8C805 551.5 741.3 598 643.4 669.1 610.5 693 545.3 750.7 500 750c-45.3 .7 -110.5 -56.9 -143.4 -80.9C258.7 598 195 551.5 150.4 518.5c-7.1 -5.2 -17.1 -3.5 -22.1 3.8L110.5 548c-1.5 2.2 -2.7 6.2 -2.7 8.9 0 4.3 2.8 10 6.3 12.5 44.7 33.1 108.3 79.5 205.7 150.2 39.6 28.9 110.4 93.4 180.2 92.9 69.8 .5 140.5 -64 180.2 -92.9 97.4 -70.7 161 -117.1 205.7 -150.2 3.5 -2.5 6.3 -8.2 6.3 -12.5 0 -2.7 -1.2 -6.7 -2.7 -8.9z"/></svg>