<svg height="1000" width="750" xmlns="http://www.w3.org/2000/svg"><path d="M750 679.7c-3.4 21 -26.9 214.8 -30.3 257.8C489.5 929.1 290.2 928.2 0 937.5v-49.8C88.8 870.2 118.4 872 119.1 818.8c3.5 -141.2 6.9 -476.8 0 -628.9C117.1 134.4 95.4 137.7 0 119.6V69.8c144.3 4.6 499.9 16.7 709 -7.3 -6.9 74.7 -15.2 247.1 -15.2 247.1h-45.4C626.9 225.9 611.8 132.8 541.5 132.8H273.9c-20 0 -21 6.8 -21 19.1v319.8c113.3 1 172.9 -4.9 172.9 -4.9 58.1 -1.9 53.8 -16.6 79.6 -127.4h50.3c-8.6 197.9 -7.7 120.7 -3.5 312.9H502C484.1 574 484.2 533.1 424.8 532.2c0 0 -42 -3.9 -171.9 -3.9v271.5c0 50.8 27.9 74.7 86.5 74.7h174.3c124.3 0 130 -48.8 192.8 -194.8H750z"/></svg>