<svg height="1000" width="750" xmlns="http://www.w3.org/2000/svg"><path d="M236 258.2c3.1 43.6 -34.3 42.2 -42.2 42.2 -134.7 0 -143.9 -2 -163.3 6.5 -1.1 .4 -1.4 0 -.7 -.7l212 -215.5c.7 -.7 1.1 -.4 .7 .7C234 111 236 120.9 236 258.2zm154.3 601.6C361.6 787.4 415.7 709.5 492.9 710.1c34.1 0 44.1 45.4 15.5 61.4 -12.1 6.4 -48.8 3.4 -49.1 37.5 -.1 33.4 38.4 48.8 60.9 48.6 49.2 0 89.2 -39.9 89.2 -89.1v-.2c0 -22.7 -15.2 -92.2 -92.9 -108.1C501.4 657.2 389.6 647.8 383 561.5c-7.3 33.1 -34 124 -84.2 135 -17 3.8 -136.1 14.9 -220.5 -71.8 0 0 -36.3 -29.8 -55.2 -113.2C16.5 480.7 5 433.9 1.4 390.4c0 -35.2 21.7 -59.5 49 -62.9 158.2 0 175.7 4.5 197.2 -15.2 19.2 -18.1 15.3 -30.3 15.3 -200.8 1.9 -16.2 15.2 -60.2 104.3 -47.1 11.7 1.7 62.3 8.1 73.2 59.8L565.9 146c39.9 7.2 138.5 13.7 157.4 113.2 44.3 236.5 17.4 465.7 15.2 465.7C707.3 948.3 521.6 937.5 521.6 937.5c-37 -.4 -106 -18.4 -131.4 -77.8zM548.4 459.7c-2 3.8 -4.3 11.7 1.6 13.7 27.5 9.6 77.7 13.3 89.6 10.8 6.1 -.5 6 -8.7 4.9 -13 -6.9 -42.7 -79.8 -51.8 -96.2 -11.6z"/></svg>