<svg height="1000" width="875" xmlns="http://www.w3.org/2000/svg"><path d="M0 351.6V109.4C0 83.4 20.9 62.5 46.9 62.5h242.2c12.9 0 23.4 10.5 23.4 23.4v78.2c0 12.9 -10.5 23.4 -23.4 23.4H125v164.1c0 12.9 -10.5 23.4 -23.4 23.4H23.4C10.5 375 0 364.5 0 351.6zM562.5 85.9C562.5 73 573 62.5 585.9 62.5h242.2c26 0 46.9 20.9 46.9 46.9v242.2c0 12.9 -10.5 23.4 -23.4 23.4h-78.2C760.5 375 750 364.5 750 351.6V187.5H585.9c-12.9 0 -23.4 -10.5 -23.4 -23.4V85.9zM851.6 625c12.9 0 23.4 10.5 23.4 23.4v242.2c0 26 -20.9 46.9 -46.9 46.9H585.9c-12.9 0 -23.4 -10.5 -23.4 -23.4v-78.2c0 -12.9 10.5 -23.4 23.4 -23.4H750V648.4c0 -12.9 10.5 -23.4 23.4 -23.4h78.2zM312.5 914.1c0 12.9 -10.5 23.4 -23.4 23.4H46.9C20.9 937.5 0 916.6 0 890.6V648.4C0 635.5 10.5 625 23.4 625h78.2c12.9 0 23.4 10.5 23.4 23.4v164.1h164.1c12.9 0 23.4 10.5 23.4 23.4v78.2z"/></svg>