<svg height="1000" width="875" xmlns="http://www.w3.org/2000/svg"><path d="M415.4 615.8l-181 181.1 64.3 60.6c29.5 29.5 8.6 80 -33.2 80H46.8C20.9 937.5 0 916.5 0 890.6V671.9c0 -41.8 50.4 -62.7 79.9 -33.2l60.7 64.4 181.1 -181c12.2 -12.2 31.9 -12.2 44.1 0l49.6 49.6c12.2 12.2 12.2 31.9 0 44.1zm44.2 -231.6l181 -181.1 -64.3 -60.6c-29.5 -29.5 -8.6 -80 33.2 -80h218.7c25.9 0 46.8 21 46.8 46.9v218.7c0 41.8 -50.4 62.7 -79.9 33.2l-60.7 -64.4 -181.1 181c-12.2 12.2 -31.9 12.2 -44.1 0l-49.6 -49.6c-12.2 -12.2 -12.2 -31.9 0 -44.1z"/></svg>