<svg height="1000" width="875" xmlns="http://www.w3.org/2000/svg"><path d="M875 671.9V890.7c0 25.9 -20.9 46.8 -46.8 46.8H609.4c-41.8 0 -62.7 -50.6 -33.2 -80.1l70.7 -70.7L437.5 577.3 228.1 786.9l70.7 70.5c29.5 29.5 8.6 80.1 -33.2 80.1H46.8C20.9 937.5 0 916.6 0 890.7V671.9c0 -41.8 50.6 -62.7 80.1 -33.2l70.7 70.7L360.3 500 150.7 290.4l-70.6 70.9C50.6 390.8 0 369.9 0 328.1V109.3C0 83.4 20.9 62.5 46.8 62.5H265.6c41.8 0 62.7 50.6 33.2 80.1l-70.7 70.7 209.4 209.4L646.9 213.1l-70.7 -70.5c-29.5 -29.5 -8.6 -80.1 33.2 -80.1H828.2c25.9 0 46.8 20.9 46.8 46.8V328.1c0 41.8 -50.6 62.7 -80.1 33.2l-70.7 -70.7L514.7 500l209.6 209.6 70.6 -70.7c29.5 -29.7 80.1 -8.8 80.1 33z"/></svg>