<svg height="1000" width="968.8" xmlns="http://www.w3.org/2000/svg"><path d="M484.4 84.8c229.3 0 415.2 185.9 415.2 415.2S713.7 915.2 484.4 915.2 69.1 729.3 69.1 500 255.1 84.8 484.4 84.8zM294.1 344.3h-.3v52c0 9.8 7.6 17.4 17.3 17.4h34.6c9.8 0 17.4 -7.6 17.4 -17.4v-52c0 -160.3 242.2 -160.3 242.2 0v52c0 9.8 7.6 17.4 17.4 17.4h34.5c9.8 0 17.4 -7.6 17.4 -17.4v-52c0 -104.8 -85.3 -190.2 -190.2 -190.2S294.1 239.5 294.1 344.3zm467 397.9V465.4c0 -18.9 -15.6 -34.5 -34.5 -34.5H242.2c-19 0 -34.6 15.6 -34.6 34.5v276.8c0 18.9 15.6 34.6 34.6 34.6h484.4c18.9 0 34.5 -15.7 34.5 -34.6zM276.8 474v259.6c0 4.9 -3.8 8.6 -8.6 8.6h-17.4c-4.9 0 -8.6 -3.7 -8.6 -8.6V474c0 -4.9 3.7 -8.6 8.6 -8.6h17.4c4.8 0 8.6 3.7 8.6 8.6zm276.7 95.1c0 25.4 -14 47.7 -34.6 59.4v61.7c0 9.8 -7.6 17.4 -17.3 17.4H467c-9.8 0 -17.4 -7.6 -17.4 -17.4v-61.7C429.1 616.6 415 594.5 415 569.1c0 -38.4 30.9 -69.1 69.2 -69.1 38.3 0 69.3 30.9 69.3 69.1zM484.4 15.6C752 15.6 968.8 232.4 968.8 500S752 984.4 484.4 984.4 0 767.6 0 500 216.8 15.6 484.4 15.6zm0 934.2c248 0 449.8 -201.8 449.8 -449.8S732.4 50.2 484.4 50.2 34.6 252 34.6 500s201.7 449.8 449.8 449.8z"/></svg>