<svg height="1000" width="1000" xmlns="http://www.w3.org/2000/svg"><path d="M843.8 625c17.2 0 31.2 14 31.2 31.3v250c0 51.7 -42 93.7 -93.7 93.7H93.8C42 1000 0 958 0 906.3V218.8C0 167 42 125 93.8 125h312.5c17.2 0 31.2 14 31.2 31.3v62.5c0 17.2 -14 31.2 -31.2 31.2H125v625h625V656.3C750 639 764 625 781.3 625h62.5zM953.1 0C979 0 1000 21 1000 46.9v250c0 42 -50.8 62.5 -80.1 33.2l-69.7 -69.7L374.4 736.3c-7.6 7.6 -22.5 13.8 -33.2 13.8s-25.7 -6.2 -33.3 -13.8l-44.2 -44.2c-7.6 -7.6 -13.8 -22.4 -13.8 -33.2s6.2 -25.6 13.8 -33.2l476 -475.8L669.9 80.1C640.5 50.6 661.4 0 703.1 0h250z"/></svg>