<svg height="1000" width="1125" xmlns="http://www.w3.org/2000/svg"><path d="M1118.2 471.5c3.8 7.4 6.8 20.2 6.8 28.5s-3 21.1 -6.8 28.5C1012.3 735.1 802.6 875 562.5 875S112.7 735.2 6.8 528.5C3 521.1 0 508.3 0 500s3 -21.1 6.8 -28.5C112.7 264.9 322.4 125 562.5 125s449.8 139.8 555.7 346.5zM562.5 781.3h.1c155.2 0 281.2 -126 281.2 -281.2v-.1c0 -155.3 -126 -281.3 -281.3 -281.3S281.3 344.7 281.3 500s126 281.2 281.2 281.2zm0 -468.8h.4c103.3 0 187.1 83.8 187.1 187.1 0 103.2 -83.8 187 -187.1 187 -103.2 0 -187 -83.8 -187 -187 0 -13.8 2.9 -35.7 6.5 -49 13.6 10 38.5 18.1 55.4 18.1 51.6 0 93.5 -41.8 93.5 -93.4 0 -16.9 -8.2 -41.8 -18.2 -55.4 13.3 -3.9 35.5 -7.2 49.4 -7.4z"/></svg>