<svg height="1000" width="1250" xmlns="http://www.w3.org/2000/svg"><path d="M625 781.3c14.1 -.2 36.9 -2.5 50.8 -5.1l101.3 78.4C728.3 867.2 677.6 875 625 875 384.9 875 175.2 735.2 69.3 528.5 65.5 521.1 62.5 508.3 62.5 500s3 -21.1 6.8 -28.5c20 -39.1 44.8 -74.8 71.7 -108.6l204.9 158.4c11 145.3 131 260 279.1 260zm612.9 113.4c6.7 5.2 12.1 16.3 12.1 24.7 0 5.9 -2.9 14.5 -6.6 19.2l-38.3 49.3c-5.2 6.7 -16.3 12.1 -24.7 12.1 -5.9 0 -14.5 -2.9 -19.2 -6.6L12.1 105.3C5.4 100.1 0 89 0 80.6 0 74.7 3 66.1 6.6 61.4L44.9 12.1C50.1 5.4 61.2 0 69.6 0c5.9 0 14.5 2.9 19.2 6.6l248.5 192C411.5 158.1 540.4 125.1 625 125c240.1 0 449.8 139.8 555.7 346.5 3.8 7.4 6.8 20.2 6.8 28.5s-3 21.1 -6.8 28.5C1148 592.3 1076.9 681.6 1022 727.9zM879.1 617.4c16.8 -35.8 27.2 -75.2 27.2 -117.4v-.2c0 -155.1 -126 -281 -281.1 -281h-.2c-55.6 0 -135.4 29 -178 64.6l143.7 111.1c1.5 -5.3 2.8 -14 3.1 -19.5 -.1 -16.9 -8.2 -41.5 -18.2 -55.1 14 -4.1 37.2 -7.4 51.8 -7.4 102.2 0 185.1 82.9 185.1 185.1 0 .6 0 1.7 0 2.4 -.2 16.5 -4.8 42.5 -10.2 58z"/></svg>