<svg height="1000" width="1000" xmlns="http://www.w3.org/2000/svg"><path d="M501.1 15.6c273.5 0 483.3 199.9 483.3 469.9 0 342 -324.5 533.6 -623.9 451.2 -17.6 -4.7 -18.9 -1.1 -122.2 44.4 -4.1 1.8 -11.1 3.2 -15.6 3.2 -20.7 0 -38.2 -16.8 -38.9 -37.5 -2.7 -90.6 .6 -99.1 -15.7 -113.8C73.7 748.7 15.6 626.7 15.6 485.5c0 -270 212 -469.9 485.5 -469.9zm291.5 361.6c13.7 -21.6 -13 -46.1 -33.4 -30.5L606 462.7c-4.3 3.2 -12.2 5.8 -17.5 5.8s-13.3 -2.6 -17.6 -5.8L457.5 377.8c-10.7 -8 -30.3 -14.5 -43.7 -14.5 -22.1 0 -49.8 15.2 -61.6 33.9L209.6 622.9c-13.8 21.6 13 46.1 33.4 30.6L396.1 537.4c4.3 -3.2 12.2 -5.8 17.6 -5.8s13.2 2.6 17.5 5.8l113.5 84.9c10.7 8 30.3 14.5 43.6 14.5 22.2 0 49.8 -15.2 61.7 -33.9z"/></svg>