<svg height="1000" width="1000" xmlns="http://www.w3.org/2000/svg"><path d="M688.6 250c159.8 0 291.6 120.4 311.1 276 2.6 20.5 -14 38.4 -34.4 36.3L724.9 538.1C741.2 583 750 633.8 750 688.6c0 159.8 -120.4 291.6 -276 311.1 -20.5 2.6 -38.4 -14 -36.3 -34.4l24.2 -240.4C417 741.2 366.3 750 311.4 750 151.6 750 19.8 629.6 .3 474c-2.6 -20.5 14 -38.5 34.4 -36.3l240.4 24.2C258.8 417 250 366.3 250 311.4 250 151.6 370.4 19.8 526 .3c20.5 -2.6 38.5 14 36.3 34.4l-24.2 240.4C583 258.8 633.8 250 688.6 250zM500 562.5c34.5 0 62.5 -28 62.5 -62.5s-28 -62.5 -62.5 -62.5 -62.5 28 -62.5 62.5 28 62.5 62.5 62.5z"/></svg>