<svg height="1000" width="1000" xmlns="http://www.w3.org/2000/svg"><path d="M500 64.2L935.8 500 500 935.8 64.2 500zM172.5 499.7c22.2 21.9 58.2 57.6 80.4 79.5 39.3 -38.8 79 -77.9 120.8 -119.1 23.5 24.5 47.9 49.9 71.3 74.4 23.5 -22.8 46.4 -45 69.7 -67.7C501.1 452.3 452 402.7 446.2 396.9c-3.7 -3.7 -4.5 -6.3 -.2 -10.4 30.4 -29.8 76.6 -34.8 111.3 -10 15.6 11.2 27.9 22.8 94.7 85.9 21.1 -21.8 43.4 -44.7 65.4 -67.8 1 -1 .2 -5.1 -1.1 -6.6 -.2 -.2 -73.3 -79.3 -121.4 -115.2C529.3 223.8 442 227.7 361 309.3 195.8 475.6 176.4 495.8 172.5 499.7zm458.7 198.4C667.9 661.4 788.1 540.6 827.5 499.9c-26.9 -26.3 -53.1 -52 -79.8 -78.2 -39.1 38.5 -78.6 77.5 -119.7 118C603.9 514.6 579.4 489.1 555.3 464c-2.5 1.4 -3.2 1.6 -3.8 2.1 -20.9 21 -41.8 42.1 -62.9 63.1 -4.3 4.3 -1 6.5 1.6 9.1 20.7 21 41.4 41.9 62 62.9 7 7 7 7.5 -.2 14.1 -32.8 30.2 -79.8 32.3 -115.9 3.5C421.2 607 413.3 598.9 348.8 536.6c-22.6 23.2 -45.5 46.8 -69 70.9 65.5 67.9 99.3 104.2 142.4 130.6 56.5 34.5 139.7 29.2 209 -40zM500 0l500 500 -500 500L0 500zM31.3 500L500 968.8 968.8 500 500 31.3z"/></svg>