<svg height="1000" width="1000" xmlns="http://www.w3.org/2000/svg"><path d="M687.5 500C860 500 1000 640 1000 812.5c0 34.5 -28 62.5 -62.5 62.5h-125C778 875 750 847 750 812.5S722 750 687.5 750h-25c-40.2 73.7 -125.4 125 -225 125S252.7 823.7 212.5 750H31.3C14 750 0 736 0 718.8V531.3C0 514 14 500 31.3 500h231.6c30.7 -26.2 69.3 -44.9 112.1 -54.7v-92.9l62.5 -6.6 62.5 6.6v92.9c42.8 9.6 81.4 28.4 112.1 54.7h75.4zM159.4 312.3C141 314.3 125 299 125 279.5v-59c0 -19.5 16 -34.8 34.4 -32.8L375 210.4v-54.2C375 139 389 125 406.2 125h62.5c17.3 0 31.3 14 31.3 31.2v54.2l215.6 -22.7c18.4 -2 34.4 13.3 34.4 32.8v59c0 19.5 -16 34.8 -34.4 32.8L437.5 283z"/></svg>