<svg height="1000" width="1000" xmlns="http://www.w3.org/2000/svg"><path d="M937.5 312.5c34.5 0 62.5 28 62.5 62.5v562.5c0 34.5 -28 62.5 -62.5 62.5h-625C278 1000 250 972 250 937.5v-875C250 28 278 0 312.5 0h474.1c14.3 0 34.1 8.2 44.2 18.3l88.4 88.4c10.1 10.1 18.3 29.9 18.3 44.2v161.6zm-375 531.3v-62.5c0 -17.3 -14 -31.3 -31.2 -31.3h-62.5c-17.3 0 -31.3 14 -31.3 31.3v62.5c0 17.2 14 31.2 31.3 31.2h62.5c17.2 0 31.2 -14 31.2 -31.2zm0 -250v-62.5c0 -17.3 -14 -31.3 -31.2 -31.3h-62.5c-17.3 0 -31.3 14 -31.3 31.3v62.5c0 17.2 14 31.2 31.3 31.2h62.5c17.2 0 31.2 -14 31.2 -31.2zm250 250v-62.5c0 -17.3 -14 -31.3 -31.2 -31.3h-62.5c-17.3 0 -31.3 14 -31.3 31.3v62.5c0 17.2 14 31.2 31.3 31.2h62.5c17.2 0 31.2 -14 31.2 -31.2zm0 -250v-62.5c0 -17.3 -14 -31.3 -31.2 -31.3h-62.5c-17.3 0 -31.3 14 -31.3 31.3v62.5c0 17.2 14 31.2 31.3 31.2h62.5c17.2 0 31.2 -14 31.2 -31.2zm0 -218.8V250h-93.7c-17.3 0 -31.3 -14 -31.3 -31.2V125H375v250h437.5zM125 250c34.5 0 62.5 28 62.5 62.5v625c0 34.5 -28 62.5 -62.5 62.5H62.5C28 1000 0 972 0 937.5v-625C0 278 28 250 62.5 250H125z"/></svg>