<svg height="1000" width="1250" xmlns="http://www.w3.org/2000/svg"><path d="M1144.5 555.7L1250 673.8h-125.8L1080.7 625l-43.2 48.8H623v-23.2h-.9c-15.5 22.8 -40.7 36.3 -68.2 36.3C490 686.9 443.8 635.4 436.5 575.8h-167c0 45.9 60.8 69.3 89.5 28.5h82C387.1 736.5 186.7 700.8 186.7 558c0 -12.5 1.6 -24.4 4.5 -35.5H95.7v151.3H0V313.7h212.9v80.2H95.7v51.2h107v47.3c47.9 -85.2 203 -88.7 238.1 27.3C455.5 469.9 497.3 432 552.7 432c27.2 0 50.4 7.5 69.2 28.9h1V313.5h295.3v93.9H808.6v31.3h231.8l44 48.4 42.4 -48.4h121.8zM272.1 523.2h90.8c-9.4 -50 -78.9 -51.3 -90.8 0zm299.6 95.6c67.4 0 63.7 -122.7 0 -122.7 -66.4 0 -67.6 122.7 0 122.7zm327.7 37.3v-57.9H789.8v-87.3h109.6v-54.8H791v-66.3h109.6v-58.9H715v325.2h184.4zm-89.6 -77.8h109.5v89.1l99.1 -111.3L919.3 444.7v86H809.8v47.6zm270.7 20.1l51.3 57.7h79.1l-89.8 -100.4 88.7 -99.6h-75.2l-50 57.2 -52 -57.2h-77.5l89 100 -89 100h74.4z"/></svg>