<svg height="1000" width="875" xmlns="http://www.w3.org/2000/svg"><path d="M439.5 62.5c241.6 .6 436.9 197.1 436.3 438.7 -.6 241.6 -197.1 436.9 -438.7 436.3l-332.4 -.8C46.9 936.7 0 889.8 0 832c0 -.1 0 -.4 0 -.6L.8 498.8C1.6 257.2 197.8 61.9 439.5 62.5zm331.6 307c-.2 -12.2 -2.6 -31.8 -5.5 -43.7L657.8 216.2v3.1c0 10 -2.9 18.8 -7.4 28zM646.5 184.2c3.2 4.5 6.9 12.5 8.2 17.9l106 106.7C744.6 260.3 693.4 204.5 646.5 184.2zM230.7 482.8c-8.9 .7 -23.1 3.3 -31.7 5.7l16.6 16.6c3.3 -6.7 10.1 -16.7 15.1 -22.3zm-41.2 8.2c-7.7 2.1 -19.7 6.7 -26.8 10.2l52.7 53.1c-2.5 -6.5 -4.6 -17.4 -4.7 -24.4l1.8 -15.6zm-35.6 14.5c-6.3 3.5 -16.1 9.8 -21.9 14l69 70.1c7.2 -3.6 19.6 -7.7 27.5 -9.1zm-29.7 19.1c-6 4.5 -14.8 12.7 -19.7 18.4l68.2 67.5c5.2 -5.1 14.3 -12.5 20.5 -16.6zm-26 24c-5.6 6.5 -11.3 13.1 -16.8 20.5l70 70.2c3.4 -6.7 10.1 -16.7 15 -22.3zm-21.4 28c-4.1 6.2 -10 16.7 -13.1 23.4l77.1 77.7c.6 -8.5 3.8 -21.8 7.1 -29.7zm-17.2 31.8c-3.5 9.6 -6.5 18.7 -9.2 28.3l102.9 104.5C146.6 727.9 140.8 705 140.2 690zm-15.5 84c.1 12 2.7 31.1 5.7 42.8L158 843.9v-2.1c.1 -8.2 3.2 -20.7 7 -27.9zm10.4 59.9c16.2 48.5 67.4 104.3 114.3 124.7 -3.2 -4.6 -6.9 -12.6 -8.3 -18zM44.1 680.1l125.8 125.4c4.5 -5.7 13.2 -13.3 19.4 -17L48.2 646.9c-2.1 9 -3.9 23.9 -4.1 33.2zM538.9 578.9c63.6 .2 63.8 -96.1 .4 -96.5l-65.7 -.2c-9.6 0 -17.4 -7.8 -17.4 -17.4v-.2l.2 -91.7c.2 -79.2 75.4 -118.8 129 -107.3 30 7.6 59.1 -16.4 59.1 -46.7 0 -23.6 -17 -43.3 -38.8 -46.8 -10.6 -2.5 -27.9 -4.5 -38.7 -4.5 -.2 0 -.6 0 -.8 0 -.2 0 -.6 0 -.8 0 -113.2 0 -205.2 91.9 -205.4 205.1l-.2 109.3 -83.2 -.2c-63.7 -.2 -63.9 96.1 -.2 96.3l65.6 .2c8.6 0 17.4 8.8 17.4 17.6l-.2 91.8c0 60.3 -49 109.2 -109.2 109.2h-.4c-18.4 0 -18.4 -3.1 -30.7 -3.1 -26.1 .4 -47.5 21.9 -47.8 48 0 30.3 27.7 47.3 38.9 47.3 119.7 25.2 245.1 -65.7 245.5 -201l.2 -109.4zm45.9 -.6c8.8 -.8 22.9 -3.4 31.4 -5.6l-16.6 -16.6c-2.9 6.9 -9.5 16.9 -14.8 22.2zm41 -8.2c7.6 -2.1 19.6 -6.8 26.7 -10.3l-52.7 -53.2c2.6 6.5 4.7 17.5 4.7 24.5l-1.8 15.8zm35.1 -14.4c7.9 -4.3 15.9 -9.2 23.3 -14.1l-70.7 -70.1c-8 4.5 -17.2 7 -26.8 9.2zm30.3 -19.2c5.7 -4.5 14.6 -12.4 19.7 -17.6l-68.1 -68.3c-5.2 5.2 -14.4 12.6 -20.5 16.6zm25.8 -24c4.9 -5.4 12.4 -14.6 16.8 -20.5l-69.9 -70.1c-3.5 6.6 -10.2 16.5 -15.1 22.2zm21.5 -27.9c4.1 -6.2 10 -16.7 13.1 -23.5l-77.2 -77.7c-.6 8.5 -3.7 21.8 -7 29.7zm26.3 -60.4L661.1 319.9c7.2 13.2 13.5 36.2 13.9 51.2l80.7 81c2.9 -7.5 7 -20 9.1 -27.9zm2 -10.9c2.1 -8.9 4.1 -23.4 4.5 -32.4L645.7 254.5c-4.3 6.1 -12.9 14.2 -19.3 18z"/></svg>