<svg height="1000" width="1250" xmlns="http://www.w3.org/2000/svg"><path d="M1062.5 437.5C1250 479.2 1250 489.4 1250 500s0 20.8 -187.5 62.5l-250 31.3L718.8 625h-46.9L443.7 914.1h77.1c22.8 0 41.7 5.1 41.7 11.7s-18.9 11.7 -41.7 11.7H296.9v-23.4h31.2V593.8h-93.7L104.2 750H36.5L15.6 729.2V593.8h15.6v-31.3H125v-5.2L0 541.7v-83.4l125 -15.6v-5.2H31.2v-31.3H15.6V270.8L36.5 250h67.7l130.2 156.2h93.7V85.9h-31.2V62.5h223.9c22.8 0 41.7 5.1 41.7 11.7s-18.9 11.7 -41.7 11.7h-77.1L671.9 375h46.9l93.7 31.2z"/></svg>