<svg height="1000" width="750" xmlns="http://www.w3.org/2000/svg"><path d="M437.5 265.6c0 25.8 21.1 46.9 46.9 46.9H750v640.6c0 26 -20.9 46.9 -46.9 46.9H46.9C20.9 1000 0 979.1 0 953.1V46.9C0 20.9 20.9 0 46.9 0h390.6v265.6zm133.8 350.6c-12.2 -12.2 -31.9 -12.2 -44.2 0l-58.4 58.4 -65.3 -65.4C442.1 588 468.7 547.3 468.7 500c0 -69 -55.9 -125 -125 -125H187.5c-17.3 0 -31.3 14 -31.3 31.2v312.5c0 17.3 14 31.3 31.3 31.3h31.2C236 750 250 736 250 718.7V625h36.6l115.9 115.8 -58.8 58.7c-12.2 12.3 -12.2 32 0 44.2l22.1 22.1c12.2 12.2 32 12.2 44.2 0l58.7 -58.7 58.8 58.8c12.2 12.2 32 12.2 44.2 0l22 -22.1c12.3 -12.2 12.3 -32 0 -44.2L535 740.9l58.4 -58.4c12.2 -12.2 12.2 -32 0 -44.2zM343.8 531.3H250v-62.5h93.8c17.2 0 31.2 14 31.2 31.2s-14 31.3 -31.2 31.3zM750 238.1V250H500V0h11.9c12.5 0 24.4 4.9 33.2 13.7l191.2 191.4c8.8 8.8 13.7 20.7 13.7 33z"/></svg>