<svg height="1000" width="1125" xmlns="http://www.w3.org/2000/svg"><path d="M426.1 828.4c14.2 28.3 42.4 45.8 73.9 46.4l250 .2v78.1c0 26 -20.9 46.9 -46.9 46.9H46.9C20.9 1000 0 979.1 0 953.1V46.9C0 20.9 20.9 0 46.9 0h390.6v265.6c0 25.8 21.1 46.9 46.9 46.9H750v90.9L500 651.6V812c-7.5 -.6 -14.6 -4.8 -18.3 -12.2C458.4 753.2 391.4 740.5 352.8 772.1l-27.1 -81.3c-6.4 -19.2 -24.3 -32 -44.4 -32s-38.1 12.9 -44.5 32l-35.6 106.7c-3 9 -11.3 15 -20.8 15h-24.1c-17.3 0 -31.3 14 -31.3 31.3s14 31.2 31.3 31.2h24.1c36.4 0 68.6 -23.2 80.1 -57.7l20.8 -62.2 32.8 98.5c8.7 26.3 45.2 29.1 57.6 4.1l15 -29.9c5.4 -11 15.5 -12.1 19.6 -12.1s14.1 1.1 19.8 12.7zM750 238.1V250H500V0h11.9c12.5 0 24.4 4.9 33.2 13.7l191.2 191.4c8.8 8.8 13.7 20.7 13.7 33zM562.5 677.7L880.4 362 1013 494.6 697.2 812.5H562.5V677.7zm547.9 -350.9c19.5 19.4 19.5 50.9 0 70.3l-53.2 53.3L924.6 317.8l53.3 -53.2c19.4 -19.4 50.9 -19.4 70.3 0z"/></svg>