<svg height="1000" width="750" xmlns="http://www.w3.org/2000/svg"><path d="M562.5 500v125h-375V500h375zM736.3 205.1c8.8 8.8 13.7 20.7 13.7 33V250H500V0h11.9c12.5 0 24.4 4.9 33.2 13.7zm-298.8 60.5c0 25.8 21.1 46.9 46.9 46.9H750v640.6c0 26 -20.9 46.9 -46.9 46.9H46.9C20.9 1000 0 979.1 0 953.1V46.9C0 20.9 20.9 0 46.9 0h390.6v265.6zM125 140.6v31.3c0 8.6 7 15.6 15.6 15.6h156.3c8.6 0 15.6 -7 15.6 -15.6v-31.3c0 -8.6 -7 -15.6 -15.6 -15.6H140.6c-8.6 0 -15.6 7 -15.6 15.6zm0 125v31.3c0 8.6 7 15.6 15.6 15.6h156.3c8.6 0 15.6 -7 15.6 -15.6v-31.3c0 -8.6 -7 -15.6 -15.6 -15.6H140.6c-8.6 0 -15.6 7 -15.6 15.6zm500 593.8v-31.3c0 -8.6 -7 -15.6 -15.6 -15.6H453.1c-8.6 0 -15.6 7 -15.6 15.6v31.3c0 8.6 7 15.6 15.6 15.6h156.3c8.6 0 15.6 -7 15.6 -15.6zm0 -390.6c0 -17.3 -14 -31.3 -31.2 -31.3H156.3c-17.3 0 -31.3 14 -31.3 31.3v187.5c0 17.2 14 31.2 31.3 31.2h437.5c17.2 0 31.2 -14 31.2 -31.2V468.8z"/></svg>