<svg height="1000" width="750" xmlns="http://www.w3.org/2000/svg"><path d="M437.5 265.6c0 25.8 21.1 46.9 46.9 46.9H750v640.6c0 26 -20.9 46.9 -46.9 46.9H46.9C20.9 1000 0 979.1 0 953.1V46.9C0 20.9 20.9 0 46.9 0h390.6v265.6zm127.3 421.9c27.9 0 41.8 -33.8 22 -53.4L398.5 447.2c-13 -12.9 -34 -12.9 -47 0L163.2 634.1c-19.8 19.6 -5.9 53.4 22 53.4h127.3v156.3c0 17.2 14 31.2 31.3 31.2h62.5c17.2 0 31.2 -14 31.2 -31.2V687.5h127.3zM736.3 205.1c8.8 8.8 13.7 20.7 13.7 33V250H500V0h11.9c12.5 0 24.4 4.9 33.2 13.7z"/></svg>