<svg height="1000" width="750" xmlns="http://www.w3.org/2000/svg"><path d="M355.3 500.2c-9.8 -31.3 -9.6 -91.6 -3.9 -91.6 16.4 0 14.8 72.1 3.9 91.6zm-3.3 92.2c18.7 34 42.5 60.9 67.3 79.7 -46.6 9.2 -87.1 29.1 -122.8 42.7 21.7 -37.8 40.4 -83 55.5 -122.4zM168.2 836.1c11.3 -30.6 55 -66.2 68.1 -78.5 -42.4 68 -68.1 80.1 -68.1 78.5zM484.4 312.5H750v640.6c0 26 -20.9 46.9 -46.9 46.9H46.9C20.9 1000 0 979.1 0 953.1V46.9C0 20.9 20.9 0 46.9 0h390.6v265.6c0 25.8 21.1 46.9 46.9 46.9zM468.8 648C429.7 624.2 403.7 591.4 385.4 543c8.7 -36.2 22.6 -91 12.1 -125.4 -9.2 -57.4 -82.9 -51.8 -93.4 -13.3 -9.8 35.7 -.8 86.1 15.8 150.4 -22.6 53.9 -56 126.2 -79.7 167.6 -.2 0 -.2 .2 -.4 .2C186.9 749.6 96.1 809.4 133.4 855.3c10.9 13.4 31.2 19.5 42 19.5 35 0 69.7 -35.2 119.3 -120.7C345.1 737.5 400.4 716.8 449 708.8c42.4 23 92 38.1 125 38.1 57.1 0 61 -62.5 38.5 -84.8C585.4 635.5 506.4 643.2 468.8 648zM736.3 205.1c8.8 8.8 13.7 20.7 13.7 33V250H500V0h11.7c12.5 0 24.4 4.9 33.2 13.7zM591.6 703.7S580.5 717 508 686.1c78.7 -5.6 91.6 12.3 83.6 17.6z"/></svg>