<svg height="1000" width="750" xmlns="http://www.w3.org/2000/svg"><path d="M750 238.2V250H500V0h11.8c12.5 0 24.4 4.9 33.2 13.7L736.3 205c7.5 7.6 13.7 22.4 13.7 33.2zm-265.6 74.3H750v640.6c0 25.9 -21 46.9 -46.9 46.9H46.9C21 1000 0 979 0 953.1V46.9C0 21 21 0 46.9 0h390.6v265.6c0 25.8 21.1 46.9 46.9 46.9zM240.6 782.2l38.3 -40.8c1.6 -1.6 2.8 -4.9 2.8 -7.2 0 -2.6 -1.6 -6.1 -3.5 -7.9l-79.7 -70 79.7 -70.1c1.9 -1.8 3.5 -5.3 3.5 -7.9 0 -2.3 -1.2 -5.6 -2.8 -7.2l-38.3 -40.8c-1.7 -1.9 -5.1 -3.4 -7.7 -3.4 -2.3 0 -5.5 1.3 -7.2 2.9L99 648.6c-1.8 1.7 -3.3 5.1 -3.3 7.6 0 2.6 1.5 6 3.3 7.7l126.7 118.8c1.7 1.6 4.9 2.9 7.2 2.9 2.6 0 6 -1.5 7.7 -3.4zm100.2 98.6c.8 .3 2.1 .4 3 .4 4.3 0 8.9 -3.4 10.1 -7.6l120 -413.3c.2 -.8 .4 -2.1 .4 -2.9 0 -4.4 -3.4 -8.9 -7.6 -10.2l-53.6 -15.5c-.8 -.3 -2.1 -.4 -3 -.4 -4.3 0 -8.9 3.4 -10.1 7.6L280 852.2c-.2 .8 -.4 2.1 -.4 2.9 0 4.4 3.4 8.9 7.6 10.2zM654.9 663.9c1.8 -1.7 3.3 -5.1 3.3 -7.7 0 -2.5 -1.5 -5.9 -3.3 -7.6L528.2 529.8c-1.7 -1.6 -4.9 -2.9 -7.2 -2.9 -2.6 0 -6 1.5 -7.7 3.4L475 571.1c-1.5 1.6 -2.8 4.9 -2.8 7.2 0 2.6 1.6 6.1 3.6 7.9l79.6 70 -79.6 70.1c-2 1.8 -3.6 5.3 -3.6 7.9 0 2.3 1.3 5.6 2.8 7.2l38.3 40.8c1.7 1.9 5.1 3.4 7.7 3.4 2.3 0 5.5 -1.3 7.2 -2.9z"/></svg>