<svg height="1000" width="750" xmlns="http://www.w3.org/2000/svg"><path d="M437.5 265.6c0 25.8 21.1 46.9 46.9 46.9H750v640.6c0 26 -20.9 46.9 -46.9 46.9H46.9C20.9 1000 0 979.1 0 953.1V46.9C0 20.9 20.9 0 46.9 0h390.6v265.6zm125 461v-15.7c0 -12.9 -10.5 -23.4 -23.4 -23.4H210.9c-12.9 0 -23.4 10.5 -23.4 23.4v15.7c0 12.9 10.5 23.4 23.4 23.4h328.2c12.9 0 23.4 -10.5 23.4 -23.4zm0 -125v-15.7c0 -12.9 -10.5 -23.4 -23.4 -23.4H210.9c-12.9 0 -23.4 10.5 -23.4 23.4v15.7c0 12.9 10.5 23.4 23.4 23.4h328.2c12.9 0 23.4 -10.5 23.4 -23.4zm0 -140.7c0 -12.9 -10.5 -23.4 -23.4 -23.4H210.9c-12.9 0 -23.4 10.5 -23.4 23.4v15.7c0 12.9 10.5 23.4 23.4 23.4h328.2c12.9 0 23.4 -10.5 23.4 -23.4v-15.7zM750 238.1V250H500V0h11.9c12.5 0 24.4 4.9 33.2 13.7l191.2 191.4c8.8 8.8 13.7 20.7 13.7 33z"/></svg>