<svg height="1000" width="750" xmlns="http://www.w3.org/2000/svg"><path d="M736.3 205.1c8.8 8.8 13.7 20.7 13.7 33V250H500V0h11.9c12.5 0 24.4 4.9 33.2 13.7zm-298.8 60.5c0 25.8 21.1 46.9 46.9 46.9H750v640.6c0 26 -20.9 46.9 -46.9 46.9H46.9C20.9 1000 0 979.1 0 953.1V46.9C0 20.9 20.9 0 46.9 0h390.6v265.6zM125 140.6v31.3c0 8.6 7 15.6 15.6 15.6h156.3c8.6 0 15.6 -7 15.6 -15.6v-31.3c0 -8.6 -7 -15.6 -15.6 -15.6H140.6c-8.6 0 -15.6 7 -15.6 15.6zm0 156.3c0 8.6 7 15.6 15.6 15.6h156.3c8.6 0 15.6 -7 15.6 -15.6v-31.3c0 -8.6 -7 -15.6 -15.6 -15.6H140.6c-8.6 0 -15.6 7 -15.6 15.6v31.3zm281.3 515.4c46.1 -1.3 83.3 -40.2 83.3 -88.1 0 -39 -25.4 -73.8 -61.7 -84.7L340 613.1c-10.1 -3 -17.1 -13.2 -17.1 -24.8 0 -14.2 10.3 -25.8 23 -25.8h54.9c8.9 0 17.5 2.5 25.1 7.3 6.3 3.9 14.4 3.7 19.8 -1.5l22.9 -21.9c6.9 -6.5 6.5 -17.9 -1.1 -23.7 -17.8 -13.3 -39.2 -21 -61.3 -22.1v-47.5c0 -8.6 -7 -15.6 -15.6 -15.6h-31.2c-8.7 0 -15.7 7 -15.7 15.6v47.1c-46.1 1.3 -83.3 40.2 -83.3 88.1 0 39 25.4 73.8 61.7 84.7l87.9 26.4c10 3 17.1 13.2 17.1 24.8 0 14.2 -10.4 25.8 -23.1 25.8h-54.9c-8.9 0 -17.4 -2.5 -25 -7.3 -6.3 -3.9 -14.4 -3.7 -19.8 1.5l-22.9 21.9c-6.9 6.5 -6.5 17.9 1.1 23.7 17.8 13.3 39.2 21 61.2 22.1v47.5c0 8.6 7 15.6 15.7 15.6h31.2c8.7 0 15.6 -7 15.6 -15.6v-47.1z"/></svg>