<svg height="1000" width="750" xmlns="http://www.w3.org/2000/svg"><path d="M750 238.2V250H500V0h11.8c10.8 0 25.6 6.2 33.2 13.7L736.3 205c7.5 7.6 13.7 22.4 13.7 33.2zm-265.6 74.3H750v640.6c0 25.9 -21 46.9 -46.9 46.9H46.9C21 1000 0 979 0 953.1V46.9C0 21 21 0 46.9 0h390.6v265.6c0 25.8 21.1 46.9 46.9 46.9zm-264.6 31.3c-51.8 0 -93.7 41.9 -93.7 93.7s41.9 93.8 93.7 93.8 93.8 -42 93.8 -93.8 -42 -93.7 -93.8 -93.7zm406.3 468.7V593.8l-77.2 -77.2c-9.2 -9.2 -24 -9.2 -33.2 0L313.6 718.8l-77.2 -77.2c-9.2 -9.2 -23.1 -10.1 -32.2 -1L127 717.8l-.9 94.7h500z"/></svg>