<svg height="1000" width="750" xmlns="http://www.w3.org/2000/svg"><path d="M736.3 205.1c8.8 8.8 13.7 20.7 13.7 33V250H500V0h11.9c12.5 0 24.4 4.9 33.2 13.7zM250.8 656.3c34.9 0 63.5 23.6 63.5 52.7s-28.4 52.7 -63.3 52.7S187.5 738.3 187.5 709c0 -29.1 28.3 -52.7 63.3 -52.7zM437.5 265.6c0 25.8 21.1 46.9 46.9 46.9H750v640.6c0 26 -20.9 46.9 -46.9 46.9H46.9C20.9 1000 0 979.1 0 953.1V46.9C0 20.9 20.9 0 46.9 0h203.9v62.5h62.5V0h124.2v265.6zM187.3 62.5V125h62.5V62.5h-62.5zm63.1 750c64.4 0 112.9 -59 100.4 -122.3L317 518.9C314.8 508 305.1 500 293.9 500h-43.1v-62.5h62.5V375h-62.5v-62.5h62.5V250h-62.5v-62.5h62.5V125h-62.5v62.5h-62.5V250h62.5v62.5h-62.5V375h62.5v62.5h-62.5V500L150 689.6c-12.9 63.5 35.5 122.9 100.4 122.9z"/></svg>