<svg height="1000" width="750" xmlns="http://www.w3.org/2000/svg"><path d="M437.5 265.6c0 25.8 21.1 46.9 46.9 46.9H750v640.6c0 26 -20.9 46.9 -46.9 46.9H46.9C20.9 1000 0 979.1 0 953.1V46.9C0 20.9 20.9 0 46.9 0h390.6v265.6zm-125 523.5V523.4c0 -20.9 -25.2 -31.4 -40 -16.6l-69.4 71.3h-54.7c-12.9 0 -23.4 10.6 -23.4 23.5v109.3c0 12.9 10.5 23.5 23.4 23.5h54.7l69.4 71.3c14.8 14.6 40 4.3 40 -16.6zm64.8 -93c-43.9 45.1 24.7 109 67.2 65.4 53.2 -54.7 53.2 -141.6 0 -196.1 -43.3 -44.3 -110.3 20.9 -67.2 65.5 17.8 18.1 17.8 47 0 65.2zm168 -228.7C502.1 422.9 435 488.3 478.1 532.8c70.9 72.9 70.7 188.7 0 261.3 -44.1 45.4 24.6 109.2 67.2 65.5 106.3 -109.4 106.3 -283 0 -392.2zM750 238.1V250H500V0h11.9c12.5 0 24.4 4.9 33.2 13.7l191.2 191.4c8.8 8.8 13.7 20.7 13.7 33z"/></svg>