<svg height="1000" width="750" xmlns="http://www.w3.org/2000/svg"><path d="M378.3 529.7c17.2 0 30.3 5.3 39.7 15.8 18.7 21.3 19.1 63.9 -.4 86.1 -9.6 11 -23.3 16.6 -41.2 16.6h-52.6V529.7h54.5zm358 -324.6c8.8 8.8 13.7 20.7 13.7 33V250H500V0h11.7c12.5 0 24.4 4.9 33.2 13.7zm-298.8 60.5c0 25.8 21.1 46.9 46.9 46.9H750v640.6c0 26 -20.9 46.9 -46.9 46.9H46.9C20.9 1000 0 979.1 0 953.1V46.9C0 20.9 20.9 0 46.9 0h390.6v265.6zM541 588.3C541 502 485.5 437.9 398.6 437.9H240.4c-12.9 0 -23.4 10.5 -23.4 23.4v390.3c0 12.9 10.5 23.4 23.4 23.4h60.2c12.9 0 23.4 -10.5 23.4 -23.4V739.8c43.6 0 217 24.8 217 -151.5z"/></svg>