<svg height="1000" width="1000" xmlns="http://www.w3.org/2000/svg"><path d="M31.3 562.5H250v125H31.3C14.1 687.5 0 673.4 0 656.3v-62.5c0 -17.2 14.1 -31.3 31.3 -31.3zm955 -357.4c8.8 8.8 13.7 20.7 13.7 33V250H750V0h11.9c12.5 0 24.4 4.9 33.2 13.7zm-298.8 60.5c0 25.8 21.1 46.9 46.9 46.9H1000v640.6c0 26 -20.9 46.9 -46.9 46.9H296.9c-26 0 -46.9 -20.9 -46.9 -46.9V687.5h249.8v127.1c0 28 33.8 41.8 53.5 22.1L740.2 648.4c12.9 -12.9 12.9 -33.8 0 -46.8L553.5 413.1C533.8 393.4 500 407.2 500 435.2v127.3H250V46.9C250 20.9 270.9 0 296.9 0h390.6v265.6z"/></svg>