<svg height="1000" width="750" xmlns="http://www.w3.org/2000/svg"><path d="M750 238.2V250H500V0h11.8c12.5 0 24.4 4.9 33.2 13.7L736.3 205c7.5 7.6 13.7 22.4 13.7 33.2zm-312.5 27.4c0 25.8 21.1 46.9 46.9 46.9H750v640.6c0 25.9 -21 46.9 -46.9 46.9H46.9C21 1000 0 979 0 953.1V46.9C0 21 21 0 46.9 0h390.6v265.6zM625 546.9c0 -41.9 -50.7 -62.5 -80 -33.1L437.5 621.2v-74.3c0 -25.9 -21 -46.9 -46.9 -46.9H171.9C146 500 125 521 125 546.9v218.7c0 25.9 21 46.9 46.9 46.9h218.7c25.9 0 46.9 -21 46.9 -46.9v-74.3L545 798.7c29.3 29.4 80 8.8 80 -33.1V546.9z"/></svg>