<svg height="1000" width="750" xmlns="http://www.w3.org/2000/svg"><path d="M437.5 265.6c0 25.8 21.1 46.9 46.9 46.9H750v640.6c0 26 -20.9 46.9 -46.9 46.9H46.9C20.9 1000 0 979.1 0 953.1V46.9C0 20.9 20.9 0 46.9 0h390.6v265.6zm117.4 208c9.9 -15.6 -1.2 -36.1 -19.7 -35.9h-68c-8.6 0 -16.6 4.7 -20.7 12.3C386.9 560.9 375 583.8 375 583.8 342.6 515.6 354.5 545.3 303.5 450c-4.1 -7.6 -12.1 -12.3 -20.7 -12.3h-68c-18.5 0 -29.8 20.5 -19.7 36.1l117.8 182.6L195.1 839.1c-9.9 15.6 1.2 36.1 19.7 36.1H283c8.6 0 16.4 -4.7 20.5 -12.3 52 -95.3 59 -105.5 71.5 -134.4 0 0 33 63.5 71.3 134.2 4.1 7.6 12.1 12.3 20.7 12.3h68.2c18.5 0 29.6 -20.5 19.7 -36.1L437.5 656.3zM750 238.1V250H500V0h11.9c12.5 0 24.4 4.9 33.2 13.7l191.2 191.4c8.8 8.8 13.7 20.7 13.7 33z"/></svg>