<svg height="1000" width="750" xmlns="http://www.w3.org/2000/svg"><path d="M437.5 265.6c0 25.8 21.1 46.9 46.9 46.9H750v640.6c0 26 -20.9 46.9 -46.9 46.9H46.9C20.9 1000 0 979.1 0 953.1V46.9C0 20.9 20.9 0 46.9 0h390.6v265.6zM549 500c-10.9 0 -20.5 7.6 -22.4 18.6C479.3 736.1 484 749 484.4 770.9c-1.6 -10.5 -11 -56.6 -57.8 -252.7 -2.6 -10.6 -12 -18 -22.9 -18h-56.8c-11 0 -20.3 7.2 -22.9 17.8 -43.1 175.8 -54.3 219.7 -57.4 239.6 -1.8 -24.8 -10.5 -86.3 -41 -238.7C223.4 507.8 213.7 500 202.5 500h-47.8c-15.1 0 -26.2 13.9 -22.9 28.5l73.9 328.1c2.3 10.8 11.9 18.4 22.8 18.4H301c10.7 0 20.1 -7.4 22.6 -17.8 45.3 -181.8 47.9 -187.9 50 -215.8h1c9.4 57.2 -.4 13.7 50 215.8 2.5 10.4 11.9 17.8 22.7 17.8h74.2c10.9 0 20.5 -7.4 22.8 -18.2l74.3 -328.1C621.9 513.9 610.7 500 595.7 500H549zM750 238.1V250H500V0h11.9c12.5 0 24.4 4.9 33.2 13.7l191.2 191.4c8.8 8.8 13.7 20.7 13.7 33z"/></svg>