<svg height="1000" width="875" xmlns="http://www.w3.org/2000/svg"><path d="M562.5 265.6c0 25.8 21.1 46.9 46.9 46.9H875v640.6c0 26 -20.9 46.9 -46.9 46.9H171.9c-26 0 -46.9 -20.9 -46.9 -46.9V625h136.9l68 135.7c5.6 11.6 22.2 11.6 27.9 0l110.9 -222 43.2 86.3h175.6c17.2 0 31.2 -14.1 31.2 -31.2s-14 -31.3 -31.2 -31.3H550.4L482.6 426.8c-5.6 -11.6 -22.2 -11.6 -27.9 0l-111 222 -38.8 -77.7c-2.8 -5.3 -8.2 -8.6 -14.1 -8.6H15.6C7 562.5 0 555.5 0 546.9v-31.3C0 507 7 500 15.6 500H125V46.9C125 20.9 145.9 0 171.9 0h390.6v265.6zm298.8 -60.5c8.8 8.8 13.7 20.7 13.7 33V250H625V0h11.9c12.5 0 24.4 4.9 33.2 13.7z"/></svg>