<svg height="1000" width="750" xmlns="http://www.w3.org/2000/svg"><path d="M437.5 265.6c0 25.8 21.1 46.9 46.9 46.9H750v640.6c0 26 -20.9 46.9 -46.9 46.9H46.9C20.9 1000 0 979.1 0 953.1V46.9C0 20.9 20.9 0 46.9 0h390.6v265.6zM250 546.9v-31.3C250 507 243 500 234.4 500h-15.6C167 500 125 542 125 593.8v62.5c0 51.7 42 93.7 93.8 93.7h15.6c8.6 0 15.6 -7 15.6 -15.6v-31.3c0 -8.6 -7 -15.6 -15.6 -15.6h-15.6c-17.3 0 -31.3 -14 -31.3 -31.2v-62.5c0 -17.3 14 -31.3 31.3 -31.3h15.6c8.6 0 15.6 -7 15.6 -15.6zM336.5 750c45.6 0 82.8 -33.8 82.8 -75.4 0 -20.9 -9.5 -40.9 -26.1 -55l-42.7 -36.7c-2.7 -2.3 -4.2 -4.9 -4.2 -7.5 0 -6 8.7 -12.9 20.4 -12.9h23.9c8.7 0 15.7 -7 15.7 -15.6v-31.3c0 -8.6 -7 -15.6 -15.7 -15.6h-23.9c-45.7 0 -82.8 33.8 -82.8 75.4 0 20.9 9.5 40.9 26 55l42.8 36.7c2.6 2.3 4.1 4.9 4.1 7.5 0 6.1 -8.7 12.9 -20.3 12.9h-24c-8.6 0 -15.6 7 -15.6 15.6v31.3c0 8.6 7 15.6 15.6 15.6h24zM500 515.6C500 507 493 500 484.4 500h-31.3c-8.6 0 -15.6 7 -15.6 15.6v40.6c0 69.3 25.2 134.6 70.9 183.8 5.9 6.4 14.2 10 22.9 10s16.9 -3.6 22.8 -10C599.8 690.8 625 625.5 625 556.2v-40.6C625 507 618 500 609.4 500h-31.3c-8.6 0 -15.6 7 -15.6 15.6v40.6c0 39.6 -11.1 78.5 -31.2 111.1C511.1 634.7 500 595.8 500 556.2v-40.6zM736.3 205.1c8.8 8.8 13.7 20.7 13.7 33V250H500V0h11.9c12.5 0 24.4 4.9 33.2 13.7z"/></svg>