<svg height="1000" width="1125" xmlns="http://www.w3.org/2000/svg"><path d="M750 238.1V250H500V0h11.9c12.5 0 24.4 4.9 33.2 13.7l191.2 191.4c8.8 8.8 13.7 20.7 13.7 33zm365.2 363.5c12.9 12.9 12.9 33.9 0 46.8L928.3 836.9c-19.7 19.7 -53.5 5.9 -53.5 -22.1V687.5h-125v-125h125V435.4c0 -28 33.8 -41.8 53.5 -22.1zM375 656.3c0 17.1 14.1 31.2 31.3 31.2H750v265.6c0 26 -20.9 46.9 -46.9 46.9H46.9C20.9 1000 0 979.1 0 953.1V46.9C0 20.9 20.9 0 46.9 0h390.6v265.6c0 25.8 21.1 46.9 46.9 46.9H750v250H406.3c-17.2 0 -31.3 14.1 -31.3 31.3v62.5z"/></svg>