<svg height="1000" width="750" xmlns="http://www.w3.org/2000/svg"><path d="M437.5 265.6c0 25.8 21.1 46.9 46.9 46.9H750v640.6c0 26 -20.9 46.9 -46.9 46.9H46.9C20.9 1000 0 979.1 0 953.1V46.9C0 20.9 20.9 0 46.9 0h390.6v265.6zM125 140.6v31.3c0 8.6 7 15.6 15.6 15.6h156.3c8.6 0 15.6 -7 15.6 -15.6v-31.3c0 -8.6 -7 -15.6 -15.6 -15.6H140.6c-8.6 0 -15.6 7 -15.6 15.6zm0 125v31.3c0 8.6 7 15.6 15.6 15.6h156.3c8.6 0 15.6 -7 15.6 -15.6v-31.3c0 -8.6 -7 -15.6 -15.6 -15.6H140.6c-8.6 0 -15.6 7 -15.6 15.6zM501.6 750c-8.2 0 -15.9 -4.8 -19.9 -12.7C458.4 690.7 391.4 678 352.8 709.6l-27.1 -81.3c-6.4 -19.2 -24.3 -32 -44.4 -32s-38.1 12.9 -44.5 32L201.2 735c-3 9 -11.3 15 -20.8 15h-24.1C139 750 125 764 125 781.2s14 31.3 31.3 31.3h24.1c36.4 0 68.6 -23.2 80.1 -57.7l20.8 -62.2 32.8 98.5c4 12 14.8 20.4 27.4 21.3 .8 0 1.5 .1 2.3 .1 10.6 0 23.1 -7.8 27.9 -17.3l15 -29.9c5.4 -11 15.5 -12.1 19.6 -12.1s14.1 1.1 19.8 12.7c14.4 28.7 43.4 46.6 75.5 46.6h92.2c17.2 0 31.2 -14 31.2 -31.2S611 750 593.8 750h-92.2zM736.3 205.1c8.8 8.8 13.7 20.7 13.7 33V250H500V0h11.9c12.5 0 24.4 4.9 33.2 13.7z"/></svg>