<svg height="1000" width="750" xmlns="http://www.w3.org/2000/svg"><path d="M736.3 205.1c8.8 8.8 13.7 20.7 13.7 33V250H500V0h11.9c12.5 0 24.4 4.9 33.2 13.7zm-298.8 60.5c0 25.8 21.1 46.9 46.9 46.9H750v640.6c0 26 -20.9 46.9 -46.9 46.9H46.9C20.9 1000 0 979.1 0 953.1V46.9C0 20.9 20.9 0 46.9 0h390.6v265.6zm125 312.5c0 -8.6 -7 -15.6 -15.6 -15.6H437.5V453.1c0 -8.6 -7 -15.6 -15.6 -15.6h-93.8c-8.6 0 -15.6 7 -15.6 15.6v109.4H203.1c-8.6 0 -15.6 7 -15.6 15.6v93.8c0 8.6 7 15.6 15.6 15.6h109.4v109.4c0 8.6 7 15.6 15.6 15.6h93.8c8.6 0 15.6 -7 15.6 -15.6V687.5h109.4c8.6 0 15.6 -7 15.6 -15.6v-93.8z"/></svg>