<svg height="1000" width="1000" xmlns="http://www.w3.org/2000/svg"><path d="M981.7 423.9c24.4 24.5 24.4 64 0 88.4L548.9 945.1c-36.6 36.6 -84.5 54.9 -132.5 54.9s-96 -18.3 -132.6 -54.9L54.9 716.2C-18.3 643 -18.3 524.3 54.9 451.1L240 266 71.7 97.7c-12.2 -12.2 -12.2 -32 0 -44.2L115.8 9.3c12.2 -12.2 32 -12.2 44.2 0l168.3 168.3L487.7 18.3C499.9 6.1 515.9 0 531.9 0c16 0 32 6.1 44.2 18.3zm-227 138.7l94.4 -94.5L531.9 150.9 416.7 266l114.5 114.5c24.4 24.4 24.4 63.9 0 88.3s-64 24.4 -88.4 0L328.4 354.4 169 513.8l-25.7 25.7c-7.6 7.5 -11.9 15.6 -14.5 23.1h625.9z"/></svg>