<svg height="1000" width="1000" xmlns="http://www.w3.org/2000/svg"><path d="M953.1 125c26 0 46.9 20.9 46.9 46.9v656.2c0 26 -20.9 46.9 -46.9 46.9h-15.6v-39.1c0 -12.9 -10.5 -23.4 -23.4 -23.4h-78.2c-12.9 0 -23.4 10.5 -23.4 23.4V875h-625v-39.1c0 -12.9 -10.5 -23.4 -23.4 -23.4H85.9C73 812.5 62.5 823 62.5 835.9V875H46.9C20.9 875 0 854.1 0 828.1V171.9C0 145.9 20.9 125 46.9 125h15.6v39.1c0 12.9 10.5 23.4 23.4 23.4h78.2c12.9 0 23.4 -10.5 23.4 -23.4V125h625v39.1c0 12.9 10.5 23.4 23.4 23.4h78.2c12.9 0 23.4 -10.5 23.4 -23.4V125h15.6zM187.5 726.6v-78.2C187.5 635.5 177 625 164.1 625H85.9C73 625 62.5 635.5 62.5 648.4v78.2c0 12.9 10.5 23.4 23.4 23.4h78.2c12.9 0 23.4 -10.5 23.4 -23.4zm0 -187.5v-78.2c0 -12.9 -10.5 -23.4 -23.4 -23.4H85.9C73 437.5 62.5 448 62.5 460.9v78.2c0 12.9 10.5 23.4 23.4 23.4h78.2c12.9 0 23.4 -10.5 23.4 -23.4zm0 -187.5v-78.2C187.5 260.5 177 250 164.1 250H85.9C73 250 62.5 260.5 62.5 273.4v78.2c0 12.9 10.5 23.4 23.4 23.4h78.2c12.9 0 23.4 -10.5 23.4 -23.4zm531.3 406.2V570.3c0 -12.9 -10.6 -23.4 -23.5 -23.4H304.7c-12.9 0 -23.4 10.5 -23.4 23.4v187.5c0 12.9 10.5 23.5 23.4 23.5h390.6c12.9 0 23.5 -10.6 23.5 -23.5zm0 -328.1V242.2c0 -12.9 -10.6 -23.4 -23.5 -23.4H304.7c-12.9 0 -23.4 10.5 -23.4 23.4v187.5c0 12.9 10.5 23.4 23.4 23.4h390.6c12.9 0 23.5 -10.5 23.5 -23.4zm218.7 296.9v-78.2C937.5 635.5 927 625 914.1 625h-78.2c-12.9 0 -23.4 10.5 -23.4 23.4v78.2c0 12.9 10.5 23.4 23.4 23.4h78.2c12.9 0 23.4 -10.5 23.4 -23.4zm0 -187.5v-78.2c0 -12.9 -10.5 -23.4 -23.4 -23.4h-78.2c-12.9 0 -23.4 10.5 -23.4 23.4v78.2c0 12.9 10.5 23.4 23.4 23.4h78.2c12.9 0 23.4 -10.5 23.4 -23.4zm0 -187.5v-78.2C937.5 260.5 927 250 914.1 250h-78.2c-12.9 0 -23.4 10.5 -23.4 23.4v78.2c0 12.9 10.5 23.4 23.4 23.4h78.2c12.9 0 23.4 -10.5 23.4 -23.4z"/></svg>