<svg height="1000" width="1000" xmlns="http://www.w3.org/2000/svg"><path d="M500.2 480.4c25.9 0 46.9 21 46.9 46.9 3 193.5 -31.2 344.9 -57.6 438.5 -5.8 20.7 -24.6 34.2 -45.1 34.2 -40.9 0 -50.5 -40.6 -45.1 -59.6 38.2 -136 56.3 -272 54.1 -413.1 0 -25.9 21 -46.9 46.8 -46.9zm-1.6 -159.6c111.2 1.6 203.1 91.6 204.9 200.6 1.5 99.4 -5.9 199.4 -22.1 297.1 -1.5 9.1 -14.8 45.1 -53.8 38.6C602.1 852.9 584.7 828.7 589 803.2 604.2 711 611.2 616.7 609.7 522.9 608.8 464 558.3 415.4 497.2 414.5 429.7 414.2 390 466.1 390.8 516.7c1.6 100.5 -7.8 201.1 -28 298.9 -5.3 25.4 -29.9 41.6 -55.4 36.4C282 846.8 265.7 822 271 796.6c18.7 -91.1 27.5 -184.8 26.1 -278.4C295.4 412.7 378.9 320.6 498.6 320.8zM282.4 282.1c20 16.4 23.1 45.9 6.8 66 -36.7 45.1 -55.6 99.8 -54.7 158.1 1.2 79.4 -5.2 159.2 -19.3 237 -1.6 8.9 -15.2 44.6 -54.4 37.8 -25.5 -4.6 -42.4 -29 -37.9 -54.5 13 -71.8 19 -145.4 17.8 -218.8 -1.2 -79.6 25.7 -157.3 75.7 -218.8 16.4 -20.1 45.8 -23.1 66 -6.8zM496.2 160.4c197.4 2.9 360.5 162.3 363.6 355.1 .1 7.8 .2 20.4 .2 28.2 0 57 -5.3 149.3 -11.7 205.9 -2.1 18 -19.3 45 -52 41.2 -25.7 -2.9 -44.1 -26.2 -41.2 -51.9C763.5 665.6 767.2 591 766 517 763.8 374.3 642.1 256.3 494.8 254.1c-22.6 -.1 -44.9 2.2 -66.4 7.2 -25.2 5.9 -50.5 -9.6 -56.5 -34.8 -5.9 -25.2 9.7 -50.4 34.9 -56.4 29.1 -6.9 59.3 -10.5 89.4 -9.7zm492.3 237.2c12.2 55.1 11.7 98 11.4 141.3 -.2 25.7 -21.2 46.5 -46.9 46.5h-.4c-25.9 -.2 -46.7 -21.4 -46.5 -47.3 .4 -47.2 .1 -78.5 -9.1 -120.3 -5.6 -25.3 10.3 -50.3 35.6 -55.9 25.6 -5.7 50.3 10.5 55.9 35.7zM910.1 220.4c14.9 21.2 9.8 50.4 -11.4 65.3 -21.2 14.8 -50.4 9.8 -65.2 -11.4C755.5 163.3 628 95.8 492.4 93.8 382.4 92.2 279.7 133 204 208.8 131.5 281.3 92.4 377.7 94 480.3l-.3 46.1c-.7 25.4 -21.6 45.5 -46.8 45.5 -.5 0 -.9 0 -1.4 0C19.6 571.2 -.7 549.6 0 523.7l.3 -42C-1.8 353.6 47 233.1 137.6 142.5 231.4 48.7 357.5 -1.6 493.8 0 659.4 2.5 815 84.9 910.1 220.4z"/></svg>