<svg height="1000" width="1000" xmlns="http://www.w3.org/2000/svg"><path d="M983.4 471.6c.5 8.7 .7 17.6 1 26.4 0 268 -217.3 485.2 -485 485.2C259.6 983.2 60.2 808.9 21.3 580.2c-.7 -6.4 -1.4 -12.5 -2.1 -18.8C9.6 478.2 20.1 390.8 50.6 317.7c21.1 -50.6 63.7 -105.5 97.3 -122.8 -31.7 62.1 -47.2 123 -50.4 163.8 22 -72.7 63.7 -133.5 122.1 -176.5 100 -73.6 234.8 -76.9 288.4 -30C408.4 186.4 299.9 324 323.8 485.2c3.3 22.2 13.9 56.5 23.7 76.7 -18.6 -49 -20.2 -117.9 9.8 -162.7 33.5 -49.9 81.3 -60.4 106.8 -55 -10 -2.1 -32.3 40.5 -35.6 48 -6.7 15.3 -12.2 41.4 -12.2 58.1 0 .7 0 1.8 0 2.4 .7 37.5 23 89.2 50 115.3 93 90.7 243.2 55 310.5 -48.5C823 448.2 828.6 327.3 769.3 231.2c-12.3 -19.5 -35.8 -48.1 -52.5 -64C623.7 78.4 490.1 40.9 364.8 63.7c-.5 0 -1.2 .2 -1.7 .2 -3.5 .7 -6.8 1.5 -10.1 2.2 -.7 .2 -1.6 .2 -2.3 .4l-11.5 2.8c-28.3 7 -67.9 21.1 -96.5 38.2 -.2 .1 -.4 .2 -.5 .3l.2 -.3c0 .2 -.1 .3 -.2 .3l-.2 .2 .2 -.2h-.3l1 -1c.9 -.9 2.6 -2.2 4.7 -4.2C286 67.9 343.9 40.3 409.5 26.4c24.2 -5.1 64 -9.4 88.8 -9.7h20.8c20.6 .5 53.9 4 74.2 7.8 1.9 .2 3.4 .7 5.4 .9h.2c3.5 .7 7.3 1.7 11 2.4 31.2 7 79.7 24.2 108.3 38.2 4.7 2.3 9.4 4.7 14.1 7.2 14 7 35.5 20.2 48 29.6 8.5 6.1 16.6 12.4 24.4 19.2 10.4 8.3 26.5 23 35.7 32.6 13.7 13.5 34.3 36.8 45.9 52 1.9 2.4 3.5 4.7 5.4 7.3 .8 .9 1.3 1.6 2 2.6l3.5 4.9c.7 .9 1.4 2.1 2.1 3.1 .9 1.4 2.1 3 3 4.4 .8 .9 1.8 2.5 2.4 3.5l2.8 4.2c.7 .9 1.8 2.5 2.3 3.5 1 1.4 1.9 3 2.6 4.2 .7 1.2 1.7 2.4 2.4 3.8 .7 1.3 1.6 2.5 2.3 3.9 .7 1.3 1.7 2.5 2.4 3.9 .7 1 1.7 2.8 2.3 3.9 .7 1.4 1.6 3 2.3 4.2 .7 1.2 1.4 2.6 2.2 3.8 .7 1.6 1.5 3.2 2.3 4.4 .8 1.2 1.2 2.4 2 3.5 .7 1.7 1.6 3.1 2.3 4.7 .5 .9 .9 2.1 1.4 3.1 .9 1.6 1.6 3.2 2.6 5.1l.7 1.4c3.4 7.3 6.7 14.8 9.7 22.3 0 .2 .3 .5 .3 .7 .8 2.3 1.9 4.4 2.8 6.8 .2 .5 .5 1.2 .7 1.6 .9 2.1 1.6 4.5 2.6 6.6 .2 .5 .5 1.4 .7 1.9 .7 2.1 1.6 4.5 2.3 6.6l.7 2.1c1 2.4 1.7 4.5 2.4 6.8 .2 .8 .4 1.3 .7 2 .7 2.1 1.4 4.4 2.1 6.8 .2 .4 .2 1.1 .5 1.6 .7 2.3 1.4 4.9 2.1 7.3 .2 .2 .2 .7 .4 1.1l2.1 7.9c.3 .2 .3 .2 .3 .4 5.8 21.9 12.2 57.9 14.3 80.4v.2l.7 9.2v.2c0 3 .2 6.1 .4 9.1z"/></svg>