<svg height="1000" width="1000" xmlns="http://www.w3.org/2000/svg"><path d="M255.1 241.2c.3 0 .2 0 0 0zm686.4 88.6c29.8 71.8 40.4 157.7 30.9 239.4 -.7 6.1 -1.4 12.3 -2.2 18.4C931.9 812.2 736.3 983.3 500.6 983.3 237.5 983.3 24.2 770 24.2 506.9v-2.4c.3 -5.3 .6 -10.5 1 -15.8 .1 -.5 .1 -1 .1 -1.4 .9 -12.3 1.7 -20.2 2.8 -27.4 .5 -3.7 1 -7.5 1.5 -11.2 3.3 -24 7.7 -43.4 7.8 -43.9 9.7 -43.4 38.3 -108 64 -144.3 11 -15.8 30.9 -39.7 44.4 -53.4 11.9 -12.2 32.8 -30 46.6 -39.9 1.8 -1.2 15.7 -9.5 15.9 -8.4 -1.1 16.4 -2.4 95.3 16.5 119.3h.2c27.7 -31.1 65.7 -66.4 114.7 -88.6 -4 15.1 -7.2 40.1 -7.2 55.7 0 17.1 3.8 44.3 8.5 60.7 3.6 2.4 9.1 6.6 12.4 9.3 7.2 6.2 15.4 14.4 32.7 31.4 32.3 31.9 115.3 64.8 115.4 68.7 -.8 11.9 -42.6 52.7 -57.3 52.7 -135.4 0 -157.4 82 -157.4 82 6 69 54 125.8 112.3 155.7 2.7 1.5 5.4 2.7 8 3.9 4.7 2.1 9.3 4 14 5.8 16.6 5.8 44.4 11.2 62 11.9C720.6 738.5 766.6 443.5 595.2 357.8c43.9 -7.6 89.5 10 114.9 27.9 -17 -29.6 -54.3 -68.3 -83.3 -86.2 -2 -1.2 -3.9 -2.4 -5.9 -3.5 -3 -1.8 -6.1 -3.5 -9.2 -5.2 -1.5 -.7 -3 -1.4 -4.4 -2.2 -3.3 -1.6 -6.5 -3.1 -9.8 -4.6 -2.1 -.9 -4.2 -1.7 -6.3 -2.6 -2.7 -1.1 -5.3 -2.1 -8 -3.1 -3.6 -1.3 -7.2 -2.5 -10.9 -3.6 -1.4 -.4 -2.6 -.9 -3.9 -1.3 -18 -5.2 -47.8 -9.4 -66.6 -9.4 -.5 0 -1.4 0 -1.9 0 -3.9 .1 -7.8 .2 -11.7 .5l-2.8 .1c-23.8 1.7 -60.7 11.3 -82.2 21.5l-1.1 .4c-1 .4 -2.7 .7 -3.9 .7 -4.7 0 -9.7 -3.6 -11.3 -8.1 -.4 -1.1 -.7 -3 -.7 -4.2 0 -4.1 3 -9 6.8 -10.9 24.7 -11.7 67 -22.5 94.4 -24.1C498.7 170.8 542.6 62.2 648.5 .1l-.2 .3 .4 -.2 .2 -.1c.1 -.1 .3 -.1 .4 -.1s.4 0 .5 .1c.6 0 1.1 .6 1.1 1.2 1.3 5.5 4.5 13.9 7.1 18.8 1.6 3.4 3.3 6.7 5.2 9.9 3.7 6.3 7.5 12.3 11.2 18.2 74.6 117.9 166 172.1 219.9 306.3 -.1 -.5 -.1 -.8 -.1 -.8 -6 -39.3 -21.5 -92 -48.3 -144.5 32.9 17 74.9 70.8 95.6 120.6z"/></svg>