<svg height="1000" width="875" xmlns="http://www.w3.org/2000/svg"><path d="M847.7 51.4C862 49 875 60.1 875 74.5v226c0 14.4 -13 25.5 -27.3 23.1L519.6 268.9C496.7 265.1 500 240.2 500 234.4h-78.1v52.8c80.8 20.8 140.6 94.2 140.6 181.5v484.4c0 25.9 -21 46.9 -46.9 46.9H234.4c-25.9 0 -46.9 -21 -46.9 -46.9v-482c0 -87.7 59.5 -162.6 140.6 -183.8v-52.9c-119.2 0 -181.5 -13.7 -237.7 126.8 -9.6 24 -36.9 35.7 -60.9 26.1C5.4 377.7 -6.3 350.4 3.4 326.3 32 254.7 77.6 174.3 179.2 148.8 151.6 77.5 204.2 0 281.2 0c73.2 0 125.7 70.5 104.9 140.6H500c0 -8.2 -2.6 -30.8 19.6 -34.5zm-566.4 89.2c17.2 0 31.2 -14 31.2 -31.2s-14 -31.3 -31.2 -31.3S250 92.1 250 109.4s14 31.2 31.3 31.2z"/></svg>