<svg height="1000" width="1125" xmlns="http://www.w3.org/2000/svg"><path d="M0 156.3C0 104.5 42 62.5 93.8 62.5h93.7v875H93.8C42 937.5 0 895.5 0 843.8V156.3zm250 781.2v-875h625v875H250zM375 453.1v93.8c0 8.6 7 15.6 15.6 15.6H500v109.4c0 8.6 7 15.6 15.6 15.6h93.8c8.6 0 15.6 -7 15.6 -15.6V562.5h109.4c8.6 0 15.6 -7 15.6 -15.6v-93.8c0 -8.6 -7 -15.6 -15.6 -15.6H625V328.1c0 -8.6 -7 -15.6 -15.6 -15.6h-93.8c-8.6 0 -15.6 7 -15.6 15.6v109.4H390.6c-8.6 0 -15.6 7 -15.6 15.6zM1031.3 62.5c51.7 0 93.7 42 93.7 93.8v687.5c0 51.7 -42 93.7 -93.7 93.7h-93.8v-875h93.8z"/></svg>