<svg height="1000" width="875" xmlns="http://www.w3.org/2000/svg"><path d="M25.2 447.7c.2 -.2 .4 -.6 .6 -.8 0 .2 0 .6 -.2 .8h-.4zm412.3 -259c14.5 0 28.5 .9 42.4 3.3l-7.8 132.2 43.5 -125.6c28 7.5 54.1 18.6 78.2 33L536.3 351l88.1 -99.4c22.5 17.3 42.4 37.5 59.8 60.3l-98.8 88.7 118.9 -58c14.6 24 25.2 50.8 32.4 78.7l-125 43.5L743.9 457c2.2 13.9 2.8 28.5 2.8 43s-.6 28.5 -2.8 42.4l-131.6 -7.8 125 43.5c-7.2 28.5 -18.6 54.7 -32.4 78.7L585.5 599.4l98.9 88.1c-16.8 23 -36.9 43 -59.8 60.4l-87.7 -99.5 57.4 119.8c-24 14.6 -50.2 25.2 -78.1 33L472.1 674l7.8 134c-13.9 2.2 -27.9 3.3 -42.4 3.3 -13.9 0 -28.5 -1.1 -42.4 -3.3l7.8 -132.8 -43.5 126.2c-28 -7.5 -54.1 -18.6 -78.1 -33l57.6 -120 -87.7 99.5c-23.1 -16.8 -43 -37.5 -60.4 -60.4l99.4 -88.1 -119.3 58c-14.1 -24.6 -25.2 -50.8 -32.4 -78.7l125 -44.1 -132.2 7.8c-1.6 -13.9 -2.8 -27.9 -2.8 -42.4s1 -29.1 2.8 -43l132.8 7.8L138.5 420.7c7.2 -27.9 18.5 -54.1 32.4 -78.1l119.3 58 -98.8 -88.7c17.4 -23 37.5 -43 59.8 -60.3l88.1 99.4L281.8 231.1C305.9 217 332 205.9 360 198.6l42.9 125L395.7 192c13.3 -2.2 27.9 -3.3 41.8 -3.3zM866 250v500l-428.5 250L9 750V250L437.5 0zm-33.4 20.1L437.5 40.8 42.4 270.1v459.2l395.1 229.9L832.6 729.3V270.1zM437.5 72.5l366.6 213.6v427.6L437.5 927.5 70.9 713.7V286.3zm0 99.4c-180.3 0 -326 146.7 -326 328.1 0 180.9 145.7 327.5 326 327.5 179.7 0 326 -146.6 326 -327.5 0 -181.4 -146.3 -328.1 -326 -328.1z"/></svg>