<svg height="1000" width="968.8" xmlns="http://www.w3.org/2000/svg"><path d="M484.4 15.6c267.5 0 484.4 216.9 484.4 484.4S751.9 984.4 484.4 984.4 0 767.5 0 500 216.9 15.6 484.4 15.6zm0 953.6c259.1 0 469.1 -210.1 469.1 -469.2S743.5 30.8 484.4 30.8 15.2 240.9 15.2 500s210.1 469.2 469.2 469.2zm0 -898.3c237 0 429.1 192.1 429.1 429.1S721.4 929.1 484.4 929.1 55.3 737 55.3 500 247.4 70.9 484.4 70.9zm0 842.2c228.1 0 413.1 -185 413.1 -413.1S712.5 86.9 484.4 86.9 71.3 271.8 71.3 500s184.9 413.1 413.1 413.1zM848.1 594.8c-7.2 27.7 -24.8 70.3 -39.3 95.1L664 619.8l120.1 107.1c-17.3 22.8 -49.9 55.5 -72.7 72.8l-107 -120.2 70.1 145c-24.7 14.6 -67.3 32.3 -95 39.5L526.2 710.8l9.3 161.9c-16.8 2.3 -33.9 3.5 -51.4 3.5s-34.6 -1.2 -51.4 -3.5l9.3 -161 -53 152.4c-27.8 -7.3 -70.3 -24.9 -95.1 -39.5l70.2 -145.2L257 799.8C234.1 782.5 201.6 749.9 184.3 727L304.5 619.8l-145 70.2C145 665.2 127.4 622.6 120.2 594.9l152 -53 -160.6 9.3c-2.3 -16.7 -3.5 -33.8 -3.5 -51.2 0 -17.6 1.3 -34.8 3.6 -51.8l160.9 9.4L120.4 404.5c7.2 -27.7 24.9 -70.3 39.5 -95l144.9 70.1L184.7 272.5c17.3 -22.9 49.9 -55.4 72.8 -72.7l106.9 120.1L294.5 175.1c24.7 -14.5 67.2 -32.1 95 -39.3L442 286.6l-9.2 -159.4c16.8 -2.3 33.9 -3.5 51.4 -3.5 17.4 0 34.5 1.2 51.4 3.5l-9.3 160.5 52.8 -151.9c33.8 8.8 65.7 22.2 95 39.4L604.2 320 711 199.9c22.9 17.3 55.5 49.9 72.8 72.8L663.7 379.6l144.8 -70c14.5 24.7 32.2 67.3 39.5 95l-152 52.9 160.6 -9.2c2.3 16.9 3.6 34.1 3.6 51.7 0 17.3 -1.2 34.4 -3.5 51.2l-160.4 -9.3z"/></svg>