<svg height="1000" width="750" xmlns="http://www.w3.org/2000/svg"><path d="M500 312.5h-93.8c-11 0 -21.4 2.2 -31.2 5.7v-287C375 14 388.9 0 406.2 0h62.5C486 0 500 14 500 31.2v281.3zM750 500v172.3c0 42.9 -24.6 102.3 -54.9 132.6l-70.2 70.2V1000H125V875L73.2 823.2C26.3 776.3 0 712.8 0 646.4V494.2c9.8 3.6 20.2 5.8 31.3 5.8h62.5c24 0 45.8 -9.4 62.5 -24.4 16.6 15 38.3 24.4 62.5 24.4h62.5c15.4 0 29.8 -4.1 42.7 -10.8 14.6 31.9 42.2 56.5 75.9 67.3 -33.4 28.9 -61.7 67.3 -92.4 113.4l-12.3 18.5c-1.5 2.2 -2.7 6.1 -2.7 8.7 0 4.6 3.2 10.4 7 13l26 17.3c2.2 1.5 6 2.6 8.7 2.6 4.6 0 10.4 -3.1 12.9 -6.9l12.4 -18.5C421.8 611.2 460.1 567.3 547.1 562.9c8.3 -.4 15.4 -7.3 15.4 -15.6v-31.7c0 -8.6 -6.9 -15.6 -25.8 -15.6h-68.9c-51.3 0 -92.9 -41.6 -92.9 -92.9V406c0 -17.2 13.9 -31 31.1 -31h219c69 0 124.9 56 125 125zM687.4 324C667.8 317 647 312.5 624.9 312.5h-62.5V93.7c0 -17.2 14 -31.2 31.3 -31.2h62.5c17.3 0 31.2 14 31.2 31.2V324zM31.3 437.5C14 437.5 0 423.5 0 406.3v-250C0 139 14 125 31.3 125h62.5c17.2 0 31.2 14 31.2 31.3v250c0 17.2 -14 31.2 -31.2 31.2H31.3zm187.4 0c-17.2 0 -31.2 -14 -31.2 -31.2V93.8c0 -17.3 14 -31.3 31.2 -31.3h62.5c17.3 0 31.3 14 31.3 31.3v312.5c0 17.2 -14 31.2 -31.3 31.2h-62.5z"/></svg>