<svg height="1000" width="875" xmlns="http://www.w3.org/2000/svg"><path d="M201.8 672.5c-12.7 -27.8 -13.5 -35.8 14.4 -45.2 50 -15.6 15.6 18 84.4 96.1h.6V540C303.5 442 387.1 360 492 360c105.3 0 190.8 84.9 190.8 189 0 123.9 -118.7 221.1 -251 182.3 -20.5 -8.3 -4.1 -62 16.6 -55.9C552 675.4 623 655.7 623 549.6c0 -119.1 -150.5 -175 -228.3 -87.1 -45.9 51.6 -34.3 82.2 -34.3 307.8 99 60.6 231 43 313.2 -39.2 48.5 -48.5 75.2 -113.3 75.2 -181.7 0 -68.7 -26.9 -133.2 -75.8 -182.2C624.6 318.8 560.2 292 490.8 292s-134.4 26.9 -182.6 75.2c-.6 .6 -31.2 32.2 -41.4 46.7l-1 1.1c-6.4 9.2 -12.3 17.8 -39.2 12 -13.5 -3.4 -28 -11.4 -28 -23.1V39.1c0 -9.8 7.6 -20.5 20.5 -20.5h471.3c16.2 0 16.2 22.6 16.2 29.4 0 7.7 0 29.5 -16.2 29.5H254.5v259.6h.6C458.6 122.7 807.4 266.8 807.4 549.8c0 347.9 -478.1 430.3 -605.6 122.7zM325.4 163.1c7.4 -36.7 283.4 -99.2 465.4 74.6 16.6 14.6 -18.5 44.5 -27.9 44.5 -12.9 0 -165.2 -171.7 -409 -78.9 -19.5 7.6 -29.5 -32 -28.5 -40.2zM767.6 810c15.8 -15.7 53.9 24.6 40.4 39.8C543.2 1114.6 109.6 951.6 62.7 612.9c-2.9 -20.9 56.4 -30.3 56.4 -6.5 64.5 322.3 433.6 418.2 648.5 203.6zM417.2 598.8c0 -6.6 4.5 -9.2 39.8 -44.1l-35.5 -35.6c-11 -10.9 14.4 -33.7 24.2 -33.7 6.1 0 5.7 1.3 42 38l35 -34.9c11.9 -11.9 43.9 17.4 31.6 30.6l-35.5 35.6 33.7 33.8c15.3 15.2 -10.3 35.5 -20.9 35.5 -6.2 0 -5.2 -.4 -43.5 -38.1C449.6 624.4 452 624 444.5 624c-4.7 0 -10.7 -2.7 -16.6 -8.6 -2.3 -2.3 -10.7 -8.8 -10.7 -16.6z"/></svg>