<svg height="1000" width="1000" xmlns="http://www.w3.org/2000/svg"><path d="M682.7 192.9c79.1 0 161.4 -31 228.5 -62.2 41.4 -19.2 88.8 11 88.8 56.7v474.8c0 20.6 -10.1 39.9 -27 51.5 -70 48 -145.2 79.8 -239.3 79.8 -131.6 0 -218 -68 -322.7 -68 -99.3 0 -168.2 19.7 -223.5 43.2v184.4c0 25.9 -21 46.9 -46.9 46.9h-31.2c-25.9 0 -46.9 -21 -46.9 -46.9v-754C34.2 179.3 15.6 146.5 15.6 109.4 15.6 47.5 67.1 -2.4 129.6 .1c55.6 2.3 101.1 46.8 104.6 102.3 .1 2 .2 5.1 .2 7 0 11.1 -3.3 28.6 -7.2 39.1C267.7 133.6 311.3 125 360.1 125c131.5 0 218 67.9 322.6 67.9z"/></svg>