<svg height="1000" width="1000" xmlns="http://www.w3.org/2000/svg"><path d="M475 370.9c47.3 13.1 93 32 143.7 43.4v133.2C571.3 534.4 526 515.4 475 503.9v-133zM911.1 130.7c41.4 -19.2 88.9 11.1 88.7 56.6v474.8c0 20.7 -10 39.9 -26.9 51.6 -70 48 -145.2 79.9 -239.3 79.9 -131.6 0 -218 -68 -322.7 -68 -99.2 0 -168.1 19.5 -223.4 43.1v184.4c0 26 -20.9 46.9 -46.9 46.9h-31.2c-26 0 -46.9 -20.9 -46.9 -46.9V199C34.2 179.3 15.6 146.5 15.6 109.4 15.6 47.5 67 -2.5 129.5 0c55.7 2.3 101.2 46.9 104.7 102.3 1 16.4 -1.6 31.9 -7.1 46.1C267.6 133.6 311.1 125 360 125c131.6 0 218.1 68 322.6 68 79.1 0 161.5 -31.3 228.5 -62.3zm-579.8 505V496.5c-51 4.7 -92.6 15.8 -143.8 34v137.7c46.1 -16.4 93.4 -27.2 143.8 -32.5zM906.3 373V235.4c-41.7 17.3 -91.1 34.5 -143.8 43.9v140.4c-50.8 8.2 -97.5 5.1 -143.8 -5.2V280.9c-51.5 -9 -97.4 -27.2 -143.7 -41.6v131.6C425.8 357.2 384 352.5 331.2 359.8V219.9c-45.8 4.3 -78.9 19.2 -143.7 43v137.7c56.6 -20.9 100 -34.8 143.7 -40.8v136.7c64.1 -5.9 105.3 -1.2 143.8 7.4v133.8c51.4 9 97.1 27.1 143.7 41.6V547.7c50.2 13.8 91.1 18.1 143.8 10.9v139.8c49 -4.6 94.7 -21.4 143.8 -52.9V507.8c-43.4 27.7 -95.4 44.2 -143.8 50.8V419.7c53.3 -8.6 97.7 -27.5 143.8 -46.7z"/></svg>