<svg height="1000" width="1000" xmlns="http://www.w3.org/2000/svg"><path d="M62.5 0C97.1 0 125 27.9 125 62.5v906.3c0 17.1 -14.1 31.2 -31.2 31.2H31.3C14.1 1000 0 985.9 0 968.8V62.5C0 27.9 27.9 0 62.5 0zm523.2 593c60.8 16 122.3 32.2 195.4 32.4 62.3 0 133.7 -13.3 218.9 -47.1v70.3c0 24.1 -13.9 46.5 -36.1 56.3C620.5 854.1 550.2 569.9 187.5 750V614.6C367.6 536.7 474 563.5 585.7 593zm0 -187.5c60.8 16 122.3 32.2 195.4 32.2 62.3 0 133.7 -13.3 218.9 -47.1v120.1c-180.1 78 -286.5 51.2 -398.2 21.7C489.5 502.9 372.7 473.8 187.5 547.3V427.1C367.6 349.2 474 376 585.7 405.5zm18.6 -245.9c-13.7 -4.1 -27.5 -8.2 -41.6 -12.1v64.8c7.8 2.2 15.8 4.5 23.6 6.8 52.2 15.9 103.3 31.1 167.4 31.1 64.1 0 141.6 -15.4 246.3 -61.3v134.5c-180.1 77.8 -286.5 51 -398.2 21.7C489.5 315.6 372.7 286.7 187.5 360V63.3c409 -184.8 381.4 115.4 716 -55.1 44.2 -22.5 96.5 2.9 96.5 52v60.1C794.5 216.2 705.5 190 604.3 159.6zm-291.8 90.6c17.2 0 31.3 -13.9 31.3 -31.3 0 -17.3 -14.1 -31.2 -31.3 -31.2s-31.2 14.1 -31.2 31.2c0 17.4 14 31.3 31.2 31.3zm0 -109c17.2 0 31.3 -14.1 31.3 -31.2 0 -17.4 -14.1 -31.3 -31.3 -31.3S281.3 92.8 281.3 110c0 17.3 14 31.2 31.2 31.2zm125 93.6c17.2 0 31.3 -14.1 31.3 -31.3 0 -17.4 -14.1 -31.2 -31.3 -31.2s-31.2 14 -31.2 31.2c0 17.4 14 31.3 31.2 31.3zm0 -109.2c17.2 0 31.3 -14.1 31.3 -31.3C468.8 77 454.7 63.1 437.5 63.1s-31.2 14 -31.2 31.2c0 17.4 14 31.3 31.2 31.3z"/></svg>