<svg height="1000" width="968.8" xmlns="http://www.w3.org/2000/svg"><path d="M671.9 390.6c26 0 46.9 20.9 46.9 46.9s-20.9 46.9 -46.9 46.9S625 463.5 625 437.5s20.9 -46.9 46.9 -46.9zm-375 0c26 0 46.9 20.9 46.9 46.9s-20.9 46.9 -46.9 46.9S250 463.5 250 437.5s20.9 -46.9 46.9 -46.9zm187.5 -375C752 15.6 968.8 232.4 968.8 500S752 984.4 484.4 984.4 0 767.6 0 500 216.8 15.6 484.4 15.6zM156.3 437.5c0 77.7 62.8 140.6 140.6 140.6S437.5 515.2 437.5 437.5 374.6 296.9 296.9 296.9 156.3 359.8 156.3 437.5zm453.1 343.8c41.4 0 41.4 -62.5 0 -62.5h-250c-41.4 0 -41.4 62.5 0 62.5h250zm62.5 -203.2c77.7 0 140.6 -62.9 140.6 -140.6S749.6 296.9 671.9 296.9 531.3 359.8 531.3 437.5s62.8 140.6 140.6 140.6z"/></svg>