<svg height="1000" width="750" xmlns="http://www.w3.org/2000/svg"><path d="M386.3 835.5c25.2 22.9 65.8 65.1 64.9 99.1 0 1.5 -.2 3.1 -.2 4.9 -3.5 38.6 -36.7 60.7 -76.4 60.5 -48.8 -.2 -77.9 -32.8 -75.6 -69.9 2 -31.7 40.1 -71.7 63.3 -93 4.5 -4.1 5.3 -5.3 10.9 -7 6.7 0 7.7 .6 13.1 5.4zM648.2 131.4c46.7 78.2 54.3 143.2 40.7 219.8C659.2 487.7 486.5 676.4 384.4 772.5c-3.3 3.1 -2.8 2.7 -6.9 4.1l-6.4 -.2c-3.3 -1.2 -8.8 -6.9 -12.1 -10C244.1 653.5 68.6 470.3 54.7 309.8 51.8 170.3 111.9 88.3 216.6 33.8 235.9 25.8 288.9 0 375 0c43 -.4 99.8 8.8 149.6 29.7 48.3 22.4 91.8 51.5 123.6 101.7zM364.8 687.3V51.2c-113 10.7 -141.9 174.2 -135.3 267 8 113.8 80.7 269.3 135.3 369.1zM642 351.6C672.9 244.3 620.7 88.5 447.3 52.7c74.6 50 96.8 167 93.7 256.7 -3.9 114.4 -76.9 273.4 -131.2 374.8C491 601.6 610 462.5 642 351.6z"/></svg>