<svg height="1000" width="875" xmlns="http://www.w3.org/2000/svg"><path d="M843.8 812.5c17.2 0 31.2 14 31.2 31.3v62.5c0 17.2 -14 31.2 -31.2 31.2h-250c-17.3 0 -31.3 -14 -31.3 -31.2v-62.5c0 -17.3 14 -31.3 31.3 -31.3H632l-45.5 -125h-298l-45.5 125h38.2c17.3 0 31.3 14 31.3 31.3v62.5c0 17.2 -14 31.2 -31.3 31.2h-250C14 937.5 0 923.5 0 906.3v-62.5c0 -17.3 14 -31.3 31.2 -31.3H77L332.3 104.9c7.9 -23.4 34.4 -42.4 59.1 -42.4h92.2c24.7 0 51.2 19 59.1 42.4L798 812.5h45.7zM345.4 531.3h184.2l-92.1 -253z"/></svg>