<svg height="1000" width="875" xmlns="http://www.w3.org/2000/svg"><path d="M0 62.5h875v875H0v-875zm365.2 275.2c23.3 0 32.5 8.4 31.9 44.9l99 -11.9c0 -87.1 -59.8 -103.1 -126.4 -103.1 -99.2 0 -151 39.8 -151 136.7v41h-54.6v73.1h43.3c5.7 0 11.3 0 11.3 4.5v217.5c0 11 -2.9 14.3 -13 15.5l-41.6 3.9V810h255.2v-49.1l-84.9 -8c-10.2 -1.1 -6.3 -2.9 -6.3 -14.2V518.2h108.8l21.7 -72.9H327c-5.7 0 1.1 -3.9 1.1 -8.6v-45.5c0 -34.2 1.2 -53.5 37.1 -53.5zM510.4 810h200.3v-49.1l-30.6 -5c-10.8 -1.8 -5.7 -3 -5.7 -14.3V445.3H517.8l-13.1 57.6 47.3 12.5c7.4 2.4 13 7.5 13 15.5v210.7c0 10.9 -4.6 13.1 -14.8 14.3l-39.8 5V810zM668.2 310.9l42.7 -47.2 -6.8 -18.8H650l-30.3 -54.7h-18.1l-30.3 54.7h-54.1l-6.8 18.8 42.5 47.2 -17.5 64.9 14.2 14.2 60.9 -32.4 61 32.4 14.2 -14.2z"/></svg>