<svg height="1000" width="875" xmlns="http://www.w3.org/2000/svg"><path d="M662.7 334.4c10.5 0 18.6 5.8 15 13.8v262.5c0 8.2 -5.8 11.8 -14 15.3 -30.5 13.8 -65.5 26.7 -101.6 26.7 -51.4 0 -74.6 -31.4 -135.3 -31.4 -44.4 0 -89.9 16.2 -128.4 32.6 -1.1 1.2 -3.5 2.3 -5.8 2.3v86.4c0 3.5 0 5.8 -1.2 9.4v2.5c-4.7 15 -18.5 26.7 -36.1 26.7 -20.9 0 -38.5 -17.3 -38.5 -38.4V328.5c-15 -11.7 -24.4 -30.3 -24.4 -50.2 0 -35.1 27.9 -63.1 63.1 -63.1s63.1 28.2 63.1 63.1c0 21.1 -9.2 38.5 -24.5 50.2v35c2.4 -1.2 5.9 -2.4 9.4 -3.5 35 -13.9 77 -26.8 116.6 -26.8 43.2 0 77 11.5 115.4 26.8 8.1 3.5 16.3 4.6 24.5 4.6 44.3 0 91 -30.2 102.7 -30.2zM777 62.5c53.7 0 98 44.3 98 98v679c0 53.7 -44.3 98 -98 98H98c-53.7 0 -98 -44.3 -98 -98v-679c0 -53.7 44.3 -98 98 -98h679zm27.9 776.8V160.4c0 -15.1 -12.7 -28 -27.9 -28v.2H98c-15 0 -27.9 12.7 -27.9 27.9v678.8c0 15 12.7 27.9 27.9 27.9h679c15 0 27.9 -12.7 27.9 -27.9z"/></svg>