<svg height="1000" width="750" xmlns="http://www.w3.org/2000/svg"><path d="M223.4 437.5h180.5l-29.7 100H225v308.2c0 15.6 -5.5 18 8.6 19.5l116.4 11v67.2H0v-68.8l57 -5.5c14.1 -1.5 18 -6.2 18 -21.1V543.8c0 -6.3 -7.8 -6.3 -15.6 -6.3H0v-100h75v-56.2C75 248.4 146.1 193.8 282 193.8c91.4 0 173.5 21.8 173.5 141.4l-136 16.4c.8 -50 -11.7 -61.8 -43.7 -61.8 -49.2 0 -50.8 26.6 -50.8 73.5v62.5c0 6.2 -9.4 11.7 -1.6 11.7zM750 943.4H475v-67.2l54.7 -7.1c14.1 -1.5 20.3 -4.6 20.3 -19.5V560.5c0 -10.9 -7.8 -17.9 -18 -21l-64.8 -17.2 18 -78.9H700v406.2c0 15.6 -7 17.2 7.8 19.5l42.2 7.1v67.2zM691.4 265.2l24.2 89.1 -19.5 19.5 -83.6 -44.5 -83.6 44.5 -19.5 -19.5 24.2 -89.1L475 194.1l9.4 -19.5h74.2l41.4 -75h25l41.4 75h74.2l9.4 25.8z"/></svg>