<svg height="1000" width="875" xmlns="http://www.w3.org/2000/svg"><path d="M777 62.5c53.7 0 98 44.3 98 98v679c0 53.7 -44.3 98 -98 98H98c-53.7 0 -98 -44.3 -98 -98v-679c0 -53.7 44.3 -98 98 -98h679zm-88.7 555.3h.2v-274c0 -8.3 -8.2 -15.3 -17.6 -15.3 -11.7 0 -60.7 31.5 -105.1 31.5 -9.2 0 -17.4 -1.2 -25.6 -4.7C500.6 340.2 465.6 328.5 421.3 328.5c-40.8 0 -84 12.7 -120.1 27.9 -3.5 2.4 -7.1 3.6 -10.6 4.7V325c16.2 -11.7 25.6 -30.3 25.6 -51.4 0 -36.3 -29.3 -65.4 -65.4 -65.4 -36.3 0 -65.4 29.3 -65.4 65.4 0 21.1 10.3 39.7 25.5 51.4v427c0 22 17.6 39.6 39.7 39.6 17.4 0 32.6 -11.5 37.3 -27.9v-2.4c1.2 -2.3 1.2 -5.8 1.2 -9.3v-88.7c2.3 -1.2 4.7 -1.2 7 -2.4 38.5 -17.3 86.3 -33.8 131.8 -33.8 63.1 0 87.5 32.7 140.1 32.7 37.5 0 72.4 -12.7 105 -26.8 8.2 -3.5 15.3 -7 15.3 -15.2z"/></svg>