<svg height="1000" width="968.8" xmlns="http://www.w3.org/2000/svg"><path d="M940.4 117.8c12.3 46.7 26.8 119.1 28.4 204.1L662.9 15.6c85.1 1.8 158 16.6 204.7 29.1 35.5 9.6 63.5 37.5 72.8 73.1zM28.3 882.2C16 835.5 1.6 763.1 0 678.1l305.9 306.3c-85.2 -1.8 -158 -16.6 -204.7 -29.1C65.6 945.7 37.7 917.8 28.3 882.2zM8.2 553.5C52.3 255.3 279.5 61.3 538.3 23.4l422.4 423.1C916.4 744.7 689.3 938.7 430.5 976.6zM627.9 312.1l-55.2 55.7 -55.3 -55.3c-6.1 -6.1 -16 -6.1 -22.1 0l-22.1 22.1c-6 6 -6 16 0 22l55.3 55.3 -44.1 44.2 -55.3 -55.3c-6.1 -6.1 -16 -6.1 -22.1 0l-22 22.1c-6.1 6 -6.1 16 0 22l55.2 55.3 -44.1 44.1 -55.3 -55.2c-6 -6.1 -16 -6.1 -22 0l-22.1 22c-6.1 6.1 -6.1 16 0 22.1l55.3 55.1 -55.3 55.3c-6.1 6 -6.1 16 0 22l22.1 22.1c6 6.1 16 6.1 22 0l55.3 -55.3 55.3 55.3c6 6.1 16 6.1 22 0l22.1 -22.1c6.1 -6 6.1 -16 0 -22l-55.3 -55.3 44.2 -44.2 55.2 55.3c6.1 6.1 16.1 6.1 22.1 0l22.1 -22.1c6 -6 6 -16 0 -22L528.5 500l44.2 -44.3 55.2 55.2c6.1 6.1 16 6.1 22.1 0l22.1 -22c6 -6.1 6 -16 0 -22.1l-55.3 -55.3 55.3 -55.2c6 -6.1 6 -16.1 0 -22.1L650 312.1c-6.1 -6 -16 -6 -22.1 0z"/></svg>