<svg height="1000" width="1000" xmlns="http://www.w3.org/2000/svg"><path d="M955.5 562.3c5 0 9 3.9 8.8 9V1000H607V812.5c0 -141.8 -214.2 -141.8 -214.2 0V1000H35.5V571.3c0 -5.1 4 -9 9 -9H98c5.1 0 9 3.9 9 9v62.5h71.5V285.5c0 -5 3.9 -8.9 9 -8.9H241c5.1 0 9 3.9 9 8.9V348h70.9v-62.5c0 -5 3.9 -8.9 9 -8.9h53.5c5.1 0 9 3.9 9 8.9V348h71.5v-62.5c0 -11.7 15.6 -8.9 22.8 -8.9V58.4C476.2 53.3 468.9 42.2 468.9 30.5c0 -40.7 61.4 -40.5 61.4 0 0 11.7 -7.3 22.8 -17.8 27.9V68c15 -3.5 30.7 -5.7 46.3 -5.7 22.8 0 44.7 8.4 63.7 8.4 17.3 0 36.9 -8.4 46.8 -8.4 5.1 0 9 3.9 9 9v117.2c0 13.5 -45.1 15.6 -54.1 15.6 -20.5 0 -40 -8.4 -61.3 -8.4 -16.8 0 -34 2.7 -50.2 6.6v74.3c7.2 0 22.8 -2.8 22.8 8.9V348H607v-62.5c0 -5 3.9 -8.9 9 -8.9h53.5c5.1 0 9 3.9 9 8.9V348H750v-62.5c0 -5 3.9 -8.9 9 -8.9h53.5c5.1 0 9 3.9 9 8.9v348.3H893v-62.5c0 -5.1 3.9 -9 9 -9h53.5zm-562.7 -8.8v-125c0 -5.1 -3.9 -9 -9 -9h-53.5c-5.1 0 -9 3.9 -9 9v125c0 5.1 3.9 9 9 9h53.5c5.1 0 9 -3.9 9 -9zm285.9 0v-125c0 -5.1 -3.9 -9 -9 -9h-53.5c-5.1 0 -9 3.9 -9 9v125c0 5.1 3.9 9 9 9h53.5c5.1 0 9 -3.9 9 -9z"/></svg>