<svg height="1000" width="1000" xmlns="http://www.w3.org/2000/svg"><path d="M406.3 463.7c4.1 0 7.2 3.1 7.2 7.2v101c0 4.1 -3.1 7.2 -7.2 7.2h-43.4c-4.1 0 -7.2 -3.1 -7.2 -7.2v-101c0 -4.1 3.1 -7.2 7.2 -7.2h43.4zm230.8 0c3.9 0 7 3.1 7.2 7.2v101c0 4.1 -3.1 7.2 -7.2 7.2h-43.4c-4.1 0 -7.2 -3.1 -7.2 -7.2v-101c0 -4.1 3.1 -7.2 7.2 -7.2h43.4zM894.9 219.3c56.5 79.5 89.5 176.2 89.5 280.7 0 3.9 0 7.8 -.2 11.7 0 1.4 0 2.6 -.2 3.9 0 2.6 -.2 5.3 -.4 7.8 0 1.6 -.2 3 -.2 4.5 -.2 2.4 -.2 4.7 -.4 1.4 -.2 1.6 -.2 3.1 -.4 4.7 -.2 2.3 -.4 4.7 -.6 6.8 -.2 1.6 -.4 3.1 -.4 4.7 -.2 2.4 -.5 4.7 -.7 7 -.2 1.6 -.4 3 -.6 4.5 -.4 2.6 -.8 5.1 -1 7.6 -.2 1.2 -.4 2.6 -.6 3.8l-1.7 11.1c-.2 1.2 -.4 2.1 -.6 3.3 -.4 2.6 -1 5.3 -1.6 7.8 -.4 1.6 -.6 3.1 -1 4.7 -.4 2.2 -.9 4.3 -1.3 6.3 -.4 1.7 -.8 3.3 -1.2 5 -.4 2 -1 3.9 -1.4 5.9 -.4 1.8 -1 3.5 -1.3 5.3 -.6 1.9 -1 3.7 -1.6 5.6 -.4 1.8 -1 3.6 -1.6 5.3 -.6 1.8 -1.1 3.7 -1.5 5.5 -.6 1.7 -1 3.5 -1.6 5.3 -.6 1.7 -1.2 3.5 -1.8 5.4 -.9 3.1 -2.1 6.5 -3.3 9.6 -.6 1.7 -1.1 3.5 -1.9 5.5 -.8 1.9 -1.4 3.9 -2.2 5.8 -.6 1.6 -1.1 3 -1.7 4.5l-2.4 5.9c-.6 1.3 -1.1 2.9 -1.7 4.3 -.8 1.9 -1.6 3.9 -2.6 5.8l-1.7 4.1c-.8 2 -1.8 3.9 -2.8 5.9 -.6 1.4 -1.1 2.5 -1.7 3.9 -1 1.9 -2 4.1 -3 6 -.5 1.2 -1.1 2.2 -1.5 3.4 -1.2 2.1 -2.2 4.3 -3.3 6.4 -.2 .4 -.4 .6 -.6 1 -4.3 8 -8.6 16 -13.3 23.8 -.4 .8 -1 1.6 -1.4 2.4 -1.3 2.1 -2.5 4.3 -3.9 6.4 -.6 1 -1.1 1.8 -1.7 2.7 -1.4 2.2 -2.8 4.1 -3.9 6.3 -.6 1 -1.2 1.8 -1.8 2.7 -1.4 2.2 -2.7 4.1 -4.1 6.3 -.6 .8 -1.2 1.5 -1.6 2.3 -1.5 2.2 -2.9 4.3 -4.5 6.5 -.3 .4 -.5 .9 -.9 1.3 -73.5 106.9 -184.6 178.5 -312.7 200 -1.8 .2 -3.3 .6 -5.1 .8 -2 .4 -4.1 .6 -6.1 1 -1.7 .2 -3.5 .6 -5.4 .8 -2 .2 -3.9 .6 -5.9 .8 -1.9 .1 -3.9 .3 -5.7 .5 -1.9 .2 -3.7 .4 -5.6 .6 -2 .2 -4.1 .4 -6.1 .6 -1.7 .2 -3.5 .4 -5.2 .4 -2.2 .2 -4.5 .2 -6.7 .4 -1.5 0 -3.3 .2 -4.9 .2 -2.5 .2 -5 .2 -7.6 .2 -1.4 0 -2.7 .2 -4.1 .2 -3.9 0 -7.8 .2 -11.7 .2s-7.8 0 -11.7 -.2c-1.4 0 -2.8 0 -4.1 -.2 -2.6 0 -5.1 -.2 -7.6 -.2 -1.6 0 -3.4 -.2 -4.9 -.2 -2.2 -.2 -4.5 -.2 -6.7 -.4 -1.7 -.2 -3.5 -.2 -5.2 -.4 -2 -.2 -4.1 -.4 -6.1 -.6 -1.9 -.2 -3.7 -.4 -5.7 -.6 -1.9 -.2 -3.9 -.4 -5.6 -.5 -2 -.2 -3.9 -.4 -5.9 -.8 -1.7 -.2 -3.5 -.6 -5.5 -.8s-4.1 -.6 -6 -1c-1.8 -.2 -3.3 -.6 -5.1 -.8C292 956.4 180.9 884.6 107.6 783.6c-.4 -.4 -.6 -1 -1 -1.4 -1.5 -2.1 -3.1 -4.3 -4.5 -6.4 -.5 -.8 -1.1 -1.6 -1.5 -2.4 -1.4 -2.1 -2.8 -4.1 -4.1 -6.2 -.6 -1 -1.2 -1.8 -1.8 -2.7 -1.3 -2.2 -2.7 -4.1 -3.9 -6.3 -.6 -1 -1.2 -1.8 -1.7 -2.7 -1.4 -2.2 -2.6 -4.3 -3.9 -6.5 -.4 -.8 -1 -1.5 -1.4 -2.3 -4.7 -7.8 -9 -15.8 -13.3 -23.8 -.2 -.4 -.4 -.6 -.6 -1 -1.2 -2.2 -2.1 -4.3 -3.3 -6.5 -.6 -1.1 -1.2 -2.1 -1.6 -3.3 -.9 -1.9 -1.9 -4.1 -2.9 -6 -.6 -1.4 -1.2 -2.6 -1.7 -4 -1 -1.9 -1.8 -3.9 -2.8 -5.8l-1.7 -4.1c-.8 -2 -1.8 -3.9 -2.6 -5.9 -.6 -1.3 -1.2 -2.9 -1.7 -4.3l-2.4 -5.8c-.6 -1.6 -1.2 -3 -1.7 -4.5 -.8 -2 -1.6 -3.9 -2.2 -5.9 -.6 -1.7 -1.2 -3.5 -1.9 -5.4 -1.2 -3.2 -2.2 -6.5 -3.4 -9.6 -.5 -1.8 -1.1 -3.5 -1.7 -5.5 -.6 -1.7 -1 -3.5 -1.6 -5.3 -.6 -1.7 -1.2 -3.7 -1.5 -5.4 -.6 -1.8 -1 -3.5 -1.6 -5.3 -.6 -2 -1 -3.7 -1.6 -5.7 -.4 -1.7 -.9 -3.5 -1.3 -5.2 -.6 -2 -1 -3.9 -1.4 -5.9 -.4 -1.8 -.8 -3.3 -1.2 -5.1 -.4 -2.1 -1 -4.3 -1.3 -6.2 -.4 -1.6 -.6 -3.2 -1 -4.7 -.6 -2.6 -1 -5.3 -1.6 -7.8 -.2 -1.2 -.4 -2.2 -.6 -3.3l-1.7 -11.2c-.2 -1.2 -.4 -2.5 -.6 -3.7 -.4 -2.5 -.8 -5.1 -1 -7.6 -.2 -1.6 -.4 -2.9 -.6 -4.5 -.2 -2.3 -.6 -4.7 -.8 -7 -.2 -1.6 -.3 -3.2 -.3 -4.7 -.2 -2.4 -.4 -4.7 -.6 -6.9 -.2 -1.5 -.2 -3.1 -.4 -4.6 -.2 -2.4 -.4 -4.7 -.4 -7.3 0 -1.5 -.2 -2.9 -.2 -4.5 -.2 -2.5 -.2 -5.2 -.4 -7.8 0 -1.3 0 -2.5 -.2 -3.9 0 -3.9 -.2 -7.8 -.2 -11.7 0 -104.5 33 -201.2 89.5 -280.5 4.5 -6.2 9.1 -12.5 13.8 -18.5 9.6 -12.1 19.8 -24 30.5 -35.2 5.3 -5.6 10.7 -11.1 16.4 -16.4 5.7 -5.3 11.3 -10.5 17.2 -15.6 8.8 -7.6 17.8 -14.9 27.1 -21.9 3.2 -2.3 6.3 -4.7 9.4 -6.8C273.4 66.8 335.4 39.3 402.3 25.4c31.5 -6.5 64.3 -9.8 97.7 -9.8s66 3.3 97.7 9.8c66.9 13.7 128.9 41.2 182.8 79.5 3.1 2.3 6.2 4.5 9.3 6.8 9.4 7 18.4 14.3 27.2 21.9 23.4 20.3 44.9 42.8 64.1 67.2 4.8 6 9.3 12.3 13.8 18.5zM875 725.6V586.3c0 -4.1 -3.1 -7.2 -7.2 -7.2h-43.4c-4.1 0 -7.2 3.1 -7.2 7.2v50.4h-57.6V355.5c0 -4.1 -3.2 -7.3 -7.3 -7.3h-43.1c-4.1 0 -7.2 3.2 -7.2 7.3v50.6h-57.7v-50.6c0 -4.1 -3.1 -7.3 -7.2 -7.3h-43.4c-4.1 0 -7.2 3.2 -7.2 7.3v50.6h-57.6v-50.6c0 -9.4 -12.7 -7.3 -18.5 -7.3v-59.9c13 -3.1 26.9 -5.5 40.6 -5.5 17.2 0 32.8 6.8 49.6 6.8 7.2 0 43.7 -1.7 43.7 -12.6v-94.6c0 -4.1 -3.1 -7.2 -7.2 -7.2 -8.2 0 -23.8 6.8 -37.9 6.8 -15.4 0 -33 -6.8 -51.3 -6.8 -12.7 0 -25.2 1.8 -37.5 4.5v-7.6c8.5 -4.1 14.4 -13.1 14.4 -22.5 0 -32.8 -49.6 -32.8 -49.6 0 0 9.4 5.9 18.6 14.4 22.5v176.1c-5.8 0 -18.5 -2.1 -18.5 7.3v50.6h-57.6v-50.6c0 -4.1 -3.1 -7.3 -7.3 -7.3h-43.3c-4.1 0 -7.2 3.2 -7.2 7.3v50.6H298v-50.6c0 -4.1 -3.1 -7.3 -7.2 -7.3h-43.1c-4.1 0 -7.3 3.2 -7.3 7.3v281.2h-57.8v-50.4c0 -4.1 -3.1 -7.2 -7.2 -7.2h-43.2c-4.1 0 -7.2 3.1 -7.2 7.2v139.3c18.4 30.3 40.2 58.4 65.6 83.8 40.3 40.2 86.9 71.7 139.1 93.7 27.1 11.5 55.1 20.1 83.8 25.8v-148c0 -114.5 173 -114.5 173 0v148c28.7 -5.7 56.7 -14.4 83.8 -25.8 52.2 -22 98.8 -53.5 139.1 -93.7C834.8 784 856.6 755.9 875 725.6z"/></svg>