<svg height="1000" width="875" xmlns="http://www.w3.org/2000/svg"><path d="M11.3 604.9C3.9 571.7 0 538.1 0 504.5 0 263.7 194.9 68.4 435.7 68.4c32.5 0 65.1 3.9 96.3 10.7C291 170.9 101.4 363.3 11.3 604.9zM778.7 235.4C483.6 321.3 252.9 556.4 168.8 852 135.2 825.8 104.9 791.6 80.5 756.3 165.2 463.5 393.2 233.4 685.4 146.9c35.3 24.6 66.6 54.3 93.3 88.5zm30.9 493.5c25.6 69 47.2 143.2 65.4 214.5C804.5 925.2 734.4 903.3 666 877.7 615.8 909 559.4 930.3 500.8 938.9 584 783.2 712.1 651 867.2 567.2c-8 56.8 -27.9 112.7 -57.6 161.7zm58 -284.2C645.5 535.9 468.8 717 378.3 939.8 340 934.6 303.1 925 267.8 910.2c87.7 -270.6 299.6 -487 568.9 -576.4 15.4 35.3 25.8 72.8 30.9 110.9z"/></svg>