<svg height="1000" width="718.8" xmlns="http://www.w3.org/2000/svg"><path d="M631.1 5.9c78.1 0 99 44.5 82.4 127.3l-94.9 474.6c-7.3 28.3 -18 77.6 -86.6 77.6H369.1c-6.6 0 -7.2 -.6 -13.2 6 0 0 -4.3 4.9 -256.1 296.7 -19.7 22.8 -52.1 18.7 -64.3 13.9C23.6 997.3 0 982.8 0 943.2V95.9C0 61.1 24.2 5.9 97.5 5.9h533.6zM599.2 150c4.1 -19.1 -10.3 -34.2 -26.3 -34.2H145.1c-19.1 0 -32.4 17.4 -32.4 32.4V810c0 1.7 1.8 2.3 3.5 .5C273.6 621.3 291 599 291 599c18.2 -21.1 25.4 -24.6 51.8 -24.6h143.5c19.8 0 31.3 -16.8 33 -26.4 1.8 -9.7 18.8 -97.4 22.3 -114.8 3.5 -17.6 -12.7 -35.5 -28.9 -35.5H336.1c-23.4 0 -40.2 -16.8 -40.2 -40.3V332c0 -23.4 16.8 -39.6 40.2 -39.6h207.8c14.5 0 30.7 -13.1 33.1 -25.8z"/></svg>