<svg height="1000" width="1125" xmlns="http://www.w3.org/2000/svg"><path d="M189.9 187.9C105.5 269.2 63 368.7 63.3 488.7c.3 132.8 45 239.6 131.8 322.3 18.2 16.3 25.8 29.1 25.8 40.1 0 5.4 -3.8 11 -7.5 16.4 -3.7 3.7 -11.1 7.1 -16.3 7.5 -20.1 0 -48.2 -23.7 -84.9 -69.9C40.7 717.5 8.3 620.8 6.6 488.9S46.2 267.6 127.3 175.3c29.1 -33 53.4 -50.2 70 -50.2 5 .1 12.3 2.6 16.4 5.5 3.7 3.8 7.4 9.1 7.4 14.5 0 9.4 -11 22 -31.2 42.8zm277.8 632.5c1.1 .8 1.8 1.1 1.8 1.1zm183.2 1.1l.3 -.2c-.3 .2 -.5 .3 -.3 .2zM657 512.6c31.7 8.1 47 -47 58.7 -58.7 165.4 215 -53.8 360.2 -64.5 367.4 7.6 -6 86.6 -97.2 42.2 -149.5 -2 -2.1 -131.5 39.1 -107.1 -104.6C602.5 472.1 571.4 428.3 571.4 428.3c-35.1 72.8 -63.5 105.2 -85 140.9C375.2 750.7 454.6 812 467.8 820.5 447.2 807.8 256.3 682 401.4 478.2 554.5 263 524.1 166.5 524.1 166.5c231.4 184.2 101.2 338 132.9 346.1zM997.8 175.2c81 92.4 122.4 181.9 120.6 313.7s-34.1 228.6 -105.6 316.2C976.1 851.3 948 875 927.9 875c-5.2 -.5 -12.6 -3.8 -16.3 -7.5 -3.7 -5.4 -7.5 -11 -7.5 -16.4 .1 -11 7.6 -23.8 25.8 -40.1 86.9 -82.8 131.5 -189.5 131.8 -322.3 .4 -120 -42.1 -219.6 -126.6 -300.9C914.8 167 903.9 154.4 903.9 145c0 -5.4 3.7 -10.7 7.4 -14.5 4.1 -2.9 11.4 -5.4 16.4 -5.5 16.7 0 41.1 17.2 70.1 50.2z"/></svg>