<svg height="1000" width="875" xmlns="http://www.w3.org/2000/svg"><path d="M593.2 187.9C614.8 166.2 818.8 37.5 865 84c46.3 46.3 -82.2 250.2 -103.9 271.9 -21.6 21.6 -76.9 1.7 -123.2 -44.8C591.4 264.8 571.3 209.6 593.2 187.9zM214.6 133c-61.7 37.9 -113 90.8 -149.2 153.7C24.8 215.8 -21.5 112.7 10.9 80.3 43 48 143.7 92.8 214.6 133zm579.7 206.8c6.5 -10.7 13.7 -23 21.3 -36.7 34.4 61.2 54.1 131.7 54.1 206.7 0 232.6 -188.5 421.1 -421.1 421.1C216 930.9 27.5 742.2 27.5 509.8 27.5 277.1 216 88.7 448.6 88.7c70.1 0 136.2 17.2 194.4 47.4 -14.3 7.8 -27.2 15.7 -38.3 22.7 -50.8 -9.2 -64.3 32 -29.1 95.1 42.6 84.2 173.8 176.6 213.5 136.9 10.5 -10.5 11.7 -28.9 5.2 -51z"/></svg>