<svg height="1000" width="1125" xmlns="http://www.w3.org/2000/svg"><path d="M872.1 190.3s114.1 37.2 193.4 80.6c36.6 20.1 59.5 58.3 59.5 100.1 0 36.7 -26 81.1 -58 99.1L765.3 639.3l192.5 204.5h104.7c34.5 0 62.5 27.9 62.5 62.5 0 17.2 -14 31.2 -31.2 31.2H917.2l-231.5 -246C695.6 585.8 627.3 525.4 606 509.5c-71.9 -54 -172.4 -54 -244.4 0l-67.9 50.9c-13.8 10.4 -16.6 30 -6.2 43.8 10.4 13.9 30 16.6 43.7 6.2l64 -48c40.4 -30.3 94.5 -40.6 141.1 -21.2 86.1 35.7 113 137.4 65.9 208.2l-70 94.4h155.3c34.5 0 62.5 27.9 62.5 62.5 0 17.2 -14 31.2 -31.2 31.2H125C56.8 937.5 .2 882.6 0 814.4 -1 488.5 247.6 220.6 565.4 190.5c13.3 -72.7 76.7 -128 153.4 -128 76.5 0 139.9 55.1 153.3 127.8zm-153.3 75.3c25.8 0 46.8 -21 46.8 -46.8 0 -25.9 -21 -46.9 -46.8 -46.9 -25.9 0 -46.9 21 -46.9 46.9 0 25.8 21 46.8 46.9 46.8z"/></svg>