<svg height="1000" width="968.8" xmlns="http://www.w3.org/2000/svg"><path d="M484.4 15.6C752 15.6 968.8 232.4 968.8 500S752 984.4 484.4 984.4 0 767.6 0 500 216.8 15.6 484.4 15.6zm156.2 328.2c-34.5 0 -62.5 27.9 -62.5 62.5s28 62.5 62.5 62.5 62.5 -28 62.5 -62.5 -27.9 -62.5 -62.5 -62.5zm-312.5 0c-34.5 0 -62.5 27.9 -62.5 62.5s28 62.5 62.5 62.5 62.5 -28 62.5 -62.5 -27.9 -62.5 -62.5 -62.5zm332.4 426.1c26.4 31.9 74.5 -8.2 47.9 -39.8C652.9 663.3 571.1 625 484.4 625S315.8 663.3 260.2 729.9c-26.4 31.8 21.6 71.9 48 40 43.8 -52.3 108 -82.4 176.2 -82.4s132.4 30.1 176.1 82.4z"/></svg>