<svg height="1000" width="968.8" xmlns="http://www.w3.org/2000/svg"><path d="M484.4 15.6C752 15.6 968.8 232.4 968.8 500S752 984.4 484.4 984.4 0 767.6 0 500 216.8 15.6 484.4 15.6zM265.6 406.3c0 34.5 28 62.5 62.5 62.5s62.5 -28 62.5 -62.5 -27.9 -62.5 -62.5 -62.5 -62.5 27.9 -62.5 62.5zm365.8 358c22.3 6.8 44 -12.2 40.1 -35.4C657.8 651 554.1 609.4 484.4 609.4S310.9 650.8 297.3 728.9c-3.9 23.1 17.5 42.2 40 35.4 60.9 -18.8 116 -29.9 147.1 -29.9s86.1 11.1 147 29.9zm9.2 -295.5c34.6 0 62.5 -28 62.5 -62.5s-27.9 -62.5 -62.5 -62.5 -62.5 27.9 -62.5 62.5 28 62.5 62.5 62.5z"/></svg>