<svg height="1000" width="1250" xmlns="http://www.w3.org/2000/svg"><path d="M846.6 324.1c-162.9 40.8 -284.1 188 -284.1 363.4 0 106.2 44.5 201.9 115.6 270.2 -21 40.1 -74.9 57.1 -115.6 26.5L406.3 867C386.6 852.3 375 829.1 375 804.5V500L18.2 105.6C-20.7 66.6 6.9 0 62 0h938.5c55.1 0 82.7 66.6 43.8 105.6zm90.9 50.9c172.6 0 312.5 139.9 312.5 312.5S1110.1 1000 937.5 1000 625 860.1 625 687.5 764.9 375 937.5 375zm31.3 468.5c46.1 -1.2 83.3 -40.1 83.3 -88 0 -39 -25.4 -73.9 -61.7 -84.8l-87.9 -26.3c-10.1 -3 -17.1 -13.3 -17.1 -24.9 0 -14.2 10.3 -25.7 23 -25.7h54.9c8.9 0 17.5 2.5 25.1 7.2 6.3 4 14.4 3.7 19.8 -1.4l22.9 -21.9c6.9 -6.6 6.5 -18 -1.1 -23.7a111.187 111.187 0 0 0 -61.3 -22.2V500c0 -8.6 -7 -15.6 -15.6 -15.6h-31.2c-8.7 0 -15.7 7 -15.7 15.6v31.5c-46.1 1.2 -83.3 40.1 -83.3 88 0 39 25.4 73.9 61.7 84.8l87.9 26.3c10 3 17.1 13.3 17.1 24.9 0 14.2 -10.4 25.8 -23.1 25.8h-54.9c-8.9 0 -17.4 -2.6 -25 -7.3 -6.3 -4 -14.4 -3.7 -19.8 1.4l-22.9 21.9c-6.9 6.6 -6.5 18 1.1 23.7 17.8 13.4 39.2 21.1 61.2 22.2V875c0 8.6 7 15.6 15.7 15.6h31.2c8.7 0 15.6 -7 15.6 -15.6v-31.5z"/></svg>