<svg height="1000" width="1000" xmlns="http://www.w3.org/2000/svg"><path d="M984.4 500c0 267.5 -216.9 484.4 -484.4 484.4S15.6 767.5 15.6 500 232.5 15.6 500 15.6 984.4 232.5 984.4 500zm-93.8 0v-.6l-50.9 44.5L717.3 429.6l32.1 -164.7 67 6C767.8 204 699.2 153.5 619.7 128l26.7 62.4L500 271.5 353.6 190.4 380.3 128c-79.4 25.4 -148 75.9 -196.7 142.9l67.5 -6 31.6 164.7L160.3 543.9l-50.9 -44.5v.6c0 84 26.3 164 75.1 230.5l15.1 -66.3 166.3 20.5 70.9 152 -58.5 34.7c78.6 25.6 164.7 25.7 243.4 0l-58.5 -34.7 70.9 -152 166.3 -20.5 15.1 66.3C864.3 664 890.6 584 890.6 500zM406.1 635.9L347.7 457.5 500 347.1l152.3 110.4 -57.8 178.4H406.1z"/></svg>