<svg height="1000" width="968.8" xmlns="http://www.w3.org/2000/svg"><path d="M484.4 984.4C217.3 984.4 0 767.1 0 500S217.3 15.6 484.4 15.6 968.8 232.9 968.8 500 751.5 984.4 484.4 984.4zm0 -936.5C235.1 47.9 32.3 250.7 32.3 500s202.8 452.1 452.1 452.1S936.5 749.3 936.5 500 733.7 47.9 484.4 47.9zm53.9 42.6c73.6 9.6 141.1 38.6 197.2 81.6l-34 34C661.2 176.1 588 145.9 538.3 138.6V90.5zm-108.1 .1v48c-60.5 9 -116.1 32.8 -163.1 67.7h-.2l-33.8 -33.9c56.1 -43.1 123.6 -72.1 197.1 -81.8zm23.9 98h60.5v161.9c19.7 3.9 37.9 11.7 54 22.4L683.2 258.3l42.8 42.9L611.4 415.8c10.7 16.1 18.5 34.3 22.5 53.9h161.8v60.6H633.9c-4 19.5 -11.8 37.7 -22.5 53.7L726 698.7l-42.8 42.8L568.6 626.9c-16.1 10.7 -34.3 18.6 -54 22.5v161.9h-60.5V649.4C438 646.2 413.8 636.1 400.1 627L285.6 741.5l-42.9 -42.8L357.3 584.1C346.7 568 338.9 549.8 334.9 530.3H173v-60.6h161.9c4 -19.6 11.7 -37.8 22.4 -53.9L242.7 301.2l42.9 -42.8 114.5 114.4c16.1 -10.7 34.4 -18.3 54 -22.3V188.6zm357.9 60c43.2 56.2 72.2 123.7 81.9 197.4h-48.1C838.4 396.2 808.1 323 778.1 282.5zm-655.4 .3l34 34C155.8 329.9 132 385.5 123 446H74.9c9.6 -73.6 38.6 -141 81.7 -197.1zM74.9 554H123c9 60.5 32.6 116.1 67.4 163.1l-33.9 34C113.5 695 84.5 627.6 74.9 554zm770.9 0h48.1c-9.7 73.6 -38.8 141.1 -81.9 197.2l-33.9 -33.9C813 670.3 836.8 614.6 845.8 554zM266.9 793.7c47 34.9 102.8 58.6 163.3 67.7v48.1C356.6 899.8 289.1 870.8 233 827.6zm434.6 .1h.2l33.8 34c-56.1 43.1 -123.6 72.1 -197.2 81.7v-48c60.5 -8.9 116.2 -32.8 163.2 -67.7z"/></svg>