<svg height="1000" width="1000" xmlns="http://www.w3.org/2000/svg"><path d="M488 65.4h24v50.9c26.5 40.3 46.6 212.1 47.8 420.6 -22.9 -30.5 -37.3 -65.1 -37.3 -94.2v-33c0 -10.4 -1.5 -20.5 -4.3 -30.5 -1.3 -4.2 -2.7 -8 -5.1 -11.4 -2.4 -3.4 -6.8 -7.4 -13.1 -7.4s-10.6 4 -13 7.4c-2.4 3.4 -3.9 7.2 -5.1 11.4 -2.9 10 -4.4 20.1 -4.3 30.5v33c0 29.1 -14.5 63.7 -37.4 94.2C441.4 328.4 461.5 156.6 488 116.3V65.4zM436.6 354c-3.2 43.8 -5.4 90.9 -6.8 140.8 -45.5 22 -79.7 64.7 -90.5 116.2 -15.1 4.4 -44.4 7.7 -79.1 8.2C245.5 612.1 228 607.8 209.1 607.4c3.7 -29.1 11.4 -56.9 22.7 -82.8 30.2 15.8 60.4 16.9 69.3 1.9 8.9 -15.2 -7 -41.1 -35.8 -59.9 17 -23 37.1 -43.6 59.7 -60.7 18.6 30.4 45.6 47.7 61.3 38.7 15.7 -9.1 14 -41.4 -3.4 -72.9C400 364.1 418 358.2 436.6 354zm126.8 0c15.3 3.4 39.3 11.4 53.6 17.7 -17.3 31.5 -19 63.8 -3.3 72.9 15.6 9 42.7 -8.3 61.3 -38.7 22.6 17.1 42.7 37.7 59.6 60.7 -28.7 18.8 -44.7 44.7 -35.7 59.9 8.8 15 39.1 13.9 69.2 -1.9 11.4 25.9 19.1 53.7 22.8 82.8 -18.9 .4 -36.5 4.7 -51.1 11.8 -34.8 -.5 -64 -3.8 -79.1 -8.2 -10.9 -51.5 -45 -94.2 -90.5 -116.2 -1.4 -49.9 -3.7 -97 -6.8 -140.8zM500 370.8c6.3 0 11.4 17.2 11.9 38.9h.1v33c0 80.9 95.7 185.6 182.6 185.6 101.6 0 239.8 -2.8 305.4 57v4.9c-18.4 33.4 -40.2 64.8 -64.8 93.7 -24.5 -41.2 -100.8 -80 -211 -80.8C635 705.1 569.9 742.8 547 783c-.1 0 0 0 0 0 -15 4.2 -31 6.4 -47 6.3 -16 .1 -32 -2.1 -47 -6.3 0 0 .1 0 0 0C430.1 742.8 365 705.1 275.8 703.1c-110.2 .8 -186.5 39.6 -211 80.8C40.2 755 18.4 723.6 0 690.2v-4.9c65.7 -59.8 203.8 -57 305.4 -57C392.3 628.3 488 523.6 488 442.7v-33h.1c.5 -21.7 5.6 -38.9 11.9 -38.9zm0 188.7c-43.8 0 -79.3 35.5 -79.3 79.2s35.5 79.4 79.3 79.4 79.3 -35.6 79.3 -79.4S543.8 559.5 500 559.5zm0 14.9c35.5 0 64.4 28.8 64.4 64.4s-28.9 64.3 -64.4 64.3 -64.4 -28.8 -64.4 -64.3 28.9 -64.4 64.4 -64.4zm0 12c-28.9 0 -52.4 23.4 -52.4 52.4s23.5 52.3 52.4 52.3 52.4 -23.4 52.4 -52.3S528.9 586.4 500 586.4zM275.8 716.6c36.6 .8 68.7 8.1 94.9 18.9 24.5 31.3 57 58.6 96.9 64.6 .2 0 .3 0 .5 .1 .1 0 .2 0 .3 .1 10.2 2 20.8 3.1 31.6 3.1 10.9 0 21.4 -1.1 31.6 -3.1 .1 -.1 .3 -.1 .4 -.1 .1 -.1 .3 -.1 .5 -.1 39.9 -6 72.3 -33.3 96.8 -64.6 26.2 -10.8 58.3 -18.1 95 -18.9 19.8 .1 42.1 .7 59.5 3.2 -.8 8.7 -2.9 36.4 -13.9 58.1 -17.8 -5 -35.8 -7.6 -53.9 -7.6 -80.6 1.9 -139.6 67.1 -152.9 145.5l-.2 9.2c-20.3 3.7 -41.3 5.7 -62.9 5.7 -21.5 0 -42.6 -2 -62.9 -5.7l-.2 -9.2C423.7 837.4 364.7 772.2 284 770.3c-18 0 -36.1 2.6 -53.9 7.6 -10.9 -21.7 -13 -49.4 -13.9 -58.1 17.4 -2.5 39.7 -3.1 59.6 -3.2z"/></svg>