<svg height="1000" width="1250" xmlns="http://www.w3.org/2000/svg"><path d="M937.6 187.5c172.5 .1 312.4 140.1 312.4 312.5 0 172.5 -140 312.5 -312.5 312.5 -72.4 0 -172.4 -42 -223.1 -93.7H535.6c-50.7 51.7 -150.7 93.7 -223.1 93.7C140 812.5 0 672.5 0 500S140 187.5 312.5 187.5h625.1zM484.4 523.4v-46.8c0 -13 -10.5 -23.5 -23.5 -23.5H359.4V351.6c0 -13 -10.5 -23.5 -23.5 -23.5h-46.8c-13 0 -23.5 10.5 -23.5 23.5v101.5H164.1c-13 0 -23.5 10.5 -23.5 23.5v46.8c0 13 10.5 23.5 23.5 23.5h101.5v101.5c0 13 10.5 23.5 23.5 23.5h46.8c13 0 23.5 -10.5 23.5 -23.5V546.9h101.5c13 0 23.5 -10.5 23.5 -23.5zm421.9 148.5c43.1 0 78.1 -35 78.1 -78.1s-35 -78.2 -78.1 -78.2 -78.2 35 -78.2 78.2 35 78.1 78.2 78.1zm125 -187.5c43.1 0 78.1 -35 78.1 -78.1s-35 -78.2 -78.1 -78.2 -78.2 35 -78.2 78.2 35 78.1 78.2 78.1z"/></svg>