<svg height="1000" width="1000" xmlns="http://www.w3.org/2000/svg"><path d="M656.3 875c17.1 0 31.2 14.1 31.2 31.3v62.5c0 17.1 -14.1 31.2 -31.2 31.2h-625C14.1 1000 0 985.9 0 968.8v-62.5C0 889.1 14.1 875 31.3 875h625zm307 -665.4c23.4 23.4 36.7 55.2 36.7 88.4v436.4c0 82.4 -71.3 148.4 -155.3 140 -73.2 -7.6 -126 -74.6 -126 -148.2v-54.3c0 -43.2 -34.9 -78.2 -78.1 -78.2H625v218.8H62.5V125C62.5 56.1 118.6 0 187.5 0H500c68.9 0 125 56.1 125 125v375h15.6c94.9 0 171.9 77 171.9 171.9v62.5c0 25.8 21.1 46.8 46.9 46.8s46.8 -21 46.8 -46.8V420.3c-52.9 -7.6 -93.7 -52.9 -93.7 -107.8V191.2l-73.6 -73.6c-12.1 -12.1 -12.1 -32.1 0 -44.2l22 -22c12.1 -12.1 32.1 -12.1 44.2 0zM500 375V125H187.5v250H500z"/></svg>