<svg height="1000" width="1000" xmlns="http://www.w3.org/2000/svg"><path d="M986.3 389.4c18.3 18.3 18.3 48 0 66.3l-243.1 243c-18.3 18.3 -48 18.3 -66.3 0l-44.2 -44.2c-18.3 -18.3 -18.3 -47.9 0 -66.2l11.1 -11.1 -77.4 -77.3L408.1 658.1l11.1 11.1c24.4 24.4 24.4 64 0 88.4L195.1 981.7c-24.4 24.4 -64 24.4 -88.4 0L18.3 893.3c-24.4 -24.4 -24.4 -64 0 -88.4L242.4 580.8c24.4 -24.4 64 -24.4 88.4 0l11.1 11.1L500.1 433.6l-77.3 -77.4 -11.1 11.1c-18.3 18.3 -47.9 18.3 -66.2 0l-44.2 -44.2c-18.3 -18.3 -18.3 -48 0 -66.3l243 -243.1c18.3 -18.3 48 -18.3 66.3 0l44.2 44.2c18.3 18.3 18.3 48 0 66.3l-11 11.1 220.9 220.9 11.1 -11c18.3 -18.3 48 -18.3 66.3 0z"/></svg>