<svg height="1000" width="750" xmlns="http://www.w3.org/2000/svg"><path d="M363.5 .2C575.8 -6.2 750 164.1 750 375v531.2c0 27.8 -33.7 41.8 -53.3 22.1L648 892.1c-13 -9.7 -31.3 -7.8 -42 4.3l-83.9 94.4c-12.2 12.2 -32 12.2 -44.2 0l-79.5 -89.5c-12.5 -14 -34.3 -14 -46.8 0l-79.5 89.5c-12.2 12.2 -32 12.2 -44.2 0L144 896.4c-10.7 -12.1 -29 -14 -42 -4.3l-48.7 36.2C33.7 948 0 934 0 906.2V390.7C0 185.4 158.2 6.3 363.5 .2zM250 437.5c34.5 0 62.5 -28 62.5 -62.5s-28 -62.5 -62.5 -62.5 -62.5 28 -62.5 62.5 28 62.5 62.5 62.5zm250 0c34.5 0 62.5 -28 62.5 -62.5s-28 -62.5 -62.5 -62.5 -62.5 28 -62.5 62.5 28 62.5 62.5 62.5z"/></svg>