<svg height="1000" width="1250" xmlns="http://www.w3.org/2000/svg"><path d="M469.9 379.1C415.6 392.6 375 441.6 375 500v437.5c0 22.9 6.6 43.9 17.4 62.5H62.5C27.9 1000 0 972.1 0 937.5V250c0 -34.6 27.9 -62.5 62.5 -62.5h57.4L60 144.5C45.9 134.6 42.8 115 52.7 101L70.9 75.6c10 -14.1 29.5 -17.2 43.6 -7.2l62.7 44.5L154.7 53.1c-6.3 -16 1.9 -34.2 18.2 -40.2L202.1 2c16.3 -6.1 34.2 2.1 40.3 18.3L281.3 124 320.1 20.5c6.1 -16.2 24 -24.4 40.3 -18.4l29.2 11c16.3 6 24.5 24 18.4 40.2l-22.5 59.8L448 68.4c14.1 -10.2 33.6 -6.9 43.6 7.2l18.2 25.4c10.1 14 6.8 33.6 -7.3 43.5l-59.9 43H500c24.8 0 45.7 14.6 55.9 35.7 -52.2 36.4 -82.3 95.7 -86 155.9zm-32.4 558.4V750h375v250H500c-34.6 0 -62.5 -27.9 -62.5 -62.5zM875 1000V750h375v187.5c0 34.6 -27.9 62.5 -62.5 62.5H875zm312.5 -562.5c34.6 0 62.5 27.9 62.5 62.5v187.5H875v-250h-29.9l-1.3 -.4 -1.4 .4h-29.9v250h-375V500c0 -34.6 27.9 -62.5 62.5 -62.5h39.8c-5.2 -14.8 -8.5 -30.3 -8.5 -46.5 0 -69.3 52.7 -141 140.8 -141 93.7 0 148 93.2 171.7 147.1C867.2 343.2 921.5 250 1015.4 250c88.1 0 140.9 71.7 140.9 141 0 16.2 -3.6 31.7 -8.6 46.5h39.8zm-531.2 0H759c-17.4 -40.2 -50.4 -93.7 -86.9 -93.7 -34.6 0 -47.1 28.3 -47.1 47.2 0 10.2 2.9 24.6 17.2 37.1 4.1 3.5 8.8 6.7 14.1 9.4zm389 -9.4c14.3 -12.5 17.2 -26.9 17.2 -37.1 0 -18.9 -12.5 -47.3 -47.1 -47.3 -36.5 0 -69.7 54.2 -86.9 93.8h102.7c5.3 -2.7 10 -5.9 14.1 -9.4z"/></svg>