<svg height="1000" width="1000" xmlns="http://www.w3.org/2000/svg"><path d="M62.5 875V625h375v312.5H125C90.4 937.5 62.5 909.6 62.5 875zm500 62.5V625h375v250c0 34.6 -27.9 62.5 -62.5 62.5H562.5zm375 -625c34.6 0 62.5 27.9 62.5 62.5v156.3c0 17.1 -14.1 31.2 -31.2 31.2H31.3C14.1 562.5 0 548.4 0 531.3V375c0 -34.6 27.9 -62.5 62.5 -62.5h86.1c-12.3 -23.6 -19.7 -49.8 -19.7 -78.1 0 -94.8 77.2 -171.9 171.9 -171.9 81.2 0 133.8 41.6 201.2 133.4C569.3 104.1 621.9 62.5 703.1 62.5c94.8 0 171.9 77.1 171.9 171.9 0 28.3 -7.6 54.5 -19.7 78.1h82.2zm-636.9 0h168.1C368.2 162.7 339.5 156.3 300.6 156.3c-43.2 0 -78.1 34.9 -78.1 78.1s34.9 78.1 78.1 78.1zm402.5 0c43.2 0 78.2 -35 78.2 -78.1s-35 -78.1 -78.2 -78.1c-39.8 0 -67.7 6.8 -168.1 156.2h168.1z"/></svg>