<svg height="1000" width="1000" xmlns="http://www.w3.org/2000/svg"><path d="M422.4 309.4l.1 67.4 -73 5.6c14.2 18.3 29.2 43.7 29.2 80.2 0 152.1 -178.5 147.4 -231.8 132.6l-26.2 42.1c207.9 12.7 296.1 8.5 296.1 123 0 91.4 -80.1 143 -218.3 143C54.8 903.3 0 866.7 0 804c0 -35.7 15.9 -54.8 43.8 -81C17.5 712 8.8 692.2 8.8 670.7c0 -30 23.3 -51.2 72.3 -96.1C42 555.5 12.7 514.2 12.7 455.4c0 -161.2 176.8 -166.5 254.9 -146h154.8zM298.6 781.8c0 -30.7 -32.5 -27 -184.2 -37.3C104 757.3 93.7 770.7 93.7 786.6c0 57.9 204.9 57.8 204.9 -4.8zM199.3 519c101.6 0 99.1 -139 2.4 -139 -100.9 0 -105.5 139 -2.4 139zm260.4 196.3v-62.7c52.2 -7.2 53.2 -3.9 53.2 -21.5V397.7c0 -16.6 -4 -14.4 -53.2 -31.8l8.7 -64.3h164.4v329.5c0 12.7 .8 14.3 12.7 15.9l40.5 5.6v62.7H459.7zM562.1 238.1c-45.2 0 -71.4 -26.2 -71.4 -71.5s26.2 -69.9 71.4 -69.9c46.1 0 72.3 24.7 72.3 69.9s-26.2 71.5 -72.3 71.5zM1000 684.5c-34.2 16.7 -84.2 31.7 -129.5 31.7 -94.4 0 -130.2 -38 -130.2 -127.8v-208c0 -10.6 2.1 -8 -61.9 -8v-70.6c69.9 -8 97.7 -43 106.4 -129.5h75.4c0 128.6 -2.6 120.7 6.4 120.7h111.9v79.4H860.2v189.8c0 13.5 -9.6 100.4 118.3 52.4z"/></svg>