<svg height="1000" width="875" xmlns="http://www.w3.org/2000/svg"><path d="M858.5 461c9.1 9.1 16.5 27 16.5 39.9s-7.4 30.7 -16.5 39.8L478.2 921c-9.1 9.1 -26.9 16.5 -39.8 16.5S407.7 930.1 398.6 921L16.5 539C7.4 529.9 0 512 0 499.1s7.4 -30.7 16.5 -39.8l262 -262 99.2 99.3c-11.7 27.8 -4.3 71.2 36.4 87.9v240.2c-43.6 17.8 -56.3 75 -22 109.4 10.8 10.8 32.1 19.6 47.4 19.6 15.3 0 36.6 -8.8 47.4 -19.6 25.8 -25.7 31.7 -83 -17.7 -107.4v-238l90.5 90.4C532 546.4 617.3 603.7 669.1 552c50.2 -50.2 -2.4 -133.8 -69.3 -110.7l-97 -97C521 291.7 470.9 241.1 418.1 259L317.4 158.4 396.9 79c9.1 -9.1 26.9 -16.5 39.8 -16.5s30.7 7.4 39.9 16.5z"/></svg>