<svg height="1000" width="875" xmlns="http://www.w3.org/2000/svg"><path d="M196.5 652.8c94.8 6.5 115.1 4.1 115.1 23.3 0 39.1 -128 39.2 -128 3 0 -9.9 6.4 -18.4 12.9 -26.3zM251.1 425c60.4 0 62 86.9 -1.5 86.9 -64.5 0 -61.6 -86.9 1.5 -86.9zM875 156.3v687.5c0 51.7 -42 93.7 -93.7 93.7H93.8C42 937.5 0 895.5 0 843.8V156.3C0 104.5 42 62.5 93.8 62.5h687.5c51.7 0 93.7 42 93.7 93.8zM431.6 291.6c0 28.3 16.4 44.7 44.7 44.7 28.8 0 45.2 -16.4 45.2 -44.7 0 -28.3 -16.4 -43.6 -45.2 -43.6 -28.3 0 -44.7 15.4 -44.7 43.6zM389 380.9h-96.8C243.4 368.1 133 371.4 133 472.2c0 36.7 18.3 62.5 42.6 74.4 -30.6 28.1 -45.1 41.3 -45.1 60 0 13.5 5.4 25.9 21.8 32.8C134.9 655.8 125 667.7 125 690c0 39.2 34.2 62 124.1 62 86.3 0 136.4 -32.3 136.4 -89.4 0 -71.6 -55.1 -68.9 -185.1 -76.9l16.4 -26.2c33.2 9.3 144.9 12.2 144.9 -82.9 0 -22.8 -9.4 -38.7 -18.4 -50.1L389 423zm164.8 214.5l-25.4 -3.5c-7.5 -1 -8 -1.9 -8 -9.9V376H417.7l-5.5 40.2c30.8 10.8 33.2 9.5 33.2 19.9V582c0 11 -.6 9 -33.2 13.5v39.1h141.5zM750 615.2l-13.4 -43.7c-80 30.1 -73.9 -24.2 -73.9 -32.6V420.3h73.9v-49.7h-70c-5.6 0 -3.9 5 -3.9 -75.4h-47.2c-5.5 54.1 -22.8 75.9 -66.4 80.9v44.2c40 0 38.7 -1.7 38.7 4.9v130.1c0 56 22.3 79.9 81.4 79.9 28.2 0 59.5 -9.5 80.8 -20z"/></svg>