<svg height="1000" width="875" xmlns="http://www.w3.org/2000/svg"><path d="M781.3 62.5c51.7 0 93.7 42 93.7 93.8v687.5c0 51.7 -42 93.7 -93.7 93.7H93.8C42 937.5 0 895.5 0 843.8V156.3C0 104.5 42 62.5 93.8 62.5h687.5zM541.6 811.9C670.5 768.9 758 646.1 757.8 502.7 757.8 323.4 612.5 187.3 433.2 187.3S116.8 323.4 116.8 502.7c0 143.4 90.2 266 219.1 309.2 16.6 2.9 22.5 -7.2 22.5 -15.6 0 -8 -.4 -52.2 -.4 -79.3 0 0 -90.6 19.5 -109.6 -38.5 0 0 -14.8 -37.5 -35.9 -47.2 0 0 -29.5 -20.4 2.1 -20 0 0 32.1 2.6 49.9 33.4 28.3 50 75.7 35.6 94.3 27.2 2.9 -20.7 11.3 -35.2 20.7 -43.6 -72.3 -8 -145.1 -18.5 -145.1 -142.8 0 -35.5 9.7 -53.3 30.4 -76.1 -3.5 -8.6 -14.4 -43.2 3.4 -87.9 27.1 -8.4 89.2 34.9 89.2 34.9 25.8 -7.2 53.7 -10.9 81.3 -10.9 27.5 0 55.4 3.7 81.2 10.9 0 0 62.1 -43.3 89.3 -34.9 17.8 44.9 6.6 79.5 3.3 87.9 20.7 22.8 33.4 40.6 33.4 76.1 0 124.9 -76.2 134.8 -148.4 142.8 11.9 10.2 22 29.5 22 60 0 43.5 -.4 97.4 -.4 108 0 8.4 6.1 18.5 22.5 15.6zM350 692.6c-3.7 .8 -7.2 -.8 -7.6 -3.3 -.4 -3 2.1 -5.5 5.8 -6.3 3.8 -.4 7.3 1.2 7.7 3.7 .5 2.6 -2 5.1 -5.9 5.9zm-18.6 -1.8c0 -2.9 -3.5 -5.1 -7.2 -4.7 -3.9 0 -6.8 2.2 -6.8 4.7 0 3 2.9 5.1 7.2 4.7 3.9 0 6.8 -2.1 6.8 -4.7zm-26.7 -2.1c-.8 2.5 -4.7 3.7 -8 2.5 -3.7 -.8 -6.3 -3.7 -5.5 -6.2 .8 -2.6 4.7 -3.8 8 -3 3.9 1.2 6.5 4.1 5.5 6.7zm-24 -10.6c1.7 -1.5 .7 -5.4 -1.8 -8 -2.9 -2.9 -6.6 -3.3 -8.4 -1.2 -1.9 1.8 -1.2 5.5 1.8 8.1 2.9 2.9 6.6 3.3 8.4 1.1zm-17.8 -17.7c2.1 -1.6 2.1 -5.1 0 -8.1 -1.8 -2.9 -5.1 -4.3 -7.2 -2.5 -2.2 1.4 -2.2 4.7 0 7.6 2.1 3 5.4 4.1 7.2 3zm-12.7 -19c1.8 -1.4 1.4 -4.3 -.8 -6.8 -2.1 -2 -5.1 -3 -6.8 -1.2 -1.8 1.4 -1.4 4.3 .8 6.8 2.1 2 5 3 6.8 1.2zM237.1 627c.8 -1.6 -.4 -3.8 -2.9 -5.1 -2.6 -1 -4.7 -.4 -5.5 .8 -.8 1.7 .4 3.9 2.9 5 2.2 1.4 4.7 1 5.5 -.7z"/></svg>