<svg height="1000" width="968.8" xmlns="http://www.w3.org/2000/svg"><path d="M324 776.2c0 3.9 -4.5 7 -10.1 7 -6.5 .6 -11 -2.5 -11 -7 0 -3.9 4.5 -7.1 10.2 -7.1 5.8 -.5 10.9 2.6 10.9 7.1zm-60.7 -8.8c1.3 -3.9 7 -5.9 12.1 -4.5 5.9 1.7 9.6 6.2 8.4 10.1 -1.2 4 -7 5.9 -12.1 4 -5.9 -1.2 -9.8 -5.7 -8.4 -9.6zm86.3 -3.3c5.7 -.6 10.9 1.9 11.5 5.6 .6 3.9 -3.3 7.6 -9 9 -5.8 1.4 -10.9 -1.2 -11.5 -5.1 -.6 -4.5 3.3 -8.2 9 -9.5zM478.1 15.6c270.9 0 490.7 205.7 490.7 476.6C968.8 708.8 836.3 894.1 641 959c-24.8 4.5 -33.8 -11 -33.8 -23.6 0 -16.1 .6 -97.5 .6 -163.3 0 -45.9 -15.2 -75.2 -33.2 -90.7C683.8 669.1 798.8 654.1 798.8 465.6c0 -53.5 -19.1 -80.4 -50.4 -115 5.1 -12.7 21.7 -64.9 -5 -132.6 -40.9 -12.9 -134.8 52.7 -134.8 52.7C569.5 259.8 527.5 254.1 485.9 254.1s-83.6 5.7 -122.6 16.6c0 0 -94 -65.4 -134.8 -52.7 -26.7 67.5 -10.1 119.9 -5.1 132.6 -31.2 34.4 -46.1 61.3 -46.1 115 0 187.9 110.2 203.7 219.4 215.8 -14.1 12.9 -26.8 34.6 -31.3 65.9C337.5 760.2 265.8 781.8 223 706.4 196.3 660 147.7 656.1 147.7 656.1c-47.9 -.6 -3.2 30 -3.2 30 32.1 14.7 54.3 71.5 54.3 71.5 28.7 87.5 165.5 58.2 165.5 58.2 0 41 .5 107.8 .5 119.9 0 12.7 -8.7 28.2 -33.7 23.7C136.3 894.1 0 708.8 0 492.2 0 221.3 207.2 15.6 478.1 15.6zM189.8 689.3c2.6 -2.6 7.1 -1.2 10.2 1.9 3.3 3.7 3.9 8.2 1.4 10.2 -2.6 2.5 -7.1 1.1 -10.2 -2 -3.3 -3.7 -3.9 -8.2 -1.4 -10.1zm-21 -15.9c1.3 -1.9 4.4 -2.5 8.3 -1.3 4 1.9 5.9 5 4.5 7.6 -1.3 2.7 -5.2 3.3 -8.4 1.4 -3.9 -2 -5.8 -5.1 -4.4 -7.7zM232 743c2.6 -3.2 8.4 -2.6 12.7 1.9 3.9 3.7 5.1 9.6 2.6 12.1 -2.6 3.2 -8.2 2.6 -12.7 -1.9 -4.5 -3.7 -5.7 -9.6 -2.6 -12.1zm-22.2 -28.7c3.1 -2.6 8.2 -.6 10.9 3.9 3.1 4.5 3.1 9.5 0 12.1 -2.5 1.9 -7.8 0 -10.9 -4.5 -3.2 -4.5 -3.2 -9.6 0 -11.5z"/></svg>