<svg height="1000" width="1156.3" xmlns="http://www.w3.org/2000/svg"><path d="M1104.9 230.7c23 61.7 35.7 128.3 35.7 198 0 302.9 -239.4 550 -539.6 561.9V705.9c-16.4 .9 -32.4 .7 -45.7 0v284.9C255.1 978.7 15.6 731.6 15.6 428.7 15.6 359 28.3 292.4 51.4 230.9c4.5 -12.2 18.1 -18 29.8 -12.9 11.2 4.7 16.6 17.2 12.4 28.5C72.3 303.1 60.5 364.6 60.5 428.7c0 262.9 196.1 479.9 449.7 513.1V700.2c-15.5 -3.1 -30.1 -7.2 -45 -12.1v203.1C256.8 840.4 102.1 652.7 102.1 428.7c0 -179.3 99.3 -335.5 245.8 -416.6 11.3 -6.2 25.3 -1.8 31 9.8 5.3 10.7 1.4 23.6 -9.2 29.5C237.1 125 147.3 266.4 147.3 428.7c0 182.4 113.1 338.3 273 401.2V649.8C392.6 641 371.9 615.2 371.9 584.4c0 -25.6 13.1 -47.7 33.8 -59.6C389.6 369.3 318.8 410.3 318.8 360.9V332c0 -74.2 171.6 -315.8 252.1 -321.7 5.1 -.3 10 -.3 14.8 0 80.3 5.7 252 247.5 252 321.7v28.7c0 49.5 -70.7 8.6 -86.9 163.9 20.5 11.9 33.8 34 33.8 59.6 0 30.8 -20.9 56.6 -48.7 65.4v180.1c160 -63.1 273.1 -219 273.1 -401.2C1009 266 919.1 124.6 786.5 51.2 776.2 45.5 772.1 32.4 777.3 21.7c5.7 -11.5 20 -16 31.1 -9.8 146.5 81.1 245.7 237.3 245.7 416.6 0 224 -154.7 411.9 -363.1 462.5V687.9c-14.6 5.1 -29.5 9.2 -44.9 12.1v241.6c253.7 -33.2 449.6 -250.2 449.6 -513.1 0 -64 -11.7 -125.6 -33 -182.2 -4.3 -11.1 1.2 -23.8 12.3 -28.5 11.7 -5.1 25.4 .9 29.9 12.9zM714.6 538.1c-25.5 0 -46.2 20.7 -46.2 46.3 0 25.8 20.9 46.3 46.2 46.3 25.6 0 46.3 -20.7 46.3 -46.3 0 -25.8 -20.9 -46.3 -46.3 -46.3zm-273 92.4c25.8 0 46.3 -20.9 46.3 -46.3 0 -25.6 -20.7 -46.3 -46.3 -46.3 -25.8 0 -46.3 20.9 -46.3 46.3s20.5 46.3 46.3 46.3z"/></svg>