<svg height="1000" width="1250" xmlns="http://www.w3.org/2000/svg"><path d="M1248.8 846.9c3.3 8 -.6 17 -8.4 20.3L923.2 998.8c-7.8 3.3 -16.9 -.4 -20.3 -8.4 -16.6 -39.8 2.4 -85.5 42.2 -102.1l43.2 -18L911.5 668c-8.6 .9 -17.2 2.5 -25.6 2.5C785 670.5 691.8 605.9 664.5 503.9L625 356.6l-39.5 147.3C558.2 605.9 465 670.5 364.1 670.5c-8.4 0 -17 -1.6 -25.6 -2.5l-77 202.3 43.2 18c39.8 16.6 58.6 62.3 42.2 102.1 -3.3 8 -12.3 11.7 -20.3 8.4L9.6 867.2c-8 -3.3 -11.7 -12.5 -8.4 -20.5 16.6 -39.9 62.1 -58.8 101.9 -42.2l43.2 18 75.6 -199.1C128.3 555.3 95.5 427.7 154.5 325.2L323.6 31.3C339.3 4.1 372.7 -7.4 401.8 4.7L625 97.3 848.2 4.7c29.1 -11.9 62.5 -.6 78.2 26.6l169.1 293.9c59.2 102.5 26.2 230.1 -67.4 298.4l75.6 199.1 43.2 -18c39.8 -16.6 85.5 2.3 101.9 42.2zM538.9 316.6l36.9 -138.1L391.2 102l-71.3 123.8zm172.2 0l219 -90.8L858.8 102l-184.6 76.5z"/></svg>