<svg height="1000" width="1125" xmlns="http://www.w3.org/2000/svg"><path d="M1121.3 547.6c2.5 9.9 3.7 20.1 3.7 30.3v137.2c0 122.8 -100.7 222.4 -225 222.4h-72.5c-117.7 0 -215.6 -89.7 -224.4 -205.8l-5.7 -75.4h-69.8l-5.7 75.4C513.1 847.8 415.2 937.5 297.5 937.5H225C100.7 937.5 0 837.9 0 715.1V577.9c0 -8.5 1.7 -22.1 3.7 -30.3L92.3 192.7c11.5 -46.3 42.1 -86 84 -109 41.8 -23 91.7 -27.6 137 -12.4l29.8 9.9c16.4 5.5 25.3 23.2 19.8 39.6l-9.9 29.6c-5.4 16.4 -23.1 25.2 -39.5 19.8l-25.7 -8.6c-21.3 -7.1 -44.9 -7 -64.8 3.4 -20.1 10.4 -34.3 28.4 -39.8 50.4l-75.1 300.4c43.3 -13.3 97.3 -24.3 158.6 -24.3 67.9 0 144.5 13.7 224.4 52.3H634c79.8 -38.6 156.4 -52.3 224.3 -52.3 61.4 0 115.3 11.1 158.6 24.4L941.8 215.4C936.3 193.4 922.1 175.5 902 165c-19.8 -10.4 -43.5 -10.4 -64.8 -3.4l-25.7 8.6c-16.4 5.4 -34.1 -3.4 -39.5 -19.8l-9.9 -29.6c-5.5 -16.4 3.4 -34.1 19.8 -39.5l29.7 -10C857 56.1 906.9 60.8 948.7 83.7c41.8 23 72.5 62.7 84 109zM397.2 722.2l6.1 -80.5C359.1 625 313.4 616.5 266.8 616.5c-57 0 -106.4 12.6 -141.8 25.2v73.4c0 53.7 44.9 97.4 100 97.4h72.5c52.1 0 95.9 -39.6 99.7 -90.3zm602.8 -7.1v-73.3C964.6 629.1 915.2 616.5 858.3 616.5c-46.6 0 -92.4 8.5 -136.6 25.2l6.1 80.5c3.8 50.7 47.6 90.3 99.7 90.3H900c55.1 0 100 -43.7 100 -97.4z"/></svg>