<svg height="1000" width="875" xmlns="http://www.w3.org/2000/svg"><path d="M493.8 290.2c0 17.2 -3.2 34.6 -6.7 51.6 -11.3 54.3 -22.6 109 -33.8 163.3 -2.7 12.3 -16.2 9.5 -26.7 9.5 -46.5 0 -59.6 -50.7 -59.6 -88.8 0 -57.2 21.9 -133 75.2 -162.3 8.4 -4.9 18 -8.2 27.5 -8.2 22.3 0 24 16.2 24 34.9zM875 156.3v687.5c0 51.7 -42 93.7 -93.7 93.7H93.8C42 937.5 0 895.5 0 843.8V156.3C0 104.5 42 62.5 93.8 62.5h687.5c51.7 0 93.7 42 93.7 93.8zM750 521.5c0 -10 -40.6 -73.6 -49.8 -77.2 -4.3 -1.7 -14.1 -4.5 -18.8 -4.5 -45.1 0 -75.5 20.6 -113.6 42l-1 -.9c8.4 -57.5 28.5 -111.8 28.5 -170.7C595.3 223 548.8 187.7 463.5 187.7c-140.1 0 -211 138.3 -211 241.2 0 106.8 62.5 166 168.6 166 14.6 0 13.5 -1.2 13.5 4.5C414.1 756.3 324.2 761.3 324.2 714.5c0 -47.7 54.7 -71.3 55.3 -74.3 -.4 -14.8 -57.2 -33.6 -71.7 -33.6 -41.2 0 -63.9 64.5 -63.9 98.9 0 63.1 39.9 106.8 104.1 106.8 94.2 0 162.9 -97.1 184.2 -179.1 18.4 -73.6 13.7 -77 24 -82.2 39.1 -19.8 70 -32.8 114.1 -32.8 21.7 0 37.1 4.5 71.7 10.1 3.5 .2 8 -3.3 8 -6.8z"/></svg>