<svg height="1000" width="968.8" xmlns="http://www.w3.org/2000/svg"><path d="M484.4 15.6c267.5 0 484.4 216.9 484.4 484.4S751.9 984.4 484.4 984.4 0 767.5 0 500 216.9 15.6 484.4 15.6zm160.7 698.5c14.8 -14.7 26.8 -43.6 26.8 -64.5 0 -13.6 -7.8 -32.4 -17.4 -42.1l-26.8 -26.7a62.518 62.518 0 0 0 -44.2 -18.3H453.1C434.8 553.3 411.2 500 390.6 500c-20.5 0 -40.8 -4.8 -59.2 -14l-21.6 -10.8c-7.9 -4 -12.9 -12.1 -12.9 -20.9 0 -9.3 7.1 -19.2 16 -22.2l60.8 -20.2c2.7 -.9 7.1 -1.6 9.9 -1.6 6.4 0 15.6 3.4 20.5 7.6l18.1 15.8c2.9 2.4 6.5 3.8 10.3 3.8h11c11.6 0 19.1 -12.2 13.9 -22.6l-30.4 -61c-.9 -1.8 -1.6 -4.9 -1.6 -6.9 0 -3.7 2.1 -8.7 4.7 -11.2l19.4 -18.9c2.9 -2.8 6.8 -4.4 10.9 -4.4h17.5c3.6 0 8.5 -2.1 11.1 -4.6l15.6 -15.6c6.1 -6.1 6.1 -16 0 -22.1l-9.2 -9.2c-6.1 -6.1 -6.1 -16 0 -22.1l20.2 -20.1 9.2 -9.2c12.2 -12.2 12.2 -32 0 -44.2l-55.3 -55.3c-16.1 .6 -32 2.2 -47.6 4.8v22c0 23.3 -24.5 38.4 -45.3 28l-46.9 -23.5c-89.5 38.8 -161.5 110.2 -201.5 199 19.4 28.8 49.2 73 67.5 99.9 8.4 12.4 24.2 30.5 35.3 40.5l1.6 1.4c18.6 16.8 39.4 31.2 61.8 42.5 27.3 13.8 67.3 35.5 95.3 51 19.9 11 32.2 31.9 32.2 54.6v62.6c0 16.5 6.6 32.4 18.3 44.2 29.3 29.2 47.5 75.4 44.2 100v53.5c28.6 0 56.4 -3.3 83.3 -9.1L601.6 790c4 -10.8 6.4 -21.9 9.4 -33 2 -7.8 6.2 -15 12 -20.9 6.5 -6.5 14.5 -14.5 22.1 -22zM814.5 535.6l56.9 14.3c2.2 -16.4 3.6 -33 3.6 -49.9 0 -62.8 -15.2 -121.9 -41.6 -174.5L808 338.2c-7.3 3.6 -13.5 9.1 -18 15.9l-38.3 57.4c-4.4 6.5 -7.9 18.2 -7.9 26s3.5 19.5 7.9 26l35.1 52.7c6.5 9.7 16.3 16.6 27.7 19.4z"/></svg>