<svg height="1000" width="968.8" xmlns="http://www.w3.org/2000/svg"><path d="M657.2 312.5H311.5C339.8 138.1 406.6 15.6 484.4 15.6s144.5 122.5 172.8 296.9zM296.9 500c0 -43.4 2.3 -85 6.4 -125h361.9c4.1 40 6.5 81.6 6.5 125s-2.4 85 -6.5 125H303.3c-4.1 -40 -6.4 -81.6 -6.4 -125zM931.1 312.5h-211C702.9 201.4 670.1 102 622.5 35.9c139.6 41.4 252.7 144 308.6 276.6zM346.1 35.9C298.4 102 265.6 201.4 248.6 312.5H37.7C93.4 179.9 206.6 77.3 346.1 35.9zM952 375c10.5 40 16.6 81.6 16.6 125s-6.1 85 -16.8 125H727.9c4.1 -41 6.5 -83 6.5 -125S732 416 727.9 375H952zM234.4 500c0 42 2.3 84 6.2 125H16.8C6.2 585 0 543.4 0 500S6.2 415 16.8 375h224c-4.1 41 -6.4 83 -6.4 125zm77.1 187.5h345.7C628.9 861.9 562.1 984.4 484.4 984.4S339.8 861.9 311.5 687.5zm311.2 276.6C670.3 898 703.1 798.6 720.3 687.5h211C875.4 820.1 762.1 922.7 622.7 964.1zM37.7 687.5h210.9c17.2 111.1 50 210.5 97.7 276.6C206.6 922.7 93.6 820.1 37.7 687.5z"/></svg>