<svg height="1000" width="968.8" xmlns="http://www.w3.org/2000/svg"><path d="M484.4 15.6C752 15.6 968.8 232.4 968.8 500S752 984.4 484.4 984.4 0 767.6 0 500 216.8 15.6 484.4 15.6zM875 500C875 284.6 699.8 109.4 484 109.4c-3.7 0 -7.4 .4 -11.1 .6l-56.5 42.3c-3.9 3 -6.2 7.7 -6.2 12.5v39.1c0 8.6 7 15.6 15.6 15.6H457c8.6 0 15.7 -7 15.7 -15.6v-15.6L503.9 157h40.4c12.1 0 22.1 10 22.1 22.1 0 5.9 -2.3 11.5 -6.4 15.6l-52.4 52.4c-2.3 2.3 -5.3 4.1 -8.6 5.2l-78.1 26c-6.4 2.2 -10.7 8.2 -10.7 14.9 0 12.9 -5.1 25.2 -14.1 34.1l-39.3 39.3c-5.8 5.9 -9.1 13.9 -9.1 22.1v49.4c0 17.2 14 31.2 31.2 31.2h43.2c11.9 0 22.6 -6.6 27.9 -17.2l18.4 -36.5c2.7 -5.2 8.2 -8.6 14 -8.6h6.1c8.6 0 15.6 7.1 15.6 15.7 0 8.5 7 15.6 15.6 15.6H551c8.6 0 15.6 -7.1 15.6 -15.6v-4.3c0 -6.9 4.3 -12.7 10.7 -14.9L639.1 383a31.333 31.333 0 0 0 21.3 -29.7v-8.8c0 -17.2 14 -31.2 31.2 -31.2h71.7c12.1 0 22.1 9.9 22.1 22.1v18.3c0 12.1 -10 22.1 -22.1 22.1h-62.5c-5.9 0 -11.5 2.3 -15.6 6.4l-18.4 18.4c-4.1 4.1 -6.4 9.8 -6.4 15.6 0 12.1 9.9 22.1 22 22.1h31.3c5.8 0 11.5 2.3 15.6 6.4l18.4 18.4c4.1 4.1 6.4 9.8 6.4 15.6v17l-24.4 24.4c-9 9 -9 23.7 -.2 32.6l62.5 63.7c5.9 6.1 13.9 9.4 22.3 9.4h39.6C867.4 586.3 875 543.9 875 500zM254.1 291.2c0 12.1 10 22.1 22.1 22.1h31.2c5.9 0 11.5 -2.4 15.6 -6.5l18.4 -18.3c4.1 -4.1 6.5 -9.8 6.5 -15.6v-31.3c0 -12.1 -10 -22.1 -22.1 -22.1 -5.9 0 -11.5 2.4 -15.6 6.5l-49.7 49.6c-4.1 4.1 -6.4 9.8 -6.4 15.6zm250 598.4c138.9 -7 258.8 -86.3 322.1 -201.3H800c-9.4 0 -18.6 -3.7 -25.2 -10.4L741 644.1c-11.7 -11.7 -27.5 -18.3 -44.1 -18.3h-35.8l-84.3 -72.5A89.33 89.33 0 0 0 518.9 532H458c-16 0 -31.8 4.5 -45.7 12.7l-83.8 50.2c-26.7 16 -43.1 44.9 -43.1 76.2v46.7c0 27.9 13 54.3 35.5 71.1l43.4 32.6c17 12.7 48 23 69.1 23h39.5c17.1 0 31.2 14.1 31.2 31.3v13.8z"/></svg>