<svg height="1000" width="968.8" xmlns="http://www.w3.org/2000/svg"><path d="M484.4 15.6c267.5 0 484.4 216.9 484.4 484.4S751.9 984.4 484.4 984.4 0 767.5 0 500 216.9 15.6 484.4 15.6zm312.5 420.9c0 -16.7 13.5 -30.2 30.2 -30.2h36C825.9 255.9 701.6 139.9 546.9 114.8v42.4c0 16.7 -13.6 30.3 -30.3 30.3h-47.3c-10.1 0 -19.5 5 -25.1 13.5l-15.8 23.6c-4.2 6.3 -10.6 10.8 -17.9 12.6l-28.2 7a30.274 30.274 0 0 0 -22.9 29.4v8.6c0 16.7 13.5 30.3 30.2 30.3h175.9c7 0 16.5 4 21.4 8.8l13.5 13.6c5.7 5.6 13.4 8.8 21.5 8.8h19.7c16.7 0 30.2 13.6 30.2 30.3 0 13 -8.3 24.6 -20.7 28.7l-92.4 30.8c-7.6 2.6 -15.9 2 -23.1 -1.6l-28.7 -14.4c-14.8 -7.4 -31.2 -11.3 -47.7 -11.3h-1.8c-19.6 0 -48.3 9.6 -64 21.4L339.5 468c-26.8 20.1 -42.6 51.8 -42.6 85.3v27.5c0 24.4 14 58.2 31.2 75.4 20 20.1 47.2 31.3 75.5 31.3h50.5c16.7 0 30.3 13.6 30.3 30.3v58.4c0 20 7.3 50.9 16.2 68.9 9.2 18.3 28 29.9 48.5 29.9 16 0 36.2 -10.8 45.1 -24.1l25.5 -38.2c11.5 -17.3 33.4 -42.9 48.8 -56.9 4.8 -4.5 8.1 -10.3 9.3 -16.8l8.4 -44.5c.8 -4.6 2.7 -8.9 5.5 -12.6l36.6 -48.8c3.9 -5.2 6.1 -11.6 6.1 -18.2v-22.1c0 -16.7 -13.6 -30.3 -30.3 -30.3h-16c-10.2 0 -19.6 -5 -25.2 -13.5L637 510.3c-11 -16.7 -3.3 -39.2 15.6 -45.6l5.2 -1.7c2.6 -.8 6.9 -1.5 9.6 -1.5 5 0 12.6 2.3 16.8 5.1l35.5 23.7c4.3 2.8 11.8 5.1 16.8 5.1 4 0 10.1 -1.5 13.6 -3.2l30 -15.1c10.3 -5.1 16.8 -15.6 16.8 -27v-13.6z"/></svg>