<svg height="1000" width="781.3" xmlns="http://www.w3.org/2000/svg"><path d="M632.8 624.6c106.1 0 128.3 97.9 132.2 151.8C674.2 886.3 554.5 937.5 431.1 937.5 189.5 937.5 0 739.3 0 500 0 259 191.4 62.5 431.1 62.5c115.2 0 223.2 45.5 304.8 128.1L614.3 314.3c-48.9 -49.7 -113.9 -77 -182.9 -77 -142.9 0 -258.5 117.8 -258.5 262.5 0 144.9 115.6 262.5 258.5 262.5 65.7 0 127.8 -24.8 175.6 -69.9v-67.8h25.8zM609.2 404.9c93.1 0 172 68.3 172 195.7v59.8C751 608.2 698.2 578.7 632.8 578.7H401.6V404.9h207.6z"/></svg>