<svg height="1000" width="812.5" xmlns="http://www.w3.org/2000/svg"><path d="M187.5 812.5H625c0 34.6 -27.9 62.5 -62.5 62.5h-31.2c-34.6 0 -62.5 27.9 -62.5 62.5v39.1c0 12.9 -10.6 23.4 -23.5 23.4h-78.1c-12.9 0 -23.4 -10.5 -23.4 -23.4v-39.1c0 -34.6 -28 -62.5 -62.5 -62.5H250c-34.6 0 -62.5 -27.9 -62.5 -62.5zm625 -406.2c0 144.9 -76.2 271.8 -190.4 343.7H190.4C76.2 678.1 0 551.2 0 406.3 0 181.8 181.8 0 406.3 0s406.2 181.8 406.2 406.3zM460.7 492c35.8 0 64.7 -28.9 64.7 -64.7 0 -28.1 -18.2 -51.3 -43.2 -60.3 18.8 52.3 -30.4 100.2 -81.8 81.8 9 25 32.2 43.2 60.3 43.2zm95.9 91.6c0 -28.1 -18.1 -51.4 -43.1 -60.4 18.7 52.4 -30.5 100.2 -81.9 81.9 9 25 32.3 43.1 60.4 43.1 35.7 0 64.6 -29.1 64.6 -64.6zm125 -125c0 -28.1 -18.1 -51.4 -43.1 -60.4 18.7 52.4 -30.5 100.2 -81.9 81.9 9 25 32.3 43.1 60.4 43.1 35.7 0 64.6 -29.1 64.6 -64.6z"/></svg>