<svg height="1000" width="750" xmlns="http://www.w3.org/2000/svg"><path d="M83.2 787.7h5.5c24.8 0 49.8 0 74.6 .2 3.1 0 6 -.8 7 4.1 13.9 68.2 58.6 106.6 122.9 124.8 52.5 14.8 105.6 15.2 158.8 3.5 66 -14.4 109.3 -55.3 132.8 -118 15.6 -41.9 20.9 -85.5 21.5 -129.8 .1 -11.4 .5 -91.8 -.4 -103.2l-1.8 -.5c-1.6 2.9 -3.3 5.6 -4.9 8.5C556.1 661.5 479.5 709 393.4 712.3 192.2 720.1 62.5 601 57.4 368.2c-1 -46.3 3.5 -91.6 16.2 -136.2C113.9 93.2 219.3 1.2 374.2 0c119.7 -.8 198.3 75.6 227 137.3 .9 2.2 2.5 4.5 4.7 3.7V20.7h86.5c0 547.5 .2 648.8 .2 648.8 -.2 153.4 -52.2 280.7 -201.2 316.8 -135.7 33 -310.5 9.4 -382.8 -111.7C93 848.2 85.5 819.3 83.2 787.7zM368.9 71.3C266.4 70.3 157 150.8 144.3 332.6c-8 115.3 28.9 238.7 139.7 290.3 53.9 25.1 145.1 29.3 211.5 -17C588.5 541 618 416.4 602.5 305.1 583.6 166.2 509.2 70.7 368.9 71.3z"/></svg>