<svg height="1000" width="875" xmlns="http://www.w3.org/2000/svg"><path d="M585.7 373.4c10 72.9 -9.1 154.3 -70.1 196.7 -43.5 30.3 -103.1 27.6 -138.3 11.1C304.9 547.5 280.7 466.8 285.9 391.4 294.3 272.5 365.8 219.7 433 220.5c91.6 -.4 140.2 62.1 152.7 152.9zM875 171.9v656.2c0 60.4 -49 109.4 -109.4 109.4H109.4C49 937.5 0 888.5 0 828.1V171.9C0 111.5 49 62.5 109.4 62.5h656.2c60.4 0 109.4 49 109.4 109.4zM644.5 611.7s-.2 -66.4 -.2 -424.4h-56.6V266c-1.6 .6 -2.3 -1 -3.1 -2.3C565.8 223.2 514.5 173.2 436.1 173.8c-101.3 .8 -170.3 61 -196.5 152 -8.3 29.1 -11.3 58.8 -10.7 89 3.3 152.2 88.1 230.1 219.5 225 56.5 -2.1 106.5 -33.2 134.8 -88.2 1 -2 2.2 -3.7 3.3 -5.7 .4 .2 .8 .2 1.2 .4 .6 7.4 .4 59.9 .2 67.4 -.4 28.9 -3.9 57.6 -14.1 84.9 -15.2 41 -43.5 67.8 -86.9 77.2 -34.8 7.6 -69.5 7.4 -103.9 -2.4 -42 -11.9 -71.3 -37.1 -80.3 -81.6 -.6 -3.1 -2.5 -2.5 -4.5 -2.5h-52.3c1.6 20.7 6.2 39.6 16.6 57 47.3 79.1 161.5 94.7 250.4 73 97.4 -24 131.4 -107.2 131.6 -207.6z"/></svg>