<svg height="1000" width="875" xmlns="http://www.w3.org/2000/svg"><path d="M781.3 62.5c51.7 0 93.7 42 93.7 93.8v687.5c0 51.7 -42 93.7 -93.7 93.7H93.8C42 937.5 0 895.5 0 843.8V156.3C0 104.5 42 62.5 93.8 62.5h687.5zm-461 632.8c112.7 0 187.5 -79.1 187.5 -190.6 0 -12.7 -1.2 -22.7 -3.1 -32.4H320.3v67.2h111.1c-4.6 28.5 -33.5 84.1 -110.9 84.1 -66.6 0 -120.9 -55.2 -120.9 -123.4 0 -68.4 54.3 -123.4 120.9 -123.4 38.1 0 63.3 16.2 77.7 30l53 -50.9C417 323.8 373 304.7 320.3 304.7 212.3 304.7 125 392 125 500s87.3 195.3 195.3 195.3zM750 535.5v-57h-56.6v-56.6h-57.1v56.6h-56.6v57h56.6v56.7h57.1v-56.7H750z"/></svg>