<svg height="1000" width="968.8" xmlns="http://www.w3.org/2000/svg"><path d="M484.4 15.6c267.4 0 484.4 217 484.4 484.4s-217 484.4 -484.4 484.4S0 767.4 0 500 217 15.6 484.4 15.6zM346.3 742.2c139.2 0 232 -98.5 232 -236.7 0 -13.9 -1.2 -27.2 -3.7 -40.5H346.3v83.2h136.9C473 615 410 652.3 346.3 652.3c-84 0 -150.8 -69.3 -150.8 -152.5s67 -152.5 150.8 -152.5c35.3 0 70.7 12.1 96.5 37.3l65.6 -63.7c-44.7 -41.6 -101 -63.1 -162.1 -63.1C211.9 257.8 104.1 366.2 104.1 500s107.8 242.2 242.2 242.2zM795.9 534.8h68.7v-69.4h-68.7v-69.3h-69.3v69.3h-69.4v69.4h69.4v69.3h69.3v-69.3z"/></svg>