<svg height="1000" width="875" xmlns="http://www.w3.org/2000/svg"><path d="M306.3 247.7C379.7 366 431.6 468.6 470.9 565c-16.2 66.1 -36.7 129.9 -61.1 192C384 654.9 358 559.2 300.4 467c12.7 -71.1 4.5 -143.8 5.9 -219.3zm-92.8 142.9c9.7 0 19.5 4.9 25.4 12.7 85.5 116.8 129.5 241.8 161.1 378H197.9C158.8 645.5 101.2 521.5 18.7 415.4c-7.8 -10.1 0 -24.8 12.7 -24.8h182.1zm93.3 -171.8h212.3C665.2 419.9 775.4 668 798.8 937.5h-222C560.7 676.8 440.6 429.7 306.8 218.8zM798.6 85c37.1 131.8 60.8 271.4 60.8 415.2 0 135.7 -18.6 278.3 -49.4 396.5C788.7 716 727.1 536.1 633 367.8 624.8 269.1 607 173.4 581.2 82.6c-2.3 -10.3 4.9 -20.1 15.3 -20.1h172.4c13.7 0 26.2 9.2 29.7 22.5z"/></svg>