<svg height="1000" width="1000" xmlns="http://www.w3.org/2000/svg"><path d="M968.8 687.5c17.1 0 31.2 14.1 31.2 31.3v250c0 17.1 -14.1 31.2 -31.2 31.2H812.5V687.5H750v-250h-62.5V250H625v187.5h62.5v250H750V1000H593.8V843.8c0 -17.2 -14.1 -31.3 -31.3 -31.3h-125c-17.2 0 -31.2 14.1 -31.2 31.3V1000H250V687.5h62.5v-250H375V250h-62.5v187.5H250v250h-62.5V1000H31.3C14.1 1000 0 985.9 0 968.8v-250c0 -17.2 14.1 -31.3 31.3 -31.3h31.2V468.8c0 -17.2 14.1 -31.3 31.3 -31.3H125V281.3c0 -17.2 14.1 -31.3 31.3 -31.3h31.2V31.3C187.5 14.1 201.6 0 218.8 0S250 14.1 250 31.3v31.2h125V31.3C375 14.1 389.1 0 406.3 0s31.2 14.1 31.2 31.3v31.2h125V31.3C562.5 14.1 576.6 0 593.8 0S625 14.1 625 31.3v31.2h125V31.3C750 14.1 764.1 0 781.3 0s31.2 14.1 31.2 31.3V250h31.3c17.1 0 31.2 14.1 31.2 31.3v156.2h31.3c17.1 0 31.2 14.1 31.2 31.3v218.7h31.3zM453.1 343.8v93.7h93.8v-93.7c0 -17.2 -14.1 -31.3 -31.3 -31.3h-31.2c-17.2 0 -31.3 14.1 -31.3 31.3zm109.4 343.7v-125c0 -17.2 -14.1 -31.2 -31.2 -31.2h-62.5c-17.2 0 -31.3 14 -31.3 31.2v125h125z"/></svg>