<svg height="1000" width="1250" xmlns="http://www.w3.org/2000/svg"><path d="M1215.5 299.2c46 14.2 46 74.9 0 89.1L670.7 555.7c-39.8 12.2 -73.7 5.4 -91.4 0l-382 -117.4c-23.9 16.4 -38.9 42.4 -40.4 71.7 18 11 30.6 29.9 30.6 52.5 0 21.1 -11.1 38.8 -27.1 50.1L210.3 837c4.3 19.5 -10.5 38 -30.5 38H70.2c-20 0 -34.8 -18.5 -30.5 -38L89.6 612.6c-16 -11.3 -27.1 -29 -27.1 -50.1 0 -23.2 13.2 -42.7 32.1 -53.5 1.2 -34.4 14 -65.8 34.9 -91.6l-95 -29.1c-46 -14.2 -46 -75 0 -89.1L579.3 131.8c29.7 -9.1 61.7 -9.1 91.4 0zM689 615.4l283.3 -87L1000 750c0 69 -167.9 125 -375 125S250 819 250 750l27.7 -221.6 283.2 87c24.9 7.7 72.4 17.1 128.1 0z"/></svg>