<svg height="1000" width="1000" xmlns="http://www.w3.org/2000/svg"><path d="M588.1 414.1c8.6 8.6 8.6 23.2 0 31.8l-19 18.9c-8.6 9.2 -23.2 9.2 -32.4 0l-20.5 -20.5c-8.6 -9.1 -8.6 -23.2 0 -32.4l19 -18.9c8.6 -8.6 23.2 -8.6 32.4 0zm-59 -38.5c-5.3 5.5 -14.5 5.5 -20.5 0 -5.5 -5.9 -5.5 -15.1 0 -20.5 5.9 -5.9 15 -5.9 20.5 0 5.9 5.3 5.9 14.6 0 20.5zm-50.8 10.3c5.5 -5.8 14.7 -5.8 20.5 0 5.5 5.3 5.5 14.5 0 20 -5.8 5.8 -15 5.8 -20.5 0 -5.8 -5.3 -5.8 -14.5 0 -20zM619.9 360c-38.8 -28.2 -66 -84.4 -23.2 -133 42.2 -48.7 79.5 -33.6 116.8 1.5 23.2 22.1 57.2 48.6 33.6 94.2C722.7 368.6 659 387.5 619.9 360zm93.2 -87c-17.4 -19.5 -45.5 13.5 -30.3 31.5 14.5 17.6 62.7 4.7 30.3 -31.5zm271.3 227c0 267.6 -216.8 484.4 -484.4 484.4S15.6 767.6 15.6 500 232.4 15.6 500 15.6 984.4 232.4 984.4 500zm-129.3 83.2C860 551.8 815.6 550.8 805.9 533 779.3 485.9 751.8 461.1 699.4 473.6c22.7 -15.6 45.9 -11.9 45.9 -11.9 .6 -12.5 0 -25.4 -18.3 -48.6 7.6 -24.4 .5 -43.8 .5 -43.8 30.3 -16.8 52.4 -47.6 56.9 -84.3 7 -60.6 -36.7 -115.7 -97.3 -122.7 -43.2 -4.9 -85.3 15 -106 50.2 -45.4 78.3 2.7 138.5 43.7 159 -28.1 -2.7 -67 -23.3 -78.3 -67 -12.9 -50.2 5.5 -97.3 17.4 -119.9 0 0 -8.6 -11.4 -15.7 -17.4 0 0 -26.9 0 -48 10.3 23.2 -29.6 49.2 -28.1 49.2 -28.1 0 -12.5 -1.2 -29.1 -7 -42.2C531.8 85.7 495.9 82 480.5 112.7c.2 -.4 .6 -.8 .8 -1 -9.8 23.3 -2.2 109.2 33 170.3 -4.9 2.8 -17.8 11.9 -25.4 19.6C446.7 320.5 379.1 419.3 379.1 419.3 324 440.4 228.3 518.7 241.2 575c.6 5.9 2.7 10.7 5.9 14.6 -5.5 4.3 -10.8 9.8 -16.2 16.3 -23.3 26.9 -10.4 68.7 34.5 47.6 30.9 -14 57.8 -39.4 70.9 -59.4 0 0 -10.7 -9.7 -31.8 -8.6 54.1 -12.8 67 -18.3 90.2 -17.7 15.7 7.6 15.7 -67 15.7 -67 0 -28.7 -4.3 -60.6 -21.7 -81.1 24.4 23.9 56.8 63.9 54.7 118.4 -1.6 35.7 -29.7 44.9 -29.7 44.9 -17.8 32.4 -84.4 128.7 -59.4 207 0 0 -18.9 -29.1 -19.9 -43.1 -34 37.9 -90.8 102.1 -48.1 126 52 28.7 212.5 -173.1 246.5 -278C600.4 554.3 641 502.5 657.6 468c43 84.9 186.1 184.5 197.5 115.2z"/></svg>