<svg height="1000" width="968.8" xmlns="http://www.w3.org/2000/svg"><path d="M484.4 15.6C752 15.6 968.8 232.4 968.8 500S752 984.4 484.4 984.4 0 767.6 0 500 216.8 15.6 484.4 15.6zM281.3 781.3v-78.2h-78.2v15.7c0 34.5 28 62.5 62.5 62.5h15.7zm0 -109.4v-78.1h-15.7c-34.5 0 -62.5 27.9 -62.5 62.5v15.6h78.2zM265.6 406.3c0 34.5 28 62.5 62.5 62.5s62.5 -28 62.5 -62.5 -27.9 -62.5 -62.5 -62.5 -62.5 27.9 -62.5 62.5zm140.7 375v-78.2h-93.8v78.2h93.8zm0 -109.4v-78.1h-93.8v78.1h93.8zm125 109.4v-78.2h-93.8v78.2h93.8zm0 -109.4v-78.1h-93.8v78.1h93.8zm125 109.4v-78.2h-93.8v78.2h93.8zm0 -109.4v-78.1h-93.8v78.1h93.8zM640.6 468.8c34.6 0 62.5 -28 62.5 -62.5s-27.9 -62.5 -62.5 -62.5 -62.5 27.9 -62.5 62.5 28 62.5 62.5 62.5zm125 250v-15.7h-78.1v78.2h15.6c34.6 0 62.5 -28 62.5 -62.5zm0 -46.9v-15.6c0 -34.6 -27.9 -62.5 -62.5 -62.5h-15.6v78.1h78.1z"/></svg>