<svg height="1000" width="984.4" xmlns="http://www.w3.org/2000/svg"><path d="M890.6 250c-51.7 0 -93.7 -41 -93.7 -91.8 0 -39.1 55.6 -118 81.2 -151.9 6.3 -8.4 18.8 -8.4 25 0 25.6 33.9 81.3 112.8 81.3 151.9 0 50.8 -42 91.8 -93.8 91.8zm0 62.5c13.3 0 25.8 -2.1 38.1 -5.1 25.6 59 40.1 124 40.1 192.6 0 267.6 -216.8 484.4 -484.4 484.4S0 767.6 0 500 216.8 15.6 484.4 15.6c98.2 0 189.4 29.5 265.8 79.7 -15.2 35.2 -15.8 54.3 -15.8 62.9 0 85.2 70.1 154.3 156.2 154.3zm-250 -15.6c-46.5 0 -102.9 57.2 -109 139.4 -1.3 16.6 21.1 23.3 29.1 8.8l18.6 -33.2c15 -26.7 37.5 -42.2 61.5 -42.2s46.5 15.5 61.5 42.2l18.6 33.2c8 14.7 30.5 8 29.1 -8.8C743.6 354.1 687.1 296.9 640.6 296.9zm-312.5 0c-46.5 0 -102.9 57.2 -109 139.4 -1.3 16.6 20.9 23.3 29.1 8.8l18.6 -33.2c15 -26.7 37.5 -42.2 61.5 -42.2s46.5 15.5 61.5 42.2l18.6 33.2c8 14.7 30.5 8 29.1 -8.8C431.1 354.1 374.6 296.9 328.1 296.9zm156.3 546.9c118.3 0 262.7 -74.9 280.8 -182.3 3.7 -22.8 -17.9 -42.2 -40.4 -34.9 -59 18.9 -146.7 29.7 -240.4 29.7S302.9 645.5 243.9 626.6c-22.2 -7.3 -44.3 11.9 -40.4 34.9C221.7 768.9 366 843.8 484.4 843.8z"/></svg>