<svg height="1000" width="968.8" xmlns="http://www.w3.org/2000/svg"><path d="M484.4 15.6C752 15.6 968.8 232.4 968.8 500S752 984.4 484.4 984.4 0 767.6 0 500 216.8 15.6 484.4 15.6zM184.8 329.9c-12.1 1.9 -17.4 16.8 -8.4 26l49.6 48 -11.7 68.2c-2 12.1 10.3 21.5 21.4 15.4l61.2 -31.8 60.9 31.6c11.1 6.1 23.5 -3.3 21.5 -15.4l-11.7 -68.2 49.6 -48c9 -9 3.7 -23.9 -8.4 -25.8l-68.2 -9.8 -30.2 -61.7c-5.7 -11.3 -21.5 -11.3 -27.2 0l-30.3 61.7zm299.6 513.9c118.3 0 262.7 -74.9 280.8 -182.3 3.7 -23 -17.9 -42.2 -40.4 -34.9 -59 18.9 -146.7 29.7 -240.4 29.7S302.9 645.5 243.9 626.6c-22.2 -7.1 -44.3 11.9 -40.4 34.9C221.7 768.9 366 843.8 484.4 843.8zm308 -488.1c9 -9 3.7 -23.9 -8.6 -25.6l-68.2 -9.8 -30.2 -61.7c-5.7 -11.3 -21.5 -11.3 -27.2 0l-30.3 61.7 -68.1 9.8c-12.1 1.9 -17.2 16.8 -8.4 25.8l49.6 48 -11.7 68.2c-2 12.1 10.3 21.5 21.4 15.4l61.2 -31.8 61.1 31.6c11.1 6.1 23.4 -3.3 21.5 -15.4l-11.7 -68.2z"/></svg>