<svg height="1000" width="968.8" xmlns="http://www.w3.org/2000/svg"><path d="M484.4 15.6C752 15.6 968.8 232.4 968.8 500S752 984.4 484.4 984.4 0 767.6 0 500 216.8 15.6 484.4 15.6zM608.8 267c-24.2 35.9 -29.7 72.1 -30.7 108 1.2 35.9 6.5 72.1 30.7 108 15.6 22.9 49 22.3 63.9 0 24.2 -35.9 29.6 -72.1 30.6 -108 -1.2 -35.9 -6.4 -72.1 -30.6 -108 -15.7 -22.9 -49.1 -22.3 -63.9 0zm-312.5 0c-24.2 35.9 -29.7 72.1 -30.7 108 1.2 35.9 6.5 72.1 30.7 108 15.6 22.9 49 22.3 63.9 0 24.2 -35.9 29.6 -72.1 30.6 -108 -1.2 -35.9 -6.4 -72.1 -30.6 -108 -15.7 -22.9 -49.1 -22.3 -63.9 0zm188.1 576.8c118.3 0 262.7 -74.9 280.8 -182.3 3.7 -23 -18.1 -42.2 -40.4 -34.9 -59 18.9 -146.7 29.7 -240.4 29.7S302.9 645.5 243.9 626.6c-22.2 -7.3 -44.3 11.9 -40.4 34.9C221.7 768.9 366 843.8 484.4 843.8z"/></svg>