<svg height="1000" width="968.8" xmlns="http://www.w3.org/2000/svg"><path d="M0 500C0 232.4 216.8 15.6 484.4 15.6S968.8 232.4 968.8 500 752 984.4 484.4 984.4 0 767.6 0 500zm390.6 -93.7c0 -34.6 -27.9 -62.5 -62.5 -62.5s-62.5 27.9 -62.5 62.5 28 62.5 62.5 62.5 62.5 -28 62.5 -62.5zm328.2 48.8c16.6 14.4 42.1 .4 39 -21.1C750 384.8 691 351.8 640.8 351.8s-109.2 33 -117 82.2c-3.5 21.9 22.5 35.5 38.7 21.1l18.6 -16.6c28.9 -25.8 90.2 -25.8 119.1 0zM243.9 626.6c-22.2 -7.3 -44.3 11.7 -40.4 34.9C221.7 768.9 366 843.8 484.4 843.8S747.3 768.9 765.2 661.5c3.7 -23.2 -18.3 -42.2 -40.4 -34.9 -59 18.9 -146.7 29.7 -240.4 29.7S302.9 645.5 243.9 626.6z"/></svg>