<svg height="1000" width="968.8" xmlns="http://www.w3.org/2000/svg"><path d="M484.4 15.6C752 15.6 968.8 232.4 968.8 500S752 984.4 484.4 984.4 0 767.6 0 500 216.8 15.6 484.4 15.6zm156.2 281.3c-46.5 0 -102.9 57.2 -109 139.4 -1.3 16.6 21.1 23.1 29.1 8.8l18.6 -33.2c15 -26.7 37.5 -42.2 61.5 -42.2s46.5 15.5 61.5 42.2l18.6 33.2c8 14.5 30.5 8 29.1 -8.8C743.6 354.1 687.1 296.9 640.6 296.9zm-312.5 0c-46.5 0 -102.9 57.2 -109 139.4 -1.3 16.6 20.9 23.3 29.1 8.8l18.6 -33.2c15 -26.7 37.5 -42.2 61.5 -42.2s46.5 15.5 61.5 42.2l18.6 33.2c8 14.5 30.5 8 29.1 -8.8C431.1 354.1 374.6 296.9 328.1 296.9zm156.3 546.9c118.3 0 262.7 -74.9 280.8 -182.3 3.7 -23 -18.1 -42.2 -40.4 -34.9 -59 18.9 -146.7 29.7 -240.4 29.7S302.9 645.5 243.9 626.6c-22 -7.3 -44.3 11.7 -40.4 34.9C221.7 768.9 366 843.8 484.4 843.8z"/></svg>