<svg height="1000" width="968.8" xmlns="http://www.w3.org/2000/svg"><path d="M671.9 359.4c26 0 46.9 20.9 46.9 46.9s-20.9 46.8 -46.9 46.8S625 432.2 625 406.3s20.9 -46.9 46.9 -46.9zM484.4 15.6C752 15.6 968.8 232.4 968.8 500c0 207.6 -130.9 384.2 -314.5 453.1 10.9 -23.8 17.6 -50.2 17.6 -78.1v-88.9c48.2 -31.6 84.9 -74.4 93.3 -124.6 3.7 -23 -17.9 -42.2 -40.4 -34.9 -59 18.9 -146.7 29.7 -240.4 29.7S302.9 645.5 243.9 626.6c-22.2 -7.1 -44.3 11.9 -40.4 34.9 8.4 50.2 45.1 93 93.4 124.6V875c0 27.9 6.6 54.3 17.6 78.1C130.9 884.2 0 707.6 0 500 0 232.4 216.8 15.6 484.4 15.6zM375 455.1c16.4 14.4 42.2 .6 39.1 -21.1 -7.8 -49.2 -66.8 -82.2 -117 -82.2s-109.2 33 -117 82.2c-3.5 21.7 22 35.5 38.7 21.1l18.5 -16.6c28.9 -25.8 90.2 -25.8 119.1 0zm296.9 76.2c68.9 0 125 -56.1 125 -125s-56.1 -125 -125 -125 -125 56 -125 125 56 125 125 125zm-99.4 200.3c1.5 .8 -1 -.5 37.1 18.2v125c0 69.5 -57.1 126 -126.8 125C414.3 999 359.6 941.8 359.6 873V750c37.5 -18.7 35.1 -17.6 36.9 -18.4 28.1 -12.7 60.7 4.3 67.6 34.4l3.5 15.2c4.1 18 29.7 18 33.8 0l3.5 -15.2c6.8 -30.1 39.4 -47.1 67.6 -34.4z"/></svg>