<svg height="1000" width="968.8" xmlns="http://www.w3.org/2000/svg"><path d="M484.4 15.6C752 15.6 968.8 232.4 968.8 500S752 984.4 484.4 984.4 0 767.6 0 500 216.8 15.6 484.4 15.6zm156.2 328.2c-34.5 0 -62.5 27.9 -62.5 62.5s28 62.5 62.5 62.5 62.5 -28 62.5 -62.5 -27.9 -62.5 -62.5 -62.5zm-312.5 0c-34.5 0 -62.5 27.9 -62.5 62.5s28 62.5 62.5 62.5 62.5 -28 62.5 -62.5 -27.9 -62.5 -62.5 -62.5zm156.3 500c118.3 0 262.7 -74.9 280.8 -182.3 3.7 -23 -18.3 -42.2 -40.4 -34.9 -59 18.9 -146.7 29.7 -240.4 29.7S302.9 645.5 243.9 626.6c-22.2 -7.3 -44.3 11.9 -40.4 34.9C221.7 768.9 366 843.8 484.4 843.8z"/></svg>