<svg height="1000" width="968.8" xmlns="http://www.w3.org/2000/svg"><path d="M484.4 15.6C752 15.6 968.8 232.4 968.8 500S752 984.4 484.4 984.4 0 767.6 0 500 216.8 15.6 484.4 15.6zm66 370.5c-15 9.2 -15 31.1 0 40.3l156.2 93.7c22.5 13.3 47.1 -14.8 30.1 -35.1l-65.6 -78.8 65.6 -78.7c16.8 -20.1 -7.4 -48.6 -30.1 -35.1zM232 327.5l65.7 78.7L232 485c-16.8 20.3 7.6 48.4 30.1 35.1l156.3 -93.7c15.2 -9.2 15.2 -31.1 0 -40.3L262.1 292.4c-22.6 -13.5 -46.9 15 -30.1 35.1zm252.4 516.3c118.3 0 262.7 -74.9 280.8 -182.3 3.7 -22.8 -17.9 -42.2 -40.4 -34.9 -59 18.9 -146.7 29.7 -240.4 29.7S302.9 645.5 243.9 626.6c-22 -7.3 -44.3 11.7 -40.4 34.9C221.7 768.9 366 843.8 484.4 843.8z"/></svg>