<svg height="1000" width="968.8" xmlns="http://www.w3.org/2000/svg"><path d="M484.4 15.6C752 15.6 968.8 232.4 968.8 500c0 207.6 -130.9 384.2 -314.5 453.1 10.9 -23.8 17.6 -50.2 17.6 -78.1v-88.9c48.2 -31.6 84.9 -74.4 93.3 -124.6 3.7 -23 -18.1 -42 -40.4 -34.9 -59 18.9 -146.7 29.7 -240.4 29.7S302.9 645.5 243.9 626.6c-22.2 -7.1 -44.3 11.9 -40.4 34.9 8.4 50.2 45.1 93 93.4 124.6V875c0 27.9 6.6 54.3 17.6 78.1C130.9 884.2 0 707.6 0 500 0 232.4 216.8 15.6 484.4 15.6zM328.1 468.8c34.6 0 62.5 -28 62.5 -62.5s-27.9 -62.5 -62.5 -62.5 -62.5 27.9 -62.5 62.5 28 62.5 62.5 62.5zm312.5 0c34.6 0 62.5 -28 62.5 -62.5s-27.9 -62.5 -62.5 -62.5 -62.5 27.9 -62.5 62.5 28 62.5 62.5 62.5zm-68.1 262.8c1.5 .8 -1 -.5 37.1 18.2v125c0 69.5 -57.1 126 -126.8 125C414.3 999 359.6 941.8 359.6 873V750c37.5 -18.7 35.1 -17.6 36.9 -18.4 28.1 -12.7 60.7 4.3 67.6 34.4l3.5 15.2c4.1 18 29.7 18 33.8 0l3.5 -15.2c6.8 -30.1 39.4 -47.1 67.6 -34.4z"/></svg>