<svg height="1000" width="968.8" xmlns="http://www.w3.org/2000/svg"><path d="M484.4 15.6C752 15.6 968.8 232.4 968.8 500S752 984.4 484.4 984.4 0 767.6 0 500 216.8 15.6 484.4 15.6zm-307.8 343c-15.1 39.4 7.4 81.6 47.2 92.2l137.1 35.5c9 2.4 18.2 -2.9 20.5 -11.7l37.9 -136.5c11 -39.7 -14.4 -80.3 -56.2 -86.9 -36.5 -5.9 -71.3 19.1 -81.1 54.5l-3.9 13.8 -13.8 -3.7c-35.6 -9.4 -74.7 8.4 -87.7 42.8zm307.8 485.2c118.3 0 262.7 -74.9 280.8 -182.3 3.7 -23 -18.1 -42 -40.4 -34.9 -59 18.9 -146.7 29.7 -240.4 29.7S302.9 645.5 243.9 626.6c-22.4 -7.1 -44.3 11.9 -40.4 34.9C221.7 768.9 366 843.8 484.4 843.8zM744.9 450.6c39.9 -10.4 62.3 -52.6 47.3 -92.2C779.1 324 740 306.4 704.5 315.6l-13.9 3.7 -3.9 -13.8C676.8 270.1 642 245.1 605.7 251c-41.8 6.6 -67.2 47.2 -56.3 86.9l37.9 136.5c2.5 8.8 11.7 14.1 20.5 11.7z"/></svg>