<svg height="1000" width="1000" xmlns="http://www.w3.org/2000/svg"><path d="M800 218.6c-10.9 1.5 -20.1 -7.7 -18.6 -18.4 6.5 -44.1 23.5 -143.6 52.4 -172.5 37.3 -37.5 99 -36.9 137.3 1.4 38.3 38.3 38.9 99.6 1.4 137.1C943.6 195.1 844.1 212.3 800 218.6zM200 781.4c10.9 -1.5 20.1 7.7 18.6 18.4 -6.5 44.1 -23.5 143.6 -52.4 172.5 -37.5 37.5 -98.8 36.9 -137.1 -1.4S-9.8 871.1 27.5 833.8C56.4 804.9 155.9 787.7 200 781.4zM808.8 280.5C855.7 273.6 891 266 919.1 258c107.1 185.4 82.1 426.2 -76.5 584.6C684 1001 443.2 1026.2 258 919.1c8 -28.1 15.8 -63.4 22.5 -110.3 5.6 -40 -24.4 -96.9 -89.3 -89.3C144.1 726.4 109 734 80.9 742 -26.2 556.6 -1 315.8 157.4 157.4 316 -1 556.8 -26.2 742 80.9c-8 28.1 -15.8 63.4 -22.5 110.3 -5.6 40.2 24.8 96.9 89.3 89.3zM499.4 207l-43.9 177c-4.3 16.8 10.9 32.6 28.3 28.3l176.7 -44.1c25.6 -6.5 22.7 -43.8 -3.5 -46.1l-102.1 -9.4 -9.4 -102.2c-2.3 -25.9 -39.6 -29.3 -46.1 -3.5zM321.9 656.8c2.5 26.2 39.8 29.1 45.9 3.4l44.1 -176.8c4.3 -17 -11.1 -32.6 -28.3 -28.3l-176.8 44.1c-25.5 6.5 -22.6 43.8 3.6 46.1l102.1 9.4zm421.3 86.4C826.8 659.4 876 504.3 812.9 415.8c-13.9 -19.3 -42.8 -16.6 -53.3 3.9 -28.5 55.1 -82.8 124.8 -149.1 191C544.3 677 474.8 731.3 419.5 759.8c-20.9 10.5 -23 39.6 -3.9 53.1 28.2 19.9 62.7 28.7 99.6 28.7 80.1 0 170.7 -41.2 228 -98.4z"/></svg>