<svg height="1000" width="625" xmlns="http://www.w3.org/2000/svg"><path d="M187.5 62.5c34.5 0 62.5 28 62.5 62.5v125c0 34.5 -28 62.5 -62.5 62.5h-125C28 312.5 0 284.5 0 250V125C0 90.5 28 62.5 62.5 62.5h125zm0 312.5c34.5 0 62.5 28 62.5 62.5v125C250 597 222 625 187.5 625h-125C28 625 0 597 0 562.5v-125C0 403 28 375 62.5 375h125zm0 312.5c34.5 0 62.5 28 62.5 62.5v125c0 34.5 -28 62.5 -62.5 62.5h-125C28 937.5 0 909.5 0 875V750c0 -34.5 28 -62.5 62.5 -62.5h125zm375 -625c34.5 0 62.5 28 62.5 62.5v125c0 34.5 -28 62.5 -62.5 62.5h-125C403 312.5 375 284.5 375 250V125c0 -34.5 28 -62.5 62.5 -62.5h125zm0 312.5c34.5 0 62.5 28 62.5 62.5v125C625 597 597 625 562.5 625h-125C403 625 375 597 375 562.5v-125C375 403 403 375 437.5 375h125zm0 312.5c34.5 0 62.5 28 62.5 62.5v125c0 34.5 -28 62.5 -62.5 62.5h-125C403 937.5 375 909.5 375 875V750c0 -34.5 28 -62.5 62.5 -62.5h125z"/></svg>