<svg height="1000" width="875" xmlns="http://www.w3.org/2000/svg"><path d="M187.5 562.5c34.5 0 62.5 28 62.5 62.5v125c0 34.5 -28 62.5 -62.5 62.5h-125C28 812.5 0 784.5 0 750V625c0 -34.5 28 -62.5 62.5 -62.5h125zm312.5 0c34.5 0 62.5 28 62.5 62.5v125c0 34.5 -28 62.5 -62.5 62.5H375c-34.5 0 -62.5 -28 -62.5 -62.5V625c0 -34.5 28 -62.5 62.5 -62.5h125zm312.5 0c34.5 0 62.5 28 62.5 62.5v125c0 34.5 -28 62.5 -62.5 62.5h-125C653 812.5 625 784.5 625 750V625c0 -34.5 28 -62.5 62.5 -62.5h125zm-625 -375c34.5 0 62.5 28 62.5 62.5v125c0 34.5 -28 62.5 -62.5 62.5h-125C28 437.5 0 409.5 0 375V250c0 -34.5 28 -62.5 62.5 -62.5h125zm312.5 0c34.5 0 62.5 28 62.5 62.5v125c0 34.5 -28 62.5 -62.5 62.5H375c-34.5 0 -62.5 -28 -62.5 -62.5V250c0 -34.5 28 -62.5 62.5 -62.5h125zm312.5 0c34.5 0 62.5 28 62.5 62.5v125c0 34.5 -28 62.5 -62.5 62.5h-125C653 437.5 625 409.5 625 375V250c0 -34.5 28 -62.5 62.5 -62.5h125z"/></svg>