<svg height="1000" width="750" xmlns="http://www.w3.org/2000/svg"><path d="M119.7 369.7c1 -9.5 5.5 -19.5 13.7 -23.4h.2c-9 -3.3 -18 -6.1 -26.4 -8 82.4 -19.9 143.4 40.2 162.3 62.1 32.5 37.5 69.4 17.2 69.4 17.2 .6 21.7 -20.1 37.1 -41.2 38.1 2.3 30 -27.2 63.4 -27.2 63.4s10.9 -29.3 5.3 -49.4c-1.8 -6.2 -3.9 -11.9 -5.9 -16.6 -37.7 33.6 -93.7 3 -107.2 -11.9 -18.8 -20.7 -24.2 -46.5 -25 -66.6 -3.5 7.4 -6.4 17.8 -7.8 32.4 0 0 -12.3 -17.7 -10.2 -37.3zm55.3 -3.5c-5.7 17.8 -6.6 54.1 13.5 69 31.8 23.6 63.1 9.7 74.2 3.3C248 416.4 213.1 387.7 175 366.2zm277.5 89.5c-21.1 -.8 -41.8 -16.4 -41.4 -37.7 0 0 36.8 20.3 69.4 -17.2 18.9 -21.9 79.7 -82 162.3 -62.1 -8.4 1.7 -17.4 4.5 -26.4 8h.2c8 3.5 12.5 13.3 13.7 23 2.3 19.6 -10.2 37.3 -10.2 37.3 -1.2 -14.6 -4.3 -25 -7.8 -32.4 -1 20.1 -6.2 45.9 -25 66.6 -13.3 14.9 -69.3 45.7 -107 11.9 -2 4.9 -4.1 10.4 -5.9 16.6 -5.7 20.1 5.3 49.4 5.3 49.4s-29.5 -33.2 -27.2 -63.4zM575 366.2c-38.1 21.5 -73 50 -87.7 72.3 11.1 6.6 42.2 20.5 74 -3.1C581.6 420.3 580.9 384 575 366.2zM312.5 817.4c8 0 13.7 1.7 17.2 5.3 4.3 4.4 2.9 10.3 1.7 13.2 -2.1 5.3 -10.7 22.7 -25.3 38.7 -5.3 5.7 -12.9 9 -21.5 9 -8.4 0 -17 -3.1 -23.1 -8.4 -4.5 -4.1 -19.9 -18.6 -26.7 -36.3 -2.6 -6.7 -2 -11.9 1.7 -15.9 2.6 -2.5 7.8 -5.6 18.6 -5.6h57.4zM682 619.7s57.3 44 41.2 138.5C712.9 815.8 677.9 848 631.4 865 614.3 902.3 574 954.3 500 961.9 471.7 985 432.6 1000 375.8 1000h-.4c-57 0 -96.1 -15 -124.2 -38.1C177.1 954.3 136.9 902.3 119.7 865 73.2 848.2 38.1 815.8 27.9 758.2 11.1 664.1 68.2 619.9 68.2 619.9c4.7 35 25.4 66.2 48 85.6 6.1 -44.4 7.2 -108.4 7.2 -121.9 0 -28.7 -18.5 -47.9 -23.8 -51 -4.9 -2.9 -10.3 -5.8 -16.2 -9C48.2 504.9 4.5 481.4 4.5 438.3 4.5 406.8 22.7 393 34.6 384c1.5 -1.2 2.9 -2.4 4.3 -3.3 4.1 -3.4 7.2 -5.9 8.4 -8.6 8.6 -19.2 7 -66.8 3.3 -73.5 -1.2 -1.3 -32.8 -41 -23.1 -76.5 3.9 -14.5 13.5 -26 27.6 -33.2 10.3 -5.3 23 -8.2 38.1 -8.8 .2 -3.9 .9 -7.8 1.7 -11.5 1 -5.1 2.2 -10.4 1.8 -15.9 -.8 -9.1 -1.6 -17.7 -4.3 -22C76 104.7 36.1 96.3 35.7 96.3l-24 -4.7L27.5 73.2c.4 -.3 33.8 -34.1 90.5 -34.1 15.4 0 31.2 2.5 46.6 6.8 47.5 15.2 83.8 59.6 96.5 76.8 3.9 -1.2 7.6 -2.4 11.6 -3.4 -2 -51.5 40.4 -92.5 55 -94.3 1 8.8 -.7 43.4 14.1 53.9 4.3 -28.1 18.7 -59.2 76.4 -79.5 -12.3 32.6 -1.6 60 3.5 72.7 39.2 -35.6 65.8 -29.7 65.8 -29.7s-25.8 44.3 -17.6 75.2c6.5 1.5 12.7 3.3 18.8 5.3 12.7 -17.2 49.2 -61.6 96.5 -76.8 15.8 -5.1 31.6 -7.6 47 -7.6 56.7 0 90.3 33.8 90.5 34.2l15.8 18.5 -24 4.7c-.4 0 -40.3 8.4 -56.7 34.4 -2.7 4.5 -3.5 12.9 -4.3 22 -.4 5.5 .6 10.8 1.8 15.9 .8 3.9 1.5 7.6 1.7 11.5 14.9 .6 27.8 3.5 38.1 8.8 14.1 7.2 23.6 18.7 27.6 33.2 9.5 35.7 -21.9 75.4 -23.1 76.5 -3.7 6.7 -5.3 54.3 3.3 73.5 1.2 2.7 4.3 5.3 8.4 8.6 1.4 1.1 2.8 2.1 4.3 3.3 11.9 9 30.1 22.7 30.1 54.3 0 43.2 -43.7 66.6 -78.9 85.3 -5.7 3.2 -11.3 6.1 -16.2 9 -5.3 3.2 -23.8 22.3 -23.8 51 0 13.5 1.1 77.5 7.2 121.9 22.6 -19.4 43.3 -50.4 48 -85.4zM597.1 73.6c-34.8 11.2 -61.7 45.1 -73.7 62.9 3.2 1.4 6.1 2.8 9.2 4.3 5.1 2.4 9.6 4.7 13.9 7.2 5.3 -10.7 16.4 -26.7 40.4 -43.7C602.9 93 622.5 86.9 643 86.9c7 0 13.2 .8 17.9 1.6 6.5 -4.1 12.9 -7.6 19 -10.4 -9.4 -3.9 -26.8 -9.7 -48.3 -9.7 -11.9 0 -23.6 1.7 -34.5 5.2zm41 35.6c-14.5 .6 -27.4 5.3 -38.3 13.7 -15.6 12.5 -23.6 34.5 -26.4 43.9 9.6 8.2 16.1 15.8 20.5 21.9 6.7 -2 14.3 -3.7 22.5 -5.3 6.5 -8.8 7.6 -20.7 8.6 -33.2 1 -12.1 2.1 -24.6 8.6 -34.8 1.4 -2.1 2.9 -4.3 4.5 -6.2zM89.1 88.5c4.6 -.8 10.9 -1.6 17.5 -1.8 20.7 0 40.1 6.1 56.3 17.4 24.2 17 35.3 33.2 40.4 43.8 4.3 -2.4 9 -4.9 13.9 -7.3 3.1 -1.5 6.2 -2.9 9.4 -4.3C214.6 118.9 187.7 85 152.9 73.6c-11.1 -3.5 -22.6 -5.2 -34.5 -5.2 -21.5 0 -38.9 5.8 -48.3 9.7 6.1 2.6 12.5 6.1 19 10.4zm87.3 78.3C173.6 157.4 165.6 135.4 150 123c-10.7 -8.5 -23.6 -13 -38.1 -13.6 1.6 1.9 3.1 4.1 4.5 6.2 6.5 10.2 7.6 22.7 8.6 34.8 1 12.5 2 24.4 8.4 33 8.2 1.6 15.8 3.5 22.5 5.3 4.3 -6.3 10.9 -13.7 20.5 -21.9zm-62.9 340.8c17 9.8 35.3 32.8 37.1 66.8 1.7 28.7 -1.8 97.5 -6.7 148.3 24.5 9.3 52.2 12.5 77.6 13.2 3.9 -8 7.6 -16.6 10.7 -25.5 1.4 -3.8 38.3 -99.7 51.6 -121.5 -10.6 76.1 -34.2 143.9 -45.9 175 6.6 -.8 14.2 -1.4 22.8 -1.4h228.6c8.6 0 16 .4 22.8 1.4C500.4 732.8 477 665 466.2 588.9c13.3 21.6 50.2 117.5 51.6 121.5 3.1 8.9 6.8 17.5 10.7 25.5 25.4 -.7 53.3 -3.9 77.6 -13.2 -4.9 -50.8 -8.4 -119.8 -6.7 -148.3 2.2 -34.2 20.3 -57 37.3 -66.8 5.3 -2.9 10.8 -6 16.4 -9 28.9 -15.6 59 -31.8 59 -59.5 0 -21.7 -8.4 -28.4 -17.4 -35.6l-.9 -.8c-1.4 -1.1 -3 -2.3 -4.3 -3.5 1.7 14.1 3.7 26 5.2 29.1 0 0 -23.6 -29.3 -30.6 -86.5 -2.8 -22.5 2.1 -66.8 9.9 -84 -.4 9.6 0 19.2 .6 28.1 .8 -1.7 1.6 -3.1 2.5 -4.3 6.5 -7.8 23.3 -34.1 18.4 -51.9C693.6 223 689.3 218 682.4 214.5c-7.4 -3.8 -17.2 -5.7 -29.5 -5.7 -24 0 -50.6 7.4 -64.2 11.7 -49.1 15.4 -108.2 60.4 -125.2 73.6 -.4 .4 -.8 .6 -.8 .6l-10.9 7.6 6.8 -11.3c.4 -.6 37.3 -61.3 103.7 -90.8 -3.9 -5.7 -14.4 -16 -42.2 -29.5C478.3 150.2 429.5 139.8 375 139.8c-54.3 0 -103.3 10.4 -145.1 30.9 -27.8 13.7 -38.3 23.8 -42.2 29.5 66.6 29.5 103.5 90.2 103.9 90.8l6.8 11.3 -10.9 -7.6s-.4 -.2 -.8 -.6c-17 -13.2 -76.2 -58 -125.2 -73.6C147.9 216 121.3 208.8 97.3 208.8c-12.3 0 -22.1 1.9 -29.5 5.7 -7.1 3.5 -11.4 8.3 -13.1 15.2C50 247.5 66.8 273.8 73 281.6c1 1.2 1.8 2.8 2.6 4.3 .6 -8.9 1 -18.5 .6 -28.1 7.8 17 12.7 61.5 9.9 84 -7 57.2 -30.6 86.5 -30.6 86.5 1.5 -3.1 3.5 -15 5.2 -29.1 -1.5 1.2 -2.9 2.4 -4.3 3.5l-.9 .8c-9 7 -17.4 13.9 -17.4 35.6 0 27.7 29.9 43.9 59 59.5 5.4 3 11.1 5.9 16.4 9zM68 790.2c23.2 38.5 69.3 57.5 113.6 57.7 -8.7 -26 -6 -46.9 8 -62.2l2.8 -2.7c3.5 -4.7 8.4 -11.3 13.7 -19.5C152.9 761.3 82 742 60.7 674.8 51 684.6 44.3 751.2 68 790.2zm89.2 85c12.7 18.5 32.3 38.3 60.4 49.8 -9.6 -14.1 -17.2 -29.5 -24 -45.1 -12.5 -1 -24.7 -2.6 -36.4 -4.7zM375 973c118.4 -.1 152.9 -89.6 165.8 -126.3 7.1 -20.5 6.5 -35.8 -1.7 -45.1 -5.5 -6.5 -18.6 -14.1 -48.1 -14.1H259c-29.5 0 -42.4 7.6 -48.1 14.1 -8.4 9.5 -8.9 24.6 -1.7 45.1C222.1 883.6 256.6 972.9 375 973zm157.4 -48c28.1 -11.5 47.7 -31.3 60.4 -49.8 -11.7 2.1 -23.9 3.7 -36.4 4.7 -6.8 15.6 -14.4 31 -24 45.1zM682 790.2c23.9 -38.8 17.2 -105.4 7.5 -115.2 -21.3 67.2 -92.2 86.3 -145.4 88.7 5.3 8.2 10.2 14.8 13.7 19.5 1 1 2 2 2.7 2.9 14.1 15.1 16.8 36.2 8.1 62.1 43.9 -.7 90 -19.5 113.4 -58zM374.8 366.6c-24.8 -.4 -53.1 -34.8 -53.1 -34.8 19.3 11.8 36.7 15.9 53.3 16.2 16.6 -.3 34 -4.4 53.3 -16.2 0 0 -28.3 34.6 -53.1 34.8h-.4zm120.5 450.6c10.6 .2 15.8 3.3 18.4 5.8 3.7 3.8 4.3 9 1.7 15.5 -6.8 17.4 -22.2 31.4 -26.7 35.3 -6.1 5.1 -14.5 8.2 -23.1 8.2 -8.6 0 -16.2 -3.1 -21.5 -8.8 -14.6 -15.6 -23.4 -32.6 -25.3 -37.7 -1.2 -2.9 -2.6 -8.5 1.7 -13 3.3 -3.6 9.2 -5.3 17.4 -5.3h57.4z"/></svg>