<svg height="1000" width="1000" xmlns="http://www.w3.org/2000/svg"><path d="M981.7 76.2c10.1 10.1 18.2 29.8 18.2 44.1s-8.2 34.1 -18.3 44.2L891.2 255c-6.4 6.3 -18.5 13.8 -27 16.6L793 295.4 644.1 444.3c17.1 23.8 30.8 49.9 37.4 78.5 15.1 65.2 1.7 130.6 -43 175.3 -15.4 15.3 -44.7 33 -65.4 39.5 -36.2 11.8 -63.8 45.5 -67.2 82.3 -4.5 46.5 -22.4 89.6 -55.6 122.5 -89 88.9 -249 73 -357.4 -35.3C-15.4 798.8 -31.5 638.7 57.7 549.8c32.9 -33.2 76 -51.1 122.3 -55.6 37 -3.4 70.6 -31 82.3 -67.3 6.5 -20.7 24.2 -50 39.5 -65.3 44.7 -44.7 110.2 -58.2 175.6 -43 28.5 6.6 54.5 20.3 78.3 37.4L704.6 207l23.8 -71.3c2.8 -8.5 10.3 -20.6 16.6 -26.9l90.4 -90.5C845.5 8.2 865.3 0 879.6 0c14.3 0 34.1 8.2 44.2 18.3zM406.3 687.5c51.7 0 93.7 -42 93.7 -93.7S458 500 406.3 500s-93.8 42 -93.8 93.8 42 93.7 93.8 93.7z"/></svg>