<svg height="1000" width="500" xmlns="http://www.w3.org/2000/svg"><path d="M409.8 763.9l-27.6 48 -9 156.7c0 17.3 -55.2 31.4 -123.2 31.4S126.8 985.9 126.8 968.6L115.4 813.5 86.3 763.9c80.5 33.8 246.1 32.6 323.5 0zM27 269.1c59.9 33.2 386.3 33 445.9 -.4l-29 267.2c-9.3 8.2 -22.6 20 -32.4 27.6 -3.1 2.3 -11.7 9.2 -15.6 9.2 -2.5 0 -4.3 -1 -4.3 -3.6 .2 -1.9 6.6 -8.7 9.8 -12.5 9.5 -11.1 26.9 -31.2 26.9 -45.7 0 -13.6 -20.9 -27.5 -50.2 -.4 -3.1 3 -6 5.9 -8.8 8.8 .8 -2.1 2.2 -9.9 2.2 -12.1 0 -5.4 -2.8 -7.8 -8.2 -7.8 -2 0 -3.7 1.2 -5.3 3.1 -5.1 6.1 -7.6 14.7 -10.3 22.1 -1 3.5 -2.2 7 -3.4 10.8 -.7 .3 -1.3 .5 -1.7 1.1 -7.4 7.6 -34.6 33.2 -45.1 33.2 -4.5 0 -3.2 -7 -2 -11.3 2 -6.6 13.3 -34.6 17 -43.6 9 -21.6 15.6 -38.6 25.8 -62.3 7.6 -17.9 7.4 -16.8 8.8 -20.5 1.3 -4.1 1.3 -9.5 -2 -12.1 -1.9 -1.3 -3.9 -2.1 -6.2 -2.1 -4.7 0 -9.4 2.7 -11.9 9.2 -49.9 125.7 -49.3 123.6 -51.6 133.2 -3.9 3.3 -8.6 6.6 -13.3 8.7 -6 2.8 -13.3 4.3 -13.3 -2.3 0 -7.2 2.8 -16 5.3 -22.8 4.3 -12 9.6 -21.7 13.5 -32.7 1.7 -4.7 2.5 -9.1 -.8 -13.4 -1.6 -2 -3.7 -3 -6.3 -3 -5 0 -8 5.1 -10.1 10 -1.4 2.9 -2.5 6 -3.5 9.4 -2.4 7.8 -7.1 17 -11 24 -5.4 9.8 -12.7 19.7 -21.6 26.4 -4.3 3.1 -8.8 4.6 -13.5 4.6 -6.9 0 -4.7 -11.1 -2.9 -17.5 4.2 -15.3 10.7 -26 18.1 -40.7 2.6 -5.2 4.5 -10.5 -.6 -14 -.9 -.6 -1.9 -1 -3.1 -1.4 -6.6 -1.7 -11.7 2.2 -14.8 8.8 -6.1 12.3 -10.6 22.8 -13.9 31.6 -6.5 17.4 -13.5 35.8 -9 46.5 2.9 7.2 8.8 10 16.8 10 19.1 0 34.8 -13.1 43.8 -29.1 -8.4 38.7 16 33.8 39 15.8 .2 .8 .2 1.6 .4 2.3 2.9 13.1 17 13.1 28.3 8.1 6.9 -3.2 16 -8.8 28.2 -20.6 .3 -.5 1.5 -2.7 -1.6 4.5 -14.1 31.7 -26.4 55.1 -29.3 67 -.4 1.8 -.6 3.5 -.6 5.3 0 3.5 .8 6.1 2.5 7.2 3.2 2.4 8.3 2.6 12 .6 3.5 -1.9 6 -5.1 7.8 -8.8 1.9 -4.3 .4 -1.3 10.1 -27.3 9.8 -26.2 5.7 -15.3 17.8 -43 3.7 -8.4 8.2 -18.5 16.6 -30.3 4.9 -6.6 10.7 -13.6 17 -18.9 11.1 -9.2 22.9 -10.6 22.9 -4.9 0 4.3 -6.5 12.5 -9.2 15.8 -10.4 13.1 -28.2 31.9 -28.2 42 0 18.6 23.5 15.7 34 11.2 14.3 -6.3 27.2 -18.8 38.3 -28.9l-21.3 184.7c-3.7 9.6 -76.3 33.4 -172.2 33.4C152 778.5 79.3 754.9 75.4 745.1L60.5 589.7c4.1 2.9 8.4 4.6 15.1 4.6 14.4 0 31.4 -13 42 -23 4.5 -4.3 8.6 -8.6 12.5 -12.9 -2 5.9 -13.9 43 -14.3 49.2 -.2 2 -.4 9.6 1.6 12.3 1 1.6 2.7 2.4 5.1 2.4 5.6 0 10.9 -9.2 12.3 -14.7 0 0 3.5 -12.3 14.8 -50.4 12.3 -41.2 19.5 -47.8 19.5 -67.7 0 -11 -14.2 -13.3 -19.3 0l-10.2 30.2c-4.2 8.8 -15.6 22.5 -24.4 31.3 -6.8 6.8 -21.1 19.7 -30.8 19.7 -4.7 0 -7.6 -2.7 -9.6 -7C70.3 553.3 73 535.7 76 524.8c5.1 -18.9 13.5 -37.9 23.4 -55.1 8.2 -14.2 19.9 -30.6 33.4 -40.4 12.9 -9.4 25 -8.8 33 5.5 3 5.2 7.4 14.2 13.3 14.2 4.9 0 11.1 -5.1 8.8 -17.7 -1 -4.9 -9.6 -17.2 -19.7 -23.1 -11.8 -7 -24.3 -7 -36.6 -1.8C94.1 422.5 65 475.2 53.5 514.3zm448.6 -16.6c0 41.1 -451.6 41.1 -451.6 0 0 -17.1 101.2 -31 225.8 -31 17.6 0 34.8 .2 51.4 .8l24.6 -95.2L445.5 1.2c2.7 -2.8 11.3 -.4 19.3 6.8 8.1 7.2 12.9 15.4 10.4 18.2l-.2 .2L363.1 144.5 343.6 224c77.9 5.1 132 15.8 132 28.5zm-135.6 9c0 -1.5 -1.7 -2.9 -4.8 -4.1l-.4 1.6c0 2.5 -9.8 4.7 -21.7 4.7 -11.9 0 -21.7 -2.2 -21.7 -4.7 0 -.2 0 -.4 .2 -.6l.4 -1.4c-3.5 1.2 -5.9 2.8 -5.9 4.5 0 4.1 12.1 7.2 26.8 7.2 15 .2 27.1 -3.1 27.1 -7.2z"/></svg>