<svg height="1000" width="1000" xmlns="http://www.w3.org/2000/svg"><path d="M906.3 500c51.7 0 93.7 42 93.7 93.8s-42 93.7 -93.7 93.7H93.8C42 687.5 0 645.5 0 593.8S42 500 93.8 500h812.5zm31.2 250c17.3 0 31.3 14 31.3 31.3v31.2c0 69 -56 125 -125 125H156.3c-69.1 0 -125 -56 -125 -125v-31.2C31.3 764 45.2 750 62.5 750h875zm-823 -312.5C47 437.5 7.8 351.7 46.5 289.3 125 162.5 297.8 62.7 500 62.5c202.2 .2 375 100 453.5 226.8 38.7 62.5 -.5 148.2 -68 148.2h-771zM750 218.8c-17.3 0 -31.2 13.9 -31.2 31.2s13.9 31.3 31.2 31.3 31.3 -14 31.3 -31.3 -14 -31.2 -31.3 -31.2zM500 156.3c-17.3 0 -31.2 13.9 -31.2 31.2s13.9 31.3 31.2 31.3 31.3 -14 31.3 -31.3 -14 -31.2 -31.3 -31.2zm-250 62.5c-17.3 0 -31.2 13.9 -31.2 31.2s13.9 31.3 31.2 31.3 31.3 -14 31.3 -31.3 -14 -31.2 -31.3 -31.2z"/></svg>