<svg height="1000" width="1125" xmlns="http://www.w3.org/2000/svg"><path d="M1115.8 378.8c12.2 12.2 12.2 32 .1 44.2L939.1 599.7c-12.2 12.3 -32 12.3 -44.2 0l-44.2 -44.2c-12.2 -12.2 -12.2 -31.9 0 -44.2l22.1 -22 -56.5 -56.5c-41.6 11 -87.6 .7 -120.3 -31.9l-96 -96a125.036 125.036 0 0 1 -36.6 -88.4v-36.6L386.6 91.5c122.1 -122 320 -122 442 0l88.4 88.4c32.6 32.6 42.9 78.7 31.9 120.3l56.5 56.5 22 -22.1c12.2 -12.2 32 -12.2 44.2 0zm-560 -29.7l96 96c6.9 6.9 14.6 12.7 22.4 18.4L209.1 961.6c-46.7 50 -125.4 51.3 -173.7 3 -48.3 -48.3 -47 -127 3 -173.7L536.6 325.8c5.9 8.1 12 16.1 19.2 23.3z"/></svg>