<svg height="1000" width="1000" xmlns="http://www.w3.org/2000/svg"><path d="M994.8 600.1c2.9 6.6 5.2 17.8 5.2 24.9 0 13.6 -7.5 32.7 -16.8 42.6L782.7 882.5C712.9 957.2 610 1000 500 1000S287 957.2 217.4 882.5L16.8 667.6C7.5 657.7 0 638.6 0 625c0 -7.1 2.3 -18.3 5.2 -24.9 9.9 -22.8 32.4 -37.6 57.3 -37.6h125V156.3c0 -43 35.2 -78.2 78.1 -78.2s78.1 35.2 78.1 78.2V418c0 10.7 8.8 19.5 19.6 19.5h39c10.8 0 19.6 -8.8 19.6 -19.5V78.1C421.9 35.2 457 0 500 0s78.1 35.2 78.1 78.1V418c0 10.7 8.8 19.5 19.6 19.5h39c10.8 0 19.5 -8.8 19.5 -19.5V156.3c0 -43 35.2 -78.2 78.2 -78.2s78.1 35.2 78.1 78.2v406.2h125c24.9 0 47.4 14.8 57.3 37.6zM500 812.5c103.6 0 187.5 -125 187.5 -125S603.6 562.5 500 562.5s-187.5 125 -187.5 125 83.9 125 187.5 125zM500 625c34.5 0 62.5 28 62.5 62.5S534.5 750 500 750s-62.5 -28 -62.5 -62.5S465.5 625 500 625z"/></svg>