<svg height="1000" width="875" xmlns="http://www.w3.org/2000/svg"><path d="M796.9 421.9c43.1 0 78.1 35 78.1 78.1v156.3c0 5 -.9 13 -2.1 17.8l-62.5 265.7c-8.3 35.3 -39.8 60.2 -76 60.2H265.6c-25 0 -55.4 -17.6 -67.8 -39.4L72.8 741.9c-19.1 -33.4 -11 -75.7 19 -99.8l60.7 -48.6L6.5 221.8c-18.9 -48.2 4.8 -102.6 53 -121.6 48.2 -18.9 102.6 4.8 121.5 53L317.2 500h26.6V93.7C343.8 42 385.7 0 437.5 0s93.8 42 93.8 93.7V500h15.6v-62.5c0 -43.1 35 -78.1 78.1 -78.1s78.1 35 78.1 78.1V500h15.7c0 -43.1 34.9 -78.1 78.1 -78.1z"/></svg>