<svg height="1000" width="1125" xmlns="http://www.w3.org/2000/svg"><path d="M312.3 343.4c-17.3 0 -31.3 -14 -31.3 -31.3v-125c0 -17.2 14 -31.2 31.3 -31.2h125v-125c0 -17.3 14 -31.3 31.2 -31.3h125c17.3 0 31.3 14 31.3 31.3v125h125c17.2 0 31.2 14 31.2 31.2v125c0 17.3 -14 31.3 -31.2 31.3h-125v125c0 17.2 -14 31.2 -31.3 31.2h-125c-17.2 0 -31.2 -14 -31.2 -31.2v-125h-125zm797.2 313.1c8.4 11.4 15.2 32.1 15.2 46.3 0 21.7 -14.2 49.9 -31.7 62.8L829.2 960.1c-29.7 21.8 -83.6 39.5 -120.5 39.6H31C13.9 999.6 -.1 985.6 -.3 968.4V780.9C-.1 763.8 13.9 749.8 31 749.7h108.1L229.9 676c35 -28.3 99.8 -51.3 144.8 -51.3h312.5c34.6 0 62.6 28.1 62.6 62.6 0 2.9 -.4 7.6 -.8 10.4 -5.2 30.8 -34 52 -65.2 52H531c-17.3 0 -31.3 14 -31.3 31.2s14 31.3 31.3 31.3h235.5L1000.3 640c11.4 -8.5 32.2 -15.3 46.4 -15.3 21.8 0 49.9 14.2 62.8 31.8z"/></svg>