<svg height="1000" width="1125" xmlns="http://www.w3.org/2000/svg"><path d="M529.4 281.8c-47 -12.5 -84.8 -48.2 -90.9 -93.1C430 126.2 478.7 72.7 543 65.6V31.3C543 14.1 558.2 0 576.9 0h33.9c18.7 0 33.9 14.1 33.9 31.3v34.6c20 2 50.2 12.1 67.5 22.4 5.9 3.6 10.8 12.2 10.8 19.1 0 3.5 -1.5 8.8 -3.3 11.7 -1 1.6 -2.9 3.9 -4.3 5.1l-37.1 34.2c-7.8 7.2 -19.6 8.2 -29.9 3.9 -5.8 -2.4 -15.6 -4.3 -21.9 -4.3H557c-9.9 0 -17.8 7.4 -17.8 16.4 .2 7.1 6 14.2 12.9 15.8l106 28c47.1 12.5 84.8 48.2 90.9 93.1 8.5 62.5 -40.1 116 -104.4 123.1v34.4c0 17.1 -15.3 31.2 -34 31.2h-33.9c-18.7 0 -33.9 -14.1 -33.9 -31.2v-34.6c-20 -2.1 -50.2 -12.1 -67.4 -22.5 -6 -3.6 -10.9 -12.1 -10.9 -19.1 0 -3.5 1.5 -8.7 3.3 -11.6 1 -1.6 2.9 -4 4.4 -5.2l37.1 -34.2c7.8 -7.2 19.6 -8.2 29.9 -3.9 5.8 2.4 15.6 4.3 21.8 4.3h69.5c9.9 0 17.9 -7.4 17.9 -16.4 -.3 -7.1 -6.1 -14.2 -13 -15.8zm574.6 359c11.6 10.3 21 31.2 21 46.7 0 16.6 -10.5 38.5 -23.4 48.8L806.2 972.7c-18.9 15 -53.9 27.3 -78 27.3H31.3C14 1000 0 986 0 968.8V781.3C0 764 14 750 31.3 750h108.2l90.8 -73.7C265.2 648 330 625 375 625h312.5c34.4 0 62.4 27.9 62.5 62.4v.2c0 2.9 -.4 7.6 -.9 10.4 -5 30.7 -33.9 52 -64.9 52H531.3C514 750 500 764 500 781.3s14 31.2 31.3 31.2h231.3c24.1 0 59 -12.2 77.8 -27.3l180.4 -144.4c24.3 -19.5 60.2 -20.9 83.2 0z"/></svg>