<svg height="1000" width="1000" xmlns="http://www.w3.org/2000/svg"><path d="M87.5 304.3H379C367.6 288.2 358.3 272 351.3 255.7 324.7 193.5 370.7 125 437.5 125c36.4 0 62.9 21.3 78.1 56.8 23.7 55.3 153.6 125.7 210.1 151 34.8 15.6 55.5 49.8 55.5 85.7v335c0 23.1 -16.7 42.8 -39.5 46.3C650.2 813.9 621 874.9 500 874.6c-5.3 0 -25.9 .4 -31.3 .4C369.8 875 309.4 831.8 327 735.8 290.6 717.7 266.9 658.7 294.8 614.1 246.7 572.7 250.6 508.8 282.5 475.5h-195C40.3 475.5 0 436.1 0 389.9c0 -45.4 41.7 -85.6 87.5 -85.6zm771.9 39.5h93.7c25.9 0 46.9 20.9 46.9 46.8v375c0 25.9 -21 46.9 -46.9 46.9h-93.7c-25.9 0 -46.9 -21 -46.9 -46.9v-375c0 -25.9 21 -46.8 46.9 -46.8zm46.9 414c21.5 0 39 -17.5 39 -39s-17.5 -39.1 -39 -39.1 -39.1 17.5 -39.1 39.1 17.5 39 39.1 39z"/></svg>