<svg height="1000" width="1250" xmlns="http://www.w3.org/2000/svg"><path d="M953.1 375c26 0 46.9 20.9 46.9 46.9v93.7c0 26 -20.9 46.9 -46.9 46.9h-15.6v125c0 34.6 -27.9 62.5 -62.5 62.5h-31.2c0 68.9 -56.1 125 -125 125H452L250 991.6c-29.9 17.2 -68.2 7 -85.4 -22.8L8.4 698C-9 668.2 1.4 629.9 31.2 612.7l156.3 -90.2v-92.4c0 -43.8 23 -84.6 60.7 -107.1L375 246.9v237.5c0 77.5 63.1 140.6 140.6 140.6S656.3 561.9 656.3 484.4V375h296.8zm288.5 -73c17.2 29.8 7 67.9 -22.9 85.3l-156.2 90.2v-55.6c0 -60.4 -49 -109.4 -109.4 -109.4H593.7v171.9c0 43.1 -34.9 78.1 -78.1 78.1s-78.1 -35 -78.1 -78.1V237.7c0 -21.5 10.9 -41.6 29.3 -52.9l65.4 -40.9C552.1 131.6 575 125 598.4 125H798L1000 8.4c29.9 -17.2 68.2 -7 85.4 22.9z"/></svg>