<svg height="1000" width="750" xmlns="http://www.w3.org/2000/svg"><path d="M264.9 0c46.2 0 85.6 40.3 85.6 87.5v195c33.3 -31.9 97.2 -35.8 138.6 12.3 44.6 -27.9 103.6 -4.2 121.7 32.2 96 -17.6 139.2 42.8 139.2 141.8 0 5.3 -.4 25.9 -.4 31.2 .3 121 -60.7 150.2 -74.8 241.7 -3.5 22.8 -23.2 39.5 -46.3 39.5h-335c-35.9 0 -70.1 -20.7 -85.7 -55.5C182.5 669.2 112.1 539.3 56.8 515.6 21.3 500.4 0 473.9 0 437.5 0 370.7 68.6 324.7 130.7 351.3c16.3 7 32.5 16.3 48.6 27.7V87.5C179.3 41.7 219.5 0 264.9 0zm.7 812.5h375c25.9 0 46.9 21 46.9 46.9v93.7c0 25.9 -21 46.9 -46.9 46.9h-375c-25.9 0 -46.8 -21 -46.8 -46.9v-93.7c0 -25.9 20.9 -46.9 46.8 -46.9zm328.2 54.7c-21.6 0 -39.1 17.5 -39.1 39.1s17.5 39 39.1 39 39 -17.5 39 -39 -17.5 -39.1 -39 -39.1z"/></svg>