<svg height="1000" width="1125" xmlns="http://www.w3.org/2000/svg"><path d="M537.7 489.3L325 266.2C263.3 201.4 267 93.9 335.9 34.2 396.1 -18 485.7 -8.6 540.8 49.4l21.7 22.7 21.9 -22.9C639.5 -8.6 729.1 -18 789.3 34.2c69.1 59.7 72.6 167.2 10.9 232L587.5 489.3c-13.9 14.4 -36.1 14.4 -49.8 0zm566.4 151.5c29.5 26.6 27.2 71.9 -2.5 95.5L806.3 972.7C784 990.4 756.4 1000 728.1 1000H31.3C14.1 1000 0 985.9 0 968.8V781.3C0 764.1 14.1 750 31.3 750h108.2l90.8 -73.6c41 -33.2 92 -51.4 144.7 -51.4h312.5c38.1 0 68.2 34 61.7 73 -5.1 30.7 -34 52 -65 52H531.3c-17.2 0 -31.3 14.1 -31.3 31.3s14.1 31.2 31.3 31.2h231c28.5 0 56.1 -9.6 78.1 -27.3l180.5 -144.4c24.2 -19.5 60.2 -20.9 83.2 0z"/></svg>