<svg height="1000" width="1000" xmlns="http://www.w3.org/2000/svg"><path d="M907.8 156.3c51.4 .7 92.2 43.9 92.2 95.3v260.7c0 25 -4.9 49.8 -14.6 72.9l-95.8 227.1c-9.5 23.1 -14.6 47.9 -14.6 72.9v5.6c0 26 -20.9 46.9 -46.9 46.9H359.4c-26 0 -46.9 -20.9 -46.9 -46.9v-13.1c0 -26.7 -11.5 -52.3 -31.4 -70.1L62.9 613.7C22.9 577.9 0 527 0 473.4V343.8C0 291.4 42.8 249.2 95.3 250c51.4 1 92.2 43.9 92.2 95.3v94l15.6 13.8V187.5c0 -52.3 42.8 -94.5 95.3 -93.7 51.4 .9 92.2 43.9 92.2 95.3V250h15.7v-93.7c0 -52.4 42.7 -94.6 95.3 -93.8 51.3 1 92.2 43.9 92.2 95.3V250h15.6v-62.5c0 -52.3 42.7 -94.5 95.3 -93.7 51.4 .9 92.2 43.9 92.2 95.3V250h15.6c0 -52.3 42.8 -94.5 95.3 -93.7z"/></svg>