<svg height="1000" width="1250" xmlns="http://www.w3.org/2000/svg"><path d="M0 250.4h46.5l141 109v328.1c0 34.5 -28 62.5 -62.5 62.5H0V250.4zm93.8 374.8c-17.3 0 -31.3 14 -31.3 31.2s14 31.3 31.3 31.3 31.2 -14 31.2 -31.3S111 625.2 93.8 625.2zM250 687.3V407.7l543 419.6 -17.2 21.2c-12 14.8 -37.3 26.8 -56.3 26.8 -14.3 0 -34.8 -7.3 -45.8 -16.3l-35 -30.3 -.4 .4c-20.7 25.5 -64.2 46.1 -97 46.1 -24.5 0 -59.8 -12.5 -78.8 -27.9l-176.8 -160H250zm812.5 -436.9H1250v499.8h-125c-34.5 0 -62.5 -28 -62.5 -62.5V250.4zm93.8 437.3c17.2 0 31.2 -14 31.2 -31.3s-14 -31.2 -31.2 -31.2 -31.3 14 -31.3 31.2 14 31.3 31.3 31.3zM592.4 395.8l645.5 498.9c6.7 5.2 12.1 16.3 12.1 24.7 0 5.9 -2.9 14.5 -6.5 19.2l-38.4 49.3c-5.2 6.7 -16.3 12.1 -24.7 12.1 -5.9 0 -14.5 -2.9 -19.2 -6.6L12.1 105.3C5.4 100.1 0 89.1 0 80.6 0 74.7 3 66.1 6.6 61.4L44.9 12.1C50.1 5.4 61.2 0 69.6 0c5.9 0 14.5 3 19.2 6.6L317.1 183l39.7 -39.6C366.9 133.3 386.7 125 401 125h163.6L417 260.2l50.1 38.7 172 -157.5c9.8 -9 28.7 -16.4 42.1 -16.4h167.9c14.3 0 34 8.2 44.1 18.4L999.8 250v377.9c-3.9 -4.4 -10.8 -11.2 -15.4 -15L700 382l51 -46.6c5.3 -5.1 9.7 -15.3 9.7 -22.6 0 -17.3 -14 -31.3 -31.3 -31.3 -6.5 0 -15.7 3.5 -20.6 7.8z"/></svg>