<svg height="1000" width="1125" xmlns="http://www.w3.org/2000/svg"><path d="M968.8 437.5c-51.8 0 -93.8 -42 -93.8 -93.7S917 250 968.8 250s93.7 42 93.7 93.8 -42 93.7 -93.7 93.7zm-360.5 -89l-31.4 9.7L617.8 229c6.8 -21.6 27.6 -36.8 50.2 -34.2 23.1 2.4 41.9 23.3 41.9 46.6 0 4 -1 10.4 -2.2 14.2l-30 95c-9.9 -3.7 -26.5 -6.8 -37.1 -6.9 -9.1 0 -23.6 2.2 -32.3 4.8zM182.9 754.6C117.6 716.7 63.6 624.6 62.5 549.1V328.9c.4 -26 22.8 -46.7 48.6 -46.6 25.8 .2 46.6 21.2 46.6 46.9 0 .1 0 .2 0 .3l4.1 97.7L278.9 56.4c6.9 -21.6 27.7 -36.9 50.3 -34.1 23.1 2.5 41.9 23.4 41.9 46.7 0 4 -1 10.3 -2.2 14.1l-75.3 238.3c-.4 1.3 -.8 3.4 -.8 4.7 0 8.6 7 15.6 15.7 15.6 6.3 0 13 -4.9 14.9 -10.9L417 34.5C423.8 12.9 444.7 -2.3 467.2 .3c23.1 2.5 41.9 23.3 41.9 46.6 0 4 -1 10.3 -2.2 14.2l-84.7 269.1c-.4 1.2 -.7 3.4 -.7 4.7 0 8.6 7 15.6 15.6 15.6 6.3 0 13 -4.9 14.9 -10.9l65.3 -207.8c6.9 -21.7 27.7 -36.9 50.3 -34.3 23.1 2.5 41.9 23.4 41.9 46.6 0 4 -1 10.4 -2.2 14.2l-66.8 211.2 -143.9 44.4C281.3 452 187.6 581.5 187.5 703v50.2c-1.6 .3 -3 1 -4.6 1.4zm831 -98.3c22.6 0 43.4 15.3 47.7 37.5 .5 2.6 .9 6.7 .9 9.3 0 25.9 -21 46.9 -46.8 46.9H703.1c-8.6 0 -15.6 7 -15.6 15.6s7 15.6 15.6 15.6h248.3c22.6 0 43.4 15.4 47.7 37.6 .5 2.6 .9 6.7 .9 9.3 0 25.9 -21 46.9 -46.8 46.9H703.1c-8.6 0 -15.6 7 -15.6 15.6s7 15.6 15.6 15.6h185.8c22.6 0 43.4 15.4 47.7 37.6 .5 2.6 .9 6.7 .9 9.3 0 25.9 -21 46.9 -46.8 46.9H484.4C448.3 999.9 394 984.4 363.3 965.4c6.5 -15.8 11.8 -42.4 11.8 -59.4C375.1 835.6 319 767.1 250 753.2v-50.1c0 -96.7 74.5 -199.6 166.4 -229.8l210.4 -65c3.7 -1.1 9.9 -2.1 13.8 -2.1 25.9 0 46.9 21 46.9 46.9 0 19.1 -14.8 39.2 -33 44.8l-92 33.3h388.9c22.6 0 43.4 15.4 47.7 37.6 .5 2.6 .9 6.7 .9 9.3 0 25.9 -21 46.9 -46.8 46.9H703.1c-8.6 0 -15.6 7 -15.6 15.6s7 15.6 15.6 15.6h310.8zM812.5 125C778 125 750 97 750 62.5S778 0 812.5 0 875 28 875 62.5 847 125 812.5 125zM218.8 812.5c51.7 0 93.7 42 93.7 93.8s-42 93.7 -93.7 93.7S125 958 125 906.3s42 -93.8 93.8 -93.8z"/></svg>