<svg height="1000" width="1250" xmlns="http://www.w3.org/2000/svg"><path d="M400 450l112.5 150c32.4 43.4 50 95.9 50 150v218.7c0 17.2 -14.1 31.3 -31.2 31.3H274c-14 0 -26.3 -9.2 -29.9 -22.7C240.2 962.1 233.6 947.7 223.8 935L20.5 672.7C7.2 656.1 0 635.4 0 614.1V187.5C0 152.9 27.9 125 62.5 125s62.5 27.9 62.5 62.5v289.8l175.4 210.6c11.7 14.2 33 15.2 46.1 2.1l25 -25c10.9 -10.9 12.3 -28.3 2.9 -40.8L300 525c-20.7 -27.5 -15 -66.8 12.5 -87.5s66.8 -15 87.5 12.5zm787.5 -325c34.6 0 62.5 27.9 62.5 62.5v426.6c0 21.3 -7.2 42 -20.5 58.6L1026.2 935c-9.8 12.7 -16.4 27.1 -20.3 42.3 -3.6 13.5 -16.1 22.7 -29.9 22.7H718.7c-17.1 0 -31.2 -14.1 -31.2 -31.3V750c0 -54.1 17.6 -106.6 50 -150L850 450c20.7 -27.5 60 -33.2 87.5 -12.5s33.2 60 12.5 87.5l-74.4 99.2c-9.4 12.5 -8 29.9 2.9 40.8l25 25c12.9 12.9 34.4 12 46.1 -2.1L1125 477.3V187.5c0 -34.6 27.9 -62.5 62.5 -62.5z"/></svg>