<svg height="1000" width="1250" xmlns="http://www.w3.org/2000/svg"><path d="M208.3 333.3l-40.5 96.9c-2 4 -7.2 7.2 -11.6 7.2s-9.7 -3.2 -11.7 -7.2l-40.3 -97h-.2L7.2 293C3.4 290.8 .2 285.6 0 281.3c.2 -4.4 3.4 -9.6 7.2 -11.8l97 -40.4h.1l40.4 -96.9c2 -4 7.2 -7.2 11.6 -7.2s9.7 3.2 11.7 7.2l40.3 96.9h.2l96.8 40.4c3.7 2.2 7 7.4 7.2 11.7 -.3 4.4 -3.5 9.6 -7.2 11.8l-96.8 40.3h-.2zm712.4 579.6l73.2 30.5 .1 .4c-14.8 33.3 -46.9 56.2 -84.4 56.2h-386c-26.3 0 -60.3 -17.4 -75.7 -38.7L202.5 624.2c-8.2 -11.3 -14.9 -31.9 -14.9 -46 0 -43.1 35 -78.1 78.1 -78.1 22 0 50.3 14.4 63.2 32.1l46.1 63.5V125c0 -34.5 28 -62.5 62.5 -62.5S500 90.5 500 125v296.9c0 8.6 7 15.6 15.6 15.6h31.3c8.6 0 15.6 -7 15.6 -15.6V62.5C562.5 28 590.5 0 625 0s62.5 28 62.5 62.5v359.4c0 8.6 7 15.6 15.6 15.6h31.3c8.6 0 15.6 -7 15.6 -15.6V125c0 -34.5 28 -62.5 62.5 -62.5S875 90.5 875 125v296.9c0 8.6 7 15.6 15.6 15.6h31.3c8.6 0 15.6 -7 15.6 -15.6V281.3c0 -34.5 28 -62.5 62.5 -62.5s62.5 28 62.5 62.5v343.8c0 2.5 -.5 5.2 -.5 7.8 -15.2 7.2 -28.3 18.7 -35.9 33.8l-.9 1.9 -.8 1.9 -30.5 73.2 -73.2 30.6 -2 .8 -1.9 1c-23.1 11.5 -41.7 41.8 -41.7 67.5s18.6 56 41.7 67.5l1.9 1zM683.2 663.1c2.4 -1.2 4.3 -4.3 4.3 -7 0 -2.6 -1.9 -5.8 -4.3 -7L625 624.9l-24.3 -58.2c-1.2 -2.4 -4.3 -4.3 -7 -4.3s-5.7 1.9 -6.9 4.3l-24.3 58.2 -58.2 24.2c-2.4 1.2 -4.3 4.4 -4.3 7 0 2.7 1.9 5.8 4.3 7l58.2 24.3 24.3 58.1c1.2 2.4 4.3 4.3 7 4.3s5.7 -1.9 6.9 -4.3L625 687.4zM1250 843.6l-.1 .1c-.3 4.3 -3.5 9.5 -7.2 11.6l-96.8 40.4h-.2l-40.4 96.9c-2 4 -7.2 7.2 -11.6 7.2s-9.7 -3.2 -11.7 -7.2l-40.3 -96.9h-.2l-96.8 -40.3c-3.7 -2.2 -6.9 -7.4 -7.2 -11.6 .2 -4.4 3.5 -9.6 7.2 -11.8l97 -40.5h.1l40.4 -96.9c2 -4 7.2 -7.2 11.6 -7.2s9.7 3.2 11.7 7.2l40.4 96.9h.1l96.8 40.4c3.8 2.1 7 7.3 7.2 11.7z"/></svg>