<svg height="1000" width="1250" xmlns="http://www.w3.org/2000/svg"><path d="M700.4 382l51 -46.6c5.6 -5.2 10.1 -15.5 10.1 -23.1 0 -17.2 -14 -31.2 -31.2 -31.2 -6.7 0 -16.2 3.6 -21.1 8.2l-52.8 48.2 -63.8 58.4L1238 894.7c6.6 5.2 12 16.3 12 24.7 0 5.9 -2.9 14.5 -6.6 19.2l-38.3 49.3c-5.2 6.7 -16.3 12.1 -24.7 12.1 -5.9 0 -14.5 -2.9 -19.2 -6.6L12.1 105.3C5.4 100.1 0 89.1 0 80.6 0 74.7 3 66.1 6.6 61.4L44.9 12.1C50.1 5.4 61.2 0 69.6 0c5.9 0 14.5 3 19.2 6.6L317.1 183l39.7 -39.6C366.9 133.3 386.7 125 401 125h163.6L417 260.2l50.1 38.8L639.3 141.4c9.8 -9 28.8 -16.4 42.2 -16.4h167.7c14.3 0 34.1 8.3 44.2 18.4L1000 250h218.8c17.1 0 31.1 13.9 31.2 31.1v374.6c-.1 17.2 -14.1 31.2 -31.2 31.2h-190.7c-4.4 -24.8 -23.8 -58 -43.3 -74zM31.3 250H46l747 577.3 -17.2 21.2c-12 14.8 -37.3 26.8 -56.3 26.8 -14.3 0 -34.8 -7.3 -45.8 -16.3l-35 -30.3 -.4 .4c-20.7 25.5 -64.2 46.1 -97 46.1 -24.5 0 -59.8 -12.5 -78.8 -27.9l-176.8 -160H31.2C14 687.3 0 673.3 0 656.1V281.3C.1 264.1 14.1 250.1 31.2 250z"/></svg>