<svg height="1000" width="1000" xmlns="http://www.w3.org/2000/svg"><path d="M937.4 619.4l.1 161.8c0 120.7 -98 218.7 -218.7 218.8H298.9c-50 0 -119.3 -28.7 -154.6 -64.1L83.8 875.5C72.1 863.7 62.5 840.6 62.5 824V680.5c0 -24.9 18.1 -54.1 40.3 -65.3l53.5 -29.3v148.5c0 8.6 7 15.6 15.6 15.6s15.6 -7 15.6 -15.6V447.2c0 -29.8 25.1 -55.4 60.3 -61.3l59.9 -10c34.8 -5.8 67.3 16.4 67.3 46v62.5c0 8.6 7 15.6 15.6 15.6s15.7 -7 15.7 -15.6V93.7C406.3 42 448.3 0 500 0c.8 0 2.1 0 2.9 0 51.3 1.6 90.9 46.3 90.9 97.7v386.7c0 8.6 7 15.6 15.6 15.6S625 493 625 484.4v-62.5c0 -29.6 32.5 -51.8 67.3 -46l75 12.5c26.3 4.4 45.2 23.6 45.2 46v96.8l69.6 17.5c30.5 7.6 55.2 39.3 55.3 70.7z"/></svg>