<svg height="1000" width="1000" xmlns="http://www.w3.org/2000/svg"><path d="M997.9 283.7L864.5 843.9C843.9 930.1 755.4 1000 666.9 1000H418.1c-58.1 0 -139.7 -32.3 -182 -72.2L24.6 728.8C11.1 716 .1 690.6 .1 672c0 -43.2 35 -78.1 78.1 -78.1 17.1 0 41 9.4 53.4 21.1L250 726.4c0 -44.3 -10.2 -114.7 -22.8 -157.2L143.8 287.8c-1.8 -6 -3.2 -15.9 -3.2 -22.2 0 -43.1 35 -78.1 78.1 -78.1 32.3 0 65.8 25.1 75 55.9l72.5 245c1.9 6.4 8.9 11.6 15.6 11.6 9 0 16.3 -7.3 16.3 -16.3 0 -1.1 -.2 -2.9 -.5 -4L299.3 97.6c-1.3 -5.3 -2.4 -14 -2.4 -19.5C296.9 35 331.9 0 375 0c33.4 0 67.3 26.3 75.6 58.6l109.6 426.1c2.2 8.5 11 15.3 19.7 15.3 9.2 0 18.1 -7.3 20 -16.3l73.6 -358.8c7.1 -34.4 41.4 -62.4 76.6 -62.4 6.6 0 17.2 1.7 23.6 3.7 38.7 12.3 60.2 54 52.1 93.9l-66.1 322.2c-.2 .8 -.3 2.1 -.3 3 0 8.1 6.6 14.7 14.7 14.7 6.4 0 12.9 -5.1 14.4 -11.3l57.4 -241.2c7.9 -33.1 41.9 -60 76 -60 43.1 0 78.1 35 78.1 78.1 0 5.1 -1 13.2 -2.1 18.1z"/></svg>