<svg height="1000" width="875" xmlns="http://www.w3.org/2000/svg"><path d="M798.4 250c42.4 .8 76.6 35.5 76.6 78.1v293.7c0 24 -4.5 62.5 -10 85.9l-51.7 220c-10 42.4 -47.8 72.3 -91.3 72.3H336.1c-26.4 0 -60.3 -17.3 -75.8 -38.6L14.9 624.1C-10.4 589.2 -2.7 540.3 32.2 514.9c34.9 -25.3 83.7 -17.6 109.1 17.3l61.8 85v-461c0 -42.6 34.2 -77.2 76.6 -78.1 43.8 -.8 79.7 35.9 79.7 79.7V500H375V78.1C375 35.5 409.2 .8 451.6 0c43.8 -.8 79.6 35.9 79.6 79.7V500h15.7V154.3c0 -42.6 34.1 -77.3 76.6 -78.1 43.8 -.9 79.6 35.8 79.6 79.6V500h15.6V329.7c0 -43.8 35.9 -80.5 79.7 -79.7z"/></svg>