<svg height="1000" width="1000" xmlns="http://www.w3.org/2000/svg"><path d="M421.9 859.4c0 -43.2 35 -78.1 78.1 -78.1v-15.7h-62.5c-43.1 0 -78.1 -35 -78.1 -78.1s35 -78.1 78.1 -78.1H500v-15.6H93.8C42 593.8 0 551.8 0 500s42 -93.7 93.8 -93.7H500v-26.6L153.2 243.5C105 224.6 81.3 170.2 100.2 122c19 -48.2 73.4 -71.9 121.6 -53l371.7 146 48.6 -60.7c24.1 -30 66.4 -38.1 99.8 -19l218.7 125c21.8 12.4 39.4 42.8 39.4 67.8v468.8c0 36.2 -24.9 67.7 -60.2 76l-265.7 62.5c-4.8 1.2 -12.8 2.1 -17.8 2.1H500c-43.1 0 -78.1 -35 -78.1 -78.1z"/></svg>