<svg height="1000" width="1250" xmlns="http://www.w3.org/2000/svg"><path d="M849 125c16.6 0 32.6 6.6 44.2 18.4L999.8 250v377.9c-4.7 -5.2 -9.8 -10.3 -15.4 -15L700 382l51 -46.6c12.7 -11.8 13.6 -31.5 1.9 -44.2 -11.5 -12.7 -31.4 -13.5 -44.1 -1.9L552.7 432.2c-.2 .2 -.6 .2 -.7 .4 -32.7 29.1 -84.8 21.9 -109.6 -5.3C414.6 397.1 414.1 348.4 446.5 318c.2 -.2 .4 -.6 .6 -.8l192 -175.8C650.6 130.9 665.6 125 681.2 125H849zm213.5 125.4H1250v499.8h-125c-34.6 0 -62.5 -27.9 -62.5 -62.5V250.4zm93.8 437.3c17.1 0 31.2 -14.1 31.2 -31.3 0 -17.1 -14.1 -31.2 -31.2 -31.2s-31.3 14.1 -31.3 31.2c0 17.2 14.1 31.3 31.3 31.3zM0 750V250.4h187.5v437.1c0 34.6 -27.9 62.5 -62.5 62.5H0zM93.8 625.2c-17.2 0 -31.3 13.9 -31.3 31.2 0 17.2 14.1 31.3 31.3 31.3S125 673.6 125 656.4c0 -17.1 -14.1 -31.2 -31.2 -31.2zm851.3 36.3c26.8 21.9 30.9 61.2 9 88.1l-18.6 22.9c-21.6 26.9 -61.1 30.8 -87.8 9.1L837.1 773l-61.3 75.4c-25.2 31.1 -71.1 36 -102.2 10.6l-34.9 -30.3 -.4 .4C594.7 882.6 516 890.8 462.5 847.3l-176.8 -160H250V250L356.8 143.4C368.6 131.6 384.4 125 401 125h163.6L404.9 271.3c-57 52.3 -61.2 141.2 -8.6 198.6 51.7 56.5 140.6 61.5 198.6 8.6l58.6 -53.7z"/></svg>