<svg height="1000" width="1250" xmlns="http://www.w3.org/2000/svg"><path d="M453.1 312.5h31.3c8.6 0 15.6 7 15.6 15.6v234.4h-62.5V328.1c0 -8.6 7 -15.6 15.6 -15.6zm-125 0h31.3c8.6 0 15.6 7 15.6 15.6v234.4h-62.5V328.1c0 -8.6 7 -15.6 15.6 -15.6zm437.5 0h31.3c8.6 0 15.6 7 15.6 15.6v234.4H750V328.1c0 -8.6 7 -15.6 15.6 -15.6zm125 0h31.3c8.6 0 15.6 7 15.6 15.6v234.4H875V328.1c0 -8.6 7 -15.6 15.6 -15.6zm171.9 15.6v234.4H1000V328.1c0 -8.6 7 -15.6 15.6 -15.6h31.3c8.6 0 15.6 7 15.6 15.6zM203.1 312.5h31.3c8.6 0 15.6 7 15.6 15.6v234.4h-62.5V328.1c0 -8.6 7 -15.6 15.6 -15.6zm1015.7 0c17.2 0 31.2 14 31.2 31.3v218.7c0 103.6 -83.9 187.5 -187.5 187.5h-375v125h343.8c17.2 0 31.2 14 31.2 31.3v62.5c0 17.2 -14 31.2 -31.2 31.2H218.8c-17.3 0 -31.3 -14 -31.3 -31.2v-62.5c0 -17.3 14 -31.3 31.3 -31.3h343.7V750h-375C83.9 750 0 666.1 0 562.5V343.8c0 -17.3 14 -31.3 31.3 -31.3h62.5c17.2 0 31.2 14 31.2 31.3v218.7c0 34.5 28 62.5 62.5 62.5h375V250c0 -17.3 14 -31.2 31.3 -31.2h62.5c17.2 0 31.2 13.9 31.2 31.2v375h375c34.5 0 62.5 -28 62.5 -62.5V343.8c0 -17.3 14 -31.3 31.3 -31.3h62.5zM1187.5 250c-25.9 0 -46.9 -23.3 -46.9 -52.1s46.9 -104.1 46.9 -104.1 46.9 75.3 46.9 104.1c0 28.8 -21 52.1 -46.9 52.1zm-1125 0C36.6 250 15.6 226.7 15.6 197.9S62.5 93.8 62.5 93.8s46.9 75.3 46.9 104.1c0 28.8 -21 52.1 -46.9 52.1zM625 156.3c-25.9 0 -46.9 -23.4 -46.9 -52.1S625 0 625 0s46.9 75.4 46.9 104.2c0 28.7 -21 52.1 -46.9 52.1zM218.8 250c-25.9 0 -46.9 -23.3 -46.9 -52.1S218.8 93.8 218.8 93.8s46.8 75.3 46.8 104.1c0 28.8 -21 52.1 -46.8 52.1zm125 0c-25.9 0 -46.9 -23.3 -46.9 -52.1S343.8 93.8 343.8 93.8s46.8 75.3 46.8 104.1c0 28.8 -21 52.1 -46.8 52.1zm125 0c-25.9 0 -46.9 -23.3 -46.9 -52.1S468.8 93.8 468.8 93.8s46.8 75.3 46.8 104.1c0 28.8 -21 52.1 -46.8 52.1zm312.5 0c-25.9 0 -46.9 -23.3 -46.9 -52.1S781.3 93.8 781.3 93.8s46.8 75.3 46.8 104.1c0 28.8 -21 52.1 -46.8 52.1zm125 0c-25.9 0 -46.9 -23.3 -46.9 -52.1S906.3 93.8 906.3 93.8s46.8 75.3 46.8 104.1c0 28.8 -21 52.1 -46.8 52.1zm125 0c-25.9 0 -46.9 -23.3 -46.9 -52.1s46.9 -104.1 46.9 -104.1 46.8 75.3 46.8 104.1c0 28.8 -21 52.1 -46.8 52.1z"/></svg>