<svg height="1000" width="875" xmlns="http://www.w3.org/2000/svg"><path d="M860.7 355.7c-1.9 10.6 -12.3 19.3 -23.1 19.3H683.1l-44.6 250h146.1c14.6 0 25.6 13.2 23.1 27.6l-14 78.1c-1.9 10.6 -12.2 19.3 -23.1 19.3H616.2l-30.1 168.2c-1.9 10.6 -12.2 19.3 -23 19.3h-79.4c-14.6 0 -25.6 -13.2 -23.1 -27.6L489.2 750H296.5l-30 168.2c-1.9 10.6 -12.2 19.3 -23.1 19.3h-79.3c-14.6 0 -25.7 -13.2 -23.1 -27.6L169.6 750H23.4C8.9 750 -2.2 736.8 .4 722.4l13.9 -78.1C16.2 633.7 26.6 625 37.4 625h154.5l44.6 -250H90.4C75.8 375 64.8 361.8 67.3 347.4l14 -78.1C83.2 258.7 93.5 250 104.4 250h154.4L288.9 81.8c1.9 -10.6 12.2 -19.3 23 -19.3h79.4c14.6 0 25.6 13.2 23.1 27.6L385.8 250h192.7l30 -168.2c1.9 -10.6 12.2 -19.3 23.1 -19.3h79.3c14.6 0 25.7 13.2 23.1 27.6L705.4 250h146.2c14.5 0 25.6 13.2 23 27.6zM511.5 625l44.6 -250H363.5l-44.6 250h192.6z"/></svg>