<svg height="1000" width="1000" xmlns="http://www.w3.org/2000/svg"><path d="M968.8 875c17.2 0 31.2 14 31.2 31.3v62.5c0 17.2 -14 31.2 -31.2 31.2H31.3C14 1000 0 986 0 968.8v-62.5C0 889 14 875 31.3 875h937.5zM375 750l31.3 62.5H125L341.7 324.9c18.4 -41.3 65.2 -93.1 104.4 -115.5L812.5 0l-110 329.9c-3.5 10.6 -6.4 28.4 -6.4 39.6 0 14.1 4.5 36.2 10.1 49.2L875 812.5H468.8L500 750l125 -62.5L500 625 437.5 500 375 625l-125 62.5zM500 312.5l-62.5 31.3L500 375l31.3 62.5L562.5 375 625 343.8l-62.5 -31.3L531.3 250z"/></svg>