<svg height="1000" width="1250" xmlns="http://www.w3.org/2000/svg"><path d="M957 579.9C881.3 604.5 774 625 625 625S368.8 604.4 293 579.8C311.6 467.7 370.2 125 483.8 125c27.4 0 51.8 11.7 72.3 27.3 16.8 12.9 47.7 23.3 68.9 23.3s52.1 -10.4 68.9 -23.3c20.6 -15.7 45 -27.3 72.3 -27.3 113.7 0 172.3 342.8 190.8 454.9zm279.1 -72.6c7.7 5.1 13.9 16.7 13.9 25.9 0 3.1 -.9 7.9 -2 10.8 -1.4 3.9 -151 393.5 -623 393.5S3.4 548 2 544C.9 541.1 .1 536.3 .1 533.3 .1 516 14.1 502 31.3 502c6.6 0 16 3.6 20.9 8.1 2 1.7 200.1 177.4 572.8 177.4 374.8 0 570.6 -175.5 572.6 -177.3 4.9 -4.6 14.4 -8.2 21.1 -8.2 5.3 0 13.1 2.3 17.4 5.3z"/></svg>