<svg height="1000" width="1250" xmlns="http://www.w3.org/2000/svg"><path d="M509.4 568.5l191.4 165c152.7 131.6 253.9 204 455.4 204H89.6c-27.4 0 -53 -14.7 -70.1 -40.3C2 870.9 -4.1 837.2 2.8 804.8 41.9 622.5 169.9 500 321.1 500c67.2 0 132.4 23.7 188.3 68.5zm458.3 -35.7c224.5 15.4 282.3 198.9 282.3 248.5 0 51.7 -42 93.7 -93.7 93.7C966.6 875 880.4 805.7 741.6 686.1l-191.4 -165C481.3 465.9 402.7 437.5 321.1 437.5c-13.9 0 -27.1 2.3 -40.6 3.9L293.9 314c5.4 -49.7 49.4 -98.5 98.4 -108.9l373.3 -79.3c7.1 -1.5 18.8 -2.7 26 -2.7 58.2 0 113.4 46.5 123.2 103.9z"/></svg>