<svg height="1000" width="1000" xmlns="http://www.w3.org/2000/svg"><path d="M312.5 562.5c34.5 0 62.5 28 62.5 62.6v249.8c0 34.6 -28 62.6 -62.5 62.6h-31.2c-69.1 0 -125 -56.1 -125 -125.2V687.7c0 -69.1 55.9 -125.2 125 -125.2h31.2zm406.3 0c69 0 125 56.1 125 125.2v124.6c0 69.1 -56 125.2 -125 125.2h-31.3c-34.5 0 -62.5 -28 -62.5 -62.6V625.1c0 -34.6 28 -62.6 62.5 -62.6h31.3zM500 62.5c279.5 0 491.1 232.7 500 500v218.8c0 17.2 -14 31.2 -31.2 31.2h-31.3c-17.3 0 -31.2 -14 -31.2 -31.2V562.5C906.3 338.5 724 156.6 500 156.6S93.8 338.5 93.8 562.5v218.8c0 17.2 -14 31.2 -31.3 31.2H31.3C14 812.5 0 798.5 0 781.3V562.5C8.9 295.2 220.5 62.5 500 62.5z"/></svg>