<svg height="1000" width="1000" xmlns="http://www.w3.org/2000/svg"><path d="M875 187.5v625h62.5c17.3 0 31.3 14 31.3 31.3v62.5c0 17.2 -14 31.2 -31.3 31.2H625c-17.3 0 -31.2 -14 -31.2 -31.2v-62.5c0 -17.3 13.9 -31.3 31.2 -31.3h62.5v-250h-375v250H375c17.3 0 31.3 14 31.3 31.3v62.5c0 17.2 -14 31.2 -31.3 31.2H62.5c-17.3 0 -31.2 -14 -31.2 -31.2v-62.5c0 -17.3 13.9 -31.3 31.2 -31.3H125v-625H62.5c-17.3 0 -31.2 -14 -31.2 -31.2V93.8c0 -17.3 13.9 -31.3 31.2 -31.3H375c17.3 0 31.3 14 31.3 31.3v62.5c0 17.2 -14 31.2 -31.3 31.2h-62.5v250h375v-250H625c-17.3 0 -31.2 -14 -31.2 -31.2V93.8c0 -17.3 13.9 -31.3 31.2 -31.3h312.5c17.3 0 31.3 14 31.3 31.3v62.5c0 17.2 -14 31.2 -31.3 31.2H875z"/></svg>