<svg height="1000" width="1250" xmlns="http://www.w3.org/2000/svg"><path d="M886.9 623.5l351 271.2c6.7 5.2 12.1 16.3 12.1 24.7 0 5.9 -2.9 14.5 -6.6 19.2l-38.3 49.3c-5.2 6.7 -16.3 12.1 -24.7 12.1 -5.9 0 -14.5 -2.9 -19.2 -6.6L12.1 105.3C5.4 100.1 0 89.1 0 80.6 0 74.7 2.9 66.1 6.6 61.4L44.9 12.1C50.1 5.4 61.2 0 69.6 0c5.9 0 14.5 3 19.2 6.6L164.4 65C216.9 29.1 311.1 0 374.7 0h82.5c116.3 .1 265.1 77.3 332.1 172.4 48 68.3 101.8 272.7 142.8 364.7 16.6 37.5 -7 78.9 -45.2 86.4zM612.1 411c7.5 -10.3 12.9 -22.3 12.8 -36 0 -34.4 -28 -62.4 -62.5 -62.5 -19.4 0 -36.1 9.5 -47.5 23.4zm591 182.8c-25.8 0 -46.8 -21 -46.8 -46.9s21 -46.9 46.8 -46.9 46.9 21 46.9 46.9 -21 46.9 -46.9 46.9zm-125 125c-25.8 0 -46.8 -21 -46.8 -46.9s21 -46.9 46.8 -46.9 46.9 21 46.9 46.9 -21 46.9 -46.9 46.9zM562.5 750c0 34.5 28 62.5 62.5 62.5h187.5c0 69 -56 125 -125 125h-125v62.5H125V654.1C48.3 585.2 0 485.8 0 375 0 325.7 18.2 250.1 40.5 206.2l622.7 481.3H625c-34.5 0 -62.5 28 -62.5 62.5zm640.6 -46.9c25.9 0 46.9 21 46.9 46.9s-21 46.9 -46.9 46.9 -46.8 -21 -46.8 -46.9 21 -46.9 46.8 -46.9z"/></svg>