<svg height="1000" width="1000" xmlns="http://www.w3.org/2000/svg"><path d="M500 62.5c276.4 0 500 223.7 500 500v93.8c0 21.3 -15.5 46.3 -34.6 55.9l-28 14c-4 117.4 -100.3 211.3 -218.7 211.3h-46.8c-25.9 0 -46.9 -21 -46.9 -46.9V546.9C625 521 646 500 671.9 500h46.8c61.3 0 116.6 25.2 156.3 65.7v-3.2c0 -206.8 -168.2 -375 -375 -375s-375 168.2 -375 375v3.2C164.7 525.2 220 500 281.2 500h46.9c25.9 0 46.9 21 46.9 46.9v343.7c0 25.9 -21 46.9 -46.9 46.9h-46.9C162.9 937.5 66.6 843.6 62.6 726.2l-28.1 -14C15.5 702.6 0 677.6 0 656.3v-93.8C0 286.1 223.7 62.5 500 62.5z"/></svg>