<svg height="1000" width="1250" xmlns="http://www.w3.org/2000/svg"><path d="M1203.1 593.8c-25.8 0 -46.8 -21 -46.8 -46.9s21 -46.9 46.8 -46.9 46.9 21 46.9 46.9 -21 46.9 -46.9 46.9zm-125 218.7c25.9 0 46.9 21 46.9 46.9s-21 46.9 -46.9 46.9 -46.8 -21 -46.8 -46.9 21 -46.9 46.8 -46.9zm-125 -109.4c25.9 0 46.9 21 46.9 46.9s-21 46.9 -46.9 46.9 -46.8 -21 -46.8 -46.9 21 -46.9 46.8 -46.9zm250 203.2c25.9 0 46.9 21 46.9 46.8s-21 46.9 -46.9 46.9 -46.8 -21 -46.8 -46.9 21 -46.8 46.8 -46.8zm0 -203.2c25.9 0 46.9 21 46.9 46.9s-21 46.9 -46.9 46.9 -46.8 -21 -46.8 -46.9 21 -46.9 46.8 -46.9zm-125 -78.1c25.9 0 46.9 21 46.9 46.9s-21 46.9 -46.9 46.9 -46.8 -21 -46.8 -46.9 21 -46.9 46.8 -46.9zm-146 -87.9c2.9 6.7 5.4 18.1 5.4 25.4 0 34.5 -28 62.5 -62.5 62.5h-62.5v62.5H625c-34.5 0 -62.5 28 -62.5 62.5s28 62.5 62.5 62.5h187.5c0 69 -56 125 -125 125h-125v62.5H125V654.1C48.3 585.2 0 485.8 0 375 0 168 168 0 375 0h82.2c116.3 .1 265.1 77.3 332.1 172.4 48 68.3 101.8 272.7 142.8 364.7zM562.5 437.5c34.4 -.1 62.4 -28.1 62.5 -62.5 0 -34.5 -28 -62.5 -62.5 -62.5S500 340.5 500 375s28 62.5 62.5 62.5z"/></svg>