<svg height="1000" width="1000" xmlns="http://www.w3.org/2000/svg"><path d="M375 406.3V625c0 34.5 -28 62.5 -62.5 62.5h-31.2c-69.1 0 -125 -56 -125 -125v-93.7c0 -69.1 55.9 -125 125 -125h31.2c34.5 0 62.5 27.9 62.5 62.5zm343.8 281.2h-31.3C653 687.5 625 659.5 625 625V406.3c0 -34.6 28 -62.5 62.5 -62.5h31.3c69 0 125 55.9 125 125v93.7c0 69 -56 125 -125 125zM500 0c278.9 0 491.1 232.1 500 500v323.7c0 97.4 -78.9 176.3 -176.3 176.3h-355C417 1000 375 958 375 906.3s42 -93.8 93.7 -93.8h62.5c51.8 0 93.8 42 93.8 93.8h198.7c45.6 0 82.6 -37 82.6 -82.6 0 0 -.1 -319 -.3 -323.7h.3C906.3 276 724 93.8 500 93.8S93.8 276 93.8 500v31.3c0 17.2 -14 31.2 -31.3 31.2H31.3C14 562.5 0 548.5 0 531.3V500C8.9 232.1 221.1 0 500 0z"/></svg>