<svg height="1000" width="1000" xmlns="http://www.w3.org/2000/svg"><path d="M531.3 468.8c17.2 0 31.2 13.9 31.2 31.2s-14 31.3 -31.2 31.3S500 517.3 500 500s14 -31.2 31.3 -31.2zm-125 -125c17.2 0 31.2 13.9 31.2 31.2s-14 31.3 -31.2 31.3S375 392.3 375 375s14 -31.2 31.3 -31.2zm588.2 193.3c3 6.7 5.4 18.1 5.4 25.4C999.9 597 972 625 937.5 625H875v125c0 69 -56 125 -125 125H625v125H125V653.9C56 592.4 0 467.5 0 375.1v-.1C0 168 168 0 375 0h144.7c116.4 0 265.2 77.2 332.1 172.4 48.1 68.4 101.9 272.7 142.7 364.7zM718.8 468.8c17.2 0 31.2 -14 31.2 -31.3s-14 -31.2 -31.2 -31.2h-23.7c-55.7 0 -83.6 -67.4 -44.2 -106.7l16.7 -16.8c5.1 -5 9.2 -14.9 9.2 -22.1 0 -17.2 -14 -31.2 -31.3 -31.2 -7.1 0 -17 4.1 -22.1 9.1l-16.7 16.8C567.3 294.7 500 266.9 500 211.2v-23.7c0 -17.3 -14 -31.3 -31.3 -31.3s-31.2 14 -31.2 31.3v23.7c0 55.7 -67.3 83.5 -106.7 44.2l-16.7 -16.8c-5.1 -5 -15 -9.1 -22.1 -9.1 -17.3 0 -31.3 14 -31.3 31.2 0 7.2 4.1 17.1 9.2 22.1l16.7 16.8c39.4 39.3 11.5 106.7 -44.2 106.7h-23.7c-17.2 0 -31.2 13.9 -31.2 31.2s14 31.3 31.2 31.3h23.7c55.7 0 83.6 67.3 44.2 106.6l-16.7 16.8c-5.1 5 -9.2 14.9 -9.2 22.1 0 17.2 14 31.2 31.3 31.2 7.1 0 17 -4.1 22.1 -9.1l16.7 -16.8c39.4 -39.3 106.7 -11.5 106.7 44.2v23.7c0 17.3 14 31.3 31.2 31.3s31.3 -14 31.3 -31.3v-23.7c0 -55.7 67.3 -83.5 106.7 -44.2l16.7 16.8c5.1 5 15 9.1 22.1 9.1 17.3 0 31.3 -14 31.3 -31.2 0 -7.2 -4.1 -17.1 -9.2 -22.1l-16.7 -16.8C611.5 536.1 639.4 468.8 695.1 468.8h23.7z"/></svg>