<svg height="1000" width="1000" xmlns="http://www.w3.org/2000/svg"><path d="M.3 360.2c.7 -15.3 3.8 -40 6.9 -55l430.3 313V1000H125V654.1C44.9 582.1 -4.2 477 .3 360.2zm994.3 176.9c2.7 6.4 4.9 17.2 4.9 24.2 0 .3 0 .9 0 1.2H467.2L25.9 241.5C83 98.8 228.5 0 390.6 0h129.1C636 .1 784.8 77.3 851.8 172.4c48 68.3 101.8 272.7 142.8 364.7zM625 437.5c34.4 -.1 62.4 -28.1 62.5 -62.5 0 -34.5 -28 -62.5 -62.5 -62.5s-62.5 28 -62.5 62.5 28 62.5 62.5 62.5zm31.3 281.3C639 718.8 625 732.7 625 750s14 31.3 31.3 31.3h291.6l-20.8 62.5H656.3C639 843.8 625 857.7 625 875s14 31.3 31.3 31.3h250l-2.8 8.2c-15.7 47.2 -68.9 85.5 -118.6 85.5H500V625h500l-31.3 93.8H656.2z"/></svg>