<svg height="1000" width="1000" xmlns="http://www.w3.org/2000/svg"><path d="M625.4 476.2l43.2 86.3h213L525 926.8c-13.9 14.2 -36.3 14.2 -50.2 0L118.4 562.5h183.7l58.6 -140 111.2 246.6c10.7 24.1 44.7 24.8 56.4 1.2zM925.2 144.3c95.1 97.3 99.2 252.2 14.3 355.7H707.2L653.3 392.2c-11.5 -23.1 -44.3 -23.1 -55.8 0l-95.7 191.2L388.1 330.9c-11.3 -25 -46.9 -24.5 -57.4 .7L260.5 500h-200C-24.4 396.5 -20.3 241.6 74.8 144.3l4.7 -4.7c100.6 -102.9 265.4 -102.9 366 0l54.5 55.7 54.5 -55.8c100.8 -102.8 265.4 -102.8 366 0z"/></svg>