<svg height="1000" width="1250" xmlns="http://www.w3.org/2000/svg"><path d="M593.8 750c-17.3 0 -39.7 -11.2 -50 -25L375 500 62.5 375 1 163.8C-4 144.1 10.9 125 31.3 125h78.1c9.8 0 19.1 4.6 25 12.5L218.7 250H625V125H281.2C264 125 250 111 250 93.8V31.3C250 14 264 0 281.2 0h812.5c17.3 0 31.3 14 31.3 31.3v62.5c0 17.2 -14 31.2 -31.3 31.2H750v125c241.6 0 437.5 195.9 437.5 437.5 0 34.5 -28 62.5 -62.5 62.5H593.7zM812.5 381.9V625h243.7C1031.3 502.8 934.7 406.8 812.5 381.9zM1241 896.1c12.8 12.9 11.8 34.2 -2 46.2 -64.7 56.8 -104.6 57.7 -133.6 57.7H468.8c-17.3 0 -31.3 -14 -31.3 -31.3v-62.6c0 -17.3 14 -31.4 31.3 -31.4h636.6c21 0 34.2 -8.7 48.1 -21.9 12.5 -12 32 -12.3 44.2 0z"/></svg>