<svg height="1000" width="750" xmlns="http://www.w3.org/2000/svg"><path d="M158.1 922.3l67.5 -269.9 103.1 103 -49.3 197.3c-7.1 28.3 -32.6 47.3 -60.6 47.3 -5 0 -10.1 -.6 -15.2 -1.9 -33.5 -8.3 -53.9 -42.3 -45.5 -75.8zm29.1 -383c-4.3 16.4 -21.7 26.4 -38.8 22.3L24.2 531.8C7.1 527.7 -3.3 511.1 1 494.6L50.3 302.9c21.4 -82.2 108.3 -132.2 194 -111.6 17.1 4.1 27.6 20.8 23.3 37.2zM718.8 312.5c17.2 0 31.2 14 31.2 31.3v625c0 17.2 -14 31.2 -31.3 31.2h-31.2c-17.3 0 -31.3 -14 -31.3 -31.2V500h-93.7c-16.6 0 -32.5 -6.6 -44.2 -18.3l-43.8 -43.8 -38.9 155.4c-.2 1 -.9 1.8 -1.2 2.8l91.5 91.4c23.6 23.6 36.6 55 36.6 88.4v161.6c0 34.5 -28 62.5 -62.5 62.5s-62.5 -28 -62.5 -62.5V775.9L268.3 606.7C258.2 596.6 250 576.8 250 562.5c0 -4.3 .8 -11 1.9 -15.2L304.5 337c12.8 -51.3 58.6 -87 111.3 -87 30.7 0 59.6 11.9 81.2 33.6l91.4 91.4h67.9v-31.3c0 -17.2 13.9 -31.2 31.2 -31.2h31.3zm-250 -125C417 187.5 375 145.5 375 93.8S417 0 468.8 0s93.7 42 93.7 93.8 -42 93.7 -93.7 93.7z"/></svg>