<svg height="1000" width="1250" xmlns="http://www.w3.org/2000/svg"><path d="M1135 187.9c66.6 .4 115 65.8 115 132.4V500c0 34.5 -28 62.5 -62.5 62.5V625c0 17.3 -14 31.2 -31.3 31.2h-62.5c-17.2 0 -31.2 -13.9 -31.2 -31.2v-62.5h-250v343.7c0 17.3 -14 31.3 -31.3 31.3h-125c-17.2 0 -31.2 -14 -31.2 -31.3V768c-63.2 28 -138.1 44.5 -218.8 44.5S250.7 796 187.5 768v138.2c0 17.3 -14 31.3 -31.3 31.3h-125C14 937.5 0 923.5 0 906.2V437.5C0 264.9 167.9 125 375 125c96.2 0 183.6 30.4 250 80v-95.6c0 -25.9 21 -46.9 46.9 -46.9h31.2c25.9 0 46.9 21 46.9 46.9v27.1c19.6 -7 40.5 -11.5 62.5 -11.5 77.8 0 144.5 47.4 172.9 114.9 47.1 -17.7 95.6 -52.3 149.6 -52zM875 343.8c17.3 0 31.3 -14 31.3 -31.3s-14 -31.2 -31.3 -31.2 -31.2 13.9 -31.2 31.2 13.9 31.3 31.2 31.3z"/></svg>