<svg height="1000" width="1000" xmlns="http://www.w3.org/2000/svg"><path d="M984.4 499.1c.5 266.9 -217.2 485.1 -484 485.3C385.1 984.5 279.2 944.3 196 877.1c-21.6 -17.4 -23.2 -49.9 -3.6 -69.5l22 -22c16.8 -16.8 43.7 -18.7 62.3 -3.9 61.3 48.6 138.9 77.7 223.3 77.7 198.6 0 359.4 -160.8 359.4 -359.4C859.4 301.4 698.6 140.6 500 140.6c-95.3 0 -181.9 37.1 -246.2 97.5l99.1 99.2c19.7 19.7 5.7 53.3 -22.1 53.3H46.9c-17.3 0 -31.3 -14 -31.3 -31.2v-284C15.6 47.6 49.3 33.7 69 53.3l96.4 96.5C252.4 66.7 370.2 15.6 500 15.6c267.2 0 483.9 216.4 484.4 483.5zM631 653c-15.9 20.4 -45.3 24.1 -65.7 8.2L437.5 561.8V296.9c0 -25.9 21 -46.9 46.9 -46.9h31.2c25.9 0 46.9 21 46.9 46.9v203.8l79.5 61.8c20.4 15.9 24.1 45.4 8.2 65.8z"/></svg>