<svg height="1000" width="875" xmlns="http://www.w3.org/2000/svg"><path d="M281.3 375c-51.8 0 -93.8 -42 -93.8 -93.7s42 -93.8 93.8 -93.8 93.7 42 93.7 93.8S333 375 281.3 375zM500 281.3c0 -51.8 42 -93.8 93.8 -93.8s93.7 42 93.7 93.8 -42 93.7 -93.7 93.7S500 333 500 281.3zm-62.5 -93.8c-51.8 0 -93.7 -42 -93.7 -93.7S385.7 0 437.5 0s93.8 42 93.8 93.8 -42 93.7 -93.8 93.7zm-31.6 271.7c-.8 77.7 14.4 152.5 44.7 219.3 7.8 17.4 -3.9 37.5 -22.9 39.5 -29.7 2.9 -59.3 9 -88.4 17.7 -29.1 8.8 -46.5 38.9 -39.5 68.6s16.6 58.4 28.7 85.5c7.8 17.4 -3.7 37.7 -22.6 39.5 -70.2 6.6 -139.9 29.1 -204.7 66.2C77 1009.4 47.5 992.4 47.3 964.3 47.1 889.6 31.6 818 2.3 753.9c-7.8 -17.4 4 -37.5 22.9 -39.4 29.7 -3 59.4 -9 88.5 -17.8s46.5 -38.9 39.4 -68.6c-7 -29.7 -16.6 -58.4 -28.7 -85.5 -7.8 -17.4 3.7 -37.7 22.7 -39.5 72.8 -6.8 145.3 -31 212.3 -70.7 20.9 -12.5 46.7 2.6 46.5 26.8zm443.7 254.9c19 1.9 30.9 22.2 22.5 39.2 -29.3 63.9 -44.6 135.8 -45 210.4 0 28.1 -29.4 45.1 -53.9 31.2C708.4 957.8 638.7 935.4 568.6 928.7c-19 -1.7 -30.5 -22.1 -22.7 -39.4 12.1 -27.4 21.7 -55.9 28.7 -85.6 7 -29.7 -10.3 -59.8 -39.4 -68.5 -9.6 -3 -19.4 -4.9 -28.9 -7.3 11.3 -24 12.3 -51.7 1.1 -75.9C482.2 596.7 468.9 533.4 468.6 468.4c0 -3.4 .3 -6.5 .3 -9.6 -.2 -24 25.6 -39.1 46.5 -26.8 67 39.7 139.5 63.9 212.3 70.7 19 1.8 30.5 22.1 22.7 39.5 -12.1 27.3 -21.7 55.8 -28.7 85.5 -7.1 29.7 10.3 59.8 39.4 68.6 29.3 8.6 58.8 14.6 88.5 17.8z"/></svg>