<svg height="1000" width="1125" xmlns="http://www.w3.org/2000/svg"><path d="M547.6 289.6c3.6 -2.9 10.3 -5.3 14.9 -5.3 4.7 0 11.4 2.4 15 5.3l360 296.3v320.4c0 17.2 -14 31.2 -31.3 31.2l-218.7 -.6c-17.3 0 -31.3 -14 -31.3 -31.3 0 0 0 0 0 -.1V718.8c0 -17.3 -14 -31.3 -31.2 -31.3H500c-17.3 0 -31.3 14 -31.3 31.3v186.9c0 17.1 -13.9 31.1 -31.1 31.2l-218.9 .6c-17.2 0 -31.2 -14 -31.2 -31.2V586.2zm568.8 201.6c4.8 3.8 8.7 12 8.7 18.1 0 4.7 -2.4 11.3 -5.4 14.9l-49.8 60.6c-3.9 4.7 -12 8.5 -18 8.5 -4.7 0 -11.4 -2.4 -15 -5.4L577.5 209.5c-3.6 -2.9 -10.3 -5.3 -15 -5.3 -4.6 0 -11.3 2.4 -14.9 5.3L88.2 587.9c-3.6 3 -10.3 5.4 -14.9 5.4 -6.2 0 -14.3 -3.9 -18.1 -8.6L5.4 524.2C2.4 520.6 0 513.9 0 509.2c0 -6.1 3.8 -14.2 8.5 -18L502.9 84c14.3 -11.8 41 -21.4 59.5 -21.4 18.6 0 45.3 9.6 59.6 21.4l174.9 143.9V86c0 -12.9 10.5 -23.4 23.4 -23.4h109.4c12.9 0 23.4 10.5 23.4 23.4v270.6z"/></svg>