<svg height="1000" width="1250" xmlns="http://www.w3.org/2000/svg"><path d="M282.2 687.5v-31.2c24 12.8 49 23.8 74.8 32.8zm112.7 -10.4c57.6 20.9 108.2 26.4 147.1 26 -48.4 13.7 -113.7 10.4 -185 -14l37.9 -1.6v-10.4zm798.7 -225c-31.3 0 -56.5 -25.3 -56.5 -56.4 0 -31.1 25.4 -47.8 56.5 -47.8 31.2 0 56.4 16.6 56.4 47.8s-25.4 56.4 -56.4 56.4zm-56.7 235.4V471.7H1250v215.8h-113.1zm-143.9 0V359.4l113.1 -53.3v381.4H993zM932.4 454.3c35.4 35.3 32.6 66 32.8 102.7 0 36.6 2.8 67 -32.8 102.6C897.1 695.1 834 693 834 693s-62.9 2.1 -98.5 -33.4C700 624 702.7 593.6 702.7 557S700 489.8 735.5 454.3C770.9 418.8 834 420.9 834 420.9s62.9 -2.1 98.4 33.4zm-77.7 140.4v-78.9c0 -17.2 -14.3 -21.3 -20.9 -21.3 -6.7 0 -20.9 4.3 -20.9 21.3v78.9c0 7.1 3.5 24.4 20.9 24.4s20.9 -17.3 20.9 -24.4zM647.3 454.3c35.5 35.3 32.6 66 32.6 102.1 0 36.6 2.9 67 -32.6 102.6 -35.4 35.5 -98.5 33.4 -98.5 33.4s-62.9 2.1 -98.4 -33.4C414.8 623.4 417.6 593 417.6 556.4c0 -30.4 -1.8 -56.8 18.1 -85.3C404.5 448 322.5 398 240.6 357.2v106.1c15.6 -26.8 44.4 -43 75.2 -42.8 53.1 0 79.3 36.5 79.3 73.1V677C355.3 662.3 317.6 643 282.4 619.1V524c0 -15.8 -2.9 -29.3 -20.7 -29.3s-21.1 22.1 -21.1 35.6v58.2l-8.8 -7.1C187.1 544.5 153.1 511.9 127.5 483.2v60.6c21.5 19.1 46.1 39.4 75 61.3 12.5 9.5 25.2 18.3 37.9 26.5v55.9H127.3V543.6C-42 391.2 6.6 327.1 6.6 327.1c16.3 -35.7 83.8 -43.3 190.1 -.1l43.9 -20.8v40.5C298.4 375.2 365.4 408.2 440 466c3.2 -4.1 6.7 -8 10.4 -11.7 35.5 -35.5 98.4 -33.4 98.4 -33.4s62.9 -2.1 98.5 33.4zm-520 -94.9l57.1 -26.8C131.8 312.9 85 306.2 58.6 328.5c-7.2 6.1 -26.4 48.1 68.7 154.5V359.4zm442.4 235.3v-78.9c0 -17.2 -14.2 -21.3 -20.9 -21.3s-20.9 4.3 -20.9 21.3v78.9c0 7.1 3.5 24.4 20.9 24.4s20.9 -17.3 20.9 -24.4z"/></svg>