<svg height="1000" width="1000" xmlns="http://www.w3.org/2000/svg"><path d="M149.2 723.2c.3 2.7 .6 7.1 .6 9.8 0 40.7 -33 73.8 -73.8 73.8S2.2 773.7 2.2 733c0 -40.8 33 -73.8 73.8 -73.8 2.9 0 7.6 .3 10.5 .7C-66.3 442.4 188.1 287.8 188.1 287.8c-11.4 84 -16.1 178 -16.1 178 -131.5 81.1 1.8 125.2 77.8 142.4 36.4 99 151.6 179.5 257.1 179.5 3.8 0 7.4 -.4 11.1 -.5l.2 36.8c-193.8 2.7 -310 -56.9 -369 -100.8zm210.9 -640C574.5 -61.2 726.5 188.8 726.5 188.8c-84 -11.5 -178.1 -16.1 -178.1 -16.1C464.3 36 419.9 185.5 404.3 259.2 309.6 297.4 232.7 411.3 232.6 513.4c0 1.7 .3 3.4 .3 5.2l-42.6 .3C187.5 322.7 248.6 206.2 292.6 147.8c-1.6 .1 -4.3 .2 -5.9 .2 -40.9 0 -74.2 -33.2 -74.2 -74.1C212.5 33 245.8 -.2 286.7 -.2c25.7 0 55.7 18.9 66.8 42.1 4 8.3 7.2 22.5 7.2 31.7 0 2.7 -.2 7 -.6 9.6zm594.1 262.1c-8.2 3.9 -22.2 7.1 -31.3 7.1 -1.8 0 -4.6 -.2 -6.3 -.3 164.9 221.6 -95.7 380.1 -95.7 380.1 11.5 -84.1 16 -178.1 16 -178.1C967 474.1 838.2 430 761.8 412.5 724 316.8 609.8 239.1 507 239.1c-5.4 0 -10.7 .5 -15.9 .8l-.3 -43.9c182.8 -2.6 296.3 50.3 358.3 93.2 -.5 -3 -.8 -7.8 -.8 -10.9 0 -40.9 33.2 -74.1 74.1 -74.1 40.9 0 74.1 33.2 74.1 74.1 0 25.9 -18.9 55.9 -42.3 67zM730.6 852v.1c.2 0 .5 0 .6 0 40.9 0 74.1 33.2 74.1 74.1s-33.2 74.1 -74.1 74.1c-25.7 0 -55.7 -18.9 -66.8 -42.1 -3.4 -7.2 -6.6 -19.4 -7.1 -27.4 -218.7 157 -374.8 -99.6 -374.8 -99.6 84.1 11.5 178.1 16.1 178.1 16.1 80.7 131.2 124.8 -1.1 142.1 -77.1C701.2 733.5 781.2 618.5 781.2 513.4c0 -4 -.4 -8 -.6 -12l38.2 -.3c2.5 175.8 -46.4 287.5 -88.2 350.9z"/></svg>