<svg height="1000" width="1125" xmlns="http://www.w3.org/2000/svg"><path d="M1124.8 149.6l.2 151.8c0 23.4 -17.6 49.4 -39.3 58.1l-63.6 25.4c-30.2 12.1 -64.5 -1 -79.1 -30l-36.9 -73.6 -31.3 -13.9v200.1c.1 .4 .2 .8 .2 1.3 0 59.5 -23.9 113.3 -62.5 152.7v347.3c0 17.2 -14 31.2 -31.2 31.2h-125C639 1000 625 986 625 968.8V675L363.3 631.4l-46.5 124.2 51.4 205.6c4.9 19.7 -10 38.8 -30.3 38.8H209c-13.4 0 -27 -10.6 -30.3 -23.7L130.2 782.2c-2.1 -8.3 -3.7 -21.9 -3.7 -30.4 0 -12.5 3.5 -32.1 7.9 -43.8l50.2 -134C148.1 539.8 125 491.5 125 437.5c0 -5.1 1.1 -10 1.5 -15 -19.3 14.2 -32.8 36.1 -32.8 61.9v109.4C93.7 611 79.8 625 62.5 625H31.2C14 625 0 611 0 593.8V484.4C0 389.6 77.1 312.5 171.9 312.5v2.2C206.2 275.4 256.2 250 312.5 250h312.3c0 -138.1 112 -250 250 -250h234.4c9.9 0 17.5 9.1 15.5 18.8 -5.3 25.8 -21.8 46.6 -43.4 59.9 10 10.5 19.4 20.5 26.8 28.3 10.8 11.6 16.7 26.7 16.7 42.6zm-125 37.9c17.3 0 31.3 -14 31.3 -31.2S1017.1 125 999.8 125s-31.2 14 -31.2 31.3 14 31.2 31.2 31.2z"/></svg>