<svg height="1000" width="1250" xmlns="http://www.w3.org/2000/svg"><path d="M937.5 625C834 625 750 541 750 437.5S834 250 937.5 250 1125 334 1125 437.5 1041 625 937.5 625zm93.8 62.5c120.7 0 218.7 98 218.7 218.8 0 .3 0 .8 0 1.2 -.3 51.2 -42.4 92.5 -93.7 92.5H718.8c-51.4 0 -93.5 -41.3 -93.8 -92.5 0 -.4 0 -.9 0 -1.2 0 -120.8 98 -218.8 218.7 -218.8h.2c3.9 0 10 1 13.6 2.1 21.5 7.5 57.3 13.5 80 13.5s58.5 -6 80 -13.5c3.6 -1.1 9.7 -2.1 13.6 -2.1h.2zm-386.9 20.4c-45.2 45.2 -81.9 133.7 -81.9 197.6 0 .6 0 1.7 0 2.3 .3 28.4 14.5 69.7 31.9 92.2H31.2C14 1000 0 986 0 968.8V250c0 -34.5 28 -62.5 62.5 -62.5H125v-125C125 28 153 0 187.5 0H500c34.5 0 62.5 28 62.5 62.5v125H625c34.5 0 62.5 28 62.5 62.5v423.1c-12.9 8.4 -32.2 24 -43.1 34.8zm-363.1 81.2v-78.2c0 -12.9 -10.5 -23.4 -23.5 -23.4h-78.1c-13 0 -23.4 10.5 -23.4 23.4v78.2c0 12.9 10.4 23.4 23.4 23.4h78.1c13 0 23.5 -10.5 23.5 -23.4zm0 -250v-78.2c0 -12.9 -10.5 -23.4 -23.5 -23.4h-78.1c-13 0 -23.4 10.5 -23.4 23.4v78.2c0 12.9 10.4 23.4 23.4 23.4h78.1c13 0 23.5 -10.5 23.5 -23.4zM375 300.8V250h50.8c6.4 0 11.7 -5.3 11.7 -11.7v-39.1c0 -6.4 -5.3 -11.7 -11.7 -11.7H375v-50.8c0 -6.4 -5.3 -11.7 -11.7 -11.7h-39.1c-6.4 0 -11.7 5.3 -11.7 11.7v50.8h-50.8c-6.4 0 -11.7 5.3 -11.7 11.7v39.1c0 6.4 5.3 11.7 11.7 11.7h50.8v50.8c0 6.4 5.3 11.7 11.7 11.7h39.1c6.4 0 11.7 -5.3 11.7 -11.7zm156.3 488.3v-78.2c0 -12.9 -10.5 -23.4 -23.5 -23.4h-78.1c-13 0 -23.4 10.5 -23.4 23.4v78.2c0 12.9 10.4 23.4 23.4 23.4h78.1c13 0 23.5 -10.5 23.5 -23.4zm0 -250v-78.2c0 -12.9 -10.5 -23.4 -23.5 -23.4h-78.1c-13 0 -23.4 10.5 -23.4 23.4v78.2c0 12.9 10.4 23.4 23.4 23.4h78.1c13 0 23.5 -10.5 23.5 -23.4z"/></svg>