<svg height="1000" width="875" xmlns="http://www.w3.org/2000/svg"><path d="M875 960.9v39.1H0v-39.1C0 948 10.5 937.5 23.4 937.5h39.1V234.4c0 -25.9 21 -46.9 46.9 -46.9h171.9V46.9C281.3 21 302.2 0 328.1 0h218.8c25.9 0 46.9 21 46.9 46.9v140.6h171.8c25.9 0 46.9 21 46.9 46.9v703.1h39.1c12.9 0 23.4 10.5 23.4 23.4zM601.6 375h-78.2c-12.9 0 -23.4 10.5 -23.4 23.4v78.2c0 12.9 10.5 23.4 23.4 23.4h78.2c12.9 0 23.4 -10.5 23.4 -23.4v-78.2C625 385.5 614.5 375 601.6 375zM273.4 500h78.2c12.9 0 23.4 -10.5 23.4 -23.4v-78.2C375 385.5 364.5 375 351.6 375h-78.2c-12.9 0 -23.4 10.5 -23.4 23.4v78.2c0 12.9 10.5 23.4 23.4 23.4zm203.2 250h-78.2c-12.9 0 -23.4 10.5 -23.4 23.4v164.1h125V773.4C500 760.5 489.5 750 476.6 750zm125 -187.5h-78.2c-12.9 0 -23.4 10.5 -23.4 23.4v78.2c0 12.9 10.5 23.4 23.4 23.4h78.2c12.9 0 23.4 -10.5 23.4 -23.4v-78.2c0 -12.9 -10.5 -23.4 -23.4 -23.4zM375 585.9c0 -12.9 -10.5 -23.4 -23.4 -23.4h-78.2c-12.9 0 -23.4 10.5 -23.4 23.4v78.2c0 12.9 10.5 23.4 23.4 23.4h78.2c12.9 0 23.4 -10.5 23.4 -23.4v-78.2zM355.5 187.5h50.8v50.8c0 6.4 5.2 11.7 11.7 11.7h39c6.5 0 11.8 -5.3 11.8 -11.7v-50.8h50.7c6.5 0 11.8 -5.3 11.8 -11.7v-39.1c0 -6.4 -5.3 -11.7 -11.8 -11.7h-50.7V74.2c0 -6.4 -5.3 -11.7 -11.8 -11.7h-39c-6.5 0 -11.7 5.3 -11.7 11.7V125h-50.8c-6.5 0 -11.7 5.3 -11.7 11.7v39.1c0 6.4 5.2 11.7 11.7 11.7z"/></svg>