<svg height="1000" width="1125" xmlns="http://www.w3.org/2000/svg"><path d="M1062.5 187.5c34.6 0 62.5 27.9 62.5 62.5v718.8c0 17.1 -14.1 31.2 -31.2 31.2H31.3C14.1 1000 0 985.9 0 968.8V250c0 -34.6 27.9 -62.5 62.5 -62.5h250v-125C312.5 27.9 340.4 0 375 0h375c34.6 0 62.5 27.9 62.5 62.5v125h250zm-750 664.1v-78.2C312.5 760.5 302 750 289.1 750h-78.2c-12.9 0 -23.4 10.5 -23.4 23.4v78.2c0 12.9 10.5 23.4 23.4 23.4h78.2c12.9 0 23.4 -10.5 23.4 -23.4zm0 -250v-78.2C312.5 510.5 302 500 289.1 500h-78.2c-12.9 0 -23.4 10.5 -23.4 23.4v78.2c0 12.9 10.5 23.4 23.4 23.4h78.2c12.9 0 23.4 -10.5 23.4 -23.4zm312.5 250v-78.2C625 760.5 614.5 750 601.6 750h-78.2c-12.9 0 -23.4 10.5 -23.4 23.4v78.2c0 12.9 10.5 23.4 23.4 23.4h78.2c12.9 0 23.4 -10.5 23.4 -23.4zm0 -250v-78.2C625 510.5 614.5 500 601.6 500h-78.2c-12.9 0 -23.4 10.5 -23.4 23.4v78.2c0 12.9 10.5 23.4 23.4 23.4h78.2c12.9 0 23.4 -10.5 23.4 -23.4zm31.3 -332.1v-39c0 -6.5 -5.3 -11.7 -11.8 -11.7h-50.7V168c0 -6.5 -5.3 -11.7 -11.8 -11.7h-39c-6.5 0 -11.7 5.2 -11.7 11.7v50.8h-50.8c-6.5 0 -11.7 5.2 -11.7 11.7v39c0 6.5 5.2 11.8 11.7 11.8h50.8V332c0 6.5 5.2 11.8 11.7 11.8h39c6.5 0 11.8 -5.3 11.8 -11.8v-50.7h50.7c6.5 0 11.8 -5.3 11.8 -11.8zm281.2 582.1v-78.2C937.5 760.5 927 750 914.1 750h-78.2c-12.9 0 -23.4 10.5 -23.4 23.4v78.2c0 12.9 10.5 23.4 23.4 23.4h78.2c12.9 0 23.4 -10.5 23.4 -23.4zm0 -250v-78.2C937.5 510.5 927 500 914.1 500h-78.2c-12.9 0 -23.4 10.5 -23.4 23.4v78.2c0 12.9 10.5 23.4 23.4 23.4h78.2c12.9 0 23.4 -10.5 23.4 -23.4z"/></svg>