<svg height="1000" width="1000" xmlns="http://www.w3.org/2000/svg"><path d="M809 347c-6.1 -49.6 -28.5 -93.7 -62.4 -121.4C692.4 181.4 657.1 112.2 648.7 35.8 646.5 16.7 661.3 0 679.9 0h31.5c15.6 0 28.8 12 30.7 28 6.2 49.6 28.6 93.7 62.5 121.4 54.1 44.2 89.4 113.4 97.9 189.8 2.1 19.1 -12.7 35.8 -31.2 35.8h-31.5C824.1 375 811 363 809 347zm-210.9 0c-6.2 -49.6 -28.6 -93.7 -62.5 -121.4C481.5 181.4 446.2 112.2 437.7 35.8 435.6 16.7 450.4 0 469 0h31.5c15.6 0 28.7 12 30.7 28 6.2 49.6 28.5 93.7 62.5 121.4 54.1 44.2 89.4 113.4 97.9 189.8 2.1 19.1 -12.7 35.8 -31.3 35.8h-31.5c-15.6 0 -28.7 -12 -30.7 -28zm339.4 153c34.5 0 62.5 28 62.5 62.5V875c0 69 -56 125 -125 125H125C56 1000 0 944 0 875V437.5c0 -69 56 -125 125 -125h83.3c23 0 56.6 11.2 75 25L500 500h437.5zM250 859.4V640.6C250 632 243 625 234.4 625h-31.3c-8.6 0 -15.6 7 -15.6 15.6v218.8c0 8.6 7 15.6 15.6 15.6h31.3c8.6 0 15.6 -7 15.6 -15.6zm187.5 0V640.6c0 -8.6 -7 -15.6 -15.6 -15.6h-31.3c-8.6 0 -15.6 7 -15.6 15.6v218.8c0 8.6 7 15.6 15.6 15.6h31.3c8.6 0 15.6 -7 15.6 -15.6zm187.5 0V640.6C625 632 618 625 609.4 625h-31.3c-8.6 0 -15.6 7 -15.6 15.6v218.8c0 8.6 7 15.6 15.6 15.6h31.3c8.6 0 15.6 -7 15.6 -15.6zm187.5 0V640.6c0 -8.6 -7 -15.6 -15.6 -15.6h-31.3c-8.6 0 -15.6 7 -15.6 15.6v218.8c0 8.6 7 15.6 15.6 15.6h31.3c8.6 0 15.6 -7 15.6 -15.6zM125 250C56 250 0 194 0 125S56 0 125 0s125 56 125 125S194 250 125 250z"/></svg>