<svg height="1000" width="1000" xmlns="http://www.w3.org/2000/svg"><path d="M954.2 45.8c25.3 25.2 45.8 74.7 45.8 110.4s-20.5 85.3 -45.8 110.5L266.7 954.2c-25.4 26.4 -75.8 47.7 -112.4 47.7 -86.2 0 -156.2 -70 -156.2 -156.2 0 -36.6 21.3 -87 47.7 -112.4L733.3 45.8C758.5 20.5 808 0 843.8 0S929 20.5 954.2 45.8zm-97.5 185.9c5.1 -5.1 9.2 -15 9.2 -22.1 0 -17.3 -14 -31.3 -31.3 -31.3 -7.1 0 -17 4.1 -22.1 9.2 -24.2 24.2 -42.5 27.3 -67.8 31.7 -28.1 4.8 -63.1 10.9 -101.4 49.1C605 306.6 599 341.6 594.2 369.7c-4.4 25.3 -7.5 43.6 -31.7 67.8 -24.2 24.2 -42.4 27.4 -67.8 31.7 -28.1 4.8 -63.1 10.9 -101.4 49.1C355 556.6 349 591.6 344.2 619.7c-4.4 25.3 -7.5 43.6 -31.7 67.8s-42.4 27.4 -67.8 31.7C216.6 724 181.6 730 143.3 768.3c-5.1 5.1 -9.2 15 -9.2 22.1 0 17.3 14 31.3 31.3 31.3 7.1 0 17 -4.1 22.1 -9.2 24.2 -24.2 42.5 -27.3 67.8 -31.7 28.1 -4.8 63.1 -10.9 101.4 -49.1C395 693.4 401 658.4 405.8 630.3c4.4 -25.3 7.5 -43.6 31.7 -67.8s42.5 -27.3 67.8 -31.7C533.4 526 568.4 520 606.7 481.7 645 443.4 651 408.4 655.8 380.3c4.4 -25.3 7.5 -43.6 31.7 -67.8s42.5 -27.3 67.8 -31.7C783.4 276 818.4 270 856.7 231.7zM61.4 629.3L38.8 606.7C-10 557.9 -13.2 482 31.6 437.2L437.2 31.6C482 -13.2 557.9 -10 606.7 38.8l22.6 22.6zM938.6 370.7l22.6 22.6c48.8 48.8 52 124.7 7.2 169.5L562.8 968.4C518 1013.2 442.1 1010 393.3 961.2l-22.6 -22.6z"/></svg>