<svg height="1000" width="1125" xmlns="http://www.w3.org/2000/svg"><path d="M1093.8 125h-31.3v750h31.3c17.2 0 31.2 14 31.2 31.3v62.5c0 17.2 -14 31.2 -31.2 31.2H625V843.8c0 -17.2 -14.1 -31.3 -31.2 -31.3h-62.5c-17.2 0 -31.3 14.1 -31.3 31.3V1000H31.3C14 1000 0 986 0 968.8v-62.5C0 889 14 875 31.3 875h31.2V125H31.3C14 125 0 111 0 93.8V31.3C0 14 14 0 31.3 0h1062.5c17.2 0 31.2 14 31.2 31.3v62.5c0 17.2 -14 31.2 -31.2 31.2zM500 212.5v75c0 12.5 12.5 25 25 25h75c12.5 0 25 -12.5 25 -25v-75c0 -12.5 -12.5 -25 -25 -25h-75c-12.5 0 -25 12.5 -25 25zm0 187.5v75c0 12.5 12.5 25 25 25h75c12.5 0 25 -12.5 25 -25v-75c0 -12.5 -12.5 -25 -25 -25h-75c-12.5 0 -25 12.5 -25 25zM250 212.5v75c0 12.5 12.5 25 25 25h75c12.5 0 25 -12.5 25 -25v-75c0 -12.5 -12.5 -25 -25 -25h-75c-12.5 0 -25 12.5 -25 25zM350 500c12.5 0 25 -12.5 25 -25v-75c0 -12.5 -12.5 -25 -25 -25h-75c-12.5 0 -25 12.5 -25 25v75c0 12.5 12.5 25 25 25h75zm25 250h375C750 646.4 666.1 562.5 562.5 562.5S375 646.4 375 750zM875 475v-75c0 -12.5 -12.5 -25 -25 -25h-75c-12.5 0 -25 12.5 -25 25v75c0 12.5 12.5 25 25 25h75c12.5 0 25 -12.5 25 -25zm0 -187.5v-75c0 -12.5 -12.5 -25 -25 -25h-75c-12.5 0 -25 12.5 -25 25v75c0 12.5 12.5 25 25 25h75c12.5 0 25 -12.5 25 -25z"/></svg>