<svg height="1000" width="750" xmlns="http://www.w3.org/2000/svg"><path d="M703.1 125c0 177.7 -99.6 327.6 -236 375 136.4 47.4 236 197.3 236 375 25.9 0 46.9 21 46.9 46.9v31.2c0 25.9 -21 46.9 -46.9 46.9H46.9C21 1000 0 979 0 953.1v-31.2C0 896 21 875 46.9 875c0 -177.7 99.6 -327.6 236 -375C146.5 452.6 46.9 302.7 46.9 125 21 125 0 104 0 78.1V46.9C0 21 21 0 46.9 0h656.2C729 0 750 21 750 46.9v31.2C750 104 729 125 703.1 125zM375 406.3c112.3 0 203.1 -129.1 203.1 -281.3H171.9c0 151.3 90.2 281.3 203.1 281.3z"/></svg>