<svg height="1000" width="1125" xmlns="http://www.w3.org/2000/svg"><path d="M562.5 224.5l427.2 376.9c3 2.7 7 4 10.3 6.2v361.1c0 17.3 -14 31.3 -31.3 31.3H624.6L546.7 892.1 750 767.1 460.8 499.9l117.5 232.9L375 857.8l72.7 142.2H156.3C139 1000 125 986 125 968.7V607.5c3.5 -2.3 7.5 -3.7 10.7 -6.5zm552.1 237c12.9 11.5 13.9 31.3 2.4 44.1l-41.8 46.5c-11.5 12.9 -31.3 13.9 -44.1 2.4L583.2 159.4c-11.8 -10.4 -29.5 -10.4 -41.4 0L93.9 554.5C81.1 566.1 61.3 565 49.8 552.1L8 505.6C-3.5 492.8 -2.5 473 10.4 461.5l500 -441.4C525.2 6.7 543.8 0 562.5 0s37.3 6.7 52.2 20.1l197.8 174.6v-101c0 -17.2 14 -31.2 31.2 -31.2h125c17.3 0 31.3 14 31.3 31.2v266.6z"/></svg>