<svg height="1000" width="1125" xmlns="http://www.w3.org/2000/svg"><path d="M1114.6 461.5c5 5.5 9.6 15.9 10.4 23.2 -.6 6.4 -4.2 15.8 -8 20.9l-41.8 46.5c-5.5 5 -15.9 9.6 -23.2 10.4 -6.4 -.7 -15.7 -4.3 -20.9 -8L1000 527.1v410.4c0 34.5 -28 62.5 -62.5 62.5H187.7c-34.5 0 -62.5 -28 -62.5 -62.5V527.1l-31.1 27.4c-5.1 3.8 -14.5 7.4 -20.9 8 -7.4 -.7 -17.9 -5.4 -23.4 -10.3L8 505.7C3.9 500.6 .3 491.3 0 484.8c.4 -7.5 5 -17.9 10.3 -23.3l500 -441.4C522.5 9 545.8 0 562.5 0s40 9 52.3 20.1l197.7 174.6V93.8c0 -17.3 14 -31.3 31.2 -31.3h125c17.3 0 31.3 14 31.3 31.3v266.4zM562.5 343.8c-69 0 -125 55.9 -125 125s56 125 125 125 125 -56 125 -125 -56 -125 -125 -125zM781.3 875c17.2 0 31.2 -14 31.2 -31.2 0 -103.6 -84 -187.5 -187.5 -187.5H500c-103.5 0 -187.5 83.9 -187.5 187.5 0 17.2 14 31.2 31.3 31.2h437.5z"/></svg>