<svg height="1000" width="750" xmlns="http://www.w3.org/2000/svg"><path d="M718.8 468.8H524l-67.7 62.5h262.4c17.3 0 31.3 13.9 31.3 31.2V625c0 17.3 -14 31.3 -31.3 31.3H320.9l-57.6 53.1c-8.5 7.8 -13.3 18.9 -13.3 30.4 0 22.9 18.6 41.5 41.4 41.5h163.4c9.3 0 22.8 -4.9 29.9 -10.9l23 -19.2c19.9 -16.5 49.4 -13.9 66 6l40.1 48.1c16.5 19.9 13.8 49.4 -6 66l-23 19.1c-36.5 30.4 -82.5 47.1 -130 47.1H300.9c-72.6 0 -143.4 -34.9 -179.8 -97.6C86.2 779.9 86.8 712.2 113 656.2H31.3C14 656.2 0 642.3 0 625v-62.5c0 -17.3 14 -31.3 31.3 -31.3H226l67.7 -62.5H31.3C14 468.7 0 454.8 0 437.5V375c0 -17.3 14 -31.3 31.3 -31.3h397.8l57.6 -53.1c8.5 -7.8 13.3 -18.9 13.3 -30.4 0 -22.8 -18.6 -41.4 -41.4 -41.4H295.3c-11 0 -21.6 3.8 -30.1 10.8l-22.9 19.2c-19.9 16.5 -49.4 13.9 -66 -6l-40.1 -48.1c-16.5 -19.9 -13.8 -49.4 6 -66l23 -19.1c36.5 -30.4 82.5 -47.1 130 -47.1h153.9c72.6 0 143.4 34.8 179.8 97.6 34.9 60 34.3 127.7 8.1 183.6h81.8c17.2 0 31.2 14 31.2 31.3v62.5c0 17.3 -14 31.2 -31.2 31.2z"/></svg>