<svg height="1000" width="1000" xmlns="http://www.w3.org/2000/svg"><path d="M522.3 413.3l-318.8 -224c-15.4 9.1 -33.2 14.8 -52.3 14.8 -56.3 0 -102 -45.7 -102 -102.1C49.2 45.7 94.9 0 151.2 0c56.4 0 102.3 45.7 102.3 102 0 9.3 -1.5 18.3 -3.9 26.9 100.4 76.4 276 202.9 329.9 243.8 25.6 -13.5 53.7 -22.5 83.4 -26.6V226.6c-34.2 -14.5 -55.1 -46.5 -55.1 -83.8 0 -51 40.2 -93.6 91.2 -93.6s91.8 42.6 91.8 93.6c0 37.3 -20.9 69.3 -55.1 83.8v120.3C857.8 365.4 951 470.9 951 598.2c0 140.5 -113.5 254.3 -253.9 254.3C638.7 852.5 585.2 833 542.2 800l-97.7 98c2.6 7.7 3.7 15.5 3.7 23.7 0 20.9 -8.2 40.8 -23 55.6 -15 15.1 -34.8 22.7 -55.9 22.7 -20.9 0 -40.8 -7.8 -55.6 -22.7 -14.9 -14.8 -23.1 -34.5 -23.1 -55.6s8.2 -41 23.1 -55.9c14.8 -14.8 34.5 -23 55.6 -23 9.6 0 18.8 1.7 27.4 4.9l96.7 -97.3C461.5 708 442.6 655.3 442.6 598c0 -72.8 30.6 -138.4 79.7 -184.7zm174.8 319.5c74.4 0 134.7 -60.3 134.7 -134.8 0 -74.4 -60.3 -134.7 -134.7 -134.7 -74.4 0 -134.8 60.3 -134.8 134.7 0 74.5 60.4 134.8 134.8 134.8z"/></svg>