<svg height="1000" width="1000" xmlns="http://www.w3.org/2000/svg"><path d="M227.8 428.4l-189 -195C-15.9 176.7 -12.8 82.9 48.6 30.5 102.1 -15 181.7 -6.8 230.8 43.8L250 63.6l19.3 -19.8C318.4 -6.8 397.9 -15 451.4 30.5c61.4 52.4 64.6 146.3 9.6 202.9l-188.9 195c-5 5.2 -14.9 9.5 -22.2 9.5 -7.2 0 -17.1 -4.3 -22.1 -9.5zm281.1 196.3c29.6 0 53.6 24 53.6 53.6v268.1c0 29.6 -24 53.6 -53.6 53.6H53.6C24 1000 0 976 0 946.4V678.3c0 -29.6 24 -53.6 53.6 -53.6h93.8l13.7 -27.8c7.1 -19.2 29.6 -34.8 50 -34.8h140.2c20.4 0 42.9 15.6 50 34.8l13.9 27.8h93.7zM281.3 914.1c56 0 101.5 -45.5 101.5 -101.6S337.3 710.9 281.3 710.9 179.7 756.4 179.7 812.5s45.5 101.6 101.6 101.6zM975.4 687.7c19 0 30.8 17.2 21.2 30.7L816.2 989.7c-4.3 5.6 -13.6 10.2 -20.7 10.2 -.2 0 -.5 0 -.7 0 -15.7 0 -27.6 -12.2 -23.9 -25.2l47.3 -162.1H696.5c-14.9 0 -26.4 -10.9 -24.4 -23.2l32.8 -208.9c1.6 -10.1 12.1 -17.7 24.4 -17.7H877c16.1 0 27.8 12.8 23.7 25.8l-43.6 99.1h118.3zM933.8 .6c34.9 -5.3 66.2 23.9 66.2 61.9v281.8c-.5 51.4 -56.2 93 -125 93 -69 0 -125 -41.9 -125 -93.7 0 -51.8 56 -93.8 125 -93.8 8.7 .1 22.7 1.6 31.2 3.4V161l-218.7 33.6v212.1c-.5 51.5 -56.2 93.1 -125 93.1 -69 0 -125 -41.9 -125 -93.7 0 -51.8 56 -93.8 125 -93.8 8.7 .1 22.7 1.6 31.2 3.3V107.1C593.7 76 615 49.6 643.6 45.3z"/></svg>