<svg height="1000" width="1125" xmlns="http://www.w3.org/2000/svg"><path d="M1031.3 62.5c51.7 0 93.7 42 93.7 93.8v31.2H0v-31.2C0 104.5 42 62.5 93.8 62.5h937.5zM0 843.8V250h1125v593.8c0 51.7 -42 93.7 -93.7 93.7H93.8C42 937.5 0 895.5 0 843.8zM687.5 390.6v31.3c0 8.6 7 15.6 15.6 15.6h281.3c8.6 0 15.6 -7 15.6 -15.6v-31.3C1000 382 993 375 984.4 375H703.1c-8.6 0 -15.6 7 -15.6 15.6zm0 125v31.3c0 8.6 7 15.6 15.6 15.6h281.3c8.6 0 15.6 -7 15.6 -15.6v-31.3C1000 507 993 500 984.4 500H703.1c-8.6 0 -15.6 7 -15.6 15.6zm0 125v31.3c0 8.6 7 15.6 15.6 15.6h281.3c8.6 0 15.6 -7 15.6 -15.6v-31.3C1000 632 993 625 984.4 625H703.1c-8.6 0 -15.6 7 -15.6 15.6zM343.8 375c-69 0 -125 56.1 -125 125s56 125 125 125 125 -56.1 125 -125S412.7 375 343.8 375zM131.1 773.8c-6.3 19.2 10.1 38.7 30.4 38.7H526c20.3 0 36.7 -19.3 30.4 -38.7C540 723.6 493 687.5 437.5 687.5h-16c-23.8 10 -50.2 15.6 -77.7 15.6S290 697.5 266 687.5h-16c-55.5 0 -102.5 36.1 -118.9 86.3z"/></svg>