<svg height="1000" width="1125" xmlns="http://www.w3.org/2000/svg"><path d="M1031.3 125c51.7 0 93.7 42 93.7 93.8v687.5c0 51.7 -42 93.7 -93.7 93.7H93.8C42 1000 0 958 0 906.3V218.8C0 167 42 125 93.8 125H375v187.5h375V125h281.3zM562.5 437.5c-68.9 0 -125 56.1 -125 125s56.1 125 125 125 125 -56.1 125 -125 -56.1 -125 -125 -125zM744.7 875c20.3 0 36.7 -19.5 30.5 -38.7C758.8 786.1 711.7 750 656.3 750h-16.1c-23.8 10 -50.2 15.6 -77.7 15.6S508.8 760 484.8 750h-16c-55.7 0 -102.8 36.3 -119 86.3 -6.2 19.2 10.2 38.7 30.5 38.7h364.4zM687.5 62.5V250h-250V62.5C437.5 27.9 465.4 0 500 0h125c34.6 0 62.5 27.9 62.5 62.5z"/></svg>