<svg height="1000" width="1125" xmlns="http://www.w3.org/2000/svg"><path d="M245.3 323.2c52.9 0 95.8 43 95.9 95.8 0 52.9 -43 95.9 -95.9 95.9 -52.9 0 -95.8 -43 -95.8 -95.9s42.9 -95.8 95.8 -95.8zm-77 508.5V557.3h154.1v274.4H168.3zM464.1 418.4c0 40 -17.6 45.5 -36.6 45.5H400v-89.5h27.5c17.1 0 36.6 5 36.6 44zM858 508.3h111.5C966 700.6 867.7 831.8 585.3 831.8H400.1V508.3h27.3c50.8 0 81.1 -33.6 81.1 -89.8 0 -54.5 -31.1 -88.4 -81.1 -88.4h-27.3V168.3h185.2c173.7 0 364.9 52.6 382.9 295.6h-65.8v-134H858v178.4zm-214.3 0l-.1 -44.4h-65.5v-24.4h58.6v-44.4h-58.6v-20.6h62v-44.4H533.8v178.2h109.9zm145.8 0h46.2L781.9 329.9h-63.1L665 508.3h46.2l10.1 -34.5h58.1zM585.3 62.5c426.4 0 490.1 273.4 490.2 436.5 0 282.8 -174.1 438.5 -490.2 438.5H62.5v-875h522.8zm0 833.8c290.8 0 449 -135.4 449 -397.3 0 -269.2 -171.5 -395.3 -449 -395.3H103.7v792.6h481.6zM749 379h2.7l14.7 50.5h-32z"/></svg>