<svg height="1000" width="1125" xmlns="http://www.w3.org/2000/svg"><path d="M625 66.2v246.3H94.9C195.7 161.7 367.6 62.5 562.5 62.5c21.1 0 42 1.4 62.5 3.7zM187.5 375v250H0C0 535.2 21.7 450.4 59.2 375h128.3zm500 -298c142.2 32.2 264.1 118.1 342.6 235.5H687.5V77zm250 548V375h128.3c37.5 75.4 59.2 160.2 59.2 250H937.5zm-125 125c0 -21.7 -3.7 -42.4 -8.8 -62.5H1125V875c0 34.6 -27.9 62.5 -62.5 62.5h-250V750zM875 375v250h-97.3C734.4 550.6 654.7 500 562.5 500S390.6 550.6 347.3 625H250V375h625zM0 875V687.5h321.3c-5.1 20.1 -8.8 40.8 -8.8 62.5v187.5h-250C27.9 937.5 0 909.6 0 875zM562.5 562.5C666 562.5 750 646.5 750 750v187.5H375V750c0 -103.5 84 -187.5 187.5 -187.5z"/></svg>