<svg height="1000" width="875" xmlns="http://www.w3.org/2000/svg"><path d="M781.3 62.5c51.7 0 93.7 42 93.7 93.8v687.5c0 51.7 -42 93.7 -93.7 93.7H93.8C42 937.5 0 895.5 0 843.8V156.3C0 104.5 42 62.5 93.8 62.5h687.5zM41.6 447.7H41c.2 -.2 .4 -.6 .6 -.8v.8zm147.9 176.9V375H125v249.6h64.5zm221 0V375h-83.9l-14.9 117c-5.3 -39.1 -10.5 -78.3 -17 -117h-83.6v249.6h56.7v-165l23.8 165h40.2l22.7 -168.7v168.7h56zm22.3 0c168.2 .2 146.5 11.7 146.5 -161.1 0 -15.8 .6 -32.8 -2.7 -47.7C568.2 371.9 515.2 375 480.9 375h-48.1v249.6zm314.3 -57v-70.3c0 -33.8 -1.6 -58.8 -43.4 -58.8 -17.4 0 -29.1 5.3 -40.8 17.9V375H601v249.6h58.2l3.7 -15.8c11.1 13.3 23.2 19.1 40.8 19.1 38.7 0 43.4 -29.7 43.4 -60.3zM517.6 449v96.3c0 19 3.7 36.5 -20.1 35.9V417.8c23.2 0 20.1 12.3 20.1 31.2zm167 51v63.9c0 10.5 3.1 28.1 -12.1 28.1 -3.2 0 -5.9 -1.6 -7.5 -4.7 -4.3 -10 -2.1 -86.1 -2.1 -87.3 0 -7.4 -2.2 -24.8 9.6 -24.8 14.2 0 12.1 14.3 12.1 24.8z"/></svg>