<svg height="1000" width="875" xmlns="http://www.w3.org/2000/svg"><path d="M53.3 709.6C33.8 729.1 0 715.4 0 687.5v-375c0 -27.8 33.7 -41.7 53.3 -22.1l187.5 187.5c5.1 5 9.2 14.9 9.2 22.1 0 7.1 -4.1 17 -9.2 22.1zm790.5 102.9c17.2 0 31.2 14 31.2 31.3v62.5c0 17.2 -14 31.2 -31.2 31.2H31.3C14 937.5 0 923.5 0 906.3v-62.5c0 -17.3 14 -31.3 31.3 -31.3h812.5zm6.1 -250c13.9 0 25.1 11.2 25.1 25V662.5c0 13.8 -11.2 25 -25 25H400c-13.8 0 -25 -11.2 -25 -25V587.5c0 -13.8 11.2 -25 25 -25H849.9zm0 -250c13.9 0 25.1 11.2 25.1 25V412.5c0 13.8 -11.2 25 -25 25H400c-13.8 0 -25 -11.2 -25 -25V337.5c0 -13.8 11.2 -25 25 -25H849.9zm-6.1 -250c17.2 0 31.2 14 31.2 31.3v62.5c0 17.2 -14 31.2 -31.2 31.2H31.3C14 187.5 0 173.5 0 156.3V93.8C0 76.5 14 62.5 31.3 62.5h812.5z"/></svg>