<svg height="1000" width="1250" xmlns="http://www.w3.org/2000/svg"><path d="M920.1 187.5C1102 187.5 1250 327.7 1250 500S1102 812.5 920.1 812.5C791 812.5 690 731.8 625 659 560 731.8 459 812.5 329.9 812.5 148 812.5 0 672.3 0 500S148 187.5 329.9 187.5C459 187.5 560 268.2 625 341 690 268.2 791 187.5 920.1 187.5zM329.9 625c74.4 0 143.7 -71.1 183.6 -125C473.2 445.5 404.5 375 329.9 375c-78.5 0 -142.4 56.1 -142.4 125s63.9 125 142.4 125zm590.2 0c78.5 0 142.4 -56.1 142.4 -125S998.6 375 920.1 375c-74.4 0 -143.7 71.1 -183.6 125 40.3 54.5 109 125 183.6 125z"/></svg>