<svg height="1000" width="875" xmlns="http://www.w3.org/2000/svg"><path d="M437.5 395.8c57.5 0 104.2 46.7 104.2 104.2S495 604.2 437.5 604.2 333.4 557.5 333.4 500 380 395.8 437.5 395.8zm243.6 -80.1c16.3 41.2 12.6 138.8 12.6 184.3s3.8 143.2 -12.5 184.2c-9.3 23.5 -35.9 50.2 -59.4 59.4C580.6 760 483.1 756.2 437.6 756.2s-143.2 3.6 -184.2 -12.6C229.9 734.4 203.3 707.7 194 684.2 177.7 643.1 181.3 545.4 181.3 500c0 -45.5 -3.6 -143.2 12.6 -184.3 9.3 -23.5 35.9 -50.1 59.4 -59.4C294.4 240 392 243.8 437.5 243.8s143.2 -3.6 184.2 12.5c23.5 9.3 50.1 35.9 59.4 59.4zM437.5 660.2h.2c88.3 0 160 -71.7 160 -160v-.2c0 -88.4 -71.8 -160.2 -160.2 -160.2S277.3 411.6 277.3 500s71.8 160.2 160.2 160.2zM604.3 370.5c20.5 0 37.3 -16.6 37.3 -37.2v-.2c0 -20.6 -16.7 -37.4 -37.4 -37.4s-37.3 16.8 -37.3 37.4c0 20.7 16.7 37.4 37.3 37.4h.1zm177 -308c51.7 0 93.7 42 93.7 93.8v687.5c0 51.7 -42 93.7 -93.7 93.7H93.8C42 937.5 0 895.5 0 843.8V156.3C0 104.5 42 62.5 93.8 62.5h687.5zm-33.5 566.4c2.9 -51.6 2.9 -206.2 0 -257.6 -2.4 -50 -14 -94.4 -50.5 -130.9 -36.4 -36.6 -80.8 -48 -130.8 -50.5 -51.6 -2.9 -206.3 -2.9 -257.8 0 -49.9 2.4 -94.2 13.9 -130.9 50.3 -36.7 36.5 -48 80.8 -50.5 130.9 -2.9 51.5 -2.9 206.2 0 257.8 2.4 50 13.9 94.3 50.5 130.9 36.6 36.5 80.8 47.9 130.9 50.5 51.5 2.9 206.2 2.9 257.8 0 50 -2.4 94.3 -14.1 130.8 -50.5s48 -80.8 50.5 -130.9z"/></svg>