<svg height="1000" width="875" xmlns="http://www.w3.org/2000/svg"><path d="M437.7 275.4c124.2 0 224.4 100.2 224.4 224.4S561.9 724.2 437.7 724.2 213.3 624 213.3 499.8 313.5 275.4 437.7 275.4zm0 370.3c80.3 0 145.9 -65.4 145.9 -145.9S518.2 353.9 437.7 353.9 291.8 419.3 291.8 499.8s65.6 145.9 145.9 145.9zM723.6 266.2c0 29.1 -23.4 52.4 -52.3 52.4 -29.1 0 -52.4 -23.5 -52.4 -52.4s23.5 -52.3 52.4 -52.3 52.3 23.4 52.3 52.3zm148.7 53.1c4.1 72.3 4.1 288.7 0 361 -3.5 70.1 -19.6 132.2 -70.7 183.4C750.4 915 688.3 931.1 618.2 934.4c-72.3 4.1 -288.9 4.1 -361.2 0C186.9 930.9 125 914.8 73.6 863.7S6.3 750.4 2.9 680.3C-1.2 608 -1.2 391.4 2.9 319.1 6.4 249 22.3 186.9 73.6 135.7S187.1 68.6 257 65.2c72.3 -4.1 288.9 -4.1 361.2 0 70.1 3.6 132.2 19.6 183.4 70.7 51.3 51.2 67.3 113.3 70.7 183.4zm-93.4 438.5c22.9 -57.4 17.6 -194.3 17.6 -258 0 -63.7 5.3 -200.4 -17.6 -258 -15.4 -38.5 -44.9 -68 -83.2 -83.2C638.3 135.9 501.4 141 437.7 141c-63.7 0 -200.4 -5.3 -258 17.6 -38.5 15.4 -68 44.9 -83.2 83.2 -22.7 57.4 -17.6 194.3 -17.6 258 0 63.7 -5.3 200.4 17.6 258 15.4 38.5 44.9 68 83.2 83.2 57.4 22.7 194.3 17.6 258 17.6 63.7 0 200.4 5.3 258 -17.6 38.5 -15.4 68 -44.9 83.2 -83.2z"/></svg>