<svg height="1000" width="875" xmlns="http://www.w3.org/2000/svg"><path d="M765.6 62.5c60.4 0 109.4 49 109.4 109.4v656.2c0 60.4 -49 109.4 -109.4 109.4H109.4C49 937.5 0 888.5 0 828.1V171.9C0 111.5 49 62.5 109.4 62.5h656.2zM554.1 222.9v389.6c0 38.7 58.4 38.7 58.4 0V222.9c0 -38.7 -58.4 -38.7 -58.4 0zM408.4 208.2v422.9c0 38.6 58.4 38.6 58.4 0V208.2c0 -38.7 -58.4 -38.7 -58.4 0zm-145.9 14.7v389.6c0 38.7 58.4 38.7 58.4 0V222.9c0 -38.7 -58.4 -38.7 -58.4 0zm-145.9 58.4v262.3c0 38.6 58.4 38.6 58.4 0V281.3c0 -38.7 -58.4 -38.7 -58.4 0zm631.6 444.9c29.1 -25.2 -8.7 -69.6 -37.8 -44.4 -123.5 105.3 -416.8 108 -545.6 0 -29.3 -25 -67.1 19.4 -37.8 44.4 149.2 127.7 479.1 123 621.2 0zm10.2 -182.6V281.3c0 -38.7 -58.4 -38.7 -58.4 0v262.3c0 38.6 58.4 38.6 58.4 0z"/></svg>