<svg height="1000" width="1000" xmlns="http://www.w3.org/2000/svg"><path d="M943.5 311.9c49.2 88.8 64.9 190.6 52.4 275.7H353.7c0 196.2 281.9 265.7 384.4 92.7h236C910.5 859.4 740.4 965.5 550.7 965.5c-68.6 0 -137.3 -.3 -198.6 -30.4C181.4 1022 0 1045.5 0 853 0 763.6 45.4 643.8 85.9 569.8c68.6 -124.5 159 -243.9 265 -338.2C265.6 268.4 173 361 112.7 429.1 163.2 208.8 365.6 50.9 575.8 65c254 -116.8 409.5 -66.7 409.5 75.3 0 53.6 -20.6 123.6 -41.8 171.6zM126.1 677.5c-142.6 297.7 22.5 336.4 195.8 240.8C231 864.7 160.7 777.4 126.1 677.5zM352.6 464.9h406.2C754.9 357.1 660 279.6 555.7 279.6c-104.9 0 -199.2 77.5 -203.1 185.3zM713 98.4c90.4 35.2 168 111.9 219.3 194.5 13.9 -36.8 28.5 -93.4 28.5 -132.5C960.8 97.9 916.1 55.5 854.7 55.5c-46.8 0 -99.8 22.9 -141.7 42.9z"/></svg>