<svg height="1000" width="875" xmlns="http://www.w3.org/2000/svg"><path d="M795.7 62.5c43.8 0 79.3 35.5 79.3 79.3v716.4c0 43.8 -35.5 79.3 -79.3 79.3H79.3C35.5 937.5 0 902 0 858.2V141.8C0 98 35.5 62.5 79.3 62.5h716.4zM343.9 284.4c-1.1 -68.6 -104.6 -68 -104.8 .8 0 29.3 23.8 52.7 52.9 52.7 8.2 -.2 52.7 -7.8 51.9 -53.5zM650 736.3c46.5 0 83.4 -29.9 103.9 -101.5l-35 -13.1c-27.9 77.1 -62.1 63.3 -62.1 33 .6 -15.8 1.4 -15.1 29.1 -114.9C736.9 372.3 566.2 318.2 487.1 465.6l17.4 -79.1H370.1l-18.9 69.6h63.1l-38.7 155c-32.2 71.7 -112.1 86.2 -112.1 45.3 .6 -22 -1.4 -8.7 64.2 -269.9H178.5l-18.9 69.6h62.1C178.5 632 177 631.4 176.8 659.4c0 95.1 123.2 109.5 184.7 8.4l-15.8 63.5h88.1l50.4 -201.8c28.7 -116.6 144.5 -92 117 -1.4 -17.8 63.7 -79.3 208.2 48.8 208.2z"/></svg>