<svg height="1000" width="1250" xmlns="http://www.w3.org/2000/svg"><path d="M1203.1 312.5c26 0 46.9 20.9 46.9 46.9 0 25.8 -20.9 46.9 -46.9 46.9h-102.9c6.1 30.2 9.2 61.7 9.2 93.7 0 267.6 -216.8 484.4 -484.4 484.4C424 984.4 251.6 861.9 178.3 687.5H46.9C20.9 687.5 0 666.6 0 640.6c0 -25.8 20.9 -46.8 46.9 -46.8h102.9C143.7 563.5 140.6 532 140.6 500 140.6 232.4 357.4 15.6 625 15.6c201 0 373.4 122.5 446.7 296.9h131.4zM1015.6 500c0 -32.4 -3.9 -63.7 -11.3 -93.7H421.9c-26 0 -46.9 -20.9 -46.9 -46.9 0 -25.8 20.9 -46.9 46.9 -46.9h545.9C901.6 191.4 772.9 109.4 625 109.4 409.2 109.4 234.4 284.2 234.4 500c0 32.4 3.9 63.7 11.3 93.8h582.4c26 0 46.9 20.8 46.9 46.8 0 25.8 -20.9 46.9 -46.9 46.9H282.2C348.4 808.6 477.1 890.6 625 890.6c215.8 0 390.6 -174.8 390.6 -390.6zM421.9 453.1h406.2c26 0 46.9 20.9 46.9 46.9 0 25.8 -20.9 46.9 -46.9 46.9H421.9C395.9 546.9 375 526 375 500c0 -25.8 20.9 -46.9 46.9 -46.9z"/></svg>