<svg height="1000" width="1000" xmlns="http://www.w3.org/2000/svg"><path d="M140.5 67.9C178 64.6 363.7 62.5 500 62.5s227.7 .8 359.4 5.3c42.4 25.3 126 121.3 126.8 146.5V256c0 52.8 -49.3 99.3 -94.3 99.3 -53.8 0 -98.7 -44.7 -98.7 -97.7 0 53.1 -43.4 97.7 -97.2 97.7s-95.7 -44.7 -95.7 -97.7c0 53.1 -46 97.7 -99.9 97.7h-1c-53.8 0 -99.9 -44.7 -99.9 -97.7 0 53.1 -41.8 97.7 -95.7 97.7s-97.2 -44.7 -97.2 -97.7c0 53.1 -44.8 97.7 -98.7 97.7C63.1 355.3 13.7 308.8 13.7 256v-41.7C14.5 189.1 98 93.1 140.5 67.9zm258.4 262.5c17.9 31.2 61.6 56.6 97.6 56.6 1 0 2.6 0 3.5 -.1 56.1 0 87.3 -32.1 101.1 -56.5 43 74.9 152.1 75.7 195.1 .5 25.6 45 84.1 62.7 109.3 54 7 72.6 27.2 462.7 -34.6 525.7C719.1 946 285.4 947 129.1 910.6 67.8 848 87 463.3 94.5 384.9c25.1 8.6 83.7 -8.8 109.4 -54 42.9 75.1 152 74.5 195 -.5zm-81.2 105v.1c-102.2 0 -127.4 151.3 -163.9 282.2 -33.7 121.4 10.8 124.3 66.3 124.4C302.4 839.1 348 779.3 348 719.5c104.8 17.2 227.2 12.6 303.8 0 0 59.8 45.6 119.6 127.9 122.6 55.6 -.1 100.1 -3 66.4 -124.4C809.6 587 784.5 435.5 682.2 435.5c-32.1 0 -60.7 0 -96.1 38.5 -23.8 -2.4 -62.3 -4.3 -86.2 -4.3 -23.8 0 -62.4 1.9 -86.1 4.3 -35.4 -38.6 -63.9 -38.6 -96.1 -38.6zM500 528.9h-.1s86.6 79.6 102.2 107.9l-56.6 -2.3v49.4c0 2.3 -22.8 1.4 -45.5 .3 -3.9 0 -45.6 2.7 -45.6 -.3v-49.5l-56.6 2.3C413.3 608.5 500 528.9 500 528.9z"/></svg>