<svg height="1000" width="750" xmlns="http://www.w3.org/2000/svg"><path d="M745.9 758.2c-12.5 53.5 -53.1 83.6 -107.6 93.8 -47.9 8.7 -87.7 10.9 -126 -20C465.6 792.8 465 727.7 507 686.7c33.2 -31.6 79.9 -38.1 150 -50.4 11.8 -2.1 21.9 -4.9 30.5 -14.4 12.5 -14.1 8.6 -8 8.6 -318.8 0 -21.8 -10.7 -27.9 -33.2 -24 -16 2.7 -362.7 67.6 -362.7 67.6C280.3 351 274 356.8 274 379.3c0 458.4 2.2 437.3 -4.9 467.8 -8.2 35.5 -30 62.3 -58.9 77.1C177.3 942.4 118 950.4 86.3 944.5 2 928.7 -27.7 831.2 29.5 775.4c33.2 -31.7 79.9 -38.1 150 -50.4 11.7 -2.1 21.9 -4.9 30.5 -14.5 19.7 -22.4 3.5 -501.1 10.1 -527.7 1.6 -10.1 5.9 -18.7 13.9 -25.2 8.2 -6.8 23 -10.7 26.2 -10.7C658.6 72.3 707.2 62.7 714.1 62.7c22.4 -1.6 35.3 11.7 35.3 34.4 .4 672.8 2.2 636.7 -3.5 661.1z"/></svg>