<svg height="1000" width="875" xmlns="http://www.w3.org/2000/svg"><path d="M436.7 156.8c184.6 0 334.4 149.8 334.4 334.6 0 184.6 -149.6 334.4 -334.4 334.4C252 825.8 102.5 675.8 102.5 491.2S252 156.8 436.7 156.8zm155.1 468.8c2.7 -12.1 1.8 5.8 2 -327.4 0 -11.1 -6.5 -17.7 -17.6 -17 -3.5 0 -27.6 4.7 -224.8 41.8 -1.8 0 -9 2 -13.1 5.3 -3.9 3.1 -6.1 7.4 -6.9 12.5 -3.3 13.1 4.7 250 -5 261.2 -4.1 4.8 -9.2 6.2 -15.1 7.2 -34.5 6.2 -57.8 9.4 -74.2 25 -28.3 27.7 -13.7 76 28.1 83.8 15.7 2.7 45.2 -1.2 61.4 -10.2 14.2 -7.4 25 -20.7 29.1 -38.3 3.3 -15 2.3 -4.7 2.3 -231.4 0 -11.1 3.3 -14.1 13.1 -16.2 0 0 171.7 -32.1 179.5 -33.4 11.1 -2 16.4 1 16.4 11.9 0 153.9 1.9 150.8 -4.3 157.8 -4.1 4.9 -9.2 6.3 -15 7.2 -34.6 6.3 -57.9 9.4 -74.3 25 -20.7 20.3 -20.3 52.4 2.8 71.9 18.9 15.2 38.6 14.1 62.3 9.8 26.9 -5.1 47 -20 53.3 -46.5zM674.2 62.5c111.2 0 200.8 89.6 200.8 200.8v473.4c0 111.2 -89.5 200.8 -200.8 200.8H200.8C89.6 937.5 0 847.9 0 736.7V263.3C0 152.1 89.6 62.5 200.8 62.5h473.4zM436.7 867.2c207.6 0 376 -168.4 376 -376s-168.4 -376 -376 -376 -376 168.4 -376 376 168.4 376 376 376z"/></svg>