<svg height="1000" width="750" xmlns="http://www.w3.org/2000/svg"><path d="M542.5 611.1C357.9 659.8 1.4 637.1 104 587.5c86.9 -41.8 157.4 -37.1 157.4 -37.1S79.6 593.6 197 609.2c49.6 6.6 148.4 5.1 240.4 -2.6 75.2 -6.2 150.8 -19.9 150.8 -19.9s-26.6 11.3 -45.7 24.4zM375.7 548.4C280.9 462.9 211.4 387.7 258.1 317.6 326.6 215 516.3 165 474.3 0c0 0 103.8 103.9 -98.6 263.7 -162.3 128.1 -37.1 201.3 0 284.7zM599.5 204.3C381.5 330.7 421.8 367.4 474.3 441.2c56.2 79.1 -66.2 142.4 -66.2 142.4s60.9 -50 12.7 -105.5C257.3 289.8 599.7 204.3 599.5 204.3zm-11.9 528.3C775.3 635.2 688.4 541.4 627.8 554.1c-6 1.1 -15.7 3.8 -21.5 5.9 3.4 -4.8 10.6 -10.3 16 -12.3 119.8 -42.2 212 124.2 -38.6 190 1.2 -1.3 3 -3.5 3.9 -5.1zm92.1 121.7C783.2 901 454.8 994.9 55.9 930.1 -90.4 906.4 126.4 823.6 166 851.6c0 0 -12.7 -.8 -34.6 3.9 -21 4.5 -88 26.1 -52.3 41.6 99.2 43.1 456.4 32.8 569.5 -1.4 59.4 -18.2 31.1 -41.4 31.1 -41.4zM243 773.4s-38.2 22.3 27.2 29.7c79.3 9 119.7 7.8 207 -8.8 14.6 8.8 39.3 20.8 55.1 27C336.6 905.1 89.3 816.4 243 773.4zm351.2 189.9c136.3 -25.8 148.8 -58 148.8 -58 -6.4 85.1 -283 103.1 -463 91.6C161.6 989.3 138.6 970.1 138.6 970.3c112.3 18.6 301.9 21.9 455.6 -7zM509.1 689.5c9.9 9.2 28.4 20.4 41.2 25C313.4 783.8 49.7 720.1 219.2 663.9c0 0 -42.8 31.6 22.7 38.4 84.5 8.8 151.5 9.4 267.2 -12.8z"/></svg>