<svg height="1000" width="875" xmlns="http://www.w3.org/2000/svg"><path d="M778.3 729.7S829.7 698 875.8 577.9c0 0 -33.2 358 -433.6 362.7h-8C33.6 935.9 .6 577.9 .6 577.9c45.3 120.3 96.5 151.8 96.5 151.8C-90.2 491.2 63.5 274.4 63.5 274.4c-88.7 167.4 80.8 333 80.8 333C-60.7 272.3 262.5 77.1 262.5 77.1c-189.3 141.8 19.7 372.5 19.7 372.5C114.6 759 416.2 899 416.2 899s.8 -33 4.3 -167.4l-67.4 70.7 47.3 -92.5L278.1 692l122.3 -17.8L360.9 565.8l61.4 89.7C426.8 483.8 437.7 58 437.7 56.1v-4.7 1.9 -1.9 4.7c.2 3.5 11.1 428.1 15.4 599.4l61.4 -89.7L475 674.2 597.3 692 475 709.8l47.3 92.5s-59 -61.9 -67.4 -70.7c3.5 134.4 4.3 167.4 4.3 167.4s301.5 -140 134 -449.4c0 0 208.9 -230.5 19.7 -372.5 0 0 323.2 195.4 118.2 530.3 0 0 169.5 -165.4 80.8 -333 0 0 153.7 216.8 -33.6 455.3z"/></svg>