<svg height="1000" width="1125" xmlns="http://www.w3.org/2000/svg"><path d="M1046.8 687.5C963.5 871.4 778 1000 562.4 1000c-8.3 0 -16.7 -.2 -25 -.6C334.3 990.1 158.7 863.7 78.2 687.5h77.9L41.7 573.1c-4.4 -21.1 -8.9 -55.6 -10 -77 -.2 -5.7 -.4 -14.8 -.4 -20.4 0 -10.6 .6 -27.7 1.4 -38.2h92.2L44 356.7C68.4 246.8 162.9 105 254.9 40.1c4.5 -3.2 12.6 -5.8 18.1 -5.8 9.4 0 21.2 6.4 26.4 14.1 3 4.4 5.5 12.4 5.5 17.7 0 3.4 -1 8.7 -2.3 11.8C292 104.5 283.4 149.4 283.4 178c0 88.1 41.1 169.1 112.7 222.2 7.2 5.2 13.1 16.8 13.1 25.7 0 7.9 -4.8 18.6 -10.8 23.9C346.6 496.6 318 560.1 318 628.6c0 117.3 83.9 215.4 195.1 238.2L518 739.3l-53 36.1c-2.3 1.4 -6.2 2.6 -8.8 2.6 -3.4 0 -8.2 -1.8 -10.8 -4.1 -2.7 -2.5 -4.9 -7.6 -4.9 -11.4 0 -2.4 1 -5.9 2.2 -8L482 688.6l-82.1 -17.1c-6.9 -1.4 -12.5 -8.2 -12.5 -15.3s5.6 -13.9 12.5 -15.3l82.1 -17L442.7 558c-1.2 -2 -2.2 -5.6 -2.2 -8 0 -8.7 7 -15.7 15.6 -15.7 2.7 0 6.6 1.3 8.8 2.8l59.4 40.3L546.8 15c.3 -8.3 7.3 -15 15.5 -15h.2c8.2 .1 15.2 6.8 15.5 15l22.6 562.4L659.9 537c2.2 -1.4 6.1 -2.6 8.8 -2.6 3.4 0 8.2 1.9 10.7 4.2 2.8 2.6 5 7.7 5 11.4 0 2.3 -1 5.9 -2.2 8l-39.4 65.9L725 641c6.9 1.4 12.5 8.2 12.5 15.2s-5.6 13.9 -12.5 15.3l-82.2 17.1 39.3 65.9c1.2 2 2.3 5.6 2.3 8 0 3.7 -2.2 8.8 -4.9 11.3 -2.5 2.3 -7.4 4.2 -10.8 4.2 -2.6 0 -6.6 -1.2 -8.8 -2.6l-53.1 -36.1 4.9 127.6c94.7 -18.3 171.1 -94 190.1 -188.4 2.8 -13.4 5 -35.3 5 -49 0 -59.5 -36 -140 -80.3 -179.7 -6 -5.3 -10.8 -16 -10.8 -23.9 0 -8.9 5.9 -20.5 13.1 -25.8 71.6 -53 112.7 -134 112.7 -222.1v-.2c0 -28.6 -8.6 -73.4 -19.3 -100C821 74.7 819.9 69.4 819.9 66c0 -5.4 2.5 -13.3 5.5 -17.7 5.2 -7.7 17 -14.1 26.3 -14.1 5.5 0 13.6 2.6 18.1 5.8 91.9 65.1 186.3 207.1 210.8 317l-80.6 80.5h91.7c.7 11.3 2.1 22.4 2.1 33.7 -.1 28.2 -4.6 73.6 -10.1 101.3l-115 115h78.1z"/></svg>