<svg height="1000" width="1000" xmlns="http://www.w3.org/2000/svg"><path d="M951.4 830.1c2.9 23.2 -10.4 55.3 -17 77.5 -9.6 31.9 -19 62.3 -28.5 92.2H81.6c-1.3 -3.7 -2.7 -7.8 -4.1 -11.7C68.6 960.4 52.9 926.2 48.8 898.6c-6 -40.8 32.4 -43.1 57.1 -60.7 38 -27.4 67.9 -42.6 109.1 -67 12.3 -7.4 49.1 -25.8 53.4 -34.4 8.4 -17 -14.3 -40.8 -20.4 -54.1C238.5 661.5 233.4 643.7 232 623c-34.5 -5.4 -60.7 -25.9 -76.5 -49.2C129.3 535.4 111.1 464.5 133.8 410.4c1.7 -4.3 10.5 -12.7 11.9 -19.2 2.7 -12.9 -4.9 -30.1 -5.3 -43.7 -2.3 -70.4 11.9 -130.9 59.2 -152C218.8 119.1 287.5 93.6 352.1 55.7c24.1 -14.3 50.8 -23.3 78.4 -33.4 98.6 -36.6 250.2 -29.5 332.2 32.4 34.8 26.4 90.2 81.8 110.2 122.1 52.5 106 48.8 283.4 12.1 412.5 -4.9 17.3 -12.1 42.7 -22.1 63.6 -7 14.5 -28.7 43.6 -26 56.5 2.8 13.3 49.4 48.6 59.4 58.4 18 17.2 52.3 40.4 55.1 62.3zM402.1 65.8C337.3 84.2 254.3 131.2 227.7 189.6c20.7 -2.9 35 -13.2 55.3 -14.6 7.6 -.6 17.8 3.1 26.6 1 17.5 -4.5 32.4 -44 45.7 -58.6 12.9 -14.5 28.5 -20.5 39 -33.6 6.9 -3.3 17 -3.1 17.4 -13.3 -2.9 -3.3 -6 -5.7 -9.6 -4.7zM197.5 248.6c-28.7 31.5 -22.7 90.5 -19.2 132.5 51.8 -32.7 120.3 2.5 119.7 57.8 24.7 -.6 9.2 -30.9 4.7 -50.2C288.1 325 327.3 256.1 304.5 198c-44.3 3.6 -80.7 21.5 -107 50.6zm71.6 391c9.6 39.1 30.7 89.9 51.4 120 26.6 37.9 78.3 43.5 134.2 47.2 9.9 -21.4 46.7 -19.7 70.7 -14 -28.7 -11.4 -55.5 -38.9 -77.5 -63.3 -25.4 -27.9 -51 -58 -52.4 -94.5 47.9 66.4 87.5 124.6 174.8 153.9 66 22 143 -10.2 193.8 -45.7 21.1 -14.9 33.6 -38.3 48.6 -59.8 56.1 -80.5 82 -195.5 76.4 -306.8 -2.4 -45.9 -2.2 -91.8 -17.6 -122.7 -16.2 -32.4 -70.7 -61.1 -102.6 -32 -5.8 -31.5 26.6 -51 64.7 -39.7 -27.2 -35.1 -55.9 -77.3 -94.3 -99C672.1 45.1 558.2 16.6 486.7 52.3 428.9 81.1 351 128.7 324.4 189.1c24.8 58.2 -7.4 111.5 -9.4 170.7 -1.1 31.4 14.9 58.9 16.1 93.1 -8.6 14.1 -34.6 15.8 -52.6 14.9 -6 -30.3 -16.6 -64.3 -47.8 -67.8 -44 -4.7 -76.4 31.8 -78.4 69.9 -2.3 44.9 34.6 119.2 86.8 114.1 20.1 -2.2 25 -22.3 47 -22.1 11.9 23.8 -18.3 31.3 -21.5 48.3 -.7 4.3 2.6 21.4 4.5 29.4zM702.7 882c-3.1 8.6 .6 20.3 -1.1 32.3 29.1 8.2 62.3 12.5 99 13.6 7.2 -9.3 9.6 -26.9 8.8 -44.5 -1.2 -21.1 -6.7 -64.6 -19.8 -72.3 -27.5 -16 -76.1 32.3 -96.8 39.7 2.3 6.6 6 11.7 6.2 19.9 12.3 -2.9 27.2 -1 37.7 4.3 -12.3 1.4 -26 1.2 -34 7zm-33.6 -39c14.9 -10.8 28 -23.5 43.4 -33.4 -35.5 3.1 -80.1 25.2 -115.2 9.5 -.2 1.8 -2.6 1.2 -3 2.8 24.1 18.7 42 22.6 74.8 21.1zm-23.6 64.8c52.5 16.4 43.4 -71.9 -5.5 -39.4 -1.3 16 2.4 21.1 5.5 39.4zM441.4 856.6c0 -12.1 7 -23.4 5.5 -32 -27 -4.7 -62.3 -1.6 -80.7 -14.2 -18.7 18.9 52.6 44.9 75.2 46.2zM112.7 970.9v.2h352.9c-1.5 -4.9 -2.9 -9.6 -4.3 -14.1 -9.3 -29.9 -14.6 -52.1 -17 -69.3 -37.5 -18 -77.5 -36.1 -109.7 -59 -5.9 -4.3 -45.7 -56 -51.2 -53.9 -72.1 28.5 -139.5 77.5 -199.6 124 10.9 23.1 20.5 47.3 28.9 72.1zM582.6 982h-1.5c.5 -.4 .9 -.7 1.5 -.9v.9zm14.7 -11.1H616c-1.9 -2.9 -4.1 -5.7 -6.2 -8.4 -4.1 2.9 -8.4 5.7 -12.5 8.4zm29.5 -48.2c.2 -7.1 .5 -14.1 .7 -20.7 -12.7 -6.3 -27.3 -10.8 -45.9 -11.6 12.7 -6.4 31.1 -6.2 42.6 -13.8 .2 -3 .2 -5.7 .4 -8.4 -21.1 -1.8 -28.9 -11 -42.8 -18.6 -22.6 -12.5 -56.6 -25.8 -85.7 -31.4C460 811.1 463.3 867.4 464.8 901c1.4 26.5 15.1 54.7 21.1 72.2 3 8.2 3.6 17 10.6 18.6 12.5 2.9 53.5 -13.5 65.2 -19.9 24.8 -13.5 44 -35 65.1 -49.2zm104.3 48.2l1.1 -24.6c-21.8 1.4 -34.2 -19.9 -49.6 -21.5 -13.5 -1.4 -24.8 15.4 -42.4 8.2 -3.9 4.3 -7.6 9.2 -11.7 13.5 6.3 7.6 11.9 15.8 17.4 24.4h34c.4 -6.3 5.5 -11.3 11.9 -11.3s11.7 5 11.9 11.3h27.4zm16.9 0h70.9c-13 -19.9 -39.2 -36.7 -69.7 -22.5 -.4 7.3 -.8 14.7 -1.2 22.5zm162.9 -72.3c2.4 -12.1 9 -38.2 7.5 -49 -2.8 -19.1 -28.6 -33.4 -41.8 -45.1 -24.3 -21.7 -39.5 -41 -64.9 -61.3 -10.1 15.2 -32.2 25.4 -40.6 37.7 60 -29.1 70.9 108.9 47.3 153.3 3.7 13.3 16.2 18.3 21.2 30.3 -1.3 2.1 -2.5 4.3 -3.7 6.4h54.5c.4 0 .8 0 1.2 .2 8 -25.6 14.8 -50.6 19.3 -72.5zM434 254.9c10.5 -29.1 53.1 -67.8 87.9 -62.5 15 2.3 35.1 16 23.8 34.6 -59 -13.7 -88.3 24.6 -106.2 64.6C423.6 287.7 429.9 266 434 254.9zm359.6 123.2c16 -7 43.7 -1.3 57.8 -10.3C843.2 345.3 831.2 326 833.2 294.1c1 0 2 0 2.7 .2 13.3 27.8 24.8 57.1 41.8 81.5 -11.1 26.3 -85.1 49.6 -84.1 2.3zm-189.1 5.3c-13.3 -21.3 -37.1 -63.5 -28.3 -88.5 12.7 23.3 16.8 47.7 34.7 65.1 8 7.8 23.9 17.5 16.1 39.4 -1.8 5.3 -15.3 16.8 -22.9 19 -28.1 8.4 -93.6 1.7 -71.5 -33.4 23.3 1.3 54.5 15.2 71.9 -1.6zm53.3 136.7c7.4 12.9 2.7 36.5 23.6 40.3 39.5 6.6 85.2 -24.1 113.5 -34.8 17.6 -29.7 -1.5 -40.4 -17.4 -59.6C745.1 427 701.8 378.5 703.3 320.1c13.1 -9.6 14.3 14.5 16 19 17 39.6 59.4 90.2 90.5 124 7.6 8.4 20.1 16.4 21.4 21.9 4.2 16 -10.5 35.1 -8.7 45.9 -42.4 27.1 -89.5 56.8 -159 50C649 567.8 643.4 539.1 657.8 520.1zm-393.2 -18c-13.2 -7.6 -16.4 -41 -32 -41.7 -22.2 -1.4 -18.1 43.3 -18.1 69.3 -15.3 -13.9 -18 -56.8 -6.9 -78.7 -12.9 -6.3 -18.5 7 -25.6 11.5 9.2 -66.6 97.3 -30.9 82.6 39.6zm585.2 56.3c-19.7 37.5 -47.7 78.9 -105.5 80.1 -1.1 -12.1 -2.1 -30.5 0 -37.9 44.4 -4.3 71.5 -26.8 105.5 -42.2zm-277.1 24.2c36.9 19.4 104.6 21.5 154.8 19.9 2.8 11 2.6 24.6 2.8 37.9 -64.5 3.5 -140.7 -12.5 -157.6 -57.8zm180 91.2c-3.3 8.4 -10.3 18.2 -19.1 21.7 -23.6 9.6 -89.1 17 -121.9 -.6C590.8 683.8 577.5 658.8 566 644.1c-5.5 -7 -33 -25.2 -.4 -25.2 25.6 63.9 113.3 56.7 187.1 54.9z"/></svg>