<svg height="1000" width="968.8" xmlns="http://www.w3.org/2000/svg"><path d="M738.5 87.9c227.7 140.2 298.6 438.7 158.2 666.4C756.3 981.8 458 1052.7 230.3 912.3 2.5 771.9 -68.4 473.6 72.1 245.9 163.7 97.5 322.3 15.6 484.8 15.6c86.7 0 174.6 23.3 253.7 72.3zm101.1 631.2c10.4 -17 19.4 -34.3 27.2 -51.9C804.1 669.3 560 664.3 459 701.6c-114.1 42 -72.1 104.3 -61 131 7.5 17.8 28.8 56.3 46.3 82.8 13.3 1.2 26.6 2 39.9 2 139.8 0 276.5 -70.3 355.4 -198.3zM447.5 550.6c99.6 2.5 401.1 8.6 449.8 9.6C920.5 400.4 849.4 234.8 703.3 144.7 507 23.8 250 84.8 129.1 281.1 73.2 371.7 56.3 475.2 73.4 572.3 94.9 492.4 170.5 315.4 421.7 298.4c99.4 -7.8 81 37.5 46.1 58C433 377 378.5 402.9 333.2 456.4c-45.3 53.6 5.9 91.5 114.3 94.2zm358.9 -107c44.4 11.7 37.3 30.2 37.3 30.2l-90.8 45.7 -331 3.2s66 -21.1 127.5 -61.2c50.8 -33 97.1 -69.5 131.8 -69.5 7.3 0 14.1 1.8 20.4 5.3 36.1 20.7 -5.7 35.5 -26.2 48s-99 67.4 -99 67.4 2.7 14.8 60.7 -16c58 -31.1 125 -64.9 169.3 -53.1z"/></svg>