<svg height="1000" width="1250" xmlns="http://www.w3.org/2000/svg"><path d="M867.9 353.7C798 304.7 750 230.6 750 145.3V15.6C750 7 757 0 765.6 0h93.8C868 0 875 7 875 15.6v121.7c0 56.7 31 106.9 77.5 139.3 69 48.2 110 126.6 110 211.1v59.2c0 8.6 -7 15.6 -15.6 15.6h-93.8c-8.6 0 -15.6 -7 -15.6 -15.6v-59.2c0 -53.6 -25.9 -103.4 -69.6 -134zM380.8 701.1c43.7 -7 88 8.5 116.8 42L717.8 1000h-173C352.1 1000 163.4 945.9 0 843.8c116.6 -72.9 246.2 -121 380.8 -142.7zm699.8 -531c106.1 71.1 169.4 189.8 169.4 317.6v59.2c0 8.6 -7 15.6 -15.6 15.6h-93.8c-8.6 0 -15.6 -7 -15.6 -15.6v-59.2c0 -98 -49.2 -188.8 -131.6 -242.2 -36 -23.4 -55.9 -65.2 -55.9 -108.2V15.6C937.5 7 944.5 0 953.1 0h93.8c8.6 0 15.6 7 15.6 15.6v121.7c0 13.3 7.1 25.4 18.1 32.8zM704.9 687.6h.2c31.7 0 74.2 19.6 94.8 43.7l230.4 268.7H857.6c-31.8 0 -74.3 -19.6 -94.9 -43.7L532.6 687.9c2.7 0 105.1 -.2 172.3 -.3zm498.2 -.1c25.9 0 46.9 21 46.9 46.9v218.7c0 25.9 -21 46.9 -46.9 46.9h-34c-31.7 0 -74.3 -19.6 -94.9 -43.7L843.8 687.5h359.3z"/></svg>