<svg height="1000" width="875" xmlns="http://www.w3.org/2000/svg"><path d="M1.2 179.9C1.2 114.8 53.5 62.5 118 62.5c58.6 0 106.4 42.8 115.6 98 63.7 -14.8 131 1.2 188.5 58.6l-86.6 86.6c-40 -40.1 -83.2 -31.9 -108.2 -6.9 -27.9 28 -27.9 74.1 0 102l194.4 194.3 -86 86.5c-171.2 -170.3 -97 -97 -194.9 -194.7C88.5 435.2 72.5 360.4 92.4 293.8 39.8 282.4 1.2 235.7 1.2 179.9zm252.9 227.3C309.8 351.8 412.9 249.4 448.6 212.1c52 -51.9 126 -68.4 192 -49 8 -56.8 57.1 -100.8 116.2 -100.8 64.5 0 116.8 52.5 116.8 117.4 0 59.2 -44.3 108.2 -101.3 116.2 18.7 65.6 4.5 136.7 -56.5 197.7L629.9 407c40 -39.8 31.8 -83.2 6.8 -108.2 -27.9 -27.9 -73.4 -27.9 -101.3 0C515.8 318.6 360.2 474.2 340.6 493.7zm520.1 297.3c56.9 8 100.8 56.4 100.8 115.4 0 65.1 -52.3 117.4 -116.8 117.4 -57 0 -104.3 -40.4 -115 -93.9 -67.8 21.1 -146.7 4.3 -200.6 -54.7l85.9 -86.6c39.9 40.1 83.2 31.9 108.2 6.9 27.9 -27.9 27.9 -73.5 0 -101.4L442 412.9l86.5 -86.5c204.1 203.9 171.3 170.9 194.4 194.7 49.6 49.6 67.3 119.5 51.3 183.4zM609.6 600.8C439.1 771.3 477.9 733 415.2 795.5 365 845.1 295.1 862.3 231.3 846.3c-12 52.5 -58.6 91.2 -114.5 91.2C52.3 937.5 0 885.2 0 820.1 0 764.8 38.1 718.2 90.2 706.4c-16.6 -64.6 -1.3 -133 57.7 -191.9l85.9 86.5c-39.3 39.2 -31.8 82 -6.3 108.2 28 27.9 73.5 27.9 101.4 0C425.2 612.7 353.7 683 523.6 514.3z"/></svg>