<svg height="1000" width="875" xmlns="http://www.w3.org/2000/svg"><path d="M856.3 737.5c-6.3 25 -6.3 112.5 0 143.8 12.4 12.4 18.7 24.9 18.7 37.5V950c0 31.3 -25 50 -50 50H187.5C81.2 1000 0 918.8 0 812.5v-625C0 81.2 81.2 0 187.5 0H825c31.3 0 50 18.7 50 50v650c0 18.7 -6.2 31.2 -18.7 37.5zM743.7 750H187.5c-31.2 0 -62.5 25 -62.5 62.5s25 62.5 62.5 62.5h556.2V750zM250 343.8c0 1 .3 1.9 .3 2.9l72.5 63.4c2.9 2.6 5.3 7.9 5.3 11.8 0 8.6 -7 15.6 -15.6 15.6 -3.2 -.2 -7.8 -1.9 -10.3 -3.9l-46.1 -40.3c22.6 96.8 109 169.2 212.6 169.2S658.8 490.1 681.4 393.3l-46.1 40.3c-2.4 2.1 -7 3.9 -10.3 3.9 -3.8 -.2 -9.1 -2.6 -11.7 -5.3 -2 -2.5 -3.8 -7.1 -3.9 -10.3 .2 -3.8 2.6 -9.1 5.3 -11.8l72.5 -63.4c0 -1 .3 -1.9 .3 -2.9 0 -21.6 -4.1 -42.1 -9.9 -61.8l-41.5 41.5c-2.6 2.6 -7.5 4.6 -11.1 4.6 -8.6 0 -15.6 -7 -15.6 -15.6 0 -3.6 2 -8.5 4.6 -11l51.6 -51.6C649 215.4 608.4 172.3 575 153.7c10.4 16.5 18.7 45.7 18.7 65.2 0 32.7 -20.6 75.8 -46.2 96.2 16.9 17.5 30.6 51.4 30.6 75.7 0 48.9 -38.8 96.7 -86.6 106.7l-2.8 -66.9 24.7 16.8c1.1 .8 3.1 1.4 4.4 1.4h.1c4.3 0 7.7 -3.5 7.7 -7.8 0 -1.2 -.4 -3 -1.1 -4l-16.6 -28 34.9 -7.2c3.5 -.8 6.3 -4.2 6.3 -7.7s-2.8 -6.9 -6.3 -7.7l-34.9 -7.2 16.6 -28c.7 -1 1.1 -2.8 1.1 -4 0 -4.3 -3.4 -7.8 -7.7 -7.8h-.1c-1.3 .1 -3.3 .7 -4.4 1.4l-27.7 18.8 -9.1 -219.3c-.2 -4.1 -3.7 -7.5 -7.9 -7.5s-7.6 3.4 -7.8 7.5l-9 216.4 -23.4 -15.9c-1.1 -.8 -3.1 -1.4 -4.4 -1.4 -4.3 0 -7.8 3.5 -7.8 7.9 0 1.1 .5 2.9 1.1 4l16.6 27.9 -35 7.3c-3.4 .7 -6.2 4.1 -6.2 7.6s2.8 7 6.2 7.7l35 7.3L417.4 437c-.6 1 -1.1 2.8 -1.1 4 .1 1.8 1.2 4.3 2.4 5.7 1.3 1.1 3.7 2.1 5.4 2.1 1.3 0 3.3 -.6 4.4 -1.4l20.2 -13.7 -2.7 63.9C398.2 487.5 359.4 439.7 359.4 390.8c0 -24.3 13.7 -58.2 30.6 -75.7C364.4 294.7 343.8 251.6 343.8 219c0 -19.6 8.4 -48.8 18.7 -65.4 -33.4 18.7 -74 61.8 -90.6 96.2l51.6 51.7c2.6 2.5 4.6 7.4 4.6 11 0 8.6 -7 15.6 -15.6 15.6 -3.6 0 -8.5 -2 -11 -4.6L259.9 282c-5.8 19.7 -9.9 40.2 -9.9 61.8z"/></svg>