<svg height="1000" width="875" xmlns="http://www.w3.org/2000/svg"><path d="M0 62.5h875v875H0v-875zm476.2 682.4V464.3h-82.3v279.5c0 41.2 -17.1 51.7 -44.1 51.7 -28.3 0 -40 -19.3 -52.9 -42.2l-67 40.5c19.5 41.2 57.6 75.1 123.4 75.1 72.9 0 122.9 -38.8 122.9 -124zm194.5 124c77.9 0 136.1 -40.6 136.1 -114.4 0 -68.8 -39.2 -99.4 -109.1 -129.3l-20.6 -8.8C641.8 601 626.6 591 626.6 566.4c0 -19.9 15.2 -35.2 39.2 -35.2 23.7 0 38.9 10 52.9 35.2l64.1 -41C755.9 477.7 718.4 459.6 666 459.6c-73.2 0 -120.3 46.8 -120.3 108.6 0 67 39.3 98.8 98.6 124l20.5 8.8c37.7 16.6 60 26.5 60 54.7 0 23.6 -21.9 40.6 -55.9 40.6 -40.4 0 -63.4 -21.3 -81 -50l-67 38.7c24 47.6 73.4 83.9 149.8 83.9z"/></svg>