<svg height="1000" width="1125" xmlns="http://www.w3.org/2000/svg"><path d="M997.3 463.8c89.3 49.5 133.6 145.6 111 239.5C1084.7 801.8 999.8 872.6 897 873.8c-164.1 2 -328.3 .9 -492.4 .9 -59.3 .1 -118.5 1 -177.7 -1C133 870.5 47.7 803.6 20.6 714.6 -7 623.7 24.9 529.8 102.5 471.3c5 -3.8 9.5 -12.8 8.8 -18.7C104 390.4 125.3 340 175.1 303.4 226.4 265.7 283 261.2 341.8 285.5c4.6 1.9 9 4.2 15.3 7.2C389.3 238.9 431.5 197.6 485 167.9c181.3 -101.1 412 -16.3 482.1 179 10.9 30.2 13.2 63.6 17.8 95.8 1.4 9.9 3.2 16 12.4 21.1zm41.3 306.4c76.7 -94.5 43.7 -229.8 -68.7 -282.2 -14.5 -6.8 -19 -15.1 -19.2 -31.1C947 212.5 691.3 91.6 501 197.8c-51 28.4 -90.7 68.1 -118.5 119.7 -14.8 27.5 -23.3 15.6 -43.4 4.9 -48 -25.5 -95.8 -24.7 -140.6 6 -43 29.4 -62.4 71.6 -51.6 123 4.7 22.6 -1.8 33.4 -19.8 45.2C52.5 546 23.4 642.8 60.4 723.4c36 78.6 100.2 116.5 185.9 117.2 1.3 0 319.7 1 319.7 -.3 111.1 0 222.3 1.1 333.3 -.5 56.6 -.7 103.7 -25.8 139.3 -69.6zM867.1 613c-11.4 60.8 -67.6 107.6 -130.2 107.6 -33.1 0 -62.6 -12.8 -86.1 -34.6C596.7 635.8 511.8 539.6 463.4 503.6c-39.2 -29.1 -82 -24.1 -117.7 7.4 -97.6 86.1 31 237.8 131 150.8 8.9 -7.8 15.3 -18.7 24.9 -25.1 16 -10.8 40.5 -1.8 25.7 20.7 -33.9 51.3 -96.4 74.6 -154 57.2 -56.5 -17 -95.4 -70.2 -95 -137 2.4 -43.9 24.1 -84.1 69.2 -109.3 44 -24.7 90.5 -25.7 130.8 4.8 99.2 75.1 147.6 159.7 209.6 197.7 47.9 29.5 105.9 14.4 134.4 -34.2C878.6 540.5 754.7 431.5 668.2 512.7c-7.7 7.3 -13.5 17.4 -22.2 22.9 -21.5 13.3 -33.9 -8 -25.1 -20.2 40.5 -55.8 98.6 -79 162.7 -55.1 61.4 22.8 95.9 86.6 83.5 152.7z"/></svg>