<svg height="1000" width="1125" xmlns="http://www.w3.org/2000/svg"><path d="M1082.3 163.1c25.5 8.5 42.7 32.4 42.7 59.3v95.7L607.4 162.8C578 154 547 154 517.6 162.8L0 318.1v-95.7C0 197.5 19.1 171 42.7 163.1L503.2 9.6C519.2 4.3 545.7 0 562.5 0s43.4 4.3 59.3 9.6zm-546.7 59.6c17.6 -5.3 36.2 -5.3 53.9 0L1125 383.4v446.1c0 29.2 -20.3 54.6 -48.9 61l-472.9 105c-11.1 2.5 -29.3 4.5 -40.7 4.5s-29.6 -2 -40.7 -4.5L48.9 890.5C20.4 884.1 0 858.7 0 829.5V383.4zM250 449.4v-32.3c0 -10.4 -9.8 -17.8 -19.7 -15.1L74 444.6c-6.8 1.8 -11.5 8 -11.5 15.1V492c0 10.3 9.8 17.8 19.7 15.1l156.3 -42.6c6.8 -1.8 11.5 -8 11.5 -15.1zm281.3 -76.7v-32.4c0 -10.3 -9.9 -17.8 -19.8 -15L324 376.4c-6.8 1.8 -11.5 8 -11.5 15.1v32.3c0 10.4 9.8 17.8 19.7 15.1l187.5 -51.1c6.8 -1.9 11.6 -8 11.6 -15.1zM875 417.1v32.3c0 6.6 5.2 13.4 11.5 15.1l156.3 42.6c9.9 2.7 19.7 -4.7 19.7 -15.1v-32.3c0 -7.1 -4.7 -13.3 -11.5 -15.1L894.7 402c-9.9 -2.7 -19.7 4.7 -19.7 15.1zM593.8 340.4v32.3c0 6.6 5.1 13.4 11.5 15.1l187.5 51.1c9.9 2.8 19.7 -4.7 19.7 -15v-32.4c0 -7.1 -4.7 -13.2 -11.5 -15.1L613.5 325.3c-9.9 -2.7 -19.7 4.7 -19.7 15.1z"/></svg>