<svg height="1000" width="1000" xmlns="http://www.w3.org/2000/svg"><path d="M1000 343.8c0 189.8 -153.9 343.7 -343.7 343.7 -22 0 -43.4 -2.1 -64.2 -6l-46.9 52.8c-7.7 8.7 -23.4 15.7 -35 15.7h-72.7v78.1c0 25.9 -21 46.9 -46.9 46.9h-78.1v78.1c0 25.9 -21 46.9 -46.9 46.9H46.9C21 1000 0 979 0 953.1V800.7c0 -12.5 4.9 -24.4 13.7 -33.2l316 -316A345.719 345.719 0 0 1 312.5 343.7C312.5 153.9 466.4 0 656.2 0 846.7 0 1000 153.3 1000 343.8zM656.3 250c0 51.8 41.9 93.8 93.7 93.8s93.8 -42 93.8 -93.8 -42 -93.7 -93.8 -93.7 -93.7 41.9 -93.7 93.7z"/></svg>