<svg height="1000" width="1125" xmlns="http://www.w3.org/2000/svg"><path d="M1031.3 875H93.8C42 875 0 833 0 781.3V218.8C0 167 42 125 93.8 125h937.5c51.7 0 93.7 42 93.7 93.8v562.5c0 51.7 -42 93.7 -93.7 93.7zM250 351.6v-78.2C250 260.5 239.5 250 226.6 250h-78.2c-12.9 0 -23.4 10.5 -23.4 23.4v78.2c0 12.9 10.5 23.4 23.4 23.4h78.2c12.9 0 23.4 -10.5 23.4 -23.4zm187.5 0v-78.2C437.5 260.5 427 250 414.1 250h-78.2c-12.9 0 -23.4 10.5 -23.4 23.4v78.2c0 12.9 10.5 23.4 23.4 23.4h78.2c12.9 0 23.4 -10.5 23.4 -23.4zm187.5 0v-78.2C625 260.5 614.5 250 601.6 250h-78.2c-12.9 0 -23.4 10.5 -23.4 23.4v78.2c0 12.9 10.5 23.4 23.4 23.4h78.2c12.9 0 23.4 -10.5 23.4 -23.4zm187.5 0v-78.2C812.5 260.5 802 250 789.1 250h-78.2c-12.9 0 -23.4 10.5 -23.4 23.4v78.2c0 12.9 10.5 23.4 23.4 23.4h78.2c12.9 0 23.4 -10.5 23.4 -23.4zm187.5 0v-78.2C1000 260.5 989.5 250 976.6 250h-78.2c-12.9 0 -23.4 10.5 -23.4 23.4v78.2c0 12.9 10.5 23.4 23.4 23.4h78.2c12.9 0 23.4 -10.5 23.4 -23.4zM343.8 539.1v-78.2c0 -12.9 -10.5 -23.4 -23.5 -23.4h-78.1c-13 0 -23.4 10.5 -23.4 23.4v78.2c0 12.9 10.4 23.4 23.4 23.4h78.1c13 0 23.5 -10.5 23.5 -23.4zm187.5 0v-78.2c0 -12.9 -10.5 -23.4 -23.5 -23.4h-78.1c-13 0 -23.4 10.5 -23.4 23.4v78.2c0 12.9 10.4 23.4 23.4 23.4h78.1c13 0 23.5 -10.5 23.5 -23.4zm187.5 0v-78.2c0 -12.9 -10.5 -23.4 -23.5 -23.4h-78.1c-13 0 -23.4 10.5 -23.4 23.4v78.2c0 12.9 10.4 23.4 23.4 23.4h78.1c13 0 23.5 -10.5 23.5 -23.4zm187.5 0v-78.2c0 -12.9 -10.5 -23.4 -23.5 -23.4h-78.1c-13 0 -23.4 10.5 -23.4 23.4v78.2c0 12.9 10.4 23.4 23.4 23.4h78.1c13 0 23.5 -10.5 23.5 -23.4zM250 726.6v-78.2C250 635.5 239.5 625 226.6 625h-78.2c-12.9 0 -23.4 10.5 -23.4 23.4v78.2c0 12.9 10.5 23.4 23.4 23.4h78.2c12.9 0 23.4 -10.5 23.4 -23.4zm562.5 0v-78.2C812.5 635.5 802 625 789.1 625H335.9c-12.9 0 -23.4 10.5 -23.4 23.4v78.2c0 12.9 10.5 23.4 23.4 23.4h453.2c12.9 0 23.4 -10.5 23.4 -23.4zm187.5 0v-78.2C1000 635.5 989.5 625 976.6 625h-78.2c-12.9 0 -23.4 10.5 -23.4 23.4v78.2c0 12.9 10.5 23.4 23.4 23.4h78.2c12.9 0 23.4 -10.5 23.4 -23.4z"/></svg>