<svg height="1000" width="875" xmlns="http://www.w3.org/2000/svg"><path d="M558.9 818.4c19.4 0 35.2 15.7 35.2 35.1s-15.8 35.2 -35.2 35.2c-19.4 0 -35.1 -15.8 -35.1 -35.2s15.7 -35.1 35.1 -35.1zM777.5 530.1c44.8 65.3 70.2 141.3 70.2 216.6 0 61.9 -9.8 118.5 -28.6 168.4 -5.9 15.8 -21.3 24.9 -35.8 21.8 -13.4 -2.4 -21.8 -18.1 -16.8 -30.7 21.8 -56.1 29 -114 29 -159.5 -.1 -15.4 -2.5 -40.3 -5.4 -55.5 -1.3 2.1 -2.2 4.3 -3.7 6.3 -33.7 47.9 -98.7 66.2 -165.5 46.5 -154 -45.2 -347.7 -7.4 -461.4 75.4l48.2 -144.7 -91.5 116.8c4 30 17.8 76.5 30.8 103.8 12.2 25.8 .9 35.6 -7.3 39.3 -9.3 4.1 -27.1 5.4 -38.4 -14.3C90.7 901.1 78 868.2 72.9 846.9l-45.6 58.2v-65.7c0 -108.9 0 -244.4 122.4 -368C172 448.8 212.5 417.7 240.1 402l-17.4 -1.1c-54.5 -3.2 -96.2 -48.5 -93.1 -101.2l4.7 -71.7c0 12.2 .2 -89.6 99.1 -89.6 4 0 -.9 -.2 80.2 4.6 4.5 .3 11.8 1.4 16.2 2.4 14.5 -22.1 30.5 -44.6 47.5 -68.1L388 62.5l44.7 26.4c-22 46.9 -19.5 64.5 -18.3 68.4 17.7 -.5 39 3.2 63.3 11.2 57.9 19.3 104.9 84.4 104.9 145.4 0 16.6 -5.1 42.6 -11.4 58 12.1 4.2 24 8.9 35.9 14.2 93.5 41.5 151.9 115.4 170.4 144zm-499.4 -279c3 -10.6 9.1 -27.3 13.6 -37.4l-56.8 -3.4c1.2 .1 -24 -1.6 -25.9 22.1l-4.7 71.6c0 .3 0 .8 0 1 0 12.7 10.3 23.5 22.9 24l43.8 2.6c-.8 -6 -1.4 -15.9 -1.4 -22 0 -4.5 .3 -11.8 .7 -16.2l-25.6 -1.5 2.7 -42.6zm289.8 336.3c4.1 -3.1 7.3 -9.7 7.3 -14.8 0 -3.5 -1.7 -8.6 -3.9 -11.4L413 373c-3.4 -3.8 -10.3 -7 -15.4 -7 -3.9 0 -9.5 2 -12.6 4.4 -4 3.1 -7.3 9.7 -7.3 14.8 0 3.5 1.8 8.6 3.9 11.4 .2 .3 36.4 43.2 36.4 43.2l-33.1 26c-3.1 2.4 -5.6 7.5 -5.6 11.4 0 2.7 1.3 6.6 3 8.8 .1 .2 4.9 6 7.4 8.8 2.5 2.9 7.6 5.2 11.4 5.2 2.8 0 7 -1.5 9.3 -3.2l33.4 -26.3 27.6 32.7 -67.6 53.1c-3 2.4 -5.6 7.5 -5.6 11.4 0 2.7 1.4 6.6 3 8.8l30.9 36.4c2.6 3 7.9 5.5 11.9 5.5 3 0 7.4 -1.5 9.8 -3.4L521 562.3l18.9 22.4c3.4 3.9 10.3 7 15.5 7 3.9 0 9.5 -1.9 12.5 -4.3zm-201.8 231c19.4 0 35.2 15.7 35.2 35.1s-15.8 35.2 -35.2 35.2c-19.4 0 -35.2 -15.8 -35.2 -35.2s15.8 -35.1 35.2 -35.1z"/></svg>