<svg height="1000" width="1000" xmlns="http://www.w3.org/2000/svg"><path d="M124.6 799.4L242.8 684.2c62.7 83.6 138.8 128.9 247.2 131.6 59.6 1.4 117.8 -13.7 168.8 -43.7 10 10.3 36.1 38.1 40.8 42.9 -62.9 40.5 -135.9 60.8 -211.1 59C403.9 871.9 323.2 841.4 258.6 787.3c.6 -1.2 -74.6 73.2 -75.4 74 18.6 58.2 -25.6 121.9 -90.4 121.9C40.4 983 0 940.8 0 888.5c0 -67 64.6 -110.6 124.6 -89.1zm693.2 -493c37.3 61.2 57.8 131.7 56 203.2 -2.1 87.5 -37.1 170.9 -94.9 236.3 .6 .6 46.5 49.2 47.1 49.8 18.7 -2.5 37.5 3.9 50.6 17.8 22 23.4 21.3 60.3 -2.2 82.8 -23.4 22.1 -60.3 21.3 -82.8 -2.2 -13.1 -13.6 -18.4 -32.8 -14.8 -51.3C728.1 790.8 690 750.6 690 750.6 773.4 684 813.7 595.1 815.8 508c1.4 -56.4 -14 -111.7 -41.2 -160.5zM203.1 103.7c13.1 13.7 18.4 32.8 14.9 51.4l89.6 93.9c-9.2 7.4 -26 20.3 -44.5 41.6 -49.6 55.7 -77.4 126.6 -79.5 201 -1.4 56.4 11.9 111.7 39.1 160.9l-43 42C142 632.8 123.2 562.3 125.4 490c1.9 -87.1 35.7 -171.1 92.8 -236.5L168.8 202c-18.8 2.5 -37.5 -4 -50.6 -17.8 -22.1 -23.5 -21.3 -60.4 2.1 -82.8 23.3 -21.9 59.8 -21.3 82.8 2.3zM908 15.6c50.8 0 92 43.8 92 94.4 0 50.5 -41.2 93.1 -92 93.1 -12.3 .2 -27.3 -2.1 -31 -3.5L754.1 316.2C690.2 231.1 604.3 187.5 506.3 185c-59.6 -1.4 -117.8 13.2 -168.4 43.7l-41.2 -43C359.6 145.1 432.6 125 507.8 126.8c84.6 2.1 165.2 32.6 229.9 87.1L818 138.5c-3 -9.2 -4.3 -18.8 -4.3 -28.3C813.5 58 857.2 15.6 908 15.6zM501.4 221.5c10.7 0 21.3 .8 32 2.1C685.9 242.8 793.9 382 775.2 534.4 756.1 686.9 616.8 794.9 464.5 776.2 311.9 757 203.9 617.8 222.7 465.2 240.8 323.8 359.6 221.9 501.4 221.5zM386.1 454.7c1.2 44.3 23.9 81.6 63.3 101.9l-21.5 101h144l-21.5 -101c39.2 -21.2 62.7 -56.6 63.3 -101.9C612.9 390.6 563.3 342.4 499.8 340.8c-62.7 1.6 -111.9 48.5 -113.7 113.9zM500 312.5z"/></svg>