<svg height="1000" width="1000" xmlns="http://www.w3.org/2000/svg"><path d="M812.1 128.9c144 78.6 218.3 241.9 176.1 405.3 -14.1 54.9 -43.7 104.6 -80.5 147.6L805.1 801.6c-9.5 11.1 -25.5 14.1 -38.4 7.2l-155 -82.5 -57 39.8 91.9 64c3.3 -.7 6.3 -2 9.8 -2 25.9 0 46.9 21 46.9 46.9s-21 46.9 -46.9 46.9c-23.6 0 -42.3 -17.8 -45.5 -40.6L531 825.7v58.9c18.3 10.9 31.2 30 31.2 52.9 0 34.5 -28 62.5 -62.5 62.5s-62.4 -28 -62.4 -62.5c0 -22.9 12.9 -42 31.2 -52.9v-58.5l-79.4 55.2c-3.2 22.8 -21.9 40.6 -45.5 40.6 -25.9 0 -46.9 -21 -46.9 -46.9s21 -46.9 46.9 -46.9c3.5 0 6.5 1.3 9.8 2l91.9 -64 -57 -39.7 -155 82.4c-12.9 6.9 -28.9 3.9 -38.4 -7.2L85.6 673.9C61 645.3 39.9 613.2 26.1 578.1 -43.6 401 31.9 214.1 185.3 130.4c12.3 -6.9 29.3 -5.2 39.1 5.2 9.7 10.4 12.6 25.3 5 37.3C197.2 224 180.2 283 180.2 343.8c.3 103.8 52.3 200.4 138.7 258.1l149.6 104.2v-38.9l-86 -70.5c-7.7 -8.2 -9.8 -19.7 -5.5 -29.8l15.3 -33.7C326.2 495.6 281.1 425.3 281.1 343.8c0 -79.7 43 -148.7 106.6 -187l-10.2 -22.3c-4.5 -10.8 -1.8 -23.1 7 -31.4L499.7 0l115.2 103.2c8.8 8.2 11.6 20.5 7 31.3l-10.2 22.3c63.6 38.3 106.6 107.3 106.6 187 0 81.5 -45.1 151.8 -111.2 189.4l15.4 33.7c4.2 10.1 2.1 21.6 -5.5 29.8l-86.1 70.5v39.3L680.6 602.3C767.5 544.2 819.4 447.7 819.8 343.7c0 -60.6 -17 -119.7 -49.2 -170.8 -2.7 -4.2 -4.8 -11.6 -4.8 -16.6 0 -6.9 3.8 -16.5 8.5 -21.5 9.8 -10.4 25.4 -12.7 37.8 -5.9zM624.6 343.8c0 -41.7 -20.6 -78.4 -52 -101.2l-15.3 33.6c-17.1 47.9 -17.1 99.7 0 147.6l11 24.2c33.9 -22.4 56.3 -60.7 56.3 -104.2zm-249.8 0c0 43.5 22.4 81.8 56.3 104.2l11 -24.2c17.1 -47.9 17.1 -99.7 0 -147.6l-15.2 -33.5c-31.5 22.7 -52.1 59.4 -52.1 101.1z"/></svg>