<svg height="1000" width="875" xmlns="http://www.w3.org/2000/svg"><path d="M781.3 937.5H93.8C42.2 937.5 0 895.3 0 843.8V156.3C0 104.7 42.2 62.5 93.8 62.5h687.5c51.5 0 93.7 42.2 93.7 93.8v687.5c0 51.5 -42.2 93.7 -93.7 93.7zM389.8 348.6c0 -59.9 -34.3 -88.1 -77.5 -88.1 -50.4 0 -78.1 38.7 -78.1 87v302.3c0 50.4 26.7 89.1 79.1 89.1 42 0 76.5 -27.4 76.5 -89.1v-81.6L508.2 716c24 29.1 76.2 32.8 109 0 28.5 -29.5 28.9 -71.9 7.8 -98.4L529.1 494.9l79.1 -114.6c18.4 -26.4 18.6 -67.4 -10.9 -95.9 -32.1 -31.1 -87.1 -33.8 -120 13.6l-87.5 126.4v-75.8z"/></svg>