<svg height="1000" width="968.8" xmlns="http://www.w3.org/2000/svg"><path d="M484.4 15.6C752 15.6 968.8 232.4 968.8 500S752 984.4 484.4 984.4 0 767.6 0 500 216.8 15.6 484.4 15.6zm-76.2 429.5c8.2 14.7 30.5 7.8 29.5 -8.8C431.2 354.1 374.8 296.9 328.3 296.9c-46.5 0 -102.9 57.2 -109.4 139.4 -1.3 16.6 20.9 23.3 29.1 8.8l18.6 -33.2c15 -26.7 37.5 -42.2 61.5 -42.2s46.5 15.5 61.5 42.2zm185.6 328.3c0 -25.4 -26.2 -53.3 -68.8 -71.1 42.6 -16.9 68.8 -44.9 68.8 -70.3 0 -37.5 -56.1 -81 -139.7 -85.9 -16.4 -2.2 -23.8 23 -7 30.1l33.2 14c25.4 10.8 40.6 26.4 40.6 42s-15.2 31.3 -40.6 42l-33.2 14.1c-11.9 5.1 -11.7 24 0 28.9l33.2 14.1c25.4 10.7 40.6 26.3 40.6 41.9s-15.2 31.3 -40.6 42l-33.2 14.1c-16.6 7 -9.6 31.6 7 30.1 83.6 -4.9 139.7 -48.5 139.7 -86zM720.7 445.1c8.2 14.7 30.5 7.8 29.5 -8.8C743.7 354.1 687.3 296.9 640.8 296.9c-46.5 0 -102.9 57.2 -109.4 139.4 -1.3 16.6 21.1 23.1 29.1 8.8l18.6 -33.2c15 -26.7 37.5 -42.2 61.5 -42.2s46.5 15.5 61.5 42.2z"/></svg>