<svg height="1000" width="984.4" xmlns="http://www.w3.org/2000/svg"><path d="M978.7 786.1c18 46.7 -8.6 96.5 -55.7 108.8l-162.1 42c-10.5 2.7 -21.3 -3.5 -24.2 -13.9L692 761.7C679.1 714.8 709.2 666.8 758.4 659c43 -6.9 84.2 22.6 95.7 64.4l4.5 16.4 16.4 -4.3c42.2 -10.9 88.1 10 103.7 50.6zm-346.9 -7.8s46.1 163.9 46.7 165.3c-59.6 26.1 -125 40.8 -194.1 40.8C216.8 984.4 0 767.6 0 500S216.8 15.6 484.4 15.6 968.8 232.4 968.8 500c0 62.1 -12.2 121.3 -33.4 175.8 -11.8 -2.9 -23.9 -5.5 -36.4 -5.7C842.2 572.9 707.4 571.3 649.4 661.7c-22.1 34.6 -28.5 77 -17.6 116.6zM328.1 468.8c34.6 0 62.5 -28 62.5 -62.5s-27.9 -62.5 -62.5 -62.5 -62.5 27.9 -62.5 62.5 28 62.5 62.5 62.5zm234.4 304.6c0 -25.4 -26.2 -53.3 -68.8 -71.1 42.6 -16.9 68.8 -44.9 68.8 -70.3 0 -37.5 -56.1 -81 -139.6 -85.9 -16.1 -2.3 -24.3 22.8 -7.1 30.1l33.2 14c25.4 10.8 40.6 26.4 40.6 42s-15.2 31.3 -40.6 42l-33.2 14.1c-11.1 4.9 -11.7 24 0 28.9l33.2 14.1c25.4 10.7 40.6 26.3 40.6 41.9s-15.2 31.3 -40.6 42l-33.2 14.1c-16.6 7 -9.5 31.6 7.1 30.1 83.5 -4.9 139.6 -48.5 139.6 -86zm31.3 -349.6l18.9 -16.6c28.9 -25.8 90.2 -25.8 119.1 0l18.6 16.6c16.6 14.7 42 .6 38.7 -21.1 -7.8 -49.2 -66.8 -82.2 -117 -82.2s-109.2 33 -117 82.2c-3.5 21.9 22.4 35.6 38.6 21.1z"/></svg>