<svg height="1000" width="1125" xmlns="http://www.w3.org/2000/svg"><path d="M1124.6 425.7c.6 11.3 .3 480.6 .3 480.6 0 14.2 -9.6 26.7 -23.5 30.2 -2.6 .7 -5.1 1 -7.7 1 -11.2 0 -21.9 -6.1 -27.4 -16.3L920.9 654.7c-13.7 .9 4.8 1.6 -45 1.6 -106.6 0 -207.8 37.5 -297.1 95.8 -24.4 15.8 -51 28.2 -78.8 38.1v116.1c0 17.2 -14 31.2 -31.3 31.2h-31.2c-17.3 0 -31.3 -14 -31.3 -31.2v-96.1c-10.4 .9 -20.6 2.3 -31.2 2.3 -32.4 0 -63.8 -4.5 -93.8 -12.2v106c0 17.2 -14 31.2 -31.2 31.2h-31.3c-17.2 0 -31.2 -14 -31.2 -31.2V761.7C75.5 696.9 .1 576.1 0 437.5 -.2 152.8 252.5 80.3 287.7 72.4c111.7 -25.3 217.2 -.5 299.3 56 84.9 58.6 185.3 90.4 288.5 90.4h18.3c118.5 0 224.6 88.6 230.8 206.9zm-218.4 58.7c25.9 0 46.9 -21 46.9 -46.9s-21 -46.9 -46.9 -46.9 -46.9 21 -46.9 46.9 21 46.9 46.9 46.9zm156.2 299.3V590.2c-21.7 22.2 -48.3 39.4 -77.8 50.8z"/></svg>