<svg height="1000" width="1000" xmlns="http://www.w3.org/2000/svg"><path d="M979.7 179.9c12.2 4.6 20.3 16.2 20.3 29.3v72c0 17.3 -14 31.3 -31.3 31.3H31.2C14 312.5 0 298.5 0 281.2v-72c0 -12 9.1 -25.1 20.3 -29.3L478.1 4C483.9 1.8 493.8 0 500 0s16.1 1.8 22 4zM125 375h125v312.5h187.5V375h125v312.5H750V375h125v312.5h31.3c17.2 0 31.2 14 31.2 31.3v93.7h-875v-93.7c0 -17.3 14 -31.3 31.3 -31.3H125V375zm843.8 500c17.2 0 31.2 14 31.2 31.3v62.5c0 17.2 -14 31.2 -31.2 31.2H31.3C14 1000 0 986 0 968.8v-62.5C0 889 14 875 31.3 875h937.5z"/></svg>