<svg height="1000" width="1250" xmlns="http://www.w3.org/2000/svg"><path d="M297.1 461.3l21.3 73.3h-74.5l21.7 -73.3c6.9 -23.6 15.3 -64.8 15.3 -64.8h.9s8.4 41.2 15.3 64.8zm906 -273.8c26 0 46.9 20.9 46.9 46.9v531.2c0 26 -20.9 46.9 -46.9 46.9H656.3v-625h546.8zm-46.8 234.4v-31.3c0 -12.9 -10.6 -23.4 -23.5 -23.4h-125v-31.3c0 -12.9 -10.5 -23.4 -23.4 -23.4h-31.3c-12.9 0 -23.4 10.5 -23.4 23.4v31.3h-125c-12.9 0 -23.4 10.5 -23.4 23.4v31.3c0 12.9 10.5 23.4 23.4 23.4h223.2c-12.1 27.9 -32.2 56.7 -58.6 84.4 -12.9 -13.5 -24.2 -27.2 -33.9 -40.8 -7.1 -10 -20.8 -12.9 -31.3 -6.7l-14.3 8.4 -12.7 7.6c-11.5 6.9 -15 22.3 -7.2 33.4 11.9 17 25.6 33.8 41 50.2C895.1 594.1 878.1 605.9 860 617c-11 6.6 -14.5 20.7 -8.2 31.6l15.4 27.2c6.6 11.5 21.3 15.2 32.6 8.4 24.8 -15.3 47.9 -31.7 69.1 -48.7 21.3 17.2 44.6 33.4 69.2 48.7 11.3 6.8 26 3.1 32.6 -8.4l15.4 -27.2c6.3 -11.1 2.8 -25 -8 -31.6 -17.6 -10.7 -34.5 -22.7 -51 -35.2 41.1 -43.9 70 -90.4 83.4 -136.5h22.3c12.9 0 23.5 -10.5 23.5 -23.4zM0 234.4c0 -26 20.9 -46.9 46.9 -46.9h546.9v625H46.9C20.9 812.5 0 791.6 0 765.6V234.4zm115 422c-5 15.3 6.3 31.1 22.3 31.1H182c10.4 0 19.6 -7 22.5 -17l17.8 -62.1h117.5l18.4 62.3c2.7 9.3 12.8 16.8 22.5 16.8h44.7c16.2 0 27.3 -15.8 22.3 -31.1L335.4 326.2C332 316.8 323 310.4 313.1 310.4h-63.5c-10.1 0 -18.9 6.2 -22.3 15.8z"/></svg>