<svg height="1000" width="1250" xmlns="http://www.w3.org/2000/svg"><path d="M453.1 437.5c-8.6 0 -15.6 -7 -15.6 -15.6v-93.8c0 -8.6 7 -15.6 15.6 -15.6h109.4V203.1c0 -8.6 7 -15.6 15.6 -15.6h93.8c8.6 0 15.6 7 15.6 15.6v109.4h109.4c8.6 0 15.6 7 15.6 15.6v93.8c0 8.6 -7 15.6 -15.6 15.6H687.5v109.4c0 8.6 -7 15.6 -15.6 15.6h-93.8c-8.6 0 -15.6 -7 -15.6 -15.6V437.5H453.1zM1125 93.8V750H125V93.8C125.2 42.2 167.2 .2 218.8 0h812.5c51.5 .2 93.5 42.2 93.7 93.8zM1000 625V125H250v500h750zm218.8 187.5c17.2 0 31.2 14 31.2 31.3V875c-.2 68.8 -56.2 124.8 -125 125H125C56.2 999.8 .2 943.8 0 875v-31.2c0 -17.3 14 -31.3 31.3 -31.3h467.2c-.5 28.4 27.5 62.5 64 62.5h118.7c35.3 0 62.5 -23.8 64 -62.5h473.5z"/></svg>