<svg height="1000" width="1250" xmlns="http://www.w3.org/2000/svg"><path d="M498.1 511l-114 -113.9c-12.2 -12.2 -12.2 -32 0 -44.2l114 -114c12.2 -12.2 32 -12.2 44.2 0l22.1 22.1c12.2 12.2 12.2 32 0 44.2L494.6 375l69.8 69.7c12.2 12.3 12.2 32 0 44.2L542.3 511c-12.2 12.2 -32 12.2 -44.2 0zm187.5 -22c-12.2 -12.2 -12.2 -32 0 -44.2L755.4 375l-69.8 -69.7c-12.2 -12.3 -12.2 -32 0 -44.2L707.7 239c12.2 -12.2 32 -12.2 44.2 0l114 113.9c12.2 12.2 12.2 32 0 44.2l-114 114c-12.2 12.2 -32 12.2 -44.2 0zm533.2 323.5c17.1 0 31.2 14.1 31.2 31.3V875c0 68.8 -56.2 125 -125 125H125C56.2 1000 0 943.8 0 875v-31.2c0 -17.2 14.1 -31.3 31.3 -31.3h467.2c-.5 28.4 27.5 62.5 64 62.5h118.7c35.3 0 62.5 -23.8 64 -62.5h473.5zM1125 93.8V750H125V93.8C125 42.2 167.2 0 218.8 0h812.5c51.5 0 93.7 42.2 93.7 93.8zM1000 625V125H250v500h750z"/></svg>