<svg height="1000" width="1250" xmlns="http://www.w3.org/2000/svg"><path d="M531.3 562.5v250H187.5C153 812.5 125 784.5 125 750V429.5l-42.3 37.3c-4.4 3.5 -12.6 6.5 -18.2 6.8 -6.8 -.4 -16.1 -4.5 -20.9 -9.3L6.9 422.6C3.4 418.2 .3 410 0 404.3c.4 -6.7 4.6 -16 9.3 -20.7L423 17.4C433.8 7.8 454.4 0 468.8 0c14.5 0 35.1 7.8 45.8 17.4l172.9 153.1V93.8c0 -17.3 14 -31.3 31.3 -31.3h62.5c17.2 0 31.2 14 31.2 31.3v187.5l115.7 102.3c4.8 4.7 8.9 14 9.3 20.7 -.3 5.7 -3.5 14 -7.1 18.5l-12.9 14.7H650c-34.8 0 -65.8 16.1 -87.5 41.3v-72.5c0 -17.3 -14 -31.3 -31.2 -31.3h-125C389 375 375 389 375 406.3v125c0 17.2 14 31.2 31.3 31.2h125zM1229.2 875c11.5 0 20.8 9.3 20.8 20.8v20.9c-.2 45.7 -37.4 83.1 -83.2 83.3H583.2c-45.8 -.2 -83 -37.6 -83.2 -83.3v-20.9c0 -11.5 9.3 -20.8 20.8 -20.8h72.9V562.5C593.7 528 618.9 500 650 500h450c31.1 0 56.2 28 56.2 62.5V875h73zm-166.7 0V593.8h-375V875h375z"/></svg>