<svg height="1000" width="1000" xmlns="http://www.w3.org/2000/svg"><path d="M985.2 226.2c.2 1.1 .4 2.9 .4 4 0 0 0 .1 0 .1v214.6s0 .1 0 .1c0 5 -3.5 11 -7.8 13.5L797.7 562.3v205.6c0 5 -3.5 11 -7.9 13.5L413.7 997.9c-.7 .4 -1.9 .9 -2.7 1.1 -.3 .2 -.7 .4 -1.1 .5 -1 .3 -2.8 .5 -4 .5 -1.1 0 -2.9 -.2 -4 -.5 -.4 -.1 -.8 -.4 -1.2 -.5 -.7 -.3 -1.9 -.7 -2.6 -1.1L22.1 781.4c-4.3 -2.5 -7.8 -8.5 -7.8 -13.5v-644c0 -1.1 .3 -3 .6 -4.1 .1 -.4 .4 -.9 .5 -1.3 .2 -.7 .7 -1.8 1 -2.4 .3 -.5 .7 -.9 1.1 -1.4 .3 -.6 1 -1.4 1.4 -1.8 .4 -.4 1.1 -.9 1.5 -1.2 .5 -.4 1.2 -1 1.7 -1.4L210.2 2.1C212.2 .9 215.7 0 218 0s5.8 .9 7.8 2.1l188.1 108.2c.5 .4 1.2 1 1.7 1.4 .4 .3 1.1 .8 1.5 1.1 .4 .5 1.1 1.3 1.4 1.9 .3 .5 .8 .9 1.1 1.4 .3 .6 .8 1.7 1 2.4 .1 .4 .4 .9 .5 1.3 .3 1.1 .6 2.9 .6 4.1v402.2l156.7 -90.2V230.4c0 -1.2 .2 -3 .5 -4.1 .1 -.5 .4 -.9 .6 -1.3 .2 -.7 .6 -1.8 1 -2.5 .3 -.5 .7 -.9 1 -1.4 .4 -.5 1 -1.3 1.4 -1.8 .4 -.3 1.1 -.9 1.6 -1.2 .4 -.4 1.2 -1 1.7 -1.3l188 -108.3c2 -1.2 5.5 -2.1 7.8 -2.1s5.8 .9 7.8 2.1l188.1 108.2c.5 .4 1.2 1 1.7 1.4 .5 .4 1.1 .7 1.5 1.1 .4 .5 1.1 1.3 1.4 1.9 .3 .3 .8 1 1.1 1.4 .3 .6 .8 1.7 1 2.4 .2 .4 .4 1 .6 1.3zM218 33.7L61.3 123.9l156.6 90.2 156.7 -90.2L218 33.7zm172.3 117.2l-65.8 38 -90.8 52.3v393.2l65.8 -37.9 90.8 -52.4V150.9zm0 806.2l-.2 -180.3 -180 -102c-.5 -.3 -1.3 -.9 -1.7 -1.2 -.5 -.4 -1.1 -.7 -1.5 -1.2 -.4 -.4 -1 -1.1 -1.3 -1.6 -.4 -.4 -.9 -1.1 -1.2 -1.5 -.3 -.6 -.6 -1.4 -.8 -2a6.7 6.7 0 0 1 -.7 -1.8c-.2 -.6 -.3 -1.6 -.4 -2.3 -.1 -.4 -.2 -1.2 -.2 -1.7V241.2l-90.9 -52.3L45.6 151v607.8zM406 749.8L635.7 618.6l114.8 -65.5L594 463 413.8 566.7l-164.2 94.6zm360.3 8.9V580.2L677 631.3 421.6 777v180.2zm0 -232.7V347.7l-90.8 -52.4 -65.8 -37.9V436l90.8 52.3zM782 320.4l156.6 -90.2L782 140.1l-156.7 90.1zM797.6 526l156.9 -90.1V257.4l-65.8 37.9 -91.1 52.4V526z"/></svg>