<svg height="1000" width="875" xmlns="http://www.w3.org/2000/svg"><path d="M781.3 62.5c51.7 0 93.7 42 93.7 93.8v687.5c0 51.7 -42 93.7 -93.7 93.7H93.8C42 937.5 0 895.5 0 843.8V156.3C0 104.5 42 62.5 93.8 62.5h687.5zM601.2 673.6c88.6 0 148.8 -27.1 148.6 -98.8 0 -88.9 -76.4 -98.4 -140.2 -112.3 -31.5 -7.2 -40.8 -20.1 -40.8 -41.6 0 -24.4 19.3 -38.7 50.7 -38.7 34.4 0 53 12.9 55.9 43.8l71.7 -8.6c-5.7 -64.5 -50 -91 -123.1 -91 -64.2 0 -127.3 24.2 -127.3 102.3 0 48.6 23.6 79.5 83 93.8 54.9 12.9 97.4 17 97.4 55.8 0 26.6 -25.7 37.3 -74.4 37.3 -72.2 0 -102.3 -37.9 -119.5 -90.2 -39.1 -118.2 -53.3 -199 -196.9 -199 -105.2 0 -161.1 66.6 -161.1 179.7 0 108.7 55.9 167.5 156 167.5 80.9 0 119.6 -37.9 119.6 -37.9l-22.9 -62.3S340.8 615 285 615c-49.5 0 -84.6 -42.9 -84.6 -111.7 0 -88.1 44.3 -119.5 88.1 -119.5 81 0 91.2 65 123 164.6 22.9 69.4 65.8 125.2 189.7 125.2z"/></svg>