<svg height="1000" width="1000" xmlns="http://www.w3.org/2000/svg"><path d="M441 717s-61.9 60.7 -191.2 60.7C89.3 777.7 0 683.8 0 509.8 0 328.7 89.3 222.3 257.4 222.3c229.9 0 252.6 129.3 315.1 318.3C599.8 624.2 648 685 763.7 685c77.9 0 119.1 -17.2 119.1 -59.6 0 -62.3 -68.2 -68.6 -155.8 -89.3 -95 -22.8 -132.9 -72 -132.9 -150 0 -125 100.8 -163.8 203.9 -163.8 116.8 0 187.9 42.3 197.1 145.5l-114.4 13.6c-4.5 -49.2 -34.2 -69.9 -89.3 -69.9 -50.4 0 -81.2 23.1 -81.2 61.9 0 34.4 14.8 54.9 65.2 66.4 102.1 22.5 224.6 37.5 224.6 179.9 0 114.5 -96.3 158 -238.3 158 -198 0 -266.8 -89.2 -303.5 -200.4C407.2 418 391 313.9 261.1 313.9c-69.7 0 -140.8 50.4 -140.8 191.2 0 109.9 56.1 178.7 135.2 178.7 89.2 0 148.8 -66.4 148.8 -66.4z"/></svg>