<svg height="1000" width="968.8" xmlns="http://www.w3.org/2000/svg"><path d="M484.4 15.6C752 15.6 968.8 232.4 968.8 500S752 984.4 484.4 984.4 0 767.6 0 500 216.8 15.6 484.4 15.6zm39.2 386.9c-3.3 21.9 22.5 35.8 38.9 21.3L581.3 407c28.9 -25.7 90.2 -25.7 119.1 0l18.5 16.6c16.5 14.7 42 .6 38.7 -21.1 -7.8 -49.2 -66.8 -82.2 -117 -82.2s-109.2 33 -117 82.2zm-195.5 -90c-34.5 0 -62.5 27.9 -62.5 62.5s28 62.5 62.5 62.5 62.5 -27.9 62.5 -62.5 -27.9 -62.5 -62.5 -62.5zm451 285.2c2.3 -18.8 -12.3 -35.2 -31.1 -35.2H220.7c-18.7 0 -33.4 16.6 -31.1 35.2C207 736.3 325.4 843.8 468.7 843.8H500c143.4 0 261.7 -107.5 279.1 -246.1z"/></svg>