<svg height="1000" width="968.8" xmlns="http://www.w3.org/2000/svg"><path d="M484.4 15.6C752 15.6 968.8 232.4 968.8 500S752 984.4 484.4 984.4 0 767.6 0 500 216.8 15.6 484.4 15.6zm156.2 296.9c-34.5 0 -62.5 27.9 -62.5 62.5s28 62.5 62.5 62.5 62.5 -27.9 62.5 -62.5 -27.9 -62.5 -62.5 -62.5zm-312.5 0c-34.5 0 -62.5 27.9 -62.5 62.5s28 62.5 62.5 62.5 62.5 -27.9 62.5 -62.5 -27.9 -62.5 -62.5 -62.5zM500 843.8c143.4 0 261.7 -107.5 279.1 -246.1 2.3 -18.8 -12.3 -35.2 -31.1 -35.2H220.7c-18.7 0 -33.4 16.6 -31.1 35.2C207 736.3 325.4 843.8 468.7 843.8H500z"/></svg>