<svg height="1000" width="968.8" xmlns="http://www.w3.org/2000/svg"><path d="M484.4 15.6C752 15.6 968.8 232.4 968.8 500S752 984.4 484.4 984.4 0 767.6 0 500 216.8 15.6 484.4 15.6zm46.9 389.5c-1.4 16.8 21.2 23.2 29.4 8.8l18.6 -33.2c15 -26.8 37.5 -42.2 61.5 -42.2s46.5 15.4 61.5 42.2l18.6 33.2c8 14.4 30.5 8 29.1 -8.8C743.6 322.9 687.1 265.6 640.6 265.6S537.7 322.9 531.3 405.1zm-312.5 0c-1.4 16.6 21 23.2 29.4 8.8l18.6 -33.2c15 -26.8 37.5 -42.2 61.5 -42.2s46.5 15.4 61.5 42.2l18.6 33.2c8 14.4 30.5 8 29.1 -8.8C431.1 322.9 374.6 265.6 328.1 265.6S225.2 322.9 218.8 405.1zm560.3 192.6c2.3 -18.8 -12.3 -35.2 -31.1 -35.2H220.7c-18.7 0 -33.4 16.6 -31.1 35.2C207 736.3 325.4 843.8 468.7 843.8H500c143.4 0 261.7 -107.5 279.1 -246.1z"/></svg>