<svg height="1000" width="1000" xmlns="http://www.w3.org/2000/svg"><path d="M24.2 289.1c-32.3 -14.7 -32.3 -63.5 0 -78.2L479.2 4.5C484.7 2 494 0 500 0s15.3 2 20.8 4.5l454.9 206.4c32.4 14.7 32.4 63.5 0 78.2L520.8 495.5c-13.3 6 -28.3 6 -41.6 0zm951.6 172.4c32.3 14.7 32.3 63.5 0 78.1l-455 206.3c-13.3 6 -28.3 6 -41.6 0L24.2 539.6C-8.1 525 -8.1 476.2 24.2 461.5l113.5 -51.4 315.7 143.1c14.8 6.7 30.5 10.1 46.6 10.1s31.8 -3.4 46.6 -10.1L862.3 410.1zm0 249.6c32.3 14.7 32.3 63.5 0 78.2l-455 206.2c-13.3 6 -28.3 6 -41.6 0L24.2 789.3c-32.3 -14.7 -32.3 -63.5 0 -78.2l113.1 -51.2 316.1 143.3c14.8 6.7 30.5 10.1 46.6 10.1s31.8 -3.4 46.6 -10.1L862.7 659.9z"/></svg>