<svg height="1000" width="1125" xmlns="http://www.w3.org/2000/svg"><path d="M1066.8 18.9c37.1 82.9 58.2 184.4 58.2 282.5 0 336.7 -215.8 611.7 -522.5 634C444.5 952.1 324.2 870.3 260.9 784.6 161.3 868 123.4 954.5 120.5 961.5c-13.3 31.7 -49.6 47.1 -81.6 33.8C7 982.2 -8.2 945.9 4.7 914.1 50.8 801 259 500 750 500c17.2 0 31.3 -14.1 31.3 -31.2S767.2 437.5 750 437.5c-255.1 0 -435 75.8 -559.6 165 -1.3 -13.2 -2.9 -26.3 -2.9 -40 0 -207 168 -375 375 -375h156.3c123.8 0 232.2 -65.6 292.7 -170.9 13.1 -23 44.4 -22.1 55.3 2.3z"/></svg>