<svg height="1000" width="1000" xmlns="http://www.w3.org/2000/svg"><path d="M955.2 44.8c45.1 45.2 56.4 106.3 32.8 146.7 -67 115.1 103.7 354 -169.4 627.1S306.6 921 191.5 988C151.1 1011.6 90 1000.3 44.8 955.2 -.3 910 -11.6 848.9 12 808.5 79 693.4 -91.7 454.5 181.4 181.4S693.4 79 808.5 12C848.9 -11.6 910 -.3 955.2 44.8zM476.3 186.6c16.8 -4.2 27 -21.2 22.8 -37.9 -4.2 -16.8 -21.2 -27 -37.9 -22.8C324.8 160 160 325.1 125.9 461.2c-4.2 16.7 6 33.7 22.8 37.9 2.5 .6 5.1 .9 7.6 .9 14 0 26.7 -9.5 30.3 -23.7C215 362.6 362.7 215 476.3 186.6z"/></svg>