<svg height="1000" width="1250" xmlns="http://www.w3.org/2000/svg"><path d="M1196.7 427.7c0 21.5 13.3 44.2 53.3 45.5v53.4c-40 1.9 -53.3 24.6 -53.3 46.1 0 39.8 6.2 62.5 6.2 106.6 0 66.8 -24.8 88.3 -79.1 88.3h-40v-49.2h12.3v-1c26.6 0 33.8 -9.2 33.8 -44.2 0 -33.7 -3.1 -63.6 -3.1 -100.5 0 -47.3 15.2 -65.7 46.1 -72.9v-3.1c-30.7 -7.2 -46.1 -25.6 -46.1 -72.9 0 -36.9 3.1 -68.7 3.1 -100.6 0 -33.9 -6.1 -43.1 -33.8 -43.1h-12.3v-47.3h40c54.5 0 79.1 21.5 79.1 88.3 0 43 -6.2 66.6 -6.2 106.6zm-206.3 62.5c40.1 13.3 84 36.9 84 93.4 0 56.4 -44.1 99.6 -126.2 99.6 -39 0 -86.1 -17.6 -116.9 -43.2l41 -59.5c27.7 21.5 53.5 31.8 79.1 31.8 27.7 0 40 -10.2 40 -25.6 0 -20.5 -30.9 -30.8 -62.7 -43.1 -36.9 -14.3 -81 -40.1 -81 -90.3 0 -56.4 47.2 -96.5 117 -96.5 47.2 0 82.2 20.5 107.8 40.1l-41.1 54.3C1009 434.8 988.5 425.6 965.8 425.6s-34.9 9.2 -34.9 24.6c0 20.5 28.7 27.7 59.5 40zM289.5 606.3c3.1 0 6 0 12.1 -1.6l10.3 66.8c-11.1 4.1 -26.5 7.2 -46.1 7.2 -62.7 0 -84.2 -41 -84.2 -103.7V280.5h-27.5c-26.6 0 -33.8 9.3 -33.8 43.1s3.1 63.7 3.1 100.6c0 47.3 -15.2 65.6 -46.1 72.9v3.1c30.7 7.2 46.1 25.6 46.1 72.8 0 37.9 -3.1 66.8 -3.1 100.6s8.2 44.2 33.8 44.2h12.3V765h-40C71.9 765 47.3 743.6 47.3 676.8c0 -44.2 6.2 -66.8 6.2 -104.7C53.5 550.6 40.2 527.9 .2 527v-53.4c40 -1.9 53.3 -24.6 53.3 -46.1 0 -37.9 -6.2 -62.5 -6.2 -106.6 0 -66.8 24.6 -88.3 80 -88.3H273v348.1c0 19.3 9.2 25.5 16.5 25.5zM742 490.2c40 13.3 84.2 36.9 84 93.4 0 56.4 -44.2 99.6 -126.2 99.6 -39.1 0 -86.1 -17.6 -117 -43.2l40.1 -59.5c27.7 21.5 53.5 31.8 79.1 31.8 27.7 0 40 -10.2 40 -25.6 0 -20.5 -30.9 -30.8 -62.7 -43.1 -36.9 -14.3 -81.1 -40.1 -81.1 -90.3 0 -56.4 47.3 -96.5 117 -96.5 47.3 0 82.3 20.5 107.8 40.1l-41 54.3c-22.4 -16.4 -42.9 -25.6 -65.6 -25.6 -22.7 0 -35 9.2 -35 24.6 0 20.5 28.8 27.7 60.6 40zM439.3 355.9c86.1 0 131.4 64.6 130.2 147.8 0 16.4 -2.1 30.7 -3.1 37.9H380.5c8.2 47.3 40 66.8 81 66.8 22.7 0 44.2 -6.3 66.8 -19.5l30.9 54.3c-31.9 21.6 -72.9 34.9 -109.8 34.9C361.3 678.1 294.5 618.6 294.5 517c-1.9 -98.4 69.8 -161.1 144.8 -161.1zm-58.6 129.3h110.9c0 -35 -14.5 -60.6 -51.4 -60.6 -28.7 0 -53.3 19.5 -59.5 60.6z"/></svg>