<svg height="1000" width="1000" xmlns="http://www.w3.org/2000/svg"><path d="M500 15.6c267.5 0 484.4 216.9 484.4 484.4S767.5 984.4 500 984.4 15.6 767.5 15.6 500 232.5 15.6 500 15.6zm339.3 233.5c-20.8 -28 -60.4 -67.6 -88.4 -88.3L627 284.6c36.3 21.5 67 52.1 88.4 88.4zM500 687.5c103.6 0 187.5 -83.9 187.5 -187.5S603.6 312.5 500 312.5 312.5 396.4 312.5 500 396.4 687.5 500 687.5zM249.1 160.7c-28 20.8 -67.6 60.4 -88.3 88.4L284.6 373c21.5 -36.3 52.1 -67 88.4 -88.4zm-88.4 590.2c20.8 28 60.4 67.6 88.4 88.4L373 715.4C336.7 693.9 306 663.3 284.6 627zm590.2 88.4c28 -20.8 67.6 -60.4 88.3 -88.4L715.4 627c-21.5 36.3 -52.1 67 -88.4 88.4z"/></svg>