<svg height="1000" width="687.5" xmlns="http://www.w3.org/2000/svg"><path d="M187.6 887.4l-.1 -74.9H500l-.1 74.9c0 10.4 -4.7 25.9 -10.5 34.6l-33.3 50.1C445.8 987.5 422.5 1000 404 1000H283.5c-18.5 0 -41.8 -12.5 -52 -27.9L198.1 922c-6.8 -10.3 -10.5 -22.3 -10.5 -34.6zM0 343.8C0 162.1 143.4 .6 342.7 0 533 -.6 687.5 153.5 687.5 343.8c0 86.6 -32.1 165.7 -85.1 226.1 -32.2 36.8 -82.7 113.7 -101.9 178.6 -.1 .5 -.2 1 -.3 1.5H187.3c-.1 -.5 -.2 -1 -.2 -1.5C167.8 683.6 117.3 606.7 85.1 569.9 32.1 509.5 0 430.4 0 343.8zM343.8 187.5c17.2 0 31.2 -14 31.2 -31.2S361 125 343.8 125C223.1 125 125 223.1 125 343.8c0 17.2 14 31.2 31.3 31.2s31.2 -14 31.2 -31.2c0 -86.2 70.1 -156.3 156.3 -156.3z"/></svg>