<svg height="1000" width="875" xmlns="http://www.w3.org/2000/svg"><path d="M531.4 398.8v138.9c0 3.5 -2.7 6.2 -6.2 6.2h-22.3c-2.1 0 -4.1 -1.1 -5 -2.5l-63.7 -85.9v82.4c0 3.5 -2.8 6.2 -6.3 6.2h-22.2c-3.6 0 -6.3 -2.7 -6.3 -6.2V399c0 -3.5 2.7 -6.2 6.3 -6.2h22c2 0 4.1 .9 5.1 2.7l63.7 85.9V399c0 -3.5 2.7 -6.2 6.2 -6.2H525c3.5 -.2 6.4 2.7 6.4 6zm-160.1 -6.2c3.5 0 6.2 2.9 6.2 6.2v138.9c0 3.5 -2.7 6.2 -6.2 6.2H349c-3.5 0 -6.2 -2.7 -6.2 -6.2V398.8c0 -3.5 2.7 -6.2 6.2 -6.2h22.3zM317.6 509c3.3 0 6 2.9 6 6.2v22.3c0 3.5 -2.7 6.3 -6.2 6.3h-89.3c-1.7 0 -3.1 -.8 -4.3 -1.8 -1.1 -1.2 -1.7 -2.5 -1.7 -4.3V398.8c0 -3.5 2.7 -6.2 6.2 -6.2h22.3c3.5 0 6.2 2.7 6.2 6.2V509h60.8zm331 -116.4c3.4 0 6.1 2.9 6.3 6.2v22.3c0 3.5 -2.8 6.2 -6.3 6.2h-60.7v23.5h60.7c3.5 0 6.3 2.7 6.3 6.2v22.5c0 3.5 -2.8 6.2 -6.3 6.2h-60.7v23.5h60.7c3.5 0 6.3 2.7 6.3 6.2v22.3c0 3.5 -2.8 6.2 -6.3 6.2h-89.2c-3.5 0 -6.3 -2.9 -6.3 -6.2V398.8c0 -3.5 3 -6.2 6.3 -6.2h89.2zM875 222.1v557.2c-.2 87.5 -71.9 158.4 -159.6 158.2H158.2C70.7 937.3 -.2 865.4 0 777.9V220.7C.2 133.2 72.1 62.3 159.6 62.5h557.2c87.5 .2 158.4 71.9 158.2 159.6zM754.7 461.5c0 -142.6 -143 -258.6 -318.6 -258.6 -175.6 0 -318.5 116 -318.5 258.6 0 127.8 113.3 234.8 266.4 255.1 37.3 8 33 21.7 24.6 71.9 -1.4 8 -6.5 31.4 27.5 17.2 34 -14.3 183.4 -108 250.4 -185 46.1 -50.8 68.2 -102.1 68.2 -159.2z"/></svg>