<svg height="1000" width="875" xmlns="http://www.w3.org/2000/svg"><path d="M812.5 62.5c34.4 0 62.5 28.3 62.5 63.1v748.8c0 34.8 -28.1 63.1 -62.5 63.1H62.3C27.9 937.5 0 909.2 0 874.4V125.6C0 90.8 27.9 62.5 62.3 62.5h750.2zm-548 750h.1V394.9H134.8v417.6h129.7zM199.6 337.9c41.6 0 75.2 -33.6 75.2 -75.2 0 -41.4 -33.8 -75.2 -75.2 -75.2 -41.6 0 -75.2 33.8 -75.2 75.2s33.6 75.2 75.2 75.2zm551 474.6V583.6c0 -112.5 -24.4 -199 -155.7 -199 -63.1 0 -105.4 34.5 -122.8 67.4h-1.8v-57.1H345.9v417.6h129.7V605.9c0 -54.5 10.3 -107.3 77.9 -107.3 66.4 0 67.4 62.3 67.4 110.8v203.1h129.7z"/></svg>