<svg height="1000" width="1000" xmlns="http://www.w3.org/2000/svg"><path d="M637.9 362.1c116.7 116.8 115.1 304.1 .7 419.1 -.2 .2 -.5 .5 -.7 .7L506.7 913.2c-115.8 115.7 -304.1 115.7 -419.9 0C-28.9 797.4 -28.9 609.1 86.8 493.3l72.5 -72.4c19.2 -19.2 52.3 -6.5 53.3 20.7 1.3 34.6 7.5 69.4 18.9 103 3.9 11.3 1.1 23.9 -7.4 32.4l-25.5 25.6c-54.8 54.7 -56.5 143.8 -2.3 199.1 54.8 55.8 144.7 56.2 199.9 1L527.4 671.5c55.1 -55.1 54.9 -144.1 0 -198.9 -7.2 -7.2 -14.5 -12.8 -20.2 -16.8 -7.1 -4.9 -13.2 -15.9 -13.5 -24.6 -.8 -20.6 6.5 -41.9 22.8 -58.2l41.1 -41.1c10.8 -10.8 27.7 -12.1 40.2 -3.4 11.9 8.3 29.9 23.3 40.1 33.6zM913.2 86.8c115.7 115.8 115.7 304.1 0 419.9l-72.5 72.4c-19.2 19.2 -52.3 6.5 -53.3 -20.7 -1.3 -34.6 -7.5 -69.4 -18.9 -103 -3.9 -11.3 -1.1 -23.9 7.4 -32.4l25.5 -25.6c54.8 -54.7 56.5 -143.8 2.3 -199.1C748.9 142.5 659 142.1 603.8 197.3L472.6 328.5c-55.1 55.1 -54.9 144.1 0 198.9 7.2 7.2 14.5 12.8 20.2 16.8 7.1 4.9 13.2 15.9 13.5 24.6 .8 20.6 -6.5 41.9 -22.8 58.2l-41.1 41.1c-10.8 10.8 -27.7 12.1 -40.2 3.4 -11.9 -8.3 -29.9 -23.3 -40.1 -33.6C245.4 521.1 247 333.8 361.4 218.8c.2 -.2 .4 -.5 .7 -.7L493.3 86.8c115.8 -115.7 304.1 -115.7 419.9 0z"/></svg>