<svg height="1000" width="875" xmlns="http://www.w3.org/2000/svg"><path d="M854.3 442c1.2 3.9 -17.2 129.5 -18.9 142.2 0 1.7 -1 3.3 -2.2 3.9l-106.6 85.3c-2.2 1.8 -5.1 1.8 -7.3 0l-39.6 -27.3 -4.5 65.2c0 1.8 -.4 3.3 -2.2 4.5L542.4 820.1c-2.2 1.8 -5.7 1.8 -7.8 0l-54.7 -46.3 3.9 89.9c0 1.7 -.4 3.3 -2.2 4.5L318.2 998.8c-1.2 .6 -2.2 1.2 -3.4 1.2 -1.7 -.6 -3.3 -.6 -4.4 -1.8L183.2 863.3c-2.9 -2.8 -30.3 -140.6 -33 -154.5 -.6 -2.2 1 -4.9 2.7 -6.1l34 -20.7c-6.6 -6.2 -51.7 -45.7 -52.9 -51.3L93.7 434.8c-.5 -2.2 .6 -4.9 3.4 -6.7l52.5 -25.2c-9 -6.8 -73.6 -53.7 -75.4 -60.3L20.7 82.6c-.6 -3.3 1.2 -6 3.9 -7.2L266.2 0c1.2 0 2.7 0 4.5 .6l177 85.3c1.5 1.2 3.3 3.4 3.3 5.1l11.1 258.4c0 2.4 -1.2 4.5 -3.3 5.7l-65.8 34 70.3 47.4c1.5 .6 2.7 2.8 2.7 4.5l2.7 68.6 67.6 -41.4c1.6 -1.2 4.3 -1.2 6.1 0l46.9 31.2 1.7 -61.3c0 -1.8 1 -3.9 2.7 -5.1l115.1 -70.3c2.1 -1.2 4.3 -1.2 6 0l136.8 75.4c.9 1.2 2.1 2.1 2.7 3.9zm-400 9.4L257.8 563.1l27.4 188.7L462.1 632.2zm-15 -351.6l-236.2 91 38.5 263.3L449.8 345.9zM85.9 338.1l142.8 111.7L190.8 190.2 35.2 93.8zm59.8 288.7l126.6 118.7L245.5 563.1 108.8 449.2zm47.5 229.8l112.7 119.6 -19 -131.7L166.4 725.6zm125.9 126L471.9 860.9l-6.1 -136.7L298.4 844.1zM479.3 757.8l52.9 44.7 -1.1 -133.4L473.6 625c0 4.5 2.4 12.3 -2.1 15.6l-43.6 29.1 47.5 39.1c5.7 4.3 3.9 42.4 3.9 49zm184.2 -49.6l8.2 -130.7 -128.3 91.6 1.1 134zM717.6 658l11.3 -130.1L602.7 448.6l-1.1 58.6 80.4 53.2c1.6 1.1 2.8 3.3 2.2 5l-3.9 66.4zm106.6 -77.7l16.6 -123.9L741 527.9l-11.1 127.2z"/></svg>