<svg height="1000" width="750" xmlns="http://www.w3.org/2000/svg"><path d="M726.6 500c13.2 0 23.9 11 23.4 24.2C739.9 785.5 565.8 937.5 303.9 937.5H148.4C135.5 937.5 125 927 125 914.1V536.2l-96.5 21.5C13.9 560.9 0 549.8 0 534.8v-80c0 -10.4 8.2 -20.7 18.4 -22.9L125 408.2v-59.5l-96.5 21.5C13.9 373.4 0 362.3 0 347.3v-80c0 -10.4 8.2 -20.7 18.4 -22.9L125 220.7V85.9C125 73 135.5 62.5 148.4 62.5h109.4c13 0 23.5 10.5 23.5 23.4V186L534 129.8c14.6 -3.2 28.5 7.9 28.5 22.9v80c0 10.4 -8.2 20.7 -18.4 22.9L281.2 314v59.5L534 317.3c14.6 -3.2 28.5 7.9 28.5 22.9v80c0 10.4 -8.2 20.7 -18.4 22.9l-262.9 58.4v311c168.4 0 328.2 -93.7 328.2 -290.5 0 -12.4 11 -22 23.4 -22h93.7z"/></svg>