<svg height="1000" width="1000" xmlns="http://www.w3.org/2000/svg"><path d="M906.3 937.5H93.8C42 937.5 0 895.5 0 843.8V156.3C0 104.5 42 62.5 93.8 62.5h812.5c51.7 0 93.7 42 93.7 93.8v687.5c0 51.7 -42 93.7 -93.7 93.7zM250 234.4c-43.1 0 -78.1 35 -78.1 78.1s35 78.1 78.1 78.1 78.1 -35 78.1 -78.1 -35 -78.1 -78.1 -78.1zm0 187.5c-43.1 0 -78.1 35 -78.1 78.1s35 78.1 78.1 78.1 78.1 -35 78.1 -78.1 -35 -78.1 -78.1 -78.1zm0 187.5c-43.1 0 -78.1 35 -78.1 78.1s35 78.1 78.1 78.1 78.1 -35 78.1 -78.1 -35 -78.1 -78.1 -78.1zM812.5 343.8v-62.5c0 -13 -10.5 -23.5 -23.4 -23.5H398.4c-12.9 0 -23.4 10.5 -23.4 23.5v62.5c0 12.9 10.5 23.4 23.4 23.4h390.7c12.9 0 23.4 -10.5 23.4 -23.4zm0 187.5v-62.5c0 -13 -10.5 -23.5 -23.4 -23.5H398.4c-12.9 0 -23.4 10.5 -23.4 23.5v62.5c0 12.9 10.5 23.4 23.4 23.4h390.7c12.9 0 23.4 -10.5 23.4 -23.4zm0 187.5v-62.5c0 -13 -10.5 -23.5 -23.4 -23.5H398.4c-12.9 0 -23.4 10.5 -23.4 23.5v62.5c0 12.9 10.5 23.4 23.4 23.4h390.7c12.9 0 23.4 -10.5 23.4 -23.4z"/></svg>