<svg height="1000" width="1000" xmlns="http://www.w3.org/2000/svg"><path d="M156.3 718.8c17.2 0 31.2 13.9 31.2 31.2v125c0 17.3 -14 31.3 -31.2 31.3h-125C14 906.3 0 892.3 0 875V750c0 -17.3 14 -31.2 31.3 -31.2h125zm0 -625c17.2 0 31.2 13.9 31.2 31.2v125c0 17.3 -14 31.3 -31.2 31.3h-125C14 281.3 0 267.3 0 250V125C0 107.7 14 93.8 31.3 93.8h125zm0 312.5c17.2 0 31.2 13.9 31.2 31.2v125c0 17.3 -14 31.3 -31.2 31.3h-125C14 593.8 0 579.8 0 562.5v-125c0 -17.3 14 -31.2 31.3 -31.2h125zM968.8 750c17.2 0 31.2 14 31.2 31.3v62.5c0 17.2 -14 31.2 -31.2 31.2h-625c-17.3 0 -31.3 -14 -31.3 -31.2v-62.5c0 -17.3 14 -31.3 31.3 -31.3h625zm0 -625c17.2 0 31.2 14 31.2 31.3v62.5c0 17.2 -14 31.2 -31.2 31.2h-625c-17.3 0 -31.3 -14 -31.3 -31.2v-62.5c0 -17.3 14 -31.3 31.3 -31.3h625zm0 312.5c17.2 0 31.2 14 31.2 31.3v62.5c0 17.2 -14 31.2 -31.2 31.2h-625c-17.3 0 -31.3 -14 -31.3 -31.2v-62.5c0 -17.3 14 -31.3 31.3 -31.3h625z"/></svg>