<svg height="1000" width="1000" xmlns="http://www.w3.org/2000/svg"><path d="M120.6 783.2c38.3 10 56.1 40 56.2 68.1 0 41.8 -28 86.2 -94.8 86.2 -32.4 0 -57.2 -9.3 -72.2 -18.4C-1.6 910.8 -2.6 899.9 4.6 887.9l10.9 -18.2c7.6 -12.9 17.8 -13.6 30.5 -6 8 3.2 21.6 6 30.2 6 19.9 0 28.1 -6.8 28.1 -16 0 -13 -11 -17.8 -31.2 -17.8h-9.2c-11.6 0 -18.1 -4.1 -23.9 -15.4l-2.1 -3.7c-4.8 -9.3 -2.3 -19.2 5.5 -29.1l11 -13.7c5.5 -6.9 15.2 -17.7 21.4 -24H31.2c-8.6 0 -15.6 -7 -15.6 -15.6v-31.3c0 -8.6 7 -15.6 15.6 -15.6h111.4c14.6 0 22.1 7.8 22.1 22.2v6.4c0 .5 .1 1.3 .1 1.8 0 8.2 -4.5 19.8 -10 25.9zM968.8 437.5c17.2 0 31.2 14 31.2 31.3v62.5c0 17.2 -14 31.2 -31.2 31.2h-625c-17.3 0 -31.3 -14 -31.3 -31.2v-62.5c0 -17.3 14 -31.3 31.3 -31.3h625zm0 -312.5c17.2 0 31.2 14 31.2 31.3v62.5c0 17.2 -14 31.2 -31.2 31.2h-625c-17.3 0 -31.3 -14 -31.3 -31.2v-62.5c0 -17.3 14 -31.3 31.3 -31.3h625zm0 625c17.2 0 31.2 14 31.2 31.3v62.5c0 17.2 -14 31.2 -31.2 31.2h-625c-17.3 0 -31.3 -14 -31.3 -31.2v-62.5c0 -17.3 14 -31.3 31.3 -31.3h625zM31.3 312.5c-8.7 0 -15.7 -7 -15.7 -15.6v-31.3c0 -8.6 7 -15.6 15.7 -15.6h31.2V125H46.9c-8.6 0 -15.6 -7 -15.6 -15.6 0 -2.1 .7 -5.2 1.6 -7L48.6 71.1c2.3 -4.7 8.6 -8.6 13.9 -8.6h46.9c8.6 0 15.6 7 15.6 15.6V250h31.3c8.6 0 15.6 7 15.6 15.6v31.3c0 8.6 -7 15.6 -15.6 15.6h-125zM23.6 625C9.9 625 0 617.2 0 602.7v-7.8c0 -92.3 99.6 -110.2 99.6 -135 0 -14 -11.7 -17.1 -18.2 -17.1h-.1c-5.9 0 -14.1 3.4 -18.3 7.5 -10.1 9.6 -20.6 13.7 -31.5 4.8L14.7 441.6C3.4 432.8 .7 422.5 9.2 411.6 22.2 394.5 46.5 375 88.3 375c38 0 86.8 20.5 86.8 77.3 0 73.7 -88 90.1 -94.4 110.2h75.6c8.6 0 15.6 7 15.6 15.6v31.3c0 8.6 -7 15.6 -15.6 15.6H23.6z"/></svg>