<svg height="1000" width="1125" xmlns="http://www.w3.org/2000/svg"><path d="M1112 452.4c7.2 12.2 13 33.5 13 47.6s-5.8 35.4 -13 47.6c-62.5 106 -155.6 192 -267.2 246.7l84.2 114c14.9 21.2 9.7 50.5 -11.5 65.3l-25.6 17.9c-21.2 14.9 -50.4 9.7 -65.3 -11.5L334.7 283.6c-21.8 10 -55.7 28.8 -75.7 42.1l371.1 530.1c-18.6 2 -48.9 3.6 -67.6 3.6 -24.1 0 -62.8 -2.6 -86.6 -5.9L396.5 740.2 163.3 407c-16.9 18.1 -41.6 49.5 -55.3 70.2l242.6 346.5C207.8 773.9 88.2 675.2 13 547.6 -4.5 517.9 -4.1 481.5 13 452.4c0 0 0 -.1 0 -.1C78.6 341.2 174.7 257.3 280.2 205.7L196 91.7C181.1 70.5 186.3 41.2 207.5 26.4L233.1 8.5c21.2 -14.9 50.4 -9.7 65.3 11.5l103.1 141c51.4 -13.3 105.4 -20.4 161 -20.4 234 0 439.4 124.9 549.5 311.8zM761.8 675.7C803.1 628.9 828.1 567.4 828.1 500 828.1 353.2 709.3 234.4 562.5 234.4c-34.2 0 -66.9 6.4 -96.9 18.2l37.3 53.2c50.7 -15.6 106.9 -10.9 155.2 15 -46.2 0 -83.6 37.4 -83.6 83.6 0 45.9 37 83.6 83.6 83.6 46.2 0 83.6 -37.4 83.6 -83.6 37 69 31 154.5 -17.2 218.1z"/></svg>