<svg height="1000" width="1250" xmlns="http://www.w3.org/2000/svg"><path d="M437.5 625C403 625 375 597 375 562.5V250c0 -34.5 28 -62.5 62.5 -62.5H500V625h-62.5zM1125 562.5c0 34.5 -28 62.5 -62.5 62.5H1000V187.5h62.5c34.5 0 62.5 28 62.5 62.5v312.5zm93.8 187.5c17.2 0 31.2 14 31.2 31.3v62.5c0 17.2 -14 31.2 -31.2 31.2h-162c3.5 9.8 5.7 20.2 5.7 31.3 0 51.7 -42 93.7 -93.7 93.7S875 958 875 906.3c0 -11.1 2.2 -21.5 5.7 -31.3H494.3c3.5 9.8 5.7 20.2 5.7 31.3 0 51.7 -42 93.7 -93.8 93.7s-93.7 -42 -93.7 -93.7c0 -11.1 2.2 -21.5 5.7 -31.3h-162C139 875 125 861 125 843.8V125H31.2C14 125 0 111 0 93.8V31.3C0 14 14 0 31.2 0h187.5C236 0 250 14 250 31.3V750h968.7zM937.5 187.5V625h-375V93.8C562.5 42 604.5 0 656.3 0h187.5c51.7 0 93.7 42 93.7 93.8v93.7zm-93.7 0V93.8H656.3v93.7h187.5z"/></svg>