<svg height="1000" width="1250" xmlns="http://www.w3.org/2000/svg"><path d="M671.9 294.3c-12 -7.2 -33 -13.1 -46.9 -13.1s-34.9 5.9 -46.9 13.1v-263C578.1 14 592.1 0 609.4 0h31.2c17.3 0 31.3 14 31.3 31.3v263zm-290 573.8c14.8 15.1 43.9 27.5 65.1 27.5 4.5 0 11.9 -.7 16.4 -1.5 -22 28.2 -67.9 58.6 -102.6 67.8l-116.2 31C122.1 1025.9 0 939.5 0 819.8v-.4C0 803.2 3.4 777.5 7.6 762 43.1 628.9 132.4 426.7 206.8 310.8 250 243.2 277.3 187.5 363.3 187.5c75.4 0 136.7 57.4 136.7 128.4V370c-13.1 -8.7 -36.4 -15.8 -52.1 -15.8 -51.7 0 -93.7 42 -93.7 93.7 0 21.6 12.4 51.4 27.7 66.6l16.8 16.7H375c-51.8 0 -93.8 42 -93.8 93.8s42 93.7 93.8 93.7h23.7l-16.8 16.8c-15.1 15.2 -27.4 44.9 -27.4 66.3s12.3 51.1 27.4 66.3zm442 -44.2c-5.1 5 -15 9.1 -22.1 9.1 -7.2 0 -17.1 -4.1 -22.1 -9.1l-16.8 -16.8C723.6 767.8 656.2 795.7 656.2 851.3V875c0 17.3 -14 31.2 -31.2 31.2S593.7 892.3 593.7 875v-23.7c0 -55.6 -67.3 -83.5 -106.6 -44.2l-16.8 16.8c-5.1 5.2 -15.1 9.5 -22.4 9.5 -17.3 0 -31.3 -14 -31.3 -31.3 0 -7.3 4.3 -17.3 9.5 -22.4l16.8 -16.8c39.3 -39.3 11.5 -106.7 -44.2 -106.7H375c-17.3 0 -31.3 -13.9 -31.3 -31.2s14 -31.3 31.3 -31.3h23.7c55.7 0 83.5 -67.3 44.2 -106.6l-16.8 -16.8c-5 -5 -9.1 -14.9 -9.1 -22.1C417 431 431 417 448.2 417c7.2 0 17.1 4.1 22.1 9.1l16.8 16.8c39.3 39.3 106.6 11.5 106.6 -44.2V375c0 -17.3 14 -31.3 31.3 -31.3s31.2 14 31.2 31.3v23.7c0 55.7 67.4 83.5 106.7 44.2l16.8 -16.8c5 -5 14.9 -9.1 22.1 -9.1 17.2 0 31.2 14 31.2 31.2 0 7.2 -4.1 17.1 -9.1 22.1l-16.8 16.8c-39.3 39.3 -11.5 106.6 44.2 106.6H875c17.3 0 31.3 14 31.3 31.3s-14 31.2 -31.3 31.2h-23.7c-55.7 0 -83.5 67.4 -44.2 106.7l16.8 16.8c5 5.1 9.1 15 9.1 22.1 0 7.1 -4.1 17 -9.1 22.1zM562.5 593.8c17.3 0 31.3 -14 31.3 -31.3s-14 -31.2 -31.3 -31.2 -31.2 13.9 -31.2 31.2 13.9 31.3 31.2 31.3zm125 125c17.3 0 31.3 -14 31.3 -31.3s-14 -31.2 -31.3 -31.2 -31.2 13.9 -31.2 31.2 13.9 31.3 31.2 31.3zm554.9 43.2c4.2 15.5 7.6 41.2 7.6 57.4v.4c0 119.7 -122.1 206.1 -244.6 173.1l-116.2 -31c-34.7 -9.2 -80.6 -39.6 -102.6 -67.8 4.6 .8 12 1.5 16.6 1.5 51.5 0 93.2 -41.8 93.2 -93.2 0 -21.8 -12.7 -51.7 -28.3 -66.9l-16.8 -16.7H875c51.8 0 93.7 -42 93.7 -93.8S926.8 531.3 875 531.3h-23.7l16.8 -16.7c15.3 -15.2 27.7 -45 27.7 -66.6 0 -51.7 -42 -93.7 -93.7 -93.7 -15.7 0 -39 7 -52.1 15.8v-54.2c0 -71 61.3 -128.4 136.7 -128.4 86 0 113.3 55.7 156.5 123.3 74.4 116 163.7 318.1 199.2 451.2z"/></svg>