<svg height="1000" width="1250" xmlns="http://www.w3.org/2000/svg"><path d="M1242.4 762c5.1 18.9 7.6 38.4 7.6 57.9 0 119.6 -122 205.9 -244.6 173.1L889.2 961.8C806.8 939.7 750 869.1 750 788.7V617.9l167.7 111.7c2.1 1.5 6 2.7 8.6 2.7 4.6 0 10.5 -3.2 13 -7l17.4 -26c1.4 -2.2 2.6 -6.1 2.6 -8.7 0 -4.6 -3.1 -10.4 -7 -13L625 459.4 297.7 677.6c-3.9 2.6 -7 8.4 -7 13 0 2.6 1.2 6.5 2.6 8.7l17.4 26c2.5 3.8 8.4 7 13 7 2.6 0 6.5 -1.2 8.6 -2.7L500 617.9v170.8c0 80.4 -56.8 151 -139.2 173.1L244.6 993C122 1025.8 0 939.5 0 819.9c0 -19.5 2.5 -39 7.6 -57.9C49.9 603.2 117 451.2 206.8 310.8 250 243.3 277.3 187.5 363.2 187.5c75.5 0 136.8 57.5 136.8 128.3v117.4l64.2 -42.8c8.7 -5.8 13.9 -15.5 13.9 -26V31.2C578.1 14 592.1 0 609.4 0h31.2c17.3 0 31.3 14 31.3 31.2v333.2c0 9.3 6.2 20.9 13.9 26l64.2 42.8V315.8C750 245 811.3 187.5 886.8 187.5c85.9 0 113.2 55.8 156.4 123.3 89.7 140.4 156.9 292.4 199.2 451.2z"/></svg>