<svg height="1000" width="1000" xmlns="http://www.w3.org/2000/svg"><path d="M0 158.4h152V566c0 64.7 29.2 103.1 53.1 119.2 -24.8 21.6 -100 40.8 -156.7 -5.5C15.2 652.3 0 606.8 0 564.5V158.4zm949 338.9c0 27.7 22.7 50.6 51 50.6v149.4c-110.7 0 -200.6 -90.1 -200.6 -200.6V346.1c0 -67.6 -101.9 -67.6 -101.9 0v45.5h75.7v150h-75.7v13.1c0 42.6 -15.1 87.9 -48.5 115.2 -31.8 26.8 -69.7 31.9 -101 27.4v-350c0 -110.8 90.1 -200.6 200.6 -200.6 95.9 0 176.2 67.2 195.9 157.6h51v150H949v43zM374.2 303.9v-1h150.6V651c0 102.3 -58 179.1 -150 196.9 -51 9.9 -102.5 5.4 -151.6 -9.2V701.4c19.2 8.2 57.7 18.3 87.9 15.2 39.9 -3.9 64.1 -23.2 68.2 -49.4 0 0 -41.4 39.8 -113.7 20.7C193.4 668.6 177.7 609.6 177.7 563.1V303.9h150v220.7c0 30.1 46.5 30.1 46.5 0V303.9z"/></svg>