<svg height="1000" width="1000" xmlns="http://www.w3.org/2000/svg"><path d="M437.5 187.5L406.3 125 343.8 93.8l62.5 -31.3L437.5 0l31.3 62.5 62.5 31.3L468.8 125zm-281.2 125L104.2 208.3 0 156.3l104.2 -52.1L156.3 0l52 104.2 104.2 52.1 -104.2 52zm687.5 250l52 104.2 104.2 52.1 -104.2 52 -52 104.2L791.7 770.8l-104.2 -52 104.2 -52.1zM981.7 184c24.4 24.4 24.4 64 0 88.4L272.4 981.7c-12.2 12.2 -28.2 18.3 -44.2 18.3 -16 0 -31.9 -6.1 -44.2 -18.3L18.3 816c-24.4 -24.4 -24.4 -64 0 -88.4L727.6 18.3C739.8 6.1 755.8 0 771.8 0c16 0 32 6.1 44.2 18.3zM702.1 397.4L871.2 228.2l-99.4 -99.4L602.6 297.9z"/></svg>