<svg height="1000" width="1000" xmlns="http://www.w3.org/2000/svg"><path d="M320.4 289.3h-297C10.5 289.3 0 278.8 0 265.8V109.6C0 70.8 31.5 39.3 70.3 39.3h203.1c38.9 0 70.4 31.5 70.4 70.3v156.2c0 .1 0 .2 0 .2 0 12.9 -10.5 23.3 -23.3 23.3h-.1zM1000 265.8c0 12.8 -10.4 23.3 -23.2 23.3 -.1 0 -.2 0 -.2 0H679.7c-12.9 0 -23.4 -10.5 -23.4 -23.5V109.4c0 -38.8 31.4 -70.3 70.3 -70.3h203.1c38.8 0 70.3 31.5 70.3 70.3v156.4zm-320.3 86h296.6c12.9 0 23.4 10.5 23.4 23.4 0 .1 0 .1 0 .2 -.4 39.4 -1.2 78.9 0 103.9 0 294.3 -262.5 481.8 -498 481.8S.2 773.6 .2 479.5c1.2 -25.4 .2 -62.3 0 -104.1v-.2c0 -12.9 10.5 -23.4 23.4 -23.4h296.7c13 0 23.5 10.5 23.5 23.4v101.6c0 249.8 312.5 250.2 312.5 0V375.2c0 -12.9 10.4 -23.4 23.4 -23.4z"/></svg>