<svg height="1000" width="1125" xmlns="http://www.w3.org/2000/svg"><path d="M312.5 875c50 0 100 -43.8 125 -62.5C562.5 725 600 693.8 625 675v262.5c0 34.5 -28 62.5 -62.5 62.5h-500C28 1000 0 972 0 937.5V675c25 18.8 62.5 50 187.5 137.5 25 18.7 75 62.5 125 62.5zm250 -375c34.5 0 62.5 28 62.5 62.5V600c-50 37.5 -43.8 37.5 -225 168.7 -18.7 6.3 -56.2 43.8 -87.5 43.8S243.8 775 225 762.5C43.8 631.3 50 631.3 0 593.8v-31.3C0 528 28 500 62.5 500h500zm500 -187.5c34.5 0 62.5 28 62.5 62.5v375c0 34.5 -28 62.5 -62.5 62.5h-375V550l-.6 .4C680.8 487.1 627.4 437.5 562.5 437.5H375V375c0 -34.5 28 -62.5 62.5 -62.5h625zm-62.5 250v-125H875v125h125zM312.5 375v62.5H125v-375C125 28 153 0 187.5 0h625C847 0 875 28 875 62.5V250H437.5c-68.9 0 -125 56.1 -125 125z"/></svg>