<svg height="1000" width="875" xmlns="http://www.w3.org/2000/svg"><path d="M645.7 475.6c-4.9 -6.2 -9.2 -16.2 -11.6 -27.9 -4.4 -20.9 -3.9 -36 8.2 -38 12.2 -1.9 18.1 10.7 22.5 31.5 2.9 14.1 2.3 26.9 -.9 34.4 -2.5 -.3 -6.6 -.6 -9.1 -.6s-6.6 .3 -9.1 .6zm-104.6 16.6c-8.7 -3.8 -20 -8.1 -33.7 -7.2 -24.6 1.5 -42.5 14.1 -44.1 6.8 -.8 -3.6 4.7 -9.6 10.5 -13.8 9 -6.6 25.2 -11.9 36.3 -11.9 6.8 0 17.3 2.1 23.5 4.7 16.9 7.2 27.4 21.8 23.7 25.5 -2.1 2.3 -7.5 -.2 -16.2 -4.1zm-17.6 10c18.9 -2.2 33 9 30.1 13.4 -1.2 2 -3.9 1.6 -9.6 .9 -3.1 -.4 -8 -.8 -11.1 -.8 -7.3 0 -18.7 2.1 -25.5 4.7 -7.9 3.1 -8.4 2.2 -10.2 1.5 -3 -6.9 8.6 -16.9 26.3 -19.7zm105.8 33.4c-6.6 13.5 -34.5 -.1 -27.9 -13.7 6.6 -13.5 34.5 .3 27.9 13.7zm30.6 -40c15.1 .3 14.5 31.4 -.5 31.1 -15 -.2 -14.4 -31.3 .5 -31.1zM232.6 649.7c7.9 -1.8 6.6 2.5 6.6 .7 .5 .6 .9 1.8 .9 2.6 0 .6 -.2 1.5 -.5 2 -6.2 14.4 -39.5 15 -42.2 -17.6 -1.8 -21.2 18.2 -41.1 -4.4 -55.9 -3.5 -2.3 -9.7 -4.2 -13.9 -4.2 -7.5 0 -16.9 5.2 -21 11.5 -6.4 10 -6.1 23.8 -14.4 22.7 -7.3 -1.1 -7.3 -28.3 9.8 -47 14.1 -15.7 50.6 -23.3 68.4 10.8 15.9 30 -16 54.2 -5.8 69.8 4.8 7.5 13.9 5.2 16.5 4.6zM818 616.4c12.6 0 32.3 14.6 32.3 49.3 0 34.7 -14.4 74.1 -17.8 82.8 -106.2 254.5 -516.7 254 -629.4 -5.8C141.5 742.7 77.7 690 71.2 624.7c-.5 -4.4 -.9 -11.5 -.9 -16 0 -14 4 -36.2 8.9 -49.4L50.4 534.9C-81.6 423.5 331.1 -35.2 463 79.9c.7 .6 44.9 44 45 44.1l24.5 -10.4C648.3 65.7 742.2 88.8 742.3 165.3c.1 39.8 -25.2 86.1 -65.9 128.2 51.2 47.5 39.1 139.9 42.1 162.1 14 3.9 59.9 14.9 80.3 36.2 35.8 37.6 10.7 77.3 5.9 84.5 8.3 22.1 6.7 17.2 13.3 40.1zm-617.2 94c57.5 1.4 75.5 -55 66.6 -112.9C248.4 474.6 91.3 501.8 103.3 621.6c4.8 47.5 52.9 87.7 97.5 88.8zm-36.2 -223C202.4 386.2 265.3 293 348.6 228.8c61.8 -51.6 128.5 -88.6 128.5 -88.6S441.2 98.6 430.4 95.5c-66.7 -18 -210.8 81.4 -302.8 212.7C90.3 361.3 37.1 455.4 62.5 503.9c3.1 5.9 20.9 21.4 30.5 29.3 15.9 -23.3 42 -40 71.6 -45.8zM631.2 685c5.1 -.5 1.1 4.9 1.1 4.9s-53.5 24.9 -138.7 -1.4c2.4 19.9 21.9 28.9 31.2 32.5 61.3 23.9 169.3 5.1 250.9 -50.8 1.6 -1.1 2.7 0 1.4 2 -56.6 80.7 -251.4 106.9 -295.7 41.7 -23.5 -34.8 -1.1 -85.7 38.2 -80.4 13.3 1.5 105.1 15.6 196.3 -26.7 53.7 -24.9 73.9 -52.3 70.9 -74.5 -.9 -5.9 -5 -14 -9.3 -18.2 -9.7 -9.4 -24.9 -16.8 -50.7 -24 -8.6 -2.4 -14.3 -3.9 -20.6 -6 -11.1 -3.6 -16.5 -6.5 -17.8 -27.3 -.5 -9.1 -2.1 -40.9 -2.7 -54 -1 -23 -3.7 -54.4 -23.2 -67.4 -4.7 -2.9 -12.9 -5.3 -18.4 -5.3 -2.3 0 -6 .4 -8.2 1 -11.1 1.8 -17.7 7.8 -25.9 14.6 -24.3 20.3 -44.8 23.6 -67.7 22.6 -13.6 -.6 -28.1 -2.7 -44.6 -3.7l-9.8 -.5c-38.3 -2 -79.2 31 -86.1 77.9 -9.5 65.3 37.8 99 51.4 118.8 1.8 2.2 3.5 6.1 3.8 8.9 0 3.8 -2.4 6.8 -4.9 9.3 -39 40.2 -51.5 103.9 -36.7 157 1.5 5.4 4.6 13.9 6.9 19 34.6 80.6 141.6 118.2 246.1 84 11.3 -3.7 29.1 -11.2 39.7 -16.7 19.1 -9.5 46.4 -29.9 60.8 -45.6 27.8 -28.9 44.3 -60.5 50.7 -99.3 5.5 -36.3 -15.2 -36.6 -22.4 -35.3 -2.2 -13.6 -8.4 -34.8 -13.9 -47.4 -30.5 24.1 -69.7 40.9 -99.6 49.5 -135.5 38.9 -176.1 -12.4 -188.3 27 66 24.1 135.8 13.8 135.8 13.8zM334.6 307.6h.1c-.2 .2 -.3 .6 -.3 .9 0 .9 .6 1.5 1.5 1.5 .2 0 .6 -.1 .8 -.2C359 293.6 463.5 226.2 599.4 257.4c1.6 .4 2.7 -2.5 1.2 -3.4 -22.1 -12.4 -56 -20.8 -80.1 -21 -.8 0 -1.4 -.6 -1.4 -1.4 0 -.3 .1 -.7 .3 -.9 3.6 -4.7 10.3 -11.5 15 -15.1 .4 -.2 .6 -.8 .6 -1.2 0 -.8 -.6 -1.5 -1.5 -1.5 0 0 -.1 0 -.1 0 -34.2 2.1 -73.2 18.5 -95.7 33.8 -.2 .1 -.6 .3 -.8 .3 -.8 0 -1.5 -.7 -1.5 -1.5 0 -.1 0 -.2 .1 -.3 1.7 -8.5 7.2 -19.6 10.1 -24.8 .1 -.1 .2 -.5 .2 -.7 0 -.8 -.7 -1.4 -1.4 -1.4 -.3 0 -.6 .1 -.8 .2 -36 18.5 -76.3 51.3 -109 89.1z"/></svg>