<svg height="1000" width="875" xmlns="http://www.w3.org/2000/svg"><path d="M453.7 999.8c-2 -6.4 -3.3 -30.9 -2.8 -48 1.1 -31.1 2 -48.3 2.8 -56.2 1.2 -12.1 5.6 -40.5 6.4 -41.8 1.2 -1.9 .8 -54.4 -.5 -64.7 -.6 -5 -1.2 -23.2 -1.3 -40.4 -.3 -32.2 -1.1 -39.3 -5.4 -48.4 -2.1 -4.5 -2.4 -7.5 -1.9 -22.3 .1 -2.1 .1 -5.5 .1 -7.6 0 -4.8 -.3 -12.5 -.8 -17.3C446.4 627.8 443.6 599 444 586.9s.8 -13.9 4 -18.9c5.9 -9.2 12.7 -27.3 16.8 -45.4 4.4 -19.3 7.6 -33.6 9 -40.5 1.8 -8.3 5.7 -21.5 8.6 -29.4 4.5 -12.2 4.9 -30.1 .7 -30.1 -.5 0 -2.6 2.4 -4.7 5.3 -2 2.9 -9.3 9.4 -16.2 14.4 -16.3 11.9 -22.8 18.3 -24.7 24.6s-1.9 14.1 -.3 15.1c.7 .4 2.5 4.7 4.1 9.6 1.6 4.7 2.8 12.5 2.8 17.5 0 3.5 -.6 9.1 -1.4 12.5 -.7 3.4 -1.9 10.6 -2.8 16 -.9 5.4 -2 12.7 -2.5 16.1 -.3 2.5 -1.6 6.2 -3 8.3 -1.9 2 -2.2 1.8 -4 -1 -1.2 -2.5 -2.5 -6.6 -2.8 -9.3 -.5 -3.4 -3.2 -13.9 -6 -23.3 -6.4 -21.3 -6.9 -31.5 -2 -41 1.4 -2.3 2.8 -6.4 3.3 -9 0 -4.7 -4.3 -10.4 -14.5 -19.3C394.7 447 391.6 443.6 388.4 437c-3.3 -7 -5.9 -7.9 -8.8 -3 -3.5 5.8 -5.1 17.8 -5.9 43l-.7 23.8 4 4.4c6.2 7.2 23.5 32.1 26.9 38.7 6.6 13.2 8.4 22.8 8.6 46 .1 23.2 1.8 44.4 3.9 48.3 .7 1.3 1 2.6 .7 2.9s.8 4.1 2.5 8.4c1.7 4.7 3.5 12.6 4 17.6 .6 5.6 2.1 14.7 3.3 20.2 4.4 18.7 5.4 27.5 4.7 39.3 -.4 6.4 -1 21.7 -1.4 33.9 -2.6 81.5 -3.6 113.3 -3.9 119.5 -.3 3.9 -.8 22.5 -1.2 41.2 -.7 31.8 -2.5 53.4 -4.7 55.9 -1.3 1.5 -15.8 -9.6 -24.5 -18.5 -7.3 -7.6 -7.8 -9.4 -5.5 -19.4 1.4 -5.9 4.4 -35.8 6.5 -63.8 .7 -9.3 1.6 -20.5 1.9 -24.8 1.7 -18.3 3.3 -39.7 5.1 -67.9 1.1 -16.5 2.6 -32.1 3.4 -34.6s1.7 -19.3 2.2 -37.4l.9 -32.7 -4.5 -8.4c-3.3 -6.4 -9.5 -13.6 -25.8 -30 -11.7 -11.8 -23.1 -24 -25.2 -27l-3.8 -5.5 1.5 -21.3c2.1 -30.7 2.1 -94.9 0 -115.4l-1.8 -16.9 -6.4 -8.9c-11.4 -15.8 -11.3 -15.1 -12.1 -65 -.2 -11.8 -.8 -22.4 -1.3 -23.5 -1.6 -3.7 -5.9 -5.2 -16.6 -6 -17.3 -1.2 -21.5 -3.7 -46.6 -28.4C255.8 310 243.7 298.3 240.9 296c-5.5 -4.8 -5.4 -3.9 -1.1 -18.9l2.7 -9 -3.3 -5.9c-1.3 -2.3 -3.5 -5.9 -5.1 -7.9 -2.6 -3 -10.7 -21.3 -11.7 -26.4 -.2 -.6 -.3 -1.6 -.3 -2.2 0 -1.7 .9 -4.1 2 -5.4 4.3 -5.6 6.6 -11.1 8.7 -21 4.5 -21.8 15.1 -50.9 20.7 -57 6.2 -6.8 15 -2 18.4 9.7 2.6 9.4 2.6 19.2 .2 36.3 -.9 5.9 -1.8 15.6 -2 21.7 0 7.8 .4 9.1 4.4 14.4 6.5 8.5 15.1 14.5 29.7 20.5 2.8 1.2 6.9 3.7 9.2 5.6 21.8 20.9 36.4 31.6 44.8 32.9 10.1 1.6 15.6 8.9 19.6 26.2 2.5 11 7.8 21.7 10.6 21.7 2 -.4 4.9 -1.6 6.5 -2.7 3.9 -2.4 4.4 -3.4 4.4 -8.2 -.4 -9.6 -2.2 -25.3 -3.9 -34.8 -.7 -3.2 -1.5 -7.9 -1.8 -10.4 -.3 -2.6 -1.2 -7.6 -2 -11.2 -4.9 -21.8 -7.1 -30.2 -8 -31.2 -3 -3.9 -7.9 -19.9 -9.6 -31.1 -3.2 -21.7 -7.8 -27.8 -25.2 -34 -8 -2.9 -19.6 -9.8 -26.1 -15.4 -2.2 -1.9 -7.8 -6.2 -12.4 -9.8 -4.6 -3.6 -8.6 -6.9 -9 -7.4 -1.3 -1.2 -3.7 -2.9 -5.2 -3.9 -12.2 -8.2 -17.3 -13.7 -22 -23.4L269.3 98l-.4 -25.4 -.4 -25.4L282 34.4c7.7 -7.3 16.5 -14.3 20.7 -16.4 6.4 -3.3 8.6 -3.7 22.2 -3.9 16.6 -.4 19.7 0 22.7 3 3 3.1 2.7 12.5 -.5 16.6 -1 1.1 -2.2 3.1 -2.6 4.5 0 1.2 -5.1 9.6 -10.6 17.6 -1.7 3.5 -3.8 9.5 -4.7 13.3 40 26.2 42.1 7.4 27.5 56.7l22.2 4.9C385 113.8 391.5 97 395.7 79.5c.6 -14.9 -23.4 -8.2 -30.1 -17C361.1 51 371.8 34.8 377.5 25c3.1 -4.5 12.9 -9.1 17.2 -8.1 1.7 .5 8.1 -.6 14.4 -2.5 4 -1.2 10.6 -2.7 14.7 -3.2 3.4 -.4 8.6 -1.5 11.8 -2.6 7.1 -2.1 8.8 -2.3 12.4 -.7 3 1 8.1 2.2 11.3 2.6 3.5 .5 8.7 2.1 11.8 3.7 2.5 1.5 6.9 3.4 9.7 4.3 4.9 1.3 5.9 1.1 13.8 -3.3l8.5 -4.7 21 -.7c20.4 -.8 21.1 -1 29.8 -5.3L562.8 0l4.8 2.8c3.5 1.9 6.2 5.3 9.5 11.7 4.6 8.8 4.6 9 2.7 14.4 -1.8 4.8 -1.8 6.5 -.2 12.5 .8 3.3 2.7 8.4 4.1 11.5 1 2.1 2.2 5.6 2.5 7.8 .6 8.5 0 10.4 -4.7 13.6 -4.2 2.8 -13.6 15.4 -13.6 18.2 -.4 1.7 -1.4 4.3 -2.1 5.9 -9.8 22.4 -13.2 26.4 -27.9 33.2 -18 8.2 -24 10.1 -31.6 10.1 -6.1 0 -7.9 .5 -8.9 2.5 -1.9 2.3 -5.5 5.5 -8 7.2 -3 2 -6.8 6.2 -8.6 9.3 -.8 2.1 -2.9 4.6 -4.8 5.7 -1.5 .7 -3.7 2.2 -4.8 3.4 -3.6 3.1 -9.7 7.8 -13.7 10.5 -6.5 4.5 -13.4 9.7 -15.4 11.7 -1 1.2 -3.1 2.7 -4.6 3.3 -1.4 .6 -3.2 2.1 -4.2 3.2 -2.5 2.7 -2.9 4.2 -2.2 9 .5 3.3 1.8 8.4 2.8 11.5 2.6 7.4 2.5 15.4 0 20.6 -2.6 5.3 -1.8 13 2.6 18.8 3.9 5.1 4.2 8.9 1.4 17.2 -1.1 4.5 -2.1 11.8 -2.1 16.4 0 .3 0 .8 0 1 0 9.6 .5 12.3 2.9 16.4 2.4 4.1 3.5 4.9 6.3 4.5 3.9 -.4 4.5 -2 9.2 -23.6 4.3 -19.6 7.3 -23.3 26.9 -33.4 5.7 -2.9 14.6 -7.8 19.5 -10.6 5 -2.8 13.3 -7.2 18.3 -9.6 9.8 -4.3 23.1 -14.5 29.8 -22.8 13.8 -17.2 19.5 -31.7 25.1 -65 .5 -4.6 3 -11.3 5.5 -15.1 2.4 -3.7 4.9 -10.1 5.7 -14.3 1.9 -10.4 5.5 -17.7 10.9 -22.5 9.2 -8.2 11.7 -2.1 8.9 21.2 -.9 7.6 -2.1 20.2 -2.8 28.1l-1.2 14.4 8.7 8 8.7 8 .2 16.4c.2 9.1 1 18.6 1.8 21.3l1.6 4.8 -12.5 12.3c-16.7 16.3 -25.2 27.2 -32.8 42.2 -3.4 6.8 -7.3 13.9 -8.5 15.6 -4.3 6.1 -12.6 25.4 -17.1 39.6l-4.5 14.1 -13.7 12.7c-7.4 6.9 -15.6 14.1 -17.9 15.9 -5.9 4.6 -8.3 10.1 -8.3 19.6 0 .3 0 .8 0 1.1 0 3.8 1.4 9.7 3.1 13 1.3 2.6 3.1 6.8 4.1 9.5 .6 1.7 1.9 4.2 3.1 5.6 2.7 3.1 3.7 31.5 1.6 45.4 -1.3 8.7 -7.1 23.4 -9.2 23.4 -3.5 0 -7.9 18.1 -9.9 40.5 -.4 3.9 -1.2 11.6 -2 17s-1.9 19.5 -2.6 31.3c-1.5 23.9 -.4 36.7 3.9 45.3 6.7 13 1 24.7 -21.5 44.6l-7.8 6.8 .2 10.1c0 4.9 1 12.6 2.2 17.3 9 31.3 9.2 33.1 8.5 72.6 -.9 51.5 -.5 78.6 1.3 86.2 .8 3.7 1.7 9.9 2.1 13.7 .3 3.9 1.3 10.4 2.1 14.3 .9 4.5 1.5 21.5 1.5 44.5v37.2l-3.5 5.1c-5.3 7.7 -29.5 26.5 -30.3 24zm57.6 -88.1c-.3 -.6 -.6 -13.4 -.6 -28.5 0 -27.5 -1.8 -53.8 -4.4 -67.3 -.8 -3.9 -1.6 -18.9 -1.8 -33.3 -.3 -23.3 -2.7 -47.6 -5.1 -51.5 -1.3 -2.1 -5.9 -34.5 -5.9 -41.6 0 -8.3 1.9 -11.8 10.3 -17.9s9.5 -6.1 10.7 -1.4c.6 2.2 2.8 11 5.1 19.5 7.7 29.6 8.1 31.8 7.9 42.5 -.2 11.3 -.3 12 -3.4 34.6 -2 13.8 -2.3 24.2 -2 55.6 .4 37.9 -1.2 69.7 -3.9 80.6 -1.3 5.4 -5.4 10.7 -6.7 8.6zM372.7 838.3c-1.3 -5.8 -2.8 -15.2 -3.4 -21.1s-2.2 -15.3 -3.4 -21.1c-.8 -3.4 -1.7 -9.1 -2 -12.6 -.6 -6.3 -1.7 -14.6 -2.6 -18.6 -1.9 -9.3 -6.5 -37.8 -6.6 -41.1 0 -1.5 -.7 -7.9 -1.4 -14.4 -1.3 -12.1 -1.6 -54 -.4 -55.2 1.9 -2 12.9 5.4 22.1 14.5l10.3 10.2 -.9 12.7c-.5 6.9 -1.1 19.9 -1.5 28.9 -.3 9 -.9 19.3 -1.3 22.9s-1.2 18.3 -1.8 32.7c-1.6 34 -3.8 61.1 -5.2 62.5 -.2 .2 -.6 .3 -.9 .3 -.4 0 -.9 -.3 -1.1 -.6h.1zM202.4 317.6c41.1 25 34.8 27.6 55.6 34.5 25.4 8.4 36.9 13.9 45.2 32.9C218 455.6 168.5 498 153.4 523.4 92.9 625 141.7 721.9 276 693.8c-27.7 57.1 -152.4 55.9 -192.8 -9.6C35 606.2 40.1 453.1 202.4 317.7v-.1zm411.7 349.6C724.7 680.6 774.9 593.5 705 492.9c0 0 -52.5 -57.3 -125.6 -132.8C585.3 329.9 598 297.4 639.1 255c174.3 124 179.7 276.6 180.6 291.7 8.4 138 -153.7 178.1 -205.6 120.5z"/></svg>