<svg height="1000" width="1000" xmlns="http://www.w3.org/2000/svg"><path d="M990.8 165.4c12.2 12.2 12.2 32 0 44.2l-84.5 84.6c-11.8 11.7 -27.7 18.3 -44.2 18.3H109.4c-25.9 0 -46.9 -21 -46.9 -46.9V109.4c0 -25.9 21 -46.9 46.9 -46.9h328.1V31.2C437.5 14 451.5 0 468.8 0h62.5c17.2 0 31.2 14 31.2 31.2v31.3h299.6c16.5 0 32.4 6.6 44.2 18.3zM437.5 968.8V750h125v218.8c0 17.2 -14 31.2 -31.2 31.2h-62.5c-17.3 0 -31.3 -14 -31.3 -31.2zM890.6 437.5c25.9 0 46.9 21 46.9 46.9v156.2c0 25.9 -21 46.9 -46.9 46.9H137.9c-16.5 0 -32.4 -6.6 -44.1 -18.3L9.2 584.6C-3 572.4 -3 552.6 9.2 540.4l84.6 -84.6c11.7 -11.7 27.6 -18.3 44.1 -18.3h299.6V375h125v62.5h328.1z"/></svg>