<svg height="1000" width="1125" xmlns="http://www.w3.org/2000/svg"><path d="M562.5 0c135.9 0 246.1 110.2 246.1 246.1 0 109.9 -160.8 310.2 -222.5 382.8a30.638 30.638 0 0 1 -47.2 0C477.2 556.3 316.4 356 316.4 246.1 316.4 110.2 426.6 0 562.5 0zm0 328.1c45.3 0 82 -36.7 82 -82s-36.7 -82 -82 -82 -82 36.7 -82 82 36.7 82 82 82zM39.3 421.8L271 329.1c10.1 29.1 24.2 59.5 41.5 90.7V875L42.9 997.7C22.3 1005.9 0 990.8 0 968.7V479.8c0 -23.4 17.6 -49.3 39.3 -58zm523.2 280.7c27.5 0 53.5 -12.1 71.3 -33.1C672.2 624.1 713 572.4 750 519.5V1000L375 875V519.5c37 52.9 77.8 104.5 116.2 149.9 17.8 21 43.8 33.1 71.3 33.1zm519.6 -387.7c20.6 -8.2 42.9 6.9 42.9 29v488.9c0 23.4 -17.6 49.4 -39.3 58L812.5 1000V437.5z"/></svg>