<svg height="1000" width="937.5" xmlns="http://www.w3.org/2000/svg"><path d="M930.1 483.4c9.2 9.2 9.2 24 .2 33.2L821.1 625.8c-14.9 14.6 -40 4.3 -40 -16.6v-46.7h-46.7v39.1c0 12.9 -10.6 23.4 -23.5 23.4h-78.1c-12.9 0 -23.4 -10.5 -23.4 -23.4v-39.1h-53.9c-11.4 50 -36.6 97.5 -75.4 136.3 -109.8 109.8 -287.9 109.8 -397.7 0s-109.7 -287.9 0 -397.6 287.9 -109.8 397.7 0c38.8 38.8 64 86.3 75.4 136.3h53.9v-39.1c0 -12.9 10.5 -23.4 23.4 -23.4h78.1c12.9 0 23.5 10.5 23.5 23.4v39.1h46.5v-46.7c0 -20.9 25.2 -31.4 40 -16.6zM391.8 610.5c60.9 -60.9 60.9 -160.1 0 -220.9 -60.9 -60.9 -160 -60.9 -220.9 0s-60.9 160 0 220.9c60.9 61 160 61 220.9 0z"/></svg>