<svg height="1000" width="1000" xmlns="http://www.w3.org/2000/svg"><path d="M664.1 0c12.9 0 23.4 10.5 23.4 23.4v154.3c0 14.1 -11.5 23.5 -23.6 23.5 -5.7 0 -11.8 -2.2 -16.4 -6.9l-33 -33 -95.2 95.1c27.4 43.4 43.2 94.8 43.2 149.9 0 155.2 -126 281.2 -281.2 281.2S0 561.5 0 406.3 126 125 281.3 125c55 0 106.4 15.8 149.8 43.2L526.2 73l-33 -33C478.5 25.2 488.9 0 509.8 0h154.3zM281.3 562.5c86.1 0 156.2 -70.1 156.2 -156.2S367.4 250 281.3 250 125 320.1 125 406.3s70.1 156.2 156.3 156.2zM976.6 312.3c12.9 0 23.4 10.6 23.4 23.6v154.3c0 14.1 -11.5 23.5 -23.6 23.5 -5.9 0 -11.8 -2.2 -16.4 -6.9l-33 -33 -95.2 95.1c27.4 43.4 43.2 94.8 43.2 149.8C875 874 749 1000 593.8 1000 448.4 1000 328.9 889.8 314.1 748.2c42.5 -3.9 84.5 -16 123.6 -35.9 -.2 2 -.2 4.1 -.2 6.3 0 86.1 70.1 156.2 156.3 156.2S750 804.7 750 718.6C750 632.4 679.9 562.3 593.8 562.3c-2 0 -4.2 .2 -6.3 .2 19.9 -39.1 31.8 -81.1 35.9 -123.6 44 4.7 84.6 19.3 120.2 41.6l95.1 -95.1 -33 -33.1c-14.7 -14.8 -4.3 -40 16.6 -40h154.3z"/></svg>