<svg height="1000" width="750" xmlns="http://www.w3.org/2000/svg"><path d="M726.6 125c12.9 0 23.4 10.5 23.6 23.4v154.1c0 20.9 -25.2 31.5 -40 16.6l-33.1 -33L643 320.3l27.5 27.6c9.2 9.1 9.2 24 0 33.2l-55.3 55.2c-9.1 9.2 -24 9.2 -33.2 0l-27.5 -27.5 -35.2 35.1c27.4 43.4 43.2 94.8 43.2 149.9C562.5 749 436.5 875 281.2 875S0 749 0 593.8 126 312.5 281.1 312.5c55 0 106.4 15.8 149.8 43.2L466 320.5 438.5 293c-9.2 -9.2 -9.2 -24.1 0 -33.2l55.2 -55.1c9.2 -9.2 24.1 -9.2 33.3 0l27.5 27.5L588.7 198l-33 -33c-14.7 -14.8 -4.3 -40 16.6 -40h154.3zM281.3 750c86.1 0 156.2 -70.1 156.2 -156.2S367.4 437.5 281.3 437.5 125 507.6 125 593.8 195.1 750 281.3 750z"/></svg>