<svg height="1000" width="1250" xmlns="http://www.w3.org/2000/svg"><path d="M626.3 125c877.1 0 680.3 750 309.5 750C857.9 875 784.5 834.6 737.7 765.9l-50.2 -73.8c-30.6 -44.9 -91.8 -44.9 -122.3 0l-50.3 73.8C468.1 834.6 394.7 875 316.8 875 -72.1 875 -238.1 125 626.3 125zM359.4 602.3c80.2 0 132.3 -50.1 156.4 -80.2 10.2 -12.8 10.2 -31.5 0 -44.2C491.7 447.8 439.6 397.7 359.4 397.7S227 447.8 203 477.9c-10.2 12.8 -10.2 31.4 0 44.2 24 30 76.2 80.2 156.4 80.2zm531.2 0c80.2 0 132.4 -50.1 156.4 -80.2 10.2 -12.8 10.2 -31.5 0 -44.2 -24 -30.1 -76.2 -80.2 -156.4 -80.2s-132.3 50.1 -156.4 80.2c-10.2 12.8 -10.2 31.4 0 44.2 24.1 30 76.2 80.2 156.4 80.2z"/></svg>