<svg height="1000" width="875" xmlns="http://www.w3.org/2000/svg"><path d="M845.7 349.8s1.6 140.1 -17.6 237.3C816 648.8 720.5 716.4 610.9 729.5 571.6 734.2 429 757.2 261.8 716.4v.7c0 7.3 .7 19.2 1.7 26.5 13 96.8 96.1 102.7 175.1 105.4 79.7 2.6 150.6 -19.7 150.6 -19.7l3.3 72.1s-55.7 29.9 -154.9 35.3c-54.7 3.2 -122.7 -1.3 -201.8 -22.2C16.6 856.5 29.5 575.8 29.5 349.8 29.5 160 153.9 104.3 153.9 104.3c121 -55.5 445.3 -56 567.4 0 0 0 124.4 55.7 124.4 245.5zM699 594.4c0 -238.3 10.3 -288.5 -36 -341.9 -50.2 -56 -155.7 -60.5 -202.8 12l-22.6 38 -22.7 -38C368 192.4 262.7 196.1 212.1 252.5c-46.1 53 -35.9 103.4 -35.9 341.8h91.2v-223c0 -97.1 125 -100.8 125 13.5v122.1h90.5V384.8c0 -114.3 125 -110.6 125 -13.5v223.1H699z"/></svg>