<svg height="1000" width="1125" xmlns="http://www.w3.org/2000/svg"><path d="M33.9 313.3h90.5L207 542.5l79.5 -229.2h88.9l25 374.2h-88.9l-9.4 -151.2 -49.9 151.2h-87.3L110.4 531.6l-11 155.9H13.7zm548.9 0s182.4 3.1 183.9 187.1c1.6 188.7 -183.9 187.1 -183.9 187.1h-93.6V313.3h93.6zm-2.4 286.1s93 -10.2 91.4 -100.7C670.3 408.3 580.4 400 580.4 400v199.4zm465.4 -145s65.5 23.3 65.5 107.6c0 134 -169.9 124.7 -169.9 124.7h-88.9V312.5h101.4s97.1 -2.8 107.5 67c.7 4.5 1.3 11.9 1.3 16.4 0 17.5 -7.6 43.7 -16.9 58.5zM944.5 392v42.1h23.4s10.6 -10.4 7.8 -23.4C971 388.9 944.5 392 944.5 392zm-.2 213.8s80.1 9.6 80.8 -40.5c.7 -53.1 -80.5 -43.8 -80.5 -43.8h-.1v35.6z"/></svg>