<svg height="1000" width="625" xmlns="http://www.w3.org/2000/svg"><path d="M231.1 465.6c6.8 -24.4 13.4 -65.6 25.7 -65.6 16.2 3.5 18.8 45.7 36.4 71.5 8.9 -45.9 10.3 -166.2 27.5 -169.4 17.6 -1.3 38.5 129.9 43 151.4 19.3 8 95.5 12.9 95.5 12.9 3.7 14.3 -46.9 14.8 -78.1 15.2 -9 28.9 -10.6 54.1 -22.3 54.7 -9.2 .4 -16 -56.2 -34.2 -96.8l-18.3 127.9c-8.6 25.4 -30.3 -44 -42.8 -76.8 -6.5 -.2 -121.9 -3.1 -93 -15.2zM445.3 875H179.7c-41.4 0 -41.4 -62.5 0 -62.5h265.6c41.4 0 41.4 62.5 0 62.5zm-46.9 125H226.6c-41.4 0 -41.4 -62.5 0 -62.5h171.8c41.4 0 41.4 62.5 0 62.5zm66.8 -276.4c-7 41.6 -70.3 30.3 -63.6 -9.9 7 -41.4 10.9 -79.3 29.8 -114.5C495.1 481.4 560.5 412.7 560.5 303.1 560.5 170.5 449.2 62.5 312.5 62.5s-248 108 -248 240.6c0 109.6 65.4 178.3 129.1 296.3 18.9 35 22.8 72.1 29.8 114.5 6.9 40.6 -56.8 50.9 -63.6 9.9 -6.3 -37.3 -10.2 -71.1 -23.3 -95.5C120.9 599.6 105.1 573.4 89.6 548.2 41.6 469.3 0 401.2 0 303.1 0 135.9 140.2 0 312.5 0S625 135.9 625 303.1c0 98.3 -41.6 166.2 -89.6 245.1 -15.5 25.2 -31.5 51.4 -46.9 80.1 -13.1 24.2 -17 58.4 -23.3 95.3z"/></svg>