<svg height="1000" width="1000" xmlns="http://www.w3.org/2000/svg"><path d="M437 255.4c-82.1 12.8 -155.9 50 -214 104.2L5.7 49.2C-8.8 28.5 6 0 31.3 0h217.1c19.5 0 43.5 13.6 53.6 30.4zM968.7 0c25.3 0 40.1 28.5 25.6 49.2L777 359.6C718.9 305.4 645.1 268.2 563 255.4l135 -225A62.35 62.35 0 0 1 751.6 0h217.1zM500 312.5c189.8 0 343.8 153.9 343.8 343.8S689.8 1000 500 1000 156.3 846.1 156.3 656.3 310.2 312.5 500 312.5zm180.7 307.1c13.3 -12.9 6 -35.6 -12.4 -38.2L565.9 566.5l-45.8 -92.8C516 465.4 508 461.2 500 461.2c-8 0 -16 4.1 -20.1 12.5l-45.8 92.8 -102.4 14.9c-18.3 2.6 -25.7 25.3 -12.4 38.2l74.1 72.2 -17.5 102c-3.1 18.3 16.1 32.3 32.5 23.6L500 769.3l91.6 48.1c16.4 8.7 35.7 -5.3 32.5 -23.6l-17.5 -102z"/></svg>