<svg height="1000" width="1000" xmlns="http://www.w3.org/2000/svg"><path d="M187.5 937.5V250H250v-93.7c0 -51.8 42 -93.8 93.8 -93.8h312.5c51.7 0 93.7 42 93.7 93.8V250h62.5v687.5h-625zM375 187.5V250h250v-62.5H375zm625 156.3v500c0 51.7 -42 93.7 -93.7 93.7H875V250h31.3c51.7 0 93.7 42 93.7 93.8zM125 937.5H93.8C42 937.5 0 895.5 0 843.8v-500C0 292 42 250 93.8 250H125v687.5zM687.5 531.3c0 -17.3 -14 -31.3 -31.2 -31.3h-93.8v-93.7c0 -17.3 -14 -31.3 -31.2 -31.3h-62.5c-17.3 0 -31.3 14 -31.3 31.3V500h-93.7c-17.3 0 -31.3 14 -31.3 31.3v62.5c0 17.2 14 31.2 31.3 31.2h93.7v93.8c0 17.2 14 31.2 31.3 31.2h62.5c17.2 0 31.2 -14 31.2 -31.2V625h93.8c17.2 0 31.2 -14 31.2 -31.2v-62.5z"/></svg>