<svg height="1000" width="1062.5" xmlns="http://www.w3.org/2000/svg"><path d="M222.1 500c0 237.9 163.8 435.2 377.9 470.9 -36.5 8.8 -74.6 13.5 -113.7 13.5C217.6 984.4 0 767.6 0 500S217.6 15.6 486.1 15.6c39.3 0 77.4 4.7 113.7 13.5C385.7 64.8 222.1 262.1 222.1 500zm580.8 195.9C954.7 587.7 1006.8 393 933.8 239.1c21.9 19.3 42 41.6 59.6 66.8 120.3 172.4 79.6 410.7 -90.9 532.4C732 960 496.1 918.8 375.8 746.5a371.02 371.02 0 0 1 -42.4 -79.1c118.7 121.3 317.8 136.7 469.5 28.5zM375.6 219.3C517.2 112.7 710.7 130.1 808.4 258c88.5 116.6 67.2 284.4 -43.6 394.2C801 551.8 786.9 435.4 717.2 343.6 633.2 233.2 493.4 190.6 367.8 225.4c2.5 -2 5.1 -4.1 7.8 -6.1zm202.5 218.2h78.2c8.5 0 15.6 7 15.6 15.6v93.8c0 8.6 -7.1 15.6 -15.6 15.6h-78.2c-8.6 0 -15.6 7 -15.6 15.6v78.2c0 8.5 -7 15.6 -15.6 15.6h-93.8c-8.6 0 -15.6 -7.1 -15.6 -15.6v-78.2c0 -8.6 -7 -15.6 -15.6 -15.6h-78.1c-8.6 0 -15.7 -7 -15.7 -15.6v-93.8c0 -8.6 7.1 -15.6 15.7 -15.6h78.1c8.6 0 15.6 -7 15.6 -15.6v-78.1c0 -8.6 7 -15.7 15.6 -15.7h93.8c8.6 0 15.6 7.1 15.6 15.7v78.1c0 8.6 7 15.6 15.6 15.6z"/></svg>