<svg height="1000" width="1000" xmlns="http://www.w3.org/2000/svg"><path d="M193.4 809.2c2.1 11.1 -4.5 21.7 -15.7 24 -10.5 2.2 -21.3 -4.5 -23.4 -15.6 -2.2 -10.6 4.5 -21.7 15 -24 10.6 -2.4 21.7 4.4 24.1 15.6zm279.5 139.4c12.8 -9 30.2 -5.4 38.4 7.3 9 12.9 5.7 30 -6.6 39 -12.9 9 -30.1 5.7 -39.1 -7.2 -8.4 -12.9 -5.1 -30.1 7.3 -39.1zM304.9 45.7c-12.3 2.9 -24.4 -4.9 -27.2 -17.8C275.4 15.6 283.2 3.3 295.5 .6c12.3 -2.9 24.6 4.9 26.8 17.8C325 30.7 317.2 43 304.9 45.7zM67.2 442c19.5 13.9 24.6 40.6 11.1 60.9 -13.5 20.1 -40.2 25 -59.7 11.2C-1 500.6 -6.1 473.2 7.4 453.7 20.9 433.6 47.7 428.5 67.2 442zM598.4 108.2c-20.1 12.3 -46.3 5.7 -58 -14.5C528.1 73 534.8 46.3 554.9 34c20.1 -12.3 46.3 -5.7 58.6 15 11.7 20.1 5.6 46.9 -15.1 59.2zM225.2 221.5c-14.7 10.1 -35.2 6.8 -45.1 -8.4 -10 -15.1 -6.7 -35.8 8.4 -46.3 14.4 -10 35.1 -6.6 45.1 8.4s6.6 35.7 -8.4 46.3zm727.1 304.7c14.5 -2.8 29 6.8 31.9 21.3 3.3 15 -6.3 29.6 -20.7 32.4 -14.5 3.3 -29.1 -6.3 -31.9 -20.7 -3.3 -15.3 6.3 -29.7 20.7 -33zm77.6 -111c2.7 11.2 -4.5 21.7 -15.1 24.6 -11.1 2.2 -21.8 -5 -24 -15.6 -2.1 -11.1 4.5 -22.4 15.6 -24.6 10.6 -2.1 21.3 4.5 23.5 15.6zM873 271.3c16.3 -11.7 39.1 -7.4 50.2 9.6 11.2 16.8 7.3 39.6 -8.9 51.3 -16.8 11.2 -39.7 7.3 -50.8 -9.5C852.3 305.9 856.3 283 873 271.3zm-12.3 272.3c51.4 84.1 29.5 195.3 -51.3 252.1 -34 24 -72.5 34.6 -111.2 33.4 -23.4 92 -135.5 126.2 -205.2 63.7 -2.2 1.7 -5.1 3.3 -7.3 5.6 -76.3 53 -180.2 34 -233.2 -43.5C233.6 827 224 795.1 223 763.3 95.3 742 47.3 579.7 142.8 490.4 87.5 398.8 143.9 280.7 247.1 266 296.1 136.7 457.2 75.4 566.6 160.2c131.6 -43.6 266.2 57.4 255.7 197.4 80.2 24.6 103.1 130.7 38.4 186zM724 688.7c-6 -40.3 -79.9 -9 -84.2 -53 -6 -62.5 85.4 -197.4 78.2 -250 -6.7 -46.8 -37.9 -56.8 -65.3 -57.4 -26.1 -.6 -33 3.9 -41.8 9 -5.6 3.3 -12.9 9.6 -22.8 -.6C575.8 325 566.4 313.9 550.2 311.5c-24 -3.9 -34.6 3.9 -52 19 -6.6 5.6 -23.4 25.2 -39 17.7 -6.7 -3.3 -30.1 -15 -46.9 -22.2 -31.8 -13.9 -78.1 9 -94.9 39 -25.2 44.8 -74.2 220.9 -81.5 244.4 -16.8 51.9 21.3 94.9 72.1 92 21.7 -1.2 35.7 -9 49.6 -34 7.8 -14.5 81.5 -210.4 87.1 -219.9 3.9 -6.7 17.4 -15.7 28.5 -10 11.2 6.1 13.5 18.4 11.8 29.5 -2.2 18.9 -54.7 138.5 -56.5 151.7 -6.6 44.8 52.6 52 75.4 7.9 7.2 -13.9 89.3 -180.9 96.5 -192 8.4 -12.3 14.4 -16.2 22.8 -15.7 6.1 0 16.3 1.8 13.9 21.3 -2.7 18.4 -68.5 141.2 -76 171.3 -9 40.3 12.9 80.9 48.7 98.9C632 721.5 731.8 741 724 688.7zm11.2 180.2c20.7 -14.6 48.6 -8.9 63 11.8 13.9 20.7 9 49.2 -11.7 63.6 -20.7 13.9 -48.6 9 -62.5 -11.7 -14 -20.7 -9 -49.2 11.2 -63.7z"/></svg>