<svg height="1000" width="968.8" xmlns="http://www.w3.org/2000/svg"><path d="M484.4 15.6C752 15.6 968.8 232.4 968.8 500S752 984.4 484.4 984.4 0 767.6 0 500 216.8 15.6 484.4 15.6zM171.9 437.5c0 68.9 56 125 125 125s125 -56.1 125 -125c0 -47.5 -26.8 -88.3 -65.6 -109.4 1.3 5.1 3.1 10.2 3.1 15.7 0 34.5 -28 62.5 -62.5 62.5s-62.5 -28 -62.5 -62.5c0 -5.5 1.7 -10.6 3.1 -15.7 -38.9 21.1 -65.6 61.9 -65.6 109.4zm437.5 343.8c41.4 0 41.4 -62.5 0 -62.5h-250c-41.4 0 -41.4 62.5 0 62.5h250zm62.5 -218.8c68.9 0 125 -56.1 125 -125 0 -47.5 -26.8 -88.3 -65.6 -109.4 1.3 5.1 3.1 10.2 3.1 15.7 0 34.5 -28 62.5 -62.5 62.5s-62.5 -28 -62.5 -62.5c0 -5.5 1.7 -10.6 3.1 -15.7 -38.9 21.1 -65.6 61.9 -65.6 109.4 0 68.9 56 125 125 125z"/></svg>