<svg height="1000" width="1250" xmlns="http://www.w3.org/2000/svg"><path d="M1250 255.7c-36.3 13 -62.5 47.3 -62.5 88s26.2 75.1 62.5 88.1V625H0V431.8c36.3 -13 62.5 -47.3 62.5 -88.1S36.3 268.7 0 255.7v-68.2C0 153 28 125 62.5 125h1125c34.5 0 62.5 28 62.5 62.5v68.2zM437.5 500V250h-125v250h125zm250 0V250h-125v250h125zm250 0V250h-125v250h125zM0 875V687.5h1250V875h-125v-52.1c0 -17.3 -14 -31.2 -31.2 -31.2s-31.3 13.9 -31.3 31.2V875h-250v-52.1c0 -17.3 -14 -31.2 -31.2 -31.2S750 805.6 750 822.9V875H500v-52.1c0 -17.3 -14 -31.2 -31.2 -31.2s-31.3 13.9 -31.3 31.2V875h-250v-52.1c0 -17.3 -14 -31.2 -31.2 -31.2S125 805.6 125 822.9V875H0z"/></svg>