<svg height="1000" width="1250" xmlns="http://www.w3.org/2000/svg"><path d="M1219.9 635.2c45.1 44.3 34.8 143.5 0 172.4 -70.7 76 -195.3 35.6 -204.9 -68.7 -1.9 -22.9 2.2 -45 11.2 -64.5C1118.6 471.9 663.1 467.2 740 658.4c.2 .2 .4 .4 .6 .8 52 83.2 -13.1 190 -114.8 185.9C524.2 849.4 458.6 742.8 510.9 659.2c.2 -.4 .4 -.6 .6 -.8 77 -191.2 -378.5 -186.5 -286.1 16 39.8 87.7 -27.5 183 -119.5 171.5C-15 830.7 -16.2 684 22.7 645.5c31.2 -31.2 62.1 -48.4 103.5 -43.9 84.5 -2 97 -68.2 73.2 -193 -44.3 -112.3 28.3 -257 170.7 -255.5 150.2 1.4 161.7 160.2 255.7 160.2 96.1 0 104.5 -158.8 255.6 -160.2 141.6 -1.3 215.3 143.2 170.7 255.5 -23.8 124.8 -11.3 191 73.3 193 36.5 -3.9 70.5 9.3 94.5 33.6zM626.4 597.9C711.5 597.9 749 524 749 475.2 749 407.4 694.1 352.5 626.4 352.5h-1.2c-67.6 0 -122.7 54.9 -122.7 122.7 0 49.4 37.9 122.7 122.7 122.7h1.2z"/></svg>