<svg height="1000" width="1250" xmlns="http://www.w3.org/2000/svg"><path d="M281.3 250c17.2 0 31.2 14 31.2 31.3v281.2h-125V281.3c0 -17.3 14 -31.3 31.3 -31.3h62.5zm187.5 0c17.2 0 31.2 14 31.2 31.3v281.2H375V281.3C375 264 389 250 406.3 250h62.5zm375 0c17.2 0 31.2 14 31.2 31.3v281.2H750V281.3C750 264 764 250 781.3 250h62.5zm187.5 0c17.2 0 31.2 14 31.2 31.3v281.2h-125V281.3c0 -17.3 14 -31.3 31.3 -31.3h62.5zm156.2 -62.5c-34.5 0 -62.5 -28 -62.5 -62.5S1187.5 0 1187.5 0s62.5 90.5 62.5 125 -28 62.5 -62.5 62.5zm-187.5 0c-34.5 0 -62.5 -28 -62.5 -62.5S1000 0 1000 0s62.5 90.5 62.5 125 -28 62.5 -62.5 62.5zm-187.5 0C778 187.5 750 159.5 750 125S812.5 0 812.5 0 875 90.5 875 125s-28 62.5 -62.5 62.5zm-187.5 0c-34.5 0 -62.5 -28 -62.5 -62.5S625 0 625 0s62.5 90.5 62.5 125 -28 62.5 -62.5 62.5zm-187.5 0C403 187.5 375 159.5 375 125S437.5 0 437.5 0 500 90.5 500 125s-28 62.5 -62.5 62.5zm-187.5 0c-34.5 0 -62.5 -28 -62.5 -62.5S250 0 250 0s62.5 90.5 62.5 125 -28 62.5 -62.5 62.5zm-187.5 0C28 187.5 0 159.5 0 125S62.5 0 62.5 0 125 90.5 125 125s-28 62.5 -62.5 62.5zm1062.5 375V281.3c0 -17.3 14 -31.3 31.3 -31.3h62.5c17.2 0 31.2 14 31.2 31.3v281.2c0 103.6 -83.9 187.5 -187.5 187.5h-375v125h343.8c17.2 0 31.2 14 31.2 31.3v62.5c0 17.2 -14 31.2 -31.2 31.2H218.8c-17.3 0 -31.3 -14 -31.3 -31.2v-62.5c0 -17.3 14 -31.3 31.3 -31.3h343.7V750h-375C83.9 750 0 666.1 0 562.5V281.3C0 264 14 250 31.3 250h62.5c17.2 0 31.2 14 31.2 31.3v281.2c0 34.5 28 62.5 62.5 62.5h375V281.3c0 -17.3 14 -31.3 31.3 -31.3h62.5c17.2 0 31.2 14 31.2 31.3V625h375c34.5 0 62.5 -28 62.5 -62.5z"/></svg>