<svg height="1000" width="562.5" xmlns="http://www.w3.org/2000/svg"><path d="M562.5 406.3c0 133.7 -93.6 245.8 -218.7 274.2v100.7h70.3c12.9 0 23.4 10.6 23.4 23.5v78.1c0 12.9 -10.5 23.4 -23.4 23.4h-70.3v70.4c0 12.9 -10.6 23.4 -23.5 23.4h-78.1c-12.9 0 -23.4 -10.5 -23.4 -23.4v-70.4h-70.4c-12.9 0 -23.4 -10.5 -23.4 -23.4v-78.1c0 -12.9 10.5 -23.5 23.4 -23.5h70.4V680.5C93.6 652.1 0 540 0 406.3 0 319.9 38.9 242.8 100 191.4 95.1 187.7 90.4 184 85.9 180.1 37.5 138.7 8.2 84.8 1.6 26 -.2 12.1 10.7 0 24.8 0h79.1c11.1 0 20.7 8 22.9 19.1 4.8 24.5 18.7 47.5 40.4 66.1 30.1 25.7 70.5 39.8 114.1 39.8s83.9 -14.1 113.8 -39.8c21.7 -18.6 35.8 -41.6 40.4 -66.1C437.7 8 447.3 0 458.6 0h79.1c14.1 0 25 12.1 23.2 26 -6.6 58.6 -36.1 112.5 -84.3 153.9 -4.5 3.9 -9.2 7.8 -14.1 11.3 61.1 51.6 100 128.7 100 215.1zm-437.5 0c0 86.1 70.1 156.2 156.3 156.2S437.5 492.4 437.5 406.3 367.4 250 281.3 250 125 320.1 125 406.3z"/></svg>