<svg height="1000" width="1000" xmlns="http://www.w3.org/2000/svg"><path d="M998.7 40.6C976 116.2 931.7 258.8 879 407.2c13.6 4.1 26.1 7.8 36.3 11 12.3 3.7 22.2 17.1 22.2 30 0 4.3 -1.6 10.9 -3.7 14.7C890.7 545.5 772.3 761.3 655.6 881.7c-2 2.1 -3.9 4.8 -5.9 6.8C588.2 950 467.6 1000 380.6 1000 170.6 1000 .1 829.5 .1 619.4 .1 532.5 50 411.9 111.5 350.4c1.9 -1.9 4.7 -3.9 6.8 -5.8C238.6 227.5 454.2 109.4 537 66.2c3.8 -2 10.4 -3.6 14.8 -3.6 12.8 0 26.2 9.9 30 22.2 3.1 9.9 6.8 22.6 10.9 36.3C740.9 68.4 883.7 24 959.2 1.4 961.7 .6 965.8 0 968.4 0c17.4 0 31.6 14.2 31.6 31.6 0 2.6 -.6 6.6 -1.3 9zM624.9 625c0 -138 -112 -249.9 -250 -249.9C237 375.1 125 487.1 125 625c0 138 112 250 249.9 250h.1c137.9 0 249.9 -112 249.9 -250zm-250 -62.5c0 34.5 -28 62.5 -62.4 62.5C278 625 250 597 250 562.5S278 500 312.5 500s62.4 28 62.4 62.4v.1zm62.5 156.3c0 17.2 -14 31.2 -31.2 31.2s-31.3 -14 -31.3 -31.3c0 -17.2 14 -31.2 31.3 -31.2 17.2 .1 31.2 14.1 31.2 31.3z"/></svg>