<svg height="1000" width="1000" xmlns="http://www.w3.org/2000/svg"><path d="M312.5 625C278 625 250 597 250 562.5V125c0 -34.5 28 -62.5 62.5 -62.5V31.3C312.5 14 326.5 0 343.8 0h125C486 0 500 14 500 31.3v31.2c34.5 0 62.5 28 62.5 62.5v437.5c0 34.5 -28 62.5 -62.5 62.5h-23.4v31.3c0 17.2 -14 31.2 -31.3 31.2h-78.1c-17.3 0 -31.3 -14 -31.3 -31.2V625h-23.4zm593.8 250c51.7 0 93.7 42 93.7 93.8 0 17.2 -14 31.2 -31.2 31.2H31.3C14 1000 0 986 0 968.8 0 917 42 875 93.8 875H625c137.9 0 250 -112.1 250 -250S762.9 375 625 375V250c206.8 0 375 168.2 375 375 0 96.1 -36.6 183.6 -96.3 250h2.6zM203.1 812.5c-8.6 0 -15.6 -7 -15.6 -15.6v-31.3c0 -8.6 7 -15.6 15.6 -15.6h406.3c8.6 0 15.6 7 15.6 15.6v31.3c0 8.6 -7 15.6 -15.6 15.6H203.1z"/></svg>