<svg height="1000" width="875" xmlns="http://www.w3.org/2000/svg"><path d="M780 707.5l.3 -.1c-23.5 26.6 -42.5 76.9 -42.5 112.4 0 32 15.8 78.4 35.3 103.8 1 1.2 1.8 3.6 1.8 5.3 0 .5 -.1 1.2 -.2 1.7 -.7 3.8 -4.5 6.9 -8.4 6.9 -.5 0 -1.3 -.1 -1.7 -.2 -63.1 -14 -119.8 -48.5 -156.1 -97.5 -2.3 -3.2 -7.4 -5.7 -11.3 -5.7 -1.3 0 -3.3 .3 -4.5 .7 -41.4 14.5 -110.6 26.3 -154.5 26.3h-.7C197.5 861.1 3 682.4 3 461.8 3 241.2 197.5 62.5 437.5 62.5S872 241.2 872 461.8c0 92.7 -34.4 177.9 -92 245.7zM643.6 414.8c2.8 -2.1 5 -6.5 5 -10 0 -7 -5.6 -12.7 -12.6 -12.7l-140.4 -3L449.4 256.5c-1.6 -4.7 -7 -8.5 -12 -8.5s-10.3 3.8 -12 8.5l-46.2 132.6 -140.4 3c-6.8 .1 -12.4 5.8 -12.4 12.7 0 3.5 2.2 8 5 10.1l111.9 84.9 -40.6 134.5c-.3 1 -.5 2.7 -.5 3.7 0 7 5.7 12.7 12.7 12.7 2.2 0 5.4 -1 7.3 -2.3l115.3 -80.2 115.4 80.2c1.8 1.2 5 2.3 7.2 2.3 7 0 12.7 -5.7 12.7 -12.7 0 -1.1 -.2 -2.7 -.5 -3.7L531.7 499.8z"/></svg>