<svg height="1000" width="1250" xmlns="http://www.w3.org/2000/svg"><path d="M1237.9 894.7c13.7 10.6 16.1 30.3 5.5 43.9l-38.3 49.3c-10.6 13.7 -30.3 16.1 -43.9 5.5L12.1 105.3C-1.6 94.7 -4 75 6.6 61.4L44.9 12.1C55.5 -1.6 75.2 -4 88.8 6.6l348.7 269.5v-88.6C437.5 83.9 521.5 0 625 0c103.6 0 187.5 83.9 187.5 187.5V500c0 20.4 -4.2 39.6 -10.3 58l51.9 40C867.3 568 875 535 875 500v-93.7C875 389 889 375 906.2 375h31.3c17.3 0 31.2 14 31.2 31.3V500c0 56.7 -14.4 109.6 -39 156.5zm-456.6 11.6c17.2 0 31.2 13.9 31.2 31.2v31.3c0 17.2 -14 31.2 -31.2 31.2H468.8c-17.3 0 -31.3 -14 -31.3 -31.2v-31.3c0 -17.3 14 -31.2 31.3 -31.2h109.3v-66.8C406.2 815.8 281.3 659.8 281.3 484.7v-13.4l101.6 78.6c24.3 103.9 108 188.3 217.1 198.9 13.6 1.3 26.7 .4 39.8 -.4l97.8 75.7c-21.1 7.3 -43 13.1 -65.7 16.2v66h109.4z"/></svg>