<svg height="1000" width="687.5" xmlns="http://www.w3.org/2000/svg"><path d="M343.8 687.5C240.2 687.5 156.3 603.6 156.3 500V187.5C156.3 83.9 240.2 0 343.8 0s187.5 83.9 187.5 187.5V500c0 103.6 -84 187.5 -187.5 187.5zM656.3 375c17.2 0 31.2 14 31.2 31.3V500c0 173.6 -129.5 317.3 -296.9 340.3v65.9H500c17.3 0 31.3 14 31.3 31.3v31.2c0 17.3 -14 31.3 -31.3 31.3H187.5c-17.3 0 -31.2 -14 -31.2 -31.3v-31.2c0 -17.3 13.9 -31.3 31.2 -31.3h109.4v-66.7C124.9 815.8 0 659.8 0 484.7v-78.5C0 389 14 375 31.3 375h31.2c17.3 0 31.3 14 31.3 31.2v82.7c0 130.5 95.1 247.2 225 259.9 149 14.5 275 -102.7 275 -248.8v-93.8C593.8 389 607.7 375 625 375h31.3z"/></svg>