<svg height="1000" width="1000" xmlns="http://www.w3.org/2000/svg"><path d="M812.5 93.8v812.5c0 51.7 -42 93.7 -93.7 93.7H281.3c-51.8 0 -93.8 -42 -93.8 -93.7V93.8C187.5 42 229.5 0 281.3 0h437.5c51.7 0 93.7 42 93.7 93.8zM1000 207v23.5c0 6.4 -5.3 11.7 -11.7 11.7h-35.2v11.7c0 6.5 -5.2 11.7 -11.7 11.7h-82v-93.7h82c6.5 0 11.7 5.2 11.7 11.7v11.7h35.2c6.4 0 11.7 5.3 11.7 11.7zm0 187.5V418c0 6.4 -5.3 11.7 -11.7 11.7h-35.2v11.7c0 6.5 -5.2 11.7 -11.7 11.7h-82v-93.7h82c6.5 0 11.7 5.2 11.7 11.7v11.7h35.2c6.4 0 11.7 5.3 11.7 11.7zm0 187.5v23.5c0 6.4 -5.3 11.7 -11.7 11.7h-35.2v11.7c0 6.5 -5.2 11.7 -11.7 11.7h-82v-93.7h82c6.5 0 11.7 5.2 11.7 11.7v11.7h35.2c6.4 0 11.7 5.3 11.7 11.7zm0 187.5V793c0 6.4 -5.3 11.7 -11.7 11.7h-35.2v11.7c0 6.5 -5.2 11.7 -11.7 11.7h-82v-93.7h82c6.5 0 11.7 5.2 11.7 11.7v11.7h35.2c6.4 0 11.7 5.3 11.7 11.7zM58.6 734.4h82v93.7h-82c-6.5 0 -11.7 -5.2 -11.7 -11.7v-11.7H11.7C5.3 804.7 0 799.4 0 793v-23.5c0 -6.4 5.3 -11.7 11.7 -11.7h35.2v-11.7c0 -6.5 5.2 -11.7 11.7 -11.7zm0 -187.5h82v93.7h-82c-6.5 0 -11.7 -5.2 -11.7 -11.7v-11.7H11.7C5.3 617.2 0 611.9 0 605.5V582c0 -6.4 5.3 -11.7 11.7 -11.7h35.2v-11.7c0 -6.5 5.2 -11.7 11.7 -11.7zm0 -187.5h82v93.7h-82c-6.5 0 -11.7 -5.2 -11.7 -11.7v-11.7H11.7C5.3 429.7 0 424.4 0 418v-23.5c0 -6.4 5.3 -11.7 11.7 -11.7h35.2v-11.7c0 -6.5 5.2 -11.7 11.7 -11.7zm0 -187.5h82v93.7h-82c-6.5 0 -11.7 -5.2 -11.7 -11.7v-11.7H11.7C5.3 242.2 0 236.9 0 230.5V207c0 -6.4 5.3 -11.7 11.7 -11.7h35.2v-11.7c0 -6.5 5.2 -11.7 11.7 -11.7z"/></svg>