<svg height="1000" width="1250" xmlns="http://www.w3.org/2000/svg"><path d="M829 429.2c82.7 17.8 145.4 91.9 145.4 180 0 102.2 -83.2 185 -185.5 185H223.3C101.1 794.2 2.1 695.2 2.1 573.5 2.1 462.7 84.3 371.3 190.8 355.6c44.9 -131.9 169.9 -222.8 311 -222.8 170.3 0 310.9 130.3 327.2 296.4zm-40.1 282.2c56.8 0 102.8 -45.9 102.8 -102.2 0 -43.2 -27.6 -80 -65.4 -94.6 -2.7 16.8 -7.1 33.5 -12.5 49.8 -15.6 50 -95.9 27.7 -78.4 -26 8.1 -24.9 12.4 -50.8 12.4 -77.3 0 -135.2 -110.3 -245.5 -246 -245.5 -97.3 0 -185 57.8 -223.9 144.3 37.9 9.8 73 29.2 101.7 57.4 39 38.9 -20 97.9 -59 58.9 -25.9 -26 -60.5 -40.6 -97.3 -40.6C147 435.6 84.9 497.3 84.9 573.5S147 711.4 223.3 711.4h565.6zm459.2 -102.2c0 86 -24.9 168.8 -72.5 239.6 -8.1 11.9 -21.1 18.4 -34.6 18.4 -31.9 0 -53 -36.8 -34.1 -64.4 37.9 -57.3 58.4 -124.3 58.4 -193.6 0 -69.2 -20.5 -136.2 -58.4 -193 -30.6 -44.6 37.8 -92.3 68.7 -46 47.6 70.3 72.5 153.1 72.5 239zm-138.5 0c0 61.7 -17.8 121.2 -52.4 172.5 -8.1 11.9 -21.1 17.9 -34.6 17.9 -33.6 0 -52.8 -37.1 -34.1 -64.4 25.4 -37.3 38.4 -80.5 38.4 -126 0 -44.8 -13 -88.6 -38.4 -126 -30.8 -44.9 37.1 -91.9 68.7 -45.9 34.6 50.8 52.4 110.3 52.4 171.9z"/></svg>