<svg height="1000" width="1000" xmlns="http://www.w3.org/2000/svg"><path d="M223.8 148.6l250.6 336.7c2.5 3.4 4.5 9.6 4.5 13.9s-2 10.5 -4.5 13.9L222.7 851.4c-14.8 19.9 -46.9 36 -71.6 36 -19.2 0 -46.2 -10.5 -60.3 -23.4C56 832.4 53.8 779 81.6 741.4L261.9 498.9 82.6 258.7c-27.8 -37.6 -25 -91 9.3 -122.6 14.1 -13 41.1 -23.5 60.3 -23.5 24.7 0 56.8 16.1 71.6 36zm694.6 592.8c27.8 37.6 25.6 91 -9.2 122.6 -14.1 12.9 -41.1 23.4 -60.3 23.4 -24.7 0 -56.8 -16.1 -71.6 -36L526.2 512.6c-2.5 -3.5 -4.5 -9.7 -4.5 -13.9 0 -4.3 2 -10.5 4.5 -13.9l250 -336.2c14.8 -19.8 46.9 -35.9 71.6 -35.9 19.2 0 46.2 10.5 60.3 23.4 34.3 31.6 37 85 9.3 122.6L738.1 498.9z"/></svg>