<svg height="1000" width="1250" xmlns="http://www.w3.org/2000/svg"><path d="M1187.5 125c34.5 0 62.5 28 62.5 62.5v625c0 34.5 -28 62.5 -62.5 62.5H62.5C28 875 0 847 0 812.5v-625C0 153 28 125 62.5 125h1125zM93.8 781.3h125c0 -69.1 -56 -125 -125 -125v125zm0 -437.5c69 0 125 -56 125 -125h-125v125zM625 687.5c86.3 0 156.3 -83.9 156.3 -187.5S711.3 312.5 625 312.5 468.8 396.4 468.8 500c0 103.5 69.9 187.5 156.2 187.5zm531.3 93.8v-125c-69.1 0 -125 55.9 -125 125h125zm0 -437.5v-125h-125c0 69 55.9 125 125 125z"/></svg>