<svg height="1000" width="1250" xmlns="http://www.w3.org/2000/svg"><path d="M1213.2 106.4c22.7 9.5 36.8 32.8 36.8 57.5v619.7c0 36.1 -29.4 62.1 -63 62.1 -6.6 0 -13.4 -1 -20.2 -3.2 -60.3 -19.1 -120.6 -26.8 -180.9 -26.8 -240.6 0 -481.2 121.8 -721.7 121.8 -75.8 0 -151.6 -12.1 -227.4 -43.9C14.1 884.1 0 860.7 0 836.1V216.4c0 -36.1 29.4 -62.1 63 -62.1 6.6 0 13.4 1 20.2 3.2 60.3 19.1 120.6 26.8 181 26.8 240.5 0 481.1 -121.8 721.6 -121.8 75.8 0 151.6 12.1 227.4 43.9zM93.8 258.2v118.1c60.5 0 111 -43.2 122.4 -100.6C174.1 273 133 268.1 93.8 258.2zm0 556.7c39.2 14.3 80.4 23 124.4 26.6C215.2 774.8 160.9 721.6 93.8 721.6v93.3zM625 687.5c86.3 0 156.3 -83.9 156.3 -187.5S711.3 312.5 625 312.5 468.8 396.4 468.8 500c0 103.5 69.9 187.5 156.2 187.5zm531.3 54.3V629c-52.4 6.7 -94.7 45.3 -106.1 96.3 36.3 3.1 71.8 7.9 106.1 16.5zm0 -461.2v-95.5c-34.7 -12.5 -70.9 -20.5 -109.1 -24.7 1.9 62.2 48.7 112.6 109.1 120.2z"/></svg>