<svg height="1000" width="1250" xmlns="http://www.w3.org/2000/svg"><path d="M1187.5 62.5c34.5 0 62.5 28 62.5 62.5v750c0 34.5 -28 62.5 -62.5 62.5H62.5C28 937.5 0 909.5 0 875V125C0 90.5 28 62.5 62.5 62.5h1125zM343.8 640.4c46.1 -1.2 83.3 -40.1 83.3 -88 0 -39 -25.4 -73.9 -61.7 -84.8l-87.9 -26.3C267.4 438.2 260.4 428 260.4 416.4c0 -14.2 10.3 -25.8 23 -25.8h54.9c8.9 0 17.5 2.5 25.1 7.3 6.3 4 14.4 3.7 19.8 -1.4l22.9 -21.9c6.9 -6.6 6.5 -18 -1.1 -23.7a111.187 111.187 0 0 0 -61.3 -22.2v-31.8c0 -8.7 -7 -15.6 -15.6 -15.6h-31.2c-8.7 0 -15.7 6.9 -15.7 15.6v31.5c-46.1 1.2 -83.3 40.1 -83.3 88 0 39 25.4 73.8 61.7 84.7l87.9 26.4c10 3 17.1 13.2 17.1 24.9 0 14.2 -10.4 25.7 -23.1 25.7h-54.9c-8.9 0 -17.4 -2.5 -25 -7.2 -6.3 -4 -14.4 -3.8 -19.8 1.4l-22.9 21.9c-6.9 6.6 -6.5 18 1.1 23.7 17.8 13.3 39.2 21 61.2 22.2v31.8c0 8.6 7 15.6 15.7 15.6h31.2c8.7 0 15.6 -7 15.6 -15.6v-31.5zm468.7 -31v-31.3c0 -8.6 -7 -15.6 -15.6 -15.6H578.1c-8.6 0 -15.6 7 -15.6 15.6v31.3c0 8.6 7 15.6 15.6 15.6h218.8c8.6 0 15.6 -7 15.6 -15.6zm312.5 0v-31.3c0 -8.6 -7 -15.6 -15.6 -15.6H953.1c-8.6 0 -15.6 7 -15.6 15.6v31.3c0 8.6 7 15.6 15.6 15.6h156.3c8.6 0 15.6 -7 15.6 -15.6zm0 -187.5v-31.3c0 -8.6 -7 -15.6 -15.6 -15.6H578.1c-8.6 0 -15.6 7 -15.6 15.6v31.3c0 8.6 7 15.6 15.6 15.6h531.3c8.6 0 15.6 -7 15.6 -15.6z"/></svg>