<svg height="1000" width="1250" xmlns="http://www.w3.org/2000/svg"><path d="M0 875V250h1250v625c0 34.5 -28 62.5 -62.5 62.5H62.5C28 937.5 0 909.5 0 875zM875 468.8v62.5c0 17.2 14 31.2 31.3 31.2h187.5c17.2 0 31.2 -14 31.2 -31.2v-62.5c0 -17.3 -14 -31.3 -31.2 -31.3H906.3c-17.3 0 -31.3 14 -31.3 31.3zm0 234.3v31.3c0 8.6 7 15.6 15.6 15.6h218.8c8.6 0 15.6 -7 15.6 -15.6v-31.3c0 -8.6 -7 -15.6 -15.6 -15.6H890.6c-8.6 0 -15.6 7 -15.6 15.6zM125 515.6v31.3c0 8.6 7 15.6 15.6 15.6h593.8c8.6 0 15.6 -7 15.6 -15.6v-31.3C750 507 743 500 734.4 500H140.6c-8.6 0 -15.6 7 -15.6 15.6zm0 187.5v31.3c0 8.6 7 15.6 15.6 15.6h343.8c8.6 0 15.6 -7 15.6 -15.6v-31.3c0 -8.6 -7 -15.6 -15.6 -15.6H140.6c-8.6 0 -15.6 7 -15.6 15.6zM1218.8 62.5c17.2 0 31.2 14 31.2 31.3v93.7H0V93.8C0 76.5 14 62.5 31.3 62.5h1187.5z"/></svg>