<svg height="1000" width="1250" xmlns="http://www.w3.org/2000/svg"><path d="M687.5 562.5c8.6 0 15.6 7 15.6 15.6v31.3c0 8.6 -7 15.6 -15.6 15.6h-125c-8.6 0 -15.6 -7 -15.6 -15.6v-31.3c0 -8.6 7 -15.6 15.6 -15.6h31.3V454.2l-1 .6c-2.1 1.5 -6 2.6 -8.6 2.6 -4.6 0 -10.5 -3.1 -13 -6.9l-17.4 -26c-1.4 -2.2 -2.6 -6.1 -2.6 -8.7 0 -4.6 3.1 -10.4 7 -13l29.9 -19.9c7.7 -5.2 16.7 -7.9 26 -7.9h26.5c8.7 0 15.7 7 15.7 15.6v171.9h31.2zm500 -437.5c34.5 0 62.5 28 62.5 62.5v625c0 34.5 -28 62.5 -62.5 62.5H62.5C28 875 0 847 0 812.5v-625C0 153 28 125 62.5 125h1125zM93.8 781.3h125c0 -69.1 -56 -125 -125 -125v125zm0 -437.5c69 0 125 -56 125 -125h-125v125zm531.2 375c103.5 0 187.5 -98 187.5 -218.8C812.5 379.2 728.6 281.3 625 281.3S437.5 379.2 437.5 500c0 120.8 83.9 218.8 187.5 218.8zm531.3 62.5v-125c-69.1 0 -125 55.9 -125 125h125zm0 -437.5v-125h-125c0 69 55.9 125 125 125z"/></svg>