<svg height="1000" width="1000" xmlns="http://www.w3.org/2000/svg"><path d="M979.6 119L786.1 312.5H490.4L888.5 13.9C898.7 6.3 917.5 0 930.3 0c9.1 0 23 3.3 31.2 7.4 42.5 21.2 51.7 77.9 18.1 111.6zm-10.8 256c17.2 0 31.2 14 31.2 31.3v62.5c0 17.2 -14 31.2 -31.2 31.2h-31.3c0 158.2 -98 293.2 -236.6 348.3 25 32.9 42.5 71.9 48.7 114.6 2.9 19.4 -11.7 37.1 -31.3 37.1H281.7c-19.6 0 -34.2 -17.7 -31.3 -37.1 6.3 -42.7 23.8 -81.7 48.7 -114.6C160.5 793.2 62.5 658.2 62.5 500H31.2C14 500 0 486 0 468.8v-62.5C0 389 14 375 31.2 375h937.5z"/></svg>