<svg height="1000" width="1250" xmlns="http://www.w3.org/2000/svg"><path d="M0 937.5v-625h250v625c0 34.5 -28 62.5 -62.5 62.5h-125C28 1000 0 972 0 937.5zm1131.2 -375H431.3C396.4 528.5 375 489.6 375 447.4c0 -103.2 81.6 -183.1 171.7 -240C628.7 155.7 704.2 94.6 765.4 19.5L781.3 0l15.8 19.5c61.2 75.1 136.8 136.2 218.7 187.9 90.1 56.9 171.7 136.8 171.7 240 0 42.2 -21.4 81.1 -56.3 115.1zm56.3 62.5c34.5 0 62.5 28 62.5 62.5v250c0 34.5 -28 62.5 -62.5 62.5H1125V875c0 -34.5 -28 -62.5 -62.5 -62.5s-62.5 28 -62.5 62.5v125H875V859.4c0 -93.8 -93.7 -140.6 -93.7 -140.6s-93.8 46.8 -93.8 140.6V1000h-125V875c0 -34.5 -28 -62.5 -62.5 -62.5s-62.5 28 -62.5 62.5v125H375c-34.5 0 -62.5 -28 -62.5 -62.5v-250c0 -34.5 28 -62.5 62.5 -62.5h812.5zM125 0s125 62.5 125 187.5V250H0v-62.5C0 62.5 125 0 125 0z"/></svg>