<svg height="1000" width="1250" xmlns="http://www.w3.org/2000/svg"><path d="M1001.8 375c135.9 1 247 111.9 248.4 247.9 1.2 139.8 -112.5 253.5 -252.3 252.1C861.9 873.8 751.2 762.7 750.2 626.8 749.6 550 783.8 481.3 837.7 435l-24.4 -40.7C737.7 455.5 699.4 546.5 703.5 638.5c1.2 26.7 -20.1 49 -46.9 49H492.2C464.3 795.3 366.4 875 250 875 110 875 -3.1 760 0 619.1 3.1 487.5 109.2 379.9 240.6 375.2c28.1 -1 55.3 2.5 80.7 10.2l22.1 -40.1C325.6 318.2 297.8 296.9 250 296.9H140.6C115 296.9 94.1 276.4 93.7 251c-.5 -26.4 21.5 -47.9 47.9 -47.9H250c107.4 0 160.5 33 195.1 78.2h300.2l-37.5 -62.5H578.1c-17.2 0 -31.2 -14.1 -31.2 -31.3v-31.2c0 -17.2 14 -31.3 31.2 -31.3h156.3c16.4 0 31.6 8.6 40.2 22.7l44.5 74.2 73.3 -81.5c8.8 -9.7 21.5 -15.4 34.7 -15.4h88.5c26 0 46.9 20.9 46.9 46.9v62.5c0 26 -20.9 46.9 -46.9 46.9H854.7l64.2 107.2c26 -9 53.8 -13.7 82.9 -13.5zM250 781.3c63.9 0 118.9 -38.7 143.2 -93.8H234.4c-35.6 0 -58.2 -38.3 -41 -69.5l81 -147.3c-8 -1.4 -16.2 -1.9 -24.4 -1.9C163.9 468.8 93.8 538.9 93.8 625S163.9 781.3 250 781.3zm906.1 -147.7c4.6 -90 -67 -164.9 -156.1 -164.7 -10.5 0 -20.9 1 -31.1 3.2l95 158c8.8 14.8 4.1 34.2 -10.8 42.9l-26.7 16.1c-14.9 8.8 -34.2 4.1 -43 -10.8L886.9 517.4c-26.7 27.9 -43.2 65.8 -43.2 107.6 0 89.1 74.9 160.9 164.9 156.1 79.1 -4.1 143.2 -68.2 147.5 -147.5z"/></svg>