<svg height="1000" width="1000" xmlns="http://www.w3.org/2000/svg"><path d="M248.2 286.1C243 253.7 227.9 223.8 204.5 200 160.4 154.9 132.8 97.5 125.2 35.2 123 16.6 137.9 0 157 0h32.1c16 0 29.3 11.5 31.4 27 5.5 39.4 23.4 75.7 51.6 104.4 39.4 40.1 64 90.9 71.5 145.9 2.5 18.6 -12.7 35.2 -31.9 35.2h-32.2c-15.6 0 -28.7 -11.3 -31.3 -26.4zm218.8 0C461.7 253.7 446.7 223.8 423.2 200 379.1 154.9 351.6 97.5 343.9 35.2 341.6 16.6 356.6 0 375.8 0h32c16 0 29.3 11.5 31.5 27 5.4 39.4 23.4 75.7 51.5 104.4 39.5 40.1 64.1 90.9 71.5 145.9 2.5 18.6 -12.7 35.2 -31.8 35.2h-32.3c-15.6 0 -28.7 -11.3 -31.2 -26.4zM781.3 375C902 375 1000 473 1000 593.8S902 812.5 781.3 812.5H750C750 916 666 1000 562.5 1000h-375C84 1000 0 916 0 812.5v-375C0 402.9 27.9 375 62.5 375h718.8zm0 312.5c51.7 0 93.7 -42 93.7 -93.7S833 500 781.3 500H750v187.5h31.3z"/></svg>