<svg height="1000" width="968.8" xmlns="http://www.w3.org/2000/svg"><path d="M582.6 729.7c-27.7 26.6 -61.1 47.1 -98.4 59.6 -37.1 -12.5 -70.7 -33 -98.3 -59.6h196.7zm86 -389.9c-110.2 -77.7 -258.1 -77.9 -369 .2C260.7 307.2 214.5 282.4 163.9 268.9v315.7c0 424.4 640.6 427.9 640.6 -.6V269.1c-50.8 13.7 -96.9 37.7 -135.9 70.7zM260.7 225.6c12.7 6.2 27.6 14.4 39.9 22.3 114.6 -59.6 252.3 -59.8 367 -.2 13.1 -8.2 26.3 -15.7 40.2 -22.5 -126.2 -117 -321.3 -116.8 -447.1 .4zM85.5 182c34.2 1 67 6.1 98.9 14.7C344.5 17.8 624.8 17.8 785 196.5c31.4 -8.6 64 -13.5 97.8 -14.5v135.2c114.7 71.3 114.3 238.1 -.4 309l-.6 3.3c-50.6 466.4 -744.5 475.8 -796.1 -2.9C-28.5 553.9 -28.5 388.7 85.5 317.4V182zm420.8 505.5C531.8 571.7 571.7 578.1 727 579.3c-1.6 16 .1 63.1 -51.2 92.6 -8.6 4.9 -29.9 11.7 -49.8 12.7 -49.4 2.3 -119.7 2.9 -119.7 2.9zm-264.7 -108c154.9 -1.4 194.9 -7.8 220.7 108.2 0 0 -70.3 -.8 -119.7 -2.9 -20.1 -1 -41.2 -7.8 -49.8 -12.7 -51.4 -29.5 -49.6 -76.6 -51.2 -92.6zm330.3 241c5.8 9.6 6.2 17.2 6.4 17.4 -56.8 34.4 -131 34.4 -187.9 0 0 0 1.8 -10.8 7.3 -18.8 6.8 -9.9 12.5 -12.9 12.5 -12.9 46.2 13.5 99.8 14.3 148.2 0 0 0 7.2 4 13.5 14.3z"/></svg>