<svg height="1000" width="1250" xmlns="http://www.w3.org/2000/svg"><path d="M1250 515.6c0 17.3 -14 31.3 -31.2 31.3h-203.2V625H1125c34.5 0 62.5 28 62.5 62.5v250c0 34.5 -28 62.5 -62.5 62.5H812.5C778 1000 750 972 750 937.5v-250C750 653 778 625 812.5 625h109.4v-78.1H328.1V625h109.4c34.5 0 62.5 28 62.5 62.5v250c0 34.5 -28 62.5 -62.5 62.5H125c-34.5 0 -62.5 -28 -62.5 -62.5v-250C62.5 653 90.5 625 125 625h109.4v-78.1H31.3C14 546.9 0 532.9 0 515.6v-31.2c0 -17.3 14 -31.3 31.3 -31.3h546.8V375H437.5C403 375 375 347 375 312.5v-250C375 28 403 0 437.5 0h375C847 0 875 28 875 62.5v250C875 347 847 375 812.5 375H671.9v78.1h546.9c17.2 0 31.2 14 31.2 31.3v31.2zM500 250h250V125H500v125zM375 875V750H187.5v125H375zm687.5 0V750H875v125h187.5z"/></svg>