<svg height="1000" width="1125" xmlns="http://www.w3.org/2000/svg"><path d="M1078.1 125c25.9 0 46.9 21 46.9 46.9v609.4c0 51.7 -42 93.7 -93.7 93.7H109.4C49 875 0 826 0 765.6V234.4c0 -25.9 21 -46.9 46.9 -46.9H125v-15.6C125 146 146 125 171.9 125h906.2zM109.4 781.3c8.6 0 15.6 -7 15.6 -15.7V281.3H93.8v484.3c0 8.7 6.9 15.7 15.6 15.7zM570.3 750c13 0 23.5 -10.5 23.5 -23.4v-15.7c0 -12.9 -10.5 -23.4 -23.5 -23.4H273.4c-12.9 0 -23.4 10.5 -23.4 23.4v15.7c0 12.9 10.5 23.4 23.4 23.4h296.9zm406.3 0c12.9 0 23.4 -10.5 23.4 -23.4v-15.7c0 -12.9 -10.5 -23.4 -23.4 -23.4H679.7c-13 0 -23.4 10.5 -23.4 23.4v15.7c0 12.9 10.4 23.4 23.4 23.4h296.9zM570.3 562.5c13 0 23.5 -10.5 23.5 -23.4v-15.7c0 -12.9 -10.5 -23.4 -23.5 -23.4H273.4c-12.9 0 -23.4 10.5 -23.4 23.4v15.7c0 12.9 10.5 23.4 23.4 23.4h296.9zm406.3 0c12.9 0 23.4 -10.5 23.4 -23.4v-15.7C1000 510.5 989.5 500 976.6 500H679.7c-13 0 -23.4 10.5 -23.4 23.4v15.7c0 12.9 10.4 23.4 23.4 23.4h296.9zm0 -187.5c12.9 0 23.4 -10.5 23.4 -23.4v-78.2C1000 260.5 989.5 250 976.6 250H273.4c-12.9 0 -23.4 10.5 -23.4 23.4v78.2c0 12.9 10.5 23.4 23.4 23.4h703.2z"/></svg>