<svg height="1000" width="750" xmlns="http://www.w3.org/2000/svg"><path d="M481.6 584.6c30.5 0 53.1 22.3 53.1 52.7S512 690 481.6 690c-30.6 0 -53 -22.6 -53 -52.7s22.6 -52.7 53 -52.7zm-260.9 52.6c0 -30.5 22.8 -52.7 53 -52.7s53.1 22.4 53.1 52.7 -22.4 52.7 -53.1 52.7c-30.1 0 -53 -22 -53 -52.7zM374.5 310.5c192.2 0 347.2 154.2 347.2 344.7 0 190.6 -155.5 344.8 -347.2 344.8S27.3 846 27.3 655.2V0l88.4 443.4c59 -94.2 190.9 -132.9 258.8 -132.9zm0 601.8c143.1 0 258.8 -115.1 258.8 -257.1C633.3 513.3 517.6 398.3 374.5 398.3c-143.1 0 -258.8 115.1 -258.8 257 0 142 115.7 257 258.8 257z"/></svg>