<svg height="1000" width="1250" xmlns="http://www.w3.org/2000/svg"><path d="M617.8 882.8c-4.1 0 -8.2 -1.2 -11.9 -3.1l-37.5 -22.3c-5.7 -3.1 -3 -4.3 -1 -4.9 7.4 -2.5 9 -3.1 17 -7.8 .8 -.4 1.9 -.2 2.7 .2l28.9 17.2c1 .6 2.6 .6 3.5 0l112.9 -65.2c1 -.6 1.8 -1.8 1.8 -3.1V663.5c0 -1.4 -.6 -2.6 -1.8 -3.1L619.5 595.3c-.9 -.6 -2.3 -.6 -3.5 0l-112.9 65.1c-1.1 .5 -1.7 1.9 -1.7 3.1v130.3c0 1.1 .7 2.3 1.7 2.9l30.9 17.8c16.8 8.4 27.1 -1.6 27.1 -11.4V674.4c0 -1.7 1.4 -3.3 3.4 -3.3h14.2c1.8 0 3.3 1.4 3.3 3.3v128.7c0 22.5 -12.1 35.2 -33.4 35.2 -6.4 0 -11.7 0 -25.9 -7.1L493 814.3c-7.3 -4.3 -11.9 -12.2 -11.9 -20.5V663.5c0 -8.4 4.4 -16.4 11.9 -20.5l112.9 -65.3c7.2 -4.1 16.6 -4.1 23.6 0L742.4 643c7.2 4.3 11.9 12.1 11.9 20.5v130.3c0 8.3 -4.5 16.4 -11.9 20.5l-112.9 65.2c-3.3 2.1 -7.4 3.3 -11.7 3.3zM709 754.3c0 24.6 -20.5 38.7 -56.7 38.7 -49.4 0 -59.7 -22.7 -59.7 -41.6 0 -2 1.5 -3.4 3.3 -3.4h14.6c1.8 0 3.2 1.2 3.4 2.8 2.1 14.8 8.8 22.2 38.6 22.2 23.9 0 34 -5.2 34 -17.9 0 -7.2 -2.9 -12.5 -39.8 -16.2 -30.9 -3.2 -50 -9.8 -50 -34.6 0 -22.7 19.1 -36.3 51.3 -36.3 36.2 0 54 12.5 56.3 39.4 .2 1 -.2 1.8 -.8 2.6 -.6 .5 -1.4 .9 -2.3 .9h-14.7c-1.5 0 -2.7 -.9 -3.1 -2.5C679.9 692.8 671.3 687.7 648 687.7c-25.9 0 -28.9 9 -28.9 15.8 0 8.2 3.6 10.6 38.7 15.2 34.8 4.7 51.2 11.2 51.2 35.6zm106.4 -97.9c0 12 -9.7 21.7 -21.6 21.7 -12 0 -21.7 -9.7 -21.7 -21.7 0 -12.3 10.1 -21.6 21.7 -21.6 11.7 -.2 21.6 9.3 21.6 21.6zm-3.5 0c0 -10.1 -8.2 -18.1 -18.3 -18.1 -10 0 -18.2 8 -18.2 18.1 0 10.2 8.2 18.4 18.2 18.4 10.1 -.2 18.3 -8.4 18.3 -18.4zm-8.8 12.2H798c-.1 -1.2 -.9 -7.5 -.9 -7.7 -.4 -1.3 -.8 -2.1 -2.6 -2.1h-4.3v9.8h-4.7v-24.5h8.4c3 0 8.6 0 8.6 6.5 0 4.5 -2.9 5.5 -4.6 6 3.3 .2 3.5 2.4 4.1 5.5 .1 2 .5 5.3 1.1 6.5zm-5.4 -17.2c0 -3.4 -2.4 -3.4 -3.6 -3.4h-3.9v6.9h3.7c3.2 0 3.8 -2.2 3.8 -3.5zM268.2 373l-.4 185.6c0 2.5 -1.4 5.1 -3.5 6.2 -2.2 1.4 -5.1 1.4 -7.3 0L185.9 524c-4.5 -2.5 -7.2 -7.4 -7.2 -12.5v-86.7c0 -5.1 -2.7 -10 -7.2 -12.5l-30.3 -17.4c-2.1 -1.3 -4.7 -1.9 -7.2 -1.9 -2.6 0 -4.9 .6 -7.2 1.9l-30.3 17.4c-4.5 2.5 -7.2 7.4 -7.2 12.5v86.7c0 5.1 -2.8 9.8 -7.3 12.5l-71.1 40.8c-2.3 1.4 -5 1.4 -7.2 0C1.6 563.5 .2 561.1 .2 558.6L0 373c0 -5 2.7 -9.9 7.2 -12.5l119.6 -68.9c2.1 -1.2 4.3 -2 6.6 -2h1.2c2.3 .2 4.7 .8 6.6 2l119.7 68.9c4.5 2.6 7.3 7.3 7.3 12.5zM922.9 170.5V515c0 5.1 -2.8 10 -7.3 12.5l-119.7 69.2c-4.5 2.5 -10 2.5 -14.5 0L661.7 527.5c-4.5 -2.5 -7.2 -7.4 -7.2 -12.5V376.8c0 -5.1 2.7 -10 7.2 -12.5l119.7 -69.2c4.5 -2.5 10 -2.5 14.5 0l29.9 17.2c3.3 2 7.6 -.6 7.6 -4.3V124.4c0 -5.5 5.9 -9 10.7 -6.2l71.3 39.8c4.5 2.4 7.5 7.2 7.5 12.5zM833 422.3c0 -1.4 -.8 -2.6 -1.8 -3.2l-41 -23.8c-1.1 -.6 -2.5 -.6 -3.7 0l-41 23.8c-1.2 .6 -1.8 1.8 -1.8 3.2v47.4c0 1.4 .8 2.6 1.8 3.2l41 23.6c1.2 .6 2.6 .6 3.5 0l41.1 -23.6c1.1 -.6 1.7 -1.8 1.7 -3.2v-47.4h.2zm409.8 -1.4l-71.7 41.6c-4.9 2.7 -10.9 -.8 -10.9 -6.3v-33.9c0 -2.6 -1.6 -4.9 -3.8 -6.3l-37.5 -21.7c-2.1 -1.3 -5 -1.3 -7.2 0l-37.5 21.7c-2.3 1.4 -3.7 3.7 -3.7 6.3v43.3c0 2.6 1.4 4.9 3.7 6.3l120.5 69.1c4.9 2.8 4.9 9.8 0 12.5l-71.8 40.1c-4.5 2.5 -10 2.5 -14.3 0l-119 -67.8c-4.4 -2.6 -7.2 -7.2 -7.2 -12.5V375c0 -5.1 2.8 -10 7.2 -12.5l119.8 -69.1c4.5 -2.6 9.9 -2.6 14.4 0l119 69.1c4.5 2.5 7.2 7.4 7.2 12.5v33.4c0 5.1 -2.7 10 -7.2 12.5zm-151 6.8l23 -13.2c.8 -.6 2 -.6 2.8 0l23 13.2c.8 .4 1.4 1.4 1.4 2.4v26.5c0 1 -.6 1.8 -1.4 2.4l-23 13.3c-.8 .6 -2 .6 -2.8 0l-23 -13.3c-.8 -.4 -1.4 -1.4 -1.4 -2.4v-26.5c0 -1 .6 -1.8 1.4 -2.4zm-496.5 85c0 1.2 -.2 2.3 -.4 3.3 -1 3.9 -3.5 7.2 -7 9.2l-119.1 68.7c-4.3 2.6 -9.8 2.8 -14.5 0L334.8 525.2c-4.1 -2.3 -7.8 -7 -7.8 -12.5V375.2c0 -5.3 3.1 -10 7.6 -12.5l119.3 -68.8c4.7 -2.7 10.4 -2.3 14.5 0l119.3 68.8c4.5 2.5 7.6 7.4 7.6 12.5v137.5zM450.2 268.8l-1.6 .9h2.2zM599 523l-.8 -1.3v1.7z"/></svg>