<svg height="1000" width="875" xmlns="http://www.w3.org/2000/svg"><path d="M812.5 406.3H620.3L474.7 593.8h337.8c34.5 0 62.5 27.9 62.5 62.5v62.5c0 34.5 -28 62.5 -62.5 62.5H329.1L168.8 987.8c-10.5 13.6 -30.1 16.3 -43.8 5.8L75.4 955.5C61.7 945 59.1 925.4 69.6 911.7L170.9 781.2H62.5C28 781.2 0 753.3 0 718.7v-62.5c0 -34.5 28 -62.5 62.5 -62.5h254L462 406.2H62.5C28 406.2 0 378.3 0 343.7v-62.5c0 -34.5 28 -62.5 62.5 -62.5h545.1L767.9 12.2C778.4 -1.4 798 -4.1 811.7 6.4l49.7 38.1c13.7 10.4 16.3 30.1 5.8 43.8L765.9 218.7h46.6c34.5 0 62.5 28 62.5 62.5v62.5c0 34.6 -28 62.5 -62.5 62.5z"/></svg>