<svg height="1000" width="1250" xmlns="http://www.w3.org/2000/svg"><path d="M365.4 312.3h87.7L358.4 625H247.3L148.4 417 87.7 625H0L95.7 312.3h96.5l106.4 222.1zm883.8 -1.8c9 55.9 -70.5 87.4 -128.3 98.9h-.2c34.2 57.2 43.2 135.3 6.6 206 -51.5 100 -168.9 156.1 -263.8 132.8C806.1 734.2 763.1 691.6 752.5 632c-1.3 -6.8 -1.9 -13.8 -2.3 -21.1 -10.7 5.5 -23.2 8.2 -36.1 9.6C683.6 623.8 673 625 399.8 625l22.7 -77.1h247.6c17.8 0 23.8 -6.3 27 -14.5 3.3 -9 6.6 -19.9 8.8 -28.5 2.1 -7.6 .2 -12.9 -15.1 -12.9H520.3c-65.2 0 -74.6 -18 -64 -55.9 6.2 -22.4 21 -72.6 34.3 -92 13.9 -19.9 35.8 -26.7 59.8 -29.3 30.5 -3.3 39.8 -2.3 312.7 -2.3l-19 61.5H583.4c-10.7 0 -21.9 1.4 -26 13.9 -3.5 10.5 -4.1 13.1 -7.2 23.8 -2.7 10 4.3 14.5 22.5 14.5h171.1c39.8 0 60.5 13.3 66.4 32.4 38.8 -41.8 98.4 -77.2 183.9 -94.1v-.2C968 281.2 1079.9 234.2 1167 249.4c35.5 6.3 76.6 26 82.2 61.1zM1036.5 515c6.1 -30.8 -1 -65.8 -14 -93.3 -45.5 5.6 -102.2 19.7 -133.8 52.5 -47.7 49.4 -32.8 117.2 27.5 126.6C965 608.4 1025 572.7 1036.5 515zm42.6 -162.3c20.7 -2.9 45.9 -6.8 66.8 -18.7 28.9 -16.6 20.3 -41 -9.6 -47.7 -21.3 -4.7 -49 1 -62.1 15.1 -14.2 15.2 -3.3 39.6 4.9 51.3z"/></svg>