<svg height="1000" width="781.3" xmlns="http://www.w3.org/2000/svg"><path d="M171.9 15.8s260.5 -16 236.3 203.9c0 0 37.3 -146.3 201.2 -79.3 0 0 -34.6 144.6 -171.9 109.4 0 0 28.5 -106.6 129.1 -110.5 0 0 -77.9 -20.2 -160.3 95.3 0 0 -38.7 -184.6 -182.9 -194.8 0 0 146.9 37.9 151.6 210 0 .2 -207.8 13.7 -203.1 -234zm609.4 616.4c0 94.8 -19 186.2 -62.5 258.4C636.3 951 513.7 984.4 390.6 984.4 267.8 984.4 144.9 951 62.5 890.6 18.9 818.4 0 727 0 632.2 0 537.7 34.6 447.3 78.1 375c82.4 -60.4 189.7 -94.9 312.5 -94.9 123.1 0 230.1 34.4 312.5 94.9 43.6 72.3 78.2 162.7 78.2 257.2zM234.4 835.9c0 -30.2 -24.4 -54.6 -54.7 -54.6S125 805.7 125 835.9s24.4 54.7 54.7 54.7 54.7 -24.4 54.7 -54.7zm0 -129.3C234.4 676.4 210 652 179.7 652S125 676.4 125 706.6s24.4 54.7 54.7 54.7 54.7 -24.4 54.7 -54.7zm0 -129.3c0 -30.2 -24.4 -54.6 -54.7 -54.6S125 547.1 125 577.3s24.4 54.7 54.7 54.7 54.7 -24.4 54.7 -54.7zM375 835.9c0 -30.2 -24.4 -54.6 -54.7 -54.6s-54.7 24.4 -54.7 54.6 24.4 54.7 54.7 54.7S375 866.2 375 835.9zm0 -129.3C375 676.4 350.6 652 320.3 652s-54.7 24.4 -54.7 54.6 24.4 54.7 54.7 54.7S375 736.9 375 706.6zm0 -129.3c0 -30.2 -24.4 -54.6 -54.7 -54.6s-54.7 24.4 -54.7 54.6S290 632 320.3 632 375 607.6 375 577.3zm140.6 258.6c0 -30.2 -24.4 -54.6 -54.7 -54.6s-54.6 24.4 -54.6 54.6 24.4 54.7 54.6 54.7 54.7 -24.4 54.7 -54.7zm0 -129.3c0 -30.2 -24.4 -54.6 -54.7 -54.6s-54.6 24.4 -54.6 54.6 24.4 54.7 54.6 54.7 54.7 -24.4 54.7 -54.7zm0 -129.3c0 -30.2 -24.4 -54.6 -54.7 -54.6s-54.6 24.4 -54.6 54.6 24.4 54.7 54.6 54.7 54.7 -24.4 54.7 -54.7zm140.7 258.6c0 -30.2 -24.5 -54.6 -54.7 -54.6s-54.7 24.4 -54.7 54.6 24.4 54.7 54.7 54.7 54.7 -24.4 54.7 -54.7zm0 -129.3c0 -30.2 -24.5 -54.6 -54.7 -54.6s-54.7 24.4 -54.7 54.6 24.4 54.7 54.7 54.7 54.7 -24.4 54.7 -54.7zm0 -129.3c0 -30.2 -24.5 -54.6 -54.7 -54.6s-54.7 24.4 -54.7 54.6 24.4 54.7 54.7 54.7 54.7 -24.4 54.7 -54.7zM703.1 500c-9.3 -43.6 -14.4 -72.1 -31.2 -109.4C596.1 351.8 495.1 328.1 390.6 328.1s-205.4 23.7 -281.2 62.5C92.2 428.7 87.5 456.8 78.1 500c82.4 -15.4 192.8 -28.9 312.5 -28.9s230.1 13.5 312.5 28.9z"/></svg>