<svg height="1000" width="1125" xmlns="http://www.w3.org/2000/svg"><path d="M125 625v50.8c0 6.4 -5.3 11.7 -11.7 11.7H11.7C5.3 687.5 0 682.2 0 675.8V574.2c0 -6.4 5.3 -11.7 11.7 -11.7h50.8v-375H11.7C5.3 187.5 0 182.2 0 175.8V74.2C0 67.8 5.3 62.5 11.7 62.5h101.6c6.4 0 11.7 5.3 11.7 11.7V125h562.5V74.2c0 -6.4 5.3 -11.7 11.7 -11.7h101.6c6.4 0 11.7 5.3 11.7 11.7v101.6c0 6.4 -5.3 11.7 -11.7 11.7H750v375h50.8c6.4 0 11.7 5.3 11.7 11.7v101.6c0 6.4 -5.3 11.7 -11.7 11.7H699.2c-6.4 0 -11.7 -5.3 -11.7 -11.7V625H125zm937.5 -125v312.5h50.8c6.4 0 11.7 5.3 11.7 11.7v101.6c0 6.4 -5.3 11.7 -11.7 11.7h-101.6c-6.4 0 -11.7 -5.3 -11.7 -11.7V875H437.5v50.8c0 6.4 -5.3 11.7 -11.7 11.7H324.2c-6.4 0 -11.7 -5.3 -11.7 -11.7V824.2c0 -6.4 5.3 -11.7 11.7 -11.7H375V671.9h265.6v15.6c0 25.9 21 46.9 46.9 46.9h125c25.9 0 46.9 -21 46.9 -46.9v-125c0 -25.9 -21 -46.9 -46.9 -46.9h-15.6V375H1000v-50.8c0 -6.4 5.3 -11.7 11.7 -11.7h101.6c6.4 0 11.7 5.3 11.7 11.7v101.6c0 6.4 -5.3 11.7 -11.7 11.7h-50.8V500z"/></svg>