<svg height="1000" width="1000" xmlns="http://www.w3.org/2000/svg"><path d="M937.5 250v562.5h39.1c12.9 0 23.4 10.5 23.4 23.4v78.2c0 12.9 -10.5 23.4 -23.4 23.4h-78.2C885.5 937.5 875 927 875 914.1V875H125v39.1c0 12.9 -10.5 23.4 -23.4 23.4H23.4C10.5 937.5 0 927 0 914.1v-78.2C0 823 10.5 812.5 23.4 812.5h39.1v-625H23.4C10.5 187.5 0 177 0 164.1V85.9C0 73 10.5 62.5 23.4 62.5h78.2c12.9 0 23.4 10.5 23.4 23.4V125h750V85.9C875 73 885.5 62.5 898.4 62.5h78.2c12.9 0 23.4 10.5 23.4 23.4v78.2c0 12.9 -10.5 23.4 -23.4 23.4h-39.1V250zm-750 289.1c0 12.9 10.5 23.4 23.4 23.4h328.2c12.9 0 23.4 -10.5 23.4 -23.4V273.4C562.5 260.5 552 250 539.1 250H210.9c-12.9 0 -23.4 10.5 -23.4 23.4v265.7zm625 187.5V460.9c0 -12.9 -10.5 -23.4 -23.4 -23.4H625v140.6C625 604 604 625 578.1 625H437.5v101.6c0 12.9 10.5 23.4 23.4 23.4h328.2c12.9 0 23.4 -10.5 23.4 -23.4z"/></svg>