<svg height="1000" width="625" xmlns="http://www.w3.org/2000/svg"><path d="M537.3 652.3c-53.5 34 -127.1 47.5 -175.8 52.6l40.8 40.2 149.1 149c54.5 55.9 -34.2 143.2 -89.3 89.3 -37.3 -37.9 -92 -92.6 -149 -149.6l-149 149.4C109 1036.9 20.3 948.8 75.4 893.9c37.9 -37.8 92 -92.5 149 -149l40.2 -40.2c-48 -5.1 -122.8 -17.8 -176.9 -52.6 -63.7 -41 -91.6 -65 -67 -115.2 14.5 -28.5 54.1 -52.5 106.6 -11.1 0 0 70.9 56.4 185.4 56.4 114.4 0 185.3 -56.4 185.3 -56.4 52.6 -41.2 92 -17.4 106.7 11.1 24.2 50.2 -3.7 74.2 -67.4 115.4zM59.2 253.3C59.2 113.3 173 0 312.5 0s253.3 113.3 253.3 253.3c0 139.5 -113.8 252.8 -253.3 252.8S59.2 392.8 59.2 253.3zm128.9 0c0 68.6 55.8 124.4 124.4 124.4S436.9 321.9 436.9 253.3c0 -69.1 -55.8 -125 -124.4 -125s-124.4 55.9 -124.4 125z"/></svg>