<svg height="1000" width="1250" xmlns="http://www.w3.org/2000/svg"><path d="M1230.1 313.1c10 -2.8 19.9 4.7 19.9 15v35.3c0 4.2 -1.7 8.2 -4.6 11.1L830.8 793.9a62.263 62.263 0 0 1 -44.4 18.6H250c-34.5 0 -62.5 -28 -62.5 -62.5v-90.9L51.3 634.3C21.6 628.9 0 603 0 572.8V387.4c0 -35.1 28.7 -62.5 62.4 -62.5 3.1 0 8.2 .4 11.3 1l270 49.1h109.4v-93.7H343.7c-17.2 0 -31.2 -14 -31.2 -31.3v-31.2c0 -17.3 14 -31.3 31.2 -31.3h312.5c17.3 0 31.3 14 31.3 31.3V250c0 17.3 -14 31.3 -31.3 31.3H546.9V375H658c16.3 0 41.3 5.9 55.9 13.2l98.6 49.3zM187.5 563.8V441.9L93.8 424.8v122zm885.4 165.4c0 -46.1 83.3 -166.7 83.3 -166.7s83.4 120.6 83.4 166.7 -37.3 83.3 -83.4 83.3 -83.3 -37.3 -83.3 -83.3z"/></svg>