<svg height="1000" width="968.8" xmlns="http://www.w3.org/2000/svg"><path d="M460.5 20c14.6 -.6 29.3 -.6 43.9 -.2 7.1 .3 14.1 .8 21.1 1.4 9.6 .6 19.1 2 28.6 3.2 5.8 .8 11.4 1.9 17.1 2.8 15.5 2.6 30.6 6.5 45.7 10.6 23.9 6.8 47.3 15.5 69.9 25.8 51.8 23.9 99.4 57 139.9 97.4 39.1 39.3 71.7 85.1 95.4 135.2 2.3 5 4.8 9.9 6.8 15.1 5.5 12.5 10.6 25.3 14.8 38.3 8.1 24.1 14.4 48.8 18.4 73.9 1.1 6.1 2.1 12.3 2.8 18.5 1 7.5 1.8 15 2.3 22.6 1.6 16.3 1.6 32.6 1.5 49 -.2 9.7 -.5 19.4 -1.5 29.1 -.5 6.6 -1 13.2 -1.9 19.7 -.8 5.4 -1.2 10.7 -2.2 16 -1.7 10.1 -3.3 20.1 -5.6 30.1 -8 36.1 -20.1 71.4 -36.1 104.7 -30.8 64.2 -75.9 121.5 -131.1 166.3 -28.1 23 -77.9 53.5 -111.2 68.1 -12.1 5.2 -24.3 10.2 -36.8 14.5 -6.9 2.2 -13.7 4.6 -20.7 6.6 -12.9 3.6 -25.9 7.1 -39.1 9.7 -9.1 1.8 -18.3 3.4 -27.4 4.9 -10.3 1.3 -20.5 2.8 -30.9 3.4 -13 1.3 -26.2 1.6 -39.3 1.6 -13.3 0 -26.6 -.3 -39.9 -1.6 -6.4 -.4 -12.8 -1 -19.2 -1.8 -5.3 -.8 -10.7 -1.3 -16 -2.2 -8 -1.4 -16.1 -2.7 -24.1 -4.3 -8.3 -1.9 -16.6 -3.7 -24.8 -5.9 -16.8 -4.3 -33.3 -9.8 -49.6 -15.9 -20.5 -8.1 -40.6 -17.1 -59.8 -27.9 -4.2 -2.2 -8.4 -4.4 -12.4 -6.9 -22 -12.9 -42.7 -27.6 -62.4 -43.7C109 822.7 56.8 748.4 27.6 665.8c-6 -17 -11.2 -34.4 -15.2 -52.1 -2.9 -12 -5 -24.2 -7 -36.4C4.6 572.7 4.2 568 3.5 563.4 2.3 555.7 2.1 547.9 1.2 540.1 -.3 521.6 -.2 503 .2 484.5c.3 -6.9 .7 -13.7 1.4 -20.6 .6 -6.1 .9 -12.4 1.8 -18.5 .8 -5.5 1.3 -11.1 2.3 -16.5C7 421.2 8.2 413.4 9.8 405.8c6.7 -32.3 16.5 -63.9 29.8 -94.1 2.3 -5.7 5.1 -11.2 7.5 -16.8 15.8 -32.6 35 -63.6 57.6 -91.9 39.1 -49.6 88.1 -91.2 143.2 -122 14.6 -8.1 29.6 -15.7 45 -22.2 30.9 -13.5 63.3 -23.4 96.3 -30.1 6.9 -1.3 13.8 -2.4 20.6 -3.6 5.2 -.9 10.4 -1.3 15.5 -2.1 6.9 -1 13.9 -1.3 20.8 -2 4.8 -.5 9.6 -.7 14.4 -1zm16.8 47.7c-18 .2 -36 1.9 -53.8 4.3 -14.3 2.1 -28.4 5.1 -42.4 8.4 -27.2 6.8 -53.7 16.3 -79 28.2 -20.5 9.7 -40.2 20.9 -59 33.6 -8.1 5.7 -16.4 11.3 -24.1 17.6 -9.9 7.8 -19.5 16 -28.6 24.6 -5 4.4 -9.4 9.2 -14.2 13.8C121.1 254.5 81.6 325.9 63.9 402.7 60 419.2 57 435.9 55.3 452.8c-2.2 17.4 -2.8 34.9 -2.8 52.3 .2 14 .8 27.9 2.4 41.8 1.2 13.9 3.7 27.6 6.3 41.3 2 9.1 3.9 18.2 6.5 27.2 12.2 45.7 32.2 89.3 58.7 128.4 16.9 25.4 36.7 48.7 58.5 69.9 31.8 30.9 68.5 56.7 108.1 76.6 14.2 6.9 28.7 13.4 43.5 18.8 9.9 3.4 19.7 7 29.7 9.7 22 6.3 44.5 11 67.2 13.8 5.7 .6 11.4 1.2 17 1.8 27 2.1 54.2 1.9 81.2 -.9 8.7 -1.1 17.4 -1.9 26.1 -3.4 7 -1.4 14.2 -2.5 21.2 -4.1 8.1 -2 16.2 -3.8 24.1 -6 51.8 -14.4 100.8 -38.5 143.7 -70.7 30.9 -23.1 58.6 -50.4 82.3 -80.7 6.4 -7.8 12.1 -16.2 17.8 -24.5 6.7 -9.9 12.9 -20 18.8 -30.3 4.7 -8.7 9.2 -17.4 13.6 -26.3 11.1 -23.5 20 -48.1 26.8 -73.2 5.1 -19.6 9.3 -39.4 11.5 -59.5 3.5 -26.3 3.8 -52.9 2.6 -79.4 -.6 -7.6 -1.4 -15.2 -2 -22.8 -4.4 -37.2 -13.3 -74 -27 -108.9A439.29 439.29 0 0 0 847 259.4c-24.8 -36.7 -55.2 -69.7 -89.8 -97.3C708.2 123 650.8 94.6 589.9 79.9c-15.2 -3.8 -30.7 -6.5 -46.2 -8.7 -7.6 -1.1 -15.3 -1.6 -23 -2.4 -14.4 -1.1 -28.9 -1.4 -43.4 -1.1zM272 163.1c26 -17.3 54.8 -30 84.6 -39.4 -6.2 3.5 -12.6 6.6 -18.6 10.4 -21.9 13 -42.1 29.1 -59.4 47.8 -13.3 14.5 -24.9 30.7 -33.2 48.6 -6.4 13.4 -11 27.7 -13.4 42.4 -1.8 9.5 -2.5 19.2 -2.3 28.8 .3 26.7 8.7 52.9 22.1 75.8 11.5 20 26.6 37.8 43.6 53.3 9.5 8.5 20 15.8 29.2 24.6 4.4 4.3 8.8 8.6 12.6 13.5 5.1 6.5 9.5 13.6 11.7 21.7 1.7 5.9 1.3 12.1 1.3 18.2 .1 8 0 16 .1 24 .3 6.9 0 13.8 .2 20.7 .2 4.7 0 9.3 .1 14 .3 11.2 .1 22.5 .3 33.8 .2 5.7 0 11.3 .3 17 0 3.2 .2 6.4 -.1 9.6 -1.8 .3 -3.6 .4 -5.3 .3 -21.5 0 -42.8 -5.1 -62.4 -13.5C271.6 609.4 260.3 603.2 250 595.5 238.8 587.3 228.3 578 219.1 567.6c-12.7 -14.2 -23.4 -30.1 -32.4 -46.8 -2.1 -4 -4.4 -7.9 -6.2 -12 -2.3 -5.1 -5.1 -10 -7.2 -15.2 -7.9 -19 -12.8 -39 -15.8 -59.2 -.9 -8.7 -2.1 -17.4 -2.3 -26.1 -1.4 -30.7 1.6 -61.6 9.1 -91.5 4.1 -15.9 9.3 -31.6 16.2 -46.5 12.4 -27.7 30 -53.1 51.4 -74.6 12.3 -12.1 25.6 -23.1 40.1 -32.6zm342.5 -39.3c5.4 1.5 10.6 3.4 15.8 5.3 12.4 4.5 24.8 9.4 36.6 15.5 25.6 12.6 49.4 29 69.9 48.8 19.9 19.4 36.6 42.2 49.1 67.1 2.5 5.3 5.2 10.6 7.5 16.1 12.3 29.5 19.5 61.1 21.9 92.9 .8 8.9 .9 17.8 .9 26.7 .1 22.7 -2.9 45.4 -8.4 67.4 -3.9 14.2 -8.5 28.3 -15.4 41.4 -6.2 12.9 -13 25.7 -21.1 37.5 -13.6 20.5 -30.5 38.8 -50.5 53.2 -20.4 14.9 -44.2 25.4 -69.1 30 -6.9 1.4 -13.8 2.2 -20.8 2.4 -3.7 .1 -7.3 .3 -10.9 -.2 -.5 -4.2 0 -8.4 0 -12.6 -.1 -7.3 .3 -14.6 .2 -21.8 .3 -13.7 0 -27.5 .4 -41.2 0 -4.6 -.1 -9.3 0 -13.9 .4 -9.9 0 -19.8 .3 -29.7 .2 -5.9 -.5 -11.8 1 -17.5 1.3 -4.9 3.5 -9.5 6 -13.9 8.8 -14.2 21.7 -25.3 34.6 -35.6 10.5 -8.2 20.4 -17.1 29.3 -27.1 15 -16.3 27.7 -34.9 36.7 -55.2 4.9 -11.5 8.8 -23.6 10.8 -36 1.7 -8.6 2.1 -17.3 2 -25.9 0 -15.4 -2.7 -30.6 -7.1 -45.3 -3.4 -11.2 -8.3 -21.8 -13.8 -32.1 -7.6 -13.6 -16.9 -26 -27.3 -37.5 -19.4 -21.2 -42.5 -39 -67.6 -53 -3.6 -1.9 -7.5 -3.5 -11 -5.8zM417.6 238c1.9 -2.3 3.9 -4.5 6.1 -6.6 -1.2 1.8 -2.5 3.5 -3.8 5.2 -6 7.6 -10.8 16.3 -13.7 25.5 -1.7 6.4 -3.3 12.9 -3.4 19.6 -.1 4.9 -.1 9.9 .6 14.8 2.2 14.9 8.5 29 17.2 41.2 3.9 5.3 8.3 10.3 13.5 14.3 3.1 2.5 6.9 4.1 10.4 6 6.1 3.3 12.4 6.3 17.7 10.7 5.2 4.1 8.9 10.4 8.6 17.2 0 143.8 0 287.7 0 431.6 0 2.7 -.2 5.3 .1 7.9 .2 2.9 1.6 5.6 2.8 8.1 1.7 3.3 3.5 6.6 6.3 9.1 1.6 1.5 3.8 2.7 6.1 2.4 2.9 -.4 5.2 -2.7 6.8 -5 1.8 -3 3.2 -6.2 4.4 -9.5 1.5 -4.2 .9 -8.6 1.1 -13 .2 -7.8 -.1 -15.7 .2 -23.6 .1 -11.5 .1 -23 .2 -34.5 .2 -7 0 -14.1 .2 -21.2 .3 -7.8 -.1 -15.7 .2 -23.6 .1 -11.7 .1 -23.4 .2 -35.1 .2 -7.1 0 -14.1 .2 -21.2 .3 -7.7 -.1 -15.3 .3 -23 0 -11.7 0 -23.4 .1 -35.1 .3 -7.7 0 -15.4 .4 -23.1 .5 2.8 .2 5.7 .4 8.6 .4 7 .8 14.1 1.5 21.1 .6 6.8 .8 13.5 1.6 20.2 .8 6 1 12.1 1.9 18.2 1.1 8 1.7 16 3 24 2.9 17.6 5.5 35.4 9.9 52.7 2.3 9.4 4.7 18.8 7.9 27.9 4.9 15.5 11.1 30.6 20.1 44.2 3.4 5.2 7.6 9.7 11.9 14.1 .5 .5 1.1 1 1.7 1.4 1.2 .5 2.6 -.2 3.4 -1.1 1.3 -1.8 2.2 -3.8 3.3 -5.8 7.9 -15.2 15.9 -30.4 24.1 -45.5 1.3 -2.5 2.8 -5.1 5 -7 3.4 -3.1 7.5 -5.3 11.7 -7.1 5.6 -2.4 11.5 -4.3 17.6 -4.8 12.8 -1.2 25.6 1.5 38.2 3.7 7.2 1.1 14.4 2.2 21.7 2.7 7.3 .2 14.6 .1 21.9 -.5 16.7 -1.8 33.2 -5.8 48.7 -12.2 10.4 -4.4 20.5 -9.5 29.9 -15.5 22.4 -14.1 42 -32.4 58.7 -52.8 2.3 -2.8 4.4 -5.7 6.8 -8.3 -2.4 6.3 -5.2 12.4 -8.2 18.5 -2.4 5.6 -5.5 10.9 -8.3 16.4C824.7 709 813.3 727.1 800.1 744c-7.8 10.1 -16.6 19.6 -26 28.4 -13 11.8 -27.5 22.2 -43.8 28.9 -16 6.5 -33.8 9 -51 6.4 -6.9 -1.2 -13.7 -3.3 -20.3 -5.6 -5.4 -1.9 -10.5 -4.7 -15.7 -7.3 -6.7 -3.3 -12.9 -7.4 -18.9 -11.8 5.2 5.9 11.1 11.4 16.9 16.8 8.4 7.3 17.1 14.3 26.7 20 7.7 4.8 16.2 8.6 25 10.7 2.9 .7 5.8 .9 8.7 1.2 -2.4 2.1 -5.1 4 -7.8 5.8 -18.7 12.8 -39 23.2 -59.9 32.1 -40.7 17 -84.3 27.3 -128.4 30 -9.1 .4 -18.2 .7 -27.3 .7 -9.7 -.2 -19.5 -.3 -29.1 -1.3 -21.9 -1.5 -43.6 -5.3 -64.8 -10.6 -20.2 -5.3 -40.2 -12 -59.2 -20.6 -17 -7.5 -33.4 -16.5 -48.8 -26.9 -3.6 -2.6 -7.3 -5 -10.5 -8 12.9 -2.3 25.4 -6.6 37.1 -12.7 11.2 -5.6 21.5 -13 30.5 -21.6 4.4 -4.3 8.4 -9 12.1 -13.8 -6.7 4.1 -13.5 8.1 -20.7 11.3 -8.7 4.2 -17.8 7.3 -27 9.8 -11.2 2.9 -22.9 3.3 -34.4 2.2 -15.9 -1.9 -31 -8.4 -44 -17.6 -8.4 -5.7 -16 -12.5 -23.3 -19.6 -19.4 -19.8 -35.6 -42.6 -50.1 -66.1 -7.7 -12.3 -14.8 -24.9 -21.8 -37.6 -2 -4 -4.2 -7.9 -6.2 -11.9 5.6 5.7 10.9 11.7 16.5 17.4 17.5 17.5 36.2 34 56.9 47.8 14.8 9.5 30.6 18 48 21.5 6.1 1.4 12.4 .9 18.5 1.6 5.4 .5 10.9 .4 16.3 .6 9.9 .1 19.7 .1 29.6 -.3 7.1 -.3 14.2 -1.3 21.3 -2.2 4 -.5 8 -1.3 12 -2.3 7.5 -1.9 15.8 -1.9 23.1 1.2 9.3 3.6 16.5 11 22.2 19 4.2 5.8 7.9 12.1 11.1 18.7 2.2 4.7 4.8 9.3 6.9 14.1 1.9 4.4 4.2 8.7 6.7 12.8 1.3 2 2.7 4.2 5.1 5 2.1 -1.5 3.3 -3.8 4.4 -6 4.1 -8.1 6.7 -16.9 9.6 -25.5 3.9 -12.8 7.4 -25.9 10.1 -39.1 4.3 -18 6.4 -36.5 8.9 -54.9 1.1 -7.8 1.6 -15.6 2.6 -23.4 1.7 -20.8 3.7 -41.5 4.3 -62.4 .2 -3.6 .5 -7.2 .5 -10.8 0 -8.5 .5 -17 .4 -25.5 0 -4.6 0 -9.3 0 -13.9 .1 -9.9 -.3 -19.8 -.4 -29.7 -.4 -12.9 -1.4 -25.8 -2.5 -38.6 -1.4 -11.5 -3 -23.1 -6.1 -34.2C440.1 431 433.2 416.8 425 403.5c-6.2 -9.9 -13.3 -19.3 -21.7 -27.4 -7.6 -7.5 -16.8 -13.8 -27.2 -16.5 -3 -.8 -6 -.9 -9 -1.2 .1 -5.9 1.4 -11.6 2.5 -17.3C372.7 326 377 311.2 382.8 297c2.9 -7.9 6.6 -15.5 10.5 -22.9 6.7 -12.9 14.9 -25 24.3 -36.1zm61.1 3.3c.7 -.1 1.4 -.2 2.1 -.3 .4 3.5 .2 7 .2 10.4v74.5c0 3.4 .3 6.8 -.3 10.2 -.7 0 -1.4 -.1 -2.1 -.1 -1.8 -7.3 -3.3 -14.7 -5.1 -22.1 -.7 -3 -1.1 -6 -2.1 -8.9 -3.3 -.5 -6.7 -.4 -10 -.4 -9.9 0 -19.8 0 -29.7 0 -3.2 -.1 -6.5 .1 -9.7 -.1 -.1 -.8 -.5 -1.8 .3 -2.3 2.5 -1.3 5.3 -1.7 7.9 -2.6 6.7 -2.3 13.5 -4.3 20.2 -6.5 2.7 -1 5.6 -1.4 8.1 -3 .1 -1.1 0 -2.2 -.1 -3.3 -2.4 -1.1 -5 -1.7 -7.5 -2.5 -6.1 -2 -12.2 -3.8 -18.3 -5.9 -3.5 -1.2 -7.2 -2 -10.6 -3.5 -.1 -.7 -.1 -1.4 -.2 -2.1 9.9 -.4 19.9 .1 29.9 -.3 6.5 -.2 13.1 .2 19.7 -.1 .2 -.8 .5 -1.5 .7 -2.3 2.1 -9.6 4.5 -19.2 6.6 -28.8zm11.7 -.4c.7 .1 1.4 .3 2.1 .4 1.9 7.5 3.4 15.2 5.3 22.7 .7 2.8 1.1 5.6 2 8.3 4.9 .4 9.9 0 14.8 .1 10.1 .3 20.2 .3 30.3 .2 1.5 0 3 0 4.5 .1 -.1 .7 -.2 1.4 -.2 2.1 -3.6 1.7 -7.4 2.5 -11.1 3.7 -7.3 2.4 -14.6 4.7 -21.9 7 -1.1 .3 -2.2 .8 -3.3 1.3 -.3 1 -.3 2.1 -.2 3.3 1.7 .9 3.5 1.5 5.4 2.1 9.5 3 19 6.1 28.6 9 .7 .2 1.5 .5 2.2 .9 .7 .6 .4 1.6 .3 2.3 -3.3 .3 -6.5 .1 -9.7 .1 -10.1 0 -20.2 0 -30.3 0 -3.2 .1 -6.3 0 -9.4 .4 -1 3.3 -1.4 6.7 -2.3 10 -1.9 7 -3 14.2 -5 21.1 -.7 0 -1.4 0 -2.1 .1 -.5 -3.4 -.2 -6.8 -.2 -10.2v-74.5c0 -3.5 -.2 -7 .2 -10.5zm-363.3 87.9c2.1 -4.2 4 -8.6 6.5 -12.6 -3.5 14.7 -5.7 29.8 -7 44.9 -1.6 15 -1.7 30.2 -1.1 45.3 2.1 39 10.8 77.8 27.8 113.1 5.8 11.7 12.4 23.1 20.5 33.4 12 14.6 24.5 28.8 38.8 41.2 9.3 8 19.5 15.2 30.3 21.1 6.4 3.2 12.7 6.6 19.4 9.1 9.8 4 19.9 7.1 30.1 9.7 7.5 1.9 15.2 2.7 22.5 5.3 9.8 3 18.5 9 25.5 16.4 9.6 10.3 15.8 23.2 19.9 36.5 1.9 5.7 3.1 11.6 4.3 17.4 .2 1.5 .4 3 .3 4.5 -12.7 5.4 -25.9 9.9 -39.6 12.1 -8 1.5 -16.2 1.9 -24.3 2.1 -20.1 .5 -40 -3.5 -58.9 -10 -7.3 -2.8 -14.6 -5.6 -21.5 -9.2 -15.8 -7.5 -30.6 -17 -43.9 -28.3 -5.7 -5 -11.4 -10 -16.4 -15.7 -17.9 -19.2 -31.8 -41.8 -42.5 -65.7 -4.7 -10.8 -9.1 -21.8 -12.5 -33.1C103 558.6 100.7 550.9 98.9 543c-1.4 -5.7 -2.3 -11.6 -3.6 -17.4 -.9 -4.2 -1.4 -8.4 -2 -12.7 -1.7 -10.6 -2.5 -21.3 -2.6 -32 .2 -12.1 .5 -24.2 2.1 -36.2 .8 -5.6 1.3 -11.2 2.2 -16.8 1.9 -11.1 4.2 -22.2 7.3 -33 6 -22.8 14.6 -44.9 24.8 -66.1zm710.4 -12.6c2.1 3.2 3.7 6.8 5.4 10.3 4.1 8.7 8.3 17.3 11.7 26.3 14.9 36.7 24.1 75.8 25.5 115.3 .1 3.5 .2 6.9 .2 10.4 .3 18.7 -2.4 37.3 -6.2 55.5 -1.4 7.1 -3 14 -5 20.9 -7.9 28.8 -19.6 56.7 -36 81.6 -16 24.6 -37.1 46 -62.2 61.4 -11.2 7 -23 12.9 -35.2 17.9 -11.3 4.3 -22.9 7.9 -34.8 10 -12.5 2.1 -25.2 3 -37.9 2.4 -15.4 -.9 -30.8 -4 -45.3 -9.5 -3.8 -1.5 -7.7 -2.8 -11.4 -4.5 -.4 -3 .5 -5.9 1 -8.7 2.3 -11.2 5.9 -22.2 11.2 -32.4 4.6 -8.8 10.7 -16.9 18.4 -23.3 4.8 -4 10.3 -7 16 -9.4 7 -2.9 14.6 -3.8 21.9 -5.5 14.1 -3.4 28.1 -7.7 41.3 -13.7 20.2 -9.1 38.5 -22.2 54 -38 3.1 -3.1 6.3 -6.2 9.3 -9.5 6.6 -7.4 13.1 -14.8 19.2 -22.5 14.6 -19.7 25.1 -42.2 32.7 -65.4 3.1 -10.4 6.2 -20.7 8.2 -31.4 1.2 -5.6 2 -11.3 3 -16.9 1.7 -11.9 3.1 -23.9 3.2 -35.9 .3 -13 .3 -26 -1 -39 -1.4 -15.6 -3.6 -31.1 -7.2 -46.4z"/></svg>