<svg height="1000" width="1000" xmlns="http://www.w3.org/2000/svg"><path d="M704.3 119L662.1 76.9c-3.2 -3.3 -5.9 -9.7 -5.9 -14.4s2.7 -11.1 5.9 -14.4L704.3 6c7.9 -8 20.8 -8 28.8 0l42.2 42.1c3.3 3.3 5.9 9.7 5.9 14.4s-2.6 11.1 -5.9 14.4L733.1 119c-3.3 3.3 -9.7 6 -14.4 6 -4.7 0 -11.1 -2.7 -14.4 -6zm100.6 256c107.6 0 195.1 87.5 195.1 195.1v195.5c0 94.8 -92.7 171.9 -187.5 171.9 -187.6 0 -187.6 -125 -187.6 -125v-74c0 -14.7 18.4 -21.2 27.8 -9.8 29.5 36.5 82.8 83.8 159.8 83.8 25.8 0 62.5 -21 62.5 -46.9V570.1C875 531.4 843.5 500 804.9 500c-18.7 0 -36.3 7.3 -49.6 20.5L708 567.9C671.1 604.7 622.1 625 570 625h-42.4c21.6 36.9 34.8 79.3 34.8 125 0 137.9 -112.1 250 -250 250C80.3 1000 -.2 812.5 0 705.4c0 -17.1 20 -24.9 28.9 -10.1C73.4 769.5 124.8 875 312.4 875c68.9 0 125 -56.1 125 -125S381.3 625 312.4 625h-64.5c-10.9 -.9 -20.8 -6.8 -25.8 -16.7l-31.4 -62.8C180.3 524.6 195.5 500 218.8 500h62.3c51.7 0 93.8 -42.1 93.8 -93.8s-42.1 -93.7 -93.8 -93.7c-21.9 0 -42.6 7.4 -59.1 20.9 -10.8 8.9 -26.3 8.8 -37.5 .4l-51.1 -38.3c-15.8 -11.9 -16.5 -35.1 -2.2 -48.7 49.1 -46.4 117 -67.8 187.6 -56.2 84.3 13.8 155.1 79.4 174.8 162.5 12.6 52.9 5.5 103.7 -15.1 146.9H570c18.7 0 36.3 -7.3 49.6 -20.5l47.3 -47.4c36.9 -36.8 85.9 -57.1 138 -57.1zm82.4 -243.6c20.6 -15.6 50.2 -1 50.2 24.9v69.3c0 4.6 -1 9.2 -3 13.4 -5.8 12.3 -42.6 73.5 -198.7 73.5C582.6 312.5 506.9 177 503.7 171.2c-7 -12.9 -4 -29 7.2 -38.6 11.1 -9.7 27.6 -10.1 39.3 -1.1 6.9 5.3 170 127.1 337.1 -.1z"/></svg>