<svg height="1000" width="968.8" xmlns="http://www.w3.org/2000/svg"><path d="M613.1 63.9C280.7 63.9 119.7 501 325 757.4c71.3 88.7 173 147.7 288.1 147.7 70.9 0 137.3 -21.7 194.1 -59.4 -85.5 76.6 -199 123.1 -322.8 123.1 -7.6 0 -15.7 0 -23.3 -.6C204.3 956.2 0 744.3 0 484.4 0 216.8 216.8 0 484.4 0h1.5C609.2 .6 721.7 47.1 807 123.2 750.4 85.4 683.8 63.9 613.1 63.9zm198.8 776.7C732 888.9 634.8 886.7 554.1 829.3c109.8 -40 190.8 -178.9 190.8 -344.9 0 -165.5 -80.4 -304.3 -190.2 -344.9 81.6 -57.1 178.1 -59.2 259.6 -9.8 206.8 192.8 206 518.9 -2.4 710.9z"/></svg>