<svg height="1000" width="1125" xmlns="http://www.w3.org/2000/svg"><path d="M1118.4 823c1.9 6.9 3.7 13.7 3.3 20.9 1.5 61.8 -86.5 125 -143.6 127.2 -33.8 1.6 -67.6 -16.4 -83.4 -45.9 -221.7 8 -443.3 9.6 -664.4 0 -16.4 29.5 -50.2 46.9 -84 45.9C89.8 968.9 1.8 905.7 2.7 843.9c.6 -7.4 1.6 -14.2 3.7 -21C-4.5 804.5 -2.9 793 17 800.2c6.4 -10.2 13.7 -18.6 21.7 -27C33.8 752 41.2 745.7 60.4 755.3c8.7 -6.5 19.5 -12.7 31 -18 0 -30.9 23.1 -21.9 33.8 -11.1 24.4 -3.5 39.4 1.3 52.3 11.1v-38.5c-25.2 0 -79.3 -22.2 -89.6 -70.7 -9.8 -40.6 5.1 -74.4 49 -92.9 1.6 -11.6 15.8 -27.4 29.1 -31.1 14.9 -3.7 24.4 9 27.6 20.1 14.4 0 34.7 2.9 41.2 15.8 10.5 -.9 21.6 -2.7 32.2 -3.7 -4.7 -3.7 -10 -6.8 -15.8 -9 -10 -17.3 -27 -21.6 -48.1 -22.6 0 -1.6 0 -3.1 .6 -5.3C165 498.4 117.6 488.5 96.5 464.6 54.9 418.6 65.4 301.4 120.3 262.5c16.4 -11.1 42.2 -1.6 44.3 18.9 4.7 40.3 .8 52.4 51.2 50.6 15.8 -15.2 32.8 -28.5 51.8 -39 -29.1 -2.6 -56.5 3.1 -85.6 7.4 24.8 -24.4 46.7 -49.6 110.8 -82.8 45.9 -23.3 97.6 -40.6 148.8 -45.3C405.3 156.8 363.5 149 325 140c149.4 -31.6 341 -43.1 477 73.5 35.3 30.1 63.2 70.7 83.4 117.2 77.7 9.5 71 -10.8 75.3 -49.1 2.2 -20.1 28 -30 44.4 -18.5 29.1 20.5 43.3 60.1 48 93.9 4.3 34.8 .6 80.7 -24.2 107.6 -21.1 23.9 -67 34.4 -105.1 35.4v5.5c-21.6 .4 -39.6 4.7 -50.2 22.6 -5.8 2.2 -11.1 5.3 -16.4 9 11.2 1 22.3 2.7 32.8 3.7 3.8 -10.9 24.6 -16.4 41.3 -16.4 3.3 -10.5 13.2 -23.2 27.5 -20.1 14.2 3.1 27.5 19.5 29.1 31.1 21.1 8.5 43.2 23.8 49 50.1 3.7 15.9 3.3 29.5 .6 42.8 -11.1 49.2 -65 70.7 -89.6 70.7 0 13.1 0 25.8 -.6 38.5 15.8 -11.7 32 -14.1 52.3 -11.1 11.7 -11.6 34.4 -18.4 34.4 11.1 10.9 5.3 22.1 11.7 31 18 19.8 -9.8 26.8 -1 21.1 17.9 8 8.4 15.9 17.4 21.7 27 19.7 -7 21.5 4.1 10.6 22.6zM974.2 327c33.8 13 51.2 43.1 59.2 69.7 2.1 -20.7 -5.3 -77.2 -27 -99.8 -14.2 -14.3 -27.5 -10 -27.5 1.5 0 12.1 -2.5 22.7 -4.7 28.6zm-9 13c-6.2 6.5 -17.9 9.6 -27.5 11.2 25.4 30.6 33.2 81.4 24.8 123 21.1 -4.3 40 -12.3 51.2 -23.8 3.7 -4.3 7.4 -9.6 9.5 -14.9 -2.1 -41.6 -19.9 -83.4 -58 -95.5zm-47 13.3c-7.3 0 -15.9 0 -23.1 -.6 14.7 40.3 24.2 83.4 27.9 126.2 6.9 0 14.7 -.6 22.7 -1.6 11.5 -47.4 -.6 -100.7 -27.5 -124zM92.8 396.5c8 -26.4 25.4 -56.5 59.2 -69.7 -2 -5.9 -4.7 -16.4 -4.7 -28.6 0 -11.5 -13.9 -15.8 -27.6 -1.5C97.5 319.3 90.6 376 92.8 396.5zm18.9 53.9c11.2 12.1 30.1 19.5 51.2 23.8 -8.4 -41.8 -.6 -92.4 24.8 -123 -9.6 -1.6 -21.3 -4.9 -27.5 -11.2 -37.9 12.1 -55.3 53.9 -58.1 95.5 2.8 5.3 5.9 10.6 9.6 14.9zm93.6 28.5c4.7 -43.4 17.7 -85.5 38.6 -124 -10.1 2.1 -19.5 5.8 -29.1 9.6l-23.8 9.9v-.6c-14.2 27.6 -19.5 67.2 -10.5 103.5 9 1 16.8 1.6 24.8 1.6zM564.6 161.1c-81.8 0 -148.8 66.6 -148.8 148.3 0 82.4 67 148.8 148.8 148.8 81.9 0 148.9 -66.4 148.9 -148.8 0 -81.9 -67 -148.3 -148.9 -148.3zm225.8 340.5C765.2 500 739.3 500 713.3 499.4c19.5 98.8 6.4 126.4 32.2 113.5 31.3 -15.8 44.3 -76.6 44.9 -111.3zM685 498.4c-37 -.5 -74.5 -.5 -111.4 0v-.5c-.6 10.1 .4 74.4 8.4 80.2 21.7 10.6 77.2 9 99.8 2.2 10.6 -3.2 4.7 -72.3 3.2 -81.9zM543.6 603.5c8.9 -4.9 4.6 -88.7 2.5 -104.9v-.6c-37.9 .6 -75.4 .6 -112.9 1.6 -3.7 18 -9 95.5 3.7 100.8 25.4 11.1 81.3 10 106.7 3.1zM335.5 503.7c-10.5 38.5 .6 88.1 43.4 107.2 10.6 4.9 16.8 4.9 19 -8.4 3.7 -17 4.8 -71.8 9.5 -101.9 -23.8 .4 -48 1.5 -71.9 3.1zm-69.1 61.1c4.7 7.3 3.1 17.8 -15.6 24.5 85.5 91.8 181 167.3 304.5 208C687.1 759.8 781.1 680.1 874 588.3c-21.7 -8.4 -15 -20.1 -14.2 -22.7 -17.4 -1.5 -35 -3.7 -51.8 -5.2 -18.5 64.4 -70.3 103.3 -91.4 61.7 -5.3 -10.2 -6.8 -22.9 -9 -32.8 -7.4 16.4 -26 15.8 -48 17.3 -25.8 2.2 -61.8 2.6 -86 -5.8C567.8 626 552 626 521.3 628.7c-27.6 2.7 -95.1 8 -107.2 -21.1 -2.2 56.1 -68.6 19.5 -88.1 -13.7 -6.3 -11.1 -10.6 -22.2 -13.7 -34.3 -15.2 1.5 -30.7 3.1 -45.9 5.2zm-42.2 337c1 -4.9 1.6 -10.2 1.6 -16.1 -11.2 -45.3 -36.3 -97 -65.4 -105.4C116.6 767.2 25.8 826.2 31.1 886.9c24.8 38.1 78.1 69.7 115.6 71.3 34.7 1.6 70.1 -21.7 77.5 -56.4zm-17 -128.9c17.6 31.2 30.3 65 32.6 101.3 65.5 -37.9 135 -69.7 206.9 -91.8C371.1 742.4 313.7 689.1 256.6 632c-4.1 2.6 -9.9 4.7 -15.2 6.9 -3.1 9.5 17 10.3 10.6 24.2 -4.1 8 -16.8 14.8 -29.5 18 -4.1 5.2 -10 9.5 -15.3 12.7h-.6c-.4 26.3 -.4 52.7 .6 79.1zM866.6 899C794.7 857.4 721.9 818.4 640.8 795.5c-26.9 12.1 -54.5 22.1 -82.4 30.1 -4.1 1.5 -4.1 1.5 -8.4 0 -23.2 -7.2 -45.5 -15.8 -68.2 -25.8 -78.5 22.7 -150.9 57 -219.5 99.2h-.6v.6c.6 0 .6 0 .6 -.6 201.6 8 403.1 6.9 604.3 0zm20.5 -24.2c2 -28.7 14.1 -69.9 32.2 -101l-.5 .6c.9 -26.7 1.5 -53.7 1.5 -80.6 -5.8 -3.4 -11.1 -8.1 -15.8 -13.3 -12.7 -2.6 -25.2 -10 -29.5 -17.4 -3.7 -8 2.5 -14.9 11.5 -20.1 -.4 -1 -1 -3.2 -1 -4.7 -5.8 -1.6 -10.5 -3.5 -14.8 -6.3C809 689.5 743 742.8 668.6 781.8c75.9 22.9 148.4 54.9 218.5 93zm206.8 12.1C1099.8 826.2 1009 767 964.6 780.5c-28.5 8.4 -54.2 60.1 -65.4 105.4 0 46.5 41.4 74.1 79.1 72.3 37.5 -1.6 90.8 -33.2 115.6 -71.3zm-365.6 -740C658.6 70.3 569.3 53.5 482.2 101 531.4 -8.8 720.9 6.1 728.3 146.9zM146.1 795.1c29.1 -3.7 48 37.5 36.3 60.2 -9.4 18.9 -46.3 47 -70.1 53.3 -32.2 9 -62.9 -6.5 -62.9 -29.1 0 -34.8 66 -81.3 96.7 -84.4zM567.8 451c-60.4 0 -112.5 -50.2 -98.3 -116.8 25.8 40.4 90.9 23.4 90.9 -22.1 0 -19.5 -13.7 -36.3 -32.3 -42.2 61.9 -26.9 141 16 141 86.5 0 52.4 -45.5 94.6 -101.3 94.6zm-435 475c-1 -16.4 39.7 -45.9 57 -49 16.8 -3.2 24.8 22.2 19 35.9 -5.3 11.1 -20.5 26.4 -33.8 31.6 -18.4 6.3 -41.2 -5.8 -42.2 -18.5zM978.9 795.1c30.7 3.1 96.7 49.6 96.7 84.4 0 22.8 -30.7 38.1 -62.9 29.1C989.1 902.3 951.6 874.2 942 855.3c-11.1 -22.7 7.8 -63.9 36.9 -60.2zM935.2 877c17.3 3.1 58.6 32.6 56.8 49 -.4 12.7 -23.6 24.8 -41.6 18.5C936.7 939.3 921.3 924 916.6 912.9c-5.7 -13.9 2.2 -39.1 18.6 -35.9z"/></svg>