<svg height="1000" width="1000" xmlns="http://www.w3.org/2000/svg"><path d="M575.7 367.6c113.5 0 165.4 68.8 165.4 150.2 0 49.9 -30.3 150.2 -162.4 150.2H486V367.6h89.7zM500 15.6c267.6 0 484.4 216.8 484.4 484.4S767.6 984.4 500 984.4 15.6 767.6 15.6 500 232.4 15.6 500 15.6zM342.2 720.2V315h-58.3v405.2h58.3zM313.1 268.8c21 -.1 38.1 -17.2 38.2 -38.2 0 -21.1 -17.1 -38.3 -38.2 -38.3s-38.3 17.2 -38.3 38.3 17.2 38.2 38.3 38.2zm272.8 451.9c133.6 0 214.9 -98.8 215 -202.9C800.9 422 735 315 585.2 315H427.7v405.7h158.2z"/></svg>