<svg height="1000" width="1000" xmlns="http://www.w3.org/2000/svg"><path d="M15.6 520.4C20.1 255.2 205.9 66.4 433.2 35.8c271.1 -36.3 499.2 148.1 543 392.8 41.6 232 -86 449.2 -296.1 535.1 -18.2 7.5 -28.1 3.4 -35.2 -15C610.2 858.3 575.4 767.8 540.6 677.2c-6 -15.8 -1.9 -25.8 13.7 -32.8 47.3 -21.5 76.8 -57.4 84.6 -109 .9 -5.9 1.6 -15.5 1.6 -21.4 0 -70.8 -57.2 -133.1 -127.6 -139.1 -76.2 -6.7 -140.2 46.3 -151.4 116.6 -10.1 64.4 21.7 124.4 81.9 151.7 18.7 8.6 22.4 16.8 15.2 36 -35 91 -69.9 182.1 -104.9 273.2 -5.1 13.5 -16.2 18.2 -30.3 12.7C220.7 925.5 125.4 846 68 732.7 19.3 636.6 18.7 561.4 15.6 520.4zm40.8 -3.7c.8 12.9 1.2 27.9 2.6 43.1 12.3 140.5 96.9 280.3 255.8 357.7 6.3 2.9 8.6 1.5 11 -4.5 29.1 -76.4 58.4 -152.8 87.9 -229.1 2.5 -6.5 1.1 -9.4 -4.7 -13.1 -61.7 -38.9 -92.4 -94.7 -89.1 -168 2 -42.2 18.2 -79.1 46.5 -110C425 329 516.8 315.1 592 358.5c49.4 28.5 89.6 98 89.6 155 0 6 -.6 15.6 -1.3 21.5 -7.1 59.8 -37.7 105.3 -89.3 136.4 -5.3 3.1 -6.8 5.6 -4.5 11.7 29.7 76.5 59.1 153.2 88.3 229.9 2.3 6 4.7 7.4 10.9 4.5C755.1 885 813.1 838.7 857.8 776.8c68 -94.1 95.9 -199 82.6 -314.4C913.7 232.9 707.2 42.8 441.4 75.7 234.2 101.1 60 275.9 56.4 516.7z"/></svg>