<svg height="1000" width="1250" xmlns="http://www.w3.org/2000/svg"><path d="M1187.5 62.5c34.5 0 62.5 28 62.5 62.5v62.5c0 103.6 -83.9 187.5 -187.5 187.5h-44.6l-180.7 97.2 107.7 215.3h55.1c34.5 0 62.5 28 62.5 62.5v31.3c0 17.2 -14 31.2 -31.2 31.2H875L729.5 530.3l-292 157.2h125c34.5 0 62.5 28 62.5 62.5v31.3c0 17.2 -14 31.2 -31.2 31.2H156.3c-17.3 0 -31.3 14 -31.3 31.3s14 31.2 31.3 31.2H375c34.5 0 62.5 28 62.5 62.5s-28 62.5 -62.5 62.5H163.1C86.2 1000 15.6 947.5 2.4 871.7 -7.1 816.8 12.2 765.8 47.7 731.4 93.7 687 125 629.6 125 565.6v-3.1c0 -207.1 167.9 -375 375 -375h109.4l299.3 -171C927.6 5.7 948.9 0 970.7 0h40c28.6 0 68.2 16.4 88.4 36.6l25.9 25.9h62.5zM1000 93.8c-17.3 0 -31.2 13.9 -31.2 31.2s13.9 31.3 31.2 31.3 31.3 -14 31.3 -31.3 -14 -31.2 -31.3 -31.2zm62.5 187.5c40.7 0 75.1 -26.3 88 -62.5H1000L768.4 334.6l26.9 53.8L994.2 281.3h68.3z"/></svg>