<svg height="1000" width="750" xmlns="http://www.w3.org/2000/svg"><path d="M750 610.7C642.4 877.7 384.6 716.2 384.6 716.2 305.5 876 174.8 978.7 24 979.3c-31.4 0 -32.4 -47.7 0 -47.7 125.8 -.5 235.4 -83.4 307.1 -215C250.8 747.7 99.4 771.1 15.4 556.1c212.9 -87.7 310.8 21.8 348.3 88.8 19.3 -47.6 33.2 -99.4 42.2 -155.6 0 0 -272.9 42.7 -292 -191.6 232.6 -93.6 298 149.8 298 149.8 3.1 -32.7 6.5 -102.8 6.5 -104.3 0 0 -207.7 -144 -74.5 -322.7 243.4 84 120 317.2 120 317.2 .9 3.1 .9 46.5 0 65.2 0 0 88.2 -173.8 266.4 -112.3C722.1 552.3 453.1 498.4 453.1 498.4c-8.6 53.5 -21.9 104.3 -39 151.4 0 0 162.1 -179.3 335.9 -39.1z"/></svg>