<svg height="1000" width="1000" xmlns="http://www.w3.org/2000/svg"><path d="M326.2 604.2l171.9 143.2c.6 6 1.9 11.8 1.9 17.9C500 914.5 398.2 1000 250 1000 74.1 1000 0 858.6 0 697.8c19.1 13 86.2 67.1 107.9 67.1 12.9 0 23.9 -7.4 28.5 -19.5C176.7 639.1 247.9 609.2 326.2 604.2zM894.3 0C949.2 0 1000 40.3 1000 96.8c0 31.5 -12.7 61.8 -27.1 89.8C752.1 598.7 681.7 687.5 560.4 687.5c-15.1 0 -29.6 -2.4 -43.7 -5.9L392.1 577.7C381.3 554.4 375 528.9 375 502.1c0 -105 41.5 -113.3 440.8 -470C837 13.1 864.7 0 894.3 0z"/></svg>