<svg height="1000" width="1000" xmlns="http://www.w3.org/2000/svg"><path d="M399 9.8c319.9 -62.3 600 179.8 601 487.7C999.8 567.2 943.2 625 873.2 625H717.6c-99.6 0 -164.1 103.5 -119 192.2 36.9 72.4 -2.5 166.6 -83 179.1C267.4 1034.8 -62.1 762.5 10.2 397.3 48.4 203.7 204.9 47.7 399 9.8zM187.5 625c34.6 0 62.5 -27.9 62.5 -62.5S222.1 500 187.5 500 125 527.9 125 562.5s27.9 62.5 62.5 62.5zM250 375c34.6 0 62.5 -27.9 62.5 -62.5S284.6 250 250 250s-62.5 27.9 -62.5 62.5S215.4 375 250 375zM500 250c34.6 0 62.5 -27.9 62.5 -62.5S534.6 125 500 125s-62.5 27.9 -62.5 62.5S465.4 250 500 250zm250 125c34.6 0 62.5 -27.9 62.5 -62.5S784.6 250 750 250s-62.5 27.9 -62.5 62.5S715.4 375 750 375z"/></svg>