<svg height="1000" width="1125" xmlns="http://www.w3.org/2000/svg"><path d="M751.8 378.7C752 483 660.9 566.6 589.1 566.6c-24.5 0 -28.2 -6.6 -29.5 -12.1 .9 -76.4 3.3 -157 5.8 -234 78.5 -28.1 186.4 -34.4 186.4 58.2zm-379.9 141c-.4 -1.1 -.8 -4.1 -1.2 -9 0 -50 72.3 -118.9 114.3 -148.2 -2.4 71.1 -10.8 386.9 -2.8 473.6 5.9 63.1 52.4 64.3 71.1 43.6 11.5 -12.9 10.8 -30.7 10.4 -37.3v-.4c-3.5 -50 -5.5 -118.4 -5.3 -195.3C677.1 674.8 832 528.9 832 376.8 832 238.1 709 192.8 568 236.1c-5.7 -28.5 -35.8 -39.2 -57.6 -21.6 -14.7 12.1 -18.6 30.8 -20.6 55C377 329.9 293.2 434.6 293.2 516.6c0 48.6 30.4 84 72.4 84 68.6 0 80.1 -86.1 28.1 -86.1 -9.1 0 -21.4 5.2 -21.8 5.2zM15.6 353.7c0 -75.4 75 -73 75 -73h56.7C177.5 143.8 382.6 135.5 382.6 135.5h54.9V98.2c0 -35.9 41.2 -35.9 41.2 -35.9h167.6c35.9 0 41.2 35.9 41.2 35.9v37.3h54.7c174.2 0 218.9 95.2 233.2 145.2h58.8c75.2 0 75 73 75 73 0 75.4 -75 73.1 -75 73.1h-58.6L931.8 851c0 85.7 -87.3 86.5 -87.3 86.5H280.3C193 937.5 193 851 193 851L149.2 426.8H90.6c-75.2 0 -75 -73.1 -75 -73.1z"/></svg>