<svg height="1000" width="1250" xmlns="http://www.w3.org/2000/svg"><path d="M281.3 500C264.1 500 250 485.9 250 468.8V31.3C250 14.1 264.1 0 281.3 0H500v250l125 -62.5L750 250V0h218.8c17.1 0 31.2 14.1 31.2 31.3v437.5c0 17.1 -14.1 31.2 -31.2 31.2H281.3zm937.5 250H1125v125h93.8c17.1 0 31.2 14.1 31.2 31.3v62.5c0 17.1 -14.1 31.2 -31.2 31.2H31.3C14.1 1000 0 985.9 0 968.8v-62.5C0 889.1 14.1 875 31.3 875H125V750H31.3C14.1 750 0 735.9 0 718.8v-62.5C0 639.1 14.1 625 31.3 625h1187.5c17.1 0 31.2 14.1 31.2 31.3v62.5c0 17.1 -14.1 31.2 -31.2 31.2zM562.5 875V750H250v125h312.5zm437.5 0V750H687.5v125H1000z"/></svg>