<svg height="1000" width="875" xmlns="http://www.w3.org/2000/svg"><path d="M84.5 910.4C-29.7 792.7 -27.5 602.8 87.2 485.5L496.9 66.4c86.5 -88.5 227.2 -88.5 313.8 0 85.7 87.7 85.8 229.2 0 317L453.5 748.3c-58.3 59.6 -153.5 58.8 -210.9 -2C187.4 687.8 189.2 595 245.5 537.5L526.2 250.7c12.1 -12.4 31.9 -12.6 44.2 -.5l44.7 43.7c12.3 12.1 12.5 31.9 .4 44.2L334.8 624.9c-9.6 9.8 -10.2 26.2 -1.2 35.7 8.5 9 21.9 9.2 30.6 .3L721.3 296c38.3 -39.2 38.3 -103 0 -142.2 -37.5 -38.4 -97.6 -38.4 -135.1 0l-409.7 419c-67.9 69.5 -68.9 181.9 -2.3 250.7 66.4 68.5 173.8 68.6 240.4 .5l336 -343.7c12.1 -12.4 31.9 -12.6 44.2 -.5l44.7 43.6c12.3 12.1 12.6 31.9 .5 44.2L503.9 911.4c-116.3 119 -304.5 117.6 -419.4 -1z"/></svg>