<svg height="1000" width="1000" xmlns="http://www.w3.org/2000/svg"><path d="M999.8 341.8c2.2 18 -13.3 33.2 -31.4 33.2h-17L684.2 671.7c1.3 5.3 3.1 10.1 3.1 15.8v250c0 34.6 -27.9 62.5 -62.5 62.5h-250c-34.6 0 -62.5 -27.9 -62.5 -62.5v-250c0 -5.7 1.8 -10.7 3.1 -15.8L48.4 375h-17C13.5 375 -2 359.6 .2 341.8 18 194.3 153.3 83.4 309.4 31.8 238.3 108.8 187.5 228.3 187.5 375h-54.9l227.8 252.9c4.8 -1.1 9.3 -2.9 14.6 -2.9h93.8V375H250C250 150 384.6 0 500 0s250 150 250 375H531.3v250H625c5.3 0 9.8 1.8 14.6 2.9L867.4 375h-54.9C812.5 228.3 761.7 108.8 690.6 31.8c156.1 51.4 291.4 162.3 309.2 310z"/></svg>