<svg height="1000" width="875" xmlns="http://www.w3.org/2000/svg"><path d="M253.2 343.8c10.3 -61 49.9 -111.7 104.1 -137.6 -15 37.3 -24.9 84.8 -27.8 137.6h-76.3zm0 62.5h76.3c2.9 52.7 12.8 100.2 27.8 137.5C303.1 517.9 263.5 467.2 253.2 406.3zm184.3 153.6c-15 -14.5 -40.6 -67.2 -45.8 -153.7h91.6c-5.2 86.5 -30.8 139.2 -45.8 153.7zM391.7 343.8c5.2 -86.5 30.8 -139.2 45.8 -153.7 15 14.5 40.6 67.2 45.8 153.7h-91.6zm126 200c15 -37.3 24.9 -84.8 27.8 -137.6h76.3c-10.3 61 -49.9 111.7 -104.1 137.6zM812.5 0C847 0 875 28 875 62.5v875c0 34.5 -28 62.5 -62.5 62.5H125C56 1000 0 944 0 875V125C0 56 56 0 125 0h687.5zM656.3 812.5c17.1 0 31.2 -14.1 31.2 -31.2S673.4 750 656.3 750H218.8c-17.2 0 -31.3 14.1 -31.3 31.3s14.1 31.2 31.3 31.2h437.5zM437.5 625c138.1 0 250 -111.9 250 -250S575.6 125 437.5 125s-250 111.9 -250 250 111.9 250 250 250zm80.2 -418.8c54.2 25.9 93.8 76.6 104.1 137.6h-76.3C542.6 291 532.7 243.5 517.7 206.2z"/></svg>