<svg height="1000" width="875" xmlns="http://www.w3.org/2000/svg"><path d="M250 359.4v453.1H46.9C21 812.5 0 791.5 0 765.6V109.4C0 83.5 21 62.5 46.9 62.5h157.4C226 25.2 266.3 0 312.5 0S399 25.2 420.7 62.5h157.4c25.9 0 46.9 21 46.9 46.9V250H359.4C299.1 250 250 299.1 250 359.4zM312.5 78.1c-25.9 0 -46.9 21 -46.9 46.9s21 46.9 46.9 46.9 46.9 -21 46.9 -46.9 -21 -46.9 -46.9 -46.9zm359.4 484.4H875v390.6c0 25.9 -21 46.9 -46.9 46.9H359.4c-25.9 0 -46.9 -21 -46.9 -46.9V359.4c0 -25.9 21 -46.9 46.9 -46.9H625v203.1c0 25.8 21.1 46.9 46.9 46.9zM875 488.2V500H687.5V312.5h11.8c10.8 0 25.6 6.2 33.2 13.7L861.3 455c7.5 7.6 13.7 22.4 13.7 33.2z"/></svg>