<svg height="1000" width="1000" xmlns="http://www.w3.org/2000/svg"><path d="M500 437.5c155.1 0 375 239.8 375 391.1 0 68.2 -52.4 108.9 -140.1 108.9 -94.6 0 -157.7 -49 -234.9 -49 -76.5 0 -139.5 49 -234.9 49C177.4 937.5 125 896.8 125 828.6 125 677.3 344.9 437.5 500 437.5zM212.3 412.9C232.7 480.5 203 546.4 146.2 560 89.3 573.6 26.7 529.8 6.4 462.1 -13.9 394.4 15.7 328.6 72.6 315s119.4 30.2 139.7 97.9zm165.5 -40.6c-60.4 15.9 -128.2 -40 -151.3 -124.8C203.4 162.7 233.6 81.1 294.1 65.2c60.4 -15.9 128.1 39.9 151.2 124.7 23.2 84.8 -7.1 166.5 -67.5 182.4zM927.4 315c56.9 13.6 86.5 79.5 66.2 147.1C973.3 529.8 910.7 573.6 853.8 560S767.3 480.6 787.6 412.9C808 345.2 870.5 301.4 927.4 315zm-305.2 57.3C561.8 356.4 531.5 274.7 554.7 189.9 577.8 105.1 645.5 49.3 705.9 65.2c60.5 15.9 90.7 97.5 67.6 182.3 -23.1 84.8 -90.9 140.7 -151.3 124.8z"/></svg>