<svg height="1000" width="750" xmlns="http://www.w3.org/2000/svg"><path d="M217.6 577.9c-6.9 37.5 -34 212.3 -42 261.7 -.6 3.6 -2 4.9 -5.9 4.9H24C9.2 844.5 -1.6 831.6 .4 817.4L114.8 91c3 -18.7 19.8 -33 39.1 -33 297.5 0 322.5 -7.2 398.4 22.3 117.4 45.5 128.2 155.2 86 274 -42 122.3 -141.6 174.8 -273.7 176.4C279.9 532 228.9 517 217.6 577.9zm479.9 -281c55.4 41.4 59.1 112.9 46.4 180.8C711.7 640.8 603.5 697.1 464.8 697.1c-29.3 0 -48.2 -4.5 -57.2 38.4 -30.3 190.3 -26.7 167.8 -28.1 178.4 -3.3 16.8 -17.2 29.1 -34 29.1h-124c-13.9 0 -22.7 -11.4 -20.7 -25.2 0 0 8.8 -57.3 52.9 -331.5C255.3 574.4 263.1 568 275 568c105.5 0 321.5 19.3 399.4 -203 7.2 -21.6 13.3 -43.3 17.2 -65.6 1 -6 2.3 -5.1 5.9 -2.5z"/></svg>