<svg height="1000" width="875" xmlns="http://www.w3.org/2000/svg"><path d="M781.3 937.5H93.8C42 937.5 0 895.5 0 843.8V156.3C0 104.5 42 62.5 93.8 62.5h687.5c51.7 0 93.7 42 93.7 93.8v687.5c0 51.7 -42 93.7 -93.7 93.7zM465 347.5l-265 265L187.7 724c-1.6 14.9 10.9 27.6 26 26l111.5 -12.3 265 -265c4.5 -4.5 4.5 -12 0 -16.6L481.8 347.7C477 343 469.5 343 465 347.5zm208.8 -25L615 263.7c-18.3 -18.4 -48 -18.4 -66.2 0l-45.1 45.1c-4.5 4.5 -4.5 11.9 0 16.6l108.4 108.4c4.5 4.5 11.9 4.5 16.6 0l45.1 -45.1c18.2 -18.2 18.2 -47.9 0 -66.2z"/></svg>