<svg height="1000" width="1000" xmlns="http://www.w3.org/2000/svg"><path d="M213.8 476.6L18.1 281C-6.1 256.8 -6 217.6 18.1 193.4L193.4 18.1c24.2 -24.2 63.4 -24.2 87.6 0l65.7 65.8L226.2 204.3c-6 6.1 -6 15.9 0 21.9l21.9 21.9c2.5 2.5 7.4 4.6 11 4.6 3.5 0 8.4 -2.1 10.9 -4.6L390.5 127.7l86.1 86.1zM972.5 248.5l-89.9 89.9L661.5 117.3l89.9 -89.8c36.7 -36.7 96.1 -36.7 132.7 0l88.4 88.3c36.6 36.7 36.7 96.1 0 132.7zm-355.2 -87l221.1 221.1 -579.9 580L48.7 999.4c-28.4 4.9 -53 -19.7 -48.1 -48L37.3 741.5zM981.9 719c24.2 24.2 24.2 63.4 0 87.6L806.6 981.8c-24.2 24.2 -63.4 24.2 -87.6 0L523.3 786.1 786.2 523.3l86.2 86.2L751.9 730c-6 6 -6 15.8 0 21.9l21.9 21.9c6 6 15.8 6 21.9 0L916.2 653.3z"/></svg>