<svg height="1000" width="1000" xmlns="http://www.w3.org/2000/svg"><path d="M972.5 277.5l-90.1 90.1c-9.2 9.2 -24 9.2 -33.2 0L632.4 150.8c-9.2 -9.2 -9.2 -24 0 -33.2l90.1 -90.1C759 -9 818.4 -9 855.1 27.5l117.4 117.4c36.7 36.5 36.7 95.9 0 132.6zM555.1 194.9c9.2 -9.2 24 -9.2 33.4 0l216.8 216.8c9.2 9.2 9.2 24 0 33.2L292.4 957.8 55.1 999.4C23 1004.9 -4.9 977.1 .8 945.1L42.2 707.8zm-312.7 469c10.7 10.7 27.9 10.7 38.7 0L581.8 363.1c10.8 -10.8 10.8 -27.9 0 -38.7s-27.9 -10.7 -38.6 0L242.4 625.2c-10.8 10.7 -10.8 27.9 0 38.7zm-70.5 164.2v-93.7H101l-22.1 126 60.7 60.7 126 -22.1v-70.9h-93.7z"/></svg>