<svg height="1000" width="1250" xmlns="http://www.w3.org/2000/svg"><path d="M824 320.8c14.4 31.8 4.5 9.9 48.1 106.8l-77.6 20.8C821.3 332.7 815.3 358.8 824 320.8zm-402.5 99.9c63.5 -17.6 82 73.5 -.7 92.6 -27.7 7.4 -12.9 3.4 -68 18.2l-8.7 -90.2c55.3 -14.7 38 -10.1 77.4 -20.6zm637.1 -51.2c148 74.1 191.4 149.1 191.3 204.1 4.1 154 -358 254.5 -781 165.6 1.1 25.4 -15.6 48.2 -40.2 54.8 -245.2 65.5 -229.2 62 -239.3 62 -28.1 0 -51.6 -21.3 -54.3 -49.2l-8.4 -86.9c-.1 -1.4 -.2 -3.7 -.2 -5.1 0 -20.7 15.6 -43.5 34.9 -50.9L158 629C59.9 573.8 0 508.1 0 442.7 0 300.3 281.8 221.2 604.3 250.6c5.3 -14.7 21.8 -30 36.9 -34C830.4 166 768.8 182.4 906 145.8c25.7 -6.8 52.6 5.8 63.7 30zM498.3 582.6c34.2 -7.9 78.6 -37.4 99.1 -65.8 42.2 -63.7 27.6 -206.2 -83.1 -204 -31.3 .4 -15.7 -1.7 -363.7 91.1l8.5 86.9 39.3 -10.5 21.7 223.9L181 714.6l8.4 87 225.2 -60.1 -8.8 -86.9 -40.1 10.7 -4.8 -46 94.6 -25.2zm389 32.5l212.1 -56.6 -8.4 -86.9 -40.6 10.9L920.1 198.4c-137.8 36.8 -82.4 22 -264.8 70.8l8.2 86.8 33.5 -8.9 -64.6 247 -41 11 8.7 86.7 220.4 -58.7 -7.9 -77.2 -37.5 10 8 -34.3 112.8 -30.1 12.9 28.7 -29.1 7.7z"/></svg>