<svg height="1000" width="1250" xmlns="http://www.w3.org/2000/svg"><path d="M250 187.5c-51.8 0 -93.7 -42 -93.7 -93.7S198.2 0 250 0s93.8 42 93.8 93.8 -42 93.7 -93.8 93.7zm750 0c-51.8 0 -93.7 -42 -93.7 -93.7S948.2 0 1000 0s93.8 42 93.8 93.8 -42 93.7 -93.8 93.7zm245.5 726.8c12.9 32 -2.7 68.3 -34.8 81.2 -7.6 3.1 -15.4 4.5 -23.2 4.5 -24.8 0 -48.2 -14.8 -58 -39.3l-54.1 -135.1 3.9 -35.6 80.3 -90.6zm-66.8 -409.8c9 39.1 -1.6 80.5 -28.1 110.7l-131.3 148.3 -19.7 180.8c-3.5 32.1 -30.7 55.7 -62.1 55.7 -2.3 0 -4.5 -.2 -6.8 -.4 -34.2 -3.7 -59 -34.6 -55.3 -68.9l19.7 -181.3c2.9 -25.4 13.5 -49 30.5 -68.3l84.6 -95.7L975.8 448l-13.3 39.9c-8 24.6 -23.2 45.7 -47.9 63.7L814.8 615c-8.9 5.7 -23.6 9 -33.6 9.8H468.7c-9.9 -.8 -24.6 -4.1 -33.5 -9.8l-99.8 -63.4c-24.7 -18 -39.9 -39.3 -47.9 -63.7L274.2 448l-34.4 137.4 84.6 95.7c17 19.3 27.6 42.9 30.5 68.3l19.7 181.3c3.7 34.3 -20.9 65.2 -55.3 68.9 -2.3 .2 -4.5 .4 -6.8 .4 -31.6 0 -58.6 -23.8 -62.1 -55.7L230.7 763.5 99.4 615.2C72.7 585 62.3 543.6 71.3 504.5l35.9 -156.6c9 -39.1 36.4 -71.9 73.3 -87.7 36.1 -15.7 75.9 -13.1 109.5 6.4 44.4 26.2 77.8 67.2 94 116l22.1 66.2 31.4 20V281.3c0 -17.2 14.1 -31.3 31.2 -31.3h312.5c17.2 0 31.3 14.1 31.3 31.3v187.5l31.2 -20 22.1 -66.2c16.4 -48.6 49.6 -89.8 94 -116 33.4 -19.5 73.4 -22.1 109.5 -6.4 37 15.8 64.3 48.6 73.3 87.7zM90.4 699.4l80.3 90.6 3.9 35.6 -54.1 135.1c-12.7 31.5 -48.4 47.7 -81.2 34.8C7.2 982.6 -8.4 946.3 4.5 914.3z"/></svg>