<svg height="1000" width="1125" xmlns="http://www.w3.org/2000/svg"><path d="M187.5 250c-69 0 -125 -56 -125 -125S118.5 0 187.5 0s125 56 125 125 -56 125 -125 125zm0 343.9v.2c0 20.4 11.9 48.3 26.6 62.3l98.4 92.8v188.3c0 34.5 -28 62.5 -62.5 62.5H125c-34.5 0 -62.5 -28 -62.5 -62.5v-250C28 687.5 0 659.5 0 625V437.5c0 -69 56 -125 125 -125h125c46.8 0 98.8 35.4 116 79 -3.6 2.4 -7.8 3.9 -11 6.9l-140.9 133c-14.7 14.1 -26.6 42 -26.6 62.3v.2zM937.5 250c-69 0 -125 -56 -125 -125S868.5 0 937.5 0s125 56 125 125 -56 125 -125 125zm62.5 62.5c69 0 125 56 125 125V625c0 34.5 -28 62.5 -62.5 62.5v250c0 34.5 -28 62.5 -62.5 62.5H875c-34.5 0 -62.5 -28 -62.5 -62.5V749.3l98.4 -92.9c14.7 -14.1 26.6 -42.1 26.6 -62.5s-11.9 -48.4 -26.6 -62.5L770 398.5c-3.2 -3.1 -7.4 -4.6 -11 -7.1 17.2 -43.5 69.2 -78.9 116 -78.9h125zM868 576.8c3.8 3.9 7 11.6 7 17.1s-3.2 13.1 -7 17.1L727.1 743.9c-3.7 3.6 -11 6.5 -16.2 6.5 -12.9 0 -23.4 -10.5 -23.4 -23.5v-70.6h-250v70.6c0 13 -10.5 23.5 -23.4 23.5 -5.2 0 -12.5 -2.9 -16.2 -6.5L257 611c-3.8 -4 -7 -11.6 -7 -17.1s3.2 -13.2 7 -17.1L397.9 443.9c3.7 -3.6 11 -6.5 16.2 -6.5 12.9 0 23.4 10.5 23.4 23.5v70.4h250v-70.4c0 -13 10.5 -23.5 23.4 -23.5 5.2 0 12.5 2.9 16.2 6.5z"/></svg>