<svg height="1000" width="1000" xmlns="http://www.w3.org/2000/svg"><path d="M645.8 513.9h209.9l72.4 75.3C833.3 760 524.7 1000 109.4 1000 49 1000 0 951 0 890.6S49 781.3 109.4 781.3c276.5 0 319.2 -354 433.4 -489.9l103 47.3v175.2zM901.9 263.2c54.1 49.4 98.1 148.9 98.1 222.2v.3c0 26.7 -4.5 52.2 -10.9 76.8L882.3 451.4h-174V298.6l-145.8 -67c43.6 -27.4 94.4 -44.1 149.1 -44.1 32.2 0 82.2 10.5 111.6 23.4C859.3 138.2 839.4 89.8 826 69.6c-1.6 -2.2 -2.8 -6.2 -2.8 -8.9 0 -3.6 2 -8.5 4.5 -11.1L872.4 4.7C875 2.1 880 0 883.6 0c4.1 0 9.6 2.6 12.1 5.9 36.3 45.8 69 140.4 6.2 257.3z"/></svg>