<svg height="1000" width="875" xmlns="http://www.w3.org/2000/svg"><path d="M218.8 437.5C97.9 437.5 0 339.6 0 218.8S97.9 0 218.8 0s218.7 97.9 218.7 218.8S339.6 437.5 218.8 437.5zm0 -312.5C167 125 125 167 125 218.8s42 93.7 93.8 93.7 93.7 -42 93.7 -93.7S270.5 125 218.8 125zm437.5 437.5c120.8 0 218.7 97.9 218.7 218.8S777.1 1000 656.3 1000 437.5 902.1 437.5 781.3 535.4 562.5 656.3 562.5zm0 312.5C708 875 750 833 750 781.3s-42 -93.8 -93.7 -93.8 -93.8 42 -93.8 93.8 42 93.7 93.8 93.7zM766.2 .4l61.7 -.2C865.8 0 888.3 42.8 866.4 74L151.2 979.7c-7.7 11 -24.9 19.9 -38.3 19.9l-65.2 .2C9.6 999.8 -12.7 957 9.2 926L727.9 20.3C736.7 7.8 751 .4 766.2 .4z"/></svg>