<svg height="1000" width="875" xmlns="http://www.w3.org/2000/svg"><path d="M722.7 124.2c75 79.5 116.2 184.2 116.2 294.6 0 145.1 -112.1 311.5 -160.2 376.1C663.1 816 523.8 1000 442.6 1000 376.2 1000 269.1 889.7 197.7 795.1 149 730.9 36.1 565.4 36.1 418.8 36.1 187.9 218.6 0 442.6 0c105.3 0 204.7 44.1 280.1 124.2zM442.6 964.6c72.8 0 360.9 -326.7 360.7 -545.7C803.3 209.4 639.5 35.5 442.6 35.5 235.4 35.5 71.5 209.2 71.5 418.9c0 219 288.1 545.7 371.1 545.7zM660.2 403.9c0 115.4 -99.8 214.3 -216.4 214.3C247.3 618.2 149.4 406.8 262.3 263.1v.8c0 47.8 39.3 86.7 87.5 86.7s87.5 -38.9 87.5 -86.7c0 -35.6 -21.7 -66 -52.5 -79.5 149.6 -37.5 275.4 76.7 275.4 219.5z"/></svg>