<svg height="1000" width="1125" xmlns="http://www.w3.org/2000/svg"><path d="M375 968.8V625h125v343.8c0 17.1 -14.1 31.2 -31.2 31.2h-62.5C389.1 1000 375 985.9 375 968.8zm62.5 -531.3c34.6 0 62.5 27.9 62.5 62.5s-27.9 62.5 -62.5 62.5H325.2c-25 0 -48.4 -9.8 -66.2 -27.5l-40.8 -40.9v157.5l80.4 119.7c8.6 17.2 13.1 36.5 13.1 55.8v110.4c0 34.6 -27.9 62.5 -62.5 62.5s-62.5 -27.9 -62.5 -62.5V828.1l-56.8 -84c-1.8 -.7 -3.1 -2.3 -4.9 -3.3l-.2 196.7c0 34.6 -28.1 62.5 -62.5 62.5S0 972.1 0 937.5L.4 625 0 437.7c0 -33.4 13.1 -64.8 36.5 -88.5C60.2 325.6 91.6 312.5 125 312.5h36.5c33.2 0 64.7 12.9 88.3 36.5l88.3 88.5h99.4zM125 250C73.2 250 31.3 208 31.3 156.3S73.2 62.5 125 62.5s93.8 42 93.8 93.8S176.8 250 125 250zM562.5 62.5V0h375v812.5c0 34.6 -27.9 62.5 -62.5 62.5s-62.5 -27.9 -62.5 -62.5c0 34.6 -27.9 62.5 -62.5 62.5 -33.4 0 -60.2 -26.4 -61.9 -59.4C679.7 857.2 654.7 875 625 875c-35.9 0 -69.7 -32.6 -61.3 -74.8l60.3 -302zm-187.5 0C375 27.9 402.9 0 437.5 0H500v375H375V62.5zM1062.5 0c34.6 0 62.5 27.9 62.5 62.5v906.3c0 17.1 -14.1 31.2 -31.2 31.2h-62.5c-17.2 0 -31.3 -14.1 -31.3 -31.2V0h62.5z"/></svg>