<svg height="1000" width="968.8" xmlns="http://www.w3.org/2000/svg"><path d="M630.9 511.9s42.1 38.3 40.8 40.4L655.9 591c-1 2.8 -58 1 -58 1l-17.8 17.8s3.1 61.5 .4 62.7l-39.1 14.6c-2.5 1 -42.6 -45.5 -42.6 -45.5l-25.6 -.4s-37.7 47.1 -40.4 45.9l-39.2 -16.2c-2.8 -1 -2.4 -63.1 -2.4 -63.1l-18.3 -18.2s-56.5 1.8 -57.7 -.9l-18.5 -39.1c-1.2 -2.7 41.2 -41.4 41.2 -41.4l-.2 -25.2s-42.2 -38.3 -41 -41l15.8 -38.7c1 -2.5 58 -.8 58 -.8l17.8 -17.7s-3.1 -55.5 -.4 -56.5L427 312.1c2.7 -1.2 42.7 40.6 42.7 40.6l25.6 .4s37.7 -42.2 40.4 -41l39.3 18c2.7 1.1 2.3 56.8 2.3 56.8l18.4 18.2s56.4 -1.8 57.6 1l18.6 39c1.1 2.8 -41.2 41.4 -41.2 41.4zm-87.7 -17c-1.4 -33.2 -30.3 -59.2 -64.1 -57.6 -33.8 1.4 -60.2 29.7 -58.8 63.1 1.4 33.4 30.3 59.4 64.1 57.8s60.1 -29.9 58.8 -63.3zm392.9 -74c43.6 43.6 43.6 114.6 0 158.2C804.5 710.7 849.6 665.8 750 765.2 604.7 910.7 369.7 911.5 223 768.4l-.1 .2C123.2 668.9 169.1 714.6 32.6 579.1c-43.5 -43.6 -43.5 -114.6 0 -158.2C165.2 289.3 120.1 334.4 219.5 234.8 364.8 89.5 599.8 88.5 746.5 231.6l.2 -.2zM274.2 710.5c116.4 116.3 304.7 116.5 421.1 .2 116.4 -116.4 116.2 -304.8 0 -421.1C578.9 173.4 390.4 173.2 274.2 289.6c-116.4 116.3 -116.4 304.7 0 420.9z"/></svg>