<svg height="1000" width="1000" xmlns="http://www.w3.org/2000/svg"><path d="M187.5 123.8C278.3 53.2 393.7 14.3 508.8 17.2c57.8 -.7 115.5 10.5 169.8 29.9 -47.2 -9 -95.7 -12.3 -143.4 -4.7C451.5 52.7 373 95.4 316.8 157.9c11.1 -1.9 21.1 -7.1 31.3 -11.4 35.4 -15.4 73.2 -25.9 111.7 -29 38.6 -4.1 77.5 -.8 115.8 3.8 -28.1 5.4 -56.8 8.9 -84 18.7 -67.2 21.6 -127.4 64.8 -168.5 122.3 -27 38.5 -46.2 83.8 -48.2 131.2 -.7 32.2 10.2 67.9 38.7 85.9 13.7 8.3 37.8 15 53.9 15 5.4 0 14.1 -.8 19.4 -1.8 30.2 -4.8 58.7 -16.9 85.2 -31.9 22.5 -13.4 44.2 -28.5 62.5 -47.4 7.4 -6.3 4.9 -16.5 5.1 -25 -4.2 -.6 -8.6 -2.1 -12.3 .6 -18.5 10.2 -49.9 23.6 -70 30 -39 12.1 -82.3 16.5 -121.3 1.5 25 3.4 50.9 .7 73.7 -10.6 39.6 -19 71.9 -49.2 106.4 -75.7 44.9 -34.6 122.7 -83 173.6 -108C740 202.6 793.2 181.6 849.1 179c-30.5 26.8 -62.8 51.8 -91.3 80.8 -28.4 27.3 -53.7 57.6 -78.4 88.2 -6.9 9 -17.5 13.6 -26.5 19.9 -36.8 24.7 -82.2 77.3 -101.4 117.4 -18.2 38.4 -28.3 81.7 -22.9 124.3 3.7 26.7 17 53.9 40.8 68.2 25.2 15.6 56.7 15.7 84.9 9.9 64.1 -14.5 120 -56.4 158.2 -109 39.9 -53.8 59.6 -121.5 57 -188.2 -1.1 -14.7 -3.1 -29.3 -3.3 -44 15.6 38.1 29 77.6 32.5 118.9 3.9 27.8 1.5 56.1 -3.1 83.7 -3.8 21.5 -11.1 42.1 -15.2 63.4 33.6 -37.7 68 -108.6 76.8 -158.4 2.4 -15.3 4.4 -40.4 4.4 -55.9 0 -42.9 -14.4 -109.4 -32.1 -148.4 40.5 62.5 63.1 135.9 69.7 209.9 1 24.9 1 49.8 0 74.7 -4.6 56.1 -30.5 141.6 -57.8 190.9 -51 92.4 -132.8 167.2 -228.9 210.9C559.6 1007 371.3 997.4 228.1 907.5 163.9 868.2 83.9 781.9 49.5 714.8 25.5 667.6 3.3 586.3 0 533.4v-61.3C7.7 335.9 79.8 206.7 187.5 123.8zm433.6 156.9c8.9 -1.5 22.9 -5.4 31.2 -8.8 9.8 -3.4 18.1 -11.6 20.2 -21.9 -17.5 9.8 -35.1 19.4 -51.4 30.7z"/></svg>