<svg height="1000" width="750" xmlns="http://www.w3.org/2000/svg"><path d="M190.1 990.2C-63.6 736.5 -63.2 325.6 190.1 72.3c11.1 -11.1 28.4 -12.9 41.5 -4.7l126.6 79.1c8.7 5.5 15.8 18.2 15.8 28.5 0 3.6 -1.1 9.1 -2.4 12.5l-63.3 158.2c-4.7 11.7 -18.6 21.1 -31.2 21.1 -.9 0 -2.4 -.1 -3.3 -.2l-109 -10.9c-41.1 113.8 -40.3 239.2 0 350.7l109 -10.9c.9 -.1 2.4 -.2 3.3 -.2 12.6 0 26.6 9.4 31.2 21.1l63.3 158.2c1.3 3.4 2.4 8.9 2.4 12.5 0 10.3 -7.1 23 -15.8 28.5l-126.6 79.1c-4.5 2.8 -12.4 5.1 -17.8 5.1 -7.6 0 -18.3 -4.4 -23.7 -9.8zM482.7 186.5c23.1 39.1 23.1 87.9 0 127 -7.7 13.1 -25.6 15.6 -36.6 5.1l-11.7 -11.2c-7.6 -7.3 -9.3 -18.8 -4.4 -28.2 4 -7.5 7.3 -20.6 7.3 -29.2 0 -8.6 -3.3 -21.7 -7.3 -29.2 -4.9 -9.4 -3.2 -20.9 4.4 -28.2l11.7 -11.2c11 -10.5 28.9 -8 36.6 5.1zM661.9 8.4c117.5 139.8 117.4 343.5 0 483.2 -8.7 10.4 -24.4 11.3 -34.2 1.9l-11.4 -10.9c-8.9 -8.5 -9.7 -22.5 -1.8 -32 97.1 -116.3 97 -285 0 -401.2 -7.9 -9.5 -7.1 -23.5 1.8 -32L627.7 6.5c9.8 -9.4 25.5 -8.5 34.2 1.9zm-89.7 87.7c70.4 90.5 70.5 217.1 0 307.8 -8.6 11 -24.8 12.2 -34.9 2.5l-11.4 -10.9c-8.6 -8.2 -9.8 -21.7 -2.5 -31.1 51.8 -67.5 51.8 -161.3 0 -228.8 -7.3 -9.4 -6.1 -22.9 2.5 -31.1l11.4 -10.9c10.1 -9.7 26.3 -8.5 34.9 2.5z"/></svg>