<svg height="1000" width="875" xmlns="http://www.w3.org/2000/svg"><path d="M781.3 62.5c51.7 0 93.7 42 93.7 93.8v687.5c0 51.7 -42 93.7 -93.7 93.7H93.8C42 937.5 0 895.5 0 843.8V156.3C0 104.5 42 62.5 93.8 62.5h687.5zm-32.1 600.3c.4 -1.8 .8 -4.7 .8 -6.6 -.5 -10.3 -8.5 -22.3 -17.8 -26.9L595.5 570.7c-3 -1.2 -8.2 -2.2 -11.5 -2.3 -7.5 .4 -17.6 5.2 -22.7 10.7l-60.5 74C419.6 614.8 322.7 517.9 284.4 436.7l74 -60.5c5.5 -5.1 10.3 -15.2 10.7 -22.7C369 350.2 368 345 366.8 342L308.2 205.3c-4.6 -9.3 -16.6 -17.3 -27 -17.8 -1.8 0 -4.7 .4 -6.5 .8l-127 29.3c-12.1 3.2 -22.3 16 -22.7 28.5 0 313.1 253.9 566.4 566.4 566.4 12.9 0 25.7 -10.2 28.5 -22.7z"/></svg>