<svg height="1000" width="875" xmlns="http://www.w3.org/2000/svg"><path d="M781.3 62.5c51.7 0 93.7 42 93.7 93.8v687.5c0 51.7 -42 93.7 -93.7 93.7H93.8C42 937.5 0 895.5 0 843.8V156.3C0 104.5 42 62.5 93.8 62.5h687.5zm-597.7 750C496.2 812.5 750 559.2 750 246.1c0 -12.9 -10.2 -25.7 -22.7 -28.5l-127 -29.3c-1.8 -.5 -4.7 -.8 -6.6 -.8 -10.6 0 -22.7 8 -26.9 17.8L508.2 342c-1.3 3 -2.3 8.2 -2.3 11.5 0 7.7 4.8 17.8 10.7 22.7l74 60.5C546.7 530.3 469.8 608.3 374.2 653.1l-60.5 -74c-4.9 -5.9 -15 -10.7 -22.7 -10.7 -3.3 0 -8.5 1 -11.5 2.3l-136.7 58.6C133 633.5 125 645.6 125 656.2c0 1.9 .3 4.8 .8 6.6l29.2 127c3.1 13.2 14.9 22.7 28.6 22.7z"/></svg>