<svg height="1000" width="1250" xmlns="http://www.w3.org/2000/svg"><path d="M1187.5 0c34.5 0 62.5 28 62.5 62.5v625c0 34.5 -28 62.5 -62.5 62.5h-250V125h-375v125H250V62.5C250 28 278 0 312.5 0h875zM453.1 201.2v-58.6c0 -9.7 -7.9 -17.6 -17.6 -17.6H377c-9.7 0 -17.6 7.9 -17.6 17.6v58.6c0 9.7 7.9 17.6 17.6 17.6h58.5c9.7 0 17.6 -7.9 17.6 -17.6zm687.5 406.2v-58.6c0 -9.7 -7.9 -17.5 -17.6 -17.5h-58.5c-9.7 0 -17.6 7.8 -17.6 17.5v58.6c0 9.7 7.9 17.6 17.6 17.6h58.5c9.7 0 17.6 -7.9 17.6 -17.6zm0 -203.1v-58.6c0 -9.7 -7.9 -17.6 -17.6 -17.6h-58.5c-9.7 0 -17.6 7.9 -17.6 17.6v58.6c0 9.7 7.9 17.6 17.6 17.6h58.5c9.7 0 17.6 -7.9 17.6 -17.6zm0 -203.1v-58.6c0 -9.7 -7.9 -17.6 -17.6 -17.6h-58.5c-9.7 0 -17.6 7.9 -17.6 17.6v58.6c0 9.7 7.9 17.6 17.6 17.6h58.5c9.7 0 17.6 -7.9 17.6 -17.6zM812.5 312.5c34.5 0 62.5 28 62.5 62.5v562.5c0 34.5 -28 62.5 -62.5 62.5h-750C28 1000 0 972 0 937.5V375c0 -34.5 28 -62.5 62.5 -62.5h750zm-625 125c-34.5 0 -62.5 28 -62.5 62.5s28 62.5 62.5 62.5S250 534.5 250 500s-28 -62.5 -62.5 -62.5zM750 875V687.5L562.5 500l-250 250L250 687.5l-125 125V875h625z"/></svg>