<svg height="1000" width="1250" xmlns="http://www.w3.org/2000/svg"><path d="M625 204.1C290.4 204.1 32.8 345.1 32.8 500S290.2 795.9 625 795.9c334.6 0 592.2 -141 592.2 -295.9S959.8 204.1 625 204.1zm0 -32.8c345.1 0 625 147.1 625 328.7S970.1 828.7 625 828.7 0 681.6 0 500 279.9 171.3 625 171.3zM426.2 473.6c14.4 -75 -36 -67 -110.2 -67l-26.7 137.9c67 0 121.4 8.2 136.9 -70.9zm-236 210.6l63.9 -329.5h138.1c41.4 0 71.9 10.7 90.8 32.6 36.3 41.8 23.1 125.2 -27.9 172.1 -46.1 43.1 -95.9 37.3 -176.2 37.3l-17 87.5h-71.7zM552.9 267h71.3l-17 87.5c61.6 0 118.6 -4.5 146.1 20.9 28.9 26.6 15.1 60.5 -16.2 220.9h-72.3c30.1 -155.1 35.8 -168 24.8 -179.7 -10.5 -11.3 -34.5 -9 -92.5 -9l-36.7 188.7h-71.3zm433.4 206.6c14.5 -75 -35.5 -67 -110.1 -67l-26.8 137.9c65.2 0 121.3 9.4 136.9 -70.9zM750.4 684.2l64.1 -329.5h138c41.4 0 71.9 10.7 90.9 32.6 36.3 41.8 23 125.2 -28 172.1 -45.1 42.2 -91.8 37.3 -176.1 37.3l-17 87.5h-71.9z"/></svg>