<svg height="1000" width="937.5" xmlns="http://www.w3.org/2000/svg"><path d="M890.5 45.3c18.4 -4.7 29.4 20 13.6 30.6C712.3 204.7 668.9 325.1 657.6 388.8c-65.5 368.9 -198 233 -360 442.7 43.9 25.2 120.6 45.7 171.2 45.7 190.7 0 345.8 -155.2 345.8 -345.9 0 -72.6 -39.2 -175.3 -87.5 -229.4 7.6 -15.7 22.4 -39.7 33.2 -53.5C823.6 313.5 875 440 875 530.8v.4c0 224.4 -181.9 406.3 -406.2 406.3S62.5 755.6 62.5 531.2 244.4 125 468.8 125c58.4 0 147 23.3 197.9 52.1C757.4 101 838.3 58.6 890.5 45.3zM244.1 793.8C370.6 518.6 489.5 341.3 618.4 220c-39 -19.1 -106 -34.6 -149.5 -34.6h-.1C278 185.4 122.9 340.5 122.9 531.3c0 87.9 54.3 205.5 121.2 262.5z"/></svg>