<svg height="1000" width="1125" xmlns="http://www.w3.org/2000/svg"><path d="M476.6 480.5l-54.1 11.1 -3.4 -9.6c13.1 -.9 24.8 -7.2 37.7 -7.2 7.5 0 13.5 1.8 19.8 5.7zM742 867c18.5 0 55.1 88.1 64.4 107.6 -70.1 26.2 -137.3 31.1 -207 19.1l-13.5 -88C616.8 885.5 704.9 867 742 867zM665.6 345.7c-14.8 -6.8 -124.8 -12.5 -192.9 19.5 12.3 -23 25.7 -33.2 50.5 -42.5 53.4 -20.2 78.6 -59.6 115.1 -99.8 23.2 16.4 23.4 48 61.7 44.9v42.6l12.3 .5C785.4 282.8 858.2 252 920.5 204.3 1014.8 132.4 1023.8 106.6 1079.3 9l3.9 -5.1c-1.2 27.5 -12.3 53.3 -24.2 77.9 -59.6 124.6 -153.7 195.9 -286.7 228 -24.3 5.6 -51.6 6.2 -73.5 17.3 2.8 19.2 25.8 35.4 25.8 45 0 6.6 -10.7 14 -14.6 16.8 -21.9 -25.2 -31.5 -37.7 -44.4 -43.2zM1085 0l-.6 2.7 -1.2 1.2 .6 -1.8zM969.3 746.3c39.3 66.8 85.4 106 142 156 -60.5 37.7 -137.5 62.9 -202.1 92.2 -107.8 -90.4 -44.9 -449 -217.8 -449 -6.8 1.4 -4.7 .6 -9 3.3 2.2 2.8 5.1 5.7 7.2 7.8 46.7 39.3 65.3 47.7 68 114.5l.6 18.5c1.6 42.2 -10.7 83.1 -19.1 124.1 -50.6 -1.4 -100 21.5 -152.2 5.6 -1.4 -11.5 -2.1 -60.3 .6 -80.2 2.7 -18.6 65.6 -58.4 64.5 -85.4 -10.8 -1.2 -18 5.1 -24.3 13.5C601.8 705.3 535.5 749 488.5 749c-32.4 0 -110 -139.6 -149.2 -167.7C333 576.8 329.1 570.7 324 564.5c-31.4 7.4 -272.2 62.8 -287.9 62.8 -11.7 0 -22.4 -9.5 -22.4 -21.2 0 -10.8 6.6 -20.9 17.4 -23.1l272.6 -59.4c-18.5 -33.6 24 -34.1 42 -39.2 6.3 -1.6 12.3 -7.8 18.6 -7.8 12.3 0 23 17.3 26.9 27.5 12.3 -2.7 89.3 -20.7 96.5 -20.7 29.7 0 31.1 39.3 5.7 44.3l-102.2 22.5 -.6 9c-.6 19.7 88.7 117.4 104.3 117.4 35.4 0 107.3 -81.5 107.3 -117.4 0 -60 -83.6 -24.6 -83.6 -65.6 0 -6.9 2.3 -12.9 5.6 -19.2l-38.1 -10.7c25.6 -26.6 27 -61.9 21.3 -98.3 28.7 -5.6 52.2 -9 80.9 -9 111.1 0 89.2 16.8 127.9 106.1l28.1 -14.1c-4.5 66.8 -70.7 34.2 -68.5 60.6l.6 11.7C822.3 515 903.1 635.2 969.3 746.3zm-383.2 90h17.4l5.7 46.5 -23.1 6.7v-53.2zM452 542.6l26.9 -6.9 61.1 99.5 -41 26.9zm164.8 302.5c44.1 -4.9 63.9 -12.3 116.2 -12.3 .6 2.7 1.8 6.3 1.8 9 0 14.6 -96.5 24.6 -114.1 27.5z"/></svg>