<svg height="1000" width="875" xmlns="http://www.w3.org/2000/svg"><path d="M401 341c0 41.2 -27.8 74.4 -61.9 74.4 -13.9 0 -25 -2.3 -33.6 -7.2V275.4c8.6 -5.3 19.7 -8.2 33.6 -8.2 34.1 0 61.9 33 61.9 73.8zm102.7 130.9c34 0 61.9 33.2 61.9 74.4 0 40.8 -27.9 73.8 -61.9 73.8 -13.9 0 -25 -2.3 -33.6 -7.2V480.1c8.6 -5.3 19.7 -8.2 33.6 -8.2zM875 156.3v687.5c0 51.7 -42 93.7 -93.7 93.7H93.8C42 937.5 0 895.5 0 843.8V156.3C0 104.5 42 62.5 93.8 62.5h687.5c51.7 0 93.7 42 93.7 93.8zM361.3 498.2c80.1 0 145 -69.5 145 -155.4S441.4 187.3 361.3 187.3c-23.4 0 -47 6.3 -67.5 17.2h-89.3v402.9l101.2 -19.7v-98.8c16.8 6 35.3 9.3 55.6 9.3zm309.4 49.5c0 -86 -64.8 -155.5 -144.3 -155.5 -6.3 0 -12.5 .4 -18.8 1.4 -7.2 24.4 -19.7 46.4 -37.5 65.2 -26.9 29.3 -62.9 46.5 -101.2 48.4v305.3l101.2 -19.7v-98.9c16.8 6.3 35.6 9.2 56.1 9.2 79.7 0 144.5 -69.5 144.5 -155.4z"/></svg>