<svg height="1000" width="1250" xmlns="http://www.w3.org/2000/svg"><path d="M1250 48.6c-157.8 104.7 -174.6 180.7 -188.3 203.9 -13.1 23.9 -22.8 117.8 -45.5 163.3 -22.8 46.1 -105.8 82.4 -129.1 97.7 -22.8 15.2 -55.3 74.4 -81.8 125.4C594.1 630.3 478.3 714.6 299 821.7c57.4 -19 84.6 -32.6 84.6 -32.6 184 -70.4 272.1 -133.4 549 -96.1 2.2 0 3.7 1.1 5.5 1.5 7.6 4.3 10.3 13.5 6 21.1L838.9 902.7c-4.9 9.2 -15.3 14.1 -25.6 11.9C565.6 868.2 370.1 948.4 190.4 951 47.1 953.1 0 885.5 0 882.4c0 -2.1 1.2 -3.3 3.3 -3.3 0 0 74.8 0 201.4 -29.9C348.4 575.2 476.6 479.3 616 479.3c0 0 140.1 0 177 120.9 44.5 -77.5 55.2 -96.1 55.2 -96.1C858.6 485.7 916.6 353.3 1017 227.9c100.6 -125 176.6 -156 233 -179.3z"/></svg>