<svg height="1000" width="1125" xmlns="http://www.w3.org/2000/svg"><path d="M1093.8 437.5c17.1 0 31.2 14.1 31.2 31.3v250c0 17.1 -14.1 31.2 -31.2 31.2h-95.2c-17.5 23.2 -38.1 43.8 -61.1 61.1v157.7c0 17.1 -14.1 31.2 -31.2 31.2h-125C764.1 1000 750 985.9 750 968.8V875H500v93.8c0 17.1 -14.1 31.2 -31.2 31.2h-125c-17.2 0 -31.3 -14.1 -31.3 -31.2V811.1c-75.4 -57 -125 -146.6 -125 -248.6h-78.1C44.3 562.5 -7.6 505.5 1 438.7c7 -55.1 56.6 -95 112.3 -95 6.4 0 11.7 5.3 11.7 11.8v39c0 6.5 -5.3 11.7 -11.7 11.7h-2c-22.6 0 -43.5 15.3 -47.8 37.6 -5.9 29.8 17 56.2 45.9 56.2h84.4C222.9 357.4 348.8 250 500 250h250c15.4 0 30.1 2.3 44.9 4.5 34.4 -40.6 85.2 -67 142.6 -67h62.5L963.1 335c30.8 28.9 55.8 63.4 73 102.5h57.7zm-250 125c17.1 0 31.2 -14.1 31.2 -31.2S860.9 500 843.8 500s-31.3 14.1 -31.3 31.3 14.1 31.2 31.3 31.2zM500 187.5c-32 0 -62.9 4.5 -92.6 12.1 -.2 -4.1 -1.2 -8 -1.2 -12.1C406.2 84 490.2 0 593.7 0s187.5 84 187.5 187.5c0 .6 -.1 1 -.1 1.6 -10.2 -.8 -20.6 -1.6 -31.1 -1.6H500z"/></svg>