<svg height="1000" width="1125" xmlns="http://www.w3.org/2000/svg"><path d="M218.8 62.5c120.8 0 218.7 97.9 218.7 218.8v437.5c0 120.8 -97.9 218.7 -218.7 218.7S0 839.6 0 718.8V281.3C0 160.4 97.9 62.5 218.8 62.5zM312.5 500V281.3c0 -51.8 -42 -93.8 -93.7 -93.8s-93.8 42 -93.8 93.8V500h187.5zm272.9 -58l411.7 411.7c6.8 6.8 6.2 18.4 -1.6 24 -122.1 88.5 -293.2 78.9 -403.1 -31S472.9 565.6 561.3 443.6c5.7 -7.7 17.2 -8.4 24.1 -1.6zm448.8 -37.1c110.1 109.9 119.5 280.8 31 403.1 -5.6 7.6 -17.2 8.4 -24 1.6L629.5 397.9c-6.8 -6.9 -6.3 -18.4 1.6 -24.1 122 -88.4 293.1 -78.9 403.1 31.1z"/></svg>