<svg height="1000" width="875" xmlns="http://www.w3.org/2000/svg"><path d="M875 156.3v687.5c0 51.7 -42 93.7 -93.7 93.7H301.6c19.1 -32 43.7 -78.1 53.5 -115.8C360.9 799.2 385 707.6 385 707.6c15.6 29.9 61.3 55.1 109.9 55.1 144.7 0 248.8 -133 248.8 -298.2 0 -158.4 -129.2 -277 -295.7 -277 -207 0 -316.7 138.9 -316.7 290.2 0 70.3 37.5 157.8 97.2 185.8 9.2 4.3 13.9 2.3 16 -6.5 1.6 -6.6 9.8 -39.2 13.3 -54.3 1.2 -4.8 .6 -8.9 -3.3 -13.6C234.8 565 218.7 520.9 218.7 479.7c0 -105.9 80.1 -208.2 216.7 -208.2 117.7 0 200.3 80.3 200.3 195.1 0 129.7 -65.4 219.5 -150.7 219.5 -47.1 0 -82.3 -38.8 -71.1 -86.7 13.4 -57 39.6 -118.5 39.6 -159.8 0 -103.5 -147.4 -89.2 -147.4 48.9 0 42.4 14.2 71.3 14.2 71.3C259 819.1 249.8 822.5 262.5 935.9l4.3 1.6H93.7C42 937.5 0 895.5 0 843.8V156.3C0 104.5 42 62.5 93.7 62.5h687.5c51.8 0 93.8 42 93.8 93.8z"/></svg>