<svg height="1000" width="968.8" xmlns="http://www.w3.org/2000/svg"><path d="M968.8 500c0 267.6 -216.8 484.4 -484.4 484.4 -50 0 -98.1 -7.6 -143.4 -21.7 19.7 -32.2 49.2 -85 60.2 -127 5.8 -22.6 30 -115.2 30 -115.2 15.9 30.1 62 55.7 111 55.7 146.1 0 251.4 -134.4 251.4 -301.4 0 -160 -130.7 -279.7 -298.7 -279.7 -209 0 -320.1 140.3 -320.1 293.2 0 71.1 37.9 159.6 98.2 187.7 9.2 4.3 14.1 2.3 16.3 -6.5 1.5 -6.6 9.7 -39.6 13.4 -54.9 1.2 -4.8 .6 -9.1 -3.3 -13.8 -19.7 -24.4 -35.7 -69 -35.7 -110.6 0 -106.8 80.8 -210.1 218.7 -210.1 119 0 202.4 81 202.4 197C684.8 608.2 618.6 699 532.4 699c-47.4 0 -83.2 -39.2 -71.7 -87.5 13.7 -57.6 40.1 -119.7 40.1 -161.3 0 -37.1 -19.9 -68.2 -61.3 -68.2 -48.7 0 -87.7 50.2 -87.7 117.6 0 43 14.4 71.9 14.4 71.9s-47.8 202.7 -56.6 240.6c-9.8 41.8 -5.9 100.8 -1.8 139.1C127.7 880.7 0 705.3 0 500 0 232.4 216.8 15.6 484.4 15.6S968.8 232.4 968.8 500z"/></svg>