<svg height="1000" width="1000" xmlns="http://www.w3.org/2000/svg"><path d="M310.3 .3c355.3 33.5 648.5 322.1 689.2 675.2 3.7 31.7 -15.4 61.6 -46.1 70.1l-111.2 30.8C826.7 412.4 578.8 168 212.4 157.3L241.3 47.4c8.1 -30.7 37.4 -50.1 69 -47.1zM196.1 219C540 222.9 772 452 780.4 793.5L40.1 998.8c-2.3 .6 -6 1.2 -8.4 1.2C14.2 1000 0 985.8 0 968.3c0 -2.3 .5 -5.9 1.1 -8.1zM250 812.5c34.5 0 62.5 -28 62.5 -62.5s-28 -62.5 -62.5 -62.5 -62.5 28 -62.5 62.5 28 62.5 62.5 62.5zm93.8 -296.9c34.5 0 62.5 -28 62.5 -62.5s-28 -62.5 -62.5 -62.5 -62.5 28 -62.5 62.5 27.9 62.5 62.5 62.5zm203.1 203.2c34.5 0 62.5 -28 62.5 -62.5s-28 -62.5 -62.5 -62.5 -62.5 27.9 -62.5 62.5 28 62.5 62.5 62.5z"/></svg>