<svg height="1000" width="1250" xmlns="http://www.w3.org/2000/svg"><path d="M1212.1 715.9c20.9 9 37.9 34.7 37.9 57.5v195.4c0 17.2 -14 31.2 -31.3 31.2H1000V625zM0 773.4c0 -22.8 17 -48.5 37.9 -57.5L250 625v375H31.2C14 1000 0 986 0 968.8V773.4zM907.1 481.8a62.35 62.35 0 0 1 30.4 53.6V1000H750V812.5c0 -69 -56 -125 -125 -125s-125 56 -125 125V1000H312.5V535.4c0 -19.5 13.6 -43.6 30.4 -53.6L437.5 425V200.4c0 -16.5 6.6 -32.4 18.3 -44.1L602.9 9.2c12.2 -12.2 32 -12.2 44.2 0l147.1 147.1c11.7 11.7 18.3 27.6 18.3 44.1V425z"/></svg>