<svg height="1000" width="1250" xmlns="http://www.w3.org/2000/svg"><path d="M1218.8 875c17.2 0 31.2 14 31.2 31.3v62.5c0 17.2 -14 31.2 -31.2 31.2H31.3C14 1000 0 986 0 968.8v-62.5C0 889 14 875 31.3 875h1187.5zM157.3 666.5L8.5 504.5C-6.4 487 -1 460 19.4 449.6l78.3 -39.7c4.1 -2.1 11.2 -3.8 15.8 -3.8 4.5 0 11.5 1.7 15.6 3.7l141.3 71.3L472 378.8 166.9 187.1C151.1 169.8 156.2 142 177 131.4L305.4 66.3c4.1 -2.1 11.2 -3.8 15.7 -3.8 5.9 0 14.6 2.6 19.5 5.9l427.1 160.3 192.4 -97.6c52.2 -26.5 110.2 -41.9 168.5 -38.1 65.5 4.3 99.7 25.2 113.8 53.6 14.1 28.5 10.2 68.7 -25.5 124.3 -31.9 49.6 -78.7 87.4 -130.9 113.9L517.7 673.2c-15.1 7.7 -41 13.9 -57.9 13.9l-255 .4c-18 0 -35.2 -7.6 -47.5 -21z"/></svg>