<svg height="1000" width="1250" xmlns="http://www.w3.org/2000/svg"><path d="M1218.8 875c17.2 0 31.2 14 31.2 31.3v62.5c0 17.2 -14 31.2 -31.2 31.2H31.3C14 1000 0 986 0 968.8v-62.5C0 889 14 875 31.3 875h1187.5zM87.5 401.7C74.7 390.1 63.3 373.7 63 356.3l-.5 -198.8c.4 -21.3 20.3 -36.5 40.5 -31l77.6 21.1c9.8 2.7 17.7 9.9 21.5 19.4L256 299.6 455.6 354 362 33.2c-.4 -21.7 19.8 -37.7 40.4 -32.1l127.2 34.7c11.1 3 19.8 11.9 22.7 23.2l196.1 374.7 190.4 51.9c51.7 14.1 100.7 39.4 138.3 78.1 42.3 43.5 53.2 79.1 45.7 107.4 -7.5 28.3 -34.3 53.6 -92.3 69.7C978.9 755.2 924 752.2 872.3 738.2L310.6 585.1c-15.5 -4.2 -37.8 -16.4 -49.8 -27.2z"/></svg>