<svg height="1000" width="1250" xmlns="http://www.w3.org/2000/svg"><path d="M63.4 288.8c-.4 -1.8 -.7 -4.9 -.7 -6.8 0 -4.7 1.9 -11.7 4.4 -15.7l634.4 490.3 -130 227.7c-5 8.6 -17.2 15.7 -27.2 15.7H416.4c-17.2 0 -31.2 -14 -31.2 -31.2 0 -2.5 .6 -6.3 1.2 -8.7L482.1 625H281.2l-84.3 112.5c-5.2 6.9 -16.4 12.5 -25 12.5H93.7C76.5 750 62.5 736 62.5 718.8c0 -2.2 .4 -5.6 .9 -7.6L125 500zm1174.5 605.9c6.7 5.2 12.1 16.2 12.1 24.7 0 5.9 -2.9 14.5 -6.6 19.2l-38.3 49.3c-5.2 6.7 -16.3 12.1 -24.7 12.1 -5.9 0 -14.5 -3 -19.2 -6.6L12.1 105.3C5.4 100.1 0 89.1 0 80.6 0 74.7 2.9 66.1 6.6 61.4L44.9 12.1C50.1 5.4 61.2 0 69.6 0c5.9 0 14.5 3 19.2 6.6l369.7 285.7L386.4 39.8c-.7 -2.3 -1.2 -6.1 -1.2 -8.6C385.2 14 399.2 0 416.4 0h128c10 0 22.1 7.1 27.1 15.7L776.8 375H1000c69 0 187.5 56 187.5 125S1069 625 1000 625H888.9z"/></svg>