<svg height="1000" width="1125" xmlns="http://www.w3.org/2000/svg"><path d="M1115 727.1c-22 27.8 -75.7 47.5 -75.7 47.5L638.7 918.4V812.3L933.4 707.2c33.4 -11.9 38.7 -28.9 11.3 -37.9C917.6 660.4 868.4 662.9 835 675l-196.3 69.3V634.2c45.3 -15.3 92 -26.6 147.8 -32.8 79.9 -8.8 177.6 1.1 254.3 30.2 86.3 27.4 96.1 67.8 74.2 95.5zM676.8 546.5V275c0 -31.8 -5.9 -61.1 -35.8 -69.5 -22.8 -7.5 -37.1 13.8 -37.1 45.7v679.5L420.7 872.5v-810C498.6 77 612.1 111.1 673 131.6 828.3 185 880.9 251.4 880.9 400.8c0 145.5 -89.9 200.8 -204.1 145.7zM84.4 801.2C-4.3 776.2 -19.1 724 21.3 694.1c37.3 -27.7 101 -48.6 101 -48.6L385 552.1v106.5l-189.1 67.6c-33.4 11.9 -38.5 28.9 -11.3 37.9 27.1 8.9 76.3 6.4 109.7 -5.7l90.7 -33v95.3C284.2 838.9 186.9 835 84.4 801.2z"/></svg>