<svg height="1000" width="875" xmlns="http://www.w3.org/2000/svg"><path d="M781.3 62.5c51.7 0 93.7 42 93.7 93.8v687.5c0 51.7 -42 93.7 -93.7 93.7H93.8C42 937.5 0 895.5 0 843.8V156.3C0 104.5 42 62.5 93.8 62.5h687.5zm-62.5 492.2V445.3c0 -12.9 -10.6 -23.4 -23.5 -23.4H515.6V242.2c0 -12.9 -10.5 -23.4 -23.4 -23.4H382.8c-12.9 0 -23.4 10.5 -23.4 23.4v179.7H179.7c-12.9 0 -23.4 10.5 -23.4 23.4v109.4c0 12.9 10.5 23.4 23.4 23.4h179.7v179.7c0 12.9 10.5 23.5 23.4 23.5h109.4c12.9 0 23.4 -10.6 23.4 -23.5V578.1h179.7c12.9 0 23.5 -10.5 23.5 -23.4z"/></svg>