<svg height="1000" width="1000" xmlns="http://www.w3.org/2000/svg"><path d="M500 15.6c267.6 0 484.4 216.8 484.4 484.4S767.6 984.4 500 984.4 15.6 767.6 15.6 500 232.4 15.6 500 15.6zm281.3 539.1V445.3c0 -12.9 -10.6 -23.4 -23.5 -23.4H578.1V242.2c0 -12.9 -10.5 -23.4 -23.4 -23.4H445.3c-12.9 0 -23.4 10.5 -23.4 23.4v179.7H242.2c-12.9 0 -23.4 10.5 -23.4 23.4v109.4c0 12.9 10.5 23.4 23.4 23.4h179.7v179.7c0 12.9 10.5 23.5 23.4 23.5h109.4c12.9 0 23.4 -10.6 23.4 -23.5V578.1h179.7c12.9 0 23.5 -10.5 23.5 -23.4z"/></svg>