<svg height="1000" width="875" xmlns="http://www.w3.org/2000/svg"><path d="M522.3 954.2c-10 37.2 -48 45.8 -84.8 45.8s-74.8 -8.6 -84.8 -45.8c-15 -55.5 -40.2 -194.6 -40.2 -259.4 0 -68.6 60.8 -85.4 125 -85.4s125 16.8 125 85.4c0 64.4 -25.1 203.5 -40.2 259.4zM306.4 563.6c5.2 5.1 4.7 13.6 -1.2 17.9 -18.2 13.2 -32.2 30 -41.5 49.6 -3.4 7.1 -12.7 9.1 -18.5 3.6 -54.7 -51.3 -89 -124.2 -89 -205C156.2 271.9 286.9 144 445.6 148.6c148.9 4.2 269.4 125.3 273.1 274.1 2 83.6 -32.6 159.2 -88.9 212.1 -5.8 5.4 -15.1 3.4 -18.5 -3.7C602 611.5 588 594.7 569.8 581.5c-5.9 -4.3 -6.4 -12.8 -1.2 -17.9C603.4 529.5 625 482.1 625 429.7 625 323.8 536.8 238.2 430.1 242.3 333 246.1 254.2 324.7 250.2 421.8c-2.3 55.5 19.7 106 56.2 141.8zM437.5 0C679.3 0 875 195.7 875 437.5c0 176.1 -103.1 323.7 -245.6 393.4 -8.4 4.1 -18.1 -3 -16.7 -12.4 5 -32.5 9.1 -64.8 11 -92.2C718.4 665 781.3 558.5 781.3 437.5 781.3 247.7 626.5 93.3 436.6 93.8 248.6 94.2 94.9 247.4 93.8 435.4 93 555.1 153.9 661 246.5 723.1c3 2 4.9 5.3 5.2 8.9 2.1 26.1 5.9 56.3 10.6 86.5 1.4 9.4 -8.3 16.5 -16.7 12.4C102.7 761 0 613.3 0 437.5 0 195.7 195.7 0 437.5 0zm0 312.5c69 0 125 56 125 125s-56 125 -125 125 -125 -56 -125 -125 56 -125 125 -125z"/></svg>