<svg height="1000" width="875" xmlns="http://www.w3.org/2000/svg"><path d="M875 843.8c0 51.7 -42 93.7 -93.7 93.7H93.8C42 937.5 0 895.5 0 843.8V156.3C0 104.5 42 62.5 93.8 62.5h687.5c51.7 0 93.7 42 93.7 93.8v687.5zM218.8 375h250C486 375 500 361 500 343.8v-62.5C500 264 486 250 468.8 250h-250c-17.3 0 -31.3 14 -31.3 31.3v62.5c0 17.2 14 31.2 31.3 31.2zm0 187.5h437.5c17.2 0 31.2 -14 31.2 -31.2v-62.5c0 -17.3 -14 -31.3 -31.2 -31.3H218.8c-17.3 0 -31.3 14 -31.3 31.3v62.5c0 17.2 14 31.2 31.3 31.2zm0 187.5h125C361 750 375 736 375 718.8v-62.5C375 639 361 625 343.8 625h-125c-17.3 0 -31.3 14 -31.3 31.3v62.5c0 17.2 14 31.2 31.3 31.2z"/></svg>