<svg height="1000" width="1000" xmlns="http://www.w3.org/2000/svg"><path d="M881.6 720.9c67 10.7 118.4 68.4 118.4 138.5 0 77.7 -62.9 140.6 -140.6 140.6H140.6C62.9 1000 0 937.1 0 859.4 0 789.3 51.4 731.6 118.4 720.9 84.6 695.3 62.5 655.1 62.5 609.4c0 -77.8 62.9 -140.6 140.6 -140.6h27.6C204.5 445.9 187.5 412.5 187.5 375c0 -68.9 56.1 -125 125 -125h31.2C430.1 250 500 180.1 500 93.8c0 -34 -11.1 -65.3 -29.5 -90.9C480.1 1.4 489.8 0 500 0c103.5 0 187.5 84 187.5 187.5 0 22.1 -4.5 42.8 -11.5 62.5h11.5c68.9 0 125 56.1 125 125 0 37.5 -17 70.9 -43.2 93.8h27.6c77.7 0 140.6 62.8 140.6 140.6 0 45.7 -22.1 85.9 -55.9 111.5zM375 500c-34.6 0 -62.5 27.9 -62.5 62.5S340.4 625 375 625s62.5 -27.9 62.5 -62.5S409.6 500 375 500zm311.5 271.5C690.4 761.1 682.6 750 671.3 750H328.7c-11.3 0 -19.1 11.1 -15.2 21.5C334 826 427.7 875 500 875S666 826 686.5 771.5zM625 625c34.6 0 62.5 -27.9 62.5 -62.5S659.6 500 625 500s-62.5 27.9 -62.5 62.5S590.4 625 625 625z"/></svg>