<svg height="1000" width="875" xmlns="http://www.w3.org/2000/svg"><path d="M601.6 656.3c17.9 0 29.3 19.5 20.3 35.1L450 988.3c-4.3 7.4 -12.1 11.7 -20.3 11.7 -15.1 0 -26.4 -14.1 -22.9 -28.9l45 -189.8H335.9c-14.2 0 -25.2 -12.6 -23.2 -26.6l31.2 -234.4c1.6 -11.5 11.6 -20.3 23.3 -20.3H500c15.4 0 26.6 14.6 22.7 29.5l-33.8 126.8h112.7zM731.3 438.9c80 6.4 143.7 73.2 143.5 154.8 0 86 -70.3 156.3 -156.2 156.3H660l15.8 -27.3c15.2 -26.4 15.2 -59.4 0 -86s-43.8 -43 -74.4 -43h-31.3L583 545.5c7 -26 1.6 -53.1 -14.8 -74.4C551.8 449.8 527 437.5 500 437.5H367.2c-43 0 -79.5 32 -85.4 74.6l-31.2 234.4c0 1.2 .2 2.3 0 3.5h-94.4C70.3 750 0 679.7 0 593.7 0 512.1 63.7 445.3 143.7 438.9 132.2 420.1 125 398.6 125 375c0 -68.9 56.1 -125 125 -125h31.2c86.4 0 156.3 -69.9 156.3 -156.3C437.5 59.8 426.4 28.5 408 2.9 417.6 1.4 427.3 0 437.5 0 541 0 625 84 625 187.5c0 22.1 -4.5 42.8 -11.5 62.5H625c68.9 0 125 56.1 125 125 0 23.6 -7.2 45.1 -18.8 63.9z"/></svg>