<svg height="1000" width="1000" xmlns="http://www.w3.org/2000/svg"><path d="M881.6 721c67 10.7 118.4 68.3 118.4 138.4C1000 937 937 1000 859.4 1000H140.6C63 1000 0 937 0 859.4 0 789.3 51.4 731.7 118.4 721 84.6 695.3 62.5 655.1 62.5 609.4c0 -77.7 63 -140.6 140.6 -140.6h27.5c-26.2 -23 -43.1 -56.3 -43.1 -93.8 0 -69 56 -125 125 -125h31.2C430 250 500 180 500 93.8 500 59.8 488.9 28.6 470.5 3 480.2 1.4 489.9 0 500 0c103.6 0 187.5 83.9 187.5 187.5 0 22 -4.5 42.9 -11.5 62.5h11.5c69 0 125 56 125 125 0 37.5 -16.9 70.8 -43.1 93.7h27.5c77.6 0 140.6 63 140.6 140.7 0 45.7 -22.1 85.9 -55.9 111.6z"/></svg>