<svg height="1000" width="750" xmlns="http://www.w3.org/2000/svg"><path d="M656.3 0C708 0 750 42 750 93.8v812.5c0 51.7 -42 93.7 -93.7 93.7H93.8C42 1000 0 958 0 906.3V93.8C0 42 42 0 93.8 0h562.5zM375 250c-68.9 0 -125 56.1 -125 125s56.1 125 125 125S500 443.9 500 375 443.9 250 375 250zm218.8 462.5V675C593.8 612.9 535 562.5 462.5 562.5h-9.8c-23.8 10 -50.2 15.6 -77.7 15.6s-53.7 -5.6 -77.7 -15.6h-9.8C215 562.5 156.3 612.9 156.3 675v37.5c0 20.7 19.5 37.5 43.7 37.5h350c24.2 0 43.7 -16.8 43.7 -37.5z"/></svg>