<svg height="1000" width="625" xmlns="http://www.w3.org/2000/svg"><path d="M601.6 687.5c12.9 0 23.4 10.5 23.4 23.4v203.2c0 12.9 -10.5 23.4 -23.4 23.4H23.4C10.5 937.5 0 927 0 914.1v-78.2C0 823 10.5 812.5 23.4 812.5h70.4v-250H39.1c-13 0 -23.5 -10.5 -23.5 -23.4v-78.2c0 -12.9 10.5 -23.4 23.5 -23.4h54.7v-129c0 -143 113.3 -246 273.3 -246 95 0 166.3 44.1 198.3 68.2 10.6 8 12.4 23.1 4.2 33.4l-55.7 69.3c-7.4 9.3 -20.6 11.6 -30.6 5.3 -23 -14.4 -66.4 -36.8 -112.6 -36.8C298 201.9 250 250.3 250 313.4v124.1h164.1c12.9 0 23.4 10.5 23.4 23.4v78.2c0 12.9 -10.5 23.4 -23.4 23.4H250v247.7h239.3v-99.3c0 -12.9 10.5 -23.4 23.4 -23.4h88.9z"/></svg>