<svg height="1000" width="1000" xmlns="http://www.w3.org/2000/svg"><path d="M781.3 105.7c123 87.9 203.1 231.6 203.1 394.3C984.4 767.2 768 983.8 501 984.4 234.4 985 16 767.6 15.6 500.8 15.4 338.1 95.5 193.9 218.4 105.9c22.8 -16.3 54.6 -9.4 68.3 15l30.9 54.9c11.5 20.5 6 46.5 -12.9 60.5C223.6 296.5 171.9 391.8 171.9 499.8c-.2 180.3 145.5 328.3 328.1 328.3 178.9 0 329.3 -144.9 328.1 -330.2C827.5 396.7 779.9 299 695.1 236.1c-18.9 -14 -24.2 -40 -12.7 -60.3l30.9 -54.9c13.7 -24.2 45.3 -31.4 68 -15.2zM578.1 515.6c0 26 -20.9 46.9 -46.8 46.9h-62.5c-26 0 -46.9 -20.9 -46.9 -46.9V46.9C421.9 20.9 442.8 0 468.8 0h62.5c25.9 0 46.8 20.9 46.8 46.9v468.7z"/></svg>