<svg height="1000" width="750" xmlns="http://www.w3.org/2000/svg"><path d="M500 250C431 250 375 194 375 125S431 0 500 0s125 56 125 125S569 250 500 250zm-59.8 331.5L393 525.4l-68 126.7 214.6 214.5c49.8 49.8 11.3 133.4 -55.2 133.4H78.1C35 1000 0 965 0 921.9s35 -78.2 78.1 -78.2H257l-87.6 -68.1C85.7 722.1 57 619.1 102.7 533.9l96.4 -179.7c21.7 -40.4 62.8 -67.3 110.1 -72.1 48.4 -5.1 94.8 13.5 125 49.4l76 90.5 112.2 -91.8c33.4 -27.3 82.7 -22.5 109.9 11 27.3 33.3 22.4 82.6 -10.9 109.9L549.5 591.7c-33.2 27.1 -81.9 22.5 -109.3 -10.2z"/></svg>