<svg height="1000" width="1250" xmlns="http://www.w3.org/2000/svg"><path d="M531.3 374.8c34.3 0 62.5 28.1 62.5 62.5v250c0 101.4 -68.1 191.6 -165.6 219.5l-350 91c-5.1 1.4 -10.4 2 -15.7 2C16.6 999.8 0 958.5 0 937.3V749.8c0 -24.9 19.1 -51.4 42.7 -59.3l176.1 -58.6V475.2c0 -37.1 10.8 -73.1 31.4 -104L479.3 27.7c.3 -.6 1.1 -.5 1.5 -1C499.5 .3 535.2 -8.2 563.4 8.7c29.6 17.8 39.2 56.2 21.4 85.8L433 347.6c-17.5 29.1 -26.7 62.5 -26.7 96.5v149.5c0 17.2 13.9 31.2 31.2 31.2s31.3 -14 31.3 -31.2V437.3c0 -34.4 28.1 -62.5 62.5 -62.5zm676 315.9c25.5 8.5 42.7 32.4 42.7 59.3v187.5c0 21.1 -16.6 62.5 -62.5 62.5 -5.2 0 -10.5 -.7 -15.7 -2l-350 -91.1C724.3 879.1 656.3 788.8 656.3 687.5v-250c0 -34.4 28.1 -62.5 62.5 -62.5s62.5 28.1 62.5 62.5v156.2c0 17.3 13.9 31.3 31.2 31.3s31.3 -14 31.3 -31.3V444.2c0 -33.9 -9.3 -67.3 -26.8 -96.4L665.2 94.7C647.4 65.1 657 26.7 686.6 8.9c28.2 -16.9 63.9 -8.4 82.6 18 .4 .5 1.2 .4 1.5 .9l229.1 343.6c20.6 30.9 31.5 66.9 31.5 103.9V632z"/></svg>