<svg height="1000" width="750" xmlns="http://www.w3.org/2000/svg"><path d="M703.1 0C728.9 0 750 21.1 750 46.9v93.7c0 25.8 -21.1 46.9 -46.9 46.9H46.9C21.1 187.5 0 166.4 0 140.6V46.9C0 21.1 21.1 0 46.9 0h656.2zM62.5 937.5V250h625v687.5c0 34.4 -28.1 62.5 -62.5 62.5H125c-34.4 0 -62.5 -28.1 -62.5 -62.5zm125 -359.4v93.8c0 8.6 7 15.6 15.6 15.6h109.4v109.4c0 8.6 7 15.6 15.6 15.6h93.8c8.6 0 15.6 -7 15.6 -15.6V687.5h109.4c8.6 0 15.6 -7 15.6 -15.6v-93.8c0 -8.6 -7 -15.6 -15.6 -15.6H437.5V453.1c0 -8.6 -7 -15.6 -15.6 -15.6h-93.8c-8.6 0 -15.6 7 -15.6 15.6v109.4H203.1c-8.6 0 -15.6 7 -15.6 15.6z"/></svg>