<svg height="1000" width="750" xmlns="http://www.w3.org/2000/svg"><path d="M588.4 687.5l152.5 152.4c12.2 12.2 12.2 32 0 44.2l-44.2 44.2c-12.2 12.2 -32 12.2 -44.2 0L500 775.9 347.6 928.4c-12.2 12.2 -32 12.2 -44.2 0l-44.2 -44.2C247 872 247 852.2 259.2 840L411.6 687.5l-250 -250H125v156.2C125 611 111 625 93.8 625H31.3C14 625 0 611 0 593.7v-500C0 76.5 14 62.5 31.3 62.5h281.2C416.1 62.5 500 146.4 500 250c0 95.5 -71.7 173.4 -164 185.1l164 164L652.5 446.6c12.2 -12.2 32 -12.2 44.2 0l44.2 44.2c12.2 12.2 12.2 32 0 44.2zM125 187.5v125h187.5c34.5 0 62.5 -28 62.5 -62.5s-28 -62.5 -62.5 -62.5H125z"/></svg>