<svg height="1000" width="1000" xmlns="http://www.w3.org/2000/svg"><path d="M875 375c69 0 125 56 125 125v218.8c0 17.2 -14 31.2 -31.2 31.2H875v187.5c0 34.5 -28 62.5 -62.5 62.5h-625C153 1000 125 972 125 937.5V750H31.3C14 750 0 736 0 718.8V500C0 431 56 375 125 375V62.5C125 28 153 0 187.5 0h536.6c16.6 0 32.5 6.6 44.2 18.3l88.4 88.4c11.7 11.7 18.3 27.6 18.3 44.2V375zM750 875V687.5H250V875h500zm0 -437.5V250h-93.7C639 250 625 236 625 218.8V125H250v312.5h500zm93.8 140.6c25.8 0 46.8 -21 46.8 -46.8 0 -25.9 -21 -46.9 -46.8 -46.9s-46.9 21 -46.9 46.9c0 25.8 21 46.8 46.9 46.8z"/></svg>