<svg height="1000" width="1250" xmlns="http://www.w3.org/2000/svg"><path d="M1031.3 437.5c120.8 0 218.7 97.9 218.7 218.8v312.5c0 17.1 -14.1 31.2 -31.2 31.2h-62.5c-17.2 0 -31.3 -14.1 -31.3 -31.2V875H125v93.8c0 17.1 -14.1 31.2 -31.2 31.2H31.3C14.1 1000 0 985.9 0 968.8V281.3C0 264.1 14.1 250 31.3 250h62.5c17.1 0 31.2 14.1 31.2 31.3V750h375V468.8c0 -17.2 14.1 -31.3 31.3 -31.3h500zm-765.7 -250c-8.6 0 -15.6 -7 -15.6 -15.6v-31.3c0 -8.6 7 -15.6 15.6 -15.6h275.2c6.1 0 11.3 3.3 14.1 8.6l38.8 77.7L690.8 17.2c11.5 -23.1 44.4 -23.1 55.9 0L800.6 125H1000c17.2 0 31.3 14.1 31.3 31.2s-14.1 31.3 -31.3 31.3H761.9l-43.1 -86.3 -97.1 194.1c-11.5 23.1 -44.4 23.1 -55.9 0L511.9 187.5H265.6zm46.9 500c-68.9 0 -125 -56.1 -125 -125s56.1 -125 125 -125 125 56.1 125 125 -56.1 125 -125 125z"/></svg>