<svg height="1000" width="1250" xmlns="http://www.w3.org/2000/svg"><path d="M750 625c34.5 0 62.5 28 62.5 62.5v250c0 34.5 -28 62.5 -62.5 62.5H500c-34.5 0 -62.5 -28 -62.5 -62.5v-250c0 -34.5 28 -62.5 62.5 -62.5h250zM375 62.5V125h437.5v125H375v92.8l125.5 219.7h-.5c-46.1 0 -86 25.4 -107.7 62.6L249.5 375h-187C28 375 0 347 0 312.5v-250C0 28 28 0 62.5 0h250C347 0 375 28 375 62.5zM1187.5 0c34.5 0 62.5 28 62.5 62.5v250c0 34.5 -28 62.5 -62.5 62.5h-250C903 375 875 347 875 312.5v-250C875 28 903 0 937.5 0h250z"/></svg>