<svg height="1000" width="750" xmlns="http://www.w3.org/2000/svg"><path d="M460.2 312.5c63 0 118.8 50.9 124.5 113.7l39.8 437.5c.3 3.1 .5 8.2 .5 11.3 0 69 -56 125 -125 125H125C56 1000 0 944 0 875c0 -3.1 .2 -8.2 .5 -11.3L40.3 426.2C46 363.4 101.8 312.5 164.8 312.5h295.4zm-147.7 500c64.7 0 117.2 -51.4 117.2 -114.7C429.7 649 360 550.4 328.1 507.8c-3.2 -4.3 -10.2 -7.8 -15.6 -7.8s-12.4 3.5 -15.6 7.8C265 550.4 195.3 648.9 195.3 697.8c0 63.3 52.5 114.7 117.2 114.7zM740.8 183.7c5.1 5.1 9.2 15 9.2 22.1s-4.1 17.1 -9.2 22.1l-44.1 44.2c-5.1 5 -15 9.1 -22.1 9.1s-17.1 -4.1 -22.1 -9.1l-84.6 -84.6H437.5V250h-250V62.5C187.5 28 215.5 0 250 0h125c34.5 0 62.5 28 62.5 62.5h130.4c28.5 0 68.1 16.4 88.4 36.6z"/></svg>