<svg height="1000" width="750" xmlns="http://www.w3.org/2000/svg"><path d="M460 312.1c63 .1 118.7 51 124.5 113.7l39.7 437.5c.3 3.1 .6 8.2 .6 11.3 0 69 -56 125 -125 125h-375c-69 0 -125 -56 -125 -125 0 -3.1 .2 -8.2 .5 -11.3L40.1 425.8c5.7 -62.7 61.4 -113.6 124.4 -113.7H460zm8.5 338.6v-52.1c0 -14.4 -11.7 -26 -26 -26h-78.2v-78.2c0 -14.3 -11.6 -26 -26 -26h-52.1c-14.4 0 -26 11.7 -26 26v78.2h-78.1c-14.4 0 -26.1 11.6 -26.1 26v52.1c0 14.4 11.7 26 26.1 26h78.1v78.2c0 14.3 11.6 26 26 26h52.1c14.4 0 26 -11.7 26 -26v-78.2h78.2c14.3 0 26 -11.6 26 -26zM740.6 183.4c5.1 5 9.2 14.9 9.2 22.1 0 7.1 -4.1 17 -9.2 22.1l-44.2 44.1c-5 5.1 -14.9 9.2 -22.1 9.2s-17 -4.1 -22.1 -9.2l-84.6 -84.6H437.3v62.5h-250V62.1c0 -34.5 28 -62.5 62.5 -62.5h125c34.5 0 62.5 28 62.5 62.5h130.3c28.6 .1 68.2 16.5 88.4 36.6z"/></svg>