<svg height="1000" width="843.8" xmlns="http://www.w3.org/2000/svg"><path d="M794.9 218.6c42.4 3.7 66 54.6 34 87.5L369.5 757.8l-68.9 157.8c-21.5 33.6 -80.5 28 -93.2 -13.6L2.1 221.7c-8.9 -35.8 12.4 -66.2 41.8 -71.5L573.8 63.5c35 -6.7 76.4 26.3 56.1 72.2L602.5 201zM581.3 104.7l-369.2 60.5 346.5 31.9 32.8 -78c4.5 -9.5 -.2 -15.8 -10.2 -14.4zm-537 106l308.4 477.2L542 237.3 56.2 193c-9.9 -1.8 -17.9 7.8 -11.9 17.7zm221.3 680.7s55.1 -125.2 68.8 -154.5L85 351l162.3 538.1c2.9 8.4 13.2 10.1 18.3 2.3zM798.4 277.1c6.1 -6.4 2.8 -14.6 -5 -16.7l-207.9 -19L410.4 658.8z"/></svg>