<svg height="1000" width="1125" xmlns="http://www.w3.org/2000/svg"><path d="M1014.5 563.8c73.5 0 110.5 61.7 110.5 128.5 0 65.5 -37.7 120.2 -107.3 120.2 -77.9 0 -98.3 -70.6 -168.5 -70.6 -118.3 0 -50.5 234.6 -50.5 234.6 -100.7 0 -354 68.5 -354 -50.3 0 -70 70.9 -90.3 70.9 -167.9 0 -69.4 -54.9 -106.9 -120.7 -106.9 -67 0 -124.1 36.9 -124.1 110.1 0 80.7 78.1 115.2 78.1 159.1 0 136.1 -348.9 56 -348.9 56V325.7s343.5 80 343.5 -56c0 -43.9 -61.9 -78.9 -61.9 -159.6C281.6 36.9 343.5 0 411.2 0c65.1 0 120 37.5 120 106.9 0 77.6 -70.8 97.9 -70.8 167.9 0 162.7 383.3 6.5 383.3 6.5s-106.6 344.2 10.6 344.2c44 0 79.1 -61.7 160.2 -61.7z"/></svg>