<svg height="1000" width="875" xmlns="http://www.w3.org/2000/svg"><path d="M859 391.6c20.9 83.8 21.9 146.7 0 212.1 -21.1 63.5 -43.6 105.9 -104.3 105.9H441.8v26.5h208.4v79.5c0 60.2 -51.8 90.8 -104.3 106.1 -79.1 22.8 -142.6 19.3 -208.6 0C282.2 905.5 233 872.3 233 815.6V616.8c0 -57.2 47.3 -106.1 104.3 -106.1h208.6c69.5 0 130.5 -60.5 130.5 -132.4v-92.6h78.3c60.7 0 89.2 45.5 104.3 105.9zM559 789.1c-21.5 0 -39.1 17.5 -39.3 39.6 0 21.9 17.8 39.9 39.3 39.9 21.7 0 39.2 -17.8 39.2 -39.9 0 -21.9 -17.5 -39.6 -39.2 -39.6zM327.7 484.6c-70.9 0 -130.4 60.7 -130.4 129.7v95.3h-71.7c-60.8 0 -96.1 -44.2 -111 -105.9 -19.9 -83 -19.1 -132.6 0 -212.1C31.3 322.3 84.4 285.7 145.1 285.7h287.1v-26.5H223.4v-79.5c0 -60.4 16.1 -93 104.3 -108.6C390.4 60 466.4 59.4 536.3 70.9c56.7 9.6 104.3 52 104.3 108.6v199c0 58.2 -46.3 106.1 -104.3 106.1H327.7zM314.6 206.1c21.7 0 39.3 -17.8 39.3 -39.7s-17.8 -39.8 -39.3 -39.8c-21.6 0 -39 17.7 -39.2 39.8 0 21.9 17.6 39.7 39.2 39.7z"/></svg>