<svg height="1000" width="875" xmlns="http://www.w3.org/2000/svg"><path d="M847.2 821.2c-22.5 2.7 -87.6 -103 -87.6 -103 0 61.2 -31.6 141.1 -99.8 198.8 32.9 10.1 107.2 37.4 89.5 67.2 -14.3 24.1 -245.1 15.4 -311.8 7.9 -66.6 7.5 -297.5 16.2 -311.8 -7.9 -17.6 -29.8 56.5 -57.1 89.5 -67.2C147 859.3 115.4 779.4 115.4 718.2c0 0 -65.1 105.7 -87.6 103C17.3 819.9 3.6 763.3 46.1 626.4 66.1 561.9 89 508.3 124.5 419.8 118.5 191.5 212.9 0 437.5 0c222.1 0 318.7 187.8 313 419.8 35.4 88.4 58.4 142.3 78.4 206.6 42.5 136.9 28.8 193.5 18.3 194.8z"/></svg>