<svg height="1000" width="750" xmlns="http://www.w3.org/2000/svg"><path d="M394.6 0c165.8 0 342.7 129.4 342.7 300 0 226.5 -244.7 230 -244.7 313.7V625c0 25.9 -20.9 46.9 -46.8 46.9H304.2c-25.9 0 -46.9 -21 -46.9 -46.9v-19.1c0 -120.8 91.6 -169 160.8 -207.8 59.3 -33.3 95.7 -55.9 95.7 -100 0 -58.2 -74.3 -96.9 -134.4 -96.9 -76.4 0 -112.7 35.3 -161.7 96.6 -15.8 19.8 -44.7 23.4 -64.9 8.1L68.5 242C48.5 226.8 44 198.5 58.4 177.8 137.7 63.9 238.7 0 394.6 0zM375 729.4c74.6 0 135.3 60.7 135.3 135.3 0 74.6 -60.7 135.3 -135.3 135.3S239.7 939.3 239.7 864.7c0 -74.6 60.7 -135.3 135.3 -135.3z"/></svg>