<svg height="1000" width="1000" xmlns="http://www.w3.org/2000/svg"><path d="M984.4 500c0 267.6 -216.9 484.4 -484.4 484.4S15.6 767.6 15.6 500C15.6 232.6 232.5 15.6 500 15.6s484.4 217 484.4 484.4zM513 175.8c-106.4 0 -174.3 44.8 -227.6 124.5 -6.9 10.3 -4.6 24.3 5.3 31.8l67.7 51.3c10.2 7.8 24.7 5.9 32.6 -4.1 34.9 -44.2 58.8 -69.9 111.9 -69.9 39.9 0 89.3 25.7 89.3 64.4 0 29.2 -24.2 44.2 -63.6 66.3 -45.9 25.8 -106.7 57.8 -106.7 138v7.8c0 13 10.5 23.5 23.4 23.5h109.4c12.9 0 23.4 -10.5 23.4 -23.5v-2.6c0 -55.6 162.5 -57.9 162.5 -208.3C740.6 261.7 623.1 175.8 513 175.8zm-13 484.4c-49.5 0 -89.8 40.3 -89.8 89.8s40.3 89.8 89.8 89.8 89.8 -40.3 89.8 -89.8S549.5 660.2 500 660.2z"/></svg>