<svg height="1000" width="1250" xmlns="http://www.w3.org/2000/svg"><path d="M501 423.4l169.3 213.3s-32.4 200 -149.6 293.2C403.7 1023 0 996.5 0 996.5S7.4 951.4 21.5 888.3L206.2 669.1c7.9 -9.1 -1.7 -22.6 -12.8 -18.5l-118 43.2C103.5 612.3 139.3 537.5 182 503.3 299 410 501 423.4 501 423.4zm464.8 263.7c86 0 155.9 69.7 155.9 156.1 0 86.1 -69.7 156 -155.9 156S810 929.3 810 843.2C810 757 879.9 687.1 965.8 687.1zM1243.2 60.5c10.7 13.5 8.6 33.3 -4.9 44L784.2 452l66.6 83.7c9.9 12.5 3.3 31.1 -12.3 34.4l-114.9 24.2L554.3 381.1l49.4 -106.7c6.8 -14.4 26.4 -16.8 36.3 -4.3l66.6 84L1160.7 6.6c13.5 -10.5 33.1 -8.4 43.8 5.1z"/></svg>