<svg height="1000" width="1000" xmlns="http://www.w3.org/2000/svg"><path d="M612.5 927c8.6 8.5 15.8 17.5 26 24.4 -36.2 10.9 -96.1 19.7 -133.9 19.7 -1 0 -2.6 0 -3.6 0C237.3 971.1 23.4 757.2 23.4 493.4 23.4 229.5 237.1 15.6 501 15.6s477.7 213.9 477.7 477.8c0 68.9 -13.5 131.6 -39.6 190.8C933.2 673 925 664.3 917.2 654.3 939.1 471.7 795.9 309.4 610.5 309.4c-170.4 0 -308.7 138.3 -308.7 308.8S440.1 927 610.5 927h2zm-.2 -.2l.8 .2zM765.4 596.9c107 0 193.8 86.8 193.8 193.7 0 107 -86.8 193.8 -193.8 193.8 -106.9 0 -193.7 -86.8 -193.7 -193.8 0 -106.9 86.8 -193.7 193.7 -193.7z"/></svg>