<svg height="1000" width="1000" xmlns="http://www.w3.org/2000/svg"><path d="M906.3 500c51.7 0 93.7 42 93.7 93.8v250c0 51.7 -42 93.7 -93.7 93.7h-250c-51.8 0 -93.8 -42 -93.8 -93.7V375C562.5 202.3 702.3 62.5 875 62.5h15.6c26 0 46.9 20.9 46.9 46.9v93.7c0 26 -20.9 46.9 -46.9 46.9H875c-68.9 0 -125 56.1 -125 125v125h156.3zm-562.5 0c51.7 0 93.7 42 93.7 93.8v250c0 51.7 -42 93.7 -93.7 93.7h-250C42 937.5 0 895.5 0 843.8V375C0 202.3 139.8 62.5 312.5 62.5h15.6c26 0 46.9 20.9 46.9 46.9v93.7c0 26 -20.9 46.9 -46.9 46.9h-15.6c-68.9 0 -125 56.1 -125 125v125h156.3z"/></svg>