<svg height="1000" width="1000" xmlns="http://www.w3.org/2000/svg"><path d="M906.3 62.5c51.7 0 93.7 42 93.7 93.8V625c0 172.7 -139.8 312.5 -312.5 312.5h-15.6c-26 0 -46.9 -20.9 -46.9 -46.9v-93.7c0 -26 20.9 -46.9 46.9 -46.9h15.6c68.9 0 125 -56.1 125 -125V500H656.3c-51.8 0 -93.8 -42 -93.8 -93.7v-250c0 -51.8 42 -93.8 93.8 -93.8h250zm-562.5 0c51.7 0 93.7 42 93.7 93.8V625c0 172.7 -139.8 312.5 -312.5 312.5h-15.6c-26 0 -46.9 -20.9 -46.9 -46.9v-93.7c0 -26 20.9 -46.9 46.9 -46.9H125c68.9 0 125 -56.1 125 -125V500H93.8C42 500 0 458 0 406.3v-250C0 104.5 42 62.5 93.8 62.5h250z"/></svg>