<svg height="1000" width="875" xmlns="http://www.w3.org/2000/svg"><path d="M875 700c0 18.8 -6.3 31.3 -18.7 37.5 -6.3 25 -6.3 112.5 0 143.8 12.4 12.4 18.7 24.9 18.7 37.5V950c0 31.3 -25 50 -50 50H187.5C81.3 1000 0 918.8 0 812.5v-625C0 81.2 81.3 0 187.5 0H825c31.3 0 50 18.7 50 50v650zM588 284.8L566.2 329l-48.8 7.1c-5.3 .8 -7.3 7.2 -3.6 10.9l35.4 34.4 -8.4 48.6c-.7 4.2 2.6 7.5 6.3 7.5 1 0 2 -.2 3 -.7l43.6 -23 43.7 23c1 .5 2 .7 3 .7 3.7 0 7 -3.3 6.3 -7.5l-8.4 -48.6L673.7 347c3.7 -3.7 1.6 -10.1 -3.6 -10.9L621.3 329l-21.8 -44.2c-1.2 -2.4 -3.5 -3.6 -5.8 -3.6s-4.5 1.2 -5.7 3.6zM475 150C350.9 150 250 250.9 250 375c0 124 100.9 225 225 225 26.5 0 52.9 -4.9 78.5 -14.4 5.2 -1.8 9 -6.7 9 -12.5 0 -7.1 -5.6 -13.3 -13.3 -13.3 -1.3 0 -6.1 .5 -8.1 .5C439 560.3 355.9 477.1 355.9 375c0 -102.2 83.1 -185.3 185.2 -185.3 2.1 0 6.8 .4 8.1 .4 1.2 .5 3.3 .9 4.6 .9 7.3 0 13.3 -6 13.3 -13.3 0 -7.3 -6 -13.2 -13.3 -13.2C528.2 154.9 501.7 150 475 150zm268.8 725V750H187.5c-31.2 0 -62.5 25 -62.5 62.5s25 62.5 62.5 62.5h556.3z"/></svg>