<svg height="1000" width="1134.8" xmlns="http://www.w3.org/2000/svg"><path d="M1134.8 442.6c0 107 -66.2 203.7 -172.7 272.8l131.7 222.1H875L796.7 790.2c-42.6 12.7 -88.1 21.9 -135.6 27.2v120.1H467.6V816.6C201.8 785.2 0 629.7 0 442.6 0 232.6 254.1 62.5 567.4 62.5s567.4 170.1 567.4 380.1zM223 470.9c0 103.1 99.9 192.2 244.6 234.2V298.2h388.7s176.9 3.2 176.9 171.7C1033.2 638.5 864.1 651 864.1 651s34.3 10.3 54.3 20.5c3.3 1.5 7.8 4.1 12.5 7.2 85.5 -41.8 137.3 -109.9 137.3 -207.8 0 -180.3 -175.8 -259.8 -413.9 -259.8S223 327.3 223 470.9zm439.7 74.8c96.9 0 171.5 16 171.5 -55.3 0 -66.6 -58.6 -53.3 -171.5 -53.3v108.6zm-1.8 141.6v43.2c34.4 -.2 67.4 -2 98.9 -5.7 -10 -14.6 -25.8 -37.5 -46.9 -37.5h-52z"/></svg>