<svg height="1000" width="968.8" xmlns="http://www.w3.org/2000/svg"><path d="M641 499.6c0 -55.8 -29.7 -104.5 -73.8 -132.4l157 -250.8c9.4 -15 29.9 -19.7 44.4 -9.4C882 189.1 958.8 318.8 968.7 466.8c1.2 17.8 -13.8 32.8 -31.6 32.8H641zm-73.8 132.2l157 251c9.4 14.9 4.7 35.4 -10.9 43.8 -68.2 36.7 -146.1 57.8 -228.9 57.8S323.6 963.3 255.5 926.6c-15.7 -8.4 -20.3 -28.7 -11 -43.8l157.1 -251c24.2 15.1 52.3 24.3 82.8 24.3s58.8 -9.2 82.8 -24.3zm-82.8 -38.4c-51.8 0 -93.8 -42 -93.8 -93.8s42 -93.7 93.8 -93.7 93.7 42 93.7 93.7 -42 93.8 -93.7 93.8zM31.6 499.6C13.9 499.6 -1.2 484.6 0 467 10 318.9 86.7 189.3 200.2 107.2c14.4 -10.5 35 -5.6 44.3 9.4l157.1 250.8c-44.2 27.7 -73.9 76.4 -73.9 132.2H31.6z"/></svg>