<svg height="1000" width="968.8" xmlns="http://www.w3.org/2000/svg"><path d="M609.4 500c0 -44.5 -23.7 -83.6 -58.8 -105.5L632 264.1c10.2 -16.2 32.1 -19.4 46.9 -7.5 63.5 50.8 107.2 125.4 116.2 210.6C796.9 485 781.8 500 763.9 500H609.4zm-191 105.7c19.1 12.1 42 19.3 66.2 19.3 24.2 0 46.8 -7.2 66 -19.3l81.6 130.6c9.4 15.3 4.7 36 -11.3 44 -41.4 20.3 -87.5 32.2 -136.5 32.2S389.3 800.6 348 780.3c-16 -8 -20.9 -28.7 -11.3 -44zM204.9 500c-18 0 -33.2 -15 -31.1 -33 9 -85.2 52.6 -159.8 116.2 -210.6 14.9 -11.9 36.8 -8.7 46.9 7.5l81.5 130.4c-35.4 22.1 -59 61.2 -59 105.7H204.9zm279.5 484.4C216.8 984.4 0 767.6 0 500S216.8 15.6 484.4 15.6 968.8 232.4 968.8 500 752 984.4 484.4 984.4zm0 -843.8C286.1 140.6 125 301.8 125 500s161.1 359.4 359.4 359.4S843.8 698.2 843.8 500 682.6 140.6 484.4 140.6zm0 421.9c-34.6 0 -62.5 -27.9 -62.5 -62.5s27.9 -62.5 62.5 -62.5 62.5 27.9 62.5 62.5 -28 62.5 -62.5 62.5z"/></svg>