<svg height="1000" width="1125" xmlns="http://www.w3.org/2000/svg"><path d="M524 63.9C851.6 41.8 1125 302.1 1125 625v281.3c0 17.1 -14.1 31.2 -31.2 31.2h-62.5c-17.2 0 -31.3 -14.1 -31.3 -31.2V640.2C1000 418 840.6 219.5 620.1 191.2 353.3 156.8 125 364.8 125 625v281.3c0 17.1 -14.1 31.2 -31.2 31.2H31.3C14.1 937.5 0 923.4 0 906.3V644.9C0 345.5 225.4 83.8 524 63.9zm-10.9 189.2C741.8 223.8 937.5 402 937.5 625v281.3c0 17.1 -14.1 31.2 -31.2 31.2h-62.5c-17.2 0 -31.3 -14.1 -31.3 -31.2V636.1c0 -130.6 -95.1 -247.2 -225 -259.9 -149 -14.5 -275 102.7 -275 248.8v281.2c0 17.2 -14.1 31.3 -31.2 31.3h-62.5c-17.2 0 -31.3 -14.1 -31.3 -31.3V638.1c0 -190.6 136.7 -360.8 325.6 -385zm12.1 188.1C644.9 418 750 509.4 750 625v281.2c0 17.2 -14.1 31.3 -31.2 31.3h-62.5c-17.2 0 -31.3 -14.1 -31.3 -31.3V625c0 -34.4 -27.9 -62.5 -62.5 -62.5S500 590.6 500 625v281.2c0 17.2 -14.1 31.3 -31.2 31.3h-62.5c-17.2 0 -31.3 -14.1 -31.3 -31.3V632.4c0 -90.6 61.1 -173.8 150.2 -191.2z"/></svg>