<svg height="1000" width="1000" xmlns="http://www.w3.org/2000/svg"><path d="M986.3 701.2c18.3 18.3 18.3 48 0 66.3L830 923.7c-29.3 29.4 -80 8.8 -80 -33.1v-78.1H635.2c-5.6 0 -13.3 -3.3 -17.1 -7.4L480.2 657.4 584.4 545.8l103.1 110.4H750v-78c0 -41.9 50.7 -62.5 80 -33.2zM23.4 343.8C10.5 343.8 0 333.3 0 320.3V210.9C0 198 10.5 187.5 23.4 187.5h216.4c5.6 0 13.3 3.3 17.1 7.4l137.9 147.7L290.6 454.2 187.5 343.8H23.4zm726.6 0h-62.5L256.9 805.1c-4.4 4.7 -10.6 7.4 -17.1 7.4H23.4C10.5 812.5 0 802 0 789.1V679.7c0 -13 10.5 -23.5 23.4 -23.5h164.1L618.1 194.9c3.8 -4.1 11.5 -7.4 17.1 -7.4H750v-78.1c0 -41.9 50.7 -62.5 80 -33.1l156.3 156.2c18.3 18.3 18.3 48 0 66.3L830 455c-29.3 29.3 -80 8.8 -80 -33.2v-78z"/></svg>