<svg height="1000" width="794.9" xmlns="http://www.w3.org/2000/svg"><path d="M726.6 454.1c56 33.6 106.6 141.8 27.3 229.9 -5.1 27.5 -13.9 47.3 -21.5 69.1 -11.5 88.3 -86.7 129.5 -106.6 134.4 -29.1 21.9 -60 42.6 -102 57 -39.4 40.3 -82.2 55.5 -125.4 55.5h-1.9c-43 0 -86 -15.2 -125.6 -55.5 -41.8 -14.4 -72.9 -35.1 -102 -57C149.2 882.6 73.8 841.4 62.3 753.1 54.7 731.3 45.9 711.5 40.8 684 -38.3 596.1 12.3 487.7 68.6 454.1l7.2 -12.7c-.2 -90.6 41.8 -127.5 90.8 -155.7 -14.8 -3.9 -30.1 -7.2 -34.4 -25.7 -25.6 -6.7 -30.8 -18.4 -33.4 -30.9 -6.6 -4.5 -28.9 -17 -26.5 -38.5C60 182 52.9 170.9 56.4 155.3 43 140.6 39.5 128.5 45.1 117.4 28.9 97.5 36.1 87.1 43 76.6 30.9 54.7 41.4 31.2 75.2 35.2 88.7 15.4 118 19.9 122.5 19.9c4.8 -6.4 11.7 -11.7 32.2 -9.2C168 -1.2 182.8 .8 198.2 6.6c6.3 -4.8 12 -6.6 17 -6.8 9.8 -.2 18.2 5.7 27.2 8.4 22.1 -7 26.9 2.7 37.9 6.6 24 -5 31.4 5.9 42.9 17.4l13.5 -.2c36.3 21.1 54.3 64.1 60.8 86.2C403.9 96.1 421.9 53.1 458.2 32l13.5 .2C483.2 20.7 490.6 9.8 514.6 14.8c10.8 -4.1 15.9 -13.6 37.9 -6.6 13.9 -4.3 26 -15.8 44.2 -1.6C612.1 1 627 -1.2 640.2 10.7c20.5 -2.5 27.2 3 32.3 9.2 4.5 0 33.7 -4.5 47.2 15.3 33.8 -4 44.6 19.5 32.4 41.4 6.9 10.3 14.1 20.7 -2.1 40.8 5.7 11.1 2.1 23.2 -11.3 37.9 3.7 15.6 -3.3 26.7 -15.8 35.3 2.3 21.5 -20 34 -26.6 38.5 -2.5 12.5 -7.8 24.4 -33.4 30.9 -4.3 18.7 -19.5 21.8 -34.4 25.7 49 28.2 91 65.1 90.8 155.7zm-43.4 -15.6C686.1 343.4 612.1 291.2 522.9 305.9 490 311.3 680.3 475 683.2 438.5zm-84 181.8c47.9 -30.8 56.5 -100.8 19.4 -156.2 -37.2 -55.5 -106.1 -75.4 -154 -44.6s-56.4 100.8 -19.3 156.3c37.1 55.5 106.1 75.4 153.9 44.5zM466.6 57.2c-32.4 31.1 -78.3 109.2 -11.3 140.3C511.9 151.6 579.5 118 654.5 93c-96.3 49 -152.4 88.4 -183 122.2 15.8 61.9 97.6 64.9 127.7 63.1 -6 -2.7 -11.3 -6 -13.1 -11.3 7.5 -5.3 34.2 -.6 52.8 -10.9 -7.3 -1.4 -10.6 -2.8 -13.9 -8.1 17.6 -5.6 36.5 -10.3 47.7 -19.5 -6.1 0 -11.8 1.2 -19.6 -4.1 15.8 -8.4 32.6 -15 45.7 -27.7 -8.2 -.2 -17 -.2 -19.5 -3.1 14.4 -8.8 26.6 -18.6 36.7 -29.3 -11.3 1.3 -16.2 .2 -18.9 -1.8 10.9 -10.9 24.6 -20.3 31.2 -33.8 -8.6 2.9 -16.2 4.1 -21.9 -.2 3.8 -8.4 19.6 -13.1 28.8 -32.4 -9 .8 -18.4 1.9 -20.4 0C718.9 79.5 726 70.3 733 60.5c-19.1 -.3 -48 0 -46.7 -1.5L698 47.1c-18.5 -4.9 -37.7 .8 -51.5 5 -6.3 -4.8 0 -10.9 7.6 -17.1 -15.8 1.9 -30.3 5.6 -43.2 10.5 -7 -6 4.5 -12.3 10 -18.4 -24.4 4.5 -34.8 11 -45.1 17.4 -7.4 -7 -.4 -13.1 4.7 -19.1 -18.4 6.8 -28 15.4 -37.9 24 -3.5 -4.5 -8.6 -7.8 -2.4 -18.7 -13.1 7.4 -23 16.2 -30.2 25.9 -8.2 -5 -4.9 -11.9 -4.9 -18.3 -13.7 10.9 -22.3 22.4 -32.8 33.8 -2.2 -1.6 -4.1 -6.7 -5.7 -14.9zm-67.2 223.9c-53.1 -1.4 -104.3 38.8 -104.3 62.1 -.2 28.5 42 57.4 104.7 58.2 64.1 .4 104.9 -23.3 105.1 -52.6 .2 -33 -58.2 -68.3 -105.5 -67.7zm-240.2 -25c18.7 10.1 45.3 5.4 53.1 10.9 -1.8 5.1 -7 8.6 -13.1 11.3 30.1 1.8 112.1 -1 127.8 -63.1C296.3 181.4 240.2 141.8 143.9 93c75 25 142.6 58.6 199.3 104.5C409.8 166.4 363.9 88.3 331.4 57.2c-1.7 8.2 -3.5 13.3 -5.6 14.9C315.2 60.7 306.6 49.2 293 38.3c0 6.2 3.1 13.3 -4.9 18.3C280.9 46.9 270.9 38.1 257.8 30.7c6.3 10.9 1 14.2 -2.3 18.7 -10 -8.6 -19.6 -17.4 -37.9 -24 5.1 6 12.1 12.1 4.7 19.1C211.9 38.1 201.6 31.6 177.1 27.1c5.5 6.1 16.8 12.4 10 18.4C174 40.6 159.8 37.1 143.9 35c7.5 6.2 13.9 12.3 7.7 17.1 -13.9 -4.2 -33 -9.9 -51.6 -5L111.7 59c1.4 1.5 -27.5 1.4 -46.7 1.5 6.9 9.6 14.1 19 18.2 35.6 -2 1.9 -11.3 .8 -20.3 0 9.2 19.3 25 24.2 28.7 32.4 -5.7 4.1 -13.5 3.1 -21.9 .2 6.5 13.5 20.3 22.9 31.3 33.8 -2.8 2 -7.6 3.1 -19 1.8 10.2 10.7 22.3 20.5 36.7 29.3 -2.5 3.1 -11.3 2.9 -19.5 3.1 13.1 12.7 29.9 19.3 45.7 27.7 -7.8 5.5 -13.5 4.1 -19.5 4.1 11.1 9.2 30.1 14.1 47.6 19.5 -3.3 5.1 -6.6 6.7 -13.8 8.1zm117.4 47C187.5 288.3 113.3 340.6 116.2 435.7c2.9 36.4 193.2 -127.1 160.4 -132.6zM74.6 668C116.8 686.5 151 462.3 99.2 476 13.5 524 28.3 631.3 74.6 668zm177.7 191.8c27.6 -20.3 12.5 -89.3 -20.5 -128.4 -37.9 -43.3 -87.1 -69.1 -118.9 -50 -21.3 16.1 -25.2 70.4 5.1 123.9 44.9 63.6 108.4 69.9 134.3 54.5zM200.8 626c47.6 30.8 116.6 10.9 153.9 -44.6C391.8 526 383.2 456.1 335.4 425.2s-116.8 -10.9 -154 44.5S152.9 595.1 200.8 626zm199.6 342.8c55.5 .9 112.7 -47.7 111.7 -69.2 -.2 -22.3 -62.5 -38.9 -108.8 -36.9 -45.9 -1.2 -116.6 18.2 -115.8 43 -.8 16.8 55.5 65.4 112.9 63zm115 -244v-1.2C515 665.8 463.1 618.9 399.4 619.3c-63.7 .4 -115.2 47.5 -114.8 105.5v1.2c.4 57.8 52.3 104.7 116 104.3 63.7 -.4 115.2 -47.5 114.8 -105.5zM676 808.2c35.9 -45.3 23.8 -121.1 3.3 -141.2 -30.5 -23.3 -74.2 6.4 -115 51.9 -35.8 41.3 -55.5 116.5 -29.5 140.7 24.8 18.7 91.8 16.2 141.2 -51.4zm44.7 -143c46.3 -36.5 61.1 -143.7 -24.6 -192 -51.6 -13.6 -17.4 210.4 24.6 192z"/></svg>