<svg height="1000" width="1000" xmlns="http://www.w3.org/2000/svg"><path d="M795.7 120.1c142 74 218.8 228.9 201.8 389.7 -3.4 32.6 -8.6 70.7 -19.2 101.9C935 740 875 823.8 737.9 900.2c-12.5 8.6 -26 16.8 -39.5 21.1 -24.4 8.6 -50.9 10.5 -78.3 7.6 -11.5 1 -23 1.4 -35.1 1.4 -183 0 -337.9 -125 -384.6 -295.7 -1.4 0 -2.9 -.4 -4.3 -.4C185.2 720.7 249 837.5 249 837.5s3.9 5.9 26 39.5C152.3 812.1 149 620.7 149 620.7 119.7 609.8 17.8 575 0 546.7c0 0 79.9 43.7 148.8 52.7 -.4 -.6 1 -15.4 1 -15.4 4.3 -58.6 24.4 -104.3 45.1 -139.5 13.5 -66 43.2 -125.6 84.6 -175.6 7.2 -29.8 18.7 -65.4 38.9 -102.9 8.6 -16.4 16.8 -26.9 38.8 -37.1C503.5 60.5 647.7 43.2 795.7 120.1zM271.1 318.8c-14.8 22 -26.8 46 -36.9 71C250 373 263.1 362.1 269.7 357.2c-1 -14.4 1.4 -38.4 1.4 -38.4zm-60.9 238c1.3 18.8 3.9 37 8.2 54.9l80.8 13.5c-27.5 -82.2 -30.8 -176 -30.8 -176 -32.3 31.3 -49.6 74 -58.2 107.6zm15.4 83.6c41.8 136.2 158.2 239.9 301 262.5 -2 -.6 -3.4 -.9 -5.3 -1.9 0 0 -158.2 -92.8 -211.5 -242.8C292 655.3 254.5 646.7 225.6 640.4zm528.3 227C877 804.9 962.1 676 962.5 527.5c0 -209.7 -169.1 -379.8 -377 -379.8 -96.2 0 -183.7 36.5 -250.5 96.6 -10.2 19.8 -16.8 44.8 -21.7 77 102.5 -87.1 285.1 -65.4 285.1 -65.4 45.7 1.9 40.3 42.3 39.9 54.8 -166.4 -14 -248.1 33.6 -328.9 102.4 0 0 15.8 153.9 52.3 216.4 210.6 9.6 370.7 -104.9 370.7 -104.9 20.1 -14.4 37.9 -15.8 41.8 9.2 3 20.3 4.3 47.6 -18.7 58.2 -70.3 32.8 -147.7 53.3 -224.6 64.4 -50 7.3 -77.8 9 -152.4 7.7 71.1 165.4 249 210.5 249 210.5 55.7 9.2 98.1 2 126.4 -7.2z"/></svg>