<svg height="1000" width="1000" xmlns="http://www.w3.org/2000/svg"><path d="M816.8 346.1C923 382.6 1000 440 1000 499.2c0 61.9 -81.6 122.3 -194.3 159.6 -6.1 1.9 -12.1 3.9 -18.4 5.7 2.2 8.9 4.1 17.7 5.9 26.3 22.2 112.5 5 204.9 -47.7 235.4 -51 29.5 -133.6 .4 -217.2 -71.5 -9 -7.8 -17.9 -15.8 -26.5 -24.2 -6.9 6.6 -13.7 12.9 -20.5 18.9C394.9 925 306.2 956.2 253.5 925.8 202.3 896.3 186.3 810.4 206.8 702c2.4 -12 4.9 -23.5 7.8 -35.2 -8.9 -2.5 -17.7 -5.5 -26.5 -8.4C79.7 621.3 0 560.2 0 499.2c0 -59 74.8 -116 179.1 -152.1 11.5 -4.1 23.8 -8 36.3 -11.6 -2.7 -10.9 -5 -21.6 -7.2 -32.6C186.7 192.8 202 104.7 253.1 75c53.3 -31.1 142.4 2.1 231.3 81.1 5.4 4.8 10.9 9.9 16.2 15 7.8 -7.6 16 -15.2 24.4 -22.5C609.8 74.8 693.6 44.1 744.9 73.6c53.3 30.9 69.2 124.4 45.1 240.9 -1.5 7.2 -3.1 14.4 -4.8 21.6 10.5 3.2 21 6.5 31.6 10zM552.5 180.3c-7.8 6.8 -15.2 13.6 -22.8 20.9 30.1 32.6 57.8 67.4 83.2 103.7 44.1 3.9 88.1 10.9 131.4 20.7 1.8 -6.5 3.2 -12.9 4.5 -19.5 20.7 -100.6 8 -177.2 -25 -196.1C693 92.2 625.2 117 552.5 180.3zM326.6 600.6c-9.8 -16.8 -19 -33.8 -28 -51 -12.5 29.7 -23.2 58.8 -31.8 86.9 29.9 6.5 60.2 11.4 90.6 14.7 -10.7 -16.6 -20.9 -33.6 -30.8 -50.6zm-59.2 -235c8.6 27.6 18.9 56.1 31.2 85.2 8.8 -17.2 18.2 -34.2 27.8 -50.8 9.5 -16.8 19.7 -33.4 30 -49.6 -31 3.9 -60.9 9 -89 15.2zm53.5 134.6c13.1 27 27 53.3 42 79.3s31 51.4 48 76.2c28.7 1.7 58.4 2.7 89.1 2.7s60.9 -1 90 -3.1c16.6 -25 32.5 -50.2 47.3 -76.2 15 -26.2 29.1 -52.7 42.2 -79.7 -13.3 -26.7 -27.4 -53.1 -42.4 -78.9s-30.8 -51 -47.5 -75.6c-29.1 -2.1 -59.1 -3.3 -89.6 -3.3s-60.4 1.2 -89.6 3.3c-16.8 24.8 -32.9 50 -47.7 76 -14.8 26 -28.9 52.3 -41.8 79.3zm352.7 100c-9.7 16.8 -19.7 33.6 -30.2 50 30.8 -3.5 61.5 -8.8 91.8 -15.6C725.6 605.1 714.6 576.4 702.1 548c-9.1 17.6 -18.5 35 -28.5 52.2zm28.2 -149.4C713.7 423 724.2 394.9 733.2 366 705.1 359.6 675 354.3 643.6 350.4c10.3 16.2 20.3 32.6 29.8 49.2 9.8 16.8 19.2 34 28.4 51.2zM500.4 231.1C480.9 252.3 461.1 275.8 442 301c38.7 -1.8 77.5 -1.8 116.2 0 -18 -24.2 -37.3 -47.7 -57.8 -69.9zM273.8 111.3c-30.8 17.8 -42.9 89.1 -24.6 183.6 2.2 10.2 4.3 20.3 6.9 30.3 43.3 -9.6 87.1 -16.4 131.2 -20.3 25.6 -36.3 53.5 -71.1 83.8 -103.7 -5.1 -4.7 -10 -9.4 -14.9 -13.7C379.5 119.5 306.6 92.2 273.8 111.3zM226 626.2c13.5 -43 29.7 -85.2 48.4 -126C255.9 460 239.8 418.4 226.6 376c-11.4 3.3 -22.7 6.8 -33.8 10.7C103.7 417.8 42 463.5 42 499.2c3.7 23.7 17 44.7 36.7 58.4 34.2 27.2 81.5 47.9 123.1 61 8 2.7 16 5.2 24.2 7.6zm227.7 191.4c6.3 -5.5 12.5 -11.4 18.8 -17.4C442.2 767.4 413.9 732.4 388.1 695.9c-44.7 -3.3 -88.9 -9.8 -132.6 -19.1 -2.8 10.7 -5.1 21.6 -7.3 32.6 -17.5 92.7 -4.6 161.7 26.4 179.7 22.3 8.8 47.3 7.8 69 -2.6 40.6 -16 77.9 -39.4 110.1 -68.9zm47.9 -47.5c20.5 -22.6 39.8 -46.3 57.8 -71.1 -19.6 1 -39.3 1.4 -59.4 1.4 -19.5 0 -38.9 -.4 -57.6 -1.2 19.3 25.6 39.2 49.4 59.2 70.9zm255.2 58.6c6.3 -43.3 4.7 -87.3 -4.8 -129.5 -1.6 -7.8 -3.4 -15.8 -5.3 -23.8 -44 10 -88.5 16.8 -133.2 20.5 -25 36.7 -52.6 71.7 -82.4 104.7 8.4 7.8 16.6 15.4 24.8 22.4 71.4 61.4 137.7 84.8 168.7 66.8 18.8 -15 30.5 -37.3 32.2 -61.1zm35.6 -209.9C889.8 586.5 958 537.1 958 498.8c0 -35.5 -63.9 -82 -154.9 -113.3 -9.3 -3.1 -19.1 -6.2 -29.3 -9.1 -13.3 42 -29.1 83 -47.8 122.8 19.3 40.4 36.1 82 49.8 124.6 5.6 -1.5 11.1 -3.3 16.6 -5zM500 589.5c-49.4 0 -89.5 -40.1 -89.5 -89.5s40.1 -89.5 89.5 -89.5 89.5 40.1 89.5 89.5 -40.1 89.5 -89.5 89.5z"/></svg>