<svg height="1000" width="1125" xmlns="http://www.w3.org/2000/svg"><path d="M489.5 413.6l3.9 -13.3 -11.2 -8.4 14.1 -.2 4.5 -13.3 4.5 13.3 13.8 .2 -11.1 8.4 4.1 13.3 -11.3 -8.1zm124.4 0l3.7 -13.3 -11.2 -8.4 14.1 -.2 4.5 -13.3 4.5 13.3 14.1 .2 -11.2 8.4 4.1 13.3 -11.3 -8.1zm-178.4 98.6c9.6 0 7.5 7.6 7.5 26.9 0 20.1 -13.1 27.5 -32.8 27.5h-.4C390 566.6 377 559.4 377 539.1v-78.3c0 -19.3 13 -27.5 32.8 -27.5h.4c19.7 0 32.8 8.2 32.8 27.5 0 16.4 1.7 23.8 -7.5 24h-6.6c-8.8 0 -7.4 -6.4 -7.4 -20.5 0 -9.1 -4.5 -11.9 -11.3 -11.9s-11.4 2.8 -11.4 11.9v71.5c0 9.2 4.5 11.9 11.4 11.9s11.3 -2.7 11.3 -11.9c0 -15.8 -2 -23.6 7.4 -23.6h6.6zm-157.6 34c4.9 0 7.5 2.5 7.5 7.4v4.1c0 4.9 -2.6 7.4 -7.5 7.4h-42.7c-4.9 0 -7.5 -2.5 -7.5 -7.4V442.3c0 -4.9 2.6 -7.7 7.3 -7.5h42.3c4.9 0 7.5 2.6 7.5 7.5v4.1c0 4.9 -2.6 7.4 -7.5 7.4h-28.1v35.7h22.3c4.9 0 7.4 2.6 7.4 7.5v4.1c0 4.8 -2.5 7.4 -7.4 7.4h-22.3v37.7h28.7zm-82 -36.2l15.8 46.7c1.6 5.1 -.8 8.6 -6.2 8.6H199c-.1 0 -.4 0 -.6 0 -3.5 0 -7 -2.8 -7.8 -6.2l-14.4 -45.9h-11v44.7c0 4.9 -2.5 7.4 -7.4 7.4h-6.6c-4.9 0 -7.5 -2.5 -7.5 -7.4V442.5c0 -4.9 2.6 -7.5 7.5 -7.5h26.1c19.8 0 32.9 7.9 32.9 27.6v23.2c0 12.5 -5.3 20.3 -14.3 24.2zm-7.4 -27.3v-17c0 -9.4 -4.9 -11.9 -11.9 -11.9h-11.4v40.8h11.4c7 0 11.9 -2.5 11.9 -11.9zm155.3 -41.3L365.6 557c1 5.3 -1.5 8 -6.6 8h-6.9c-.1 .1 -.5 .1 -.7 .1 -3.8 0 -7 -3.1 -7.3 -6.9l-3.5 -22.1h-23.8l-3.5 22.1c-.2 3.8 -3.5 6.9 -7.3 6.9 -.2 0 -.5 0 -.7 -.1h-5.9c-4.9 0 -7.6 -2.7 -6.6 -8l21.5 -115.6c.2 -3.7 3.4 -6.7 7.1 -6.7 .2 0 .5 0 .7 .1h13.4c.3 -.1 .6 -.1 .8 -.1 3.7 0 7.1 3 7.5 6.7zm-24.1 76.8h18.4l-9.2 -58zm174.4 39.4c0 4.8 -2.5 7.5 -7.4 7.4h-6.6c-4.9 0 -7.4 -2.5 -7.4 -7.4V453.7h-14.3c-4.9 0 -7.4 -2.5 -7.4 -7.4v-4.1c0 -4.9 2.5 -7.4 7.4 -7.4h50.4c4.9 0 7.4 2.5 7.4 7.4v4.1c0 4.9 -2.5 7.4 -7.4 7.4h-14.7v103.9zm484.4 -1.5c.1 -.1 .2 0 .3 0 2 0 3.6 1.6 3.6 3.6 0 .1 0 .2 0 .3v1.5c0 .1 0 .2 0 .2 0 2 -1.6 3.6 -3.5 3.6 -.1 0 -.3 -.1 -.4 -.1h-43.9c-.1 0 -.3 .1 -.4 .1 -2 0 -3.5 -1.6 -3.5 -3.6 0 0 0 -.1 0 -.2v-123c-.1 -.1 -.1 -.3 -.1 -.5 0 -1.7 1.4 -3.1 3.2 -3.1 .2 0 .6 0 .8 .1h43.3c.2 -.1 .4 -.1 .5 -.1 1.9 0 3.4 1.6 3.4 3.5 0 .1 0 .2 0 .3v1.5c0 .1 0 .2 0 .3 0 2 -1.6 3.6 -3.6 3.6 -.1 0 -.2 0 -.3 0h-37.3v50.4h31.5s.1 0 .2 0c2 0 3.7 1.7 3.7 3.7 0 .1 0 .2 0 .2v1.6c0 .1 0 .2 0 .2 0 2.1 -1.7 3.7 -3.7 3.7 -.1 0 -.2 0 -.2 0h-31.5v52.2h37.9zM796.7 433.2c19.7 0 29.9 9.3 29.9 27.5v78.4c0 18.1 -10.2 27.5 -29.9 27.5h-1.6c-19.7 0 -29.9 -9.4 -29.9 -27.5v-78.4c0 -18.3 10.2 -27.5 29.9 -27.5h1.6zm19.9 102.3v-71.4c0 -15.5 -5.9 -21.7 -20.5 -21.7s-20.5 6.2 -20.5 21.7v71.4c0 15.7 5.8 21.7 20.5 21.7s20.3 -6 20.5 -21.7zm-90.8 -28.3l20.7 53.3c1 2.6 -.2 4.5 -2.9 4.5h-3s-.2 0 -.2 0c-1.8 0 -3.7 -1.3 -4.3 -2.9L715.8 509h-22.6v52.5c0 .1 0 .3 0 .4 0 1.8 -1.5 3.3 -3.4 3.3 -.1 0 -.3 0 -.3 0h-2.4c-.1 0 -.3 .1 -.4 .1 -1.9 0 -3.5 -1.6 -3.5 -3.6 0 0 0 -.1 0 -.2v-123c0 -.1 0 -.2 0 -.2 0 -2 1.6 -3.6 3.5 -3.6 .1 0 .3 .1 .4 .1h26.8c19.7 0 29.9 9.1 29.9 27.5v19c0 14 -6.1 22.8 -18 25.9zm-12.5 -7.6c14.6 0 20.5 -6.2 20.5 -21.5v-12.5c0 -15.6 -5.9 -21.7 -20.5 -21.7h-19.9v55.7h19.9zM881.1 435c19.7 0 29.8 9.1 29.8 27.5V483c0 18.2 -10.1 27.5 -29.8 27.5h-20.7v51c0 .1 0 .3 0 .4 0 1.8 -1.6 3.3 -3.4 3.3 -.1 0 -.3 0 -.4 0h-2.3c-.1 0 -.3 .1 -.4 .1 -1.9 0 -3.5 -1.6 -3.5 -3.6 0 0 0 -.1 0 -.2v-123c0 -.1 0 -.3 0 -.5 0 -1.7 1.4 -3.1 3.1 -3.1 .2 0 .6 0 .8 .1h26.8zm19.9 44.5v-13.9c0 -15.4 -5.9 -21.7 -20.5 -21.5h-20v57.1h20c14.6 0 20.5 -6.3 20.5 -21.7zM506.8 601.6l13.9 .2 -11.1 8.4 4.1 13.2 -11.4 -8 -11.3 8 4.1 -13.2L484 601.8l13.9 -.2 4.4 -13.3zM951.4 335.7c238.8 90.1 231.2 258.9 -66.2 344.5 26.1 97 35.3 199 .2 261.3 -7.5 13.1 -32.9 54.1 -93 54.1 -81.1 0 -215.2 -81.3 -355.7 -277.4 -83.6 -6.8 -141 -19.7 -165.2 -25.3 -40.1 160.7 -13.3 244.7 30.3 269.3 2.3 1.4 75 53.1 236.1 -103.1 6.6 6.8 13.3 13.4 19.9 19.9C434.6 998.5 342.6 1017.7 287.9 986.8 224.6 951.1 204.3 846.2 244.3 686.2 207.4 676.4 6.8 621.4 5.9 505 5.1 425.1 103.1 359.1 240.8 319.4 214.6 222.5 205.3 120.6 240.6 58.1 248 44.9 273.4 3.9 333.6 3.9c81.2 0 215.4 81.3 355.9 277.6 46.1 3.7 120.1 15.1 165.2 25.4C894.7 146.8 868.2 62.6 824.4 37.8c-2.5 -1.4 -75 -53.2 -236.1 103.1C581.6 134.1 575 127.4 568.4 121 670.5 21.5 770.9 -24.7 838.3 13.1c66.2 37.5 81.8 148.2 43.5 300.6 19.5 5.1 50.7 15 69.6 22zM265.4 72c-45.1 79.6 2 237.4 2.4 240.1C312.7 300.8 386.5 288 432.6 283.6c25 -36.5 69.3 -92.7 99 -125.4 6.7 6.5 13.3 13.2 20 20 -24.5 26.8 -61.4 72.7 -82.5 102.3 29 -2.1 76 -3.9 105.1 -3.9 21.6 0 56.7 1 78.3 2.2C526.6 109.6 405.5 32.3 333.6 32.3 288.7 32.3 271.1 62 265.4 72zm595.3 856c6.5 -11.7 42 -75.4 -2.3 -240.2 -8 2.1 -72.5 19.3 -164.8 28.5 -25 36.5 -69.3 92.7 -99.1 125.4 -6.6 -6.5 -13.2 -13.1 -19.9 -19.9C599.1 794.9 636 749.1 657 719.4c-28.8 2.2 -75.7 4.1 -104.7 4.1 -21.7 0 -57 -1.1 -78.7 -2.3 126.2 169.5 247.3 246.5 319 246.5 45.1 0 62.5 -29.7 68.1 -39.7zm17.8 -270.7c50 -14.3 167.8 -53.5 206.5 -122.1 2.7 -4.8 65.4 -98.6 -141.8 -176.5 -18.3 -6.9 -48.5 -16.5 -67.4 -21.5 -7 25.2 -15.4 51 -25 77.1 -6.2 .9 -14 5.8 -17.4 11l-.2 -.2C830 422 824 418.3 819.9 416.7c11.2 -29.3 20.7 -58.2 28.5 -86.3 -14 -3.4 -62.1 -14.9 -141 -22.9 32.6 47.9 54.5 86.1 67 108.4 -6.8 2.2 -15.9 8.7 -20.3 14.5 -26.6 -32.1 -21.5 -38.9 -83 -126C644.2 302.5 600.6 301 573.7 301c-33.8 0 -88.5 2.4 -122.1 5.3 -33 48.9 -55.3 88.3 -68 111.2 -6.8 2.9 -15.8 10.2 -19.9 16.4 -1.8 -5.7 -7.4 -12.7 -12.5 -15.7 11.9 -22.2 33 -60.5 64 -108 -77.3 9 -126.9 21.9 -140.6 25.4 8.4 27.6 18.4 55.9 29.7 84.6 -1.4 1 -3.4 2.9 -4.5 4.3 -2.9 -3.7 -7.8 -10.4 -28.1 -10.4 -9.2 -24 -17.2 -47.8 -24.2 -71.1 -271.1 78.9 -309.4 237.1 2.9 320.4 7 -25.2 15.2 -50.8 24.8 -77 .5 0 1.4 .1 1.9 .1 3.3 0 8.5 -.9 11.6 -2 5.8 2.3 10.1 1.9 16.4 1.9 -10.8 28.5 -19.9 56.5 -27.6 83.8 38.5 8.9 101.7 19.1 141.1 22.8C386.7 646.4 364.8 608.3 352.5 586.4c17 0 20.9 -3.1 24.6 -6.2 1.6 .9 4.2 2.2 5.9 2.9 29.9 52.1 56.5 91 71.9 112.9 26.8 1.9 70.5 3.4 97.4 3.4 33.8 0 88.5 -2.4 122.1 -5.4 32.2 -47.4 54.1 -85.9 66.2 -107.8 14.3 0 19.2 -5.8 21.3 -8.2 3 2.2 8.3 5 11.7 6.3 -29.3 54.6 -56 95.5 -62.9 105.8C750 685.8 813 674.4 851.4 664.7c-8 -26.9 -17.6 -54.5 -28.7 -82.4 3.2 -1.4 7.9 -4.6 10.5 -7l.2 -.2c4 6.1 13.3 11.1 20.7 11.1 0 0 .1 0 .2 0 9.2 24 17.2 47.9 24.2 71.1zM655.1 434.7c.1 -.1 .3 -.1 .4 -.1 2 0 3.8 1.7 3.9 3.8v100.5c0 18.6 -9.8 27.6 -29.5 27.6h-.8c-19.7 0 -29.5 -8.8 -29.5 -27.6V438.4c0 -.1 0 -.2 0 -.2 0 -2 1.6 -3.6 3.5 -3.6 .1 0 .3 0 .4 .1h2.4c.1 -.1 .3 -.1 .4 -.1 1.8 0 3.3 1.5 3.3 3.3 0 .1 0 .3 0 .5v97.2c0 15.7 5.1 21.7 19.7 21.7S649 551.1 649 535.6v-97.2c0 -.1 0 -.3 0 -.4 0 -1.8 1.5 -3.4 3.4 -3.4 .1 0 .2 0 .3 .1h2.4zm-26.8 166.9l13.9 .2 -11.1 8.4 4.1 13.2 -11.4 -8 -11.3 8 4.1 -13.2 -11.1 -8.4 13.8 -.2 4.5 -13.3zM567.6 616l13.8 .2 -11.1 8.4 4.1 13.3 -11.3 -8 -11.3 8 4.1 -13.3 -11.2 -8.4 13.9 -.2 4.5 -13.3zm9.9 -60.1c.1 0 .3 0 .4 0 2 0 3.6 1.6 3.6 3.6 0 .1 0 .3 -.1 .5v1.5c.1 .1 .1 .2 .1 .3 0 1.9 -1.6 3.5 -3.5 3.5 -.1 0 -.3 0 -.5 -.1h-43.9c-.1 0 -.3 .1 -.4 .1 -1.9 0 -3.5 -1.6 -3.5 -3.6 0 0 0 -.1 0 -.2v-123c0 -.1 0 -.2 0 -.2 0 -2 1.6 -3.6 3.5 -3.6 .1 0 .3 .1 .4 .1H577c.1 0 .3 -.1 .4 -.1 1.9 0 3.5 1.6 3.5 3.5 0 .1 0 .2 0 .3v1.5c0 .1 0 .2 0 .3 0 2 -1.7 3.7 -3.7 3.7 -.1 0 -.2 0 -.2 -.1h-37.4v50.4h31.5c.1 0 .2 0 .2 0 2.1 0 3.7 1.7 3.7 3.7 0 .1 0 .2 0 .2v1.6c0 .1 0 .2 0 .2 0 2.1 -1.6 3.7 -3.7 3.7 0 0 -.1 0 -.2 0h-31.5v52.2h37.9zM563.1 361.7l4.5 13.3 13.8 .2 -11.1 8.4 4.1 13.3 -11.3 -8 -11.3 8 4.1 -13.3 -11.2 -8.4 13.9 -.2z"/></svg>