<svg height="1000" width="1125" xmlns="http://www.w3.org/2000/svg"><path d="M1031.8 90.8c51.6 .4 93.2 42.4 93.2 94v479.8c0 51.8 -42 93.8 -93.7 93.8H856.1c-199.5 0 -259 47.7 -287.7 146.5 -1.6 5.5 -10.4 5.5 -11.8 0C528.1 806.1 468.6 758.4 268.9 758.4H93.7C42 758.4 0 716.4 0 664.6v-480C0 132.8 42 90.8 93.7 90.8h272.9c93.9 0 175.4 65.1 196.1 156.9C583.2 155.9 664.8 90.8 758.8 90.8h273zM472.7 609.2h.2v-44.7c0 -4 -3.2 -6.9 -6.9 -6.9H152.7c-3.9 0 -6.8 3.1 -6.8 6.9v44.7c0 3.9 3.1 6.8 6.8 6.8h313.1c3.9 0 6.9 -3.1 6.9 -6.8zm0 -119h.2v-44.7c0 -3.9 -3.2 -6.8 -6.9 -6.8H152.7c-3.9 0 -6.8 3.1 -6.8 6.8v44.7c0 3.9 3.1 6.9 6.8 6.9h313.1c3.9 0 6.9 -3.2 6.9 -6.9zm0 -118.9h.2v-44.7c0 -3.9 -3.2 -6.9 -6.9 -6.9H152.7c-3.9 0 -6.8 3.2 -6.8 6.9v44.7c0 3.9 3.1 6.8 6.8 6.8h313.1c3.9 0 6.9 -3.1 6.9 -6.8zM979.1 609h.2v-44.7c0 -3.9 -3.1 -6.9 -6.8 -6.9H659.2c-3.9 0 -6.9 3.1 -6.9 6.9V609c0 3.9 3.2 6.8 6.9 6.8h313.1c3.9 0 6.8 -3.1 6.8 -6.8zm0 -119h.2v-44.7c0 -3.9 -3.1 -6.8 -6.8 -6.8H659.2c-3.9 0 -6.9 3.1 -6.9 6.8V490c0 3.9 3.2 6.9 6.9 6.9h313.1c3.9 0 6.8 -3.2 6.8 -6.9zm0 -118.9h.2v-44.5c0 -3.9 -3.1 -6.9 -6.8 -6.9H659.2c-3.9 0 -6.9 3.2 -6.9 6.9v44.5c0 3.9 3.2 6.8 6.9 6.8h313.1c3.9 0 6.8 -3.1 6.8 -6.8z"/></svg>