<svg height="1000" width="1000" xmlns="http://www.w3.org/2000/svg"><path d="M501 984.4C228.9 984.4 17.6 757.4 25.8 488.1 31.2 333.4 110.2 190.8 253.3 96.7c.6 0 3.7 -1.2 2.2 1.5C244.1 109 38.1 351.8 227.9 540.4c97.3 96.7 175.8 4.9 175.8 4.9 75.2 -97.8 -1.2 -245.9 -1.2 -245.9C383 250.8 313.3 221.1 313.3 221.1L369.5 159c47.7 20.5 84.4 75.6 84.4 75.6 1.6 -57.8 -42.8 -120 -42.8 -120l87.1 -99 86.6 97.9C544.7 169.7 542 235.7 542 235.7 568.9 190.8 627 159 627 159l55.6 62.1C629.1 238.5 593.9 299 593.9 299c-30.8 55.7 -52.9 174.6 1.2 248.7 63.3 87.1 171.3 -5.5 171.3 -5.5C967 362.7 745.9 102.7 745.9 102.7 734 92 747.5 97.3 747.5 97.3c97.8 71.3 223.8 164.8 226.9 400C978.3 781.6 779.3 984.4 501 984.4z"/></svg>