<svg height="1000" width="750" xmlns="http://www.w3.org/2000/svg"><path d="M700 6.2c20.7 -15.4 50 -.7 50 25v937.5c0 25.8 -29.5 40.5 -50 25l-75 -87.5 -106.3 87.5c-4.5 3.5 -12.9 6.3 -18.7 6.3s-14.2 -2.8 -18.8 -6.3L375 906.2l-106.3 87.5c-4.5 3.5 -12.9 6.3 -18.7 6.3s-14.2 -2.8 -18.8 -6.3L125 906.2l-75 87.5c-20.7 15.5 -50 .8 -50 -25V31.2C0 5.5 29.3 -9.2 50 6.2l75 87.5L231.2 6.2C235.8 2.8 244.2 0 250 0s14.2 2.8 18.7 6.2L375 93.7 481.2 6.2C485.8 2.8 494.2 0 500 0s14.2 2.8 18.7 6.2L625 93.7zm-75 696.9v-31.2c0 -8.6 -7 -15.6 -15.6 -15.6H140.6c-8.6 0 -15.6 7 -15.6 15.6v31.2c0 8.6 7 15.7 15.6 15.7h468.8c8.6 0 15.6 -7.1 15.6 -15.7zm0 -187.5v-31.2c0 -8.6 -7 -15.6 -15.6 -15.6H140.6c-8.6 0 -15.6 7 -15.6 15.6v31.2c0 8.6 7 15.7 15.6 15.7h468.8c8.6 0 15.6 -7.1 15.6 -15.7zm0 -187.5v-31.2c0 -8.6 -7 -15.6 -15.6 -15.6H140.6c-8.6 0 -15.6 7 -15.6 15.6v31.2c0 8.6 7 15.7 15.6 15.7h468.8c8.6 0 15.6 -7.1 15.6 -15.7z"/></svg>