<svg height="1000" width="1000" xmlns="http://www.w3.org/2000/svg"><path d="M360.5 511.5c6.3 27.4 -23.7 48.1 -47 33.6l-79.6 -49.8 -99.3 159c-26 41.5 4 95.7 52.9 95.7h101.6c12.9 0 23.4 10.5 23.4 23.4v78.2c0 12.9 -10.5 23.4 -23.4 23.4H187.7C40.6 875 -49.2 712.8 28.7 588.1L128 429.2 48.4 379.5C24.8 364.7 30.9 328.8 58 322.5l215.3 -49.7c16.8 -3.9 33.6 6.6 37.5 23.4zM553 154.3c-24 -38.4 -81.2 -39.7 -106 0l-35.1 56.2c-6.8 10.9 -21.3 14.3 -32.3 7.4l-66.2 -41.4c-11 -6.8 -14.3 -21.3 -7.5 -32.3L341 88c73.5 -117.5 244.7 -117.2 318 0l80.6 129.1 79.5 -49.7c23.5 -14.7 53.2 6.5 47 33.6l-49.7 215.3c-3.9 16.7 -20.6 27.3 -37.5 23.4L563.6 390c-27.1 -6.3 -33.1 -42.2 -9.6 -57l79.6 -49.7zm418.3 433.8c77.9 124.8 -12 286.9 -159 286.9H625v93.7c0 28 -33.8 41.7 -53.3 22.1L415.4 834.6c-12.2 -12.2 -12.2 -32 0 -44.2L571.7 634.2c19.6 -19.7 53.3 -5.7 53.3 22.1V750h187.5c49 0 78.9 -54.2 53 -95.6l-53.9 -86.2c-6.8 -11 -3.5 -25.4 7.5 -32.3l66.1 -41.3c11 -6.9 25.5 -3.5 32.3 7.5z"/></svg>