<svg height="1000" width="875" xmlns="http://www.w3.org/2000/svg"><path d="M689.8 62.5c102.4 0 185.2 82.8 185.2 185.2v504.6c0 102.4 -82.8 185.2 -185.2 185.2H185.2C82.8 937.5 0 854.7 0 752.3V247.7C0 145.3 82.8 62.5 185.2 62.5h504.6zM283 392.4c-1.2 -24.2 22.9 -48.1 46.9 -46.9h109.9c52.8 0 95.6 -42.8 95.6 -95.5H234.2c-25.8 0 -46.7 20.9 -46.7 46.7v301.1c52.7 0 95.5 -42.7 95.5 -95.5V392.4zM627.3 533c52.8 0 95.6 -42.8 95.6 -95.5H421.7c-25.8 0 -46.7 20.9 -46.7 46.7v301.1c52.7 0 95.5 -42.7 95.5 -95.5V579.9c-1.2 -24.2 22.9 -48.1 46.9 -46.9h109.9z"/></svg>