<svg height="1000" width="875" xmlns="http://www.w3.org/2000/svg"><path d="M553.1 674.8c5.3 5.3 5.3 13.3 0 18 -47.8 47.8 -183.2 48 -231.2 0 -5.3 -4.7 -5.3 -12.7 0 -18 4.7 -4.7 12.7 -4.7 17.4 0 36.5 37.5 158.2 38.3 196.2 0 4.7 -4.5 12.9 -4.5 17.6 0zM374.8 569.7c0 28.5 -23.2 51.8 -51.8 51.8 -29.1 0 -52.3 -23.3 -52.3 -51.8 0 -29.1 23.2 -52.3 52.3 -52.3 28.6 0 51.8 23.2 51.8 52.3zM552 517.4c29.1 0 52.3 23.2 52.3 52.3 0 28.5 -23.2 51.8 -52.3 51.8 -28.6 0 -51.8 -23.3 -51.8 -51.8 0 -29.1 23.2 -52.3 51.8 -52.3zM875 156.3v687.5c0 51.7 -42 93.7 -93.7 93.7H93.8C42 937.5 0 895.5 0 843.8V156.3C0 104.5 42 62.5 93.8 62.5h687.5c51.7 0 93.7 42 93.7 93.8zM680.3 430.9c-19.8 0 -37.1 8.2 -50 20.9C583.2 419.1 519.9 398.2 449.6 395.9l36.5 -164.5 116.2 26.2c0 28.5 23.3 51.8 51.8 51.8 29.1 0 52.3 -23.9 52.3 -52.4s-23.2 -52.3 -52.3 -52.3c-20.3 0 -37.7 12.1 -46.5 29.1L479.3 205.3c-6.4 -1.8 -12.7 2.9 -14.5 9.3l-40 181.3c-69.7 2.9 -132.4 23.8 -179.5 56.4 -12.7 -13.2 -30.8 -21.4 -50.6 -21.4 -73.2 0 -97.2 98.4 -30.2 131.8 -2.4 10.5 -3.6 21.5 -3.6 32.6 0 110.4 124.5 199.8 277.2 199.8 153.3 0 277.7 -89.4 277.7 -199.8 0 -11.1 -1.2 -22.6 -4.1 -33.2 65.6 -33.6 41.4 -131.2 -31.4 -131.2z"/></svg>