<svg height="1000" width="1000" xmlns="http://www.w3.org/2000/svg"><path d="M860 397.5c108 0 143.9 144.7 46.4 194.7 4.3 15.4 6.1 32.6 6.1 49 0 163.7 -184.4 296.3 -411.7 296.3C274.4 937.5 90 804.9 90 641.2c0 -16.4 1.6 -32.8 5.1 -48.2C-4.3 543.2 31.2 397.5 139.8 397.5c29.3 0 56.1 12.1 75 31.8 70 -48.2 162.9 -79.3 266.3 -83.6L540.4 77c2.6 -9.6 11.9 -16.5 21.5 -13.9l190.2 42.2c12.9 -24.8 38.9 -43 69 -43 43.2 0 77.5 35.4 77.5 77.5 0 42.2 -34.5 77.6 -77.5 77.6 -42.2 0 -76.6 -34.4 -76.6 -76.6L572.3 102.1l-54.1 243.8c104.1 3.3 198 34.4 267.7 82.6 19 -18.9 44.8 -31 74.1 -31zM252.7 603.3c0 42.2 34.6 76.8 77.6 76.6 42.2 0 76.5 -34.4 76.5 -76.6 0 -43.1 -34.3 -77.5 -76.5 -77.5 -43.2 0 -77.6 34.6 -77.6 77.5zm418.6 182.6c7.8 -6.8 7.8 -18.9 -.2 -26.7 -6.8 -6.9 -19 -6.9 -25.8 0 -56.6 56.6 -236.7 55.6 -291 0 -6.8 -6.9 -18.9 -6.9 -25.8 0 -7.8 7.8 -7.8 19.9 0 26.7 71.1 71.1 271.7 71.1 342.8 0zm-1.6 -105.8c43 0 77.4 -34.6 77.6 -76.6 0 -43.1 -34.6 -77.5 -77.6 -77.5 -42.2 0 -76.5 34.5 -76.5 77.5 0 42.2 34.3 76.6 76.5 76.6z"/></svg>