<svg height="1000" width="1000" xmlns="http://www.w3.org/2000/svg"><path d="M667 557.4v.3c65.8 0 160.9 -13.5 160.9 -91.8 .4 -13.1 1.6 -3.5 -40.8 -187.9 -9.1 -37.4 -17 -54.4 -82.7 -87.2C653.5 164.7 542.5 121.7 509.7 121.7c-30.6 0 -39.5 39.4 -76 39.4 -35.1 0 -61.1 -29.4 -94 -29.4 -31.5 0 -52 21.4 -67.9 65.6 -53.7 151.5 -51.3 145.1 -51 152.9 0 48.4 190.7 207.2 446.2 207.2zm171 -59.7h-.1c9.1 43 9.1 47.6 9.1 53.3 0 73.5 -82.7 114.3 -191.4 114.3C410 665.5 194.8 521.5 194.8 426.4v-.1c0 -11.1 3.6 -28.3 7.9 -38.4C114.4 392.3 0 408.1 0 509c0 165.4 391.9 369.2 702.1 369.2C940 878.2 1000 770.6 1000 685.6 1000 618.8 942.2 543 838 497.7z"/></svg>