<svg height="1000" width="1000" xmlns="http://www.w3.org/2000/svg"><path d="M500.9 15.6c129.4 .3 246.9 51.3 333.7 134.2L904.4 80c29.5 -29.5 80 -8.6 80 33.2V375c0 25.9 -21 46.9 -46.9 46.9H675.7c-41.8 0 -62.7 -50.5 -33.2 -80l81.6 -81.6C663.8 203.9 585.8 172.6 502.9 171.9c-180.5 -1.6 -332.6 144.5 -331 330.9 1.5 176.9 144.9 325.3 328.1 325.3 80.3 0 156.2 -28.6 216.1 -81.1 9.2 -8.2 23.2 -7.7 31.9 1l77.5 77.5c9.5 9.5 9.1 25 -.9 34.1C738.7 937.1 624.9 984.4 500 984.4 232.5 984.4 15.6 767.5 15.6 500 15.6 232.8 233.7 15.1 500.9 15.6z"/></svg>