<svg height="1000" width="1000" xmlns="http://www.w3.org/2000/svg"><path d="M977.2 0c12.9 0 23.4 10.5 23.4 23.4v391.3c0 13 -10.5 23.5 -23.4 23.5H585.9c-12.9 0 -23.4 -10.5 -23.4 -23.5v-92.6c0 -12.9 10.5 -23.4 23.4 -23.4 .3 0 .8 0 1.2 0l198.3 9.5C729 224.3 601.1 156.2 500 156.2c-189.7 0 -343.7 154 -343.7 343.7 0 189.8 154 343.8 343.7 343.8 71.6 0 173.4 -38.4 227.1 -85.7 3.7 -3.2 10.6 -5.8 15.4 -5.8 5.4 0 12.8 3.1 16.6 6.9l66.4 66.4c3.8 3.8 6.9 11.2 6.9 16.6 0 5.8 -3.5 13.6 -7.8 17.5C748.5 928.5 603.4 984.4 500.7 984.4h-.7C232.6 984.4 15.8 767.7 15.6 500.4 15.4 233.5 233.1 15.6 500 15.6h.5C624 15.6 789.1 92 869 186.2L861.2 24.6c0 -.4 -.1 -.9 -.1 -1.2C861.1 10.5 871.6 0 884.6 0h92.6z"/></svg>