<svg height="1000" width="1250" xmlns="http://www.w3.org/2000/svg"><path d="M656.3 812.5c17.2 0 31.2 14 31.2 31.3v62.5c0 17.2 -14 31.2 -31.2 31.2h-250c-17.3 0 -31.3 -14 -31.3 -31.2v-62.5c0 -17.3 14 -31.3 31.3 -31.3h63.4L521.5 657l131 101.3 -18.1 54.2h21.8zm581.6 82.2c6.7 5.2 12.1 16.3 12.1 24.7 0 5.9 -2.9 14.5 -6.6 19.2l-38.3 49.3c-5.2 6.7 -16.3 12.1 -24.7 12.1 -5.9 0 -14.5 -2.9 -19.2 -6.6L12.1 105.3C5.4 100.1 0 89.1 0 80.6 0 74.7 3 66.1 6.6 61.4L44.9 12.1C50.1 5.4 61.2 0 69.6 0c5.9 0 14.5 3 19.2 6.6l223.7 172.9V93.7c0 -17.2 14 -31.2 31.3 -31.2h812.5c17.2 0 31.2 14 31.2 31.2v187.5c0 17.3 -14 31.3 -31.2 31.3h-62.5c-17.3 0 -31.3 -14 -31.3 -31.3v-62.5H832.4L736.3 507zM605.3 405.8l62.3 -187H437.5v57.3z"/></svg>