<svg height="1000" width="875" xmlns="http://www.w3.org/2000/svg"><path d="M625 937.5H250C112.5 937.5 0 825 0 687.5v-375C0 175 112.5 62.5 250 62.5h375c137.5 0 250 112.5 250 250v375c0 137.5 -112.5 250 -250 250zM377.7 533.6c-11.9 -3.9 -22.6 -6.1 -32 -6.1 -14.1 0 -26.4 3.7 -36.9 11 -10.6 7.2 -18.8 17.6 -25 30.8h-2.2l-8.2 -35.7h-54.7v271.3h70.6V629.7c2.9 -10.6 8.6 -19.2 16.9 -25.8 8.4 -6.6 19.2 -10 31.7 -10 9 0 19.1 2 30.5 6.1zm225 201.9c-6.2 4.7 -15 9.4 -26.7 13.9s-25 6.9 -39.9 6.9c-23.8 0 -41.2 -5.9 -51.7 -17.4 -10.8 -11.6 -16.6 -28.7 -17.6 -51.6h162.7c1.8 -9.4 3.1 -18.4 4.1 -27.1 1 -8.6 1.4 -16.8 1.4 -24.5 0 -20.9 -3.2 -38.4 -9.2 -52.5 -6.3 -14.1 -14.3 -25.4 -24.4 -33.6 -10.2 -8.4 -21.7 -14.2 -34.8 -18 -13.1 -3.5 -26.4 -5.4 -40.2 -5.4 -41.2 0 -73.3 11.9 -96.1 35.7s-34.2 59.6 -34.2 107.4c0 44.6 10.2 79.5 30.5 104.9 20.3 25.6 52.3 38.3 96.1 38.3 20.9 0 40.8 -2.9 59.3 -9 18.6 -6 33.4 -13.3 44.2 -21.9zM560.2 598.2c7.4 10.6 10.3 25.6 8.9 45.2H468.2c1.7 -18.4 7.2 -33.2 16 -44.2 8.8 -10.9 22.4 -16.6 41 -16.6 16 -.2 27.5 5.1 35 15.6zm156 4.9c8 7.6 18.4 11.4 31.5 11.4 13.6 0 24.6 -3.8 32.6 -11.4 8 -7.6 11.9 -17.7 11.9 -30.4S788.3 550 780.3 542.6s-18.8 -11.2 -32.6 -11.2c-13.1 0 -23.5 3.8 -31.5 11.2 -8 7.4 -11.9 17.4 -11.9 30.1s3.9 22.8 11.9 30.4zm0 196.3c8 7.6 18.4 11.3 31.5 11.3 13.6 0 24.6 -3.7 32.6 -11.3 8 -7.6 11.9 -17.8 11.9 -30.5s-3.9 -22.6 -11.9 -30 -18.8 -11.2 -32.6 -11.2c-13.1 0 -23.5 3.7 -31.5 11.2 -8 7.4 -11.9 17.4 -11.9 30 0 12.9 3.9 22.9 11.9 30.5z"/></svg>