<svg height="1000" width="1250" xmlns="http://www.w3.org/2000/svg"><path d="M1062.5 375v125H0V375C0 202.3 139.8 62.5 312.5 62.5H750c172.7 0 312.5 139.8 312.5 312.5zM344.3 332.8c6.9 -6.8 3.2 -18.5 -6.6 -19.9l-53.5 -7.8 -23.8 -48.5c-4.1 -8.6 -16.7 -8.7 -20.9 0l-23.9 48.5 -53.5 7.8c-9.6 1.4 -13.5 13.1 -6.4 19.9l38.6 37.7 -9.1 53.3c-1.6 9.6 8.6 16.8 16.9 12.3L250 410.9l47.9 25.2c8.5 4.5 18.5 -2.7 16.9 -12.3l-9.1 -53.3zm281.3 0c6.8 -6.8 3.1 -18.5 -6.7 -19.9l-53.5 -7.8 -23.8 -48.5c-4.1 -8.6 -16.6 -8.7 -20.9 0l-23.8 48.5 -53.5 7.8c-9.6 1.4 -13.5 13.1 -6.5 19.9l38.7 37.7 -9.2 53.3c-1.6 9.6 8.6 16.8 17 12.3l47.9 -25.2 47.8 25.2c8.6 4.5 18.6 -2.7 17 -12.3l-9.2 -53.3zm281.2 0c6.9 -6.8 3.2 -18.5 -6.6 -19.9l-53.5 -7.8 -23.8 -48.5c-4.1 -8.6 -16.7 -8.7 -20.9 0l-23.9 48.5 -53.5 7.8c-9.6 1.4 -13.5 13.1 -6.4 19.9l38.6 37.7 -9.1 53.3c-1.6 9.6 8.6 16.8 16.9 12.3l47.9 -25.2 47.9 25.2c8.5 4.5 18.5 -2.7 16.9 -12.3l-9.1 -53.3zm312 292.2c17.1 0 31.2 14.1 31.2 31.3v125c0 91.6 -79.3 165 -172.7 155.4 -81.2 -8.2 -139.8 -83 -139.8 -164.6v-84.6H875v218.8c0 17.1 -14.1 31.2 -31.2 31.2H656.3c-17.2 0 -31.3 -14.1 -31.3 -31.2V750H250v156.3c0 17.1 -14.1 31.2 -31.2 31.2H31.3C14.1 937.5 0 923.4 0 906.3V562.5h1062.5v218.8c0 17.1 14.1 31.2 31.3 31.2s31.2 -14.1 31.2 -31.2v-125c0 -17.2 14.1 -31.3 31.3 -31.3h62.5z"/></svg>