<svg height="1000" width="875" xmlns="http://www.w3.org/2000/svg"><path d="M0 62.5h875v875H0v-875zm512.1 653.1v-14.2c-19.5 0 -39.1 -13.5 -53.1 -28.7 -23.8 -26 -55.9 -67.8 -82.4 -115.1 43.9 -10.3 76.5 -51.5 76.5 -92.8 0 -60.9 -47.2 -89 -109.2 -89 -34.7 0 -88 3.1 -138.4 1.2v15.8c30.4 5.6 42.9 2.5 42.9 46.7v213.6c0 44.2 -12.7 41 -42.9 46.7v15.8c14.6 -.4 40 -1.5 65.6 -1.5 24.4 0 56 .9 69.5 1.5v-15.8C302 694.5 290.2 699 290.2 653.1v-90.6c13.1 1.2 24.4 1.2 41.8 1.2 33 59.2 64.5 103.5 82.5 124.2 32.8 39.4 84.7 33.6 97.6 27.7zM556.8 452c75.6 0 66.4 -57.5 66.4 -97.5h-59.3v20.9h34.9c0 31 -14.4 52.3 -42 52.3 -22 0 -34.9 -19.3 -34.9 -45.5v-52.3c0 -24.2 23 -38.5 38.5 -38.5 27.7 0 38.4 24.4 38.4 24.4l20.9 -14s-10.1 -35 -59.3 -35c-49.3 0 -66.5 35.5 -66.5 59.4v62.9c0 32.2 17.4 62.9 62.9 62.9zm-227.5 87.3c-18.4 0 -26.6 -.6 -39.1 -1.6V401.6c12.5 -1.2 29.3 -1.2 44 -1.2 45.5 0 72.6 23.8 72.6 67.4 0 42.7 -29.3 71.5 -77.5 71.5z"/></svg>