<svg height="1000" width="968.8" xmlns="http://www.w3.org/2000/svg"><path d="M549.2 543.4L162.7 655.1 106.8 462.5 474.4 356.8c102.9 -29.8 127 -15.8 138.9 25l21.9 76.8c10.9 38.9 3.9 58.8 -86 84.8zM485.4 15.6c267.5 0 485.3 217.6 483.4 483.8 0 267.4 -217.8 485 -485.4 485 -89.8 0 -174.8 -24.8 -246.7 -67.8L191.8 760 752 832.8l93.9 -26L827 740 396.5 687.1l180.8 -51.9c59 -17 82.1 -30.9 120 -64.9 47.8 -44.9 61.9 -88.9 45.9 -143.7l-20.9 -73.9c-17 -58.9 -49.1 -95.9 -120 -107.8 -49 -6.8 -86.9 -3.9 -154.8 16L14.1 385.7C64.8 173.2 256.6 15.6 485.4 15.6zM74.8 759C27.9 684 0 596.3 0 501.6z"/></svg>