<svg height="1000" width="1250" xmlns="http://www.w3.org/2000/svg"><path d="M250 250C181.1 250 125 193.9 125 125S181.1 0 250 0s125 56.1 125 125S318.9 250 250 250zm750 0C931.1 250 875 193.9 875 125S931.1 0 1000 0s125 56.1 125 125 -56.1 125 -125 125zm248.6 442.4c7.3 29.5 -16.2 57.6 -47.8 57.6h-107v203.1c0 26 -20.9 46.9 -46.9 46.9h-93.8c-26 0 -46.8 -20.9 -46.8 -46.9V750H799.2c-31.6 0 -55.1 -28.1 -48.2 -57.6l89 -362.9c6.5 -26.4 30.3 -44.9 58.2 -47.3 29.3 19 64.1 30.3 101.6 30.3s72.3 -11.3 101.6 -30.3c27.9 2.4 51.7 20.9 58.2 47.3zM656.3 0c17.1 0 31.2 14.1 31.2 31.3v937.5c0 17.1 -14.1 31.2 -31.2 31.2h-62.5c-17.2 0 -31.3 -14.1 -31.3 -31.2V31.3C562.5 14.1 576.6 0 593.8 0h62.5zM351.8 282c48 4.1 85.7 44 85.7 93v265.6c0 26 -20.9 46.9 -46.9 46.9H375v265.6c0 26 -20.9 46.9 -46.9 46.9H171.9c-26 0 -46.9 -20.9 -46.9 -46.9V687.5h-15.6c-26 0 -46.9 -20.9 -46.9 -46.9V375c0 -49 37.7 -88.9 85.7 -93 29.3 19.2 64.3 30.5 101.8 30.5S322.5 301.2 351.8 282z"/></svg>