<svg height="1000" width="1250" xmlns="http://www.w3.org/2000/svg"><path d="M1229.8 671.1l-196.7 196.6c-18.3 18.3 -47.9 18.3 -66.2 0L770.2 671.1c-18.3 -18.3 -18.3 -48 0 -66.3l21.1 -21.1c18.7 -18.7 49.1 -18.3 67.3 .9l78.9 83.6V312.5H571.2c-10.7 0 -25.6 -6.2 -33.2 -13.7l-31.2 -31.3c-29.5 -29.5 -8.6 -80 33.1 -80h475.7c25.9 0 46.9 21 46.9 46.9v433.8l78.9 -83.6c18.2 -19.2 48.6 -19.6 67.3 -.9l21.1 21.1c18.3 18.3 18.3 48 0 66.3zM712 701.2l31.2 31.3c29.5 29.5 8.6 80 -33.1 80H234.4c-25.9 0 -46.9 -21 -46.9 -46.9V331.8l-78.9 83.6C90.4 434.6 60 435 41.3 416.3L20.2 395.2c-18.3 -18.3 -18.3 -48 0 -66.3L216.9 132.3c18.3 -18.3 47.9 -18.3 66.2 0l196.7 196.6c18.3 18.3 18.3 48 0 66.3l-21.1 21.1c-18.7 18.7 -49.1 18.3 -67.3 -.9l-78.9 -83.6v355.7h366.3c10.7 0 25.6 6.2 33.2 13.7z"/></svg>