<svg height="1000" width="875" xmlns="http://www.w3.org/2000/svg"><path d="M565.8 536.9c0 70.7 -57.4 128.1 -128.1 128.1C367 665 309.6 607.6 309.6 536.9c0 -70.7 57.4 -128.1 128.1 -128.1 70.6 .1 128 57.5 128.1 128.1zM838.3 527v410.5H427.9v-.2C211.2 932 37.1 754.8 37.1 536.9c0 -212.1 164.7 -385.4 373.1 -399.6V62.5l212.4 122.6L410.2 307.8v-76.5C253.9 245.3 130.9 377 130.9 536.9c0 169.2 137.6 306.9 306.8 306.9S744.5 706.1 744.5 536.9c0 -92.2 -62.8 -207.5 -140.2 -257.5l88.6 -51.2c77.7 64.2 142.8 198.1 145.2 298.8h.2z"/></svg>