<svg height="1000" width="875" xmlns="http://www.w3.org/2000/svg"><path d="M11.9 867.8L240.8 613.9l154.7 171.6L216.2 984.6c-15.6 17.2 -41.8 20.5 -61.1 7.4L20.7 937.5C-2.7 921.7 -6.8 888.9 11.9 867.8zm851.2 0c18.9 21.1 14.8 53.9 -8.4 69.5l-134.4 54.5c-19.3 13.1 -45.5 10 -61.1 -7.4L174.6 446.7C79.7 341.6 149.2 225 152.1 220.1l85.2 -143c8.4 -14 19.3 -25.9 32.8 -35.1 86 -58 255.3 -53.9 334.8 0 13.5 9.2 24.4 21.1 32.8 35.1L723 220.7c42.8 72.1 33.8 163.3 -22.2 225.6L634 520.5 479.5 349.2S582.4 234 588.9 223C558.8 206.6 510.3 188.1 437.5 188.1S316.2 206.6 286.1 223c6.7 10.8 577 644.8 577 644.8z"/></svg>