<svg height="1000" width="1250" xmlns="http://www.w3.org/2000/svg"><path d="M62.5 437.5H125v375H62.4C28 812.5 0 784.5 0 750.1V499.9c0 -34.4 28 -62.4 62.4 -62.4h.1zm1000 -93.7V875c-.1 68.9 -56.1 124.9 -125 125h-625c-68.9 -.1 -124.9 -56.1 -125 -125V343.7c0 -86.2 70 -156.2 156.2 -156.2h218.8v-125C562.5 28 590.5 0 625 0s62.5 28 62.5 62.5v125H906.3c86.2 0 156.2 70 156.2 156.2v.1zM515.6 500c0 -43.1 -35 -78.1 -78.1 -78.1s-78.1 35 -78.1 78.1 35 78.1 78.1 78.1c43.1 0 78.1 -35 78.1 -78.1zM500 750H375v62.5h125V750zm187.5 0h-125v62.5h125V750zM890.6 500c0 -43.1 -35 -78.1 -78.1 -78.1s-78.1 35 -78.1 78.1 35 78.1 78.1 78.1c43.1 0 78.1 -35 78.1 -78.1zM875 750H750v62.5h125V750zm375 -250v250.1c0 34.4 -28 62.4 -62.4 62.4H1125v-375h62.6c34.4 0 62.4 28 62.4 62.4v.1z"/></svg>