<svg height="1000" width="1125" xmlns="http://www.w3.org/2000/svg"><path d="M950 210.1c233.7 149.5 232.9 431.6 0 580.3C799.4 889.9 599.7 912.3 434.2 882.6 247.6 1060.7 40.2 978.6 0 954.8c0 0 142.7 -121.3 119.6 -227.5 -88.7 -90.6 -169 -282.4 0 -454.6C142.7 166.4 0 45.2 0 45.2c40.6 -23.7 248.6 -106.1 434.2 73 165.9 -30 365.6 -7.4 515.8 91.9zM574.6 789.5c247.4 0 448 -129.3 448 -289.5S822 210.1 574.6 210.1 126.5 339.8 126.5 500c0 69.9 38 133.8 101.6 183.8 17.8 56.9 7.3 121.2 -31.3 192.8 -1.7 3.3 -3.4 6.8 -5.4 10.2 29.4 -2.6 74.6 -15.5 101 -28.7C314 845.8 346 821.9 363.9 804.6l38.6 -37.3c46.2 12.2 122.4 22.2 170.2 22.2 .5 0 1.3 0 1.9 0zm-215 -220.6c-.3 0 -.7 .1 -.9 .1 -36.4 0 -66.4 -29.6 -67.1 -65.9 -1.3 -88.7 132.5 -90.6 133.9 -2.1v1c0 .1 0 .4 0 .6 0 36.3 -29.5 66.1 -65.9 66.4v-.1zm144.1 -65.8c-1.6 -88.7 132.3 -90.8 133.8 -2.3v1.2c.8 88 -132.3 89 -133.8 1.1zm280 65.8c-.2 0 -.7 .1 -.9 .1 -36.4 0 -66.4 -29.6 -67.1 -65.9 -1.3 -88.7 132.5 -90.6 133.9 -2.1v1c0 .2 0 .6 0 .8 0 36.4 -29.5 66 -65.9 66.2v-.1z"/></svg>