<svg height="1000" width="1000" xmlns="http://www.w3.org/2000/svg"><path d="M986.6 37.3c13.5 62.9 13.5 112.1 13.4 161.3 0 200.6 -108.3 321.9 -250.1 412.3v204c0 32 -23.2 69.5 -51.8 83.7l-192.8 96.5c-5.5 2.5 -14.9 4.7 -20.9 4.9 -25.9 0 -46.9 -21 -46.9 -46.9V750.3l-43.9 43.9c-25.6 25.7 -66.6 21.8 -88.4 0l-99.5 -99.4c-25.3 -25.4 -22.2 -66.2 0 -88.4l43.9 -43.9H46.9C21 562.5 0 541.5 0 515.6c.2 -6 2.4 -15.4 4.9 -20.9l96.6 -193C115.8 273.2 153.3 250 185.2 250h203.6C479 107.8 600 0 801.6 0c49 0 98.2 0 161.1 13.5 10.9 2.3 21.5 13 23.9 23.8zM750.1 328.1c43.1 0 78.1 -35 78.1 -78.1 0 -43.1 -35 -78.1 -78.1 -78.1S672 206.9 672 250c0 43.1 35 78.1 78.1 78.1z"/></svg>