<svg height="1000" width="1000" xmlns="http://www.w3.org/2000/svg"><path d="M812.5 625c103.3 0 187.5 84.2 187.5 187.5S915.8 1000 812.5 1000H269.9c26.4 -31.8 61.2 -76.6 92.4 -125h450.2c34.4 0 62.5 -28.1 62.5 -62.5S846.9 750 812.5 750H625C521.7 750 437.5 665.8 437.5 562.5S521.7 375 625 375h88.5C668.4 311.3 625 237.3 625 187.5 625 84 709 0 812.5 0S1000 84 1000 187.5 812.5 500 812.5 500H625c-34.4 0 -62.5 28.1 -62.5 62.5S590.6 625 625 625h187.5zm0 -500c-34.6 0 -62.5 27.9 -62.5 62.5s27.9 62.5 62.5 62.5S875 222.1 875 187.5 847.1 125 812.5 125zm-625 375C291 500 375 584 375 687.5S187.5 1000 187.5 1000 0 791 0 687.5 84 500 187.5 500zm0 250c34.6 0 62.5 -27.9 62.5 -62.5S222.1 625 187.5 625 125 652.9 125 687.5s27.9 62.5 62.5 62.5z"/></svg>