<svg height="1000" width="875" xmlns="http://www.w3.org/2000/svg"><path d="M250.2 812.4c0 69.1 -56 125.1 -125.1 125.1S0 881.5 0 812.4 56 687.3 125.1 687.3s125.1 56 125.1 125.1zm343 92.3c1 17.8 -13.3 32.8 -31.2 32.8h-93.9c-16.4 0 -30.2 -12.7 -31.3 -29.1C422.6 689.5 247.5 514.9 29.1 500.7 12.7 499.6 0 485.8 0 469.4v-93.9c0 -17.9 15 -32.2 32.8 -31.2 302.3 16.3 544.1 258.5 560.4 560.4zm281.8 .6c.6 17.6 -13.6 32.2 -31.3 32.2h-93.9c-16.8 0 -30.5 -13.3 -31.2 -30.2C703.3 534 403.6 234.2 30.2 218.9 13.3 218.2 0 204.5 0 187.7V93.8C0 76.1 14.6 61.9 32.2 62.5 491.1 79 858.6 448.6 875 905.3z"/></svg>