<svg height="1000" width="875" xmlns="http://www.w3.org/2000/svg"><path d="M781.3 62.5c51.7 0 93.7 42 93.7 93.8v687.5c0 51.7 -42 93.7 -93.7 93.7H93.8C42 937.5 0 895.5 0 843.8V156.3C0 104.5 42 62.5 93.8 62.5h687.5zm-562.5 750c51.7 0 93.7 -42 93.7 -93.7S270.5 625 218.8 625 125 667 125 718.8s42 93.7 93.8 93.7zm307.6 0c12.8 0 23 -10.7 22.3 -23.4C537.1 573.4 364.3 400.4 148.4 388.8c-12.7 -.7 -23.4 9.5 -23.4 22.3v67c0 11.8 9.1 21.6 20.8 22.4 156 10.1 281 134.9 291.2 291.2 .8 11.7 10.6 20.8 22.4 20.8h67zm201.3 0c12.6 0 22.7 -10.4 22.3 -23C738.3 463.3 475.8 199.3 148 187.5c-12.6 -.4 -23 9.7 -23 22.3v67.1c0 12 9.5 21.8 21.6 22.3 266.7 11 480.7 225.1 491.7 491.7 .5 12.1 10.3 21.6 22.3 21.6h67.1z"/></svg>