<svg height="1000" width="750" xmlns="http://www.w3.org/2000/svg"><path d="M467.5 625H286.2v62.5h315.4c12.9 0 23.4 10.5 23.4 23.4v78.2c0 12.9 -10.5 23.4 -23.4 23.4H286.2v101.6c0 12.9 -10.4 23.4 -23.4 23.4H148.4C135.5 937.5 125 927 125 914.1V812.5H23.4C10.5 812.5 0 802 0 789.1v-78.2C0 698 10.5 687.5 23.4 687.5H125V625H23.4C10.5 625 0 614.5 0 601.6V513c0 -13 10.5 -23.5 23.4 -23.5H125V85.9C125 73 135.5 62.5 148.4 62.5h319.1C633.7 62.5 750 175 750 341.9 750 508.9 633.8 625 467.5 625zM286.3 196.8v292.7h151.2c93.8 0 148.8 -58 148.8 -147.6 0 -88.3 -55 -145.1 -146.3 -145.1H286.2z"/></svg>