<svg height="1000" width="1000" xmlns="http://www.w3.org/2000/svg"><path d="M312.5 562.5v80.8L3.1 952.7C1.8 947.7 0 942.9 0 937.5v-875C0 28 28 0 62.5 0H250c34.5 0 62.5 28 62.5 62.5V125H203.1c-8.6 0 -15.6 7 -15.6 15.6v31.3c0 8.6 7 15.6 15.6 15.6h109.4v125H203.1c-8.6 0 -15.6 7 -15.6 15.6v31.3c0 8.6 7 15.6 15.6 15.6h109.4v125H203.1c-8.6 0 -15.6 7 -15.6 15.6v31.3c0 8.6 7 15.6 15.6 15.6h109.4zm625 125c34.5 0 62.5 28 62.5 62.5v187.5c0 34.5 -28 62.5 -62.5 62.5h-875c-5.4 0 -10.2 -1.8 -15.2 -3.1L356.7 687.5h80.8v109.4c0 8.6 7 15.6 15.6 15.6h31.3c8.6 0 15.6 -7 15.6 -15.6V687.5h125v109.4c0 8.6 7 15.6 15.6 15.6h31.3c8.6 0 15.6 -7 15.6 -15.6V687.5h125v109.4c0 8.6 7 15.6 15.6 15.6h31.3c8.6 0 15.6 -7 15.6 -15.6V687.5h62.5z"/></svg>