<svg height="1000" width="1125" xmlns="http://www.w3.org/2000/svg"><path d="M1062.5 250c34.5 0 62.5 28 62.5 62.5v375c0 34.5 -28 62.5 -62.5 62.5H62.5C28 750 0 722 0 687.5v-375C0 278 28 250 62.5 250h93.8v171.9c0 8.6 6.9 15.6 15.6 15.6h31.2c8.7 0 15.7 -7 15.7 -15.6V250h125v171.9c0 8.6 6.9 15.6 15.6 15.6h31.2c8.7 0 15.7 -7 15.7 -15.6V250h125v171.9c0 8.6 6.9 15.6 15.6 15.6h31.2c8.7 0 15.7 -7 15.7 -15.6V250h125v171.9c0 8.6 6.9 15.6 15.6 15.6h31.2c8.7 0 15.7 -7 15.7 -15.6V250h125v171.9c0 8.6 6.9 15.6 15.6 15.6h31.2c8.7 0 15.7 -7 15.7 -15.6V250h93.7z"/></svg>