<svg height="1000" width="1250" xmlns="http://www.w3.org/2000/svg"><path d="M1241.6 326.6c17.2 29.3 7 66.8 -22.7 83.6L248.6 960.7c-29.7 16.8 -67.7 6.9 -84.9 -22.4L8.2 673.4C-9 644.1 1.4 606.8 31.1 589.8l134.7 -76.3 116.6 198c4.3 7.4 13.9 10 21.3 5.7l27 -15.2c7.4 -4.3 9.9 -13.7 5.6 -20.9L219.7 482.4l107.8 -61.1 54.5 92.8c4.3 7.4 13.9 9.9 21.3 5.6l27 -15.2c7.4 -4.3 9.9 -13.5 5.6 -20.9L381.4 391l107.9 -61.1 116.6 198.6c4.3 7.4 13.8 10 21.2 5.7l27 -15.3c7.4 -4.3 10 -13.6 5.7 -20.9L543 299.4l107.8 -61.1 54.5 92.4c4.3 7.4 13.8 9.9 21.3 5.6l26.9 -15.2c7.4 -4.3 10 -13.5 5.7 -20.9l-54.5 -92.6 107.8 -61.1 116.6 198.4c4.3 7.4 13.9 10 21.3 5.7l26.9 -15.2c7.5 -4.3 10 -13.5 5.7 -20.9L866.4 115.8l134.8 -76.3c29.7 -16.8 67.7 -6.9 84.9 22.4z"/></svg>