<svg height="1000" width="812.5" xmlns="http://www.w3.org/2000/svg"><path d="M531.3 187.5c-51.8 0 -93.8 -42 -93.8 -93.7S479.5 0 531.3 0 625 42 625 93.8s-42 93.7 -93.7 93.7zM222.1 620.1c15.4 33.6 40.3 63.2 74.1 83.2l20.9 12.3 -17.2 40.1c-14.7 34.4 -48.5 56.8 -86.1 56.8H62.5C28 812.5 0 784.5 0 750s28 -62.5 62.5 -62.5h130.6zM750 437.5c34.5 0 62.5 27.9 62.5 62.5 0 34.5 -28 62.5 -62.5 62.5H644.6c-35.6 0 -68.6 -20.6 -84.2 -52.6L520.8 429l-61.2 152.9 119.6 70.6c36.6 22.1 53.8 65.7 42.3 106.2l-61.8 197.4c-8.4 26.7 -33 43.9 -59.6 43.9 -6.2 0 -12.5 -1 -18.7 -2.9 -33 -10.3 -51.3 -45.4 -41 -78.3l53.7 -171.4 -166 -98c-53.9 -31.8 -76 -99.2 -51.4 -156.8l73.2 -170.7 -28.7 -8.5c-15.3 -3.7 -34.4 .4 -49.4 12l-77.5 59.3c-27.4 21 -66.6 15.9 -87.6 -11.5C85.6 345.8 90.8 306.6 118.2 285.6l77.5 -59.4c45.1 -34.6 102.6 -46.8 157.9 -33.5L492.4 234c51.5 13.1 96.3 49.6 120.7 99.5l50.9 104h86z"/></svg>