<svg height="1000" width="625" xmlns="http://www.w3.org/2000/svg"><path d="M601.6 187.5H459.1c11.7 19.1 21 40 27.8 62.5h114.7c12.9 0 23.4 10.5 23.4 23.4v78.2c0 12.9 -10.5 23.4 -23.4 23.4H498.4c-14 145.5 -120.7 245.2 -270.1 249.8l294.7 272c15.6 14.5 5.4 40.7 -15.9 40.7H345.8c-5.1 0 -12.2 -2.8 -15.9 -6.2L7.5 633.7C2.7 629.3 0 623 0 616.5V513c0 -13 10.5 -23.5 23.4 -23.5h164.1c81.6 0 133.9 -44 146 -114.5H23.4C10.5 375 0 364.5 0 351.6v-78.2C0 260.5 10.5 250 23.4 250h285.7C284.3 216.2 243.3 196.8 190 196.8H23.4C10.5 196.8 0 186.3 0 173.3V85.9C0 73 10.5 62.5 23.4 62.5h578.2c12.9 0 23.4 10.5 23.4 23.4v78.2c0 12.9 -10.5 23.4 -23.4 23.4z"/></svg>