<svg height="1000" width="968.8" xmlns="http://www.w3.org/2000/svg"><path d="M484.4 15.6C752 15.6 968.8 232.4 968.8 500c0 175.8 -94.2 329.5 -234.4 414.3V562.5c0 -17.2 -14.1 -31.2 -31.3 -31.2s-31.2 14 -31.2 31.2v384.2c-57.6 24.2 -121.1 37.7 -187.5 37.7S354.5 970.9 296.9 946.7V562.5c0 -17.2 -14.1 -31.2 -31.3 -31.2s-31.2 14 -31.2 31.2v351.8C94.1 829.5 0 676 0 500 0 232.4 216.8 15.6 484.4 15.6zm-128 422.9l19 16.6c4.9 4.5 15.4 9.2 26.7 3.1 8.6 -4.7 13.5 -14.4 12 -24.2 -7.8 -49.2 -66.8 -82.2 -117 -82.2s-109.2 33 -117 82.2c-1.6 9.8 3.3 19.5 11.9 24.2 8.6 4.7 19.3 3.3 26.8 -3.1l18.5 -16.6c28.9 -25.8 90.2 -25.8 119.1 0zm128 374c51.7 0 93.7 -56.1 93.7 -125s-42 -125 -93.7 -125 -93.8 56.1 -93.8 125 42 125 93.8 125zM777 458c8.5 -4.7 13.2 -14.4 12.1 -24 -7.8 -49.2 -66.8 -82.2 -117 -82.2s-109.2 33 -117 82.2c-1.6 9.8 3.3 19.5 11.9 24.2 8.6 4.7 19.3 3.3 26.8 -3.1l18.7 -16.8c28.9 -25.8 90.2 -25.8 119.1 0l18.6 16.6c4.9 4.5 15.4 9.2 26.8 3.1z"/></svg>