<svg height="1000" width="968.8" xmlns="http://www.w3.org/2000/svg"><path d="M484.4 15.6C752 15.6 968.8 232.4 968.8 500S752 984.4 484.4 984.4 0 767.6 0 500 216.8 15.6 484.4 15.6zm156.2 328.2c-34.5 0 -62.5 27.9 -62.5 62.5s28 62.5 62.5 62.5 62.5 -28 62.5 -62.5 -27.9 -62.5 -62.5 -62.5zM296.9 812.5c51.7 0 93.7 -41 93.7 -91.8 0 -39.1 -55.6 -118 -81.2 -151.9 -6.3 -8.4 -18.8 -8.4 -25 0 -25.6 33.9 -81.3 112.8 -81.3 151.9 0 50.8 42 91.8 93.8 91.8zm31.2 -343.7c34.6 0 62.5 -28 62.5 -62.5s-27.9 -62.5 -62.5 -62.5 -62.5 27.9 -62.5 62.5 28 62.5 62.5 62.5zm332.4 301.1c26 31.5 74.9 -7.8 47.9 -39.8C652.9 663.3 571.1 625 484.4 625c-41.4 0 -41.4 62.5 0 62.5 68.1 0 132.4 30.1 176.1 82.4z"/></svg>