<svg height="1000" width="1000" xmlns="http://www.w3.org/2000/svg"><path d="M536.5 536.5L324.2 675.8 463.5 463.5zM500 15.6c267.6 0 484.4 216.8 484.4 484.4S767.6 984.4 500 984.4 15.6 767.6 15.6 500 232.4 15.6 500 15.6zM804.4 357c-5.3 2.2 -9.6 8.7 -9.6 14.4 0 1.7 .5 4.4 1.2 6 2.2 5.3 8.7 9.7 14.4 9.7 1.7 0 4.4 -.6 6 -1.2l28.8 -12c5.3 -2.2 9.7 -8.6 9.7 -14.4 0 -1.7 -.6 -4.4 -1.2 -6 -2.2 -5.3 -8.7 -9.6 -14.5 -9.6 -1.7 0 -4.4 .5 -5.9 1.1zM614.1 183.6c-.6 1.6 -1.2 4.3 -1.2 6 0 5.8 4.3 12.3 9.7 14.5 1.5 .6 4.2 1.1 5.9 1.1 5.8 0 12.3 -4.3 14.5 -9.6l11.9 -28.9c.7 -1.5 1.2 -4.2 1.2 -5.9 0 -5.8 -4.3 -12.3 -9.6 -14.5 -1.6 -.6 -4.3 -1.2 -6 -1.2 -5.8 0 -12.2 4.3 -14.4 9.6zM500 117.2c-8.6 0 -15.6 7 -15.6 15.6v31.3c0 8.6 7 15.6 15.6 15.6s15.6 -7 15.6 -15.6v-31.3c0 -8.6 -7 -15.6 -15.6 -15.6zm-146.5 29.1c-5.3 2.2 -9.6 8.7 -9.6 14.5 0 1.7 .5 4.3 1.1 5.9l12 28.8c2.2 5.5 8.7 10 14.6 10 8.6 0 15.6 -7 15.6 -15.6 0 -1.9 -.6 -4.7 -1.3 -6.3l-12 -28.8c-2.2 -5.3 -8.6 -9.7 -14.4 -9.7 -1.7 0 -4.4 .6 -6 1.2zm-124.2 83c-2.5 2.5 -4.6 7.5 -4.6 11.1 0 3.5 2.1 8.4 4.6 10.9l22 22.1c2.6 2.6 7.5 4.6 11.1 4.6s8.5 -2 11 -4.6c2.5 -2.5 4.6 -7.4 4.6 -11 0 -3.5 -2.1 -8.5 -4.6 -11l-22 -22.1c-2.5 -2.5 -7.4 -4.6 -11 -4.6s-8.5 2.1 -11.1 4.6zM117.2 500c0 8.6 7 15.6 15.6 15.6h31.3c8.6 0 15.6 -7 15.6 -15.6s-7 -15.6 -15.6 -15.6h-31.3c-8.6 0 -15.6 7 -15.6 15.6zm78.4 143c5.3 -2.2 9.6 -8.7 9.6 -14.4 0 -1.7 -.5 -4.4 -1.2 -6 -2.2 -5.3 -8.7 -9.7 -14.4 -9.7 -1.7 0 -4.4 .6 -6 1.2l-28.8 12c-5.3 2.2 -9.7 8.6 -9.7 14.4 0 1.7 .6 4.4 1.2 6 2.2 5.3 8.7 9.6 14.5 9.6 1.7 0 4.4 -.5 5.9 -1.1zm8.5 -265.6c.6 -1.6 1.1 -4.2 1.1 -5.9 0 -5.8 -4.3 -12.3 -9.6 -14.5l-28.9 -11.9c-1.5 -.7 -4.2 -1.2 -5.9 -1.2 -5.8 0 -12.3 4.3 -14.5 9.6 -.6 1.6 -1.2 4.3 -1.2 6 0 5.8 4.3 12.2 9.6 14.4l28.9 12c1.6 .6 4.3 1.2 6 1.2 5.8 0 12.3 -4.4 14.5 -9.7zm181.8 439c.7 -1.6 1.3 -4.4 1.3 -6.3 0 -8.6 -7 -15.6 -15.6 -15.6 -5.9 0 -12.4 4.5 -14.6 10l-12 28.8c-.6 1.6 -1.1 4.3 -1.1 6 0 8.6 7 15.6 15.6 15.6 5.7 0 12.2 -4.3 14.4 -9.6zm129.7 50.8v-31.3c0 -8.6 -7 -15.6 -15.6 -15.6s-15.6 7 -15.6 15.6v31.3c0 8.6 7 15.6 15.6 15.6s15.6 -7 15.6 -15.6zm130.9 -13.5c5.3 -2.2 9.6 -8.7 9.6 -14.5 0 -1.7 -.5 -4.3 -1.1 -5.9l-12 -28.8c-2.2 -5.4 -8.7 -9.7 -14.4 -9.7 -1.8 0 -4.4 .5 -6 1.2 -5.3 2.2 -9.7 8.7 -9.7 14.4 0 1.7 .6 4.4 1.2 6l12 28.8c2.2 5.3 8.6 9.7 14.4 9.7 1.7 0 4.4 -.6 6 -1.2zm124.2 -83c2.5 -2.5 4.6 -7.5 4.6 -11.1 0 -3.5 -2.1 -8.4 -4.6 -10.9l-22 -22.1C746.1 724 741.2 722 737.6 722s-8.5 2 -11 4.6c-2.5 2.5 -4.6 7.4 -4.6 11 0 3.5 2.1 8.5 4.6 11l22 22.1c2.5 2.5 7.4 4.6 11 4.6s8.5 -2.1 11.1 -4.6zM559.1 559.1L784.5 215.5 440.9 440.9 215.5 784.5zm294.6 87.4c.6 -1.6 1.2 -4.3 1.2 -6 0 -5.8 -4.3 -12.2 -9.6 -14.4l-28.9 -12c-1.6 -.6 -4.3 -1.2 -6 -1.2 -5.8 0 -12.3 4.3 -14.5 9.7 -.6 1.5 -1.1 4.2 -1.1 5.9 0 5.8 4.3 12.3 9.6 14.5l28.9 11.9c1.5 .7 4.2 1.2 5.9 1.2 5.8 0 12.3 -4.3 14.5 -9.6zm13.5 -130.9c8.6 0 15.6 -7 15.6 -15.6s-7 -15.6 -15.6 -15.6h-31.3c-8.6 0 -15.6 7 -15.6 15.6s7 15.6 15.6 15.6h31.3z"/></svg>