<svg height="1000" width="1000" xmlns="http://www.w3.org/2000/svg"><path d="M981.7 605.6L792.8 794.5c-10.1 10 -29.8 18.1 -44 18.1s-33.9 -8.1 -43.9 -18.1L548 637.4l-19.3 19.3C547 697.2 562 766.1 562 810.6c0 51.4 -19.7 129.9 -43.9 175.3 -8.8 16.6 -32 18.7 -45.3 5.4l-210 -209.9L228 816.1c1.4 5.1 3.2 9.8 3.2 15.2v.1c0 34.5 -28 62.5 -62.5 62.5s-62.6 -28 -62.6 -62.5 28 -62.6 62.6 -62.6c5.4 0 10.1 1.8 15.2 3.2l34.7 -34.8L8.7 527.2C-4.6 513.9 -2.5 490.9 14.1 481.9 59.5 457.7 138 438.1 189.4 438.1c44.5 0 113.4 14.9 153.9 33.2l19.1 -19.1L205.6 295.1c-10.1 -10 -18.2 -29.8 -18.2 -44s8.1 -34 18.2 -44L394.5 18.2C404.5 8.1 424.1 0 438.2 0H438.5c14.2 0 34 8.1 44 18.2L639.4 175l93.4 -93.5c10.6 -10.6 31.4 -19.2 46.4 -19.2s35.8 8.6 46.4 19.2l92.8 92.7c10.6 10.7 19.2 31.4 19.2 46.4S929 256.4 918.4 267L825 360.6l156.9 157c10 10.1 18.1 29.7 18.1 43.9 0 14.3 -8.2 34 -18.3 44zm-552.9 -220L573 241.4 438.4 106.9 294.3 251zm464.4 176L758.6 427 614.4 571.2 749 705.8z"/></svg>