<svg height="1000" width="1000" xmlns="http://www.w3.org/2000/svg"><path d="M596.6 903.5c14.4 14.2 12.1 39.2 -5.9 48.8C438.9 1034 245.6 1010.7 117.4 882.6 -10.7 754.5 -34 561.3 47.7 409.3c9.5 -17.8 34.5 -20.1 48.8 -5.9l228.2 228.2 53.5 -53.5c-1.4 -5.1 -3.1 -9.8 -3.1 -15.3 0 -34.5 28 -62.5 62.5 -62.5s62.5 28 62.5 62.5 -28 62.5 -62.5 62.5c-5.5 0 -10.2 -1.7 -15.3 -3.1l-53.5 53.5zM1000 591.9c0 .5 0 1.3 0 1.8 0 17.3 -14 31.4 -31.3 31.4H906c-16.2 0 -30.1 -13.1 -31.1 -29.3C860.3 342.9 657.1 137.8 404.4 124.1c-16.2 -.9 -29.3 -14.7 -29.3 -30.9 0 -.1 0 -.1 0 -.2V31.3C375.1 14 389.2 0 406.5 0c.5 0 1.3 0 1.8 0 318.8 16.8 575 273.1 591.7 591.9zm-187.6 -.6c.1 .6 .1 1.6 .1 2.2 0 17.4 -14.1 31.6 -31.5 31.6h-62.9C702.3 625 688.4 612.2 687 596.4 673.5 446 554 325.1 404 312.8c-16 -1.2 -28.9 -15.1 -28.9 -31.1V219c0 -17.4 14.1 -31.5 31.5 -31.5 .6 0 1.6 0 2.2 .1C623.9 204.2 796 376.3 812.4 591.3z"/></svg>