<svg height="1000" width="875" xmlns="http://www.w3.org/2000/svg"><path d="M847.5 253.8c15.2 15.1 27.5 44.8 27.5 66.3v523.6c0 51.8 -42 93.8 -93.8 93.8H93.7C42 937.5 0 895.5 0 843.7V156.2C0 104.5 42 62.5 93.7 62.5h523.7c21.5 0 51.2 12.3 66.3 27.5zm-410 558.7c69 0 125 -56 125 -125s-56 -125 -125 -125 -125 56 -125 125 56 125 125 125zM625 217.7c0 -5.3 -3.1 -12.8 -6.9 -16.5l-6.8 -6.8c-4.4 -4.4 -10.3 -6.9 -16.5 -6.9H148.4c-12.9 0 -23.4 10.5 -23.4 23.4v203.2c0 12.9 10.5 23.4 23.4 23.4h453.2c12.9 0 23.4 -10.5 23.4 -23.4V217.7z"/></svg>