<svg height="1000" width="875" xmlns="http://www.w3.org/2000/svg"><path d="M684.6 308L578.7 218l143.4 -76.2L875 228.1zM375 238.5l89.3 -55.1L532 251l-108.2 56.6zm-127.1 12.9l62.3 -43.2 33.5 55.5 -71.6 43.9zm-45.6 172.2l-17.1 -67.9L243 319.9l25.6 69zM160.9 260.2l46.7 -35.4 17.4 46.9 -52.1 35.7zm-45.7 143.1l-7 -55.4 43.6 -30.3 11.9 56zm-59.7 32.4l40.6 -25 6.4 65.3 -44.7 23.4zM2.7 523.4l37.5 -19.9 .8 74.6L0 595.3zm115.5 115.9l-55.3 16.2 -3.1 -91.4 49 -20.9zm75.2 -125.2l-60.8 25.4 -10.1 -79.7L176 431.6zm47.2 222.2l-81.2 11.6L143.6 623.8l68.7 -21.1zm55.7 -273.2l41.4 111.5 -90.2 26.6L220.7 495.5zm167.4 450.2l-138.5 -6.5L277.7 719.7l107.8 -16.8zM297.9 367l82.4 -43.8 54.7 89.7 -99.3 41.6zm80 185.3l119.8 -36.5L600.8 685l-155.9 22zM478.3 385.2l131.5 -56.3 127.9 127.7 -173.1 51.2z"/></svg>