<svg height="1000" width="1250" xmlns="http://www.w3.org/2000/svg"><path d="M0 437.5C0 403 28 375 62.5 375h125v625H31.3C14 1000 0 986 0 968.8V437.5zm703.1 -93.7c8.7 0 15.7 6.9 15.7 15.6v31.2c0 8.7 -7 15.7 -15.7 15.7h-93.7c-8.7 0 -15.6 -7 -15.6 -15.7v-125c0 -8.6 6.9 -15.6 15.6 -15.6h31.2c8.7 0 15.7 7 15.7 15.6v78.2h46.8zm269.1 -125c17.4 11.6 27.8 31.1 27.8 52V1000H750V718.7c0 -17.2 -14 -31.2 -31.2 -31.2H531.3c-17.3 0 -31.3 14 -31.3 31.2V1000H250V270.8c0 -18.4 12.5 -41.7 27.8 -52L590.3 10.5C599 4.7 614.6 0 625 0s26 4.7 34.7 10.5zM625 500c86.3 0 156.3 -70 156.3 -156.2S711.3 187.5 625 187.5s-156.2 70 -156.2 156.3S538.7 500 625 500zm562.5 -125c34.5 0 62.5 28 62.5 62.5v531.3c0 17.2 -14 31.2 -31.2 31.2h-156.3V375h125z"/></svg>