<svg height="1000" width="750" xmlns="http://www.w3.org/2000/svg"><path d="M82.6 493.6C51.2 456.4 34.4 403.9 34.2 337.5c0 -196.1 146.9 -299 326.5 -299 192.6 -3.2 306.3 95.7 360 137.9l-98.6 140.8 -72.9 -48.1 52.6 -75.4C530.5 146.9 446.7 122.5 361.5 123.8c-99 -1.5 -218.1 53.2 -218.1 148.9 0 36.5 21.8 40.4 55.8 30.4 45.5 -10.3 81.9 1.2 109 27.4 51.6 47.4 45.3 132 -1.4 179.5 -57 57.6 -166.4 53.3 -224.2 -16.4zm620.5 11.5C769.3 584 775 775 663.5 875.4c-76.6 65.6 -160.6 86.1 -261 86.1A555.788 555.788 0 0 1 30.1 820.5L0 793.6 118.7 653.3l69.6 53.5 -65.8 77c81.4 60.3 180 92.8 281.4 92.4 120.9 0 204.5 -45.9 237.1 -125.8 1.8 -8.2 2.7 -16.4 2.7 -24.8 0 -36.5 -21.8 -40.4 -55.8 -30.5 -45.5 10.4 -82.4 -1 -110 -28.1C453.7 644.9 440.6 613.3 442 580.5c-1.2 -76.6 63.3 -135.2 137.7 -131.3 47.4 -1.5 93.2 19.2 123.4 55.9z"/></svg>