<svg height="1000" width="1000" xmlns="http://www.w3.org/2000/svg"><path d="M986.4 864.6c18.2 18.3 18.2 48 -.2 66.4l-55.3 55.2c-18.1 18.4 -47.8 18.4 -66.2 0L670 791.5c-8.8 -8.8 -13.7 -20.7 -13.7 -33.2v-31.8c-68.9 53.9 -155.7 85.9 -250 85.9C181.9 812.4 0 630.6 0 406.2 0 181.8 181.9 0 406.3 0s406.3 181.8 406.3 406.2c0 94.3 -32.1 181 -86 250h31.9c12.5 0 24.4 4.9 33.2 13.7zM406.3 687.4c155.6 0 281.2 -125.9 281.2 -281.2C687.5 250.7 561.6 125 406.3 125 250.7 125 125 250.9 125 406.2c0 155.6 125.9 281.2 281.3 281.2zm0 -468.6c79.7 0 144.2 64.5 144.2 144.1 0 64.4 -94.2 181.8 -130.3 224.4 -3 3.6 -9.2 6.5 -13.9 6.5s-10.8 -2.9 -13.8 -6.5C356.4 544.7 262.1 427.3 262.1 362.9c0 -79.6 64.6 -144.2 144.2 -144.2zm0 187.5c25.9 0 46.9 -21 46.9 -46.9s-21 -46.9 -46.9 -46.9 -46.8 21 -46.8 46.9 20.9 46.9 46.8 46.9z"/></svg>