<svg height="1000" width="898.4" xmlns="http://www.w3.org/2000/svg"><path d="M430.9 254.5L299.6 663.3V408.8l-106.8 47.3L299.6 84.4v225.2zM268.4 65.6l-2.6 9.2 -29.7 103.3C157.4 208.4 101.6 284.8 101.6 374c0 102.2 67 187.3 162.9 206.1v104.7C112.3 664.3 0 532 0 374.2 0 217 116.8 86.7 268.4 65.6zm608.2 873.5c-21.9 21.8 -45.2 24 -55.9 20.5 -10.5 -3.5 -52.9 -38.9 -118 -86.7 -65 -48.1 -65.6 -69.8 -83.9 -110.8C600.4 721.3 559.4 678.9 506.4 659.8l-18.9 -28.7c-48.2 33 -103.5 52.5 -158.8 56l4.1 -12.9 31.1 -96.7c90.8 -23.2 158 -105.4 158 -203.5 0 -106.4 -75 -199.4 -187.5 -209.2V63.1C496.9 73 625 208.6 625 374.2c0 65.6 -21.9 126.4 -56.6 176.6l28.5 18.7c19.1 53 61.5 93.8 102.3 112.1s62.9 19 111 84c48 64.9 83.4 107.3 86.9 117.8s1.3 33.8 -20.5 55.7zm-19.4 -35c0 -8.6 -7 -15.6 -15.6 -15.6s-15.6 7 -15.6 15.6 7 15.6 15.6 15.6 15.6 -7 15.6 -15.6z"/></svg>