<svg height="1000" width="875" xmlns="http://www.w3.org/2000/svg"><path d="M690.2 62.5c101.8 0 185 83.2 185 184.8v505.4c0 101.6 -83.2 184.8 -185 184.8H185C83.2 937.5 0 854.3 0 752.5V247.3C0 145.7 83.2 62.5 185 62.5h505.2zm-97.6 618C647.1 586.3 614.5 464.6 519.9 410c-36.3 -21.1 .2 .2 -36.1 -20.9 -48.8 -28.2 -90.2 45.5 -42.2 73.2 35.2 19.9 1.6 .8 36.3 20.7 53.9 31.3 72.7 101.2 41.6 155.1 -31.2 53.9 -101.1 72.6 -155 41.6 -36.4 -21.1 .1 .2 -36.2 -20.9 -20.1 -11.7 -46.1 -4.7 -57.6 15.4L240 727.3c-24.6 42.6 37.9 103.6 82.7 25.8 94.3 54.1 215.4 21.5 269.9 -72.6zm42.6 -407.8c27.9 -48.5 -45.7 -90.7 -73.7 -42l-9.4 16.4C457.8 193 336.7 225.6 282.2 319.7c-54.3 94.4 -21.7 216 72.5 270.3 36.3 21.1 -.2 -.2 36.1 20.9 48.8 28.2 90.3 -45.5 42.2 -73.2 -.2 0 -36.3 -20.7 -36.3 -20.7C342.8 485.7 323.8 415.8 355.1 361.9 386.3 308 456.2 289.3 510.2 320.3c36.3 21.1 -.2 -.2 36.1 20.9 19.9 10 39.1 5.7 51.7 -7 5.3 -5.3 4 -3.9 37.2 -61.5z"/></svg>