<svg height="1000" width="1250" xmlns="http://www.w3.org/2000/svg"><path d="M1054.1 463.5c107.7 26.3 183.8 123.3 183.8 233.4 0 132.9 -108.4 240.6 -240.6 240.6H252.7C120.5 937.5 12.1 829.8 12.1 696.9c0 -92.8 54.5 -177.7 138.3 -217.2 -4.2 -14.4 -6 -29.4 -6 -43.7 0 -90.4 73.6 -164 164 -164 39.5 0 77.8 14.3 107.7 40.1C452 166 583.7 62.5 734.5 62.5c180.8 0 328 147.2 328 328 0 24.5 -2.4 49.1 -8.4 73zM390.4 784.3V567.6c0 -16.1 -13.8 -29.9 -29.9 -29.9H300c-16.1 0 -29.9 13.8 -29.9 29.9v216.7c0 16.1 13.8 29.9 29.9 29.9h60.5c16.1 0 29.9 -13.8 29.9 -29.9zm174.8 0V527.5c0 -16.1 -13.8 -29.9 -30 -29.9h-60.4c-16.2 0 -29.9 13.8 -29.9 29.9v256.8c0 16.1 13.7 29.9 29.9 29.9h60.4c16.2 0 30 -13.8 30 -29.9zm174.7 0V466.5c0 -16.2 -13.8 -29.9 -29.9 -29.9h-60.5c-16.1 0 -29.9 13.7 -29.9 29.9v317.8c0 16.1 13.8 29.9 29.9 29.9H710c16.1 0 29.9 -13.8 29.9 -29.9zm170 0V345.6c0 -16.8 -13.8 -30.5 -29.9 -30.5h-55.7c-16.2 0 -29.9 13.7 -29.9 30.5v438.7c0 16.1 13.7 29.9 29.9 29.9H880c16.1 0 29.9 -13.8 29.9 -29.9z"/></svg>