<svg height="1000" width="1000" xmlns="http://www.w3.org/2000/svg"><path d="M937.5 312.5h-875C28 312.5 0 284.5 0 250V125C0 90.5 28 62.5 62.5 62.5h875c34.5 0 62.5 28 62.5 62.5v125c0 34.5 -28 62.5 -62.5 62.5zM843.8 140.6c-25.9 0 -46.9 21 -46.9 46.9s21 46.9 46.9 46.9 46.8 -21 46.8 -46.9 -21 -46.9 -46.8 -46.9zm-125 0c-25.9 0 -46.9 21 -46.9 46.9s21 46.9 46.9 46.9 46.8 -21 46.8 -46.9 -21 -46.9 -46.8 -46.9zM937.5 625h-875C28 625 0 597 0 562.5v-125C0 403 28 375 62.5 375h875c34.5 0 62.5 28 62.5 62.5v125c0 34.5 -28 62.5 -62.5 62.5zM843.8 453.1c-25.9 0 -46.9 21 -46.9 46.9s21 46.9 46.9 46.9 46.8 -21 46.8 -46.9 -21 -46.9 -46.8 -46.9zm-125 0c-25.9 0 -46.9 21 -46.9 46.9s21 46.9 46.9 46.9 46.8 -21 46.8 -46.9 -21 -46.9 -46.8 -46.9zm218.7 484.4h-875C28 937.5 0 909.5 0 875V750c0 -34.5 28 -62.5 62.5 -62.5h875c34.5 0 62.5 28 62.5 62.5v125c0 34.5 -28 62.5 -62.5 62.5zM843.8 765.6c-25.9 0 -46.9 21 -46.9 46.9s21 46.9 46.9 46.9 46.8 -21 46.8 -46.9 -21 -46.9 -46.8 -46.9zm-125 0c-25.9 0 -46.9 21 -46.9 46.9s21 46.9 46.9 46.9 46.8 -21 46.8 -46.9 -21 -46.9 -46.8 -46.9z"/></svg>