<svg height="1000" width="875" xmlns="http://www.w3.org/2000/svg"><path d="M687.5 625C791.1 625 875 708.9 875 812.5S791.1 1000 687.5 1000 500 916.1 500 812.5v-.1c0 -11.3 2 -29.5 4.4 -40.6L304.3 646.7c-32.1 25.5 -72.6 40.8 -116.8 40.8C83.9 687.5 0 603.6 0 500S83.9 312.5 187.5 312.5c44.2 0 84.7 15.3 116.8 40.8L504.4 228.2C501.5 215.1 500 201.5 500 187.5 500 83.9 583.9 0 687.5 0S875 83.9 875 187.5 791.1 375 687.5 375c-44.2 0 -84.7 -15.3 -116.8 -40.8L370.6 459.3c2.4 11.1 4.4 29.3 4.4 40.7 0 11.4 -2 29.6 -4.4 40.7l200.1 125.1C602.8 640.3 643.3 625 687.5 625z"/></svg>