<svg height="1000" width="1125" xmlns="http://www.w3.org/2000/svg"><path d="M1110.3 346.6L829.1 612.2c-29.7 28 -79.1 7.2 -79.1 -34.1V437.5c-282.4 1.9 -401.5 68.6 -321.8 334.7 8.7 29.3 -25.1 51.9 -48.9 33.9C303.2 748.3 234.4 637.7 234.4 526.1c0 -281.2 229.7 -337 515.6 -338.5V46.9c0 -41.4 49.4 -62 79.1 -34.1l281.2 265.6c19.6 18.5 19.6 49.7 0 68.2zM750 740.5c0 -14.4 12.8 -25.2 27 -23.2 5.4 .8 14.4 1.5 20 1.5 13.2 0 34.2 -3.6 46.7 -8.1 15.3 -5.4 31.3 5.9 31.3 22.1v173.4c0 51.8 -42 93.8 -93.7 93.8H93.8C42 1000 0 958 0 906.2V218.7C0 167 42 125 93.8 125h236.3c24.6 0 32.6 32.9 10.9 44.2 -36.7 19.1 -70.5 43.2 -99.7 73.6 -3.8 4 -11.3 7.2 -16.9 7.2H125v625h625V740.5z"/></svg>