<svg height="1000" width="875" xmlns="http://www.w3.org/2000/svg"><path d="M484.4 328.1c0 -60.4 -49 -109.3 -109.4 -109.3H156.3v687.5c0 17.2 -14 31.2 -31.3 31.2H31.3C14 937.5 0 923.5 0 906.3V109.4C0 83.5 21 62.5 46.9 62.5H375c146.7 0 265.6 118.9 265.6 265.6v328.2c0 17.2 -14 31.2 -31.2 31.2h-93.8c-17.2 0 -31.2 -14 -31.2 -31.2V328.1zM843.8 62.5c17.2 0 31.2 14 31.2 31.3v578.1c0 146.7 -118.9 265.6 -265.6 265.6H281.3c-25.9 0 -46.9 -21 -46.9 -46.9V343.8c0 -17.3 14 -31.3 31.2 -31.3h93.8c17.2 0 31.2 14 31.2 31.3v437.5h218.8c60.4 0 109.4 -49 109.4 -109.4V93.8c0 -17.3 13.9 -31.3 31.2 -31.3h93.8z"/></svg>