<svg height="1000" width="1000" xmlns="http://www.w3.org/2000/svg"><path d="M437.5 375c17.3 0 31.3 14 31.3 31.3s-14 31.2 -31.3 31.2 -31.2 -14 -31.2 -31.2S420.2 375 437.5 375zM911.1 163.4c31.8 13.3 57.7 52.1 57.7 86.5v.1c0 432.2 -265.5 673.1 -432.8 742.8 -9.6 4 -25.7 7.2 -36.1 7.2 -10.3 0 -26.5 -3.2 -36 -7.2C254.9 905.7 31.2 637.7 31.2 250v-.1c0 -34.5 25.9 -73.3 57.8 -86.5L464 7.2C473.7 3.5 489.8 .3 500.1 0c10.3 .3 26.4 3.6 36 7.2zM750 500c17.3 0 31.3 -14 31.3 -31.2s-14 -31.3 -31.3 -31.3h-23.7c-55.7 0 -83.5 -67.3 -44.2 -106.7l16.8 -16.7c5 -5.1 9.1 -15 9.1 -22.1 0 -17.3 -14 -31.3 -31.2 -31.3 -7.2 0 -17.1 4.1 -22.1 9.2l-16.8 16.7C598.6 326 531.2 298.1 531.2 242.4v-23.7c0 -17.2 -14 -31.2 -31.2 -31.2s-31.3 14 -31.3 31.2v23.7c0 55.7 -67.3 83.6 -106.6 44.2l-16.8 -16.7c-5 -5.1 -14.9 -9.2 -22.1 -9.2 -17.2 0 -31.2 14 -31.2 31.3 0 7.1 4.1 17 9.1 22.1l16.8 16.7c39.3 39.4 11.5 106.7 -44.2 106.7H250c-17.3 0 -31.3 14 -31.3 31.3s14 31.2 31.3 31.2h23.7c55.7 0 83.5 67.3 44.2 106.7l-16.8 16.7c-5 5.1 -9.1 15 -9.1 22.1 0 17.3 14 31.3 31.2 31.3 7.2 0 17.1 -4.1 22.1 -9.2l16.8 -16.7c39.3 -39.4 106.6 -11.5 106.6 44.2v23.7c0 17.2 14 31.2 31.3 31.2s31.2 -14 31.2 -31.2v-23.7c0 -55.7 67.4 -83.6 106.7 -44.2l16.8 16.7c5 5.1 14.9 9.2 22.1 9.2 17.2 0 31.2 -14 31.2 -31.3 0 -7.1 -4.1 -17 -9.1 -22.1l-16.8 -16.7C642.8 567.3 670.6 500 726.3 500H750zm-187.5 0c17.3 0 31.3 14 31.3 31.3s-14 31.2 -31.3 31.2 -31.2 -14 -31.2 -31.2S545.2 500 562.5 500z"/></svg>