<svg height="1000" width="1250" xmlns="http://www.w3.org/2000/svg"><path d="M1218.8 687.5c17.1 0 31.2 14.1 31.2 31.3v62.5c0 17.1 -14.1 31.2 -31.2 31.2H1125C1125 916 1041 1000 937.5 1000S750 916 750 812.5H500C500 916 416 1000 312.5 1000S125 916 125 812.5v-250h296.9c8.6 0 15.6 -7 15.6 -15.6v-31.3c0 -8.6 -7 -15.6 -15.6 -15.6H15.6C7 500 0 493 0 484.4v-31.3c0 -8.6 7 -15.6 15.6 -15.6h468.8c8.6 0 15.6 -7 15.6 -15.6v-31.3C500 382 493 375 484.4 375H78.1c-8.6 0 -15.6 -7 -15.6 -15.6v-31.3c0 -8.6 7 -15.6 15.6 -15.6h468.8c8.6 0 15.6 -7 15.6 -15.6v-31.3c0 -8.6 -7 -15.6 -15.6 -15.6H15.6C7 250 0 243 0 234.4v-31.3c0 -8.6 7 -15.6 15.6 -15.6H125V93.8C125 42 167 0 218.8 0h500c51.7 0 93.7 42 93.7 93.8v93.7h86.1c24.8 0 48.7 10 66.2 27.5L1160 410.2c17.5 17.5 27.5 41.4 27.5 66.2v211.1h31.3zM312.5 906.3c51.8 0 93.8 -42 93.8 -93.8s-42 -93.7 -93.8 -93.7 -93.7 41.9 -93.7 93.7 41.9 93.8 93.7 93.8zm625 0c51.8 0 93.8 -42 93.8 -93.8s-42 -93.7 -93.8 -93.7 -93.7 41.9 -93.7 93.7 41.9 93.8 93.7 93.8zM1093.8 500v-23.6L898.6 281.3h-86.1V500h281.3z"/></svg>