<svg height="1000" width="1250" xmlns="http://www.w3.org/2000/svg"><path d="M970 727.8c34.8 86.7 114.3 147.2 233.1 147.2 25.9 0 46.9 21 46.9 46.9v31.2c0 25.9 -21 46.9 -46.9 46.9 -119.2 0 -209.9 -40.3 -279.8 -116 -28.1 68 -95.2 116 -173.3 116H500c-78.1 0 -145.2 -48 -173.3 -116 -69.9 75.7 -160.6 116 -279.8 116C21 1000 0 979 0 953.1v-31.2C0 896 21 875 46.9 875 167.2 875 245.8 813.1 280 727.8L143.3 591.1c-33 -33.1 -19.4 -89.4 25.1 -103.7L250 461.1V187.5C250 153 278 125 312.5 125h125V46.9C437.5 21 458.5 0 484.4 0h281.2c25.9 0 46.9 21 46.9 46.9V125h125c34.5 0 62.5 28 62.5 62.5v273.6l81.6 26.3c44.5 14.3 58.1 70.7 25.1 103.7zM375 250v171l230.9 -74.2c5.1 -1.7 13.7 -3 19.1 -3s14 1.3 19.1 3L875 421V250H375z"/></svg>