<svg height="1000" width="875" xmlns="http://www.w3.org/2000/svg"><path d="M195.3 801.4l8.6 -19.4 59.8 26.2 -8.6 19.3zm77 34.1l8.6 -19.3 59.7 26.2 -8.6 19.3zm336.1 -27.3L668.2 782l8.6 19.4L617 827.5zm-258.6 60.9l8.6 -18.7 59.2 26.2 -8.6 19.3zM118 767.2l8.6 -19.3 59.7 26.7 -8.6 18.8zm412.9 75.2l59.7 -26.2 8.6 19.3 -59.7 26.2zm-76.8 34.2l59.8 -26.2 8.6 18.7 -59.8 26.8zm231.3 -102l59.7 -26.7 8.6 19.3 -59.8 26.2zM332 91v20.5h-65.4V91H332zm-92.2 0l-.2 20.5h-65.4V91h65.6zm-92.3 0l.2 20.5H82.6V91h64.9zm276.3 0v20.5H359V91h64.8zm184.6 0v20.5H543V91h65.4zm92.4 0v20.5h-65.4V91h65.4zM516 91v20.5h-64.8V91H516zm276.4 0v20.5h-65.1V91h65.1zM103.1 685.7v65.5H82v-65.5h21.1zM239.8 264.1l-.2 20.5h-65.4v-20.5h65.6zm-136.7 20.7v44.9H82v-65.4h65.7v20.5h-44.6zM433 731.3c-98 0 -178.3 -79.7 -178.3 -178.4 0 -98 80.3 -178.3 178.3 -178.3 98.6 0 178.3 80.3 178.3 178.3 0 98.7 -79.7 178.4 -178.3 178.4zm-94.1 -217c0 86.5 151.5 23.2 151.5 74.2 0 25.6 -46.8 27.9 -63.8 27.9 -24.1 0 -58.2 -5.3 -70.2 -29.1h-1.7l-17.6 35.9c28.9 18.2 56.8 23.9 92.2 23.9 38.1 0 99.6 -11.4 99.6 -61 0 -93.9 -153.3 -31.8 -153.3 -74 0 -25.6 40.6 -29.1 58.2 -29.1 21.1 0 57 6.3 69.5 25.6h1.8l17.2 -33c-29.5 -12.1 -53.5 -23.5 -86.6 -23.5 -39.2 0 -96.8 12.5 -96.8 62.2zM103.1 348.4v65.7H82v-65.7h21.1zm668.8 402.8v-65.5H793v65.5h-21.1zM103.1 601.4v65.4H82v-65.4h21.1zM0 7.2h875v793L433 992.8 0 800.2V7.2zm818 756.1h.2V235.7H57v527.6l376.6 167.4zm0 -584.6h.2V64.3H57v114.4h761zM103.1 432.8v65.4H82v-65.4h21.1zm0 84.4v65.4H82v-65.4h21.1zM332 264.1v20.5h-65.4v-20.5H332zm439.9 318.5v-65.4H793v65.4h-21.1zm0 -84.4v-65.4H793v65.4h-21.1zM423.8 264.1v20.5H359v-20.5h64.8zm348.1 150v-65.5H793v65.5h-21.1zm0 252.9v-65.4H793V667h-21.1zM516 264.1v20.5h-64.8v-20.5H516zm92.4 0v20.5H543v-20.5h65.4zm163.5 65.6l.2 -44.9h-44.6v-20.5H793v65.4h-21.1zm-71.1 -65.6v20.5h-65.4v-20.5h65.4z"/></svg>