<svg height="1000" width="1250" xmlns="http://www.w3.org/2000/svg"><path d="M375 312.5c-69 0 -125 -56 -125 -125s56 -125 125 -125h62.5v250H375zM0 812.5c0 -69 56 -125 125 -125h62.5v250H125c-69 0 -125 -56 -125 -125zm659.1 -250C835.6 562.5 1000 625 1000 750c0 88.3 -76.4 190 -290.2 236 -62.5 13.4 -126.7 16.6 -190.6 12.1C465.9 994.3 413.6 982.9 362.4 968.7L250 937.5v-250c117.6 0 156.1 -30.5 204.6 -62.5 55.8 -36.9 136.3 -62.5 204.5 -62.5zM959.8 14C1173.6 60 1250 161.7 1250 250c0 125 -164.4 187.5 -340.9 187.5 -68.2 0 -148.7 -25.6 -204.5 -62.5C656.1 343 617.6 312.5 500 312.5v-250L612.4 31.3C663.6 17.1 715.9 5.7 769.2 1.9 833.1 -2.6 897.3 .6 959.8 14z"/></svg>