<svg height="1000" width="1000" xmlns="http://www.w3.org/2000/svg"><path d="M788.1 889.5c-70.5 52.4 -199 94.9 -286.8 94.9 -.4 0 -.9 0 -1.3 0C232.1 984.4 15.6 767.6 15.6 500 15.6 232.1 232.4 15.6 500 15.6h.4c102.4 0 247.2 55.6 323.2 124 1.3 1.2 2.3 3.5 2.3 5.2 0 3.9 -3.1 7 -7 7 -.2 0 -.6 0 -.9 -.1 -29.7 -4 -78.2 -7.2 -108.2 -7.2 -.7 0 -1.8 0 -2.5 0C454.6 144.5 272.9 249 272.9 447.9c0 212.9 180 285 345.4 349.1 65.7 25.4 127.7 49.6 169.9 81.3 1.5 1.1 2.8 3.6 2.8 5.5 0 2 -1.3 4.5 -2.8 5.6zM982.4 455.3c1.2 12.2 2.1 32.2 2.1 44.5 0 50.5 -14.9 129.7 -33.3 176.8 -1 2.4 -3.9 4.3 -6.5 4.3 -.9 0 -2.4 -.3 -3.3 -.8 -57.6 -31.9 -120.3 -55.3 -181 -78C642.7 558.2 541 520.3 541 437.1c0 -2.8 -7.6 -104.7 156.8 -104.7 99.3 0 181 34.1 282.1 118.1 1.3 1 2.4 3.2 2.5 4.8z"/></svg>