<svg height="1000" width="875" xmlns="http://www.w3.org/2000/svg"><path d="M687.5 312.5H875v531.3C875 930 805 1000 718.8 1000H156.3C70 1000 0 930 0 843.8V312.5h187.5V250C187.5 112.1 299.6 0 437.5 0c137.8 0 250 112.1 250 250v62.5zM312.5 250v62.5h250V250c0 -68.9 -56.1 -125 -125 -125s-125 56.1 -125 125zM625 484.4c25.9 0 46.9 -21 46.9 -46.9s-21 -46.9 -46.9 -46.9 -46.9 21 -46.9 46.9 21 46.9 46.9 46.9zm-375 0c25.9 0 46.9 -21 46.9 -46.9s-21 -46.9 -46.9 -46.9 -46.9 21 -46.9 46.9 21 46.9 46.9 46.9z"/></svg>