<svg height="1000" width="875" xmlns="http://www.w3.org/2000/svg"><path d="M758.4 203.3c.8 4.7 106.4 718.6 106.4 718.6l-245.5 60.9V137.6c15.6 15.7 57.8 56.3 57.8 56.3s68.8 1.6 72.7 1.6c4.2 .2 8.1 3.7 8.6 7.8zM563.8 137.6c18 -5.4 26.5 -8.2 28.9 -8.6s6.2 -.6 8.6 -.7v856.1L10.3 881.9s71.9 -550.5 74.2 -570c3.1 -25.8 3.9 -26.5 31.3 -35.1 .8 -.8 38.3 -12.6 92.2 -29 5.5 -41.4 25.8 -94.6 52.4 -136.8C298 50.8 344.9 17.2 391.8 15.6c24.2 -.7 44.5 7.1 60.2 24.2 .7 1.6 2.3 2.4 3.1 4 1.8 -.5 4.9 -.8 6.8 -.8 .3 0 .7 0 1 0 36 0 66.4 21.2 86.8 60.2 4.7 9.2 11 24.6 14.1 34.4zm-107.9 33.7c.8 -25.8 -2.4 -64.2 -15.7 -92.2 -13.2 6.2 -25 16.4 -33.6 25 -21.9 24.2 -40.6 60.9 -50 97.7 33.6 -10.2 68 -21.2 99.3 -30.5zM391.8 47.7c-72 1.6 -135.3 115 -152.4 189.9 25.7 -7.8 53.9 -16.4 82 -25 9.4 -47.7 32.1 -97.7 61.8 -129.8 11.7 -11.7 24.2 -21.9 36.7 -28.1 -6.8 -3.9 -18.6 -7 -26.5 -7 -.4 0 -1.2 0 -1.6 0zm-90.7 430.1c-.8 -9.4 0 -46.2 57.8 -50.1 39.9 -3.1 73.5 12.5 73.5 12.5l29.7 -112.5s-25.8 -12.5 -76.6 -9.4C254.2 326.9 194.7 418.4 201 509.1c7 107.9 114.9 104 118.8 169.6 .8 15.7 -9.4 38.4 -36.7 39.9 -42.2 3.2 -94.6 -36.7 -94.6 -36.7l-20.3 85.9s52.3 56.3 147.7 50.1c79 -4.8 133.7 -68.1 128.2 -161.1 -7.8 -118.1 -139.9 -129 -143 -179zm186 -315.9c17.2 -5.5 32.9 -10.2 47 -14.1C526.2 123.5 509 83.7 473.1 76.7c10.9 28.1 14 61.7 14 85.2z"/></svg>