<svg height="1000" width="1125" xmlns="http://www.w3.org/2000/svg"><path d="M1031.5 588.5c-4.9 21.4 -23.8 36.5 -45.7 36.5H413.2l12.8 62.5h524.3c30 0 52.3 27.9 45.7 57.3l-10.8 47.4c36.5 17.7 61.7 55.1 61.7 98.4 0 60.4 -49 109.4 -109.4 109.4S828.1 951 828.1 890.6c0 -30.6 12.6 -58.2 32.9 -78.1H451.5c20.3 19.9 32.9 47.5 32.9 78.1 0 60.4 -49 109.4 -109.4 109.4S265.6 951 265.6 890.6c0 -40.6 22.1 -76 55 -94.8L183.4 125H46.9C21 125 0 104 0 78.1V46.9C0 21 21 0 46.9 0h200.2c22.3 0 41.5 15.7 46 37.5L311 125h767.1c30.1 0 52.4 27.9 45.7 57.3z"/></svg>