<svg height="1000" width="1000" xmlns="http://www.w3.org/2000/svg"><path d="M593.8 625c17.2 0 31.2 14 31.2 31.3s-14 31.2 -31.2 31.2 -31.3 -14 -31.3 -31.2 14 -31.3 31.3 -31.3zm62.5 -187.5c17.2 0 31.2 14 31.2 31.3s-14 31.2 -31.2 31.2S625 486 625 468.8s14 -31.3 31.3 -31.3zm62.5 125c-17.3 0 -31.3 -14 -31.3 -31.2s14 -31.3 31.3 -31.3 31.2 14 31.2 31.3 -14 31.2 -31.2 31.2zM656.3 625C639 625 625 611 625 593.8s14 -31.3 31.3 -31.3 31.2 14 31.2 31.3 -14 31.2 -31.2 31.2zM593.8 500c17.2 0 31.2 14 31.2 31.3s-14 31.2 -31.2 31.2 -31.3 -14 -31.3 -31.2 14 -31.3 31.3 -31.3zm250 -62.5c-17.3 0 -31.3 -14 -31.3 -31.2s14 -31.3 31.3 -31.3 31.2 14 31.2 31.3 -14 31.2 -31.2 31.2zM750 468.8c0 -17.3 14 -31.3 31.3 -31.3s31.2 14 31.2 31.3 -14 31.2 -31.2 31.2S750 486 750 468.8zM718.8 375c17.2 0 31.2 14 31.2 31.3s-14 31.2 -31.2 31.2 -31.3 -14 -31.3 -31.2 14 -31.3 31.3 -31.3zm187.5 62.5c17.2 0 31.2 14 31.2 31.3s-14 31.2 -31.2 31.2S875 486 875 468.8s14 -31.3 31.3 -31.3zM968.8 375c17.2 0 31.2 14 31.2 31.3s-14 31.2 -31.2 31.2 -31.3 -14 -31.3 -31.2 14 -31.3 31.3 -31.3zm-125 125c17.2 0 31.2 14 31.2 31.3s-14 31.2 -31.2 31.2 -31.3 -14 -31.3 -31.2 14 -31.3 31.3 -31.3zm-62.5 62.5c17.2 0 31.2 14 31.2 31.3s-14 31.2 -31.2 31.2S750 611 750 593.8s14 -31.3 31.3 -31.3zm-125 125c17.2 0 31.2 14 31.2 31.3s-14 31.2 -31.2 31.2S625 736 625 718.8s14 -31.3 31.3 -31.3zM593.8 750c17.2 0 31.2 14 31.2 31.3s-14 31.2 -31.2 31.2 -31.3 -14 -31.3 -31.2 14 -31.3 31.3 -31.3zm125 -125c17.2 0 31.2 14 31.2 31.3s-14 31.2 -31.2 31.2 -31.3 -14 -31.3 -31.2 14 -31.3 31.3 -31.3zM761 198.5c5.1 5.1 9.2 15 9.2 22.1s-4.1 17.1 -9.2 22.1L430.2 573.5c-5 5.1 -14.9 9.2 -22.1 9.2s-17 -4.1 -22.1 -9.2l-22.1 -22.1c-5 -5 -9.1 -14.9 -9.1 -22 0 -7.2 4.1 -17.1 9.1 -22.1L375 496.2c-34.5 -35 -62.5 -103.3 -62.5 -152.5 0 -37.5 10.4 -72.4 27.2 -103.2L320.2 221c-18.5 -18.5 -54.7 -33.5 -80.8 -33.5 -4.1 0 -10.7 .4 -14.8 .9C166 195.7 125 250.5 125 309.4v596.8c0 17.3 -14 31.3 -31.3 31.3H31.2C14 937.5 0 923.5 0 906.2v-592C0 181.5 108.4 61.5 241.1 62.5c54.1 .3 129.1 31.6 167.3 70l19.5 19.5c30.9 -16.6 65.8 -27 103.3 -27 49.2 0 117.5 28 152.5 62.5l11.1 -11.1c5 -5 14.9 -9.1 22.1 -9.1s17 4.1 22.1 9.1z"/></svg>