<svg height="1000" width="1250" xmlns="http://www.w3.org/2000/svg"><path d="M1228.3 411.4c14 16.9 21.7 38.1 21.7 60v216.1c0 34.5 -28 62.5 -62.5 62.5H1125c0 103.6 -83.9 187.5 -187.5 187.5S750 853.6 750 750H500c0 103.6 -83.9 187.5 -187.5 187.5S125 853.6 125 750H62.5C28 750 0 722 0 687.5V125C0 90.5 28 62.5 62.5 62.5h831.1c24.2 0 56.5 15.1 72 33.7zM125 375h187.5V187.5H125V375zm187.5 468.8c51.8 0 93.8 -42 93.8 -93.8s-42 -93.7 -93.8 -93.7 -93.7 41.9 -93.7 93.7 41.9 93.8 93.7 93.8zM625 375V187.5H437.5V375H625zm312.5 468.8c51.8 0 93.8 -42 93.8 -93.8s-42 -93.7 -93.8 -93.7 -93.7 41.9 -93.7 93.7 41.9 93.8 93.7 93.8zM750 375h285.2L878.9 187.5H750V375z"/></svg>