<svg height="1000" width="875" xmlns="http://www.w3.org/2000/svg"><path d="M178.6 945.3c-.6 -31.3 25.6 -56.9 56.9 -56.9h121.6v-11.2H111.3C80 877.2 53.8 851.6 54.4 820.3 55 790 79.8 765.6 110.2 765.6h246.9v-11.1H56.9C25.6 754.5 -.6 728.9 0 697.6c.6 -30.3 25.3 -54.7 55.8 -54.7h301.3v-11.2H112.7c-31.3 0 -57.5 -25.6 -56.9 -56.9 .6 -30.3 25.4 -54.7 55.8 -54.7h329.2l-60.7 -44.2c-24.9 -18.1 -30.4 -53 -12.3 -77.9 18.1 -24.9 53 -30.4 78 -12.3l240.9 175.2c15.2 11.1 27.6 35.3 27.6 54.2v275.6c0 31.1 -21.4 58.1 -51.6 65.2l-157.2 37c-16.7 3.9 -44.2 7.1 -61.4 7.1H234.4c-30.5 0 -55.2 -24.4 -55.8 -54.7zm143 -440.8l-71 -91.3c-18.7 -24 -14.7 -58.5 8.9 -77.6 24.3 -19.7 60.6 -14.8 79.8 9.9l25.4 32.7c-33.4 30.5 -30.1 84 6.2 110.4l21.9 15.9h-71.2zM875 500.4c0 .6 0 1.6 0 2.2 0 18 -11.6 41.7 -25.8 52.8l-119.3 92.9v-33.2c0 -26.4 -12.7 -51.3 -34 -66.8L455 373c-24.7 -17.9 -57.1 -17.8 -81.5 -1.7L271.9 240.7c-19.3 -24.7 -15.1 -61.1 9.9 -79.8 24.3 -18.2 58.7 -13.7 77.4 10.4L511 366.1l8.8 -6.9L335.3 122.4C316.1 97.7 320.2 61.3 345.2 42.5 369.5 24.3 404 28.9 422.7 52.9l185.1 237.8 8.8 -6.9L466.5 91C447.2 66.3 451.3 29.9 476.4 11.1c24.3 -18.2 58.7 -13.6 77.4 10.4l202.3 259.8 -2.5 -75c-1 -30.8 23.2 -56.6 54 -57.6 30.8 -1.1 56.6 23.1 57.6 53.9z"/></svg>