<svg height="1000" width="1250" xmlns="http://www.w3.org/2000/svg"><path d="M421.9 562.5c17.2 0 31.2 14 31.2 31.3v375c0 17.2 -14 31.2 -31.2 31.2h-93.8c-17.2 0 -31.2 -14 -31.2 -31.2v-375c0 -17.3 14 -31.3 31.2 -31.3h93.8zM171.9 750c17.2 0 31.2 14 31.2 31.3v187.5c0 17.2 -14 31.2 -31.2 31.2H78.1c-17.2 0 -31.2 -14 -31.2 -31.2V781.3C46.9 764 60.9 750 78.1 750h93.8zm500 -375c17.2 0 31.2 14 31.2 31.3v562.5c0 17.2 -14 31.2 -31.2 31.2h-93.8c-17.2 0 -31.2 -14 -31.2 -31.2V406.3c0 -17.3 14 -31.3 31.2 -31.3h93.8zm250 -187.5c17.2 0 31.2 14 31.2 31.3v750c0 17.2 -14 31.2 -31.2 31.2h-93.8c-17.2 0 -31.2 -14 -31.2 -31.2v-750c0 -17.3 14 -31.3 31.2 -31.3h93.8zM1171.9 0c17.2 0 31.2 14 31.2 31.3v937.5c0 17.2 -14 31.2 -31.2 31.2h-93.8c-17.2 0 -31.2 -14 -31.2 -31.2V31.3c0 -17.3 14 -31.3 31.2 -31.3h93.8z"/></svg>