<svg height="1000" width="1000" xmlns="http://www.w3.org/2000/svg"><path d="M812.5 875H648.4C635.5 875 625 864.5 625 851.6v-78.2c0 -12.9 10.5 -23.4 23.4 -23.4h164.1c34.6 0 62.5 -27.9 62.5 -62.5v-375C875 277.9 847.1 250 812.5 250H648.4C635.5 250 625 239.5 625 226.6v-78.2c0 -12.9 10.5 -23.4 23.4 -23.4h164.1C916 125 1000 209 1000 312.5v375C1000 791 916 875 812.5 875zM720.7 482.4c18.2 18.4 18.2 48.1 0 66.4L392.6 877c-29.3 29.3 -80.1 8.7 -80.1 -33.2V656.3H46.9C20.9 656.3 0 635.4 0 609.4V421.9C0 395.9 20.9 375 46.9 375h265.6V187.5c0 -42 50.8 -62.5 80.1 -33.2z"/></svg>