<svg height="1000" width="1250" xmlns="http://www.w3.org/2000/svg"><path d="M1217.2 375c17.8 -1.2 32.8 13.9 32.4 31.6v62.7c0 16.6 -13.1 29.5 -29.7 30.9 -76.9 6.2 -205.8 99.6 -270.3 128.5 -67 30.1 -130.3 58.6 -199.8 58.6 -55.1 0 -98 -16.6 -127.9 -49.4 -44.4 -48.6 -44.6 -108 -40.3 -163.7 -110.3 88.1 -330 300 -412.5 382.4C157.2 868.8 141.2 875 125 875 72.3 875 53.7 822.3 67 789.3L258.8 309.6c15.6 -38.9 -27.9 -75.8 -63.9 -53l-113.3 76C67 342 47.7 337.7 38.5 323L4.9 270.3c-9.2 -14.6 -4.9 -34 9.6 -43.2l107.2 -72C271.1 60 434.4 207.6 375 355.9l-81.1 202.5C499.4 360.7 576 315.2 625 312.3c106.3 -6.1 85.5 133 83.4 148.6 -9.2 69.8 -2.5 101.4 41.6 101.4 42.8 0 91.8 -22.1 148.6 -47.7C971.7 481.8 1116 381.8 1217.2 375z"/></svg>