<svg height="1000" width="1000" xmlns="http://www.w3.org/2000/svg"><path d="M970.7 533.2L642.6 861.3c-29.3 29.3 -80.1 8.8 -80.1 -33.2V640.6H296.9c-26 0 -46.9 -20.9 -46.9 -46.8V406.3c0 -26 20.9 -46.9 46.9 -46.9h265.6V171.9c0 -41.8 50.6 -62.5 80.1 -33.2l328.1 328.1c18.2 18.4 18.2 48 0 66.4zM375 851.6c0 12.9 -10.5 23.4 -23.4 23.4H187.5C84 875 0 791 0 687.5v-375C0 209 84 125 187.5 125h164.1c12.9 0 23.4 10.5 23.4 23.4v78.2c0 12.9 -10.5 23.4 -23.4 23.4H187.5c-34.6 0 -62.5 27.9 -62.5 62.5v375c0 34.6 27.9 62.5 62.5 62.5h164.1c12.9 0 23.4 10.5 23.4 23.4v78.2z"/></svg>