<svg height="1000" width="1000" xmlns="http://www.w3.org/2000/svg"><path d="M939.8 125c28.8 0 51.8 23 52.2 51.4v647.2C992 852 968.9 875 940 875H60.4c-29 0 -52 -23 -52 -51.4V176.4C8.4 148 31.4 125 60 125h207c28.5 0 51.9 23 51.9 51.4v77.3h362v-77.3c0 -28.4 23.6 -51.4 51.9 -51.4h207zM292.6 694.9c72 0 130.1 -58 130.1 -129.7 0 -72 -58.1 -130 -130.1 -130 -71.7 0 -129.7 58 -129.7 130 0 71.7 58.2 129.7 129.7 129.7zm414.8 0c71.5 0 129.7 -58 129.7 -130.1 0 -71.6 -58.2 -129.6 -129.7 -129.6 -72 0 -130.1 58.2 -130.1 129.6 0 72.1 58.1 130.1 130.1 130.1z"/></svg>