<svg height="1000" width="875" xmlns="http://www.w3.org/2000/svg"><path d="M0 62.5l231.9 136.2L209.4 83.6l177.9 136.5a282.266 282.266 0 0 1 100.4 0L665.6 83.6l-22.5 115.1L875 62.5 738.8 294.4l115 -22.5L717.4 449.7c5.9 33.2 5.9 67.3 0 100.5L853.8 728l-115 -22.5 136.2 232L643.1 801.3l22.5 115L487.8 779.9c-33.2 5.9 -67.3 5.9 -100.6 0L209.4 916.3l22.5 -115L0 937.5l136.2 -232L21.2 728 157.6 550.2c-2.5 -13.7 -4.4 -36.3 -4.4 -50.2 0 -14 1.9 -36.5 4.4 -50.3L21.2 271.9l115 22.5zm437.5 194.9c-62.1 0 -124.2 23.6 -171.6 71 -94.7 94.7 -94.7 248.4 0 343.1 94.7 94.7 248.5 94.8 343.2 .1 94.7 -94.7 94.7 -248.5 0 -343.2 -47.4 -47.3 -109.5 -71 -171.6 -71zm0 71.6c43.8 0 87.6 16.6 120.9 50 66.8 66.8 66.8 175.2 0 241.9 -66.7 66.8 -175.1 66.8 -241.8 0 -66.8 -66.7 -66.8 -175.1 0 -241.9 33.3 -33.4 77.1 -50 120.9 -50z"/></svg>