<svg height="1000" width="875" xmlns="http://www.w3.org/2000/svg"><path d="M781.3 0C833 0 875 42 875 93.8s-42 93.7 -93.7 93.7 -93.8 -42 -93.8 -93.7S729.5 0 781.3 0zm0 875c17.1 0 31.2 14.1 31.2 31.3 0 51.7 -42 93.7 -93.7 93.7H531.3C514.1 1000 500 985.9 500 968.8s14.1 -31.3 31.3 -31.3h187.5c17.1 0 31.2 -14.1 31.2 -31.2S764.1 875 781.3 875zm-551.2 16.8c12.3 -12.3 32.2 -12.1 44.3 0 12.1 12.1 12.1 32 0 44.1 -18.1 18.2 -42.2 27.4 -66.2 27.4s-48 -9 -66.4 -27.4L9.2 803.3c-12.1 -12.1 -12.1 -32 0 -44.1s32 -12.1 44.1 0l132.6 132.6c12.1 12.3 32.1 12.1 44.2 0zM339.6 540.6c7.5 11.9 16.1 23.1 25.8 32.8l59 59L244.9 811.9c-12.1 12.3 -28.1 18.4 -44.1 18.4s-32 -6.3 -44.2 -18.4c-24.4 -24.2 -24.4 -63.9 0 -88.3zM250 312.5c-34.6 0 -62.5 -27.9 -62.5 -62.5s27.9 -62.5 62.5 -62.5h399.6c31.8 0 60.2 18.9 72.3 48.2 12.1 29.3 5.4 62.7 -17 85.2L544.1 481.6c-.9 1 -2.3 1.4 -3.3 2.2L660 602.9c17.5 17.4 27.5 41.6 27.5 66.2v174.6c0 34.6 -27.9 62.5 -62.5 62.5s-62.5 -27.9 -62.5 -62.5V682L409.8 529.3c-24.6 -24.4 -37.9 -58.4 -36.6 -93.2 1.4 -34.5 17.2 -67.5 43.6 -90l39.3 -33.6H250z"/></svg>