<svg height="1000" width="1000" xmlns="http://www.w3.org/2000/svg"><path d="M843.8 187.5C792 187.5 750 145.5 750 93.8S792 0 843.8 0s93.7 42 93.7 93.8 -42 93.7 -93.7 93.7zM986.3 883c18.2 18.2 18.2 47.9 0 66 -33.2 33.2 -77.7 50.8 -123 50.8 -24.6 0 -49.2 -5.1 -72.5 -15.8L25.4 588.5C2.3 576.8 -6.6 548.4 5.3 525.4c11.9 -23.1 40.2 -31.8 63.1 -20.1l386.5 199.8 89.6 -134.4L397.9 423.8c-28 -28.1 -40.3 -67.4 -34.6 -106.2l209 103.7 78.9 79.1c31.6 31.4 36.5 81.2 11.7 118.4l-96.1 144.1L832 900c28.5 13.1 64.5 6.6 88.1 -17 18.2 -18.4 47.9 -18.4 66.2 0zM234.4 178.9L183.2 134c-4.3 -3.7 -4.7 -10.2 -1 -14.5 2.6 -2.9 6.3 -4.1 9.8 -3.3l67.2 13.7h.4l21.6 -42.4c26.8 13.7 41.5 41.2 40.9 69.5l122 60.6 158.6 -63.5c85.2 -34 149.3 29.3 165.1 76.6l33.4 100 101.7 50.9c30.9 15.5 43.4 53 28 83.8 -15.5 30.9 -52.8 43.4 -83.8 28L733.6 436.7c-22.3 -11.1 -39.1 -30.4 -46.9 -54.1l-12.5 -37.3 -63.3 25.4L387.3 259.8c.2 -.2 .2 -.4 .4 -.6l-92.2 -45.7c-22.6 18.9 -55.5 23.6 -83.6 9.4z"/></svg>