<svg height="1000" width="1125" xmlns="http://www.w3.org/2000/svg"><path d="M656.3 187.5c-51.8 0 -93.8 -42 -93.8 -93.7S604.5 0 656.3 0 750 42 750 93.8s-42 93.7 -93.7 93.7zm421.8 625c25.8 0 46.9 21.1 46.9 46.9 0 77.5 -63.1 140.6 -140.6 140.6H46.9C21.1 1000 0 979.1 0 953.1s21.1 -46.8 46.9 -46.8h83.8l105.6 -529c-1.3 -1.5 -3.3 -2.3 -4.7 -4.1 -21.1 -27.5 -15.8 -66.8 11.6 -87.7l77.5 -59.3c44.9 -34.4 102.5 -46.7 157.8 -33.4l139.1 41.4c51.3 13.1 96.3 49.6 120.7 99.4l51 103.9h85.9c34.6 0 62.5 27.9 62.5 62.5 0 26.2 -16.4 48.6 -39.3 57.8l-49.8 348.4h135.8c25.8 0 46.9 -21 46.9 -46.8 0 -26 21 -46.9 46.8 -46.9zm-508.8 93.8l49.8 -158.6 -166 -98.1c-53.9 -31.8 -76 -99.2 -51.3 -156.8L475 322.1l-28.7 -8.6c-15.4 -3.7 -34.4 .4 -49.4 11.9l-77.6 59.4c-7 5.2 -14.8 8.9 -22.8 10.9L194.3 906.2h47.3L363.7 648.8c14.8 21.3 34 40.3 57.6 54.3l43 25.4 -84.2 177.7h189.2zm216.1 0l49.2 -343.8h-65.1C734 562.5 701 541.8 685.4 510l-39.7 -80.9L584.6 582l119.5 70.5c36.5 22.1 53.7 65.7 42.2 106.3l-46.1 147.5h85.2z"/></svg>