<svg height="1000" width="1000" xmlns="http://www.w3.org/2000/svg"><path d="M500 0c276.2 0 500 195.9 500 437.5 0 136.9 -72.1 259 -184.6 339.3 -18.9 13.4 -29.7 35.5 -26.3 58.4l18.3 129.3c2.8 18.7 -11.7 35.5 -30.6 35.5H625V890.6C625 882 618 875 609.4 875h-31.3c-8.6 0 -15.6 7 -15.6 15.6V1000h-125V890.6c0 -8.6 -7 -15.6 -15.6 -15.6h-31.3c-8.6 0 -15.6 7 -15.6 15.6V1000H223.2c-18.9 0 -33.4 -16.8 -30.6 -35.5l18.3 -129.3c3.4 -23.1 -7.6 -45 -26.3 -58.4C72.1 696.5 0 574.4 0 437.5 0 195.9 223.8 0 500 0zM312.5 625c68.9 0 125 -56.1 125 -125S381.4 375 312.5 375s-125 56.1 -125 125 56.1 125 125 125zm375 0c68.9 0 125 -56.1 125 -125S756.4 375 687.5 375s-125 56.1 -125 125 56.1 125 125 125z"/></svg>