<svg height="1000" width="1250" xmlns="http://www.w3.org/2000/svg"><path d="M1250 643.2c0 128.7 -102.5 223.4 -229.5 223.4 -324 0 -384 -487.7 -702.5 -487.7 -286.9 0 -287.3 414.5 10.9 414.5 83 0 177.5 -34.8 244.7 -83 11 -8.1 33 -31.9 44.6 -31.9s21.3 9.8 21.3 21.3c0 15.2 -25.6 37.3 -36.6 47.1C523 816.4 407 866.4 300.8 866.4 137.9 866.6 0 751.2 0 583.4S131.8 292.2 298.4 292.2c362 0 434.6 480.3 706.9 480.3 195.1 0 185.1 -272.9 6.6 -272.9 -34.2 0 -68.3 22.7 -91.6 22.7 -16.4 0 -31 -14.1 -31 -30.5 0 -22.7 10.3 -46.3 10.3 -70.9 0 -130.1 -99.4 -224 -228.3 -224 -103.7 0 -156.3 72 -173.4 72 -12.2 0 -21.9 -9.7 -21.9 -21.8 0 -11 8 -20.1 15.2 -28.2C540.6 162.7 617.6 133.6 692 133.6c155.1 0 271.7 114.1 271.7 269.1 0 13.5 -.6 26.8 -2.4 40.3 23.3 -6.1 47.1 -9.2 70.1 -9.2 118.6 0 218.6 88.5 218.6 209.4z"/></svg>