<svg height="1000" width="875" xmlns="http://www.w3.org/2000/svg"><path d="M829.5 585.5c28.5 37 45.5 83.1 45.3 133.1 0 120.7 -98 218.7 -218.7 218.7 -50 0 -96.1 -17 -133.2 -45.5 -27.6 5.9 -56.5 9.2 -85.6 9.2C215.8 901 36.3 721.7 36.3 500c0 -29.1 3.5 -58.2 9.2 -85.5C17 377.5 0 331.4 0 281.3 0 160.5 98 62.5 218.7 62.5c50.2 0 96.3 17 133.4 45.7 27.6 -5.9 56.5 -9.2 85.6 -9.2 221.5 0 401 179.3 401 401 0 29.1 -3.5 58.2 -9.2 85.5zM449.4 764.3c107.2 0 218.8 -53.6 218.8 -169C668.2 496.1 571.9 461.9 491 443.8 396.7 421.9 356.1 418 356.1 379.3c0 -30.3 31.8 -43.9 82 -43.9 89.4 0 91.2 65.4 146.5 65.4 36.9 0 59.1 -29.1 59.1 -62.1C643.7 273.2 535 230.5 427.3 230.5c-98.6 0 -213 42.7 -213 158.4 0 127.3 108 140.2 230 170.3 50.8 12.5 82.1 18.1 82.1 54.7 0 29.1 -32.5 51.3 -82.6 51.3 -105.5 0 -111.2 -87.7 -172.1 -87.7 -40.1 0 -57.6 28.6 -57.6 59.8 0 69.9 107.2 127 235.3 127z"/></svg>