<svg height="1000" width="875" xmlns="http://www.w3.org/2000/svg"><path d="M183.8 615.4c0 50.6 -41.3 91.9 -91.9 91.9C41.3 707.3 0 666 0 615.4c0 -50.6 41.3 -91.9 91.9 -91.9h91.9v91.9zm46.4 0c0 -50.6 41.3 -91.9 91.9 -91.9 50.6 0 91.9 41.3 91.9 91.9v230.2c0 50.6 -41.3 91.9 -91.9 91.9 -50.6 0 -91.9 -41.3 -91.9 -91.9V615.4zm91.9 -369.1c-50.6 0 -91.9 -41.3 -91.9 -91.9 0 -50.6 41.3 -91.9 91.9 -91.9 50.6 0 91.9 41.3 91.9 91.9v91.9h-91.9zm0 46.4c50.6 0 91.9 41.3 91.9 91.9 0 50.6 -41.3 91.9 -91.9 91.9H91.9C41.3 476.5 0 435.2 0 384.6 0 334 41.3 292.7 91.9 292.7h230.2zm369.1 91.9c0 -50.6 41.3 -91.9 91.9 -91.9 50.6 0 91.9 41.3 91.9 91.9 0 50.6 -41.3 91.9 -91.9 91.9h-91.9v-91.9zm-46.4 0c0 50.6 -41.3 91.9 -91.9 91.9 -50.6 0 -91.9 -41.3 -91.9 -91.9V154.4c0 -50.6 41.3 -91.9 91.9 -91.9 50.6 0 91.9 41.3 91.9 91.9v230.2zm-91.9 369.1c50.6 0 91.9 41.3 91.9 91.9 0 50.6 -41.3 91.9 -91.9 91.9 -50.6 0 -91.9 -41.3 -91.9 -91.9v-91.9h91.9zm0 -46.4C502.3 707.3 461 666 461 615.4c0 -50.6 41.3 -91.9 91.9 -91.9h230.2c50.6 0 91.9 41.3 91.9 91.9 0 50.6 -41.3 91.9 -91.9 91.9H552.9z"/></svg>