<svg height="1000" width="875" xmlns="http://www.w3.org/2000/svg"><path d="M871.5 528.1c12.1 37.1 -7.6 77.6 -44.7 89.3l-88.7 29.5 30.6 91.8c12 37.3 -7.6 77.5 -44.9 89.6C682.2 840.2 645.5 816.6 634 783.6l-30.7 -91.8 -182.8 61.1 30.7 91.8c11.9 37.3 -7.6 77.6 -45 89.7 -41.6 11.9 -78.3 -11.7 -89.8 -44.8l-30.7 -91.7c-89.2 29.6 -99.4 34.7 -112.7 32.8 -28.3 -1.2 -55.8 -19.8 -65.6 -48.1 -11.9 -37.1 7.8 -77.5 44.9 -89.6L241 663.5 181.8 487.7C92.6 517.4 82.4 522.5 69.1 520.5 40.8 519.3 13.3 500.8 3.5 472.5c-11.9 -37.3 7.6 -77.6 44.9 -89.7l88.5 -29.3 -30.6 -91.8c-12 -37.3 7.6 -77.5 44.9 -89.6 37.3 -12.1 77.7 7.6 89.8 44.7l30.7 91.8 182.4 -60.9 -30.7 -91.8c-11.9 -37.3 7.7 -77.6 45 -89.7 37.3 -12.1 77.7 7.6 89.8 44.7l30.7 91.8 88.6 -29.5c37.3 -12.1 77.8 7.7 89.9 44.8 11.9 37.3 -7.6 77.5 -44.9 89.6l-88.7 29.5L693 512.9l88.6 -29.5c37.3 -12.1 77.8 7.6 89.9 44.7zm-496.3 92.2l182.6 -61.1L498.6 383 316 444.1z"/></svg>