<svg height="1000" width="1250" xmlns="http://www.w3.org/2000/svg"><path d="M1196.7 685c36.1 28.7 55.8 72.6 53.1 119.1 -4.3 76.2 -72.1 133.4 -148.2 133.4H93.7c-17.1 0 -31.2 -14.1 -31.2 -31.2V875c0 -17.2 14.1 -31.2 31.2 -31.2H1108c26.6 0 48.1 -21.5 48.1 -48.1 0 -14.6 -6.5 -28.3 -18 -37.5l-18.2 -14.5c-13.5 -10.7 -15.6 -30.4 -4.9 -43.9l19.6 -24.4c10.7 -13.5 30.4 -15.6 43.9 -4.9zM62.5 437.5v-250C27.9 187.5 0 159.6 0 125S27.9 62.5 62.5 62.5h40.4c128.4 0 245.9 72.7 303.4 187.5s174.8 187.5 303.3 187.5H750c68.9 0 125 -56.1 125 -125v-125h187.5c34.6 0 62.5 27.9 62.5 62.5s-27.9 62.5 -62.5 62.5V500c0 103.5 -84 187.5 -187.5 187.5v93.8H750v-93.8H375v93.8H250V678.7C142.4 650.8 62.5 553.9 62.5 437.5z"/></svg>