<svg height="1000" width="1000" xmlns="http://www.w3.org/2000/svg"><path d="M968.8 750c17.1 0 31.2 14.1 31.2 31.3v62.5c0 17.1 -14.1 31.2 -31.2 31.2H312.5v31.3c0 17.1 -14.1 31.2 -31.2 31.2h-62.5c-17.2 0 -31.3 -14.1 -31.3 -31.2V875H31.3C14.1 875 0 860.9 0 843.8v-62.5C0 764.1 14.1 750 31.3 750h156.2v-31.2c0 -17.2 14.1 -31.3 31.3 -31.3h62.5c17.1 0 31.2 14.1 31.2 31.3V750h656.3zm0 -312.5c17.1 0 31.2 14.1 31.2 31.3v62.5c0 17.1 -14.1 31.2 -31.2 31.2H812.5v31.3c0 17.1 -14.1 31.2 -31.2 31.2h-62.5c-17.2 0 -31.3 -14.1 -31.3 -31.2v-31.3H31.3C14.1 562.5 0 548.4 0 531.3v-62.5c0 -17.2 14.1 -31.3 31.3 -31.3h656.2v-31.2c0 -17.2 14.1 -31.3 31.3 -31.3h62.5c17.1 0 31.2 14.1 31.2 31.3v31.2h156.3zm0 -312.5c17.1 0 31.2 14.1 31.2 31.3v62.5c0 17.1 -14.1 31.2 -31.2 31.2H562.5v31.3c0 17.1 -14.1 31.2 -31.2 31.2h-62.5c-17.2 0 -31.3 -14.1 -31.3 -31.2V250H31.3C14.1 250 0 235.9 0 218.8v-62.5C0 139.1 14.1 125 31.3 125h406.2V93.8c0 -17.2 14.1 -31.3 31.3 -31.3h62.5c17.1 0 31.2 14.1 31.2 31.3V125h406.3z"/></svg>