<svg height="1000" width="1000" xmlns="http://www.w3.org/2000/svg"><path d="M366.6 300.2c66.4 0 120.5 50.2 120.5 112.7 0 61.9 -54.1 112.7 -120.5 112.7S246.1 474.8 246.1 412.9c0 -62.5 54.1 -112.7 120.5 -112.7zm280.1 0c67 0 120.7 50.2 120.5 112.7 0 61.9 -53.5 112.7 -120.5 112.7 -66.4 0 -120.5 -50.8 -120.5 -112.7 0 -62.5 54.1 -112.7 120.5 -112.7zM952.5 476c29.7 -20.5 49.3 7.8 31.5 34.7C948.2 554.9 880.1 609 776.4 651.4 886.3 1025.8 508 1085.5 514.1 893.6c0 -1.4 -.6 -105.1 -.6 -182.7 -8.4 -1.5 -16.8 -3.9 -26.8 -6 0 78.1 -.6 187.3 -.6 188.7 6.1 191.8 -372.2 132 -262.3 -242.4C119.9 608.8 52 554.7 16.2 510.5 -1.6 483.8 18 455.3 47.5 476c3.9 2.7 8.4 5.6 12.3 8.4V97.1C59.8 43.6 100 0 149.6 0H851c49.6 0 89.8 43.6 89.8 97.1v387.3zM893 513.5h.2V141.2C893.2 77.1 872.5 52 813.3 52H192.8c-61.9 0 -79.3 21 -79.3 89.2V517c132.2 69.1 245.5 56.8 307.4 54.7 26.2 -.6 43 4.5 52.9 15 3.3 3.1 19.6 18.4 39.7 33.4 2.1 -30.8 19.5 -50.4 65.8 -48.6 63.1 2.7 179.1 15 313.7 -58z"/></svg>