<svg height="1000" width="968.8" xmlns="http://www.w3.org/2000/svg"><path d="M484.4 15.6C752 15.6 968.8 232.4 968.8 500S752 984.4 484.4 984.4 0 767.6 0 500 216.8 15.6 484.4 15.6zm156.2 328.2c-34.5 0 -62.5 27.9 -62.5 62.5s28 62.5 62.5 62.5 62.5 -28 62.5 -62.5 -27.9 -62.5 -62.5 -62.5zm-312.5 0c-34.5 0 -62.5 27.9 -62.5 62.5s28 62.5 62.5 62.5 62.5 -28 62.5 -62.5 -27.9 -62.5 -62.5 -62.5zm380.5 332.4C735 644.3 686.7 604.5 660.5 636.1c-43.7 52.4 -107.8 82.5 -176.1 82.5S352 688.7 308.2 636.1c-26.6 -31.6 -74.6 8.2 -48 40.1 55.6 66.8 137.3 105 224.2 105S652.9 743 708.6 676.2z"/></svg>