<svg height="1000" width="968.8" xmlns="http://www.w3.org/2000/svg"><path d="M0 500C0 232.4 216.8 15.6 484.4 15.6S968.8 232.4 968.8 500 752 984.4 484.4 984.4 0 767.6 0 500zm390.6 -93.7c0 -34.6 -27.9 -62.5 -62.5 -62.5s-62.5 27.9 -62.5 62.5 28 62.5 62.5 62.5 62.5 -28 62.5 -62.5zm309.6 32.2l18.9 16.6c16.4 14.6 42 .6 38.7 -21.1C750 384.8 691 351.8 640.8 351.8s-109.2 33 -117 82.2c-3.5 21.9 22.5 35.5 38.7 21.1l18.6 -16.6c28.9 -25.8 90.2 -25.8 119.1 0zm-392 197.8c-26.2 -31.8 -74.4 8 -48 39.9 55.6 66.8 137.3 105.1 224.2 105.1S652.9 743 708.6 676.4C735 644.5 687.1 604.7 660.5 636.3c-43.7 52.4 -107.8 82.5 -176.1 82.5S352 688.9 308.2 636.3z"/></svg>