<svg height="1000" width="968.8" xmlns="http://www.w3.org/2000/svg"><path d="M484.4 15.6C752 15.6 968.8 232.4 968.8 500S752 984.4 484.4 984.4 0 767.6 0 500 216.8 15.6 484.4 15.6zM218.8 436.3c-1.4 16.6 21 23.3 29.4 8.8l18.6 -33.2c15 -26.7 37.5 -42.2 61.5 -42.2s46.5 15.5 61.5 42.2l18.6 33.2c8 14.5 30.5 8 29.1 -8.8C431.1 354.1 374.6 296.9 328.1 296.9S225.2 354.1 218.8 436.3zm489.8 239.9C735 644.5 687.1 604.5 660.5 636.1c-43.7 52.4 -107.8 82.5 -176.1 82.5S352 688.7 308.2 636.1c-26.6 -31.6 -74.4 8.2 -48 40.1 55.6 66.8 137.3 105 224.2 105S652.9 743 708.6 676.2zm12.1 -231.1c8 14.5 30.7 8 29.5 -8.8C743.7 354.1 687.3 296.9 640.8 296.9c-46.5 0 -102.9 57.2 -109.4 139.4 -1.3 16.6 21.1 23.1 29.1 8.8l18.6 -33.2c15 -26.7 37.5 -42.2 61.5 -42.2s46.5 15.5 61.5 42.2z"/></svg>