<svg height="1000" width="1250" xmlns="http://www.w3.org/2000/svg"><path d="M1218.8 718.8c17.1 0 31.2 14 31.2 31.2v31.3c0 17.1 -14.1 31.2 -31.2 31.2H156.3c-17.2 0 -31.3 -14.1 -31.3 -31.2V750c0 -17.2 14.1 -31.2 31.3 -31.2h1062.5zM281.3 906.3c17.1 0 31.2 14 31.2 31.2v31.3c0 17.1 -14.1 31.2 -31.2 31.2h-250C14.1 1000 0 985.9 0 968.8v-31.3c0 -17.2 14.1 -31.2 31.3 -31.2h250zm812.5 0c17.1 0 31.2 14 31.2 31.2v31.3c0 17.1 -14.1 31.2 -31.2 31.2H437.5c-17.2 0 -31.2 -14.1 -31.2 -31.2v-31.3c0 -17.2 14 -31.2 31.2 -31.2h656.3zM281.3 562.5C126 562.5 0 436.5 0 281.3S126 0 281.3 0c80 0 151.9 33.8 203.1 87.5C535.5 33.8 607.4 0 687.5 0c107 0 199.2 60.5 246.7 148.6C963.5 134 996.1 125 1031.3 125c120.8 0 218.7 97.9 218.7 218.8s-97.9 218.7 -218.7 218.7H913.9C869.7 601 813.1 625 750 625S630.1 601 586.1 562.5H281.2z"/></svg>