<svg height="1000" width="1000" xmlns="http://www.w3.org/2000/svg"><path d="M187.5 593.8v-125c0 -17.2 14.1 -31.3 31.3 -31.3h41.9L448.2 625H218.8c-17.2 0 -31.3 -14.1 -31.3 -31.2zM500 0c276.2 0 500 223.8 500 500s-223.8 500 -500 500S0 776.2 0 500 223.8 0 500 0zm0 875c80.9 0 155.7 -26 217 -69.7L194.7 283C151 344.3 125 419.1 125 500c0 206.8 168.2 375 375 375zm88.3 -375l62.5 62.5H750V500H588.3zm217 217C849 655.7 875 580.9 875 500 875 293.2 706.8 125 500 125c-80.9 0 -155.7 26 -217 69.7l242.8 242.8h255.5c17.1 0 31.2 14.1 31.2 31.2v125c0 17.2 -14.1 31.3 -31.2 31.3h-68zM626.2 250c62.7 0 114.6 46.3 123.6 106.6 1.4 9.6 -5.9 18.4 -15.6 18.4h-31.7c-7.2 0 -13.6 -4.9 -15 -11.9C682 334.4 656.6 312.5 626.2 312.5c-62.7 0 -114.7 -46.3 -123.7 -106.6 -1.3 -9.6 5.9 -18.4 15.7 -18.4h31.6c7.2 0 13.7 4.9 15 11.9 5.5 28.7 30.9 50.6 61.4 50.6z"/></svg>