<svg height="1000" width="1250" xmlns="http://www.w3.org/2000/svg"><path d="M1234.4 687.5c8.6 0 15.6 7 15.6 15.6v281.3c0 8.6 -7 15.6 -15.6 15.6h-93.8c-8.6 0 -15.6 -7 -15.6 -15.6V703.1c0 -8.6 7 -15.6 15.6 -15.6h93.8zM1080.7 170.1c106 71.1 169.3 189.7 169.3 317.6v59.2c0 8.6 -7 15.6 -15.6 15.6h-93.8c-8.6 0 -15.6 -7 -15.6 -15.6v-59.2c0 -98 -49.2 -188.9 -131.6 -242.2 -36 -23.4 -55.9 -65.2 -55.9 -108.2V15.6C937.5 7 944.5 0 953.1 0h93.8c8.6 0 15.6 7 15.6 15.6v121.7c0 13.3 7 25.4 18.2 32.8zM843.8 687.5c17.1 0 31.2 14.1 31.2 31.3v250c0 17.1 -14.1 31.2 -31.2 31.2h-750C42 1000 0 958 0 906.3v-125c0 -51.8 42 -93.8 93.8 -93.8h750zm-62.5 218.8v-125H437.5v125h343.8zM952.5 276.6c69 48.2 110 126.5 110 211.1v59.2c0 8.6 -7 15.6 -15.6 15.6h-93.8c-8.6 0 -15.6 -7 -15.6 -15.6v-59.2c0 -53.5 -26 -103.3 -69.7 -134C798 304.7 750 230.7 750 145.3V15.6C750 7 757 0 765.6 0h93.8C868 0 875 7 875 15.6v121.7c0 56.6 30.9 106.8 77.5 139.3zm94.4 410.9c8.6 0 15.6 7 15.6 15.6v281.3c0 8.6 -7 15.6 -15.6 15.6h-93.8c-8.6 0 -15.6 -7 -15.6 -15.6V703.1c0 -8.6 7 -15.6 15.6 -15.6h93.8z"/></svg>