<svg height="1000" width="1000" xmlns="http://www.w3.org/2000/svg"><path d="M500 62.5c276.2 0 500 181.8 500 406.3S776.2 875 500 875c-75 0 -145.9 -13.9 -209.8 -37.9 -48 38.3 -145.1 100.4 -274.6 100.4C9.4 937.5 3.9 934 1.4 928.1S0 915.6 4.3 911.1c1 -.9 82.6 -88.6 107 -187.1C41.8 654.3 0 565.6 0 468.8 0 244.3 223.8 62.5 500 62.5zM250.4 593.8c45.7 0 83 -33.8 82.8 -75.4 0 -20.7 -9.4 -40.9 -26 -54.9l-42.7 -36.7c-2.6 -2.2 -4.1 -4.9 -4.1 -7.5 0 -6 8.5 -12.9 20.3 -12.9h24c8.6 0 15.6 -7 15.6 -15.6v-31.2c0 -8.6 -7 -15.7 -15.6 -15.7h-23.8c-45.7 0 -82.9 33.8 -82.9 75.4 0 20.7 9.4 40.9 26 54.9l42.8 36.7c2.5 2.2 4.1 4.9 4.1 7.5 0 6 -8.6 12.9 -20.3 12.9h-24c-8.6 0 -15.7 7 -15.7 15.6v31.2c0 8.6 7.1 15.7 15.7 15.7h23.8zM625 578.1V375c0 -17.2 -14.1 -31.2 -31.2 -31.2h-31.3c-11.7 0 -22.7 6.6 -27.9 17.1L500 430.1l-34.6 -69.2c-5.2 -10.5 -16 -17.1 -27.9 -17.1h-31.2c-17.2 0 -31.3 14 -31.3 31.2v203.1c0 8.6 7 15.7 15.6 15.7h31.3c8.6 0 15.6 -7.1 15.6 -15.7V444.9l48.6 109c5.7 11.5 22.3 11.5 28 0l48.4 -109v133.2c0 8.6 7 15.7 15.6 15.7h31.3c8.6 0 15.6 -7.1 15.6 -15.7zm94.3 15.7c45.7 0 82.8 -33.8 82.7 -75.4 0 -20.7 -9.4 -40.9 -26 -54.9l-42.8 -36.7c-2.5 -2.2 -4.1 -4.9 -4.1 -7.5 0 -6 8.6 -12.9 20.3 -12.9h24c8.6 0 15.7 -7 15.7 -15.6v-31.2c0 -8.6 -7.1 -15.7 -15.7 -15.7h-23.8c-45.7 0 -82.8 33.8 -82.8 75.4 0 20.7 9.4 40.9 26 54.9l42.7 36.7c2.6 2.2 4.1 4.9 4.1 7.5 0 6 -8.5 12.9 -20.3 12.9h-24c-8.6 0 -15.6 7 -15.6 15.6v31.2c0 8.6 7 15.7 15.6 15.7h24z"/></svg>