<svg height="1000" width="875" xmlns="http://www.w3.org/2000/svg"><path d="M781.3 62.5c51.7 0 93.7 42 93.7 93.8v687.5c0 51.7 -42 93.7 -93.7 93.7H93.8C42 937.5 0 895.5 0 843.8V156.3C0 104.5 42 62.5 93.8 62.5h687.5zm-12.7 615c4.3 -10.3 -1.8 -19.1 -9.6 -21.1C668.6 641.6 627.9 548.8 626.2 544.9c-.2 -.2 -.2 -.4 -.4 -.6 -4.7 -9.7 -5.9 -17.9 -3.1 -24.4 5 -12.3 24.4 -18.3 37.1 -22.4 3.5 -1.2 6.8 -2.2 9.5 -3.4 22.5 -8.7 33.8 -19.7 33.6 -32.4 -.2 -9.9 -8 -18.7 -20.3 -23.2 -7.8 -3.1 -18.7 -3.7 -26.5 0 -10.8 5.1 -20.4 7.8 -28.8 8.2 -5.4 -.2 -8.9 -1.6 -11.1 -2.8 2.7 -46.8 9.2 -113.2 -7.4 -150.5C577 222.1 511.9 187.3 444.1 187.3c-1.1 0 -11.9 .2 -13 .2 -27.4 0 -120.4 7.8 -164.3 106.1 -16.6 37.3 -10.2 103.9 -7.4 150.5 -2.2 1.2 -6.5 2.8 -12.9 2.8 -8.8 0 -19.2 -2.8 -30.7 -8.2 -14.6 -6.9 -39.6 3.5 -42.8 20.1 -1.9 9.6 2.4 23.6 33.2 35.7 12 4.9 40.3 10.4 46.9 25.8 2.8 6.5 1.8 14.7 -3.1 24.4 -.2 .2 -.4 .4 -.4 .6 -1.7 3.9 -42.4 96.7 -132.8 111.5 -7 1.2 -11.9 7.5 -11.5 14.5 1.3 27.1 61.9 37.7 88.8 41.8 2.8 3.7 4.9 19.3 8.4 31.2 1.6 5.3 5.7 11.8 16.2 11.8s26 -6.1 50.4 -6.1c34.4 0 46.1 7.8 73.1 26.8 19.3 13.6 53.7 38.6 94.7 35.5 40.6 1.8 67.8 -15.4 96.1 -35.5 26.8 -19 38.7 -26.8 73.1 -26.8 25.3 0 38.2 5.7 50.3 5.7h.4c8.6 0 13.7 -4.3 15.9 -11.6 3.5 -11.9 5.6 -27.3 8.4 -31 52.1 -8.2 80.6 -19.7 87.5 -35.6z"/></svg>