<svg height="1000" width="1000" xmlns="http://www.w3.org/2000/svg"><path d="M997.7 766.9c-10.1 23.8 -53.2 41.2 -131.5 53.4 -4 5.4 -7.4 28.7 -12.7 46.8 -3.2 10.9 -11 17.3 -23.7 17.3h-.6c-18.3 0 -37.5 -8.4 -75.9 -8.4 -51.8 0 -69.6 11.8 -109.8 40.2 -42.7 30.1 -83.6 56.1 -144.6 53.5 -61.8 4.5 -113.4 -33 -142.4 -53.5C316.1 887.6 298.3 876 246.7 876c-36.8 0 -60 9.2 -75.9 9.2 -15.8 0 -21.9 -9.6 -24.2 -17.7C141.3 849.6 138 826 133.8 820.4 93.4 814.1 2.3 798.2 0 757.6c0 -.3 0 -.8 0 -1.1C0 746.7 7.8 737.6 17.4 736 153.3 713.6 214.5 574.1 217 568.1c.2 -.3 .3 -.6 .5 -1 7.2 -14.7 8.9 -27 4.8 -36.6 -9.9 -23.2 -52.5 -31.6 -70.4 -38.7 -46.3 -18.3 -52.8 -39.3 -50 -53.7 4.7 -25 42.4 -40.5 64.4 -30.2 17.4 8.2 32.9 12.3 46 12.3 9.8 0 16 -2.3 19.5 -4.2 -4 -70.2 -13.9 -170.5 11.1 -226.5C308.8 41.6 448.6 30.1 489.9 30.1c1.8 0 17.9 -.2 19.7 -.2 101.9 0 199.8 52.3 247.6 159.5 24.9 56 15.1 155.8 11.1 226.6 3.1 1.7 8.5 3.8 16.8 4.2 12.5 -.6 26.9 -4.7 43.1 -12.3 11.9 -5.5 28.1 -4.8 40 .2 18.5 6.6 30.2 19.9 30.5 34.9 .3 19 -16.7 35.5 -50.6 48.8 -4.1 1.7 -9.1 3.3 -14.5 5 -19.1 6 -48 15.2 -55.9 33.7 -4 9.6 -2.4 21.9 4.8 36.6 .2 .3 .4 .7 .5 1 2.5 5.9 63.7 145.5 199.7 167.9 12.5 2 21.8 15.4 15 30.9z"/></svg>