<svg height="1000" width="968.8" xmlns="http://www.w3.org/2000/svg"><path d="M484.4 15.6C752 15.6 968.8 232.4 968.8 500S752 984.4 484.4 984.4 0 767.6 0 500 216.8 15.6 484.4 15.6zm331 661.9c4.3 -10.3 -1.7 -19.1 -9.5 -21.1C715.4 641.6 674.8 548.8 673 544.9c-.1 -.2 -.1 -.4 -.3 -.6 -4.7 -9.7 -5.9 -17.9 -3.2 -24.4 5.1 -12.3 24.4 -18.3 37.1 -22.4 3.6 -1.2 6.9 -2.2 9.6 -3.4 22.5 -8.7 33.8 -19.7 33.6 -32.4 -.2 -9.9 -8 -18.7 -20.3 -23.2 -7.8 -3.1 -18.8 -3.7 -26.6 0 -10.7 5.1 -20.3 7.8 -28.7 8.2 -5.4 -.2 -9 -1.6 -11.1 -2.8 2.7 -46.8 9.2 -113.2 -7.4 -150.5C623.8 222.1 558.8 187.3 491 187.3c-1.2 0 -11.9 .2 -13.1 .2 -27.3 0 -120.3 7.8 -164.2 106.1 -16.6 37.3 -10.2 103.9 -7.5 150.5 -2.1 1.2 -6.4 2.8 -12.8 2.8 -8.8 0 -19.2 -2.8 -30.7 -8.2 -14.7 -6.9 -39.7 3.5 -42.8 20.1 -1.9 9.6 2.4 23.6 33.2 35.7 11.9 4.9 40.3 10.4 46.9 25.8 2.7 6.5 1.8 14.7 -3.1 24.4 -.2 .2 -.4 .4 -.4 .6 -1.8 3.9 -42.4 96.7 -132.8 111.5 -7.1 1.2 -11.9 7.5 -11.6 14.5 1.4 27.1 62 37.7 88.9 41.8 2.7 3.7 4.9 19.3 8.4 31.2 1.6 5.3 5.7 11.8 16.2 11.8s26 -6.1 50.4 -6.1c34.4 0 46.1 7.8 73.1 26.8 19.3 13.6 53.7 38.6 94.7 35.5 40.6 1.8 67.8 -15.4 96.1 -35.5 26.7 -19 38.7 -26.8 73 -26.8 25.4 0 38.3 5.7 50.4 5.7h.4c8.6 0 13.7 -4.3 15.8 -11.6 3.5 -11.9 5.7 -27.3 8.4 -31 52.2 -8.2 80.7 -19.7 87.5 -35.6z"/></svg>