<svg height="1000" width="1000" xmlns="http://www.w3.org/2000/svg"><path d="M997.9 297.5c6.2 15.8 -1.6 33.6 -17.4 39.6L716.4 444.9c.8 8 2.3 15.6 2.3 23.9 0 19.5 -3.3 38 -8.2 56 41.3 41.8 70.6 95.3 81.3 154.3 22.5 123.4 -32 235 -122.9 298C647.7 992 622.3 1000 596.3 1000H402.5c-21.4 0 -42.9 -4.5 -61.1 -16C258.6 931.4 203.1 839.8 203.1 734.4c0 -81.7 33 -155.5 86.5 -209.2 -4.8 -18.2 -8.2 -36.7 -8.2 -56.4 0 -8.3 1.6 -16.1 2.4 -23.9L19.7 337.1c-16 -6.2 -23.8 -24 -17.4 -39.6l11.6 -28.4c6.4 -15.6 24.6 -23.2 40.6 -17l54.9 22.5V218c0 -16.8 14 -30.5 31.2 -30.5h31.3c17.2 0 31.2 13.7 30.8 30.5v91.6c0 .9 -.4 1.9 -.6 2.9l110.2 44.9c11.7 -19.5 26 -36.9 43 -51.9 -26.4 -32.5 -43 -73.1 -43 -118.2C312.3 83.8 396.3 -.2 499.8 -.2s187.5 84 187.5 187.5c0 45.1 -16.4 85.7 -43 118.2 17 15 31.5 32.4 43 51.9l110.2 -44.9c0 -1 -.6 -2 -.6 -2.9V218c0 -16.8 14 -30.5 31.2 -30.5h31.3c17.2 0 31.2 13.7 31.2 30.5v56.6l55.1 -22.5c16 -6.2 34.2 1.4 40.6 17zm-560.4 -110c17.2 0 31.3 -14.1 31.3 -31.2S454.7 125 437.5 125s-31.2 14.1 -31.2 31.3 14 31.2 31.2 31.2zM500 718.8c17.2 0 31.3 -14.1 31.3 -31.3S517.2 656.3 500 656.3s-31.2 14 -31.2 31.2 14 31.3 31.2 31.3zm0 -125c17.2 0 31.3 -14.1 31.3 -31.3S517.2 531.3 500 531.3s-31.2 14 -31.2 31.2 14 31.3 31.2 31.3zm0 -125c17.2 0 31.3 -14.1 31.3 -31.3S517.2 406.3 500 406.3s-31.2 14 -31.2 31.2 14 31.3 31.2 31.3zm0 -171.9s31.3 -45.3 31.3 -62.5S517.2 203.1 500 203.1s-31.2 14.1 -31.2 31.3 31.2 62.5 31.2 62.5zm62.5 -109.4c17.2 0 31.3 -14.1 31.3 -31.2S579.7 125 562.5 125s-31.2 14.1 -31.2 31.3 14 31.2 31.2 31.2z"/></svg>