<svg height="1000" width="875" xmlns="http://www.w3.org/2000/svg"><path d="M860 674.2c14.4 8.2 19.3 26.8 10.9 41l-30.3 52.4c-8.4 14.4 -26.7 19.5 -41.2 11.1l-66 -38.1 13.7 50.8c4.3 16 -5.3 32.6 -21.3 36.9l-29.1 7.8c-16 4.3 -32.6 -5.2 -36.9 -21.3L622.7 676.6 500 605.9v151.3l104.3 104.9c12.1 12.1 12.1 32 0 44.1l-22.1 22.1c-12.1 12.1 -32 12.1 -44.1 0l-38.5 -38.5v78.9c0 17.2 -14.1 31.3 -31.2 31.3h-62.5c-17.2 0 -31.3 -14.1 -31.3 -31.3V890l-38.5 38.5c-12.1 12.1 -32 12.1 -44.1 0l-22.1 -22.1c-12.3 -12.1 -12.3 -32 0 -44.1L374.8 757.4V606.1l-122.7 70.7L215 815c-4.3 16.1 -20.9 25.6 -36.9 21.3L149 828.5c-16 -4.3 -25.6 -20.9 -21.3 -36.9l13.7 -50.8 -66 38.1c-14.5 8.2 -32.8 3.3 -41.2 -11.1L3.9 715.4C-4.3 701 .6 682.6 15 674.2l66.1 -38.3L30.3 622.3C14.3 618 4.7 601.4 9 585.4l7.8 -29.2c4.3 -16 20.9 -25.5 36.9 -21.2L192 572.1 316.6 500 192 427.9 53.7 465c-16 4.3 -32.6 -5.2 -36.9 -21.3L9 414.6c-4.3 -16.2 5.3 -32.8 21.5 -37.1l50.7 -13.6 -66 -38.1C.8 317.4 -4.3 299 4.1 284.6l30.3 -52.2C42.8 218 61.1 212.9 75.6 221.3l66 38.1 -13.7 -50.8c-4.3 -16 5.3 -32.6 21.3 -36.9l29.1 -7.8c16 -4.3 32.6 5.2 36.9 21.3l37.1 138.2L375 394.1V242.8L270.1 137.9c-12.3 -12.1 -12.3 -32 0 -44.2l22.3 -22c12.1 -12.1 32 -12.1 44.1 0l38.5 38.5v-79C375 14.1 389.1 0 406.3 0h62.5C485.9 0 500 14.1 500 31.2v79l38.7 -38.5c12.1 -12.1 32 -12.1 44.1 0l22.1 22c12.1 12.2 12.1 32.1 0 44.2L500 242.8v151.3l122.7 -70.7 37.1 -138.2c4.3 -16.1 20.9 -25.6 36.9 -21.3l29.1 7.8c16 4.3 25.6 20.9 21.3 36.9l-13.7 50.8 66 -38.1c14.5 -8.2 32.8 -3.3 41.2 11.1l30.3 52.4c8.2 14.4 3.3 32.8 -11.1 41.2l-66 38.1 50.7 13.6c16 4.3 25.6 20.9 21.3 36.9l-7.8 29.1c-4.3 16.1 -20.9 25.6 -36.9 21.3L682.8 427.9 558.2 500 683 572.3l138.3 -37.1c16 -4.3 32.6 5.2 36.9 21.2l7.8 29.1c4.3 16.1 -5.3 32.7 -21.3 37l-50.8 13.6z"/></svg>