<svg height="1000" width="1250" xmlns="http://www.w3.org/2000/svg"><path d="M234.4 734.4c26 0 46.9 20.9 46.9 46.9s-20.9 46.8 -46.9 46.8 -46.9 -20.9 -46.9 -46.8 20.9 -46.9 46.9 -46.9zm156.2 0c26 0 46.9 20.9 46.9 46.9s-20.9 46.8 -46.9 46.8 -46.8 -20.9 -46.8 -46.8 20.8 -46.9 46.8 -46.9zm156.3 0c26 0 46.9 20.9 46.9 46.9s-20.9 46.8 -46.9 46.8S500 807.2 500 781.3s20.9 -46.9 46.9 -46.9zm156.2 0c26 0 46.9 20.9 46.9 46.9s-20.9 46.8 -46.9 46.8 -46.8 -20.9 -46.8 -46.8 20.8 -46.9 46.8 -46.9zm466 96.5l71.7 71.6c12.1 12.1 12.1 32.1 0 44.2l-44.1 44.1c-12.1 12.1 -32.1 12.1 -44.2 0l-71.6 -71.7C1029.1 867.4 1000 797.3 1000 724v-36.5h-84.4c13.7 28.5 21.9 60 21.9 93.7 0 120.9 -97.8 218.8 -218.7 218.8h-500C97.9 1000 0 902.1 0 781.2 0 694.1 51.4 619.5 125 584.4V406.2c0 -51.7 42 -93.7 93.8 -93.7H250V93.7C250 42 292 0 343.8 0h281.8c37.7 0 71.5 22.3 86.3 56.8l152.9 357.1c6.7 15.6 10.2 32.2 10.2 49.2v99.4h125V526c0 -73.3 29.1 -143.4 80.9 -195.1l71.6 -71.7c12.1 -12.1 32.1 -12.1 44.2 0l44.1 44.1c12.1 12.1 12.1 32.1 0 44.2l-71.7 71.6c-28.3 28.4 -44.1 66.6 -44.1 106.7v198.4c0 40.1 15.8 78.3 44.1 106.7zM375 125v187.5l125 125h239.1L605.1 125H375zm343.8 750c51.7 0 93.7 -42 93.7 -93.7s-42 -93.8 -93.7 -93.8h-500c-51.8 0 -93.8 42 -93.8 93.8s42 93.7 93.8 93.7h500z"/></svg>