<svg height="1000" width="1000" xmlns="http://www.w3.org/2000/svg"><path d="M843.8 187.5C792 187.5 750 145.5 750 93.8S792 0 843.8 0s93.7 42 93.7 93.8 -42 93.7 -93.7 93.7zm56.2 300L736.9 364.6 608 424.2l101.6 76.2c29.1 21.9 42.9 59 35.3 94.5l-42.8 199.2c-4.2 19.8 -17.7 34.8 -34.7 42.8l177.3 64.7c19 6.8 39.5 6 57.6 -2.6 23.5 -10.9 51.4 -.8 62.3 22.7 11 23.4 .8 51.3 -22.6 62.3 -22.7 10.7 -46.9 16 -71.3 16 -19.5 0 -39.1 -3.5 -58 -10.4L100.2 730.5C57.6 715 23.8 684 4.7 643c-11 -23.5 -.8 -51.4 22.6 -62.3 23.5 -11 51.4 -.8 62.3 22.6 8.6 18.4 23.7 32.2 42.6 39.1l75.6 27.5c-7.4 -6.8 -13.7 -15 -17 -25.2 -10.9 -32.8 6.7 -68.1 39.5 -79.1L375 517.4V413.7C375 366 401.6 323.2 444.1 302l80.5 -40.3 -32 -10.7c-23.7 -8 -43 -24.6 -54.1 -46.9L381.6 90.6c-15.4 -30.8 -2.9 -68.3 28 -83.8s68.3 -2.9 83.8 28l50.9 101.7 124.5 41.4c31.8 10.6 61.7 26.4 88.6 46.5L975 387.5c27.7 20.7 33.2 60 12.5 87.5 -12.3 16.4 -31.1 25 -50 25 -13.1 0 -26.2 -4.1 -37.5 -12.5zm-282 101L499.8 500v40c0 40.5 -25.8 76.2 -64.1 88.9l-166 55.5c-5.1 1.7 -10.3 2.1 -15.6 2.5L585 807.2c-5.7 -11.9 -8.4 -25.2 -5.5 -39z"/></svg>