<svg height="1000" width="1000" xmlns="http://www.w3.org/2000/svg"><path d="M812.5 375C916 375 1000 459 1000 562.5v250C1000 916 916 1000 812.5 1000h-625C84 1000 0 916 0 812.5v-250C0 459 84 375 187.5 375h250c.1 39.7 21.9 95.7 48.7 125H312.5C209 500 125 584 125 687.5S209 875 312.5 875h375.4C791.2 875 875 791.2 875 687.9c0 -72.3 -55.1 -151 -122.9 -175.8 33.3 -30.5 60.3 -91.9 60.4 -137.1zM625 500C556 500 500 444 500 375S556 250 625 250s125 56 125 125S694 500 625 500zM406.3 187.5c-51.8 0 -93.8 -42 -93.8 -93.7S354.5 0 406.3 0 500 42 500 93.8s-42 93.7 -93.7 93.7zM750 125c-34.5 0 -62.5 -28 -62.5 -62.5S715.5 0 750 0s62.5 28 62.5 62.5S784.5 125 750 125zM312.5 562.5h375c69 0 125 56 125 125s-56 125 -125 125h-375c-69 0 -125 -56 -125 -125s56 -125 125 -125z"/></svg>