<svg height="1000" width="1000" xmlns="http://www.w3.org/2000/svg"><path d="M419.3 607.4C316.2 684.7 284.4 822.3 342.7 930.5l-42.7 32c-33.7 25.3 -73.2 37.5 -112.3 37.5 -64.1 0 -128.3 -32.7 -164 -94.4C-24.4 822.3 3.8 715.2 80.8 657.4L250 531.2V187.5h312.5V500zM562.5 62.5V125H250V62.5C250 28 278 0 312.5 0h250c5.6 0 10.5 1.8 15.7 3.2 -9.7 17.7 -15.7 37.7 -15.7 59.3zM937.5 0C972 0 1000 28 1000 62.5V125H625V62.5C625 28 653 0 687.5 0h250zM625 531.3V187.5h375v406.3c0 69 -44.8 158.6 -100 199.9L675 962.5c-33.7 25.3 -73.2 37.5 -112.3 37.5 -64.1 0 -127.3 -32.7 -163 -94.4C351.6 822.3 379.8 715.2 456.8 657.4z"/></svg>