<svg height="1000" width="1250" xmlns="http://www.w3.org/2000/svg"><path d="M843.7 875c17.3 0 31.3 14 31.3 31.3l-.1 62c0 17.2 -14 31.2 -31.2 31.2l-437.4 .5C389 1000 375 986 375 968.7l.1 -62c0 -17.2 14 -31.2 31.2 -31.2l93.7 -.1v-62.9h250v62.6zM1143 52.2c113.5 668.8 107 627.7 106.9 635.7 -.1 33.7 -28 62.1 -63.6 62.1H63.7C28 750 0 721.3 .1 687.5 .1 679.8 -6.5 721 107 52.2 112.1 22.1 138.7 0 169.8 0h910.4c31.1 0 57.7 22.1 62.8 52.2zM507.5 125l-19.1 187.5h273.2L742.5 125h-235zM360.7 625l22.2 -218.7H176L138.8 625h221.9zm31.8 -312.5L411.6 125H223.7l-31.8 187.5h200.6zM456.6 625h336.8L771.1 406.3H478.8zM838.4 125l19.1 187.5h200.6L1026.3 125H838.4zm50.9 500h221.9L1074 406.3H867z"/></svg>