<svg height="1000" width="875" xmlns="http://www.w3.org/2000/svg"><path d="M343.8 687.5c27.7 0 41.6 33.7 22.1 53.3L209.6 928.3c-5 5.1 -14.9 9.2 -22.1 9.2 -7.1 0 -17 -4.1 -22.1 -9.2L9.2 740.8C-10.5 721.2 3.5 687.5 31.3 687.5H125V93.8c0 -17.3 14 -31.3 31.3 -31.3h62.5c17.2 0 31.2 14 31.2 31.3v593.7h93.8zm437.5 125c17.2 0 31.2 14 31.2 31.3v62.5c0 17.2 -14 31.2 -31.2 31.2H593.8c-17.3 0 -31.3 -14 -31.3 -31.2v-62.5c0 -17.3 14 -31.3 31.3 -31.3H625v-125h-31.2c-17.3 0 -31.3 -14 -31.3 -31.2 0 -4.1 1.5 -10.4 3.3 -14.1l31.3 -62.5c4.8 -9.5 17.3 -17.2 27.9 -17.2h93.7c17.3 0 31.3 14 31.3 31.3v218.7h31.2zM644.9 68.2c104.4 -27.8 198.9 50.5 198.9 150.5v21.1c0 137.5 -55.2 209.4 -168.5 257.8 -16.3 7 -35.2 -2.5 -40.8 -19.4l-19.3 -39c-5.1 -15.4 1.2 -33.1 16 -39.7 12.2 -5.3 30.5 -16.6 40.7 -25.3C578.8 364.9 509.6 273.7 537.4 174 550.7 128.2 598.9 80.8 644.9 68.2zm42.6 189.6c21.6 0 39.1 -17.5 39.1 -39s-17.5 -39.1 -39.1 -39.1 -39.1 17.5 -39.1 39.1 17.5 39 39.1 39z"/></svg>