<svg height="1000" width="875" xmlns="http://www.w3.org/2000/svg"><path d="M343.8 687.5c27.7 0 41.6 33.7 22.1 53.3L209.6 928.3c-5 5.1 -14.9 9.2 -22.1 9.2 -7.1 0 -17 -4.1 -22.1 -9.2L9.2 740.8C-10.5 721.2 3.5 687.5 31.3 687.5H125V93.8c0 -17.3 14 -31.3 31.3 -31.3h62.5c17.2 0 31.2 14 31.2 31.3v593.7h93.8zm468.7 -125c17.3 0 31.3 14 31.3 31.3v34.4c0 15.5 -9.4 36.4 -21 46.7L703.1 812.5h109.4c17.3 0 31.3 14 31.3 31.3v62.5c0 17.2 -14 31.2 -31.3 31.2h-250c-17.3 0 -31.2 -14 -31.2 -31.2v-34.5c0 -15.5 9.3 -36.4 20.9 -46.7L671.9 687.5H562.5c-17.3 0 -31.2 -14 -31.2 -31.2v-62.5c0 -17.3 13.9 -31.3 31.2 -31.3h250zm60.7 -166.8c1 2.9 1.8 7.6 1.8 10.5 0 17.3 -14 31.3 -31.2 31.3h-48.7c-12.5 0 -25.8 -9.7 -29.7 -21.6l-8.6 -25.3H618.1l-8.6 25.3c-3.9 11.9 -17.2 21.6 -29.7 21.6h-48.5c-17.3 0 -31.3 -14 -31.3 -31.3 0 -2.9 .8 -7.6 1.8 -10.5L617.6 83.2C621.7 71.8 634.9 62.5 647 62.5h81c12.1 0 25.3 9.3 29.4 20.7zM655.5 281.3h64l-32 -93.8z"/></svg>