<svg height="1000" width="875" xmlns="http://www.w3.org/2000/svg"><path d="M31.3 312.5c-27.8 0 -41.7 -33.7 -22.1 -53.3L165.4 71.7c5.1 -5.1 15 -9.2 22.1 -9.2s17 4.1 22.1 9.2l156.2 187.5c19.7 19.6 5.7 53.3 -22 53.3H250v593.8c0 17.2 -14 31.2 -31.2 31.2h-62.5c-17.3 0 -31.3 -14 -31.3 -31.2V312.5H31.3zm531.2 125c-17.3 0 -31.2 -14 -31.2 -31.2v-34.5c0 -15.5 9.3 -36.4 20.9 -46.7L671.9 187.5H562.5c-17.3 0 -31.2 -14 -31.2 -31.3V93.7c0 -17.2 13.9 -31.2 31.2 -31.2h250c17.3 0 31.3 14 31.3 31.2v34.5c0 15.5 -9.4 36.4 -21 46.7L703.1 312.5h109.4c17.3 0 31.3 14 31.3 31.3v62.5c0 17.2 -14 31.2 -31.3 31.2h-250zm310.7 458.2c1 2.9 1.8 7.6 1.8 10.5 0 17.3 -14 31.3 -31.2 31.3h-48.7c-12.5 0 -25.8 -9.7 -29.7 -21.6l-8.6 -25.3H618.1l-8.6 25.3c-3.9 11.9 -17.2 21.6 -29.7 21.6h-48.5c-17.3 0 -31.3 -14 -31.3 -31.3 0 -2.9 .8 -7.6 1.8 -10.5L617.6 583.2c4.1 -11.4 17.3 -20.7 29.4 -20.7h81c12.1 0 25.3 9.3 29.4 20.7zM655.5 781.3h64l-32 -93.8z"/></svg>