<svg height="1000" width="1000" xmlns="http://www.w3.org/2000/svg"><path d="M468.8 187.5c-17.3 0 -31.3 -14 -31.3 -31.2V93.8c0 -17.3 14 -31.3 31.3 -31.3h125c17.2 0 31.2 14 31.2 31.3v62.5c0 17.2 -14 31.2 -31.2 31.2h-125zm0 250c-17.3 0 -31.3 -14 -31.3 -31.2v-62.5c0 -17.3 14 -31.3 31.3 -31.3h250c17.2 0 31.2 14 31.2 31.3v62.5c0 17.2 -14 31.2 -31.2 31.2h-250zm500 375c17.2 0 31.2 14 31.2 31.3v62.5c0 17.2 -14 31.2 -31.2 31.2h-500c-17.3 0 -31.3 -14 -31.3 -31.2v-62.5c0 -17.3 14 -31.3 31.3 -31.3h500zm-500 -125c-17.3 0 -31.3 -14 -31.3 -31.2v-62.5c0 -17.3 14 -31.3 31.3 -31.3h375c17.2 0 31.2 14 31.2 31.3v62.5c0 17.2 -14 31.2 -31.2 31.2h-375zM31.3 312.5c-27.8 0 -41.7 -33.7 -22.1 -53.3L165.4 71.7c5.1 -5.1 15 -9.2 22.1 -9.2s17 4.1 22.1 9.2l156.2 187.5c19.7 19.6 5.7 53.3 -22 53.3H250v593.8c0 17.2 -14 31.2 -31.2 31.2h-62.5c-17.3 0 -31.3 -14 -31.3 -31.2V312.5H31.3z"/></svg>