<svg height="1000" width="1000" xmlns="http://www.w3.org/2000/svg"><path d="M593.8 812.5c17.2 0 31.2 14 31.2 31.3v62.5c0 17.2 -14 31.2 -31.2 31.2h-125c-17.3 0 -31.3 -14 -31.3 -31.2v-62.5c0 -17.3 14 -31.3 31.3 -31.3h125zm-250 -125c27.7 0 41.6 33.7 22.1 53.3L209.6 928.3c-5 5.1 -14.9 9.2 -22.1 9.2 -7.1 0 -17 -4.1 -22.1 -9.2L9.2 740.8C-10.5 721.2 3.5 687.5 31.3 687.5H125V93.8c0 -17.3 14 -31.3 31.3 -31.3h62.5c17.2 0 31.2 14 31.2 31.3v593.7h93.8zm500 -375c17.2 0 31.2 14 31.2 31.3v62.5c0 17.2 -14 31.2 -31.2 31.2h-375c-17.3 0 -31.3 -14 -31.3 -31.2v-62.5c0 -17.3 14 -31.3 31.3 -31.3h375zm-125 250c17.2 0 31.2 14 31.2 31.3v62.5c0 17.2 -14 31.2 -31.2 31.2h-250c-17.3 0 -31.3 -14 -31.3 -31.2v-62.5c0 -17.3 14 -31.3 31.3 -31.3h250zm250 -500c17.2 0 31.2 14 31.2 31.3v62.5c0 17.2 -14 31.2 -31.2 31.2h-500c-17.3 0 -31.3 -14 -31.3 -31.2V93.8c0 -17.3 14 -31.3 31.3 -31.3h500z"/></svg>