<svg height="1000" width="1250" xmlns="http://www.w3.org/2000/svg"><path d="M217.6 500.6l11.3 126.9 -11.3 133.4c-.6 4.9 -4.3 8.6 -8.6 8.6s-8.2 -3.7 -8.2 -8.6l-11 -133.4 11 -126.9c0 -4.3 3.7 -8.2 8.2 -8.2 4.3 0 8 3.9 8.6 8.2zm41.8 -89.1c4.9 0 9.2 4.3 9.2 9.8l11.3 206.2 -11.3 133.4c0 5.5 -4.3 9.8 -9.2 9.8 -5.5 0 -9.2 -4.3 -9.8 -9.8l-9.8 -133.4 9.8 -206.2c.6 -5.5 4.3 -9.8 9.8 -9.8zm49.8 -47c5.4 0 10.3 4.3 10.3 10.3l10.4 253.9 -10.4 132.4c0 6.1 -4.9 10.4 -10.3 10.4 -6.1 0 -10.4 -4.3 -11 -10.4l-8.6 -132.4 8.6 -253.9c.6 -6 4.9 -10.3 11 -10.3zM14.1 553.1c2.7 0 4.3 2.2 4.8 4.9l11 69.5 -11 68.4c-.5 2.7 -2.1 4.9 -4.8 4.9 -2.8 0 -4.3 -2.2 -4.9 -4.9L0 627.5 9.2 558c.6 -2.7 2.1 -4.9 4.9 -4.9zm46.1 -42.7c2.7 0 4.8 2.1 5.4 4.8l14.1 112.3L65.6 737.7c-.6 2.7 -2.7 4.9 -5.4 4.9 -2.8 0 -4.9 -2.2 -4.9 -5.5L42.8 627.5 55.3 515.2c0 -2.7 2.1 -4.8 4.9 -4.8zm49.4 -22.3c3.3 0 6 2.7 6 6.4l13.5 133 -13.5 128.6c0 3.3 -2.7 6 -6 6 -3.2 0 -5.9 -2.7 -6.5 -6L91.8 627.5l11.3 -133c.4 -3.7 3.2 -6.4 6.5 -6.4zm49.4 -4.3c3.7 0 7 2.7 7.6 7l12.5 136.7L166.6 760c-.6 4.3 -3.9 7 -7.6 7 -3.7 0 -7 -2.7 -7 -7L140.6 627.5 152 490.8c0 -4.3 3.3 -7 7 -7zM630.5 267.2c4.9 2.7 8 8.2 8.8 14.1l7.6 346.6 -7.6 125.4c0 9.2 -7.7 16.8 -16.8 16.8s-16.8 -7.6 -17.4 -16.8l-3.3 -61.9 -3.4 -63.5 6.5 -345.1v-1.5c.4 -4.9 2.7 -9.8 6.4 -13.1 2.8 -2.2 6.7 -3.7 11 -3.7 2.7 0 6 1.1 8.2 2.7zm-52.2 29.9c4.3 2.7 7.1 7.6 7.6 13.1l6.5 317.9 -6.1 114.5 -.6 13.1c0 4.5 -1.5 8.2 -4.8 10.9 -2.8 2.7 -6.7 4.9 -11 4.9 -4.9 0 -9.2 -2.4 -12.5 -6.1 -2.1 -2.7 -3.3 -5.8 -3.3 -9.1v-.6C548 628.1 548 627.5 548 627.5l5.5 -314 .6 -3.3c0 -5.5 2.7 -10.4 7 -13.1 2.6 -1.6 5.5 -2.8 8.6 -2.8 3.2 0 5.9 1.2 8.6 2.8zM360.7 341c6.7 0 11.6 5.5 12 11.9l9.7 274.6 -9.7 131.3c-.6 6.4 -5.5 11.3 -12 11.3 -5.8 0 -10.7 -4.9 -11.3 -11.3l-8.6 -131.3 8.6 -274.6c0 -6.4 5.3 -11.9 11.3 -11.9zm735.8 122.7c84.6 0 153.5 68.9 153.3 154.1 0 84.5 -68.9 152.9 -153.5 152.9H669.9c-9.2 -1.2 -16.8 -8.2 -16.8 -18V265c0 -9.3 3.3 -13.6 15.3 -17.9 29.8 -11.9 63.4 -18.4 98.2 -18.4 141.6 0 257.6 108.6 270.1 246.9 18.6 -7.6 38.7 -11.9 59.8 -11.9zM517 345.9c8.2 0 14.1 6.4 14.6 15.2l7.7 267 -7.7 128.2c0 8.2 -6.4 14.6 -14.6 14.6s-14.7 -6.4 -15.2 -14.6l-6.5 -128.2 6.5 -267c.5 -8.8 7 -15.2 15.2 -15.2zM412.3 330.7c7 0 12.5 6 13.1 13.1l8.6 283.7 -8.6 130.7c-.6 7 -6.1 12.5 -13.1 12.5 -6.4 0 -11.9 -5.5 -12.5 -12.5l-7.6 -130.7 7.6 -283.7c0 -7.1 6.1 -13.1 12.5 -13.1zm52.2 6.6c7.6 0 13.4 5.9 13.4 13.5l8.2 276.7 -8.2 129.7c0 7.4 -6 13.5 -13.4 13.5S451.6 764.8 451 757.2l-7.6 -129.7L451 350.8c0 -7.4 5.8 -13.5 13.5 -13.5z"/></svg>