<svg height="1000" width="1125" xmlns="http://www.w3.org/2000/svg"><path d="M1109.9 375c8.6 0 15.2 6.6 15.1 15.3 -.5 54.5 -13.9 246.3 -173.4 389.2C787.5 939.4 625 937.5 562.5 937.5s-225 1.8 -389.1 -158C13.9 636.6 .5 444.8 0 390.3 -.1 381.6 6.5 375 15.1 375c56.8 .3 263.7 12 417.7 162.1C497.5 595 537 660.7 562.5 722.4 588 660.7 627.5 595 692.2 537.1 846.2 387 1053.1 375.3 1109.9 375zM562.5 591c-20.9 -30.7 -60.3 -75.7 -88 -100.5C437.9 454.9 398.6 426.7 358.8 403.8 391 266.2 459.9 144.2 547.8 67.7c8 -7 21.5 -7 29.5 0 88 76.5 156.9 198.7 189 336.4 -40.4 23.2 -80.4 51.9 -117.7 88.2 -32.2 28.8 -61.1 61.9 -86.1 98.7z"/></svg>