<svg height="1000" width="1250" xmlns="http://www.w3.org/2000/svg"><path d="M1157.4 406.7c58 27.2 92.6 62.1 92.6 93.3s-34.6 66.1 -92.6 93.3c-64.2 30.1 -150 47.3 -235.5 47.3h-558c-9.7 12.8 -20.7 23.4 -32.6 31.3h403.1C447.6 731 428.5 937.5 187.5 937.5v-250h-31.2v250c-51.8 0 -93.8 -56 -93.8 -125v-125C17.2 687.5 0 667.9 0 640.6v-78.1c0 -27.3 17.2 -46.9 62.5 -46.9v-31.2C17.2 484.4 0 464.8 0 437.5v-78.1c0 -27.3 17.2 -46.9 62.5 -46.9v-125c0 -69 42 -125 93.8 -125v250h31.2v-250c241 0 260.1 206.5 546.9 265.6H331.3c11.9 7.9 22.9 18.5 32.6 31.3h558c85.5 0 171.3 17.2 235.5 47.3zM953.1 578.1c62.4 0 62.3 -156.2 0 -156.2 -8.6 0 -15.6 7 -15.6 15.6v125c0 8.6 7 15.6 15.6 15.6z"/></svg>