<svg height="1000" width="875" xmlns="http://www.w3.org/2000/svg"><path d="M125 765.2C-30.1 592.9 -15.6 327 157.5 171.2S596.6 28.6 751.7 200.9C906.8 373.3 892.3 639.1 719.2 795c-36.6 32.9 125 84.1 82 102C640.9 963.8 305.3 965.4 125 765.2zM541.6 351.9l75.2 -79.8C598 254.7 554.3 219.7 468 218.2 365.8 216.4 280.8 273.5 279 374.5c-.3 22.1 .6 71.7 57.5 107 67.3 41.9 169 42.1 168 102.1 -.7 41.6 -51.6 50.4 -75.4 50 -5.9 -.1 -59 -.9 -93 -48.1L258 668.8c55 52.7 115.2 63.7 163.1 64.5 19.9 .4 188.3 .6 191 -158.2 .6 -30.9 -4 -77.6 -56.3 -110.5 -67.1 -42.3 -166 -38 -164.9 -97.2 .8 -45.4 60.5 -49.5 73.3 -49.3 .8 0 52 .5 77.4 33.9z"/></svg>