<svg height="1000" width="1000" xmlns="http://www.w3.org/2000/svg"><path d="M417.7 578.1H195.3C87.5 578.1 0 490.6 0 382.8S87.5 187.5 195.3 187.5h259.5c43.1 0 78.1 35 78.1 78.1s-35 78.2 -78.1 78.2H191.4c-51.7 0 -51.7 78.1 0 78.1h222.3c107.8 0 195.3 87.5 195.3 195.3S521.5 812.5 413.7 812.5H78.1C35 812.5 0 777.5 0 734.4s35 -78.1 78.1 -78.1h339.6c51.7 0 51.7 -78.2 0 -78.2zM582 812.5c46.1 -31.3 90.8 -101.3 99.9 -156.2h126c21.2 -.2 38.4 -17.6 38.4 -38.8V382.5c0 -21.2 -17.2 -38.6 -38.4 -38.7h-229c16.2 -18.6 29.4 -53.6 29.4 -78.2S595.1 206 578.9 187.5h267.5c84.8 0 153.6 70 153.6 156.3v312.5c0 86.2 -68.8 156.2 -153.6 156.2H582z"/></svg>