<svg height="1000" width="1125" xmlns="http://www.w3.org/2000/svg"><path d="M531.3 500C514 500 500 486 500 468.8V31.3C500 14 514 0 531.3 0h146.4c82.7 0 158 59.7 165.4 142 .4 3.9 .7 10.3 .7 14.3 0 21.5 -8.3 54.4 -18.4 73.4 27.4 25.5 49.6 76.6 49.6 114 0 2.5 -.1 6.6 -.3 9.2C869.8 437.1 794.1 500 709.7 500H531.2zm78.1 -390.6v93.7h78.1c25.9 0 46.9 -21 46.9 -46.8s-21 -46.9 -46.9 -46.9h-78.1zm0 187.5v93.7h109.4c25.8 0 46.8 -21 46.8 -46.8s-21 -46.9 -46.8 -46.9H609.4zM303 43.5l133.4 416.9c.6 2.3 1.1 6 1.1 8.3 0 17.3 -14 31.3 -31.3 31.3h-48.6c-13.2 0 -26.7 -10.3 -30.2 -22.9l-23.3 -70.9H133.4l-23.3 70.9c-3.5 12.6 -17 22.9 -30.2 22.9H31.3C14 500 0 486 0 468.7c0 -2.3 .5 -6 1.2 -8.3L134.5 43.5C142.2 19.5 168.9 0 194.1 0h49.3c25.2 0 51.9 19.5 59.6 43.5zM174.6 281.3h88.3L218.8 147.1zM1116 540c5 5.1 9.1 14.9 9.1 22.1 0 7.1 -4.1 17 -9.1 22L709.7 990.8c-5 5.1 -14.9 9.2 -22.1 9.2 -7.1 0 -17 -4.1 -22 -9.2L446.8 771.6c-5 -5 -9.1 -14.9 -9.1 -22 0 -7.2 4.1 -17.1 9.1 -22.1L535.3 639c5 -5.1 14.9 -9.2 22.1 -9.2s17 4.1 22 9.2l108.2 108.4L983.5 451.5c5.1 -5.1 14.9 -9.2 22.1 -9.2s17 4.1 22.1 9.2z"/></svg>