<svg height="1000" width="1125" xmlns="http://www.w3.org/2000/svg"><path d="M295.3 326.9L242.2 220.8c-3.6 -7.3 -6.6 -19.8 -6.6 -27.9 0 -5.6 1.5 -14.5 3.2 -19.8L289.4 21.4C294.9 5 312.6 -3.9 328.9 1.6l29.7 9.9C375 17 383.8 34.6 378.3 51l-46.4 139.4 39.6 79.3c-2.8 8.2 -4.9 16 -6.3 23L355 343.8h-9.1zm824.4 355.5c9.6 14.3 5.8 33.7 -8.6 43.3l-26 17.3c-14.4 9.6 -33.8 5.7 -43.4 -8.6L948 593.8h-91.9l118.8 190c6.2 10 9.5 21.5 9.5 33.2v151.8c0 17.2 -14 31.2 -31.3 31.2h-31.2c-17.3 0 -31.3 -14 -31.3 -31.2V826L745.9 594.5c2 27.4 4.1 54.9 4.1 82.4C750 780.5 670.4 875 562.5 875S375 780.5 375 676.9c0 -27.5 2.1 -55 4.1 -82.4L234.4 826v142.8c0 17.2 -14 31.2 -31.3 31.2h-31.2c-17.3 0 -31.3 -14 -31.3 -31.2V817c0 -9.9 4.3 -24.7 9.5 -33.1L268.9 593.8H177L83.3 734.4c-9.6 14.4 -29 18.2 -43.4 8.7l-26 -17.4C-.4 716.2 -4.3 696.7 5.3 682.4l103 -154.6c10.2 -15.3 33.5 -27.8 52 -27.8h152.2L177.8 452.4c-11.3 -3.7 -25.7 -14.7 -32.3 -24.6L40.8 270.8C31.3 256.4 35.1 237 49.5 227.4l26 -17.3c14.4 -9.6 33.8 -5.7 43.3 8.6l98.8 148.2 118.1 39.3h70.6L426.5 305c4.3 -21.4 33.9 -117.5 136 -117.5s131.7 96.1 136 117.5l20.3 101.2h70.5l118.1 -39.3 98.8 -148.2c9.5 -14.3 29 -18.2 43.3 -8.6l26 17.3c14.4 9.6 18.3 29 8.7 43.4l-104.7 157c-6.6 9.9 -21 20.9 -32.3 24.6L812.5 500h152.2c18.5 0 41.8 12.5 52 27.9zm-326.6 -492L746.7 51c-5.5 -16.4 3.4 -34 19.7 -39.5l29.7 -9.9c16.3 -5.5 34 3.4 39.5 19.8l50.6 151.7c1.7 5.3 3.2 14.2 3.2 19.8 0 8.1 -3 20.6 -6.6 27.9l-53.1 106.1 -50.6 16.9H770l-10.2 -51.1c-1.4 -7 -3.5 -14.8 -6.3 -23z"/></svg>