<svg height="1000" width="1000" xmlns="http://www.w3.org/2000/svg"><path d="M593.8 93.8c0 51.7 -42 93.7 -93.8 93.7s-93.7 -42 -93.7 -93.7S448.2 0 500 0s93.8 42 93.8 93.8zM500 812.5c51.8 0 93.8 42 93.8 93.8s-42 93.7 -93.8 93.7 -93.7 -42 -93.7 -93.7 41.9 -93.8 93.7 -93.8zM906.3 406.3c51.7 0 93.7 41.9 93.7 93.7s-42 93.8 -93.7 93.8 -93.8 -42 -93.8 -93.8 42 -93.7 93.8 -93.7zM187.5 500c0 51.8 -42 93.8 -93.7 93.8S0 551.8 0 500s42 -93.7 93.8 -93.7 93.7 41.9 93.7 93.7zm25.2 193.5c51.8 0 93.8 42 93.8 93.8 0 51.7 -42 93.7 -93.8 93.7S119 839 119 787.3s42 -93.8 93.7 -93.8zm574.6 0c51.7 0 93.7 42 93.7 93.8C881 839 839 881 787.3 881s-93.8 -42 -93.8 -93.7 42 -93.8 93.8 -93.8zM212.7 119c51.8 0 93.8 42 93.8 93.7s-42 93.8 -93.8 93.8S119 264.5 119 212.7 161 119 212.7 119z"/></svg>