<svg height="1000" width="1000" xmlns="http://www.w3.org/2000/svg"><path d="M922.4 382.6c94.8 32.5 105.2 144.2 17.5 189l-121.1 62c-34.8 17.9 -57.2 49.3 -59.8 84l-9.2 120.8c-6.6 87.5 -127.2 130.4 -204 72.7L439.7 831.4C409.2 808.5 367.5 799.9 328.3 808.5l-136.7 29.8C92.7 859.9 7.9 774.7 48.1 694.1l55.5 -111.2c16 -32 12.6 -68.7 -9 -98.2L19.3 382.3C-35.2 308.2 32.9 212.6 134.6 220.6L275 231.5c40.3 3.2 79.9 -10.9 105.8 -37.7l90.1 -93.1c65.3 -67.4 192.2 -41.3 214.8 44.2L717 263c9 33.9 36.8 61.9 74.5 74.8z"/></svg>