<svg height="1000" width="968.8" xmlns="http://www.w3.org/2000/svg"><path d="M484.4 15.6c267.4 0 484.4 217 484.4 484.4s-217 484.4 -484.4 484.4S0 767.4 0 500 217 15.6 484.4 15.6zm196.7 712.7c15.8 0 29.6 -12.3 29.6 -30.1s-7 -24.6 -18.9 -32.2C552.3 582.6 388.9 579.5 228.9 614.8c-14.6 3.2 -26.6 12.7 -26.6 32.9 0 15.8 12 30.8 30.9 30.8 5.7 0 15.6 -3.1 23.2 -5.1 140.1 -28.7 281.9 -25.5 403.8 47.9 7.6 4.5 12.7 7 20.9 7zm52.5 -128.1c21.3 0 37.7 -17 37.9 -38.1 0 -17 -6.3 -29.1 -22.1 -38.5C652.9 466.2 530.5 434.8 403.7 434.8c-81.2 0 -136.7 11.3 -191 26.5 -20.1 5.7 -30.3 19.6 -30.3 40.5s17 37.8 37.9 37.8c8.8 0 13.9 -2.5 23.3 -5 161.9 -44 343.9 -14.9 466 57.4 7 3.7 13.8 8.2 24 8.2zm60.5 -148.8c23.9 0 45.4 -19 45.4 -45.5 0 -23.3 -10 -35.4 -25.2 -44.2C705.1 298 555.7 268.4 413.1 268.4c-83.8 0 -160.8 9.5 -229.5 29.6 -17.6 5.1 -34 20.2 -34 46.7 0 26 19.7 46.1 45.5 46.1 9.4 0 18.2 -3.1 25.2 -5.1 161 -44.9 409.6 -25 548.6 58.1 8.8 5 15.1 7.6 25.2 7.6z"/></svg>