<svg height="1000" width="1000" xmlns="http://www.w3.org/2000/svg"><path d="M437.5 62.5V250h-250V62.5C187.5 28 215.5 0 250 0h125c34.5 0 62.5 28 62.5 62.5zm500 187.5c34.5 0 62.5 28 62.5 62.5S972 375 937.5 375 875 347 875 312.5 903 250 937.5 250zm-500 62.5C541.1 312.5 625 396.4 625 500v437.5c0 34.5 -28 62.5 -62.5 62.5h-500C28 1000 0 972 0 937.5V500C0 396.4 83.9 312.5 187.5 312.5h250zm-125 500c86.3 0 156.3 -70 156.3 -156.2S398.8 500 312.5 500 156.3 570 156.3 656.3s69.9 156.2 156.2 156.2zm625 -625C903 187.5 875 159.5 875 125s28 -62.5 62.5 -62.5 62.5 28 62.5 62.5 -28 62.5 -62.5 62.5zM750 250c34.5 0 62.5 28 62.5 62.5S784.5 375 750 375s-62.5 -28 -62.5 -62.5S715.5 250 750 250zM562.5 62.5c34.5 0 62.5 28 62.5 62.5s-28 62.5 -62.5 62.5S500 159.5 500 125s28 -62.5 62.5 -62.5zm187.5 0c34.5 0 62.5 28 62.5 62.5s-28 62.5 -62.5 62.5 -62.5 -28 -62.5 -62.5 28 -62.5 62.5 -62.5zm187.5 375c34.5 0 62.5 28 62.5 62.5s-28 62.5 -62.5 62.5S875 534.5 875 500s28 -62.5 62.5 -62.5z"/></svg>