<svg height="1000" width="1000" xmlns="http://www.w3.org/2000/svg"><path d="M363.5 670.6l307.1 -307c75.3 -75.4 197.5 -75.4 272.9 0 75.3 75.3 75.3 197.5 0 272.8L710.6 869.3l-.1 .1c-37.7 37.7 -98.7 37.6 -136.4 -.1l301.1 -301c37.7 -37.7 37.7 -98.8 0 -136.5s-98.8 -37.6 -136.4 0l-307 307c-18.9 18.9 -49.4 18.9 -68.3 0 -18.8 -18.8 -18.8 -49.4 0 -68.2zM841.1 465.9c18.8 18.8 18.8 49.4 0 68.2l-307 307.1c-75.4 75.3 -197.6 75.3 -272.9 0l-.1 -.1c-18.8 -18.8 -18.8 -49.4 .1 -68.2 18.8 -18.9 49.4 -18.8 68.2 0l.1 .1c37.7 37.6 98.7 37.6 136.4 -.1l307 -307c18.8 -18.9 49.4 -18.9 68.2 0zM329.4 636.5C254 711.8 131.9 711.8 56.5 636.4c-75.3 -75.3 -75.3 -197.5 0 -272.8l232.9 -233c37.7 -37.7 98.8 -37.6 136.4 0L124.7 431.8c-37.7 37.7 -37.6 98.8 0 136.4 37.7 37.7 98.8 37.7 136.5 0l307 -307c18.9 -18.8 49.4 -18.8 68.2 0 18.8 18.9 18.8 49.4 0 68.3zM158.8 534.1c-18.8 -18.8 -18.8 -49.4 0 -68.2l307.1 -307c75.3 -75.4 197.5 -75.4 272.9 0 18.8 18.8 18.8 49.4 0 68.2 -18.9 18.9 -49.4 18.9 -68.3 0 -37.7 -37.7 -98.8 -37.7 -136.4 0L227 534.1c-18.8 18.9 -49.3 18.9 -68.2 0z"/></svg>