<svg height="1000" width="1125" xmlns="http://www.w3.org/2000/svg"><path d="M1115.8 490.8c12.2 12.2 12.2 32 0 44.2l-89.9 90 89.9 90c12.2 12.2 12.2 32 0 44.2l-44.1 44.1c-12.2 12.2 -32 12.2 -44.2 0l-90 -89.9 -90 89.9c-12.2 12.2 -32 12.2 -44.2 0l-44.1 -44.1C747 747 747 727.2 759.2 715l89.9 -90 -89.9 -90c-12.2 -12.2 -12.2 -32 0 -44.2l44.1 -44.1c12.2 -12.2 32 -12.2 44.2 0l90 89.9 90 -89.9c12.2 -12.2 32 -12.2 44.2 0zM1078.1 0c25.9 0 46.9 21 46.9 46.9v93.7c0 25.9 -21 46.9 -46.9 46.9H697.3L506.3 919c-19.2 63.4 -72.3 81 -106 81 -36.4 0 -70.2 -16.6 -94.6 -55.2L132.1 625H46.9C21 625 0 604 0 578.1v-93.7c0 -25.9 21 -46.9 46.9 -46.9H206c20.4 0 44.9 14.5 54.7 32.4l114.1 207.2L540.4 46.6C547.6 19.1 572.5 0 600.9 0h477.2z"/></svg>