<svg height="1000" width="1000" xmlns="http://www.w3.org/2000/svg"><path d="M62.5 1000V875h875v125h-875zm750 -500c103.6 0 187.5 83.9 187.5 187.5V750c0 34.5 -28 62.5 -62.5 62.5h-875C28 812.5 0 784.5 0 750v-62.5C0 583.9 83.9 500 187.5 500h130c31.8 0 57.5 -25.7 57.5 -57.5v-.1c0 -62.1 -19.5 -121.2 -45.5 -177.6 -10.9 -23.5 -17 -49.6 -17 -77.3C312.5 72.9 415.3 -17.7 533.7 2.9c75.8 13.2 137.7 75.6 150.9 151.3 7.5 43 .1 83.6 -17.7 118C642.3 319.7 625 370.6 625 424v18.5c0 31.8 25.7 57.5 57.5 57.5h130z"/></svg>