<svg height="1000" width="1000" xmlns="http://www.w3.org/2000/svg"><path d="M665 910.9c17.1 0 29.5 13.6 29.5 29.4 0 12.9 -8.4 23.9 -20 27.8C617.7 989.3 559 1000 500 1000 224.3 1000 0 775.7 0 500S224.3 0 500 0c59.4 0 118.3 10.8 175.3 32.2 13.5 5.1 21.3 19.2 18.5 33.4C691 79.3 678.9 89.1 665 89.1c-2.9 0 -13.4 -.9 -17.9 -.9C420 88.2 235.3 272.9 235.3 500S420 911.8 647.1 911.8c4.4 0 15 -.9 17.9 -.9zM983.3 417.7c16 2.3 22.3 21.9 10.8 33.2L886.2 556.1l25.4 148.6c2.2 12.5 -7.8 22.7 -19.1 22.7 -3 0 -6.1 -.7 -9.1 -2.2L750 655l-133.5 70.2c-2.9 1.5 -6 2.2 -9 2.2 -11.3 0 -21.3 -10.2 -19.2 -22.7l25.5 -148.6L505.9 450.9c-11.6 -11.3 -5.2 -30.9 10.7 -33.2L665.8 396l66.7 -135.2C736.1 253.6 743 250 750 250s13.8 3.6 17.4 10.8L834.1 396z"/></svg>