<svg height="1000" width="937.5" xmlns="http://www.w3.org/2000/svg"><path d="M921.9 653.2c14.9 8.6 20 27.7 11.4 42.7l-62.5 108.2c-8.7 15 -27.8 20.1 -42.8 11.5L562.6 662.4v306.3c0 17.3 -14 31.3 -31.3 31.3H406.2c-17.3 0 -31.3 -14 -31.3 -31.3V662.4L109.5 815.6c-15 8.6 -34.1 3.5 -42.8 -11.5L4.2 695.9c-8.6 -15 -3.5 -34.1 11.4 -42.7L281.1 500 15.6 346.8C.7 338.2 -4.4 319.1 4.2 304.1L66.7 195.9c8.7 -15 27.8 -20.1 42.8 -11.5l265.4 153.2V31.2C374.9 14 388.9 0 406.2 0h125.1c17.3 0 31.3 14 31.3 31.2v306.4L828 184.4c15 -8.6 34.1 -3.5 42.8 11.5l62.5 108.2c8.6 15 3.5 34.1 -11.4 42.7L656.4 500z"/></svg>