<svg height="1000" width="1046.9" xmlns="http://www.w3.org/2000/svg"><path d="M993.3 335c51.2 7.4 71.8 70.5 34.6 106.6L821 642.8l48.9 284.1c7 40.6 -25.5 73.1 -61.8 73.1 -9.6 0 -19.5 -2.3 -29 -7.3L523.4 858.5 267.6 992.7c-9.5 5 -19.4 7.3 -29 7.3 -36.3 0 -68.7 -32.6 -61.8 -73.1l49 -284.2L19 441.5C-18.2 405.4 2.3 342.3 53.6 334.9l285.9 -41.6L467.3 34.8C478.8 11.5 501.1 0 523.3 0c22.4 0 44.8 11.7 56.3 34.8l127.8 258.6zM755.5 575.6l161.4 -157L693.8 386.1 645 379l-21.9 -44.2L523.5 133.1l-.1 619.5 43.7 22.9 199.5 104.7L728.5 658.6 720.1 610z"/></svg>