<svg height="1000" width="906.3" xmlns="http://www.w3.org/2000/svg"><path d="M792.3 500l104 174.6c28.1 47.3 -6.7 106.7 -62.5 106.7H624.9L515.6 964.8c-13.9 23.5 -38.2 35.2 -62.5 35.2s-48.5 -11.7 -62.5 -35.2L281.3 781.3H72.5C16.6 781.3 -18.2 721.9 10 674.6L113.9 500 10 325.4C-18.2 278.1 16.6 218.7 72.5 218.7h208.8L390.6 35.2C404.6 11.7 428.8 0 453.1 0s48.6 11.7 62.5 35.2l109.3 183.5h208.9c55.8 0 90.6 59.4 62.5 106.7zM767.4 328.1H690l38.7 65zM665.1 500L562.7 328.1H343.5L241.2 500l102.3 171.9h219.2zm-212 -356l-44.5 74.8h89zM138.9 328.1l38.6 65 38.7 -65h-77.3zm0 343.8h77.3l-38.7 -65zM453.1 856l44.5 -74.8h-89zM690 671.9h77.4l-38.7 -65z"/></svg>