<svg height="1000" width="875" xmlns="http://www.w3.org/2000/svg"><path d="M361.7 696.3c15.1 -36.1 -1.9 -77.6 -38.3 -92.6l-57.6 -23.8c22.3 -8.4 47.5 -8.8 71.1 1 23.8 9.9 42.2 28.5 52.2 52.1 9.7 23.8 9.7 50 -.2 73.6 -20.5 49.1 -77 72.3 -126.2 51.8C240 749 222.9 731.8 213.1 711.1l55.6 23.1c36.4 15.2 78 -1.8 93 -37.9zM781.3 62.5c51.7 0 93.7 42 93.7 93.8v687.5c0 51.7 -42 93.7 -93.7 93.7H93.8C42 937.5 0 895.5 0 843.8V623.4l174 72.1c11.7 58.6 63.9 102.9 126 102.9 71.5 0 131.4 -59.1 128.3 -134.3l154.3 -110c95.1 2.3 175 -74.8 175 -170.9 0 -94.1 -76.7 -170.9 -171.1 -170.9S415.4 289.1 415.4 383.2v2.2L307.2 542c-28.3 -1.6 -56 6 -79.5 22.1L0 470.1V156.3C0 104.5 42 62.5 93.7 62.5h687.5zM586.5 497.1c-62.9 0 -114 -51 -114 -113.9s51.1 -113.9 114 -113.9 114.1 51.2 114.1 113.9S649.4 497.1 586.5 497.1zm.2 -28.5c47.3 0 85.8 -38.3 85.8 -85.6s-38.3 -85.5 -85.8 -85.5c-47.2 0 -85.7 38.2 -85.7 85.5s38.5 85.6 85.7 85.6z"/></svg>