<svg height="1000" width="968.8" xmlns="http://www.w3.org/2000/svg"><path d="M968.8 500c0 267.6 -217.2 484.4 -485.2 484.4C261.3 984.4 74.2 835.4 16.8 632l185.9 76.8c12.5 62.7 68.2 110.1 134.6 110.1 76.6 0 140.4 -63.2 137.1 -143.5L639.5 557.8c101.7 2.6 187.1 -79.9 187.1 -182.6 0 -100.8 -82.1 -182.6 -183 -182.6s-183.1 82 -183.1 182.6v2.3L344.9 544.9c-30.3 -1.7 -59.9 6.7 -84.9 23.7L0 461.1C19.9 211.7 228.7 15.6 483.6 15.6c268 0 485.1 216.8 485.1 484.4zM304.1 750.6c38.7 16 83 -2.2 99.2 -41 16.2 -38.7 -2.1 -83 -40.8 -99.1L301 585.2c23.8 -9 50.8 -9.4 76 1.1 25.3 10.6 45.1 30.5 55.6 55.9s10.4 53.3 -.2 78.7c-21.9 52.3 -82.2 77.3 -134.7 55.5C277.7 768 253.9 745.5 244.5 726zM643.6 496.9c-67.2 0 -121.9 -54.7 -121.9 -121.7S576.4 253.5 643.6 253.5s121.8 54.7 121.8 121.7S710.9 496.9 643.6 496.9zm.2 -30.5c50.5 0 91.6 -41 91.6 -91.4 0 -50.6 -41.1 -91.4 -91.6 -91.4 -50.6 0 -91.7 41 -91.7 91.4 .2 50.4 41.3 91.4 91.7 91.4z"/></svg>