<svg height="1000" width="1000" xmlns="http://www.w3.org/2000/svg"><path d="M873.2 218.8c69.8 -1 126.8 55.2 126.8 125 0 46.2 -25.2 86.5 -62.5 108.2v219.9c0 180.8 -154.3 328.1 -343.7 328.1C407.4 1000 255.3 857.8 250.2 681.3 107.6 652.3 0 526 0 375V71.5C0 49 15.8 29.9 37.7 25.4L160.4 1.2c25.3 -5.1 50 11.3 55 36.7l6.1 30.7c5.1 25.3 -11.3 50 -36.7 55l-60 11.9v239.3c0 104.1 85 188.5 189.3 187.5 103.3 -1 185.7 -86.5 185.7 -189.8V135.4l-60 -12c-25.3 -5 -41.8 -29.6 -36.7 -55l6.3 -30.7C414.5 12.3 439.1 -4.1 464.5 1l122.8 24.6c21.9 4.3 37.7 23.6 37.7 45.9V375c0 150.8 -107.4 277 -249.6 306.3C380.7 788.9 476.8 875 593.9 875c120.7 0 218.8 -91.2 218.8 -203.1V452C774.6 430.1 749.2 388.5 750.2 341c1.4 -66.8 56.2 -121.3 123 -122.2zM875 375c17.2 0 31.3 -14.1 31.3 -31.2S892.2 312.5 875 312.5s-31.2 14.1 -31.2 31.3 14 31.2 31.2 31.2z"/></svg>