<svg height="1000" width="1125" xmlns="http://www.w3.org/2000/svg"><path d="M1097.1 389.8c-2.6 .6 .6 0 0 0zM1085 238.7c39.4 97.8 40.2 88.3 40.2 103.3 0 14.6 -8 21.5 -14.1 32.2 -2.9 5.9 -9 14.7 -14 15.6 -.8 0 -5.9 1 -26.2 4.9 -14.1 2 -26.2 -8.8 -29.1 -18.5 -3.1 -9.2 5.5 -19.8 -23.1 -44.8 -20.1 -19.5 -41.2 -22 -62.3 -33.2 -19.1 -11.1 -23.2 2 -35.1 15.7 -35.2 44.7 -66.4 91.6 -101.6 136.3 -23 29.3 -47.2 59.4 -65.4 92.6 -7.6 13.3 -18.6 54.9 -20.1 58.4 -12.1 34.5 -10.8 50.4 -32.2 133.4 -6.1 19.5 -11.2 41.8 -17 63.3 -4.3 13.2 -14.5 96.2 -1 116 4.1 6.8 17 8.8 22.1 15.6 .1 .2 18.7 35.5 18.1 39.1 0 11.9 -18.3 10.9 -22.1 12.7 -9.3 5.6 -7.4 11.5 -12.5 14.4 -11.5 5.7 -62.6 6.3 -71.2 -1 -8 -5.8 -4.3 -23.2 -3 -29.3C619.7 936.1 610.5 950 596.3 943c-6.1 -3 -8 -10.8 -9 -19.6 -1 -2.9 -1.9 -4.8 -2.9 -6.8 -3.3 -20.9 13.3 -65.6 16 -84.8 9.6 -46.3 -1.4 -72.6 2.9 -91.6 7.2 -31.6 8 -6.8 8 -58.4 -2.7 -50.5 6.5 -72 1 -75.9 -28.9 0 -125.6 20.9 -219.1 3.9C303.1 592.4 277.1 553.1 265.4 549.4c-20.1 -8.8 -45.3 1 -53.3 13.7 -.2 .2 -68.4 137.9 -77.3 171.5 -12.1 40 -1 92.5 8 130.4 0 .2 8.8 28.6 20.1 38.1 4.1 3 10 4.9 14.1 8.8 5.4 5.3 18.3 29.7 19.1 31.3 5.1 8.8 7 15.6 -2.9 20.5 -7.1 3.9 -18.2 4.9 -28.2 4.9 -5 .9 -2.9 6.8 -6 9.7 -5.7 5.5 -40.4 11.9 -58.4 4.9 -5.1 -1.9 -11.1 -5.9 -12.1 -9.8 -3 -7.8 4.1 -17.5 -2 -24.4 -8.8 -5.6 -25.6 -3.9 -33.2 -23.4C49 915 48.2 910.7 48.2 829.1c0 -18.9 -11.5 -75.6 -16 -91.6 -2.9 -10.7 -2.9 -22.5 0 -31.3 .6 -1.7 8 -8.9 8 -25.3 -1.9 -3 -8.9 -1 -9.9 -3C10 520.5 18.7 523.6 15.2 485.9 12.3 454.7 -6.1 400.2 2.1 360.4c1 -4.7 6.7 -41.1 47.3 -76C110 232.2 143.9 209.6 360 261.9c2.1 .8 129.5 41.2 216.2 -17.6 30.2 -22 56.2 -22 69.3 -31.2 .2 -.2 120.5 -101.8 169.9 -127.6C907.6 28.1 952 52.9 962.1 50.4 971.3 48.4 988.3 0 995.3 0c10.8 0 3.1 39.5 7 50.6 1 3.9 7.1 9.8 12.2 9.8 4.4 0 3.3 -1.6 20.1 -9.8C1051 40 1063.7 16.2 1074.8 17.4c22.9 3.1 -37.1 81.2 -37.1 91.6 0 3.9 .4 1.5 9 18.5 5.1 10.8 9 26.4 12.1 39.1 16.2 58 11.1 28.5 26.2 72.1z"/></svg>