<svg height="1000" width="875" xmlns="http://www.w3.org/2000/svg"><path d="M843.8 593.8c0 224.4 -181.9 406.2 -406.3 406.2S31.3 818.2 31.3 593.8c0 -203.2 149 -371.5 343.7 -401.4V125h-54.7c-12.9 0 -23.4 -10.5 -23.4 -23.4V23.4C296.9 10.5 307.4 0 320.3 0h234.4c12.9 0 23.4 10.5 23.4 23.4v78.2c0 12.9 -10.5 23.4 -23.4 23.4H500v67.4c73.2 11.3 140 42.2 194.7 87.1l53.7 -53.7c9.2 -9.2 24.1 -9.2 33.2 0l55.3 55.3c9.2 9.1 9.2 24 0 33.2l-57.4 57.4 -1.2 1.2c41.4 63.2 65.4 139.2 65.4 220.9zM500 664.1V368.2c0 -12.9 -10.5 -23.5 -23.4 -23.5h-78.2c-12.9 0 -23.4 10.6 -23.4 23.5v295.9c0 12.9 10.5 23.4 23.4 23.4h78.2c12.9 0 23.4 -10.5 23.4 -23.4z"/></svg>