<svg height="1000" width="1250" xmlns="http://www.w3.org/2000/svg"><path d="M237.3 750h443.2l307.3 250H178.2c-32.8 0 -59.4 -27.9 -59.4 -62.5V553.1c8.3 2.6 21.9 5.7 30.4 7.1 9.2 1.2 24.2 2.3 33.4 2.3 15.4 -.3 39.9 -3.6 54.7 -7.4V750zM182.6 499.8h-.4c-6.9 0 -18.1 -.7 -25 -1.7C42.1 481.6 -12.7 338.8 46.9 234.5l260.7 212.1c-32.6 32.3 -75.9 53.2 -125 53.2zM1176 894.7c6.4 5.4 11.5 16.4 11.5 24.7 0 5.9 -2.8 14.5 -6.3 19.2l-36.4 49.3c-4.7 6.7 -15.2 12.1 -23.4 12.1 -5.7 0 -13.9 -3 -18.3 -6.6L11.5 105.3C5.1 99.9 0 88.9 0 80.6 0 74.7 2.8 66.1 6.3 61.4L42.7 12.1C47.4 5.4 57.9 0 66.1 0 71.8 0 80 3 84.4 6.6l65.8 53.5 18.3 -30.8C177.8 13.3 200.3 .2 218.8 0h749.6c18.5 .2 41 13.3 50.3 29.3l120.4 202.3c62.4 104.7 7 250 -109.5 266.4 -7 1 -18.4 1.8 -25.4 1.8 -54.7 0 -103.4 -25.4 -136.9 -64.6 -33.5 39.2 -82.1 64.6 -137 64.6 -14 -.2 -36.2 -3.8 -49.6 -8.1l269.2 219V555.1c14.8 3.9 39.3 7.2 54.7 7.4 9.3 0 24.5 -1.1 33.7 -2.3 8.6 -1.3 22.2 -4.4 30.5 -7.1v254.3z"/></svg>