<svg height="1000" width="1250" xmlns="http://www.w3.org/2000/svg"><path d="M34.9 241.4L207.7 375h-145c-50 0 -79.7 -55.7 -51.9 -97.3zM1125 807.5l112.9 87.2c6.7 5.2 12.1 16.3 12.1 24.7 0 5.9 -2.9 14.5 -6.6 19.2l-38.3 49.3c-5.2 6.7 -16.3 12.1 -24.7 12.1 -5.9 0 -14.5 -2.9 -19.2 -6.6L12.1 105.3C5.4 100.1 0 89.1 0 80.6 0 74.7 2.9 66.1 6.6 61.4L44.9 12.1C50.1 5.4 61.2 0 69.6 0c5.9 0 14.5 3 19.2 6.6L156.5 59l20.9 -31.3C187.6 12.4 210.8 0 229.2 0h791.5c18.5 0 41.8 12.4 52.2 27.7l166.5 250c27.6 41.6 -2.1 97.3 -51.9 97.3h-622l80.8 62.5H750v80.1l250 193.3V437.5h125v370zM625 750v-52.5l125 96.6v143.4c0 34.5 -28 62.5 -62.5 62.5h-500C153 1000 125 972 125 937.5v-500h125V750h375z"/></svg>