<svg height="1000" width="1000" xmlns="http://www.w3.org/2000/svg"><path d="M718.6 644.1C885 674.5 1000 738.4 1000 812.5 1000 916.1 776.1 1000 500 1000S0 916.1 0 812.5c0 -74.1 115 -138 281.4 -168.4 9.1 10.3 19.1 19.7 31.1 26.6v44.8c-129.9 18.3 -218.7 54.8 -218.7 97 0 60.4 181.8 109.4 406.2 109.4s406.3 -49 406.3 -109.4c0 -42.2 -88.9 -78.7 -218.8 -97v-44.8c12 -6.9 22 -16.3 31.1 -26.6zM500 250C431 250 375 194 375 125S431 0 500 0s125 56 125 125S569 250 500 250zM375 625c-34.5 0 -62.5 -28 -62.5 -62.5V375c0 -51.8 42 -93.7 93.8 -93.7h23c21.6 9.8 45.4 15.6 70.7 15.6s49.1 -5.8 70.7 -15.6h23.1c51.7 0 93.7 41.9 93.7 93.7v187.5c0 34.5 -28 62.5 -62.5 62.5v187.5C625 847 597 875 562.5 875h-125C403 875 375 847 375 812.5V625z"/></svg>