<svg height="1000" width="1250" xmlns="http://www.w3.org/2000/svg"><path d="M322.3 282.6l.2 75.2h65.8v73.8h-65.8v123.5c0 51.2 54.6 35.1 65.8 30.6v66.1c-11.5 6.2 -32.4 11.5 -61 11.5 -51.3 0 -90 -33.2 -90 -84.6l.4 -278.1zm174 100.8c20.3 -37.3 60.7 -29.7 72.5 -25.6v79.7C557.6 434 523 428.7 502.5 455.7V657H416V357.8h75zM676.6 242.2v70.7l-87.1 18.5v-70.7zM87.7 445.9c0 39.1 132.6 20.5 132.6 123.8 0 62.5 -49.6 93.4 -121.7 93.4 -29.8 0 -62.5 -5.9 -94.7 -19.7v-78.2C33 581.1 70.1 593 98.8 593c19.4 0 33.2 -5.3 33.2 -21.3C132 530.3 .2 545.9 .2 449.8c0 -61.3 46.9 -98 117.2 -98 28.7 0 57.4 4.5 86.1 15.8v81.6C177.1 435 143.6 427 117.2 427c-18.2 .1 -29.5 5.4 -29.5 18.9zm1162.3 65c0 8.4 -.8 26.6 -1.2 31.1h-169.7c3.9 40.6 33.6 52.5 67.4 52.5 34.4 0 61.5 -7.2 85.1 -19.1v65.2c-23.6 13.1 -54.6 22.5 -96.1 22.5C1051.2 663.1 992 614.8 992 510.4 992 422.1 1042.2 352 1124.6 352S1250 422.1 1250 510.9zm-171.7 -32.8h89.7c0 -39 -22.7 -55.4 -44 -55.4 -21.7 0 -45.7 16.4 -45.7 55.4zM857.8 352c61 0 118.4 54.8 118.2 155.6 0 110.2 -56.7 155.5 -118.8 155.5 -30.2 0 -48.8 -12.7 -61.3 -21.9l-.2 98.1L709 757.6v-400h76.4l4.4 21.5C802 368 823.8 352 857.8 352zm-20.7 239.2c32.2 0 53.7 -35 53.5 -81.6 0 -45.3 -21.8 -80.9 -53.5 -80.9 -19.9 0 -32.4 7.2 -41.4 17.2l.6 128.9c8.4 9 20.5 16.4 40.8 16.4zM589.6 657V357.8h87.2V657h-87.2z"/></svg>