<svg height="1000" width="1000" xmlns="http://www.w3.org/2000/svg"><path d="M968.8 437.5c17.2 0 31.2 14 31.2 31.3v62.5c0 17.2 -14 31.2 -31.2 31.2H31.3C14 562.5 0 548.5 0 531.3v-62.5c0 -17.3 14 -31.3 31.3 -31.3H231C208.2 405.2 192.4 368.2 188.5 327.4c-.6 -6.4 -1.1 -16.9 -1.1 -23.3C187.4 170.8 295.5 62.6 428.7 62.5h132.9c85.3 0 185.5 62 223.6 138.3l1 1.9c1.9 3.7 3.3 9.9 3.3 14 0 10.7 -7.7 23.2 -17.2 27.9l-83.9 42c-3.6 1.8 -9.9 3.3 -14 3.3 -10.6 0 -23.1 -7.8 -27.9 -17.3 -14.9 -29.7 -53.9 -53.9 -87.2 -53.9H428.8c-46.9 .1 -85 38.2 -85 85.1 0 34.7 26.8 71.1 60 81.3L574 437.5h394.8zM616.7 625h184.4c4.3 12.8 9 34.1 10.4 47.6 .6 6.4 1.1 16.9 1.1 23.3 0 133.3 -108.1 241.5 -241.3 241.6H438.4c-85.3 0 -185.5 -61.9 -223.6 -138.3l-1 -1.9c-1.9 -3.7 -3.3 -9.9 -3.3 -14 0 -10.7 7.7 -23.2 17.2 -27.9l83.9 -42c3.6 -1.8 9.9 -3.3 14 -3.3 10.6 0 23.1 7.8 27.9 17.3 14.9 29.7 53.9 53.9 87.2 53.9h130.5c46.9 -.1 85 -38.2 85 -85.1 0 -25.7 -17.7 -57.6 -39.5 -71.2z"/></svg>