<svg height="1000" width="1000" xmlns="http://www.w3.org/2000/svg"><path d="M367.4 411.6l88.4 88.4 -88.4 88.4L279 500zm221 -44.2L500 455.8l-88.4 -88.4L500 279zM411.6 632.6L500 544.2l88.4 88.4L500 721zM500 0c276.1 0 500 223.9 500 500s-223.9 500 -500 500S0 776.1 0 500 223.9 0 500 0zm364.6 577.3c2.5 -2.5 4.6 -7.4 4.6 -11 0 -3.6 -2.1 -8.5 -4.6 -11.1L809.4 500l55.2 -55.3c6.1 -6.1 6.1 -16 0 -22.1l-22.1 -22.1c-6.1 -6.1 -16 -6.1 -22.1 0l-55.3 55.3 -88.3 -88.4L743 301.1l33.2 33.1c6.1 6.1 16 6.1 22.1 0l22.1 -22.1c6.1 -6 6.1 -15.9 0 -22l-33.2 -33.2 33.2 -33.1c6.1 -6.1 6.1 -16 0 -22.1l-22.1 -22.1c-6.1 -6.1 -16 -6.1 -22.1 0L743 212.7l-33.1 -33.1c-6.1 -6.1 -16 -6.1 -22.1 0l-22.1 22.1c-6.1 6.1 -6.1 16 0 22.1l33.2 33.1 -66.3 66.3 -88.4 -88.4 55.2 -55.2c6.1 -6.1 6.1 -16 0 -22.1l-22.1 -22.1c-6 -6.1 -16 -6.1 -22 0L500 190.6l-55.3 -55.2c-6.1 -6.1 -16 -6.1 -22.1 0l-22.1 22.1c-6.1 6.1 -6.1 16 0 22.1l55.3 55.3 -88.4 88.3L301.1 257l33.1 -33.2c6.1 -6.1 6.1 -16 0 -22.1l-22.1 -22.1c-6 -6.1 -15.9 -6.1 -22 0l-33.2 33.2 -33.1 -33.2c-6.1 -6.1 -16 -6.1 -22.1 0l-22.1 22.1c-6.1 6.1 -6.1 16 0 22.1l33.1 33.2 -33.1 33.1c-6.1 6.1 -6.1 16 0 22.1l22.1 22.1c6.1 6.1 16 6.1 22.1 0l33.1 -33.2 66.3 66.3 -88.4 88.4 -55.2 -55.2c-6.1 -6.1 -16 -6.1 -22.1 0l-22.1 22.1c-6.1 6 -6.1 16 0 22l55.2 55.3 -55.2 55.3c-6.1 6 -6.1 16 0 22l22.1 22.2c6.1 6.1 16 6.1 22.1 0l55.3 -55.3 88.4 88.4L257 698.9l-33.2 -33.2c-6.1 -6.1 -16 -6.1 -22.1 0l-22.1 22.1c-6 6.1 -6 16 0 22.1l33.2 33.2 -33.2 33.1c-6 6.1 -6 16 0 22.1l22.1 22.1c6.1 6.1 16 6.1 22.1 0L257 787.2l33.1 33.2c6.1 6.1 16 6.1 22.1 0l22.1 -22.1c6.1 -6.1 6.1 -16 0 -22.1l-33.1 -33.1 66.2 -66.3 88.4 88.4 -55.2 55.2c-6.1 6.1 -6.1 16 0 22.1l22.1 22.1c6 6.1 16 6.1 22 0L500 809.4l55.3 55.2c6.1 6.1 16 6.1 22.1 0l22.1 -22.1c6.1 -6.1 6.1 -16 0 -22.1l-55.3 -55.3 88.4 -88.4 66.3 66.3 -33.1 33.2c-6.1 6.1 -6.1 16 0 22.1l22.1 22.1c6 6 15.9 6 22 0l33.2 -33.2 33.1 33.2c6.1 6 16 6 22.1 0l22.1 -22.1c6.1 -6.1 6.1 -16 0 -22.1L787.3 743l33.1 -33.1c6.1 -6.1 6.1 -16 0 -22.1l-22.1 -22.1c-6.1 -6.1 -16 -6.1 -22.1 0l-33.1 33.1 -66.3 -66.2 88.4 -88.4 55.2 55.2c6.1 6.1 16 6.1 22.1 0zM544.2 500l88.4 -88.4L721 500l-88.4 88.4z"/></svg>