<svg height="1000" width="1000" xmlns="http://www.w3.org/2000/svg"><path d="M938.1 366.6l8.2 54.7V476l-49 86.1 -77.8 153.1L710 847.1l-154.5 73.8 -34.6 47.8 -15 23.5 -18.8 7.8S520.9 875.8 525 875.8c4.1 0 39.6 1.3 39.6 1.3l130.3 -75.3 -180.6 50.9 -109.2 71.9 -44.6 54.7 -12.8 2.7 40.6 -143.7 13.5 -10.8 40.4 25.2 172.4 -88.2 111 -100.6 28.9 -133.6 -244.9 45.5 29.7 -35.6L200.6 436.1l159.9 -20.5L36.3 175.6l224.4 35.3L62.9 0l493.9 247.3L495.3 173l243 145.4L458.4 125l36.5 75L398 164.6 309.2 0l380.1 238.3 -83.8 -109 210.9 188.3 23.4 -17.4 -41 -32 8.2 -73.9L880.9 174l57 48.3 22.5 8.2 -13.7 12.1 16.6 23.4 -25.6 14.5 -20.1 39.4z"/></svg>