<svg height="1000" width="968.8" xmlns="http://www.w3.org/2000/svg"><path d="M500 15.6c267.6 0 484.4 216.8 484.4 484.4S767.6 984.4 500 984.4 15.6 767.6 15.6 500 232.4 15.6 500 15.6zm0 346.7c19.1 0 34.8 15.6 34.6 34.4v40.2l44.7 20.9 66.6 -19.7v-46.3C645.9 313.1 579.5 250 500 250c-79.1 0 -145.9 62.7 -145.9 140.8v211.7c0 19.4 -15.6 34.8 -34.8 34.8s-34.7 -15.2 -34.7 -34.8v-89.4H172.7v90.8c0 80.9 65.4 146.3 146.2 146.3 80.1 0 146.3 -64.5 146.3 -144.3V397.1c0 -19.2 15.7 -34.8 34.8 -34.8zm327.3 241.4s0 -1 .2 -90.6H715.6v93.7c0 19 -15.6 34.4 -34.7 34.4 -19.2 0 -34.8 -15.2 -34.8 -34.4v-92l-66.6 19.8 -44.7 -20.9v91.4c0 80.1 65.8 144.9 146.3 144.9 80.8 0 146.2 -65.4 146.2 -146.3z"/></svg>