<svg height="1000" width="1000" xmlns="http://www.w3.org/2000/svg"><path d="M982.2 519.5v136.2C982.2 777 884 875.2 762.7 875.2 642 875.2 543.2 777.9 543.2 657.8V520.7l67 31.3L710 522.3v137.9c0 28.7 23.4 51.7 52.1 51.7s52.4 -23 52.4 -51.7V519.5h167.7zM543.4 405.9v-60.4c0 -28.7 -23.5 -52.1 -52.2 -52.1s-52.1 23.4 -52.1 52.1v313.1C439.1 778.3 339.8 875 219.5 875 98.2 875 0 776.8 0 655.7V519.5h168v134c0 29.1 23.4 52.2 52.1 52.2s52.2 -23.1 52.2 -52.2V336.3C272.3 219.1 372.5 125 491.2 125c119.2 0 219 94.7 219 212.9v69.5l-99.8 29.7z"/></svg>