<svg height="1000" width="1000" xmlns="http://www.w3.org/2000/svg"><path d="M968.8 875c17.2 0 31.2 14 31.2 31.3v62.5c0 17.2 -14 31.2 -31.2 31.2H781.3C764 1000 750 986 750 968.8v-62.5C750 889 764 875 781.3 875h31.2V687.5h-31.2c-17.3 0 -31.3 -14 -31.3 -31.2 0 -4.1 1.5 -10.4 3.3 -14.1l31.3 -62.5c4.8 -9.5 17.3 -17.2 27.9 -17.2h93.7c17.3 0 31.3 14 31.3 31.3V875h31.2zM656.3 125c17.2 0 31.2 14 31.2 31.3V250c0 17.3 -14 31.3 -31.2 31.3h-65.4L438.9 500l152 218.8h65.4c17.2 0 31.2 13.9 31.2 31.2v93.8c0 17.2 -14 31.2 -31.2 31.2H525.4c-9 0 -20.4 -6.1 -25.5 -13.4L343.8 637l-156 224.6C182.6 869 171.1 875 162.1 875H31.2C14 875 0 861 0 843.8V750c0 -17.3 14 -31.2 31.2 -31.2h65.4L248.6 500 96.6 281.3H31.2C14 281.3 0 267.3 0 250v-93.7C0 139 14 125 31.2 125h130.9c9 0 20.4 6.1 25.5 13.4L343.7 363l156 -224.6C504.9 131 516.4 125 525.4 125h130.9z"/></svg>