<svg height="1000" width="875" xmlns="http://www.w3.org/2000/svg"><path d="M875 187.5v500C875 788.7 754.6 875 621.1 875l123 97.1c11.6 9.2 5 27.9 -9.7 27.9H140.6c-14.8 0 -21.2 -18.7 -9.7 -27.9L254 875C120.7 875 0 789 0 687.5v-500C0 83.9 125 0 250 0h375c127 0 250 83.9 250 187.5zM390.6 453.1V234.4c0 -25.9 -21 -46.9 -46.8 -46.9H140.6c-25.9 0 -46.8 21 -46.8 46.9v218.7c0 25.9 20.9 46.9 46.8 46.9h203.2c25.8 0 46.8 -21 46.8 -46.9zm390.7 0V234.4c0 -25.9 -21 -46.9 -46.9 -46.9H531.3c-25.9 0 -46.9 21 -46.9 46.9v218.7c0 25.9 21 46.9 46.9 46.9h203.1c25.9 0 46.9 -21 46.9 -46.9zm-93.8 109.4c-51.8 0 -93.7 42 -93.7 93.8s41.9 93.7 93.7 93.7 93.8 -42 93.8 -93.7 -42 -93.8 -93.8 -93.8zm-500 0c-51.8 0 -93.7 42 -93.7 93.8s41.9 93.7 93.7 93.7 93.8 -42 93.8 -93.7 -42 -93.8 -93.8 -93.8z"/></svg>