<svg height="1000" width="750" xmlns="http://www.w3.org/2000/svg"><path d="M656.3 312.5c51.7 0 93.7 42 93.7 93.8v437.5c0 51.7 -42 93.7 -93.7 93.7H625v31.3c0 17.2 -14 31.2 -31.2 31.2h-62.5C514 1000 500 986 500 968.8v-31.3H250v31.3c0 17.2 -14 31.2 -31.2 31.2h-62.5C139 1000 125 986 125 968.8v-31.3H93.8C42 937.5 0 895.5 0 843.8V406.3c0 -51.8 42 -93.8 93.8 -93.8h562.5zM625 734.4v-31.3c0 -8.6 -7 -15.6 -15.6 -15.6H140.6c-8.6 0 -15.6 7 -15.6 15.6v31.3c0 8.6 7 15.6 15.6 15.6h468.8c8.6 0 15.6 -7 15.6 -15.6zm0 -187.5v-31.3C625 507 618 500 609.4 500H140.6c-8.6 0 -15.6 7 -15.6 15.6v31.3c0 8.6 7 15.6 15.6 15.6h468.8c8.6 0 15.6 -7 15.6 -15.6zM281.3 93.8V250h-93.8V93.8C187.5 42 229.5 0 281.3 0h187.5c51.7 0 93.7 42 93.7 93.8V250h-93.7V93.8H281.3z"/></svg>