<svg height="1000" width="1000" xmlns="http://www.w3.org/2000/svg"><path d="M500 312.5c103.3 0 187.5 84.2 187.5 187.5S603.3 687.5 500 687.5 312.5 603.3 312.5 500 396.7 312.5 500 312.5zm481.3 157.2c24.9 12.5 24.9 48.1 -.4 60.8l-185 92.4 65.4 196c9 26.4 -16.2 51.6 -42.7 42.8L622.5 796.3l-92.4 185c-12.5 24.9 -48.1 24.9 -60.6 0l-92.4 -185 -196 65.4c-26.4 9 -51.6 -16.2 -42.8 -42.8l65.4 -196.2L18.8 530.3c-25 -12.5 -25 -48.1 0 -60.6l184.9 -92.6 -65.4 -196c-9 -26.4 16.2 -51.6 42.8 -42.8l196.2 65.4 92.4 -185c12.5 -25 48.1 -25 60.6 0l92.6 185.2 196 -65.4c26.4 -9 51.6 16.2 42.8 42.7l-65.4 196.1zM676.8 676.8c97.4 -97.5 97.4 -256.1 0 -353.6s-256.1 -97.4 -353.6 0 -97.4 256.1 0 353.6 256.1 97.4 353.6 0z"/></svg>