<svg height="1000" width="1250" xmlns="http://www.w3.org/2000/svg"><path d="M1250 512.7c0 125.2 -212.9 226.8 -475.6 226.8 -48.4 0 -94.9 -3.6 -138.9 -9.8 15.1 .8 30.3 1.2 45.7 1.2 262.7 0 475.6 -111.2 475.6 -248.3 0 -57.4 -37.3 -110.1 -100 -152.3C1174 371.5 1250 437.9 1250 512.7zM93.2 445.1c.2 57.4 37.7 110.4 100.7 152.4C76.4 556.4 .2 490 0 415.2 -.2 290 212.5 188.1 475.2 187.3c48.2 0 94.7 3.3 138.7 9.6 -15.1 -.6 -30.1 -1 -45.5 -1C305.7 196.5 93 308 93.2 445.1zM210.7 523l17.2 -21.2s17.2 19.7 40.5 19.7c12.7 0 24 -6.9 24 -19.7 0 -28.4 -78.5 -26 -78.5 -78 0 -27.1 23.4 -47 55.6 -47 19.6 0 49.6 9.1 49.6 32.8V425h-27.7v-7.6c0 -7.8 -10.9 -12.9 -22.1 -12.9 -14 0 -24.4 7.2 -24.4 17.8 0 28.5 78.5 22.8 78.5 77.5 0 26.6 -20.5 49 -55.4 49 -36.8 0 -57.3 -25.8 -57.3 -25.8zm236 -143.7h30.6v107.4c0 36.9 -25.9 62.3 -65.2 62.3 -39.6 0 -65.8 -25.4 -65.8 -62.3V379.3h30.8v106.4c0 21.9 13.9 34.6 34.8 34.6s34.8 -12.7 34.8 -34.8V379.3zm67.2 166.8V405.5h-15.3v-26.2H575c31.3 0 53.1 21.9 53.1 54.3s-21.8 54.9 -53.1 54.9h-30.3v57.6h-30.8zm30.8 -84h24.6c17.4 0 27.4 -11.3 27.4 -28.7 0 -17 -9.8 -28.1 -26.8 -28.1h-25.2v56.8zm111.4 84V405.5h-15.3v-26.2h76.4c31.2 0 53.1 21.9 53.1 54.3s-21.9 54.9 -53.1 54.9h-30.3v57.6h-30.8zm30.6 -84h24.6c17.6 0 27.4 -11.3 27.4 -28.7 0 -17 -9.8 -28.1 -26.8 -28.1h-25.2v56.8zm111.5 68h.2V410.5c0 -3.1 -1.7 -5 -5 -5h-10.2v-26.2h30.1c11.3 0 16 4.9 16 16v119.5c0 3.2 1.8 5.1 5.1 5.1h36.3c3.1 0 5.1 -1.7 5.1 -5.1v-10.1h27.9v25.4c0 11.3 -4.7 16 -16 16h-73.4c-11.4 0 -16.1 -4.7 -16.1 -16zm123.9 0h-.2V405.3h-15.3v-26.2h100.8c11.2 0 16 4.9 16 16v25.4h-27.7v-10.1c0 -3.2 -1.8 -5.1 -5.1 -5.1h-37.5V449h54.1v26.2h-54.1v39.6c0 3.2 1.8 5.1 5.1 5.1h38.5c3.1 0 5.1 -1.7 5.1 -5.1v-10.1h27.9v25.4c0 11.3 -4.9 16 -16 16h-75.6c-11.3 0 -16 -4.7 -16 -16zm115 -148.5h-5.3v-2.3h13.7v2.3h-5.3v11.6h-3.1v-11.6zm11.1 -2.3h4.7l4.1 10 4.1 -10h4.5v13.9h-2.9V382l-4.5 11.2h-2.5l-4.5 -11.2v11.2h-3v-13.9z"/></svg>