<svg height="1000" width="1250" xmlns="http://www.w3.org/2000/svg"><path d="M920.1 200.5c0 -1.9 2 -1.5 1.8 -1.3 8.2 1.2 180.1 26.8 252.3 69 23.7 13.4 40.4 42 67.4 135.9 1.4 5.5 -5.5 10 -7 11.1C1182 452 1123.6 486.7 951 372.9c21.7 52.1 20.9 49 21.5 49.8 10.5 5.4 109.9 56 159.3 55 39.9 -.7 82.5 -20.3 99.5 -30.4 0 0 8.7 -5.3 6.2 4.7 -1 3.7 -6.4 28.5 -13.7 34.5 -1.9 2 -71.5 55.5 -201.3 54.7 -83.4 -1.9 -150 -32 -161 34 -5.4 33.4 11.9 73.2 36.9 109h-94.9C772.5 628.7 758.4 550.8 647.7 550.8c-100.8 0 -94.6 99 -83.4 133.4h-89.7C437.9 549.8 339.5 491.6 274.6 480.5 129.5 455.5 53.9 576.6 104.7 672.7c45.1 85.1 159 86.1 194.7 39.8 37.5 -48.8 7.4 -122.9 -55.7 -128.3 -24 -2.2 -49.4 9 -49.8 33v.1c0 21.3 19.6 27 23.5 27.3 14.2 -.7 17.4 -3.7 23 -4.6 10.2 -1.8 32.8 3.5 32.8 27.1 0 16.4 -13.2 25.6 -25.9 29.1 -8.3 2.9 -22.1 5.2 -30.9 5.3 -33.6 0 -80.5 -28.9 -81 -83.2 -.4 -30.7 15 -58.6 42.1 -76.6 31.1 -20.5 85.2 -27.5 135.2 3.1 61.5 37.7 77.5 111.6 61.5 162 -23.2 72.8 -89 111.7 -175.8 104.1C136.9 805.4 79.9 773 45.9 724.1 33.5 706.5 19.1 675.3 13.7 654.4 -.2 599.6 13.7 541 24.4 515 74.6 390.7 181 324.9 218.9 300.7 414.6 180.4 553.1 185.3 654.5 188.8c119.7 4.3 247.2 45.5 265 51.4 0 -4 .6 -39.7 .6 -39.7zM1038 342.7c-2.1 65.4 76.4 100.8 123.7 56.4 47.6 -44.7 17.6 -125 -47.7 -127.3 -.7 0 -1.9 -.1 -2.7 -.1 -39.2 0 -72 31.8 -73.3 71zm75.4 -49.4c27.4 .8 49.7 23.7 49.7 51.1 0 .6 0 1.5 -.1 2 -.9 27.3 -23.9 49.5 -51.2 49.5 -28.4 0 -51.3 -23 -51.3 -51.3s22.9 -51.3 51.3 -51.3c.4 0 1.2 0 1.6 0zm8.4 56.2c30.1 0 30.1 -30.4 0 -30.4 -30 0 -30 30.4 0 30.4z"/></svg>