<svg height="1000" width="1000" xmlns="http://www.w3.org/2000/svg"><path d="M848.9 327.6c10.1 10.1 18.3 29.8 18.3 44.1s-8.2 34 -18.3 44.1L437.5 828.1V298.6L584.8 151.1l.2 -.1c10 -10 29.7 -18.2 43.8 -18.2 14.3 0 34 8.2 44.1 18.3l176 176.5zM937.5 625c34.5 0 62.5 28 62.5 62.5v250c0 34.5 -28 62.5 -62.5 62.5H351.6c4.2 -3.7 9 -6.7 13 -10.7L728.7 625h208.8zM375 62.5v750C375 916 291 1000 187.5 1000S0 916 0 812.5v-750C0 28 28 0 62.5 0h250C347 0 375 28 375 62.5zM187.5 859.4c25.9 0 46.9 -21 46.9 -46.9s-21 -46.9 -46.9 -46.9 -46.9 21 -46.9 46.9 21 46.9 46.9 46.9zM250 500V375H125v125h125zm0 -250V125H125v125h125z"/></svg>