<svg height="1000" width="875" xmlns="http://www.w3.org/2000/svg"><path d="M875 304.9c0 10.4 0 20.9 0 31.3v358.9c0 8.8 -.1 17.6 -.4 26.4 -.2 16 -2.4 41.7 -5 57.5 -2.7 15.8 -10.8 40.3 -18 54.7 -15 29.4 -51 65.4 -80.4 80.4 -14.3 7.2 -38.8 15.2 -54.7 18 -15.7 2.5 -41.5 4.8 -57.5 5 -8.8 .2 -17.6 .4 -26.4 .4H242.4c-8.8 -.1 -17.6 -.2 -26.4 -.4 -16 -.2 -41.7 -2.4 -57.5 -5 -15.8 -2.8 -40.3 -10.8 -54.7 -18 -29.3 -15 -65.3 -51 -80.3 -80.4C16.3 819.3 8.2 794.8 5.5 779 2.9 763.3 .7 737.5 .5 721.5 .2 712.7 .1 704 .1 695.2V304.9c0 -8.9 .1 -17.6 .4 -26.4 .1 -16 2.4 -41.7 4.9 -57.5 2.7 -15.8 10.8 -40.3 18 -54.7C30.7 152 45.9 131.1 57.3 119.8c3.4 -3.4 7 -6.7 10.6 -9.8 9.2 -7.8 25.3 -18.6 35.9 -24.1 4.4 -2.1 8.8 -4.2 13.3 -6.1 11.1 -4.5 29.7 -9.8 41.5 -11.9 11.8 -2 31.1 -4 43.1 -4.5 4.8 -.2 9.6 -.4 14.4 -.5 8.8 -.3 17.6 -.4 26.4 -.4h390.1c8.8 0 17.6 .1 26.4 .4 16 .2 41.7 2.4 57.5 5 15.8 2.7 40.3 10.8 54.7 18 29.4 15 65.4 51 80.4 80.4 7.2 14.4 15.3 38.9 18 54.7 2.6 15.8 4.8 41.5 5 57.5 .2 8.8 .4 17.6 .4 26.4zM738.5 775.6c9.6 18.7 30 -80.5 -45.2 -173 .9 -3.3 1.9 -6.6 2.8 -10C732.4 447.9 643.8 276.9 493.8 186.9c65.7 89.1 94.8 197 69 291.4 -1.9 6.8 -5.6 17.7 -8.2 24.3 -3.4 -2.2 -7.5 -4.7 -13.1 -7.8 0 0 -149.2 -92.1 -310.9 -255.1 -4.3 -4.3 86.2 129.4 188.9 237.8C371.1 450.4 236.3 352.3 151 274.2c9 14.7 25.4 37.4 36.7 50.5 71.2 90.3 164.2 201.9 275.5 287.6 -78.1 47.8 -188.7 51.5 -298.8 0C142 601.8 107.8 581.3 87.9 566.6c41.7 66.3 133.8 145.4 205.6 176.5 104.2 44.8 207.7 41.8 284.9 .8l.8 -.5c3.5 -2 6.9 -3.9 10.3 -5.9 37.2 -19.1 110 -38 149 38.1z"/></svg>