<svg height="1000" width="1250" xmlns="http://www.w3.org/2000/svg"><path d="M1218.8 812.5c17.2 0 31.2 14 31.2 31.3v62.5c0 17.2 -14 31.2 -31.2 31.2h-31.3c-75.4 0 -142 -23.8 -187.5 -62.2 -45.5 38.4 -112.1 62.2 -187.5 62.2S670.5 913.7 625 875.3c-45.5 38.4 -112.1 62.2 -187.5 62.2S295.5 913.7 250 875.3c-45.5 38.4 -112.1 62.2 -187.5 62.2H31.3C14 937.5 0 923.5 0 906.3v-62.5c0 -17.3 14 -31.3 31.3 -31.3h31.2c50.9 0 89.5 -16.4 109.5 -35 17.4 -16 38.4 -27.5 62.1 -27.5h31.8c23.7 0 44.7 11.5 62 27.5 20.1 18.6 58.7 35 109.6 35S527 796.1 547 777.5c17.4 -16 38.4 -27.5 62.1 -27.5h31.8c23.7 0 44.7 11.5 62 27.5 20.1 18.6 58.7 35 109.6 35S902 796.1 922 777.5c17.4 -16 38.4 -27.5 62.1 -27.5h31.8c23.7 0 44.7 11.5 62 27.5 20.1 18.6 58.7 35 109.6 35h31.2zM437.5 750c-37.3 0 -60.3 -12 -67.2 -18.4 -17.9 -16.5 -37.5 -28 -57.8 -35.3V250C312.5 146.6 396.6 62.5 500 62.5S687.5 146.6 687.5 250v31.3c0 17.2 -14 31.2 -31.2 31.2h-62.5c-17.3 0 -31.3 -14 -31.3 -31.2V250c0 -34.5 -28 -62.5 -62.5 -62.5s-62.5 28 -62.5 62.5v187.5h375V250C812.5 146.6 896.6 62.5 1000 62.5s187.5 84.1 187.5 187.5v31.3c0 17.2 -14 31.2 -31.2 31.2h-62.5c-17.3 0 -31.3 -14 -31.3 -31.2V250c0 -34.5 -28 -62.5 -62.5 -62.5s-62.5 28 -62.5 62.5v446.3c-20.3 7.3 -39.9 18.8 -57.8 35.3C872.8 738 849.8 750 812.5 750V562.5h-375V750z"/></svg>