<svg height="1000" width="1250" xmlns="http://www.w3.org/2000/svg"><path d="M370.3 606.6C360.5 597.5 350 590.3 339.4 584l134 -191.5c14.4 -20.5 31.9 -38.2 52.2 -52.6L681.9 228.2c49.9 -35.6 112.9 -48.7 172.9 -35.9l196 42.1c50.7 10.8 82.9 60.7 72.1 111.3 -10.9 50.6 -60.8 82.8 -111.4 72l-196 -42c-8.4 -1.8 -17.5 0 -24.6 5.1l-35.2 25.1 220.4 157.4c-34.2 2.1 -67.4 16.5 -96.4 43.3C872.8 613 849.8 625 812.5 625s-60.3 -12 -67.2 -18.4C714.1 577.8 677.9 562.5 640.9 562.5h-31.8c-37.1 0 -73.1 15.3 -104.4 44.1C497.8 613 474.8 625 437.5 625s-60.3 -12 -67.2 -18.4zm848.5 80.9c17.2 0 31.2 14 31.2 31.3v62.5c0 17.2 -14 31.2 -31.2 31.2h-31.3c-75.4 0 -142 -23.8 -187.5 -62.2 -45.5 38.4 -112.1 62.2 -187.5 62.2S670.5 788.7 625 750.3c-45.5 38.4 -112.1 62.2 -187.5 62.2S295.5 788.7 250 750.3c-45.5 38.4 -112.1 62.2 -187.5 62.2H31.3C14 812.5 0 798.5 0 781.3v-62.5c0 -17.3 14 -31.3 31.3 -31.3h31.2c50.9 0 89.5 -16.4 109.5 -35 17.4 -16 38.4 -27.5 62.1 -27.5h31.8c23.7 0 44.7 11.5 62 27.5 20.1 18.6 58.7 35 109.6 35S527 671.1 547 652.5c17.4 -16 38.4 -27.5 62.1 -27.5h31.8c23.7 0 44.7 11.5 62 27.5 20.1 18.6 58.7 35 109.6 35S902 671.1 922 652.5c17.4 -16 38.4 -27.5 62.1 -27.5h31.8c23.7 0 44.7 11.5 62 27.5 20.1 18.6 58.7 35 109.6 35h31.2zM218.8 500C132.5 500 62.5 430 62.5 343.8s70 -156.3 156.3 -156.3S375 257.5 375 343.8 305 500 218.8 500z"/></svg>