<svg height="1000" width="1250" xmlns="http://www.w3.org/2000/svg"><path d="M136.7 383.8c10.4 -11.7 28.7 -11.7 39.1 0l74.2 84.1V1000H0V558.4C0 547.6 5.8 532.1 13 524zM1237 524c8.4 9.5 13 21.8 13 34.5V1000h-250V467.9l74.2 -84.1c10.4 -11.7 28.7 -11.7 39.1 0zM664 13.7l250 200c14.9 11.8 23.5 29.8 23.5 48.8V1000H750V812.5c0 -75.9 -67.7 -136 -146 -123.3 -61.5 10 -104 67.7 -104 130V1000H312.5V262.5c0 -16.6 10.5 -38.4 23.5 -48.8l250 -200c22.8 -18.3 55.2 -18.3 78 0zm101.7 421L728.3 375l37.5 -59.7c3.8 -6.2 -.6 -14.1 -7.8 -14.1h-76.1l-49.1 -78.1c-3.6 -5.8 -12 -5.8 -15.6 0l-49.1 78.1h-76c-7.3 0 -11.7 8 -7.8 14.1l37.5 59.7 -37.5 59.7c-3.9 6.2 .5 14.1 7.8 14.1h76l49.1 78.1c3.6 5.8 12 5.8 15.6 0l49.1 -78.1h76c7.3 0 11.7 -8 7.8 -14.1z"/></svg>