<svg height="1000" width="1000" xmlns="http://www.w3.org/2000/svg"><path d="M860.6 24.6c0 -.4 0 -.9 0 -1.2C860.6 10.5 871.1 0 884 0h92.6c12.9 0 23.4 10.5 23.4 23.4v391.3c0 13 -10.5 23.5 -23.4 23.5H585.5c-12.9 0 -23.4 -10.5 -23.4 -23.5v-92.6c0 -12.9 10.5 -23.4 23.4 -23.4 .3 0 .8 0 1.1 0l198.2 9.5C728.4 224.4 600.7 156.3 499.7 156.3c-149.4 0 -299.1 117.9 -334.1 263.1 -2.3 10 -12.5 18.1 -22.8 18.1H47C34.1 437.5 23.6 427 23.6 414.1c0 -1.2 .2 -3.1 .4 -4.3C66.2 185.4 263.1 15.6 499.7 15.6h.5c123.5 0 288.4 76.4 368.3 170.6zM499.7 843.8c149.4 0 299.1 -117.9 334 -263.2 2.3 -10 12.6 -18.1 22.8 -18.1h95.8c12.9 0 23.4 10.5 23.4 23.4 0 1.2 -.1 3.1 -.3 4.3C933.1 814.6 736.2 984.4 499.7 984.4h-.5c-123.3 0 -288.1 -76.3 -368 -170.3l8.2 161.3c0 .3 0 .8 0 1.2 0 12.9 -10.5 23.4 -23.5 23.4H23.4C10.5 1000 0 989.5 0 976.6V585.3c0 -12.9 10.5 -23.4 23.4 -23.4h391.1c12.9 0 23.4 10.5 23.4 23.4v92.6c0 12.9 -10.5 23.4 -23.4 23.4 -.4 0 -.9 0 -1.2 0l-198.8 -9.5c56.3 83.9 183.9 152 284.9 152h.3z"/></svg>