<svg height="1000" width="1000" xmlns="http://www.w3.org/2000/svg"><path d="M724.1 260.3C663 203.1 583.8 171.8 499.7 171.9 348.4 172 217.8 275.7 181.8 419.6c-2.7 10.5 -12 17.9 -22.8 17.9H47.1C32.4 437.5 21.3 424.2 24 409.8 66.3 185.4 263.3 15.6 500 15.6c129.8 0 247.6 51.1 334.6 134.2L904.4 80c29.5 -29.5 80 -8.6 80 33.2V375c0 25.9 -21 46.9 -46.9 46.9H675.7c-41.8 0 -62.7 -50.5 -33.2 -80zM62.5 578.1h261.8c41.8 0 62.7 50.5 33.2 80l-81.6 81.6c61.1 57.2 140.3 88.5 224.4 88.4C651.5 828 782.2 724.3 818.2 580.4c2.7 -10.5 12 -17.9 22.8 -17.9h111.9c14.7 0 25.8 13.3 23.1 27.7C933.7 814.6 736.7 984.4 500 984.4c-129.8 0 -247.6 -51.1 -334.6 -134.2L95.6 920c-29.5 29.5 -80 8.6 -80 -33.2V625c0 -25.9 21 -46.9 46.9 -46.9z"/></svg>