<svg height="1000" width="1000" xmlns="http://www.w3.org/2000/svg"><path d="M393.6 341.4L520.3 214.5l265.1 265L430.1 834.8c-34.2 34.3 -81.1 50 -127.8 44.9L178.1 865.8 48.6 995.3c-6 6.1 -16 6.1 -22 0L4.5 973.2c-6.1 -6 -6.1 -16 0 -22L134.2 821.5 120.3 697.3c-5.1 -47.5 11.1 -94 44.9 -127.8L216.8 518l109 109.1c6 6.1 16 6.1 22.1 0l22 -22c6.1 -6.1 6.1 -16 0 -22.1l-109 -109 88.5 -88.5 108.8 109c6.1 6.1 16 6.1 22.1 0l22 -22c6.1 -6.1 6.1 -16.1 0 -22.1zM995.5 159.2c6.1 6.2 6.1 16 0 22.2l-22.1 22.1c-6 6.1 -16 6.1 -22 0l-55.3 -55.3 -88.5 88.5 143.6 143.6c6 6 6 16 0 22L885 468.7c-6.1 6.1 -16.1 6.1 -22.1 0l-33.2 -33.2L564.6 170.1l-33.2 -33.2c-6 -6 -6 -16 0 -22.1l66.3 -66.2c6 -6 16 -6 22 0l33.2 33.2 110.6 110.6L852 103.9 796.7 48.6c-6.1 -6 -6.1 -16 0 -22L818.8 4.5c6 -6.1 16 -6.1 22 0z"/></svg>