<svg height="1000" width="1250" xmlns="http://www.w3.org/2000/svg"><path d="M312.5 375c158.4 0 288.1 114.3 312.5 263.1 1.6 9.4 -6.4 18.1 -16.2 18.1H16.4c-9.8 0 -17.8 -8.7 -16.2 -18.1C24.4 489.3 154.1 375 312.5 375zm296.1 343.8c9.8 0 17.8 8.7 16.2 18.1C600.6 885.7 470.9 1000 312.5 1000S24.4 885.7 .2 736.9c-1.6 -9.4 6.4 -18.1 16.2 -18.1h592.2zM1159 91c110.3 110.4 119.9 281.7 31 404.1 -5.4 7.8 -17.1 8.4 -24 1.6L753.3 83.8c-6.8 -6.7 -6.2 -18.4 1.6 -24C877.3 -28.9 1048.6 -19.3 1159 91zm-450 37.3L1121.7 541c6.8 6.7 6.2 18.4 -1.6 24C997.7 653.9 826.4 644.3 716 534 605.9 423.6 596.3 252.3 685 129.9c5.4 -7.8 17.1 -8.4 24 -1.6z"/></svg>