<svg height="1000" width="1000" xmlns="http://www.w3.org/2000/svg"><path d="M969.1 579.1c-125.2 -84.4 -292 -54.5 -382 66.8L174 232.8 283.4 123.2C447.3 -41 713.1 -41 877 123.2c123 123.3 153.7 303.9 92.1 455.9zM543.6 734.8c-7.3 24.8 -12.3 50.6 -12.2 77.5 0 38.1 7.7 74.4 21.5 107.6 -50.2 -5.4 -98.8 -26.5 -137.3 -65l-69.7 -69.7L171.5 986.9c-14.7 16.8 -40.4 17.8 -56.1 2L11.1 884.4c-15.8 -15.8 -14.8 -41.6 2 -56.3L214.3 653.5l-67.4 -67.6C70.7 509.6 59.8 393 113.1 304.5zM812.5 625C916 625 1000 709 1000 812.5S916 1000 812.5 1000 625 916 625 812.5 709 625 812.5 625z"/></svg>