<svg height="1000" width="1125" xmlns="http://www.w3.org/2000/svg"><path d="M562.5 62.5C873.2 62.5 1125 314.3 1125 625c0 103.1 -27.8 199.7 -76.3 282.8 -10.9 18.8 -31.8 29.7 -53.6 29.7H129.9c-21.8 0 -42.7 -10.9 -53.6 -29.7C27.8 824.7 0 728.1 0 625 0 314.3 251.8 62.5 562.5 62.5zm0 125c-34.5 0 -62.5 28 -62.5 62.5s28 62.5 62.5 62.5c13 0 24.5 -4.9 34.5 -11.7l18 -54.1c1.6 -4.7 4.6 -8.6 6.7 -13 -7.3 -26.4 -30.5 -46.2 -59.2 -46.2zM187.5 750C222 750 250 722 250 687.5S222 625 187.5 625 125 653 125 687.5s28 62.5 62.5 62.5zm93.8 -312.5c34.5 0 62.5 -28 62.5 -62.5s-28 -62.5 -62.5 -62.5 -62.5 28 -62.5 62.5 27.9 62.5 62.5 62.5zM763.2 296.1c8.2 -24.6 -5.1 -51.1 -29.6 -59.3 -24.7 -8.4 -51.2 5.1 -59.3 29.6L554.5 625.8c-65.2 4.2 -117 57.9 -117 124.2 0 22.9 6.6 44 17.3 62.5h215.4C680.9 794 687.5 772.9 687.5 750c0 -38 -17.3 -71.6 -44.1 -94.6zm28.7 111.7c11.1 17.5 29.6 29.7 51.9 29.7 34.5 0 62.5 -28 62.5 -62.5s-28 -62.5 -62.5 -62.5c-7.7 0 -14.9 1.9 -21.6 4.4zM937.5 750c34.5 0 62.5 -28 62.5 -62.5S972 625 937.5 625 875 653 875 687.5s28 62.5 62.5 62.5z"/></svg>