<svg height="1000" width="1250" xmlns="http://www.w3.org/2000/svg"><path d="M972.5 441.3c36.7 36.6 36.7 96 0 132.6L573.9 972.5c-36.6 36.7 -96 36.7 -132.6 0L27.5 558.7C12.3 543.6 0 513.9 0 492.4V93.7C0 42 42 0 93.7 0h398.7c21.5 0 51.2 12.3 66.3 27.5zM218.8 312.5c51.7 0 93.7 -42 93.7 -93.7S270.5 125 218.8 125 125 167 125 218.8s42 93.7 93.8 93.7zm1003.7 261.4L823.9 972.5c-36.6 36.7 -96 36.7 -132.6 0l-.7 -.7 339.9 -339.9c33.2 -33.2 51.5 -77.4 51.5 -124.3s-18.3 -91.1 -51.5 -124.3L647.3 0h95.1c21.5 0 51.2 12.3 66.3 27.5l413.8 413.8c36.7 36.6 36.7 96 0 132.6z"/></svg>