<svg height="1000" width="1000" xmlns="http://www.w3.org/2000/svg"><path d="M272.7 69.3l33.2 32.3c3.7 3.8 6.7 11.2 6.7 16.5 0 5.4 -3.1 12.8 -6.9 16.7l-141 141 -30.5 30.5c-4 3.8 -11.7 6.8 -17.2 6.8s-13.2 -3 -17.2 -6.8L6.9 213.7C3.1 209.9 0 202.5 0 197.1c0 -5.4 3.1 -12.8 6.9 -16.6l30.7 -30.7c3.8 -3.8 11.2 -6.9 16.6 -6.9 5.3 0 12.8 3.1 16.6 6.9l44.3 43.2L239.5 69.3c3.8 -3.8 11.2 -6.9 16.6 -6.9 5.3 0 12.8 3.1 16.6 6.9zm0 311l33.1 33.2c3.7 3.7 6.7 11.1 6.7 16.4 0 5.3 -3 12.8 -6.8 16.6l-141.1 141L134 618.2c-4 3.8 -11.7 6.8 -17.2 6.8s-13.2 -3 -17.2 -6.8L6.9 525.4C3.1 521.6 0 514.2 0 508.8S3.1 496 6.9 492.2l30.7 -30.7c3.8 -3.8 11.2 -6.9 16.6 -6.9 5.3 0 12.8 3.1 16.6 6.9l44.3 43.2L239.5 380.3c3.8 -3.9 11.2 -6.9 16.6 -6.9 5.3 0 12.8 3 16.6 6.9zM125 718.8c51.8 0 93.8 41.9 93.8 93.7s-42 93.8 -93.8 93.8c-51.7 0 -94.9 -42 -94.9 -93.8S73.3 718.8 125 718.8zM968.8 750c17.2 0 31.2 14 31.2 31.3v62.5c0 17.2 -14 31.2 -31.2 31.2H406.3C389 875 375 861 375 843.8v-62.5C375 764 389 750 406.3 750h562.5zm0 -625c17.2 0 31.2 14 31.2 31.3v62.5c0 17.2 -14 31.2 -31.2 31.2H406.3C389 250 375 236 375 218.8v-62.5C375 139 389 125 406.3 125h562.5zm0 312.5c17.2 0 31.2 14 31.2 31.3v62.5c0 17.2 -14 31.2 -31.2 31.2H406.3c-17.3 0 -31.3 -14 -31.3 -31.2v-62.5c0 -17.3 14 -31.3 31.3 -31.3h562.5z"/></svg>