<svg height="1000" width="1000" xmlns="http://www.w3.org/2000/svg"><path d="M902.3 472c55.9 12.5 97.7 62.1 97.7 121.8v93.7c0 46.1 -25.3 86 -62.5 107.7V875c0 34.5 -28 62.5 -62.5 62.5h-62.5C778 937.5 750 909.5 750 875v-62.5H250V875c0 34.5 -28 62.5 -62.5 62.5H125c-34.5 0 -62.5 -28 -62.5 -62.5v-79.8C25.3 773.5 0 733.7 0 687.5v-93.7C0 534.1 41.8 484.5 97.7 472l42.9 -165.7c18.8 -68.8 81.3 -118.8 150 -118.8h21.9V125c0 -34.5 28 -62.5 62.5 -62.5h250c34.5 0 62.5 28 62.5 62.5v62.5h21.9c68.7 0 131.2 50 150 118.8zM187.5 687.5c34.5 0 62.5 -28 62.5 -62.5s-28 -62.5 -62.5 -62.5S125 590.5 125 625s28 62.5 62.5 62.5zm40.1 -218.7h544.8l-34 -131.2c-3.9 -14.4 -18.3 -25.1 -29 -25.1H290.6c-10.6 0 -25 10.7 -29.4 26.6zm584.9 218.7c34.5 0 62.5 -28 62.5 -62.5s-28 -62.5 -62.5 -62.5S750 590.5 750 625s28 62.5 62.5 62.5z"/></svg>