<svg height="1000" width="1250" xmlns="http://www.w3.org/2000/svg"><path d="M1062.5 0C1166.1 0 1250 83.9 1250 187.5v625c0 103.6 -83.9 187.5 -187.5 187.5h-875C83.9 1000 0 916.1 0 812.5v-625C0 83.9 83.9 0 187.5 0h875zm-750 718.8v-125c0 -17.3 -14 -31.3 -31.2 -31.3h-125c-17.3 0 -31.3 14 -31.3 31.3v125c0 51.7 42 93.7 93.8 93.7s93.7 -42 93.7 -93.7zm0 -250v-125c0 -51.8 -42 -93.8 -93.7 -93.8S125 292 125 343.8v125c0 17.2 14 31.2 31.3 31.2h125c17.2 0 31.2 -14 31.2 -31.2zm281.3 234.3V593.8c0 -17.3 -14 -31.3 -31.3 -31.3H406.3c-17.3 0 -31.3 14 -31.3 31.3v109.3c0 60.4 49 109.4 109.4 109.4s109.4 -49 109.4 -109.4zm0 -234.3V296.9c0 -60.4 -49 -109.4 -109.4 -109.4S375 236.5 375 296.9v171.9c0 17.2 14 31.2 31.3 31.2h156.2c17.3 0 31.3 -14 31.3 -31.2zM875 703.1V593.8c0 -17.3 -14 -31.3 -31.2 -31.3H687.5c-17.3 0 -31.2 14 -31.2 31.3v109.3c0 60.4 48.9 109.4 109.3 109.4S875 763.5 875 703.1zm0 -234.3V296.9C875 236.5 826 187.5 765.6 187.5s-109.3 49 -109.3 109.4v171.9c0 17.2 13.9 31.2 31.2 31.2h156.3C861 500 875 486 875 468.8zm250 250v-125c0 -17.3 -14 -31.3 -31.2 -31.3h-125c-17.3 0 -31.3 14 -31.3 31.3v125c0 51.7 42 93.7 93.8 93.7s93.7 -42 93.7 -93.7zm0 -250v-125C1125 292 1083 250 1031.3 250s-93.8 42 -93.8 93.8v125c0 17.2 14 31.2 31.3 31.2h125c17.2 0 31.2 -14 31.2 -31.2z"/></svg>