<svg height="1000" width="1250" xmlns="http://www.w3.org/2000/svg"><path d="M1062.5 0C1166.1 0 1250 83.9 1250 187.5v125c0 69 -56 125 -125 125H125c-69 0 -125 -56 -125 -125v-125C0 83.9 83.9 0 187.5 0h875zm-750 343.8v-62.5c0 -51.8 -42 -93.8 -93.7 -93.8s-93.8 42 -93.8 93.8v62.5c0 17.2 14 31.2 31.3 31.2h125c17.2 0 31.2 -14 31.2 -31.2zm281.3 0V234.4C593.8 174 544.8 125 484.4 125S375 174 375 234.4v109.4c0 17.2 14 31.2 31.3 31.2h156.2c17.3 0 31.3 -14 31.3 -31.2zm281.2 0V234.4C875 174 826 125 765.6 125S656.3 174 656.3 234.4v109.4c0 17.2 13.9 31.2 31.2 31.2h156.3C861 375 875 361 875 343.8zm250 0v-62.5c0 -51.8 -42 -93.8 -93.7 -93.8s-93.8 42 -93.8 93.8v62.5c0 17.2 14 31.2 31.3 31.2h125c17.2 0 31.2 -14 31.2 -31.2zm0 281.2c69 0 125 56 125 125v62.5c0 103.6 -83.9 187.5 -187.5 187.5h-875C83.9 1000 0 916.1 0 812.5V750C0 681 56 625 125 625h1000zM312.5 781.3v-62.5c0 -17.3 -14 -31.3 -31.2 -31.3h-125c-17.3 0 -31.3 14 -31.3 31.3v62.5c0 51.7 42 93.7 93.8 93.7s93.7 -42 93.7 -93.7zm281.3 -15.7v-46.8c0 -17.3 -14 -31.3 -31.3 -31.3H406.3c-17.3 0 -31.3 14 -31.3 31.3v46.8C375 826 424 875 484.4 875S593.8 826 593.8 765.6zm281.2 0v-46.8c0 -17.3 -14 -31.3 -31.2 -31.3H687.5c-17.3 0 -31.2 14 -31.2 31.3v46.8c0 60.4 48.9 109.4 109.3 109.4S875 826 875 765.6zm250 15.7v-62.5c0 -17.3 -14 -31.3 -31.2 -31.3h-125c-17.3 0 -31.3 14 -31.3 31.3v62.5c0 51.7 42 93.7 93.8 93.7s93.7 -42 93.7 -93.7z"/></svg>