<svg height="1000" width="1000" xmlns="http://www.w3.org/2000/svg"><path d="M812.5 0C915.8 0 1000 84.2 1000 187.5S915.8 375 812.5 375 625 290.8 625 187.5 709.2 0 812.5 0zm0 250c34.6 0 62.5 -27.9 62.5 -62.5S847.1 125 812.5 125 750 152.9 750 187.5s27.9 62.5 62.5 62.5zM500 218.8v325.1c38.5 48.1 62.5 108.4 62.5 174.9 0 155.2 -126 281.2 -281.2 281.2S0 874 0 718.8C0 652.3 24 592.2 62.5 543.9V218.8C62.5 97.9 160.4 0 281.3 0S500 97.9 500 218.8zM281.3 875c86.1 0 156.2 -70.1 156.2 -156.2C437.5 668.9 413.7 623 375 594.1V218.8C375 167 333 125 281.3 125s-93.8 42 -93.8 93.8v375.3C148.8 623.2 125 668.9 125 718.8c0 86.1 70.1 156.2 156.3 156.2zm31.2 -244.3c36.3 12.9 62.5 47.2 62.5 88 0 51.8 -42 93.8 -93.7 93.8s-93.8 -42 -93.8 -93.8c0 -40.8 26.2 -75.1 62.5 -88v-37c0 -17.1 14.1 -31.2 31.3 -31.2s31.2 14.1 31.2 31.2v37z"/></svg>