<svg height="1000" width="750" xmlns="http://www.w3.org/2000/svg"><path d="M141.2 968.4c2.7 38.8 -53.9 43.3 -58 5.6C60.5 720.3 143.9 506.3 281.2 362.3c-30.4 -66.4 18 -150.6 98.9 -150.6 59.2 0 107.6 48.1 107.6 107.6 0 86 -96.7 138.3 -169.7 88.1C189.6 546.7 119.9 739.1 141.2 968.4zM375 .2c179.7 0 325.4 145.7 325.4 325.2 0 199.8 -182.2 362.3 -398.4 317 -37.2 -9.2 -24.5 -64.9 12.8 -56.9 157.9 40.7 327.6 -82.6 327.6 -259.9C642.4 178.1 522.3 58.2 375 58.2 177.7 58.2 46.3 266.4 136.7 447.3c17.6 34.9 -34.4 60.1 -51.3 26.1C-24 262.3 129.1 .2 375 .2z"/></svg>