<svg height="1000" width="875" xmlns="http://www.w3.org/2000/svg"><path d="M843.8 62.5c17.2 0 31.2 14 31.2 31.3V250c0 17.3 -14 31.3 -31.2 31.3h-62.5C764 281.3 750 267.3 750 250v-31.2H515.6v218.7h46.9c17.3 0 31.3 14 31.3 31.3v62.5c0 17.2 -14 31.2 -31.3 31.2h-250c-17.3 0 -31.2 -14 -31.2 -31.2v-62.5c0 -17.3 13.9 -31.3 31.2 -31.3h46.9V218.8H125V250c0 17.3 -14 31.3 -31.2 31.3H31.3C14 281.3 0 267.3 0 250V93.8C0 76.5 14 62.5 31.3 62.5h812.5zM709.6 571.7l156.2 156.2c5.1 5.1 9.2 15 9.2 22.1s-4.1 17 -9.2 22.1L709.6 928.3c-19.5 19.6 -53.3 5.9 -53.3 -22.1v-93.7H218.8v93.7c0 30.6 -35.2 40.4 -53.4 22.1L9.2 772.1C4.1 767 0 757.1 0 750s4.1 -17 9.2 -22.1L165.4 571.7c19.5 -19.6 53.4 -5.9 53.4 22v93.8h437.5v-93.8c0 -30.5 35.1 -40.3 53.3 -22z"/></svg>