<svg height="1000" width="1125" xmlns="http://www.w3.org/2000/svg"><path d="M593.8 62.5c17.2 0 31.2 14 31.2 31.3v187.5c0 17.2 -14 31.2 -31.2 31.2h-62.5c-17.3 0 -31.3 -14 -31.3 -31.2v-62.5H390.6v593.7h78.2c17.2 0 31.2 14 31.2 31.3v62.5c0 17.2 -14 31.2 -31.2 31.2H156.3c-17.3 0 -31.3 -14 -31.3 -31.2v-62.5c0 -17.3 14 -31.3 31.3 -31.3h78.1V218.8H125v62.5c0 17.2 -14 31.2 -31.2 31.2H31.3C14 312.5 0 298.5 0 281.3V93.8C0 76.5 14 62.5 31.3 62.5h562.5zm500 656.3c30.5 0 40.3 35.1 22 53.3L959.6 928.3c-5.1 5.1 -15 9.2 -22.1 9.2s-17 -4.1 -22.1 -9.2L759.2 772.1c-19.6 -19.5 -5.9 -53.3 22.1 -53.3H875V281.3h-93.7c-30.6 0 -40.4 -35.2 -22.1 -53.4L915.4 71.7c5.1 -5.1 15 -9.2 22.1 -9.2s17 4.1 22.1 9.2l156.2 156.2c19.6 19.5 5.9 53.4 -22 53.4H1000v437.5h93.8z"/></svg>