<svg height="1000" width="1000" xmlns="http://www.w3.org/2000/svg"><path d="M291.7 109.4v156.2c0 25.9 -21 46.9 -46.9 46.9H46.9C21 312.5 0 291.5 0 265.6V109.4C0 83.5 21 62.5 46.9 62.5h197.9c25.9 0 46.9 21 46.9 46.9zm354.1 468.7c0 25.9 -21 46.9 -46.8 46.9H401c-25.8 0 -46.8 -21 -46.8 -46.9V421.9c0 -25.9 21 -46.9 46.8 -46.9h198c25.8 0 46.8 21 46.8 46.9v156.2zm62.5 -468.7c0 -25.9 21 -46.9 46.9 -46.9h197.9c25.9 0 46.9 21 46.9 46.9v156.2c0 25.9 -21 46.9 -46.9 46.9H755.2c-25.9 0 -46.9 -21 -46.9 -46.9V109.4zm-62.5 156.2c0 25.9 -21 46.9 -46.8 46.9H401c-25.8 0 -46.8 -21 -46.8 -46.9V109.4c0 -25.9 21 -46.9 46.8 -46.9h198c25.8 0 46.8 21 46.8 46.9v156.2zM244.8 375c25.9 0 46.9 21 46.9 46.9v156.2c0 25.9 -21 46.9 -46.9 46.9H46.9C21 625 0 604 0 578.1V421.9C0 396 21 375 46.9 375h197.9zM0 734.4c0 -25.9 21 -46.9 46.9 -46.9h197.9c25.9 0 46.9 21 46.9 46.9v156.2c0 25.9 -21 46.9 -46.9 46.9H46.9C21 937.5 0 916.5 0 890.6V734.4zM755.2 625c-25.9 0 -46.9 -21 -46.9 -46.9V421.9c0 -25.9 21 -46.9 46.9 -46.9h197.9c25.9 0 46.9 21 46.9 46.9v156.2c0 25.9 -21 46.9 -46.9 46.9H755.2zm0 312.5c-25.9 0 -46.9 -21 -46.9 -46.9V734.4c0 -25.9 21 -46.9 46.9 -46.9h197.9c25.9 0 46.9 21 46.9 46.9v156.2c0 25.9 -21 46.9 -46.9 46.9H755.2zm-401 -203.1c0 -25.9 21 -46.9 46.8 -46.9h198c25.8 0 46.8 21 46.8 46.9v156.2c0 25.9 -21 46.9 -46.8 46.9H401c-25.8 0 -46.8 -21 -46.8 -46.9V734.4z"/></svg>