<svg height="1000" width="1000" xmlns="http://www.w3.org/2000/svg"><path d="M578.1 62.5h375c25.9 0 46.9 21 46.9 46.9v312.5c0 25.9 -21 46.9 -46.9 46.9h-375c-25.9 0 -46.8 -21 -46.8 -46.9V109.4c0 -25.9 20.9 -46.9 46.8 -46.9zm-156.2 0c25.9 0 46.9 21 46.9 46.9v312.5c0 25.9 -21 46.9 -46.9 46.9h-375C21 468.8 0 447.8 0 421.9V109.4C0 83.5 21 62.5 46.9 62.5h375zM0 578.1c0 -25.9 21 -46.8 46.9 -46.8h375c25.9 0 46.9 20.9 46.9 46.8v312.5c0 25.9 -21 46.9 -46.9 46.9h-375C21 937.5 0 916.5 0 890.6V578.1zm578.1 359.4c-25.9 0 -46.8 -21 -46.8 -46.9V578.1c0 -25.9 20.9 -46.8 46.8 -46.8h375c25.9 0 46.9 20.9 46.9 46.8v312.5c0 25.9 -21 46.9 -46.9 46.9h-375z"/></svg>