<svg height="1000" width="1000" xmlns="http://www.w3.org/2000/svg"><path d="M953.6 472.1c4.9 6.5 10.7 18.2 13.2 25.9 6.6 18 14.4 47.9 17.4 66.8l-4.9 1 -25.4 -27.9c-35 54.9 -19.3 30.1 -32.6 49 0 242.6 -197.9 413.1 -435.6 413.1C365.6 1000 263.3 960.5 178.1 882.4 52.1 763.5 51.4 638.3 51.4 588.5 50.4 585 50 581.6 49 578.3L9.6 622.1C-3.7 538.1 59.8 477 74 464.5c1 -2 1.4 -4.3 2.4 -6.3l-56.3 -2 -5.8 -6.6c16.6 -6.8 49.4 -26 78.7 -27.9 12.3 -23.6 36.6 -58.9 54.3 -78.7 2.5 -12.5 6.4 -27.8 12.9 -50.4l-14.9 9.2 -3.3 -3.4 3.3 -16.4c17.3 -41.7 58.2 -100.7 91.2 -131.6l-64.4 -27.9h7.2c40.8 -9.6 64.8 -6.5 96.1 0 -4.9 -8 -10.6 -20.5 -16.4 -37 -2.3 -6.2 -4.1 -16.7 -4.1 -23.4 0 -7.4 2.2 -19.1 5.1 -26 17.3 14.5 27.9 48.1 29.6 52.8C291 81.8 293.7 47.3 355.5 0l3.5 1 -23.4 86.3c58.6 -34.6 123.1 -42.8 191.2 -23 -24.8 23.8 -47.4 56.4 -83 64.4 14.5 4.5 56.1 19 66.8 29.7l-48.4 -13.9c12.7 11.7 38.2 32.1 49 49.1 37.9 1.7 97.8 13.3 133.6 25.9l-1 -.9c57.4 -28.8 73.6 -53.4 146.1 -5.9 0 59 -4.5 45.7 5.9 58.2 12.5 -10.6 34.6 -25 49.4 -32.2 25.4 -12.5 45.1 -9.2 59.9 11.5 23.1 0 34.8 30.7 36 52.7 28.9 5.7 5.2 60 4.9 60l-13.9 35.5c15.2 15.3 43.2 40.9 61.9 87.5zM777.3 217.2C751.8 199.8 733 193.9 722.1 200.6c15.8 14 25.4 27.9 26.3 40.4 2.4 14.9 -4.3 28.9 -20.7 42.8l-8.2 6.6c7.1 11.6 14.4 31.8 16.4 45.1h4.9c-4.1 -27.1 -4.9 -21.4 1.4 -28.9 21.5 12.5 29.1 28.4 31.2 38.9 42.6 -19.7 57.7 -24.8 107.1 -40.8l-35.6 31.2c22.3 0 50 -.5 90.8 16.4 13.7 -47.4 13.9 -40.4 4.9 -40.4l-9.2 22.1c-3.3 -20.5 -5.6 -36.9 -6.6 -49.4 -1 -13.1 -7.6 -18.8 -18.2 -19.8 0 .8 0 2 0 2.8 0 7.5 1.5 19.6 3.4 26.9l-3.4 11.6C901 285.4 895.1 266.6 888.5 251.8c-19 -34.6 -59 17.9 -84 22 7.3 .4 19.1 .8 26.4 .8 7.2 0 19.1 -.4 26.3 -.8l-43.7 10.6 6.6 9.2c-10.7 0 -33 1.7 -43.7 -33.6zM700 197.5l-39.6 23c22 14.9 39.4 35.6 54.2 60.9 12.5 -5.6 19.8 -9.9 23.1 -14.8 4.9 -5.5 4.9 -9.2 5.9 -13.9 1.1 -2.5 1.5 -5.2 -6.7 -21.6C722.3 208 705.3 201.2 700 197.5zm-522.3 82C162.5 326.6 154.9 376 152 425.2l25.7 9.8 2.4 -52.8c18.5 32.1 21.9 45.5 24 56.3 5.5 -4.1 15 -13.7 44.1 -22.1l2.4 3.3 -14.9 20.7c19.8 -6.8 38.1 -6.8 55.3 -.9l-20.7 16.4c44.5 16.4 52 14.8 75 50.9l-23 -2.3c68.2 40 128.9 93.5 275.7 123.4 30.5 -47 27.4 -41.2 27.4 -44.7l.4 -.4 -.4 -.4C624 578.7 597.9 550 589.8 542c14.3 3.5 11.8 1.8 21.1 7.2 3.4 1.8 -10.5 -10.5 -42.7 -39.4 32.2 13.1 53.9 30.2 64.4 54.3l3.3 -60 -43.7 -34.6L604.7 458c-14.3 0 -60.6 -7.2 -96.1 31.3l-4.9 -1c11.5 -23.8 25.5 -64.1 31.3 -89.9 3.1 -15.1 5.7 -39.8 5.8 -55.2 0 -38.1 -9.2 -75 -26.3 -110.6C502 206.2 482.2 183.2 455.9 163.5c-10.7 -8 -28.8 -19.8 -40.5 -26.4 5.9 -1.4 2 -2.3 -10.5 -2.3 -12.5 -.4 -25.4 -1.4 -37.9 -2.4v5.9c-17 2.7 -39.1 16 -49.4 29.7h-2.4l-10.5 6.6c-2.4 -5.7 0 -12.3 8.2 -18.2l20.7 -22 -6.6 1 3.9 -6.7c-4.5 -.4 -8.2 -1 -12.1 -1.4l-1 -2.3 4.9 -3.3c4.3 .4 8.9 1 13.8 1.3 5 -2.6 13.5 -4.7 19.1 -4.7 2.3 0 6 .4 8.3 .8l4.8 2.4 .4 1c12.7 -.9 33.2 -3.4 45.7 -5.7 40.5 -5.7 71.7 -22.1 94.8 -48.4l-41.2 -1c-50.4 -1 -96.5 10.5 -139.3 36.9l-4.9 -4.9 1 -9.2 3.3 -13.8c2.7 -13.9 8.3 -36 12.5 -49.4 -3.3 1.3 -9 9.5 -18.1 22 -9.2 12.5 -16.5 25.4 -19.8 37.9 -1.7 8.3 -6.9 20.8 -11.5 27.9L265.2 58.2l16.4 69.9 -.9 3.3h-.1c-8.8 0 -22.8 -2.1 -31.2 -4.8 -6.6 -1.4 -20.7 -2.4 -40.8 -2.4 1 0 -1.4 0 -6.3 1 10.6 2.5 26.4 8.2 48.5 16.4l12.5 -2.3c-8.2 6.6 -21.3 19.7 -39.5 37.8 -18.3 17.4 -39.4 51 -63.4 98.1l8.2 -2.3 19.7 -18.2 -10.6 9.2 25.4 -24.1 -4.9 6.7c-9.9 14.8 -15.8 24 -18.1 29.7zM717.8 924c16.2 -78.7 7 -107.8 -1.4 -174.8 -69.3 23.1 -39.6 11.7 -62.5 21.1l20.5 27.7 -2.3 2.4c-39.5 -11.7 -45.3 -21.1 -54.3 -29.3 11.7 43.4 27.1 51.6 57.6 61.9 -18.6 18.8 -49.6 -7.8 -67.2 -25.4l4.9 46.1 -8.2 5.9c-9.8 -43.2 -43 -76.4 -49.4 -76.4C469.5 808.6 401 794.5 333 762.5c-3.1 .8 -137.9 35.2 -235.3 -72.5 26.7 68.4 63 124.5 139.2 161.4 -8.1 -16.8 -26.2 -40 -40.4 -52 0 0 1.4 -7.2 2.3 -19.7 37.9 37.9 99.1 77.1 182.1 117.6 -116.4 -47.9 -117 -48.5 -135 -56.7l31.3 40.5c-5.9 2.5 -13.1 .9 -19.8 -2.4 -20.2 -11.8 -51.1 -33.5 -69.1 -48.4 3.7 4.3 156.4 192.4 392.4 145.1C496.5 932.8 478.3 873 450.6 831.8l34.6 14.9 -23.1 -45.1c39.3 54.3 55.9 68.3 75 86.5l-58.6 -32.2c24.6 52.9 65.8 91.8 124 114.8 5.7 -2.9 17.8 2.2 115.3 -46.7zM943 505.3l17.4 25 -24 -63.5c21.3 0 19.5 .2 41.4 6.6C964.7 455 941 427 925.1 410.9l-52 -45.1 2.4 -5.8 46 -4.9c-17.5 -3.9 -46.4 -7.6 -64.4 -8.2l-34.6 1 -1 -5.7 28.9 -25.4 -81.6 39.5 -24 -37 6.6 31.3 -4.9 2.3L735 344.7h-19.7l10.5 8.2v3.9l-26.3 54.3c-19.8 61 -42.8 132.7 -69.2 214.3l2.4 -31.3 -2.4 5.9v1c-12.5 31.2 -26.5 57.6 -41.4 77.3l18.2 -42.8L515.9 675c23 -26.4 46.1 -37.9 68.1 -36.9C445 615.8 376.6 558 368.4 548.2c7.1 12.2 25.8 34.8 31.3 78.4l-3.4 2.3C388 598.4 364.3 537.9 287.4 493l46.1 4.9C313 473.2 262.6 463.1 253.8 466.6l-4.9 -4.9 16.4 -16.4 -43.6 11.3 10.6 -26.3c-15.8 8.6 -8.4 4.7 -33.2 17.4l-3.3 -1c1.1 -1.2 1.7 1.3 -5.9 -18.2 -1.2 21.5 -.8 16.8 -1.9 23.1 -2.1 .7 -5.4 2.1 -7.3 3.3C102.6 414.6 69 433.4 38.1 444.7c71.9 11.7 57.3 7.8 75 18.2C62.8 486.7 50.8 487.5 12.8 599.8l43.5 -43.6 4.8 32.1C87.3 701.6 195.3 768.9 308 751.2l-51 -43.8 87.5 43.8 -2.3 5.8c9 3.4 18.2 5.9 26.4 8.2 32.1 9.6 85.5 17.3 119 17.3 17.5 0 45.7 -2.1 63 -4.8l-63.5 -41.4c69.9 13.7 99 61.4 110.9 77.4L583.2 757l2.3 -4.9 37.2 54.5 -18.2 -51.9 42.8 26.4h2.3l-6.6 -8.2 13.8 9.1 -27.9 -31.2 2.4 -5.9 14.8 13.9c8.4 -2.4 80.9 -20.5 158 -78.7 93.6 -69.2 133 -144.2 139.8 -155.7l-5.8 -18.2zM931.1 366l-35.6 2.4 27.9 23zm-497.7 13.9c5.3 9.9 11.1 24.2 35.9 36.7 -14.6 21.3 -16.2 20.5 -39.4 31.3 -14.9 15 -26.4 25.5 -34.6 28.9l13.9 -25.4c-9 3.3 -24.2 6 -33.8 6 -4 0 -10.6 -.5 -14.7 -1.2l-.9 -2.3c37.1 -4.1 72.6 -18.4 90.8 -31.2 -8 -8.2 -13.9 -22.1 -17.2 -42.8zm7.2 -199.8c9.6 5.4 22.2 17.5 28 26.9 28.7 47.1 37.5 78.4 22 93.2 -15.4 14.8 -32.8 13.9 -51 -5.9C421.5 274.6 413.3 248 416.6 217c3.3 -31.1 11.5 -43.6 24 -36.9zm-9.2 90.4c13.9 41.6 65.3 45.1 52.6 -9.6C476.4 228.7 466.8 208 454.3 197.5c-12.9 -10.6 -19.7 -13.1 -22.1 -8.2 -4.9 5.6 -6.8 22 -5.8 48.4 14.6 -25 22.6 -11.5 24.4 -9.2l-1 1c-1.6 3.3 -5.1 6 3.3 12.1l2.4 -1v9.2c-3.5 24.4 -13.5 25 -24.1 20.7zm-87.8 -10.7c-4.1 -.8 -8.8 -4.5 -10.6 -8.2 -6.8 -16.6 0 -41.4 15.8 -41.4 3.9 .9 7.3 3.3 10.6 9.1 -3 .8 -9.2 9.4 1.3 11.6h1c0 26.7 -15 29.5 -18.1 28.9zm78.3 -97.9l-7.3 -4.7 -.9 -4.9c35.7 0 50.4 17.2 55.2 28 -11.8 -6.5 -32.3 -11.7 -45.7 -11.7 -1.5 0 -3.8 .1 -5.2 .1l-1 -5.8zm-140.3 96.5c3.2 3.1 1.2 .6 9.6 12.9 -49.6 9.2 -45.3 24 -58.6 24 .6 -1.2 13.9 -31.2 46.1 -31.2l-13.9 -14.9c18.4 -1 29.7 -4.1 38.9 11.5 0 -12.9 2.6 -33.5 5.7 -46.1 3.9 -14.8 7.2 -23 10.5 -26.3 2 -2.9 31.9 -30.7 56.7 -43.8 4 -2.9 11.2 -5.2 16.2 -5.2 2.9 0 7.4 .9 10.1 1.9 .6 .7 1 1.9 1 2.8 0 .2 0 .4 0 .5l-25.4 14.9c14.9 23 20.5 49.4 17.2 80.6 -1.8 18.5 -14.8 43.3 -28.9 55.3l5.7 9.2C313.9 300.2 324 291.2 281.6 258.4zm36.6 -36.5c-3.6 14 -4.5 31.2 -6.1 50.8l10.6 12.5 13.8 6.6c4 .7 10.4 1.4 14.4 1.4 2.1 0 5.6 -.2 7.7 -.4 1.9 -3.3 6.8 -8.2 12.5 -14.9 9.8 -11.5 15.4 -26.9 16.4 -45.1 .1 -2.3 .2 -6 .2 -8.4 0 -11.5 -2.7 -29.9 -6.1 -41 -5.8 -15.8 -11.5 -21.5 -19.7 -18.2 -10.5 3.4 -20.7 10.6 -31.2 23.1 -5.9 8.2 -10.2 18.7 -12.5 33.6zm82 109.5l-6.1 12.7c13.9 -8.2 26.4 -14 37.9 -16.4l13.9 -.9 23 14.8h-4.8c-17.2 -7.2 -37.9 -2.3 -60 14.8 -1 9.2 3.3 28.8 11.5 57.7l18 -1c-42.8 12.9 -73.4 16.4 -95.5 10.5 -48.6 -13.1 -53.5 -46.1 -53.7 -47 -2.9 -11.2 -5.3 -29.5 -5.3 -41 0 -6.9 .9 -18 2 -24.9 -12.5 1 -21.5 8.2 -29.7 20.7 -5.7 -11.5 -10.6 -17.1 -11.6 -18.1 3 -1.4 24.1 -14.7 63.5 -9.6l1 4.9 -11.5 2.3c-.2 .8 -3.7 57.7 36.9 48.5 2.7 -.6 2.5 .2 70.5 -28z"/></svg>