<svg height="1000" width="1250" xmlns="http://www.w3.org/2000/svg"><path d="M404 478.8l-14.9 84.3c-41.2 14.1 -75.2 35.6 -97.4 60.4C286.9 559.3 333.9 499.2 404 478.8zm-216.9 97.4c11.5 64.8 125.7 140.2 218.6 165.6 20.7 52.9 50.8 98.6 77.2 132 -6.4 .6 -12.5 1.5 -19.6 1.5C330.3 875.3 91.8 755.1 64 597.8L2.1 247.2C-7.7 192.3 17.6 137.7 64.8 111.4 197.3 37.9 345 0 494.8 0c46.7 0 93.6 3.7 140.3 11.1 33.8 5.4 62.1 25.5 81.6 52.8C679.3 65.4 641.9 68.4 605 74.3 566.2 80.4 531.5 98.7 504.3 125c-3.2 0 -6.4 -.3 -9.5 -.3 -128.7 0 -256.4 33.1 -369.2 95.7 .1 0 -1 2 -.4 5.2zM377.7 307.7c7.5 42.4 -20.9 82.8 -63.4 90.3 -42.5 7.4 -83 -20.9 -90.5 -63.3 -1.4 -8 -1.2 -15.9 -.2 -23.6 21.1 10.9 48.5 15.2 77.1 10.1 28.6 -5 52.9 -18.4 69 -35.8 3.6 6.9 6.5 14.2 8 22.3zm807.5 -71.6c47.2 26.2 72.5 80.9 62.8 135.8l-62 350.6c-30.1 170 -306.3 296.8 -429.4 275.1C633.5 976 417.3 762.6 447.4 592.6L509.3 242c9.7 -54.9 52.2 -97.6 105.6 -106.2 196.4 -31.3 396.5 3.9 570.3 100.3zM651.5 425.2c-1.4 8 -1.2 15.9 -.2 23.6 21.1 -10.8 48.5 -15.1 77.1 -10.1 28.7 5.1 52.9 18.4 69 35.8 3.6 -6.9 6.5 -14.2 8 -22.2C812.9 409.9 784.5 369.5 742 362s-83 20.8 -90.5 63.2zm137.6 388.2c108.8 19.1 211.3 -46.4 239 -147.9 -54.9 33.2 -134 47.3 -218.6 32.4C725 683.1 655.4 642.8 615.2 592.9c-8.7 104.7 65.2 201.4 173.9 220.5zm254.5 -295.6c3.6 -6.9 6.5 -14.2 8 -22.3 7.4 -42.3 -20.9 -82.7 -63.4 -90.2s-83 20.8 -90.5 63.2c-1.5 8 -1.2 15.9 -.2 23.6C918.6 481.3 946 477 974.6 482c28.6 5.1 52.9 18.4 69 35.8z"/></svg>