<svg height="1000" width="875" xmlns="http://www.w3.org/2000/svg"><path d="M396.3 16.5c19.3 -11.2 50.8 -11.4 70.2 -.4l373.3 210.2c19.6 10.9 35.2 37.9 35.2 60.2v424.4c0 22.4 -15.7 49.4 -35.2 60.6L466.4 983.9c-19.4 11 -50.8 10.8 -70 -.4L34.9 771.7C15.6 760.4 0 733.2 0 710.9V286.5C0 264.2 15.6 237 35 225.8zM245.1 406.8c-31.1 0 -62.3 .2 -93.4 .2v198.2h37.4v-58.3h56c97.1 0 96.8 -140.1 0 -140.1zm273.7 195.8l-60 -67.6c72.3 -14.7 68 -127.4 -21.2 -128 -31.4 0 -62.9 -.2 -94.3 -.2v198.4h37.4v-66.3h35.9l57.8 66.3h44.4v-2.6zM437.6 441.9c45.6 0 45.4 63.4 0 63.4h-56.9v-63.4h56.9zM251 438.7c41.3 0 41.2 75.9 0 75.9h-63.1v-75.9zm376.2 -35.6c-133.7 0 -138.6 206.6 0 206.6 135.7 0 135.6 -206.6 0 -206.6zm0 34c86.2 0 87.5 138.4 0 138.4s-86.8 -138.4 0 -138.4z"/></svg>