<svg height="1000" width="1000" xmlns="http://www.w3.org/2000/svg"><path d="M406.3 172.4c0 -19.5 12.2 -42.4 34.5 -42.4 21.8 0 34.6 22.9 34.6 42.4 0 20.1 -12.8 42.4 -34.6 42.4 -22.3 0 -34.5 -22.3 -34.5 -42.4zM1000 484.9c0 70.3 -22.3 199.8 -70.9 253.4 -44.6 48.5 -170.7 119.4 -236 137.8l-2.3 .6v63.6c0 31.8 -24.5 59.7 -56.9 59.7 -19.5 0 -37.9 -11.2 -48 -27.9 -10.6 16.7 -29 27.9 -48.5 27.9s-38 -11.2 -48.6 -27.9c-10 16.7 -28.4 27.9 -47.9 27.9 -20.1 0 -38 -11.2 -48.6 -27.9 -10 16.7 -28.5 27.9 -48 27.9 -36.8 0 -57.5 -30.7 -57.5 -64.2 -31.8 24 -69.7 38 -110.5 38 -42.9 0 -84.8 -16.2 -117.7 -44.7 20.1 -.5 40.2 -4.4 59.1 -11.1C77 906.8 40.7 881.1 16.2 847.1c41.7 9.1 90.2 3.3 131.1 -21.8C104.4 782.4 36.8 710.4 13.4 654.6 2.2 628.3 0 593.2 0 565.3 0 468.2 39.6 252.8 168.5 252.8c20.7 0 36.9 9.5 45.2 29 6 -8.7 16.5 -22.2 23.5 -30.1 3.9 -5 11.1 -10.6 13.9 -16.2 15.6 -24.6 22.9 -41.3 42.4 -66.4C356.6 88.7 453.1 33.5 556.9 33.5c11.7 0 23.5 .5 34.6 2.2C612.7 12.8 642.3 0 673 0c28.5 0 58 11.7 78.1 31.8 1.7 1.7 2.8 4.5 2.8 6.7 0 7.3 -20.1 26.2 -25.1 31.8 8.4 2.8 30.7 13.4 30.7 23.5 0 5.5 -5.6 10 -8.9 13.9 61.3 54.1 96.5 131.1 109.9 210.9 8.4 -10 20.1 -16.7 33.5 -16.7 20.6 0 40.7 13.9 55.8 27.3 40.7 36.3 50.2 103.8 50.2 155.7zM367.2 174.7c0 35.7 24.5 72.5 63 72.5 38.6 0 63.1 -36.8 63.1 -72.5 0 -35.2 -24.5 -72 -63.1 -72 -38.5 0 -63 36.8 -63 72zm97.1 204.2c0 -38.5 7.2 -76.4 16.7 -113.8C379.4 420.4 454.6 625.6 615.5 625.6c41.9 0 83.2 -15.1 117.2 -39.1 3.9 -14.5 7.3 -29 7.3 -44.1 0 -27.9 -12.3 -41.8 -40.2 -41.8 -9 0 -17.9 1.6 -26.3 3.3 -123.7 24.7 -209.2 7.2 -209.2 -125zm-80.4 497.8c0 -21.8 -17.3 -40.8 -39.6 -40.8s-39.1 19 -39.1 40.8v63.6c0 21.8 16.8 41.3 39.1 41.3s39.6 -19 39.6 -41.3v-63.6zm96 0c0 -21.8 -16.7 -40.8 -39.1 -40.8 -22.3 0 -39.6 19 -39.6 40.8v63.6c0 21.8 17.3 41.3 39.6 41.3 22.4 0 39.1 -19.5 39.1 -41.3v-63.6zm97.1 0c0 -21.8 -17.3 -40.8 -39.6 -40.8s-39.6 19 -39.6 40.8v63.6c0 21.8 17.3 41.3 39.6 41.3s39.6 -19 39.6 -41.3v-63.6zm97.1 0c0 -21.8 -17.3 -40.8 -39.6 -40.8s-39.6 19 -39.6 40.8v63.6c0 21.8 17.3 41.3 39.6 41.3s39.6 -19.5 39.6 -41.3v-63.6zM823.7 558.6C763.4 674.1 647.3 758.9 514 758.9 325.3 758.9 200.3 593.7 200.3 414.1c0 -33 3.9 -65.3 11.8 -97.1C173 382.8 154 458.7 154 534.6c0 117.7 48.6 237.7 139.5 314.2 10.1 -19 29 -31.8 50.8 -31.8 19.5 0 38 11.1 48 27.9C402.9 828.1 420.8 817 440.9 817c19.5 0 37.9 11.1 47.9 27.9C499.4 828.1 517.9 817 537.4 817s37.9 11.1 48.5 27.9C596 828.1 614.4 817 633.9 817c21.2 0 40.8 12.8 50.3 31.2C769 777.3 818.1 668.5 823.7 558.6zm20.6 -194.8c0 -104.9 -67.5 -206.4 -180.8 -206.4 -59.1 0 -114.4 29.5 -154 72C470.4 359 455.9 496.1 590.4 496.1c56.3 0 190.2 -55.7 164.6 72 56.4 -50.8 89.3 -128.4 89.3 -204.3z"/></svg>