<svg height="1000" width="1000" xmlns="http://www.w3.org/2000/svg"><path d="M931.3 39.8c96.4 79.5 82.2 209.6 14 277.8L448.8 812.3H253.7L79.9 986.1c-18.2 18.4 -47.9 18.4 -66.2 0C-4.7 968 -4.7 938.3 13.7 919.9L187.5 746.1V549L276 459.8l97.8 98c6.1 6.1 16 6.1 22.1 0L418 535.7c6 -6 6 -16 0 -22l-97.9 -98.1L408.2 327l98.2 98c6.1 6.1 16.1 6.1 22.1 0l22.1 -22.1c6 -6 6 -16 0 -22l-98.3 -98.5 88.1 -88.6 98.5 98.6c6 6 16 6 22 0L683 270.3c6.1 -6 6.1 -16 0 -22.1l-98.6 -98.6 89.2 -89.8c71.1 -71.3 184.4 -79.9 257.6 -20z"/></svg>