<svg height="1000" width="1000" xmlns="http://www.w3.org/2000/svg"><path d="M0 109.4C0 83.5 21 62.5 46.9 62.5h156.2c25.9 0 46.9 21 46.9 46.9v468.7C250 604 229 625 203.1 625H46.9C21 625 0 604 0 578.1V109.4zM78.1 500c0 25.9 21 46.9 46.9 46.9s46.9 -21 46.9 -46.9 -21 -46.9 -46.9 -46.9 -46.9 21 -46.9 46.9zm531.3 500c-39.4 0 -57.6 -76.7 -66.3 -112.9C532.9 844.8 522.4 801 493.5 772.1 430.1 708.6 396.8 627.6 319.5 551.2c-3.9 -3.8 -7 -11.3 -7 -16.7V117c0 -12.8 10.2 -23.2 23 -23.4C366.4 93 407.2 75.8 438.3 62 500.4 34.4 577.6 0 671.9 0h5.5C761 0 859.8 .8 899.6 58.1c16.4 23.5 20.4 52.8 12 87.2 31.9 33.3 49 95.4 32 146 34.3 45.7 37.4 109.6 18.2 155.2l.2 .2c23.3 23.3 38.2 61 38 96.1 -.3 59.3 -51.1 113.5 -116.3 113.5H685c14.3 55.3 65 101.8 65 184.6C750 984.4 656.2 1000 609.4 1000z"/></svg>