<svg height="1000" width="1000" xmlns="http://www.w3.org/2000/svg"><path d="M203.1 437.5c25.9 0 46.9 21 46.9 46.9v468.7c0 25.9 -21 46.9 -46.9 46.9H46.9C21 1000 0 979 0 953.1V484.4c0 -25.9 21 -46.9 46.9 -46.9h156.2zM125 921.9c25.9 0 46.9 -21 46.9 -46.9s-21 -46.9 -46.9 -46.9 -46.9 21 -46.9 46.9 21 46.9 46.9 46.9zM750 159.1c0 82.8 -50.7 129.3 -65 184.6h198.7c65.2 0 116 54.2 116.3 113.5 .2 35.1 -14.7 72.8 -38 96.1l-.2 .2C981 599.1 977.9 663 943.6 708.7c17 50.6 -.1 112.7 -32 146 8.4 34.4 4.4 63.7 -12 87.2C859.8 999.2 761 1000 677.4 1000h-5.5c-94.3 0 -171.5 -34.4 -233.6 -62C407.2 924.2 366.4 907 335.5 906.4c-12.8 -.2 -23 -10.6 -23 -23.4V465.5c0 -6.3 2.5 -12.3 6.9 -16.7C396.8 372.4 430.1 291.4 493.5 227.9c28.9 -28.9 39.4 -72.7 49.6 -115C551.8 76.7 570 0 609.4 0 656.3 0 750 15.6 750 159.1z"/></svg>