<svg height="1000" width="1000" xmlns="http://www.w3.org/2000/svg"><path d="M500 15.6c267.6 0 484.4 216.8 484.4 484.4S767.6 984.4 500 984.4 15.6 767.6 15.6 500 232.4 15.6 500 15.6zm237.5 611.5L609.4 500 737.7 373c9.2 -9.1 9.2 -24 0 -33.2l-77.3 -77.3c-9.2 -9.2 -24.1 -9.2 -33.3 0L500 390.6 373 262.3c-9.1 -9.2 -24 -9.2 -33.2 0l-77.3 77.3c-9.2 9.2 -9.2 24.1 0 33.3L390.6 500 262.5 627c-9.2 9.1 -9.2 24 0 33.2l77.2 77.3c9.1 9.2 24 9.2 33.2 0L500 609.4l127 128.1c9.1 9.2 24 9.2 33.2 0l77.3 -77.1c9.2 -9.2 9.2 -24.1 0 -33.3z"/></svg>