<svg height="1000" width="1250" xmlns="http://www.w3.org/2000/svg"><path d="M125 375c0 -21.1 1 -41.7 2.8 -61.9L745 790.2c-8.2 62.9 -25.2 112.7 -43.4 167.1 -7.8 23.6 -34.2 42.7 -59.1 42.7H93.8C76.6 999.9 62.7 985.9 62.7 968.7c0 -2.7 .7 -7.1 1.5 -9.7C106 833.7 125 791.5 125 711.2V375zm1112.9 519.7c6.7 5.2 12.1 16.2 12.1 24.7 0 5.9 -2.9 14.5 -6.6 19.2l-38.3 49.3c-5.2 6.7 -16.3 12.1 -24.7 12.1 -5.9 0 -14.5 -3 -19.2 -6.6L12.1 105.3C5.4 100.1 0 89.1 0 80.6 0 74.7 2.9 66.1 6.6 61.4L44.9 12.1C50.1 5.4 61.2 0 69.6 0c5.9 0 14.5 3 19.2 6.6L192.9 87C225.3 32.9 266.9 0 312.5 0h555.7C796.2 75.2 750 211.7 750 375v142.6l98.5 76.1C826.2 532 812.5 457 812.5 375 812.5 168 896.5 0 1000 0s187.5 168 187.5 375c0 180.3 -63.9 329.9 -148.8 365.8zM1000 500c34.4 0 62.5 -55.9 62.5 -125S1034.4 250 1000 250s-62.5 55.9 -62.5 125 28.1 125 62.5 125z"/></svg>