<svg height="1000" width="1125" xmlns="http://www.w3.org/2000/svg"><path d="M250 0h555.5c-71.8 75.2 -118 211.7 -118 375v336.1c0 104.8 -23.2 171 -48.3 246.2 -8.5 25.5 -32.4 42.7 -59.3 42.7H31.3C9.9 1000 -5.1 979.1 1.6 958.9 43.4 833.7 62.5 791.4 62.5 711.1V375C62.5 167.9 146.4 0 250 0zm-62.5 437.5c17.3 0 31.3 -14 31.3 -31.2S204.8 375 187.5 375s-31.2 14 -31.2 31.3 13.9 31.2 31.2 31.2zm125 0c17.3 0 31.3 -14 31.3 -31.2S329.8 375 312.5 375s-31.2 14 -31.2 31.3 13.9 31.2 31.2 31.2zm125 0c17.3 0 31.3 -14 31.3 -31.2S454.8 375 437.5 375s-31.2 14 -31.2 31.3 13.9 31.2 31.2 31.2zm125 0c17.3 0 31.3 -14 31.3 -31.2S579.8 375 562.5 375s-31.2 14 -31.2 31.3 13.9 31.2 31.2 31.2zM937.5 0C1041.1 0 1125 167.9 1125 375s-83.9 375 -187.5 375S750 582.1 750 375 833.9 0 937.5 0zm0 500c34.5 0 62.5 -56 62.5 -125S972 250 937.5 250 875 306 875 375s28 125 62.5 125z"/></svg>