<svg height="1000" width="750" xmlns="http://www.w3.org/2000/svg"><path d="M718.8 93.8h-31.3v306c39.5 19.7 62.5 43.4 62.5 68.9C750 600 682.4 715.2 580.5 782.2l41.8 137.1c12.3 40.1 -17.8 80.7 -59.8 80.7h-375c-42 0 -72.1 -40.6 -59.8 -80.7l41.8 -137.1C67.6 715.2 0 600 0 468.7c0 -25.5 23 -49.2 62.5 -68.9v-306H31.3C14.1 93.8 0 79.7 0 62.5V31.3C0 14.1 14.1 0 31.3 0h687.5C735.9 0 750 14.1 750 31.3v31.2c0 17.2 -14.1 31.3 -31.2 31.3zm-562.5 46.8v31.3c0 8.6 7 15.6 15.6 15.6h93.7c8.6 0 15.7 -7 15.7 -15.6v-31.3c0 -8.6 -7.1 -15.6 -15.7 -15.6h-93.7c-8.6 0 -15.6 7 -15.6 15.6zM375 531.3c150.6 0 272.7 -28 272.7 -62.5S525.6 406.3 375 406.3s-272.7 27.9 -272.7 62.5 122.1 62.5 272.7 62.5z"/></svg>