<svg height="1000" width="1000" xmlns="http://www.w3.org/2000/svg"><path d="M978.7 772.9c28.3 28.3 28.3 74.4 0 102.9L875.8 978.7c-28.3 28.5 -74.4 28.5 -102.9 0L544.1 750C499 704.9 490.4 637.5 517 583.2L308.8 375H187.5L0 125 125 0l250 187.5v121.3L583.2 517c54.3 -26.8 121.7 -18 166.8 27.1zM647.9 439.5c-16.1 0 -32.5 1.9 -48.3 5.6L439.3 284.8c-1.4 -73.3 24.8 -146.7 80.4 -202.4C592 10.2 693.9 -14.5 786.5 8.4c17.8 4.5 24 26.6 11.2 39.5L652.3 193.2l22.1 132.6 132.6 22L952.3 202.5c12.9 -12.9 35 -6.8 39.3 10.8 23 92.6 -1.6 194.5 -74 267 -25.4 25.4 -54.7 44.1 -85.6 57.6L794.1 500c-39 -39.1 -91 -60.5 -146.2 -60.5zm-203 160.1c-9.5 41.2 -5.1 83.6 9.8 122.5L213.3 963.5c-48.8 48.8 -127.9 48.8 -176.8 0s-48.8 -128 0 -176.8L334.2 488.9zM125 921.9c26 0 46.9 -21.1 46.9 -46.9 0 -26 -20.9 -46.9 -46.9 -46.9S78.1 849 78.1 875c0 25.8 21.1 46.9 46.9 46.9z"/></svg>