<svg height="1000" width="1000" xmlns="http://www.w3.org/2000/svg"><path d="M981.7 419.2c11.7 11.7 18.3 27.6 18.3 44.2V625H750v-31.2c0 -17.3 -14 -31.3 -31.2 -31.3h-62.5c-17.3 0 -31.3 14 -31.3 31.3V625H375v-31.2c0 -17.3 -14 -31.3 -31.2 -31.3h-62.5c-17.3 0 -31.3 14 -31.3 31.3V625H0V463.4c0 -16.6 6.6 -32.5 18.3 -44.2l88.4 -88.4a62.518 62.518 0 0 1 44.2 -18.3H250V156.3c0 -51.8 42 -93.8 93.8 -93.8h312.5c51.7 0 93.7 42 93.7 93.8v156.2h99.1c16.6 0 32.5 6.6 44.2 18.3zM625 312.5v-125H375v125h250zm125 406.3v-31.3h250V875c0 34.5 -28 62.5 -62.5 62.5h-875C28 937.5 0 909.5 0 875V687.5h250v31.3c0 17.2 14 31.2 31.3 31.2h62.5C361 750 375 736 375 718.8v-31.3h250v31.3c0 17.2 14 31.2 31.3 31.2h62.5C736 750 750 736 750 718.8z"/></svg>