<svg height="1000" width="875" xmlns="http://www.w3.org/2000/svg"><path d="M867.1 188c19.8 81.3 .9 157.8 -42 215.7 -45.6 61.6 -63.8 134.1 -70.9 209.6 -8.6 92.2 -20.2 184 -40.9 274.1l-15.2 66.3c-6.2 27.1 -30.3 46.3 -58 46.3 -27.2 0 -51 -18.7 -57.7 -45.2L515.1 684.4c-8.9 -35.7 -40.9 -60.8 -77.6 -60.8 -36.8 0 -68.8 25 -77.7 60.8l-67.3 270.4c-6.6 26.5 -30.4 45.2 -57.7 45.2 -27.7 0 -51.7 -19.2 -58 -46.3l-15.2 -66.3C140.9 797.2 129.3 705.5 120.7 613.3c-7 -75.5 -25.3 -148 -70.9 -209.6C7 345.8 -12 269.3 7.8 188 29.3 99.7 99.8 27.7 187.5 4.9 233.3 -7 277.6 3.9 318 25.1l196.3 126.2c15.3 9.9 34.5 4.2 43.2 -9.4 9.4 -14.5 5.1 -33.9 -9.4 -43.2L492.8 63.2c6.9 -3.5 14.2 -6.1 20.5 -10.7C564.4 14.9 624.6 -11.4 687.4 4.9 775.1 27.7 845.6 99.7 867.1 188z"/></svg>