<svg height="1000" width="1250" xmlns="http://www.w3.org/2000/svg"><path d="M625.1 715.8l-34.7 -57.9h69.3zM818.9 391.6l-36 60.2 -36 -60.2h72zM93.8 0c51.7 0 93.7 28 93.7 62.5v875c0 34.5 -42 62.5 -93.7 62.5S0 972 0 937.5v-875C0 28 42 0 93.8 0zm337.3 608.4l36 -60.2 36 60.2h-72zm315.9 0l35.9 -60.2 36.1 60.2h-72zM250 906.3V93.8h750v812.5H250zM380.4 363c-3 5.2 -5.4 14.3 -5.4 20.3 0 6.2 2.6 15.7 5.9 21l57.3 95.7 -57 95.4c-3.3 5.4 -6 14.9 -6 21.3 0 22.7 18.5 41.2 41.3 41.2h116.2l57.1 95.5c6.6 11 22.2 19.9 35 19.9h.2c13 0 28.9 -9.1 35.5 -20.3l56.9 -95.1H833.6c13.3 0 29.4 -9.4 36 -20.9 3 -5.2 5.4 -14.3 5.4 -20.3 0 -6.2 -2.6 -15.7 -5.9 -21L811.8 500l57.1 -95.4c3.2 -5.4 5.9 -14.9 5.9 -21.3 0 -22.7 -18.5 -41.2 -41.3 -41.2H717.3l-57.1 -95.4c-6.5 -11 -22.2 -20 -35 -20h-.2c-13 0 -28.9 9.1 -35.5 20.3l-56.9 95.1H416.4c-13.3 0 -29.4 9.4 -36 20.9zM1156.3 0c51.7 0 93.7 28 93.7 62.5v875c0 34.5 -42 62.5 -93.7 62.5s-93.8 -28 -93.8 -62.5v-875c0 -34.5 42 -62.5 93.8 -62.5zM625 284.2l34.5 57.9h-69.2zM503 391.7l-35.9 60.1 -36 -60.1H503zm57.8 216.8L495.9 500l64.8 -108.4h128.5L754.1 500l-64.8 108.5H560.8z"/></svg>