<svg height="1000" width="1000" xmlns="http://www.w3.org/2000/svg"><path d="M735.3 62.5C812.4 62.5 931 34.5 1000 0v187.5c0 34.5 -28 62.5 -62.5 62.5H875v125h93.8c17.2 0 31.2 14 31.2 31.3v62.5c0 17.2 -14 31.2 -31.2 31.2H875v468.8c0 17.2 -14 31.2 -31.2 31.2h-62.5C764 1000 750 986 750 968.8V500H250v468.8c0 17.2 -14 31.2 -31.2 31.2h-62.5C139 1000 125 986 125 968.8V500H31.3C14 500 0 486 0 468.8v-62.5C0 389 14 375 31.3 375H125V250H62.5C28 250 0 222 0 187.5V0c69 34.5 187.6 62.5 264.7 62.5h470.6zM250 250v125h187.5V250H250zm500 125V250H562.5v125H750z"/></svg>