<svg height="1000" width="968.8" xmlns="http://www.w3.org/2000/svg"><path d="M484.4 17.2C752 17.2 968.8 234 968.8 501.6S752 985.9 484.4 985.9 0 769.1 0 501.6 216.8 17.2 484.4 17.2zm0 943C737.7 960.2 943 754.9 943 501.6S737.7 43 484.4 43 25.8 248.2 25.8 501.6s205.3 458.6 458.6 458.6zM787.3 318.6v.2H502.7v67.9h162.7v91.8H502.7v382.4h-95.3V476.6H177.5l-71.6 -89.9h302.9V227.1h378.5v91.5zm-143.2 88H482.2V296.9h283.2v-47.7H429.9v157.4H148.8l39.3 46.7h241.8v385.6h52.3V453.3h161.9v-46.7zm-315 -134.7l43 -18.2 -30.9 35.4 30.7 35.3 -43.4 -18.5 -24 40 4.1 -46.9 -45.5 -10.5L309 277.9l-4.1 -46.5zm-57.8 -38.5l18.5 19.9L262.9 243l-13.3 23.8 1.6 -28.7 -26.8 -5.3 27.9 -7.4L249 198.2l15.6 24.3 24.9 -11.6zm323 283.6l-18.1 21.1 18.3 20.9 -25.6 -10.8 -14.2 23.9 2.3 -27.8 -27.1 -6.2 27.1 -6.3 -2.5 -27.7 14.3 23.8zM803.1 366.2l-29.3 34.4 29.5 33.2 -41.4 -17.2 -22.4 38.3 3.5 -44.7 -43.4 -9.6L743.2 390l-4.3 -44.3 23.4 38.3zM484.4 58.4c244.7 0 443.1 198.4 443.1 443.2S729.1 944.7 484.4 944.7 41.2 746.3 41.2 501.6 239.7 58.4 484.4 58.4zm184.7 324.4H506.6v-60.3h284.6v-99.1H404.9v159.4H97.5l78.1 97.5h227.9v384.3h102.9V482.4h162.7v-99.6zM484.4 84.4C299.6 84.4 142.8 204.7 88.1 371.1h307.4V211.7h388.9C708.6 133.2 602.1 84.4 484.4 84.4zm0 834.2c230.2 0 417 -186.8 416.8 -417C901.2 400.2 865 307.2 804.9 235v99.2H520.5v37.5H683v122.4H520.3v382.5H394.1V492.2h-224l-85.5 -110c-11.4 37.7 -17.4 78 -17.4 119.4 0 230.2 186.9 417 417.2 417zM349.2 537.1l44.4 -18.2 -33.1 33.4 30.9 36.8 -42 -21.1L324 608.8l7.2 -46.5 -46.4 -11.5 46.3 -7.6 -3.4 -47.9z"/></svg>