<svg height="1000" width="750" xmlns="http://www.w3.org/2000/svg"><path d="M750 375c0 81.5 -52.3 150.2 -125 176v74h125c0 83.7 -55.2 153.7 -130.8 177.8C594.9 915.5 494.9 1000 375 1000S155.1 915.5 130.8 802.8C55.2 778.7 0 708.7 0 625h125v-74C52.3 525.2 0 456.5 0 375h125v-74C52.3 275.2 0 206.5 0 125h125V62.5C125 28 153 0 187.5 0h375C597 0 625 28 625 62.5V125h125c0 81.5 -52.3 150.2 -125 176v74h125zM375 812.5c51.8 0 93.8 -42 93.8 -93.7S426.8 625 375 625s-93.7 42 -93.7 93.8 41.9 93.7 93.7 93.7zm0 -250c51.8 0 93.8 -42 93.8 -93.7S426.8 375 375 375s-93.7 42 -93.7 93.8 41.9 93.7 93.7 93.7zm0 -250c51.8 0 93.8 -42 93.8 -93.7S426.8 125 375 125s-93.7 42 -93.7 93.8 41.9 93.7 93.7 93.7z"/></svg>