<svg height="1000" width="875" xmlns="http://www.w3.org/2000/svg"><path d="M875 187.5v500C875 788.7 754.6 875 621.1 875l123 97.1c11.6 9.2 5 27.9 -9.7 27.9H140.6c-14.8 0 -21.2 -18.7 -9.7 -27.9L254 875C120.7 875 0 789 0 687.5v-500C0 83.9 125 0 250 0h375c127 0 250 83.9 250 187.5zm-93.7 265.6V234.4c0 -25.9 -21 -46.9 -46.9 -46.9H140.6c-25.9 0 -46.8 21 -46.8 46.9v218.7c0 25.9 20.9 46.9 46.8 46.9h593.8c25.9 0 46.9 -21 46.9 -46.9zm-343.8 125c-60.4 0 -109.4 49 -109.4 109.4s49 109.4 109.4 109.4 109.4 -49 109.4 -109.4S497.9 578.1 437.5 578.1z"/></svg>