<svg height="1000" width="1250" xmlns="http://www.w3.org/2000/svg"><path d="M1218.8 625c17.2 0 31.2 14 31.2 31.3v62.5c0 17.2 -14 31.2 -31.2 31.2H559.4C544.1 644.1 453.9 562.5 343.8 562.5S143.4 644.1 128.1 750H31.2C14 750 0 736 0 718.8V156.3C0 139 14 125 31.2 125h1000c17.3 0 31.3 14 31.3 31.3V625h156.2zM187.5 475.9V265.6c0 -8.6 -7 -15.6 -15.6 -15.6h-31.3c-8.6 0 -15.6 7 -15.6 15.6v250.8c16 -13.1 44 -31.2 62.5 -40.5zM375 439.7V265.6C375 257 368 250 359.4 250h-31.3c-8.6 0 -15.6 7 -15.6 15.6v174.1c10.4 -.9 20.6 -2.2 31.3 -2.2s20.8 1.3 31.2 2.2zm187.5 76.7V265.6c0 -8.6 -7 -15.6 -15.6 -15.6h-31.3c-8.6 0 -15.6 7 -15.6 15.6v210.3c18.5 9.3 46.5 27.4 62.5 40.5zM750 625V265.6C750 257 743 250 734.4 250h-31.3c-8.6 0 -15.6 7 -15.6 15.6V625H750zm187.5 0V265.6c0 -8.6 -7 -15.6 -15.6 -15.6h-31.3c-8.6 0 -15.6 7 -15.6 15.6V625h62.5zm-593.7 0C430 625 500 695 500 781.3S430 937.5 343.8 937.5 187.5 867.5 187.5 781.3 257.5 625 343.8 625zm0 218.8c34.5 0 62.5 -28 62.5 -62.5s-28 -62.5 -62.5 -62.5 -62.5 27.9 -62.5 62.5 27.9 62.5 62.5 62.5z"/></svg>