<svg height="1000" width="1000" xmlns="http://www.w3.org/2000/svg"><path d="M562.5 125C527.9 125 500 97.1 500 62.5S527.9 0 562.5 0 625 27.9 625 62.5 597.1 125 562.5 125zM999 101.4c4.3 16.6 -5.4 33.8 -22.2 38.2L531.2 258.4v179.1H875c34.6 0 62.5 27.9 62.5 62.5v437.5c0 34.6 -27.9 62.5 -62.5 62.5H125c-34.6 0 -62.5 -27.9 -62.5 -62.5V500c0 -34.6 27.9 -62.5 62.5 -62.5h343.7V275L39.3 389.6c-2.6 .6 -5.3 1 -8.1 1 -13.8 0 -26.3 -9.2 -30 -23 -4.5 -16.8 5.4 -33.8 22 -38.3l937.5 -250c16.8 -4.5 33.8 5.3 38.3 22.1zM343.8 750V562.5H156.3V750h187.5zM656.3 562.5V750h187.5V562.5H656.3zm-62.5 0H406.3V750h187.5V562.5zM375 187.5c-34.6 0 -62.5 -27.9 -62.5 -62.5S340.4 62.5 375 62.5s62.5 27.9 62.5 62.5 -27.9 62.5 -62.5 62.5z"/></svg>