<svg height="1000" width="937.5" xmlns="http://www.w3.org/2000/svg"><path d="M914.1 0c12.9 0 23.4 10.5 23.4 23.4v154.3c0 20.9 -25.2 31.5 -40 16.6l-33 -33L706.8 318.9c27.4 43.4 43.2 94.8 43.2 149.9C750 602.5 656.4 714.5 531.2 743v53.9h70.4c12.9 0 23.4 10.5 23.4 23.4v78.1c0 12.9 -10.5 23.5 -23.4 23.5h-70.4v54.7c0 12.9 -10.5 23.4 -23.4 23.4h-78.1c-12.9 0 -23.5 -10.5 -23.5 -23.4v-54.7h-70.3c-12.9 0 -23.4 -10.6 -23.4 -23.5v-78.1c0 -12.9 10.5 -23.4 23.4 -23.4h70.3V743C281.1 714.6 187.5 602.5 187.5 468.8c0 -55.1 15.8 -106.5 43.4 -149.7l-32.3 -32.2L160 325.6c-9.2 9.2 -24.1 9.2 -33.2 0L71.5 270.3c-9.2 -9.2 -9.2 -24 0 -33.2l38.7 -38.7L73 161.3l-33 33C25.2 209 0 198.6 0 177.7V23.4C0 10.5 10.5 0 23.4 0h154.3c20.9 0 31.5 25.2 16.4 39.8l-33 33.1 37.1 37.1 38.7 -38.7c9.2 -9.2 24 -9.2 33.2 0l55.3 55.3c9.2 9.1 9.2 24 0 33.2l-38.7 38.6 32.2 32.3c43.4 -27.4 94.8 -43.2 149.8 -43.2s106.5 15.8 149.9 43.2L776.2 73l-33 -33C728.5 25.2 738.9 0 759.8 0h154.3zM468.8 625C554.9 625 625 554.9 625 468.8S554.9 312.5 468.8 312.5 312.5 382.6 312.5 468.8 382.6 625 468.8 625z"/></svg>