<svg height="1000" width="750" xmlns="http://www.w3.org/2000/svg"><path d="M726.6 0C739.5 0 750 10.5 750 23.4v154.3c0 20.9 -25.2 31.5 -40 16.6l-33 -33L519.3 318.9c27.4 43.4 43.2 94.8 43.2 149.9 0 133.7 -93.6 245.7 -218.8 274.2v53.9h70.4c12.9 0 23.4 10.5 23.4 23.4v78.1c0 12.9 -10.5 23.5 -23.4 23.5h-70.4v54.7c0 12.9 -10.5 23.4 -23.4 23.4h-78.1c-12.9 0 -23.5 -10.5 -23.5 -23.4v-54.7h-70.3c-12.9 0 -23.4 -10.6 -23.4 -23.5v-78.1c0 -12.9 10.5 -23.4 23.4 -23.4h70.3V743C93.6 714.6 0 602.5 0 468.8 0 313.5 126 187.5 281.2 187.5c55.1 0 106.5 15.8 149.9 43.2L588.7 73l-33 -33C541 25.2 551.4 0 572.3 0h154.3zM281.3 625c86.1 0 156.2 -70.1 156.2 -156.2S367.4 312.5 281.3 312.5 125 382.6 125 468.8 195.1 625 281.3 625z"/></svg>