<svg height="1000" width="875" xmlns="http://www.w3.org/2000/svg"><path d="M62.5 906.3V250h750v656.3c0 51.7 -42 93.7 -93.7 93.7H156.3c-51.8 0 -93.8 -42 -93.8 -93.7zm531.3 -500v437.5c0 17.2 13.9 31.2 31.2 31.2s31.3 -14 31.3 -31.2V406.3C656.3 389 642.3 375 625 375s-31.2 14 -31.2 31.3zm-187.5 0v437.5c0 17.2 13.9 31.2 31.2 31.2s31.3 -14 31.3 -31.2V406.3c0 -17.3 -14 -31.3 -31.3 -31.3s-31.2 14 -31.2 31.3zm-187.5 0v437.5c0 17.2 13.9 31.2 31.2 31.2s31.3 -14 31.3 -31.2V406.3C281.3 389 267.3 375 250 375s-31.2 14 -31.2 31.3zm625 -343.8c17.2 0 31.2 14 31.2 31.3v62.5c0 17.2 -14 31.2 -31.2 31.2H31.3C14 187.5 0 173.5 0 156.3V93.8C0 76.5 14 62.5 31.3 62.5h234.3L284 26C291 11.6 309.6 0 325.6 0H549.1c16 0 34.8 11.6 41.9 26l18.4 36.5h234.4z"/></svg>