<svg height="1000" width="875" xmlns="http://www.w3.org/2000/svg"><path d="M103.9 912.1L62.5 250h750l-41.4 662.1c-3 48.5 -45 87.9 -93.6 87.9h-480c-48.6 0 -90.6 -39.4 -93.6 -87.9zM240.8 568.8c-19.6 20.7 -5.7 56.2 22.1 56.2H375v218.7c0 17.3 14 31.3 31.3 31.3h62.5C486 875 500 861 500 843.7V625h112.1c27.8 0 41.7 -35.5 22.1 -56.2L459.6 384.6c-4.9 -5.3 -14.8 -9.6 -22.1 -9.6s-17.2 4.3 -22.1 9.6zm603 -506.3c17.2 0 31.2 14 31.2 31.3v62.5c0 17.2 -14 31.2 -31.2 31.2H31.3C14 187.5 0 173.5 0 156.3V93.8C0 76.5 14 62.5 31.3 62.5h234.3L284 26C291 11.6 309.6 0 325.6 0H549.1c16 0 34.8 11.6 41.9 26l18.4 36.5h234.4z"/></svg>