<svg height="1000" width="875" xmlns="http://www.w3.org/2000/svg"><path d="M766.2 62.5c60.2 .4 108.8 49.2 108.6 109.4v656.2c0 60.2 -48.6 109 -108.8 109.4H109.4C49 937.5 0 888.5 0 828.1 0 164.1 -.2 171.9 0 171.9 0 111.5 49 62.5 109.6 62.5h656.6zM384.8 725.2h.2V228.7c0 -29.1 -23.7 -52.5 -52.6 -52.5H170.5c-29.1 0 -52.5 23.6 -52.5 52.5v496.5c.2 28.9 23.8 52.1 52.7 51.9h161.5c28.9 0 52.2 -23.2 52.6 -51.9zM761.9 506.4V228.9c0 -29.1 -23.6 -52.5 -52.5 -52.5H551c-28.9 0 -52.4 23.6 -52.4 52.5v277.5c0 29.1 23.7 52.6 52.6 52.6h158.2c29.1 0 52.5 -23.6 52.5 -52.6z"/></svg>