<svg height="1000" width="1125" xmlns="http://www.w3.org/2000/svg"><path d="M325 547.9c0 25.8 -21 46.8 -46.8 46.8 -25.9 0 -46.8 -21 -46.8 -46.8 0 -25.9 20.9 -46.8 46.8 -46.8 25.8 0 46.8 20.9 46.8 46.8zm517.5 -46.8c25.8 0 46.8 20.9 46.8 46.8 0 25.8 -21 46.8 -46.8 46.8 -25.8 0 -46.8 -21 -46.8 -46.8 0 -25.8 21 -46.8 46.8 -46.8zm174.6 272.4C894.7 869.5 717.7 848 621.8 725.6l-60.5 90.5 -59.9 -89.8c-94.3 118 -264.9 140.4 -386.5 50.9C-10.2 685.1 -37 509 55.1 383.9 45.2 350.5 20.5 300.5 0 272.3l176.3 -.1C270.1 213.9 435.8 166.5 546.2 166.5c4.2 0 10.9 .1 15 .2 3.4 -.1 8.9 -.1 12.2 -.1 108.5 0 271.2 46.7 363.2 104.3l187.9 .1c-20.7 28.4 -45.5 78.8 -55.4 112.6 91.4 122.6 68.3 295.7 -52 389.9zM506.6 550.3C506.6 426.2 405.9 325.6 281.8 325.6 157.6 325.6 57 426.2 57 550.4c.1 124.1 100.7 224.7 224.8 224.7C405.9 775 506.4 674.4 506.6 550.4v-.1zm55.8 -20.4C573 386.5 690.4 274.3 834.1 270.1c-69.4 -30 -187.2 -54.4 -262.8 -54.4 -2.8 0 -7.3 0 -10.1 .1 -1.8 -.1 -4.9 -.1 -6.7 -.1 -76.6 0 -196.3 23.9 -267 53.3 145.2 3.1 264.2 116.1 274.9 260.9zM1054 473.7C1011.1 357.2 881.8 297.6 765.4 340.6 648.9 383.5 589.3 512.8 632.2 629.3c43.1 116.4 172.3 176 288.8 133 116.4 -42.9 176 -172.1 133 -288.6zm-636.8 74.2v.2c-.1 76.8 -62.4 139 -139.3 138.9C201.1 686.9 139 624.5 139.1 547.7s62.4 -139 139.3 -138.9c76.6 .2 138.7 62.4 138.8 139.1zm-47.8 0v-.2c-.1 -50.3 -41 -91.1 -91.4 -91s-91.1 41 -91 91.4c.1 50.3 41 91.1 91.4 91 50.2 -.2 90.8 -41 91 -91.2zm612.1 0c0 76.8 -62.3 139.1 -139.1 139.1C765.5 686.9 703.3 624.6 703.3 547.8c.1 -76.8 62.4 -139 139.2 -139 76.7 .1 138.9 62.3 139 139.1zm-47.8 0c-.1 -50.4 -40.9 -91.2 -91.3 -91.2s-91.1 40.9 -91.1 91.2 40.8 91.2 91.2 91.2c50.3 -.1 91.1 -40.9 91.2 -91.2z"/></svg>