<svg height="1000" width="1250" xmlns="http://www.w3.org/2000/svg"><path d="M1218.8 562.5c17.2 0 31.2 14 31.2 31.3v62.5c0 17.2 -14 31.2 -31.2 31.2h-96.9c1.5 10.3 3.1 20.5 3.1 31.3 0 120.8 -97.9 218.7 -218.7 218.7 -120.9 0 -218.8 -97.9 -218.8 -218.7 0 -10.8 1.7 -21 3.2 -31.3H559.4c1.4 10.3 3.1 20.5 3.1 31.3 0 120.8 -97.9 218.7 -218.8 218.7S125 839.6 125 718.8c0 -10.8 1.7 -21 3.1 -31.3H31.2C14 687.5 0 673.5 0 656.3v-62.5c0 -17.3 14 -31.3 31.2 -31.3h31.3v-125C62.5 403 90.5 375 125 375h312.5V125c0 -34.5 28 -62.5 62.5 -62.5h221.2c33.1 0 76.9 21 97.6 46.9L1031.2 375h93.8c34.5 0 62.5 28 62.5 62.5v125h31.2zm-656.3 -375V375h308.7l-150 -187.5H562.5zm-218.7 625c51.6 0 93.7 -42.1 93.7 -93.7S395.4 625 343.8 625 250 667.1 250 718.8s42.1 93.7 93.8 93.7zm562.5 0c51.6 0 93.7 -42.1 93.7 -93.7S957.9 625 906.3 625s-93.8 42.1 -93.8 93.8 42.1 93.7 93.8 93.7z"/></svg>