<svg height="1000" width="1250" xmlns="http://www.w3.org/2000/svg"><path d="M1218.8 437.5c17.2 0 31.2 14 31.2 31.3v62.5c0 17.2 -14 31.2 -31.2 31.2h-32.7c-57 -75.5 -146.7 -125 -248.6 -125S746 487 688.9 562.5H561.1C504 487 414.4 437.5 312.5 437.5S121 487 63.9 562.5H31.3C14 562.5 0 548.5 0 531.3v-62.5c0 -17.3 14 -31.3 31.3 -31.3h31.2V281.3C62.5 264 76.5 250 93.8 250h343.7V62.5C437.5 28 465.5 0 500 0h221.2c33.1 0 76.9 21 97.6 46.9L981.3 250H1125c34.5 0 62.5 28 62.5 62.5v125h31.3zM562.5 250h258.7l-100 -125H562.5v125zm593.8 437.5c17.2 0 31.2 14 31.2 31.3v62.5c0 17.2 -13.9 31.2 -31.2 31.2h-10.2c-3.5 11.7 -11 30 -16.9 40.8l7.2 7.2c12.2 12.2 12.2 32 0 44.2l-44.2 44.2c-12.2 12.2 -32 12.2 -44.2 0l-7.2 -7.2c-12.9 7 -26.5 12.6 -40.8 16.9v10.2c0 17.2 -14 31.2 -31.2 31.2h-62.5C889 1000 875 986 875 968.8v-10.2c-14.3 -4.3 -27.9 -9.9 -40.8 -16.9l-7.2 7.2c-12.2 12.2 -32 12.2 -44.2 0l-44.2 -44.2c-12.2 -12.2 -12.2 -32 0 -44.2l7.2 -7.2c-7 -12.9 -12.6 -26.5 -16.9 -40.8h-10.2c-17.2 0 -31.2 -14 -31.2 -31.2v-62.5c0 -17.3 14 -31.3 31.2 -31.3h10.2c3.5 -11.7 11.1 -30 16.9 -40.8l-7.2 -7.2c-12.2 -12.2 -12.2 -32 0 -44.2l44.2 -44.2c12.2 -12.2 32 -12.2 44.2 0l7.2 7.2c12.9 -7 26.5 -12.6 40.8 -16.9v-10.2C875 514 889 500 906.2 500h62.5c17.3 0 31.3 14 31.3 31.2v10.2c11.7 3.5 30 11.1 40.8 16.9l7.2 -7.2c12.2 -12.2 32 -12.2 44.2 0l44.2 44.2c12.2 12.2 12.2 32 0 44.2l-7.2 7.2c7 12.9 12.6 26.5 16.9 40.8h10.1zM937.5 843.8c51.8 0 93.8 -42 93.8 -93.8s-42 -93.7 -93.8 -93.7 -93.7 41.9 -93.7 93.7 41.9 93.8 93.7 93.8zM531.3 687.5c17.2 0 31.2 14 31.2 31.2v62.5c0 17.3 -13.9 31.3 -31.2 31.3h-10.2c-3.5 11.7 -11 30 -16.9 40.8l7.2 7.1c12.2 12.3 12.2 32 0 44.2l-44.2 44.2c-12.2 12.3 -32 12.3 -44.2 0l-7.2 -7.1c-12.9 7 -26.5 12.6 -40.8 16.9v10.1c0 17.3 -14 31.3 -31.2 31.3h-62.5C264 1000 250 986 250 968.7v-10.1c-14.3 -4.3 -27.9 -9.9 -40.8 -16.9l-7.2 7.1c-12.2 12.3 -32 12.3 -44.2 0l-44.2 -44.2c-12.2 -12.2 -12.2 -31.9 0 -44.2l7.2 -7.1c-7 -12.9 -12.6 -26.5 -16.9 -40.8H93.7c-17.2 0 -31.2 -14 -31.2 -31.3v-62.5c0 -17.2 14 -31.2 31.2 -31.2h10.2c3.5 -11.8 11.1 -30 16.9 -40.8l-7.2 -7.2c-12.2 -12.2 -12.2 -32 0 -44.2l44.2 -44.2c12.2 -12.2 32 -12.2 44.2 0l7.2 7.2c12.9 -7 26.5 -12.6 40.8 -16.9v-10.2C250 514 264 500 281.2 500h62.5c17.3 0 31.3 14 31.3 31.2v10.2c11.7 3.5 30 11.1 40.8 16.9l7.2 -7.2c12.2 -12.2 32 -12.2 44.2 0l44.2 44.2c12.2 12.2 12.2 32 0 44.2l-7.2 7.2c7 12.9 12.6 26.5 16.9 40.8h10.1zM312.5 843.8c51.8 0 93.8 -42 93.8 -93.8s-42 -93.7 -93.8 -93.7 -93.7 41.9 -93.7 93.7 41.9 93.8 93.7 93.8z"/></svg>