<svg height="1000" width="1000" xmlns="http://www.w3.org/2000/svg"><path d="M10.5 202.8c270.6 -270.6 708.8 -270.2 979 0 11.9 11.8 13.8 30.2 5.1 44.3l-84.4 135c-5.8 9.3 -19.5 16.8 -30.4 16.8 -3.8 0 -9.8 -1.1 -13.3 -2.5L697.7 328.9c-12.4 -5 -22.5 -19.9 -22.5 -33.3 0 -1 .1 -2.6 .2 -3.5L687 175.8c-121.4 -43.9 -255.2 -43 -374 0l11.6 116.3c.1 .9 .2 2.5 .2 3.5 0 13.4 -10.1 28.3 -22.5 33.3l-168.8 67.5c-3.5 1.4 -9.5 2.5 -13.3 2.5 -10.9 0 -24.6 -7.5 -30.4 -16.8L5.4 247.1C2.4 242.3 0 233.8 0 228.1c0 -8.2 4.7 -19.5 10.5 -25.3zm177 398.8c0 12.9 -10.5 23.4 -23.4 23.4H85.9C73 625 62.5 614.5 62.5 601.6v-78.2C62.5 510.5 73 500 85.9 500h78.2c12.9 0 23.4 10.5 23.4 23.4v78.2zm187.5 0c0 12.9 -10.5 23.4 -23.4 23.4h-78.2C260.5 625 250 614.5 250 601.6v-78.2c0 -12.9 10.5 -23.4 23.4 -23.4h78.2c12.9 0 23.4 10.5 23.4 23.4v78.2zm187.5 0c0 12.9 -10.5 23.4 -23.4 23.4h-78.2c-12.9 0 -23.4 -10.5 -23.4 -23.4v-78.2c0 -12.9 10.5 -23.4 23.4 -23.4h78.2c12.9 0 23.4 10.5 23.4 23.4v78.2zm187.5 0c0 12.9 -10.5 23.4 -23.4 23.4h-78.2C635.5 625 625 614.5 625 601.6v-78.2c0 -12.9 10.5 -23.4 23.4 -23.4h78.2c12.9 0 23.4 10.5 23.4 23.4v78.2zm187.5 0c0 12.9 -10.5 23.4 -23.4 23.4h-78.2c-12.9 0 -23.4 -10.5 -23.4 -23.4v-78.2c0 -12.9 10.5 -23.4 23.4 -23.4h78.2c12.9 0 23.4 10.5 23.4 23.4v78.2zM281.3 789.1c0 12.9 -10.5 23.4 -23.5 23.4h-78.1c-13 0 -23.4 -10.5 -23.4 -23.4v-78.2c0 -12.9 10.4 -23.4 23.4 -23.4h78.1c13 0 23.5 10.5 23.5 23.4v78.2zm187.5 0c0 12.9 -10.5 23.4 -23.5 23.4h-78.1c-13 0 -23.4 -10.5 -23.4 -23.4v-78.2c0 -12.9 10.4 -23.4 23.4 -23.4h78.1c13 0 23.5 10.5 23.5 23.4v78.2zm187.5 0c0 12.9 -10.5 23.4 -23.5 23.4h-78.1c-13 0 -23.4 -10.5 -23.4 -23.4v-78.2c0 -12.9 10.4 -23.4 23.4 -23.4h78.1c13 0 23.5 10.5 23.5 23.4v78.2zm187.5 0c0 12.9 -10.5 23.4 -23.5 23.4h-78.1c-13 0 -23.4 -10.5 -23.4 -23.4v-78.2c0 -12.9 10.4 -23.4 23.4 -23.4h78.1c13 0 23.5 10.5 23.5 23.4v78.2zM187.5 976.6c0 12.9 -10.5 23.4 -23.4 23.4H85.9C73 1000 62.5 989.5 62.5 976.6v-78.2C62.5 885.5 73 875 85.9 875h78.2c12.9 0 23.4 10.5 23.4 23.4v78.2zm562.5 0c0 12.9 -10.5 23.4 -23.4 23.4H273.4C260.5 1000 250 989.5 250 976.6v-78.2c0 -12.9 10.5 -23.4 23.4 -23.4h453.2c12.9 0 23.4 10.5 23.4 23.4v78.2zm187.5 0c0 12.9 -10.5 23.4 -23.4 23.4h-78.2c-12.9 0 -23.4 -10.5 -23.4 -23.4v-78.2c0 -12.9 10.5 -23.4 23.4 -23.4h78.2c12.9 0 23.4 10.5 23.4 23.4v78.2z"/></svg>