<svg height="1000" width="625" xmlns="http://www.w3.org/2000/svg"><path d="M605.1 938.1c-26.6 28.3 -97.7 61.9 -190.3 61.9C178.9 1000 127.7 826.6 127.7 725.4V444.1H35c-10.8 0 -19.6 -8.7 -19.6 -19.5V291.8c0 -14.1 8.8 -26.6 22.1 -31.3C158.6 218 196.7 112.1 202.1 31.8 203.7 10.3 214.8 0 233.6 0h138.5c10.7 0 19.5 8.8 19.5 19.5v225h162.1c10.8 0 19.5 8.6 19.5 19.4v159.5c0 10.8 -8.7 19.6 -19.5 19.6H390.8v260.1c0 66.8 46.3 104.7 132.8 69.9 9.4 -3.7 17.6 -6.2 24.8 -4.3 6.9 1.8 11.4 6.7 14.5 15.5l43 125.6c3.5 9.7 6.4 20.7 -.8 28.3z"/></svg>