<svg height="1000" width="1000" xmlns="http://www.w3.org/2000/svg"><path d="M897.2 296.3c.6 8.9 .6 17.8 .6 26.7 0 270.9 -206.2 583.1 -583.1 583.1 -116.1 0 -224 -33.6 -314.7 -92 16.5 1.9 32.4 2.5 49.5 2.5 95.8 0 184 -32.3 254.4 -87.5 -90.1 -1.9 -165.6 -61 -191.6 -142.2 12.7 1.9 25.4 3.2 38.7 3.2 18.4 0 36.8 -2.5 53.9 -7C111 564.1 40.6 481.6 40.6 382v-2.6c27.3 15.3 59 24.8 92.6 26.1C78 368.7 41.9 305.8 41.9 234.8c0 -38.1 10.1 -73 27.9 -103.5 100.9 124.4 252.5 205.6 422.6 214.5 -3.2 -15.2 -5.1 -31.1 -5.1 -46.9 0 -113 91.4 -205 205 -205 59 0 112.3 24.8 149.7 64.7 46.3 -8.9 90.7 -26 130.1 -49.5 -15.3 47.6 -47.6 87.6 -90.1 113 41.2 -4.5 81.2 -15.9 118 -31.7C972.1 231 937.2 267.1 897.2 296.3z"/></svg>