<svg height="1000" width="875" xmlns="http://www.w3.org/2000/svg"><path d="M781.3 62.5c51.7 0 93.7 42 93.7 93.8v687.5c0 51.7 -42 93.7 -93.7 93.7H93.8C42 937.5 0 895.5 0 843.8V156.3C0 104.5 42 62.5 93.8 62.5h687.5zm-95.6 310.2c25 -18.2 46.9 -40.9 64.3 -66.4 -23 9.9 -48 17.1 -73.8 19.9 26.5 -15.8 46.7 -40.8 56.2 -70.5 -24.6 14.6 -52.3 25.4 -81.2 30.8 -23.5 -25 -56.7 -40.4 -93.6 -40.4 -78.1 0 -143.1 70.5 -125 157.4 -106.2 -5.5 -201 -56.2 -264 -134 -11.2 19 -17.4 40.9 -17.4 64.7v.2c0 37.8 25.5 85.5 57 106.4 -20.9 -.8 -40.8 -6.6 -57.8 -16.2v1.6c0 62.3 43.9 113.8 102.5 125.8 -20.3 5.2 -38.1 5.2 -57.8 2.3 16.2 50.8 63.5 87.7 119.7 88.9 -43.9 34.3 -99 54.7 -158.9 54.7 -10.6 0 -20.5 -.4 -30.9 -1.6 56.6 36.3 124 57.4 196.7 57.4 235.5 0 364.4 -195.1 364.4 -364.4 0 -5.5 0 -11.2 -.4 -16.6z"/></svg>