<svg height="1000" width="875" xmlns="http://www.w3.org/2000/svg"><path d="M808.8 62.5c36.5 0 66.2 29.7 66 66.2v742.6c0 36.5 -29.7 66.2 -66.2 66.2H66.2C29.7 937.5 0 907.8 0 871.1V128.7C0 92.2 29.7 62.5 66.2 62.5h742.6zM464.1 763.9C609.8 749.2 716 619.1 701.4 473.6 687.7 338.1 573.6 235 437.5 235S187.3 338.1 173.6 473.6H358v-39.8c0 -7.4 6.1 -13.3 13.3 -13.3h132.6c7.4 0 13.3 6.1 13.3 13.3v132.6c0 7.4 -6.1 13.3 -13.3 13.3H371.3c-7.4 0 -13.3 -6.1 -13.3 -13.3v-39.8H173.6c14.7 145.7 144.8 251.9 290.5 237.3z"/></svg>