<svg height="1000" width="968.8" xmlns="http://www.w3.org/2000/svg"><path d="M484.4 15.6C752 15.6 968.8 232.4 968.8 500S752 984.4 484.4 984.4 0 767.6 0 500 216.8 15.6 484.4 15.6zm102.9 181.7c-17.2 29.7 -7 67.7 22.9 85.1 29.6 17.2 67.7 6.9 84.9 -22.8 17.2 -29.9 7 -68 -22.8 -85.2 -29.7 -17.2 -67.8 -6.8 -85 22.9zm-416.6 365c34.4 0 62.3 -27.9 62.3 -62.3s-27.9 -62.3 -62.3 -62.3 -62.3 27.9 -62.3 62.3 27.9 62.3 62.3 62.3zm54.9 6.1c17 63.8 56.8 118.5 110.3 154.3l46.3 -77.4c-100.6 -70.9 -100.6 -219.7 0 -290.6l-46.3 -77.4c-53.5 36 -93.5 90.5 -110.3 154.5 43.7 35.2 43.5 101.6 0 136.6zm446.7 257.2c29.8 -17.2 40 -55.3 22.8 -85.2 -17.2 -29.9 -55.3 -40 -84.9 -22.8 -29.9 17.2 -40.1 55.3 -22.9 85.1s55.1 40.1 85 22.9zm.6 -135.8c44.9 -44.7 74.2 -105.2 78.7 -172.6l-90.1 -1.4C650.8 638.3 521.1 712.9 409.8 661.1l-44 78.7c93.4 46.3 178.7 21.1 188.9 18.4 8.6 -55.5 66 -88.5 118.2 -68.4zM661.3 484.2l89.9 -1.2C746.9 415.4 717.8 354.9 672.7 310.2 620.5 330.3 563.1 297.1 554.5 241.8c-10.2 -2.7 -95.3 -27.9 -188.9 18.4l44 78.7c112.5 -52.4 241.2 24.2 251.7 145.3z"/></svg>