<svg height="1000" width="1250" xmlns="http://www.w3.org/2000/svg"><path d="M225.4 267.4c-19.7 -7.2 -27.6 -31.9 -14.5 -48.3C327.6 72.9 509 -8.8 696.3 .7 593.2 58.2 493.5 180.7 424.8 340zm258.3 94C570.5 162.3 707.8 27.2 821.1 27.2c15.5 0 30.6 2.5 45.1 7.8 119.8 43.6 153.1 259 83.2 496zm534.8 -243.2c149.5 113.1 235.9 292.3 231.3 479.2 -.5 21 -22.4 34.8 -42.1 27.7l-200.4 -73c34.2 -114.8 48.2 -228.7 37 -326.1 -4.6 -40.3 -13.6 -76 -25.8 -107.8zm75.3 756.8c17.2 0 31.2 13.9 31.2 31.2v62.5c0 17.3 -14 31.3 -31.2 31.3H31.3C14 1000 0 986 0 968.7v-62.5c0 -17.3 14 -31.3 31.3 -31.3h462.8L636.4 483.6l117.5 42.8L627.1 875h466.6z"/></svg>