<svg height="1000" width="996.1" xmlns="http://www.w3.org/2000/svg"><path d="M498.7 15.6C766.3 16 982.8 233 982.4 500.5 982.1 768.1 765.3 984.3 498 984.3 230.5 984.1 13.5 767 13.7 499.4 13.9 231.9 231.2 15.3 498.7 15.6zm283.2 519.6c.6 -8.5 1 -22.2 1 -30.6 0 -8.2 -.4 -21.3 -.9 -29.5 -.7 -23.7 -3.9 -62.1 -7.1 -85.7 -3.6 -25.8 -6.9 -43.7 -10.5 -62.5 -2 -9.5 -2.5 -12.5 -3.6 -16.5 -.9 -4.2 -5.2 -7.6 -9.5 -7.6h-1.7l-62.5 9.8c-4.5 .7 -8.2 5.1 -8.2 9.6 0 .1 0 .1 0 .2 0 .2 0 .5 0 .7s0 .6 0 .8l3.3 17.1c3.2 17.3 6.4 39.3 9.6 65.8 2.6 22.6 4.9 59.5 5.1 82.3 .5 52.6 -4.8 91.5 -15.9 116.8 -9.8 22.2 -37.1 44.3 -60.8 49.3 -26.8 5.6 -70.8 10.2 -98.2 10.2 -3.8 0 -9.9 0 -13.7 -.2h-20c-3.9 .2 -10.1 .2 -13.9 .2 -27.4 0 -71.3 -4.5 -98.1 -10.2C352.4 650.3 325 628.3 315.1 606 304.2 580.8 298.9 541.8 299.3 489.2c.1 -22.8 2.4 -59.7 5.1 -82.4 3.2 -26.6 6.3 -48.5 9.5 -65.7l3.3 -17.2c0 -.2 0 -.5 0 -.7s0 -.6 0 -.8c0 -4.6 -3.7 -8.9 -8.1 -9.8l-62.5 -9.7h-1.4c-4.3 0 -8.5 3.4 -9.6 7.6 -1 3.9 -1.6 6.9 -3.5 16.5 -3.6 18.4 -6.9 36.3 -10.6 62.5 -3.1 23.5 -6.3 61.9 -7 85.7 -.6 8.3 -1 21.7 -1 30s.4 21.7 1 30c1.5 52.9 10.6 95.2 27.4 126.9 16.7 31.7 45 54.5 85 68.4 39.9 13.9 95.5 20.7 166.8 20.4h9c71.4 .3 127.1 -6.5 166.9 -20.4 39.9 -13.9 68.2 -36.7 85 -68.4s25.8 -74 27.3 -126.9z"/></svg>