<svg height="1000" width="1125" xmlns="http://www.w3.org/2000/svg"><path d="M1124.4 548.4c4.3 19.8 -16.4 41.8 -36.5 22.3C987.3 464.5 877.7 468.2 778.1 643c-10.3 18.5 -29.1 16.8 -38.5 0C734.8 634.4 676.8 500 562.5 500 473 500 424.8 573.8 385.4 643c-9.4 16.8 -28.2 18.5 -38.5 0C247.5 468.4 138.7 463.3 37.1 570.7 17.2 590 -3.7 568.2 .6 548.4 57.6 282.2 270.1 122.3 500 97.5v-35C500 27.9 527.9 0 562.5 0S625 27.9 625 62.5v35c229.1 24.8 443.6 184.7 499.4 450.9zM500 589.3c18.7 -17.4 38.5 -26.6 62.5 -26.8 23.8 0 44.7 11.1 62.5 26.6v254.5c0 86.1 -70.1 156.2 -156.2 156.2C402.7 999.8 343.4 958 321.5 895.7 310 863.3 327 827.5 359.6 816s68.1 5.5 79.7 38.1c3.7 10.5 14.2 20.9 29.4 20.9 17.2 0 31.3 -14.1 31.3 -31.2V589.3z"/></svg>