<svg height="1000" width="875" xmlns="http://www.w3.org/2000/svg"><path d="M62.5 125C45.2 125 31.3 111 31.3 93.8V31.3C31.3 14 45.2 0 62.5 0h281.3C361 0 375 14 375 31.3v62.5C375 111 361 125 343.8 125h-62.5v312.5c0 86.3 69.9 156.3 156.2 156.3s156.3 -70 156.3 -156.3V125h-62.5C514 125 500 111 500 93.8V31.3C500 14 514 0 531.3 0h281.2c17.3 0 31.3 14 31.3 31.3v62.5c0 17.2 -14 31.2 -31.3 31.2H750v312.5C750 609.8 609.8 750 437.5 750S125 609.8 125 437.5V125H62.5zm781.3 750c17.2 0 31.2 14 31.2 31.3v62.5c0 17.2 -14 31.2 -31.2 31.2H31.3C14 1000 0 986 0 968.8v-62.5C0 889 14 875 31.3 875h812.5z"/></svg>