<svg height="1000" width="1000" xmlns="http://www.w3.org/2000/svg"><path d="M414.7 438.2H23.4C10.5 438.2 0 427.7 0 414.7V23.4C0 10.5 10.5 0 23.4 0h93.8c12.9 0 23.4 10.5 23.4 23.4V176C230 76.7 359.9 14.6 504.2 15.6c267.4 2 481.4 218.1 480.8 485.5 -.5 267 -217.2 483.3 -484.3 483.3C375.5 984.4 261.4 936.9 175.4 859c-9.9 -9.1 -10.4 -24.6 -.9 -34.1l66.4 -66.3c8.7 -8.7 22.7 -9.2 32 -1 60.6 53.6 140.3 86.1 227.7 86.1 190 0 343.8 -153.7 343.8 -343.7S690.7 156.2 500.6 156.2c-114.2 0 -215.3 55.7 -277.8 141.3h191.9c13 0 23.5 10.5 23.5 23.5v93.7c0 13 -10.5 23.5 -23.5 23.5z"/></svg>