<svg height="1000" width="1000" xmlns="http://www.w3.org/2000/svg"><path d="M499.1 15.6C766.3 15.1 984.4 232.8 984.4 500c0 267.5 -216.9 484.4 -484.4 484.4 -124.9 0 -238.7 -47.3 -324.6 -124.8 -10 -9.1 -10.4 -24.6 -.9 -34.1L252 748c8.7 -8.7 22.7 -9.2 31.9 -1 59.9 52.5 135.8 81.1 216.1 81.1 183.2 0 326.6 -148.4 328.1 -325.3C829.7 316.4 677.6 170.3 497.1 171.9c-82.9 .7 -160.9 32 -221.2 88.4l81.6 81.6c29.5 29.5 8.6 80 -33.2 80H62.5c-25.9 0 -46.9 -21 -46.9 -46.9V113.2c0 -41.8 50.5 -62.7 80 -33.2l69.8 69.8C252.2 66.9 369.7 15.9 499.1 15.6z"/></svg>