<svg height="1000" width="750" xmlns="http://www.w3.org/2000/svg"><path d="M375 937.5c-77.1 0 -148.8 -23 -208.4 -62.9h417C523.8 914.5 452.1 937.5 375 937.5zM201 560.4c0 4.8 .2 9.7 .6 14.4H.2C0 570.1 0 565.2 0 560.4v-24.3h201v24.3zm40 111.3c17.4 20.7 39.3 37.3 64.5 48.4H35.3C27.9 704.5 21.7 688.3 16.6 671.7H241zm-34.6 -67.8c4 15.4 10.2 30.1 18 43.6H10.2C6.8 633.2 4.3 618.7 2.5 603.9h203.9zM201 468.6v33.7H0v-33.7h201zm0 -338.3v9.5H0v-9.5h201zm0 -67.8v4.9H0v-4.9h201zm0 135.4v14.4H0v-14.4h201zm0 203.1v28.9H0V401h201zm0 -135.4V285H0v-19.4h201zm0 67.6v24.2H0v-24.2h201zm324.6 314.3c7.8 -13.5 13.9 -28.2 18 -43.6h203.9c-1.6 14.8 -4.1 29.3 -7.7 43.6H525.6zM549 284.8v-19.2h201v19.2H549zm0 72.6v-24.2h201v24.2H549zm0 -145.1v-14.4h201v14.4H549zm0 -149.8h201v4.9H549v-4.9zM152.5 865c-23 -17 -46.1 -36.5 -64.8 -58h572.5c-18.6 21.7 -39.9 41 -62.9 58H152.5zM549 139.8v-9.5h201v9.5H549zm0 290.1V401h201v28.9H549zM75.8 792.4C62.9 775.8 55.1 758 44.9 739.3h661.9c-10.1 18.7 -21.6 36.5 -34.7 53.1H75.8zm368.7 -72.5c25 -10.9 47.1 -27.5 64.3 -48.4h224.6c-5.3 16.8 -9.4 32.8 -16.6 48.4H444.5zM549 560.4v-24.3h201v24.3c0 4.8 -.2 9.5 -.4 14.4H548.2c.6 -4.7 .8 -9.6 .8 -14.4zm0 -58.1v-33.7h201v33.7H549z"/></svg>