<svg height="1000" width="1000" xmlns="http://www.w3.org/2000/svg"><path d="M500 93.8C275.4 93.8 93.8 275.5 93.8 500c0 224.6 181.7 406.3 406.2 406.3 224.6 0 406.3 -181.8 406.3 -406.3C906.3 275.4 724.5 93.8 500 93.8zm0 -78.2c267.5 0 484.4 216.9 484.4 484.4S767.5 984.4 500 984.4 15.6 767.5 15.6 500 232.5 15.6 500 15.6zm0 109.4c207.1 0 375 167.9 375 375S707.1 875 500 875 125 707.1 125 500 292.9 125 500 125zm0 85.9c-38.8 0 -70.3 31.5 -70.3 70.4s31.5 70.3 70.3 70.3 70.3 -31.5 70.3 -70.3S538.8 210.9 500 210.9zm230 191.5c16.8 -4 27.2 -20.8 23.2 -37.6s-20.8 -27.2 -37.6 -23.2c-188.5 44.5 -242.4 44.5 -431.2 0 -16.8 -4 -33.6 6.4 -37.6 23.2 -4 16.8 6.4 33.6 23.2 37.6 56.1 13.2 108.5 24.9 160.5 30.9 -1.7 197.4 -24.1 240.4 -48.9 303.9 -7.1 18.1 1.8 38.5 19.9 45.5 18.1 7.1 38.5 -1.8 45.6 -19.9 17 -43.6 33.4 -79.5 43.4 -153.4h19c10.1 74 26.4 109.8 43.4 153.4 7.1 18.1 27.5 27 45.6 19.9 18.1 -7 27 -27.4 19.9 -45.5C593.6 673.6 571.2 630.6 569.5 433.3c52 -6 104.4 -17.7 160.5 -30.9z"/></svg>