<svg height="1000" width="1000" xmlns="http://www.w3.org/2000/svg"><path d="M968.8 250v31.3c0 8.6 -7 15.6 -15.7 15.6h-46.8v23.4c0 13 -10.5 23.5 -23.5 23.5H117.2c-13 0 -23.4 -10.5 -23.4 -23.5v-23.4H46.9c-8.7 0 -15.6 -7 -15.6 -15.6V250c0 -5.8 4.3 -12.2 9.6 -14.4L494 63.7c1.6 -.7 4.3 -1.2 6 -1.2s4.4 .5 6 1.2l453.1 171.9c5.3 2.2 9.6 8.6 9.6 14.4zm-46.9 593.8c25.9 0 46.9 20.9 46.9 46.8v31.3c0 8.6 -7 15.6 -15.7 15.6H46.9c-8.7 0 -15.6 -7 -15.6 -15.6v-31.3c0 -25.9 20.9 -46.8 46.8 -46.8h843.8zM187.5 375h125v375h125V375h125v375h125V375h125v375h70.3c13 0 23.5 10.5 23.5 23.4v39.1H93.8v-39.1c0 -12.9 10.4 -23.4 23.4 -23.4h70.3V375z"/></svg>