<svg height="1000" width="1000" xmlns="http://www.w3.org/2000/svg"><path d="M593.9 792.8c9.2 9.1 9.2 24 0 33.1l-87.2 87.3c-115.8 115.7 -304.1 115.7 -419.9 0C-28.9 797.4 -28.9 609.1 86.8 493.3l87.3 -87.2c9.1 -9.2 24 -9.2 33.1 0l77.4 77.3c9.1 9.2 9.1 24 0 33.2l-87.3 87.2c-54.8 54.9 -54.8 144.1 0 198.9 54.8 54.8 144 54.8 198.9 0l87.2 -87.3c9.2 -9.1 24 -9.1 33.2 0zM483.4 284.6l-77.3 -77.4c-9.2 -9.1 -9.2 -24 0 -33.1l87.2 -87.3c115.8 -115.7 304.1 -115.7 419.9 0s115.7 304.1 0 419.9l-87.3 87.2c-9.1 9.2 -24 9.2 -33.1 0l-77.4 -77.3c-9.1 -9.2 -9.1 -24 0 -33.2l87.3 -87.2c54.8 -54.9 54.8 -144.1 0 -198.9 -54.8 -54.8 -144 -54.8 -198.9 0l-87.2 87.3c-9.2 9.1 -24 9.1 -33.2 0zm458.7 701.7c-18.3 18.3 -48 18.3 -66.3 0L13.7 124.2c-18.3 -18.3 -18.3 -48 0 -66.3L57.9 13.7c18.3 -18.3 48 -18.3 66.3 0l862.1 862.1c18.3 18.3 18.3 48 0 66.3z"/></svg>