<svg height="1000" width="1250" xmlns="http://www.w3.org/2000/svg"><path d="M783.8 97.5C627.9 410.2 618.6 395.3 612.1 435.7L602 499.8c-3.8 23.4 -12.9 45.9 -26.8 65.2L284.4 970.9c-14.9 20.7 -39.9 31.6 -65.3 28.5C140.4 989.6 67.2 936.5 33 865.6c-11.1 -23 -8.8 -50.4 6.1 -71.1l290.8 -406c13.9 -19.4 32 -35.2 53.1 -46.3l57.2 -30.3c36.2 -19.1 19 -23.2 264.9 -271.3 1.9 -9.3 1.9 -14.2 7 -15.6 5.9 -1.4 12.9 -2 12.3 -9l-.8 -9c-.4 -3.7 2.6 -7 6.3 -7 8.8 -.2 25.8 2.3 50 19.5 24 17.4 32 32.8 34.6 41.2 1.1 3.6 -1.2 7.3 -4.7 8.2l-8.8 2.2c-6.7 1.8 -4.9 8.6 -4.5 14.4 .2 5.5 -4.5 7.1 -12.7 12zM449.4 71.1c-6.2 -1.6 -16 -2.4 -13.3 -10.6 2.6 -8.4 10.6 -23.8 34.6 -41.2C494.9 2 511.9 -.4 520.7 -.2c8.2 .2 6.1 9.6 5.5 16 -.6 7.1 6.4 7.4 12.3 9 5.1 1.4 5.1 6.4 7 15.6 17.8 18 34.4 35 50 51 2.5 2.7 2.4 6.8 -.2 9.6 -31 32 -57.2 59.7 -79.1 83.2 -1.9 1.9 -5.1 1.5 -6.4 -1 -13.5 -26.4 -28 -54.9 -43.4 -85.9C458 92.4 453.5 90.8 453.9 85.5c.4 -5.8 2.2 -12.6 -4.5 -14.4zm761.5 723.2c15.1 20.9 17.2 48.3 6.7 71.5 -34.6 71.5 -108.2 124.4 -186.9 134 -25.2 2.9 -49.8 -8 -64.7 -28.7L675.2 565c-13.9 -19.3 -23.1 -41.8 -26.8 -65.2 -3.1 -19.1 -3.9 -37.3 -.5 -58.2 3.7 -23.4 5.2 -11.7 95.7 -185.2 1.3 -2.7 5 -3.1 7 -.9 31.8 35.1 37.7 44.9 59.6 56.4 58.2 30.7 84.3 40.2 110.1 76.4z"/></svg>