<svg height="1000" width="750" xmlns="http://www.w3.org/2000/svg"><path d="M201.6 591.8V351.6h63.6v276.5C230.7 651.8 74 698.2 74 552V351.6h63.9v203.1c0 62.7 53.5 44.1 63.7 37.1zM7.8 146.1C190.6 49.3 513.9 25.8 741 146.1v431.5c0 202.9 -147.1 264 -366.6 359.5C154.1 841.6 7.8 780.1 7.8 577.6V146.1zm699.4 431.5V155.3C493.8 135.4 241.2 147.5 41.4 330.7v246.9c0 169.1 103.5 221.7 333 322.8C603.3 799.5 707.2 746.7 707.2 577.6zM297.9 367.8c46.2 -29.9 203.9 -62.1 203.9 128.1 0 148.3 -92.4 167.6 -140.1 153.4v134.1h-63.8V367.8zm63.8 229.1c3.9 1.6 75 33 75 -99.6 0 -121.1 -58.6 -104.5 -75 -96.3v195.9zM516.2 428.2c-.4 -80.3 100 -105.3 155.7 -62.3v55.4c-35 -35.7 -93.6 -35.3 -94.8 4.3 -1.3 52 107.7 42.4 104.3 143C678.9 649.8 589.6 676 518.9 634v-58.8c39.9 35.4 100.4 36.4 99.3 -9.5C617 511.2 516.4 520.5 516.2 428.2z"/></svg>