<svg height="1000" width="1250" xmlns="http://www.w3.org/2000/svg"><path d="M968.8 437.5c155.4 0 281.2 125.8 281.2 281.3S1124.2 1000 968.8 1000 687.5 874.2 687.5 718.8 813.3 437.5 968.8 437.5zm125 293.6v-24.7c0 -10.3 -8.6 -18.9 -19 -18.9H1000V581.4c0 -10.3 -8.6 -18.9 -18.9 -18.9h-24.7c-10.3 0 -18.9 8.6 -18.9 18.9v149.7c0 10.3 8.6 18.9 18.9 18.9h118.4c10.4 0 19 -8.6 19 -18.9zM625 718.8c0 116.2 58.2 218.9 146.7 281.2h-678C42 1000 0 958 0 906.3V825C0 680.1 117.6 562.5 262.5 562.5h32.6c43.6 19.9 91.6 31.3 142.4 31.3s99 -11.4 142.4 -31.3h32.6c16.4 0 32.4 2 48 4.9C638.1 613.1 625 664.5 625 718.8zM437.5 500c-138.1 0 -250 -111.9 -250 -250S299.4 0 437.5 0s250 111.9 250 250 -111.9 250 -250 250z"/></svg>