<svg height="1000" width="875" xmlns="http://www.w3.org/2000/svg"><path d="M437.5 500c-138.1 0 -250 -111.9 -250 -250S299.4 0 437.5 0s250 111.9 250 250 -111.9 250 -250 250zM203.1 828.1c0 -26 20.9 -46.8 46.9 -46.8s46.9 20.8 46.9 46.8S276 875 250 875s-46.9 -20.9 -46.9 -46.9zM625 563.7c139.1 6.8 250 120.7 250 261.3v87.5c0 48.2 -39.3 87.5 -87.5 87.5h-700C39.3 1000 0 960.7 0 912.5V825C0 694.9 94.7 587.9 218.9 567v157c-45.1 13.5 -78.1 54.9 -78.1 104.3 0 60.4 49 109.4 109.4 109.4 60.3 0 109.4 -49 109.4 -109.4 0 -49.4 -33 -90.8 -78.2 -104.3V564.6c15.1 2 29.7 5.1 44.2 10.2 35.1 12.3 72.8 19.1 112.1 19.1s77 -6.8 112.1 -19.1c4.3 -1.6 8.6 -2.3 12.9 -3.7v88.3c-71.3 14.6 -125 77.7 -125 153.1V898c0 15.9 11.5 29 27 31.1l60.9 8.2c8.4 1.6 16.6 -3.9 18.3 -12.3l6.1 -30.7c1.6 -8.4 -3.9 -16.6 -12.3 -18.3L500 868.4v-52.2c0 -130.8 187.5 -126.4 187.5 -3.7v55.7l-37.7 7.6c-8.6 1.5 -14.1 9.9 -12.3 18.3l6.1 30.7c1.7 8.6 9.9 14.1 18.3 12.3l62.9 -12.5c14.7 -2.9 25.2 -15.8 25.2 -30.7v-81.4C750 737.1 696.3 673.8 625 659.4v-95.7z"/></svg>