<svg height="1000" width="1250" xmlns="http://www.w3.org/2000/svg"><path d="M1218.8 406.3c17.1 0 31.2 14 31.2 31.2V500c0 17.2 -14.1 31.3 -31.2 31.3h-125v125c0 17.1 -14.1 31.2 -31.3 31.2H1000c-17.2 0 -31.2 -14.1 -31.2 -31.2v-125h-125c-17.2 0 -31.3 -14.1 -31.3 -31.3v-62.5c0 -17.2 14.1 -31.2 31.3 -31.2h125v-125c0 -17.2 14 -31.3 31.2 -31.3h62.5c17.2 0 31.3 14.1 31.3 31.3v125h125zM437.5 500c-138.1 0 -250 -111.9 -250 -250S299.4 0 437.5 0s250 111.9 250 250 -111.9 250 -250 250zm175 62.5C757.4 562.5 875 680.1 875 825v81.2c0 51.8 -42 93.8 -93.7 93.8H93.8C42 1000 0 958 0 906.2V825C0 680.1 117.6 562.5 262.5 562.5h32.6c43.6 19.9 91.6 31.3 142.4 31.3s99 -11.4 142.4 -31.3h32.6z"/></svg>