<svg height="1000" width="875" xmlns="http://www.w3.org/2000/svg"><path d="M635.5 564.8C769.5 576.8 875 687.9 875 825v81.2c0 51.8 -42 93.8 -93.7 93.8H93.8C42 1000 0 958 0 906.2V825C0 687.9 105.5 576.8 239.5 564.8l198 198.1zM62.5 375c0 -65.2 33.4 -122.7 84.2 -156.2C95.9 185.2 62.5 127.7 62.5 62.5c62.5 0 117.4 30.9 151.4 77.7C254.7 57.4 339.1 0 437.5 0c138.1 0 250 111.9 250 250s-111.9 250 -250 250C322.7 500 227.1 422.3 197.7 317c-34 35.5 -81.9 58 -135.2 58zM343.8 187.5c-34.6 0 -62.5 27.9 -62.5 62.5h312.5c0 -34.6 -28 -62.5 -62.5 -62.5H343.8z"/></svg>