<svg height="1000" width="875" xmlns="http://www.w3.org/2000/svg"><path d="M623.8 625C763.5 631.1 875 745.3 875 886.3c0 62.8 -50.9 113.7 -113.7 113.7H113.7C50.9 1000 0 949.1 0 886.3 0 745.3 111.5 631.1 251.2 625l186.3 186.3zM437.5 593.8c-138 0 -250 -112 -250 -250V128.6c0 -24 18.2 -50.2 40.5 -58.6L393.6 7.9C405.3 3.6 425 0 437.5 0s32.2 3.6 43.9 7.9L647 70c22.3 8.4 40.5 34.6 40.5 58.5v215.2c0 138.1 -112 250 -250 250zM359.4 140v32.5c0 5.4 4.4 9.8 9.7 9.8h42.4v42.3c0 5.4 4.3 9.8 9.7 9.8h32.6c5.4 0 9.7 -4.4 9.7 -9.8v-42.3h42.4c5.3 0 9.7 -4.4 9.7 -9.8V140c0 -5.4 -4.4 -9.8 -9.7 -9.8h-42.4V87.9c0 -5.4 -4.3 -9.8 -9.7 -9.8h-32.6c-5.4 0 -9.7 4.4 -9.7 9.8v42.3h-42.4c-5.3 0 -9.7 4.4 -9.7 9.8zm-78.1 172.5v31.3c0 86.2 69.9 156.2 156.2 156.2S593.8 430 593.8 343.8v-31.3H281.3z"/></svg>