<svg height="1000" width="875" xmlns="http://www.w3.org/2000/svg"><path d="M749.8 602.1C824.6 648.4 875 730.5 875 825v87.5c0 48.2 -39.3 87.5 -87.5 87.5h-700C39.3 1000 0 960.7 0 912.5V825C0 727.9 53.3 644.1 131.6 598.6L81.2 481.1c-8.7 -20.7 6.3 -43.6 28.8 -43.6h112.3c-21.5 -36.9 -34.8 -79.3 -34.8 -125v-.6C110.9 296.7 62.5 274.6 62.5 250c0 -26 53.3 -49 136.7 -64.5 18 -64 52.9 -128.5 79.3 -161.7C297.1 .6 329.1 -6.6 355.7 6.6l53.9 27c17.5 8.8 38.3 8.8 55.8 0l53.9 -27c26.6 -13.2 58.6 -6 77.2 17.2 26.5 33.2 61.3 97.7 79.3 161.7C759.4 201 812.7 224 812.7 250c0 24.6 -48.4 46.7 -125 61.9v.6c0 45.7 -13.3 88.1 -34.8 125h114.3c22.1 0 37.1 21.9 29.3 42.4zm-406 335.4l62.5 -234.4L359.4 625l-96.9 -62.5zm187.5 0l81.2 -375L515.6 625l-46.8 78.1zm81.4 -583c1.6 -5.1 12.3 -11.1 12.5 -11.3v-21.1c-55.3 7.2 -119.1 11.3 -187.5 11.3S305.5 329.1 250.2 322.1v21.1c0 .2 10.7 6.4 12.3 11.3 7.4 23.2 13.7 48 32.2 65.2 15.7 14.5 91.8 49.2 125 -48.8 5.7 -16.4 30.3 -16.4 35.8 0 31.2 92.6 105.2 67 125 48.8 18.5 -17.2 24.6 -42 32.2 -65.2z"/></svg>