<svg height="1000" width="968.8" xmlns="http://www.w3.org/2000/svg"><path d="M484.4 15.6C752 15.6 968.8 232.4 968.8 500S752 984.4 484.4 984.4 0 767.6 0 500 216.8 15.6 484.4 15.6zm0 187.5c-94.9 0 -171.9 77 -171.9 171.9s77 171.9 171.9 171.9S656.3 469.9 656.3 375 579.3 203.1 484.4 203.1zm0 671.9C599 875 701.8 823 770.5 741.8 733.8 672.7 661.9 625 578.1 625c-4.7 0 -9.3 .8 -13.8 2.1 -25.2 8.3 -52 13.5 -79.9 13.5s-54.5 -5.2 -79.9 -13.5C400 625.8 395.3 625 390.6 625 306.8 625 235 672.7 198.2 741.8 267 823 369.7 875 484.4 875z"/></svg>