<svg height="1000" width="1250" xmlns="http://www.w3.org/2000/svg"><path d="M375 500C254.1 500 156.3 402.1 156.3 281.3S254.1 62.5 375 62.5s218.8 97.9 218.8 218.8S495.9 500 375 500zm150 62.5c124.2 0 225 100.8 225 225v56.2c0 51.8 -42 93.8 -93.7 93.8H93.8C42 937.5 0 895.5 0 843.7v-56.2c0 -124.2 100.8 -225 225 -225h16.2C282 582 327 593.8 375 593.8S468.2 582 508.8 562.5H525zM937.5 500C834 500 750 416 750 312.5S834 125 937.5 125 1125 209 1125 312.5 1041 500 937.5 500zm93.8 62.5c120.8 0 218.7 97.9 218.7 218.8 0 51.7 -42 93.7 -93.7 93.7h-345c.2 -4.1 1.2 -8.2 1.2 -12.5v-75c0 -75.4 -29.9 -143.6 -77.5 -194.9 32.2 -18.6 68.9 -30.1 108.7 -30.1h7.5c27.1 9.4 55.8 15.6 86.3 15.6s59.2 -6.2 86.3 -15.6h7.4z"/></svg>