<svg height="1000" width="875" xmlns="http://www.w3.org/2000/svg"><path d="M125 437.5c-17.2 0 -31.2 -14.1 -31.2 -31.2V218.8c0 -17.2 14 -31.3 31.2 -31.3h26.4C199.6 77.1 309.4 0 437.5 0s237.9 77.1 286.1 187.5H750c17.2 0 31.3 14.1 31.3 31.3v187.5c0 17.1 -14.1 31.2 -31.3 31.2h-26.4C675.4 547.9 565.6 625 437.5 625S199.6 547.9 151.4 437.5H125zm78.1 -171.9v46.9c0 103.5 84 187.5 187.5 187.5h93.8c103.5 0 187.5 -84 187.5 -187.5v-46.9c0 -43.1 -42 -78.1 -93.8 -78.1H296.9c-51.8 0 -93.8 35 -93.8 78.1zm140.7 140.7l-23.5 -70.4L250 312.5l70.3 -23.4 23.5 -70.3 23.4 70.3 70.3 23.4 -70.3 23.4zm296 221.4C771.7 641.6 875 752 875 887.5v18.7c0 51.8 -42 93.8 -93.7 93.8H625V875c0 -34.6 -27.9 -62.5 -62.5 -62.5h-250c-34.6 0 -62.5 27.9 -62.5 62.5v125H93.8C42 1000 0 958 0 906.2v-18.7C0 752 103.3 641.6 235.2 627.7c58.4 37.7 127.7 59.8 202.3 59.8s143.9 -22.1 202.3 -59.8zM531.3 875c17.1 0 31.2 14.1 31.2 31.3s-14.1 31.2 -31.2 31.2S500 923.4 500 906.3 514.1 875 531.3 875zm-187.5 0c17.1 0 31.2 14.1 31.2 31.3v93.7h-62.5v-93.7c0 -17.2 14.1 -31.3 31.3 -31.3z"/></svg>