<svg height="1000" width="1250" xmlns="http://www.w3.org/2000/svg"><path d="M1192.4 729.1l50.4 29.1c5.6 3.3 8.4 10.2 6.4 16.6 -13.1 42.2 -35.5 80.5 -64.8 112.1 -4.5 4.9 -11.9 6.1 -17.6 2.7l-50.4 -29.1c-21.3 18.2 -45.7 32.3 -72.1 41.6v58.3c0 6.6 -4.7 12.5 -11.1 13.8 -41.4 9.4 -85.7 9.8 -129.3 0 -6.4 -1.3 -11.1 -7.2 -11.1 -13.8v-58.3C866.4 892.8 842 878.7 820.7 860.5l-50.4 29.1c-5.8 3.4 -13.1 2.2 -17.6 -2.7C723.4 855.1 701 817 687.9 774.8c-2 -6.4 .6 -13.3 6.4 -16.6l50.4 -29.1a228.13 228.13 0 0 1 0 -83.2l-50.4 -29.1c-5.6 -3.3 -8.4 -10.2 -6.4 -16.6C701 558 723.4 519.7 752.7 488.1c4.5 -4.9 11.9 -6.1 17.6 -2.7l50.4 29.1c21.3 -18.2 45.7 -32.3 72.1 -41.6v-58.3c0 -6.6 4.7 -12.5 11.1 -13.8 41.4 -9.4 85.7 -9.8 129.3 0 6.4 1.3 11.1 7.2 11.1 13.8v58.3c26.4 9.3 50.8 23.4 72.1 41.6l50.4 -29.1c5.9 -3.4 13.1 -2.2 17.6 2.7 29.3 31.6 51.7 69.9 64.8 112.1 2 6.4 -.6 13.3 -6.4 16.6l-50.4 29.1c5.1 27.5 5.1 55.7 0 83.2zm-223.6 53.1c52.3 0 94.7 -42.6 94.7 -94.7s-42.6 -94.7 -94.7 -94.7S874 635.4 874 687.5s42.4 94.7 94.8 94.7zM437.5 500c-138.1 0 -250 -111.9 -250 -250S299.4 0 437.5 0s250 111.9 250 250 -111.9 250 -250 250zm393 442.4v18c0 8 1.5 15.6 3.9 23C819.3 993.7 801 1000 781.2 1000H93.7C42 1000 0 958 0 906.3V825C0 680.1 117.6 562.5 262.5 562.5h32.6c43.6 19.9 91.6 31.3 142.4 31.3s99 -11.4 142.4 -31.3h32.6c7.6 0 14.8 1.8 22.3 2.3 -2 5.7 -4.5 11.4 -6.3 17 -10.7 34.6 3.7 71.3 35 89.3l15.4 9c-.2 5.1 -.2 10.1 0 15.2l-15.4 9c-31.3 18.2 -45.7 54.7 -35 89.3 15.4 50.2 42.8 97.2 78.5 135.9 14.7 15.6 35.2 24.6 56.5 24.6 13.3 0 26.5 -3.7 38.3 -10.3l15.4 -9c4.3 2.5 8.8 5.2 13.3 7.6z"/></svg>