<svg height="1000" width="1250" xmlns="http://www.w3.org/2000/svg"><path d="M437.5 500c-138 0 -250 -112 -250 -250S299.5 0 437.5 0s250 112 250 250 -112 250 -250 250zM625 625v312.5c.1 18.5 7.9 46.5 17.4 62.5H93.8C42 1000 0 958 0 906.3V825C0 680.1 117.6 562.5 262.5 562.5h32.6c37.4 17.3 101.2 31.3 142.4 31.3s105 -14 142.4 -31.3h32.6c9.8 0 18.9 2 28.3 2.9 -8.6 15.3 -15.7 42 -15.8 59.6zm562.5 -62.5c34.5 0 62.5 28 62.5 62.5v312.5c0 34.5 -28 62.5 -62.5 62.5H750c-34.5 0 -62.5 -28 -62.5 -62.5V625c0 -34.5 28 -62.5 62.5 -62.5h62.5V406.3C812.5 320 882.5 250 968.8 250S1125 320 1125 406.3v156.2h62.5zM968.8 843.8c34.5 0 62.5 -28 62.5 -62.5s-28 -62.5 -62.5 -62.5 -62.5 27.9 -62.5 62.5 27.9 62.5 62.5 62.5zm62.5 -281.3V406.3c0 -34.6 -28 -62.5 -62.5 -62.5s-62.5 27.9 -62.5 62.5v156.2h125z"/></svg>