<svg height="1000" width="1250" xmlns="http://www.w3.org/2000/svg"><path d="M437.5 500c-138.1 0 -250 -111.9 -250 -250S299.4 0 437.5 0s250 111.9 250 250 -111.9 250 -250 250zm175 62.5C757.4 562.5 875 680.1 875 825v81.2c0 51.8 -42 93.8 -93.7 93.8H93.8C42 1000 0 958 0 906.2V825C0 680.1 117.6 562.5 262.5 562.5h32.6c43.6 19.9 91.6 31.3 142.4 31.3s99 -11.4 142.4 -31.3h32.6zm630.9 -250.8c8.9 9 8.7 23.7 -.2 32.8l-276 273.9c-9.2 8.9 -23.8 8.9 -32.8 -.2L774.8 457.4c-9 -9.2 -9 -23.8 .2 -32.8l54.9 -54.5c9.2 -9 23.8 -9 32.8 .2l88.9 89.5 204.7 -203.2c9.1 -8.9 23.8 -8.9 32.8 .2z"/></svg>