<svg height="1000" width="1250" xmlns="http://www.w3.org/2000/svg"><path d="M187.5 437.5c-68.9 0 -125 -56.1 -125 -125s56.1 -125 125 -125 125 56.1 125 125 -56.1 125 -125 125zm875 0c-68.9 0 -125 -56.1 -125 -125s56.1 -125 125 -125 125 56.1 125 125 -56.1 125 -125 125zM1125 500c68.9 0 125 56.1 125 125v62.5c0 34.6 -27.9 62.5 -62.5 62.5h-128.9c-12.1 -92.6 -68 -170.5 -146.7 -213.7C934.6 513.9 965.6 500 1000 500h125zm-500 0C504.1 500 406.3 402.1 406.3 281.3S504.1 62.5 625 62.5s218.8 97.9 218.8 218.8S745.9 500 625 500zm150 62.5c124.2 0 225 100.8 225 225v56.2c0 51.8 -42 93.8 -93.7 93.8H343.8c-51.8 0 -93.8 -42 -93.8 -93.8v-56.2c0 -124.2 100.8 -225 225 -225h16.2C532 582 577 593.8 625 593.8S718.2 582 758.8 562.5H775zM338.1 536.3C259.4 579.5 203.5 657.4 191.2 750H62.5C27.9 750 0 722.1 0 687.5V625C0 556.1 56.1 500 125 500h125c34.4 0 65.4 13.9 88.1 36.3z"/></svg>