<svg height="1000" width="875" xmlns="http://www.w3.org/2000/svg"><path d="M623.8 626.2c139.7 6 251.2 120.3 251.2 261.3v18.8c0 51.7 -42 93.7 -93.7 93.7H93.8C42 1000 0 958 0 906.3v-18.8C0 746.5 111.5 632.2 251.2 626.2l186.3 186.3zM26.6 155.9c-35.4 -8.6 -35.4 -53.2 0 -61.8L398.8 4.5c25.4 -6.1 52.2 -6.1 77.6 0l371.8 89.8c35.6 8.6 35.6 53 0 61.6l-188 45.3c16.9 33.6 27.3 71.1 27.3 111.3 0 138.1 -111.9 250 -250 250s-250 -111.9 -250 -250c0 -40.2 10.5 -77.7 27.3 -111.3L85.9 170.1v102.8c13.7 8.2 23.5 22.4 23.5 39.6 0 16.4 -9 30.1 -21.7 38.5l30.5 121.7c3.3 13.4 -4.1 27.3 -14.9 27.3H21.7C10.9 500 3.5 486.1 6.8 472.7L37.3 351C24.6 342.6 15.6 328.9 15.6 312.5c0 -17.2 9.8 -31.4 23.5 -39.6V158.8z"/></svg>