<svg height="1000" width="875" xmlns="http://www.w3.org/2000/svg"><path d="M541.7 23.4L364.6 156.2H206C243.2 64.7 332.6 0 437.5 0c37.3 0 72.4 8.7 104.2 23.4zM669 156.3H468.7l129 -96.8c30.9 26 55.8 58.7 71.3 96.8zM437.5 500c-138.1 0 -250 -111.9 -250 -250 0 -10.7 1.8 -20.9 3.1 -31.2h493.8c1.2 10.3 3.1 20.5 3.1 31.2 0 138.1 -111.9 250 -250 250zm-281.2 85.4c15.4 -6.9 41.5 -15 58.2 -18.1L406.8 1000H156.2V585.4zM0 906.3V825C0 744.6 36.9 673.6 93.8 625.5V1000C42 1000 0 958 0 906.3zm500 -93.8c51.7 0 93.8 42.1 93.8 93.8S551.7 1000 500 1000h-24.8L391.8 812.5H500zm112.5 -250C757.5 562.5 875 680 875 825v81.2c0 51.8 -42 93.8 -93.7 93.8H624.2c19.8 -26.2 32.1 -58.4 32.1 -93.8C656.3 820.1 586.2 750 500 750H364.1L280.7 562.5h14.4c43.5 19.9 91.6 31.2 142.4 31.2s98.9 -11.3 142.4 -31.2h32.6z"/></svg>