<svg height="1000" width="1250" xmlns="http://www.w3.org/2000/svg"><path d="M1231.6 712.7c24.5 24.4 24.5 63.9 -.2 88.3l-180.6 180.6c-24.4 24.5 -64.1 24.5 -88.5 0L785.9 805.5C762.5 782 749.4 750.4 749.4 717.2V562.5c0 -34.6 27.9 -62.5 62.5 -62.5h154.9c33.2 0 65 13.1 88.5 36.5zm-357 -41c26 0 46.9 -21.1 46.9 -46.9 0 -26 -20.9 -46.9 -46.9 -46.9s-46.9 20.9 -46.9 46.9 20.9 46.9 46.9 46.9zM437.5 499.8c-138.1 0 -250 -111.9 -250 -249.8C187.5 111.9 299.4 0 437.5 0s250 111.9 250 249.8c0 138.1 -111.9 250 -250 250zM687.1 717c0 50.2 19.5 97.3 54.9 132.6l113.3 113.3c-17.2 22.3 -43.8 36.9 -74 36.9H93.8C42 999.8 0 957.8 0 906.1v-81.3C0 679.9 117.6 562.3 262.5 562.1h32.6c43.6 19.9 91.6 31.3 142.4 31.3s99 -11.4 142.4 -31.3h32.6c26 0 50.8 5.1 74.6 12.1V717z"/></svg>