<svg height="1000" width="1250" xmlns="http://www.w3.org/2000/svg"><path d="M437.5 500c-138.1 0 -250 -111.9 -250 -250S299.4 0 437.5 0s250 111.9 250 250 -111.9 250 -250 250zm175 62.5c77.9 0 147.3 34.8 195.1 88.9l-151 150.9 -15.4 15.5 -2.3 21.7 -13.3 118.9c-1.6 14.3 .4 28.3 5.1 41.6H93.8C42 1000 0 958 0 906.2V825C0 680.1 117.6 562.5 262.5 562.5h32.6c43.6 19.9 91.6 31.3 142.4 31.3s99 -11.4 142.4 -31.3h32.6zM701 846.3L970.3 577.1l140 140.1L841 986.5l-118.9 13.3c-19.8 2.3 -36.6 -14.4 -34.4 -34.4zm535.3 -321.1c18.2 18.4 18.2 47.8 0 66.2l-81.6 81.6L1014.5 533l8 -8 73.8 -73.8c18.2 -18.2 47.8 -18.2 66 0z"/></svg>