<svg height="1000" width="1250" xmlns="http://www.w3.org/2000/svg"><path d="M1151.6 468.8l89 89c12.3 12.3 12.3 32.2 0 44.5l-44.5 44.6c-12.3 12.3 -32.2 12.3 -44.5 0l-89.1 -89.1 -89.1 89.1c-12.3 12.3 -32.2 12.3 -44.5 0l-44.5 -44.6c-12.3 -12.3 -12.3 -32.2 0 -44.5l89 -89.1 -89 -89c-12.3 -12.3 -12.3 -32.2 0 -44.5l44.5 -44.6c12.3 -12.3 32.2 -12.3 44.5 0l89.1 89.1 89.1 -89.1c12.3 -12.3 32.2 -12.3 44.5 0l44.5 44.6c12.3 12.3 12.3 32.2 0 44.5zM437.5 500c-138.1 0 -250 -111.9 -250 -250S299.4 0 437.5 0s250 111.9 250 250 -111.9 250 -250 250zm175 62.5C757.4 562.5 875 680.1 875 825v81.2c0 51.8 -42 93.8 -93.7 93.8H93.8C42 1000 0 958 0 906.2V825C0 680.1 117.6 562.5 262.5 562.5h32.6c43.6 19.9 91.6 31.3 142.4 31.3s99 -11.4 142.4 -31.3h32.6z"/></svg>