<svg height="1000" width="1125" xmlns="http://www.w3.org/2000/svg"><path d="M899 472.1c-2.7 4.3 -8.4 8.6 -7.4 -.2 5.7 -22.7 27.2 -59.6 8.6 -62.5 -34.8 -6.1 -172.1 8.8 -172.1 0 0 -4.7 52.2 -6.1 74 -17 18.4 -18.4 21.1 -15.6 21.3 -15.6h52.8c52.5 0 73.2 14.6 22.8 95.3zm-218.9 44.1C558.4 557.6 436.3 622.1 52.7 812.1L155.1 332.6c361.3 0 654.7 -10.9 659.9 44.2H431.1L491 559C559.4 526.2 727.1 458 828.1 453.7c42.6 -1.6 59.8 5.7 51.2 11.3 -9.2 4.5 -74.2 9.6 -199.2 51.2zM185 187.5h887.3L940 811.9H113.7S898.8 504.7 907.4 499c0 0 69.7 -93.7 28.5 -132.2C923.2 353.9 904.7 353.9 833.6 353.9 829.5 315.8 679.7 292.4 185 187.5z"/></svg>