<svg height="1000" width="1000" xmlns="http://www.w3.org/2000/svg"><path d="M306.3 556.8l11.1 28.2h-16c-2.6 -6.3 -6.1 -15.1 -7.5 -18.6 -4.8 -12.3 -2.1 -16.4 0 -19.5 3.8 -5.3 6.3 -8.6 7.1 -10.2 0 4.3 1.5 11.2 5.3 20.1zm580.6 36.8c-4.1 26.9 -11.1 52.9 -20.5 77.5l84 45.7 -87.5 -36.7c-10.4 25.8 -23.4 50 -38.9 72.6l66.8 59 -71.9 -51.5c-16.4 23 -35.1 44.1 -56 63l48.6 67.8 -54.9 -62.1c-21.4 18.8 -45.1 35.2 -70.5 49l30.7 72.7 -37.7 -69c-25.6 13.3 -52.7 23.7 -81.2 31.1l13 75 -20.5 -73.1c-27.9 6.7 -57 10.4 -86.9 10.6L500 1000l-3.7 -75c-29.9 -.2 -59 -3.9 -86.9 -10.4l-20.7 72.9 13.1 -74.6C373.2 905.7 345.9 895.1 320.3 882l-37.5 68.6 30.5 -72.3c-25.4 -13.7 -49.2 -30.1 -70.7 -49L188.1 891l48.2 -67.2c-20.9 -18.9 -39.8 -40 -56.2 -63.1l-71.3 51.2L175 753.5c-15.4 -22.6 -28.5 -47.1 -39.1 -72.8l-86.7 36.5 83.2 -45.3c-9.4 -24.8 -16.4 -51 -20.5 -78l-99.6 17.6 98.2 -27.7c-2.1 -16.6 -3.3 -33.4 -3.3 -50.6 0 -9.2 .4 -18.4 1 -27.5L0 500l109.4 -5.5c2.5 -25.6 7.4 -50.4 14.6 -74.4L12.5 388.7l115 20.3c7.9 -23.5 17.8 -45.9 29.7 -67.2L49.6 283.2l113.9 48c12.3 -20.7 26.3 -39.8 42.2 -57.8L109 188.3l105.3 75.6c15.8 -16.8 33.2 -32.3 51.9 -46.1L188.1 109.2l89 100.8c18.6 -12.9 38.5 -24.1 59.2 -33.6L283 49.6l66 121.3c20.5 -8.6 41.8 -15.4 63.9 -20.3L388.7 12.5l38.1 135.2c21.4 -4.1 43.5 -6.3 66 -6.7L500 0l7 141c22.5 .4 44.6 2.7 66 6.9L611.3 12.5l-24.2 138.1c22.1 5.1 43.4 11.9 63.7 20.5L717 49.6l-53.5 127.2c20.7 9.5 40.4 20.9 59 33.6l89.4 -101.2 -78.3 109.2c18.5 13.8 35.9 29.3 51.8 46.1l105.8 -76 -97.1 85.7c15.7 17.8 29.7 36.9 42 57.4l114.7 -48.2 -108.4 59c11.9 21.3 21.7 43.5 29.5 67l115.8 -20.3 -112.3 31.6c7.2 23.8 12.1 48.6 14.6 74l110 5.3 -109.4 5.5c.6 9 1 18.1 1 27.5 0 17 -1.2 33.8 -3.1 50.4l99 27.9zM844.3 533C844.3 342.6 690 188.3 499.6 188.3S154.9 342.6 154.9 533s154.3 344.7 344.7 344.7S844.3 723.4 844.3 533zm-46.8 0c0 164.7 -133.4 298.1 -298.1 298.1S201.4 697.7 201.4 533c0 -164.6 133.4 -298 298 -298s298.1 133.4 298.1 298zM380.9 470.7c0 4.1 2.5 7.4 7 10 6.4 3.7 12.1 8.9 16 16 5.5 -11.2 8.4 -18.6 8.4 -21.9 0 -4.3 -2.1 -8.6 -6.2 -13.7 -4.1 -4.9 -6.3 -10.1 -6.5 -15 -12.7 13.3 -18.7 21.3 -18.7 24.6zm-79.5 -37.1c0 4.1 2.5 7.4 7 10 6.8 3.7 12.1 8.9 16 16 5.5 -11.2 8.4 -18.6 8.4 -21.9 0 -4.3 -2.1 -8.6 -6.2 -13.7 -4.1 -4.9 -6.3 -10.1 -6.5 -15 -12.7 13.3 -18.7 21.3 -18.7 24.6zm-37.1 0c0 4.1 2.5 7.4 7 10 6.4 3.7 12.1 8.9 16 16 5.5 -11.2 8.4 -18.6 8.4 -21.9 0 -4.3 -2.1 -8.6 -6.2 -13.7 -4.1 -4.9 -6.3 -10.1 -6.5 -15 -12.5 13.3 -18.7 21.3 -18.7 24.6zm400.2 171.7c-16.5 -5.9 -17 -13.3 -17 -30.5V355.5c-16.1 24.4 -27.8 36.3 -35.2 36.3 12.3 28.1 18.6 46.7 18.6 55.3v125.6c0 4.3 -4.3 12.7 -9.2 12.7h-35.2c-5.4 -14.7 -19.9 -52.6 -29.9 -78.8 -3.9 4.9 -14 18 -20.9 26.8 4.7 3.1 8.1 7 10.2 12.3 5.1 13.1 12.5 32.2 15.4 39.5h-17.9c-7.7 -20.4 -18.8 -49.7 -23.1 -60.8 -3.9 4.9 -14.1 18 -20.9 26.8 4.7 3.1 8 7 10.2 12.3 1.5 3.9 5.4 14.2 8.4 21.3h-18c-2.9 -8 -10.9 -28.6 -16.4 -43 -3.9 4.9 -14.1 18 -20.9 26.8 4.9 3.1 8.4 7 10.2 12.3 .3 1.1 .9 2.7 1.1 3.3h-34.5c-9 -27.2 -22.3 -54.1 -22.3 -66.6 0 -4.3 .6 -10 2.1 -16 -17.2 21.1 -27.3 31 -27.3 48.8 0 14.6 20.3 55.3 20.3 65 0 3.3 -1 6.5 -2.7 9.6 -18.8 -24.8 -30.3 -40.4 -36.7 -40.4h-23.5l-21.9 -54.7c-7.4 -18.8 -11.1 -31.3 -11.1 -36.7 0 -7.5 1 -15.1 3.3 -23.9 -1.9 2.6 -7.2 9.2 -10.7 13.9 -1.6 -4.1 -6.1 -15 -9 -22.5 -4.1 4.9 -14.6 17.8 -21.9 26.6 1.8 4.5 6.5 15.8 9.6 23.8 -4.9 6.5 -17.8 23.1 -26.6 34.6 -7.8 10.4 -11.3 26 -5.2 42.6 4.8 13.1 3.9 15.4 -3.4 27.5H373c10.8 0 28 27.4 30.3 43 25.8 -31.3 30.1 -38.3 32.8 -42.2h209c7.6 0 14.1 -3.7 19.4 -11.3zm39.2 -52V354.9c-17.6 24.4 -31 36.3 -40.4 36.3 13.8 28.1 20.9 46.7 20.9 55.3V576c0 34.2 16.8 39.8 46.9 39.8 15.8 0 24.4 -1.5 26.7 -5.3 -8.4 -3.1 -14.8 -4.8 -19.3 -6.4 -15.8 -6.2 -34.8 -14.5 -34.8 -50.8z"/></svg>