<svg height="1000" width="875" xmlns="http://www.w3.org/2000/svg"><path d="M438.5 274.8c2.9 -34.4 9.5 -102.9 97.2 -102.9h192.6c40.4 0 62.7 -15.3 62.7 -42.2v-24c0 -23.9 18.2 -43.2 42 -43.2s42 19.3 42 43.2V177c0 83.7 -42 121 -130.5 121H548.2c-58.7 0 -64.4 28.8 -64.4 53 0 2.5 -.2 4.9 -.4 7.2 -1.4 24 -21.3 43.4 -45.7 43.4S393.4 382.4 392 358.2c-.2 -2.3 -.4 -4.7 -.4 -7.2 0 -24 -5.9 -53 -64.5 -53H130.5C42 298 0 260.7 0 177v-71.3C0 81.8 18.4 62.5 42.2 62.5c23.8 0 42 19.3 42 43.2v24c0 26.9 22.2 42.2 62.7 42.2h192.6c87.5 0 94.3 68.5 97.2 102.9h1.8zm-1 615.8c-22.5 0 -41.8 -13.6 -50.2 -31.8C385.2 855.3 197.7 527.7 195.5 524c-23.2 -38.5 6.3 -86.5 53.1 -86.5 27.2 0 45.7 12.5 58.2 39.6L437.5 707 568.2 477.1c12.7 -27.1 31 -39.6 58.2 -39.6 46.8 0 76.3 48.2 53.1 86.5 -2.2 3.5 -189.7 331.3 -191.8 334.8 -8.4 18.2 -27.7 31.8 -50.2 31.8z"/></svg>