<svg height="1000" width="1000" xmlns="http://www.w3.org/2000/svg"><path d="M1000 250c0 34.5 -28 62.5 -62.5 62.5v375c34.5 0 62.5 28 62.5 62.5v187.5c0 34.5 -28 62.5 -62.5 62.5H750c-34.5 0 -62.5 -28 -62.5 -62.5h-375c0 34.5 -28 62.5 -62.5 62.5H62.5C28 1000 0 972 0 937.5V750c0 -34.5 28 -62.5 62.5 -62.5v-375C28 312.5 0 284.5 0 250V62.5C0 28 28 0 62.5 0H250c34.5 0 62.5 28 62.5 62.5h375C687.5 28 715.5 0 750 0h187.5C972 0 1000 28 1000 62.5V250zM812.5 125v62.5H875V125h-62.5zM125 125v62.5h62.5V125H125zm62.5 750v-62.5H125V875h62.5zm687.5 0v-62.5h-62.5V875H875zM812.5 687.5v-375H750c-34.5 0 -62.5 -28 -62.5 -62.5v-62.5h-375V250c0 34.5 -28 62.5 -62.5 62.5h-62.5v375H250c34.5 0 62.5 28 62.5 62.5v62.5h375V750c0 -34.5 28 -62.5 62.5 -62.5h62.5z"/></svg>