<svg height="1000" width="562.5" xmlns="http://www.w3.org/2000/svg"><path d="M562.5 343.8c0 133.7 -93.6 245.8 -218.7 274.2v100.7h70.3c12.9 0 23.4 10.6 23.4 23.5v78.1c0 12.9 -10.5 23.4 -23.4 23.4h-70.3v70.4c0 12.9 -10.6 23.4 -23.5 23.4h-78.1c-12.9 0 -23.4 -10.5 -23.4 -23.4v-70.4h-70.4c-12.9 0 -23.4 -10.5 -23.4 -23.4v-78.1c0 -12.9 10.5 -23.5 23.4 -23.5h70.4V618C93.6 589.6 0 477.5 0 343.8 0 188.5 126 62.5 281.3 62.5s281.2 126 281.2 281.3zm-437.5 0c0 86.1 70.1 156.2 156.3 156.2S437.5 429.9 437.5 343.8 367.4 187.5 281.3 187.5 125 257.6 125 343.8z"/></svg>