<svg height="1000" width="1125" xmlns="http://www.w3.org/2000/svg"><path d="M1101.6 0c12.9 0 23.4 10.5 23.4 23.4v154.3c0 14.1 -11.5 23.5 -23.6 23.5 -5.9 0 -11.8 -2.2 -16.4 -6.9l-33 -33 -95.2 95.1c27.4 43.4 43.2 94.8 43.2 149.9 0 155.2 -126 281.2 -281.2 281.2 -65.9 0 -126.4 -22.5 -174.3 -60.4 27.6 -32.6 48.9 -70.3 62.7 -111.5 28.3 28.9 68 46.9 111.6 46.9 86.1 0 156.2 -70.1 156.2 -156.2S804.9 250 718.8 250c-43.8 0 -83.3 18 -111.6 46.9C593.4 255.7 571.9 218 544.5 185.4 592.6 147.7 652.9 125 718.8 125c55 0 106.4 15.8 149.8 43.2L963.7 73l-33 -33C916 25.2 926.4 0 947.3 0h154.3zM281.3 125c155.2 0 281.2 126 281.2 281.3C562.5 540 468.9 652 343.8 680.5v100.7h70.3c12.9 0 23.4 10.6 23.4 23.5v78.1c0 12.9 -10.5 23.4 -23.4 23.4h-70.3v70.4c0 12.9 -10.6 23.4 -23.5 23.4h-78.1c-12.9 0 -23.4 -10.5 -23.4 -23.4v-70.4h-70.4c-12.9 0 -23.4 -10.5 -23.4 -23.4v-78.1c0 -12.9 10.5 -23.5 23.4 -23.5h70.4V680.5C93.6 652.1 0 540 0 406.3 0 251 126 125 281.3 125zm0 437.5c86.1 0 156.2 -70.1 156.2 -156.2S367.4 250 281.3 250 125 320.1 125 406.3s70.1 156.2 156.3 156.2z"/></svg>