<svg height="1000" width="875" xmlns="http://www.w3.org/2000/svg"><path d="M539.5 293.9v1.4C504.5 192.6 456.2 93.4 401.2 0 485.7 57 532 195.3 539.5 293.9zm63.8 237.7c29.5 -6 57.6 -17.5 82.4 -33.2 47.9 114.5 39.5 272.9 -71.1 392.6 -132.4 144.4 -374.8 145.7 -507.4 0C-105.3 660.9 45.5 278.3 360.9 278.3c41.6 0 83.2 6.9 122.1 20.9 -13.5 26.2 -22.8 55.1 -26.2 84.6C426.8 371.1 393.7 365 360.9 365 208.6 365 96.5 495.3 96.5 643c0 134.3 89 246.1 217.4 268.3 192.3 -75 227.7 -367.5 227.7 -546.8 0 -22.9 0 -46.3 -2 -69.2 24.3 70.5 37 144.3 37 218.8C576.6 683 508 823.4 363.1 914.6l-7.4 .6C511.9 918.4 624.8 794.7 624.8 643c0 -38.1 -6.6 -75.8 -21.5 -111.4zM816.6 22.9c101.6 144.5 40.8 407.4 -113.5 407.4 -41.6 0 -78.5 -22.3 -107.4 -50.4 68.6 -37.7 155.1 -96.1 194.7 -165.8 4.7 -9.4 12.7 -26.8 14.1 -37.5C765.6 263.9 666.2 332.2 573.6 353.7 559 330.9 550.2 305.5 550.2 277.9c0 -32.2 16 -75.2 40.2 -98.6C657.8 115 756.1 152.7 816.6 22.9z"/></svg>