<svg height="1000" width="875" xmlns="http://www.w3.org/2000/svg"><path d="M781.3 62.5c51.7 0 93.7 42 93.7 93.8v687.5c0 51.7 -42 93.7 -93.7 93.7H93.8C42 937.5 0 895.5 0 843.8V156.3C0 104.5 42 62.5 93.8 62.5h687.5zm-233.1 682c69.2 -74.8 74.5 -173.8 44.6 -245.3 -15.5 9.6 -33 16.8 -51.6 20.5 9.4 22.3 13.5 45.9 13.5 69.8 0 94.9 -70.7 172.2 -168.4 170.3l4.7 -.4C481.6 702.3 524.4 614.6 524.4 509c0 -46.5 -8 -92.8 -23 -136.7v-.8C496.9 309.8 468 223.4 415 187.7c34.4 58.4 64.5 120.3 86.4 184.6 1.1 14.2 1.1 28.9 1.1 43.1 0 112.1 -22.2 295 -142.3 341.8C280.1 743.2 224.4 673.4 224.4 589.5c0 -92.2 69.9 -173.7 165.2 -173.7 20.6 0 41.1 3.7 60 11.7 2.2 -18.5 8 -36.5 16.4 -52.9 -24.4 -9 -50.4 -13.1 -76.4 -13.1 -197.2 0 -291.4 239.3 -158.5 383 82.8 91 234.3 90.3 317.1 0zm55.3 -288.1c96.5 0 134.4 -164.2 70.9 -254.4 -37.9 81 -99.2 57.6 -141.4 97.6 -15 14.7 -25.2 41.6 -25.2 61.7 0 17.2 5.5 33.2 14.7 47.5 58 -13.5 119.9 -56.3 144.3 -110.8 -.8 6.7 -5.9 17.6 -8.8 23.5C633.2 365 579.1 401.6 536.3 425c18.2 17.6 41.2 31.4 67.2 31.4z"/></svg>