<svg height="1000" width="1250" xmlns="http://www.w3.org/2000/svg"><path d="M140.6 125C132 125 125 118 125 109.4V15.6C125 7 132 0 140.6 0h406.3c8.6 0 15.6 7 15.6 15.6v93.8c0 8.6 -7 15.6 -15.6 15.6H500v468.8C500 679.9 429.9 750 343.8 750S187.5 679.9 187.5 593.8V125h-46.9zm140.7 0v187.5h125V125h-125zm937.5 750c17.1 0 31.2 14.1 31.2 31.3v62.5c0 17.1 -14.1 31.2 -31.2 31.2H31.3C14.1 1000 0 985.9 0 968.8v-62.5C0 889.1 14.1 875 31.3 875h1187.5zM703.1 125c-8.6 0 -15.6 -7 -15.6 -15.6V15.6C687.5 7 694.5 0 703.1 0h406.3c8.6 0 15.6 7 15.6 15.6v93.8c0 8.6 -7 15.6 -15.6 15.6h-46.9v468.8c0 86.1 -70.1 156.2 -156.2 156.2S750 679.9 750 593.8V125h-46.9zm140.7 0v187.5h125V125h-125z"/></svg>