<svg height="1000" width="1000" xmlns="http://www.w3.org/2000/svg"><path d="M867.2 97.5c82.4 71.6 128.1 230.2 97.3 481.4C934.8 822.3 751.4 845.7 718.9 856.3c-14 4.4 -137.3 35.3 -297.8 21.8 -17.8 20.5 -41.2 47.5 -58.2 65.8 -31.1 33.4 -50.2 64.5 -82.6 54.3 -27 -8.2 -25.4 -49 -25.4 -49l.2 -100.8h-.2C20.3 782.4 23.6 539.1 26.4 409.2S54.3 174.4 125.8 102.9C254.3 -15 518.2 .8 518.2 .8c223.8 1 324.2 73.8 349 96.7zm27.1 463C920.3 351 884.8 208 815 148.2 793.9 129.1 703.3 72.1 514.1 71.3c0 0 -224.1 -14.7 -332.9 84 -60.5 59.7 -81 148.6 -83.2 257C95.9 520.7 84.2 727.9 283 783c-.2 0 -.2 0 0 0 0 0 -.8 153.9 -.8 167.4 -.2 20.5 11.2 21.5 21.5 11.1C335.4 929.7 436.9 807.2 436.9 807.2 573 816 681.4 789.1 693.2 785.4c27.3 -8.8 175.9 -21.7 201.1 -224.9zM622.9 402.7c.7 16.8 -24.5 18 -25.2 1.2C595.5 360.9 575.4 340 534 337.7c-16.8 -1 -15.3 -26.2 1.4 -25.2 54.4 2.9 84.7 34.2 87.5 90.2zm39.6 22.1c2 -82.8 -49.8 -147.7 -148 -154.9 -16.6 -1.2 -14.9 -26.3 1.7 -25.2 113.3 8.2 173.6 86.2 171.5 180.7 -.2 16.8 -25.6 16 -25.2 -.6zm91.8 26.2c.2 16.8 -25.2 17 -25.2 .2C727.9 292 621.9 205.3 493.2 204.3c-16.6 -.2 -16.6 -25.2 0 -25.2 143.9 1 259.7 100.4 261.1 271.9zm-22.1 191.6v.4c-21.1 37.1 -60.5 78.1 -101.1 65l-.4 -.6C589.5 695.9 492.4 645.9 431.1 597.1c-31.7 -25 -60.6 -54.5 -82.9 -82.8 -20.1 -25.2 -40.4 -55.1 -60.1 -91.1C246.5 348 237.3 314.5 237.3 314.5c-13.1 -40.7 27.7 -80.1 65 -101.2h.4c18 -9.4 35.2 -6.3 46.7 7.6 0 0 24.2 28.9 34.6 43.2 9.7 13.2 22.8 34.5 29.7 46.4 11.9 21.3 4.5 43 -7.3 52L383 381.3c-11.9 9.5 -10.3 27.3 -10.3 27.3S407.4 540 537.3 573.2c0 0 17.8 1.6 27.3 -10.3l18.8 -23.4c9 -11.8 30.7 -19.2 52 -7.3 28.7 16.2 65.2 41.4 89.4 64.3 13.7 11.1 16.8 28.1 7.4 46.1z"/></svg>