<svg height="1000" width="875" xmlns="http://www.w3.org/2000/svg"><path d="M781.3 62.5c51.7 0 93.7 42 93.7 93.8v687.5c0 51.7 -42 93.7 -93.7 93.7H93.8C42 937.5 0 895.5 0 843.8V156.3C0 104.5 42 62.5 93.8 62.5h687.5zm-31.7 292.2c3.7 -81.3 -26.6 -123.1 -90.8 -125 -86.5 -2.7 -145.3 46.1 -176 146.7 38.3 -16.4 94.9 -20.7 88.3 43.3 -1.8 21.7 -15.8 53 -42 94.4C456.4 628.7 438.7 590.4 398.6 337.3 387.3 266 357.4 232.8 308.8 237.5 265.8 241.4 197.1 311.7 125 375l29.3 37.9c27.9 -19.7 44.3 -29.5 49 -29.5 40.6 0 61.5 105.7 110.8 285.9 25.2 67.2 55.8 100.8 92.3 100.8 58.8 0 130.7 -55.3 215.7 -165.6C704.3 498.8 746.9 415.4 749.6 354.7z"/></svg>