<svg height="1000" width="875" xmlns="http://www.w3.org/2000/svg"><path d="M787.5 62.5c48.2 0 87.5 39.3 87.5 87.5v700c0 48.2 -39.3 87.5 -87.5 87.5h-700C39.3 937.5 0 898.2 0 850V150C0 101.8 39.3 62.5 87.5 62.5h700zm-51.2 290.6c3.7 -82.4 -26.9 -124.6 -92 -126.3 -87.7 -2.8 -147 46.6 -178.1 148.4 38.9 -16.6 96.3 -21.1 89.5 43.7 -2 21.9 -16.2 53.8 -42.6 95.6 -73.6 116 -91.6 77.3 -132 -179 -11.4 -72 -41.6 -105.6 -90.9 -100.9 -43.5 3.9 -113.1 75 -185.9 139l29.7 38.3c28.3 -19.7 44.9 -29.7 49.6 -29.7 41 0 62.3 106.9 112.1 289.1 25.6 68.2 56.6 102.1 93.6 102.1 59.3 0 132.2 -55.8 218.1 -167.5C690.6 499 733.6 414.6 736.3 353.1z"/></svg>