<svg height="1000" width="750" xmlns="http://www.w3.org/2000/svg"><path d="M750 497.5v101.7c-35.9 8.2 -72.1 11.9 -101.8 11.9C576.2 762.3 447.1 892 403.9 916.2c-27.3 15.4 -52.9 16.4 -83.4 -1.6C267.6 882.8 66.8 718.2 0 200.6h145.5C182 511.3 271.5 670.7 369.7 790 424.2 735.5 476.8 662.9 517.4 581.2 420.1 531.8 360.9 423.2 360.9 296.9c0 -128.2 73.7 -224.8 199.6 -224.8C785 72.1 768 321.9 719.9 426.6c0 0 -90.6 17.9 -124 -40.1 6.6 -22 16 -60.1 16 -94.7 0 -61.1 -22.1 -91 -55.5 -91 -35.5 0 -60.1 33.4 -60.1 97.6 .2 154.7 116 231.9 253.7 199.1z"/></svg>