<svg height="1000" width="1250" xmlns="http://www.w3.org/2000/svg"><path d="M1218.8 687.5c17.2 0 31.2 14 31.2 31.3s-14 31.2 -31.2 31.2h-23.7c-55.7 0 -83.6 67.3 -44.2 106.7l16.7 16.7c5.1 5.1 9.2 15 9.2 22.1 0 17.3 -14 31.3 -31.3 31.3 -7.1 0 -17 -4.1 -22.1 -9.2l-16.7 -16.7C1067.3 861.5 1000 889.4 1000 945.1v23.7c0 17.2 -14 31.2 -31.3 31.2s-31.2 -14 -31.2 -31.2v-23.7c0 -55.7 -67.3 -83.6 -106.7 -44.2l-16.7 16.7c-5.1 5.1 -15 9.2 -22.1 9.2 -17.3 0 -31.3 -14 -31.3 -31.3 0 -7.1 4.1 -17 9.2 -22.1l16.7 -16.7C826 817.3 798.1 750 742.4 750h-23.7c-17.2 0 -31.2 -14 -31.2 -31.2s14 -31.3 31.2 -31.3h23.7c55.7 0 83.6 -67.3 44.2 -106.7l-16.7 -16.7c-5.1 -5.1 -9.2 -15 -9.2 -22.1 0 -17.3 14 -31.3 31.3 -31.3 7.1 0 17 4.1 22.1 9.2l16.7 16.7c39.4 39.4 106.7 11.5 106.7 -44.2v-23.7c0 -17.2 14 -31.2 31.2 -31.2s31.3 14 31.3 31.2v23.7c0 55.7 67.3 83.6 106.7 44.2l16.7 -16.7c5.1 -5.1 15 -9.2 22.1 -9.2 17.3 0 31.3 14 31.3 31.3 0 7.1 -4.1 17 -9.2 22.1l-16.7 16.7c-39.4 39.4 -11.5 106.7 44.2 106.7h23.7zM937.5 750c34.5 0 62.5 -28 62.5 -62.5S972 625 937.5 625 875 653 875 687.5s28 62.5 62.5 62.5zM676.8 416.7c-74.3 0 -111.4 89.7 -58.9 142.2l22.3 22.3c6.7 6.8 12.2 20 12.2 29.5 0 23 -18.7 41.7 -41.7 41.7 -9.5 0 -22.7 -5.5 -29.5 -12.2l-22.3 -22.3C506.5 565.4 416.7 602.6 416.7 676.8v31.5c0 23 -18.7 41.7 -41.7 41.7s-41.7 -18.7 -41.7 -41.7v-31.5c0 -74.3 -89.7 -111.4 -142.2 -58.9l-22.3 22.3c-6.8 6.7 -20 12.2 -29.5 12.2 -23 0 -41.7 -18.7 -41.7 -41.7 0 -9.5 5.5 -22.7 12.2 -29.5l22.3 -22.3C184.6 506.5 147.4 416.7 73.2 416.7H41.7C18.7 416.7 0 398 0 375s18.7 -41.7 41.7 -41.7h31.5c74.3 0 111.4 -89.7 58.9 -142.2l-22.3 -22.4C103.1 162 97.7 148.9 97.7 139.4c0 -23 18.7 -41.7 41.7 -41.7 9.5 0 22.6 5.4 29.4 12.1l22.3 22.3c52.4 52.5 142.2 15.3 142.2 -58.9V41.7C333.3 18.7 352 0 375 0s41.7 18.7 41.7 41.7v31.5c0 74.3 89.7 111.4 142.2 58.9l22.3 -22.3c6.8 -6.7 19.9 -12.1 29.4 -12.1 23 0 41.7 18.7 41.7 41.7 0 9.5 -5.4 22.6 -12.1 29.3l-22.3 22.4c-52.5 52.4 -15.3 142.2 58.9 142.2h31.5c23 0 41.7 18.7 41.7 41.7s-18.7 41.7 -41.7 41.7h-31.5zM312.5 375C347 375 375 347 375 312.5S347 250 312.5 250 250 278 250 312.5s28 62.5 62.5 62.5zm156.3 62.5c17.2 0 31.2 -14 31.2 -31.2S486 375 468.8 375s-31.3 14 -31.3 31.3 14 31.2 31.3 31.2z"/></svg>