<svg height="1000" width="1250" xmlns="http://www.w3.org/2000/svg"><path d="M222.7 444.5c16.3 -.2 41 -7.1 55 -15.5l477.5 369.1c-41.4 14.6 -74.6 52.3 -74.6 104.2v42.1c0 30.6 -24.9 55.5 -55.6 55.5S569.4 975 569.4 944.4v-42.1c0 -99 -119.6 -148.6 -189.6 -78.6L350 853.5c-9.1 9.9 -27.4 17.8 -40.8 17.8 -30.7 0 -55.5 -24.8 -55.5 -55.5 0 -13.4 7.9 -31.7 17.8 -40.8l29.7 -29.8c70 -70 20.4 -189.7 -78.5 -189.7h-42.2C149.9 555.5 125 530.7 125 500s24.9 -55.5 55.5 -55.5h42.2zm1015.2 450.2c6.7 5.2 12.1 16.2 12.1 24.7 0 5.9 -2.9 14.5 -6.6 19.2l-38.3 49.3c-5.2 6.7 -16.3 12.1 -24.7 12.1 -5.9 0 -14.5 -3 -19.2 -6.6L12.1 105.3C5.4 100.1 0 89.1 0 80.6 0 74.7 2.9 66.1 6.6 61.4L44.9 12.1C50.1 5.4 61.2 0 69.6 0c5.9 0 14.5 3 19.2 6.6l182.1 140.8c.3 -.3 .3 -.6 .6 -.9 9 -9 26.5 -16.3 39.2 -16.3 12.7 0 30.3 7.3 39.3 16.3l29.8 29.7c70 70 189.6 20.5 189.6 -78.5V55.6C569.4 24.9 594.3 0 625 0s55.6 24.9 55.6 55.6v42c0 99 119.6 148.6 189.6 78.6L900 146.5c8.8 -8.2 25.7 -14.8 37.7 -14.8 30.7 0 55.6 24.9 55.6 55.6 0 12 -6.6 28.9 -14.8 37.7l-29.7 29.8c-70 70 -20.4 189.7 78.5 189.7h42.2c30.6 0 55.5 24.9 55.5 55.6s-24.9 55.5 -55.5 55.5h-42.1c-59.6 0 -100.1 43.2 -108.2 92.8zM655.1 444.3c.2 -2.3 1.2 -4.4 1.2 -6.8 0 -51.8 -42 -93.8 -93.8 -93.8 -8.6 .2 -22.1 2.7 -30.2 5.7z"/></svg>