<svg height="1000" width="1000" xmlns="http://www.w3.org/2000/svg"><path d="M944.4 444.4c.3 0 .7 0 1 0 30.7 0 55.6 24.9 55.6 55.6s-24.9 55.6 -55.6 55.6c-.3 0 -.7 0 -1 -.1h-42.1c-99 0 -148.6 119.7 -78.6 189.7l29.8 29.8c8.1 8.8 14.7 25.7 14.7 37.6 0 30.7 -24.9 55.6 -55.6 55.6 -11.9 0 -28.8 -6.6 -37.6 -14.7l-29.8 -29.7c-70 -70 -189.6 -20.4 -189.6 78.5v42.1c0 30.6 -24.9 55.5 -55.6 55.5S444.4 975 444.4 944.4v-42.1c0 -99 -119.6 -148.6 -189.6 -78.6L225 853.5c-8.8 8.1 -25.7 14.7 -37.6 14.7 -30.7 0 -55.6 -24.9 -55.6 -55.6 0 -11.9 6.6 -28.8 14.7 -37.6l29.7 -29.8c70 -70 20.4 -189.7 -78.5 -189.7H55.6c-.3 .1 -.8 .1 -1.1 .1C23.9 555.6 -1 530.7 -1 500s24.9 -55.6 55.5 -55.6c.3 0 .8 0 1.1 0h42.1c99 0 148.6 -119.6 78.6 -189.6L146.5 225c-8.2 -8.8 -14.9 -25.8 -14.9 -37.9 0 -30.6 24.9 -55.5 55.5 -55.5 12.1 0 29.1 6.7 37.9 14.9l29.8 29.7c70 70 189.6 20.4 189.6 -78.5V55.5C444.4 24.9 469.3 0 500 0s55.6 24.9 55.6 55.5v42.1c0 99 119.6 148.6 189.6 78.6L775 146.5c8.8 -8.2 25.8 -14.9 37.9 -14.9 30.6 0 55.5 24.9 55.5 55.5 0 12.1 -6.7 29.1 -14.9 37.9l-29.7 29.8c-70 70 -20.4 189.6 78.5 189.6h42.1zm-506.9 86.9c51.8 0 93.8 -42 93.8 -93.8s-42 -93.7 -93.8 -93.7 -93.7 41.9 -93.7 93.7 41.9 93.8 93.7 93.8zm156.3 109.3c25.8 0 46.8 -21 46.8 -46.8s-21 -46.9 -46.8 -46.9 -46.9 21 -46.9 46.9 21 46.8 46.9 46.8z"/></svg>