<svg height="1000" width="1250" xmlns="http://www.w3.org/2000/svg"><path d="M968.8 250C1124 250 1250 376 1250 531.3S1124 812.5 968.8 812.5H281.3C126 812.5 0 686.5 0 531.3 0 376 126 250 281.3 250s281.2 126 281.2 281.3c0 47 -21.2 117 -47.4 156.2h219.8C708.7 648.3 687.5 578.3 687.5 531.3 687.5 376 813.5 250 968.7 250h.1zM125 531.3c0 86.2 70 156.2 156.3 156.2s156.2 -70 156.2 -156.2S367.5 375 281.3 375 125 445 125 531.3zm843.8 156.2c86.2 0 156.2 -70 156.2 -156.2S1055 375 968.8 375 812.5 445 812.5 531.3s70 156.2 156.3 156.2z"/></svg>