<svg height="1000" width="1000" xmlns="http://www.w3.org/2000/svg"><path d="M451.9 475.5C333 548.6 205.2 716.8 166.6 850.9 127 813.4 77.2 742.5 55.4 692.5 100 508.2 230.3 351.9 407.6 269.1c23.2 54.6 43.1 147.1 44.3 206.4zM379.9 213C215.8 290.2 88.8 424.8 23.6 587.1 -15.1 373.6 90 172.2 267.8 75c37.1 33.1 87.3 94.9 112.1 138zm366.4 322.5c-59 -7.2 -149 -36.2 -201 -64.8C541.5 331.1 459.7 136.2 362.7 35.7 455.1 8.4 527.1 15.8 555.8 19.1 693 149.8 763.1 340.6 746.3 535.5zm-243.6 18.6c97.1 52.3 203.1 79.7 309.8 79.8 44.3 -.2 115.1 -9.3 158 -20.3 -12.8 53.2 -49.7 131.8 -82.4 175.6 -181.7 53.3 -381.9 18.6 -542 -93.3C381.8 648.4 452 584.9 502.7 554.1zm-192 194.7C415.4 821.6 592 901.5 812.5 870.1c-74.6 63.2 -214.3 114.4 -312 114.4 -75.3 0 -188.4 -31.9 -252.5 -71.3C260.5 855 281 799.6 310.7 748.8zM662.9 44.5c187.3 67 321.5 245.3 321.5 455.8 0 4 -.6 7.9 -.6 11.8C937 527.4 859 539.8 809.8 539.8c-.4 0 -.9 0 -1.2 0C824 359.3 770.9 182 662.9 44.5z"/></svg>