<svg height="1000" width="1125" xmlns="http://www.w3.org/2000/svg"><path d="M420 138.8c29.3 -29.3 80 -8.8 80 33.1v656.2c0 41.9 -50.7 62.5 -80 33.1L246.2 687.5H46.9C21 687.5 0 666.5 0 640.6V359.4c0 -25.9 21 -46.9 46.9 -46.9h199.3zM875.7 39C1031.8 141.5 1125 313.8 1125 500s-93.2 358.6 -249.3 461c-22.6 14.9 -51.7 7.4 -65.5 -13.6C795.9 925.6 802 896.3 823.8 882c129.4 -84.9 206.7 -227.7 206.7 -382 0 -154.2 -77.3 -297 -206.7 -382C802 103.7 795.9 74.4 810.2 52.6 824.6 30.7 853.9 24.7 875.7 39zm61.8 461c0 124.1 -62.6 238.2 -167.5 305.2 -23.5 15 -52 5.6 -64.7 -14.6 -13.9 -22.1 -7.4 -51.2 14.5 -65.2 77.6 -49.6 124 -133.8 124 -225.4S797.4 324.2 719.8 274.6c-21.9 -14 -28.4 -43.2 -14.5 -65.2 13.8 -22 42.8 -28.5 64.7 -14.6 104.9 67 167.5 181.1 167.5 305.2zM660.6 349.9C715.8 380.2 750 437.7 750 500s-34.2 119.8 -89.4 150.1c-22.6 12.4 -51.1 4.4 -63.7 -18.4C584.5 609 592.7 580.5 615.4 568c25.2 -13.9 40.8 -39.9 40.8 -68s-15.6 -54.1 -40.8 -68c-22.7 -12.5 -31 -41 -18.5 -63.7 12.6 -22.7 41.1 -30.8 63.7 -18.4z"/></svg>