<svg height="1000" width="1250" xmlns="http://www.w3.org/2000/svg"><path d="M1187.5 625c34.6 0 62.5 27.9 62.5 62.5V875c0 34.6 -27.9 62.5 -62.5 62.5H62.5C27.9 937.5 0 909.6 0 875V687.5C0 652.9 27.9 625 62.5 625h125v125h-43.8c-10.3 0 -18.7 7 -18.7 15.6v31.3c0 8.6 8.4 15.6 18.7 15.6h962.6c10.3 0 18.7 -7 18.7 -15.6v-31.3c0 -8.6 -8.4 -15.6 -18.7 -15.6h-43.8V625h125zM1000 750H250V125.6c0 -34.8 28.3 -63.1 63.3 -63.1h623.6c34.8 0 63.1 28.1 63.1 63.1V750zM412.5 394.5c-8.2 8.2 -8.4 21.5 0 29.7l144.7 145.9c8.2 8.4 21.5 8.4 29.7 .2L837.5 321.9c8.4 -8.2 8.4 -21.5 .2 -29.7l-49.4 -49.8a20.826 20.826 0 0 0 -29.7 -.2L572.7 426.6 492 345.3a20.826 20.826 0 0 0 -29.7 -.2z"/></svg>