<svg height="1000" width="1250" xmlns="http://www.w3.org/2000/svg"><path d="M1187.5 125c34.5 0 62.5 28 62.5 62.5v625c0 34.5 -28 62.5 -62.5 62.5H874.6c-49.2 0 -93.8 -28.8 -114 -73.7L706.4 680.9C691 646.6 659.5 625 625 625s-66 21.6 -81.4 55.9l-54.2 120.4c-20.2 44.9 -64.8 73.7 -114 73.7H62.5C28 875 0 847 0 812.5v-625C0 153 28 125 62.5 125h1125zm-875 468.8c69 0 125 -56 125 -125s-56 -125 -125 -125 -125 55.9 -125 125 56 125 125 125zm625 0c69 0 125 -56 125 -125s-56 -125 -125 -125 -125 55.9 -125 125 56 125 125 125z"/></svg>