<svg height="1000" width="625" xmlns="http://www.w3.org/2000/svg"><path d="M406.3 187.5c-51.8 0 -93.8 -42 -93.8 -93.7S354.5 0 406.3 0 500 42 500 93.8s-42 93.7 -93.7 93.7zm184.5 291.2c30.7 15.4 43 53.3 27.9 84 -15.4 30.9 -52.5 43.4 -83 27.9l-45.5 -23c-29.3 -14.9 -51.5 -40.8 -61.9 -72.3l-10.7 -32.2L384 597.3l88.9 97c14 15.3 24 34 29.1 54.1l43.3 173.9c8.4 33.4 -12.1 67.3 -45.5 75.7 -33.4 8.4 -67.4 -12.1 -75.8 -45.5L388.3 809.4a126.868 126.868 0 0 0 -29.1 -54.1l-117 -127.8c-28.3 -31 -39.3 -74.2 -29.1 -114.8l29.7 -118.6 -52.4 21.1c-14 5.7 -25.4 16.4 -32.2 30.1l-13.1 26.6c-15.4 30.8 -52.5 43.3 -83 27.9C31.4 484.4 19.1 446.9 34.4 416l13.1 -26.5c20.3 -41.1 54.8 -73.3 97 -90.3C217.6 269.7 256.4 249.8 326.8 250c90.8 .2 170.9 61.1 199.6 148.2l18.9 57.5zM143.7 753.5l40.5 -100.6c17 23.3 -15.4 -12.9 92.6 104.9l-26.4 66c-6.5 15.8 -15.8 30.1 -27.7 42l-116.1 116c-24.4 24.5 -63.8 24.5 -88.2 0s-24.5 -64 0 -88.4L116 795.5c12.1 -11.9 21.5 -26.2 27.7 -42z"/></svg>