<svg height="1000" width="1250" xmlns="http://www.w3.org/2000/svg"><path d="M984.4 687.5c8.6 0 15.6 7 15.6 15.6v93.8c0 8.6 -7 15.6 -15.6 15.6H266.2c-8.6 0 -15.6 -7 -15.6 -15.6l.2 -93.8c0 -8.6 7 -15.6 15.6 -15.6h718zm0 187.5c8.6 0 15.6 7 15.6 15.6v93.8c0 8.6 -7 15.6 -15.6 15.6H265.6C257 1000 250 993 250 984.4l.2 -93.8c0 -8.6 7 -15.6 15.6 -15.6h718.6zm0 -375c8.6 0 15.6 7 15.6 15.6v93.8c0 8.6 -7 15.6 -15.6 15.6H266.6C258 625 251 618 251 609.4l.2 -93.8c0 -8.6 7 -15.6 15.6 -15.6h717.6zm208 -271.5c34.7 14.7 57.6 48.6 57.6 86.5v669.4c0 8.6 -7 15.6 -15.6 15.6h-156.3c-8.6 0 -15.6 -7 -15.6 -15.6V500c0 -34.4 -28.5 -62.5 -63.7 -62.5H251.2c-35.2 0 -63.7 28.1 -63.7 62.5v484.4c0 8.6 -7 15.6 -15.6 15.6H15.6C7 1000 0 993 0 984.4V315c0 -37.9 22.9 -71.8 57.6 -86.5L588.9 7.2C598.4 3.3 614.6 0 624.9 0s26.5 3.3 36 7.2z"/></svg>