<svg height="1000" width="1125" xmlns="http://www.w3.org/2000/svg"><path d="M1097.9 749.8c15.8 1.8 27.1 16.2 26.9 31.8v61.8c0 17.7 -14.8 32.8 -32.6 31.2 -55.1 -4.9 -109 -22.6 -154.5 -50.4 -107.4 66.6 -264.7 67.6 -375 0 -107.4 66.6 -264.7 67.6 -375 0 -45.5 28.3 -98.8 45.7 -155.1 50.6C14.8 876.4 0 861.3 0 843.6v-62.9C0 765.2 11.1 751.6 26.6 750c42.3 -4.5 82.4 -19.9 112.7 -43.8 26.9 -21.2 65.6 -25.7 92 -3.9 74.8 62 209.3 62.2 283.5 3.4 26.8 -21.3 64.9 -25.4 91.3 -3.6 75.2 62.4 210.5 62.4 284.5 3 27.4 -22.1 66.6 -21.7 94.2 0 30.8 24.2 71.1 40 113.1 44.7zm0 -281.2c15.8 1.7 27.1 16.2 26.9 31.8v61.7c0 17.8 -14.8 32.8 -32.6 31.3 -55.1 -4.9 -109 -22.7 -154.5 -50.4 -107.4 66.6 -264.7 67.5 -375 0 -107.4 66.6 -264.7 67.5 -375 0 -45.5 28.3 -98.8 45.7 -155.1 50.6C14.8 595.1 0 580.1 0 562.3v-62.9C0 484 11.1 470.3 26.6 468.7 68.9 464.3 109 448.8 139.3 425c26.9 -21.3 65.6 -25.8 92 -3.9 74.8 61.9 209.3 62.1 283.5 3.3 26.8 -21.3 64.9 -25.4 91.3 -3.5 75.2 62.3 210.5 62.3 284.5 2.9 27.4 -22 66.6 -21.7 94.2 0 30.8 24.2 71.1 40.1 113.1 44.8zm0 -281.3c15.8 1.8 27.1 16.2 26.9 31.8v61.8c0 17.7 -14.8 32.8 -32.6 31.2 -55.1 -4.9 -109 -22.6 -154.5 -50.4 -107.4 66.6 -264.7 67.6 -375 0 -107.4 66.6 -264.7 67.6 -375 0C142.2 290 88.9 307.4 32.6 312.3 14.8 313.9 0 298.8 0 281.1v-62.9c0 -15.5 11.1 -29.1 26.6 -30.7C68.9 183 109 167.6 139.3 143.7c26.9 -21.2 65.6 -25.7 92 -3.9 74.8 62 209.3 62.2 283.5 3.4 26.8 -21.3 64.9 -25.4 91.3 -3.6 75.2 62.4 210.5 62.4 284.5 3 27.4 -22.1 66.6 -21.7 94.2 0 30.8 24.2 71.1 39.8 113.1 44.7z"/></svg>