<svg height="1000" width="1000" xmlns="http://www.w3.org/2000/svg"><path d="M980.8 393.9c28.4 167.7 -60.4 328 -221 406.5 25.4 66.6 -24.3 137.1 -94.4 137.1 -52.9 0 -98 -42.9 -100.7 -95.7 -12.6 .4 -125.4 0 -149.1 -1.3 -2.2 53.5 -47.4 96.9 -100.9 96.9 -1.1 0 -3 0 -4.2 -.1 -66.1 -2.6 -113.1 -68 -91.7 -132.6C146.1 779.1 77.1 736.6 24.2 666.4c-25.4 -33.7 -1 -81.6 40.7 -81.6 90.4 0 62.9 -105.8 84.3 -215.4 36 -183.5 228 -306.9 413.5 -306.9 200.1 0 385 138 418.1 331.4zM729.5 758.4c82 -37.5 158.9 -110.8 188.1 -199.5C996.6 318.5 792.3 113.6 562.7 113.6c-163 0 -332.7 108.2 -363.4 265.6C180.6 474.7 209 635.7 65 635.7c48.7 64.7 113.9 102.8 183 125.1 48.2 -42.6 124.8 -30.2 156 28 27.7 2 154.6 2.3 171.6 1.6 15.6 -30.3 55.8 -54.9 89.9 -54.9 19.9 0 48.6 10.2 64 22.9zM400.6 365.5c0 -67.9 99.3 -67.9 99.3 0s-99.3 67.8 -99.3 0zm227.7 0c0 -67.9 99.3 -67.9 99.3 0s-99.3 67.9 -99.3 0zM388.8 503.6c-6.7 -33.1 43.3 -43.4 50.1 -10.2l.1 .5c8.1 41.9 58.3 86 125.2 84.1 69.7 -1.8 115.7 -43.3 125.2 -83.5 8.7 -31.3 55.9 -20.2 49.8 11.7 -10.2 43.4 -61 121.1 -178.7 122.9 -83.1 0 -157.9 -54.4 -171.6 -125.5z"/></svg>