<svg height="1000" width="1000" xmlns="http://www.w3.org/2000/svg"><path d="M830.3 128.6c99.4 0 170.9 68.6 169.7 163 0 42.2 -1.8 36.2 -151.3 443.8 -43.8 118.3 -132.4 136 -181.2 136 -76.6 0 -136.8 -38 -167.8 -106 -31 67.4 -91.2 105.4 -167.8 105.4 -48.8 0 -137.5 -17.1 -181.2 -135.4C8.2 344.3 0 335.9 0 279.4 0 194.8 75.4 128.6 171 128.6c78.5 0 143.1 50.2 163.4 125.6C370.5 140.8 462.3 128.6 500.9 128.6c38 0 130.5 12.2 166 125.6 20.2 -75.4 85.5 -125.6 163.4 -125.6zm51.4 224.2c6.8 -21.9 14.2 -37.8 14.9 -53.2 0 -43.7 -31.6 -69.7 -74.9 -69.7 -36.5 0 -62.5 23 -70.5 56.7l-86 273.1h-1.9L576.1 292.5c-11.8 -39 -32.2 -62.6 -76.1 -62.6s-64.3 24.2 -76.1 62.6l-87.2 267.2h-1.9l-86 -273.1c-8 -33.7 -34 -56.7 -70.5 -56.7 -43.9 0 -74.9 25.4 -74.9 57.3 0 20.7 5 38.4 15.5 67.4l126.8 342.2c15.5 42 41.5 72.7 90.4 72.7 45.1 0 72.3 -23.6 85.9 -65.6l76.8 -229.3h1.8l76.7 229.3c13 42 40.2 66.2 86 66.2 48.9 0 74.9 -30.7 90.3 -72.7z"/></svg>