<svg height="1000" width="1000" xmlns="http://www.w3.org/2000/svg"><path d="M794.9 346.9c14.9 -46.9 -26.2 -91.4 -73 -81.5 -43 9.4 -56.3 -54.9 -13.9 -64 97.9 -21.3 180.3 72.4 149.4 165.6 -13.3 41.4 -75.8 21.1 -62.5 -20.1zM419.5 872.5C211.9 872.5 0 772.1 0 606.3 0 519.7 54.7 419.9 149 325.6 343.8 130.9 545.9 128.5 488.1 314.5c-7.8 25.5 24 11.1 24 11.7 155.3 -65.7 274.4 -32.8 222.7 100.4 -7.3 18.3 2.1 21.3 16.2 25.5 265 82.7 67.9 420.4 -331.5 420.4zM700.2 586.7C689.6 477.9 546.9 403.1 381.1 419.3 215.4 436.1 90.4 537.1 101 645.9c10.5 108.8 153.3 183.6 319.1 167.4C585.7 796.5 710.7 695.5 700.2 586.7zM679.5 68.6C879.3 26.4 1049.2 214.1 986.9 409c-16.2 48.8 -87.5 23.8 -73 -23.5C959 246.5 836.9 113.7 695.7 143.4c-49 10.5 -66.8 -63.9 -16.2 -74.8zM526.2 676c-33.4 75.8 -130.5 117.2 -213.1 90.4C233.4 740.8 199.8 662.1 234.4 591.2 268.9 522.1 357.6 483 436.3 503.1c82.1 21.1 123.3 98.1 89.9 172.9zM357.6 617.4c-25.2 -10.6 -58.6 .6 -74.2 25.2 -16.2 25.2 -8.4 54.7 16.8 66.4 25.6 11.7 60.2 .6 76.4 -25.2 15.6 -25.6 7.2 -55.3 -19 -66.4zm63.7 -26.2c-10 -3.3 -22.3 1.2 -27.9 10.6 -5.7 9.9 -2.8 20.7 7.2 25.2 9.9 3.9 22.8 -.6 28.5 -10.6 5.5 -10.1 2.1 -21.3 -7.8 -25.2z"/></svg>