<svg height="1000" width="1000" xmlns="http://www.w3.org/2000/svg"><path d="M875 125c68.9 0 125 56.1 125 125v625c0 68.9 -56.1 125 -125 125H125C56.1 1000 0 943.9 0 875V250C0 181.1 56.1 125 125 125h50.7C143.7 180.2 125 244.2 125 312.5c0 206.8 168.2 375 375 375s375 -168.2 375 -375C875 244.2 856.3 180.2 824.3 125H875zM500 625C327.4 625 187.5 485.1 187.5 312.5S327.4 0 500 0s312.5 139.9 312.5 312.5S672.6 625 500 625zm-.6 -296.8c-42.8 .4 -77.5 35.1 -77.5 78.1 0 43.1 35 78.1 78.1 78.1s78.1 -35 78.1 -78.1c0 -20.7 -8.3 -39.1 -21.4 -53.1l65.8 -153.4c6.8 -15.9 -.6 -34.2 -16.4 -41 -15.8 -6.9 -34.3 .4 -41.1 16.4z"/></svg>