<svg height="1000" width="1125" xmlns="http://www.w3.org/2000/svg"><path d="M752.3 327.3c-180.4 0 -323 135 -322.8 300.8 0 27.8 4.3 54.5 12.1 79.7 -12.1 1 -23.6 1.6 -35.7 1.6 -47.7 0 -85.6 -9.6 -133.2 -19L139.8 757l37.7 -114.4C82.6 576 25.4 489.8 25.4 385.5c0 -180.8 170.9 -323 380.3 -323 186.7 0 350.9 113.9 383.4 267 -12.1 -1.6 -24.3 -2.2 -36.8 -2.2zM548.2 224c-28.7 0 -57 19 -57.2 47.7 0 28.3 28.3 47.2 57.2 47.2 28.4 0 47.3 -18.9 47.3 -47.2C595.5 243 576.6 224 548.2 224zm-266.4 94.9c28.9 0 47.7 -18.7 47.7 -47.2C329.5 243 310.7 224 281.8 224c-28.3 0 -57.2 18.8 -57.2 47.7 0 28.3 28.9 47.2 57.2 47.2zm817.8 304.9c0 85.6 -56.6 161.6 -133.2 219l28.9 94.9L891 880.5c-38.5 9.3 -76.7 19.3 -114.4 19.3C595.7 899.8 453.5 776 453.5 623.8c0 -152.1 142 -276 323.1 -276 170.9 0 323 123.9 323 276zM671.7 576c28.7 0 47.6 -18.8 47.6 -38.3 0 -18.8 -18.7 -37.7 -47.6 -37.7 -18.8 0 -37.7 18.7 -37.7 37.7 0 19.3 18.7 38.3 37.7 38.3zm209.2 0c28.3 0 47.8 -18.8 47.6 -38.3 0 -18.8 -19.3 -37.7 -47.6 -37.7 -18.8 0 -37.7 18.7 -37.7 37.7 0 19.3 18.7 38.3 37.7 38.3z"/></svg>