<svg height="1000" width="875" xmlns="http://www.w3.org/2000/svg"><path d="M743.9 189.6C825.8 271.7 875 380.5 875 496.3c0 239.1 -198.8 433.6 -437.7 433.6h-.2c-72.6 0 -143.9 -18.2 -207.2 -52.8L0 937.5 61.5 712.9C23.6 647.1 3.7 572.5 3.7 496.1 3.7 257 198.2 62.5 437.3 62.5c115.8 0 224.8 45.1 306.6 127.1zM437.3 856.8c198.6 0 364.5 -161.7 364.5 -360.5C802 400 760.2 309.6 692.2 241.4 624.2 173.2 533.8 135.7 437.5 135.7 238.7 135.7 77 297.5 77 496.1c0 68.2 18.9 134.4 55 191.8l8.6 13.7 -36.3 133 136.3 -35.8 13.1 7.8c55.3 32.9 118.8 50.2 183.6 50.2zM635 586.9c10.7 5.3 17.9 8 20.5 12.9 2.7 4.5 2.7 26.2 -6.3 51.6 -9 25.4 -52.1 48.4 -73 51.5 -34.4 5.1 -61.4 2.6 -130.1 -27.1C337.3 628.7 266.4 519.3 260.9 512.1 255.7 504.9 216.8 453.3 216.8 400s27.9 -79.5 37.9 -90.4c9.9 -10.8 21.7 -13.5 28.9 -13.5s14.4 0 20.7 .4c6.6 .4 15.6 -2.6 24.4 18.5 9 21.7 30.7 75 33.4 80.5 2.7 5.5 4.5 11.7 1 19 -20.7 41.4 -43 40 -31.9 59.1 42 72.1 83.8 97.1 147.5 128.9 10.8 5.5 17.2 4.5 23.4 -2.7 6.5 -7.4 27.2 -31.6 34.4 -42.6 7.3 -10.9 14.5 -9.2 24.4 -5.4 10 3.5 63.3 29.6 74.1 35.1z"/></svg>