<svg height="1000" width="1250" xmlns="http://www.w3.org/2000/svg"><path d="M1240.1 302.5c13 12 13.2 32.4 .7 44.9l-66.9 66.3c-12 11.9 -31.3 12.2 -43.8 .8 -285 -261.2 -725.2 -261.1 -1010.2 0 -12.5 11.4 -31.8 11.1 -43.8 -.8L9.3 347.4C-3.3 334.9 -3.1 314.5 9.9 302.5c345.9 -319.9 884.1 -320.1 1230.2 0zM625 687.5c69 0 125 56 125 125s-56 125 -125 125 -125 -56 -125 -125 56 -125 125 -125zm395.8 -163.3c13.5 11.9 13.9 32.6 1.1 45.3l-67.2 66.3c-11.8 11.6 -30.6 12.4 -43.1 1.6C748 496 502.3 495.7 338.4 637.4c-12.5 10.8 -31.4 10 -43.1 -1.6L228 569.5c-12.7 -12.7 -12.3 -33.3 1.2 -45.3 224.8 -198.8 566.5 -199 791.6 0z"/></svg>