<svg height="1000" width="1000" xmlns="http://www.w3.org/2000/svg"><path d="M306.1 500c95.1 0 180.2 68.4 192.1 162.9C512.9 777.1 423.8 875 312.3 875c-91 0 -167.2 -65.4 -184 -151.6 -3.5 -18.7 11.9 -35.9 31.1 -35.9h64c12.9 0 25.6 7.4 29.7 19.7C261.5 732 285 750 312.5 750c38.1 0 68.2 -34 61.7 -73C369.1 646.3 340 625 309 625H31.3C14.1 625 0 610.9 0 593.8v-62.5C0 514.1 14.1 500 31.3 500h274.8zM31.3 437.5C14.1 437.5 0 423.4 0 406.3v-62.5c0 -17.2 14.1 -31.3 31.3 -31.3H684c31.2 0 60.1 -21.3 65.2 -52 6.5 -39 -23.8 -73 -61.7 -73 -27.5 0 -51 18 -59.4 42.8C624 242.6 611.5 250 598.4 250h-64c-19 0 -34.6 -17 -30.9 -35.7C522.7 115.4 619.7 44.1 727.9 66.8c70.7 14.8 128 72.1 142.8 142.8 25.4 120.9 -66.6 227.9 -183.2 227.9H31.2zm750 62.5c137.6 0 246 127.9 212.6 270.9C975.2 851.2 909 915.4 828.5 932.4 713.5 956.8 610.5 890 575.8 791.2c-7.2 -20.1 8.6 -41.2 29.9 -41.2h66c11.3 0 22.6 5.1 28.3 14.8 16.2 28.4 46.3 47.7 81.3 47.7 51.7 0 93.7 -42 93.7 -93.8S833 625 781.3 625H553.7C540.8 575.8 513.7 532.4 476 500h305.3z"/></svg>