<svg height="1000" width="1000" xmlns="http://www.w3.org/2000/svg"><path d="M906.3 62.5c51.7 0 93.7 42 93.7 93.8v687.5c0 51.7 -42 93.7 -93.7 93.7H93.8C42 937.5 0 895.5 0 843.8V156.3C0 104.5 42 62.5 93.8 62.5h812.5zM743 629.9L611.9 500 743 370.1c9.3 -9.4 9.3 -24.6 0 -34L663.9 257c-9.4 -9.3 -24.6 -9.3 -34 0L500 388.1 370.1 257c-9.4 -9.3 -24.6 -9.3 -34 0L257 336.1c-9.3 9.4 -9.3 24.6 0 34L388.1 500 257 629.9c-9.3 9.4 -9.3 24.6 0 34l79.1 79.1c9.4 9.3 24.6 9.3 34 0L500 611.9 629.9 743c9.4 9.3 24.6 9.3 34 0L743 663.9c9.3 -9.4 9.3 -24.6 0 -34z"/></svg>