<svg height="1000" width="1250" xmlns="http://www.w3.org/2000/svg"><path d="M768.3 257.2c0 25.5 4.1 63.9 -56 85.6 -18.6 6.7 -31.1 18.9 -31.1 18.9 0 -60.6 9.2 -82.5 33.9 -95.5 19.1 -9.9 53.2 -9 53.2 -9zm-226.2 69.4c10.8 -51.4 60.4 -74.9 108.1 -68.9L522.1 742s-42.3 3 -63.4 -7.8c-27.8 -14.1 -41 -25 -57.8 -90.9C385.9 584.6 344 412 340.1 399.7c-8.4 -26.9 -20.8 -29.2 -30.1 0 -3.9 12.3 -45.8 184.9 -60.7 243.6 -16.9 65.9 -30.1 76.8 -57.8 90.9C170.3 745 128.1 742 128.1 742L0 257.7c46.6 -5.8 97.1 16.7 108 68.9l66.8 259.1 55.7 -212c15.1 -63.2 41.1 -94.8 94.6 -94.8 53.9 0 79.5 32.3 94.5 94.8l55.7 212zm226.2 10.2v311c-.2 60.2 -6.5 73.6 -33.7 87.5 -21.1 10.8 -53.4 6.7 -53.4 6.7V445c0 -41.5 -3.9 -54.6 25.7 -68.8C719 370.4 730.3 366 742 359.4c18.3 -10.2 26.3 -22.6 26.3 -22.6zM1087.5 501l162.1 241s-70.2 9 -104.2 -21.9c-27.1 -24.8 -46.3 -55.4 -103.7 -138.2 -1 -1.5 -12.3 -20.5 -25.6 0C947.9 680.3 936 699.6 913.6 720.1 879.6 751 808.2 742 808.2 742L970.3 501 807.8 259.3s68.5 -11.6 102.5 19.3c26.1 23.8 48.6 59 105.8 141.5 13.3 20.6 24.6 1.4 25.5 0 58.2 -83.8 79.9 -117.9 105.9 -141.5 33.9 -30.9 102.5 -19.3 102.5 -19.3z"/></svg>