<svg height="1000" width="1000" xmlns="http://www.w3.org/2000/svg"><path d="M522.9 921l-22.3 41.2L478.2 921l-20.6 31 -10.3 -24.1L437 941.6v58.2C395.8 984.4 395.7 869.2 387.1 810c-9 -62.3 1.8 -181.3 -158.9 -291.3 17.4 -46.1 23.5 -96.5 5.2 -156.3C178.9 368.9 128 383 109.7 468l59.2 16.4c-21.8 45 -33.2 91.3 -25.7 140.9l53.2 -13.7 12.1 65.3 36 -13.7 17.2 65.3 37.8 -13.7L247.9 756l-17.2 -55 -48.1 10.3 -13.7 -69.6 -51.5 28.4c-.5 -39.1 -13.6 -113.4 17.2 -165L83 515.4c-7.8 -43.1 4.7 -76.5 15.5 -110.8l-43.8 18.9C55.5 374.6 113.2 312.6 175 309.3c39.5 -2.2 110.8 -49.2 105.6 -101.4 -3.8 -38.8 -34 -83.3 -84.2 -97.1 85.9 71.3 19 131.5 -10.3 143.5C177.5 232 151.9 119.4 186.1 0c79.1 44.7 175.2 127.1 182.1 288.8l113.4 75.6 6.9 182.1L278.8 429.7l-13.6 13.7 34.3 6.8 85.9 75.6 31 -10.3 54.9 96.2 6.9 233.7L437 876.3l63.6 31 63.5 -31 -41.2 -30.9 6.9 -233.7 54.9 -96.2 30.9 10.3 85.9 -75.6 34.4 -6.8 -13.7 -13.7L512.7 546.4l6.8 -182.1 113.3 -75.6C639.7 127.2 736 44.7 814.8 0c34.3 119.4 8.6 232 0 254.3 -29.2 -12 -96.2 -72.1 -10.3 -143.4 -50.1 13.8 -80.3 58.2 -84.2 97 -5.1 52.2 66.2 99.3 105.7 101.4 61.8 3.3 119.4 65.3 120.3 114.3l-43.8 -19c10.8 34.3 23.2 67.8 15.4 110.9l-51.5 -10.3c30.8 51.5 17.7 125.8 17.2 164.9L832 641.7l-13.6 69.6 -48.1 -10.2 -17.2 55 -51.5 -41.3 37.8 13.7 17.2 -65.2 36.1 13.7 12 -65.3 53.3 13.8c7.4 -49.6 -4 -96 -25.8 -140.9l59.3 -16.4C873 383.2 822.3 369.1 767.8 362.6c-18.3 59.8 -12.2 110.2 5.1 156.3C612.3 628.9 623 747.9 614 810.1c-8.6 59.3 -8.7 174.4 -49.8 189.9v-58.5l-10.4 -13.7 -10.3 24.1zM677.5 735.4l-30.9 -20.6c14.6 -8.5 26.9 -16.4 37.8 -24 -1.2 14.1 -.5 27 -6.9 44.6zm55 -96.2c-.8 21.4 -1.7 42.3 -3.4 61.9 -15.3 -3.7 -30.4 -7.5 -41.2 -13.7 16 -15.5 30.3 -31.9 44.6 -48.2zm48.1 10.3l-46.4 -12c11 -14 27.2 -37.9 36.1 -53.3 6.3 18 10.3 39.1 10.3 65.3zm6.9 -158.1c38 25 54.3 65.8 58.4 110 -24 -8.9 -48.1 -18.2 -72.1 -20.6 9.8 -23.5 12.9 -55 13.6 -89.4h.1zm-3.4 -89.3c36.2 5.1 68.6 17.9 89.3 55 -27.7 8.5 -48.4 11.6 -85.9 27.5 .2 -26.2 -1.9 -54.6 -3.4 -82.5zM323.6 735.4c-6.3 -17.6 -5.7 -30.4 -6.9 -44.6 11 7.6 23.2 15.5 37.8 24zm-55 -96.2c14.3 16.3 28.6 32.7 44.7 48.2 -10.8 6.2 -25.9 10 -41.2 13.6 -1.7 -19.5 -2.7 -40.5 -3.5 -61.8zm-48.1 10.3c0 -26.2 3.9 -47.3 10.3 -65.3 8.9 15.4 25.1 39.3 36.1 53.3zm-6.9 -158.1h.2c.7 34.4 3.9 65.9 13.7 89.3 -24.2 2.5 -48.2 11.8 -72.3 20.7 4.1 -44.3 20.4 -85 58.4 -110zm3.5 -89.3c-1.6 27.9 -3.6 56.3 -3.5 82.4C176.1 468.7 155.4 465.6 127.7 457c20.7 -37 53.2 -49.8 89.4 -54.9z"/></svg>