<svg height="1000" width="1125" xmlns="http://www.w3.org/2000/svg"><path d="M1101.6 375H979.1l-14.5 62.5h137c12.9 0 23.4 10.5 23.4 23.4v78.2c0 12.9 -10.5 23.4 -23.4 23.4H935.7l-82.2 356.8c-2.5 10.6 -11.9 18.2 -22.8 18.2h-111c-10.9 0 -20.3 -7.6 -22.8 -18.2L614.1 562.5H506.4l-82.6 356.8c-2.5 10.6 -11.9 18.2 -22.8 18.2H290c-10.9 0 -20.5 -7.6 -22.8 -18.4L187.3 562.5H23.4C10.5 562.5 0 552 0 539.1v-78.2C0 448 10.5 437.5 23.4 437.5h135.8L145.1 375H23.4C10.5 375 0 364.5 0 351.6v-78.2C0 260.5 10.5 250 23.4 250h93.8L81.8 92.4C78.5 77.7 89.6 63.9 104.7 63.9h82.2c11.1 0 20.9 7.8 23.1 18.7L244.1 250h212.3L495.5 82C498 71.3 507.4 63.9 518.4 63.9h85.9c10.9 0 20.3 7.4 22.8 18.1l38.5 168h214.7L908.4 82.4c2.1 -10.7 11.7 -18.5 22.8 -18.5h90.1c15 0 26.2 14 22.8 28.7L1007.8 250h93.8c12.9 0 23.4 10.5 23.4 23.4v78.2c0 12.9 -10.5 23.4 -23.4 23.4zM359 668l24.6 -105.5h-75.8L329.3 668c10 49.2 13.3 92.2 13.3 92.2h2.1c1 0 2.2 -41.8 14.3 -92.2zm53.7 -230.5L427.3 375H269.5l12.7 62.5h130.5zm122.8 0h49.7l-4 -16.8c-3.7 -15.6 -6.8 -31.2 -9.3 -45.7h-23.1c-2.5 14.5 -5.6 30.1 -9.3 45.7zM791.2 668l22.5 -105.5h-76.4L761.5 668c12.1 50.4 13.1 92.2 14.3 92.2h2.1s3.4 -43 13.3 -92.2zm49.2 -230.5L853.9 375H694.5l14.3 62.5h131.6z"/></svg>