<svg height="1000" width="1000" xmlns="http://www.w3.org/2000/svg"><path d="M500 15.6c267 0 484.4 217.2 484.4 484.4C984.4 767 767 984.4 500 984.4S15.6 767 15.6 500C15.6 232.8 233 15.6 500 15.6zM64.5 500c0 172.3 100.1 321.3 245.5 392L102.1 322.9C77.9 377 64.5 436.9 64.5 500zM500 935.5c50.8 0 99.4 -8.7 144.5 -24.6 -1.1 -1.9 -2.1 -3.9 -3.1 -6L507.6 538.1 377 917.8c39 11.5 80.2 17.7 123 17.7zm60 -639.6l157.6 468 43.3 -145.1c19 -60.4 33.2 -103.6 33.2 -140.9 0 -53.9 -19.3 -91.2 -35.9 -120.1C736.1 321.9 715.4 291.6 715.4 255.7c0 -40.1 30.3 -77.4 73.1 -77.4 1.9 0 3.7 .2 5.6 .4C716.6 107.8 613.3 64.5 500 64.5c-152.2 0 -285.9 78.1 -363.9 196.2 10.4 .4 20 .6 28.2 .6 45.5 0 116 -5.4 116 -5.4 23.4 -1.4 26.1 33.2 2.7 35.9 0 0 -23.6 2.7 -49.8 4.1l158.6 471.7 95.3 -285.8L419.3 295.9c-23.4 -1.4 -45.7 -4.1 -45.7 -4.1 -23.4 -1.4 -20.7 -37.3 2.8 -35.9 0 0 71.8 5.4 114.6 5.4 45.5 0 116 -5.4 116 -5.4 23.5 -1.4 26.2 33.2 2.8 35.9 0 0 -23.7 2.7 -49.8 4.1zm158.9 580.5C848.4 801 935.5 660.7 935.5 500c0 -75.8 -19.3 -146.9 -53.3 -209 2 13.9 3 28.7 3 44.7 0 44.4 -8.4 94 -33.2 156.1z"/></svg>