<svg height="1000" width="1000" xmlns="http://www.w3.org/2000/svg"><path d="M120.5 330.9l198.3 542.9C180.1 806.6 84.6 664.5 84.6 500c0 -60.4 12.9 -117.4 35.9 -169.1zm660 148.2c0 35.5 -13.7 76.8 -31.3 134.2l-41.4 138.5L557.6 305.1c25 -1.4 47.5 -3.9 47.5 -3.9 22.2 -2.6 19.7 -35.6 -2.8 -34.2 0 0 -67.3 5.3 -110.7 5.3 -40.8 0 -109.4 -5.3 -109.4 -5.3 -22.2 -1.4 -25 32.8 -2.5 34.2 0 0 21.1 2.5 43.5 3.9l64.7 177.3 -91 272.7 -151.4 -450c25 -1.4 47.5 -3.9 47.5 -3.9 22.2 -2.6 19.7 -35.6 -2.8 -34.2 0 0 -67.3 5.3 -110.7 5.3 -7.8 0 -17 -.2 -26.8 -.6C227.1 158.8 354.9 84.4 500 84.4c108.2 0 206.6 41.4 280.7 109.2 -2 -.2 -3.7 -.4 -5.5 -.4 -40.8 0 -69.7 35.5 -69.7 73.8 0 34.2 19.7 63.3 40.8 97.5 15.8 27.7 34.2 63.2 34.2 114.6zm-273.3 57.2l127.8 350c.7 2 1.7 3.9 2.9 5.7 -43.2 15.2 -89.5 23.6 -137.9 23.6 -40.8 0 -80.1 -6 -117.4 -17zM864.6 300.6c32.5 59.2 50.8 127.1 50.8 199.4 0 153.3 -83 287.1 -206.6 359.2l126.9 -367c23.9 -59.4 31.7 -106.7 31.7 -148.8 0 -15.5 -1 -29.5 -2.8 -42.8zM984.4 500C984.4 767.2 767 984.4 500 984.4 232.8 984.4 15.6 767 15.6 500 15.6 232.8 232.8 15.6 500 15.6c267 0 484.4 217.2 484.4 484.4zm-22.3 0C962.1 245.1 754.7 37.9 500 37.9 245.1 37.9 37.9 245.1 37.9 500S245.3 962.1 500 962.1c254.9 0 462.1 -207.2 462.1 -462.1z"/></svg>