<svg height="1000" width="1000" xmlns="http://www.w3.org/2000/svg"><path d="M1000 500c0 275.8 -224 500 -500 500C224.2 1000 0 776 0 500S224 0 500 0s500 224 500 500zm-62.5 0C937.5 259.4 741.6 62.5 500 62.5 258.8 62.5 62.5 258.8 62.5 500S258.8 937.5 500 937.5 937.5 741.2 937.5 500zM314.3 243.4L484 315.8l-72.5 169.7L241.8 413.1zm214.8 330.2l91 183.6h-28.5L493.9 561.9l-95.5 195.3h-27.3l99.8 -208.8 -43.6 -18.3 11.8 -27.4L573 559.6l-11.7 27.9zm-23 -227.1L640 403.9l-57.4 133.4L449.2 480.5zm156.8 83.8l106.6 45.1 -45.7 106 -106 -45.1z"/></svg>