<svg height="1000" width="968.8" xmlns="http://www.w3.org/2000/svg"><path d="M484.4 15.6c267.5 0 484.4 216.9 484.4 484.4S751.9 984.4 484.4 984.4 0 767.5 0 500 216.9 15.6 484.4 15.6zM819 325.4c4.7 -10.7 .9 -16.2 -11 -16.2 -204.7 0 -210.3 .1 -255.4 0 -8.4 0 -13.9 3.5 -17.3 11.3 -11.1 25.6 -22.5 51 -33.8 76.6 -5 11.3 -1.9 16.1 10.3 16.1 49.4 0 98.7 0 148 0 19.6 -.1 16.7 26.6 -7.6 26.6 -51.6 -.1 -103.2 0 -154.8 -.1 -9.6 0 -16.3 3.7 -20.3 12.7 -8.3 19.2 -62.7 142.7 -62.8 142.9 -6.3 14 -31.8 11.9 -22.1 -10.4 16.2 -37.1 32.6 -74.1 48.8 -111.1 4.4 -10 -.2 -17.1 -11 -17.1 -29.7 -.1 -59.5 .1 -89.2 -.1 -6.5 0 -10.5 2.5 -13.2 8.6C266.2 605.5 269.5 596.7 269 597.4c-7.6 12.4 -29 6.5 -21.4 -11C258.7 561 269.8 535.6 281 510.3 307.5 450.2 334 390 360.6 329.9c4.9 -11.2 -.9 -20.6 -13 -20.6 -27.9 -.1 -55.7 .1 -83.5 -.1 -8.3 -.1 -13.3 3.4 -16.7 11 -25.1 57.4 -50.4 114.7 -75.6 172 -16.9 38.2 -33.7 76.4 -50.6 114.6 -3.1 6.9 -2.9 13.2 2.4 19 21.9 24 43.8 48.1 65.7 72.1 4.1 4.5 9 6.8 15.1 6.8 89.7 0 179.4 0 269.2 0 7.5 0 12.4 -3.5 15.4 -10.3 20.2 -45.9 40.6 -91.7 60.5 -137.7 4.1 -9.5 10.2 -13.2 20.2 -13.2 44.9 .3 89.9 .1 134.9 .1 11.8 0 20.5 -5.3 25.3 -16.1C759.7 460.2 789.4 392.8 819 325.4z"/></svg>