<svg height="1000" width="1000" xmlns="http://www.w3.org/2000/svg"><path d="M991.7 213.1c23 92.6 -1.7 194.6 -74.1 267 -77.9 78 -189.9 99.5 -287.8 66.9L213.4 963.4c-48.9 48.8 -128 48.8 -176.8 0s-48.8 -128 0 -176.8L453.4 369.9C421.2 272 442.5 159.8 519.9 82.4c72.3 -72.3 174.2 -97 266.7 -74.1 17.8 4.4 24 26.4 11.1 39.4L652.5 192.9l22.1 132.6 132.5 22.1L952.4 202.3c12.8 -12.8 34.9 -6.9 39.3 10.8zM125 921.9c25.9 0 46.9 -21 46.9 -46.9s-21 -46.9 -46.9 -46.9 -46.9 21 -46.9 46.9 21 46.9 46.9 46.9z"/></svg>