<svg height="1000" width="1250" xmlns="http://www.w3.org/2000/svg"><path d="M468.8 750c17.1 0 31.2 14.1 31.2 31.3s-14.1 31.2 -31.2 31.2 -31.3 -14.1 -31.3 -31.2S451.6 750 468.8 750zm312.5 62.5c-17.2 0 -31.3 -14.1 -31.3 -31.2S764.1 750 781.3 750s31.2 14.1 31.2 31.3 -14.1 31.2 -31.2 31.2zM1218.8 0c17.1 0 31.2 14.1 31.2 31.3v62.5c0 17.1 -14.1 31.2 -31.2 31.2H31.3C14.1 125 0 110.9 0 93.8V31.3C0 14.1 14.1 0 31.3 0h1187.5zm0 875c17.1 0 31.2 14.1 31.2 31.3v62.5c0 17.1 -14.1 31.2 -31.2 31.2H31.3C14.1 1000 0 985.9 0 968.8v-62.5C0 889.1 14.1 875 31.3 875H125V187.5h1000V875h93.8zM937.5 484.4v-31.3c0 -8.6 -7 -15.6 -15.6 -15.6H656.3V375h203.1c8.6 0 15.6 -7 15.6 -15.6v-31.3c0 -8.6 -7 -15.6 -15.6 -15.6H656.3v-46.9c0 -8.6 -7.1 -15.6 -15.7 -15.6h-31.2c-8.6 0 -15.6 7 -15.6 15.6v46.9H390.6c-8.6 0 -15.6 7 -15.6 15.6v31.3c0 8.6 7 15.6 15.6 15.6h203.2v62.5H328.1c-8.6 0 -15.6 7 -15.6 15.6v31.3c0 8.6 7 15.6 15.6 15.6h265.7v62.5H390.6c-8.6 0 -15.6 7 -15.6 15.6v31.3c0 8.6 7 15.6 15.6 15.6h203.2v62.5h-125c-51.8 0 -93.8 42 -93.8 93.8s42 93.7 93.8 93.7 93.7 -42 93.7 -93.7V750h125v31.3c0 51.7 42 93.7 93.8 93.7S875 833 875 781.3s-42 -93.8 -93.7 -93.8h-125V625h203.1c8.6 0 15.6 -7 15.6 -15.6v-31.3c0 -8.6 -7 -15.6 -15.6 -15.6H656.3V500h265.6c8.6 0 15.6 -7 15.6 -15.6z"/></svg>