<svg height="1000" width="1000" xmlns="http://www.w3.org/2000/svg"><path d="M722.5 621.5c86.5 106 126.3 193 106.2 231.8C813.3 882.8 718 940.4 647.9 962.5c-57.9 18.2 -133.6 26 -196.1 19.9 -74.7 -7.2 -150.2 -34 -215.1 -76.2C182.2 870.7 169.9 856.1 169.9 827c0 -58.4 64.3 -160.8 174.2 -277.6 62.5 -66.2 149.5 -143.9 159 -141.8 18.4 4.1 164.7 146.7 219.4 213.9zM368.4 280.9C238.7 440 161.3 584.4 133.4 660.5c-19.1 51.8 -26.8 103.6 -18.6 125 5.5 14.5 .4 9.2 -18.1 -19.3C51.4 696.9 28.5 628.7 17.6 530.1c-3.7 -32.6 -2.4 -51.4 8.2 -118.2 13.3 -83.4 60.7 -179.7 117.8 -239 24.2 -25.2 26.3 -25.8 56 -15.9 55.3 18.6 110.8 71.3 168.8 123.9zm608.6 124c9.1 44.1 9.9 138.5 1.5 182.4 -7 36.1 -21.9 83 -36.3 114.7 -10.8 23.8 -37.7 69.9 -49.6 84.9 -6.1 7.6 -6.1 7.6 -2.8 -9 4.5 -21.8 -1.1 -61.7 -14.4 -102.1C835 552.9 718.2 384.8 635.4 280.7c45.5 -41.8 80 -74.8 125.5 -103.2C784 163.1 817 150.4 831.2 150.4c13.9 0 112.7 98.2 145.8 254.5zM276 84c-28.5 1.4 -27.4 -.2 18.3 -21.9C452.9 -12.7 626.4 8.2 751.2 85 725 83.8 666.2 73.4 541.4 134.2c-21.9 10.7 -40.8 19.1 -42.2 18.9C490.2 151.4 369.1 79.1 276 84z"/></svg>