<svg height="1000" width="875" xmlns="http://www.w3.org/2000/svg"><path d="M781.3 62.5c51.7 0 93.7 42 93.7 93.8v687.5c0 51.7 -42 93.7 -93.7 93.7H93.8C42 937.5 0 895.5 0 843.8V156.3C0 104.5 42 62.5 93.8 62.5h687.5zM274.2 625.4c9.6 0 17.8 -5.7 24.6 -17.8 62.7 -110.3 95.3 -167.8 97.9 -172.2L334.4 327.3C327.7 316 319.3 310.4 309.2 310.4h-91c-11.4 0 -17.6 8.7 -11.8 19.7l61.4 105.4c.2 .2 .2 .4 0 .4l-96.3 169.4c-5.3 9.7 1 20.1 11.7 20.1h91zM703.3 207.2c5.5 -10.3 -.6 -19.7 -11.7 -19.5H600c-10 0 -18 5.7 -24.4 17 -130.1 229.3 -197.5 348 -202 356l128.9 235c6.3 11.3 14.5 17 25.2 17h91.1c11.9 0 17.1 -9.8 11.7 -19.7l-128 -232.5v-.3z"/></svg>