<svg height="1000" width="750" xmlns="http://www.w3.org/2000/svg"><path d="M317.8 410.2c-3.5 6.4 -49.2 86.7 -136.9 241.2 -9.6 16.2 -21.1 24.4 -34.6 24.4H19.1c-15 0 -23.6 -14.7 -16.6 -28.1l134.8 -237c.4 0 .4 -.2 0 -.5L51.6 262.5C43.2 247.3 52.1 235 68.2 235h127.1c14.3 0 26 8 35.2 23.8zM747.3 90L466 584.2v.6l178.9 325.4c7.6 13.8 .4 27.5 -16.6 27.5H501c-14.9 0 -26.6 -7.8 -35.2 -23.8L285.4 584.8C291.8 573.4 385.9 407.4 568.2 86.3c8.9 -15.8 20.3 -23.8 34.1 -23.8h128.4c15.6 0 24 13.1 16.6 27.5z"/></svg>