<svg height="1000" width="1000" xmlns="http://www.w3.org/2000/svg"><path d="M823.8 297.2c-94.1 51.5 -231.6 113.6 -254.3 97.7s178.6 -157 208.4 -173.4c1.8 -1 3.5 -1.9 5.1 -2.7 3.5 -1.1 9.2 -1.9 12.8 -1.9 24.8 0 45 20.2 45 45 0 12 -7.6 27.8 -17 35.3zm0 424.2c9.3 7.4 16.9 23.2 16.9 35.1 0 24.9 -20.2 45.1 -45.1 45.1 -3.5 0 -9.2 -.8 -12.6 -1.8 -1.6 -.8 -3.3 -1.8 -5.1 -2.8C748 780.6 546.9 639.5 569.5 623.7c22.6 -15.8 160.2 46.1 254.3 97.7zm82.9 -258.5c19.7 4.1 35.6 23.8 35.6 44 0 21 -16.9 40.9 -37.7 44.3C797.4 551.2 647 539.5 634.7 514.6c-12.3 -25 232.1 -51.8 266.1 -51.8 2.1 0 4 .1 5.9 .1zM60.5 188.8c-1.3 -4.1 -2.4 -11 -2.4 -15.3 0 -26.9 21.7 -48.6 48.6 -48.6 17 0 36.7 12.5 44 27.9l158.2 400.5h2.3L461.6 155.8c6.3 -16.1 25.5 -29.2 42.8 -29.2 25.4 0 46 20.6 46 45.9 0 3.7 -.9 9.6 -2 13.1l-214 534C298.1 811.8 261.9 875 152.2 875c-.3 0 -.8 0 -1.1 0 -12.6 0 -33 -1.7 -45.4 -3.8C89 866.4 75.5 848.5 75.5 831.2c0 -23 18.7 -41.6 41.6 -41.6 .6 0 1.5 0 2 0 1.3 .1 21.3 1.3 27.1 1.3 59.5 0 85.4 -37 113.4 -116z"/></svg>