<svg height="1000" width="968.8" xmlns="http://www.w3.org/2000/svg"><path d="M769.3 674.2c-76.1 18.2 -94.5 62.7 -203.1 92.6 0 0 -5.3 7.8 -20.3 11.3 -26.2 6.5 -124.8 11.7 -133.8 11.9 -24.2 .2 -38.9 -6.2 -43 -16 -12.5 -29.9 18 -42.9 18 -42.9C371.3 721.3 369.5 711.7 368 715.2c-4.7 11.4 -7.1 39.3 -19.8 51.8 -17.1 17.4 -49.8 11.5 -68.9 1.6 -21.1 -11.2 1.6 -37.5 1.6 -37.5s-11.4 6.6 -20.5 -7.1C248.6 705.9 227 651.2 282.8 602.9c-2.5 -19.7 -9 -104.9 79.3 -167.2 0 0 -40.2 -44.5 -25.2 -84.5 9.8 -26.2 13.7 -26 16.8 -27.2 11.1 -4.3 22.1 -9 30.1 -17.8 40.2 -43.3 91.4 -35.1 91.4 -35.1s24.2 -73.8 46.7 -59.4c6.8 4.5 31.8 59.8 31.8 59.8s26.6 -15.4 29.5 -9.8c16 31.3 18 90.8 10.9 127.2 -11.9 59.7 -41.8 92 -53.9 112.3 -2.7 4.7 32.3 19.5 54.3 80.6 20.3 55.9 2.2 103 5.5 108 1.6 2.8 26.8 1.6 71.1 -25.7 25 -15.5 54.9 -33 88.7 -33.2 32.6 -1 34.3 37.5 9.5 43.3zM968.8 500c0 267.4 -217 484.4 -484.4 484.4S0 767.4 0 500 217 15.6 484.4 15.6s484.4 217 484.4 484.4zM813.9 646.9C810.5 620.3 788.1 602 759.2 602.3c-43 .6 -79.1 22.9 -103.1 37.5 -9.4 5.9 -17.4 10.2 -24.3 13.3 6.1 -86.9 -43.9 -142.7 -56 -155.1 15.2 -22 35.9 -54.3 45.7 -103.9 8.4 -42.3 5.8 -108.4 -13.5 -145.5 -3.1 -6 -14.4 -21.8 -41 -14.4C548 195.1 541.6 191 536.5 187.7c-2.1 -1.4 -46.1 -32 -80.8 54.7 -23.9 1.7 -61.2 10.3 -92.8 44.5 -3.9 4.3 -11.5 7.4 -19.7 10.6h.2c-16.4 5.8 -24.1 19.3 -33 43.5 -12.7 34 .3 67.6 13.2 89.3 -34.7 31 -72.2 77.7 -69.7 161.1C187.5 661.7 230.9 734 243 746.9c-3.2 21.7 7.2 37.9 23.4 46.5 24.6 13 59.2 18.7 85.7 5.4 9.6 10.2 27 19.8 58.6 19.8 13.3 0 113.3 -5.7 141.8 -12.7 13.3 -3.2 22.5 -8.8 28.6 -13.9 19.1 -6.1 71.8 -24 121.4 -56.1C737.7 713.1 749.8 708.2 776 702c25.2 -6.3 41 -29.5 37.9 -55.1z"/></svg>