<svg height="1000" width="750" xmlns="http://www.w3.org/2000/svg"><path d="M83.8 469.4l194.6 94.9c37.5 18.4 31.6 73.3 -8.8 83.4l-210 52.4c-3 .7 -7.8 1.3 -10.9 1.3 -22 0 -41.8 -17.7 -44.2 -39.6C3.1 649.7 2 630.1 2 617.9c0 -34.8 9 -89.8 20.1 -122.7 5.6 -16.8 24.5 -30.3 42.2 -30.3 5.6 0 14.4 2 19.5 4.5zm85.9 467.3C159 929.3 150.3 912.9 150.3 899.9c0 -9.5 5.2 -22.8 11.5 -29.8l144.9 -161c27.9 -30.8 79.1 -10.1 77.8 31.5L376.8 957c-.8 23.8 -20.7 43 -44.4 43 -2.1 0 -5.5 -.3 -7.6 -.6 -46.6 -7.9 -116.1 -36 -155.1 -62.7zM453.6 722c-22.1 -35.4 12.1 -79 51.8 -66.3l205.9 67c16.9 5.6 30.7 24.7 30.7 42.6 0 5.5 -1.9 14 -4.2 19 -20.3 42.7 -66.5 101.9 -102.9 132 -6.9 5.7 -19.6 10.2 -28.5 10.2 -13.7 0 -30.7 -9.4 -37.9 -20.9zM743.3 463.7c2 4.7 3.8 12.7 3.8 17.9 0 18.5 -14.5 37.8 -32.3 43.1l-208.2 59.6C466.5 595.8 434.1 551 457.3 516.5L578.4 336.9c7.4 -10.8 23.9 -19.6 37 -19.6 9.3 0 22.5 4.9 29.4 11 35.5 31.4 79.6 92 98.5 135.4zM121.3 58.9C178.9 31.5 277.2 5.2 340.7 .2c1 -.1 2.6 -.2 3.6 -.2 24.4 0 44.3 19.8 44.3 44.3 0 .1 0 .3 0 .4v406.9c0 45.5 -60.4 61.7 -83.3 22.3L102 121.4c-3.3 -5.7 -6 -15.6 -6 -22.2 0 -15.5 11.4 -33.5 25.3 -40.3z"/></svg>