<svg height="1000" width="750" xmlns="http://www.w3.org/2000/svg"><path d="M685.9 62.5c17.8 0 29.1 18.9 20.7 34.4L550.2 390.6h113.9c12.9 0 23.4 10.6 23.4 23.5v62.5c0 12.9 -10.5 23.4 -23.4 23.4H491.8l-38.7 72.7V625h211c12.9 0 23.4 10.5 23.4 23.4v62.5c0 12.9 -10.5 23.5 -23.4 23.5h-211v179.7c0 12.9 -10.5 23.4 -23.4 23.4H320.3c-12.9 0 -23.4 -10.5 -23.4 -23.4V734.4h-211C73 734.4 62.5 723.8 62.5 710.9v-62.5C62.5 635.5 73 625 85.9 625h211v-52.3L258.2 500H85.9C73 500 62.5 489.5 62.5 476.6v-62.5c0 -12.9 10.5 -23.5 23.4 -23.5h113.9L43.4 96.9C35.2 81.4 46.3 62.5 64.1 62.5h127.3c9 0 17.2 5.1 21.1 13.1l108.2 221.1c28.3 67.8 52.9 140.4 52.9 140.4h2.6s24.6 -72.6 52.9 -140.4L537.3 75.6c3.9 -8 12.1 -13.1 21.1 -13.1h127.5z"/></svg>