<svg height="1000" width="968.8" xmlns="http://www.w3.org/2000/svg"><path d="M484.4 15.6c267.5 0 484.4 216.9 484.4 484.4S751.9 984.4 484.4 984.4 0 767.5 0 500 216.9 15.6 484.4 15.6zm0 734.4c34.5 0 62.5 -28 62.5 -62.5S518.9 625 484.4 625s-62.5 28 -62.5 62.5 28 62.5 62.5 62.5zm0 -250c103.5 0 187.5 -83.9 187.5 -187.5S587.9 125 484.4 125c-207.1 0 -375 167.9 -375 375s167.9 375 375 375C380.8 875 296.9 791.1 296.9 687.5S380.8 500 484.4 500zm0 -250c34.5 0 62.5 28 62.5 62.5s-28 62.5 -62.5 62.5 -62.5 -28 -62.5 -62.5 28 -62.5 62.5 -62.5z"/></svg>