<svg height="1000" width="1250" xmlns="http://www.w3.org/2000/svg"><path d="M333.1 289.3h239.6v424.9H476l-82.1 51.5 -15.1 -51.5h-45.7V289.3zM524 668.1V335.4H381.8v332.7l23.2 .1 9.9 34.1 54.5 -34.2H524zM292.6 483.7c14.7 0 14.9 46.1 14.9 46.1H187c-1.7 25.7 -6.8 52.2 -15.3 79.5l28.5 -22.7c17.1 17.1 57.1 64.2 71.9 81.6 17.9 25.6 2.4 78.1 2.4 78.1L169.1 619.5C144.5 713.9 99.6 754.8 99.6 754.8 79.9 772.3 40 785.5 0 774.1c83.7 -64.9 129.8 -147 138.4 -244.3H10.3s7.5 -46.2 30.4 -46.2h102.1c.9 -12.8 3.3 -122.9 3.3 -143.4H89.7c-5.2 15.4 -6 16.9 -10.1 28.4C57.2 409.6 19.2 410.7 7.7 412 41.8 343.6 61 276.8 67.6 259.4c16.1 -42.2 63.1 -42.2 63.1 -42.2 -10.3 27.4 -18.8 53.9 -25.7 79.5h172.9c20.6 -.5 16.7 43.6 16.7 43.6h-99.9c0 42.7 -.9 90.5 -4.3 143.4h102.2zm804.8 -3.1l-37.6 -28.2s60.2 -78.2 71.9 -94.1c17.1 -21 53.5 7.9 53.5 7.9s-47.2 64.3 -87.8 114.4zM804.2 365.2c17.6 16.1 67.7 89.5 67.7 89.5l-38 26.9c-3.1 -4.7 -80.3 -112.2 -80.3 -112.2s33 -20.3 50.6 -4.2zM1250 504.6s1.9 46.5 -17.1 46.5H994v143.2c1.5 54.7 -30 88.5 -87.7 88.5 -19.2 0 -31.5 -3.5 -50.8 -12.9C830.1 755.4 821.6 735 817.8 727.3c30.4 1.3 53.9 3.7 81.4 3.5 25.9 1.7 47.8 -14 47.8 -41.2V551H736.2c-44.3 -1 -49.9 -44.6 -49.9 -44.6H947V311.5c-25 0 -61.8 1.6 -110.3 4.7 -51.7 1.6 -70 5.1 -96 -1.7 -16 -4.9 -27.7 -21 -30.9 -38.2C841 273.2 1163.7 241 1163.7 241s39.2 -11.2 45.2 -8.9c25 12.2 1.2 65.3 1.2 65.3 -34.5 1.6 -91.6 4.7 -171.4 9.4 -20.4 1.6 -35.3 2.3 -44.7 2.3v197.3c.3 0 217.4 -1.8 256 -1.8z"/></svg>