<svg height="1000" width="1000" xmlns="http://www.w3.org/2000/svg"><path d="M840.009 755.03C782.806 712.06 749.999 646.442 749.999 575v-150C749.998 299.356 665.298 193.125 550 160.4l-.002 -35.397c0 -41.354 -33.644 -75 -75 -75 -41.355 0 -75 33.646 -75 75v35.396c-115.3 32.726 -200 138.958 -200 264.603v150c0 71.442 -32.807 137.06 -90.01 180.029a24.998 24.998 0 0 0 -8.698 27.903 25 25 0 0 0 23.714 17.086h227.52A125.09 125.09 0 0 0 350 825c0 68.925 56.075 125 125 125s125 -56.075 125 -125a125.303 125.303 0 0 0 -2.524 -24.981h227.52c10.758 0 20.308 -6.88 23.714 -17.086s-.099 -21.442 -8.7 -27.903zM449.999 125.002c0 -13.784 11.216 -25 25 -25s25 11.216 25 25v26.147c-8.238 -.746 -16.573 -1.149 -25 -1.149s-16.764 .403 -25 1.149v-26.147zm100 699.998c0 41.355 -33.646 75 -75 75s-75 -33.645 -75 -75a75.197 75.197 0 0 1 4.291 -24.981h141.419a75.214 75.214 0 0 1 4.29 24.981zM187.08 750.02c12.768 -15.456 23.864 -32.277 32.953 -50.07 19.884 -38.923 29.965 -80.962 29.965 -124.949v-150c0 -124.065 100.935 -225 225 -225s225 100.935 225 225v150c0 43.987 10.08 86.026 29.965 124.95 9.089 17.792 20.184 34.614 32.953 50.068H187.081z"/></svg>