<svg height="1000" width="1000" xmlns="http://www.w3.org/2000/svg"><path d="M699.998 300.002h50v50h-50v-50zm0 100h50v50h-50v-50zm0 100h50V550h-50v-50zm0 99.999h50v50h-50v-50zm0 200h50v50h-50v-50zm0 -100h50v50h-50v-50zM300 300h50v50h-50v-50zm0 100h50v50h-50v-50zm0 100h50v50h-50v-50zm0 100h50v50h-50v-50zm0 200h50v50h-50v-50zm0 -100h50v50h-50v-50zM200 300h50v50h-50v-50zm0 100h50v50h-50v-50zm0 100h50v50h-50v-50zm0 100h50v50h-50v-50zm0 200h50v50h-50v-50zm0 -100h50v50h-50v-50zM400 300h50v50h-50v-50zm0 100h50v50h-50v-50zm0 100h50v50h-50v-50zm0 100h50v50h-50v-50zm0 200h50v50h-50v-50zm0 -100h50v50h-50v-50zM924.998 950h-25V275.002c0 -38.143 -28.344 -77.467 -64.528 -89.528l-235.472 -78.49V25.002A25.002 25.002 0 0 0 589.922 4.945 25.006 25.006 0 0 0 567.816 1.057l-452.108 135.63C78.862 147.743 50 186.535 50 225.003V950H25C11.193 950 0 961.192 0 975s11.193 25 25 25h899.998c13.807 0 25 -11.192 25 -25s-11.193 -25 -25 -25zM819.659 232.908c15.878 5.292 30.339 25.356 30.339 42.094V950h-250V159.688l219.661 73.22zm-719.66 -7.906c0 -16.433 14.335 -35.7 30.076 -40.422L549.999 58.602V950h-450V225.002z"/></svg>