<svg height="1000" width="1000" xmlns="http://www.w3.org/2000/svg"><path d="M810.875 189.127C721.159 99.41 601.875 50.002 474.999 50.002S228.84 99.412 139.125 189.127 0 398.124 0 525s49.41 246.16 139.125 335.876S348.122 1000 474.999 1000s246.16 -49.408 335.876 -139.123 139.123 -209 139.123 -335.876S900.589 278.843 810.875 189.127zM474.999 950c-234.345 0 -425 -190.654 -425 -424.999S240.655 100.002 475 100.002s424.999 190.654 424.999 425S709.344 950 474.998 950zM767.673 507.326l-200 -200c-9.76 -9.763 -25.591 -9.763 -35.354 0 -9.764 9.764 -9.764 25.593 0 35.355l157.325 157.32H175c-13.807 0 -25 11.193 -25 25s11.193 25 25 25h514.644l-157.32 157.325c-9.764 9.76 -9.764 25.592 0 35.354 4.88 4.88 11.276 7.32 17.675 7.32s12.794 -2.44 17.674 -7.325l200 -200c9.765 -9.762 9.765 -25.587 0 -35.349z"/></svg>