<svg height="1000" width="1000" xmlns="http://www.w3.org/2000/svg"><path d="M139.123 189.127C228.838 99.41 348.123 50.002 474.999 50.002s246.158 49.41 335.874 139.125S949.998 398.124 949.998 525s-49.41 246.16 -139.125 335.876S601.875 1000 474.999 1000 228.839 950.592 139.123 860.877 0 651.877 0 525.001 49.408 278.843 139.123 189.127zM474.999 950c234.345 0 424.999 -190.654 424.999 -424.999s-190.654 -424.999 -425 -424.999C240.655 100.002 50 290.656 50 525.002S240.654 950 474.999 950zM182.325 507.326l200 -200c9.76 -9.763 25.59 -9.763 35.354 0 9.763 9.764 9.763 25.593 0 35.355l-157.325 157.32h514.644c13.807 0 25 11.193 25 25s-11.193 25 -25 25H260.354l157.32 157.325c9.763 9.76 9.763 25.592 0 35.354 -4.88 4.88 -11.277 7.32 -17.675 7.32s-12.795 -2.44 -17.675 -7.325l-200 -200c-9.765 -9.762 -9.765 -25.587 0 -35.349z"/></svg>