<svg height="1000" width="1000" xmlns="http://www.w3.org/2000/svg"><path d="M139.125 189.125C49.409 278.841 0 398.125 0 525.001S49.41 771.16 139.125 860.875 348.122 1000 474.999 1000s246.16 -49.41 335.876 -139.125S949.998 651.878 949.998 525.001 900.589 278.841 810.875 189.125 601.875 50.002 474.999 50.002 228.84 99.41 139.125 189.125zm760.873 335.876c0 234.345 -190.654 424.999 -425 424.999S50 759.346 50 525.001C50 290.656 240.654 100.002 474.999 100.002s424.999 190.654 424.999 425zM457.324 232.327l-200 200c-9.763 9.76 -9.763 25.591 0 35.354 9.763 9.764 25.592 9.764 35.355 0l157.32 -157.325V825c0 13.807 11.192 25 25 25s25 -11.193 25 -25V310.356l157.325 157.32c9.76 9.764 25.591 9.764 35.354 0 4.88 -4.88 7.32 -11.276 7.32 -17.675s-2.44 -12.795 -7.325 -17.674l-200 -200c-9.762 -9.766 -25.587 -9.766 -35.349 0z"/></svg>