<svg height="1000" width="1000" xmlns="http://www.w3.org/2000/svg"><path d="M275 450.1c-41.412 0 -75.1 -33.69 -75.1 -75.099s33.69 -75.099 75.1 -75.099 75.099 33.69 75.099 75.1 -33.69 75.099 -75.1 75.099zm0 -100.198c-13.841 0 -25.1 11.26 -25.1 25.1S261.16 400.1 275 400.1s25.099 -11.26 25.099 -25.1 -11.26 -25.1 -25.1 -25.1zM474.998 850c-13.807 0 -25 -11.192 -25 -25V675.1c0 -38.604 29.072 -77.17 66.185 -87.794l74.995 -21.47L428.182 457.172l-85.507 85.508a24.994 24.994 0 0 1 -17.677 7.323h-100.1c-13.806 0 -25 -11.192 -25 -25s11.194 -25 25 -25h89.746l92.676 -92.676c8.427 -8.427 21.63 -9.733 31.545 -3.125l183.396 122.265c27.49 18.325 27.408 39.867 26.097 48.278s-7.787 28.958 -39.549 38.053l-78.865 22.576c-15.672 4.487 -29.947 23.424 -29.947 39.726V825c0 13.808 -11.194 25 -25 25zm275 150c-110.28 0 -200 -89.72 -200 -200s89.72 -200 200 -200 199.999 89.721 199.999 200 -89.72 200 -200 200zm0 -350c-82.712 0 -150 67.29 -150 150s67.288 150 150 150S899.997 882.711 899.997 800s-67.29 -150 -150 -150zm-550.05 350C89.698 1000 0 910.303 0 800.05S89.697 600.1 199.95 600.1 399.9 689.799 399.9 800.05 310.2 1000 199.95 1000zm0 -349.9C117.268 650.1 50 717.368 50 800.05S117.268 950 199.95 950 349.9 882.733 349.9 800.05 282.632 650.1 199.95 650.1z"/></svg>