<svg height="1000" width="1000" xmlns="http://www.w3.org/2000/svg"><path d="M499.999 450.001h-125c-13.807 0 -25 -11.192 -25 -25v-150c0 -13.806 11.193 -25 25 -25h125c55.14 0 100 44.86 100 100s-44.86 100 -100 100zm-100 -50h100c27.57 0 50 -22.43 50 -50s-22.43 -50 -50 -50h-100v100zm150 350h-175c-13.807 0 -25 -11.193 -25 -25V575c0 -13.808 11.193 -25 25 -25h175c55.14 0 100 44.86 100 100s-44.86 100 -100 100zm-150 -50h150c27.57 0 50 -22.43 50 -50s-22.43 -50 -50 -50h-150v100zm150 200h-275c-41.354 0 -75 -33.644 -75 -75V175.001c0 -41.354 33.646 -75 75 -75h225c137.85 0 250 112.15 250 250 0 41.218 -10.087 81.4 -29.332 117.432 50.67 47.248 79.331 112.642 79.331 182.567 0 137.851 -112.148 250 -250 250zm-275 -749.999c-13.784 0 -25 11.216 -25 25V825c0 13.784 11.216 25 25 25h275c110.279 0 200 -89.72 200 -200 0 -61.837 -28.048 -119.262 -76.95 -157.552 -10.545 -8.254 -12.663 -23.283 -5.015 -34.098 20.914 -32.313 31.964 -69.756 31.964 -108.348 0 -110.281 -89.72 -200 -200 -200H275z"/></svg>