<svg height="1000" width="1000" xmlns="http://www.w3.org/2000/svg"><path d="M724.998 900H225c-13.806 0 -25 -11.192 -25 -25s11.194 -25 25 -25h500c13.807 0 25 11.193 25 25s-11.193 25 -25 25zm100 -749.998c-13.808 0 -25 11.193 -25 25V925c0 13.784 -11.216 25 -25 25H224.999c-41.354 0 -75 -33.645 -75 -75s33.646 -75 75 -75h450c41.356 0 75 -33.643 75 -75V125.003c0 -41.354 -33.644 -75 -75 -75h-500c-41.354 0 -75 33.646 -75 75V875c0 68.925 56.076 125 125 125h549.999c41.356 0 75 -33.644 75 -75V175.002c0 -13.807 -11.193 -25 -25 -25zM175 100.002h499.998c13.784 0 25 11.216 25 25v599.999c0 13.784 -11.216 25 -25 25H225c-28.119 0 -54.093 9.338 -75 25.068V125.002c0 -13.784 11.216 -25 25 -25z"/></svg>