<svg height="1000" width="1000" xmlns="http://www.w3.org/2000/svg"><path d="M924.998 250.002h-225v-75c0 -41.354 -33.645 -75 -75 -75H375c-41.354 0 -75 33.646 -75 75v75H75C33.646 250.002 0 283.647 0 325.002V875c0 41.357 33.645 75 75 75h849.998c41.356 0 75 -33.643 75 -75V325.002c0 -41.355 -33.644 -75 -75 -75zm-574.999 -75c0 -13.784 11.216 -25 25 -25h250c13.784 0 25 11.216 25 25v75h-300v-75zm-275 125h849.999c13.784 0 25 11.215 25 25V700h-100v-25c0 -13.808 -11.193 -25 -25 -25h-100c-13.807 0 -25 11.192 -25 25v25H300v-25c0 -13.808 -11.193 -25 -25 -25H175c-13.806 0 -25 11.192 -25 25v25H50V325c0 -13.784 11.217 -25 25 -25zM799.999 700v50h-50v-50h50zm-549.999 0v50h-50v-50h50zm674.999 200H75C61.216 900 50 888.783 50 875V750h100v25c0 13.807 11.193 25 25 25h100c13.806 0 25 -11.193 25 -25v-25h399.998v25c0 13.807 11.193 25 25 25h100c13.807 0 25 -11.193 25 -25v-25h100v125c0 13.783 -11.216 25 -25 25z"/></svg>