<svg height="1000" width="1000" xmlns="http://www.w3.org/2000/svg"><path d="M874.998 600H799.27C796.156 545.039 782.79 492.343 760.243 444.91c51.813 -15.258 89.755 -63.222 89.755 -119.908 0 -13.807 -11.193 -25 -25 -25s-25 11.193 -25 25c0 38.07 -28.52 69.583 -65.312 74.353 -8.72 -13.313 -18.24 -26.055 -28.574 -38.111A357.775 357.775 0 0 0 689.48 343.153c6.98 -21.95 10.518 -44.802 10.518 -68.151 0 -124.065 -100.934 -225 -225 -225S250 150.937 250 275.002c0 23.348 3.54 46.2 10.518 68.15a357.849 357.849 0 0 0 -16.633 18.092c-10.334 12.056 -19.854 24.798 -28.573 38.11 -36.79 -4.768 -65.31 -36.282 -65.31 -74.352 0 -13.807 -11.194 -25 -25 -25s-25 11.193 -25 25c0 56.685 37.942 104.65 89.752 119.906C167.21 492.342 153.843 545.038 150.725 600H75.001c-13.807 0 -25 11.192 -25 25s11.193 25 25 25h75.726c3.115 54.963 16.483 107.659 39.028 155.093C137.943 820.35 100.001 868.314 100.001 925c0 13.808 11.193 25 25 25s25 -11.192 25 -25c0 -38.07 28.52 -69.584 65.312 -74.353 8.719 13.312 18.24 26.054 28.573 38.111C305.376 960.494 387.453 1000 475 1000S644.626 960.494 706.113 888.758c10.333 -12.057 19.855 -24.799 28.573 -38.111C771.479 855.415 800 886.927 800 925c0 13.808 11.192 25 25 25s25 -11.192 25 -25C850 868.315 812.057 820.35 760.247 805.094c22.545 -47.432 35.911 -100.13 39.028 -155.093H875c13.807 0 25 -11.193 25 -25s-11.193 -25 -25 -25zm-400 -499.998c96.496 0 175 78.505 175 175 0 10.728 -.966 21.312 -2.864 31.697C596.048 269.774 536.895 250.002 475 250.002s-121.05 19.771 -172.136 56.697A176.236 176.236 0 0 1 300 275.002c0 -96.495 78.505 -175 175 -175zM200 625.001C200 455.757 310.036 316.338 450 301.359v647.285c-139.963 -14.98 -250 -154.4 -250 -323.643zm300 323.643V301.359c139.962 14.979 250 154.398 250 323.642s-110.038 308.663 -250 323.643z"/></svg>