<svg height="1000" width="1000" xmlns="http://www.w3.org/2000/svg"><path d="M969.425 154.965C940.508 68.212 902.113 50.002 874.998 50.002c-.57 0 -1.149 .011 -1.73 .029C845.61 50.615 796.484 65 722.881 86.564 568.684 131.737 335.661 200.003 100 200.003c-57.01 0 -100 75.232 -100 175s42.99 174.999 100 174.999c18.448 0 36.88 .419 55.257 1.21l83.307 331.394C248.066 920.398 286.032 950 324.999 950h65.625c21.65 0 40.025 -9.014 50.412 -24.728 10.386 -15.714 11.475 -36.152 2.99 -56.07L315.191 566.825c156.788 23.117 301.08 65.38 407.688 96.612 73.603 21.565 122.73 35.95 150.387 36.534a57.32 57.32 0 0 0 1.73 .029c27.115 0 65.51 -18.21 94.427 -104.963 19.717 -59.143 30.573 -137.287 30.573 -220.037 0 -82.747 -10.856 -160.893 -30.572 -220.036zM799.998 375c0 -25.65 1.096 -50.746 3.208 -74.82 25.675 2.58 46.792 35.783 46.792 74.82s-21.117 72.24 -46.792 74.82c-2.112 -24.073 -3.208 -49.17 -3.208 -74.82zm-749.998 0c0 -76.304 29.614 -125 50 -125 56.754 0 113.198 -3.796 168.38 -10.2C256.523 277.687 250 324.677 250 375.002c0 50.341 6.523 97.322 18.38 135.198C213.196 503.798 156.752 500.001 100 500.001c-20.386 0 -50 -48.695 -50 -125zM398.025 888.8c2.05 4.812 1.885 8.016 1.297 8.903S395.855 900 390.624 900h-65.625c-15.966 0 -34.052 -14.101 -37.945 -29.586L207.63 554.468a1550.778 1550.778 0 0 1 50.013 4.85l140.382 329.481zM324.452 517.629C309.231 483.28 300 430.219 300 375.001c0 -56.076 9.022 -108.134 24.425 -142.622 159.232 -23.633 304.778 -66.27 412.513 -97.831 20.745 -6.078 40.552 -11.88 58.533 -16.937 -5.161 10.76 -10.159 23.13 -14.899 37.356 -19.717 59.142 -30.573 137.287 -30.573 220.035s10.856 160.894 30.572 220.037c4.74 14.225 9.738 26.596 14.899 37.356 -17.98 -5.06 -37.787 -10.861 -58.533 -16.94C629.207 583.897 483.674 541.264 324.452 517.63zm597.54 61.599C903.332 635.208 883.093 650 874.998 650s-28.334 -14.792 -46.994 -70.773c-7.836 -23.505 -14.14 -50.467 -18.772 -79.786 24.305 -2.803 47.166 -16.553 63.799 -38.729 17.39 -23.187 26.967 -53.627 26.967 -85.713 0 -32.083 -9.576 -62.525 -26.967 -85.71 -16.635 -22.177 -39.494 -35.927 -63.799 -38.73 4.631 -29.32 10.936 -56.28 18.772 -79.784 18.66 -55.982 38.898 -70.775 46.994 -70.775s28.333 14.792 46.994 70.773c18.06 54.182 28.006 126.71 28.006 204.226s-9.946 150.045 -28.006 204.227z"/></svg>