<svg height="1000" width="1000" xmlns="http://www.w3.org/2000/svg"><path d="M275 800c-41.355 0 -75 -33.643 -75 -75s33.645 -75 75 -75 75 33.644 75 75 -33.646 75 -75 75zm0 -100c-13.785 0 -25 11.216 -25 25s11.215 25 25 25 25 -11.215 25 -25 -11.217 -25 -25 -25zm449.998 100c-41.356 0 -75 -33.643 -75 -75s33.644 -75 75 -75 75 33.644 75 75 -33.644 75 -75 75zm0 -100c-13.784 0 -25 11.216 -25 25s11.216 25 25 25 25 -11.215 25 -25 -11.216 -25 -25 -25zm-50 -449.998H325c-13.806 0 -25 -11.194 -25 -25s11.194 -25 25 -25h350c13.807 0 25 11.193 25 25s-11.193 25 -25 25zm100 50H224.999c-13.806 0 -25 11.193 -25 25V575c0 13.808 11.194 25 25 25h249.892c.03 0 .058 .003 .086 .003 .034 0 .068 -.003 .1 -.003H724.89c.029 0 .056 .003 .086 .003 .033 0 .067 -.003 .1 -.003h49.921c13.808 0 25 -11.192 25 -25v-250c0 -13.806 -11.192 -25 -25 -25zm-524.999 50h500V550h-17.433L588.866 454.2c-11.488 -7.657 -27.01 -4.555 -34.67 6.934 -7.658 11.487 -4.554 27.01 6.935 34.669L642.43 550H482.568L338.868 454.2c-11.488 -7.657 -27.011 -4.555 -34.67 6.934 -7.658 11.487 -4.554 27.01 6.935 34.669L392.432 550H250v-200zM780.773 89.14C712.602 63.17 618.136 50.002 500 50.002S287.396 63.17 219.224 89.14C120.684 126.679 100 183.743 100 225.002V775c0 60.366 43.012 110.87 100 122.486V950c0 27.57 22.43 50 50 50h50c27.57 0 50 -22.43 50 -50v-50h299.998v50c0 27.57 22.43 50 50 50h50c27.57 0 50 -22.43 50 -50v-52.514c56.987 -11.615 100 -62.12 100 -122.486V225.002c0 -41.26 -20.685 -98.323 -119.225 -135.862zM300 950h-50v-50h50v50zm400 0v-50h50v50h-50zM849.997 775c0 41.357 -33.644 75 -75 75H224.999c-41.354 0 -75 -33.643 -75 -75V225.002c0 -37.148 29.28 -67.139 87.026 -89.138 61.586 -23.46 152.52 -35.862 262.974 -35.862s201.39 12.402 262.974 35.862c57.745 21.998 87.025 51.99 87.025 89.138V775z"/></svg>