<svg height="1000" width="1000" xmlns="http://www.w3.org/2000/svg"><path d="M924.998 100.002h-125v-25c0 -13.806 -11.192 -25 -25 -25s-25 11.194 -25 25v25H250v-25c0 -13.806 -11.193 -25 -25 -25s-25 11.194 -25 25v25H75C33.646 100.002 0 133.648 0 175.002V875c0 41.357 33.645 75 75 75h849.998c41.356 0 75 -33.643 75 -75V175.002c0 -41.354 -33.644 -75 -75 -75zM75 150.002h125v75c0 13.806 11.193 25 25 25s25 -11.194 25 -25v-75h499.998v75c0 13.806 11.192 25 25 25s25 -11.194 25 -25v-75h125c13.784 0 25 11.216 25 25v125H50v-125c0 -13.784 11.216 -25 25 -25zM924.998 900H75C61.216 900 50 888.784 50 875V350.002h899.998V875c0 13.784 -11.216 25 -25 25zM374.999 500.001h-50c-13.806 0 -25 -11.192 -25 -25s11.194 -25 25 -25h50c13.807 0 25 11.193 25 25s-11.193 25 -25 25zm150 0h-50c-13.807 0 -25 -11.192 -25 -25s11.193 -25 25 -25h50c13.807 0 25 11.193 25 25s-11.193 25 -25 25zm150 0h-50c-13.808 0 -25 -11.192 -25 -25s11.192 -25 25 -25h50c13.807 0 25 11.193 25 25s-11.193 25 -25 25zm149.999 0h-50c-13.808 0 -25 -11.192 -25 -25s11.192 -25 25 -25h50c13.807 0 25 11.193 25 25s-11.193 25 -25 25zm-599.999 100h-50c-13.806 0 -25 -11.192 -25 -25s11.194 -25 25 -25h50c13.807 0 25 11.192 25 25s-11.193 25 -25 25zm150 0h-50c-13.806 0 -25 -11.192 -25 -25s11.194 -25 25 -25h50c13.807 0 25 11.192 25 25s-11.193 25 -25 25zm150 0h-50c-13.807 0 -25 -11.192 -25 -25s11.193 -25 25 -25h50c13.807 0 25 11.192 25 25s-11.193 25 -25 25zm150 0h-50c-13.808 0 -25 -11.192 -25 -25s11.192 -25 25 -25h50c13.807 0 25 11.192 25 25s-11.193 25 -25 25zm149.999 0h-50c-13.808 0 -25 -11.192 -25 -25s11.192 -25 25 -25h50c13.807 0 25 11.192 25 25s-11.193 25 -25 25zM224.999 700h-50c-13.806 0 -25 -11.193 -25 -25s11.194 -25 25 -25h50c13.807 0 25 11.192 25 25s-11.193 25 -25 25zm150 0h-50c-13.806 0 -25 -11.193 -25 -25s11.194 -25 25 -25h50c13.807 0 25 11.192 25 25s-11.193 25 -25 25zm150 0h-50c-13.807 0 -25 -11.193 -25 -25s11.193 -25 25 -25h50c13.807 0 25 11.192 25 25s-11.193 25 -25 25zm150 0h-50c-13.808 0 -25 -11.193 -25 -25s11.192 -25 25 -25h50c13.807 0 25 11.192 25 25s-11.193 25 -25 25zm149.999 0h-50c-13.808 0 -25 -11.193 -25 -25s11.192 -25 25 -25h50c13.807 0 25 11.192 25 25s-11.193 25 -25 25zM224.999 800h-50c-13.806 0 -25 -11.193 -25 -25s11.194 -25 25 -25h50c13.807 0 25 11.192 25 25s-11.193 25 -25 25zm150 0h-50c-13.806 0 -25 -11.193 -25 -25s11.194 -25 25 -25h50c13.807 0 25 11.192 25 25s-11.193 25 -25 25zm150 0h-50c-13.807 0 -25 -11.193 -25 -25s11.193 -25 25 -25h50c13.807 0 25 11.192 25 25s-11.193 25 -25 25zm150 0h-50c-13.808 0 -25 -11.193 -25 -25s11.192 -25 25 -25h50c13.807 0 25 11.192 25 25s-11.193 25 -25 25zm149.999 0h-50c-13.808 0 -25 -11.193 -25 -25s11.192 -25 25 -25h50c13.807 0 25 11.192 25 25s-11.193 25 -25 25z"/></svg>