<svg height="1000" width="1000" xmlns="http://www.w3.org/2000/svg"><path d="M956.537 852.667c-.003 0 -.005 0 -.008 0 -12.088 -.002 -24.264 -4.84 -36.19 -14.38L748.426 700.757C720.817 678.673 699.999 635.356 699.999 600V450c0 -35.354 20.818 -78.671 48.427 -100.755l171.91 -137.53c11.93 -9.543 24.108 -14.38 36.198 -14.38 21.635 -.002 43.465 16.284 43.465 52.667V800c0 13.9 -3.198 25.583 -9.504 34.725 -7.868 11.401 -20.245 17.942 -33.956 17.942zm-6.54 -600.65L779.66 388.29C764.136 400.707 750 430.12 750 450v150c0 19.88 14.137 49.295 29.658 61.713l170.34 136.27V252.018zM575 850h-500C33.646 850 0 816.355 0 775V275.002c0 -41.355 33.645 -75 75 -75h499.999c41.354 0 75 33.645 75 75V775c0 41.355 -33.646 75 -75 75zm-500 -599.998c-13.783 0 -25 11.216 -25 25V775c0 13.785 11.217 25 25 25h500c13.784 0 25 -11.215 25 -25V275.002c0 -13.784 -11.216 -25 -25 -25h-500z"/></svg>