<svg height="1000" width="1000" xmlns="http://www.w3.org/2000/svg"><path d="M474.999 750c-124.065 0 -225 -100.934 -225 -224.999s100.935 -225 225 -225 225 100.935 225 225 -100.935 225 -225 225zm0 -399.998c-96.495 0 -175 78.504 -175 175S378.504 700 475 700s175 -78.505 175 -175 -78.505 -175 -175 -175zM874.998 900H75C33.645 900 0 866.357 0 825V325.002c0 -41.355 33.645 -75 75 -75h75c20.748 0 53.005 -13.362 67.677 -28.033l29.29 -29.29c24.33 -24.33 68.624 -42.677 103.032 -42.677h250c34.409 0 78.704 18.349 103.032 42.678l29.29 29.287C746.991 236.64 779.25 250 799.997 250h75c41.356 0 75 33.645 75 75v499.998c0 41.357 -33.644 75 -75 75zM75 300.002c-13.784 0 -25 11.215 -25 25V825c0 13.784 11.216 25 25 25h799.998c13.784 0 25 -11.216 25 -25V325.002c0 -13.785 -11.216 -25 -25 -25h-75c-34.41 0 -78.705 -18.349 -103.033 -42.678l-29.289 -29.287c-14.672 -14.674 -46.93 -28.034 -67.678 -28.034H350c-20.748 0 -53.006 13.361 -67.677 28.033l-29.29 29.289C228.703 281.656 184.409 300.003 150 300.003H75z"/></svg>