<svg height="1000" width="1000" xmlns="http://www.w3.org/2000/svg"><path d="M275 800c-41.355 0 -75 -33.643 -75 -75s33.645 -75 75 -75 75 33.644 75 75 -33.646 75 -75 75zm0 -100c-13.785 0 -25 11.216 -25 25s11.215 25 25 25 25 -11.215 25 -25 -11.217 -25 -25 -25zm449.998 100c-41.356 0 -75 -33.643 -75 -75s33.644 -75 75 -75 75 33.644 75 75 -33.644 75 -75 75zm0 -100c-13.784 0 -25 11.216 -25 25s11.216 25 25 25 25 -11.215 25 -25 -11.216 -25 -25 -25zM847.904 595.355c-6.49 -39.606 -27.638 -160.718 -50.547 -206.533C782.097 358.297 742.97 334.974 681.061 319.498 630.77 306.925 566.469 300.003 499.999 300.003S369.226 306.926 318.937 319.5C257.029 334.976 217.9 358.3 202.638 388.823c-22.908 45.815 -44.054 166.926 -50.545 206.533C117.154 619.294 100 653.94 100 700.002v125c0 32.59 20.901 60.379 50 70.7V950c0 27.57 22.43 50 50 50h50c27.57 0 50 -22.43 50 -50v-50h399.998v50c0 27.57 22.43 50 50 50h50c27.57 0 50 -22.43 50 -50v-54.3c29.098 -10.318 50 -38.109 50 -70.7v-125c0 -46.06 -17.155 -80.707 -52.094 -104.646zM247.361 411.181c14.83 -29.658 108.412 -61.18 252.638 -61.18s237.809 31.522 252.638 61.18c14.373 28.747 30.298 104.79 40.174 159.146a297.722 297.722 0 0 0 -15.148 -4.021c-13.336 -3.175 -27.767 -5.725 -43.164 -7.784L589.557 454.68c-11.224 -8.044 -26.84 -5.459 -34.883 5.763 -8.04 11.223 -5.46 26.84 5.763 34.882l78.287 56.09c-42.497 -1.41 -89.112 -1.413 -138.726 -1.413 -5.858 0 -11.662 0 -17.436 .003L338.865 454.202c-11.489 -7.659 -27.01 -4.554 -34.669 6.933s-4.556 27.01 6.933 34.669l82.205 54.806c-67.045 1.208 -125.353 4.83 -171.003 15.699a299.207 299.207 0 0 0 -15.153 4.023c9.878 -54.35 25.799 -130.385 40.182 -159.15zM249.999 950h-50v-50h50v50zm500 0v-50h49.999v50h-50zm99.999 -125c0 13.784 -11.216 25 -25 25H175c-13.785 0 -25 -11.216 -25 -25V700c0 -46.22 24.312 -70.863 83.915 -85.056C296.684 600.001 390.905 600.001 500 600.001s203.314 0 266.083 14.943c59.603 14.193 83.916 38.834 83.916 85.057v125z"/></svg>