<svg height="1000" width="1000" xmlns="http://www.w3.org/2000/svg"><path d="M399.999 1000c-55.14 0 -100 -44.86 -100 -100S344.86 800 400 800s100 44.86 100 100 -44.86 100 -100 100zm0 -150c-27.57 0 -50 22.43 -50 50s22.43 50 50 50 50 -22.43 50 -50 -22.43 -50 -50 -50zm350 150c-55.141 0 -100 -44.86 -100 -100s44.859 -100 100 -100 99.999 44.86 99.999 100 -44.86 100 -100 100zm0 -150c-27.571 0 -50 22.43 -50 50s22.429 50 50 50 49.999 -22.43 49.999 -50 -22.43 -50 -50 -50zM876.97 223.33C864.414 208.505 845.47 200.002 824.998 200.002H212.845L207.88 170.21C201.317 130.841 164.913 100.002 125 100.002H75c-13.806 0 -25 11.194 -25 25s11.194 25 25 25h50c15.354 0 31.037 13.284 33.561 28.43l83.56 501.36c6.561 39.37 42.966 70.209 82.878 70.209h499.999c13.807 0 25 -11.193 25 -25s-11.193 -25 -25 -25H324.998c-15.353 0 -31.036 -13.285 -33.56 -28.428l-12.334 -74.008L777.35 554.24c38.76 -3.37 74.127 -36.072 80.525 -74.447l33.56 -201.36c3.367 -20.193 -1.906 -40.277 -14.466 -55.102zm-34.853 46.88l-33.56 201.362c-2.636 15.806 -19.574 31.465 -35.538 32.856l-502.16 43.666L221.178 250.003h603.82c5.829 0 10.738 2.006 13.824 5.646 3.083 3.643 4.255 8.813 3.297 14.563z"/></svg>