<svg height="1000" width="1000" xmlns="http://www.w3.org/2000/svg"><path d="M874.998 1000H75C33.645 1000 0 966.356 0 925V125.002c0 -41.354 33.645 -75 75 -75h799.998c41.356 0 75 33.646 75 75V925c0 41.356 -33.644 75 -75 75zM75 100.002c-13.784 0 -25 11.216 -25 25V925c0 13.784 11.216 25 25 25h799.998c13.784 0 25 -11.216 25 -25V125.002c0 -13.784 -11.216 -25 -25 -25H75zM325 850H225c-13.807 0 -25 -11.192 -25 -25V375.001c0 -13.806 11.193 -25 25 -25h100c13.806 0 25 11.194 25 25v450c0 13.807 -11.194 25 -25 25zm-75 -50h50V400.001h-50v400zm274.999 50h-100c-13.807 0 -25 -11.192 -25 -25V225.002c0 -13.807 11.193 -25 25 -25h100c13.807 0 25 11.193 25 25V825c0 13.808 -11.193 25 -25 25zm-75 -50h50V250.002h-50V800zm275 50h-100c-13.808 0 -25 -11.192 -25 -25V575.001c0 -13.808 11.192 -25 25 -25h100c13.807 0 25 11.192 25 25v250c0 13.807 -11.193 25 -25 25zm-75 -50h50V600h-50v200z"/></svg>