<svg height="1000" width="1000" xmlns="http://www.w3.org/2000/svg"><path d="M474.999 1000C348.122 1000 228.84 950.592 139.125 860.875S0 651.878 0 525.001C0 398.123 49.41 278.843 139.125 189.127S348.12 50.002 474.999 50.002c126.876 0 246.158 49.41 335.874 139.125S949.998 398.124 949.998 525 900.589 771.16 810.873 860.875C721.157 950.592 601.875 1000 474.999 1000zm0 -899.998c-234.345 0 -425 190.654 -425 425S240.655 950 475 950 899.998 759.346 899.998 525.001s-190.654 -424.999 -425 -424.999zm-100 624.999a24.919 24.919 0 0 1 -17.678 -7.324l-150 -150c-9.762 -9.762 -9.762 -25.591 0 -35.354 9.764 -9.762 25.592 -9.762 35.357 0L375 664.645 707.322 332.324c9.763 -9.763 25.592 -9.763 35.355 0 9.763 9.763 9.763 25.592 0 35.356l-350 350A24.926 24.926 0 0 1 375 725.001z"/></svg>