<svg height="1000" width="1000" xmlns="http://www.w3.org/2000/svg"><path d="M139.125 189.125C49.409 278.841 0 398.125 0 525.001S49.41 771.16 139.125 860.875 348.122 1000 474.999 1000s246.16 -49.41 335.876 -139.125S949.998 651.878 949.998 525.001 900.589 278.841 810.875 189.125 601.875 50.002 474.999 50.002 228.84 99.41 139.125 189.125zm760.873 335.876c0 234.345 -190.654 424.999 -425 424.999S50 759.346 50 525.001C50 290.656 240.654 100.002 474.999 100.002s424.999 190.654 424.999 425zm-150 75a24.919 24.919 0 0 1 -7.323 17.678c-9.763 9.762 -25.592 9.762 -35.355 0L475 385.357 242.677 617.679c-9.764 9.762 -25.592 9.762 -35.356 0 -9.763 -9.764 -9.763 -25.592 0 -35.357l250 -250c9.762 -9.763 25.59 -9.763 35.354 0l249.999 250A24.919 24.919 0 0 1 749.997 600z"/></svg>