<svg height="1000" width="1000" xmlns="http://www.w3.org/2000/svg"><path d="M139.123 189.127C228.838 99.41 348.123 50.002 474.999 50.002s246.158 49.41 335.874 139.125S949.998 398.124 949.998 525s-49.41 246.16 -139.125 335.876S601.875 1000 474.999 1000 228.839 950.592 139.123 860.877 0 651.877 0 525.001 49.408 278.843 139.123 189.127zM474.999 950c234.345 0 424.999 -190.654 424.999 -424.999s-190.654 -424.999 -425 -424.999C240.655 100.002 50 290.656 50 525.002S240.654 950 474.999 950zm75 -150a24.919 24.919 0 0 0 17.677 -7.323c9.763 -9.763 9.763 -25.592 0 -35.354L335.355 525 567.676 292.68c9.763 -9.763 9.763 -25.591 0 -35.356 -9.763 -9.763 -25.591 -9.763 -35.356 0l-250 250c-9.763 9.762 -9.763 25.591 0 35.354l250 250a24.919 24.919 0 0 0 17.678 7.322z"/></svg>