<svg height="1000" width="1000" xmlns="http://www.w3.org/2000/svg"><path d="M810.875 189.127C721.159 99.41 601.875 50.002 474.999 50.002S228.84 99.412 139.125 189.127 0 398.124 0 525s49.41 246.16 139.125 335.876S348.122 1000 474.999 1000s246.16 -49.408 335.876 -139.123 139.123 -209 139.123 -335.876S900.589 278.843 810.875 189.127zM474.999 950c-234.345 0 -425 -190.654 -425 -424.999S240.655 100.002 475 100.002s424.999 190.654 424.999 425S709.344 950 474.998 950zm-75 -150a24.919 24.919 0 0 1 -17.678 -7.323c-9.762 -9.763 -9.762 -25.592 0 -35.354L614.643 525 382.321 292.68c-9.762 -9.763 -9.762 -25.591 0 -35.356 9.764 -9.763 25.592 -9.763 35.357 0l249.999 250c9.764 9.762 9.764 25.591 0 35.354l-250 250A24.919 24.919 0 0 1 400 799.998z"/></svg>