<svg height="1000" width="1000" xmlns="http://www.w3.org/2000/svg"><path d="M810.873 860.877c89.716 -89.715 139.125 -209 139.125 -335.876S900.588 278.843 810.873 189.127 601.875 50.002 474.999 50.002s-246.16 49.41 -335.876 139.125S0 398.124 0 525s49.408 246.16 139.123 335.876S348.123 1000 474.999 1000 721.157 950.592 810.873 860.877zM50 525.001C50 290.656 240.654 100.002 474.999 100.002s424.999 190.654 424.999 425c0 234.344 -190.654 424.998 -425 424.998S50 759.346 50 525.001zm150 -75a24.919 24.919 0 0 1 7.323 -17.677c9.762 -9.763 25.591 -9.763 35.354 0L475 664.645 707.32 432.324c9.764 -9.763 25.592 -9.763 35.357 0 9.762 9.763 9.762 25.591 0 35.356l-250 250c-9.762 9.763 -25.591 9.763 -35.354 0l-250 -250A24.919 24.919 0 0 1 200 450.002z"/></svg>