<svg height="1000" width="1000" xmlns="http://www.w3.org/2000/svg"><path d="M810.875 189.127C721.159 99.41 601.875 50.002 474.999 50.002S228.84 99.412 139.125 189.127 0 398.124 0 525s49.41 246.16 139.125 335.876S348.122 1000 474.999 1000s246.16 -49.408 335.876 -139.123 139.123 -209 139.123 -335.876S900.589 278.843 810.875 189.127zM474.999 950c-234.345 0 -425 -190.654 -425 -424.999S240.655 100.002 475 100.002s424.999 190.654 424.999 425S709.344 950 474.998 950zM774.998 550.001H175c-13.807 0 -25 -11.192 -25 -25s11.193 -25 25 -25h599.998c13.808 0 25 11.193 25 25s-11.192 25 -25 25z"/></svg>