<svg height="1000" width="1000" xmlns="http://www.w3.org/2000/svg"><path d="M815.988 855.636c86.459 -89.095 134.01 -206.205 134.01 -330.635C949.998 406.494 906.88 294.62 828.09 207.268l34.408 -34.412 32.325 32.324c4.88 4.88 11.276 7.322 17.675 7.322s12.795 -2.44 17.674 -7.323c9.766 -9.763 9.766 -25.592 0 -35.355l-100 -100c-9.76 -9.763 -25.593 -9.763 -35.356 0s-9.763 25.592 0 35.355l32.326 32.323 -34.41 34.41C705.377 93.118 593.504 50.001 474.997 50.001S244.618 93.12 157.264 171.912l-34.41 -34.41 32.321 -32.322c9.764 -9.763 9.764 -25.592 0 -35.355s-25.591 -9.763 -35.354 0l-100 100c-9.763 9.763 -9.763 25.592 0 35.355 4.883 4.88 11.28 7.322 17.678 7.322s12.795 -2.44 17.677 -7.323l32.323 -32.323 34.41 34.412C43.117 294.62 0 406.494 0 525c0 124.431 47.55 241.539 134.01 330.634L32.32 957.319c-9.763 9.763 -9.763 25.596 0 35.357C37.204 997.56 43.601 1000 50 1000s12.795 -2.44 17.677 -7.325L170.652 889.7c85.258 71.4 191.806 110.3 304.346 110.3s219.09 -38.9 304.346 -110.299l102.971 102.974c4.883 4.882 11.283 7.325 17.678 7.325s12.795 -2.44 17.675 -7.325c9.765 -9.761 9.765 -25.594 0 -35.357L815.986 855.637zM50 525.001C50 290.656 240.654 100.002 474.999 100.002s424.999 190.654 424.999 425c0 234.344 -190.654 424.998 -425 424.998S50 759.346 50 525.001zm706.454 -162.5c-6.903 -11.957 -22.195 -16.05 -34.146 -9.15L476.296 495.387 284.554 361.127c-11.31 -7.92 -26.901 -5.17 -34.818 6.14 -7.92 11.31 -5.17 26.9 6.138 34.817l204.787 143.393c.04 .029 .083 .051 .123 .08 .437 .301 .885 .589 1.338 .862 .103 .063 .205 .127 .307 .188 .448 .257 .902 .5 1.362 .732 .1 .05 .198 .107 .3 .16a24.902 24.902 0 0 0 1.542 .682c.32 .13 .643 .24 .966 .357 .214 .073 .425 .156 .641 .227 .352 .114 .705 .216 1.06 .314 .195 .055 .39 .107 .586 .16 .357 .088 .715 .17 1.075 .244a27.07 27.07 0 0 0 .625 .118c.346 .062 .693 .122 1.042 .167 .252 .034 .503 .057 .756 .088 .307 .033 .614 .068 .921 .088 .456 .034 .912 .044 1.368 .052 .101 0 .203 .01 .306 .01 .005 0 .011 -.001 .016 -.001 .01 0 .02 .002 .03 .002 .934 0 1.871 -.06 2.807 -.167 .044 -.003 .089 -.006 .13 -.013a24.271 24.271 0 0 0 2.712 -.484c.084 -.02 .169 -.034 .253 -.058a24.99 24.99 0 0 0 2.942 -.92 24.04 24.04 0 0 0 2.303 -1.005c.18 -.091 .356 -.192 .536 -.287 .262 -.14 .529 -.271 .79 -.424l259.808 -150c11.953 -6.902 16.05 -22.191 9.146 -34.15z"/></svg>