<svg height="1000" width="1000" xmlns="http://www.w3.org/2000/svg"><path d="M800.31 800H300C134.58 800 0 665.42 0 500.001s134.58 -300 300 -300c80.11 0 156.824 32.146 212.99 88.737a151.547 151.547 0 0 1 16.254 -27.737c28.193 -38.195 73.333 -60.998 120.754 -60.998 82.711 0 150 67.289 150 150 0 17.536 -3.045 34.69 -8.883 50.83a202.69 202.69 0 0 1 9.195 -.206c110.108 0 199.687 89.58 199.687 199.687S910.417 800.001 800.31 800.001zM300 250.002c-137.85 0 -250 112.148 -250 250S162.15 750 300 750h500.31c82.537 0 149.688 -67.15 149.688 -149.688S882.848 450.626 800.31 450.626c-17.703 0 -34.955 3.029 -51.276 9.006 -10.904 3.992 -23.122 -.049 -29.494 -9.755s-5.223 -22.523 2.776 -30.942c17.851 -18.784 27.682 -43.268 27.682 -68.934 0 -55.14 -44.86 -100 -100 -100 -32.087 0 -61.437 14.83 -80.523 40.69 -11.521 15.611 -18.231 33.894 -19.401 52.87a24.995 24.995 0 0 1 -18.139 22.513 24.995 24.995 0 0 1 -27.252 -9.66 254.238 254.238 0 0 0 -17.7 -22.365C439.533 280.636 371.382 250.001 300 250.001z"/></svg>