<svg height="1000" width="1000" xmlns="http://www.w3.org/2000/svg"><path d="M800.31 400.626c-3.052 0 -6.098 .069 -9.137 .205 5.799 -16.12 8.825 -33.275 8.825 -50.83 0 -82.71 -67.289 -150 -150 -150 -47.421 0 -92.56 22.804 -120.751 60.999a149.795 149.795 0 0 0 -16.219 27.773C456.854 232.162 380.125 200.002 299.999 200.002 134.58 200.002 0 334.582 0 500.002S134.58 800 300 800h500.31c110.108 0 199.687 -89.58 199.687 -199.687S910.417 400.626 800.31 400.626zm0 349.375H300C162.15 750 50 637.852 50 500c0 -137.85 112.15 -250 250 -250 71.382 0 139.533 30.635 186.98 84.05a252.26 252.26 0 0 1 17.531 22.121l.233 .334a25 25 0 0 0 45.446 -12.778 99.413 99.413 0 0 1 19.283 -53.034c19.088 -25.861 48.438 -40.692 80.525 -40.692 55.14 0 100 44.86 100 100 0 25.75 -9.764 50.207 -27.492 68.865 -7.99 8.409 -9.146 21.212 -2.792 30.917s18.549 13.762 29.456 9.8c16.353 -5.944 33.56 -8.959 51.14 -8.959 82.537 0 149.688 67.15 149.688 149.687S882.848 750 800.31 750zM320.182 597.968A100.885 100.885 0 0 1 299.999 600C244.86 600 200 555.14 200 500v-14.645l7.324 7.323c4.88 4.88 11.278 7.322 17.676 7.322s12.795 -2.44 17.677 -7.323c9.764 -9.763 9.764 -25.592 0 -35.354l-50 -50c-9.762 -9.764 -25.591 -9.764 -35.354 0l-50 50c-9.764 9.762 -9.764 25.591 0 35.354 9.763 9.764 25.592 9.764 35.354 0L150 485.356V500c0 82.71 67.289 150 150 150a151.14 151.14 0 0 0 30.202 -3.045c13.529 -2.768 22.25 -15.979 19.483 -29.505s-15.97 -22.24 -29.503 -19.482zm137.14 -90.644L450 514.647V500c0 -82.71 -67.289 -150 -150 -150a151.014 151.014 0 0 0 -30.203 3.047c-13.526 2.768 -22.248 15.977 -19.481 29.503s15.976 22.25 29.503 19.482A100.876 100.876 0 0 1 300 400c55.14 0 100 44.86 100 100v14.646l-7.323 -7.324c-9.763 -9.762 -25.592 -9.762 -35.355 0 -9.763 9.763 -9.763 25.592 0 35.355l50 50C412.203 597.56 418.6 600 425 600s12.795 -2.44 17.677 -7.323l50 -50c9.763 -9.763 9.763 -25.592 0 -35.355 -9.763 -9.762 -25.591 -9.762 -35.354 .002z"/></svg>