<svg height="1000" width="1000" xmlns="http://www.w3.org/2000/svg"><path d="M799.998 800H324.999c-13.806 0 -25 -11.192 -25 -25s11.194 -25 25 -25h474.999c82.71 0 150 -67.288 150 -150s-67.29 -149.999 -150 -149.999c-17.164 0 -33.981 2.867 -49.981 8.522 -10.841 3.83 -22.902 -.229 -29.221 -9.84 -6.317 -9.608 -5.263 -22.291 2.555 -30.726 17.182 -18.54 26.646 -42.674 26.646 -67.955 0 -55.14 -44.86 -100 -100 -100 -52.731 0 -96.57 41.174 -99.802 93.736a24.998 24.998 0 0 1 -18.158 22.523 24.993 24.993 0 0 1 -27.258 -9.697C457.946 289.84 381.394 250.002 299.999 250.002c-137.85 0 -250 112.148 -250 250 0 7.587 .344 15.244 1.02 22.754 1.24 13.752 -8.903 25.903 -22.654 27.143C14.615 551.148 2.462 540.996 1.222 527.245A304.851 304.851 0 0 1 0 500.001c0 -165.42 134.58 -300 300 -300 80.549 0 157.144 32.507 213.035 88.802 23.528 -52.486 76.328 -88.801 136.963 -88.801 82.711 0 150 67.289 150 150 0 17.294 -2.953 34.234 -8.611 50.181a205.346 205.346 0 0 1 8.611 -.182c110.279 0 200 89.72 200 200s-89.721 200 -200 200zM175 775a24.919 24.919 0 0 1 -17.678 -7.323l-100 -100c-9.763 -9.762 -9.763 -25.591 0 -35.354s25.592 -9.763 35.356 0l82.323 82.322L407.322 482.323c9.764 -9.762 25.592 -9.762 35.357 0 9.762 9.763 9.762 25.592 0 35.355l-250 250A24.919 24.919 0 0 1 175.002 775z"/></svg>