<svg height="1000" width="1000" xmlns="http://www.w3.org/2000/svg"><path d="M800.31 800H674.998c-13.807 0 -25 -11.192 -25 -25s11.193 -25 25 -25H800.31c82.537 0 149.688 -67.15 149.688 -149.687S882.848 450.626 800.31 450.626c-17.583 0 -34.79 3.014 -51.14 8.958 -10.906 3.961 -23.1 -.096 -29.456 -9.8 -6.354 -9.705 -5.198 -22.507 2.792 -30.916 17.728 -18.659 27.492 -43.116 27.492 -68.865 0 -55.141 -44.86 -100 -100 -100 -32.087 0 -61.437 14.83 -80.523 40.69a99.43 99.43 0 0 0 -19.283 53.034 25 25 0 0 1 -45.446 12.778l-.233 -.334a252.26 252.26 0 0 0 -17.53 -22.122C439.533 280.637 371.382 250.003 300 250.003c-137.849 0 -250 112.15 -250 250S162.152 750 300 750h75c13.807 0 25 11.193 25 25s-11.193 25 -25 25h-75C134.58 800.001 .001 665.421 .001 500.002s134.58 -300 300 -300c80.126 0 156.855 32.162 213.028 88.771a149.78 149.78 0 0 1 16.219 -27.771c28.19 -38.195 73.33 -60.998 120.751 -60.998 82.711 0 150 67.289 150 150 0 17.554 -3.026 34.708 -8.823 50.83a204.657 204.657 0 0 1 9.137 -.206c110.108 0 199.687 89.58 199.687 199.687 -.002 110.107 -89.58 199.687 -199.689 199.687zM642.675 657.324c-9.763 -9.763 -25.592 -9.763 -35.354 0l-57.322 57.32V525.001c0 -13.807 -11.193 -25 -25 -25s-25 11.193 -25 25v189.643l-57.322 -57.322c-9.764 -9.763 -25.592 -9.763 -35.357 0 -9.762 9.763 -9.762 25.592 0 35.354l100 100c4.883 4.883 11.28 7.323 17.678 7.323s12.795 -2.44 17.676 -7.323l100 -100c9.764 -9.762 9.764 -25.59 0 -35.353z"/></svg>