<svg height="1000" width="1000" xmlns="http://www.w3.org/2000/svg"><path d="M250 750a24.915 24.915 0 0 1 -17.677 -7.323l-200 -200c-9.763 -9.762 -9.763 -25.59 0 -35.354l200 -200c9.762 -9.762 25.591 -9.762 35.354 0 9.764 9.764 9.764 25.593 0 35.355L85.354 525.001l182.322 182.323c9.764 9.763 9.764 25.592 0 35.354A24.92 24.92 0 0 1 250 750.001zm499.998 0a24.915 24.915 0 0 1 -17.677 -7.323c-9.763 -9.762 -9.763 -25.591 0 -35.354L914.643 525 732.321 342.678c-9.763 -9.762 -9.763 -25.591 0 -35.354 9.763 -9.763 25.592 -9.763 35.355 0l200 200c9.763 9.762 9.763 25.591 0 35.354l-200 200A24.919 24.919 0 0 1 749.998 750zm-375.022 .003a24.892 24.892 0 0 1 -13.227 -3.802c-11.708 -7.319 -15.267 -22.742 -7.95 -34.451l250 -400c7.317 -11.702 22.737 -15.267 34.45 -7.95 11.708 7.319 15.268 22.743 7.95 34.452L396.2 738.25c-4.744 7.587 -12.892 11.752 -21.224 11.752z"/></svg>