<svg height="1000" width="1000" xmlns="http://www.w3.org/2000/svg"><path d="M499.999 750c-82.711 0 -150 -67.288 -150 -150S417.288 450.002 500 450.002s150 67.29 150 150 -67.29 150 -150 150zm0 -249.999c-55.14 0 -100 44.86 -100 100s44.86 100 100 100 100 -44.86 100 -100 -44.86 -100 -100 -100zM795.215 102.793l-8.838 -35.346C776.922 29.628 738.98 .003 699.997 .003H299.998c-38.982 0 -76.924 29.625 -86.38 67.444l-8.836 35.346c-31.563 8.85 -54.783 37.86 -54.783 72.209v50c0 33.13 21.6 61.29 51.45 71.19L246.5 926.906c2.878 40.305 38.094 73.094 78.498 73.094h350c40.405 0 75.62 -32.79 78.497 -73.092l45.05 -630.714c29.851 -9.901 51.45 -38.062 51.45 -71.192v-50c0 -34.35 -23.22 -63.36 -54.782 -72.209zM299.999 50.003h400c15.95 0 34.004 14.095 37.871 29.57l5.108 20.43H257.02l5.107 -20.43c3.867 -15.475 21.92 -29.57 37.872 -29.57zm444.58 299.999H255.42l-3.572 -50h496.3l-3.572 50zM712.435 800H287.564L258.992 400.001h482.014l-28.57 400zm-37.438 150H325c-14.486 0 -27.594 -12.206 -28.625 -26.654L291.135 850h417.728l-5.239 73.346C702.591 937.794 689.484 950 674.997 950zm125 -724.998c0 13.784 -11.216 25 -25 25H224.999c-13.784 0 -25 -11.216 -25 -25v-50c0 -13.763 11.178 -24.959 24.933 -24.997 .03 0 .058 .003 .088 .003 .049 0 .097 -.006 .145 -.006h549.833c13.784 0 25 11.216 25 25v50z"/></svg>