<svg height="1000" width="1000" xmlns="http://www.w3.org/2000/svg"><path d="M381.552 985.112a24.968 24.968 0 0 1 -6.229 -.79C330.425 972.794 287.287 954.982 247.11 931.381c-11.644 -6.839 -15.752 -21.69 -9.279 -33.54 7.96 -14.574 12.167 -31.118 12.167 -47.843 0 -55.14 -44.859 -100 -100 -100 -16.723 0 -33.267 4.209 -47.843 12.167 -11.849 6.472 -26.698 2.365 -33.537 -9.278C45.015 712.711 27.204 669.573 15.678 624.673c-3.255 -12.685 3.828 -25.732 16.239 -29.911C72.638 581.054 100 542.97 100 499.999S72.638 418.945 31.916 405.234c-12.41 -4.178 -19.494 -17.225 -16.237 -29.91C27.205 330.427 45.016 287.29 68.619 247.112c6.839 -11.643 21.69 -15.752 33.539 -9.278C116.73 245.792 133.275 250 150 250c55.14 0 100 -44.86 100 -100 0 -16.724 -4.209 -33.268 -12.168 -47.842 -6.473 -11.85 -2.365 -26.7 9.279 -33.539C287.287 45.018 330.425 27.205 375.324 15.68c12.69 -3.256 25.732 3.828 29.91 16.237C418.943 72.64 457.026 100 499.998 100S581.053 72.64 594.762 31.917c4.18 -12.412 17.232 -19.497 29.911 -16.239 44.899 11.526 88.037 29.338 128.216 52.94 11.642 6.84 15.75 21.688 9.278 33.537 -7.96 14.577 -12.169 31.12 -12.169 47.844 0 55.14 44.86 100 100 100 16.724 0 33.268 -4.208 47.843 -12.167 11.854 -6.474 26.7 -2.364 33.54 9.278 23.599 40.177 41.411 83.314 52.939 128.214 3.256 12.684 -3.826 25.731 -16.238 29.909C927.36 418.943 900 457.027 900 499.998s27.36 81.055 68.083 94.764c12.41 4.18 19.495 17.224 16.238 29.91 -11.527 44.899 -29.338 88.038 -52.94 128.214 -6.84 11.646 -21.687 15.75 -33.539 9.28 -14.576 -7.961 -31.12 -12.17 -47.843 -12.17 -55.14 0 -100 44.86 -100 100 0 16.724 4.208 33.268 12.169 47.844 6.472 11.852 2.364 26.7 -9.28 33.539 -40.176 23.6 -83.314 41.412 -128.213 52.94 -12.687 3.257 -25.731 -3.827 -29.91 -16.238C581.053 927.357 542.97 899.997 500 899.997s-81.055 27.361 -94.766 68.084c-3.494 10.375 -13.185 17.028 -23.681 17.028zM499.999 850c56.362 0 107.122 31.385 132.73 80.106a447.265 447.265 0 0 0 75.488 -31.099 150.594 150.594 0 0 1 -8.219 -49.006c0 -82.71 67.29 -150 150 -150a150.53 150.53 0 0 1 49.005 8.221 447.103 447.103 0 0 0 31.1 -75.487c-48.721 -25.611 -80.105 -76.37 -80.105 -132.732s31.385 -107.12 80.106 -132.732a447.298 447.298 0 0 0 -31.1 -75.487A150.566 150.566 0 0 1 850 300.004c-82.71 0 -150 -67.288 -150 -149.999A150.53 150.53 0 0 1 708.22 101 447.103 447.103 0 0 0 632.734 69.9C607.12 118.622 556.363 150.006 500 150.006S392.88 118.62 367.27 69.901A447.023 447.023 0 0 0 291.782 101a150.545 150.545 0 0 1 8.22 49.004c0 82.71 -67.29 150 -150 150a150.495 150.495 0 0 1 -49.005 -8.221 447.008 447.008 0 0 0 -31.1 75.487c48.72 25.612 80.105 76.37 80.105 132.732S118.617 607.125 69.897 632.734a447.103 447.103 0 0 0 31.1 75.487 150.58 150.58 0 0 1 49.005 -8.218c82.71 0 150 67.288 150 150a150.52 150.52 0 0 1 -8.221 49.004 447.17 447.17 0 0 0 75.487 31.1C392.88 881.385 443.638 850.001 500 850.001zm0 -200c-82.711 0 -150 -67.288 -150 -149.999s67.289 -150 150 -150 150 67.29 150 150 -67.29 150 -150 150zm0 -249.999c-55.14 0 -100 44.86 -100 100s44.86 100 100 100 100 -44.86 100 -100 -44.86 -100 -100 -100z"/></svg>