<svg height="1000" width="1000" xmlns="http://www.w3.org/2000/svg"><path d="M999.997 249.994v-74.992c0 -13.807 -11.192 -25 -25 -25H800.007c-.005 0 -.011 0 -.016 0H550.006c-.004 0 -.01 0 -.015 0H300.007c-.005 0 -.01 0 -.016 0H25c-13.807 0 -25 11.193 -25 25v300c0 13.807 11.193 25 25 25h75V800H75c-13.807 0 -25 11.193 -25 25s11.193 25 25 25h200c13.806 0 25 -11.192 25 -25s-11.194 -25 -25 -25h-25V650h499.998v150h-25c-13.807 0 -25 11.193 -25 25s11.193 25 25 25h200c13.807 0 25 -11.192 25 -25s-11.193 -25 -25 -25h-25V500.001h75c13.807 0 25 -11.192 25 -25V250.01c0 -.005 0 -.011 0 -.016zm-50 -10.347L739.645 450.001h-179.29l249.998 -250h139.646v39.646zM310.355 450.001l250 -250h179.29l-250 250h-179.29zm-250 0l250 -250h179.29l-250 250H60.355zm179.29 -250L50 389.648V200.002h189.645zm-89.644 600V500h50v300h-50zM250 600V500h499.998v100H250zm599.998 200h-50V500h50v300zM810.352 450L949.998 310.356v139.645H810.352z"/></svg>