<svg height="1000" width="1000" xmlns="http://www.w3.org/2000/svg"><path d="M974.998 750h-150c-13.808 0 -25 -11.192 -25 -25s11.192 -25 25 -25h150c13.807 0 25 11.193 25 25s-11.193 25 -25 25zm-350 0H275c-13.806 0 -25 -11.192 -25 -25V375.002c0 -13.806 11.194 -25 25 -25s25 11.194 25 25v325h325c13.807 0 25 11.192 25 25s-11.193 25 -25 25zM275 200.003c-13.806 0 -25 -11.193 -25 -25v-150c0 -13.806 11.194 -25 25 -25s25 11.194 25 25v150c0 13.807 -11.193 25 -25 25zM725 1000c-13.808 0 -25 -11.192 -25 -25V300.002h-675C11.194 300.002 0 288.808 0 275.002s11.193 -25 25 -25h699.998c13.808 0 25 11.193 25 25V975c0 13.808 -11.192 25 -25 25z"/></svg>