<svg height="1000" width="1000" xmlns="http://www.w3.org/2000/svg"><path d="M535.353 525.001L817.676 242.68c9.763 -9.764 9.763 -25.592 0 -35.357 -9.763 -9.762 -25.592 -9.762 -35.355 0L500 489.646 217.677 207.323c-9.763 -9.762 -25.592 -9.762 -35.356 0 -9.763 9.764 -9.763 25.592 0 35.357L464.643 525 182.321 807.324c-9.763 9.762 -9.763 25.591 0 35.354 4.883 4.88 11.28 7.322 17.678 7.322s12.794 -2.44 17.677 -7.323L499.998 560.355 782.32 842.678c4.881 4.88 11.279 7.322 17.677 7.322s12.795 -2.44 17.677 -7.323c9.763 -9.763 9.763 -25.592 0 -35.354L535.352 525z"/></svg>