<svg height="1000" width="1000" xmlns="http://www.w3.org/2000/svg"><path d="M716.608 706.315L512.63 525.001 716.608 343.686c10.318 -9.174 11.248 -24.974 2.076 -35.294 -9.174 -10.318 -24.975 -11.252 -35.295 -2.076l-208.39 185.236L266.609 306.318c-10.32 -9.172 -26.122 -8.242 -35.294 2.076 -9.174 10.319 -8.244 26.122 2.076 35.294l203.978 181.314L233.39 706.316c-10.318 9.174 -11.248 24.975 -2.076 35.295 4.94 5.557 11.802 8.39 18.693 8.39a24.905 24.905 0 0 0 16.6 -6.314L474.999 558.45l208.39 185.237a24.911 24.911 0 0 0 16.6 6.314c6.892 0 13.755 -2.833 18.695 -8.39 9.172 -10.32 8.242 -26.122 -2.076 -35.295zM474.998 1000C348.123 1000 228.84 950.592 139.126 860.875S0 651.878 0 525.001C0 398.123 49.41 278.843 139.125 189.127S348.12 50.002 474.999 50.002c126.876 0 246.158 49.41 335.874 139.125S949.998 398.124 949.998 525 900.589 771.16 810.873 860.875C721.157 950.592 601.875 1000 474.999 1000zm0 -899.998C240.655 100.002 50 290.656 50 525.002S240.654 950 474.999 950 899.998 759.346 899.998 525.001s-190.654 -424.999 -425 -424.999z"/></svg>