<svg height="1000" width="1000" xmlns="http://www.w3.org/2000/svg"><path d="M903.357 80.45C878.524 64.14 843.712 49.7 799.886 37.526 712.776 13.329 597.396 .002 474.999 .002S237.22 13.33 150.11 37.526C106.286 49.7 71.472 64.14 46.64 80.45 15.692 100.776 0 124.175 0 150.002v599.999c0 25.826 15.692 49.228 46.639 69.552 24.832 16.31 59.645 30.75 103.47 42.924C237.223 886.675 352.604 900 475 900s237.777 -13.325 324.888 -37.525C843.713 850.3 878.525 835.86 903.358 819.55 934.305 799.228 949.997 775.827 949.997 750V150c0 -25.826 -15.693 -49.226 -46.64 -69.552zm-739.863 5.252c82.875 -23.021 193.504 -35.7 311.505 -35.7s228.63 12.678 311.505 35.7c89.773 24.938 113.494 52.964 113.494 64.3s-23.72 39.362 -113.494 64.3c-82.877 23.021 -193.505 35.7 -311.505 35.7s-228.63 -12.678 -311.505 -35.7C73.72 189.364 50 161.338 50 150.002s23.72 -39.362 113.494 -64.3zM786.504 814.3C703.627 837.322 592.999 850 474.999 850S246.369 837.323 163.494 814.3C73.72 789.363 50 761.336 50 750V621.692c24.578 15.433 58.214 29.147 100.11 40.786 87.112 24.198 202.493 37.524 324.889 37.524s237.777 -13.326 324.888 -37.526c41.896 -11.637 75.534 -25.353 100.11 -40.786V750c0 11.336 -23.72 39.363 -113.493 64.3zm0 -200C703.627 637.323 592.999 650 474.999 650S246.369 637.324 163.494 614.3C73.72 589.364 50 561.338 50 550.002v-128.31c24.578 15.432 58.214 29.148 100.11 40.787C237.223 486.675 352.604 500 475 500s237.777 -13.326 324.888 -37.523c41.896 -11.639 75.534 -25.355 100.11 -40.787V550c0 11.336 -23.72 39.362 -113.493 64.3zm0 -199.999c-82.877 23.022 -193.505 35.7 -311.505 35.7s-228.63 -12.677 -311.505 -35.7C73.72 389.364 50 361.337 50 350.001v-128.31c24.578 15.433 58.214 29.149 100.11 40.787 87.112 24.198 202.493 37.524 324.889 37.524s237.777 -13.326 324.888 -37.524c41.896 -11.638 75.534 -25.354 100.11 -40.787v128.31c0 11.336 -23.72 39.363 -113.493 64.3z"/></svg>