<svg height="1000" width="1000" xmlns="http://www.w3.org/2000/svg"><path d="M944.998 360.002l-150 -200a24.989 24.989 0 0 0 -15.89 -9.66l-300 -49.999a25.027 25.027 0 0 0 -8.22 0l-300 50A24.997 24.997 0 0 0 155 160.002l-150 200c-7.167 9.556 -6.573 22.846 1.417 31.724l449.999 499.999a25.002 25.002 0 0 0 37.166 -.001L943.58 391.725c7.99 -8.878 8.584 -22.167 1.417 -31.723zm-305.693 -10L474.999 801.847 310.692 350.002h328.613zm-303.95 -50L475 160.358l139.643 139.644H335.356zM547.84 162.486l184.911 30.819 -61.636 92.455L547.84 162.486zM278.885 285.76l-61.638 -92.455 184.911 -30.819L278.885 285.76zm-45.393 22.048L84.26 337.655 173.799 218.27l59.693 89.537zm25.353 45.92L407.56 762.696 72.95 390.908l185.895 -37.18zm432.31 0l185.895 37.18L542.438 762.696 691.154 353.728zm25.351 -45.92l59.692 -89.539 89.539 119.385L716.506 307.808z"/></svg>