<svg height="1000" width="1000" xmlns="http://www.w3.org/2000/svg"><path d="M275 800c-41.355 0 -75 -33.643 -75 -75s33.645 -75 75 -75 75 33.644 75 75 -33.646 75 -75 75zm0 -100c-13.785 0 -25 11.216 -25 25s11.215 25 25 25 25 -11.215 25 -25 -11.217 -25 -25 -25zm0 -100c-41.355 0 -75 -33.643 -75 -74.999s33.645 -75 75 -75 75 33.644 75 75 -33.646 75 -75 75zm0 -99.999c-13.785 0 -25 11.216 -25 25s11.215 25 25 25 25 -11.216 25 -25 -11.217 -25 -25 -25zm0 -100c-41.355 0 -75 -33.645 -75 -75s33.645 -75 75 -75 75 33.646 75 75 -33.646 75 -75 75zm0 -100c-13.785 0 -25 11.216 -25 25s11.215 25 25 25 25 -11.215 25 -25 -11.217 -25 -25 -25zm399.998 100c-41.356 0 -75 -33.645 -75 -75s33.644 -75 75 -75 75 33.646 75 75 -33.643 75 -75 75zm0 -100c-13.784 0 -25 11.216 -25 25s11.216 25 25 25 25 -11.215 25 -25 -11.216 -25 -25 -25zm0 300c-41.356 0 -75 -33.644 -75 -75s33.644 -75 75 -75 75 33.644 75 75 -33.643 75 -75 75zm0 -100c-13.784 0 -25 11.216 -25 25s11.216 25 25 25 25 -11.216 25 -25 -11.216 -25 -25 -25zm0 300c-41.356 0 -75 -33.644 -75 -75s33.644 -75 75 -75 75 33.643 75 75 -33.643 75 -75 75zm0 -100c-13.784 0 -25 11.215 -25 25s11.216 25 25 25 25 -11.216 25 -25 -11.216 -25 -25 -25zm100 249.999H175C106.075 950 50 893.925 50 825V225.002c0 -68.925 56.075 -125 125 -125h599.998c68.925 0 125 56.075 125 125V825c0 68.925 -56.075 125 -125 125zM175 150.002c-41.355 0 -75 33.645 -75 75V825c0 41.357 33.645 75 75 75h599.998c41.356 0 75 -33.643 75 -75V225.002c0 -41.355 -33.644 -75 -75 -75H175z"/></svg>