<svg height="1000" width="1000" xmlns="http://www.w3.org/2000/svg"><path d="M399.999 25.002c0 -13.806 -11.193 -25 -25 -25s-25 11.194 -25 25c0 65.277 12.612 119.839 22.747 163.68 9.875 42.723 17.675 76.466 6.482 90.544 -9.302 11.698 -35.852 18.498 -79.041 20.291A1801.131 1801.131 0 0 1 300 274.997V75.002c0 -13.806 -11.193 -25 -25 -25s-25 11.194 -25 25v200.003c.002 8.228 -.07 16.375 -.177 24.481 -43.066 -1.853 -69.55 -8.692 -78.867 -20.403 -11.25 -14.138 -3.46 -47.936 6.403 -90.725C187.446 144.591 200 90.122 200 25.002c0 -13.806 -11.193 -25 -25 -25s-25 11.194 -25 25c0 59.433 -11.846 110.828 -21.365 152.125 -12.888 55.917 -23.068 100.083 3.194 133.089 19.502 24.507 55.052 36.662 116.658 39.25 -5.607 139.491 -25.824 259.517 -42.568 358.837 -22.28 132.182 -37 219.502 .591 263.963C222.07 990.669 245.115 1000 275 1000c29.89 0 52.938 -9.334 68.503 -27.74 37.617 -44.487 22.889 -131.886 .597 -264.185C327.375 608.819 307.178 488.87 301.537 349.498c61.732 -2.51 97.32 -14.622 116.825 -39.15 26.208 -32.957 16.01 -77.074 3.099 -132.927C411.9 136.056 400 84.575 400 25.002zm-94.677 914.973C301.684 944.277 294.58 950 275 950c-19.575 0 -26.672 -5.717 -30.307 -10.018C222.08 913.24 237.44 822.122 255.225 716.616c6.427 -38.123 13.36 -79.255 19.805 -123.365 6.434 44.025 13.351 85.073 19.763 123.134 17.797 105.61 33.166 196.82 10.53 223.59zm488.776 -231.9C774.465 591.548 750.025 446.523 749.998 275V25.002A25 25 0 0 0 731.412 .84a24.998 24.998 0 0 0 -28.12 11.76C602.33 189.285 552.475 459.128 550.4 470.53a25 25 0 0 0 24.597 29.472h111.76c-8.747 77.192 -20.463 146.728 -30.84 208.302 -22.285 132.182 -37.004 219.502 .59 263.963C672.07 990.67 695.112 1000 724.997 1000c29.89 0 52.938 -9.334 68.503 -27.74 37.615 -44.487 22.888 -131.886 .597 -264.184zM605.528 450.002c12.39 -58.556 44.107 -194.333 94.47 -315.843v140.847c.01 61.812 -3.166 120.161 -8.138 174.996h-86.331zM755.32 939.975C751.683 944.277 744.58 950 724.998 950c-19.573 0 -26.672 -5.717 -30.306 -10.018C672.077 913.24 687.437 822.12 705.222 716.614c6.428 -38.123 13.36 -79.253 19.805 -123.365 6.435 44.026 13.354 85.076 19.764 123.137 17.797 105.61 33.167 196.818 10.53 223.589z"/></svg>