<svg height="1000" width="1000" xmlns="http://www.w3.org/2000/svg"><path d="M767.675 857.323l-100 -100c-9.763 -9.762 -25.592 -9.762 -35.354 0 -9.764 9.763 -9.764 25.592 0 35.355L689.643 850H225c-13.806 0 -25 11.193 -25 25s11.194 25 25 25h464.643l-57.322 57.323c-9.764 9.763 -9.764 25.592 0 35.355 4.882 4.88 11.279 7.322 17.677 7.322s12.795 -2.44 17.677 -7.323l100 -100c9.763 -9.763 9.763 -25.59 0 -35.354zm7.323 -807.32H349.999c-110.28 0 -200 89.718 -200 199.999s89.72 200 200 200h50V675c0 13.807 11.193 25 25 25s25 -11.193 25 -25V100.002h150v574.999c0 13.807 11.192 25 25 25s25 -11.193 25 -25V100.002h124.999c13.808 0 25 -11.193 25 -25s-11.192 -25 -25 -25zM399.999 400h-50c-82.71 0 -150 -67.288 -150 -150S267.29 100.003 350 100.003h50v300z"/></svg>