<svg height="1000" width="1000" xmlns="http://www.w3.org/2000/svg"><path d="M774.998 50.002H349.999c-110.28 0 -200 89.719 -200 200s89.72 200 200 200h50V675c0 13.807 11.193 25 25 25s25 -11.193 25 -25V100.002h150v574.999c0 13.807 11.192 25 25 25s25 -11.193 25 -25V100.002h124.999c13.808 0 25 -11.193 25 -25s-11.192 -25 -25 -25zm-374.999 350h-50c-82.71 0 -150 -67.29 -150 -150s67.29 -150 150 -150h50v300zm325 449.998H260.353l57.323 -57.323c9.763 -9.763 9.763 -25.592 0 -35.354s-25.592 -9.763 -35.356 0l-100 100c-9.763 9.762 -9.763 25.591 0 35.354l100 100c4.882 4.882 11.279 7.323 17.677 7.323s12.795 -2.44 17.678 -7.323c9.763 -9.763 9.763 -25.592 0 -35.355L260.353 900h464.644c13.808 0 25 -11.192 25 -25s-11.192 -25 -25 -25z"/></svg>