<svg height="1000" width="1000" xmlns="http://www.w3.org/2000/svg"><path d="M742.673 482.326c-9.76 -9.762 -25.592 -9.762 -35.354 0l-207.32 207.318V125.002c0 -13.806 -11.194 -25 -25 -25s-25 11.194 -25 25v564.642L242.677 482.326c-9.764 -9.762 -25.592 -9.762 -35.356 0 -9.763 9.761 -9.763 25.592 0 35.355l250 250c4.882 4.879 11.278 7.32 17.677 7.32s12.795 -2.441 17.677 -7.326l250 -250c9.763 -9.76 9.763 -25.588 -.003 -35.349zM874.998 950H75C33.645 950 0 916.357 0 875V775c0 -13.807 11.193 -25 25 -25s25 11.193 25 25v100c0 13.784 11.216 25 25 25h799.998c13.784 0 25 -11.216 25 -25V775c0 -13.807 11.192 -25 25 -25s25 11.193 25 25v100c0 41.357 -33.644 75 -75 75z"/></svg>