<svg height="1000" width="1000" xmlns="http://www.w3.org/2000/svg"><path d="M499.999 1000C419.316 1000 344.1 967.236 288.205 907.742c-56.653 -60.3 -87.853 -142.955 -87.854 -232.741 0 -147.146 65.41 -252.44 134.66 -363.918C388.518 224.953 443.844 135.89 475.88 18.424a25.001 25.001 0 0 1 48.24 0c32.044 117.497 87.46 206.578 141.052 292.726C734.507 422.606 799.997 527.881 799.997 675c0 89.972 -31.005 172.62 -87.3 232.716C656.95 967.226 581.412 1000 499.997 1000zm.003 -894.326c-33.7 88.817 -78.7 161.255 -122.519 231.791C309.265 447.281 250.351 542.12 250.351 675c0 156.776 107.326 274.999 249.648 274.999 142.523 0 250 -118.223 250 -275 0 -132.838 -58.985 -227.652 -127.284 -337.439C578.82 267 533.74 194.531 500.002 105.674z"/></svg>