<svg height="1000" width="1000" xmlns="http://www.w3.org/2000/svg"><path d="M853.55 146.45C759.114 52.011 633.554 .001 500 .001S240.884 52.012 146.447 146.45C52.01 240.887 0 366.447 0 500.001s52.01 259.115 146.447 353.552C240.884 947.99 366.444 1000 499.999 1000S759.113 947.99 853.55 853.553C947.988 759.116 999.997 633.555 999.997 500.001S947.987 240.887 853.551 146.45zm66.29 191.616c-9.755 -17.565 -34.229 -25.89 -66.263 -36.778C819.22 289.61 807.085 254.294 793.037 213.4 780.838 177.902 768.232 141.258 738.28 118.442c81.932 51.351 146.224 128.325 181.557 219.624zM779.523 509.529c3.782 33.87 7.69 68.893 -34.338 116.088 -11.357 12.75 -18.008 30.506 -25.052 49.307 -16.31 43.537 -31.725 84.676 -97.306 85.278 -1.838 -2.21 -7.073 -10.483 -11.7 -36.654 -4.264 -24.119 -6.725 -55.279 -9.332 -88.27C597.8 584.66 593.27 527.288 580.757 479.693 564.76 418.829 537.92 382.875 498.701 369.777 481.59 364.06 464.12 361.283 445.29 361.283c-13.878 0 -26.49 1.486 -37.614 2.797 -8.667 1.02 -16.854 1.986 -23.77 1.986 0 0 -.003 0 -.004 0 -11.706 0 -24.973 0 -41.287 -37.393C319.157 274.911 336.46 188.765 405.312 143.335c37.755 -24.911 63.805 -35.539 87.11 -35.539 18.58 0 38.653 6.467 67.119 21.627 33.61 17.9 59.94 20.195 79.126 20.195 7.607 0 14.502 -.409 21.174 -.806 5.592 -.331 10.873 -.646 15.76 -.646 10.996 0 19.91 1.433 30.36 8.57 19.26 13.157 29.234 42.183 39.792 72.914 16.008 46.597 34.153 99.412 91.739 118.981 7.74 2.63 21.07 7.162 30.484 11.1 -8.132 8.406 -21.762 20.573 -35.078 32.46 -8.601 7.679 -18.348 16.38 -29.151 26.23 -31.216 28.45 -27.5 61.738 -24.222 91.108zM50.05 496.163c5.39 .969 11.223 2.091 17.192 3.365 28.102 5.998 41.245 11.413 46.99 14.452 -2.643 5.153 -7.996 12.75 -11.534 17.768 -12.372 17.555 -27.768 39.403 -21.911 63.46 3.951 16.23 .617 36.165 -5.125 54.574C59.065 602.902 50 552.493 50 499.999c0 -1.283 .037 -2.556 .049 -3.838zM499.999 950C328.73 950 179.519 853.815 103.502 712.635c13.107 -24.955 37.416 -80.13 26.054 -128.463 .787 -4.854 9.032 -16.553 14.013 -23.62 13.549 -19.226 30.411 -43.152 17.92 -68.507C152.723 474.25 129.304 462.227 83.187 451.84 72.505 449.434 62.1 447.475 53.256 445.962 80.036 223.22 270.156 50.002 499.999 50.002c78.882 0 153.075 20.428 217.607 56.233C701.658 99.268 687.182 98.162 675.6 98.162c-6.37 0 -12.653 .373 -18.727 .735 -5.942 .353 -12.084 .717 -18.208 .717 -14.2 0 -31.916 -1.702 -55.623 -14.327C546.855 66.016 519.754 57.792 492.422 57.792c-33.823 0 -68.109 13.1 -114.645 43.805 -40.231 26.544 -70.536 67.167 -85.332 114.387 -14.433 46.06 -12.891 93.182 4.343 132.683 20.336 46.609 47.203 67.395 87.112 67.396 .003 0 .003 0 .006 0 9.854 0 19.456 -1.131 29.622 -2.33 10.237 -1.206 20.82 -2.453 31.763 -2.453 13.544 0 25.482 1.88 37.57 5.919 21.96 7.336 38.166 31.934 49.539 75.203 11.375 43.27 15.72 98.279 19.552 146.81 3.197 40.482 6.216 78.72 12.867 107.544 4.039 17.503 9.271 30.8 15.995 40.646 10.042 14.705 24.445 22.802 40.553 22.802 44.207 0 79.52 -14.251 104.95 -42.357 21.152 -23.373 31.955 -52.213 40.638 -75.384 5.122 -13.675 10.42 -27.815 15.567 -33.596 56.855 -63.84 50.98 -116.463 46.693 -154.885 -3.15 -28.211 -3.208 -38.206 8.21 -48.615 10.61 -9.671 20.255 -18.283 28.764 -25.877 18.133 -16.188 31.234 -27.885 40.427 -37.92 6.312 -6.893 21.096 -23.031 16.987 -43.242 -.036 -.18 -.086 -.35 -.123 -.527 17.146 47.56 26.518 98.803 26.518 152.198 0 248.13 -201.87 449.999 -450 449.999z"/></svg>