<svg height="1000" width="1000" xmlns="http://www.w3.org/2000/svg"><path d="M642.675 582.324c-9.763 -9.762 -25.592 -9.762 -35.354 0L499.999 689.646V75.002c0 -13.806 -11.194 -25 -25 -25s-25 11.194 -25 25v614.644L342.676 582.323c-9.763 -9.762 -25.592 -9.762 -35.355 0 -9.763 9.763 -9.763 25.592 0 35.355l150 150C462.204 772.56 468.601 775 475 775s12.795 -2.44 17.676 -7.323l150 -150c9.764 -9.762 9.764 -25.59 0 -35.353zM774.998 1000H175c-41.355 0 -75 -33.644 -75 -75V425.001c0 -41.354 33.645 -75 75 -75h199.999c13.807 0 25 11.194 25 25s-11.193 25 -25 25h-200c-13.784 0 -25 11.216 -25 25v500C150 938.783 161.216 950 175 950h599.999c13.784 0 25 -11.216 25 -25V425.001c0 -13.784 -11.216 -25 -25 -25h-200c-13.807 0 -25 -11.193 -25 -25s11.193 -25 25 -25h200c41.356 0 75 33.646 75 75v500c0 41.355 -33.644 74.999 -75 74.999z"/></svg>