<svg height="1000" width="1000" xmlns="http://www.w3.org/2000/svg"><path d="M874.998 100.002h-450c-41.353 0 -74.999 33.646 -74.999 75v150c0 13.806 11.193 25 25 25s25 -11.194 25 -25v-150c0 -13.784 11.216 -25 25 -25h378.2l-192.091 82.325c-34.266 14.686 -61.11 55.393 -61.11 92.675V800h-125C411.216 800 400 788.785 400 775V625c0 -13.807 -11.193 -25 -25 -25s-25 11.193 -25 25v150c0 41.355 33.646 75 75 75h125v75c0 21.661 9.017 40.03 24.737 50.396 8.678 5.724 18.792 8.608 29.464 8.608 8.659 0 17.684 -1.9 26.603 -5.722L888.885 867.676c34.269 -14.686 61.113 -55.393 61.113 -92.677V175.001c0 -41.354 -33.644 -75 -75 -75zm25 674.998c0 17.542 -14.683 39.81 -30.807 46.717L611.11 932.323c-4.797 2.058 -7.972 1.91 -8.85 1.331C601.386 933.078 600 930.22 600 925V325.002c0 -17.541 14.682 -39.808 30.806 -46.717L897.448 164.009a24.844 24.844 0 0 1 2.55 10.994v599.998zM417.676 457.325l-150 -150c-9.763 -9.764 -25.592 -9.764 -35.354 0s-9.764 25.592 0 35.354l107.323 107.322H25c-13.807 0 -25 11.194 -25 25s11.193 25 25 25h314.645L232.323 607.324c-9.764 9.763 -9.764 25.592 0 35.355 4.88 4.88 11.278 7.322 17.676 7.322s12.795 -2.44 17.677 -7.323l150 -150c9.763 -9.763 9.763 -25.59 0 -35.353z"/></svg>