<svg height="1000" width="1000" xmlns="http://www.w3.org/2000/svg"><path d="M874.998 300.002H75c-41.355 0 -75 33.645 -75 75V825c0 41.357 33.645 75 75 75h799.998c41.356 0 75 -33.643 75 -75V375.001c0 -41.354 -33.644 -75 -75 -75zm0 50c1.478 0 2.92 .154 4.33 .4L502.735 601.468c-14.514 9.674 -40.955 9.674 -55.47 0L70.67 350.403a25.019 25.019 0 0 1 4.33 -.401h799.998zm0 499.998H75C61.216 850 50 838.784 50 825V396.714l369.53 246.354c15.552 10.37 35.51 15.552 55.469 15.552s39.919 -5.183 55.47 -15.552L899.998 396.714V825c0 13.784 -11.216 25 -25 25z"/></svg>