<svg height="1000" width="1000" xmlns="http://www.w3.org/2000/svg"><path d="M574.999 400.001c13.807 0 25 -11.193 25 -25V175.002c0 -41.354 -33.644 -75 -75 -75h-450C33.646 100.002 0 133.648 0 175.002V775c0 37.284 26.844 77.99 61.11 92.675l258.083 110.607c8.92 3.823 17.942 5.722 26.601 5.722 10.67 -.002 20.789 -2.886 29.466 -8.608C390.98 965.03 399.999 946.66 399.999 925v-75h125c41.356 0 75 -33.643 75 -75V575.001c0 -13.808 -11.193 -25 -25 -25s-25 11.192 -25 25v200c0 13.784 -11.216 25 -25 25h-125V325c0 -37.28 -26.844 -77.988 -61.11 -92.674L146.8 150.002h378.2c13.784 0 25 11.216 25 25v200c0 13.806 11.192 25 25 25zM319.193 278.285c16.123 6.91 30.806 29.177 30.806 46.717V925c0 5.219 -1.388 8.078 -2.263 8.654 -.877 .576 -4.052 .725 -8.848 -1.33L80.804 821.717C64.682 814.81 50 792.542 50 775V175.002a24.841 24.841 0 0 1 2.55 -10.994l266.643 114.276zm598.481 179.04l-150 -150c-9.762 -9.764 -25.59 -9.764 -35.354 0 -9.763 9.763 -9.763 25.592 0 35.354l107.323 107.322H525c-13.808 0 -25 11.194 -25 25s11.192 25 25 25h314.644L732.32 607.324c-9.763 9.763 -9.763 25.592 0 35.355 4.883 4.88 11.28 7.322 17.678 7.322s12.795 -2.44 17.677 -7.323l150 -150c9.763 -9.763 9.763 -25.59 0 -35.353z"/></svg>