<svg height="1000" width="1000" xmlns="http://www.w3.org/2000/svg"><path d="M774.998 1000H175c-41.355 0 -75 -33.646 -75 -75V425.001c0 -41.354 33.645 -75 75 -75h199.999c13.807 0 25 11.194 25 25s-11.193 25 -25 25h-200c-13.784 0 -25 11.216 -25 25v500C150 938.783 161.216 950 175 950h599.999c13.784 0 25 -11.216 25 -25V425.001c0 -13.784 -11.216 -25 -25 -25h-200c-13.807 0 -25 -11.193 -25 -25s11.193 -25 25 -25h200c41.354 0 75 33.646 75 75v500c0 41.353 -33.646 74.999 -75 74.999zM642.673 182.325l-150 -150c-9.762 -9.763 -25.591 -9.763 -35.354 0l-150 150c-9.763 9.763 -9.763 25.592 0 35.355s25.592 9.763 35.355 0L449.999 110.357V675c0 13.807 11.193 25 25 25s25 -11.193 25 -25V110.357l107.325 107.322c4.88 4.882 11.276 7.323 17.674 7.323s12.795 -2.44 17.675 -7.323c9.766 -9.763 9.766 -25.591 0 -35.354z"/></svg>