<svg height="1000" width="1000" xmlns="http://www.w3.org/2000/svg"><path d="M993.58 508.277c-2.372 -2.635 -59.096 -65.26 -147.8 -128.62C793.447 342.278 740.8 312.446 689.3 290.988 624.031 263.79 560.341 250.001 499.999 250.001S375.966 263.79 310.696 290.988c-51.5 21.458 -104.146 51.292 -156.478 88.672C65.515 443.017 8.79 505.642 6.417 508.277c-8.558 9.507 -8.558 23.94 0 33.448 2.372 2.635 59.098 65.26 147.801 128.62 52.331 37.38 104.979 67.213 156.478 88.671C375.966 786.211 439.657 800 500 800S624.032 786.211 689.3 759.016c51.498 -21.458 104.145 -51.292 156.478 -88.672C934.484 606.985 991.21 544.36 993.58 541.726c8.557 -9.508 8.557 -23.943 0 -33.45zM628.7 321.919c45.369 38.158 71.3 93.674 71.3 153.082 0 110.28 -89.721 200 -200 200 -110.281 0 -200 -89.72 -200 -200 0 -59.409 25.932 -114.926 71.303 -153.082 41.12 -13.422 84.572 -21.917 128.697 -21.917 44.127 0 87.58 8.495 128.7 21.917zm187.137 308.368c-76.648 54.614 -193.66 119.714 -315.837 119.714S260.809 684.9 184.164 630.287C126.312 589.067 82.04 547.387 59.694 525.001c22.35 -22.39 66.622 -64.068 124.47 -105.286 26.494 -18.878 57.812 -39.006 92.5 -57.268C259.313 396.845 249.998 435.22 249.998 475c0 137.851 112.15 250 250 250s250 -112.149 250 -250c0 -39.779 -9.315 -78.156 -26.662 -112.554 34.684 18.262 66.005 38.39 92.498 57.268 57.85 41.22 102.122 82.9 124.468 105.286 -22.351 22.39 -66.623 64.068 -124.468 105.286z"/></svg>