<svg height="1000" width="1000" xmlns="http://www.w3.org/2000/svg"><path d="M892.674 282.325l-224.999 -225a24.994 24.994 0 0 0 -17.677 -7.323H175c-41.355 0 -75 33.646 -75 75V925c0 41.356 33.645 75 75 75h649.998c41.356 0 75 -33.644 75 -75V300.002a24.996 24.996 0 0 0 -7.324 -17.677zm-53.03 17.677H674.997c-13.784 0 -25 -11.216 -25 -25V110.357l189.645 189.645zM849.997 925c0 13.784 -11.216 25 -25 25H175c-13.785 0 -25 -11.216 -25 -25V125.002c0 -13.784 11.215 -25 25 -25h424.998v175c0 41.354 33.644 75 75 75h175V925z"/></svg>