<svg height="1000" width="1000" xmlns="http://www.w3.org/2000/svg"><path d="M374.996 750A24.997 24.997 0 0 1 350 725V275.003a24.997 24.997 0 0 1 40 -20l300 225a25 25 0 0 1 0 40L389.998 745a24.994 24.994 0 0 1 -15.003 5zM400 325.003V675L633.331 500 400 325.001zm574.999 -225H25c-13.807 0 -25 11.194 -25 25V875c0 13.808 11.193 25 25 25h949.998c13.807 0 25 -11.192 25 -25V125.002c0 -13.806 -11.193 -25 -25 -25zM150 550.001H50v-100h100v100zm0 -150H50v-100h100v100zm-100 200h100v100H50V600zM200 150.002h599.998V850H199.999V150.002zm649.998 300h100V550h-100v-100zm0 -50v-100h100v100h-100zm0 199.999h100v100h-100V600zm100 -350h-100v-99.999h100v100zM150 150.003v100H50v-100h100zM50 750.001h100v100H50V750zm799.998 100V750h100v100h-100z"/></svg>