<svg height="1000" width="1000" xmlns="http://www.w3.org/2000/svg"><path d="M75 950C61.193 950 50 938.808 50 925V175.002c0 -13.807 11.193 -25 25 -25s25 11.193 25 25V925c0 13.808 -11.194 25 -25 25zM174.98 500.003A24.886 24.886 0 0 1 160 495.001c-11.045 -8.284 -13.285 -23.955 -5 -34.998 3.369 -4.492 83.778 -110 195 -110 84.682 0 140.66 29.948 190.051 56.37 43.763 23.41 81.558 43.63 134.947 43.63 109.615 0 187.88 -103.995 232.512 -185.883 -34.898 19.84 -79.502 35.883 -132.512 35.883 -110.356 0 -167.372 -57.018 -217.676 -107.323C507.59 142.95 464.644 100.003 374.999 100.003c-111.214 0 -179.325 89.1 -180 90 -8.284 11.045 -23.955 13.284 -35 5s-13.284 -23.955 -5 -35c3.37 -4.492 84.063 -110 220 -110 110.354 0 167.372 57.018 217.676 107.323 49.732 49.729 92.68 92.677 182.323 92.677 111.214 0 179.325 -89.1 180 -90 7.357 -9.808 20.74 -12.833 31.603 -7.144 10.861 5.69 15.99 18.42 12.114 30.05 -1.064 3.193 -26.648 79.06 -77.916 155.96 -30.606 45.91 -64.099 82.67 -99.551 109.258 -45.895 34.422 -95.101 51.875 -146.25 51.875 -65.921 0 -113.002 -25.185 -158.533 -49.544C467.961 424.511 422.147 400.002 350 400.002c-86.5 0 -154.325 89.1 -155 90 -4.91 6.549 -12.418 10.002 -20.018 10.002z"/></svg>