<svg height="1000" width="1000" xmlns="http://www.w3.org/2000/svg"><path d="M724.998 450.001h-100c-41.356 0 -75 -33.643 -75 -75v-100c0 -13.806 11.193 -25 25 -25s25 11.194 25 25v100c0 13.785 11.216 25 25 25h100c13.808 0 25 11.193 25 25s-11.192 25 -25 25zm-399.999 0H225c-13.806 0 -25 -11.192 -25 -25s11.194 -25 25 -25h100c13.784 0 25 -11.215 25 -25v-100c0 -13.806 11.193 -25 25 -25s25 11.194 25 25v100c0 41.357 -33.645 75 -75 75zm250 350c-13.808 0 -25 -11.193 -25 -25V675c0 -41.357 33.643 -75 75 -75h100c13.807 0 25 11.192 25 25s-11.193 25 -25 25h-100c-13.785 0 -25 11.216 -25 25v100c0 13.807 -11.193 25 -25 25zm-200 0c-13.807 0 -25 -11.193 -25 -25V675c0 -13.784 -11.216 -25 -25 -25H225c-13.806 0 -25 -11.193 -25 -25s11.194 -25 25 -25h100c41.355 0 75 33.643 75 75v100c0 13.807 -11.193 25 -25 25z"/></svg>