<svg height="1000" width="1000" xmlns="http://www.w3.org/2000/svg"><path d="M924.998 350.002c-13.808 0 -25 -11.194 -25 -25v-100c0 -13.784 -11.216 -25 -25 -25h-100c-13.808 0 -25 -11.193 -25 -25s11.192 -25 25 -25h100c41.356 0 75 33.645 75 75v100c0 13.806 -11.193 25 -25 25zm-899.998 0c-13.807 0 -25 -11.194 -25 -25v-100c0 -41.355 33.645 -75 75 -75h100c13.806 0 25 11.193 25 25s-11.194 25 -25 25H75c-13.784 0 -25 11.216 -25 25v100c0 13.806 -11.193 25 -25 25zM175 900H75C33.645 900 0 866.357 0 825V725c0 -13.807 11.193 -25 25 -25s25 11.193 25 25v100c0 13.784 11.216 25 25 25h100c13.806 0 25 11.193 25 25s-11.194 25 -25 25zm699.998 0h-100c-13.808 0 -25 -11.192 -25 -25s11.192 -25 25 -25h100c13.784 0 25 -11.216 25 -25V725c0 -13.807 11.192 -25 25 -25s25 11.193 25 25v100c0 41.357 -33.644 75 -75 75z"/></svg>