<svg height="1000" width="1000" xmlns="http://www.w3.org/2000/svg"><path d="M811.488 165.361c-19.818 -13.385 -47.45 -25.198 -82.134 -35.107C661.075 110.746 570.743 100.002 474.998 100.002c-95.747 0 -186.078 10.744 -254.356 30.252 -34.683 9.91 -62.317 21.722 -82.133 35.107 -31.83 21.5 -38.51 44.3 -38.51 59.64v25c0 21.382 16.065 56.667 31.934 80.47l244.529 366.793c12.537 18.808 23.536 55.133 23.536 77.736v150a25 25 0 0 0 36.18 22.361l100 -50a24.997 24.997 0 0 0 13.82 -22.36V775c0 -22.604 10.998 -58.928 23.534 -77.737L818.062 330.47c15.87 -23.801 31.935 -59.085 31.935 -80.468v-25c0 -15.34 -6.682 -38.14 -38.51 -59.64zM234.38 178.328C298.315 160.061 383.768 150.002 475 150.002s176.684 10.06 240.618 28.326c68.88 19.682 84.381 40.818 84.381 46.674s-15.502 26.992 -84.38 46.674c-63.935 18.267 -149.388 28.326 -240.62 28.326S298.316 289.942 234.38 271.676C165.502 251.994 150 230.857 150 225.002s15.503 -26.992 84.38 -46.674zM531.933 669.53C514.025 696.39 500 742.72 500 775v84.55l-50 24.999V775c0 -32.28 -14.026 -78.609 -31.935 -105.47L174.062 303.525c13.706 5.857 29.264 11.278 46.581 16.225 68.278 19.507 158.609 30.252 254.356 30.252 95.745 0 186.077 -10.745 254.354 -30.252 17.317 -4.949 32.876 -10.37 46.583 -16.227L531.932 669.53z"/></svg>