<svg height="1000" width="1000" xmlns="http://www.w3.org/2000/svg"><path d="M924.998 250.002H774.93c15.73 -20.906 25.068 -46.88 25.068 -75 0 -68.925 -56.075 -125 -125 -125 -69.512 0 -127.801 55.06 -156.359 87.878 -17.292 19.873 -32.181 41.148 -43.638 61.726C463.543 179.03 448.652 157.753 431.36 137.88 402.8 105.062 344.513 50.002 274.998 50.002c-68.924 0 -125 56.075 -125 125 0 28.12 9.34 54.094 25.068 75H25c-13.807 0 -25 11.193 -25 25v150c0 13.806 11.193 25 25 25h25V925c0 41.356 33.645 75 75 75h699.998c41.356 0 75 -33.644 75 -75V450.001h25c13.807 0 25 -11.193 25 -25v-150c0 -13.806 -11.193 -25 -25 -25zm-368.64 -79.3c39.097 -44.931 82.34 -70.7 118.64 -70.7 41.357 0 75 33.646 75 75s-33.643 75 -75 75H506.106c8.647 -22.091 26.13 -51.58 50.252 -79.3zM549.998 950H400V300.002h150V950zM200 175.002c0 -41.354 33.646 -75 75 -75 36.302 0 79.544 25.769 118.64 70.7 24.12 27.72 41.605 57.209 50.252 79.3H275c-41.354 0 -75 -33.646 -75 -75zm-150 125h300v100H50v-100zM100 925V450.001h250V950H125c-13.783 0 -25 -11.216 -25 -25zm749.999 0c0 13.784 -11.216 25 -25 25h-225V450.001h250v475zm50 -524.999h-300v-100h300v100z"/></svg>