<svg height="1000" width="1000" xmlns="http://www.w3.org/2000/svg"><path d="M932.904 351.285l-449.999 -150a24.992 24.992 0 0 0 -15.81 0l-450 150a25 25 0 0 0 -.001 47.433L150 443.02V575c0 6.63 2.634 12.99 7.323 17.677C161.703 597.06 267.035 700 474.999 700c75.638 0 146.203 -13.615 209.732 -40.463 12.718 -5.375 18.67 -20.042 13.297 -32.76 -5.375 -12.72 -20.044 -18.67 -32.761 -13.298C607.929 637.715 543.914 650 474.999 650 377.747 650 306.21 624.825 263.322 603.703 231.554 588.06 210.334 572.254 199.999 563.735v-104.05l267.094 89.032a24.975 24.975 0 0 0 15.812 0l267.093 -89.031V504.3c-29.098 10.32 -50 38.11 -50 70.7 0 30.536 18.352 56.848 44.596 68.536l-43.849 175.4c-1.865 7.469 -.19 15.38 4.55 21.45s12.005 9.614 19.704 9.614h100a25.002 25.002 0 0 0 24.254 -31.064l-43.849 -175.4C831.648 631.849 850 605.537 850 575c0 -32.59 -20.902 -60.38 -50 -70.7V443.02l132.906 -44.303a25 25 0 0 0 0 -47.432zM774.998 550c13.784 0 25 11.216 25 25s-11.216 25 -25 25 -25 -11.216 -25 -25 11.216 -25 25 -25zm-17.981 250l17.981 -71.922L792.979 800h-35.962zM772.982 399.32L479.108 350.34c-13.625 -2.267 -26.5 6.933 -28.77 20.55 -2.27 13.62 6.931 26.501 20.55 28.77l200.715 33.453L474.999 498.65 104.056 375 475 251.353 845.94 375.001l-72.958 24.319z"/></svg>