<svg height="1000" width="1000" xmlns="http://www.w3.org/2000/svg"><path d="M849.998 200.002c-18.208 0 -35.28 4.916 -50 13.453v-63.453c0 -55.14 -44.86 -100 -100 -100 -20.578 0 -39.72 6.253 -55.637 16.951C630.68 28.008 593.559 .003 549.999 .003s-80.683 28.005 -94.362 66.95C439.72 56.255 420.577 50.003 399.999 50.003c-55.14 0 -100 44.859 -100 99.999v368.671L232.705 402.027C219.653 378.27 198.367 361.358 172.74 354.388c-24.961 -6.786 -50.924 -3.195 -73.104 10.114 -45.371 27.224 -62.634 88.69 -38.517 137.08 1.478 3.029 33.411 68.383 132.978 267.517 46.885 93.77 98.344 160.794 152.948 199.212 42.867 30.163 72.456 31.69 77.953 31.69h250c42.55 0 82.113 -13.833 117.587 -41.121 33.346 -25.65 62.287 -62.727 86.023 -110.197 46.703 -93.408 71.389 -222.623 71.389 -373.68v-175c0 -55.14 -44.86 -100 -100 -100zm50 275c0 143.333 -22.862 264.817 -66.111 351.319C805.676 882.742 755.21 950 674.998 950H425.497c-1.969 -.169 -22.994 -2.505 -54.753 -26.264C339.094 900.06 290.514 850.13 238.82 746.74 137.464 544.025 106.315 480.189 106.012 479.568a9.593 9.593 0 0 0 -.11 -.225c-12.57 -25.139 -3.657 -58.096 19.46 -71.967 10.395 -6.237 22.56 -7.92 34.258 -4.739 12.466 3.389 22.888 11.776 29.346 23.615 .096 .175 .194 .349 .294 .522l78.026 135.251c15.966 29.143 33.91 41.411 53.342 36.453 19.487 -4.968 29.37 -24.432 29.37 -57.851V150.003c0 -27.57 22.43 -50 50 -50s50 22.43 50 50v325c0 13.806 11.193 25 25 25s25 -11.194 25 -25v-375c0 -27.57 22.43 -50 50 -50s50 22.43 50 50v375c0 13.806 11.192 25 25 25s25 -11.194 25 -25v-325c0 -27.57 22.429 -50 50 -50s50 22.43 50 50v375c0 13.807 11.191 24.999 24.999 24.999s25 -11.192 25 -25v-225c0 -27.57 22.43 -50 50 -50s50 22.43 50 50v175z"/></svg>