<svg height="1000" width="1000" xmlns="http://www.w3.org/2000/svg"><path d="M474.999 950a24.983 24.983 0 0 1 -12.14 -3.146c-5.815 -3.23 -143.833 -80.532 -268.47 -204.089 -9.805 -9.72 -9.874 -25.55 -.154 -35.354s25.55 -9.873 35.354 -.154c98.974 98.117 209.284 167.308 245.403 188.818 36.133 -21.537 146.604 -90.864 245.413 -188.82 9.807 -9.718 25.633 -9.65 35.357 .155 9.72 9.804 9.651 25.635 -.155 35.356C630.97 866.321 492.954 943.623 487.14 946.854A24.972 24.972 0 0 1 475 950zM63.943 550.017c-9.385 0 -18.38 -5.31 -22.638 -14.365C13.896 477.392 0 419.135 0 362.502c0 -144.744 117.756 -262.5 262.5 -262.5 48.996 0 101.035 18.364 146.533 51.711 26.612 19.505 49.26 43.01 65.966 67.974 16.706 -24.965 39.354 -48.47 65.966 -67.974 45.497 -33.347 97.537 -51.71 146.533 -51.71 144.744 0 262.5 117.755 262.5 262.499 0 56.632 -13.897 114.887 -41.303 173.145 -5.877 12.494 -20.769 17.86 -33.263 11.979 -12.494 -5.877 -17.857 -20.768 -11.981 -33.263 24.252 -51.548 36.547 -102.643 36.547 -151.861 0 -117.174 -95.328 -212.5 -212.5 -212.5 -85.143 0 -167.827 70.044 -188.782 132.906a25 25 0 0 1 -47.434 0C430.329 220.046 347.645 150.002 262.499 150.002c-117.173 0 -212.5 95.326 -212.5 212.5 0 49.218 12.298 100.315 36.55 151.866 5.878 12.494 .513 27.386 -11.98 33.263a24.875 24.875 0 0 1 -10.625 2.386zm461.784 200.007a36.6 36.6 0 0 1 -.662 -.006c-10.107 -.213 -28.44 -5.467 -37.648 -38.275L426.586 495.029l-40.36 163.959c-7.915 32.161 -26.27 38.88 -36.51 40.021 -10.237 1.146 -29.623 -1.364 -44.437 -30.989L275 607.464c-1.44 -2.883 -2.783 -4.72 -3.801 -5.86a19.781 19.781 0 0 0 -.534 .747C252.17 629.515 211.043 650 175 650h-50c-13.807 0 -25 -11.193 -25 -25s11.193 -25 25 -25h50c21.048 0 46.046 -13.615 54.333 -25.79 11.13 -16.346 27.37 -25.036 44.56 -23.905 18.693 1.256 35.396 13.94 45.828 34.798l22.247 44.494 46.806 -190.145c7.88 -32.016 24.08 -38.972 36.28 -39.17 12.218 -.234 28.615 6.23 37.529 37.977l64.221 228.794 58.91 -180.407c10.257 -31.414 29.08 -36.823 39.388 -37.25 10.295 -.425 29.515 3.4 42.34 33.86l36.194 85.962c6.783 16.11 28.88 30.783 46.361 30.783h75c13.807 0 25 11.192 25 25s-11.193 25 -25 25h-75c-37.344 0 -77.95 -26.961 -92.443 -61.38l-29.59 -70.281 -63.68 195.018c-10.35 31.693 -28.32 36.666 -38.558 36.666z"/></svg>