<svg height="1000" width="1000" xmlns="http://www.w3.org/2000/svg"><path d="M474.999 950a24.995 24.995 0 0 1 -12.143 -3.146C458.161 944.246 346.56 881.79 233.246 779.494 166.21 718.978 112.672 657.07 74.12 595.495 24.936 516.935 -.001 438.544 -.001 362.501c0 -144.744 117.756 -262.5 262.5 -262.5 48.996 0 101.036 18.364 146.533 51.711 26.612 19.505 49.26 43.01 65.966 67.974 16.706 -24.965 39.354 -48.47 65.966 -67.974 45.497 -33.347 97.537 -51.71 146.533 -51.71 144.744 0 262.5 117.755 262.5 262.499 0 76.043 -24.94 154.434 -74.122 232.991C837.322 657.07 783.785 718.975 716.75 779.495 603.436 881.793 491.835 944.246 487.14 946.854A24.98 24.98 0 0 1 474.996 950zm-212.5 -799.998c-117.173 0 -212.5 95.326 -212.5 212.5 0 151.976 117.483 290.113 216.04 379.235 88.018 79.593 177.186 135.408 208.96 154.337 31.773 -18.93 120.942 -74.744 208.96 -154.337 98.557 -89.122 216.039 -227.26 216.039 -379.235 0 -117.174 -95.328 -212.5 -212.5 -212.5 -85.143 0 -167.827 70.044 -188.782 132.906a25 25 0 0 1 -47.434 0C430.329 220.046 347.645 150.002 262.499 150.002z"/></svg>