<svg height="1000" width="1000" xmlns="http://www.w3.org/2000/svg"><path d="M992.674 482.324c-9.762 -9.763 -25.592 -9.763 -35.354 0L778.03 661.613c-29.242 29.242 -76.825 29.242 -106.067 0L438.387 428.033C424.299 413.947 416.54 395.113 416.54 375s7.758 -38.945 21.846 -53.033l179.288 -179.29c9.764 -9.763 9.764 -25.592 0 -35.355 -9.762 -9.763 -25.592 -9.763 -35.354 0L403.032 286.613c-23.531 23.531 -36.49 54.92 -36.49 88.387 0 14.263 2.375 28.143 6.898 41.204L7.322 782.323A25 25 0 0 0 0 799.999v75c0 13.808 11.193 25 25 25h474.999c6.63 0 12.989 -2.635 17.676 -7.323L683.792 726.559c13.06 4.526 26.94 6.899 41.205 6.899 33.467 0 64.857 -12.96 88.388 -36.49l179.288 -179.29c9.766 -9.763 9.766 -25.59 .002 -35.354zM489.644 850H50v-39.643L400.074 460.283c.977 1.043 1.944 2.091 2.96 3.106L636.61 696.966c1.013 1.014 2.062 1.985 3.107 2.96L489.643 850z"/></svg>