<svg height="1000" width="1000" xmlns="http://www.w3.org/2000/svg"><path d="M853.55 146.45C759.114 52.011 633.554 .001 500 .001c-154.719 0 -298.742 71.274 -392.67 190.37v-65.37c0 -13.806 -11.193 -25 -25 -25s-25 11.194 -25 25V273.59a24.999 24.999 0 0 0 33.058 23.662v.003L233.06 248.667c13.07 -4.451 20.057 -18.654 15.604 -31.725s-18.65 -20.057 -31.724 -15.604l-74.516 25.378C226.84 116.3 358.446 50.002 500 50.002c248.13 0 449.999 201.869 449.999 450S748.128 950 499.998 950C334.2 950 182.302 859.242 103.577 713.144 97.027 700.99 81.862 696.446 69.709 702.996s-16.698 21.713 -10.15 33.867C147.018 899.172 315.785 1000 499.997 1000c133.554 0 259.114 -52.01 353.552 -146.447S999.996 633.555 999.996 500.001c0 -133.554 -52.01 -259.114 -146.446 -353.552zM500 525a24.968 24.968 0 0 1 -12.14 -3.146l-225 -125c-12.07 -6.705 -16.42 -21.925 -9.713 -33.994s21.925 -16.419 33.994 -9.713l211.992 117.773L761.576 303.91c11.646 -7.412 27.1 -3.983 34.514 7.67 7.412 11.648 3.978 27.1 -7.67 34.512l-275 175A24.989 24.989 0 0 1 500 525z"/></svg>