<svg height="1000" width="1000" xmlns="http://www.w3.org/2000/svg"><path d="M993.535 608.23L552.08 120.306C538.359 105.137 519.862 96.785 499.998 96.785c-.002 0 0 0 0 0 -19.863 0 -38.361 8.355 -52.084 23.522L6.46 608.229c-9.263 10.24 -8.472 26.05 1.766 35.31a24.909 24.909 0 0 0 16.765 6.462c6.818 0 13.611 -2.772 18.547 -8.229l106.46 -117.666V925c0 41.354 33.646 75 75 75h549.999c41.354 0 75 -33.646 75 -75V524.106l106.462 117.668c9.263 10.238 25.073 11.031 35.31 1.766 10.238 -9.263 11.03 -25.073 1.765 -35.31zM599.998 950H400V725c0 -13.784 11.216 -25 25 -25h150c13.784 0 25 11.216 25 25v225zm200 -25c0 13.784 -11.216 25 -25 25h-125V725c0 -41.356 -33.643 -75 -75 -75h-150C383.646 650 350 683.645 350 725v225H225c-13.784 0 -25 -11.216 -25 -25V468.843L484.991 153.852c4.123 -4.558 9.453 -7.068 15.008 -7.068s10.884 2.51 15.006 7.066L799.998 468.84V925z"/></svg>