<svg height="1000" width="1000" xmlns="http://www.w3.org/2000/svg"><path d="M799.998 175.002v-25c0 -19.59 -12.064 -36.653 -35.854 -50.716C746.958 89.128 723.087 80.188 693.195 72.714 634.607 58.07 557.118 50.001 475 50.001c-82.117 0 -159.607 8.068 -218.195 22.714 -29.892 7.474 -53.763 16.412 -70.95 26.572C162.064 113.347 150 130.41 150 150.001v25c0 131.534 79.662 249.945 199.994 300.085v99.826C229.662 625.055 150 743.464 150 875v25c0 19.589 12.064 36.653 35.854 50.716 17.187 10.158 41.058 19.098 70.95 26.572C315.392 991.933 392.882 1000 474.999 1000c82.119 0 159.607 -8.066 218.196 -22.713 29.893 -7.474 53.763 -16.414 70.949 -26.572 23.79 -14.063 35.854 -31.127 35.854 -50.716v-25c0 -131.534 -79.661 -249.944 -199.994 -300.087v-99.826C720.337 424.946 799.998 306.535 799.998 175.001zm-519.41 -56.534c53.28 -11.908 122.324 -18.466 194.41 -18.466 72.09 0 141.133 6.558 194.414 18.466 57.488 12.849 74.903 26.695 79.46 31.534 -4.557 4.839 -21.972 18.686 -79.46 31.534C616.132 193.444 547.087 200.002 475 200.002c-72.088 0 -141.13 -6.558 -194.412 -18.466 -57.489 -12.848 -74.904 -26.695 -79.463 -31.534 4.558 -4.839 21.974 -18.685 79.463 -31.534zm286.085 497.175C676.326 654.403 749.998 758.63 749.998 875v23.67c-2.09 2.84 -16.209 18.477 -80.586 32.864C616.132 943.442 547.087 950 475 950c-72.088 0 -141.133 -6.558 -194.412 -18.464C216.217 917.15 202.093 901.516 200 898.672V875c0 -116.37 73.674 -220.598 183.326 -259.357a24.998 24.998 0 0 0 16.667 -23.57V457.93a24.995 24.995 0 0 0 -16.669 -23.57C284.5 399.43 214.913 311.32 202.128 209.074c14.983 6.76 33.277 12.865 54.674 18.216 58.589 14.645 136.08 22.713 218.197 22.713 82.119 0 159.607 -8.068 218.196 -22.714 21.397 -5.349 39.69 -11.455 54.674 -18.216C735.083 311.318 665.496 399.427 566.674 434.36a25 25 0 0 0 -16.669 23.57v134.143a24.999 24.999 0 0 0 16.67 23.572zm116.66 210.787C570.248 786.456 499.998 690.116 499.998 575.001V423.759c30.02 -2.951 58.9 -11.226 86.134 -24.76 12.364 -6.146 17.406 -21.15 11.261 -33.514s-21.15 -17.408 -33.514 -11.26C536.138 368.01 506.234 375.001 475 375.001s-61.138 -6.99 -88.88 -20.779c-12.362 -6.142 -27.369 -1.103 -33.513 11.26s-1.104 27.37 11.26 33.515c27.232 13.534 56.114 21.809 86.133 24.76v151.244c0 115.115 -70.25 211.455 -183.334 251.429a24.995 24.995 0 0 0 -16.623 25.064 25.002 25.002 0 0 0 19.495 22.904c49.115 10.99 123.852 25.603 205.463 25.603S631.347 885.39 680.463 874.4a25.001 25.001 0 0 0 2.872 -47.968zM474.998 850c-43.833 0 -85.052 -4.36 -121.838 -10.232 33.272 -21.067 62.213 -47.623 85.533 -78.736 14.667 -19.566 26.807 -40.583 36.303 -62.706 9.498 22.123 21.636 43.138 36.302 62.706 23.32 31.111 52.261 57.667 85.533 78.736C560.05 845.64 518.831 850 475 850z"/></svg>