<svg height="1000" width="1000" xmlns="http://www.w3.org/2000/svg"><path d="M977.86 519.173L842.94 210.789c-14.914 -34.088 -55.737 -60.787 -92.943 -60.787H250c-37.206 0 -78.03 26.7 -92.945 60.787L22.136 519.173C9.724 547.548 0 594.034 0 625.001v200c0 41.356 33.645 75 75 75h849.998c41.356 0 75 -33.644 75 -75V625c0 -30.97 -9.725 -77.455 -22.138 -105.828zM202.864 230.83c7.057 -16.135 29.525 -30.828 47.135 -30.828h500c17.61 0 40.075 14.693 47.137 30.828l134.918 308.384c1.52 3.475 3.01 7.412 4.44 11.67A75.031 75.031 0 0 0 924.999 550h-300c-13.807 0 -25 11.192 -25 25v25c0 55.14 -44.859 100 -100 100S400 655.14 400 600v-25c0 -13.808 -11.193 -25 -25 -25h-300a75.244 75.244 0 0 0 -11.494 .88c1.431 -4.257 2.922 -8.194 4.44 -11.669L202.864 230.83zM949.998 825c0 13.784 -11.216 25 -25 25H75C61.216 850 50 838.784 50 825V625c0 -13.783 11.216 -25 25 -25h275c0 82.712 67.288 150 149.999 150s150 -67.288 150 -150h274.999c13.784 0 25 11.217 25 25v200z"/></svg>