<svg height="1000" width="1000" xmlns="http://www.w3.org/2000/svg"><path d="M874.998 250.002H125c-13.807 0 -25 -11.194 -25 -25s11.193 -25 25 -25h749.998c13.807 0 25 11.193 25 25s-11.193 25 -25 25zm0 150h-400c-13.806 0 -25 -11.193 -25 -25s11.194 -25 25 -25h400c13.807 0 25 11.192 25 25s-11.193 25 -25 25zm0 149.999h-400c-13.806 0 -25 -11.192 -25 -25s11.194 -25 25 -25h400c13.807 0 25 11.193 25 25s-11.193 25 -25 25zm0 150h-400c-13.806 0 -25 -11.193 -25 -25s11.194 -25 25 -25h400c13.807 0 25 11.192 25 25s-11.193 25 -25 25zm0 150H125c-13.807 0 -25 -11.193 -25 -25s11.193 -25 25 -25h749.998c13.807 0 25 11.192 25 25s-11.193 25 -25 25zM325.002 700A24.981 24.981 0 0 1 310 695L110 545a25 25 0 0 1 0 -40l200 -150a24.992 24.992 0 0 1 26.18 -2.36 24.997 24.997 0 0 1 13.82 22.36v300a24.997 24.997 0 0 1 -24.997 25zM166.667 525l133.332 100V425l-133.332 100z"/></svg>