<svg height="1000" width="1000" xmlns="http://www.w3.org/2000/svg"><path d="M874.998 250.002H125c-13.807 0 -25 -11.194 -25 -25s11.193 -25 25 -25h749.998c13.807 0 25 11.193 25 25s-11.193 25 -25 25zm0 150h-400c-13.806 0 -25 -11.193 -25 -25s11.194 -25 25 -25h400c13.807 0 25 11.192 25 25s-11.193 25 -25 25zm0 149.999h-400c-13.806 0 -25 -11.192 -25 -25s11.194 -25 25 -25h400c13.807 0 25 11.193 25 25s-11.193 25 -25 25zm0 150h-400c-13.806 0 -25 -11.193 -25 -25s11.194 -25 25 -25h400c13.807 0 25 11.192 25 25s-11.193 25 -25 25zm0 150H125c-13.807 0 -25 -11.193 -25 -25s11.193 -25 25 -25h749.998c13.807 0 25 11.192 25 25s-11.193 25 -25 25zM124.997 700A24.997 24.997 0 0 1 100 675V375a24.997 24.997 0 0 1 13.82 -22.36A24.994 24.994 0 0 1 140 355l200 150a25 25 0 0 1 0 40l-200 150a24.994 24.994 0 0 1 -15.003 5zM150 425v200L283.332 525 150 425.001z"/></svg>