<svg height="1000" width="1000" xmlns="http://www.w3.org/2000/svg"><path d="M874.998 800H75C33.645 800 0 766.357 0 725V325.003c0 -41.355 33.645 -75 75 -75h799.998c41.356 0 75 33.645 75 75V725c0 41.356 -33.644 75 -75 75zM75 300.002c-13.784 0 -25 11.215 -25 25V725c0 13.784 11.216 25 25 25h799.998c13.784 0 25 -11.216 25 -25V325c0 -13.784 -11.216 -25 -25 -25H75zm100 100h-50c-13.807 0 -25 -11.193 -25 -25s11.193 -25 25 -25h50c13.806 0 25 11.192 25 25s-11.194 25 -25 25zm649.998 0h-50c-13.808 0 -25 -11.193 -25 -25s11.192 -25 25 -25h50c13.807 0 25 11.192 25 25s-11.193 25 -25 25zm-599.999 100H125c-13.806 0 -25 -11.193 -25 -25s11.194 -25 25 -25h100c13.807 0 25 11.192 25 25s-11.193 25 -25 25zM175 700h-50c-13.806 0 -25 -11.193 -25 -25s11.194 -25 25 -25h50c13.807 0 25 11.192 25 25s-11.193 25 -25 25zm400 0h-300c-13.806 0 -25 -11.193 -25 -25s11.194 -25 25 -25h300c13.807 0 25 11.192 25 25s-11.193 25 -25 25zm150 0h-50c-13.808 0 -25 -11.193 -25 -25s11.192 -25 25 -25h50c13.807 0 25 11.192 25 25s-11.193 25 -25 25zm99.999 -100h-150c-13.807 0 -25 -11.192 -25 -25s11.193 -25 25 -25h125v-75c0 -13.807 11.192 -25 25 -25s25 11.193 25 25v100c0 13.808 -11.193 25 -25 25zm-549.999 0H125c-13.806 0 -25 -11.192 -25 -25s11.194 -25 25 -25h150c13.807 0 25 11.192 25 25s-11.193 25 -25 25zm25 -225c0 13.807 -11.193 25 -25 25s-25 -11.193 -25 -25c0 -13.806 11.194 -25 25 -25s25 11.194 25 25zm100 0c0 13.807 -11.193 25 -25 25s-25 -11.193 -25 -25c0 -13.806 11.193 -25 25 -25s25 11.194 25 25zm100 0c0 13.807 -11.194 25 -25 25s-25 -11.193 -25 -25c0 -13.806 11.193 -25 25 -25s25 11.194 25 25zm100 0c0 13.807 -11.194 25 -25 25s-25 -11.193 -25 -25c0 -13.806 11.193 -25 25 -25s25 11.194 25 25zm100 0c0 13.807 -11.194 25 -25 25s-25 -11.193 -25 -25c0 -13.806 11.193 -25 25 -25s25 11.194 25 25zm-350 100c0 13.807 -11.193 25 -25 25s-25 -11.193 -25 -25c0 -13.806 11.194 -25 25 -25s25 11.194 25 25zm100 0c0 13.807 -11.193 25 -25 25s-25 -11.193 -25 -25c0 -13.806 11.193 -25 25 -25s25 11.194 25 25zm100 0c0 13.807 -11.194 25 -25 25s-25 -11.193 -25 -25c0 -13.806 11.193 -25 25 -25s25 11.194 25 25zm100 0c0 13.807 -11.194 25 -25 25s-25 -11.193 -25 -25c0 -13.806 11.193 -25 25 -25s25 11.194 25 25zm100 0c0 13.807 -11.194 25 -25 25s-25 -11.193 -25 -25c0 -13.806 11.193 -25 25 -25s25 11.194 25 25zm-350 100c0 13.807 -11.193 25 -25 25s-25 -11.193 -25 -25 11.193 -25 25 -25 25 11.193 25 25zm100 0c0 13.807 -11.194 25 -25 25s-25 -11.193 -25 -25 11.193 -25 25 -25 25 11.193 25 25zm100 0c0 13.807 -11.194 25 -25 25s-25 -11.193 -25 -25 11.193 -25 25 -25 25 11.193 25 25z"/></svg>