<svg height="1000" width="1000" xmlns="http://www.w3.org/2000/svg"><path d="M175 700h649.998c41.356 0 75 -33.643 75 -75V225.003c0 -41.355 -33.644 -75 -75 -75H175c-41.355 0 -75 33.645 -75 75V625c0 41.356 33.645 75 75 75zM150 225.003c0 -13.784 11.215 -25 25 -25h649.998c13.784 0 25 11.216 25 25V625c0 13.784 -11.216 25 -25 25H175c-13.785 0 -25 -11.216 -25 -25V225zM974.998 750H25C11.193 750 0 761.193 0 775v50c0 41.356 33.645 75 75 75h849.998c41.356 0 75 -33.644 75 -75v-50c0 -13.808 -11.193 -25 -25 -25zm-50 100H75C61.216 850 50 838.783 50 825v-25h899.998v25c0 13.783 -11.216 25 -25 25z"/></svg>