<svg height="1000" width="1000" xmlns="http://www.w3.org/2000/svg"><path d="M574.999 700h-400c-41.354 0 -75 -33.643 -75 -75V225.003c0 -41.355 33.646 -75 75 -75h649.999c41.356 0 75 33.645 75 75v50c0 13.806 -11.193 25 -25 25s-25 -11.194 -25 -25v-50c0 -13.784 -11.216 -25 -25 -25H175c-13.785 0 -25 11.216 -25 25V625c0 13.784 11.215 25 25 25h399.999c13.807 0 25 11.192 25 25s-11.193 25 -25 25zm0 200h-500C33.646 900 0 866.355 0 825v-50c0 -13.807 11.193 -25 25 -25h549.999c13.807 0 25 11.193 25 25s-11.193 25 -25 25h-525v25c0 13.784 11.217 25 25 25h500c13.807 0 25 11.193 25 25s-11.193 25 -25 25zm349.999 0h-200c-41.354 0 -75 -33.645 -75 -75V425.001c0 -41.354 33.646 -75 75 -75h200c41.354 0 75 33.646 75 75v400c0 41.354 -33.646 75 -75 75zm-200 -499.999c-13.784 0 -25 11.216 -25 25v400c0 13.783 11.216 25 25 25h200c13.784 0 25 -11.217 25 -25V425c0 -13.784 -11.216 -25 -25 -25h-200zm100 400c-6.578 0 -13.016 -2.672 -17.674 -7.329C802.67 788.016 799.998 781.58 799.998 775s2.672 -13.03 7.326 -17.673C811.967 752.672 818.42 750 824.998 750s13.031 2.671 17.672 7.326c4.656 4.642 7.328 11.08 7.328 17.673 0 6.579 -2.672 13.032 -7.328 17.672C838.013 797.33 831.576 800 824.998 800z"/></svg>