<svg height="1000" width="1000" xmlns="http://www.w3.org/2000/svg"><path d="M499.999 600a25 25 0 0 1 -9.701 -1.958l-475 -200a25 25 0 0 1 0 -46.081l475 -200a25 25 0 0 1 19.403 0l474.999 200a25 25 0 0 1 0 46.081l-475 200A24.981 24.981 0 0 1 500 600zM89.424 375.002l410.575 172.875L910.574 375.001 499.999 202.127 89.424 375zm410.575 375a25 25 0 0 1 -9.701 -1.96l-475 -199.999C2.575 542.685 -3.397 528.025 1.96 515.3S21.977 496.603 34.702 501.96L500 697.877 965.297 501.96c12.724 -5.354 27.385 .615 32.742 13.339 5.36 12.726 -.615 27.385 -13.338 32.742l-475 200a24.981 24.981 0 0 1 -9.7 1.959zm0 150a25 25 0 0 1 -9.701 -1.96l-475 -200C2.575 692.685 -3.397 678.025 1.96 665.3s20.017 -18.696 32.742 -13.34L500 847.877 965.297 651.961c12.724 -5.355 27.385 .615 32.742 13.339 5.36 12.726 -.615 27.384 -13.338 32.742l-475 200a24.981 24.981 0 0 1 -9.7 1.958z"/></svg>