<svg height="1000" width="1000" xmlns="http://www.w3.org/2000/svg"><path d="M994.125 8.906A25 25 0 0 0 975.002 .002L949.5 -.005c-251.978 -.09 -451.028 -.16 -597.586 34.89C273.177 53.716 212.28 82.161 165.74 121.85 115.557 164.64 81.32 220.719 61.074 293.283c-13.448 48.206 -19.74 135.232 6.797 221.853 9.808 32.018 25.094 62.19 45.492 89.934C52.576 700.301 -.001 825.786 -.001 975c0 13.808 11.193 25 25 25s25 -11.192 25 -25c0 -230.261 136.38 -401.024 217.676 -482.321C326.015 434.34 391.992 385.095 458.473 350.273c61.888 -32.417 121.028 -50.27 166.525 -50.27 13.808 0 25 -11.194 25 -25s-11.192 -25 -25 -25c-54.205 0 -119.81 19.357 -189.724 55.98 -70.9 37.138 -141.08 89.473 -202.95 151.342 -26.1 26.1 -57.519 60.885 -88.695 103.51C131.516 541.796 122.146 521.604 115.68 500.493 90.683 418.897 99.87 340.3 109.238 306.723 180.728 50.475 452.323 49.816 945.1 49.993 886.35 364.378 776.81 567.873 619.307 655.043c-146.076 80.845 -291.023 36.731 -346.559 14.01 -11.723 -4.797 -23.487 -10.693 -34.962 -17.524 -11.863 -7.058 -27.205 -3.167 -34.269 8.695 -7.062 11.865 -3.169 27.206 8.693 34.27 13.597 8.095 27.594 15.102 41.604 20.835 31.096 12.721 81.195 29.01 143.265 34.359a473.646 473.646 0 0 0 40.695 1.771c73.427 0 142.474 -17.653 205.744 -52.67C723.958 654.272 793.59 581.86 850.488 483.573 917.202 368.32 967.381 215.472 999.631 29.27A24.997 24.997 0 0 0 994.126 8.907z"/></svg>