<svg height="1000" width="1000" xmlns="http://www.w3.org/2000/svg"><path d="M924.998 900H75C33.645 900 0 866.357 0 825V175.002c0 -41.354 33.645 -75 75 -75h849.998c41.356 0 75 33.646 75 75V825c0 41.357 -33.644 75 -75 75zM75 150.002c-13.784 0 -25 11.216 -25 25V825c0 13.784 11.216 25 25 25h849.998c13.784 0 25 -11.216 25 -25V175.002c0 -13.784 -11.216 -25 -25 -25H75zm399.999 150h-300c-13.806 0 -25 -11.194 -25 -25s11.194 -25 25 -25h300c13.806 0 25 11.193 25 25s-11.194 25 -25 25zm0 150h-300c-13.806 0 -25 -11.193 -25 -25s11.194 -25 25 -25h300c13.806 0 25 11.192 25 25s-11.194 25 -25 25zm0 99.999h-300c-13.806 0 -25 -11.192 -25 -25s11.194 -25 25 -25h300c13.806 0 25 11.193 25 25s-11.194 25 -25 25zm0 100h-300c-13.806 0 -25 -11.193 -25 -25s11.194 -25 25 -25h300c13.806 0 25 11.192 25 25s-11.194 25 -25 25zm-50 100h-250c-13.806 0 -25 -11.193 -25 -25s11.194 -25 25 -25h250c13.807 0 25 11.192 25 25s-11.193 25 -25 25zM897.143 327.192l-40.67 -29.549 -15.536 -47.81H790.67l-40.67 -29.548 -40.669 29.549h-50.268l-15.536 47.81 -40.67 29.548 15.536 47.81 -15.536 47.809 40.67 29.55 6.593 20.287A24.357 24.357 0 0 0 650 475v250a24.997 24.997 0 0 0 15.433 23.096 24.998 24.998 0 0 0 27.245 -5.42l57.322 -57.322 57.323 57.323a24.978 24.978 0 0 0 17.683 7.323A25.002 25.002 0 0 0 849.998 725V475a24.674 24.674 0 0 0 -.12 -2.353l6.594 -20.287 40.67 -29.55L881.605 375l15.537 -47.809zm-235.51 19.099l24.424 -17.744 9.33 -28.711h30.187L750 282.089l24.425 17.745h30.187l9.33 28.71 24.424 17.745L829.035 375l9.33 28.711 -24.424 17.745 -9.33 28.711h-30.187l-24.425 17.747L725.574 450.17h-30.187l-9.33 -28.71 -24.424 -17.746 9.33 -28.713 -9.33 -28.71zm106.042 286.033c-9.763 -9.763 -25.592 -9.763 -35.355 0l-32.322 32.322V500.168h9.331L750 529.717l40.668 -29.547h9.331v164.478l-32.323 -32.323z"/></svg>