<svg height="1000" width="1000" xmlns="http://www.w3.org/2000/svg"><path d="M874.998 450.001h-34.5l-42.76 -86.119a25.004 25.004 0 0 0 -22.392 -13.88H574.998c-13.808 0 -25 11.193 -25 25v75H489.43L296.648 116.093c-6.904 -11.956 -22.193 -16.058 -34.15 -9.15l-173.205 100c-11.958 6.903 -16.055 22.193 -9.15 34.15l199.999 346.408c4.63 8.02 13.033 12.505 21.674 12.505a24.89 24.89 0 0 0 12.476 -3.354l135.705 -78.35V925c0 13.808 11.193 25 25 25h399.999c13.807 0 25 -11.192 25 -25V475.001c0 -13.807 -11.193 -25 -25 -25zm-25 300h-50V600h50v150zm-250 -350h159.85l24.826 50H599.997v-50zM310.945 540.853l-175 -303.107 129.903 -75 175 303.107 -129.903 75zM499.999 900V500.001h324.84c.06 0 .118 .006 .177 .006 .035 0 .073 -.006 .108 -.006h24.873v50h-75c-13.808 0 -25 11.192 -25 25v200c0 13.807 11.192 25 25 25h75v100h-350zM774.998 300.002c-37.51 0 -55.745 -17.717 -64.437 -32.581 -16.527 -28.26 -13.764 -70.889 8.45 -130.32C733.947 97.145 752.43 64.132 753.21 62.746a25 25 0 0 1 43.578 0c.78 1.386 19.263 34.399 34.197 74.355 22.216 59.432 24.979 102.06 8.451 130.32C830.743 282.285 812.508 300 774.998 300zM775 131.979a476.81 476.81 0 0 0 -9.356 23.173c-22.674 60.917 -14.855 82.016 -11.92 87.031 1.253 2.14 4.576 7.819 21.274 7.819 16.7 0 20.025 -5.685 21.276 -7.823 2.95 -5.044 10.791 -26.261 -12.127 -87.572A477.006 477.006 0 0 0 775 131.979z"/></svg>