<svg height="1000" width="1000" xmlns="http://www.w3.org/2000/svg"><path d="M974.998 800h-25c-28.972 0 -50 31.542 -50 75 0 13.784 -11.216 25 -25 25s-25 -11.216 -25 -25v-50c0 -13.807 -11.193 -25 -25 -25a24.928 24.928 0 0 0 -17.685 7.328A74.565 74.565 0 0 0 774.998 800c-41.356 0 -75 33.644 -75 75a74.688 74.688 0 0 0 4.3 25h-54.3c-20.275 0 -50.97 -13.83 -64.403 -29.013l-52.218 -59.029 460.345 -520.39c8.028 -9.077 8.26 -22.352 1.209 -31.651L844.997 60a25 25 0 0 0 -20 -10H174.999a25 25 0 0 0 -20 10L5.059 259.921c-7.047 9.299 -6.81 22.57 1.215 31.643L466.62 811.955l-52.219 59.03c-14.455 16.34 -39.768 29.013 -51.903 29.013h-12.5v-25c0 -41.356 -33.645 -75 -75 -75a74.543 74.543 0 0 0 -38.517 10.675c-6.367 -6.762 -14.62 -10.675 -23.983 -10.675 -15.392 0 -26.851 12.167 -35.114 22.768 -7.59 9.736 -15.442 22.442 -22.107 35.775l-5.278 10.557v-44.099c0 -13.807 -11.194 -25 -25 -25s-25 11.193 -25 25v50c0 13.784 -11.216 25 -25 25s-25 -11.216 -25 -25V725c0 -13.807 -11.193 -25 -25 -25s-25 11.193 -25 25v150c0 41.355 33.645 75 75 75a74.526 74.526 0 0 0 38.517 -10.677C119.882 946.086 128.136 950 137.5 950c15.392 0 26.851 -12.167 35.114 -22.767 7.59 -9.737 15.442 -22.443 22.107 -35.776L200 880.9v44.098c0 13.808 11.193 25 25 25s25 -11.192 25 -25v-50c0 -13.784 11.215 -25 25 -25s25 11.216 25 25v50c0 13.808 11.193 25 25 25h37.5c27.799 0 66.213 -19.726 89.352 -45.885l48.147 -54.426 48.145 54.424c23.14 26.16 66.928 45.886 101.854 45.886h125c19.193 0 36.72 -7.256 50 -19.158 13.28 11.901 30.806 19.158 50 19.158 41.356 0 75 -33.643 75 -75 0 -12.45 3.026 -21.088 5.154 -25h19.846c13.807 0 25 -11.192 25 -25s-11.193 -25 -25 -25zM57.226 273.7L187.5 100.002h624.998L942.77 273.7 499.999 774.225 57.226 273.7zM774.998 900c-13.784 0 -25 -11.216 -25 -25s11.216 -25 25 -25 25 11.216 25 25 -11.216 25 -25 25zM125 750c6.578 0 13.03 -2.671 17.672 -7.328C147.328 738.016 150 731.58 150 725.001s-2.672 -13.016 -7.328 -17.674C138.03 702.673 131.578 700 125 700s-13.016 2.672 -17.672 7.326C102.672 711.969 100 718.422 100 725s2.672 13.03 7.328 17.671c4.656 4.657 11.094 7.329 17.672 7.329z"/></svg>