<svg height="1000" width="1000" xmlns="http://www.w3.org/2000/svg"><path d="M924.998 250.002h-500c-13.806 0 -24.999 -11.194 -24.999 -25s11.193 -25 25 -25h499.999c13.807 0 25 11.193 25 25s-11.193 25 -25 25zm0 200h-500c-13.806 0 -24.999 -11.193 -24.999 -25s11.193 -25 25 -25h499.999c13.807 0 25 11.192 25 25s-11.193 25 -25 25zm0 199.999h-500C411.193 650 400 638.808 400 625s11.193 -25 25 -25h499.999c13.807 0 25 11.192 25 25s-11.193 25 -25 25zm0 200h-500C411.193 850 400 838.807 400 825s11.193 -25 25 -25h499.999c13.807 0 25 11.192 25 25s-11.193 25 -25 25zM257.322 682.323l-57.323 57.32V310.356l57.323 57.322c4.882 4.883 11.279 7.323 17.677 7.323s12.795 -2.44 17.678 -7.323c9.763 -9.762 9.763 -25.591 0 -35.354l-100 -100c-9.763 -9.763 -25.591 -9.763 -35.356 0l-100 100c-9.763 9.763 -9.763 25.592 0 35.354 9.764 9.763 25.592 9.763 35.356 0L150 310.356v429.288L92.677 682.322c-9.763 -9.763 -25.591 -9.763 -35.356 0 -9.763 9.763 -9.763 25.592 0 35.354l100 100c4.883 4.883 11.28 7.323 17.678 7.323s12.794 -2.44 17.677 -7.323l100 -100c9.763 -9.762 9.763 -25.591 0 -35.354s-25.592 -9.763 -35.356 .002z"/></svg>