<svg height="1000" width="1000" xmlns="http://www.w3.org/2000/svg"><path d="M534.097 649.915c-47.143 0 -94.287 -17.945 -130.176 -53.836 -9.764 -9.763 -9.764 -25.592 0 -35.354s25.59 -9.763 35.354 0c52.284 52.286 137.36 52.286 189.645 0L810.723 378.922c52.284 -52.284 52.284 -137.359 0 -189.645 -52.286 -52.284 -137.36 -52.283 -189.645 0l-153.4 153.401c-9.764 9.763 -25.592 9.763 -35.355 0 -9.764 -9.763 -9.764 -25.591 0 -35.356L585.724 153.921c71.78 -71.778 188.575 -71.778 260.354 0s71.779 188.575 0 260.354L664.274 596.079c-35.89 35.89 -83.034 53.836 -130.178 53.836zm-299.999 300c-47.143 0 -94.287 -17.946 -130.177 -53.837C32.142 824.3 32.142 707.504 103.92 635.724L285.723 453.922c71.778 -71.778 188.575 -71.778 260.354 0 9.763 9.764 9.763 25.592 0 35.355 -9.763 9.763 -25.592 9.763 -35.355 0 -52.286 -52.286 -137.359 -52.286 -189.645 0L139.276 671.079c-52.284 52.286 -52.284 137.359 0 189.645s137.359 52.286 189.643 0L482.32 707.323c9.763 -9.763 25.592 -9.763 35.354 0 9.764 9.763 9.764 25.592 0 35.354l-153.4 153.401c-35.89 35.89 -83.034 53.836 -130.177 53.836z"/></svg>