<svg height="1000" width="1000" xmlns="http://www.w3.org/2000/svg"><path d="M974.998 800H224.999c-13.806 0 -25 -11.192 -25 -25s11.194 -25 25 -25h749.999c13.807 0 25 11.193 25 25s-11.193 25 -25 25zm0 -249.999H224.999c-13.806 0 -25 -11.192 -25 -25s11.194 -25 25 -25h749.999c13.807 0 25 11.193 25 25s-11.193 25 -25 25zm0 -250H224.999c-13.806 0 -25 -11.193 -25 -25s11.194 -25 25 -25h749.999c13.807 0 25 11.194 25 25s-11.193 25 -25 25zM75 350.002c-41.355 0 -75 -33.645 -75 -75s33.645 -75 75 -75 75 33.646 75 75 -33.646 75 -75 75zm0 -100c-13.784 0 -25 11.217 -25 25s11.216 25 25 25 25 -11.215 25 -25 -11.216 -25 -25 -25zm0 350C33.645 600 0 566.357 0 525c0 -41.354 33.645 -75 75 -75s75 33.646 75 75c0 41.356 -33.646 75 -75 75zm0 -100c-13.784 0 -25 11.216 -25 25s11.216 25 25 25 25 -11.216 25 -25 -11.216 -25 -25 -25zm0 350C33.645 850 0 816.356 0 775s33.645 -75 75 -75 75 33.643 75 75 -33.646 75 -75 75zm0 -100c-13.784 0 -25 11.215 -25 25s11.216 25 25 25 25 -11.216 25 -25S88.784 750 75 750z"/></svg>