<svg height="1000" width="1000" xmlns="http://www.w3.org/2000/svg"><path d="M25 950C13.763 950 3.906 942.503 .908 931.674a25 25 0 0 1 11.232 -28.11C96.68 852.84 131.754 779.138 144.188 744.625 52.306 674.266 .001 576.905 .001 475.003c0 -51.468 12.92 -101.323 38.401 -148.18 24.319 -44.72 58.99 -84.77 103.053 -119.04C230.814 138.278 349.269 100.002 474.999 100.002s244.185 38.276 333.546 107.78c44.06 34.27 78.734 74.32 103.052 119.04 25.48 46.855 38.4 96.71 38.4 148.178 0 51.467 -12.92 101.323 -38.4 148.18C887.28 667.9 852.605 707.95 808.545 742.222 719.184 811.724 600.73 850 474.999 850c-51.667 0 -102.344 -6.471 -150.817 -19.245 -21.46 14.294 -61.563 39.653 -109.459 63.481C140.345 931.238 76.513 950 25 950zM474.999 150.002c-234.345 0 -425 145.795 -425 325 0 90.767 50.227 178.103 137.8 239.616a25 25 0 0 1 9.779 26.93c-5.844 21.801 -25.745 81.637 -78.983 139.388C183.692 858.142 253.775 818.6 305.542 783a25.005 25.005 0 0 1 21.04 -3.437C374 793.125 423.934 800 475 800c234.345 0 424.999 -145.794 424.999 -324.999s-190.654 -324.999 -425 -324.999z"/></svg>