<svg height="1000" width="1000" xmlns="http://www.w3.org/2000/svg"><path d="M724.998 400.001h-25v-75c0 -124.065 -100.934 -224.999 -225 -224.999S250 200.936 250 325.002v75h-25c-41.354 0 -75 33.645 -75 75V875c0 41.355 33.646 75 75 75h500c41.354 0 74.999 -33.645 74.999 -75V475.001c0 -41.354 -33.645 -75 -75 -75zM300 325.001c0 -96.494 78.505 -174.999 175 -174.999s175 78.505 175 175v75h-350v-75zm450 550c0 13.783 -11.217 25 -25 25h-500c-13.784 0 -25 -11.217 -25 -25V475c0 -13.784 11.216 -25 25 -25h500c13.783 0 25 11.216 25 25v400z"/></svg>