<svg height="1000" width="1000" xmlns="http://www.w3.org/2000/svg"><path d="M574.999 350.002c-13.808 0 -25 -11.194 -25 -25 0 -68.925 -56.075 -125 -125 -125 -13.807 0 -25 -11.193 -25 -25s11.193 -25 25 -25c68.925 0 125 -56.075 125 -125 0 -13.806 11.192 -25 25 -25s25 11.194 25 25c0 68.925 56.075 125 125 125 13.807 0 25 11.193 25 25s-11.193 25 -25 25c-68.925 0 -125 56.075 -125 125 0 13.806 -11.193 25 -25 25zm-59.936 -175A176.428 176.428 0 0 1 575 234.939a176.417 176.417 0 0 1 59.937 -59.937 176.417 176.417 0 0 1 -59.937 -59.937 176.428 176.428 0 0 1 -59.936 59.937zM75 500.002c-13.807 0 -25 -11.194 -25 -25 0 -13.785 -11.216 -25 -25 -25 -13.807 0 -25 -11.194 -25 -25s11.193 -25 25 -25c13.784 0 25 -11.216 25 -25 0 -13.807 11.193 -25 25 -25s25 11.193 25 25c0 13.784 11.216 25 25 25 13.806 0 25 11.193 25 25s-11.194 25 -25 25c-13.784 0 -25 11.215 -25 25 0 13.806 -11.194 25 -25 25zm832.323 296.967L378.033 267.68C363.904 253.553 345.07 245.773 324.998 245.773s-38.906 7.78 -53.033 21.906l-29.289 29.29c-14.127 14.126 -21.906 32.96 -21.906 53.033s7.78 38.906 21.906 53.033l529.29 529.287c14.125 14.127 32.959 21.908 53.03 21.908s38.907 -7.778 53.034 -21.908l29.29 -29.289c14.128 -14.125 21.907 -32.96 21.907 -53.03s-7.778 -38.909 -21.904 -53.034zM278.033 332.324l29.288 -29.29c4.683 -4.682 10.961 -7.26 17.678 -7.26s12.995 2.578 17.678 7.26L414.64 375l-64.646 64.646 -71.963 -71.964c-9.749 -9.75 -9.749 -25.61 0 -35.357zm593.932 535.354l-29.291 29.289c-4.682 4.682 -10.961 7.26 -17.675 7.26s-12.994 -2.578 -17.675 -7.26L385.351 474.997l64.645 -64.644 421.97 421.97c9.747 9.748 9.747 25.608 0 35.355zM175 250.002c-13.807 0 -25 -11.194 -25 -25 0 -41.355 -33.646 -75 -75 -75 -13.807 0 -25 -11.193 -25 -25s11.193 -25 25 -25c41.354 0 75 -33.645 75 -75 0 -13.806 11.193 -25 25 -25s25 11.194 25 25c0 41.355 33.645 75 75 75 13.806 0 25 11.194 25 25s-11.194 25 -25 25c-41.355 0 -75 33.645 -75 75 0 13.806 -11.194 25 -25 25zm-25.079 -125A126.076 126.076 0 0 1 175 150.08a126.076 126.076 0 0 1 25.078 -25.078A126.076 126.076 0 0 1 175 99.924a126.127 126.127 0 0 1 -25.079 25.078zM175 750.001c-13.807 0 -25 -11.193 -25 -25 0 -41.355 -33.646 -75 -75 -75C61.193 650 50 638.808 50 625s11.193 -25 25 -25c41.354 0 75 -33.646 75 -75 0 -13.807 11.193 -25 25 -25s25 11.193 25 25c0 41.354 33.645 75 75 75 13.806 0 25 11.192 25 25s-11.194 25 -25 25c-41.355 0 -75 33.645 -75 75 0 13.807 -11.194 25 -25 25zM149.92 625A126.024 126.024 0 0 1 175 650.079 126.179 126.179 0 0 1 200.078 625 126.024 126.024 0 0 1 175 599.923 126.076 126.076 0 0 1 149.92 625z"/></svg>