<svg height="1000" width="1000" xmlns="http://www.w3.org/2000/svg"><path d="M943.425 958.106L646.256 633.923C713.222 563.85 749.998 472.254 749.998 375c0 -100.165 -39.006 -194.335 -109.834 -265.165S475.164 .002 375 .002 180.664 39.008 109.834 109.836 0 274.836 0 375.001 39.006 569.34 109.834 640.167 274.834 750 374.999 750c86.29 0 168.117 -28.972 234.416 -82.274l297.153 324.166c4.932 5.378 11.674 8.107 18.435 8.107a24.928 24.928 0 0 0 16.888 -6.57c10.177 -9.331 10.865 -25.146 1.534 -35.324zM50 375.001C50 195.797 195.794 50.002 374.999 50.002s325 145.795 325 325S554.203 700 374.998 700s-325 -145.795 -325 -325z"/></svg>