<svg height="1000" width="1000" xmlns="http://www.w3.org/2000/svg"><path d="M499.999 1000a24.997 24.997 0 0 1 -19.658 -9.555c-2.863 -3.642 -70.886 -90.687 -139.872 -219.247C299.863 695.523 267.479 621.229 244.214 550.38 214.875 461.026 200 376.789 200 300.003c0 -165.42 134.58 -300 299.999 -300s299.999 134.58 299.999 300c0 76.786 -14.877 161.023 -44.217 250.376 -23.263 70.85 -55.648 145.145 -96.254 220.818C590.54 899.757 522.516 986.803 519.654 990.444a24.989 24.989 0 0 1 -19.656 9.557zm0 -949.998c-137.85 0 -250 112.15 -250 250 0 162.692 73.158 333.178 134.53 447.553 45.103 84.057 90.462 150.69 115.465 185.486C525.1 898.091 570.725 831.057 615.9 746.752 677.074 632.591 749.998 462.414 749.998 300.002c0 -137.85 -112.148 -250 -250 -250zm0 400c-82.711 0 -150 -67.29 -150 -150s67.289 -150 150 -150 150 67.289 150 150 -67.29 150 -150 150zm0 -250c-55.14 0 -100 44.86 -100 100s44.86 100 100 100 100 -44.86 100 -100 -44.86 -100 -100 -100z"/></svg>