<svg height="1000" width="1000" xmlns="http://www.w3.org/2000/svg"><path d="M938.141 53.737A25.005 25.005 0 0 0 913.818 52.64L624.998 197.05 336.178 52.64a25.005 25.005 0 0 0 -22.36 0l-300 150A25 25 0 0 0 0 225V975a25 25 0 0 0 36.18 22.361L325 852.952l288.819 144.41a25.007 25.007 0 0 0 22.362 0l300 -150A24.997 24.997 0 0 0 950 825V75.002A25.009 25.009 0 0 0 938.14 53.737zM300 809.549l-250 125V240.454l250 -125V809.55zm50 -694.096l250 125V934.55l-250 -125V115.453zM899.998 809.55l-250 125V240.454l250 -125V809.55z"/></svg>