<svg height="1000" width="1000" xmlns="http://www.w3.org/2000/svg"><path d="M474.999 700c-96.495 0 -175 -78.504 -175 -174.999v-300C300 128.508 378.504 50.003 475 50.003s175 78.505 175 175v300c0 96.494 -78.505 174.999 -175 174.999zm0 -599.998c-68.925 0 -125 56.075 -125 125v300C350 593.925 406.074 650 475 650s125 -56.075 125 -125v-300c0 -68.924 -56.076 -124.999 -125 -124.999zm324.999 425c0 -13.808 -11.192 -25 -25 -25s-25 11.192 -25 25c0 151.634 -123.364 274.998 -275 274.998S200 676.636 200 525.001c0 -13.807 -11.193 -25 -25 -25s-25 11.193 -25 25c0 170.795 132.43 311.24 300 324.048V950h-75c-13.807 0 -25 11.192 -25 25s11.193 25 25 25h200c13.807 0 25 -11.192 25 -25s-11.193 -25 -25 -25h-75V849.05C667.567 836.241 799.998 695.796 799.998 525z"/></svg>