<svg height="1000" width="1000" xmlns="http://www.w3.org/2000/svg"><path d="M512.499 1000C375.605 1000 246.906 946.69 150.107 849.893S0 624.395 0 487.5C0 374.961 36.133 268.742 104.489 180.328c32.742 -42.348 71.947 -79.253 116.528 -109.69 44.97 -30.703 94.398 -54.125 146.91 -69.614 9.59 -2.833 19.946 .328 26.326 8.03s7.557 18.462 2.992 27.358C365.013 99.243 350 159.168 350 225.001 350 459.346 540.654 650 775 650c65.834 0 125.757 -15.01 188.588 -47.244a25 25 0 0 1 35.39 29.317c-15.488 52.513 -38.91 101.94 -69.614 146.909 -30.436 44.58 -67.342 83.786 -109.69 116.528C731.259 963.867 625.038 999.999 512.5 999.999zM328.512 68.26C159.82 140.508 50 302.692 50 487.501 50 742.524 257.476 950 512.499 950c184.798 0 346.985 -109.839 419.24 -278.512 -51.177 19.139 -102.902 28.513 -156.741 28.513C648.121 700 528.839 650.593 439.124 560.878 349.408 471.16 299.999 351.878 299.999 225.002c0 -53.839 9.375 -105.564 28.513 -156.742z"/></svg>