<svg height="1000" width="1000" xmlns="http://www.w3.org/2000/svg"><path d="M917.674 507.324l-150 -150c-9.762 -9.763 -25.59 -9.763 -35.354 0 -9.763 9.763 -9.763 25.592 0 35.355l107.323 107.322H500V160.357l107.323 107.322c4.88 4.882 11.278 7.323 17.676 7.323s12.795 -2.44 17.677 -7.323c9.764 -9.763 9.764 -25.592 0 -35.355l-150 -150c-9.762 -9.763 -25.591 -9.763 -35.354 0l-150 150c-9.763 9.763 -9.763 25.592 0 35.355s25.592 9.763 35.355 0L449.999 160.357V500H110.354L217.676 392.678c9.764 -9.762 9.764 -25.592 0 -35.354 -9.762 -9.764 -25.592 -9.764 -35.354 0l-150 150c-9.763 9.762 -9.763 25.591 0 35.354l150 150c4.883 4.882 11.28 7.323 17.677 7.323s12.795 -2.44 17.677 -7.324c9.764 -9.762 9.764 -25.591 0 -35.354L110.354 550.001H450v339.645L342.676 782.323c-9.763 -9.763 -25.592 -9.763 -35.355 0 -9.763 9.762 -9.763 25.591 0 35.354l150 150C462.204 972.56 468.601 975 475 975s12.795 -2.44 17.676 -7.323l150 -150c9.764 -9.763 9.764 -25.592 0 -35.354 -9.763 -9.763 -25.592 -9.763 -35.354 0L499.999 889.646V550h339.644L732.32 657.324c-9.763 9.763 -9.763 25.592 0 35.354 4.883 4.881 11.28 7.323 17.678 7.323s12.795 -2.44 17.677 -7.324l150 -150c9.763 -9.762 9.763 -25.59 0 -35.353z"/></svg>