<svg height="1000" width="1000" xmlns="http://www.w3.org/2000/svg"><path d="M991.016 55.809a24.993 24.993 0 0 0 -20.49 -5.403l-549.999 100C408.64 152.565 400 162.92 400 175.001v569.952c-6.822 -4.612 -14.286 -8.966 -22.398 -13.024C336.423 711.34 282.228 700 224.999 700S113.576 711.34 72.4 731.93C25.712 755.272 0 788.326 0 825s25.713 69.729 72.398 93.07C113.576 938.661 167.771 950 225 950s111.424 -11.339 152.602 -31.93C424.286 894.73 449.999 861.675 449.999 825V320.808l499.999 -92.333v416.479c-6.82 -4.611 -14.287 -8.967 -22.399 -13.023C886.422 611.34 832.226 600 774.998 600S663.574 611.34 622.397 631.93c-46.688 23.341 -72.398 56.395 -72.398 93.07s25.71 69.728 72.398 93.07C663.574 838.66 717.77 850 774.998 850s111.424 -11.34 152.601 -31.93c46.688 -23.342 72.398 -56.396 72.398 -93.07V75.002A24.998 24.998 0 0 0 991.016 55.81zM224.999 900C124.841 900 50 860.404 50 825s74.842 -75 175 -75 175 39.597 175 75 -74.84 75 -175 75zM450 269.96v-74.095l499.999 -90.909v72.672l-500 92.333zM774.998 800c-100.16 0 -175 -39.596 -175 -75s74.84 -75 175 -75c100.162 0 175 39.597 175 75s-74.838 75 -175 75z"/></svg>