<svg height="1000" width="1000" xmlns="http://www.w3.org/2000/svg"><path d="M474.999 1000C348.122 1000 228.84 950.592 139.125 860.875S0 651.878 0 525.001C0 398.123 49.41 278.843 139.125 189.127S348.12 50.002 474.999 50.002c126.876 0 246.158 49.41 335.874 139.125S949.998 398.124 949.998 525 900.589 771.16 810.873 860.875C721.157 950.592 601.875 1000 474.999 1000zm0 -899.998c-234.345 0 -425 190.654 -425 425S240.655 950 475 950 899.998 759.346 899.998 525.001s-190.654 -424.999 -425 -424.999zm-150 300c-41.354 0 -75 -33.646 -75 -75s33.646 -75 75 -75 75 33.645 75 75 -33.645 75 -75 75zm0 -100c-13.784 0 -25 11.215 -25 25s11.216 25 25 25 25 -11.216 25 -25 -11.216 -25 -25 -25zm300 100c-41.357 0 -75 -33.646 -75 -75s33.643 -75 75 -75 75 33.645 75 75 -33.644 75 -75 75zm0 -100c-13.785 0 -25 11.215 -25 25s11.215 25 25 25 25 -11.216 25 -25 -11.216 -25 -25 -25zm171.15 311.67a25.007 25.007 0 0 0 -26.053 -11.185c-9.358 1.872 -18.378 2.82 -26.81 2.82 -.003 0 -.007 0 -.01 0 -43.6 -.002 -70.081 -25.165 -98.116 -51.809C618.52 526.181 590.971 500.001 550 500.001c-29.847 0 -56.661 13.16 -75 33.961 -18.34 -20.802 -45.153 -33.96 -75 -33.96 -40.97 0 -68.518 26.179 -95.159 51.496 -28.036 26.644 -54.517 51.808 -98.115 51.808 -8.44 0 -17.464 -.948 -26.822 -2.82a25 25 0 0 0 -24.902 39.513c57.854 77.14 132.121 93.333 184.235 93.333 31.045 0 55.77 -5.844 67.747 -9.328C433.514 716.287 457.87 696.897 475 672.61c17.13 24.287 41.486 43.675 68.015 51.394 11.979 3.482 36.706 9.33 67.748 9.328 52.115 -.002 126.383 -16.196 184.234 -93.333a24.99 24.99 0 0 0 1.153 -28.326zm-403.132 64.324c-9.42 2.74 -28.936 7.338 -53.78 7.338 -29.237 0 -67.431 -6.565 -103.474 -32.716 46.755 -8.927 77.775 -38.406 103.521 -62.875 24.622 -23.4 40.729 -37.742 60.716 -37.742 27.57 0 50 22.43 50 50 0 30.542 -27.693 67.474 -56.982 75.995zm217.745 7.338c-24.84 .002 -44.36 -4.596 -53.78 -7.338C527.693 667.476 500 630.543 500 600c0 -27.57 22.43 -50 50 -50 19.989 0 36.095 14.342 60.718 37.74 25.747 24.466 56.768 53.943 103.52 62.873C678.196 676.767 640 683.333 610.763 683.333z"/></svg>