<svg height="1000" width="1000" xmlns="http://www.w3.org/2000/svg"><path d="M874.998 450.001H125c-41.355 0 -75 -33.645 -75 -75V75.002c0 -13.806 11.193 -25 25 -25s25 11.194 25 25v300c0 13.784 11.216 25 25 25h749.998c13.784 0 25 -11.216 25 -25v-300c0 -13.806 11.192 -25 25 -25s25 11.194 25 25v300c0 41.354 -33.644 75 -75 75zM75 550.001H25c-13.807 0 -25 -11.192 -25 -25s11.193 -25 25 -25h50c13.806 0 25 11.193 25 25s-11.194 25 -25 25zm150 0h-50c-13.807 0 -25 -11.192 -25 -25s11.193 -25 25 -25h50c13.806 0 25 11.193 25 25s-11.194 25 -25 25zm149.999 0h-50c-13.806 0 -25 -11.192 -25 -25s11.194 -25 25 -25h50c13.807 0 25 11.193 25 25s-11.193 25 -25 25zm150 0h-50c-13.807 0 -25 -11.192 -25 -25s11.193 -25 25 -25h50c13.807 0 25 11.193 25 25s-11.193 25 -25 25zm150 0h-50c-13.808 0 -25 -11.192 -25 -25s11.192 -25 25 -25h50c13.807 0 25 11.193 25 25s-11.193 25 -25 25zm149.999 0h-50c-13.808 0 -25 -11.192 -25 -25s11.192 -25 25 -25h50c13.807 0 25 11.193 25 25s-11.193 25 -25 25zm150 0h-50c-13.808 0 -25 -11.192 -25 -25s11.192 -25 25 -25h50c13.807 0 25 11.193 25 25s-11.193 25 -25 25zm-50 449.999c-13.808 0 -25 -11.192 -25 -25V675c0 -13.783 -11.216 -25 -25 -25H125c-13.784 0 -25 11.217 -25 25v300c0 13.808 -11.194 25 -25 25S50 988.808 50 975V675c0 -41.356 33.645 -75 75 -75h749.998c41.356 0 75 33.644 75 75v300c0 13.808 -11.193 25 -25 25z"/></svg>