<svg height="1000" width="1000" xmlns="http://www.w3.org/2000/svg"><path d="M474.999 1000c-124.065 0 -225 -100.934 -225 -225V175.002c0 -96.495 78.505 -175 175 -175s175 78.505 175 175v549.999c0 68.924 -56.076 125 -125 125s-125 -56.076 -125 -125V425c0 -13.806 11.193 -25 25 -25s25 11.194 25 25v300c0 41.356 33.645 75 75 75 41.356 0 75 -33.644 75 -75V175.002c0 -68.925 -56.075 -125 -125 -125s-125 56.075 -125 125V775c0 96.495 78.505 175 175 175s175 -78.505 175 -175V425.001c0 -13.806 11.192 -25 25 -25s25 11.194 25 25v350c0 124.065 -100.935 224.999 -225 224.999z"/></svg>