<svg height="1000" width="1000" xmlns="http://www.w3.org/2000/svg"><path d="M150 600C93.925 600 50 533.877 50 449.46S93.925 298.917 150 298.917s100 66.125 100 150.541S206.074 600.001 150 600.001zm0 -251.081c-23.602 0 -50 42.997 -50 100.541s26.398 100.541 50 100.541 50 -42.998 50 -100.542S173.6 348.92 150 348.92zM349.9 400c-56.02 0 -99.9 -65.887 -99.9 -150s43.88 -149.999 99.9 -149.999 99.902 65.888 99.902 150 -43.881 150 -99.902 150zm0 -249.999c-23.556 0 -49.9 42.766 -49.9 100s26.345 100 49.9 100 49.902 -42.766 49.902 -100 -26.346 -100 -49.902 -100zm250.098 250c-56.075 0 -100 -65.888 -100 -150s43.925 -150 100 -150 100 65.888 100 150 -43.924 150 -100 150zm0 -250c-23.601 0 -50 42.766 -50 100s26.399 100 50 100 50 -42.766 50 -100 -26.398 -100 -50 -100zm200 449.999c-56.075 0 -100 -66.125 -100 -150.542s43.925 -150.541 100 -150.541 100 66.125 100 150.541 -43.925 150.542 -100 150.542zm0 -251.082c-23.602 0 -50 42.997 -50 100.541s26.398 100.541 50 100.541 50 -42.998 50 -100.542 -26.399 -100.54 -50 -100.54zM649.998 900c-43.392 0 -72.736 -14.68 -98.622 -27.63C527.379 860.367 506.656 850 474.999 850c-31.541 0 -52.266 10.358 -76.263 22.352C372.804 885.31 343.41 900 300 900c-27.779 0 -53.963 -15.138 -71.833 -41.533 -31.351 -46.31 -31.854 -116.564 -1.38 -192.751C281.623 528.626 372.094 450 475 450s193.376 78.625 248.21 215.716c30.475 76.189 29.974 146.443 -1.38 192.751C703.96 884.862 677.778 900 650 900zm-175 -100c43.465 0 72.835 14.69 98.746 27.654 23.97 11.99 44.67 22.346 76.254 22.346 10.92 0 22.011 -7.13 30.43 -19.564 21.578 -31.87 20.216 -86.506 -3.64 -146.15C629.94 567.169 556.391 500 474.997 500 393.607 500 320.058 567.17 273.21 684.284c-23.857 59.643 -25.218 114.279 -3.64 146.15 8.419 12.435 19.51 19.565 30.43 19.565 31.611 0 52.36 -10.369 76.384 -22.375C402.294 814.676 431.662 800 474.999 800z"/></svg>