<svg height="1000" width="1000" xmlns="http://www.w3.org/2000/svg"><path d="M955.174 44.825C927.08 16.73 889.727 1.259 849.998 1.259c-39.732 0 -77.083 15.472 -105.177 43.566L107.323 682.323a25 25 0 0 0 -5.817 9.135l-100 274.999a24.995 24.995 0 0 0 5.817 26.22 24.986 24.986 0 0 0 26.219 5.819l275 -100a25.018 25.018 0 0 0 9.134 -5.818L955.174 255.18c28.094 -28.094 43.568 -65.448 43.568 -105.178S983.27 72.919 955.174 44.826zm-668.93 808.577L66.801 933.196l79.796 -219.44 553.4 -553.4 139.645 139.646 -553.4 553.4zM919.82 219.824l-44.823 44.823L735.353 125.002 780.176 80.18c18.65 -18.65 43.447 -28.92 69.822 -28.92s51.172 10.272 69.823 28.922c18.65 18.65 28.922 43.447 28.922 69.822s-10.274 51.172 -28.922 69.822z"/></svg>