<svg height="1000" width="1000" xmlns="http://www.w3.org/2000/svg"><path d="M799.998 1000c-88.565 0 -182.767 -25.097 -279.986 -74.596C430.37 879.764 341.81 814.414 263.902 736.42 186.008 658.437 120.742 569.794 75.16 480.073 25.738 382.798 .679 288.568 .679 200.001 .679 142.605 54.16 87.159 77.153 65.986 110.21 35.546 162.215 0 200 0c18.793 0 40.823 12.294 69.33 38.688 21.27 19.697 45.185 46.396 69.154 77.214C352.93 134.478 424.998 229.444 424.998 275c0 37.373 -42.236 63.333 -86.95 90.818 -17.28 10.62 -35.148 21.603 -48.072 31.963 -13.783 11.05 -16.255 16.882 -16.661 18.192 47.462 118.289 192.52 263.33 310.744 310.726 1.06 -.333 6.901 -2.636 18.156 -16.675 10.36 -12.924 21.342 -30.792 31.963 -48.073C661.662 617.236 687.621 575 724.996 575c45.555 0 140.523 72.068 159.098 86.515 30.818 23.971 57.518 47.883 77.214 69.156 26.396 28.505 38.687 50.534 38.687 69.328 0 37.794 -35.525 89.956 -65.945 123.144C912.866 946.25 857.4 1000 799.996 1000zM199.684 50.005c-13.41 .256 -49.447 16.654 -88.66 52.763C73.801 137.044 50.68 174.3 50.68 200.002 50.68 536.449 463.855 950 799.998 950c25.664 0 62.908 -23.237 97.195 -60.643 36.136 -39.42 52.545 -75.599 52.802 -89.041 -1.623 -9.5 -27.9 -46.448 -99.836 -101.839 -61.838 -47.619 -112.01 -73.13 -124.903 -73.473 -.903 .267 -6.5 2.409 -17.849 16.818 -9.867 12.531 -20.421 29.705 -30.63 46.312 -28.011 45.573 -54.467 88.617 -92.893 88.617 -6.187 0 -12.301 -1.19 -18.172 -3.539C434.486 720.722 279.278 565.512 226.787 434.286c-6.305 -15.76 -7.31 -40.443 23.703 -68.538 16.486 -14.935 39.306 -28.961 61.374 -42.526 16.608 -10.208 33.78 -20.762 46.31 -30.63 14.41 -11.347 16.554 -16.946 16.82 -17.85C374.648 261.85 349.138 211.679 301.52 149.84 246.13 77.907 209.182 51.629 199.682 50.005z"/></svg>