<svg height="1000" width="1000" xmlns="http://www.w3.org/2000/svg"><path d="M894.715 444.834c-52.035 .002 -146.388 -18.763 -175.797 -48.17C700.885 378.632 696.6 356.002 693.155 337.816c-4.242 -22.393 -6.787 -29.057 -16.61 -33.278C631.432 285.149 566.724 274.03 499.004 274.03c-67.012 0 -131.015 10.927 -175.595 29.98 -9.706 4.148 -12.206 10.79 -16.348 33.142 -3.378 18.234 -7.583 40.928 -25.62 58.966 -16.42 16.419 -50.757 27.695 -76.671 34.263 -33.416 8.47 -69.19 13.326 -98.146 13.326 -33.186 0 -55.63 -6.31 -68.611 -19.292C18.462 404.866 5.985 378.127 3.785 351.057c-1.856 -22.817 2.54 -56.62 34.008 -88.09 51.089 -51.09 119.823 -90.928 204.291 -118.411C319.77 119.28 408.19 105.92 497.79 105.92c90.212 0 179.365 13.524 257.817 39.11 85.258 27.804 154.639 68.054 206.214 119.627 52.506 52.505 39.503 122.17 .614 161.062 -12.864 12.861 -35.015 19.112 -67.721 19.114zM499.008 224.03c75.349 0 145.411 12.277 197.28 34.568 35.653 15.323 41.632 46.875 45.994 69.912 2.61 13.774 4.863 25.67 11.992 32.8 12.613 12.61 85.315 33.525 140.44 33.524 24.061 0 31.64 -4.12 32.618 -4.721 15.48 -15.685 34.918 -54.317 -.865 -90.099C836.241 209.788 675.987 155.921 497.791 155.921c-176.731 0 -335.474 53.232 -424.64 142.4 -14.414 14.414 -20.984 30.794 -19.53 48.684 1.23 15.1 8.517 30.708 19.518 41.824 .943 .591 8.64 4.882 33.488 4.882 54.923 0 127.07 -20.554 139.463 -32.947 7.057 -7.057 9.26 -18.948 11.81 -32.717 4.28 -23.104 10.143 -54.746 45.863 -70.01 51.306 -21.93 120.645 -34.006 195.245 -34.006zM824.998 900H175c-33.542 0 -64.495 -13.192 -87.156 -37.148C65.18 838.896 53.726 807.258 55.586 773.768c.213 -3.836 5.883 -95.026 63.505 -186.965C153.176 532.414 198.369 489.06 253.408 457.95 321.433 419.498 404.396 400 499.998 400s178.568 19.497 246.59 57.949c55.043 31.11 100.232 74.463 134.319 128.853 57.622 91.939 63.292 183.13 63.506 186.965 1.859 33.492 -9.597 65.128 -32.26 89.084S858.539 900 824.997 900zm-325 -449.999c-155.85 0 -269.392 54.39 -337.473 161.661 -51.49 81.13 -56.969 164.1 -57.018 164.93 -1.088 19.58 5.537 38.028 18.659 51.9s31.174 21.51 50.834 21.51h649.998c19.659 0 37.713 -7.64 50.834 -21.511 13.12 -13.87 19.748 -32.32 18.656 -51.949 -.045 -.779 -5.525 -83.751 -57.016 -164.879C769.392 504.393 655.848 450.003 500 450.003zm0 350C417.289 800 350 732.71 350 650S417.288 500 500 500s150 67.289 150 150 -67.29 150 -150 150zm0 -250c-55.14 0 -99.999 44.86 -99.999 100s44.86 100 100 100 100 -44.86 100 -100 -44.86 -100 -100 -100z"/></svg>