<svg height="1000" width="1000" xmlns="http://www.w3.org/2000/svg"><path d="M924.998 1000H75C33.645 1000 0 966.356 0 925V75.002c0 -41.354 33.645 -75 75 -75h849.998c41.356 0 75 33.646 75 75V925c0 41.356 -33.644 75 -75 75zM75 50.002c-13.784 0 -25 11.216 -25 25V925c0 13.784 11.216 25 25 25h849.998c13.784 0 25 -11.216 25 -25V75.002c0 -13.784 -11.216 -25 -25 -25H75zm574.998 400c-55.14 0 -100 -44.86 -100 -100s44.86 -100 100 -100 100 44.86 100 100 -44.86 100 -100 100zm0 -150c-27.57 0 -50 22.43 -50 50s22.43 50 50 50 50 -22.43 50 -50 -22.43 -50 -50 -50zm225 -200H125c-13.807 0 -25 11.194 -25 25v599.999c0 13.807 11.193 25 25 25h749.998c13.807 0 25 -11.193 25 -25V125.002c0 -13.806 -11.193 -25 -25 -25zM150 584.506L310.466 403.98c4.104 -4.617 9.467 -7.198 15.1 -7.266 5.59 -.088 11.056 2.381 15.271 6.897L617.467 700h-467.47V584.505zM849.998 700H685.863L377.392 369.497c-13.935 -14.93 -32.532 -23.052 -52.433 -22.779 -19.877 .24 -38.295 8.782 -51.862 24.044L150.001 509.246V150.002h699.998v549.999z"/></svg>