<svg height="1000" width="1000" xmlns="http://www.w3.org/2000/svg"><path d="M424.999 1000C311.478 1000 204.75 955.792 124.479 875.52S0 688.522 0 575.002C0 461.48 44.208 354.753 124.48 274.481S311.476 150.002 424.998 150.002c13.807 0 25 11.193 25 25v374.999h374.999c13.807 0 25 11.192 25 25 0 113.52 -44.208 220.247 -124.48 300.52S538.52 1000 424.999 1000zm-25 -799.175c-195.158 12.916 -350 175.806 -350 374.176C50 781.777 218.225 950 425 950c198.37 0 361.26 -154.841 374.176 -350H424.999c-13.807 0 -25 -11.191 -25 -24.999V200.825zm524.999 299.176h-400c-13.807 0 -25 -11.193 -25 -25V75.002c0 -13.806 11.193 -25 25 -25 113.52 0 220.248 44.208 300.52 124.48s124.48 186.997 124.48 300.52c0 13.806 -11.193 25 -25 25zm-375 -50h349.176C886.807 263.113 736.886 113.195 550 100.825v349.176z"/></svg>