<svg height="1000" width="1000" xmlns="http://www.w3.org/2000/svg"><path d="M399.999 850c0 -20.578 6.253 -39.72 16.951 -55.637C378.005 780.683 350 743.56 350 700c0 -20.578 6.252 -39.721 16.95 -55.638C328.005 630.683 300 593.561 300 550.001c0 -18.208 4.915 -35.278 13.452 -50H150c-55.14 0 -100 -44.86 -100 -100s44.86 -100 100 -100h368.67L402.025 232.709C378.27 219.655 361.356 198.369 354.386 172.742 347.6 147.782 351.19 121.82 364.5 99.64 391.724 54.267 453.19 37.004 501.58 61.12c3.028 1.479 68.382 33.411 267.517 132.979 93.77 46.884 160.793 98.343 199.212 152.947 30.162 42.868 31.69 72.456 31.69 77.953v250c0 42.392 -12.271 81.612 -36.476 116.573 -23.396 33.792 -57.601 62.958 -101.67 86.687 -87.159 46.932 -212.285 71.739 -361.852 71.739 -55.14 0 -100 -44.86 -100 -100zm438.145 -15.762C889.171 806.763 949.998 756.834 949.998 675V425.499c-.17 -1.968 -2.505 -22.994 -26.264 -54.752 -23.678 -31.65 -73.606 -80.23 -176.998 -131.925C544.023 137.466 480.187 106.318 479.566 106.015a9.593 9.593 0 0 1 -.225 -.111c-25.139 -12.569 -58.096 -3.657 -71.967 19.46 -6.237 10.396 -7.92 22.56 -4.74 34.258 3.39 12.467 11.777 22.889 23.616 29.347 .175 .095 .349 .193 .521 .294l135.252 78.026c29.142 15.966 41.411 33.909 36.453 53.342C593.507 340.118 574.043 350 540.625 350H150c-27.57 0 -50 22.43 -50 50s22.43 50 50 50H475c13.806 0 25 11.193 25 25s-11.194 25 -25 25h-75C372.43 500 350 522.43 350 550s22.43 50 50 50h75c13.806 0 25 11.192 25 25s-11.194 25 -25 25h-25c-27.57 0 -50 22.43 -50 50s22.43 50 50 50h75c13.807 0 25 11.192 25 25s-11.193 25 -25 25h-25c-27.57 0 -50 22.429 -50 50s22.43 50 50 50c141.32 0 258.249 -22.741 338.145 -65.763z"/></svg>