<svg height="1000" width="1000" xmlns="http://www.w3.org/2000/svg"><path d="M599.998 850c0 -20.578 -6.252 -39.72 -16.95 -55.637 38.945 -13.68 66.95 -50.802 66.95 -94.362 0 -20.578 -6.253 -39.721 -16.95 -55.638 38.944 -13.68 66.95 -50.802 66.95 -94.362 0 -18.208 -4.916 -35.278 -13.453 -50h163.453c55.14 0 100 -44.86 100 -100s-44.86 -100 -100 -100H481.327l116.646 -67.293c23.756 -13.053 40.669 -34.339 47.639 -59.966 6.786 -24.96 3.195 -50.923 -10.115 -73.103C608.274 54.267 546.807 37.004 498.417 61.12 495.39 62.6 430.036 94.532 230.902 194.1 137.13 240.984 70.107 292.443 31.688 347.047 1.526 389.915 -.002 419.503 -.002 425v250c0 42.392 12.271 81.612 36.477 116.573 23.395 33.792 57.6 62.958 101.67 86.687 87.158 46.932 212.285 71.739 361.852 71.739 55.14 0 100 -44.86 100 -100zM161.853 834.238C110.827 806.763 50 756.834 50 675V425.499c.169 -1.968 2.505 -22.994 26.263 -54.752 23.678 -31.65 73.607 -80.23 176.998 -131.925C455.974 137.466 519.811 106.318 520.432 106.015a9.593 9.593 0 0 0 .225 -.111c25.138 -12.569 58.095 -3.657 71.966 19.46 6.238 10.396 7.92 22.56 4.74 34.258 -3.389 12.467 -11.777 22.889 -23.615 29.347a22.916 22.916 0 0 0 -.522 .294l-135.252 78.026c-29.142 15.966 -41.41 33.909 -36.453 53.342 4.97 19.487 24.433 29.37 57.852 29.37h390.624c27.57 0 50 22.43 50 50s-22.43 50 -50 50h-325c-13.806 0 -25 11.193 -25 25s11.194 25 25 25h75c27.57 0 50 22.429 50 49.999s-22.43 50 -50 50h-75c-13.806 0 -25 11.192 -25 25s11.194 25 25 25h25c27.57 0 50 22.43 50 50s-22.43 50 -50 50h-75c-13.807 0 -25 11.192 -25 25s11.193 25 25 25h25c27.571 0 50 22.429 50 50s-22.429 50 -50 50c-141.32 0 -258.249 -22.741 -338.145 -65.763z"/></svg>