<svg height="1000" width="1000" xmlns="http://www.w3.org/2000/svg"><path d="M849.998 600c-20.578 0 -39.72 -6.252 -55.638 -16.95C780.68 621.995 743.56 650 699.998 650c-20.578 0 -39.72 -6.252 -55.637 -16.95C630.68 671.995 593.559 700 549.999 700c-18.208 0 -35.279 -4.915 -50 -13.452V850c0 55.14 -44.86 100 -100 100s-100 -44.86 -100 -100V481.33l-67.294 116.646c-13.052 23.755 -34.338 40.668 -59.965 47.638C147.779 652.4 121.816 648.81 99.636 635.5 54.265 608.276 37.002 546.81 61.12 498.42c1.478 -3.028 33.411 -68.383 132.978 -267.517C240.982 137.133 292.441 70.11 347.045 31.691 389.912 1.529 419.501 0 424.998 0h250c42.392 0 81.611 12.27 116.572 36.476 33.792 23.395 62.958 57.601 86.688 101.67 46.932 87.159 71.739 212.285 71.739 361.852 0 55.14 -44.86 100 -100 100zM834.235 161.857C806.761 110.829 756.831 50.002 674.998 50.002H425.497c-1.969 .17 -22.994 2.505 -54.753 26.264 -31.65 23.678 -80.23 73.606 -131.924 176.998C137.464 455.977 106.315 519.813 106.012 520.434a9.593 9.593 0 0 1 -.11 .225c-12.57 25.139 -3.657 58.096 19.46 71.967 10.395 6.237 22.56 7.92 34.258 4.74 12.466 -3.39 22.888 -11.777 29.346 -23.616a22.916 22.916 0 0 1 .294 -.521l78.026 -135.252c15.966 -29.143 33.91 -41.411 53.342 -36.453 19.487 4.969 29.37 24.432 29.37 57.851V850c0 27.57 22.43 50 50 50s50 -22.43 50 -50V525c0 -13.806 11.193 -25 25 -25s25 11.194 25 25v75c0 27.57 22.43 50 50 50s50 -22.43 50 -50v-75c0 -13.806 11.192 -25 25 -25s25 11.194 25 25v25c0 27.57 22.429 50 50 50s50 -22.43 50 -50v-75c0 -13.807 11.191 -25 24.999 -25s25 11.193 25 25v25c0 27.57 22.43 50 50 50s50 -22.43 50 -50c0 -141.32 -22.74 -258.25 -65.763 -338.145z"/></svg>