<svg height="1000" width="1000" xmlns="http://www.w3.org/2000/svg"><path d="M852.862 665.144A354.554 354.554 0 0 0 840.927 658.7c47.768 -37.445 59.072 -78.38 59.072 -108.698 0 -70.97 -59.647 -132.742 -158.731 -170.434 5.737 -17.544 8.731 -36.016 8.731 -54.565 0 -96.495 -78.505 -175 -175 -175 -34.213 0 -75 -8.675 -75 -50C500 77.348 528.88 52.6 538.938 45.757A25 25 0 0 0 525 .002c-78.364 0 -158.883 25.75 -220.909 70.65 -31.65 22.912 -56.768 49.41 -74.658 78.76C209.903 181.457 200 215.301 200 250.002c0 14.4 1.214 28.704 3.524 42.771 -42.45 20.5 -78.312 47.57 -104.51 79.036C66.95 410.322 50.001 454.651 50.001 500.002c0 27.31 6.13 55.148 17.78 82.065C23.355 624.753 0 673.843 0 725.002c0 76.263 51.375 146.804 144.66 198.629C233.308 972.879 350.625 1000 475 1000c127.887 0 243.932 -16.63 326.76 -46.825C924.28 908.51 949.999 845.225 949.999 800c0 -36.417 -16.852 -89.372 -97.136 -134.856zM784.632 906.2C707.157 934.445 597.193 950 475 950 358.978 950 250.285 925.112 168.943 879.922 92.242 837.311 50 782.292 50 725.001c0 -39.87 20.51 -73.027 43.326 -97.594a284.115 284.115 0 0 0 18.825 23.951c39.815 45.445 95.184 80.13 155.908 97.661a24.997 24.997 0 0 0 6.945 .987c10.854 0 20.847 -7.123 24.008 -18.07 3.83 -13.265 -3.818 -27.123 -17.084 -30.955C178.211 671.038 100.001 584.633 100.001 500.001c0 -61.207 43.981 -119.948 116.473 -157.769 26.197 72.128 81.487 132.05 150.193 156.338a24.947 24.947 0 0 0 8.333 1.436c10.297 0 19.942 -6.412 23.57 -16.674 4.602 -13.017 -2.22 -27.301 -15.237 -31.903C307.321 424.557 250 337.961 250 249.999c0 -50.603 29.622 -99.913 83.41 -138.845C370.605 84.229 415.547 65.26 462.286 56.146 455.063 69.029 450 83.83 450 100c0 48.342 32.838 100 125 100 68.924 0 125 56.075 125 125 0 13.542 -2.107 26.656 -6.254 39.19 -20.396 -5.55 -42.025 -10.208 -64.771 -13.872 -13.628 -2.193 -26.463 7.075 -28.658 20.706 -2.194 13.63 7.075 26.463 20.708 28.658 69.369 11.174 128.17 32.375 170.046 61.315C817.954 479.573 850 510.096 850 550c0 32.248 -21.416 60.898 -63.674 85.271C740.595 619 687.021 607.072 627.9 600.167c-13.714 -1.615 -26.131 8.216 -27.732 21.93s8.217 26.13 21.93 27.73c84.305 9.85 155.578 30.186 206.119 58.82 32.748 18.549 71.783 49.457 71.783 91.35 0 53.014 -62.736 87.013 -115.365 106.2z"/></svg>