<svg height="1000" width="1000" xmlns="http://www.w3.org/2000/svg"><path d="M474.999 600c-13.807 0 -25 -11.191 -25 -24.999V125.002c0 -13.806 11.193 -25 25 -25s25 11.194 25 25v449.999c0 13.808 -11.194 25 -25 25zm0 350C374.833 950 280.663 910.992 209.833 840.166 139.006 769.338 100 675.166 100 575.001c0 -82.417 26.23 -160.623 75.853 -226.165 47.998 -63.394 116.19 -110.737 192.015 -133.302 13.233 -3.94 27.153 3.597 31.092 16.83s-3.597 27.153 -16.83 31.092C245.455 304.133 150 432.244 150 575c0 179.205 145.794 325 324.999 325S799.998 754.204 799.998 575c0 -142.76 -95.459 -270.872 -232.138 -311.546 -13.234 -3.94 -20.769 -17.86 -16.83 -31.092 3.937 -13.234 17.861 -20.768 31.09 -16.83 75.827 22.564 144.024 69.903 192.024 133.299 49.624 65.541 75.854 143.751 75.854 226.169 0 100.166 -39.006 194.337 -109.834 265.165C669.336 910.991 575.164 950 475 950z"/></svg>