<svg height="1000" width="1000" xmlns="http://www.w3.org/2000/svg"><path d="M924.998 200.002h-75v-125c0 -41.354 -33.646 -75 -75 -75H224.999c-41.354 0 -75 33.646 -75 75v125H75C33.646 200.002 0 233.647 0 275.002V725c0 41.356 33.645 75 75 75h75v125c0 41.353 33.645 74.999 75 74.999h549.998c41.354 0 75 -33.646 75 -75V800h75c41.356 0 75 -33.643 75 -75V275.003c0 -41.355 -33.644 -75 -75 -75zm-724.999 -125c0 -13.784 11.216 -25 25 -25h549.999c13.784 0 25 11.216 25 25v125H199.999v-125zM774.998 950H224.999c-13.784 0 -25 -11.216 -25 -25V600h599.999v325c0 13.784 -11.216 25 -25 25zm175 -225c0 13.785 -11.216 25 -25 25h-75V600h25c13.807 0 25 -11.191 25 -24.999s-11.193 -25 -25 -25H125c-13.807 0 -25 11.192 -25 25s11.193 25 25 25h25v150H75C61.216 750 50 738.785 50 725V275c0 -13.783 11.216 -25 25 -25h849.998c13.784 0 25 11.217 25 25v450zm-225 -25H275c-13.806 0 -25 -11.192 -25 -25s11.194 -25 25 -25h450c13.807 0 25 11.193 25 25s-11.193 25 -25 25zm0 100H275c-13.806 0 -25 -11.192 -25 -25s11.194 -25 25 -25h450c13.807 0 25 11.193 25 25s-11.193 25 -25 25zm0 100H275c-13.806 0 -25 -11.192 -25 -25s11.194 -25 25 -25h450c13.807 0 25 11.193 25 25s-11.193 25 -25 25zm100 -449.999c-41.356 0 -75 -33.645 -75 -75s33.644 -75 75 -75 75 33.646 75 75 -33.644 75 -75 75zm0 -100c-13.784 0 -25 11.216 -25 25s11.216 25 25 25 25 -11.215 25 -25 -11.216 -25 -25 -25z"/></svg>