<svg height="1000" width="1000" xmlns="http://www.w3.org/2000/svg"><path d="M899.998 339.647L635.353 75.002c-9.424 -9.424 -21.98 -14.614 -35.355 -14.614s-25.931 5.19 -35.354 14.614L550 89.648c-14.487 14.486 -25 39.869 -25 60.354v50c0 7.117 -5.323 19.967 -10.355 25L375 364.647c-5.031 5.033 -17.883 10.354 -25 10.354h-50c-20.486 0 -45.869 10.514 -60.354 25l-14.646 14.646c-19.495 19.495 -19.495 51.214 0 70.709l77.67 77.67L55.183 884.755c-7.656 9.953 -6.74 24.042 2.138 32.92a24.959 24.959 0 0 0 17.685 7.323 24.932 24.932 0 0 0 15.236 -5.184l321.73 -247.486 77.672 77.67c9.424 9.424 21.98 14.615 35.355 14.615s25.931 -5.19 35.354 -14.615L575 735.353c14.486 -14.486 25 -39.869 25 -60.354v-50c0 -7.117 5.322 -19.967 10.354 -25L749.998 460.354c5.033 -5.033 17.883 -10.355 25 -10.355h50c20.484 0 45.867 -10.513 60.354 -25l14.646 -14.645c9.423 -9.424 14.615 -21.98 14.615 -35.354s-5.192 -25.932 -14.615 -35.355zM211.676 763.323L338.324 598.68l37.994 37.994L211.676 763.323zM849.998 389.647c-5.033 5.033 -17.883 10.354 -25 10.354h-50c-20.484 0 -45.867 10.514 -60.354 25L574.999 564.646c-14.487 14.487 -25 39.87 -25 60.355v50c0 7.117 -5.323 19.966 -10.355 25l-14.58 14.607a.21 .21 0 0 1 -.065 .008v.031L260.354 450.001 275 435.355C280.032 430.322 292.883 425 300 425h50c20.486 0 45.87 -10.513 60.354 -25L549.998 260.357c14.486 -14.486 25 -39.869 25 -60.354v-50c0 -7.117 5.322 -19.967 10.354 -25l14.645 -14.645 264.645 264.644 -14.645 14.646z"/></svg>