<svg height="1000" width="1000" xmlns="http://www.w3.org/2000/svg"><path d="M124.48 224.481c80.27 -80.27 186.999 -124.479 300.519 -124.479 113.521 0 220.247 44.208 300.52 124.48s124.479 186.997 124.479 300.52v64.644L957.32 482.323c9.762 -9.762 25.592 -9.762 35.354 0 9.764 9.763 9.764 25.592 0 35.355l-150 150C837.794 672.56 831.397 675 824.999 675s-12.795 -2.44 -17.677 -7.324l-150 -150c-9.763 -9.762 -9.763 -25.59 0 -35.354 9.763 -9.762 25.592 -9.762 35.355 0l107.322 107.323v-64.645c0 -206.775 -168.224 -374.999 -375 -374.999C218.224 150.002 50 318.226 50 525.002 50 731.776 218.223 900 424.999 900c13.807 0 25 11.192 25 25s-11.193 25 -25 25C311.479 950 204.75 905.792 124.479 825.52S0 638.522 0 525.002C0 411.48 44.208 304.754 124.48 224.481z"/></svg>