<svg height="1000" width="1000" xmlns="http://www.w3.org/2000/svg"><path d="M674.998 450.001c-68.924 0 -125 -56.075 -125 -125s56.076 -125 125 -125 125 56.076 125 125 -56.075 125 -125 125zm0 -200c-41.354 0 -75 33.646 -75 75s33.646 75 75 75 75 -33.645 75 -75 -33.645 -75 -75 -75zM25.003 1000a25 25 0 0 1 -23.5 -33.544C78.439 754.886 159.33 647.61 241.929 647.61c27.23 0 52.714 11.68 75.748 34.713 36.409 36.409 37.706 72.65 32.385 96.64C333.337 854.341 226.847 928.203 33.543 998.496a24.965 24.965 0 0 1 -8.541 1.505zM241.929 697.612c-24.76 0 -53.896 21.693 -84.26 62.731C127.81 800.704 97.833 858.2 68.29 931.707c66.75 -26.834 120.413 -54.08 159.967 -81.255 53.367 -36.662 69.149 -65.001 72.99 -82.318 3.852 -17.362 -2.339 -33.869 -18.927 -50.456 -13.502 -13.502 -26.713 -20.065 -40.39 -20.065zM974.998 .002c-129.735 0 -245.367 22.006 -343.69 65.411 -81.052 35.78 -150.464 86.01 -206.306 149.299a560.816 560.816 0 0 0 -28.995 35.728c-43.108 2.873 -87.183 19.99 -131.213 50.997 -37.236 26.222 -74.667 62.514 -111.252 107.87C92.052 485.53 54.22 560.66 52.639 563.822c-5.474 10.948 -2.198 24.233 7.718 31.412a24.914 24.914 0 0 0 14.64 4.742 25.012 25.012 0 0 0 17.641 -7.26c.238 -.234 24.135 -23.729 64.911 -46.802 33.604 -19.017 85.411 -41.344 148.06 -45.297 15.838 40.568 61.193 89.044 82.962 110.81 21.769 21.77 70.245 67.123 110.812 82.964 -3.95 62.649 -26.279 114.455 -45.294 148.057 -23.075 40.779 -46.569 64.675 -46.768 64.875 -8.67 8.67 -9.771 22.349 -2.603 32.295a24.994 24.994 0 0 0 31.46 7.744c3.162 -1.58 78.291 -39.414 154.518 -100.903C636.05 809.874 672.342 772.443 698.565 735.21c31.005 -44.032 48.123 -88.107 50.997 -131.214a560.585 560.585 0 0 0 35.728 -28.997c63.287 -55.84 113.518 -125.253 149.3 -206.306 43.4 -98.322 65.408 -213.956 65.408 -343.69v-25h-25zM155.373 490.418c47.653 -69.14 120.492 -154.877 202.583 -181.867 -32.443 56.84 -49.24 109.073 -55.284 142.144 -57.932 3.54 -107.878 20.4 -147.3 39.723zm354.264 354.095c19.3 -39.404 36.128 -89.31 39.667 -147.185 33.066 -6.042 85.29 -22.836 142.117 -55.27C664.411 724.01 578.745 796.831 509.637 844.512zm242.57 -307.007C648.223 629.256 540.495 650 525 650c-.1 0 -10.333 -.225 -37.956 -19.664 -19.266 -13.558 -41.682 -32.83 -63.115 -54.264 -21.436 -21.435 -40.706 -43.85 -54.264 -63.117C350.224 485.334 350 475.102 350 475.001c0 -15.497 20.745 -123.224 112.497 -227.208C572.277 123.373 740.36 55.353 949.697 50.306c-5.049 209.333 -73.068 377.418 -197.489 487.2z"/></svg>