<svg height="1000" width="1000" xmlns="http://www.w3.org/2000/svg"><path d="M474.999 1000C348.122 1000 228.84 950.592 139.125 860.875S0 651.878 0 525.001C0 398.123 49.41 278.843 139.125 189.127S348.12 50.002 474.999 50.002c126.876 0 246.158 49.41 335.874 139.125S949.998 398.124 949.998 525 900.589 771.16 810.873 860.875C721.157 950.592 601.875 1000 474.999 1000zm0 -899.998c-234.345 0 -425 190.654 -425 425S240.655 950 475 950 899.998 759.346 899.998 525.001s-190.654 -424.999 -425 -424.999zm-150 300c-41.354 0 -75 -33.646 -75 -75s33.646 -75 75 -75 75 33.645 75 75 -33.645 75 -75 75zm0 -100c-13.784 0 -25 11.215 -25 25s11.216 25 25 25 25 -11.216 25 -25 -11.216 -25 -25 -25zm300 100c-41.357 0 -75 -33.646 -75 -75s33.643 -75 75 -75 75 33.645 75 75 -33.644 75 -75 75zm0 -100c-13.785 0 -25 11.215 -25 25s11.215 25 25 25 25 -11.216 25 -25 -11.216 -25 -25 -25zm-350.037 450a24.889 24.889 0 0 1 -14.995 -5.012c-11.039 -8.292 -13.267 -23.964 -4.974 -35.003 25.083 -33.394 57.952 -61.065 95.056 -80.02C388.973 610.082 431.013 600 474.999 600s86.027 10.08 124.95 29.966c37.102 18.953 69.974 46.623 95.058 80.017 8.292 11.039 6.065 26.71 -4.975 35.003 -11.042 8.294 -26.71 6.064 -35.002 -4.975C612.06 682.81 546.442 650.002 475 650.002s-137.06 32.81 -180.028 90.013c-4.911 6.54 -12.414 9.987 -20.008 9.987z"/></svg>