<svg height="1000" width="1000" xmlns="http://www.w3.org/2000/svg"><path d="M874.998 100.002H75c-41.355 0 -75 33.646 -75 75v499.999c0 41.356 33.645 75 75 75h374.999v100h-175c-13.806 0 -25 11.192 -25 25s11.194 25 25 25h400c13.807 0 25 -11.193 25 -25s-11.193 -25 -25 -25h-175V750h374.999c41.356 0 75 -33.644 75 -75V175.002c0 -41.354 -33.644 -75 -75 -75zm25 574.999c0 13.784 -11.216 25 -25 25H75C61.216 700 50 688.785 50 675V175.002c0 -13.784 11.216 -25 25 -25h799.998c13.784 0 25 11.216 25 25v499.999z"/></svg>