<svg height="1000" width="1000" xmlns="http://www.w3.org/2000/svg"><path d="M275 750H75C33.645 750 0 716.358 0 675V75.003c0 -41.354 33.645 -75 75 -75h699.998c41.356 0 75 33.646 75 75v350c0 13.806 -11.193 25 -25 25s-25 -11.194 -25 -25v-350c0 -13.784 -11.216 -25 -25 -25H75c-13.784 0 -25 11.216 -25 25v599.999c0 13.784 11.216 25 25 25h200c13.806 0 25 11.192 25 25s-11.194 25 -25 25zm375.006 250.006c-9.922 0 -19.31 -5.948 -23.219 -15.722L541.942 772.172l-148.13 169.29a24.993 24.993 0 0 1 -27.606 6.94 24.995 24.995 0 0 1 -16.208 -23.401V175.003a24.998 24.998 0 0 1 41.815 -18.498l549.999 499.999c7.644 6.947 10.227 17.88 6.502 27.512s-12.99 15.987 -23.317 15.987H711.924l86.286 215.715c5.128 12.82 -1.108 27.37 -13.927 32.497l-125 50a24.965 24.965 0 0 1 -9.278 1.794zM549.996 700a25 25 0 0 1 23.212 15.715l90.716 226.788 78.576 -31.43L651.784 684.286c-3.08 -7.703 -2.14 -16.432 2.51 -23.3S666.7 650 674.997 650h185.334L399.998 231.515v626.948L531.183 708.537A25.001 25.001 0 0 1 549.996 700z"/></svg>