<svg height="1000" width="1000" xmlns="http://www.w3.org/2000/svg"><path d="M674.998 950H275c-41.354 0 -75 -33.643 -75 -75V409.687L82.906 448.718c-13.1 4.367 -27.256 -2.713 -31.622 -15.81l-50 -150C-2.65 271.105 2.692 258.205 13.82 252.64l300 -150A25 25 0 0 1 350 125.003c0 68.925 56.074 125 124.999 125s125 -56.075 125 -125a25 25 0 0 1 36.18 -22.361l299.998 150c11.128 5.564 16.472 18.463 12.536 30.267l-50 150c-4.365 13.096 -18.52 20.177 -31.621 15.81L749.998 409.687V875c0 41.357 -33.643 75 -75 75zm-450 -599.998a24.997 24.997 0 0 1 25.001 25V875c0 13.784 11.216 25 25 25h400c13.783 0 25 -11.216 25 -25V375.001a25.002 25.002 0 0 1 32.905 -23.716l126.283 42.093 35.237 -105.712L645.77 163.338c-17.525 78.12 -87.44 136.664 -170.77 136.664 -83.333 0 -153.247 -58.544 -170.77 -136.664L55.573 287.666 90.81 393.378l126.283 -42.093a25.032 25.032 0 0 1 7.904 -1.283z"/></svg>