<svg height="1000" width="1000" xmlns="http://www.w3.org/2000/svg"><path d="M524.999 900h-50c-13.807 0 -25 -11.192 -25 -25s11.193 -25 25 -25h50c13.807 0 25 11.193 25 25s-11.193 25 -25 25zm200 100h-450c-41.354 0 -75 -33.644 -75 -75V75.002c0 -41.354 33.646 -75 75 -75h450c41.355 0 74.999 33.646 74.999 75V925c0 41.356 -33.644 75 -75 75zm-450 -949.998c-13.784 0 -25 11.216 -25 25V925c0 13.784 11.216 25 25 25h450c13.783 0 25 -11.216 25 -25V75.002c0 -13.784 -11.217 -25 -25 -25h-450zM675 800h-350c-13.806 0 -25 -11.192 -25 -25V125.002c0 -13.806 11.194 -25 25 -25h350c13.807 0 25 11.194 25 25V775c0 13.808 -11.193 25 -25 25zm-325 -50h300V150.003h-300v599.999z"/></svg>