<svg height="1000" width="1000" xmlns="http://www.w3.org/2000/svg"><path d="M474.999 1000C348.122 1000 228.84 950.592 139.125 860.875S0 651.878 0 525.001C0 398.123 49.41 278.843 139.125 189.127S348.12 50.002 474.999 50.002c126.876 0 246.158 49.41 335.874 139.125S949.998 398.124 949.998 525 900.589 771.16 810.873 860.875C721.157 950.592 601.875 1000 474.999 1000zm0 -899.998c-234.345 0 -425 190.654 -425 425S240.655 950 475 950 899.998 759.346 899.998 525.001s-190.654 -424.999 -425 -424.999zm-150 300c-41.354 0 -75 -33.646 -75 -75s33.646 -75 75 -75 75 33.645 75 75 -33.645 75 -75 75zm0 -100c-13.784 0 -25 11.215 -25 25s11.216 25 25 25 25 -11.216 25 -25 -11.216 -25 -25 -25zm300 100c-41.357 0 -75 -33.646 -75 -75s33.643 -75 75 -75 75 33.645 75 75 -33.644 75 -75 75zm0 -100c-13.785 0 -25 11.215 -25 25s11.215 25 25 25 25 -11.216 25 -25 -11.216 -25 -25 -25zM474.998 850c-179.205 0 -325 -145.794 -325 -324.999 0 -13.807 11.194 -25 25 -25s25 11.193 25 25c0 151.635 123.364 275 275 275s275 -123.365 275 -275c0 -13.807 11.191 -25 24.999 -25s25 11.193 25 25c0 179.205 -145.795 325 -325 325z"/></svg>