<svg height="1000" width="1000" xmlns="http://www.w3.org/2000/svg"><path d="M442.676 732.324c-9.763 -9.763 -25.592 -9.763 -35.355 0L250 889.646V25.002c0 -13.806 -11.193 -25 -25 -25s-25 11.194 -25 25v864.644L42.677 732.324c-9.763 -9.763 -25.592 -9.763 -35.355 0s-9.763 25.592 0 35.354l200 200c4.883 4.88 11.279 7.322 17.677 7.322s12.795 -2.44 17.677 -7.323l200 -200c9.763 -9.762 9.763 -25.59 0 -35.353zm555.3 -367.171l-150 -350A24.997 24.997 0 0 0 824.998 .004c-10 0 -19.041 5.958 -22.979 15.15l-150 350c-5.439 12.69 .44 27.387 13.13 32.826 12.696 5.44 27.388 -.44 32.827 -13.13l57.792 -134.847h138.457l57.792 134.848c4.063 9.48 13.291 15.16 22.99 15.158 3.286 0 6.625 -.651 9.836 -2.026 12.693 -5.44 18.572 -20.138 13.131 -32.828zM777.196 200.002L824.998 88.468 872.8 200.002h-95.604zM924.998 1000h-200a25.002 25.002 0 0 1 -21.706 -37.404L881.92 650h-156.92c-13.807 0 -25 -11.193 -25 -25s11.193 -25 25 -25h200a25.002 25.002 0 0 1 21.706 37.404L768.078 950h156.92c13.807 0 25 11.192 25 25s-11.193 25 -25 25z"/></svg>