<svg height="1000" width="1000" xmlns="http://www.w3.org/2000/svg"><path d="M442.676 732.324c-9.763 -9.763 -25.592 -9.763 -35.355 0L250 889.646V25.002c0 -13.806 -11.193 -25 -25 -25s-25 11.194 -25 25v864.644L42.677 732.324c-9.763 -9.763 -25.592 -9.763 -35.355 0s-9.763 25.592 0 35.354l200 200c4.883 4.88 11.279 7.322 17.677 7.322s12.795 -2.44 17.677 -7.323l200 -200c9.763 -9.762 9.763 -25.59 0 -35.353zM674.998 250.002h-100c-13.807 0 -25 -11.194 -25 -25v-100c0 -13.806 11.193 -25 25 -25h100c13.808 0 25 11.194 25 25v100c0 13.806 -11.192 25 -25 25zm-75 -50h50v-50h-50v50zm175 250h-200c-13.807 0 -25 -11.194 -25 -25v-100c0 -13.807 11.193 -25 25 -25h200c13.808 0 25 11.193 25 25v100c0 13.806 -11.192 25 -25 25zm-175 -50h150v-50h-150v50zm275 249.999h-300c-13.807 0 -25 -11.193 -25 -25V525c0 -13.807 11.193 -25 25 -25h300c13.807 0 25 11.193 25 25v100c0 13.807 -11.193 25 -25 25zm-275 -50h250v-50h-250v50zm375 250h-400c-13.807 0 -25 -11.193 -25 -25V725c0 -13.808 11.193 -25 25 -25h400c13.807 0 25 11.192 25 25v100c0 13.807 -11.193 25 -25 25zm-375 -50h350v-50h-350v50z"/></svg>