<svg height="1000" width="1000" xmlns="http://www.w3.org/2000/svg"><path d="M225 700c-13.807 0 -25 11.193 -25 25v.069C179.092 709.339 153.118 700 125 700 56.075 700 0 756.076 0 825S56.075 950 125 950c28.119 0 54.093 -9.339 75 -25.068V925c0 13.808 11.193 25 25 25s25 -11.192 25 -25V725c0 -13.807 -11.194 -25 -25 -25zM125 900C83.645 900 50 866.355 50 825s33.645 -75 75 -75 75 33.646 75 75 -33.646 75 -75 75zM424.999 700c-28.12 0 -54.094 9.34 -75 25.069V525c0 -13.807 -11.193 -25 -25 -25s-25 11.193 -25 25v400C300 938.807 311.193 950 325 950s25 -11.192 25 -25v-.068C370.905 940.662 396.88 950 425 950c68.925 0 125 -56.075 125 -125s-56.075 -125 -125 -125zm0 200c-41.354 0 -75 -33.645 -75 -75s33.646 -75 75 -75 75 33.646 75 75 -33.646 75 -75 75zm300 50c-68.925 0 -125 -56.075 -125 -125s56.075 -125 125 -125c21.968 0 43.585 5.787 62.513 16.735 11.95 6.914 16.037 22.206 9.125 34.158 -6.916 11.953 -22.211 16.036 -34.158 9.125 -11.332 -6.553 -24.292 -10.017 -37.482 -10.017 -41.354 0 -75 33.645 -75 75s33.646 75 75 75c13.193 0 26.154 -3.465 37.482 -10.018 11.949 -6.913 27.245 -2.831 34.159 9.122 6.914 11.95 2.83 27.245 -9.122 34.158C768.588 944.213 746.969 950 724.997 950zm-150 -424.999a24.915 24.915 0 0 1 -17.677 -7.323l-150 -150c-9.762 -9.763 -9.762 -25.591 0 -35.356 9.764 -9.763 25.592 -9.763 35.357 0l132.32 132.323L907.32 132.323c9.763 -9.762 25.592 -9.762 35.354 0 9.764 9.764 9.764 25.592 0 35.357L592.676 517.679A24.926 24.926 0 0 1 575 525z"/></svg>