<svg height="1000" width="1000" xmlns="http://www.w3.org/2000/svg"><path d="M274.97 416.671c-12.002 0 -22.592 -8.666 -24.63 -20.893 -2.27 -13.62 6.932 -26.5 20.55 -28.77l87.442 -14.574 19.307 -38.612c6.174 -12.35 21.192 -17.356 33.54 -11.182 12.35 6.175 17.355 21.193 11.182 33.541l-25 50a24.998 24.998 0 0 1 -18.252 13.48l-100 16.667a25.213 25.213 0 0 1 -4.138 .343zM125 500.001a24.915 24.915 0 0 1 -17.677 -7.323l-50 -50A25 25 0 0 1 70.89 400.342l100 -16.667c13.63 -2.271 26.5 6.933 28.77 20.55 2.271 13.62 -6.931 26.5 -20.55 28.77l-52.08 8.682 15.648 15.65c9.764 9.763 9.764 25.592 0 35.355a24.928 24.928 0 0 1 -17.677 7.32zm616.633 250.004c-12.002 0 -22.592 -8.667 -24.63 -20.895l-16.666 -100a24.988 24.988 0 0 1 6.982 -21.786l50 -50c9.763 -9.762 25.592 -9.762 35.355 0 9.763 9.763 9.763 25.592 0 35.355l-40.903 40.903 14.55 87.31c2.27 13.62 -6.932 26.5 -20.55 28.769a25.16 25.16 0 0 1 -4.14 .343zM774.996 950a24.965 24.965 0 0 1 -11.969 -3.053l-150.005 -81.82C600.9 858.517 596.434 843.33 603.045 831.21c6.608 -12.123 21.797 -16.591 33.917 -9.976l104.935 57.236 -8.227 -49.357c-2.27 -13.62 6.932 -26.5 20.549 -28.77 13.628 -2.268 26.5 6.929 28.77 20.548l16.667 100A25.003 25.003 0 0 1 774.997 950zm-508.3 -249.994a24.987 24.987 0 0 1 -4.138 -.346c-13.62 -2.27 -22.818 -15.15 -20.55 -28.77l6.219 -37.31 -40.903 -40.903c-9.764 -9.763 -9.764 -25.592 0 -35.355s25.591 -9.762 35.354 0l50 50a24.999 24.999 0 0 1 6.982 21.787l-8.333 50c-2.039 12.229 -12.63 20.896 -24.63 20.896zM225.002 950a25.002 25.002 0 0 1 -24.663 -29.11l25 -149.997c2.27 -13.62 15.15 -22.82 28.77 -20.55 13.62 2.269 22.819 15.15 20.55 28.769l-16.56 99.357 54.929 -29.96c12.119 -6.613 27.307 -2.146 33.918 9.974 6.612 12.122 2.146 27.307 -9.976 33.919l-100 54.544A24.953 24.953 0 0 1 225 950zm200.02 -109.086c-8.855 0 -17.432 -4.714 -21.971 -13.034 -6.612 -12.12 -2.146 -27.307 9.976 -33.917l75 -40.909a24.999 24.999 0 0 1 23.942 0l24.995 13.635c12.123 6.61 16.588 21.797 9.977 33.917 -6.607 12.123 -21.797 16.592 -33.917 9.976l-13.025 -7.103 -63.028 34.378a24.894 24.894 0 0 1 -11.95 3.057zM874.997 500.001a24.915 24.915 0 0 1 -17.677 -7.323c-9.764 -9.763 -9.764 -25.592 0 -35.354l15.648 -15.65L770.89 424.66c-13.62 -2.271 -22.82 -15.15 -20.55 -28.77s15.17 -22.821 28.77 -20.55l149.999 25a25 25 0 0 1 13.567 42.335l-50 50a24.91 24.91 0 0 1 -17.677 7.326zM675.03 408.34a25.219 25.219 0 0 1 -4.14 -.343l-50.002 -8.333a24.998 24.998 0 0 1 -18.25 -13.479l-50 -99.995c-6.175 -12.35 -1.17 -27.367 11.18 -33.54 12.347 -6.176 27.367 -1.17 33.54 11.179l44.307 88.61 37.446 6.24c13.619 2.27 22.818 15.15 20.548 28.77 -2.037 12.224 -12.63 20.89 -24.628 20.89zM449.978 250.007a24.907 24.907 0 0 1 -11.16 -2.644c-12.35 -6.175 -17.355 -21.192 -11.182 -33.54l50 -100a25.003 25.003 0 0 1 22.362 -13.82c9.47 0 18.127 5.349 22.361 13.82l24.998 50c6.175 12.349 1.169 27.366 -11.18 33.54 -12.35 6.177 -27.367 1.17 -33.54 -11.181l-2.64 -5.277 -27.637 55.277c-4.38 8.76 -13.213 13.825 -22.383 13.825z"/></svg>