<svg height="1000" width="1000" xmlns="http://www.w3.org/2000/svg"><path d="M774.996 950a24.965 24.965 0 0 1 -11.969 -3.053L613.033 865.133c-12.122 -6.61 -16.588 -21.797 -9.979 -33.917 6.611 -12.123 21.799 -16.594 33.919 -9.976l104.924 57.229 -8.227 -49.357c-2.27 -13.62 6.932 -26.5 20.549 -28.77 13.614 -2.276 26.5 6.929 28.77 20.548l16.667 100A25 25 0 0 1 774.997 950zM741.633 750.005c-12.002 0 -22.592 -8.667 -24.63 -20.895l-16.666 -100a24.988 24.988 0 0 1 6.982 -21.786l50 -50c9.763 -9.762 25.592 -9.762 35.355 0 9.763 9.763 9.763 25.592 0 35.355l-40.903 40.903 14.55 87.31c2.27 13.62 -6.932 26.5 -20.55 28.769a25.375 25.375 0 0 1 -4.14 .343zM874.998 500.001a24.915 24.915 0 0 1 -17.677 -7.323c-9.764 -9.763 -9.764 -25.592 0 -35.354l15.648 -15.65L770.89 424.66c-13.62 -2.271 -22.82 -15.15 -20.55 -28.77s15.17 -22.821 28.77 -20.55l149.999 25a25 25 0 0 1 13.567 42.335l-50 50a24.91 24.91 0 0 1 -17.677 7.326zM675.03 408.337a25.195 25.195 0 0 1 -4.14 -.343l-49.999 -8.333a25 25 0 0 1 -18.252 -13.479l-50 -99.995c-6.175 -12.35 -1.17 -27.367 11.18 -33.54 12.347 -6.175 27.367 -1.17 33.54 11.179l44.307 88.61 37.443 6.24c13.62 2.27 22.82 15.15 20.55 28.77 -2.037 12.224 -12.63 20.89 -24.629 20.89zM225 950a25.002 25.002 0 0 1 -24.663 -29.11l47.885 -287.31L57.323 442.679A25 25 0 0 1 70.89 400.342l287.442 -47.908L477.638 113.822A25 25 0 0 1 500 100.002c9.47 0 18.127 5.35 22.361 13.82l25 50c6.174 12.35 1.167 27.367 -11.182 33.541 -12.35 6.177 -27.367 1.17 -33.542 -11.181L500 180.905 397.362 386.181a24.998 24.998 0 0 1 -18.252 13.48l-252.082 42.013 165.65 165.65a24.994 24.994 0 0 1 6.981 21.786L258.1 878.47 488.028 753.053a25 25 0 0 1 23.943 0l25.003 13.639c12.12 6.611 16.586 21.797 9.975 33.919 -6.611 12.12 -21.795 16.586 -33.919 9.974l-13.031 -7.107L236.97 946.946A24.964 24.964 0 0 1 225 950z"/></svg>