<svg height="1000" width="1000" xmlns="http://www.w3.org/2000/svg"><path d="M774.996 950a24.978 24.978 0 0 1 -11.97 -3.053L499.997 803.48 236.97 946.947A25.002 25.002 0 0 1 200.338 920.89l47.885 -287.31L57.323 442.679a25 25 0 0 1 13.566 -42.336l287.442 -47.908L477.637 113.822c4.235 -8.47 12.891 -13.82 22.362 -13.82s18.127 5.35 22.361 13.82l119.306 238.612 287.442 47.908a25 25 0 0 1 13.567 42.336l-190.9 190.903 47.884 287.31A25.004 25.004 0 0 1 774.998 950zM500 750c4.12 0 8.239 1.018 11.971 3.053L741.897 878.47 700.337 629.11a24.988 24.988 0 0 1 6.982 -21.786l165.65 -165.65L620.89 399.661a24.998 24.998 0 0 1 -18.252 -13.48L500 180.903 397.36 386.181a24.998 24.998 0 0 1 -18.252 13.48l-252.08 42.013 165.648 165.65a24.998 24.998 0 0 1 6.982 21.786l-41.56 249.359L488.027 753.053a24.978 24.978 0 0 1 11.972 -3.052z"/></svg>