<svg height="1000" width="1000" xmlns="http://www.w3.org/2000/svg"><path d="M899.998 475.001v-50a25 25 0 0 0 -2.639 -11.18l-100 -199.999a24.997 24.997 0 0 0 -22.361 -13.82H175a24.997 24.997 0 0 0 -22.362 13.82l-100 200A24.987 24.987 0 0 0 50 425.002v50c0 40.806 19.659 77.104 50 99.93V900H75c-13.807 0 -25 11.192 -25 25s11.193 25 25 25h799.998c13.807 0 25 -11.192 25 -25s-11.193 -25 -25 -25H850V574.933C880.339 552.105 899.998 515.808 899.998 475zm-325 75c-41.354 0 -75 -33.645 -75 -75v-25h150v25c0 41.355 -33.645 75 -75 75zM100 475.001v-25h150v25c0 41.355 -33.646 75 -75 75s-75 -33.645 -75 -75zm349.999 -225v150H307.018l37.5 -150h105.48zm155.48 0l37.5 150H500v-150h105.48zm-305.48 200h150v25c0 41.355 -33.646 75 -75 75s-75 -33.645 -75 -75v-25zm400 0h149.999v25c0 41.355 -33.646 75 -75 75s-75 -33.645 -75 -75v-25zm134.548 -50h-140.03l-37.5 -150h102.53l75 150zm-644.096 -150H292.98l-37.5 150H115.45l75 -150zM150 597.488a125.107 125.107 0 0 0 25 2.514c40.846 0 77.176 -19.695 100 -50.088 22.822 30.393 59.152 50.088 99.999 50.088s77.177 -19.695 100 -50.088c18.04 24.022 44.52 41.361 75 47.572V900h-400V597.487zM800 900H599.998V597.487c30.48 -6.213 56.958 -23.55 75 -47.572 22.823 30.39 59.153 50.086 100 50.086 8.56 0 16.92 -.87 25.002 -2.516V900zM699.998 725c0 13.807 -11.193 25 -25 25s-25 -11.193 -25 -25c0 -13.806 11.194 -25 25 -25s25 11.194 25 25zM225 750a24.919 24.919 0 0 1 -17.677 -7.323c-9.763 -9.762 -9.763 -25.591 0 -35.354l50 -50c9.763 -9.763 25.591 -9.763 35.356 0 9.763 9.763 9.763 25.592 0 35.354l-50 50A24.919 24.919 0 0 1 225 750.001zm50 100a24.915 24.915 0 0 1 -17.676 -7.323c-9.764 -9.763 -9.764 -25.592 0 -35.354l150 -150c9.762 -9.763 25.59 -9.763 35.354 0 9.763 9.763 9.763 25.592 0 35.354l-150 150A24.919 24.919 0 0 1 274.999 850zm150 0a24.919 24.919 0 0 1 -17.678 -7.323c-9.762 -9.763 -9.762 -25.592 0 -35.354l50 -50c9.764 -9.763 25.592 -9.763 35.356 0s9.764 25.591 0 35.354l-50 50A24.919 24.919 0 0 1 425 850z"/></svg>