<svg height="1000" width="1000" xmlns="http://www.w3.org/2000/svg"><path d="M824.998 100.002H125c-13.807 0 -25 11.194 -25 25s11.193 25 25 25h324.999v225c0 13.806 11.193 25 25 25s25 -11.194 25 -25v-225h324.999c13.807 0 25 -11.193 25 -25s-11.193 -25 -25 -25zM474.998 900c-13.806 0 -25 -11.192 -25 -25V675c0 -13.807 11.194 -25 25 -25s25 11.193 25 25v200c0 13.808 -11.193 25 -25 25zm450 -300H25C11.193 600 0 588.81 0 575.002v-100c0 -13.807 11.193 -25 25 -25h899.998c13.807 0 25 11.193 25 25v100c0 13.808 -11.193 25 -25 25zM50 550.002h849.998v-50H50v50z"/></svg>