<svg height="1000" width="1000" xmlns="http://www.w3.org/2000/svg"><path d="M474.999 749.631c-123.861 0 -224.63 -100.768 -224.63 -224.63s100.77 -224.63 224.63 -224.63S699.629 401.14 699.629 525 598.86 749.631 475 749.631zm0 -399.26c-96.292 0 -174.63 78.338 -174.63 174.63s78.338 174.63 174.63 174.63 174.63 -78.338 174.63 -174.63S571.291 350.371 475 350.371zm0 -100.37c-13.807 0 -25 -11.193 -25 -25V75.003c0 -13.806 11.193 -25 25 -25s25 11.194 25 25v150c0 13.806 -11.194 25 -25 25zm0 749.999c-13.807 0 -25 -11.192 -25 -25V825c0 -13.807 11.193 -25 25 -25s25 11.193 25 25v150c0 13.808 -11.194 25 -25 25zM174.999 550H25C11.194 550.001 0 538.809 0 525.001s11.193 -25 25 -25h150c13.806 0 25 11.193 25 25s-11.194 25 -25 25zm749.999 0h-150c-13.808 0 -25 -11.192 -25 -25s11.192 -25 25 -25h150c13.807 0 25 11.193 25 25s-11.193 25 -25 25zm-699.999 -250a24.918 24.918 0 0 1 -17.676 -7.322l-100 -100c-9.764 -9.763 -9.764 -25.591 0 -35.354s25.592 -9.763 35.354 0l100 100c9.764 9.764 9.764 25.592 0 35.354A24.923 24.923 0 0 1 225 300.002zm-100 600a24.915 24.915 0 0 1 -17.676 -7.324c-9.764 -9.763 -9.764 -25.592 0 -35.354l100 -100c9.762 -9.763 25.591 -9.763 35.354 0s9.764 25.591 0 35.354l-100 100A24.919 24.919 0 0 1 125 900zm699.999 0a24.915 24.915 0 0 1 -17.677 -7.324l-100 -100c-9.763 -9.763 -9.763 -25.592 0 -35.354 9.763 -9.763 25.592 -9.763 35.355 0l100 100c9.763 9.762 9.763 25.591 0 35.354A24.919 24.919 0 0 1 824.998 900zm-100 -600a24.915 24.915 0 0 1 -17.677 -7.323c-9.763 -9.762 -9.763 -25.591 0 -35.354l100 -100c9.763 -9.763 25.592 -9.763 35.355 0 9.763 9.763 9.763 25.592 0 35.355l-100 100a24.919 24.919 0 0 1 -17.678 7.323z"/></svg>