<svg height="1000" width="1000" xmlns="http://www.w3.org/2000/svg"><path d="M992.674 432.324c-9.762 -9.763 -25.592 -9.763 -35.354 0l-57.453 57.453C897.298 386.763 855.973 290.295 782.84 217.16 707.292 141.61 606.843 100.002 500 100.002c-148.71 0 -284.298 81.737 -353.849 213.315 -6.451 12.206 -1.787 27.333 10.419 33.786 12.205 6.451 27.333 1.787 33.786 -10.419C251.225 221.534 369.873 150.002 500.001 150.002c189.466 0 344.238 151.334 349.827 339.47l-57.15 -57.15c-9.763 -9.762 -25.592 -9.762 -35.355 0 -9.763 9.764 -9.763 25.592 0 35.357l100 100c4.88 4.88 11.278 7.322 17.677 7.322s12.795 -2.44 17.676 -7.323l100 -100c9.764 -9.763 9.764 -25.59 0 -35.354zM843.43 652.897c-12.208 -6.448 -27.333 -1.789 -33.786 10.42C748.776 778.466 630.126 850 500 850 310.53 850 155.759 698.667 150.17 510.527l57.15 57.15c4.884 4.884 11.28 7.324 17.678 7.324s12.795 -2.44 17.678 -7.323c9.763 -9.763 9.763 -25.592 0 -35.355l-100 -100c-9.763 -9.762 -25.591 -9.762 -35.356 0l-100 100c-9.762 9.763 -9.762 25.592 0 35.355s25.592 9.762 35.357 0l57.45 -57.453c2.569 103.015 43.893 199.484 117.027 272.618 75.551 75.55 176 117.158 282.843 117.158 148.71 0 284.296 -81.737 353.848 -213.315 6.454 -12.208 1.787 -27.334 -10.418 -33.787z"/></svg>