<svg height="1000" width="1000" xmlns="http://www.w3.org/2000/svg"><path d="M824.998 1000H175c-41.355 0 -75 -33.644 -75 -75V75.002c0 -41.354 33.645 -75 75 -75h649.998c41.356 0 75 33.646 75 75V925c0 41.356 -33.644 75 -75 75zM175 50.002c-13.785 0 -25 11.216 -25 25V925c0 13.784 11.215 25 25 25h649.998c13.784 0 25 -11.216 25 -25V75.002c0 -13.784 -11.216 -25 -25 -25H175zM524.999 900h-50c-13.807 0 -25 -11.192 -25 -25s11.193 -25 25 -25h50c13.807 0 25 11.193 25 25s-11.193 25 -25 25zM774.998 800H224.999c-13.806 0 -25 -11.192 -25 -25V125.002c0 -13.806 11.194 -25 25 -25h549.999c13.808 0 25 11.194 25 25V775c0 13.808 -11.192 25 -25 25zM249.999 750h500V150.003h-500v599.999z"/></svg>