<svg height="1000" width="1000" xmlns="http://www.w3.org/2000/svg"><path d="M374.999 954.229c-20.072 0 -38.906 -7.78 -53.033 -21.905L67.676 678.033C53.549 663.908 45.769 645.074 45.769 625.002s7.78 -38.906 21.909 -53.033L496.968 142.68c24.326 -24.33 68.621 -42.678 103.03 -42.678h225c41.356 0 75 33.646 75 75v225c0 34.406 -18.347 78.7 -42.675 103.03l-429.29 429.291c-14.128 14.127 -32.962 21.905 -53.034 21.905zm225 -804.227c-20.749 0 -53.006 13.361 -67.675 28.031L103.033 607.324c-4.683 4.683 -7.26 10.961 -7.26 17.677s2.577 12.994 7.26 17.675l254.29 254.293c4.683 4.682 10.961 7.26 17.677 7.26s12.995 -2.578 17.678 -7.261L821.968 467.68c14.669 -14.672 28.03 -46.932 28.03 -67.678V175.003c0 -13.784 -11.215 -25 -25 -25H600zm125 200c-41.357 0 -75 -33.646 -75 -75s33.643 -75 75 -75 74.999 33.645 74.999 75 -33.644 75 -75 75zm0 -100c-13.785 0 -25 11.216 -25 25s11.215 25 25 25 25 -11.216 25 -25 -11.217 -25 -25 -25z"/></svg>