<svg height="1000" width="1000" xmlns="http://www.w3.org/2000/svg"><path d="M674.998 50.002H75c-13.807 0 -25 11.194 -25 25s11.193 25 25 25h270.488l-95.148 570.89c-2.27 13.618 6.932 26.497 20.55 28.768a25.24 25.24 0 0 0 4.14 .346c12 0 22.591 -8.667 24.63 -20.896l96.518 -579.108h278.821c13.808 0 25 -11.193 25 -25s-11.192 -25 -25 -25zM524.998 800H75c-13.807 0 -25 11.193 -25 25s11.193 25 25 25h449.999c13.807 0 25 -11.192 25 -25s-11.193 -25 -25 -25zm260.354 25l82.324 -82.323c9.763 -9.762 9.763 -25.591 0 -35.354 -9.763 -9.763 -25.592 -9.763 -35.355 0l-82.323 82.323 -82.323 -82.323c-9.763 -9.763 -25.592 -9.763 -35.354 0 -9.764 9.763 -9.764 25.592 0 35.354L714.644 825l-82.323 82.323c-9.764 9.763 -9.764 25.592 0 35.355 4.882 4.88 11.279 7.322 17.677 7.322s12.795 -2.44 17.677 -7.323l82.323 -82.322 82.323 82.323c4.881 4.88 11.278 7.322 17.677 7.322s12.795 -2.44 17.677 -7.323c9.763 -9.763 9.763 -25.592 0 -35.355L785.352 825z"/></svg>