<svg height="1000" width="1000" xmlns="http://www.w3.org/2000/svg"><path d="M824.998 950H125c-13.807 0 -25 -11.192 -25 -25s11.193 -25 25 -25h699.998c13.807 0 25 11.192 25 25s-11.193 25 -25 25zM797.976 765.152L669.498 465.369a10.62 10.62 0 0 0 -.095 -.218L497.978 65.154a25.002 25.002 0 0 0 -45.959 0L280.595 465.147a14.313 14.313 0 0 0 -.097 .226L152.02 765.152c-5.437 12.69 .44 27.387 13.13 32.826 12.688 5.44 27.389 -.44 32.827 -13.13L320.055 500h309.887L752.02 784.848c4.062 9.48 13.29 15.16 22.99 15.158 3.286 0 6.625 -.651 9.836 -2.028 12.69 -5.438 18.57 -20.136 13.13 -32.826zM341.484 450.002L474.999 138.465 608.514 450h-267.03z"/></svg>