<svg height="1000" width="1000" xmlns="http://www.w3.org/2000/svg"><path d="M874.998 250.002H125c-13.807 0 -25 -11.194 -25 -25s11.193 -25 25 -25h749.998c13.807 0 25 11.193 25 25s-11.193 25 -25 25zm0 150H324.999c-13.806 0 -25 -11.193 -25 -25s11.194 -25 25 -25h549.999c13.807 0 25 11.192 25 25s-11.193 25 -25 25zm0 149.999H125c-13.807 0 -25 -11.192 -25 -25s11.193 -25 25 -25h749.998c13.807 0 25 11.193 25 25s-11.193 25 -25 25zm0 150H324.999c-13.806 0 -25 -11.193 -25 -25s11.194 -25 25 -25h549.999c13.807 0 25 11.192 25 25s-11.193 25 -25 25zm0 150H125c-13.807 0 -25 -11.193 -25 -25s11.193 -25 25 -25h749.998c13.807 0 25 11.192 25 25s-11.193 25 -25 25z"/></svg>