<svg height="1000" width="1000" xmlns="http://www.w3.org/2000/svg"><path d="M347.979 815.152L283.785 665.366a9.8 9.8 0 0 0 -.09 -.211L197.979 465.153a25.002 25.002 0 0 0 -45.959 0L66.306 665.155c-.03 .07 -.06 .14 -.09 .211L2.02 815.152c-5.438 12.69 .44 27.387 13.13 32.826 12.693 5.44 27.389 -.44 32.826 -13.13L105.77 700h138.458l57.792 134.848c4.064 9.48 13.29 15.16 22.99 15.158a24.91 24.91 0 0 0 9.836 -2.028c12.692 -5.438 18.57 -20.136 13.133 -32.826zM127.198 650L175 538.465 222.8 650h-95.603zm870.878 165.384L893.906 565.383c-.027 -.068 -.054 -.135 -.082 -.2L748.076 215.387a25.003 25.003 0 0 0 -46.156 0L556.175 565.175c-.03 .073 -.06 .145 -.09 .217L451.92 815.385c-5.31 12.745 .716 27.38 13.46 32.693 12.743 5.308 27.383 -.716 32.693 -13.46L595.83 600h258.333l97.755 234.615c4.002 9.601 13.297 15.39 23.088 15.39 3.205 0 6.463 -.619 9.605 -1.928 12.747 -5.312 18.773 -19.948 13.464 -32.693zM616.666 550.001l108.332 -260 108.333 260H616.665z"/></svg>