<svg height="1000" width="1000" xmlns="http://www.w3.org/2000/svg"><path d="M945.815 439.6c22.13 25.542 34.731 67.755 34.731 107.95 0 26.533 -5.76 49.779 -16.656 67.228 -14.185 22.714 -36.877 35.224 -63.892 35.224H769.087c71.256 129.573 89.265 227.135 53.482 290.333 -24.935 44.039 -70.67 59.666 -102.26 59.666 -12.51 0 -23.095 -9.247 -24.773 -21.646 -8.932 -65.97 -59.385 -144.658 -138.42 -215.892C481.417 694.233 388.402 639.643 292.82 606.987c-12.029 25.4 -37.902 43.014 -67.82 43.014h-150c-41.355 0 -75 -33.646 -75 -75V125.002c0 -41.354 33.645 -75 75 -75h150c31.676 0 58.81 19.752 69.783 47.576C392.85 85.303 429.738 65.592 465.48 46.491 510.208 22.582 552.454 0 690.622 0c35.99 0 69.91 9.399 95.508 26.466 25.01 16.674 40.984 40.045 46.289 67.144 19.935 8.088 37.64 26.783 51.224 54.582 13.213 27.04 21.75 61.599 21.75 88.053 0 4.95 -.289 9.498 -.869 13.685 12.64 9.305 23.984 23.675 33.352 42.57 13.512 27.258 21.58 61.393 21.58 91.303 0 21.186 -3.932 38.87 -11.687 52.56a73.527 73.527 0 0 1 -1.956 3.233zM224.999 100.002H75c-13.783 0 -25 11.216 -25 25v449.999c0 13.784 11.217 25 25 25h150c13.785 0 25 -11.216 25 -25V125.063c0 -.022 0 -.042 0 -.065 -.002 -13.783 -11.216 -24.997 -25 -24.997zm691.936 386.314c-7.557 -15.182 -15.205 -20.69 -18.5 -20.69 -13.807 0 -25 -11.192 -25 -25s11.193 -25 25 -25c2.099 0 3.612 0 5.831 -3.914 3.3 -5.825 5.19 -15.998 5.19 -27.912 0 -22.236 -6.276 -48.713 -16.377 -69.095 -9.894 -19.958 -19.972 -27.203 -24.331 -27.203 -13.808 0 -25 -11.193 -25 -25 0 -8.855 4.604 -16.635 11.55 -21.076C856.842 225.6 849.462 183.194 830.27 155.54c-7.263 -10.47 -14.88 -16.474 -20.898 -16.474 -13.808 0 -25 -11.193 -25 -25 0 -44.016 -48.599 -64.063 -93.75 -64.063 -125.643 0 -160.83 18.808 -201.574 40.586 -38.078 20.352 -80.922 43.252 -189.05 56.724v409.353c105.037 34.432 207.606 93.861 290.591 168.656 79.643 71.779 131.953 149.393 149.693 221.291 13.607 -4.372 28.956 -13.57 38.776 -30.914C795.754 886.215 808.254 810.915 704.42 637.862A25 25 0 1 1 725.857 600h174.14c9.932 0 16.357 -3.502 21.483 -11.709 5.846 -9.361 9.065 -23.83 9.065 -40.742 0 -21.224 -5.088 -44.115 -13.61 -61.232z"/></svg>