<svg height="1000" width="1000" xmlns="http://www.w3.org/2000/svg"><path d="M945.815 560.402c22.13 -25.542 34.731 -67.754 34.731 -107.95 0 -26.533 -5.76 -49.779 -16.656 -67.228C949.705 362.51 927.013 350.001 899.998 350.001H769.087C840.343 220.428 858.352 122.865 822.569 59.667 797.634 15.628 751.9 .001 720.31 .001c-12.51 0 -23.095 9.248 -24.773 21.646 -8.932 65.97 -59.385 144.659 -138.42 215.892 -75.7 68.231 -168.715 122.82 -264.297 155.476 -12.029 -25.4 -37.902 -43.013 -67.82 -43.013h-150c-41.355 0 -75 33.645 -75 75V875c0 41.355 33.645 75 75 75h150c31.676 0 58.81 -19.752 69.783 -47.576 98.068 12.275 134.956 31.986 170.697 51.088C510.208 977.42 552.454 1000 690.622 1000c35.99 0 69.91 -9.399 95.508 -26.466 25.01 -16.674 40.984 -40.045 46.289 -67.143 19.935 -8.09 37.64 -26.783 51.224 -54.583 13.213 -27.04 21.75 -61.599 21.75 -88.053 0 -4.95 -.289 -9.498 -.869 -13.685 12.64 -9.305 23.984 -23.675 33.352 -42.57 13.512 -27.258 21.58 -61.393 21.58 -91.303 0 -21.185 -3.932 -38.869 -11.687 -52.56a73.527 73.527 0 0 0 -1.956 -3.233zM224.999 900H75C61.217 900 50 888.784 50 875V425.001c0 -13.784 11.217 -25 25 -25h150c13.785 0 25 11.216 25 25V874.94c0 .021 0 .042 0 .064 -.002 13.783 -11.216 24.997 -25 24.997zM916.935 513.687c-7.557 15.181 -15.205 20.69 -18.5 20.69 -13.807 0 -25 11.191 -25 24.999s11.193 25 25 25c2.099 0 3.612 0 5.831 3.914 3.3 5.825 5.19 15.998 5.19 27.912 0 22.236 -6.276 48.714 -16.377 69.096 -9.894 19.958 -19.972 27.203 -24.331 27.203 -13.808 0 -25 11.192 -25 25 0 8.854 4.604 16.634 11.55 21.076 1.544 15.826 -5.836 58.231 -25.027 85.885 -7.263 10.47 -14.88 16.475 -20.898 16.475 -13.808 0 -25 11.192 -25 25 0 44.015 -48.599 64.062 -93.75 64.062 -125.643 0 -160.83 -18.808 -201.574 -40.586C450.97 889.062 408.127 866.161 299.999 852.69V443.336C405.036 408.905 507.605 349.476 590.59 274.68 670.233 202.901 722.543 125.287 740.283 53.39c13.607 4.372 28.956 13.57 38.776 30.914 16.695 29.484 29.195 104.784 -74.639 277.837a25 25 0 1 0 21.437 37.862h174.14c9.932 0 16.357 3.502 21.483 11.71 5.846 9.36 9.065 23.83 9.065 40.741 0 21.224 -5.088 44.116 -13.61 61.233z"/></svg>