<svg height="1000" width="1000" xmlns="http://www.w3.org/2000/svg"><path d="M724.998 750H225C156.075 750 100 693.926 100 625V125.003c0 -68.925 56.076 -125 125 -125h500c68.924 0 124.999 56.075 124.999 125v499.999c0 68.924 -56.075 125 -125 125zM225 50.003c-41.354 0 -75 33.646 -75 75v499.999c0 41.356 33.646 75 75 75h500c41.355 0 74.999 -33.644 74.999 -75V125.002c0 -41.354 -33.644 -75 -75 -75H225zM947.36 963.82l-100 -200c-6.172 -12.348 -21.187 -17.353 -33.54 -11.179 -12.35 6.174 -17.355 21.19 -11.18 33.541l6.909 13.82H140.45l6.909 -13.82c6.175 -12.349 1.169 -27.367 -11.182 -33.54 -12.348 -6.175 -27.367 -1.17 -33.54 11.179l-100 200c-6.175 12.348 -1.17 27.366 11.181 33.54a24.904 24.904 0 0 0 11.161 2.646c9.17 0 18 -5.066 22.38 -13.826L65.451 950h819.097l18.09 36.18c4.38 8.76 13.208 13.826 22.38 13.826a24.91 24.91 0 0 0 11.161 -2.646c12.349 -6.175 17.355 -21.192 11.18 -33.54zM90.45 900l25 -50h719.097l25 50H90.45zM274.999 650c-41.354 0 -75 -33.643 -75 -74.999s33.646 -75 75 -75 75 33.644 75 75 -33.645 75 -75 75zm0 -99.999c-13.784 0 -25 11.216 -25 25s11.216 25 25 25 25 -11.216 25 -25 -11.216 -25 -25 -25zm400 100c-41.357 0 -75 -33.644 -75 -75s33.643 -75 75 -75 75 33.644 75 75 -33.644 75 -75 75zm0 -100c-13.785 0 -25 11.216 -25 25s11.215 25 25 25 25 -11.216 25 -25 -11.217 -25 -25 -25zm-50 -399.999h-300c-13.806 0 -25 -11.193 -25 -25s11.194 -25 25 -25h300c13.807 0 25 11.194 25 25s-11.193 25 -25 25zm100 50h-500c-13.806 0 -25 11.193 -25 25v200c0 13.806 11.194 25 25 25h500c13.807 0 25 -11.194 25 -25v-200c0 -13.807 -11.193 -25 -25 -25zm-475 50h200v150h-200v-150zm450 150h-200v-150h200v150z"/></svg>