<svg height="1000" width="1000" xmlns="http://www.w3.org/2000/svg"><path d="M774.998 100.002h-175v-25c0 -41.354 -33.645 -75 -75 -75h-100C383.646 .002 350 33.648 350 75.002v25H175c-41.354 0 -75 33.646 -75 75v50c0 32.59 20.902 60.38 50 70.7V925c0 41.356 33.646 75 75 75h500c41.355 0 74.999 -33.644 74.999 -75V295.702c29.099 -10.32 50 -38.11 50 -70.7v-50c0 -41.354 -33.644 -75 -75 -75zm-374.999 -25c0 -13.784 11.216 -25 25 -25h100c13.784 0 25 11.216 25 25v25h-150v-25zm325 874.998h-500c-13.784 0 -25 -11.216 -25 -25V300.002h550V925c0 13.784 -11.217 25 -25 25zm74.999 -724.998c0 13.784 -11.216 25 -25 25H175c-13.785 0 -25 -11.216 -25 -25v-50c0 -13.784 11.215 -25 25 -25h599.998c13.784 0 25 11.216 25 25v50zm-175 125c-13.807 0 -25 11.193 -25 25V875c0 13.808 11.193 25 25 25s25 -11.192 25 -25V375.001c0 -13.806 -11.192 -25 -25 -25zm-150 0c-13.806 0 -25 11.193 -25 25V875c0 13.808 11.194 25 25 25s25 -11.192 25 -25V375.001c0 -13.806 -11.193 -25 -25 -25zm-149.999 0c-13.806 0 -25 11.193 -25 25V875c0 13.808 11.194 25 25 25s25 -11.192 25 -25V375.001c0 -13.806 -11.193 -25 -25 -25z"/></svg>