<svg height="1000" width="1000" xmlns="http://www.w3.org/2000/svg"><path d="M875.518 224.481c-80.271 -80.27 -187 -124.479 -300.52 -124.479s-220.247 44.208 -300.52 124.48S150 411.478 150 525.001v64.644L42.677 482.323c-9.763 -9.762 -25.592 -9.762 -35.355 0s-9.763 25.592 0 35.355l150 150C162.205 672.56 168.602 675 175 675s12.794 -2.44 17.676 -7.324l150 -150c9.764 -9.762 9.764 -25.59 0 -35.354s-25.592 -9.762 -35.355 0L200 589.646v-64.645C200 318.226 368.224 150.002 575 150.002s374.999 168.224 374.999 375S781.774 900 574.998 900c-13.807 0 -25 11.192 -25 25s11.193 25 25 25c113.52 0 220.248 -44.208 300.52 -124.48s124.48 -186.999 124.48 -300.519c0 -113.521 -44.208 -220.247 -124.48 -300.52z"/></svg>