<svg height="1000" width="1000" xmlns="http://www.w3.org/2000/svg"><path d="M674.998 575.001a24.915 24.915 0 0 1 -17.676 -7.323c-9.764 -9.763 -9.764 -25.592 0 -35.355l153.4 -153.4c25.329 -25.329 39.279 -59.005 39.279 -94.824s-13.95 -69.494 -39.278 -94.822c-52.285 -52.283 -137.358 -52.286 -189.645 0l-153.401 153.4c-9.763 9.764 -25.592 9.764 -35.355 0 -9.764 -9.762 -9.764 -25.591 0 -35.354L585.723 153.922c71.781 -71.78 188.578 -71.776 260.354 0C880.85 188.693 900 234.925 900 284.099s-19.15 95.406 -53.924 130.178l-153.401 153.4a24.913 24.913 0 0 1 -17.678 7.325zm-440.9 375.001c-49.175 0 -95.406 -19.15 -130.177 -53.924C32.142 824.3 32.142 707.504 103.92 635.724l153.4 -153.4c9.763 -9.764 25.592 -9.764 35.355 0 9.764 9.762 9.764 25.591 0 35.354l-153.4 153.4c-52.283 52.287 -52.283 137.362 0 189.646 25.328 25.328 59.003 39.278 94.822 39.278s69.494 -13.95 94.822 -39.278L482.321 707.323c9.763 -9.763 25.592 -9.763 35.354 0 9.764 9.763 9.764 25.592 0 35.354l-153.4 153.401c-34.771 34.774 -81.002 53.924 -130.177 53.924zm40.901 -600a24.915 24.915 0 0 1 -17.676 -7.324l-100 -100c-9.764 -9.762 -9.764 -25.591 0 -35.354 9.763 -9.763 25.592 -9.763 35.354 0l100 100c9.764 9.763 9.764 25.592 0 35.354a24.919 24.919 0 0 1 -17.678 7.324zm100 -50c-13.807 0 -25 -11.194 -25 -25v-150c0 -13.806 11.193 -25 25 -25s25 11.194 25 25v150c0 13.806 -11.193 25 -25 25zm-150 150H75c-13.806 0 -25 -11.194 -25 -25s11.194 -25 25 -25h150c13.807 0 25 11.193 25 25s-11.193 25 -25 25zM774.998 850a24.915 24.915 0 0 1 -17.677 -7.323l-100 -100c-9.763 -9.762 -9.763 -25.591 0 -35.354 9.763 -9.763 25.592 -9.763 35.355 0l100 100c9.763 9.762 9.763 25.591 0 35.354A24.919 24.919 0 0 1 774.998 850zM875 650H724.998c-13.807 0 -25 -11.192 -25 -25s11.193 -25 25 -25H875c13.807 0 25 11.193 25 25s-11.193 25 -25 25zM574.999 950c-13.808 0 -25 -11.192 -25 -25V775c0 -13.807 11.192 -25 25 -25s25 11.193 25 25v150c0 13.808 -11.193 25 -25 25z"/></svg>