<svg height="1000" width="1000" xmlns="http://www.w3.org/2000/svg"><path d="M874.998 950H75C33.645 950 0 916.357 0 875V775c0 -13.807 11.193 -25 25 -25s25 11.193 25 25v100c0 13.784 11.216 25 25 25h799.998c13.784 0 25 -11.216 25 -25V775c0 -13.807 11.192 -25 25 -25s25 11.193 25 25v100c0 41.357 -33.644 75 -75 75zM742.675 432.324l-250 -250c-9.763 -9.762 -25.591 -9.762 -35.356 0l-250 250c-9.762 9.763 -9.762 25.591 0 35.354s25.593 9.763 35.357 0L450 260.356V775c0 13.808 11.193 25 25 25s25 -11.192 25 -25V260.356L707.32 467.678c4.881 4.883 11.279 7.323 17.677 7.323s12.795 -2.44 17.677 -7.323c9.764 -9.763 9.764 -25.59 0 -35.354z"/></svg>