<svg height="1000" width="1000" xmlns="http://www.w3.org/2000/svg"><path d="M924.998 900H374.999c-41.354 0 -75 -33.645 -75 -75 0 -2.403 .526 -59.523 46.222 -115.765 26.253 -32.312 62.051 -57.92 106.398 -76.114C506.189 611.144 572.597 600 649.999 600s143.809 11.143 197.379 33.12c44.346 18.193 80.143 43.802 106.398 76.114 45.697 56.242 46.221 113.362 46.221 115.765 0 41.355 -33.645 75 -75 75zM349.999 825.128c.07 13.727 11.258 24.872 25 24.872h549.999c13.742 0 24.93 -11.145 25 -24.872 -.047 -1.744 -1.618 -44.728 -36.964 -86.705C864.323 680.577 773.367 650 649.998 650s-214.324 30.576 -263.035 88.423c-35.346 41.977 -36.917 84.961 -36.964 86.705zM650 550.001c-110.28 0 -200 -89.72 -200 -200s89.72 -199.999 200 -199.999 199.999 89.719 199.999 200c0 110.279 -89.72 199.999 -200 199.999zm0 -350c-82.711 0 -150 67.29 -150 150s67.289 150 150 150 149.999 -67.289 149.999 -150 -67.289 -150 -150 -150zm-425 700H75C33.646 900 0 866.356 0 825c0 -1.87 .377 -46.335 33.125 -90 18.919 -25.227 44.705 -45.214 76.643 -59.409 38.21 -16.98 85.389 -25.591 140.231 -25.591 8.946 0 17.805 .23 26.33 .684 13.787 .737 24.37 12.51 23.633 26.297 -.734 13.786 -12.481 24.375 -26.297 23.633A445.94 445.94 0 0 0 250 700C55.306 700 50.131 818.97 50 825.128 50.07 838.853 61.259 850 75 850h150c13.807 0 25 11.193 25 25s-11.193 25 -25 25zm25 -300C167.29 600 100 532.712 100 450s67.29 -150 150 -150 150 67.29 150 150 -67.289 150 -150 150zm0 -250c-55.14 0 -100 44.86 -100 100s44.86 100 100 100 100 -44.86 100 -100 -44.86 -100 -100 -100z"/></svg>