<svg height="1000" width="1000" xmlns="http://www.w3.org/2000/svg"><path d="M474.999 550.001c-151.636 0 -275 -123.364 -275 -275S323.363 .003 475 .003s275 123.364 275 275S626.633 550 474.998 550zm0 -499.999c-124.065 0 -225 100.935 -225 225s100.935 225 225 225c124.064 0 225 -100.935 225 -225s-100.936 -225 -225 -225zM874.998 1000H75C33.645 1000 0 966.356 0 925c0 -3.403 .695 -84.262 61.25 -165 35.248 -46.997 83.51 -84.335 143.44 -110.97C277.89 616.497 368.835 600 474.999 600c106.162 0 197.107 16.498 270.309 49.03C805.239 675.666 853.5 713.002 888.748 760c60.554 80.738 61.25 161.597 61.25 165 0 41.356 -33.644 75 -75 75zm-400 -350C300.664 650 172.005 697.647 102.93 787.788 51.161 855.339 50.005 924.41 50 925.1c0 13.684 11.217 24.9 25 24.9h799.999c13.784 0 25 -11.216 25 -25 -.006 -.589 -1.161 -69.66 -52.928 -137.213C777.994 697.648 649.333 650.002 475 650.002z"/></svg>