<svg height="1000" width="1000" xmlns="http://www.w3.org/2000/svg"><path d="M682.664 744.037c-7.263 0 -14.468 -3.152 -19.409 -9.225 -8.713 -10.71 -7.092 -26.458 3.617 -35.17C719.7 656.671 750 593.015 750 525.002S719.7 393.335 666.874 350.36c-10.71 -8.713 -12.33 -24.459 -3.617 -35.17s24.459 -12.33 35.17 -3.615c64.55 52.51 101.572 130.302 101.572 213.427 0 83.127 -37.021 160.917 -101.573 213.427a24.9 24.9 0 0 1 -15.76 5.608zm-94.59 -116.422c-7.263 0 -14.466 -3.151 -19.408 -9.225 -8.713 -10.708 -7.094 -26.457 3.617 -35.17 17.614 -14.327 27.715 -35.546 27.715 -58.218 0 -22.674 -10.103 -43.895 -27.716 -58.223 -10.71 -8.713 -12.331 -24.46 -3.617 -35.17s24.458 -12.33 35.17 -3.617c29.335 23.867 46.163 59.223 46.163 97.01 0 37.784 -16.826 73.142 -46.162 97.006a24.902 24.902 0 0 1 -15.76 5.607zM407.51 160.37c-12.344 0 -24.725 5.205 -36.799 15.467l-204.9 174.166H75c-41.355 0 -75 33.645 -75 75V625c0 41.356 33.645 75 75 75h90.81l204.902 174.165c12.073 10.263 24.453 15.467 36.797 15.467 0 0 0 0 .002 0 13.604 0 25.81 -6.604 33.484 -18.115C446.97 862.555 450 851.11 450 837.5V212.502c0 -36.013 -21.34 -52.133 -42.49 -52.133zM50 625.001V425c0 -13.784 11.216 -25 25 -25h75v250H75C61.216 650 50 638.785 50 625zM399.999 833.44l-200 -170V386.563L400 216.565v616.876z"/></svg>