<svg height="1000" width="1000" xmlns="http://www.w3.org/2000/svg"><path d="M407.51 160.37c-12.344 0 -24.725 5.204 -36.799 15.466l-204.9 174.166H75c-41.355 0 -75 33.645 -75 75V625c0 41.356 33.645 75 75 75h90.81l204.902 174.165c12.073 10.263 24.453 15.467 36.797 15.467 0 0 0 0 .002 0 13.604 0 25.81 -6.604 33.484 -18.115C446.97 862.555 450 851.11 450 837.5V212.502c0 -36.013 -21.34 -52.133 -42.49 -52.133zM50 625V425.002c0 -13.784 11.216 -25 25 -25h75v250H75C61.216 650 50 638.785 50 625zm349.999 208.44l-200 -170V386.563L400 216.565v616.876z"/></svg>