<svg height="1000" width="1000" xmlns="http://www.w3.org/2000/svg"><path d="M924.998 950H25A25 25 0 0 1 3.21 912.743L453.209 112.745a25.002 25.002 0 0 1 43.58 0l449.999 799.998A25.002 25.002 0 0 1 924.998 950zM67.745 900H882.25L474.999 175.996 67.745 900zM474.999 700c-13.807 0 -25 -11.192 -25 -25V425.002c0 -13.806 11.193 -25 25 -25s25 11.194 25 25v250c0 13.807 -11.194 25 -25 25zm0 150c-13.807 0 -25 -11.192 -25 -25v-50c0 -13.807 11.193 -25 25 -25s25 11.193 25 25v50c0 13.808 -11.194 25 -25 25z"/></svg>