<svg height="1000" width="1000" xmlns="http://www.w3.org/2000/svg"><path d="M892.674 657.324c-9.762 -9.763 -25.591 -9.763 -35.354 0l-32.562 32.56L688.284 557.085c-.08 -.076 -.166 -.14 -.245 -.217a25.96 25.96 0 0 0 -1.103 -.97c-.276 -.23 -.547 -.467 -.828 -.685 -.323 -.248 -.659 -.477 -.993 -.71 -.353 -.244 -.7 -.494 -1.064 -.72 -.281 -.175 -.572 -.329 -.86 -.491 -.423 -.24 -.843 -.486 -1.278 -.698 -.275 -.136 -.56 -.252 -.84 -.377 -.45 -.201 -.899 -.41 -1.357 -.583 -.339 -.128 -.685 -.229 -1.03 -.344 -.407 -.135 -.812 -.28 -1.224 -.39 -.44 -.123 -.888 -.211 -1.334 -.307 -.328 -.07 -.651 -.154 -.981 -.213 -.506 -.089 -1.019 -.143 -1.533 -.2 -.284 -.032 -.563 -.075 -.847 -.097 -.498 -.037 -1.005 -.044 -1.51 -.052 -.312 -.005 -.625 -.02 -.94 -.013 -.439 .01 -.88 .047 -1.323 .08 -.392 .03 -.784 .053 -1.174 .1 -.366 .045 -.732 .112 -1.097 .174a25.361 25.361 0 0 0 -1.408 .266c-.112 .025 -.224 .034 -.334 .062l-197.25 47.636c-5.322 1.283 -9.935 .667 -12.992 -1.74C451.682 594.188 450 589.85 450 584.376V500h175c13.807 0 25 -11.193 25 -25s-11.193 -25 -25 -25h-175V297.485a125.107 125.107 0 0 0 25 2.516c68.924 0 125 -56.075 125 -125s-56.076 -125 -125 -125 -125 56.075 -125 125c0 40.807 19.66 77.103 50 99.932v309.442c0 20.82 8.68 39.594 23.814 51.508 10.92 8.595 24.516 13.087 38.847 13.086 5.531 0 11.174 -.67 16.81 -2.032l183.836 -44.396 144.257 140.377A24.92 24.92 0 0 0 824.996 750a24.915 24.915 0 0 0 17.678 -7.324l50 -50c9.763 -9.762 9.763 -25.59 0 -35.353zM475 100.002c41.354 0 75 33.646 75 75s-33.646 75 -75 75c-41.355 0 -75 -33.646 -75 -75s33.645 -75 75 -75zm-100 899.998c-179.205 0 -325 -145.795 -325 -325 0 -77.33 27.624 -152.255 77.784 -210.978 49.593 -58.06 118.164 -96.958 193.078 -109.526 13.62 -2.282 26.507 6.903 28.791 20.518 2.285 13.617 -6.9 26.508 -20.518 28.792C196.366 426.081 100 540.136 100 675.001 100 826.636 223.364 950 374.999 950c134.867 0 248.923 -96.365 271.197 -229.135 2.284 -13.617 15.176 -22.8 28.792 -20.519 13.617 2.285 22.802 15.175 20.518 28.792C682.938 804.052 644.04 872.624 585.98 922.218 527.256 972.376 452.33 1000 374.999 1000z"/></svg>