<?xml version="1.0" standalone="no"?>
<!DOCTYPE svg PUBLIC "-//W3C//DTD SVG 1.1//EN" "http://www.w3.org/Graphics/SVG/1.1/DTD/svg11.dtd">
<svg xmlns="http://www.w3.org/2000/svg">
<metadata>tbd</metadata>
<defs>
<font id="rpgawesome" horiz-adv-x="1000" >
<font-face font-family="RPGAwesome" font-weight="400" font-stretch="normal" units-per-em="1000" ascent="850" descent="-150" />
<missing-glyph horiz-adv-x="1000" />
<glyph glyph-name="aura" unicode="&#xe914;" d="M964 143c-57 38-147 87-147 143s90 107 147 145c-66-1-152 21-176 69-24 49 19 114 53 180-57-39-112-90-154-62s-61 129-60 206c-33-67-75-117-123-117s-92 49-125 116c1-77-19-178-60-205-42-28-97 23-154 62 34-66 82-131 58-180-24-48-116-70-181-69 57-38 154-90 154-145 0-56-97-105-154-143 65 1 157-23 181-71S205-38 157-95c88 30 127 12 167-21h62C302-47 245 95 245 258c0 232 115 420 257 420 141 0 256-188 256-420 0-163-57-305-140-374h53c39 29 78 50 175 18-51 59-82 122-58 170 24 49 110 72 176 71zM569 442c18 23 30 55 30 91 0 70-44 126-99 126-3 0-7 0-10 0-50-6-89-61-89-126 0-37 12-69 32-92-104-20-112-194-112-317h72l19-257h183l17 257h68c0 123 2 301-111 318z" horiz-adv-x="1000" />
<glyph glyph-name="aware" unicode="&#xe915;" d="M587 526c21 26 35 63 35 103 0 80-51 144-114 144-4 0-8 1-12 0-58-7-103-69-103-144 0-41 15-79 37-105-120-22-129-222-129-363h83l22-293h211l19 293h79c0 141 3 345-128 365z m190 288c67-43 109-107 109-180 0-72-42-137-108-180 113 32 191 101 191 180s-79 148-192 180z m-81-315c84 25 142 76 142 135s-58 111-143 135c50-32 82-81 82-135s-32-102-81-135z m-20 135c0-39-23-74-59-98 61 18 103 55 103 98s-42 80-103 98c36-24 59-59 59-98z m-548 0c0 73 43 137 109 180C124 782 46 713 46 634s77-148 190-180a219 219 0 00-108 180z m48 0c0-59 58-110 142-135-49 33-81 81-81 135s32 103 82 135c-85-24-143-76-143-135z m221-98c-36 24-58 59-58 98s23 74 59 98c-62-18-104-55-104-98s42-80 103-98z" horiz-adv-x="1000" />
<glyph glyph-name="double_team" unicode="&#xe99e;" d="M484 807c-58-8-103-71-103-146 0-42 14-80 36-107-120-22-129-225-129-367h83l22-297h212l20 297h79c0 143 3 349-129 369 22 27 35 64 35 105 0 80-51 146-115 146-3 0-8 0-11 0z m177 1c64 0 115-65 115-146 0-41-14-78-35-105 131-20 129-226 129-369h-79l-20-297H648l19 297h80c0 143 2 349-129 369 21 27 35 64 35 105 0 52-21 97-53 123 15 12 30 20 49 23 4 0 8 0 12 0z m-269-23c-32-26-54-71-54-123 0-42 15-80 37-107-120-23-129-225-129-367h83l22-297H228l-22 297h-84c0 142 10 344 130 367-22 27-37 65-37 107 0 76 45 138 103 146 4 0 8 0 12 0 23 0 44-9 62-23z" horiz-adv-x="1000" />
<glyph glyph-name="falling" unicode="&#xe9b9;" d="M939 576l-10 20a46 46 0 01-63 21l-185-95a46 46 0 01-21-22 46 46 0 01-6-11l-45-112-16 23-98 168v188c0 26-21 46-46 46h-23c-26 0-47-20-47-46V548a46 46 0 0110-28s1-1 1-1l83-143-143-101 12 95c2 17-4 32-16 41L197 571a46 46 0 01-65 7l-18-14a46 46 0 01-7-65l116-145-21-175a46 46 0 013-26 46 46 0 018-17l80-113a48 48 0 012-3c3-12 12-21 24-27l188-88s1 0 1-1c16-10 37-11 53 1L731 24c21 14 26 43 11 64l-13 19a46 46 0 01-64 12L528 23l-93 43 225 158a46 46 0 0113 14 46 46 0 0110 15l72 177 164 84c23 11 32 39 20 62zM266-2A117 117 0 1031-2a117 117 0 00235 0z" horiz-adv-x="1000" />
<glyph glyph-name="monster_skull" unicode="&#xea43;" d="M645 681c-23 18-49 31-79 39a84 84 0 01-21 19c-19 40-44 81-44 81s-25-41-45-81a84 84 0 01-18-16c-36-7-67-21-92-42C158 712-11 523 49 324c24-80 142-131 203-98-115 0-150 125-114 212 23 56 63 87 118 88-18-69-25-151-25-239h138c-3-23-5-48-5-75-3-29 18-149 18-149s59 98 69 129c12-46 45-134 45-134s32 87 44 134c11-33 70-129 70-129s21 124 17 150c0 26-2 51-5 74h137c0 88-7 170-25 239 57 1 99-31 122-88 36-87 1-212-114-212 61-33 179 18 203 98 61 200-111 390-300 357zM375 498c17-18 42-32 76-38a47 47 0 10-76 38z m267-38a47 47 0 10-95 2c32 7 55 21 71 40a48 48 0 0010-8c9-8 14-20 14-34zM223-26c-23-86 96-112 117-32 9 33-8 206-8 206S232 6 223-26z m432 174s-17-173-8-206c22-80 140-54 117 32-8 32-109 174-109 174z m-109-46S514-23 516-47c7-62 97-56 90 9-3 25-60 140-60 140zM385-38c-7-65 83-71 89-9 3 24-29 149-29 149S388-13 385-38z" horiz-adv-x="1000" />
<glyph glyph-name="muscle_fat" unicode="&#xea47;" d="M672 771c-79-60 13-155 85-87 72-105 17-194-140-128a269 269 0 01-15 15c4 13 6 26 6 40 0 73-50 132-112 132s-112-59-112-132c0-14 2-27 6-40a269 269 0 01-15-15c-157-66-212 23-140 128 72-68 165 27 85 87-328-69-431-327-33-365-26-69-41-146-43-223-70-64-116-129-116-129l93-93-77-52h221C222 53 323 113 493 113c171 0 261-70 128-204h223l-79 52 93 93s-44 60-109 122c-1 79-17 159-44 230 398 38 296 296-33 365z" horiz-adv-x="1000" />
<glyph glyph-name="muscle_up" unicode="&#xea48;" d="M179 372z m496 442c-80-77 12-199 85-111 74-140 13-257-157-154 10 21 16 45 16 71 0 78-53 142-118 142s-119-64-119-142c0-25 6-49 15-70-171-105-233 13-159 153 73-88 165 34 85 111C30 734-82 463 181 372h-2c1-1 2-1 3-1 18-6 37-11 58-16 98-38 169-131 175-223A511 511 0 01299 10l51-76-80-45h159c-78 79-22 167 71 167 95 0 144-94 70-167h159l-79 45 51 76s-51 79-117 124c6 90 77 183 174 221 21 5 40 10 58 16 1 0 2 0 4 1h-3c263 91 151 362-142 442z" horiz-adv-x="1000" />
<glyph glyph-name="player" unicode="&#xea6f;" d="M513 830c60-8 108-74 108-153 0-44-15-84-39-112 126-23 136-235 136-384h-88l-23-311H386l-21 311h-83c0 149-3 365 135 386-22 28-37 67-37 110 0 84 54 153 120 153 5 0 9 1 13 0z" horiz-adv-x="1000" />
<glyph glyph-name="player_despair" unicode="&#xea66;" d="M952 432c-45 42-129 26-187-36-11-11-20-23-27-36-191 89-621-162-334-377H171l-52-94h502L448 91c48 52 132 85 189 88 27-88 71-222 140-290h119a596 596 0 00-156 319c0-1 1-1 1-2 45-42 129-26 187 36s70 147 24 190z m-515-90v485h-98V265c26 31 60 57 98 77z m193 485h-95V380c32 8 64 13 95 13v434zM234 1v826h-98V-45l32 46z m600 456v370h-98V385a213 213 0 0016 19c24 26 53 44 82 53z" horiz-adv-x="1000" />
<glyph glyph-name="player_dodge" unicode="&#xea67;" d="M845 570c23 28 38 67 38 111 0 80-47 145-108 153-4 1-8 0-12 0-25 0-48-9-67-26L33 760l610-44v-23a197 197 0 01-1-6L33 642l610-44v-29L33 524l542-39v-8c-4-10-7-21-10-32L33 406l507-36v-38L33 295l508-37v-44L33 177l590-43v-32L33 59l605-44v-30L33-59l613-44 2-23h222l23 311h87c0 149-10 361-135 385z m-182 27h-2 2z" horiz-adv-x="1000" />
<glyph glyph-name="player_king" unicode="&#xea68;" d="M500 756l-31-81-41 76-15-78-58 73 9-106c36-35 235-36 272 0l7 106-58-73-15 78-41-76-29 81z m3-182c-86 0-155-89-155-198 0-59 20-111 51-147-165-38-176-170-176-364h562c0 193 3 333-175 368 29 36 48 87 48 143 0 109-70 198-155 198z" horiz-adv-x="1000" />
<glyph glyph-name="player_lift" unicode="&#xea69;" d="M573 77l-1-24H430l-1 24H169l334-196L838 77z m-70 588c3 0 6 0 8 0 29-4 53-27 63-60h264L503 801 169 605h264c11 35 39 60 70 60z m-86-414h-61c-21 111 6 233 94 247-14 17-23 42-23 69 0 23 6 43 16 60H293V60h137l-13 191z m147 376c10-17 16-37 16-60 0-28-10-53-24-71 80-15 118-131 95-245h-65L572 60h142v567H564z" horiz-adv-x="1000" />
<glyph glyph-name="player_pain" unicode="&#xea6a;" d="M912 254c53 54 67 126 30 163-36 36-109 22-162-31-10-10-19-21-27-33C571 463 110 204 404-17H172l-52-93h502L449 91c47 53 132 86 189 88 27-88 71-221 140-289h119a589 589 0 00-160 351c3-6 7-12 12-17 37-37 109-23 163 30z m-619-86c30 173 293 266 449 210l101 250-161-161 38 315-82-187-27 76-64-163-157 301 27-280-254 207 142-273-152 58 67-121-160 4 205-133-203-59 231-44z" horiz-adv-x="1000" />
<glyph glyph-name="player_pyromaniac" unicode="&#xea6b;" d="M883 487c37-74 3-241-115-263 50 42 84 146 65 189-64-89-147-5-64 80 55 57 75 129 20 207 17-75-70-158-130-105-41 35-19 113 44 133-50 18-89-5-98-40-33 32-76 53-64 106-60-27-43-103-15-136 52-63-59-97-92 9-10-32-45-40-66-14-13 17-36 59-23 100-39-27-59-84-36-117 55-79-21-140-109-76 67-89 39-223-31-269 27 60 16 164-41 185 29-88-44-153-80-115v-470h91C164-4 221 61 356 86c-41 49-67 118-67 195 0 148 94 268 210 268s209-120 209-268c0-75-24-143-62-192C792 66 848-1 868-109h94v427c-12 58-33 155-79 169zM158 616c-45 91 126 112 9 193-4-62-185-88-9-193z" horiz-adv-x="1000" />
<glyph glyph-name="player_shot" unicode="&#xea6c;" d="M913 254c53 54 67 127 31 163-37 37-110 23-163-31-10-10-19-21-26-32-26 15-57 23-90 25l-34 274 38 40-11 69-36-38-1 9-14-1 1-9-43 24 10-68 42-23 34-276c-19 0-39-2-59-5L425 664l19 47-34 60-19-47-6 10-12-7 6-10-51 7 35-60 50-7 165-284c-19-4-38-9-57-16L303 542l4 50-51 47-4-53-13 11-9-11 10-8-48-8 51-47 51 8 212-179C342 288 213 127 405-17H172l-52-93h503L450 91c47 52 131 86 189 88 27-88 71-221 140-289h119a590 590 0 00-160 351c3-6 7-12 12-17 37-37 110-23 163 30z" horiz-adv-x="1000" />
<glyph glyph-name="player_teleport" unicode="&#xea6d;" d="M942 318c0 46-113 86-272 103a684 684 0 01-1 11s0 1-1 1a620 620 0 01-1 11c0 1 0 1 0 2a561 561 0 01-1 10 485 485 0 01-2 12s0 1 0 1c-1 7-3 14-4 21 165 16 282 57 282 105 0 53-150 99-350 110-2 55-32 101-73 115-8 2-16 4-25 4-3 0-7 0-10 0-48-6-86-57-88-120-198-11-345-56-345-109 0-48 117-89 282-105-2-11-5-22-6-33 0 0-1 0-1 0a556 556 0 01-1-11c0-1 0-1-1-2a610 610 0 01-1-11s0-1 0-1a686 686 0 01-1-11C163 404 51 364 51 318c0-54 146-98 343-110l4-51C199 146 51 101 51 47 51-15 250-65 496-65S941-15 941 47c0 54-147 99-345 110l3 51c197 12 343 56 343 110z m-128 14c0-35-88-65-211-76l2 36h68c0 25 0 52-1 79a1206 1206 0 010 12s0 0 0 1a1072 1072 0 01-1 11s0 1 0 1c0 1 0 2 0 3 86-14 143-39 143-67z m0 277c0-31-68-58-169-71-16 37-42 64-82 71 16 20 27 46 29 76 129-10 222-40 222-76z m-636 0c0 36 91 66 218 76 3-31 14-58 31-78-37-7-61-33-78-69-102 13-171 40-171 71z m0-277c0 28 56 53 141 67 0-1 0-2 0-3s0-2 0-2a954 954 0 01-1-11c0-1 0-1 0-2a1053 1053 0 010-11s0-1 0-2a1125 1125 0 01-1-10s0-1 0-1c-1-22-1-45-1-65h72l2-36c-123 11-212 41-212 76zM814 62c0-45-142-81-318-81S178 17 178 62c0 36 93 66 221 77l7-102c49-17 141-15 182 0l7 101c127-10 219-40 219-76z" horiz-adv-x="1000" />
<glyph glyph-name="player_thunder_struck" unicode="&#xea6e;" d="M962 206l-117-33 112 181-134-56 106 199-141-84 36 241-101-226-139 281 45-322-129 102 83-167-235 150 143 107-251 229H39V680l180-138-117-113 459-307-163 11L579-16 428-27l221-79-9 135h-42c0 73-1 179 63 195-10 14-16 34-16 55 0 47 29 85 65 85s64-38 64-85c0-21-6-41-17-57 60-16 64-120 64-193h-44l-11-137L946 9l-96-9 112 206z" horiz-adv-x="1000" />
<glyph glyph-name="bottle_vapors" unicode="&#xe93d;" d="M42 514c-46-135 74-180 160-83-81-16-140 2-160 83z m675-35c312 70 311 417 73 320 157 27 104-212-21-241 77 57 61 111 31 162-13-180-239-210-305-328 0 1 0 2 1 2-1 0-1 0-2 0 0-1 0-2 0-3 2 216 72 334 170 281 44-25 38-88-15-105 108 22 127 121 24 181-88 51-217-13-234-173-63 262-281 321-300 83a158 158 0 001 4s1 1 1 1c0 1 1 2 1 2 0 1 1 1 1 2 0 0 1 1 1 2 0 0 0 0 1 1 0 1 0 1 1 2 0 0 0 1 1 1 0 1 0 1 1 2 0 0 0 1 1 1 0 1 0 1 1 2 0 0 0 1 1 1 0 1 0 1 1 2 0 0 0 1 1 1 0 0 0 1 1 1 0 1 0 1 1 2 0 0 1 1 1 1s1 1 1 1c0 1 1 1 1 2 0 0 1 0 1 1 1 0 1 1 1 1 1 0 1 1 1 1 1 1 1 1 2 1 0 1 0 1 1 1 0 1 0 1 1 2 0 0 1 0 1 0 0 1 1 1 1 2 1 0 1 0 1 1 1 0 1 0 2 1 0 0 0 0 1 0 0 1 1 1 1 1 0 1 1 1 1 1 1 1 1 1 1 1 1 0 1 1 2 1 0 0 0 1 1 1 0 0 1 0 1 1 0 0 1 0 1 0 1 1 1 1 2 1 0 0 0 1 1 1 0 0 1 0 1 0 1 1 1 1 2 1 0 0 0 1 1 1 0 0 1 0 1 0 1 1 1 1 1 1 1 0 1 0 2 1 0 0 1 0 1 0s1 0 1 1c1 0 1 0 2 0 0 0 1 0 1 1 1 0 1 0 1 0a75 75 0 002 0c0 1 1 1 1 1a93 93 0 002 0s0 0 1 0c0 1 1 1 1 1a90 90 0 002 0 81 81 0 001 0c1 0 1 1 1 1a97 97 0 002 0s1 0 1 0a84 84 0 002 0s1 0 1 0a74 74 0 002 0s1 1 1 1a80 80 0 003 0 78 78 0 003 0s1 0 2 0c0 0 0 0 1 0a90 90 0 003-1 89 89 0 003 0 100 100 0 003 0 97 97 0 003-1 103 103 0 003 0 116 116 0 006-1 110 110 0 003-1c1 0 1 0 2-1 0 0 1 0 1 0a123 123 0 003-1c1 0 2 0 2-1a137 137 0 003-1 147 147 0 004-1c1 0 2-1 3-1a172 172 0 004-2s1-1 2-1c0 0 0 0 1 0 1-1 1-1 2-1 0-1 1-1 1-1a179 179 0 002-1c1 0 1 0 1 0 1-1 2-1 3-2 1 0 2-1 3-1 0-1 0-1 0-1a197 197 0 003-1s0 0 0-1a194 194 0 003-1s0 0 1 0c0-1 1-2 2-2 0 0 1 0 1 0a217 217 0 003-2s0 0 0-1c1 0 2-1 3-1 0-1 0-1 0-1 1 0 2-1 3-2s2-1 3-2a239 239 0 003-2c1-1 2-2 3-3-42-6-88-40-126-106 108 64 185 26 246-68a450 450 0 007-21s0 0 0-1 0-2 1-3a487 487 0 017-38s1-1 1-1c-52 57-146 73-215 10 72 4 130-21 179-65-34-7-66-19-94-34 44-67 78-157 78-259-98-21-152-110-165-221h400c-3 68-27 119-87 160 85-6 135-97 143-160h54C731-17 674 72 577 93c0 109 36 192 79 259-18 12-39 22-62 28-33-74-62-167-69-287-6 119 2 220 17 295 42 44 102 74 175 91z m-265-39c0-1 0-1 0-1a438 438 0 01-2 9c0-2 1-5 2-8z m36-106a161 161 0 011 3c0 1 0 1 0 1s0 0 0-1c0 1 0 1 0 2a159 159 0 00-1-5z m0-2a154 154 0 000-5 158 158 0 010 5z m0 0z m0-5z m0 28z m0-5z m1-6z m-2 17z m-1 8a128 128 0 010-2c0 1 0 1 0 2z m0-3z m-1 6a148 148 0 01-4 16 147 147 0 004-16z m-9 30z m2-5z m5-31z m-1-4z m-2-6z m-1-5c0-1 0-2 0-2a129 129 0 000 2z m-1-7c0-1 0-1 0-2 0 1 0 1 0 2z m-1-5z m-1-13z m1-17s0-1 0-1 0 0 0 1z m3-22c0 1 0 1 0 2 0-1 0-1 0-2z m-1 7c0 1 0 1-1 2 1-1 1-1 1-2z m-1 7c0 1 0 1 0 2 0-1 0-1 0-2z m16 14c1-2 1-4 2-6a863 863 0 00-2 6z m33 55z m-6-7c-1-1-1-2-2-3 1 1 1 2 2 3z m-7-11c-1-1-2-2-3-3 1 1 2 2 3 3z m-5-7z m-5-8z m-4-9z m-4-8c0 1 0 3 0 4 0-1 0-3 0-4z m-1 11a1078 1078 0 000 5c0-2 0-3 0-5z m0 11c0 2 0 3 0 4 0-1 0-2 0-4z m-1 15s0 1 0 2c0-1 0-2 0-2z m0 10z m0 11c0 1 0 2 0 4 0-2 0-3 0-4z m-38 55c0 1 0 1-1 1 1 0 1 0 1-1z m19-31z m-2 5z m-2 4z m-3 5z m-2 4z m-3 5z m-3 3c0 1-1 2-1 2s1-1 1-2z m12-112z m-6 9c0 1 0 1 0 1s0 0 0-1z m-6 8s0 1-1 1c1 0 1-1 1-1z m-12 193z m7-63z m-1 9s0 1 0 1 0-1 0-1z m-1 9c0 1 0 1 0 2 0-1 0-1 0-2z m0 9c0 1 0 1 0 2 0-1 0-1 0-2z m-1 9a470 470 0 010 2c0-1 0-2 0-2z m-1 9s0 1 0 1 0-1 0-1z m-1 9s0 0 0 1c0-1 0-1 0-1z m-6-44c0-1 0-2 1-3a456 456 0 01-3 10c0-2 1-4 2-7z m3-11c0-1 0-2 0-2a448 448 0 01-2 10c0-2 1-5 2-7 0-1 0-1 0-1z m0-3a432 432 0 002-7c0-1 0-1 0-1 0-1 1-1 1-2a448 448 0 01-3 10z m5-20z m2-98s0 1-1 1c1 0 1-1 1-1z m-5 7c-1 1-1 1-1 1s0 0 1-1z m-26 29z m19-21s-1 1-1 1 1-1 1-1z m-6 7s0 0-1 1c1-1 1-1 1-1z m-6 7c-1 0-1 1-2 1 1 0 1-1 2-1z m-13 13c-1 0-1 1-2 1 1 0 1-1 2-1z m80-75c-1 2-1 4-1 6 0-2 0-4 1-6z m39 74s0 0 1 0c-1 0-1 0-1 0z m-6-7c1 1 2 2 2 2s-1-1-2-2z m104 274c-64 11-84-95-2-82-29 11-31 54 2 82z" horiz-adv-x="1000" />
<glyph glyph-name="bottled_bolt" unicode="&#xe93e;" d="M750 666H271c0-114-67-42-67-167V9c0-54 43-96 96-96h417c53 0 96 42 96 96v490c0 132-63 57-63 167zM367-34l115 310H273l338 359-91-262h228L367-34zM194 804V658h76a257 257 0 011 8h479c0-3 0-6 0-8h78v146H194z" horiz-adv-x="1000" />
<glyph glyph-name="broken_bottle" unicode="&#xe948;" d="M180 32C137 75 85 93 64 72S61-1 104-44s95-61 116-40 3 73-40 116z m20-91c-13-14-50-3-82 27S71 32 84 47s51 3 83-26 47-65 33-80z m-29 76z m26-34z m-2 4zM179 9z m13-18z m-21 25z m34-57zM189-5z m12-21z m4-18z m-1 10a65 65 0 01-3 8 65 65 0 003-8zM186 0z m-3 4z m589 499l16 198-149-54c6 68 45 125 111 184l-125-32-272-272c-90-90 2-171-94-268L80 81v-1c26 5 66-13 100-48 28-28 45-59 49-84l170 171c97 96 178 4 268 94l314 314-209-24zM167 21z m-5 4z m-48 27z m44-24z m-41 23z m-9 2z m47-22z m-23 14z m8-4z m-15 7z m3-1z m15-8z m4-3z" horiz-adv-x="1000" />
<glyph glyph-name="bubbling_potion" unicode="&#xe94c;" d="M363 809h209c-40-236-169-234-209 0z m411-601c0 140-138 212-223 294-91 88 32 246 32 246h-25c-44-154-137-153-181 0h-19s113-158 22-249c-82-82-214-154-214-291 0-8 0-291-1-299l610-5c-1 10-1 294-1 304zM490 445a43 43 0 100-87 43 43 0 000 87zM221 207c0 40 15 72 35 102h248a56 56 0 0085 0h94c21-29 36-62 36-102 0-13 0-238 1-250l-500 7c1 10 1 233 1 243z" horiz-adv-x="1000" />
<glyph glyph-name="corked_tube" unicode="&#xe973;" d="M858 702L667 812c-7-11-28-48-44-91l-10 6C485 504 364 298 237 80c-38-66-24-145 31-177 55-31 131-4 169 62 125 218 247 425 376 647l-13 8c30 34 52 71 58 82zM475 421l132 230c-4-38 5-74 39-94 45-26 93 2 132 40L678 421H475z" horiz-adv-x="1000" />
<glyph glyph-name="fizzing_flask" unicode="&#xe9c6;" d="M664 774c-47 15-112 8-133-38-31 40-93 27-108-20-14-46 27-96 88-94-6-66 86-107 159-77-1-37 16-81 59-87-12-36 6-82 56-82 61 0 74 71 41 103 18 21 25 50 22 77 33-24 67 12 66 39-3 49-40 70-66 47-18 54-73 63-103 32 3 15 1 26-10 38 44 11 37 73 9 91-34 22-69 7-80-29z m178-535c-69 0-69 105 0 105s69-105 0-105z m87 205c-45 0-44 68 0 68s45-68 0-68z m-83 292c-45 0-44 67 0 67s45-67 0-67z m-500-99c-44 0-44 67 0 67s45-67 0-67z m119-84L358 368 63 199C12 170 3 113 50 63c91-97 203-156 330-191 67-18 109 11 109 77v342l108 186-132 76zM363-48C264-14 41 108 126 158l266 154-29-360z m132 586l-56-105z" horiz-adv-x="1000" />
<glyph glyph-name="flask" unicode="&#xe9cb;" d="M877 68L579 445v268s14 1 30 1 29 26 29 39-13 34-29 34H383c-16 0-29-21-29-34s13-39 29-39l30-1V451C314 325 113 68 113 68c-9-16-17-36-17-61 0-59 49-108 108-108h584c59 0 108 48 108 108 0 27-11 47-19 61zM788-66H205a73 73 0 00-61 114s239 308 306 393v165l92-4V441L848 48c5-9 13-23 13-41 0-40-34-73-73-73zM392 714h189z" horiz-adv-x="1000" />
<glyph glyph-name="heart_bottle" unicode="&#xe9f6;" d="M720 542l-54 15 22 85 71-19 32 119-311 83-32-119 69-18-23-85-53 14c-74 20-150-23-170-97l-97-363C154 83 198 7 272-13l280-75c74-20 149 25 169 99l97 363c20 74-23 148-98 168z m-17-282C672 156 520 159 447 59c-16 124-155 191-121 302 31 104 173 106 200-8 77 77 211 18 177-93z" horiz-adv-x="1000" />
<glyph glyph-name="round_bottom_flask" unicode="&#xea86;" d="M610 480c-50 61 21 203 46 261h-39l26 69H355l30-69h-40c31-84 105-182 48-261-58-83-195-154-195-283a304 304 0 11608 0c0 129-132 205-196 283zM501-58a248 248 0 00-247 248c0 50 26 89 58 123h382c30-35 55-74 55-123C749 54 637-58 501-58z" horiz-adv-x="1000" />
<glyph glyph-name="vase" unicode="&#xeade;" d="M769 678c-35 31-82 2-131-37-2 18-14 26-14 45 0 0 50 12 62 31 11 18 13 46 0 63-39 51-156 50-187 50s-148 1-187-50c-13-17-11-45 0-63 12-19 62-31 62-31 0-14-14-23-13-46-52 39-101 69-136 37-63-57 3-183 41-255-24-63-32-126-16-173 31-93 124-156 124-218 0-31-31-31-31-62s63-94 156-94c94 0 156 62 156 94 0 31-31 31-31 62 0 62 94 125 125 218 15 47 8 110-16 173 35 73 100 201 36 256z m-395-85c-32-33-61-73-83-115-31 52-86 132-43 171 29 27 107-32 120-42a185 185 0 016-14z m257 16c21 16 88 65 115 41 44-39-9-118-39-171-22 42-51 81-83 114 3 6 5 11 7 16z" horiz-adv-x="1000" />
<glyph glyph-name="vial" unicode="&#xeae1;" d="M613 606c0-64 0-147 0-211H387c0 64 0 147 0 211z m-249 63h-40l30-48V20c0-77 65-139 146-139S646-57 646 20v601l30 48h-40z m87-328c15 0 27-12 27-26s-12-26-27-26-27 12-27 26 12 26 27 26z m88-43c24 0 43-18 43-40s-19-41-43-41-43 18-43 41 20 40 43 40z m41 142c0-14-12-25-27-26s-27 12-27 26c0 15 12 26 27 26s27-11 27-25c0 0 0 0 0-1z m5 281c0-14-12-26-27-26s-27 12-27 26c0 15 12 26 27 26s27-11 27-25c0 0 0-1 0-1z m-72 57c0-22-19-40-43-40s-42 18-42 40 19 41 42 41 43-18 43-41z" horiz-adv-x="1000" />
<glyph glyph-name="alligator_clip" unicode="&#xe904;" d="M962 473L294 821l-31-31c31-46 20-117-30-167s-123-62-168-31l-30-30 347-669L679 68 467 84l106 107-178 13 93 93-160 12 77 77-138 11 70 69-120 9c83 15 154 87 170 170l9-119 69 68 11-137 76 77 13-160 92 92 14-178 106 107 16-208 169 286z" horiz-adv-x="1000" />
<glyph glyph-name="ammo_bag" unicode="&#xe905;" d="M324 819c-15 0-29-15-29-30v-58h29v-59H207C74 672 61 568 61 526V-2c0-22-30-58-30-58v-59h938v59s-30 36-30 58v528c0 43-13 146-146 146H676v59h29v58c0 15-14 30-29 30H324z m147-88h58c30 0 88 0 88-59H383c0 59 58 59 88 59zM236 555h528c37 0 58-21 58-59V28c0-17-15-30-29-30H207c-14 0-29 13-29 30v468c0 38 21 59 58 59z m410-410h118V86H646v59z m0 29v205c0 75 59 117 59 117s59-42 59-117V174H646z m-410 0v205c0 75 59 117 59 117s59-42 59-117V174H236z m205 0v205c0 75 59 117 59 117s59-42 59-117V174H441z m0-29h118V86H441v59z m-205 0h118V86H236s0 59 0 59z" horiz-adv-x="1000" />
<glyph glyph-name="ball" unicode="&#xe918;" d="M503 797a443 443 0 110-885 443 443 0 010 885zM761 70c68 100 80 240 28 371a120 120 0 10-184 146c-18 8-30 26-33 47a54 54 0 10-73 78c-31 8-62 13-94 12A383 383 0 00761 70z" horiz-adv-x="1000" />
<glyph glyph-name="book" unicode="&#xe93a;" d="M960 268l-66 22 2-1-365-133-350 370-86 28c-43-31-48-118-19-148L508-38l456 163c-41 23-75 88-4 143zM484 149L124 521h11l358-365-9-7z m27-174s-50 59 15 136l390 141s-45-77 8-122L511-25zM181 526l-12 12 364 129 361-377 66-22s0 0-1 0l8 2-426 442L97 553l84-27z" horiz-adv-x="1000" />
<glyph glyph-name="candle" unicode="&#xe958;" d="M455 310c-30 30-50 85-50 148 0 96 61 174 103 174s104-78 104-174c0-59-18-110-45-142 70 35 121 70 121 179 0 139-131 309-183 309-55 0-184-170-184-309 0-116 57-156 134-185z m212-64v48c-52-20-106-29-159-29 5 57 3 116-8 193l-4-193c-51 1-101 11-150 29V107c-6-50-44-59-43-104 1-38 29-50 43-34v-71h321V70c17-21 53-5 54 42 1 57-48 67-54 134z" horiz-adv-x="1000" />
<glyph glyph-name="castle_flag" unicode="&#xe95e;" d="M798 828V696h-92v132H555V696h-91v132H312V696h-91v132H70V607l129-123V124c70-91 171-174 309-254C649-49 751 39 820 131v353l130 123v221H798zM510 316H289v212l-91 86h312V316z m220-146A727 727 0 00512-14v327h218V170z" horiz-adv-x="1000" />
<glyph glyph-name="compass" unicode="&#xe972;" d="M787 596l55 96-97-55a379 379 0 01-534-534L156 6l96 55a379 379 0 01535 535z m-19 20zM498 347l-93 94 93-94 192 192-192-192zM308 540c91 90 229 103 333 38L404 443 270 207a270 270 0 0038 333z m381-381a270 270 0 00-333-39l177 101 59 33 1 1 135 237c65-104 52-243-39-333z" horiz-adv-x="1000" />
<glyph glyph-name="crown_of_thorns" unicode="&#xe97e;" d="M652 599C422 732 169 723 86 579s35-368 265-501S835-45 918 98c83 144-36 368-266 501z m204-438c-55-95-249-86-433 20S134 451 189 546s249 87 433-20 289-270 234-365z m-83 313c13 49 65 93 98 121-37 11-132-10-158-35zM275 686c-33 13-73 56-89 100-20-33-19-91-10-136z m248-29c-32 50-38 110-26 144-35-20-74-94-84-124z m87-560c42 25 64 92 61 126 28-27 42-105 44-135z m249 282c47-12 81-4 103 23 0-39-16-80-36-103zM88 360c-1-49-17-80-48-94 37-11 81-6 108 7z m283-155c-11 47 12 113 39 135-39 0-96-47-119-67zM556 7c34-35 37-84 25-116 33 19 69 69 79 98zM434 39c-49-1-103-57-125-83-1 38 25 116 38 143z m423 21c47-8 81-30 103-66 0 39-16 87-35 118zM141 492c33 14 92 12 134-8-9 38-51 78-89 103z m503 24c-35-4-85-35-112-73-11 37 5 92 26 134z" horiz-adv-x="1000" />
<glyph glyph-name="crown" unicode="&#xe97f;" d="M971 627L849 496l-46 162-101-140-49 109-81-144-80 139-67-141-96 146-38-129-110 147 3-174L24 627l137-445c24-50 140-88 344-92 216-5 348 34 371 92l95 445zM208 203a49 49 0 100 98 49 49 0 000-98z m169-46a49 49 0 100 97 49 49 0 000-97z m256 0a49 49 0 100 97 49 49 0 000-97z m188 46a49 49 0 100 98 49 49 0 000-98z" horiz-adv-x="1000" />
<glyph glyph-name="horseshoe" unicode="&#xea06;" d="M490 794C94 789 119 345 243-4c-29-18-34-13-31-33 2-15 24-46 34-51s18-5 33-4 118 17 96 44C282 83 128 664 499 681 870 664 717 83 623-48c-22-27 81-43 96-44s23-1 33 4 32 36 34 51c3 20-2 15-30 33 124 349 148 793-247 798-4 0-7 0-10 0s-6 0-9 0z m-89-43a24 24 0 100-49 24 24 0 000 49z m197 0a24 24 0 100-49 24 24 0 000 49zM264 637a24 24 0 100-49 24 24 0 000 49z m470 0a24 24 0 100-49 24 24 0 000 49zM214 450a24 24 0 100-49 24 24 0 000 49z m571 0a24 24 0 100-49 24 24 0 000 49zM231 250a24 24 0 100-49 24 24 0 000 49z m537 0a24 24 0 100-49 24 24 0 000 49zM271 86a24 24 0 100-49 24 24 0 000 49z m457 0a24 24 0 100-49 24 24 0 000 49z" horiz-adv-x="1000" />
<glyph glyph-name="hourglass" unicode="&#xea09;" d="M575 333v33c110 53 190 222 190 423H243c0-200 79-369 187-423v-33C322 280 243 111 243-89h522c0 201-80 370-190 422zM332 595c103-46 234-46 346 8-28-104-87-179-156-190 3-4 5-9 5-14a24 24 0 10-43 14c-67 12-124 83-152 182z m171-374a24 24 0 100 48 24 24 0 000-48z m24-53a24 24 0 10-48 0 24 24 0 0048 0z m-24 130a24 24 0 100 48 24 24 0 000-48zM356-33c115 194 179 199 298 0H356z" horiz-adv-x="1000" />
<glyph glyph-name="jigsaw_piece" unicode="&#xea12;" d="M962 70l-60 221c-28 36-82 10-96-29-12-31-99-48-127 56s63 119 96 92c28-23 100-23 78 60l-3 12a179 179 0 003-12l11-35-51 189-270-72c-38 17-51 61-21 87 61 50 20 187-101 154s-76-175-27-185c10-1 30-58 11-93l-206-55 55-204c-9-37-67-43-100-16-26 21-135-18-107-122s149-64 157-23c2 10 56 48 89 16l55-205 223 60c58 28 11 70-28 84-31 12-52 127 53 155s131-98 99-126c-8-7-26-84 31-72l-7-2 11 3a77 77 0 00-4-1l10 3a96 96 0 00-6-2l232 62z" horiz-adv-x="1000" />
<glyph glyph-name="kettlebell" unicode="&#xea14;" d="M753 472H626a158 158 0 11-284 95c0-36 12-68 32-95H247L57 29h886L753 472z m-253 0a95 95 0 100 190 95 95 0 000-190z" horiz-adv-x="1000" />
<glyph glyph-name="key_basic" unicode="&#xea15;" d="M443 819V344a234 234 0 0159-463 234 234 0 0158 462v183h117v88H560v88h176v117H443z m50-586a140 140 0 009 0 117 117 0 100-235 117 117 0 00-9 235z" horiz-adv-x="1000" />
<glyph glyph-name="key" unicode="&#xea16;" d="M854 589l20 31 47-29 34 48-84 58c-48-69-106-37-162 1l52 75-66 45-351-513-45 32c-48 33-106-50-58-84l45-32-6-9c-89 45-186 36-228-25C4 118 45 7 143-59s214-65 261 4c42 62 16 155-59 222l7 9 38-27c45-31 104 52 59 83l-40 28 205 298c54-37 108-79 65-141l84-58 56 83-52 32 21 35 54-34 35 51-73 46 21 35 29-18zM193-26a64 64 0 100 129 64 64 0 000-129z" horiz-adv-x="1000" />
<glyph glyph-name="lantern_flame" unicode="&#xea1c;" d="M847 472L544 686a67 67 0 01-43 118 67 67 0 01-45-118L154 472h693zM661-20l127 454H212L340-20h321zM521 383c102-81-16-132 31-191 20-25 59-4 68 43 25-90-23-195-118-195-41 2-76 34-98 82-33 124 174 168 117 261zM200-51h588v-56H200v56z" horiz-adv-x="1000" />
<glyph glyph-name="lit_candelabra" unicode="&#xea33;" d="M471 665c-6 9-10 21-8 36 8 67 61 78 73 0 3-16 0-28-5-37 17 11 27 34 22 69-18 110-97 98-110 0-4-33 9-56 28-68z m-233-8c-3 8-5 19-2 33 12 78 64 67 73 0 1-11 0-21-4-29 16 13 27 33 23 61-13 91-92 105-111 0-5-33 5-54 21-65z m554-271h-27v216c-7-6-15-8-22-10l-16 58-15-56c-8 2-15 5-23 8V386h-24c0-30 15-50 35-59v-57c0-39-30-70-69-70H530v126c20 9 36 29 36 60h-29v252c-7-3-14-5-21-7l-15 55-16-56c-8 1-16 3-24 8V386h-23c0-31 16-51 37-60V200H373c-39 0-71 32-71 70v56c21 9 37 29 37 60h-28v236c-8-4-15-6-23-8l-16 58-15-57c-7 2-15 4-22 7V386h-24c0-30 16-50 36-59v-57c0-69 57-126 126-126h102V-36c-44-7-80-30-80-70h215c0 40-37 63-80 70v180h101c69 0 125 58 125 126v56c20 9 36 29 36 60z m-94 241c-7 9-10 23-7 41 12 78 64 67 72 0 3-17-2-31-10-40 20 12 34 37 30 72-13 99-90 116-107 0-6-38 5-62 22-73z" horiz-adv-x="1000" />
<glyph glyph-name="match" unicode="&#xea3a;" d="M910 636c1-27-3-54-12-80-21 78-60 185-178 236-31 10-65 18-103 22 80-97 54-169 11-239 1 84-73 113-163 86 140 0 124-105 93-197-17-32-28-65-28-102 0-41 13-75 36-101L35-64v-47h117l514 321a99 99 0 0133-6 99 99 0 11-97 79l-19-12c-4 19-5 39 0 61 20 93 102 141 138 219 19-34 47-59 75-59 38 0 59 44 49 99 81-116 55-296-23-378 129 58 174 267 88 423z" horiz-adv-x="1000" />
<glyph glyph-name="medical_pack" unicode="&#xea3d;" d="M148 760c-64 0-117-52-117-117V57C31-8 84-60 148-60h704c65 0 117 52 117 117v586c0 65-52 117-117 117H148z m0-117h704V57H148v586z m293-117V409H324V291h117V174h118v117h117v118H559v117H441z" horiz-adv-x="1000" />
<glyph glyph-name="mirror" unicode="&#xea42;" d="M799 724h-34a399 399 0 01-263 104c-96 0-186-38-262-104h-34V-30h33c76-66 167-105 263-105S690-96 766-30h33v754z m-541-57h287L259 422V299l430 368h58V26H258v641z m1-641h60l427 365v215L259 188z" horiz-adv-x="1000" />
<glyph glyph-name="moon_sun" unicode="&#xea45;" d="M969 417l-195 74 33 206-197-69-106 180-107-180-197 69 34-206-195-73 158-137L95 100l209-3 38-205L504 24l161-132 39 205 209 3-102 181 158 136zM515 53a282 282 0 10189 491c-17 6-36 11-54 13-8 1-16 0-23 0a222 222 0 1179-428c-50-47-117-76-191-76z" horiz-adv-x="1000" />
<glyph glyph-name="nails" unicode="&#xea4a;" d="M929 516l24 24-213 213-24-24 57-93-49-50 40-41-64 17-21-21 41-41-65 17-21-21 41-42-66 17-111-111-276 276 59 93-24 24L44 540l24-24 93 58 46-46 41 40-17-64 21-21 42 41-17-66 20-21 43 43-18-67 114-115L172 34 129-70l104 42 265 265L763-28l104-42-42 104-265 264 276 276z" horiz-adv-x="1000" />
<glyph glyph-name="noose" unicode="&#xea4c;" d="M590 438c15 1 27 14 27 29v176c0 16-13 29-29 29h-29v117c0 17-14 30-30 30h-58c-16 0-30-13-30-30V672h-29c-16 0-29-13-29-29V467c0-15 12-28 27-29-101-176-203-226-203-293 0-176 142-264 293-264s293 88 293 264c0 67-102 117-203 293zM500-31c-88 0-176 88-176 176 0 29 147 176 176 264 29-88 176-235 176-264 0-88-88-176-176-176z" horiz-adv-x="1000" />
<glyph glyph-name="ocarina" unicode="&#xea4e;" d="M882 751C620 780-84 339 120 92 225-35 351-36 470 29L574-81c47-4 78 13 83 66l-70 131c190 176 334 487 295 635zM764 601c26 0 47-19 47-42s-21-41-47-41-47 18-47 41 21 42 47 42z m-72-143c26 0 47-18 47-41s-21-42-47-42-48 19-48 42 22 41 48 41z m-95-115c26 0 47-19 47-42s-21-42-47-42-47 19-47 42 21 42 47 42zM318 56c-26 0-47 18-47 41s21 42 47 42 47-18 47-42-21-41-47-41z m9 253c-31 0-56 22-56 49s25 50 56 50 56-22 56-50-25-49-56-49z" horiz-adv-x="1000" />
<glyph glyph-name="pawn" unicode="&#xea57;" d="M712 119c-5 31-29 58-65 79-95 61-112 164-68 232 56 17 95 49 95 87 0 34-32 64-80 82a135 135 0 01-95 231 135 135 0 01-95-231c-48-18-80-48-80-82 0-38 39-71 97-87 45-68 25-170-73-233-35-21-57-48-62-78-62-26-101-64-101-106 0-79 141-144 314-144S813-66 813 13c0 42-39 80-101 106z" horiz-adv-x="1000" />
<glyph glyph-name="pill" unicode="&#xea60;" d="M906 603a183 183 0 01-250 67C366 501 457 556 161 385A183 183 0 01344 67c296 173 204 118 495 286 87 50 117 163 67 250z m-77-226L587 237c14 8 21 19 25 34 34 19 77 45 166 95a146 146 0 0153 198c-4 7-8 12-13 18 21-64-4-137-65-172-70-40-112-64-143-82-13 53-51 115-92 154-59-35-82-49-230-134-60-34-86-105-66-169-1 1-2 1-2 1a146 146 0 00-14 150l-1 1c13 25 32 46 58 61 131 75 164 94 210 121-17 8-33 8-46 1l243 140c163 94 325-182 159-277z" horiz-adv-x="1000" />
<glyph glyph-name="pills" unicode="&#xea61;" d="M936 132c-15 56-73 89-129 74-186-50-127-35-316-85a105 105 0 1154-203C734-31 675-46 861 3c56 15 90 73 75 129zM862 23L736-11c-63-17-106 153-45 169l126 34c101 27 145-143 45-169zM411 543a87 87 0 01-123 0c-115-115-79-80-192-192a87 87 0 11123-123c113 113 77 77 192 192 34 34 34 89 0 123zM202 232c-62-62-164 42-103 103l90 90c-30-29 68-138 103-103l-90-90z m603 171c-49 179-32 123-81 305a101 101 0 01-195-53c49-182 33-125 81-304a101 101 0 01195 52z m-178-50l-37 141c14-55 174-3 161 44l38-142c25-95-136-140-162-43z" horiz-adv-x="1000" />
<glyph glyph-name="ping_pong" unicode="&#xea63;" d="M238 304C285 150 131 90 24-17c25-83 24-83 107-107C238-17 292 143 453 90L238 304zM885 92c0-74-61-134-136-134S613 18 613 92s61 134 136 134 136-60 136-134z m-285 7a143 143 0 00227 112c143 123 228 311 35 503-375 375-731-303-624-410L453 90c25-25 81-25 148-5a140 140 0 00-1 14z" horiz-adv-x="1000" />
<glyph glyph-name="potion" unicode="&#xea72;" d="M903 334c-9 50-53 67-93 59v192l22 18-12 9 60 62c0 66-110 142-180 127l-38-78-15 10-32-93s0-1 1-2C513 469 319 436 172 384 19 329 112 63 248-32s418-93 417 70c0 155-35 349 90 503 0 0 0 0 1 0l38 31V389a91 91 0 01-57-111l47-249 167 56-48 249zM567-30L419-53 263-2 158 126l-33 168h507l2-246-67-78z m251 294a48 48 0 100 96 48 48 0 000-96z" horiz-adv-x="1000" />
<glyph glyph-name="quill_ink" unicode="&#xea75;" d="M969 823c-186-7-336-47-451-109l-57-96-10 54c-21-14-40-29-57-45l-29-88-10 49a433 433 0 01-113-328H98v-96h79L92 90 49-76l28-31h346l28 31-43 166-80 74h69v96H270c50 26 98 61 146 103l-58-3 105 45c91 85 182 185 279 269l-48 10 111 42c52 39 107 73 164 97z" horiz-adv-x="1000" />
<glyph glyph-name="ringing_bell" unicode="&#xea83;" d="M786 253c0 95-61 81-100 226-40 149-73 224-151 241a43 43 0 014 17 44 44 0 01-87 0 43 43 0 014-18c-75-18-108-93-147-240-39-145-100-131-100-226 0-26 31-48 78-64a49 49 0 01-1-13 49 49 0 0197-7c36-4 75-7 114-7 151 0 289 34 289 91z m-57-44s1 0 1 0h-1zM627 480c32-140 103-169 106-236l-86-31c6 86-66 113-65 226 1 128-37 209-83 242 78-8 110-124 128-201z m262 20c31-88 35-205 2-326a552 552 0 00-175-290 400 400 0 01227 273c34 129 10 256-54 343z m-39-319c26 96 1 192-57 259 30-67 36-155 12-245-25-94-78-169-141-211 87 28 160 99 186 197zM664-16zM108 174a566 566 0 002 326c-64-87-88-214-54-343a400 400 0 01227-273 552 552 0 00-175 290z m86 21c-24 90-17 178 12 245-58-67-83-163-57-259 26-98 99-169 186-197a367 367 0 00-141 211zM335-16z" horiz-adv-x="1000" />
<glyph glyph-name="rune_stone" unicode="&#xea89;" d="M384 111l-2-1-198 386 1 1 92 319L51 587 207-27l426-101L749-22zM202 496l190-370L762-9h1l218 409-143 265-540 165-96-334z m250-141c10 17 37 19 60 6s35-38 26-55c-10-16-37-18-60-5s-35 38-26 54z m341 5c13 63 13 126-17 187 76-34 104-130 17-187z m-31 27c-55 133-181 260-323 226-123-29-10-157 129-191 153-37 329-162 212-285-107-114-310-4-294 132 35-64 160-167 236-85 106 115-152 183-239 220-89 39-271 168-158 260 167 136 471-59 437-277z m-263 90c-113 83-60 127 49 107-49-22-59-61-49-107z" horiz-adv-x="1000" />
<glyph glyph-name="sheriff" unicode="&#xea95;" d="M952 469a64 64 0 01-124 3l-163 45-45 163a64 64 0 11-66 17L434 578l-164 44a64 64 0 11-48-49l44-163-121-122a64 64 0 1118-64l164-45 45-165a64 64 0 1164-17l122 120 164-43a64 64 0 1148 47l-44 165 119 120a64 64 0 01107 63zM443 157a203 203 0 0015 395 184 184 0 11226-276 203 203 0 00-241-119z" horiz-adv-x="1000" />
<glyph glyph-name="ship_emblem" unicode="&#xea97;" d="M495 801a446 446 0 110-891 446 446 0 010 891z m0-827a385 385 0 100 770 385 385 0 000-770z m44 721h-88l-56-352-161-49V194h155l36-35h-38V78h216v81h-38l36 35h155v100l-161 49-56 352z m6-314H445c0 194 100 194 100 0z" horiz-adv-x="1000" />
<glyph glyph-name="shotgun_shell" unicode="&#xea9a;" d="M266 760V174c0-58 0-58 58-58h352c58 0 58 0 58 58v586c0 59 0 59-58 59H324c-58 0-58 0-58-59z m117-58h234V291H383v411zM292 28h416c15 0 26-12 26-26v-95c0-14-11-26-26-26H292c-15 0-26 12-26 26V2c0 14 11 26 26 26z" horiz-adv-x="1000" />
<glyph glyph-name="slash_ring" unicode="&#xeaa2;" d="M921 168c105 182 17 430-195 553-213 123-470 74-576-108-10-18-17-36-23-55 111 154 301 213 443 131 153-89 192-309 86-492A424 424 0 00451 14c186-57 382 1 470 154zM638 584c-93 139-293 143-447 11C38 463-12 243 81 105c8-14 19-25 30-36-70 135-50 304 52 392 111 96 276 61 369-78 44-67 63-145 60-218 100 130 123 303 46 419zM164 424c-95-95-93-278 2-402s250-148 346-54C420-89 346-83 260 9c-76 83-47 240 48 335 46 45 100 69 152 73-81 83-216 86-296 7z" horiz-adv-x="1000" />
<glyph glyph-name="snorkel" unicode="&#xeaa6;" d="M778 643v117c0 29 0 59-29 59h-59c-29 0-29-30-29-59V643c-16 0-29-13-29-29v-59c0-16 13-29 29-29V116a117 117 0 10-234 0s29 29 29 58 88 59 88 88-29 29-29 29-88-88-147-88-146 88-146 88-30 0-30-29 88-59 88-88 30-58 30-58a234 234 0 11468 0v410c17 0 30 13 30 29v59c0 16-13 29-30 29z" horiz-adv-x="1000" />
<glyph glyph-name="soccer_ball" unicode="&#xeaa8;" d="M741 731A455 455 0 11253-36a455 455 0 11488 767zM314 141l-150-24-78 197 94 115 137-90-3-198z m134 640l-60-95-177-89-53 40c39 67 183 139 210 136 38 19 82 10 80 8zM768 70L660-52 482-73 466 42l178 94 124-66zM649 312l-168 99 39 196 186-1 89-177-146-117z m154 353l-66 17-72 70s127-59 138-87z m84-487l9 176 32 60c13-8 11-194-26-252-25-15-15 16-15 16z" horiz-adv-x="1000" />
<glyph glyph-name="spray_can" unicode="&#xeab6;" d="M387 305c0 39-34 70-84 85v31c-4-5-10-9-17-9-13 0-24 11-24 24s11 24 24 24c7 0 13-3 17-8v32c0 13-27 23-59 23s-60-10-60-23v-94c-49-13-84-44-84-85 0-3 1-7 3-10h-2v-430h286v430h-3c2 3 3 7 3 10z m575 404c-34 79-137 91-193 21-74 154-275 46-223-82-51-5-81-54-75-98 20-62 66-88 120-89-53-13-107-10-141 35l-158-60 210-100c34 38 85 40 135 27-39-1-74-14-98-45h1a80 80 0 01-7-9 132 132 0 01-4-7c-24-46 23-92 71-82-44-71 36-126 93-111-19 50 5 97 43 135-28-48-27-102 19-151 51-36 145-30 162 55 13-14 41-25 56-27v593l-11-5zM643 530c2 48-7 77-43 105 47-17 93-16 145 15-52-44-81-60-102-120z m160-92c-48-14-86-68-68-122-59 53-10 138 48 146-18 30-19 71 15 101-23-68 43-136 106-123-31-34-73-27-101-2z" horiz-adv-x="1000" />
<glyph glyph-name="stopwatch" unicode="&#xeab9;" d="M499 690a399 399 0 110-799 399 399 0 010 799z m0-730a331 331 0 102 662 331 331 0 00-2-662z m71 341c-1 1-1 1-1 2-2 11-7 21-13 29l92 249-149-220a72 72 0 01-15-2 72 72 0 1170-117l254-40-238 99zM332 828h316V711H332v117z" horiz-adv-x="1000" />
<glyph glyph-name="syringe" unicode="&#xeac2;" d="M565 385v78c0 7-3 16-24 16s-24-9-24-16v-78c0-6 4-13 24-13s23 7 23 13z m-77-499l-6 228c-28 1-44 1-59 5-10 2-15 10-15 21v327c0 8-1 12-13 12-20 0-100-1-100-1l15 26c2 4 5 8 12 8 5 0 46-5 73-2 14 1 21 3 27 12 11 17 9 58-11 86-5 7 0 13 9 11 18-7 50-6 50-6v160c0 6-3 9-10 9H346s16 31 38 34c25 3 77 3 116 3s91 0 116-3c22-3 38-34 38-34H540c-7 0-10-3-10-9V613s31-1 50 6c9 2 14-4 9-11-20-28-22-69-11-86 6-9 13-11 27-12 27-3 68 2 73 2 7 0 10-4 12-8l15-26s-80 1-100 1c-12 0-13-4-13-12V140c0-11-5-19-15-21-15-4-31-4-59-5l-6-228c0-4-5-5-12-5s-12 1-12 5z m-29 486c20 0 24 7 24 13v78c0 7-3 16-24 16s-23-9-23-16v-78c0-6 4-13 23-13z" horiz-adv-x="1000" />
<glyph glyph-name="three_keys" unicode="&#xeacc;" d="M383 316h228v-54h70v-66h47v106h48V196h57v120h61v87H381c-18 64-71 111-133 111-77 0-140-71-140-158s63-159 140-159c65 0 120 51 135 119z m-178-1a42 42 0 100 84 42 42 0 000-84z m92 318h228V513h51v70h48v-70h123v51h-63v56h63v13h60v87H295c-18 64-71 111-133 111-78 0-140-71-140-158s62-159 140-159c65 0 119 51 135 119zM82 673c0 51 36 93 80 93s79-42 79-93c0-52-36-94-79-94s-80 42-80 94zM980 12v67H477L357 186l-121-67V-61l121-65L477-9h235v-16h82v-48h-82v-56h268v93h-86v48h86zM317 1a29 29 0 100 59 29 29 0 000-59z" horiz-adv-x="1000" />
<glyph glyph-name="torch" unicode="&#xead1;" d="M42-62l318 373 125-137L84-108 42-62z m329 412l154-169 146 98-190 208-110-137z m559 400c-11-59-244-211-161-33-157-89-210-46-153 11-107-6-123-172-108-219l34-38c-4 61 1 95 38 140 27-40 36-66 101-14-18-104 107-36 173-21-29-27-68-64-75-108-3-15 12-35 27-50-18-5-81-18-75-51 6-34 24-23 7-30-24-6-42-11-78 4l37-40c56-29 144-15 163 29-29 2-53 9-64 22 86 16 130 77 167 147-65-37-82-35-109-32 69 28 91 212 76 283z" horiz-adv-x="1000" />
<glyph glyph-name="trophy" unicode="&#xead7;" d="M676-15c-109 58-152 163-35 184-62 13-89 36-46 70 31 14 60 35 86 61 13-9 25-20 36-31a584 584 0 00-25-24l32-57a696 696 0 01214 555l-53-15a639 639 0 001-44h-50a813 813 0 012 58h-19c-6 26-147 48-319 48-173 0-314-22-320-48h-19c0-20 0-39 2-58h-51a751 751 0 001 46l-52 12a696 696 0 01213-554l31 57a492 492 0 00-24 21c11 12 24 23 38 33 26-25 54-46 85-60 43-34 16-57-46-70 117-21 74-126-35-184-47-8-76-20-76-32 0-25 113-45 252-45s253 20 253 45c0 12-29 24-76 32zM500 777c126 0 229-16 234-35a6 6 0 001-2c0-4-5-9-15-12a107 107 0 00-22-8c-5-1-11-2-17-3a477 477 0 00-15-3 658 658 0 00-21-3 671 671 0 00-59-5 1307 1307 0 00-33-2c-17 0-35 0-53 0s-37 0-54 0a1320 1320 0 00-33 2 1148 1148 0 00-21 2c-11 0-23 2-33 3a818 818 0 00-5 0 653 653 0 00-21 3 479 479 0 00-15 3 332 332 0 00-39 11c-10 3-15 8-15 12a6 6 0 000 1 7 7 0 001 1c5 19 108 35 235 35z m383-146a596 596 0 00-126-317c-11 12-23 23-35 33 54 73 93 172 109 284h52z m-715 0c16-113 55-212 110-285-14-11-26-23-38-36a578 578 0 00-125 321h53z" horiz-adv-x="1000" />
<glyph glyph-name="wooden_sign" unicode="&#xeae9;" d="M936 158l-13 140-292 7 290 19-17 193-289 7 313 20-3 143-383-8-2 80c-3 57-157 50-154-11l2-73-341-7 3-139 320-8-307-19-6-207 17-4-16-152 345 8 8-282h153l-7 285 379 8z" horiz-adv-x="1000" />
<glyph glyph-name="wrench" unicode="&#xeaea;" d="M947 585L741 380l-175 47-47 175 205 205a311 311 0 01-373-397L33 93v-203h196l321 321a311 311 0 01397 374z" horiz-adv-x="1000" />
<glyph glyph-name="beetle" unicode="&#xe92b;" d="M910 201l42 3c-22 17-42 31-60 71-11 50-28 96-105 112 4-5 7-10 10-15-17 6-34 6-52 1 0 1 0 1 0 2 0 37-4 73-13 106 30-5 56 0 77 19a329 329 0 00-3-19c55 39 64 74 62 109 7 42 23 62 40 84l-48-10c1 22 7 45 27 69-139-10-70-77-76-205l-85-22c-24 77-68 139-123 174a115 115 0 019 7 70 70 0 01121 48 70 70 0 01-116 54c-25 25-69 41-119 41-49 0-93-16-118-41a70 70 0 115-102 115 115 0 019-7c-55-35-99-97-123-174l-87 22c-6 128 64 195-75 205 19-24 26-47 26-68l-45 9c15-21 30-39 38-77-3-37 3-74 62-116a330 330 0 00-3 19c21-19 47-24 78-18-9-34-13-70-13-107 0-1 0-2 0-3-18 6-36 6-53 0a272 272 0 009 15c-80-16-95-66-106-118-17-35-36-49-57-65l40-2c-9-23-23-44-50-57 130-47 93 75 148 196l70-1c4-47 15-92 31-131-33-10-57-27-68-55-44-45-24-75 15-112 13-37 9-61 5-87l39 34c7-28 4-49 1-71l42 37c14-17 26-36 37-58 44 133-93 150-119 236l57 56C337 99 413 39 498 39c86 0 161 59 205 149l57-55C733 47 596 30 641-103c10 22 22 40 36 57l41-36c-3 22-6 43 1 71l38-34c-3 26-7 49 5 85 41 38 62 68 17 114-10 28-33 45-67 54 17 40 28 85 32 132l69 1c54-121 18-243 147-196-26 13-41 33-50 56z m-566 51l-20 296 45 15-25-311z m79-106l-20 435 44 23-24-458z m158 0l-25 458 45-23-20-435z m54 417l45-15-21-296-24 311z" horiz-adv-x="1000" />
<glyph glyph-name="cat" unicode="&#xe95f;" d="M904 813l-68-112c-59 19-146 15-201 0l-66 111c-108-202-77-329 5-392-12-8-25-17-39-26C192 667-117 359 86 84h1c37-53 79-86 124-103 64-24 130-17 195-8S534-6 595-10c60-5 121-20 176-81 38-41 92 4 47 47-69 67-142 93-214 98s-140-9-203-18c-62-9-117-13-165 5-22 9-44 22-64 43h703c33 117 37 241-1 320 114 59 159 199 30 409zM693 510c-72-35-105-6-119 52 71 44 113 9 119-52z m90 0c6 61 49 96 120 52-14-58-47-87-120-52z" horiz-adv-x="1000" />
<glyph glyph-name="bird_claw" unicode="&#xe92e;" d="M820 474c-7 11-17 21-31 29a83 83 0 01-79 4c-61-30-121-44-182-55-15 6-20 18-10 38 37 35 81 64 124 79 36 4 64 33 75 67 46 10 100 6 134-31-22 133-99 147-168 131a105 105 0 01-7 4c-60 33-115-8-130-59-12-30-26-59-42-85-68-61-133-37-182 30-39 55-73 128-92 196H33V686c111-52 273-243 238-299-39-19-81-35-129-51a82 82 0 01-16-5s-1 0-1 0v-1c-42-18-68-71-54-115C33 141 37 43 185 17c-43 41-52 94-37 138 45-6 83 28 95 68 16 41 41 78 81 91 44 14 175-39 240-148 6-19 20-36 42-48 22-13 44-15 63-10 36-40 67-100 53-157 105 95 71 180 17 239 5 33-8 67-45 87a87 87 0 01-52 12c-31-1-66 5-98 16-43 31-40 61-4 80 53 5 106-12 148-33a106 106 0 0112-9c51-28 97-4 120 35 42-11 81-49 105-96 44 134-27 185-105 192z" horiz-adv-x="1000" />
<glyph glyph-name="butterfly" unicode="&#xe953;" d="M971 424c-178 100-374 64-523-93 177-97 374-63 523 93zM113 773c195-55 307-218 302-432-192 56-307 218-302 432z m322-478C601 229 656 95 582-62 418 4 361 139 435 295z m-31 11c-162 66-295 9-356-151 160-65 295-9 356 151z" horiz-adv-x="1000" />
<glyph glyph-name="dinosaur" unicode="&#xe99b;" d="M946 540c-50 44-102 84-155 118-13 49-119 150-183 93-46 68-141 69-208 40-204 16-320-76-364-244v-663h369a553 553 0 0056 306c75-19 163-37 264-58 80-17 111 35 131 127l-62-42-20 87-89-61-21 93-84-57-21 93-85-58-30 129 138 94 21-92 86 57 21-93 84 57 20-86 89 60 15-67c40 53 68 130 28 167z" horiz-adv-x="1000" />
<glyph glyph-name="dragon" unicode="&#xe9a2;" d="M926 393c-92 9-160 60-182 132-13 42-65 72-124 90-64 158-107 244-306 222 71-56 129-132 158-201-57 17-111 25-162 28-109 24-232-26-269-143v-628h415C185-9 113 487 398 393c-5-15-10-29-15-43C447 184 605 37 714 23c13-1 33 5 56 16a63 63 0 00-13 5c-24 14-36 43-35 76-23-12-47-14-67-2-28 16-38 56-25 98-23-6-44-2-57 12-18 17-19 46-6 74-8 1-14 4-19 9-17 17-11 51 13 75 25 25 58 31 76 13 7-7 10-18 9-30 22 6 43 2 56-12 12-12 17-29 14-48 17 4 33 3 47-5 18-10 29-31 31-55 29 20 62 25 88 11 30-18 42-58 33-101 46 65 67 147 11 234z" horiz-adv-x="1000" />
<glyph glyph-name="dragonfly" unicode="&#xe9a3;" d="M856 234c-94 69-160 99-244 130 8 19 12 38 12 54a83 83 0 0135 3 43 43 0 0110-15 43 43 0 0161 61 43 43 0 01-16 10 83 83 0 01-103 103 43 43 0 01-10 18 43 43 0 11-62-62 43 43 0 0117-10 83 83 0 01-3-41c-16 0-33-4-50-12-30 76-60 139-124 227-96 129-206 123-146-44 0-1 0-1 0-2-105 71-179 30-89-108 58-90 163-216 244-228 0-14 3-28 10-39C301 204 117 56 51 19 23-72 46-136 162-93c35 67 188 254 264 348 12-5 26-7 42-5-1-82 134-195 228-257 143-93 183-10 101 101a863 863 0 0116-6c166-60 172 51 43 146z" horiz-adv-x="1000" />
<glyph glyph-name="eye_monster" unicode="&#xe9b3;" d="M755 150a376 376 0 01-257 655 378 378 0 01-256-655h-6C184 61 226-9 284-77c-14 57-23 115 14 185a376 376 0 0122-13c-22-83 3-151 53-209-8 53-10 111 16 180a374 374 0 0119-5c4-71 26-136 55-200-3 62 2 125 18 189a383 383 0 0117 0c6 0 12 0 18 0 16-64 21-127 18-189 29 64 52 129 55 200a376 376 0 0119 5c26-69 24-127 16-180 50 58 75 126 53 209a377 377 0 0122 13c37-70 28-128 14-185 59 68 100 138 49 227h-7zM263 363a235 235 0 10471 0 235 235 0 00-471 0z m284 56a71 71 0 00-64 102 142 142 0 11134-47c-8-31-36-55-70-55z m-45-124a46 46 0 100 93 46 46 0 000-93z" horiz-adv-x="1000" />
<glyph glyph-name="fairy" unicode="&#xe9b7;" d="M981 507c-154 79-302 31-409-67a190 190 0 01-155 44c-47 154-153 297-313 340C-46 537 3 281 221 245A290 290 0 01117 17c119-37 204-8 258 58a210 210 0 00-6 395 191 191 0 11225-53A209 209 0 00404 67c7-95 60-173 175-197 44 67 54 147 28 247C797-7 961 169 981 507z" horiz-adv-x="1000" />
<glyph glyph-name="fish" unicode="&#xe9c5;" d="M967 323C838 544 711 619 586 605l-52 117-49-139-98 58-2-123-90-4 24-59c-34-32-68-67-102-105L36 438l87-148-71-76 71-5L44 92l211 126 171-82-97-34 69-27-64-44 102-2-9-91L543 79a778 778 0 0112 0c1 0 1 0 2 0 4 0 8 0 12 1 0 0 0 0 1 0a709 709 0 0111 0s1 0 1 0a708 708 0 0111 1c1 0 1 0 2 0a679 679 0 0122 3c1 0 1 0 2 0a635 635 0 0111 1s0 1 1 1a631 631 0 0110 1 616 616 0 0111 2s1 0 1 0a571 571 0 0110 2 581 581 0 0111 2 549 549 0 0110 3s1 0 1 0a544 544 0 0119 5s1 0 1 0a509 509 0 019 3c4 1 7 2 10 3a497 497 0 019 3 481 481 0 0118 7 456 456 0 0125 10 351 351 0 01191 196z m-263 71c9 33 43 53 76 44a62 62 0 0017-7c-1 0-1 0-1 0-20 0-35-15-35-34s15-34 35-34c13 0 24 7 30 17a62 62 0 00-2-19 62 62 0 00-120 33z" horiz-adv-x="1000" />
<glyph glyph-name="fox" unicode="&#xe9d5;" d="M841 430l-119-47 28 81-44-23c-22 129-39 257-30 386-48-64-89-144-118-224H404c-36 84-83 158-130 231 9-138 4-267-7-394l-46 24 28-81-119 47 103-106-80-5c59-38 133-63 176-116 55-78 85-155 88-304 44-20 99-19 139 0 10 152 30 220 84 301 42 55 118 80 178 119l-80 5 103 106zM421 174c5 79-30 125-101 141 32 38 67 33 103-4 35-36 28-92-2-137z m131 0c-28 45-32 101 4 137 35 35 69 41 99 9l-1-6c-69-18-104-63-102-140z" horiz-adv-x="1000" />
<glyph glyph-name="gecko" unicode="&#xe9de;" d="M899 372c-26 66-80 52-52-20l4-10c-53-13-76 11-93 51 7 41 8 83 2 123-2 20 10 30 23 40 16 0 32 5 46 15a44 44 0 0151 71 45 45 0 01-4 3c61 161 2 210-137 104a45 45 0 01-3 2 44 44 0 01-54-69c-9-28-2-56 14-78-1-14-6-24-20-35-18-14-37-32-56-53-43 22-77 57-105 97l4 1c72 31 44 79-22 51-32 77-78 45-50-21-81-34-55-83 21-51l4 1c27-54 64-93 112-122-34-45-64-98-85-156-68 53-131 36-203-20l-1 2c-44 70-93 44-47-29-60-39-40-91 30-47 38-60 88-36 47 30l-4 6c71 32 123 21 154-41-2-18-3-37-2-56C411 54 310-51 200 15c-90 54-139 269-32 319C-6 306 27 25 146-60c134-98 345-19 441 131 18 18 36 38 52 59 55-19 92-67 106-130h-3c-78 5-75-50-4-55-5-82 51-75 55-3 87-6 86 50 4 55h-7c5 93-41 156-102 206 21 37 39 77 52 117 29-33 71-39 128-21 31-75 83-59 51 22 67 26 57 81-20 51z" horiz-adv-x="1000" />
<glyph glyph-name="hydra" unicode="&#xea0b;" d="M603 803c66-14 107-43 129-77-30 6-60 9-89 11l-37 34-37-32a723 723 0 01-44-2l-57 32-29-45c-16-3-31-7-47-12l-57 29-22-60a549 549 0 01-50-27l-64 10-1-56a570 570 0 01-36-33H94l7-71a670 670 0 01-25-36l-40 7v-587h36C118 69 256 142 401 54 484 5 584-67 692-26c-2-15-6-30-13-44l186-37c5 15 11 30 14 46-6-5-20-10-38-7-81 13-65 106-1 114 21 3 41-6 54-22l35 76c-133-12-252 60-385 32 69-14 111-46 132-82-14-1-28-1-41 0l-21 20-27-13a250 250 0 00-34 11l-15 30-21-11c-14 8-27 18-40 29l-3 52-38-9c-15 14-30 26-45 35l-2 39-47-19c-22 6-45 6-68 1 86 176 261 180 353 126-11-11-23-20-36-27l130-138c13 9 27 18 39 29-9 0-28 9-34 15-68 62 13 125 64 95 18-11 30-29 31-49l68 47c-116 67-166 190-290 244 45-49 62-96 60-136-17 13-36 23-56 31l-27 42-35-25a318 318 0 01-31 3l-37 35-30-38c-16-2-31-5-47-9l-30 25-19-40a523 523 0 01-41-17l-46 16-17-50c-24-16-47-33-68-51 67 268 403 333 576 295a125 125 0 00-13-37l186-38c6 15 11 31 15 46-7-4-15-10-24-9-90 12-85 107-16 117 21 3 41-7 54-22 2 20 3 69 4 89-133-12-221 47-354 19z" horiz-adv-x="1000" />
<glyph glyph-name="insect_jaws" unicode="&#xea0f;" d="M930 398c-49-3-108 15-155 52-29 23-49 49-59 75 48 38 76 89 76 145 0 9-11 18-30 25-3-10-9-21-17-31a86 86 0 00-5-4c-24-23-58-28-76-12 0 1 0 1 0 1a32 32 0 00-2 2 32 32 0 00-2 3 32 32 0 00-2 3 33 33 0 00-1 3s0 0-1 0a35 35 0 000 3c-1 0-1 0-1 1a37 37 0 000 2c0 1 0 1 0 1a40 40 0 00-1 3 43 43 0 000 4 46 46 0 000 3 51 51 0 001 4 54 54 0 000 4 58 58 0 001 4 61 61 0 002 3c0 1 0 1 0 1a66 66 0 001 3c0 1 0 1 0 1a70 70 0 002 3s0 1 0 1a74 74 0 002 3 80 80 0 009 13c-29 4-61 7-94 10a483 483 0 01-78 6c-16 0-32-1-47-2-47 0-92-3-131-8 1-1 1-1 2-1 5-6 10-11 13-17a73 73 0 002-4s1 0 1 0a71 71 0 001-4 66 66 0 002-4 64 64 0 001-4 57 57 0 002-8 48 48 0 001-7 43 43 0 000-4 40 40 0 00-1-3 37 37 0 00-1-4 35 35 0 00-1-3 33 33 0 00-1-3 32 32 0 00-2-3 32 32 0 00-2-3 32 32 0 00-2-2c-18-17-52-12-77 11a86 86 0 00-4 5 69 69 0 00-18 37c-19-9-30-19-30-32 0-55 29-106 75-144-10-26-29-53-59-76-47-37-106-55-155-52A413 413 0 01361-63c-53 41-52 138-13 186-170 136-98 282 69 341 2-1 5-1 7-2-22-23-35-55-35-91 0-60 38-110 90-123-16 18-28 52-28 91 0 58 25 105 56 105s56-47 56-105c0-39-11-73-28-91 52 13 91 63 91 123 0 37-14 70-38 94a366 366 0 018 2c164-54 207-215 55-344 49-48 29-144-13-186a414 414 0 01300 388c0 25-3 49-8 73zM328 599c20 17 60 17 90 1 29-16 38-43 19-60-20-17-60-17-89-1-30 16-39 43-20 60z m255 1c30 16 70 16 89-1 20-17 11-44-19-60s-69-16-89 1c-19 17-11 44 19 60z" horiz-adv-x="1000" />
<glyph glyph-name="lion" unicode="&#xea32;" d="M755 471c-13 45-46 74-111 104 23 115-32 180-137 241l9-84a500 500 0 01-275 96c-32-2-65-7-99-17l116-122c-63 0-169-9-228-53l63-102-72-37V365l77-44-77-67v-90c56 5 131-3 198 19-48-55-63-135-119-205 75 3 151 13 231 57l-19-150C441-67 568 54 557 157l1 8a192 192 0 0124-12l227-80c12 27 26 54 40 81a79 79 0 00-29-6 80 80 0 1079 94c23 40 48 80 74 119L755 471z" horiz-adv-x="1000" />
<glyph glyph-name="love_howl" unicode="&#xea36;" d="M964 531c-8 270-335 361-471 125C412 886 32 805 41 531c2-75 32-142 76-203l207 70c-38 2-79 18-134 63 63 37 113 41 178 46 52 28 129 52 164 34 60 36 135 82 211 111 10-39 11-87 7-132l-20 27c-101-23-151-220-1-138l20 33c4-31 7-60 0-85-66-47-134-86-201-117A505 505 0 01425 28c39-39 68-77 78-114 41 150 470 343 461 617z m-530-45c26 13 53 19 84 17 9-62-50-54-84-17z" horiz-adv-x="1000" />
<glyph glyph-name="maggot" unicode="&#xea37;" d="M920 461c17 80-32 149-110 129 22 64-16 120-67 144-41 19-89 18-122-14-33 102-182 129-222 10-61 63-191-20-172-103-103 50-186-125-117-192-88-20-79-158-8-183-62-84-15-152 62-151 8-39 24-62 42-75l-16-11c21-15 51-15 79-4 77-71 189-102 250 17-75-60-150-25-198 26 10 16 14 34 7 54l-15-11c-6 20-23 41-55 60 12 32 6 74-20 108 43 33 43 76 21 119 43 20 62 47 63 98 6 7 14 8 19-5 42-102 78-89 67 14-3 27 62 21 58-10-13-120 23-150 59-12 11 41 64 7 54-15-49-112-25-126 50-35 29 35 59-12 42-33-74-86-69-110 25-56 7 4 15 7 25 9-7-25-9-50-2-73-56-53-57-151 8-232-44 106-11 158 37 171 15-10 34-18 58-23 18-4 35-6 49-5 35-34 38-94-48-165 102 36 131 112 107 186 76 56 60 211-10 263z" horiz-adv-x="1000" />
<glyph glyph-name="octopus" unicode="&#xea50;" d="M939 318c-45 47-107 58-132-26 59 40 118-52 66-92-43-34-120-38-169-11-60 33-104 74-136 130 111-27 233 2 278 88 124 235-123 392-222 238-35-55-19-120 69-116-57 43-4 124 52 89 45-29 44-101 19-151-30-59-118-99-186-48-66 126-18 317-210 379-284 92-380-342-35-401-57-1-108-15-179-50C-37 253 1-53 197-20c67 12 100 98 1 128 33-58-54-92-81-4-22 71 41 146 102 166 59 19 108 21 161 11-72-67-110-157-83-241 87-264 375-161 318 13-20 62-81 91-133 20 69 17 98-76 36-96-52-17-118 26-129 80-15 73 38 151 107 186 43-69 75-95 162-141 167-88 415 72 281 216z" horiz-adv-x="1000" />
<glyph glyph-name="rabbit" unicode="&#xea76;" d="M749 663a193 193 0 01-32-2c-138 62-183 153-245 153-53 0-50-98 153-203 0-1-1-1-1-2-16-21-218 97-281 97-84 0 39-199 240-168 20 3-9-28-7-46a76 76 0 014-16c-196 5-318-31-389-87-51 29-53 128-105 102-55-27-21-174 26-223C80 130 183-36 264-86h641c35 25 15 44 0 62-19 23-77 38-125 32-70 28 170 186 1 373 32-2 68 1 100 11a74 74 0 012-2l1 3c30 10 54 26 67 51 16 32-103 217-202 219z m31-156a31 31 0 100 62 31 31 0 000-62z" horiz-adv-x="1000" />
<glyph glyph-name="raven" unicode="&#xea7a;" d="M789 734c-17 42-64 73-120 73-111 0-119-71-177-107-190 67-232-282-161-493-30-63-60-148-85-264 111-59 232-75 355-19-12 74-28 134-43 186 49 25 116 29 169-28 0 60-43 83-88 83l-41 85c87 89 153 199 120 313-20 75 113 121 238 105-47 41-109 59-167 66zM534 189c17 15 34 30 50 47l35-73c-26-4-51-16-67-33-6 22-13 41-18 59z m189 527a13 13 0 100 26 13 13 0 000-26z" horiz-adv-x="1000" />
<glyph glyph-name="sea_serpent" unicode="&#xea91;" d="M916 435l41 118c-57 24-102 52-139 86 2 55-21 110-66 165 1-27 1-54-3-81-64 81-168 112-260 62 69 5 129-16 145-66-251 33-507-221-61-478C694 171 610-9 369 94 48 231 71 486 187 619c14-24 26-51 37-80 37 95 110 134 182 174-101 47-199 28-294-17 20-11 37-26 52-44C-57 519 12 105 303-63c370-214 809 258 406 412-290 110-220 267-82 247l-11-78 300-83z" horiz-adv-x="1000" />
<glyph glyph-name="seagull" unicode="&#xea92;" d="M728 130c158 71 268 241 207 466-51 191-159 206-263 104-47-45-139-42-153-109 221 89 269-64 98-91-230-38-339-323-576-329 33-40 148-80 287-94l91-157c-17-9-32-20-45-34h448c-33 43-108 64-176 49L561 83c58 9 115 24 167 47z m-10 529a26 26 0 1053 0 26 26 0 00-53 0zM616-75a164 164 0 01-17-8c-41 23-100 30-151 15L365 74c53-3 108-2 163 4l88-153z" horiz-adv-x="1000" />
<glyph glyph-name="shark" unicode="&#xea93;" d="M503 811C290 675 136 303 136-133h732c0 436-152 808-365 944zM295 336l36-30-13 69c15 21 30 40 46 56l38-53 7 90c19 12 38 20 57 25l36-71 36 71c19-5 38-13 56-25l9-94 39 55c15-15 30-34 44-54l-12-69 35 30c48-87 83-202 97-333-19 62-52 118-93 160l8 70-50-32c-12 9-24 16-37 23l-7 80-51-56a271 271 0 01-44 9l-30 64-30-64a271 271 0 01-47-10l-48 53-6-75c-13-7-26-15-38-24l-50 32 8-70c-41-42-73-98-93-160 15 131 49 246 97 333z" horiz-adv-x="1000" />
<glyph glyph-name="sheep" unicode="&#xea94;" d="M955 631c-11 17-41 25-51 33-30 25-96 45-153-13-7-7-13-11-19-15-20 22-47 25-73 25-30 0-69-17-79-44-6 29-49 43-79 44-31 0-70-23-81-43-11 33-53 49-82 47-31-1-72-24-82-59-59 32-115 15-153-20-76-69-94-182-68-300 15-69 41-113 91-135 11-5 21-11 31-14L124-24c11-28 38-27 74-8l65 183c10-13 20-23 29-31l5-131c36-38 55-15 74 7L361 97a122 122 0 01117 85c22-52 54-61 88-62 19-1 39-1 55 14l26-157c34-27 55-13 73 14l-17 141c3 1 6 1 9 2 8 1 16 3 24 6L775-6c30-7 58-8 70 24l-60 181c32-23 71 1 92 28 34 44 34 109 28 170 2 2 4 3 5 5 16 18 25 81 26 116 0-20 11-46 33-43 40 10 13 111-14 156z m-56-178c-2-4-4-8-8-12a56 56 0 00-1-2s0 0-1 0a56 56 0 00-2-2 47 47 0 00-1-2 51 51 0 00-2-1 55 55 0 00-2-2c-1 0-1 0-1 0a62 62 0 00-2-1c0-1 0-1 0-1a57 57 0 00-2-1s0 0-1 0l-1 45a39 39 0 002 1 36 36 0 002 1s1 0 1 0a32 32 0 002 1 30 30 0 002 0s0 0 1 0a25 25 0 001 1s0 0 1 0a19 19 0 003 0 16 16 0 002 0s0 0 0-1c1 0 1 0 1 0s0 0 1 0c0 0 1 0 1-1 0 0 1 0 1 0a11 11 0 001 0c2-2 4-6 4-10 0-5-1-9-2-13z m-71 6c-1 15 13 18 25 12l7-44c-11 8-30 8-32 32z m-4 92c0-8-7-15-16-15s-15 7-15 15 7 15 15 15 16-7 16-15z m88-8c-8 0-15 7-15 15s7 14 15 14 16-6 16-14-7-15-16-15z" horiz-adv-x="1000" />
<glyph glyph-name="snail" unicode="&#xeaa4;" d="M38-26z m899 684a36 36 0 01-35-48c-52-20-41-119-34-212-29-26-63-23-92 16-4 97-29 224 18 261a37 37 0 01-1-6 36 36 0 114 17c-72-12-49-142-43-249-3-57-16-108-37-151a460 460 0 01-146 273c-122 103-293 93-412-13S35 245 140 128c16-17 36-30 56-39C120 58 62 16 38-26h627c191 0 262 190 224 406-6 87-19 185 18 220a36 36 0 1130 58z" horiz-adv-x="1000" />
<glyph glyph-name="snake" unicode="&#xeaa5;" d="M689 469c-135 21-233 46-280 121-35 55 64 167 190 116 19-30 27-69 30-127l163-77 7 10c16 9 29 29 40 51-21-9-45-9-67-3a164 164 0 00-16 12c-46 38-56 89-23 115 24 18 65 18 103 0 17-35 19-68 22-102 20 27 31 57 36 89l21 35a567 567 0 01-376 100c-392 0-360-385 0-441S807-4 558-4C394-4 284 35 205 121c-82 90-24 194 87 101s195-163 335-54c-175-58-243 83-368 159C142 400-10 252 92 91c84-134 297-210 474-210 430 0 506 529 123 588z" horiz-adv-x="1000" />
<glyph glyph-name="spider_face" unicode="&#xeaaf;" d="M685 435a59 59 0 10-117 0 59 59 0 00117 0z m43-89a29 29 0 10-59 0 29 29 0 0059 0zM193 217c-23 0-49-10-78-34-19-34-30-73-30-113 0-72 35-138 92-186a468 468 0 000 17c0 92 39 173 101 223 0 47-35 93-85 93zM916 70c0 40-10 79-30 113-28 24-55 34-78 34-50 0-84-46-84-93a287 287 0 00101-240c57 48 91 114 91 186zM31 816V354c0-40 38-79 94-112 23 12 46 19 68 19 57 0 105-40 122-94 3-1 7-2 11-3 27 19 51 24 67 24 35 0 65-19 83-48 8 0 17-1 25-1s16 1 25 1c18 29 48 48 82 48 16 0 39-4 65-22 5 2 10 3 15 5 18 52 65 90 120 90 20 0 41-6 61-15 59 34 100 73 100 108v462H31z m132-393a73 73 0 100 147 73 73 0 000-147z m191-134a117 117 0 100 234 117 117 0 000-234z m293 0a117 117 0 100 234 117 117 0 000-234z m190 134a73 73 0 100 147 73 73 0 000-147z m-654 92a32 32 0 10-65 0 32 32 0 0065 0z m25-56a13 13 0 10-26 0 13 13 0 0026 0z m649 56a32 32 0 10-65 0 32 32 0 0065 0z m25-56a13 13 0 10-25 0 13 13 0 0025 0zM393 147c-16 0-34-7-53-24-13-24-21-51-21-80 0-50 24-97 63-131a322 322 0 000 13c0 64 27 121 69 156 0 34-23 66-58 66zM682 43c0 29-7 56-20 80a82 82 0 01-54 24c-34 0-58-32-58-66a204 204 0 0070-169c39 34 62 81 62 131zM392 435a59 59 0 10-118 0 59 59 0 00118 0z m43-89a29 29 0 10-59 0 29 29 0 0059 0z" horiz-adv-x="1000" />
<glyph glyph-name="spiked_tentacle" unicode="&#xeab2;" d="M860 278c3-18-10-58-20-73 31-11 79-9 114-8-18 25-60 67-94 81z m-247 67c-82 150 54 147 90 85 40-68 46-164-55-222-79-46-168 52-154 190 29 272-96 445-446 327V323c86 172 250 205 250-68 0-184 299-293 474-104 76 83 94 277 2 390-89 108-375-26-161-196z m337 114c-25 12-77 25-110 20 8-18 15-48 19-66 28 6 64 30 91 46zM804 654z m0 0c-23-9-63-33-80-57 15-6 39-21 52-29 15 22 22 59 28 86z m-234-84c14 9 40 19 55 25-9 25-35 53-53 74-7-24-11-71-2-99z m2 99zM464 35c-1-41 17-96 28-137 24 28 57 85 67 131-36-2-68 0-95 6z m233 31c15-42 88-79 137-106-3 42-25 121-57 156-26-20-55-37-80-50zM170 28c39 3 125 33 175 71-25 25-42 54-54 80-48-33-97-108-121-151z m102 244c5 42-3 75-12 96-58-7-132-45-173-69 35-17 123-34 185-27z" horiz-adv-x="1000" />
<glyph glyph-name="spiral_shell" unicode="&#xeab4;" d="M946 774c-14-1-97-11-102-45-19 5-38 3-52-6-11-7-16-18-18-30-22 6-43 3-58-8-12-9-18-23-18-39-28 7-55 4-74-10a57 57 0 01-23-39c-44 13-87 10-116-12a85 85 0 01-34-75c-90 23-171 1-176-108C267 224 71 156 65-95c139 208 497 546 467 268-16-145-181-48-413-225C330 94 556-22 572 185c39-22 57-13 90 12 48 35 53 81 33 127 14 3 26 8 37 16 33 25 41 67 26 112 15 1 28 5 39 13 22 16 28 44 19 74 14 0 27 3 37 11 19 14 23 39 13 65 9 1 17 4 24 8 17 12 22 32 15 52 34 7 39 85 41 99z" horiz-adv-x="1000" />
<glyph glyph-name="suckered_tentacle" unicode="&#xeaba;" d="M512 557c148-256 329-76 315 86-9 98-102 187-271 180-12 0-24-2-36-3-330-37-451-298-173-505C518 188 511 62 176-95h245c55 52 191 33 230 4 161 114 131 386-76 478-263 117-231 309-47 344 105 20 191-33 208-99 24-97-72-212-224-75zM619-34c-55-7-102 12-105 42-4 30 37 59 92 66 55 6 102-12 106-42s-38-60-93-66z m108 199c3-26-32-52-78-58-47-7-88 9-91 34s31 52 78 58c47 7 87-9 91-34z m-52 113c5-20-20-44-57-54-36-10-70-2-75 18s19 44 56 54c36 10 70 2 76-18z m-93 76c4-15-14-33-41-40s-51-1-55 14c-4 14 14 32 41 39s51 1 55-13z m-124 59c17 5 33 1 36-9s-10-20-27-25-33 0-35 9c-3 9 9 21 26 25z m-43 43c11 3 22 0 24-6 2-7-6-15-18-18s-23 0-25 6c-1 7 7 14 19 18z" horiz-adv-x="1000" />
<glyph glyph-name="tentacle" unicode="&#xeac8;" d="M638 457c-1 2-4 4-7 5-57 39-143 2-113-92 75-234 473-36 390 217-52 156-155 223-295 225-181 2-385-105-465-260-113-221-56-432 68-656h372a65 65 0 014 0c1 0 1 0 1 0h105c-20 7-41 15-61 25 20 34 5 87-45 86-22-1-37-12-45-27-2 27-20 51-54 50a66 66 0 01-2 0c36 29 25 102-33 100-16 0-28-6-37-15 8 25-4 56-34 60 57 15 53 111-14 109-9 0-17-2-23-6 16 20 14 53-7 67a62 62 0 0111 0c69 2 71 106 6 110 1 2 1 3 2 4 13 7 20 22 19 36a273 273 0 005 8c8-7 18-10 31-10 48 1 62 55 41 84a399 399 0 0026 18 177 177 0 0010 6c4-22 20-40 49-39 38 1 54 36 48 65 21 0 40-1 59-5-7-26 6-58 41-57 19 0 32 11 38 24 5-3 10-7 14-11 1-11 7-20 16-25a62 62 0 002-3c1-5 2-9 3-14-44-2-47-67-7-74a176 176 0 00-4-11c-9-6-13-16-14-26a174 174 0 00-14-18c-4 10-12 17-26 17-30-1-36-39-17-53a144 144 0 00-20-9c-8-3-16-6-24-7 3 12-4 28-20 27-15 0-22-12-21-23-9 4-16 11-23 21 22 6 20 42-5 42 3 8 9 14 16 20 5-4 14-7 26-7 24 1 33 13 28 21 0 0 0 0-1 1z" horiz-adv-x="1000" />
<glyph glyph-name="two_dragons" unicode="&#xead9;" d="M327 788z m123-333z m513-323C689 240 743 372 450 455c78-54 125-107 147-156-159 62-321 67-446-17 82 199 338 275 440 230-3-9-7-18-11-27l299-60a653 653 0 0112 32v-1c20 34 17 63 0 94-2-23-11-43-28-66a95 95 0 1022 183c14-32 20-57 16-82 20 21 30 43 27 72 3 25 4 51 5 76-291-43-311 130-606 55 112-9 185-44 227-90A657 657 0 0144 580v-689h135c48 243 292 296 399 241-13-15-28-27-45-38l229-202a653 653 0 0126 22c34 19 46 46 47 80-13-18-32-31-58-42A95 95 0 10888 98c-3-34-11-58-27-78 27 8 48 22 59 48 15 21 29 42 43 64zM638 713a31 31 0 008-61 31 31 0 00-2 0 31 31 0 00-3 0 31 31 0 00-3 0 31 31 0 00-2 0c-1 0-1 0-1 0a31 31 0 00-2 1s0 0-1 0a31 31 0 00-2 1 31 31 0 00-3 2 31 31 0 00-2 1 32 32 0 00-2 1 26 26 0 00-1 1 31 31 0 00-1 1s-1 1-1 1a32 32 0 00-1 1s-1 1-1 1c0 1 0 1-1 1 0 1 0 1-1 2 0 0 0 0 0 1-1 0-1 1-1 1 0 1-1 1-1 1 0 1 0 1 0 2 0 0-1 1-1 1 0 1 0 1 0 2 0 0-1 1-1 1a31 31 0 000 2c0 1 0 1 0 1a32 32 0 000 2 42 42 0 00-1 2c0 15 11 29 27 31z m76-491a31 31 0 10-57 23 31 31 0 0057-23z" horiz-adv-x="1000" />
<glyph glyph-name="venomous_snake" unicode="&#xeadf;" d="M354 496c29 0 117 118 58 206 29 29 29 58 88 58s117-88 117-146-58-118-146-176-235-176-235-322c0-118 88-235 235-235s293 59 293 235c0 117-118 175-176 175-88 0-147-58-176-146 88 117 264 117 264-29 0-88-88-147-205-147-59 0-117 59-117 147s87 175 175 234 176 147 176 234c0 118-88 235-205 235-59 0-117-59-146-88s-88-29-88-117c0-30 58-118 88-118z" horiz-adv-x="1000" />
<glyph glyph-name="wolf_head" unicode="&#xeae7;" d="M667 564c-72 41-164 52-238 36l-79 174c-18-27-31-56-39-87l-1 59c-24-62-38-138-21-208-73 16-148 20-224 8 66-20 103-46 149-91-52-19-117-59-181-137 69 18 127 23 175 13A433 433 0 0135 108c70 34 127 37 201 37-45-64-69-151-71-220C213-25 277 42 335 79c6-59 29-114 70-166 0 93 24 188 74 284l4 2 2 1c58 25 118 38 178 41l-28 20c67 14 141 24 231 28 15 25 27 47 37 68l-13 47-47-60-16 54-44-57-14 51-47-61-15 55-46-62 2 80 44 84 15-55 47 61 15-55 45 58 13-52 48 60 15-54 48 63c4 21 9 44 14 70-108 7-207-10-300-20z" horiz-adv-x="1000" />
<glyph glyph-name="wolf_howl" unicode="&#xeae8;" d="M498 807A448 448 0 0174 217c78 48 148 81 209 102-69-11-129-46-214-8 62 54 171 129 270 140 52 42 133 86 175 73 60 52 133 119 211 167 21-32 33-70 24-113-156-39-120-290 27-132 12-25 18-52 17-80-63-66-130-123-198-172 1-47-11-103-37-165-11-26-15-71 44-105a448 448 0 01-104 883z" horiz-adv-x="1000" />
<glyph glyph-name="wyvern" unicode="&#xeaeb;" d="M626 502v-1 1z m8 314l-68-64 72 8-30-59 74 31c51-136 1-301-103-324-14 56-81 80-69 128a44 44 0 0115-7 45 45 0 0113-1l-1-1 45-52 44 26c-15-3-56 10-62 36a44 44 0 0116 24 46 46 0 010 2l21-40 10 34c15-11 24-27 22-42l33 58-141 57-113 94 33-61-94 39 69-61c-80-55-43-166-4-233-112 19-201 151-187 283l96 41-60 10 57 66-63-23s0 0 0 1C-69 656 32 70 135-30c-8 58-10 96-4 112 7-41 15-80 25-116l5 118c11-8 24-21 41-39-9 26-13 52-13 75C229 38 321-15 393-2c44 8 82 25 113 48l14-30c-39-10-44-64-28-108 3 39 22 58 42 63-13-31-9-59-6-86 20 24 42 47 46 77 17-14 24-42 2-76 52 30 62 82 16 112l-63 67a250 250 0 0131 35l77-30c-8-27 11-62 38-85-15 34-9 59 5 73 4-34 21-57 37-79 5 31 13 62 0 90 21-3 41-22 39-62 28 49 12 97-40 100l-139 20c25 45 37 97 33 151 28 67 98 23 107-96 53 157 130 75 114-48 18 36 34 58 48 66l37-149c1 46-2 94-7 144 14-19 22-65 24-132 85 225-1 699-299 753zM368 76c-53-14-136 22-164 104 24 42 73 43 123-44-37 124 103 180 124 91 0-70-19-134-83-151z m208-190z" horiz-adv-x="1000" />
<glyph glyph-name="alien_fire" unicode="&#xe902;" d="M700 683c126-122 104-215 22-290-37 195-185 129-214 415-30-286-178-220-214-415-83 75-105 168 21 290-278-159-178-363 26-530 52-63 129-113 167-259C545 40 622 90 674 153c204 167 304 371 26 530zM290 368z m3-125z m-1 5s0 0 0 1c0-1 0-1 0-1z m-1 6s-1 0-1 1c0-1 1-1 1-1z m-1 6c-1 0-1 0-1 0s0 0 1 0z m-1 5c0 1-1 1-1 2 0-1 1-1 1-2z m-1 7z m-1 6z m0 7s-1 0-1 1c0-1 1-1 1-1z m-1 6s0 1 0 1 0-1 0-1z m0 39z m1 10s0 1 0 1 0-1 0-1z m1 9c0 1 0 1 0 1s0 0 0-1z m1 10z m-3-45c0-1 0-1 0-2 0 1 0 1 0 2z m0-8s0-1 0-1 0 1 0 1z m0-8c0 1 0 1 0 1s0 0 0-1z m51-141s0 0 1 0a43 43 0 00-1 0z m-43 81c0-1 1-1 1-1s-1 0-1 1z m2-6z m2-5s0 0 0-1a165 165 0 000 1z m1-5s1 0 1 0a29 29 0 01-1 0z m2-5s0 0 0-1c0 1 0 1 0 1z m2-5s0 0 1 0c-1 0-1 0-1 0z m2-4c0-1 0-1 1-1-1 0-1 0-1 1z m3-5s0-1 0-1 0 1 0 1z m2-5z m2-4z m3-5z m2-4s0 0 1 0c-1 0-1 0-1 0z m3-4z m3-4z m2-4z m6-8s0 0 1-1c-1 1-1 1-1 1z m177 500c18-174 110-127 128-255a133 133 0 01-256 8c21 118 110 77 128 247zM375 384z m5 32z m-2-6z m-1-6z m-1-6z m-1-7z m2-38a133 133 0 01262 10c-4-107-96-102-131-239-35 132-123 132-131 229z m-2 13s0 0 0-1c0 1 0 1 0 1z m262 37z m1-6z m2-25a136 136 0 010 6c0-2 0-4 0-6z m-1-6z m0 25z m86-23z m4-38z m-1 10z m-1 9c0 1 0 1 0 1s0 0 0-1z m-1 10z m3-67s0 0 0-1c0 1 0 1 0 1z m0-7z m-1-6s0-1 0-1 0 1 0 1z m-1-13s0 0-1 0c1 0 1 0 1 0z m-1-6z m-1-6s0 0-1 0c1 0 1 0 1 0z m-2-5c0-1 0-1 0-1s0 0 0 1z m-1-6z m-24-58z m23 53c0-1 0-1-1-1 1 0 1 0 1 1z m-4-11z m-3-10z m-2-5z m-2-5z m-3-4s0 0 0-1c0 1 0 1 0 1z m-4-9s0 0 0-1a19 19 0 000 1z m26 111c0 1 0 1 0 1s0 0 0-1z m0-7c0 1 0 1 0 1s0 0 0-1z m0 16c0-1 0-1 0-2 0 1 0 1 0 2z" horiz-adv-x="1000" />
<glyph glyph-name="batteries" unicode="&#xe91d;" d="M897 250c-4 2-9 3-14 3v2l-145 63-230 99V298l177 33-6-23-23-89-55-2-93-3V52l97-42 145-63v1a47 47 0 0111-7c45-19 112 34 149 120s32 170-13 189z m1-184c-16-39-45-63-63-56s-19 45-2 84c17 38 45 63 63 55s19-45 2-83zM326 782c-94 0-170-39-170-88 0-1 0-2 0-4V511c-25-22-48-55-66-95-36-84-31-166 10-187l3-1 57-25V-21c3-47 77-84 168-84s164 37 167 84v708h-1a46 46 0 011 7c0 49-76 88-169 88z m0-13c42 0 76-16 76-36s-34-35-76-35c-43 0-77 16-77 35s34 36 77 36z m-91-514l-23 24 71 25-114 170 114 18 111-232-47-23L448 31 235 255z" horiz-adv-x="1000" />
<glyph glyph-name="battery_0" unicode="&#xe91e;" d="M393 819c-30 0-39-7-39-39v-30h-88c-58 0-69-10-69-68V-50c0-58 11-69 69-69h468c58 0 69 11 69 69v732c0 58-11 68-69 68h-88v30c0 32-9 39-39 39H393zM266 614c0 78-10 68 68 68 39 0 303 0 332 0 78 0 68 10 68-68 0-39 0-557 0-596 0-78 10-68-68-68-39 0-293 0-332 0-78 0-68-10-68 68 0 39 0 557 0 596z" horiz-adv-x="1000" />
<glyph glyph-name="battery_25" unicode="&#xe91f;" d="M393 819c-30 0-39-7-39-39v-30h-88c-58 0-69-10-69-68V-50c0-58 11-69 69-69h468c58 0 69 11 69 69v732c0 58-11 68-69 68h-88v30c0 32-9 39-39 39H393zM266 614c0 78-10 68 68 68 39 0 303 0 332 0 78 0 68 10 68-68 0-39 0-557 0-596 0-78 10-68-68-68-39 0-293 0-332 0-78 0-68-10-68 68 0 39 0 557 0 596z m48-489h372c10 0 19-8 19-19V-2c0-10-9-19-19-19H314c-10 0-19 9-19 19v108c0 11 9 19 19 19z" horiz-adv-x="1000" />
<glyph glyph-name="battery_50" unicode="&#xe920;" d="M393 819c-30 0-39-7-39-39v-30h-88c-58 0-69-10-69-68V-50c0-58 11-69 69-69h468c58 0 69 11 69 69v732c0 58-11 68-69 68h-88v30c0 32-9 39-39 39H393zM266 614c0 78-10 68 68 68 39 0 303 0 332 0 78 0 68 10 68-68 0-39 0-557 0-596 0-78 10-68-68-68-39 0-293 0-332 0-78 0-68-10-68 68 0 39 0 557 0 596z m48-313h372c10 0 19-9 19-19V174c0-11-9-19-19-19H314c-10 0-19 8-19 19v108c0 10 9 19 19 19z m0-176h372c10 0 19-8 19-19V-2c0-10-9-19-19-19H314c-10 0-19 9-19 19v108c0 11 9 19 19 19z" horiz-adv-x="1000" />
<glyph glyph-name="battery_75" unicode="&#xe921;" d="M393 819c-30 0-39-7-39-39v-30h-88c-58 0-69-10-69-68V-50c0-58 11-69 69-69h468c58 0 69 11 69 69v732c0 58-11 68-69 68h-88v30c0 32-9 39-39 39H393zM266 614c0 78-10 68 68 68 39 0 303 0 332 0 78 0 68 10 68-68 0-39 0-557 0-596 0-78 10-68-68-68-39 0-293 0-332 0-78 0-68-10-68 68 0 39 0 557 0 596z m48-137h372c10 0 19-9 19-20V350c0-11-9-20-19-20H314c-10 0-19 9-19 20v107c0 11 9 20 19 20z m0-176h372c10 0 19-9 19-19V174c0-11-9-19-19-19H314c-10 0-19 8-19 19v108c0 10 9 19 19 19z m0-176h372c10 0 19-8 19-19V-2c0-10-9-19-19-19H314c-10 0-19 9-19 19v108c0 11 9 19 19 19z" horiz-adv-x="1000" />
<glyph glyph-name="battery_100" unicode="&#xe922;" d="M393 819c-30 0-39-7-39-39v-30h-88c-58 0-69-10-69-68V-50c0-58 11-69 69-69h468c58 0 69 11 69 69v732c0 58-11 68-69 68h-88v30c0 32-9 39-39 39H393zM266 614c0 78-10 68 68 68 39 0 303 0 332 0 78 0 68 10 68-68 0-39 0-557 0-596 0-78 10-68-68-68-39 0-293 0-332 0-78 0-68-10-68 68 0 39 0 557 0 596z m48 39h372c10 0 19-9 19-20V526c0-11-9-20-19-20H314c-10 0-19 9-19 20v107c0 11 9 20 19 20z m0-176h372c10 0 19-9 19-20V350c0-11-9-20-19-20H314c-10 0-19 9-19 20v107c0 11 9 20 19 20z m0-176h372c10 0 19-9 19-19V174c0-11-9-19-19-19H314c-10 0-19 8-19 19v108c0 10 9 19 19 19z m0-176h372c10 0 19-8 19-19V-2c0-10-9-19-19-19H314c-10 0-19 9-19 19v108c0 11 9 19 19 19z" horiz-adv-x="1000" />
<glyph glyph-name="battery_black" unicode="&#xe923;" d="M450 819c-28 0-101-24-101-52v-53H249c-55 0-101-46-101-104V-14c0-58 46-105 101-105h502c56 0 101 47 101 105v624c0 58-45 104-101 104H651v53c0 28-73 52-101 52H450z m50-209V350h200L500-14v260H300l200 364z" horiz-adv-x="1000" />
<glyph glyph-name="battery_negative" unicode="&#xe924;" d="M393 819c-30 0-39-7-39-39v-30h-88c-58 0-69-10-69-68V-50c0-58 11-69 69-69h468c58 0 69 11 69 69v732c0 58-11 68-69 68h-88v30c0 32-9 39-39 39H393zM266 614c0 78-10 68 68 68 39 0 303 0 332 0 78 0 68 10 68-68 0-39 0-557 0-596 0-78 10-68-68-68-39 0-293 0-332 0-78 0-68-10-68 68 0 39 0 557 0 596z m68-225h332c11 0 20-9 20-19v-98c0-11-9-20-20-20H334c-11 0-20 9-20 20v98c0 10 9 19 20 19z" horiz-adv-x="1000" />
<glyph glyph-name="battery_positive" unicode="&#xe925;" d="M393 819c-30 0-39-7-39-39v-30h-88c-58 0-69-10-69-68V-50c0-58 11-69 69-69h468c58 0 69 11 69 69v732c0 58-11 68-69 68h-88v30c0 32-9 39-39 39H393zM266 614c0 78-10 68 68 68 39 0 303 0 332 0 78 0 68 10 68-68 0-39 0-557 0-596 0-78 10-68-68-68-39 0-293 0-332 0-78 0-68-10-68 68 0 39 0 557 0 596z m68-225h332c11 0 20-9 20-19v-98c0-11-9-20-20-20H334c-11 0-20 9-20 20v98c0 10 9 19 20 19z m117 117h98c11 0 19-9 19-19V155c0-11-8-20-19-20h-98c-11 0-19 9-19 20v332c0 10 8 19 19 19z" horiz-adv-x="1000" />
<glyph glyph-name="battery_white" unicode="&#xe926;" d="M441 819c-48 0-87-26-87-59v-29h-88c-58 0-118-60-118-117V-2c0-57 60-117 118-117h468c58 0 118 60 118 117v616c0 57-60 117-118 117h-88v29c0 33-39 59-87 59H441zM266 614h468V-2H266v616z m234-59V350H353L500 57v205h146L500 555z" horiz-adv-x="1000" />
<glyph glyph-name="cog_wheel" unicode="&#xe96f;" d="M495 809a459 459 0 110-917 459 459 0 010 917z m5-852a395 395 0 100 790 395 395 0 000-790z m2 670a275 275 0 110-550 275 275 0 010 550z m126-405l-48 84h97c-9-33-26-61-49-84z m-48 174l48 83c23-22 40-51 49-83h-97z m-30 129l-48-84-49 84a181 181 0 0049 6c16 0 33-2 48-6zM423 396h-96c8 32 25 61 48 83l48-83z m-96-90h96l-48-84c-23 23-40 51-48 84z m175-136c-17 0-33 2-49 7l49 84 48-84a181 181 0 00-48-7z" horiz-adv-x="1000" />
<glyph glyph-name="cog" unicode="&#xe970;" d="M716 346a216 216 0 10-431 0 216 216 0 00431 0z m117-46c7 50 63 85 133 90-4 50-17 99-36 144-64-30-130-26-161 15s-14 105 33 158c-38 32-83 57-130 76-24-66-74-111-124-103s-85 63-90 133c-51-4-101-16-146-36 30-64 28-130-13-161-41-30-106-15-158 31-32-38-57-81-76-128 66-24 110-74 103-124s-64-85-134-90c5-50 18-99 37-144 35 16 70 22 100 17 25-3 47-13 61-32 30-41 14-107-33-160 38-32 82-57 130-76 24 66 73 110 124 103s85-64 89-134c51 5 101 17 146 37-30 64-27 132 14 163 19 14 44 17 69 14 30-5 61-20 89-45 31 38 57 81 76 128-66 24-111 73-103 124zM500 83a263 263 0 100 527 263 263 0 000-527z" horiz-adv-x="1000" />
<glyph glyph-name="defibrillate" unicode="&#xe98e;" d="M712 391c4 105-158 171-207 35-48 136-210 70-206-35 4-98 162-140 206-236 45 96 203 138 207 236z m-590 89l151-65c3 17 10 34 21 48l-65 31c58 84 120 139 189 166-77 60-123 97-152 173H136c112-85 152-145 133-204-76 59-157 92-239 122l-12-70c78-18 155-41 227-96-26-33-67-66-123-105z m115-302L20 305V205c241-12 313-229 0-269v-80L309-6c-90 106-8 195 84 248-11 8-22 17-33 25l-123-89z m754-315L830 58C699-29 610 71 599 235c-15-12-31-24-45-37l31-231c107 63 300-32 275-104h131z m-27 306l10 87-166-36c-10 47-11 81 43 128-43 7-85 12-127 14-7-19-19-37-35-53 71-30 94-82 51-157l224 17zM700 472c10-12 19-26 24-41 65 20 126 46 183 78L723 618c78 54 162 76 257 100 19 122-45 120-147 107-33-83-130-160-254-233 76-7 261-54 121-120z" horiz-adv-x="1000" />
<glyph glyph-name="energise" unicode="&#xe9b0;" d="M839 226l107 9-197 129 166 76-141 47 138 68-113 39 87 100-158-28 12 138-120-114-72 123-41-126-108 69 13-170-166 109 93 29-140 86H44V686l189-90-115-34 252-152-186-7 145-91-201-82 164-48L162 29l188 49 22-191L499 37l92-149 36 142 93-48-21 228 165-100-98-14L960-39l2 161-123 104zM615 90l-253 68 126 473 61-16 9 34 133-35-9-34 60-17L615 90z m40 459l14 52-98 26-14-52-42 11-31-114 123-57-35-66 66-30 59 218zM517 341l-61 27 1 1h-1l-49-185 182-49 24 90-122 66z" horiz-adv-x="1000" />
<glyph glyph-name="fast_ship" unicode="&#xe9ba;" d="M545 158a380 380 0 00-20 19c-77 77-107 172-67 212s135 11 212-67a380 380 0 0019-19L562 630l-45-96c-47 100-108 229-108 229l40-250-307 307-109 1-1-111 314-314-262 41s127-59 227-106l-93-45 327-128zM915-70L815 216l84-69-34 194-85-92-46-11-65 36-98-98 36-66-11-45-90-83 194-34-62 78 277-96zM692 80l73 73c134-137 64-207-73-73z" horiz-adv-x="1000" />
<glyph glyph-name="gamepad_cross" unicode="&#xe9d9;" d="M357 205l289 289z m289 0L357 494z m-7 282v298H363V487H66V211h297V-86h276v297h298v276H639zM205 263a87 87 0 100 173 87 87 0 000-173zM502-34a87 87 0 100 173 87 87 0 000-173z m0 594a87 87 0 100 173 87 87 0 000-173z m296-297a87 87 0 100 173 87 87 0 000-173z" horiz-adv-x="1000" />
<glyph glyph-name="gear_heart" unicode="&#xe9dc;" d="M911 368l41 6-17 105-41-7a412 412 0 01-44 98l33 27-66 82-34-27a407 407 0 01-86 63l16 40-99 39-15-41a407 407 0 01-106 11l-7 43-104-16 6-43a412 412 0 01-98-42l-26 33-83-66 26-33c-24-25-46-54-64-86l-38 15-38-99 37-15a407 407 0 01-12-107l-39-6 17-105 37 6a412 412 0 0144-100l-30-24 67-82 29 23a407 407 0 0188-65l-13-34 99-38 13 34a407 407 0 01109-12l6-36 104 16-6 37A412 412 0 01717 7l24-30 82 66-24 31a407 407 0 0163 88l37-15 39 99-38 15c8 35 12 71 11 107zM503 9c-70 184-304 242-309 415-6 184 222 220 309 70 86 164 303 103 308-70 6-184-234-231-308-415z" horiz-adv-x="1000" />
<glyph glyph-name="gears" unicode="&#xe9dd;" d="M940 472l-54-94c-32 14-67 24-104 29v108H677V407a400 400 0 01-102-27l-53 92-70-40-29 41a154 154 0 0122 44l106 12-10 106-102-10a155 155 0 01-33 48l41 90-97 44-40-90a154 154 0 01-59-7l-56 79-86-62 58-82c-10-15-17-33-21-52L44 582l10-105 108 11a155 155 0 0129-37l-46-102 97-43 46 103a154 154 0 0146 4l66-91 62 45 23-39a408 408 0 01-76-77l-96 56-50-91 93-55a403 403 0 01-27-105H219V-49h110c3-23 9-46 16-68h330a134 134 0 10110 0h178v576l-23 13z m-637-1a86 86 0 10-11 171 86 86 0 0011-171z" horiz-adv-x="1000" />
<glyph glyph-name="laser_site" unicode="&#xea1f;" d="M500 702a352 352 0 110-704 352 352 0 010 704z m0-176a176 176 0 100-352 176 176 0 000 352z m59-287V-95c0-13-11-24-24-24h-70c-13 0-24 11-24 24v334c0 13 11 23 24 23h70c13 0 24-10 24-23z m0 556V461c0-13-11-23-24-23h-70c-13 0-24 10-24 23v334c0 13 11 24 24 24h70c13 0 24-11 24-24z" horiz-adv-x="1000" />
<glyph glyph-name="lever" unicode="&#xea29;" d="M829 407l138 239-139 80-138-239 24-14-172-299a248 248 0 01-43 4A247 247 0 01252-63h-74v-67h628v67h-61c-2 82-44 154-106 198l165 286 25-14z" horiz-adv-x="1000" />
<glyph glyph-name="light_bulb" unicode="&#xea2b;" d="M785 530a304 304 0 01-608 0c0-187 136-190 136-427V-42h77v-40h185v40h74v145c0 240 136 244 136 427z m-374-99l73 80 71-77 92 77-70-261-187-1-70 262 91-80z" horiz-adv-x="1000" />
<glyph glyph-name="lighthouse" unicode="&#xea2c;" d="M488 600v-62l468-125v343z m-16-124v218l-187 94-187-94V476h59L35-117h499L412 476h60zM144 663h281V538H144v125z" horiz-adv-x="1000" />
<glyph glyph-name="load" unicode="&#xea34;" d="M296 550h95c8 0 15 8 15 19v137c0 11-7 19-15 19h-95c-8 0-15-8-15-19V569c0-11 7-19 15-19z m515-431v249H562V119H437l249-250 250 250zM222 47c-8 0-15 7-15 15v359c0 9 7 16 15 16h554c9 0 16-7 16-16v-17h48V135h49v465c0 9-132 141-140 141H601c5-2 9-7 9-13V535c0-8-7-14-15-14H263c-8 0-15 6-15 14v193c0 6 4 11 9 13H125a16 16 0 01-16-16V-24c0-8 7-15 16-15h450l-86 86H222z" horiz-adv-x="1000" />
<glyph glyph-name="magnet" unicode="&#xea38;" d="M709 473a630 630 0 00-326-330c188 21 325 169 326 330z m114 0A851 851 0 00383 27c254 29 439 229 440 446z m141 0a1124 1124 0 00-581-589c336 38 580 302 581 589zM372 319c-51 40-109 87-128 105-74 74-83 148-26 205s130 48 205-27c18-19 64-75 104-126l70 71c-42 67-95 149-122 175-116 101-257 105-356 7-113-111-94-258 6-357 26-27 111-82 177-124l70 71z m-57-79c43-26 76-46 76-46l62 61c-12 10-39 30-70 54l-68-69z m221 225c25-31 46-58 55-71l62 62s-20 34-48 79l-69-70z" horiz-adv-x="1000" />
<glyph glyph-name="microphone" unicode="&#xea3f;" d="M400 401L184 120c3-13 6-24 10-33C130 61 84-36 126-92c34-23 52-10 69-1-13 39-34 85 54 127 8-4 16-6 25-10l299 246-15-11c-91 4-146 58-158 142z m215 343c-29-34-47-77-48-125L413 419c11-88 67-144 160-149l189 156c55 1 105 25 139 64l-2-2c-152 4-262 66-284 256z m-68-372l-28 26 61 67 29-25-62-68z m211 436c-49 0-95-19-129-50 22-189 131-252 282-256a191 191 0 01-153 306z" horiz-adv-x="1000" />
<glyph glyph-name="nuclear" unicode="&#xea4d;" d="M499 589C288 589-26 777 24 326 42 164 179 74 299 116c64 23 145 174 200 174s135-151 200-174c120-42 255 49 275 210 56 452-271 263-475 263zM140 436c85 83 170 76 254 0-84-107-211-73-254 0z m454 0c85 76 169 83 254 0-42-73-169-107-254 0z" horiz-adv-x="1000" />
<glyph glyph-name="radar_dish" unicode="&#xea77;" d="M447 819z m505-221a61 61 0 01-113-39l-206-62-186 322a461 461 0 01-140-397l-70-12 21-118-82-77 37-63 114 35 15-19-222-278h494L582 66c96-40 205-47 309-16L705 372l157 147a61 61 0 0190 79z" horiz-adv-x="1000" />
<glyph glyph-name="radioactive" unicode="&#xea79;" d="M564 296a88 88 0 11-152 88 88 88 0 01152-88z m-179 49a103 103 0 0014 47c9 17 24 30 40 39L292 685a386 386 0 01-183-340h276z m54-96L305 18a383 383 0 01374-4L542 251c-31-18-70-20-103-2z m253 441L542 428c30-18 48-50 50-83h292c3 137-66 271-192 345z" horiz-adv-x="1000" />
<glyph glyph-name="reactor" unicode="&#xea7b;" d="M374 391l-81 82 59 177c30 89 30 118 148 118s118-29 148-118l59-177-81-82a177 177 0 01-252 0z m244-125a118 118 0 10-236 0 118 118 0 00236 0z m54 46l111 29 124-140c62-70 87-84 28-187-59-102-84-87-176-69L576-17 546 94a177 177 0 01126 218zM454 94L424-17 241-55C149-73 124-88 65 14 6 117 31 131 93 201l124 140 111-30A177 177 0 01454 94z" horiz-adv-x="1000" />
<glyph glyph-name="recycle" unicode="&#xea7c;" d="M499 811c-30 0-59-8-88-20l44-82c15 5 29 9 44 9 50 0 103-27 143-97l167-289 55 91-140 245c-53 93-138 144-225 143zM224 575L95 349C46 265 43 169 84 92c17-31 42-57 73-79l47 79c-16 13-29 27-38 44-25 46-26 107 8 167l158 272H224z m626-398c-3-15-8-28-15-41-25-45-74-79-152-79H364l56-93h263c106 0 192 50 234 125 15 27 23 57 26 88h-93zM352 456L142 577l210 122V456z m342-75l211-121v242L694 381zM256 12l210 121v-242L256 12z" horiz-adv-x="1000" />
<glyph glyph-name="regeneration" unicode="&#xea7d;" d="M448 819a273 273 0 01-251-278c0-37 6-71 19-103s29-70 160-193l37 22a65 65 0 0047 84v44c-110 7-198 99-198 212 0 111 79 202 186 212zM941 45a275 275 0 01-210 394c-34 5-75 9-246-43v-44c7-2 14-4 21-8 26-15 37-47 28-75l39-22c60 93 183 123 280 67 95-56 134-170 88-269zM31 1a270 270 0 01365-81c31 18 57 41 78 68 21 28 45 61 86 237l-38 22a63 63 0 00-95-2l-38-22c49-100 14-222-83-279C211-111 93-88 31 1z m442 550c-58 0-111-19-154-52 13-19 29-35 48-48a191 191 0 00217-4c28 7 56 12 84 15-48 54-117 89-195 89z m226-396c29 50 40 107 34 161a200 200 0 01-66-18 196 196 0 00-112-189c-8-27-17-54-29-80 71 14 135 58 173 126z m-452 0c29-50 72-88 122-110 9 22 15 44 17 67a194 194 0 00-105 192c-20 21-39 42-55 66-23-69-17-147 21-215z" horiz-adv-x="1000" />
<glyph glyph-name="repair" unicode="&#xea7f;" d="M858 48l110-83a153 153 0 01-193 199l-17 12-2 4a353 353 0 0130 52l76 2 15 49-61 45a357 357 0 015 56l67 34-7 52-75 14a355 355 0 01-25 63l45 62-30 42-73-21c-1 1-2 2-3 3a361 361 0 01-37 33l14 73-45 25-55-48a356 356 0 01-56 17l-18 72-51 4-30-68a356 356 0 01-46-6l-46 59-49-17v-74a354 354 0 01-59-39l-69 31-36-37 35-68a353 353 0 01-29-51l-76-2-16-49 62-45c-3-19-5-37-5-56l-68-34 7-52 75-14a356 356 0 0117-46l-50-61 28-44 76 18a360 360 0 0116-17 366 366 0 0134-31l-15-77 45-26 59 51a350 350 0 0151-16l19-75 52-5 31 71a358 358 0 0164 10l49-57 48 19-3 53 31-23c-4-50 17-101 59-134 56-42 131-39 184 0L807-20c-19 15-23 43-9 61s41 21 60 7z m-425 60a278 278 0 00-162 477 278 278 0 00422-359L511 364c3 50-18 100-60 133-56 42-131 39-184 0l110-84c19-14 24-41 10-60a44 44 0 00-62-7l-109 83c-24-62-6-134 49-177 43-32 98-38 145-21l144-110a279 279 0 00-121-13z" horiz-adv-x="1000" />
<glyph glyph-name="robot_arm" unicode="&#xea85;" d="M958 399l-112 21c-7 13-19 24-34 30a62 62 0 01-6 1L681 700c11 24 13 53 1 79a93 93 0 01-123 45L90 633c-58-26-83-93-58-149 11-24 29-42 51-53L254 10l7-19c-33-30-53-74-53-123h335c0 93-75 168-168 168 0 0 0 0-1 0l-12 33 2-1-3 5-137 376v2l377 188 132-225s0-1 0-1a62 62 0 01-3-9l-105-64 35-33 52-110 52-9-21 151 8 5a62 62 0 0119-11c27-10 57 1 72 24l39-148 46 27 9 108 4-1 18 56zM121 604a74 74 0 1024-146 74 74 0 00-24 146z m422 128a55 55 0 00104 34 55 55 0 001-4c1 0 1 0 1 0a56 56 0 001-4 56 56 0 001-4 55 55 0 001-4 55 55 0 000-17 55 55 0 00-48-47s-1 0-1 0a57 57 0 00-2-1s-1 0-1 0a55 55 0 00-1 0 58 58 0 00-3 0s-1 0-1 0a52 52 0 00-2 0s0 1-1 1a56 56 0 00-2 0 52 52 0 00-3 0 56 56 0 00-2 1c-1 0-1 0-1 0a61 61 0 00-2 0c0 1 0 1-1 1a58 58 0 00-1 0 56 56 0 00-4 1 53 53 0 00-1 1s-1 0-1 0a49 49 0 00-1 1c-1 0-1 0-1 1a57 57 0 00-2 1c-14 8-24 22-27 39z" horiz-adv-x="1000" />
<glyph glyph-name="speech_bubble" unicode="&#xeaad;" d="M496 721C253 721 56 575 56 395c0-101 62-191 160-251L188-62 385 80c35-6 72-10 111-10 242 0 439 146 439 325 0 180-197 326-439 326zM306 315a45 45 0 100-90 45 45 0 000 90z m189-90a45 45 0 100 90 45 45 0 000-90z m195 0a45 45 0 100 90 45 45 0 000-90z" horiz-adv-x="1000" />
<glyph glyph-name="speech_bubbles" unicode="&#xeaae;" d="M876 37c49 33 79 79 79 130 0 100-118 182-264 182s-265-82-265-182S545-15 691-15c35 0 69 5 100 14l134-100-49 138zM767 582c0 115-159 209-355 209S57 697 57 582c0-55 35-104 93-142L94 212l192 174c39-9 82-14 126-14 196 0 355 94 355 210z" horiz-adv-x="1000" />
<glyph glyph-name="surveillance_camera" unicode="&#xeac1;" d="M938 510c-1 0-2 1-5 3-12 6-24 11-36 14-24 9-51 18-51 18L290 761c-49 14-102 16-163-2L83 541l169-71 67-342a53 53 0 01-2-2L74 73 72-76l287 92 50 9a44 44 0 013 0c28 0 51 27 51 61s-23 61-51 61c-9 0-17-3-24-7l-63 299 352-148 162 10 99 209z m-84-137c-19-35-49-52-68-38s-20 53-1 88c18 35 49 52 68 38s19-53 1-88z" horiz-adv-x="1000" />
<glyph glyph-name="telescope" unicode="&#xeac7;" d="M921 233a92 92 0 01-51 25L641 443c-18 19-47 24-79 18-3 8-7 14-13 20l-104 85h1c-4 4-9 7-14 9l-47 38c-14 15-36 17-61 9-1 7-4 14-9 18l-90 74c11 28 10 55-7 72-26 26-82 13-124-30s-56-98-30-124c17-16 44-18 72-7l74-90c4-5 11-8 18-9-8-25-6-47 8-61l43-53a45 45 0 015-6l85-105c5-6 12-10 20-13-6-32-1-61 18-80L591-20c4-20 12-37 26-51 52-52 162-26 246 58s110 194 58 246zM724 68c36 37 84 50 110 32 1-3 2-6 3-10-9-3-18-9-26-17-21-21-27-48-14-61 3-3 6-5 9-6a164 164 0 00-8-9c-37-37-84-50-110-32-12 27 2 69 36 103z" horiz-adv-x="1000" />
<glyph glyph-name="tesla" unicode="&#xeac9;" d="M471 233H354v117l-88 59v410h205v-59l-88-58V584l88-58V233z m58 0v293l88 58v118l-88 58v59h205V409l-88-59V233H529z m117-59c59 0 88-29 88-58H266c0 29 29 58 88 58h292zM793 57c29 0 59-29 59-59v-117H148V-2c0 30 30 59 59 59h586zM588 643a88 88 0 10-176 0 88 88 0 00176 0z" horiz-adv-x="1000" />
<glyph glyph-name="unplugged" unicode="&#xeadd;" d="M383 578c-120 0-218-90-233-205H31v-59h119a235 235 0 01233-205h29a29 29 0 0129 29v59h88v59h-88v175h88v59h-88v59a29 29 0 01-29 29h-29z m410 0a29 29 0 01-29-29v-59h58v-59h-58V256h58v-59h-58v-59a29 29 0 0129-29h176v469H793z" horiz-adv-x="1000" />
<glyph glyph-name="wifi" unicode="&#xeae5;" d="M565 190A92 92 0 11435 59a92 92 0 01130 131z m251 120l-93-93a316 316 0 01-446 0l-93 93a447 447 0 00632 0z m65 65a539 539 0 01-762 0l-95 95a674 674 0 00952 0l-95-95z" horiz-adv-x="1000" />
<glyph glyph-name="wireless_signal" unicode="&#xeae6;" d="M269 774a458 458 0 013-796 560 560 0 00-153 399c0 162 59 306 150 397z m464-4c89-92 146-233 146-393S821 75 732-16a457 457 0 011 786zM249 377c0 129 54 242 134 302a326 326 0 011-604 373 373 0 00-135 302z m581 0c0 122-69 229-169 284 69-62 113-166 113-284 0-119-45-224-115-286a325 325 0 01171 286z m-481 0c0 87 36 162 88 199a210 210 0 012-399c-53 36-90 112-90 200z m240 192c46-39 77-111 77-192 0-83-32-155-79-194a210 210 0 012 386z m-78-131a72 72 0 01-27-138v-416h53v416a72 72 0 01-26 138z" horiz-adv-x="1000" />
<glyph glyph-name="bottom_right" unicode="&#xe93f;" d="M981-126l-82 690-121-121-469 390H22V535L407 72 291-44l690-82zM36 740v75h210l521-436 104 104 53-460-461 53 101 100L36 740z" horiz-adv-x="1000" />
<glyph glyph-name="cancel" unicode="&#xe955;" d="M337 584c-36-7-89-68-66-91l143-143-143-143c-28-29 58-114 86-86l143 143 143-143c28-28 114 58 86 86L586 350l143 143c28 28-58 114-86 85L500 436 357 578c-5 6-12 7-20 6z m163 235a469 469 0 110-938 469 469 0 010 938z m0-117a352 352 0 100-704 352 352 0 000 704z" horiz-adv-x="1000" />
<glyph glyph-name="clovers_card" unicode="&#xe96b;" d="M893 606L531 815a99 99 0 01-135-36L75 223a99 99 0 0136-134l363-209a99 99 0 01134 36l321 555a99 99 0 01-36 135zM462 732a43 43 0 1074-43 43 43 0 00-74 43z m66-519a92 92 0 00-38 48l-20-121-128 79 98 70a94 94 0 00-6 0s-1 0-1 0a91 91 0 00-3 0c-1 0-1 0-1 0a89 89 0 00-3 0s-1 0-1 0c-1 0-2 0-3 0 0 1-1 1-1 1-1 0-1 0-2 0s-1 0-2 0a95 95 0 00-2 0c0 1-1 1-1 1a95 95 0 00-2 0 104 104 0 00-4 1 83 83 0 00-1 0 103 103 0 00-4 1 81 81 0 00-2 1 91 91 0 00-1 1 96 96 0 00-2 0c-1 1-1 1-2 1a89 89 0 00-1 1c-1 0-1 0-2 0-1 1-1 1-2 1 0 1-1 1-1 1-1 0-2 1-2 1-1 0-1 1-2 1a93 93 0 00-2 1c0 1-1 1-1 1a96 96 0 00-3 2c-1 0-1 1-2 1a98 98 0 00-2 2 95 95 0 00-2 1 92 92 0 00-3 3 96 96 0 00-2 1c0 1-1 1-1 2-1 0-1 1-2 1 0 1-1 1-1 2-1 0-1 0-1 1a92 92 0 00-4 4s0 1 0 1a91 91 0 00-2 2c-1 0-1 1-1 1a93 93 0 00-2 3 95 95 0 00-2 3s0 0 0 1a94 94 0 00-8 16 93 93 0 00136 111c3-2 6-5 9-7-2 20 2 41 13 59 1 0 1 1 1 1a95 95 0 002 3s1 1 1 1c1 1 1 2 2 2 0 1 0 1 1 2 0 1 1 1 1 2 1 0 1 1 2 1a87 87 0 001 2 95 95 0 002 2 87 87 0 005 4 86 86 0 001 2 85 85 0 002 1s1 1 1 1c1 1 2 1 2 2 1 0 1 0 2 1 1 0 1 1 2 1 1 1 1 1 1 1a90 90 0 004 2c0 1 1 1 1 1a91 91 0 003 1c0 1 1 1 1 1 1 0 2 1 3 1 0 0 1 1 1 1a94 94 0 003 1s1 0 1 1a88 88 0 003 0 95 95 0 004 2 102 102 0 001 0 92 92 0 003 1s1 0 2 0a89 89 0 002 1c1 0 1 0 2 0s1 0 2 0 1 0 2 1a95 95 0 003 0c1 0 1 0 1 0a95 95 0 004 0c1 0 1 0 2 0a97 97 0 003 0s1 0 1 0c1 0 2 0 3 0s1 0 2 0a85 85 0 002 0c1 0 1 0 2 0a90 90 0 007-2 80 80 0 004 0c1-1 1-1 2-1s2 0 2-1c1 0 2 0 2 0a93 93 0 003-1s1 0 1-1a94 94 0 008-3c1 0 1 0 2-1a93 93 0 003-2 94 94 0 004-2c43-27 57-83 30-126 0 0 0 0 0-1a88 88 0 00-3-3c0-1 0-1-1-1a94 94 0 00-2-4 93 93 0 00-41-29c4-2 8-4 12-6 24-15 39-41 42-67a93 93 0 001-6c0-1 0-1 0-2 0 0 0-1 0-2s0-1 0-2a99 99 0 000-2 90 90 0 000-4 92 92 0 00-1-2 89 89 0 000-2 92 92 0 000-3s0-1 0-2c0 0-1-1-1-2s0-1 0-2a93 93 0 00-1-4s0-1-1-1a96 96 0 000-3s-1-1-1-2a92 92 0 00-1-2c0-1 0-1 0-2a93 93 0 00-2-4 89 89 0 00-1-2c0-1-1-1-1-2a101 101 0 00-1-2c0-1-1-1-1-2a94 94 0 00-2-4 92 92 0 00-127-31z m12-255a43 43 0 10-74 44 43 43 0 0074-44z" horiz-adv-x="1000" />
<glyph glyph-name="clovers" unicode="&#xe96c;" d="M633 452c-7 0-14-1-20-2 19 25 30 55 30 89a143 143 0 11-256-88c-6 0-12 1-18 1-79 0-144-65-144-144s65-145 144-145c33 0 62 11 86 29L383 19h234l-74 176a143 143 0 01232 113c0 79-63 144-142 144z" horiz-adv-x="1000" />
<glyph glyph-name="diamonds_card" unicode="&#xe993;" d="M893 606L531 815a99 99 0 01-135-36L75 223a99 99 0 0136-134l363-209a99 99 0 01134 36l321 555a99 99 0 01-36 135zM462 732a43 43 0 1074-43 43 43 0 00-74 43z m179-284l24-158 3-16-254-96-43 269 255 96 15-95zM540-42a43 43 0 10-74 44 43 43 0 0074-44z" horiz-adv-x="1000" />
<glyph glyph-name="diamonds" unicode="&#xe994;" d="M502 680l266-328L502 24 235 352l267 328z" horiz-adv-x="1000" />
<glyph glyph-name="hearts_card" unicode="&#xe9f9;" d="M893 606L531 815a99 99 0 01-135-36L75 223a99 99 0 0136-134l363-209a99 99 0 01134 36l321 555a99 99 0 01-36 135zM462 732a43 43 0 1074-43 43 43 0 00-74 43z m78-774a43 43 0 10-74 44 43 43 0 0074-44z m140 307c0-1-1-1-1-1a191 191 0 00-4-3c-1 0-1 0-2-1-2-1-4-2-5-3-1 0-1 0-1 0a228 228 0 00-5-3 208 208 0 00-2 0 250 250 0 00-5-3c-1 0-1 0-1-1-2 0-4-1-6-2 0 0 0 0-1 0a299 299 0 00-6-3c-84-33-195-34-229-68 7 27-5 67-21 111 0 0 0 0 0 1-1 2-2 5-3 8a461 461 0 00-35 139 206 206 0 000 5s0 0 0 1c-1 10 0 20 1 30 0 0 1 1 1 1 0 1 0 3 0 4 0 0 0 1 1 2a146 146 0 000 3 159 159 0 001 2 146 146 0 000 3 143 143 0 002 5c0 1 0 2 1 3a142 142 0 000 3 145 145 0 001 3c1 0 1 1 1 2a146 146 0 002 3c0 1 0 1 0 2a135 135 0 002 4s0 1 1 1a136 136 0 002 5 144 144 0 003 5s0 1 0 1a140 140 0 003 4 135 135 0 003 4s0 0 0 1a127 127 0 003 4 122 122 0 003 3c0 1 0 1 1 1a116 116 0 003 4 115 115 0 003 3 109 109 0 003 3c0 1 1 1 1 1a107 107 0 003 2c0 1 0 1 0 1a109 109 0 003 2s1 1 1 1a99 99 0 007 5s0 0 1 0a96 96 0 003 2s0 0 1 1a96 96 0 003 1 92 92 0 004 2 91 91 0 004 2s0 0 1 0a96 96 0 002 1c1 0 1 1 1 1a94 94 0 004 1 94 94 0 004 1s1 0 1 0a93 93 0 004 1 101 101 0 003 0s1 1 1 1a93 93 0 004 0 100 100 0 004 0s1 0 1 0a98 98 0 004 1c1 0 2 0 3 0 0 0 0 0 1 0 1-1 2-1 4-1 0 0 0 0 1 0a108 108 0 004 0 104 104 0 002 0c1-1 1-1 2-1a101 101 0 004-1 95 95 0 003 0c1 0 1 0 2-1 1 0 1 0 2 0a105 105 0 003-1c1 0 2-1 2-1 1 0 1 0 2 0 1-1 2-1 4-2 0 0 1 0 1 0 1-1 1-1 2-1a108 108 0 004-2s0 0 1 0a112 112 0 007-4c1-1 1-1 1-1a110 110 0 003-2c1 0 2-1 3-1 0-1 0-1 0-1a115 115 0 008-5 111 111 0 003-3 116 116 0 007-7 121 121 0 002-3c1 0 1 0 1 0 1-1 1-2 2-3a118 118 0 006-8c1 0 1 0 1 0 0-1 1-2 2-3 0 0 0 0 0-1 1-1 1-1 2-2 11-19 18-41 18-67 22 13 44 19 64 19 19 1 36-4 51-11a101 101 0 003-2 98 98 0 003-1 108 108 0 002-2s1 0 1 0c0-1 1-1 2-2a101 101 0 003-2c1 0 2-1 2-2 1 0 1 0 1 0 1 0 1-1 2-2 0 0 0 0 1 0a100 100 0 002-2c1-1 1-1 2-2a96 96 0 002-2c1 0 1-1 1-1s1-1 2-2a101 101 0 007-9c1 0 1-1 1-1s1-1 1-1c0-1 1-1 1-2 0 0 1-1 1-1 0-1 1-1 1-2 0 0 0 0 1-1 0 0 0-1 1-2 0 0 0 0 0-1 1 0 1-1 1-2 0 0 1 0 1-1a97 97 0 001-2s0 0 0-1a98 98 0 001-2s1-1 1-1c0-1 0-1 1-2 0 0 0-1 0-1a94 94 0 001-3c0-1 1-2 1-3a102 102 0 002-6c0-1 0-1 0-1 0-1 1-2 1-3 0 0 0 0 0-1s0-2 0-3a103 103 0 001-3s0-1 0-1a108 108 0 000-3c1-1 1-3 1-4 0-4 0-7 0-11a128 128 0 00-63-103z" horiz-adv-x="1000" />
<glyph glyph-name="hearts" unicode="&#xe9fa;" d="M852 491c7-209-321-356-351-471-34 126-346 253-353 471-7 209 251 255 353 80 103 179 345 126 351-80z" horiz-adv-x="1000" />
<glyph glyph-name="spades_card" unicode="&#xeaa9;" d="M893 606L531 815a99 99 0 01-135-36L75 223a99 99 0 0136-134l363-209a99 99 0 01134 36l321 555a99 99 0 01-36 135zM462 732a43 43 0 1074-43 43 43 0 00-74 43z m78-774a43 43 0 10-74 44 43 43 0 0074-44z m113 304c-50-81-154-54-168 33l-6-155-145 84 126 80c-79-25-157 52-107 132 56 91 221 68 266 114-15-57 89-200 34-288z" horiz-adv-x="1000" />
<glyph glyph-name="spades" unicode="&#xeaaa;" d="M772 316c-5 168-272 363-272 363S223 477 228 316c4-138 145-187 235-107L384 21h232l-79 188c91-78 239-33 235 107z" horiz-adv-x="1000" />
<glyph glyph-name="suits" unicode="&#xeabb;" d="M496 462c17 60 188 137 184 246-3 108-129 136-184 42-52 91-188 68-184-42 4-114 167-181 184-246zM330 92l166-205L663 92 496 297z m635 274c-3 103-166 222-166 222S630 464 633 366c3-84 89-114 143-66l-48-114h142l-48 114c55-47 146-20 143 66z m-592-8a86 86 0 01-98 86c11 15 18 34 18 54 0 48-38 86-86 86a86 86 0 01-68-140c-4 1-8 2-11 2-48 0-87-40-87-88a87 87 0 01139-69l-44-105h141l-44 106a86 86 0 01140 68zM207 584z" horiz-adv-x="1000" />
<glyph glyph-name="chessboard" unicode="&#xe963;" d="M607 567h108V459H607v108z m0-216h108V243H607v108zM499 243h108V135H499v108zM175 567h108V459H175v108z m108 108h108V567H283v108z m216 0h108V567H499v108zM283 459h108V351H283v108z m108-108h108V243H391v108z m108 108h108V351H499v108zM391 567h108V459H391v108zM283 243h108V135H283v108zM175 351h108V243H175v108z m432-216h108V27H607v108z m108 324h108V351H715v108zM391 135h108V27H391v108z m324 108h108V135H715v108z m0 432h108V567H715v108zM29 821v-940h940v940H29z m902-254H823V459h108V351H823V243h108V135H823V27h108V-81H823V27H715V-81H607V27H499V-81H391V27H283V-81H175V27H68v108h107v108H68v108h107v108H68v108h107v108H68v107h107V675h108v107h108V675h108v107h108V675h108v107h108V675h108V567zM175 135h108V27H175v108z" horiz-adv-x="1000" />
<glyph glyph-name="dice_one" unicode="&#xe997;" d="M853 780H145c-41 0-75-34-75-75V-3c0-42 34-75 75-75h708c42 0 75 33 75 75v708c0 41-33 75-75 75zM499 253a97 97 0 100 195 97 97 0 000-195z" horiz-adv-x="1000" />
<glyph glyph-name="dice_two" unicode="&#xe99a;" d="M853 780H145c-41 0-75-34-75-75V-3c0-42 34-75 75-75h708c42 0 75 33 75 75v708c0 41-33 75-75 75zM238-8a97 97 0 100 195 97 97 0 000-195z m522 523a97 97 0 100 195 97 97 0 000-195z" horiz-adv-x="1000" />
<glyph glyph-name="dice_three" unicode="&#xe999;" d="M853 780H145c-41 0-75-34-75-75V-3c0-42 34-75 75-75h708c42 0 75 33 75 75v708c0 41-33 75-75 75zM238-8a97 97 0 100 195 97 97 0 000-195z m261 261a97 97 0 100 195 97 97 0 000-195z m261 262a97 97 0 100 195 97 97 0 000-195z" horiz-adv-x="1000" />
<glyph glyph-name="dice_four" unicode="&#xe996;" d="M853 780H145c-41 0-75-34-75-75V-3c0-42 34-75 75-75h708c42 0 75 33 75 75v708c0 41-33 75-75 75zM238-8a97 97 0 100 195 97 97 0 000-195z m0 523a97 97 0 100 195 97 97 0 000-195zM760-8a97 97 0 100 195 97 97 0 000-195z m0 523a97 97 0 100 195 97 97 0 000-195z" horiz-adv-x="1000" />
<glyph glyph-name="dice_five" unicode="&#xe995;" d="M853 780H145c-41 0-75-34-75-75V-3c0-42 34-75 75-75h708c42 0 75 33 75 75v708c0 41-33 75-75 75zM238-8a97 97 0 100 195 97 97 0 000-195z m0 523a97 97 0 100 195 97 97 0 000-195z m261-262a97 97 0 100 195 97 97 0 000-195zM760-8a97 97 0 100 195 97 97 0 000-195z m0 523a97 97 0 100 195 97 97 0 000-195z" horiz-adv-x="1000" />
<glyph glyph-name="dice_six" unicode="&#xe998;" d="M853 780H145c-41 0-75-34-75-75V-3c0-42 34-75 75-75h708c42 0 75 33 75 75v708c0 41-33 75-75 75z m-93-70a97 97 0 100-195 97 97 0 000 195z m-522 0a97 97 0 100-195 97 97 0 000 195z m0-718a97 97 0 100 195 97 97 0 000-195z m0 261a97 97 0 100 195 97 97 0 000-195zM760-8a97 97 0 100 195 97 97 0 000-195z m0 261a97 97 0 100 195 97 97 0 000-195z" horiz-adv-x="1000" />
<glyph glyph-name="perspective_dice_one" unicode="&#xea5b;" d="M847 592L549 765c-28 16-73 16-101 0L150 592c-19-11-25-26-18-40l353-202a124 124 0 0125 0l356 203c6 14-1 29-19 39z m-303-54a95 95 0 00-88 0c-25 14-25 38 0 52s63 15 88 0c24-14 24-38 0-52z m313-5L533 348c-11-11-21-26-27-42V-60c9-12 25-14 44-4l286 166c28 16 51 55 51 88v307c0 24-12 37-30 36zM628 313c0-27-20-61-44-75s-44-3-44 24 20 60 44 74 44 4 44-23z m218-114c0-27-19-60-44-74s-43-3-43 23c0 1 0 1 0 1-1 27 19 60 43 74s44 3 44-23c0-1 0-1 0-1zM489 315c-5 10-12 21-20 29L138 533c-16-1-27-14-27-36V190c0-33 23-72 51-88L449-64c16-9 31-9 40 0v379z m-249 73c0-27-20-38-44-23s-44 47-44 74 20 37 44 23 44-47 44-74z m109-182c0-27-19-38-44-23s-44 47-43 74c0 27 19 37 43 23s44-47 44-74zM458 22c0-26-19-37-44-23s-43 47-43 74 19 38 44 24 44-48 43-74c0 0 0-1 0-1z" horiz-adv-x="1000" />
<glyph glyph-name="perspective_dice_six_two" unicode="&#xea5d;" d="M492 307c-4 11-10 21-17 30L151 531c-23 7-40-6-40-34V190c0-33 23-72 51-88L449-64c18-10 34-8 43 4v367zM349 206c0-27-19-38-44-23s-44 47-43 74c0 27 19 37 43 23s44-47 44-74z m498 386L549 765c-28 16-73 16-101 0L150 592c-14-8-21-19-21-30l353-212c12-1 24-1 35 1l341 191c17 16 13 37-11 50zM544 401a95 95 0 00-88 0c-25 14-25 38 0 52 24 14 63 14 88 0 24-14 24-38 0-52z m0 274a95 95 0 00-88 0c-25 15-25 38 0 53 24 14 63 14 88 0 24-15 24-38 0-53z m326-144L523 336c-10-12-17-27-21-41V-53c7-18 26-23 48-11l286 166c28 16 51 55 51 88v307c0 17-6 29-17 34zM628 73c0-27-20-60-44-74s-44-3-44 23c0 0 0 1 0 1 0 26 20 60 44 74s44 3 44-24z m109 184c0-27-19-60-44-74s-44-4-44 23 20 60 44 74 44 4 44-23z m109 182c0-27-19-60-44-74s-43-4-43 23c-1 27 19 60 43 74 25 14 44 4 44-23z" horiz-adv-x="1000" />
<glyph glyph-name="perspective_dice_three" unicode="&#xea5f;" d="M860 533L530 344c-10-10-18-23-23-37V-60c8-12 25-14 43-4l286 166c28 16 51 55 51 88v307c0 23-11 36-27 36zM737 257c0-27-19-60-44-74s-44-4-44 23 20 60 44 74 44 4 44-23z m110 335L549 765c-28 16-73 16-101 0L150 592c-20-11-25-28-17-42l349-200c11-1 22-1 32 0l351 201c7 14 1 30-18 41z m-536-53a95 95 0 00-88 0c-24 14-24 37 0 52 25 14 64 14 88 0 25-15 25-38 0-52z m233-1a95 95 0 00-88 0c-25 14-25 38 0 52s63 15 88 0c24-14 24-38 0-52z m231 0c-24-14-64-14-88 0s-24 38 0 52c24 15 64 15 88 0 25-14 25-38 0-52zM489 314c-4 10-11 19-18 28L136 533c-15-2-25-15-25-36V190c0-33 23-72 51-88L449-64c16-9 31-9 40 0v378zM240 148c0-26-20-37-44-23s-44 47-44 74c0 0 0 0 0 1 0 26 20 37 44 23s44-47 44-74c0 0 0 0 0-1z m218 114c0-27-19-38-44-24s-43 48-43 75 19 37 44 23 44-47 43-74z" horiz-adv-x="1000" />
<glyph glyph-name="perspective_dice_four" unicode="&#xea5a;" d="M847 592L549 765c-28 16-73 16-101 0L150 592c-20-11-25-28-17-42l349-200c12-1 24-1 36 1l346 198c9 15 3 32-17 43z m-536-53a95 95 0 00-88 0c-24 14-24 37 0 52 25 14 64 14 88 0 25-15 25-38 0-52z m233-138a95 95 0 00-88 0c-25 14-25 38 0 52 24 14 63 14 88 0 24-14 24-38 0-52z m0 274a95 95 0 00-88 0c-25 15-25 38 0 53 24 14 63 14 88 0 24-15 24-38 0-53z m231-137c-24-14-64-14-88 0s-24 38 0 52c24 15 64 15 88 0 25-14 25-38 0-52z m87-5L527 341c-8-9-14-20-19-30V-62c9-10 24-12 42-2l286 166c28 16 51 55 51 88v307c0 21-10 34-25 36zM628 73c0-27-20-60-44-74s-44-3-44 23c0 0 0 1 0 1 0 26 20 60 44 74s44 3 44-24z m0 240c0-27-20-61-44-75s-44-3-44 24 20 60 44 74 44 4 44-23z m109-56c0-27-19-60-44-74s-44-4-44 23 20 60 44 74 44 4 44-23z m109-58c0-27-19-60-44-74s-43-3-43 23c0 1 0 1 0 1-1 27 19 60 43 74s44 3 44-23c0-1 0-1 0-1z m0 240c0-27-19-60-44-74s-43-4-43 23c-1 27 19 60 43 74 25 14 44 4 44-23zM491 311c-5 11-12 22-20 31L136 533c-15-2-25-15-25-36V190c0-33 23-72 51-88L449-64c17-10 33-8 42 2v373zM240 148c0-26-20-37-44-23s-44 47-44 74c0 0 0 0 0 1 0 26 20 37 44 23s44-47 44-74c0 0 0 0 0-1z m0 121c0-27-20-37-44-23s-44 47-44 74 20 37 44 23 44-47 44-74z m0 119c0-27-20-38-44-23s-44 47-44 74 20 37 44 23 44-47 44-74zM458 22c0-26-19-37-43-23s-44 47-44 74 19 38 44 24 44-48 43-74c0 0 0-1 0-1z m0 121c0-27-19-38-43-24s-44 48-44 75 19 37 44 23 44-47 43-74z m0 119c0-27-19-38-43-24s-44 48-44 75 19 37 44 23 44-47 43-74z" horiz-adv-x="1000" />
<glyph glyph-name="perspective_dice_five" unicode="&#xea59;" d="M847 592L549 765c-28 16-73 16-101 0L150 592c-22-12-26-31-14-47l339-193c18-4 37-3 54 1l328 188c18 16 14 37-10 51z m-536-53a95 95 0 00-88 0c-24 14-24 37 0 52 25 14 64 14 88 0 25-15 25-38 0-52z m233-138a95 95 0 00-88 0c-25 14-25 38 0 52 24 14 63 14 88 0 24-14 24-38 0-52z m-88 189c24 15 63 15 88 0 24-14 24-38 0-52s-64-14-88 0c-25 14-25 38 0 52z m88 85a95 95 0 00-88 0c-25 15-25 38 0 53 24 14 63 14 88 0 24-15 24-38 0-53z m231-137c-24-14-64-14-88 0s-24 38 0 52c24 15 64 15 88 0 25-14 25-38 0-52z m93-6L521 333a124 124 0 01-14-23h2V-63c9-10 24-10 41-1l286 166c28 16 51 55 51 88v307c0 19-7 31-19 35zM628 73c0-27-20-60-44-74s-44-3-44 23c0 0 0 1 0 1 0 26 20 60 44 74s44 3 44-24z m0 240c0-27-20-61-44-75s-44-3-44 24 20 60 44 74 44 4 44-23z m109-177c0-27-19-60-44-74s-44-3-44 23c0 1 0 1 0 1 0 27 20 60 44 74s44 3 44-24z m0 240c0-27-19-61-44-75s-44-3-44 24 20 60 44 74 44 4 44-23z m109-177c0-27-19-60-44-74s-43-3-43 23c0 1 0 1 0 1-1 27 19 60 43 74s44 3 44-23c0-1 0-1 0-1z m0 240c0-27-19-60-44-74s-43-4-43 23c-1 27 19 60 43 74 25 14 44 4 44-23zM492 308c-4 10-10 20-17 28L132 532c-12-3-21-15-21-35V190c0-33 23-72 51-88L449-64c18-10 34-8 43 3v369zM240 148c0-26-20-37-44-23s-44 47-44 74c0 0 0 0 0 1 0 26 20 37 44 23s44-47 44-74c0 0 0 0 0-1z m0 240c0-27-20-38-44-23s-44 47-44 74 20 37 44 23 44-47 44-74zM458 22c0-26-19-37-44-23s-43 47-43 74 19 38 44 24 44-48 43-74c0 0 0-1 0-1z m0 240c0-27-19-38-44-24s-43 48-43 75 19 37 44 23 44-47 43-74z" horiz-adv-x="1000" />
<glyph glyph-name="perspective_dice_six" unicode="&#xea5e;" d="M487 312h3c-4 9-9 17-14 24L132 532c-12-3-21-16-21-35V190c0-33 23-72 51-88L449-64c15-9 29-9 38-1v377zM240 148c0-26-20-37-44-23s-44 47-44 74c0 0 0 0 0 1 0 26 20 37 44 23s44-47 44-74c0 0 0 0 0-1z m0 240c0-27-20-38-44-23s-44 47-44 74 20 37 44 23 44-47 44-74z m109-182c0-27-19-38-44-23s-44 47-43 74c0 27 19 37 43 23s44-47 44-74zM458 22c0-26-19-37-44-23s-43 47-43 74 19 38 44 24 44-48 43-74c0 0 0-1 0-1z m0 240c0-27-19-38-44-24s-43 48-43 75 19 37 44 23 44-47 43-74z m389 330L549 765c-28 16-73 16-101 0L150 592c-22-12-26-32-14-47l339-193c13-3 27-3 41-2l349 200c8 14 2 31-18 42zM456 728c24 14 63 14 88 0 24-15 24-38 0-53a95 95 0 00-88 0c-25 15-25 38 0 53zM311 539a95 95 0 00-88 0c-24 14-24 37 0 52 25 14 64 14 88 0 25-15 25-38 0-52z m29-70c-25 15-25 38 0 53s64 14 88 0c24-15 24-38 0-53a95 95 0 00-88 0z m204-68a95 95 0 00-88 0c-25 14-25 38 0 52 24 14 63 14 88 0 24-14 24-38 0-52z m27 206c-24 14-24 38 0 52s64 14 88 0c25-14 25-38 0-52a95 95 0 00-88 0z m204-69c-24-14-64-14-88 0s-24 38 0 52c24 15 64 15 88 0 25-14 25-38 0-52z m86-5L528 343c-10-12-18-26-23-40V-58c8-14 25-17 45-6l286 166c28 16 51 55 51 88v307c0 22-10 35-26 36zM628 73c0-27-20-60-44-74s-44-3-44 23c0 0 0 1 0 1 0 26 20 60 44 74s44 3 44-24z m0 240c0-27-20-61-44-75s-44-3-44 24 20 60 44 74 44 4 44-23z m218-114c0-27-19-60-44-74s-43-3-43 23c0 1 0 1 0 1-1 27 19 60 43 74s44 3 44-23c0-1 0-1 0-1z m0 240c0-27-19-60-44-74s-43-4-43 23c-1 27 19 60 43 74 25 14 44 4 44-23z" horiz-adv-x="1000" />
</font>
</defs>
</svg>
