<svg height="1000" width="1000" xmlns="http://www.w3.org/2000/svg"><path d="M916.018 458.983v82.031H742.189L876.955 675.78l-58.594 60.547L625.001 541.014h-83.984V625l195.313 193.36 -60.547 58.594L541.017 742.187v173.828h-82.031V742.187L324.22 876.953l-60.547 -58.594 195.313 -193.36v-83.985H375l-193.36 195.313L123.047 675.78 257.813 541.014H83.985v-82.031h173.828L123.047 324.217l58.594 -60.547 193.36 195.313h83.985v-83.985L263.673 181.638l60.547 -58.593L458.986 257.81V83.982h82.031v173.829L675.783 123.045l60.547 58.594 -195.313 193.36v83.984h83.985L818.362 263.67l58.593 60.547L742.19 458.983h173.829z"/></svg>