<svg height="1000" width="1000" xmlns="http://www.w3.org/2000/svg"><path d="M535.158 750h85.937C601.564 845.702 517.58 916.014 416.017 916.014c-115.235 0 -207.032 -91.797 -207.032 -207.031C208.985 607.42 279.298 523.436 375 503.905v85.938c-48.828 17.578 -83.985 64.453 -83.985 119.14 0 68.36 56.641 125.001 125 125.001 54.688 0 101.563 -35.156 119.142 -83.985zM416.017 378.904c0 -58.573 65.152 -110.371 125 -76.172h1.953v1.953c9.766 3.906 17.578 9.765 25.39 17.578l54.688 60.547c41.016 44.922 103.516 76.172 167.97 76.172v82.031c-72.266 0 -152.344 -35.156 -207.032 -80.078v142.579h125c44.922 0 82.032 39.062 82.032 83.984v228.516h-82.032V708.984H500.001c-44.922 0 -83.984 -39.063 -83.984 -83.985V378.905zm0 -212.892c0 -46.875 37.11 -82.031 83.984 -82.031s83.985 35.156 83.985 82.031S546.876 249.998 500 249.998s-83.984 -37.11 -83.984 -83.985z"/></svg>