<svg height="1000" width="1000" xmlns="http://www.w3.org/2000/svg"><path d="M500.001 833.984c162.11 0 291.017 -130.86 291.017 -292.97S662.11 249.998 500 249.998 208.985 378.905 208.985 541.014 337.89 833.984 500 833.984zm0 -667.97c208.985 0 375.001 166.016 375.001 375s-166.016 375.001 -375 375.001S125 750 125 541.015 291.016 166.012 500.001 166.012zm21.485 167.969v220.703l166.016 99.61 -33.203 50.781L458.986 583.983v-250h62.5zM330.079 142.576l-193.36 158.203 -52.734 -62.5L275.39 80.076zm585.939 95.703l-52.735 62.5L669.923 136.717l54.688 -62.5z"/></svg>