<svg height="1000" width="1000" xmlns="http://www.w3.org/2000/svg"><path d="M500.001 800.78c103.516 0 195.313 -54.687 250 -134.765 -1.952 -82.032 -167.968 -128.907 -250 -128.907 -83.984 0 -248.047 46.875 -250 128.907 54.687 80.078 146.484 134.766 250 134.766zm0 -591.798c-68.36 0 -125 56.641 -125 125s56.64 125.001 125 125.001 125 -56.64 125 -125 -56.64 -125 -125 -125zm0 -125c230.47 0 416.017 185.547 416.017 416.017S730.471 916.015 500.001 916.015 83.985 730.468 83.985 500 269.532 83.982 500 83.982z"/></svg>