<svg height="1000" width="1000" xmlns="http://www.w3.org/2000/svg"><path d="M666.017 562.499c35.157 0 62.5 -27.344 62.5 -62.5s-27.343 -62.5 -62.5 -62.5 -62.5 27.343 -62.5 62.5 27.344 62.5 62.5 62.5zM500.001 666.015V333.983h416.017v332.032H500.001zm375.001 83.984v41.016c0 44.922 -39.062 83.985 -83.984 83.985H208.985C162.11 875 125 835.937 125 791.015V208.982c0 -44.922 37.11 -83.984 83.985 -83.984h582.033c44.922 0 83.984 39.062 83.984 83.984v41.016h-375c-46.876 0 -83.985 39.063 -83.985 83.985v332.032c0 44.922 37.11 83.984 83.984 83.984h375.001z"/></svg>