<svg height="1000" width="1000" xmlns="http://www.w3.org/2000/svg"><path d="M625.002 374.998c23.437 0 41.015 -17.578 41.015 -41.015s-17.578 -42.97 -41.015 -42.97 -41.016 19.532 -41.016 42.97 17.578 41.015 41.016 41.015zm-250.001 0c23.438 0 41.016 -17.578 41.016 -41.015S398.439 291.013 375 291.013s-41.016 19.532 -41.016 42.97 17.578 41.015 41.016 41.015zm296.876 -193.36c72.266 52.735 119.14 138.673 119.14 234.376v42.969H208.986v-42.969c0 -95.703 46.875 -181.641 119.14 -234.375l-87.89 -87.891 35.156 -33.204 95.704 95.704c39.062 -19.531 82.031 -31.25 128.906 -31.25s89.844 11.719 128.907 31.25L724.61 60.544l35.157 33.204zM208.985 666.016V499.999h582.033v166.016c0 162.11 -128.907 292.97 -291.017 292.97S208.985 828.124 208.985 666.014z"/></svg>