<svg height="1000" width="1000" xmlns="http://www.w3.org/2000/svg"><path d="M541.017 374.998v125h125v83.985h-125v125h-82.031v-125h-125V500h125v-125h82.031zm-41.016 458.986c162.11 0 291.017 -130.86 291.017 -292.97S662.11 249.998 500 249.998 208.985 378.905 208.985 541.014 337.89 833.984 500 833.984zm0 -667.97c207.032 0 375.001 167.969 375.001 375s-167.969 375.001 -375 375.001S125 748.046 125 541.015 292.97 166.012 500.001 166.012zm416.017 72.265l-52.735 64.454L671.877 140.623l52.734 -62.5zM328.126 140.623L136.719 300.779l-52.734 -62.5L275.39 78.123z"/></svg>