<svg height="1000" width="1000" xmlns="http://www.w3.org/2000/svg"><path d="M408.204 583.983c0 -74.219 58.594 -134.766 132.813 -134.766s134.766 60.547 134.766 134.766S615.236 716.796 541.017 716.796 408.204 658.202 408.204 583.983zm132.813 207.032c115.235 0 208.985 -91.797 208.985 -207.032S656.252 374.998 541.017 374.998s-207.032 93.75 -207.032 208.985 91.797 207.032 207.032 207.032zm-291.016 -375V291.013h125v-125h291.016l76.172 83.984h132.813c44.922 0 83.985 39.063 83.985 83.985v500.001c0 44.922 -39.063 82.031 -83.985 82.031H208.985C164.063 916.015 125 878.905 125 833.984v-417.97h125zM125 166.012v-125h83.984v125h125v83.985h-125v125H125v-125H0v-83.985h125z"/></svg>