<svg height="1000" width="1000" xmlns="http://www.w3.org/2000/svg"><path d="M298.829 615.233c0 5.86 3.906 9.766 9.766 9.766h482.423v83.985H291.016c-44.922 0 -82.031 -39.063 -82.031 -83.985 0 -13.672 3.906 -27.344 9.766 -39.063l56.64 -103.515L125.001 166.013H41.015V83.982h136.719a12912.504 12912.504 0 0 1 78.125 166.016c33.264 69.6 66.019 139.71 99.61 208.985h292.97c53.501 -97.54 107.942 -194.142 160.156 -292.97l72.266 41.016L720.705 498.046c-13.672 25.39 -41.016 42.968 -72.266 42.968H337.891l-37.109 68.36zM708.986 750c44.922 0 82.032 39.063 82.032 83.985s-37.11 82.031 -82.032 82.031 -83.984 -37.11 -83.984 -82.031 39.062 -83.985 83.984 -83.985zm-417.97 0c44.922 0 83.985 39.063 83.985 83.985s-39.063 82.031 -83.985 82.031 -82.031 -37.11 -82.031 -82.031 37.11 -83.985 82.031 -83.985zm167.97 -375v-125h-125v-83.986h125v-125h82.031v125h125v83.985h-125v125h-82.031z"/></svg>