<svg height="1000" width="1000" xmlns="http://www.w3.org/2000/svg"><path d="M833.987 835.937l-60.548 60.547L626.955 750H416.017c-68.36 0 -125 -56.64 -125 -125V384.764c0 -50.781 42.968 -93.75 93.75 -93.75h1.953c28.978 0 53.514 16.404 68.36 31.25l58.593 64.453c44.922 48.828 126.954 83.985 195.313 83.985v91.797c-80.078 0 -171.875 -42.969 -230.47 -91.797v154.297h144.532zM250 666.015c0 68.36 56.64 125 125 125h250V875h-250C259.766 875 166.016 781.25 166.016 666.015V291.014h83.985v375zm66.406 -441.408c-33.203 -33.203 -33.203 -83.984 0 -117.187s83.985 -33.204 117.188 0 33.203 83.984 0 117.187 -83.985 33.204 -117.188 0z"/></svg>