<svg height="1000" width="1000" xmlns="http://www.w3.org/2000/svg"><path d="M675.783 624.999l240.235 187.5 -62.5 62.5L695.314 750H410.157C349.61 750 298.83 707.031 287.11 648.437L230.47 402.342c-7.813 -50.781 25.39 -99.61 76.171 -109.375h1.954c29.647 -4.235 55.3 4.006 72.265 17.578l68.36 52.735c52.734 41.015 126.953 66.406 195.313 52.734v89.844C566.408 519.53 496.095 492.186 429.689 455.077l42.968 169.922h203.126zm-9.766 166.016V875h-292.97C269.533 875 181.642 800.78 166.018 699.218L83.984 291.014h82.031l82.032 394.532c9.765 60.547 62.5 105.47 125 105.47h292.97zM222.657 234.373c-37.11 -27.344 -44.922 -78.125 -19.531 -115.235S281.25 72.263 318.36 97.654c37.11 27.344 46.875 80.078 21.485 117.188 -27.344 37.11 -80.079 44.922 -117.188 19.531z"/></svg>