<svg height="1000" width="1000" xmlns="http://www.w3.org/2000/svg"><path d="M625.002 458.983h208.985l-167.97 -167.97h-41.015v167.97zm103.515 269.532c35.157 0 62.5 -27.344 62.5 -62.5s-27.343 -62.5 -62.5 -62.5 -62.5 27.343 -62.5 62.5 27.344 62.5 62.5 62.5zm-187.5 -269.532v-167.97H375.001v167.97h166.016zM250.001 728.515c35.156 0 62.5 -27.344 62.5 -62.5s-27.344 -62.5 -62.5 -62.5 -62.5 27.343 -62.5 62.5 27.343 62.5 62.5 62.5zM125 458.983h166.015v-167.97H125v167.97zm583.985 -250l250 250v207.032H853.519c0 68.36 -56.641 125 -125 125s-125 -56.64 -125 -125H375c0 68.36 -56.64 125 -125 125s-125 -56.64 -125 -125H41.015V291.014c0 -46.875 39.062 -82.032 83.984 -82.032h583.986z"/></svg>