<svg height="1000" width="1000" xmlns="http://www.w3.org/2000/svg"><path d="M333.985 136.717l-35.156 29.296L238.282 107.42l37.11 -29.297zM685.55 765.624L275.39 355.467c-41.015 50.781 -66.406 115.235 -66.406 185.547 0 162.11 128.906 292.97 291.016 292.97 70.313 0 134.766 -27.344 185.548 -68.36zM121.094 95.701c256.4 255.971 513.042 511.7 769.533 767.58l-52.734 52.734 -91.797 -91.797C679.689 880.86 593.752 916.015 500 916.015c-207.031 0 -375 -167.969 -375 -375 0 -93.75 35.156 -177.735 91.796 -244.142L183.594 263.67l-46.875 39.063L78.125 242.186 125 205.076l-56.64 -56.64zm794.924 142.578l-52.735 64.454L671.877 140.623l52.734 -62.5zM500.001 250c-35.156 0 -68.36 5.858 -99.61 17.577l-64.453 -62.5c48.829 -23.437 105.47 -39.063 164.063 -39.063 207.032 0 375.001 167.97 375.001 375.001 0 58.594 -13.672 115.235 -37.11 164.063l-64.453 -62.5c11.72 -31.25 17.579 -66.406 17.579 -101.563C791.018 378.904 662.11 249.998 500 249.998z"/></svg>