<svg height="1000" width="1000" xmlns="http://www.w3.org/2000/svg"><path d="M775.393 275.389c125 0 224.61 101.563 224.61 224.61s-99.61 224.61 -224.61 224.61c-60.547 0 -117.188 -23.438 -160.157 -66.407L562.5 611.327l62.5 -54.688 48.829 41.016c29.297 29.297 64.453 42.97 101.563 42.97 78.125 0 140.625 -62.501 140.625 -140.626S853.518 359.373 775.393 359.373c-37.11 0 -72.266 13.672 -99.61 41.016 -58.854 51.824 -118.11 103.244 -175.782 156.25L382.813 660.155C341.798 701.171 285.157 724.61 224.61 724.61 99.61 724.609 0 623.046 0 499.999s99.61 -224.61 224.61 -224.61c60.547 0 117.188 23.437 160.157 66.406L437.5 388.67l-64.453 54.688 -46.875 -41.016C296.876 373.045 261.719 359.373 224.61 359.373c-78.125 0 -140.625 62.5 -140.625 140.626s62.5 140.625 140.625 140.625c37.11 0 72.266 -13.672 99.61 -41.016C383.073 547.785 442.33 496.364 500 443.358L617.19 339.842c41.016 -41.016 97.657 -64.453 158.204 -64.453z"/></svg>