<svg height="1000" width="1000" xmlns="http://www.w3.org/2000/svg"><path d="M625.002 208.982v-42.969h-41.016v42.97h41.016zm-208.985 0v-42.969H375v42.97h41.016zM646.486 89.842c62.5 44.921 103.516 119.14 103.516 201.172H250c0 -82.032 39.062 -156.25 101.562 -201.173L296.876 35.154c-7.813 -7.813 -7.813 -21.485 0 -29.297s21.484 -7.813 29.297 0l62.5 62.5C421.876 50.779 460.939 41.013 500 41.013s76.172 9.766 109.376 27.344l62.5 -62.5c7.812 -7.813 21.484 -7.813 29.297 0s7.812 21.484 0 29.297zm207.032 244.14c35.156 0 62.5 27.344 62.5 62.5V687.5c0 35.157 -27.344 62.5 -62.5 62.5s-62.5 -27.343 -62.5 -62.5V396.483c0 -35.157 27.343 -62.5 62.5 -62.5zm-707.033 0c35.156 0 62.5 27.344 62.5 62.5V687.5c0 35.157 -27.344 62.5 -62.5 62.5s-62.5 -27.343 -62.5 -62.5V396.483c0 -35.157 27.343 -62.5 62.5 -62.5zM250 750V333.983h500v416.016c0 23.438 -17.577 41.016 -41.015 41.016h-42.969V937.5c0 35.156 -27.343 62.5 -62.5 62.5s-62.5 -27.344 -62.5 -62.5V791.015h-82.031V937.5c0 35.156 -27.344 62.5 -62.5 62.5s-62.5 -27.344 -62.5 -62.5V791.015h-42.97c-23.437 0 -41.015 -17.578 -41.015 -41.016z"/></svg>