<svg height="1000" width="1000" xmlns="http://www.w3.org/2000/svg"><path d="M500.001 208.982c23.438 0 41.016 -19.531 41.016 -42.969s-17.578 -41.015 -41.016 -41.015 -41.015 17.578 -41.015 41.015 17.578 42.97 41.015 42.97zm41.016 375.001v-250h-82.031v250h82.031zm0 166.016v-83.984h-82.031v83.984h82.031zm250 -625.001c44.923 0 83.985 39.062 83.985 83.984v582.033c0 44.922 -39.062 83.985 -83.984 83.985H208.985C164.063 875 125 835.937 125 791.015V208.982c0 -44.922 39.063 -83.984 83.985 -83.984h173.828c17.579 -48.828 62.5 -83.985 117.188 -83.985s99.61 35.157 117.188 83.985h173.829z"/></svg>