<svg height="1000" width="1000" xmlns="http://www.w3.org/2000/svg"><path d="M750.002 791.015v-58.594c0 -83.984 -166.016 -128.906 -250 -128.906S250 648.437 250 732.42v58.594h500zm-250 -500.001c-68.36 0 -125.001 56.64 -125.001 125s56.64 125 125 125 125 -56.64 125 -125 -56.64 -125 -125 -125zm0 -166.016c-23.438 0 -41.016 17.578 -41.016 41.015s17.578 42.97 41.015 42.97 41.016 -19.532 41.016 -42.97 -17.578 -41.015 -41.016 -41.015zm291.016 0c44.922 0 83.984 39.062 83.984 83.984v582.033c0 44.922 -39.062 83.985 -83.984 83.985H208.985C164.063 875 125 835.937 125 791.015V208.982c0 -44.922 39.063 -83.984 83.985 -83.984h173.828c17.579 -48.828 62.5 -83.985 117.188 -83.985s99.61 35.157 117.188 83.985h173.829z"/></svg>