<svg height="1000" width="1000" xmlns="http://www.w3.org/2000/svg"><path d="M666.017 624.999V458.983H500.001v-125L291.016 541.014 500.001 750V625h166.016zM500.001 124.998c-23.437 0 -41.015 17.578 -41.015 41.015s17.578 42.97 41.015 42.97 41.016 -19.532 41.016 -42.97 -17.578 -41.015 -41.016 -41.015zm291.017 0c44.922 0 83.984 39.062 83.984 83.984v582.033c0 44.922 -39.062 83.985 -83.984 83.985H208.985C164.063 875 125 835.937 125 791.015V208.982c0 -44.922 39.063 -83.984 83.985 -83.984h173.828c17.579 -48.828 62.5 -83.985 117.188 -83.985s99.61 35.157 117.188 83.985h173.829z"/></svg>