<svg height="1000" width="1000" xmlns="http://www.w3.org/2000/svg"><path d="M687.502 249.998h62.5v478.517c0 126.953 -101.563 230.47 -228.516 230.47S291.016 855.467 291.016 728.514V208.982c0 -91.797 76.172 -167.969 167.97 -167.969s166.016 76.172 166.016 167.97v437.5C625.002 703.124 578.126 750 521.486 750S416.016 703.124 416.016 646.483V249.998h62.5v396.485c0 23.438 19.532 41.016 42.97 41.016S562.5 669.921 562.5 646.483v-437.5c0 -56.641 -46.875 -105.47 -103.515 -105.47s-105.47 48.829 -105.47 105.47v519.532c0 91.797 76.173 167.97 167.97 167.97s166.016 -76.173 166.016 -167.97V249.998z"/></svg>