<svg height="1000" width="1000" xmlns="http://www.w3.org/2000/svg"><path d="M83.985 521.483c0 -126.953 101.562 -230.47 228.516 -230.47H750c91.798 0 166.017 76.173 166.017 167.97S841.799 624.999 750.002 624.999H396.485c-56.64 0 -105.469 -46.875 -105.469 -103.516s48.829 -105.469 105.47 -105.469h312.5V500H392.58c-23.437 0 -23.437 41.015 0 41.015h357.423c44.922 0 83.985 -37.109 83.985 -82.031s-39.063 -83.985 -83.985 -83.985H312.5c-80.079 0 -146.485 66.407 -146.485 146.485s66.406 144.532 146.485 144.532h396.485v83.984H312.501C185.547 750 83.985 648.437 83.985 521.483z"/></svg>