<svg height="1000" width="1000" xmlns="http://www.w3.org/2000/svg"><path d="M492.189 455.077c93.75 25.39 195.313 62.5 195.313 181.64 0 85.939 -64.454 132.814 -146.485 148.439V875h-125v-89.844C335.938 767.578 269.532 716.796 263.673 624.999h91.797c3.906 48.828 37.11 87.89 123.047 87.89 91.797 0 113.281 -44.921 113.281 -74.218 0 -39.063 -21.484 -76.172 -125 -101.563C349.61 509.764 271.485 460.936 271.485 365.233c0 -80.079 64.453 -132.813 144.532 -150.391v-89.844h125v91.797c87.89 21.484 132.813 85.938 134.766 158.203h-91.797c-1.953 -52.734 -31.25 -87.89 -105.47 -87.89 -70.312 0 -111.328 33.203 -111.328 78.125 0 39.062 31.25 64.453 125 89.844z"/></svg>