<svg height="1000" width="1000" xmlns="http://www.w3.org/2000/svg"><path d="M781.252 322.264c33.203 50.781 52.735 113.281 52.735 177.735 0 183.594 -150.391 333.985 -333.986 333.985v125L333.985 791.015 500.001 625v125a249.236 249.236 0 0 0 250 -250c0 -42.97 -11.718 -82.032 -29.296 -117.188zm-281.25 -72.266A249.236 249.236 0 0 0 250 499.998c0 42.97 9.765 82.032 29.297 117.189l-60.547 60.547C185.547 626.952 166.016 564.452 166.016 499.999c0 -183.595 150.391 -333.986 333.985 -333.986v-125l166.016 167.97L500.001 374.997v-125z"/></svg>