<svg height="1000" width="1000" xmlns="http://www.w3.org/2000/svg"><path d="M250 499.999c0 -23.438 17.579 -41.016 41.016 -41.016s42.97 17.578 42.97 41.016 -19.532 41.015 -42.97 41.015S250.001 523.436 250.001 500zm500.002 0c0 23.437 -17.578 41.015 -41.016 41.015S666.017 523.436 666.017 500s19.532 -41.016 42.97 -41.016 41.015 17.578 41.015 41.016zM458.986 124.998H500c207.032 0 375.001 167.969 375.001 375S707.033 875 500.002 875 125 707.03 125 499.999c0 -123.047 58.594 -230.47 150.391 -298.83v-1.952L558.595 482.42l-58.594 58.593L273.438 316.404C232.422 367.186 208.985 429.686 208.985 500c0 162.11 128.906 291.016 291.016 291.016S791.018 662.11 791.018 500c0 -146.485 -109.376 -269.532 -250.001 -289.064v80.079h-82.031V124.998zm0 583.986c0 -23.438 17.578 -42.97 41.015 -42.97s41.016 19.532 41.016 42.97 -17.578 41.015 -41.016 41.015 -41.015 -17.578 -41.015 -41.015z"/></svg>