<svg height="1000" width="1000" xmlns="http://www.w3.org/2000/svg"><path d="M595.705 529.296c17.578 -17.579 29.297 -42.97 29.297 -70.313 0 -68.36 -56.641 -125 -125 -125S375 390.623 375 458.983h62.5c0 -35.156 27.344 -62.5 62.5 -62.5s62.5 27.344 62.5 62.5c0 17.578 -5.859 31.25 -17.578 42.969l-39.062 39.062C486.329 560.546 466.798 589.843 466.798 625h66.406c0 -19.531 15.626 -46.875 35.157 -66.406 11.719 -11.72 27.344 -29.297 27.344 -29.297zm-56.641 218.75v-80.078h-78.125v80.078h78.125zM652.345 166.013c31.25 0 56.641 25.391 56.641 56.641v638.674c0 31.25 -25.39 54.687 -56.64 54.687H347.656c-31.25 0 -56.64 -23.437 -56.64 -54.687V222.654c0 -31.25 25.39 -56.64 56.64 -56.64h68.36V83.981h167.969v82.031h68.36z"/></svg>