<svg height="1000" width="1000" xmlns="http://www.w3.org/2000/svg"><path d="M500.001 833.984c183.595 0 333.986 -150.391 333.986 -333.985 0 -76.172 -25.391 -148.438 -70.313 -205.079L294.923 763.671c56.64 44.922 128.906 70.313 205.078 70.313zM166.016 499.999c0 76.172 25.39 148.438 70.313 205.078l468.75 -468.75C648.44 191.403 576.174 166.012 500.002 166.012 316.407 166.013 166.016 316.405 166.016 500zM500.001 83.982c230.47 0 416.017 185.547 416.017 416.017S730.471 916.015 500.001 916.015 83.985 730.468 83.985 500 269.532 83.982 500 83.982z"/></svg>