<svg height="1000" width="1000" xmlns="http://www.w3.org/2000/svg"><path d="M537.11 679.687l-78.124 -80.079v158.204zM458.987 242.186v158.203l78.125 -80.078zm195.313 78.125L474.61 499.999l179.688 179.688L416.017 916.015H375V599.608L183.594 791.015 125 732.421 357.423 500 125 267.576l58.594 -58.594L375.001 400.39V83.982h41.016zm160.156 -41.016c39.063 62.5 60.547 138.672 60.547 216.797 0 82.032 -23.437 156.25 -64.453 220.704L761.72 667.968c25.39 -50.781 41.015 -107.422 41.015 -167.97S787.111 382.812 761.721 332.03zM593.752 499.999l95.703 -95.704c11.719 29.297 19.531 62.5 19.531 95.704s-7.812 68.36 -19.531 97.656z"/></svg>