<svg height="1000" width="1000" xmlns="http://www.w3.org/2000/svg"><path d="M125 562.499c11.72 0 21.485 9.766 21.485 21.484S136.719 603.515 125 603.515s-21.484 -7.813 -21.484 -19.532S113.282 562.5 125 562.5zm125 146.485c23.438 0 41.016 17.578 41.016 41.015s-17.578 41.016 -41.015 41.016S208.985 773.437 208.985 750 226.563 708.984 250 708.984zm166.017 144.531c11.718 0 21.484 9.766 21.484 21.485s-9.766 21.484 -21.484 21.484S396.485 886.718 396.485 875s7.813 -21.485 19.532 -21.485zM125 396.483c11.72 0 21.485 7.812 21.485 19.531S136.719 437.5 125 437.5s-21.484 -9.766 -21.484 -21.485S113.282 396.483 125 396.483zm125 144.531c23.438 0 41.016 19.532 41.016 42.97s-17.578 41.015 -41.015 41.015 -41.016 -17.578 -41.016 -41.016S226.563 541.014 250 541.014zM875.003 562.5c11.719 0 21.485 9.766 21.485 21.484s-9.766 19.532 -21.485 19.532 -21.484 -7.813 -21.484 -19.532S863.283 562.5 875.002 562.5zM416.017 708.984c23.437 0 42.969 17.578 42.969 41.015s-19.532 41.016 -42.97 41.016S375.002 773.437 375.002 750s17.578 -41.015 41.016 -41.015zM103.516 218.748l52.734 -52.735L833.987 843.75l-54.688 52.734L623.049 738.281c1.953 3.906 1.953 7.812 1.953 11.718 0 23.438 -17.579 41.016 -41.016 41.016S541.017 773.437 541.017 750s19.531 -41.015 42.969 -41.015c3.906 0 7.812 0 11.719 1.953L478.517 593.749c-3.906 29.297 -31.25 52.734 -62.5 52.734 -35.157 0 -62.5 -27.343 -62.5 -62.5 0 -31.25 23.437 -58.594 52.734 -62.5L289.063 404.295c1.953 3.907 1.953 7.813 1.953 11.72 0 23.437 -17.578 42.968 -41.015 42.968s-41.016 -19.531 -41.016 -42.969S226.563 374.998 250 374.998l11.718 1.954zm480.47 634.767c11.719 0 19.531 9.766 19.531 21.485s-7.812 21.484 -19.531 21.484S562.5 886.718 562.5 875s9.766 -21.485 21.485 -21.485zM750.002 291.014c-23.438 0 -41.016 -17.578 -41.016 -41.016s17.578 -41.016 41.016 -41.016 41.016 17.579 41.016 41.016 -17.579 41.016 -41.016 41.016zm0 167.969c-23.438 0 -41.016 -19.531 -41.016 -42.969s17.578 -41.016 41.016 -41.016 41.016 17.579 41.016 41.016 -17.579 42.969 -41.016 42.969zm0 166.016c-23.438 0 -41.016 -17.578 -41.016 -41.016s17.578 -42.969 41.016 -42.969 41.016 19.532 41.016 42.97 -17.579 41.015 -41.016 41.015zM416.017 291.014C392.579 291.014 375 273.436 375 249.998s17.578 -41.016 41.016 -41.016 42.969 17.579 42.969 41.016 -19.532 41.016 -42.97 41.016zm458.985 146.485c-11.719 0 -21.484 -9.766 -21.484 -21.485s9.765 -19.531 21.484 -19.531 21.485 7.812 21.485 19.531S886.72 437.5 875.002 437.5zM416.017 146.482c-11.72 0 -19.532 -9.765 -19.532 -21.484s7.813 -21.485 19.532 -21.485 21.484 9.766 21.484 21.485 -9.766 21.484 -21.484 21.484zm167.969 0c-11.719 0 -21.485 -9.765 -21.485 -21.484s9.766 -21.485 21.485 -21.485 19.531 9.766 19.531 21.485 -7.812 21.484 -19.531 21.484zm-9.766 332.032c-27.344 -3.906 -48.828 -25.39 -52.734 -52.734v-9.766c0 -35.156 27.344 -62.5 62.5 -62.5s62.5 27.344 62.5 62.5 -27.344 62.5 -62.5 62.5h-9.766zm9.766 -187.5c-23.438 0 -42.969 -17.578 -42.969 -41.016s19.531 -41.016 42.969 -41.016 41.016 17.579 41.016 41.016 -17.579 41.016 -41.016 41.016z"/></svg>