<svg height="1000" width="1000" xmlns="http://www.w3.org/2000/svg"><path d="M541.017 708.984c-23.438 0 -41.016 -19.532 -41.016 -42.97S517.58 625 541.017 625s42.969 17.578 42.969 41.016 -19.531 42.969 -42.969 42.969zm0 -167.97c-23.438 0 -41.016 -17.578 -41.016 -41.015s17.578 -41.016 41.016 -41.016 42.969 17.578 42.969 41.016 -19.531 41.015 -42.969 41.015zm0 -166.016c-23.438 0 -41.016 -17.578 -41.016 -41.015s17.578 -42.97 41.016 -42.97 42.969 19.532 42.969 42.97 -19.531 41.015 -42.969 41.015zm167.97 146.485c-11.72 0 -21.485 -9.766 -21.485 -21.484s9.765 -21.485 21.484 -21.485 19.531 9.766 19.531 21.485 -7.812 21.484 -19.53 21.484zm0 -167.969c-11.72 0 -21.485 -7.813 -21.485 -19.531s9.765 -21.485 21.484 -21.485 19.531 9.766 19.531 21.485 -7.812 19.531 -19.53 19.531zM125 124.998h750.002v83.984H125v-83.984zm583.986 562.501c-11.719 0 -21.484 -9.765 -21.484 -21.484s9.765 -19.532 21.484 -19.532 19.531 7.813 19.531 19.532 -7.812 21.484 -19.53 21.484zm-333.985 21.485c-23.438 0 -41.016 -19.532 -41.016 -42.97S351.563 625 375.001 625s41.016 17.578 41.016 41.016S398.439 708.984 375 708.984zM208.985 562.499c-35.156 0 -62.5 -27.344 -62.5 -62.5s27.344 -62.5 62.5 -62.5 62.5 27.343 62.5 62.5 -27.344 62.5 -62.5 62.5zm0 -166.016c-35.156 0 -62.5 -27.344 -62.5 -62.5s27.344 -62.5 62.5 -62.5 62.5 27.343 62.5 62.5 -27.344 62.5 -62.5 62.5zM125 875v-83.985h750.002V875H125zM375.001 374.998c-23.438 0 -41.016 -17.578 -41.016 -41.015s17.578 -42.97 41.016 -42.97 41.016 19.532 41.016 42.97S398.439 374.998 375 374.998zm0 166.016c-23.438 0 -41.016 -17.578 -41.016 -41.015s17.578 -41.016 41.016 -41.016 41.016 17.578 41.016 41.016S398.439 541.014 375 541.014zm-166.016 187.5c-35.156 0 -62.5 -27.343 -62.5 -62.5s27.344 -62.5 62.5 -62.5 62.5 27.344 62.5 62.5 -27.344 62.5 -62.5 62.5z"/></svg>