<svg height="1000" width="1000" xmlns="http://www.w3.org/2000/svg"><path d="M583.986 353.514c35.156 0 62.5 27.344 62.5 62.5s-27.344 62.5 -62.5 62.5 -62.5 -27.344 -62.5 -62.5 27.344 -62.5 62.5 -62.5zm0 167.97c35.156 0 62.5 27.343 62.5 62.5s-27.344 62.5 -62.5 62.5 -62.5 -27.344 -62.5 -62.5 27.344 -62.5 62.5 -62.5zm-167.97 187.5c23.438 0 42.97 17.578 42.97 41.015s-19.532 41.016 -42.97 41.016S375.002 773.437 375.002 750s17.578 -41.015 41.016 -41.015zm0 -355.47c35.157 0 62.5 27.344 62.5 62.5s-27.343 62.5 -62.5 62.5 -62.5 -27.344 -62.5 -62.5 27.344 -62.5 62.5 -62.5zm167.97 500.001c11.719 0 19.531 9.766 19.531 21.485s-7.812 21.484 -19.531 21.484S562.5 886.718 562.5 875s9.766 -21.485 21.485 -21.485zm0 -144.531c23.437 0 41.016 17.578 41.016 41.015s-17.579 41.016 -41.016 41.016S541.017 773.437 541.017 750s19.531 -41.015 42.969 -41.015zM875.002 562.499c11.719 0 21.485 9.766 21.485 21.484s-9.766 19.532 -21.485 19.532 -21.484 -7.813 -21.484 -19.532S863.283 562.5 875.002 562.5zm-125 -353.517c23.437 0 41.016 17.579 41.016 41.016s-17.579 41.016 -41.016 41.016 -41.016 -17.578 -41.016 -41.016 17.578 -41.016 41.016 -41.016zm0 166.016c23.437 0 41.016 17.579 41.016 41.016s-17.579 42.969 -41.016 42.969 -41.016 -19.531 -41.016 -42.969 17.578 -41.016 41.016 -41.016zm0 333.986c23.437 0 41.016 17.578 41.016 41.015s-17.579 41.016 -41.016 41.016S708.986 773.437 708.986 750s17.578 -41.015 41.016 -41.015zm0 -167.97c23.437 0 41.016 19.532 41.016 42.97s-17.579 41.015 -41.016 41.015 -41.016 -17.578 -41.016 -41.016 17.578 -42.969 41.016 -42.969zm-333.985 -19.53c35.156 0 62.5 27.343 62.5 62.5s-27.344 62.5 -62.5 62.5 -62.5 -27.344 -62.5 -62.5 27.343 -62.5 62.5 -62.5zm0 -230.47C392.579 291.014 375 273.436 375 249.998s17.578 -41.016 41.016 -41.016 42.969 17.579 42.969 41.016 -19.532 41.016 -42.97 41.016zm0 -144.532c-11.72 0 -19.532 -9.765 -19.532 -21.484s7.813 -21.485 19.532 -21.485 21.484 9.766 21.484 21.485 -9.766 21.484 -21.484 21.484zm0 707.033c11.718 0 21.484 9.766 21.484 21.485s-9.766 21.484 -21.484 21.484S396.485 886.718 396.485 875s7.813 -21.485 19.532 -21.485zM125 562.5c11.72 0 21.485 9.766 21.485 21.484S136.719 603.515 125 603.515s-21.484 -7.813 -21.484 -19.532S113.282 562.5 125 562.5zM583.986 146.482c-11.719 0 -21.485 -9.765 -21.485 -21.484s9.766 -21.485 21.485 -21.485 19.531 9.766 19.531 21.485 -7.812 21.484 -19.531 21.484zm0 144.532c-23.438 0 -42.969 -17.578 -42.969 -41.016s19.531 -41.016 42.969 -41.016 41.016 17.579 41.016 41.016 -17.579 41.016 -41.016 41.016zm291.016 146.485c-11.719 0 -21.484 -9.766 -21.484 -21.485s9.765 -19.531 21.484 -19.531 21.485 7.812 21.485 19.531S886.72 437.5 875.002 437.5zM250.001 208.982c23.437 0 41.015 17.579 41.015 41.016s-17.578 41.016 -41.015 41.016 -41.016 -17.578 -41.016 -41.016S226.563 208.982 250 208.982zm-125 187.5c11.718 0 21.484 7.813 21.484 19.532S136.719 437.5 125 437.5s-21.484 -9.766 -21.484 -21.485S113.282 396.483 125 396.483zm125 -21.484c23.437 0 41.015 17.579 41.015 41.016s-17.578 42.969 -41.015 42.969 -41.016 -19.531 -41.016 -42.969S226.563 374.998 250 374.998zm0 333.986c23.437 0 41.015 17.578 41.015 41.015s-17.578 41.016 -41.015 41.016S208.985 773.437 208.985 750 226.563 708.984 250 708.984zm0 -167.97c23.437 0 41.015 19.532 41.015 42.97s-17.578 41.015 -41.015 41.015 -41.016 -17.578 -41.016 -41.016S226.563 541.014 250 541.014z"/></svg>