<svg height="1000" width="1000" xmlns="http://www.w3.org/2000/svg"><path d="M583.986 541.014c23.437 0 41.016 19.532 41.016 42.97s-17.579 41.015 -41.016 41.015 -42.969 -17.578 -42.969 -41.016 19.531 -42.969 42.969 -42.969zm0 146.485c11.719 0 19.531 9.766 19.531 21.485s-7.812 19.53 -19.531 19.53S562.5 720.703 562.5 708.985s9.766 -21.485 21.485 -21.485zM500 833.984c183.594 0 333.986 -150.391 333.986 -333.985S683.595 166.013 500 166.013 166.016 316.404 166.016 500s150.391 333.985 333.985 333.985zm0 -750.002c230.47 0 416.017 185.547 416.017 416.017S730.471 916.015 500.001 916.015 83.985 730.468 83.985 500 269.532 83.982 500 83.982zm208.985 312.5c11.719 0 19.531 7.813 19.531 19.532s-7.812 21.485 -19.53 21.485 -21.485 -9.766 -21.485 -21.485 9.765 -19.531 21.484 -19.531zm0 166.017c11.719 0 19.531 9.766 19.531 21.484s-7.812 19.532 -19.53 19.532 -21.485 -7.813 -21.485 -19.532S697.267 562.5 708.986 562.5zm-125 -250c-11.719 0 -21.485 -9.766 -21.485 -21.485s9.766 -19.531 21.485 -19.531 19.531 7.812 19.531 19.53 -7.812 21.485 -19.531 21.485zm0 62.5c23.437 0 41.016 17.578 41.016 41.015s-17.579 42.969 -41.016 42.969 -42.969 -19.531 -42.969 -42.969 19.531 -41.016 42.969 -41.016zm-167.97 -62.5c-11.718 0 -19.53 -9.766 -19.53 -21.485s7.812 -19.531 19.53 -19.531 21.485 7.812 21.485 19.53 -9.766 21.485 -21.484 21.485zm-125 250c11.72 0 21.485 9.766 21.485 21.484s-9.766 19.532 -21.485 19.532 -19.53 -7.813 -19.53 -19.532 7.812 -21.484 19.53 -21.484zm125 125c11.72 0 21.485 9.766 21.485 21.485s-9.766 19.53 -21.484 19.53 -19.532 -7.812 -19.532 -19.53 7.813 -21.485 19.532 -21.485zm-125 -291.016c11.72 0 21.485 7.812 21.485 19.531S302.735 437.5 291.016 437.5s-19.53 -9.766 -19.53 -21.485 7.812 -19.531 19.53 -19.531zm125 144.531c23.438 0 42.97 19.532 42.97 42.97s-19.532 41.015 -42.97 41.015 -41.015 -17.578 -41.015 -41.016 17.578 -42.969 41.016 -42.969zm0 -166.016c23.438 0 42.97 17.579 42.97 41.016s-19.532 42.969 -42.97 42.969 -41.015 -19.531 -41.015 -42.969 17.578 -41.016 41.016 -41.016z"/></svg>