<svg height="1000" width="1000" xmlns="http://www.w3.org/2000/svg"><path d="M625.002 541.014v-82.031h83.984v82.031h-83.984zM791.018 875v-83.985h83.984V875h-83.984zM458.986 374.998v-83.984h82.031v83.984h-82.031zM625.002 875v-83.985h83.984V875h-83.984zM791.018 708.984v-83.985h83.984v83.985h-83.984zM125 124.998h750.002v83.984H125v-83.984zm666.018 416.016v-82.031h83.984v82.031h-83.984zm0 -166.016v-83.984h83.984v83.984h-83.984zM458.986 708.984v-83.985h82.031v83.985h-82.031zM125 374.998v-83.984h83.985v83.984H125zm0 166.016v-82.031h83.985v82.031H125zM125 875v-83.985h83.985V875H125zm0 -166.016v-83.985h83.985v83.985H125zM458.986 875v-83.985h82.031V875h-82.031zm0 -333.986v-82.031h82.031v82.031h-82.031zm-167.97 0v-82.031h83.985v82.031h-83.985zm0 333.986v-83.985h83.985V875h-83.985z"/></svg>