<svg height="1000" width="1000" xmlns="http://www.w3.org/2000/svg"><path d="M458.986 374.998v-83.984h82.031v83.984h-82.031zm0 -166.016v-83.984h82.031v83.984h-82.031zm0 332.032v-82.031h82.031v82.031h-82.031zM625.002 208.982v-83.984h83.984v83.984h-83.984zm0 666.018v-83.985h83.984V875h-83.984zM791.018 124.998h83.984V875h-83.984V124.998zM625.002 541.014v-82.031h83.984v82.031h-83.984zm-166.016 167.97v-83.985h82.031v83.985h-82.031zM125 374.998v-83.984h83.985v83.984H125zm0 333.986v-83.985h83.985v83.985H125zm0 -167.97v-82.031h83.985v82.031H125zM458.986 875v-83.985h82.031V875h-82.031zM125 875v-83.985h83.985V875H125zM291.016 541.014v-82.031h83.985v82.031h-83.985zm0 -332.032v-83.984h83.985v83.984h-83.985zm-166.016 0v-83.984h83.985v83.984H125zM291.016 875v-83.985h83.985V875h-83.985z"/></svg>