<svg height="1000" width="1000" xmlns="http://www.w3.org/2000/svg"><path d="M791.018 875v-83.985h83.984V875h-83.984zm-166.016 0v-83.985h83.984V875h-83.984zM458.986 708.984v-83.985h82.031v83.985h-82.031zM791.018 374.998v-83.984h83.984v83.984h-83.984zm0 -250h83.984v83.984h-83.984v-83.984zM125 541.014v-82.031h750.002v82.031H125zM458.986 875v-83.985h82.031V875h-82.031zM791.018 708.984v-83.985h83.984v83.985h-83.984zM541.017 124.998v83.984h-82.031v-83.984h82.031zm0 166.016v83.984h-82.031v-83.984h82.031zm167.97 -166.016v83.984h-83.985v-83.984h83.984zm-333.986 0v83.984h-83.985v-83.984h83.985zm-166.016 0v83.984H125v-83.984h83.985zM291.016 875v-83.985h83.985V875h-83.985zM125 708.984v-83.985h83.985v83.985H125zm83.985 -417.97v83.984H125v-83.984h83.985zM125 875v-83.985h83.985V875H125z"/></svg>