<svg height="1000" width="1000" xmlns="http://www.w3.org/2000/svg"><path d="M208.985 624.999v83.985H125v-83.985h83.985zm-83.985 250v-83.984h750.002V875H125zm83.985 -416.016v82.031H125v-82.031h83.985zm582.033 -83.985v-83.984h83.984v83.984h-83.984zm0 -250h83.984v83.984h-83.984v-83.984zM208.985 291.014v83.984H125v-83.984h83.985zm582.033 417.97v-83.985h83.984v83.985h-83.984zm0 -167.97v-82.031h83.984v82.031h-83.984zM708.986 124.998v83.984h-83.984v-83.984h83.984zm-167.969 0v83.984h-82.031v-83.984h82.031zm167.97 333.985v82.031h-83.985v-82.031h83.984zm-167.97 -167.97v83.985h-82.031v-83.984h82.031zM208.985 124.999v83.984H125v-83.984h83.985zm332.032 333.985v82.031h-82.031v-82.031h82.031zM375.001 124.998v83.984h-83.985v-83.984h83.985zm166.016 500.001v83.985h-82.031v-83.985h82.031zM375.001 458.983v82.031h-83.985v-82.031h83.985z"/></svg>