<svg height="1000" width="1000" xmlns="http://www.w3.org/2000/svg"><path d="M625.002 208.982v-83.984h83.984v83.984h-83.984zm0 332.032v-82.031h83.984v82.031h-83.984zM791.018 875v-83.985h83.984V875h-83.984zm0 -333.986v-82.031h83.984v82.031h-83.984zm0 -416.016h83.984v83.984h-83.984v-83.984zm0 583.986v-83.985h83.984v83.985h-83.984zM625.002 875v-83.985h83.984V875h-83.984zM791.018 374.998v-83.984h83.984v83.984h-83.984zM125 875V124.998h83.985V875H125zM291.016 541.014v-82.031h83.985v82.031h-83.985zm0 -332.032v-83.984h83.985v83.984h-83.985zm0 666.018v-83.985h83.985V875h-83.985zm167.97 -333.986v-82.031h82.031v82.031h-82.031zm0 -166.016v-83.984h82.031v83.984h-82.031zm0 -166.016v-83.984h82.031v83.984h-82.031zm0 500.002v-83.985h82.031v83.985h-82.031zm0 166.016v-83.985h82.031V875h-82.031z"/></svg>