<svg height="1000" width="1000" xmlns="http://www.w3.org/2000/svg"><path d="M791.018 708.984v-83.985h83.984v83.985h-83.984zm0 166.016v-83.985h83.984V875h-83.984zM541.017 124.998v333.985h333.985v82.031H541.017V875h-82.031V541.014H125v-82.031h333.986V124.998h82.031zM625.002 875v-83.985h83.984V875h-83.984zM791.018 124.998h83.984v83.984h-83.984v-83.984zm0 250v-83.984h83.984v83.984h-83.984zm-82.032 -250v83.984h-83.984v-83.984h83.984zm-500.001 0v83.984H125v-83.984h83.985zm166.016 0v83.984h-83.985v-83.984h83.985zm-250 583.986v-83.985h83.984v83.985H125zm83.984 -417.97v83.984H125v-83.984h83.985zM291.016 875v-83.985h83.985V875h-83.985zM125 875v-83.985h83.985V875H125z"/></svg>