<svg height="1000" width="1000" xmlns="http://www.w3.org/2000/svg"><path d="M500.001 333.983c91.797 0 166.016 74.219 166.016 166.016S591.798 666.015 500.001 666.015 333.985 591.795 333.985 499.999s74.22 -166.016 166.016 -166.016zm0 416.016c138.673 0 250 -111.328 250 -250s-111.327 -250 -250 -250 -250 111.327 -250 250 111.328 250 250 250zM833.987 361.326L970.706 500 833.986 638.67v195.313H638.675L500 970.704 361.33 833.983H166.016V638.671L29.296 499.999l136.72 -138.673V166.013h195.313L500.001 29.294l138.673 136.72h195.313v195.312z"/></svg>