<svg height="1000" width="1000" xmlns="http://www.w3.org/2000/svg"><path d="M500.001 750c138.673 0 250 -111.329 250 -250.001s-111.327 -250 -250 -250c-37.11 0 -72.266 9.765 -103.516 23.437 85.938 39.062 144.532 125 144.532 226.563s-58.594 187.5 -144.532 226.563c31.25 13.672 66.407 23.437 103.516 23.437zM833.987 361.325L970.706 500 833.986 638.67v195.313H638.675L500 970.704 361.33 833.983H166.016V638.671L29.296 499.999l136.72 -138.673V166.013h195.313L500.001 29.294l138.673 136.72h195.313v195.312z"/></svg>