<svg height="1000" width="1000" xmlns="http://www.w3.org/2000/svg"><path d="M433.595 367.186c0 -111.329 87.89 -201.173 199.22 -201.173s201.172 89.844 201.172 201.173 -89.844 199.22 -201.173 199.22 -199.22 -87.892 -199.22 -199.22zm99.61 382.813c0 -46.875 37.109 -83.984 83.984 -83.984s82.032 37.11 82.032 83.984 -35.157 83.985 -82.032 83.985 -83.985 -37.11 -83.985 -83.985zM166.015 599.61c0 -74.22 60.547 -132.813 134.766 -132.813s132.813 58.593 132.813 132.812S375 732.421 300.782 732.421 166.016 673.827 166.016 599.608z"/></svg>