<svg height="1000" width="1000" xmlns="http://www.w3.org/2000/svg"><path d="M583.986 499.999v-83.985h-167.97V500h167.97zm0 166.016v-82.032h-167.97v82.032h167.97zm250 -332.032v82.031h-87.89c1.953 13.672 3.906 29.297 3.906 42.969v41.016h83.985v83.984h-83.985V625c0 13.672 -1.953 27.344 -3.906 41.016h87.89v83.984H716.8c-42.97 74.22 -125 125 -216.798 125S326.173 824.22 283.204 750H166.016v-83.984h87.89c-1.952 -13.672 -3.905 -27.344 -3.905 -41.016v-41.016h-83.985V500h83.985v-41.016c0 -13.672 1.953 -29.297 3.906 -42.969h-87.891v-82.031h117.188c19.531 -33.204 44.922 -60.547 76.172 -82.032l-68.36 -68.36 58.594 -58.593 91.797 89.844c19.532 -3.907 39.063 -5.86 58.594 -5.86s39.063 1.953 58.594 5.86l91.797 -89.844 58.594 58.594 -68.36 68.36c31.25 21.484 56.641 48.827 76.173 82.03h117.188z"/></svg>