<svg height="1000" width="1000" xmlns="http://www.w3.org/2000/svg"><path d="M583.986 291.014v-82.032h-167.97v82.032h167.97zm250 0c44.922 0 82.032 39.062 82.032 83.984v125c0 44.923 -37.11 83.985 -82.031 83.985H583.986V500h-167.97v83.984h-250c-46.875 0 -82.031 -37.11 -82.031 -83.984v-125c0 -44.923 37.11 -83.985 82.031 -83.985h166.016v-82.032l83.985 -83.984h166.016l83.984 83.984v82.032h167.97zm-417.97 375h167.97V625h291.016v166.016c0 46.875 -37.11 83.985 -83.984 83.985H208.985C162.11 875 125 837.89 125 791.015V625h291.017v41.016z"/></svg>