<svg height="1000" width="1000" xmlns="http://www.w3.org/2000/svg"><path d="M250 499.999h125.001L208.985 666.015 41.015 499.999h125.001c0 -183.595 150.391 -333.986 333.985 -333.986 64.454 0 126.954 19.532 177.735 52.735l-60.547 60.547C582.033 259.764 542.97 249.998 500.001 249.998a249.236 249.236 0 0 0 -250 250zM791.019 333.983l167.969 166.016h-125c0 183.594 -150.391 333.985 -333.986 333.985 -64.453 0 -126.953 -19.531 -177.735 -52.735l60.547 -60.547C417.97 740.234 457.033 750 500.001 750a249.236 249.236 0 0 0 250 -250h-125z"/></svg>