<svg height="1000" width="1000" xmlns="http://www.w3.org/2000/svg"><path d="M750.002 374.998c68.36 0 125 56.641 125 125v64.454c0 44.922 -37.11 82.031 -82.031 82.031 -21.485 0 -41.016 -7.812 -56.641 -23.437l-89.844 -89.844 -89.844 89.844c-31.25 31.25 -83.985 31.25 -115.235 0l-87.89 -89.844 -89.844 89.844c-15.625 15.625 -35.157 23.437 -56.641 23.437C162.11 646.483 125 609.374 125 564.452v-64.453c0 -68.36 56.641 -125 125 -125h208.986v-83.985h82.031v83.984h208.985zm-58.594 291.017c27.344 27.344 62.5 42.969 101.563 42.969 31.25 0 58.594 -9.766 82.031 -25.391V875c0 23.437 -17.578 41.015 -41.015 41.015h-667.97C142.577 916.015 125 898.437 125 875V683.593c23.438 15.625 50.782 25.39 82.032 25.39 39.062 0 74.219 -15.624 101.563 -42.968l44.922 -44.922 44.922 44.922c54.687 54.687 148.437 54.687 203.125 0l44.922 -44.922zM500.001 249.998c-44.922 0 -83.984 -39.063 -83.984 -83.985 0 -15.625 5.86 -31.25 13.672 -42.968L500 -.003l70.313 123.048c7.812 11.718 13.672 27.343 13.672 42.968 0 44.922 -37.11 83.985 -83.985 83.985z"/></svg>