<svg height="1000" width="1000" xmlns="http://www.w3.org/2000/svg"><path d="M500.001 374.998c-66.406 0 -130.86 9.766 -191.406 29.297v128.907c0 15.625 -9.766 33.203 -23.438 39.063 -41.016 19.53 -78.125 44.922 -111.328 76.172 -7.813 7.812 -17.579 11.718 -29.297 11.718s-21.485 -3.906 -29.297 -11.718L11.719 544.92C3.906 537.108 0 527.343 0 515.624s3.906 -21.485 11.719 -29.297C138.672 365.233 310.548 291.014 500 291.014s361.33 74.219 488.283 195.313c7.812 7.812 11.719 17.578 11.719 29.297s-3.907 21.484 -11.72 29.297L884.769 648.437c-7.813 7.812 -17.578 11.718 -29.297 11.718s-21.484 -3.906 -29.297 -11.718c-33.203 -31.25 -70.313 -56.641 -111.328 -76.172 -13.672 -5.86 -23.438 -19.532 -23.438 -37.11V406.248c-60.547 -19.53 -125 -31.25 -191.407 -31.25z"/></svg>