<svg height="1000" width="1000" xmlns="http://www.w3.org/2000/svg"><path d="M275.391 449.217c60.547 117.188 158.204 214.845 275.392 275.392l91.797 -91.797c11.719 -11.72 29.297 -15.625 42.969 -9.766 46.875 15.625 97.656 23.437 148.438 23.437 23.437 0 41.015 17.579 41.015 41.016v146.485c0 23.438 -17.578 41.016 -41.015 41.016C443.36 875 125 556.64 125 166.013c0 -23.437 17.578 -41.015 41.016 -41.015h146.485c23.437 0 41.016 17.578 41.016 41.015 0 52.735 7.812 101.563 23.437 148.438 3.906 13.672 1.953 31.25 -9.766 42.97z"/></svg>