<svg height="1000" width="1000" xmlns="http://www.w3.org/2000/svg"><path d="M833.987 374.998v-83.984h-83.985v83.984h83.985zm0 375.001v-83.984h-83.985v83.984h83.985zM666.017 375v-83.985h-82.031v83.984h82.031zm0 375v-83.984h-82.031v83.984h82.031zM500.001 375v-83.985h-83.984v83.984H500zm0 375v-83.984h-83.984v83.984H500zm83.985 -541.017h332.032v625.002H583.986c0 44.922 -39.063 82.031 -83.985 82.031H166.016c-44.922 0 -82.031 -37.11 -82.031 -82.031V208.982c0 -44.922 37.11 -83.984 82.031 -83.984h42.969V83.982c0 -23.438 17.578 -42.969 41.016 -42.969h166.016c23.437 0 42.969 19.531 42.969 42.969v41.016H500c44.922 0 83.985 39.062 83.985 83.984z"/></svg>