<svg height="1000" width="1000" xmlns="http://www.w3.org/2000/svg"><path d="M291.016 83.982v437.501c0 -70.313 138.673 -105.469 208.985 -105.469s208.985 35.156 208.985 105.47V83.981h-417.97zM708.986 -.003c44.922 0 82.032 39.063 82.032 83.985v582.033c0 44.922 -37.11 83.984 -82.032 83.984h-292.97l125.001 125 -125 125.001v-83.985H208.985v-82.031h207.032v-83.985h-125c-44.923 0 -82.032 -39.062 -82.032 -83.984V83.982c0 -44.922 37.11 -83.985 82.031 -83.985h417.97zM500.001 333.983c-44.922 0 -82.031 -39.063 -82.031 -83.985S455.08 166.013 500 166.013s83.985 39.063 83.985 83.985S544.923 333.983 500 333.983zm83.985 500l207.032 .001v82.031H583.986v-82.031z"/></svg>