<svg height="1000" width="1000" xmlns="http://www.w3.org/2000/svg"><path d="M500.001 249.998c44.922 0 82.032 -39.063 82.032 -83.985S544.923 83.982 500 83.982s-83.984 37.11 -83.984 82.031 37.11 83.985 83.984 83.985zm208.985 -250c44.922 0 82.032 39.062 82.032 83.984v582.033c0 44.922 -37.11 83.984 -82.032 83.984h-292.97l125.001 125 -125 125.001v-83.985H208.985v-82.031h207.032v-83.985h-125c-44.923 0 -82.032 -39.062 -82.032 -83.984V83.982c0 -44.922 37.11 -83.985 82.031 -83.985h417.97zm-125 833.986h207.032v82.031H583.986v-82.031z"/></svg>