<svg height="1000" width="1000" xmlns="http://www.w3.org/2000/svg"><path d="M500.001 708.984c115.235 0 208.985 -93.75 208.985 -208.985S615.236 291.014 500.001 291.014s-208.985 93.75 -208.985 208.985 93.75 208.985 208.985 208.985zm-125 -625.002h250l76.173 82.031h132.813c44.921 0 82.031 39.063 82.031 83.985V750c0 44.922 -37.11 83.985 -82.031 83.985h-667.97c-44.923 0 -82.032 -39.063 -82.032 -83.985V250c0 -44.923 37.11 -83.986 82.031 -83.986h132.813zm-7.813 416.017c0 -74.22 58.594 -132.813 132.813 -132.813s132.813 58.594 132.813 132.813S574.22 632.812 500.001 632.812 367.188 574.218 367.188 499.999z"/></svg>