<svg height="1000" width="1000" xmlns="http://www.w3.org/2000/svg"><path d="M410.157 906.25C477.256 790.405 543.452 673.66 611.33 558.593l152.344 263.672C691.408 880.86 599.61 916.015 500 916.015c-31.25 0 -60.547 -3.906 -89.844 -9.765zM101.563 624.999H505.86L351.563 888.672C232.423 843.75 140.625 746.093 101.563 624.999zM193.36 218.748c70.312 121.746 140.222 243.893 210.938 365.235h-312.5C85.937 556.64 83.984 529.296 83.984 500 83.985 390.623 125 292.967 193.36 218.748zm714.845 197.266c5.86 27.344 7.813 54.688 7.813 83.985 0 109.375 -41.016 207.032 -109.375 281.25L607.423 437.5l-11.718 -21.485h312.5zm-9.765 -41.016H494.142L648.439 111.326c119.141 44.922 210.938 142.578 250 263.672zm-505.86 62.5l-3.907 3.907L236.329 177.732C308.595 119.138 400.392 83.982 500 83.982c31.25 0 60.547 3.906 89.844 9.766z"/></svg>