<svg height="1000" width="1000" xmlns="http://www.w3.org/2000/svg"><path d="M500.001 708.984L447.267 593.749 333.985 541.014l113.282 -50.78L500 374.997l52.735 115.235 113.281 50.781L552.736 593.75zm0 41.015c115.235 0 208.985 -93.75 208.985 -208.985S615.236 333.983 500.001 333.983 291.016 425.78 291.016 541.014 384.766 750 500.001 750zm-125 -625.001h250l76.173 83.984h132.813c44.921 0 82.031 37.11 82.031 82.032v500.001c0 44.922 -37.11 83.985 -82.031 83.985h-667.97c-44.923 0 -82.032 -39.063 -82.032 -83.985V291.014c0 -44.922 37.11 -82.032 82.031 -82.032h132.813z"/></svg>