<svg height="1000" width="1000" xmlns="http://www.w3.org/2000/svg"><path d="M833.987 583.983v-250h-125v82.031h-83.985v-82.031H375v82.031h-83.985v-82.031h-125v250h667.97zm0 207.032v-82.031h-667.97v82.031h667.97zM375 166.013v83.985h250v-83.985h-250zm458.986 83.985c46.875 0 82.031 37.11 82.031 83.985v457.032c0 46.875 -35.156 83.985 -82.031 83.985h-667.97C119.14 875 83.984 837.89 83.984 791.015V333.983c0 -46.875 35.156 -83.985 82.031 -83.985h125v-83.985c0 -46.875 37.11 -82.031 83.985 -82.031h250c46.876 0 83.985 35.156 83.985 82.031v83.985h125z"/></svg>