<svg height="1000" width="1000" xmlns="http://www.w3.org/2000/svg"><path d="M687.502 374.998c35.156 0 62.5 -27.343 62.5 -62.5s-27.344 -62.5 -62.5 -62.5 -62.5 27.344 -62.5 62.5 27.343 62.5 62.5 62.5zm0 375.001c35.156 0 62.5 -27.343 62.5 -62.5S722.658 625 687.502 625s-62.5 27.344 -62.5 62.5 27.343 62.5 62.5 62.5zm-187.5 -187.5c35.156 0 62.5 -27.344 62.5 -62.5s-27.344 -62.5 -62.5 -62.5 -62.5 27.343 -62.5 62.5 27.343 62.5 62.5 62.5zM312.5 374.999c35.156 0 62.5 -27.344 62.5 -62.5s-27.344 -62.5 -62.5 -62.5 -62.5 27.343 -62.5 62.5 27.343 62.5 62.5 62.5zm0 375c35.156 0 62.5 -27.343 62.5 -62.5S347.657 625 312.501 625s-62.5 27.344 -62.5 62.5 27.343 62.5 62.5 62.5zM791.018 124.998c44.922 0 83.984 39.062 83.984 83.984v582.033c0 44.922 -39.062 83.985 -83.984 83.985H208.985C164.063 875 125 835.937 125 791.015V208.982c0 -44.922 39.063 -83.984 83.985 -83.984h582.033z"/></svg>