<svg height="1000" width="1000" xmlns="http://www.w3.org/2000/svg"><path d="M875.002 124.998c44.922 0 83.985 39.062 83.985 83.984v582.033c0 44.922 -39.063 83.985 -83.985 83.985H583.986v-83.985h291.016V208.982H125v125H41.016v-125c0 -44.922 39.062 -83.984 83.984 -83.984h750.002zM41.016 416.014C292.969 416.014 500 621.093 500 875h-83.984c0 -207.032 -167.97 -375.001 -375.001 -375.001v-83.985zm750.002 -125v417.97H556.642C503.908 544.92 373.048 412.108 208.985 359.374v-68.36h582.033zM41.016 583.984c162.11 0 292.97 128.906 292.97 291.016H250C250 759.765 156.25 666.015 41.016 666.015v-82.032zm0 166.015c68.36 0 125 56.641 125 125h-125V750z"/></svg>