<svg height="1000" width="1000" xmlns="http://www.w3.org/2000/svg"><path d="M791.018 791.015V625h83.984v166.016c0 44.922 -39.062 83.985 -83.984 83.985H625.002v-83.985h166.016zm0 -666.017c44.922 0 83.984 39.062 83.984 83.984v166.016h-83.984V208.982H625.002v-83.984h166.016zm-582.033 83.984v166.016H125V208.982c0 -44.922 39.063 -83.984 83.985 -83.984H375v83.984H208.985zm0 416.017v166.016H375V875H208.985C164.063 875 125 835.937 125 791.015V625h83.985zM500 333.983c91.797 0 166.016 74.219 166.016 166.016S591.798 666.015 500.001 666.015 333.985 591.795 333.985 499.999s74.22 -166.016 166.016 -166.016z"/></svg>