<svg height="1000" width="1000" xmlns="http://www.w3.org/2000/svg"><path d="M708.986 833.984c35.157 0 62.5 -27.344 62.5 -62.5s-27.343 -62.5 -62.5 -62.5 -62.5 27.343 -62.5 62.5 27.344 62.5 62.5 62.5zm-375 0c35.156 0 62.5 -27.344 62.5 -62.5s-27.344 -62.5 -62.5 -62.5 -62.5 27.343 -62.5 62.5 27.343 62.5 62.5 62.5zM804.69 662.109c29.297 27.343 48.828 66.406 48.828 109.375 0 80.078 -64.453 144.531 -144.532 144.531 -74.219 0 -134.766 -54.687 -144.531 -125h-87.891c-9.766 70.313 -68.36 125 -142.579 125C253.907 916.015 187.5 851.562 187.5 771.484c0 -54.688 31.25 -103.516 76.173 -128.907C253.907 628.905 175.782 458.983 175.782 458.983H83.985v-83.985h144.531l39.063 83.985h607.423c0 76.172 -27.344 146.485 -70.312 203.126zM541.017 83.982c183.594 0 333.985 148.438 333.985 332.032H541.017V83.982z"/></svg>