<svg height="1000" width="1000" xmlns="http://www.w3.org/2000/svg"><path d="M312.5 583.983h375.002c-31.25 74.22 -103.516 125 -187.5 125S343.75 658.204 312.5 583.984zm187.501 207.032c132.817 0 244.595 -87.525 279.298 -208.985 3.906 0 7.812 1.953 11.719 1.953 44.922 0 83.984 -39.062 83.984 -83.984S835.94 416.014 791.018 416.014c-3.907 0 -7.813 1.953 -11.72 1.953C744.604 296.532 632.82 208.982 500.002 208.982c-132.816 0 -244.594 87.526 -279.297 208.985 -3.907 0 -7.813 -1.953 -11.72 -1.953C164.064 416.014 125 455.077 125 500s39.063 83.984 83.985 83.984c3.906 0 7.812 -1.953 11.719 -1.953C255.4 703.466 367.183 791.015 500 791.015zm455.08 -263.672c-9.766 62.5 -54.688 115.234 -115.235 132.812C784.636 775.596 654.623 875 500 875 345.931 875 215.778 777.248 162.11 660.155 101.563 642.577 54.688 589.843 44.922 527.343c-1.953 -7.813 -3.906 -17.579 -3.906 -27.344s1.953 -19.532 3.906 -27.344c9.766 -62.5 56.64 -115.235 117.188 -132.813 21.484 -46.875 50.781 -87.89 89.844 -121.094C318.36 160.154 404.298 124.998 500 124.998c156.821 0 283.417 95.99 337.892 214.844 60.547 17.578 107.422 70.313 117.188 132.813 1.953 7.812 3.906 17.578 3.906 27.344s-1.953 19.531 -3.906 27.344zM343.75 437.499c0 -29.297 23.437 -52.735 52.734 -52.735s50.782 23.438 50.782 52.735 -21.485 52.734 -50.782 52.734S343.751 466.796 343.751 437.5zm208.985 0c0 -29.297 21.484 -52.735 50.781 -52.735s52.735 23.438 52.735 52.735 -23.438 52.734 -52.735 52.734S552.736 466.796 552.736 437.5z"/></svg>