<svg height="1000" width="1000" xmlns="http://www.w3.org/2000/svg"><path d="M750.002 458.983v-42.969c0 -23.437 -17.578 -41.016 -41.016 -41.016h-125c-23.438 0 -42.969 17.579 -42.969 41.016v167.97c0 23.437 19.531 41.015 42.969 41.015h125c23.438 0 41.016 -17.578 41.016 -41.016v-42.969h-62.5V562.5h-83.985v-125h83.985v21.484h62.5zm-291.016 0v-42.969c0 -23.437 -19.532 -41.016 -42.97 -41.016h-125c-23.437 0 -41.015 17.579 -41.015 41.016v167.97c0 23.437 17.578 41.015 41.015 41.015h125c23.438 0 42.97 -17.578 42.97 -41.016v-42.969h-62.5V562.5H312.5v-125h83.984v21.484h62.5zm332.032 -292.97c44.922 0 83.984 39.063 83.984 83.985V750c0 44.922 -39.062 83.985 -83.984 83.985H208.985C162.11 833.984 125 794.921 125 749.999V250c0 -44.923 37.11 -83.986 83.985 -83.986h582.033z"/></svg>