<svg height="1000" width="1000" xmlns="http://www.w3.org/2000/svg"><path d="M322.266 416.014h-72.265c-91.797 0 -166.016 76.172 -166.016 167.97S158.204 749.998 250 749.998h406.25zM125 218.748l52.735 -52.735 697.267 697.268 -52.734 52.734 -83.985 -82.031H250.001A249.236 249.236 0 0 1 0 583.984C0 449.216 107.422 339.841 240.235 333.982zm681.643 199.22c107.422 7.812 193.36 97.656 193.36 207.031 0 70.313 -35.157 132.813 -87.891 169.922l-60.547 -60.547C890.627 712.89 916.018 671.874 916.018 625c0 -68.36 -56.64 -125 -125 -125h-62.5v-21.485C728.517 351.561 626.954 249.998 500 249.998c-39.062 0 -74.219 7.813 -105.469 25.39l-62.5 -60.546c48.828 -31.25 105.47 -48.829 167.97 -48.829 152.343 0 277.344 107.423 306.64 251.954z"/></svg>