<svg height="1000" width="1000" xmlns="http://www.w3.org/2000/svg"><path d="M728.517 499.999c35.157 0 62.5 -27.344 62.5 -62.5s-27.343 -62.5 -62.5 -62.5 -62.5 27.343 -62.5 62.5 27.344 62.5 62.5 62.5zm-125 -166.016c35.157 0 62.5 -27.344 62.5 -62.5s-27.343 -62.5 -62.5 -62.5 -62.5 27.343 -62.5 62.5 27.344 62.5 62.5 62.5zm-207.032 0c35.157 0 62.5 -27.344 62.5 -62.5s-27.343 -62.5 -62.5 -62.5 -62.5 27.343 -62.5 62.5 27.344 62.5 62.5 62.5zm-125 166.016c35.156 0 62.5 -27.344 62.5 -62.5s-27.344 -62.5 -62.5 -62.5 -62.5 27.343 -62.5 62.5 27.344 62.5 62.5 62.5zM500.001 124.998c207.032 0 375.001 150.39 375.001 333.985 0 115.235 -93.75 207.032 -208.985 207.032h-72.265c-35.157 0 -62.5 27.344 -62.5 62.5 0 15.625 5.859 29.297 15.624 41.016s15.625 27.343 15.625 42.969c0 35.156 -27.343 62.5 -62.5 62.5 -207.031 0 -375 -167.97 -375 -375.001S292.968 124.998 500 124.998z"/></svg>