<svg height="1000" width="1000" xmlns="http://www.w3.org/2000/svg"><path d="M541.017 353.514v-82.031h-82.031v82.031h82.031zm0 187.5v-82.031h-82.031v82.031h82.031zm0 187.5v-82.03h-82.031v82.03h82.031zm375.001 -312.5c-44.922 0 -82.031 39.063 -82.031 83.985s37.109 83.984 82.031 83.984V750c0 44.922 -37.11 83.985 -82.031 83.985h-667.97c-44.923 0 -82.032 -39.063 -82.032 -83.985V583.983c46.875 0 82.031 -39.062 82.031 -83.984s-37.11 -83.985 -82.031 -83.985V249.998c0 -46.875 37.11 -83.985 82.031 -83.985h667.97c44.923 0 82.032 37.11 82.032 83.985v166.016z"/></svg>