<svg height="1000" width="1000" xmlns="http://www.w3.org/2000/svg"><path d="M625.002 791.015c160.156 0 291.016 -130.86 291.016 -291.016S785.158 208.982 625.002 208.982 333.985 339.842 333.985 500s130.86 291.016 291.017 291.016zm0 -666.017c207.031 0 375 167.969 375 375S832.034 875 625.003 875 250 707.03 250 499.999 417.97 124.998 625 124.998zm-541.017 375c0 117.189 66.406 216.798 166.016 263.673v89.844C105.469 802.734 0 662.11 0 500S105.469 197.264 250 146.482v89.844C150.392 283.201 83.986 382.811 83.986 500zM666.017 333.984v125h125v82.031h-125v125h-82.031v-125h-125v-82.031h125v-125h82.031z"/></svg>