<svg height="1000" width="1000" xmlns="http://www.w3.org/2000/svg"><path d="M916.018 499.999v-250H583.986v250h332.032zm-332.032 250v-41.015c0 -83.985 -166.016 -128.907 -250 -128.907S83.984 625 83.984 708.984v41.015h500zm-250 -500c-68.36 0 -125.001 56.64 -125.001 125s56.64 125 125 125 125 -56.641 125 -125 -56.64 -125 -125 -125zM916.017 124.997c44.922 0 83.985 39.062 83.985 83.984v582.033c0 44.922 -39.063 83.985 -83.985 83.985H83.985C39.063 875 0 835.937 0 791.015V208.982C0 164.06 39.063 124.998 83.985 124.998h832.033zm-41.016 208.985l-125 82.031 -125 -82.031v-42.97l125 83.985 125 -83.984v42.969z"/></svg>