<svg height="1000" width="1000" xmlns="http://www.w3.org/2000/svg"><path d="M744.143 583.983C734.377 558.593 728.517 529.296 728.517 500s5.86 -58.594 15.626 -83.985h68.36l62.5 -82.031L792.97 249.998c-54.688 41.016 -95.704 97.657 -115.235 166.016 -7.812 27.344 -11.719 54.688 -11.719 83.985s3.907 56.64 11.72 83.984c19.53 66.407 60.546 125 115.234 166.016l82.031 -83.984 -62.5 -82.032h-68.36zM583.986 750v-41.015c0 -83.985 -166.016 -128.907 -250 -128.907S83.984 625 83.984 708.984v41.015h500zm-250 -500c-68.36 0 -125.001 56.64 -125.001 125s56.64 125 125 125 125 -56.641 125 -125 -56.64 -125 -125 -125zM916.017 124.997c44.922 0 83.985 39.062 83.985 83.984v582.033c0 44.922 -39.063 83.985 -83.985 83.985H83.985C39.063 875 0 835.937 0 791.015V208.982C0 164.06 39.063 124.998 83.985 124.998h832.033z"/></svg>