<svg height="1000" width="1000" xmlns="http://www.w3.org/2000/svg"><path d="M791.018 124.998h125v41.015l-291.016 292.97 -83.985 -83.985zM500 521.483c11.72 0 21.485 -9.765 21.485 -21.484S511.72 478.514 500 478.514 478.517 488.28 478.517 500s9.766 21.484 21.484 21.484zm-250 312.501c44.922 0 83.984 -37.11 83.984 -83.985s-39.062 -83.984 -83.984 -83.984 -83.985 37.11 -83.985 83.984 39.063 83.985 83.985 83.985zm0 -500.001c44.922 0 83.984 -37.11 83.984 -83.985s-39.062 -83.985 -83.984 -83.985 -83.985 37.11 -83.985 83.985 39.063 83.985 83.985 83.985zm152.344 -15.625l513.673 515.626V875h-125L500 583.983l-97.656 97.657c9.765 21.484 13.672 42.969 13.672 68.36 0 91.796 -74.22 166.015 -166.016 166.015S83.985 841.796 83.985 750 158.204 583.983 250 583.983c25.39 0 46.875 3.907 68.36 13.672L416.016 500 318.36 402.342c-21.484 9.766 -42.969 13.672 -68.36 13.672 -91.796 0 -166.015 -74.219 -166.015 -166.016S158.204 83.982 250 83.982s166.016 74.219 166.016 166.016c0 25.39 -3.907 46.875 -13.672 68.36z"/></svg>