<svg height="1000" width="1000" xmlns="http://www.w3.org/2000/svg"><path d="M708.986 708.984v-62.5c0 -70.313 -138.672 -105.47 -208.985 -105.47s-208.985 35.157 -208.985 105.47v62.5h417.97zM500.001 281.248c-50.781 0 -93.75 42.969 -93.75 93.75s42.969 93.75 93.75 93.75 93.75 -42.968 93.75 -93.75 -42.968 -93.75 -93.75 -93.75zM833.987 166.013c44.921 0 82.031 39.063 82.031 83.985V750c0 44.922 -37.11 83.985 -82.031 83.985h-667.97c-44.923 0 -82.032 -39.063 -82.032 -83.985V250c0 -44.923 37.11 -83.986 82.031 -83.986h667.97zM166.017 1000l-.001 -83.985h667.97V1000h-667.97zM833.986 -.003v83.985h-667.97l-.001 -83.985h667.97z"/></svg>