<svg height="1000" width="1000" xmlns="http://www.w3.org/2000/svg"><path d="M500.001 833.984c183.595 0 333.986 -150.391 333.986 -333.985S683.595 166.013 500 166.013 166.016 316.405 166.016 500s150.391 333.985 333.985 333.985zm0 -750.002c230.47 0 416.017 185.547 416.017 416.017S730.471 916.015 500.001 916.015 83.985 730.468 83.985 500 269.532 83.982 500 83.982zm-5.86 296.876c-60.08 0 -78.124 53.18 -78.124 113.281v11.72c0 60.095 18.074 113.28 78.125 113.28 36.677 0 68.36 -22.387 68.36 -58.593h74.218c0 38.127 -20.642 66.8 -42.968 85.937 -25.182 21.585 -54.502 35.157 -99.61 35.157 -106.61 0 -160.157 -70.456 -160.157 -175.782V494.14c0 -50.5 14.18 -96.563 39.063 -125 25.78 -29.462 67.075 -52.734 121.094 -52.734 43.236 0 79.352 14.898 101.563 37.109 21.489 21.49 41.015 54.662 41.015 95.703h-74.219c0 -9.765 -1.953 -17.578 -5.859 -25.39S548.83 406.248 542.97 400.389c-10.58 -10.58 -28.664 -19.531 -48.828 -19.531z"/></svg>