<svg height="1000" width="1000" xmlns="http://www.w3.org/2000/svg"><path d="M333.985 666.015h500.002v83.984h-83.985v83.985h-83.985v-83.985H333.985c-46.875 0 -83.984 -39.062 -83.984 -83.984V333.983h-83.985v-83.985h83.985v-83.985h83.984v500.002zm332.032 -82.032v-250h-250v-83.985h250c44.922 0 83.985 37.11 83.985 83.985v250h-83.985zM501.954 -.003c261.72 0 476.564 203.126 498.049 458.986h-62.5C921.876 302.733 826.173 169.92 689.454 105.466l-56.64 54.688L474.61 1.951c9.765 0 17.578 -1.954 27.343 -1.954zM310.548 894.531l56.64 -54.688 158.204 158.204c-9.766 0 -17.578 1.953 -27.344 1.953C236.328 1000 21.484 796.874 0 541.014h62.5c15.625 156.25 111.329 289.064 248.048 353.517z"/></svg>