<svg height="1000" width="1000" xmlns="http://www.w3.org/2000/svg"><path d="M500.001 791.015c91.797 0 173.829 -42.969 226.563 -109.375l109.376 64.453C759.768 849.61 638.674 916.015 500 916.015 269.531 916.015 83.985 730.468 83.985 500c0 -216.798 164.063 -392.58 375 -414.064v125c-140.625 19.532 -250 142.579 -250 289.064 0 162.11 128.906 291.016 291.016 291.016zm41.016 -705.08C751.955 107.42 916.018 283.201 916.018 500c0 60.547 -11.719 119.14 -35.156 169.922L771.486 605.468c11.72 -33.203 19.532 -68.36 19.532 -105.47 0 -146.484 -109.376 -269.531 -250.001 -289.063v-125z"/></svg>