<svg height="1000" width="1000" xmlns="http://www.w3.org/2000/svg"><path d="M791.018 833.984V374.998H208.985v458.986h582.033zm0 -667.97c44.922 0 83.984 39.062 83.984 83.984v583.986c0 44.922 -39.062 82.031 -83.984 82.031H208.985C162.11 916.015 125 878.905 125 833.984V249.998c0 -44.922 37.11 -83.985 83.985 -83.985H250V83.982h83.984v82.031h332.032V83.982h83.985v82.031h41.016zm-82.032 292.969v82.031h-83.984v-82.031h83.984zm-167.969 0v82.031h-82.031v-82.031h82.031zm-166.016 0v82.031h-83.985v-82.031h83.985z"/></svg>