<svg height="1000" width="1000" xmlns="http://www.w3.org/2000/svg"><path d="M500.001 458.983h166.016v250H500.001v-250zm-250 -167.97h208.985V500H250V291.014zm250 0h166.016v125.001H500.001v-125zm-250 250.001h208.985v167.97H250v-167.97zm500 250.001V208.982H166.017v582.033h583.986zM916.019 374.998h-82.031v83.985h82.031v82.031h-82.031V625h82.031v83.985h-82.031v82.031c0 44.922 -39.063 83.985 -83.985 83.985H166.016c-44.922 0 -82.031 -39.063 -82.031 -83.985V208.982c0 -44.922 37.11 -83.984 82.031 -83.984h583.986c44.922 0 83.985 39.062 83.985 83.984v82.032h82.031v83.984z"/></svg>