<svg height="1000" width="1000" xmlns="http://www.w3.org/2000/svg"><path d="M708.986 791.015v-82.031h82.032V875c0 44.922 -37.11 83.984 -82.032 83.984h-417.97c-44.922 0 -82.031 -39.062 -82.031 -83.984V708.984h82.031v82.031h417.97zM416.016 632.812l-58.593 58.593L166.016 500 357.423 308.592l58.594 58.594 -130.86 132.813zm226.564 58.593l-58.594 -58.593 130.86 -132.813L583.986 367.186l58.594 -58.594 191.407 191.407zM291.016 208.982v82.032h-82.031V124.998c0 -44.922 37.11 -83.985 82.031 -83.985l417.97 1.953c44.922 0 82.032 37.11 82.032 82.032v166.016h-82.032v-82.032h-417.97z"/></svg>