<svg height="1000" width="1000" xmlns="http://www.w3.org/2000/svg"><path d="M875.002 750V416.013H708.986V750h166.016zm41.016 -416.017c21.484 0 42.969 19.531 42.969 41.015v416.017c0 21.485 -21.485 42.969 -42.969 42.969h-250c-21.485 0 -41.016 -21.484 -41.016 -42.969V374.998c0 -21.484 19.53 -41.015 41.015 -41.015h250.001zM458.986 728.515c35.156 0 62.5 -27.344 62.5 -62.5s-27.344 -62.5 -62.5 -62.5 -62.5 27.343 -62.5 62.5 27.343 62.5 62.5 62.5zm82.031 -228.516v74.219c25.39 23.437 42.969 54.687 42.969 91.797s-17.578 70.312 -42.969 93.75v74.219H375.001v-74.219c-25.39 -23.438 -41.016 -56.64 -41.016 -93.75s15.625 -68.36 41.016 -91.797v-74.22h166.016zM125 249.999v500h166.016v83.985H125c-44.922 0 -83.984 -39.063 -83.984 -83.985V250c0 -44.923 39.062 -83.986 83.984 -83.986h750.002v83.985H125z"/></svg>