<svg height="1000" width="1000" xmlns="http://www.w3.org/2000/svg"><path d="M500.001 41.013c44.922 0 83.985 39.063 83.985 83.985S544.923 208.982 500 208.982 416.017 169.92 416.017 124.998 455.079 41.013 500 41.013zm0 250c44.922 0 83.985 39.063 83.985 83.985S544.923 458.983 500 458.983 416.017 419.92 416.017 374.998 455.079 291.014 500 291.014zm250 0c44.923 0 83.986 39.063 83.986 83.985s-39.063 83.985 -83.985 83.985S666.017 419.92 666.017 374.998s39.063 -83.984 83.985 -83.984zm0 250.001c44.923 0 83.986 39.063 83.986 83.985s-39.063 83.985 -83.985 83.985S666.017 669.92 666.017 624.999s39.063 -83.985 83.985 -83.985zm-250 0c44.922 0 83.985 39.063 83.985 83.985S544.923 708.984 500 708.984 416.017 669.92 416.017 624.999 455.079 541.014 500 541.014zm250 -332.032c-44.921 0 -83.984 -39.062 -83.984 -83.984S705.08 41.013 750.002 41.013s83.985 39.063 83.985 83.985 -39.063 83.984 -83.985 83.984zm-500 332.032c44.922 0 83.984 39.063 83.984 83.985s-39.062 83.985 -83.984 83.985S166.016 669.92 166.016 624.999s39.063 -83.985 83.985 -83.985zm0 -250c44.922 0 83.984 39.062 83.984 83.984s-39.062 83.985 -83.984 83.985S166.016 419.92 166.016 374.998s39.063 -83.984 83.985 -83.984zm0 -250c44.922 0 83.984 39.062 83.984 83.984s-39.062 83.984 -83.984 83.984S166.016 169.92 166.016 124.998s39.063 -83.985 83.985 -83.985zm250 750.001c44.922 0 83.985 39.063 83.985 83.985S544.923 958.984 500 958.984 416.017 919.922 416.017 875 455.079 791.015 500 791.015z"/></svg>