<svg height="1000" width="1000" xmlns="http://www.w3.org/2000/svg"><path d="M412.11 806.64L121.094 750l15.625 -83.985 205.079 41.016 66.406 -337.892 -76.172 29.297v142.578h-82.031V345.701l216.797 -91.797c11.719 0 21.485 -3.906 33.203 -3.906 29.297 0 52.735 15.625 70.313 41.016l41.016 66.406c33.203 58.594 99.61 99.61 179.688 99.61v83.984C699.22 541.014 617.189 500 562.5 437.5l-25.39 125L625 644.53v312.501h-83.984v-250l-87.89 -82.032zM562.501 228.514c-44.922 0 -83.984 -39.063 -83.984 -83.985S517.579 62.498 562.5 62.498s82.032 37.11 82.032 82.031 -37.11 83.985 -82.032 83.985z"/></svg>