<svg height="1000" width="1000" xmlns="http://www.w3.org/2000/svg"><path d="M791.018 853.515c80.078 0 146.484 -64.453 146.484 -144.531S871.096 562.499 791.018 562.499 646.486 628.905 646.486 708.984s64.453 144.531 144.532 144.531zm0 -353.516c117.187 0 208.985 91.797 208.985 208.985S908.205 916.015 791.018 916.015 583.986 826.171 583.986 708.984 673.83 499.999 791.018 499.999zm-341.798 -62.5l91.797 95.703v257.813h-82.031V583.983L324.22 466.796c-17.579 -11.72 -23.438 -33.204 -23.438 -58.594 0 -21.485 5.86 -41.016 23.438 -58.594L441.407 232.42c11.72 -17.578 33.204 -23.438 58.594 -23.438s44.922 5.86 66.407 23.438l80.078 80.078c37.11 37.11 85.938 62.5 148.438 62.5v83.985c-87.89 0 -156.25 -33.203 -210.938 -87.89l-33.203 -33.204zM208.985 853.515c80.078 0 144.532 -64.453 144.532 -144.531S289.063 562.499 208.985 562.499 62.5 628.905 62.5 708.984s66.407 144.531 146.485 144.531zm0 -353.516c117.188 0 207.032 91.797 207.032 208.985S326.173 916.015 208.985 916.015 0 826.171 0 708.984 91.797 499.999 208.985 499.999zM646.486 228.514c-44.922 0 -83.985 -37.11 -83.985 -82.032s39.063 -83.984 83.985 -83.984 82.031 39.062 82.031 83.984 -37.109 82.032 -82.031 82.032z"/></svg>