<svg height="1000" width="1000" xmlns="http://www.w3.org/2000/svg"><path d="M750.002 458.983V249.998H541.017v208.985h208.985zm-62.5 250c35.156 0 62.5 -27.343 62.5 -62.5s-27.344 -62.5 -62.5 -62.5 -62.5 27.344 -62.5 62.5 27.343 62.5 62.5 62.5zm-228.516 -250V249.998H250v208.985h208.985zm-146.485 250c35.156 0 62.5 -27.343 62.5 -62.5s-27.344 -62.5 -62.5 -62.5 -62.5 27.344 -62.5 62.5 27.343 62.5 62.5 62.5zM500 83.983c183.595 0 333.986 19.531 333.986 166.016v396.485c0 80.079 -66.407 144.532 -146.485 144.532l62.5 62.5V875H250v-21.485l62.5 -62.5c-80.079 0 -146.485 -64.453 -146.485 -144.532V249.998c0 -146.485 150.391 -166.016 333.985 -166.016z"/></svg>