<svg height="1000" width="1000" xmlns="http://www.w3.org/2000/svg"><path d="M408.204 371.092L291.016 958.984h87.891L455.08 625l85.938 83.985v250h83.985v-312.5L537.11 562.498l25.39 -125c54.688 62.5 136.72 103.515 228.517 103.515v-82.031c-80.079 0 -144.532 -42.969 -177.735 -101.563l-42.969 -66.406c-17.578 -25.39 -41.016 -41.016 -70.313 -41.016 -11.718 0 -21.484 3.906 -33.203 3.906l-216.797 91.797v195.313h83.984V400.39l74.22 -29.297zM562.501 228.514c-44.922 0 -83.984 -37.11 -83.984 -82.032S517.579 62.498 562.5 62.498s83.985 39.062 83.985 83.984 -39.063 82.032 -83.985 82.032z"/></svg>