<svg height="1000" width="1000" xmlns="http://www.w3.org/2000/svg"><path d="M250 249.998v166.016l250.001 -82.031 250 82.031V249.998h-500zm-85.937 541.017L85.938 513.671c-9.34 -28.02 7.793 -46.218 27.344 -52.735l52.734 -17.578v-193.36c0 -44.922 39.063 -83.985 83.985 -83.985h125v-125h250v125h125c44.923 0 83.986 39.063 83.986 83.985v193.36l52.734 17.578c19.57 6.524 36.694 24.685 27.344 52.735L835.94 791.015h-1.953c-66.407 0 -126.954 -35.156 -167.97 -82.031 -41.015 46.875 -99.61 82.031 -166.016 82.031s-125 -35.156 -166.016 -82.031c-41.015 46.875 -101.563 82.031 -167.969 82.031h-1.953zM833.987 875h82.031v83.984h-82.031c-56.641 0 -115.235 -13.672 -167.97 -41.015 -105.469 54.687 -226.563 54.687 -332.032 0 -52.734 27.343 -111.328 41.015 -167.969 41.015H83.985V875h82.031c58.594 0 117.188 -19.532 167.97 -54.688 101.562 70.313 230.469 70.313 332.031 0C716.8 855.468 775.393 875 833.987 875z"/></svg>