<svg height="1000" width="1000" xmlns="http://www.w3.org/2000/svg"><path d="M291.016 374.998c44.922 0 83.985 -39.062 83.985 -83.984s-39.063 -82.032 -83.985 -82.032 -82.031 37.11 -82.031 82.032 37.11 83.984 82.031 83.984zm542.97 -250c23.438 0 41.016 17.578 41.016 41.015v250.001c0 23.438 -17.578 42.969 -41.015 42.969h-667.97c-23.439 0 -41.017 -19.531 -41.017 -42.969v-250c0 -23.438 17.578 -41.016 41.016 -41.016h667.97zm-542.97 666.017c44.922 0 83.985 -37.11 83.985 -82.031s-39.063 -83.985 -83.985 -83.985 -82.031 39.063 -82.031 83.985 37.11 82.031 82.031 82.031zm542.97 -250c23.438 0 41.016 19.53 41.016 42.968v250.001c0 23.438 -17.578 41.016 -41.015 41.016h-667.97c-23.439 0 -41.017 -17.578 -41.017 -41.016v-250c0 -23.438 17.578 -42.97 41.016 -42.97h667.97z"/></svg>