<svg height="1000" width="1000" xmlns="http://www.w3.org/2000/svg"><path d="M291.016 541.014h144.532l-83.985 -82.031h-60.547v82.031zM93.75 93.748L906.252 906.25l-54.687 52.734L736.33 841.796c-66.406 46.876 -148.438 74.22 -236.329 74.22 -230.47 0 -416.016 -185.548 -416.016 -416.017 0 -87.891 27.343 -169.923 74.219 -236.329L41.016 148.435zm615.236 365.235H564.455L263.673 158.201C330.079 111.326 412.11 83.982 500 83.982c230.47 0 416.017 185.547 416.017 416.017 0 87.89 -27.344 169.922 -74.219 236.328L648.439 541.014h60.547v-82.031z"/></svg>