<svg height="1000" width="1000" xmlns="http://www.w3.org/2000/svg"><path d="M763.674 705.077C808.596 648.437 833.987 576.171 833.987 500 833.987 316.404 683.596 166.013 500 166.013c-76.172 0 -148.438 25.391 -205.078 70.313zM500 833.984c76.172 0 148.438 -25.39 205.079 -70.313L236.329 294.921c-44.922 56.64 -70.313 128.906 -70.313 205.078 0 183.594 150.391 333.985 333.985 333.985zm0 -750.002c230.47 0 416.017 185.547 416.017 416.017S730.471 916.015 500.001 916.015 83.985 730.468 83.985 500 269.532 83.982 500 83.982z"/></svg>