<svg height="1000" width="1000" xmlns="http://www.w3.org/2000/svg"><path d="M500.001 833.984c183.595 0 333.986 -150.391 333.986 -333.985 0 -74.22 -27.344 -146.485 -72.266 -205.079L294.923 761.718c58.594 44.922 130.86 72.266 205.078 72.266zM166.016 499.999c0 74.219 27.344 146.484 72.266 205.078L705.08 238.28C646.486 193.357 574.22 166.013 500 166.013 316.407 166.013 166.016 316.405 166.016 500zM500.001 83.982c228.516 0 416.017 187.5 416.017 416.017s-187.5 416.016 -416.017 416.016S83.985 728.515 83.985 500 271.485 83.982 500 83.982z"/></svg>