<svg height="1000" width="1000" xmlns="http://www.w3.org/2000/svg"><path d="M750.002 624.999v83.985h-83.985v-83.985h83.985zm0 -166.016v82.031h-83.985v-82.031h83.985zm83.985 332.032V374.998H500v83.985h83.985v82.031H500V625h83.985v83.985H500v82.031h333.986zM416.017 291.014v-82.032h-82.032v82.032h82.032zm0 167.969v-83.985h-82.032v83.985h82.032zm0 166.016v-83.985h-82.032V625h82.032zm0 166.016v-82.031h-82.032v82.031h82.032zM250 291.014v-82.032h-83.985v82.032h83.985zm0 167.969v-83.985h-83.985v83.985h83.985zm0 166.016v-83.985h-83.985V625h83.985zm0 166.016v-82.031h-83.985v82.031h83.985zM500 291.014h416.017V875H83.985V124.998H500v166.016z"/></svg>