<svg height="1000" width="1000" xmlns="http://www.w3.org/2000/svg"><path d="M291.016 499.999v83.984h-82.031V500h82.031zm0 -166.016v82.031h-82.031v-82.031h82.031zm500.002 166.016v83.984H333.985V500h457.033zm0 -166.016v82.031H333.985v-82.031h457.033zm83.984 375v-500H125v500h750.002zm0 -583.985c44.922 0 83.985 39.062 83.985 83.984l-1.953 500.002c0 44.922 -37.11 82.031 -82.032 82.031H666.017V875H333.985v-83.985H125c-44.922 0 -83.984 -37.11 -83.984 -82.031V208.982c0 -44.922 39.062 -83.984 83.984 -83.984h750.002z"/></svg>