<svg height="1000" width="1000" xmlns="http://www.w3.org/2000/svg"><path d="M666.017 666.015v-82.032h-125v-125h-82.031v125h-125v82.032h125v125h82.031v-125h125zM371.095 249.998v83.985h257.813v-83.985C628.908 179.685 570.314 121.092 500 121.092S371.095 179.685 371.095 249.998zm378.907 83.985c44.922 0 83.985 37.11 83.985 82.031v417.97c0 44.922 -39.063 82.031 -83.985 82.031H250c-44.922 0 -83.985 -37.11 -83.985 -82.031v-417.97c0 -44.922 39.063 -82.031 83.985 -82.031h41.015v-83.985c0 -115.235 93.75 -208.985 208.985 -208.985s208.985 93.75 208.985 208.985v83.985h41.016z"/></svg>