<svg height="1000" width="1000" xmlns="http://www.w3.org/2000/svg"><path d="M625.002 771.484c68.36 0 128.906 -25.39 175.781 -66.407l74.22 74.22C808.595 839.842 720.704 875 625.001 875 460.939 875 322.266 769.53 271.485 624.999H125v-83.985h126.954C250 527.343 250 513.671 250 500s0 -27.344 1.953 -41.016H125v-83.985h146.485c50.781 -144.531 189.454 -250 353.517 -250 95.703 0 183.594 35.156 250 95.703l-74.219 74.22C753.908 253.903 691.408 228.513 625.002 228.513c-103.516 0 -195.313 60.547 -240.235 146.484h240.235v83.985h-267.58c-1.952 13.672 -3.905 27.344 -3.905 41.016s1.953 27.344 3.906 41.015h267.579V625H384.767c44.922 85.938 134.766 146.485 240.235 146.485z"/></svg>