<svg height="1000" width="1000" xmlns="http://www.w3.org/2000/svg"><path d="M791.018 791.015V333.983H208.985v457.032h582.033zm0 -666.017c44.922 0 83.984 39.062 83.984 83.984v582.033c0 44.922 -39.062 83.985 -83.984 83.985H208.985C162.11 875 125 835.937 125 791.015V208.982c0 -44.922 37.11 -83.984 83.985 -83.984H250V41.013h83.984v83.985h332.032V41.013h83.985v83.985h41.016zM388.673 708.984L343.75 664.062 445.314 562.499 343.75 460.936l44.922 -44.922 101.563 101.563L591.798 416.014l42.97 44.922L533.203 562.5l101.563 101.563 -42.969 44.922L490.236 607.42z"/></svg>