<svg height="1000" width="1000" xmlns="http://www.w3.org/2000/svg"><path d="M83.985 458.983h332.032v82.031H83.985v-82.031zm601.564 -250c100.938 0 167.969 45.776 167.969 146.484 0 15.625 -1.953 33.203 -7.813 48.828s-11.718 33.204 -21.484 48.829c-21.4 34.239 -49.043 68.574 -78.125 97.656L626.955 679.687h248.047v70.312H515.626v-62.5L689.455 498.046c26.417 -26.418 43.424 -49.587 60.547 -78.126 9.917 -16.528 13.672 -30.326 13.672 -54.687 0 -11.719 0 -25.39 -3.906 -35.157C748.129 300.98 726.27 279.295 685.548 279.295c-59.449 0 -89.843 36.07 -89.843 95.703H505.86c0 -50.132 20.204 -90.517 46.875 -117.187 30.65 -30.65 71.965 -48.829 132.813 -48.829z"/></svg>