<svg height="1000" width="1000" xmlns="http://www.w3.org/2000/svg"><path d="M583.986 421.874c0 -50.395 -2.82 -83.331 -21.485 -111.329 -7.812 -11.719 -17.578 -17.578 -27.343 -23.437S513.673 279.295 500 279.295s-25.39 1.953 -35.156 7.813 -19.531 11.718 -27.344 23.437c-18.623 27.936 -21.484 60.99 -21.484 111.329v111.328c0 67.032 9.103 114.837 48.828 138.672 9.766 5.86 21.484 7.813 35.156 7.813 32.75 0 48.448 -12.125 62.5 -33.204C579.826 620.497 585.94 579.28 585.94 533.202V421.874h-1.953zm-255.86 13.671C328.126 301.7 369.88 208.982 500 208.982c90.838 0 140.323 46.716 160.157 121.094 7.812 29.297 13.672 62.5 13.672 105.47v85.937h-1.953c0 77.618 -15.013 134.816 -46.875 175.782 -15.625 17.578 -33.204 33.203 -54.688 41.016s-44.922 11.718 -70.313 11.718 -48.828 -3.906 -70.312 -11.718S390.626 714.843 375 697.265C340.926 658.93 328.126 597.156 328.126 521.483v-85.938z"/></svg>