<svg height="1000" width="1000" xmlns="http://www.w3.org/2000/svg"><path d="M333.985 291.014v167.969h166.016v82.031H333.985v167.97h-83.984v-167.97H83.985v-82.031H250v-167.97h83.984zM667.97 679.687h248.048v70.312H556.642v-62.5L730.471 498.046c26.417 -26.418 43.423 -49.587 60.547 -78.126 9.43 -15.718 15.625 -32.594 15.625 -54.687 0 -27.32 -9.739 -44.886 -21.485 -60.547C772.682 288.05 755.787 279.295 726.564 279.295c-30.08 0 -53.391 12.376 -68.36 27.344 -13.663 13.664 -21.484 42.402 -21.484 68.36h-89.844c0 -50.133 20.205 -90.518 46.876 -117.188 15.625 -15.625 33.203 -29.297 56.64 -37.11s48.829 -11.719 78.125 -11.719c27.344 0 48.829 3.907 70.313 9.766 19.531 7.813 39.063 15.625 52.735 29.297 26.177 22.437 44.922 60.532 44.922 107.422 0 39.497 -14.373 70.652 -31.25 97.657 -9.766 15.625 -19.532 33.203 -33.204 48.828s-29.297 33.203 -44.922 48.828z"/></svg>