<svg height="1000" width="1000" xmlns="http://www.w3.org/2000/svg"><path d="M853.518 458.983c56.64 0 105.469 46.875 105.469 103.516s-48.828 103.516 -105.47 103.516h-62.5v167.969c0 44.922 -37.109 82.031 -82.03 82.031H550.782v-62.5C550.783 791.015 500 742.187 437.5 742.187S324.22 791.015 324.22 853.515v62.5H166.016c-44.922 0 -82.031 -37.11 -82.031 -82.031V675.78h62.5c62.5 0 111.328 -50.781 111.328 -113.281S208.985 449.217 146.485 449.217h-62.5V291.014c0 -44.922 37.11 -82.032 82.031 -82.032h167.97v-62.5c0 -56.64 46.874 -105.469 103.515 -105.469s103.516 48.828 103.516 105.47v62.5h167.97c44.921 0 82.03 37.109 82.03 82.03v167.97h62.5z"/></svg>