<svg height="1000" width="1000" xmlns="http://www.w3.org/2000/svg"><path d="M500.001 833.984c183.595 0 333.986 -150.391 333.986 -333.985 0 -33.203 -5.86 -64.454 -13.672 -93.75 -29.297 7.812 -60.547 9.765 -93.75 9.765 -140.626 0 -263.673 -68.36 -339.845 -175.782 -41.016 99.61 -121.094 181.642 -218.75 224.61 -1.954 11.72 -1.954 23.438 -1.954 35.157 0 183.594 150.391 333.985 333.985 333.985zm0 -750.002c230.47 0 416.017 185.547 416.017 416.017S730.471 916.015 500.001 916.015 83.985 730.468 83.985 500 269.532 83.982 500 83.982zm125 406.251c29.298 0 52.735 21.484 52.735 50.781S654.3 593.75 625.002 593.75s-52.735 -23.438 -52.735 -52.735 23.438 -50.78 52.735 -50.78zm-250 0c29.297 0 52.734 21.484 52.734 50.781s-23.437 52.735 -52.734 52.735 -52.735 -23.438 -52.735 -52.735 23.438 -50.78 52.735 -50.78z"/></svg>