<svg height="1000" width="1000" xmlns="http://www.w3.org/2000/svg"><path d="M503.908 773.437C703.127 593.749 833.987 474.608 833.987 353.514c0 -83.985 -62.5 -144.532 -146.485 -144.532 -64.454 0 -126.954 41.016 -148.438 97.657h-78.125C439.454 249.999 376.954 208.982 312.5 208.982c-83.985 0 -146.485 60.547 -146.485 144.532 0 121.094 130.86 240.235 330.079 419.923l3.906 3.906zm183.594 -648.44c128.906 0 228.516 99.61 228.516 228.517 0 158.203 -140.625 285.157 -355.47 480.47l-60.547 54.688 -60.547 -52.735C224.61 640.624 83.984 511.717 83.984 353.514c0 -128.907 99.61 -228.516 228.517 -228.516 72.266 0 142.578 35.156 187.5 87.89 44.922 -52.734 115.235 -87.89 187.5 -87.89z"/></svg>