<svg height="1000" width="1000" xmlns="http://www.w3.org/2000/svg"><path d="M853.518 583.983V374.998h-50.782v187.5h-46.875V416.015h-52.734V562.5h-46.875v-187.5h-52.735v208.984c0 23.438 19.531 41.016 42.969 41.016h166.016c23.438 0 41.016 -17.578 41.016 -41.016zM562.5 427.733v-52.735H396.485V625h166.016v-52.734H458.986v-44.922H562.5v-52.735H458.986v-46.875H562.5zM353.517 624.999v-250h-50.782v146.484L197.266 374.998h-50.781V625h50.781V478.514L304.688 625h48.829zm480.47 -458.986c46.875 0 82.031 37.11 82.031 83.985V750c0 46.875 -35.156 83.985 -82.031 83.985h-667.97c-46.876 0 -82.032 -37.11 -82.032 -83.985V250c0 -46.876 35.156 -83.986 82.031 -83.986h667.97z"/></svg>