<svg height="1000" width="1000" xmlns="http://www.w3.org/2000/svg"><path d="M833.987 624.999v-250h-52.735v146.484L677.736 374.998h-52.734V625h52.734V478.514L783.206 625h50.78zm-312.501 0v-250h-62.5v250h62.5zM375 478.514V437.5c0 -35.157 -27.344 -62.5 -62.5 -62.5H166.016v250h62.5v-83.985h83.985c35.156 0 62.5 -27.343 62.5 -62.5zm458.986 -312.5c46.875 0 82.031 37.109 82.031 83.984V750c0 46.875 -35.156 83.985 -82.031 83.985h-667.97c-46.876 0 -82.032 -37.11 -82.032 -83.985V250c0 -46.876 35.156 -83.986 82.031 -83.986h667.97zm-605.47 271.485H312.5v41.015h-83.985V437.5z"/></svg>