<svg height="1000" width="1000" xmlns="http://www.w3.org/2000/svg"><path d="M875.002 478.514V437.5c0 -35.157 -27.344 -62.5 -62.5 -62.5H666.017v250h62.5v-83.985h48.829L812.502 625h62.5l-37.11 -87.89c21.485 -9.766 37.11 -33.204 37.11 -58.595zM525.392 625l74.219 -250h-62.5l-42.97 142.578L453.127 374.998h-62.5L462.892 625h62.5zm-191.407 -62.5v-125c0 -35.157 -27.344 -62.5 -62.5 -62.5H125v250h146.485c35.156 0 62.5 -27.344 62.5 -62.5zM875.002 124.998c46.875 0 83.985 37.11 83.985 83.984v582.033c0 44.922 -37.11 83.985 -83.985 83.985H125C78.125 875 41.016 835.937 41.016 791.015V208.982c0 -46.875 37.11 -83.984 83.984 -83.984h750.002zM187.5 437.498h83.985v125H187.5v-125zm541.017 0h83.985v41.016h-83.985V437.5z"/></svg>