<svg height="1000" width="1000" xmlns="http://www.w3.org/2000/svg"><path d="M500.001 666.015c91.797 0 166.016 -74.22 166.016 -166.016S591.798 333.983 500.001 333.983 333.985 408.202 333.985 499.999s74.22 166.016 166.016 166.016zM95.703 732.42C95.703 636.295 156.958 532.966 255.86 500c-11.719 -3.907 -23.438 -11.72 -35.156 -17.578 -80.079 -46.876 -125 -128.907 -125 -214.845 74.218 -42.969 169.922 -46.875 250 0 11.719 5.86 23.438 13.672 33.203 21.485 -1.953 -13.672 -3.906 -25.391 -3.906 -39.063 0 -91.797 50.781 -173.828 125 -216.797 74.22 42.969 125 125 125 216.797 0 13.672 -1.953 25.39 -3.906 39.063 9.766 -7.813 21.485 -15.625 33.204 -21.485 80.078 -46.875 175.781 -42.969 250 0 0 85.938 -44.922 167.97 -125 214.845 -11.719 5.859 -23.438 13.671 -35.156 17.578 11.718 3.906 23.437 11.719 35.156 17.578 80.078 46.875 125 128.906 125 214.844 -74.219 42.969 -169.922 46.875 -250 0 -11.72 -5.86 -23.438 -13.672 -33.204 -21.484 1.953 13.672 3.907 25.39 3.907 39.062 0 91.797 -50.782 173.829 -125 216.798C425.781 923.827 375 841.797 375 749.999c0 -13.672 1.953 -25.39 3.906 -39.062 -9.765 7.812 -21.484 15.625 -33.203 21.484 -80.078 46.875 -175.782 42.969 -250 0z"/></svg>