<svg height="1000" width="1000" xmlns="http://www.w3.org/2000/svg"><path d="M708.986 541.014c0 46.876 -39.062 83.985 -83.984 83.985H458.986v-83.985h166.016v-82.031H458.986v-250h250v82.03H541.017v83.985h83.985c44.922 0 83.984 37.11 83.984 83.985v82.031zM125 208.982V875h666.018v83.984H125C80.078 958.984 41.016 919.922 41.016 875V208.982H125zm750.002 500.002V124.998H291.016v583.986h583.986zm0 -667.97c44.922 0 83.985 39.062 83.985 83.984v583.986c0 44.922 -39.063 82.031 -83.985 82.031H291.016c-44.922 0 -82.031 -37.11 -82.031 -82.031V124.998c0 -44.922 37.11 -83.985 82.031 -83.985h583.986z"/></svg>