<svg height="1000" width="1000" xmlns="http://www.w3.org/2000/svg"><path d="M875.002 708.984V124.998H291.016v583.986h583.986zm0 -667.97c44.922 0 83.985 39.062 83.985 83.984v583.986c0 44.922 -39.063 82.031 -83.985 82.031H291.016c-44.922 0 -82.031 -37.11 -82.031 -82.031V124.998c0 -44.922 37.11 -83.985 82.031 -83.985h583.986zm-250 583.985V458.983H458.986v-250h82.031v166.015h83.985V208.982h83.984V625h-83.984zM125 208.982V875h666.018v83.984H125C80.078 958.984 41.016 919.922 41.016 875V208.982H125z"/></svg>