<svg height="1000" width="1000" xmlns="http://www.w3.org/2000/svg"><path d="M236.329 822.265l58.594 -58.594c46.875 35.157 103.516 58.594 164.063 66.407v83.984C375 906.25 298.829 873.047 236.329 822.265zm304.688 7.813c60.547 -7.813 117.188 -31.25 162.11 -66.407l60.547 58.594c-62.5 50.782 -138.672 83.985 -222.657 91.797v-83.984zm222.657 -125c35.156 -46.876 58.594 -101.563 66.406 -162.11h83.985c-7.813 83.984 -41.016 158.203 -91.797 220.703zM625.002 499.997c0 68.36 -56.641 125.001 -125 125.001S375 568.359 375 499.999s56.64 -125 125 -125 125 56.64 125 125zm-455.08 41.016c7.813 60.547 31.25 117.188 66.407 162.11l-58.594 60.547C126.953 701.171 93.75 625 85.938 541.014h83.984zM236.33 294.92c-35.157 46.875 -58.594 103.516 -66.407 164.063H85.938c7.812 -83.985 41.015 -160.157 91.797 -222.657zM830.08 458.983C822.268 398.436 798.83 341.795 763.674 294.92l58.594 -58.594c50.781 62.5 83.984 138.672 91.797 222.657H830.08zm-66.406 -281.25l-58.594 58.593C658.205 201.17 601.564 177.732 541.017 169.92V85.935c83.985 7.813 160.157 41.016 222.657 91.797zM458.986 169.92c-60.547 7.812 -117.188 31.25 -164.063 66.406l-58.594 -58.594C298.829 126.951 375 93.748 458.986 85.935v83.985z"/></svg>