<svg height="1000" width="1000" xmlns="http://www.w3.org/2000/svg"><path d="M500.001 374.998c68.36 0 125 56.641 125 125S568.362 625 500.002 625s-125 -56.64 -125 -125 56.64 -125 125 -125zm291.017 416.017V625h83.984v166.016c0 44.922 -39.062 83.985 -83.984 83.985H625.002v-83.985h166.016zm0 -666.017c44.922 0 83.984 39.062 83.984 83.984v166.016h-83.984V208.982H625.002v-83.984h166.016zm-582.033 83.984v166.016H125V208.982c0 -44.922 39.063 -83.984 83.985 -83.984H375v83.984H208.985zm0 416.017v166.016H375V875H208.985C164.063 875 125 835.937 125 791.015V625h83.985z"/></svg>