<svg height="1000" width="1000" xmlns="http://www.w3.org/2000/svg"><path d="M875.002 374.998v-250H291.016v583.986h583.986V458.983h-83.984v82.031h-82.032v-82.031h-83.984v-83.985h83.984v-83.984h82.032v83.984h83.984zm0 -333.985c44.922 0 83.985 39.063 83.985 83.985v583.986c0 44.922 -39.063 82.031 -83.985 82.031H291.016c-44.922 0 -82.031 -37.11 -82.031 -82.031V124.998c0 -44.922 37.11 -83.985 82.031 -83.985h583.986zM458.986 374.998H500v-41.015h-41.015v41.015zm125 125c0 46.876 -39.063 83.985 -83.985 83.985h-125V500h125v-41.016h-41.015C414.064 458.983 375 421.873 375 374.998v-41.015c0 -46.875 39.063 -83.985 83.985 -83.985H500c44.922 0 83.985 37.11 83.985 83.985v166.016zM125 208.983V875h666.018v83.984H125C80.078 958.984 41.016 919.922 41.016 875V208.982H125z"/></svg>