<svg height="1000" width="1000" xmlns="http://www.w3.org/2000/svg"><path d="M541.017 458.983v82.031h83.985v-82.031h-83.985zm0 -167.97v83.985h83.985v-83.984h-83.985zm0 333.986c-44.922 0 -82.031 -37.11 -82.031 -83.985v-62.5c0 -35.156 27.343 -62.5 62.5 -62.5 -35.157 0 -62.5 -27.344 -62.5 -62.5v-62.5c0 -46.875 37.109 -82.032 82.031 -82.032h83.985c44.922 0 83.984 35.157 83.984 82.032v62.5c0 35.156 -27.344 62.5 -62.5 62.5 35.156 0 62.5 27.344 62.5 62.5v62.5c0 46.876 -39.062 83.985 -83.984 83.985h-83.985zm333.985 83.985V124.998H291.016v583.986h583.986zm0 -667.97c44.922 0 83.985 39.062 83.985 83.984v583.986c0 44.922 -39.063 82.031 -83.985 82.031H291.016c-44.922 0 -82.031 -37.11 -82.031 -82.031V124.998c0 -44.922 37.11 -83.985 82.031 -83.985h583.986zM125 208.981V875h666.018v83.984H125C80.078 958.984 41.016 919.922 41.016 875V208.982H125z"/></svg>