<svg height="1000" width="1000" xmlns="http://www.w3.org/2000/svg"><path d="M791.018 750c68.36 0 125 -56.641 125 -125.001s-56.64 -125 -125 -125h-62.5v-21.485C728.517 351.561 626.954 249.998 500 249.998c-74.219 0 -140.625 35.156 -183.594 91.797 105.47 29.297 183.594 126.954 183.594 242.188h-83.984c0 -91.797 -74.22 -167.969 -166.016 -167.969S83.985 492.186 83.985 583.984 158.204 749.998 250 749.998h541.017zm15.625 -332.033c107.422 7.813 193.36 97.657 193.36 207.032 0 115.235 -93.75 208.985 -208.985 208.985H250A249.236 249.236 0 0 1 0 583.984C0 455.076 97.656 349.607 222.657 335.935 275.39 236.326 378.907 166.013 500 166.013c152.344 0 277.345 107.423 306.642 251.954z"/></svg>