<svg height="1000" width="1000" xmlns="http://www.w3.org/2000/svg"><path d="M375.001 541.014c0 -68.36 56.64 -125 125 -125s125 56.64 125 125 -56.64 125 -125 125 -125 -56.64 -125 -125zm458.986 275.392L673.83 656.249c21.484 -33.203 35.156 -72.266 35.156 -115.235 0 -115.234 -93.75 -207.031 -208.985 -207.031S291.016 425.78 291.016 541.014 384.766 750 500.001 750c42.97 0 82.032 -13.672 115.235 -35.156L798.83 900.39c-13.672 9.766 -29.297 15.625 -48.828 15.625H250c-44.922 0 -83.985 -37.11 -83.985 -82.031l1.953 -667.97c0 -44.922 37.11 -82.032 82.032 -82.032h333.985l250 250v482.424z"/></svg>