<svg height="1000" width="1000" xmlns="http://www.w3.org/2000/svg"><path d="M693.361 630.858l201.173 203.126 -60.547 60.547L630.86 693.359c-48.828 35.156 -107.422 56.64 -171.875 56.64 -80.079 0 -154.298 -33.203 -207.032 -85.937l-85.938 85.937V500h250L310.549 605.468c37.11 37.11 91.797 60.547 148.438 60.547 101.562 0 183.594 -70.313 203.125 -166.016h83.985c-5.86 48.828 -25.391 93.75 -52.735 130.86zM458.986 249.998c-101.563 0 -185.548 70.313 -205.08 166.016h-83.984c19.532 -140.625 142.579 -250 289.064 -250 80.078 0 152.344 33.203 205.078 85.937l85.938 -85.938v250.001h-250L605.47 310.545c-37.11 -37.11 -89.844 -60.547 -146.484 -60.547z"/></svg>