<svg height="1000" width="1000" xmlns="http://www.w3.org/2000/svg"><path d="M621.095 916.015h-5.86C548.83 898.437 505.862 873.047 460.94 828.125 402.345 769.53 371.095 693.359 371.095 611.327c0 -68.36 56.64 -123.047 126.953 -123.047s128.907 54.688 128.907 123.047c0 44.922 37.11 80.078 85.937 80.078s87.891 -35.156 87.891 -80.078c0 -156.25 -136.719 -285.157 -302.735 -285.157 -119.14 0 -226.563 66.407 -275.391 167.97 -15.625 33.203 -23.438 74.218 -23.438 117.187 0 33.203 1.953 83.985 27.344 150.391 8.943 26.828 -30.213 35.795 -39.063 13.672C167.97 720.702 156.25 667.968 156.25 611.327c0 -50.781 9.766 -95.703 29.297 -134.766 54.688 -117.188 177.735 -193.36 312.501 -193.36 189.454 0 343.751 148.438 343.751 328.126 0 68.36 -58.594 121.094 -128.907 121.094S585.94 679.687 585.94 611.327c0 -44.922 -39.063 -82.031 -87.89 -82.031s-85.939 37.11 -85.939 82.031c0 70.313 27.344 136.72 78.126 187.5C529.298 837.89 568.36 859.376 626.955 875c11.719 1.953 15.625 13.672 13.672 25.39 -1.953 9.766 -11.72 15.625 -19.532 15.625zM517.58 611.327c0 95.23 78.69 177.735 187.5 177.735 19.462 0 64.011 -14.377 68.36 11.719 1.954 11.719 -5.859 23.437 -17.578 25.39 -23.437 3.907 -44.922 3.907 -50.781 3.907 -48.828 0 -93.75 -11.72 -128.907 -37.11C513.673 750 476.563 683.593 476.563 611.328c0 -11.72 9.766 -21.485 21.485 -21.485s19.531 9.765 19.531 21.484zM406.251 908.203c-5.86 0 -9.766 -1.953 -13.672 -5.86C355.47 865.234 335.94 841.796 308.595 791.015 279.298 740.234 263.673 677.734 263.673 611.327c0 -123.047 105.469 -224.61 236.328 -224.61S736.33 488.28 736.33 611.327c0 11.719 -9.766 19.531 -21.484 19.531s-21.485 -7.812 -21.485 -19.53c0 -101.564 -85.938 -183.595 -193.36 -183.595s-193.36 82.031 -193.36 183.594c0 60.547 11.72 115.235 37.11 160.157 27.344 48.828 46.875 68.36 78.125 101.563 7.813 7.812 7.813 21.484 0 29.296 -3.906 3.907 -9.766 5.86 -15.625 5.86zM146.485 404.295c-17.21 0 -27.134 -15.323 -17.578 -31.25 41.015 -58.594 93.75 -105.469 156.25 -136.719 130.86 -68.36 298.829 -68.36 429.689 0 62.5 31.25 115.234 76.172 156.25 134.766 5.86 9.766 3.906 23.438 -5.86 29.297s-23.437 3.906 -29.296 -5.86C798.83 341.796 751.955 302.734 695.314 273.437c-119.14 -60.547 -271.485 -62.5 -390.626 0C248.048 302.733 199.22 343.748 162.11 396.483c-3.906 5.86 -9.766 7.812 -15.625 7.812zm595.704 -218.75c-3.906 0 -7.812 0 -9.765 -1.953C652.345 142.576 582.033 124.998 500 124.998s-162.11 19.531 -232.422 58.594c-22.834 13.7 -42.264 -23.47 -19.531 -37.11 78.125 -42.969 162.11 -62.5 251.953 -62.5 87.891 0 166.016 19.531 251.954 62.5 17.784 10.67 10.162 39.063 -9.766 39.063z"/></svg>