<svg height="1000" width="1000" xmlns="http://www.w3.org/2000/svg"><path d="M458.986 958.984v-250h82.031v250h-82.031zM234.376 707.031l89.844 -89.844 58.593 58.593 -89.843 89.844zm382.813 -31.25l58.594 -58.594 89.844 89.844 -58.594 58.593zM500.001 374.997c68.36 0 125 56.641 125 125S568.362 625 500.002 625s-125 -56.64 -125 -125 56.64 -125 125 -125zm208.985 83.985h250v82.031h-250v-82.031zm56.641 -166.016l-89.844 89.844 -58.594 -58.594 89.844 -89.844zM541.017 41.013v250h-82.031v-250h82.031zM382.813 324.217l-58.593 58.594 -89.844 -89.844 58.594 -58.594zm-91.797 134.766v82.031h-250v-82.031h250z"/></svg>