<svg height="1000" width="1000" xmlns="http://www.w3.org/2000/svg"><path d="M625.002 708.984v-83.985h83.984v83.985h-83.984zm0 -500.002v-83.984h83.984v83.984h-83.984zm-416.017 82.032v500.001h500.001V875H208.985C162.11 875 125 835.937 125 791.015V291.014h83.985zm582.033 417.97v-83.985h83.984c0 44.922 -39.062 83.985 -83.984 83.985zm0 -333.986v-83.984h83.984v83.984h-83.984zm0 166.016v-82.031h83.984v82.031h-83.984zM375 708.984c-46.875 0 -83.985 -39.063 -83.985 -83.985h83.985v83.985zM541.017 124.998v83.984h-82.031v-83.984h82.031zm250 0c44.923 0 83.985 39.062 83.985 83.984h-83.984v-83.984zm-250 500.001v83.985h-82.031v-83.985h82.031zM375.001 124.998v83.984h-83.985c0 -44.922 37.11 -83.984 83.985 -83.984zm0 333.985v82.031h-83.985v-82.031h83.985zm0 -167.97v83.985h-83.985v-83.984h83.985z"/></svg>