<svg height="1000" width="1000" xmlns="http://www.w3.org/2000/svg"><path d="M791.018 875v-83.985h83.984c0 44.922 -39.062 83.985 -83.984 83.985zm0 -333.986v-82.031h83.984v82.031h-83.984zM625.002 208.982v-83.984h83.984v83.984h-83.984zm166.016 500.002v-83.985h83.984v83.985h-83.984zm-332.032 250V41.014h82.031v917.97h-82.031zM791.018 124.998c44.922 0 83.984 39.062 83.984 83.984h-83.984v-83.984zM125 208.982c0 -44.922 39.063 -83.984 83.985 -83.984H375v83.984H208.985v582.033H375V875H208.985C164.063 875 125 835.937 125 791.015V208.982zm666.018 166.016v-83.984h83.984v83.984h-83.984zM625.002 875v-83.985h83.984V875h-83.984z"/></svg>