<svg height="1000" width="1000" xmlns="http://www.w3.org/2000/svg"><path d="M291.016 875v-83.985h83.985V875h-83.985zm167.97 0v-83.985h82.031V875h-82.031zM791.018 624.999V208.982H375V625h416.017zm0 -500.001c44.922 0 83.984 39.062 83.984 83.984V625c0 44.922 -39.062 83.985 -83.984 83.985H375c-46.875 0 -83.985 -39.063 -83.985 -83.985V208.982c0 -44.922 37.11 -83.984 83.985 -83.984h416.017zM625.002 875v-83.985h83.984V875h-83.984zM125 374.998v-83.984h83.985v83.984H125zM208.985 875C162.11 875 125 835.937 125 791.015h83.985V875zM125 708.984v-83.985h83.985v83.985H125zm0 -167.97v-82.031h83.985v82.031H125z"/></svg>