<svg height="1000" width="1000" xmlns="http://www.w3.org/2000/svg"><path d="M791.018 708.984v-42.97c0 -54.687 -111.329 -82.03 -166.016 -82.03s-166.016 27.343 -166.016 82.03v42.97h332.032zM625.002 374.998c-44.922 0 -83.985 39.063 -83.985 83.985s39.063 82.031 83.985 82.031 83.984 -37.109 83.984 -82.031 -39.062 -83.985 -83.984 -83.985zm208.985 -125c44.922 0 82.031 39.063 82.031 83.985v416.016c0 44.922 -37.11 83.985 -82.031 83.985h-667.97c-44.923 0 -82.032 -39.063 -82.032 -83.985V250c0 -44.923 37.11 -83.986 82.031 -83.986h250l83.985 83.985h333.986z"/></svg>