<svg height="1000" width="1000" xmlns="http://www.w3.org/2000/svg"><path d="M291.016 208.982h583.986v82.032H291.016v-82.032zm0 332.032v-82.031h583.986v82.031H291.016zm0 250.001v-82.031h583.986v82.031H291.016zm-125 -103.516c35.156 0 62.5 29.297 62.5 62.5s-29.297 62.5 -62.5 62.5 -62.5 -29.296 -62.5 -62.5 27.344 -62.5 62.5 -62.5zm0 -500.001c35.156 0 62.5 27.344 62.5 62.5s-27.344 62.5 -62.5 62.5 -62.5 -27.344 -62.5 -62.5 27.344 -62.5 62.5 -62.5zm0 250c35.156 0 62.5 27.344 62.5 62.5s-27.344 62.5 -62.5 62.5 -62.5 -27.343 -62.5 -62.5 27.344 -62.5 62.5 -62.5z"/></svg>