<svg height="1000" width="1000" xmlns="http://www.w3.org/2000/svg"><path d="M445.314 531.249h109.375L500 371.092zm126.953 52.734H425.782l-29.297 82.032h-68.36l142.58 -375.001h58.593l140.626 375h-66.407zm218.75 -375h83.985v-83.985h-83.984v83.984zM875.003 875v-83.985h-83.984V875h83.984zM708.986 791.015v-82.031h82.032v-417.97h-82.032v-82.032h-417.97v82.032h-82.031v417.97h82.031v82.031h417.97zM208.985 875v-83.985H125V875h83.985zM125 124.998v83.984h83.985v-83.984H125zm833.987 166.016h-83.985v417.97h83.985v250h-250V875h-417.97v83.984H41.015v-250H125v-417.97H41.016v-250h250v83.984h417.97V41.013h250v250z"/></svg>