<svg height="1000" width="1000" xmlns="http://www.w3.org/2000/svg"><path d="M0 833.984h1000.003V1000H0V833.984zm791.018 -355.47S875.002 570.311 875.002 625c0 44.922 -39.062 83.985 -83.984 83.985S708.986 669.92 708.986 624.999c0 -54.688 82.032 -146.485 82.032 -146.485zm-574.22 -62.5h400.391L416.017 216.794zm472.657 -42.969c25.39 25.391 25.39 64.454 0 87.891L460.939 689.452c-11.72 11.72 -29.297 19.532 -44.922 19.532s-31.25 -7.813 -42.97 -19.532L142.579 460.936c-25.39 -23.437 -25.39 -62.5 0 -87.89L357.423 158.2l-99.61 -99.61L318.36 -.003z"/></svg>