<svg height="1000" width="1000" xmlns="http://www.w3.org/2000/svg"><path d="M550.783 632.812c0 6.377 12.354 13.671 19.531 13.671 3.906 0 9.766 0 13.672 -3.906l7.812 -9.765s3.907 -7.813 3.907 -11.72v-83.984s-3.907 -7.812 -3.907 -11.719c0 -5.376 -16.038 -13.672 -21.484 -13.672 -3.906 0 -7.813 1.954 -11.719 5.86l-7.812 7.812s-5.86 7.813 -5.86 11.72v83.984s5.86 7.812 5.86 11.719zm78.125 -41.016c0 11.719 0 25.39 -3.906 33.203l-11.72 25.39s-13.671 11.72 -21.484 11.72 -17.578 3.906 -25.39 3.906 -17.578 0 -25.391 -3.906 -11.719 -7.813 -19.531 -11.72c-13.172 -6.585 -17.578 -38.566 -17.578 -58.593v-29.297c0 -11.719 0 -25.39 3.906 -33.203l13.672 -25.391s11.718 -11.719 19.531 -11.719 17.578 -3.906 25.39 -3.906 17.579 0 25.391 3.906 13.672 7.813 21.485 11.719 7.812 13.672 11.719 25.39 3.906 21.485 3.906 33.204v29.297zm-173.829 74.219h-39.062v-136.72L375 541.016v-29.297L449.22 488.28h5.86v177.735zm-289.063 -125c0 -183.595 150.391 -332.033 333.985 -332.033V41.013l208.985 208.985L500.001 458.983v-167.97c-136.719 0 -250 113.282 -250 250.001s113.281 250.001 250 250.001 250 -113.281 250 -250h83.986C833.987 724.608 683.596 875 500 875S166.016 724.609 166.016 541.014z"/></svg>