<svg height="1000" width="1000" xmlns="http://www.w3.org/2000/svg"><path d="M488.283 566.405c-3.5 1.4 -13.672 4.692 -13.672 7.813 0 3.906 -3.907 5.86 -3.907 5.86h-25.39l9.765 -91.798h99.61v29.297h-72.266l-3.906 37.11s3.906 0 3.906 -3.907 5.86 -1.953 5.86 -5.86 3.906 0 7.812 0h7.813c7.812 0 17.578 1.954 21.484 5.86s11.719 7.813 15.625 11.719c8.665 8.665 17.578 26.618 17.578 44.922 0 7.812 0 17.578 -3.906 21.484s-5.86 13.672 -13.672 21.485c-10.982 10.982 -25.967 15.625 -44.922 15.625 -7.812 0 -17.578 0 -21.484 -3.906s-11.72 -3.907 -19.532 -7.813c-10.929 -5.464 -17.578 -22.025 -17.578 -37.11h33.203c0 14.462 10.342 19.532 25.391 19.532 3.906 0 7.813 0 11.719 -3.906l9.765 -7.813s3.907 -7.812 3.907 -11.719v-25.39l-3.907 -7.813 -9.765 -9.766S500 566.405 496.095 566.405h-7.812zm-322.267 -25.39c0 -183.595 150.391 -332.033 333.985 -332.033V41.013l208.985 208.985L500.001 458.983v-167.97c-136.719 0 -250 113.282 -250 250.001s113.281 250.001 250 250.001 250 -113.281 250 -250h83.986C833.987 724.608 683.596 875 500 875S166.016 724.609 166.016 541.014z"/></svg>