<svg height="1000" width="1000" xmlns="http://www.w3.org/2000/svg"><path d="M166.016 541.014c0 -183.594 150.391 -332.032 333.985 -332.032V41.013l208.985 208.985L500.001 458.983v-167.97c-136.719 0 -250 113.282 -250 250.001s113.281 250.001 250 250.001 250 -113.281 250 -250h83.986C833.987 724.608 683.596 875 500 875S166.016 724.609 166.016 541.014zm388.673 91.798c0 6.377 12.354 13.671 19.531 13.671 3.906 0 9.766 0 13.672 -3.906l7.813 -9.765s3.906 -7.813 3.906 -11.72v-83.984s-3.906 -7.812 -3.906 -11.719c0 -5.376 -16.04 -13.672 -21.485 -13.672 -3.906 0 -7.812 1.954 -11.719 5.86l-7.812 7.812s-3.906 7.813 -3.906 11.72v83.984s3.906 7.812 3.906 11.719zm82.031 -41.016c0 11.719 0 25.39 -3.906 33.203l-11.719 25.39s-13.672 11.72 -21.484 11.72 -17.578 3.906 -25.39 3.906c-19.778 0 -31.542 -8.935 -44.923 -15.625 -7.812 -3.907 -7.812 -13.672 -11.719 -25.391s-5.859 -21.484 -5.859 -33.203v-29.297c0 -11.719 1.953 -25.39 5.86 -33.203l11.718 -25.391s13.672 -11.719 21.485 -11.719 15.625 -3.906 23.437 -3.906 17.578 0 25.39 3.906 13.673 7.813 21.485 11.719 7.813 13.672 11.72 25.39 3.905 21.485 3.905 33.204v29.297zM416.017 562.499c15.858 0 29.297 -9.686 29.297 -25.39v-7.813s-3.907 -3.907 -3.907 -7.813 -3.906 -3.906 -7.812 -3.906H412.11s-3.906 3.906 -7.812 3.906 -3.906 3.906 -3.906 7.813v7.812h-42.97c0 -19.324 17.227 -44.922 35.157 -44.922 3.906 0 15.625 -3.906 19.531 -3.906 16.94 0 34.438 5.5 46.876 11.719 9.892 4.946 15.625 23.65 15.625 37.11v13.671s-3.907 7.813 -3.907 11.719 -3.906 7.812 -7.812 7.812 -9.766 5.86 -13.672 9.766c7.812 3.906 17.578 7.813 21.484 15.625s7.813 17.578 7.813 25.39 0 17.579 -3.906 21.485 -7.813 11.719 -11.72 15.625 -13.671 7.813 -21.484 7.813 -17.578 3.906 -25.39 3.906 -15.625 0 -19.532 -3.906 -13.672 -3.906 -21.484 -7.813c-10.9 -5.45 -17.578 -26.383 -17.578 -41.015h35.156v7.812s3.906 3.906 3.906 7.813 3.907 3.906 7.813 3.906h21.484s3.907 -3.906 7.813 -3.906 3.906 -3.907 3.906 -7.813v-21.484s-3.906 -3.907 -3.906 -7.813 -3.906 -3.906 -7.813 -3.906h-25.39v-29.297h15.625z"/></svg>