<svg height="1000" width="1000" xmlns="http://www.w3.org/2000/svg"><path d="M875.002 833.984v-542.97c0 -23.438 -17.578 -41.016 -41.015 -41.016H466.798l48.828 167.97h80.079v-42.97h44.922v42.97h150.39v42.968h-52.734c-13.672 52.735 -42.969 103.516 -80.078 146.485l113.281 111.328L742.19 750 628.908 638.671l-37.11 37.11 33.204 115.234L541.017 875h292.97c23.437 0 41.015 -17.578 41.015 -41.016zM582.032 505.858c9.766 19.531 25.391 44.922 46.876 70.313C679.689 515.624 693.36 460.936 693.36 460.936H527.345l13.672 44.922h41.016zm-31.25 31.25l25.391 91.797 23.438 -21.484C580.08 585.936 564.455 562.499 550.783 537.108zm-87.89 -95.703c0 -9.61 -.274 -22.033 -3.906 -29.297H294.923v64.453h91.797c-5.86 25.39 -31.25 62.5 -87.891 62.5 -54.688 0 -99.61 -46.875 -99.61 -101.562s44.922 -101.563 99.61 -101.563c31.25 0 50.781 13.672 62.5 25.39l3.906 1.954 50.782 -48.829 -3.907 -1.953C380.86 283.201 341.798 267.576 298.83 267.576c-93.75 0 -169.922 76.172 -169.922 169.923S205.079 607.42 298.829 607.42c95.703 0 164.063 -68.36 164.063 -166.016zM833.987 208.982c44.922 0 82.031 37.11 82.031 82.032v542.97c0 44.922 -37.11 82.031 -82.031 82.031H500l-41.015 -125h-292.97c-44.922 0 -82.031 -37.11 -82.031 -82.031v-542.97c0 -44.922 37.11 -82.032 82.031 -82.032h250l37.11 125h380.86z"/></svg>