<svg height="1000" width="1000" xmlns="http://www.w3.org/2000/svg"><path d="M578.126 773.437c29.297 0 78.126 -35.156 89.844 -146.485C578.126 650.39 546.876 716.796 546.876 742.187c0 19.531 17.579 31.25 31.25 31.25zm-386.72 -486.33l-72.265 -70.312c9.766 -11.719 19.531 -23.438 35.156 -39.063 9.766 -9.765 58.594 -52.734 113.282 -52.734 37.11 0 105.469 29.297 105.469 119.14 0 56.641 -21.485 89.845 -54.688 136.72 -19.531 27.344 -62.5 101.563 -76.172 146.485 -15.625 44.922 -5.86 80.078 13.672 80.078 17.578 0 37.11 -23.438 46.875 -35.156 9.766 -9.766 72.266 -82.032 95.704 -113.282C429.689 419.92 509.767 341.795 603.517 341.795c123.047 0 162.11 105.47 167.97 173.829h103.515V619.14H773.44C755.861 818.359 644.533 875 576.173 875 501.954 875 443.361 816.406 443.361 746.093s66.406 -197.266 224.61 -224.61c-3.907 -33.203 -5.86 -74.219 -74.22 -74.219 -52.734 0 -119.14 80.079 -169.922 142.579 -46.875 56.64 -82.031 101.562 -126.953 115.234C199.657 735.778 130.86 649.914 130.86 562.5 130.86 460.936 240.235 316.405 250 298.826c11.72 -19.531 33.204 -54.687 11.72 -62.5 -13.672 -5.86 -41.016 21.485 -70.313 50.782z"/></svg>