<svg height="1000" width="1000" xmlns="http://www.w3.org/2000/svg"><path d="M998.05 378.905c1.953 1.953 1.953 7.812 0 9.765l-48.829 62.5c-1.953 1.954 -5.86 3.907 -7.812 3.907l-29.297 -5.86 -13.672 42.97c-5.86 9.765 -19.532 9.765 -25.39 0l-27.345 -58.595 -44.922 -9.765 -91.797 218.75 33.203 265.626c0 5.86 -3.906 7.812 -7.812 7.812h-39.063c-3.906 0 -5.86 -1.953 -7.812 -5.859L648.439 751.952 628.908 718.75 580.08 910.156c0 3.906 -3.907 5.86 -7.813 5.86h-41.016c-3.906 0 -7.812 -3.907 -7.812 -7.813L568.36 644.53H304.688l-68.36 128.907 15.626 132.813c1.953 5.86 -1.953 9.765 -7.813 9.765H205.08c-1.953 0 -5.86 0 -7.813 -3.906L142.578 712.89l-66.406 76.173L87.891 906.25c1.953 5.86 -1.953 9.765 -7.813 9.765H37.11c-3.906 0 -7.812 -1.953 -7.812 -3.906L3.907 802.734 44.921 642.577v-281.25S0 343.747 0 302.732h535.158s93.75 1.953 185.547 -64.454c0 0 -15.625 -42.969 11.719 -70.312 0 0 54.687 39.062 70.312 48.828 19.532 11.719 33.204 -9.766 27.344 -27.344 -3.906 -11.719 -17.578 -54.688 -87.89 -82.031 -8.944 -2.981 -29.709 -4.626 -25.391 -17.579 0 -3.906 3.906 -5.859 7.812 -5.859 85.938 11.719 136.72 82.031 150.391 113.282 1.953 3.906 39.063 29.297 35.157 74.219 0 5.859 0 9.765 3.906 13.671z"/></svg>