<svg height="1000" width="1000" xmlns="http://www.w3.org/2000/svg"><path d="M500.001 791.015c162.11 0 291.017 -128.906 291.017 -291.016S662.11 208.982 500 208.982 208.985 337.89 208.985 500 337.89 791.015 500 791.015zM873.05 458.983h85.938v82.031h-85.938C853.518 714.843 714.846 853.515 541.017 873.047v85.937h-82.031v-85.937C285.157 853.515 146.485 714.843 126.953 541.014H41.016v-82.031h85.937c19.532 -173.829 158.204 -312.5 332.033 -332.032V41.013h82.031v85.938c173.829 19.531 312.5 158.203 332.032 332.032z"/></svg>