<svg height="1000" width="1000" xmlns="http://www.w3.org/2000/svg"><path d="M791.018 458.983v-250H208.985v250h82.031v82.031h83.985V625h83.985v-83.985h82.031V625h83.985v-83.985h83.984v-82.031h82.032zm-82.032 291.016v-83.984h-83.984v83.984h83.984zm-167.969 0v-83.984h-82.031v83.984h82.031zm-166.016 0v-83.984h-83.985v83.984h83.985zM791.018 124.998c44.922 0 83.984 39.062 83.984 83.984v582.033c0 44.922 -39.062 83.985 -83.984 83.985H208.985C164.063 875 125 835.937 125 791.015V208.982c0 -44.922 39.063 -83.984 83.985 -83.984h582.033zm-500.002 250h83.985v83.985h-83.985v-83.985zm333.986 0h83.984v83.985h-83.984v-83.985zm-166.016 0h82.031v83.985h83.985v82.031h-83.985v-82.031h-82.031v82.031H375v-82.031h83.985v-83.985zm250 166.016V625h82.032v-83.985h-82.032zm-417.97 0h-82.031V625h82.031v-83.985z"/></svg>