<svg height="1000" width="1000" xmlns="http://www.w3.org/2000/svg"><path d="M416.017 166.013c44.922 0 83.984 39.063 83.984 83.985s-39.062 83.985 -83.984 83.985S333.985 294.92 333.985 249.998s37.11 -83.985 82.032 -83.985zm167.969 167.97c44.922 0 82.031 37.11 82.031 82.031S628.907 500 583.986 500 500 460.936 500 416.014s39.063 -82.031 83.985 -82.031zm166.016 166.016c44.922 0 83.985 39.062 83.985 83.984s-39.063 82.032 -83.985 82.032 -83.985 -37.11 -83.985 -82.032S705.08 500 750.002 500zM583.986 666.015c44.922 0 82.031 39.062 82.031 83.984s-37.11 83.985 -82.031 83.985S500 794.921 500 749.999s39.063 -83.984 83.985 -83.984zM750.002 333.983c-44.922 0 -83.985 -39.063 -83.985 -83.985s39.063 -83.985 83.985 -83.985 83.985 39.063 83.985 83.985 -39.063 83.985 -83.985 83.985zM250 666.015c44.922 0 83.984 39.062 83.984 83.984s-39.062 83.985 -83.984 83.985 -83.985 -39.063 -83.985 -83.985 39.063 -83.984 83.985 -83.984zm0 -332.032c44.922 0 83.984 37.11 83.984 82.031S294.923 500 250.001 500s-83.985 -39.063 -83.985 -83.985 39.063 -82.031 83.985 -82.031zm166.016 166.016c44.922 0 83.984 39.062 83.984 83.984s-39.062 82.032 -83.984 82.032 -82.032 -37.11 -82.032 -82.032S371.095 500 416.017 500z"/></svg>