<svg height="1000" width="1000" xmlns="http://www.w3.org/2000/svg"><path d="M666.017 833.984h60.547l-60.547 -60.547v60.547zm-82.031 0V689.452l-23.438 -23.437H416.017v167.969h167.969zm-250 -250V439.451l-23.438 -23.438H166.016v167.97h167.97zm0 250v-167.97h-167.97v167.97h167.97zM166.015 273.436v60.547h60.547zm250 250v60.547h60.548zM52.736 52.732l894.533 894.533L894.534 1000l-83.985 -83.985H166.016c-44.922 0 -82.031 -37.11 -82.031 -82.031V189.45L0 105.466zm613.282 113.281v167.97h167.97v-167.97h-167.97zm-332.032 0h-60.547L189.454 83.982h644.533c44.922 0 82.031 37.11 82.031 82.031v644.533l-82.031 -83.984v-60.547h-60.548l-83.984 -82.032h144.532V416.014h-167.97v144.532L583.986 476.56v-60.547h-60.547l-83.985 -82.031h144.532v-167.97h-167.97v144.532l-82.03 -83.984v-60.548z"/></svg>