<svg height="1000" width="1000" xmlns="http://www.w3.org/2000/svg"><path d="M833.987 333.983v-167.97h-167.97v167.97h167.97zm0 250V416.014h-167.97v167.97h167.97zm0 250.001v-167.97h-167.97v167.97h167.97zM583.986 333.983v-167.97h-167.97v167.97h167.97zm0 250V416.014h-167.97v167.97h167.97zm0 250.001v-167.97h-167.97v167.97h167.97zm-250 -500.001v-167.97h-167.97v167.97h167.97zm0 250V416.014h-167.97v167.97h167.97zm0 250.001v-167.97h-167.97v167.97h167.97zm500 -750.002c44.923 0 82.032 37.11 82.032 82.031v667.97c0 44.923 -37.11 82.032 -82.031 82.032h-667.97c-44.923 0 -82.032 -37.11 -82.032 -82.031v-667.97c0 -44.923 37.11 -82.032 82.031 -82.032h667.97z"/></svg>