<svg height="1000" width="1000" xmlns="http://www.w3.org/2000/svg"><path d="M666.017 728.515c56.641 0 105.47 -46.875 105.47 -103.516S722.657 521.483 666.016 521.483 562.501 568.358 562.501 625s46.876 103.516 103.516 103.516zM396.485 333.983c0 56.64 46.876 103.516 103.516 103.516S603.517 390.623 603.517 333.983 556.642 228.513 500.001 228.513s-103.516 48.829 -103.516 105.47zm-62.5 394.532c56.641 0 103.516 -46.875 103.516 -103.516S390.626 521.483 333.985 521.483 228.516 568.358 228.516 625s48.828 103.516 105.47 103.516zM500.001 83.982c230.47 0 416.017 185.547 416.017 416.017S730.471 916.015 500.001 916.015 83.985 730.468 83.985 500 269.532 83.982 500 83.982z"/></svg>