<svg height="1000" width="1000" xmlns="http://www.w3.org/2000/svg"><path d="M541.017 541.014c83.985 0 250 41.016 250 125V750h-500v-83.984c0 -83.985 166.015 -125 250 -125zm277.344 7.813c83.985 13.672 181.642 52.734 181.642 117.188v83.984h-125v-83.984c0 -48.828 -21.485 -85.938 -56.642 -117.188zM541.017 458.983c-68.36 0 -125 -56.64 -125 -125s56.64 -125 125 -125 125 56.64 125 125 -56.64 125 -125 125zm208.985 0c-13.672 0 -25.39 -1.953 -37.11 -5.86 23.438 -33.203 37.11 -74.218 37.11 -119.14S736.33 248.045 712.892 214.842c11.72 -3.907 23.438 -5.86 37.11 -5.86 68.36 0 125 56.641 125 125s-56.64 125.001 -125 125.001zM333.985 416.014V500h-125v125H125v-125H0v-83.985h125v-125h83.985v125h125z"/></svg>