<svg height="1000" width="1000" xmlns="http://www.w3.org/2000/svg"><path d="M666.017 541.014c97.657 0 292.97 48.829 292.97 146.485v103.516h-250V687.5c0 -62.5 -33.204 -109.375 -82.032 -144.531 13.672 -1.954 27.344 -1.954 39.062 -1.954zm-332.032 0c97.657 0 291.017 48.829 291.017 146.485v103.516H41.016V687.5c0 -97.656 195.313 -146.485 292.97 -146.485zm0 -82.031c-68.36 0 -125 -56.64 -125 -125s56.64 -125 125 -125 123.047 56.64 123.047 125 -54.687 125 -123.047 125zm332.032 0c-68.36 0 -125 -56.64 -125 -125s56.64 -125 125 -125 125 56.64 125 125 -56.64 125 -125 125z"/></svg>