<svg height="1000" width="1000" xmlns="http://www.w3.org/2000/svg"><path d="M603.517 562.499v-125h83.985v125h-83.985zm-62.5 -187.5v250h167.97c23.437 0 41.015 -17.578 41.015 -41.016V416.014c0 -23.437 -17.578 -41.016 -41.016 -41.016H541.017zm-82.031 250v-250h-62.5v103.515H312.5V374.998H250V625h62.5v-83.985h83.984V625h62.5zM791.018 124.998c44.922 0 83.984 39.062 83.984 83.984v582.033c0 44.922 -39.062 83.985 -83.984 83.985H208.985C162.11 875 125 835.937 125 791.015V208.982c0 -44.922 37.11 -83.984 83.985 -83.984h582.033z"/></svg>