<svg height="1000" width="1000" xmlns="http://www.w3.org/2000/svg"><path d="M541.017 562.499v-125h-82.031v125h82.031zm0 -187.5c33.203 0 62.5 29.296 62.5 62.5v125c0 33.203 -29.297 62.5 -62.5 62.5H396.485v-250h144.532zm-269.532 83.984v-83.985h62.5V625h-62.5V521.483H187.5V625H125v-250h62.5v83.984h83.985zm541.017 19.531V437.5h-83.985v41.015h83.985zm62.5 0c0 25.391 -15.625 46.875 -37.11 58.594L875.003 625h-62.5l-37.11 -83.985h-46.875V625h-62.5v-250h146.485c33.203 0 62.5 29.296 62.5 62.5v41.015z"/></svg>