<svg height="1000" width="1000" xmlns="http://www.w3.org/2000/svg"><path d="M103.516 103.513c264.5 265.448 530.892 529.006 796.877 792.971l-46.875 44.922L537.11 625H396.485V482.421l-62.5 -62.5v205.078h-62.5V521.483H187.5V625H125v-250h62.5v83.984h83.985v-83.985h15.625L58.594 146.482zM541.017 437.5h-15.625l-62.5 -62.5h78.125c33.203 0 62.5 29.296 62.5 62.5v80.078l-62.5 -62.5v-17.578zm187.5 0v41.015h83.985V437.5h-83.985zm0 187.5h-15.625l-46.875 -44.922V374.998h146.485c33.203 0 62.5 29.297 62.5 62.5v41.016c0 25.391 -15.625 50.782 -37.11 58.594L875.003 625h-62.5l-37.11 -83.985h-46.875V625z"/></svg>