<svg height="1000" width="1000" xmlns="http://www.w3.org/2000/svg"><path d="M708.986 666.015c91.797 0 166.016 -74.22 166.016 -166.016S800.783 333.983 708.986 333.983 541.017 408.202 541.017 499.999s76.172 166.016 167.97 166.016zm0 -416.017c138.672 0 250 111.328 250 250S847.659 750 708.987 750s-250 -111.328 -250 -250 111.328 -250 250 -250zm-500.001 83.985c91.797 0 166.016 74.219 166.016 166.016S300.782 666.015 208.985 666.015 41.015 591.795 41.015 499.999s76.173 -166.016 167.97 -166.016z"/></svg>