<svg height="1000" width="1000" xmlns="http://www.w3.org/2000/svg"><path d="M693.361 847.656L845.705 695.312 693.361 544.92l-150.39 152.344zM583.986 458.983c-23.438 0 -42.969 17.578 -42.969 41.016s19.531 41.015 42.969 41.015S625.002 523.436 625.002 500s-17.579 -41.016 -41.016 -41.016zM500 624.999c23.438 0 41.016 -17.578 41.016 -41.016s-17.578 -42.969 -41.016 -42.969 -41.015 19.532 -41.015 42.97 17.578 41.015 41.015 41.015zm-83.984 -83.985c23.437 0 42.969 -17.578 42.969 -41.015s-19.532 -41.016 -42.97 -41.016 -41.015 17.578 -41.015 41.016 17.578 41.015 41.016 41.015zM304.688 457.03L455.08 304.686 304.69 154.295 152.343 306.639zm195.313 -82.032c-23.437 0 -41.015 17.579 -41.015 41.016s17.578 42.969 41.015 42.969 41.016 -19.531 41.016 -42.969 -17.578 -41.016 -41.016 -41.016zm238.282 125L904.3 666.016c15.625 15.625 15.625 42.969 0 58.594l-179.688 181.64c-7.812 7.813 -17.578 11.72 -29.297 11.72s-23.437 -3.907 -31.25 -11.72L500.001 740.235 333.985 906.25c-15.625 15.625 -42.969 15.625 -58.594 0L93.751 724.609c-15.626 -15.625 -15.626 -42.97 0 -58.594L259.765 499.999 93.75 335.936c-15.625 -15.625 -15.625 -44.922 0 -60.547L275.391 95.7c7.813 -7.813 19.532 -11.719 29.297 -11.719 11.72 0 21.485 3.906 29.297 11.719l166.016 166.016L664.064 95.7c15.625 -15.625 44.922 -15.625 60.547 0L904.3 275.389c15.625 15.625 15.625 44.922 0 60.547z"/></svg>