<svg height="1000" width="1000" xmlns="http://www.w3.org/2000/svg"><path d="M478.517 374.998c0 -56.64 48.828 -103.515 105.469 -103.515s103.516 46.875 103.516 103.515S640.627 478.514 583.986 478.514 478.516 431.64 478.516 374.998zM318.36 109.373C250 177.733 208.985 271.483 208.985 374.998S250 572.265 318.36 640.624l-58.594 58.594C177.735 617.187 125 501.952 125 374.998S177.735 132.81 259.766 50.778zm390.626 724.61c44.922 0 82.032 -39.062 82.032 -83.984h83.984c0 91.797 -74.219 166.016 -166.016 166.016 -23.437 0 -46.875 -3.906 -68.36 -13.672C583.987 873.047 550.784 830.078 525.393 753.906 511.72 712.89 488.282 693.359 455.079 667.968c-37.11 -27.344 -82.031 -62.5 -119.14 -130.86C306.64 484.374 291.015 427.733 291.015 374.998c0 -164.063 128.907 -291.016 292.97 -291.016s291.016 126.953 291.016 291.016h-83.984c0 -117.187 -89.844 -208.985 -207.032 -208.985S375 257.811 375 374.998c0 39.063 11.719 83.985 33.203 123.048 29.297 54.687 64.453 80.078 97.657 105.469 39.062 29.297 78.125 60.547 99.61 125 21.484 62.5 41.015 82.031 70.312 97.656 7.812 3.907 21.484 7.813 33.203 7.813z"/></svg>