<svg height="1000" width="1000" xmlns="http://www.w3.org/2000/svg"><path d="M626.955 468.749c23.437 -23.438 39.062 -56.641 39.062 -93.75 0 -91.798 -74.219 -166.017 -166.016 -166.017s-166.016 74.22 -166.016 166.016h82.032c0 -44.922 39.062 -83.984 83.984 -83.984s83.985 39.062 83.985 83.984c0 23.438 -9.766 42.97 -25.39 58.594l-50.782 52.735c-29.297 31.25 -48.828 72.266 -48.828 117.188v21.484h82.031c0 -62.5 19.531 -85.938 48.828 -117.188zm-85.938 322.266v-82.031h-82.031v82.031h82.031zM500.001 83.982c230.47 0 416.017 185.547 416.017 416.017S730.471 916.015 500.001 916.015 83.985 730.468 83.985 500 269.532 83.982 500 83.982z"/></svg>