<svg height="1000" width="1000" xmlns="http://www.w3.org/2000/svg"><path d="M500.001 249.998c91.797 0 166.016 74.219 166.016 166.016 0 103.516 -125 115.235 -125 208.985h-82.031c0 -134.766 125 -125 125 -208.985 0 -44.922 -39.063 -82.031 -83.985 -82.031s-83.984 37.11 -83.984 82.031h-82.032c0 -91.797 74.22 -166.016 166.016 -166.016zm0 583.986c183.595 0 333.986 -150.391 333.986 -333.985S683.595 166.013 500 166.013 166.016 316.404 166.016 500s150.391 333.985 333.985 333.985zm0 -750.002c230.47 0 416.017 185.547 416.017 416.017S730.471 916.015 500.001 916.015 83.985 730.468 83.985 500 269.532 83.982 500 83.982zm-41.015 666.017v-83.984h82.031v83.984h-82.031z"/></svg>