<svg height="1000" width="1000" xmlns="http://www.w3.org/2000/svg"><path d="M603.517 562.499v-125h83.985v125h-83.985zm146.485 21.484V416.014c0 -23.437 -17.578 -41.016 -41.016 -41.016h-125c-23.438 0 -42.969 17.579 -42.969 41.016v167.97c0 23.437 19.531 41.015 42.969 41.015h31.25v62.5h62.5V625h31.25c23.438 0 41.016 -17.578 41.016 -41.016zM458.986 625v-250h-62.5v103.515H312.5V374.998H250V625h62.5v-83.985h83.984V625h62.5zM791.018 166.013c44.922 0 83.984 39.063 83.984 83.985V750c0 44.922 -39.062 83.985 -83.984 83.985H208.985C162.11 833.984 125 794.92 125 749.999V250c0 -44.923 37.11 -83.986 83.985 -83.986h582.033z"/></svg>