<svg height="1000" width="1000" xmlns="http://www.w3.org/2000/svg"><path d="M500.001 833.984c183.595 0 333.986 -150.391 333.986 -333.985S683.595 166.013 500 166.013 166.016 316.405 166.016 500s150.391 333.985 333.985 333.985zm0 -750.002c230.47 0 416.017 185.547 416.017 416.017S730.471 916.015 500.001 916.015 83.985 730.468 83.985 500 269.532 83.982 500 83.982zm107.422 250l58.594 58.595L558.595 499.999 666.017 607.42l-58.594 58.594L500.001 558.593 392.58 666.015 333.985 607.42 441.407 499.999 333.985 392.577l58.594 -58.594 107.422 107.422z"/></svg>