<svg height="1000" width="1000" xmlns="http://www.w3.org/2000/svg"><path d="M500.001 333.983h62.5v175.781l146.485 87.891 -31.25 50.782L500.001 541.014V333.983zm41.016 -208.985c207.032 0 375.001 167.969 375.001 375S748.048 875 541.017 875C437.501 875 345.704 833.984 277.344 765.624l58.594 -60.547c52.735 52.735 125 85.938 205.079 85.938 162.11 0 292.97 -128.906 292.97 -291.016S703.127 208.982 541.017 208.982 250.001 337.89 250.001 500h125l-167.97 167.969 -3.905 -5.86L41.016 499.999h125c0 -207.031 167.97 -375 375.001 -375z"/></svg>