<svg height="1000" width="1000" xmlns="http://www.w3.org/2000/svg"><path d="M611.33 244.139c42.969 41.015 60.547 97.656 52.734 154.297l-1.953 17.578h-80.078l5.86 -23.437c5.968 -33.826 -6.653 -69.153 -31.251 -93.75 -42.969 -42.97 -62.5 -99.61 -54.688 -156.251l1.954 -17.578h80.078l-3.906 25.39c-5.86 33.204 3.906 66.407 27.343 91.798zm166.016 0c42.969 41.015 62.5 97.656 54.687 154.297l-3.906 17.578h-78.125l3.906 -23.437c5.86 -33.204 -3.906 -66.407 -27.344 -91.798l-3.906 -1.953c-42.969 -42.969 -62.5 -99.61 -54.688 -156.25l3.907 -17.578h78.125l-3.906 25.39c-5.86 33.204 3.906 66.407 27.343 91.798zm13.672 589.845v-250h-82.032v250h82.032zm-166.016 0v-250h-83.985v250h83.985zm-166.016 0v-250H375v250h83.985zm-167.97 0v-250h-82.031v250h82.031zM464.845 499.999h451.173v333.985c0 44.922 -37.11 82.031 -82.031 82.031h-667.97c-44.923 0 -82.032 -37.11 -82.032 -82.031V499.999h125v-31.25c0 -50.782 42.969 -93.75 93.75 -93.75 30.048 0 54.989 15.926 70.313 31.25l56.64 64.453c9.766 11.719 21.485 19.531 35.157 29.297zm-255.86 -250c0 -46.876 35.156 -83.986 82.031 -83.986s83.985 37.11 83.985 83.985 -37.11 83.985 -83.985 83.985 -82.031 -37.11 -82.031 -83.985z"/></svg>