<svg height="1000" width="1000" xmlns="http://www.w3.org/2000/svg"><path d="M875.002 771.484v-480.47C830.08 277.342 779.3 271.483 728.517 271.483c-70.312 0 -171.875 27.343 -228.516 62.5V812.5C556.642 777.343 658.205 750 728.517 750c50.782 0 101.563 7.812 146.485 21.484zM728.517 187.498c86.338 0 177.245 21.558 230.47 62.5v607.424c0 9.765 -11.719 21.484 -21.485 21.484 -3.906 0 -5.859 0 -9.765 -1.953 -58.594 -31.25 -130.86 -42.969 -199.22 -42.969 -70.312 0 -171.875 27.344 -228.516 62.5 -60.547 -44.922 -146.484 -62.5 -228.516 -62.5 -60.547 0 -142.578 17.578 -199.22 44.922 -3.905 0 -5.859 1.953 -9.765 1.953 -9.765 0 -21.484 -9.766 -21.484 -19.531v-611.33c60.547 -44.922 148.438 -62.5 230.47 -62.5s167.968 17.578 228.515 62.5c60.547 -44.922 146.485 -62.5 228.516 -62.5z"/></svg>