<svg height="1000" width="1000" xmlns="http://www.w3.org/2000/svg"><path d="M498.048 374.998h126.954l-103.516 74.22 39.062 121.093L458.986 494.14 355.47 570.311l39.062 -121.094L291.016 374.998H417.97l41.016 -125zM833.987 83.982c44.921 0 82.031 35.156 82.031 82.031v208.985h-82.031V166.013H83.985v500.002h541.017v83.984h-83.985v83.985h83.985v82.031H291.016v-82.031h83.985v-83.985H83.985C37.109 750 0 710.937 0 666.015V166.013C0 119.138 37.11 83.982 83.985 83.982h750.002zm125 750.002v-292.97H750.002v292.97h208.985zm0 -375.001c23.437 0 41.016 17.578 41.016 41.016v375c0 23.438 -17.579 41.016 -41.016 41.016H750.002c-23.438 0 -41.016 -17.578 -41.016 -41.015V499.999c0 -23.438 17.578 -41.016 41.016 -41.016h208.985z"/></svg>