<svg height="1000" width="1000" xmlns="http://www.w3.org/2000/svg"><path d="M500.001 212.889l-95.703 93.75 -58.594 -58.594L500.001 93.748 736.33 330.076C837.893 431.64 859.377 582.03 802.736 705.077L500.001 404.295V212.89zm0 603.517V615.233L300.782 416.014c-33.203 42.969 -50.781 95.703 -50.781 150.391 0 134.36 115.625 250 250 250zm361.33 52.734l13.671 15.625L822.268 937.5 708.986 824.218c-60.547 48.829 -134.766 74.22 -208.985 74.22 -85.937 0 -171.875 -33.204 -236.328 -97.657C142.578 677.734 134.766 486.327 240.235 355.467L125 240.232l52.735 -52.734C405.265 415.028 631.55 643.866 861.33 869.14z"/></svg>