<svg height="1000" width="1000" xmlns="http://www.w3.org/2000/svg"><path d="M791.018 416.014v-82.031h-82.032v82.031h82.032zm0 125v-82.031h-82.032v82.031h82.032zm-125 -125v-82.031h-82.032v82.031h82.031zm0 125v-82.031h-82.032v82.031h82.031zm0 167.97v-83.985H333.984v83.985h332.032zM291.015 416.014v-82.031h-82.031v82.031h82.031zm0 125v-82.031h-82.031v82.031h82.031zm42.97 -82.031v82.031h82.03v-82.031h-82.03zm0 -125v82.031h82.03v-82.031h-82.03zm125 125v82.031h82.031v-82.031h-82.031zm0 -125v82.031h82.031v-82.031h-82.031zm375 -125c44.922 0 82.032 37.109 82.032 82.03v417.97c0 44.923 -37.11 82.032 -82.031 82.032h-667.97c-44.923 0 -82.032 -37.11 -82.032 -82.031v-417.97c0 -44.922 37.11 -82.032 82.031 -82.032h667.97z"/></svg>