<svg height="1000" width="1000" xmlns="http://www.w3.org/2000/svg"><path d="M500.001 958.984L333.985 791.015h332.032zM791.018 333.983v-83.985h-82.032v83.985h82.032zm0 125v-83.985h-82.032v83.985h82.032zm-125 -125v-83.985h-82.032v83.985h82.031zm0 125v-83.985h-82.032v83.985h82.031zm0 166.016v-83.985H333.984V625h332.032zM291.015 333.983v-83.985h-82.031v83.985h82.031zm0 125v-83.985h-82.031v83.985h82.031zm42.97 -83.985v83.985h82.03v-83.985h-82.03zm0 -125v83.985h82.03v-83.985h-82.03zm125 125v83.985h82.031v-83.985h-82.031zm0 -125v83.985h82.031v-83.985h-82.031zm375 -125c44.922 0 82.032 39.062 82.032 83.984V625c0 44.922 -37.11 83.985 -82.031 83.985h-667.97c-44.923 0 -82.032 -39.063 -82.032 -83.985V208.982c0 -44.922 37.11 -83.984 82.031 -83.984h667.97z"/></svg>