<svg height="1000" width="1000" xmlns="http://www.w3.org/2000/svg"><path d="M681.642 583.983h140.626c5.86 -27.344 11.719 -54.687 11.719 -83.984s-5.86 -56.641 -11.72 -83.985H681.643c3.907 27.344 5.86 54.688 5.86 83.985s-1.953 56.64 -5.86 83.984zm-74.219 230.47c76.173 -25.391 142.579 -80.079 181.642 -148.438H666.017c-13.672 52.734 -33.203 101.563 -58.594 148.438zm-9.765 -230.47c3.906 -27.344 5.86 -54.687 5.86 -83.984s-1.954 -56.641 -5.86 -83.985H402.345c-3.906 27.344 -5.86 54.688 -5.86 83.985s1.954 56.64 5.86 83.984h195.313zM500 832.031c35.157 -50.782 62.5 -105.47 80.079 -166.016H419.923C437.5 726.562 464.845 781.249 500 832.03zM333.985 333.983C347.657 281.248 367.188 232.42 392.58 185.545c-76.172 25.39 -142.578 80.078 -181.641 148.438h123.047zM210.938 666.015c39.063 68.36 105.47 123.047 181.641 148.438C367.19 767.578 347.657 718.749 333.985 666.015H210.938zm-33.203 -82.032H318.36C314.454 556.64 312.5 529.296 312.5 500s1.954 -56.641 5.86 -83.985H177.735c-5.86 27.344 -11.719 54.688 -11.719 83.985s5.86 56.64 11.719 83.984zM500 167.967c-35.156 50.781 -62.5 105.469 -80.078 166.016H580.08C562.5 273.436 535.158 218.748 500 167.967zm289.064 166.016C750.002 265.623 683.595 210.935 607.423 185.545c25.391 46.875 44.922 95.703 58.594 148.438h123.048zM500 83.982c230.47 0 416.017 185.547 416.017 416.017S730.471 916.015 500.001 916.015 83.985 730.468 83.985 500 269.532 83.982 500 83.982z"/></svg>