<svg height="1000" width="1000" xmlns="http://www.w3.org/2000/svg"><path d="M500.001 791.015c23.438 0 41.016 -17.578 41.016 -41.016s-17.578 -41.015 -41.016 -41.015 -41.015 17.578 -41.015 41.015 17.578 41.016 41.015 41.016zM166.016 208.982v457.033h667.97V208.982h-667.97zM833.986 750h166.017c0 44.922 -39.063 83.985 -83.985 83.985H83.985C39.063 833.984 0 794.921 0 749.999h166.016c-44.922 0 -82.031 -39.062 -82.031 -83.984V208.982c0 -44.922 37.11 -83.984 82.031 -83.984h667.97c44.922 0 82.032 39.062 82.032 83.984v457.033c0 44.922 -37.11 83.984 -82.031 83.984z"/></svg>