<svg height="1000" width="1000" xmlns="http://www.w3.org/2000/svg"><path d="M640.627 482.42c68.36 -41.015 148.438 -66.406 234.375 -66.406V500c-62.5 0 -121.094 15.625 -173.828 42.969zM830.08 671.875l-66.406 -66.406c33.203 -13.672 72.266 -21.485 111.328 -21.485v82.032c-15.625 0 -31.25 1.953 -44.922 5.86zM583.986 124.998c0 85.937 -25.39 166.016 -66.407 234.375l-60.547 -60.547c27.344 -52.734 42.97 -111.328 42.97 -173.828h83.984zM125 177.732l52.735 -52.734 697.267 697.267L822.268 875 703.127 755.859c-23.438 33.203 -37.11 74.219 -37.11 119.14h-82.031c0 -66.406 23.437 -128.906 60.547 -177.734L583.986 638.67C531.25 703.124 500 785.156 500 875h-83.984c0 -113.282 41.015 -216.798 109.375 -296.876L421.876 474.608C341.798 542.968 238.282 583.983 125 583.983V500c89.844 0 173.829 -31.25 238.282 -83.985l-60.547 -60.547C253.907 392.577 191.407 416.014 125 416.014v-82.031c44.922 0 85.938 -13.672 119.141 -37.11zm291.017 -52.734c0 39.062 -7.813 78.125 -21.485 111.328L328.126 169.92c3.906 -13.672 5.86 -29.297 5.86 -44.922h82.03z"/></svg>