<svg height="1000" width="1000" xmlns="http://www.w3.org/2000/svg"><path d="M583.986 875c0 -162.11 128.906 -291.017 291.016 -291.017v82.032c-115.234 0 -208.985 93.75 -208.985 208.985h-82.031zm166.016 0c0 -68.36 56.64 -125 125 -125v125h-125zm-333.985 0c0 -251.954 207.031 -458.986 458.985 -458.986V500c-207.032 0 -375 167.969 -375 375h-83.985zm0 -750.002c0 162.11 -128.907 291.016 -291.017 291.016v-82.031c115.235 0 208.985 -93.75 208.985 -208.985h82.032zm167.969 0c0 251.954 -205.079 458.985 -458.986 458.985V500c207.032 0 375.001 -167.97 375.001 -375.001h83.985zm-333.985 0c0 68.36 -56.641 125 -125 125v-125h125z"/></svg>