<svg height="1000" width="1000" xmlns="http://www.w3.org/2000/svg"><path d="M166.016 249.998v583.986h583.986v82.031H166.016c-44.922 0 -82.031 -37.11 -82.031 -82.031V249.998h82.031zm583.986 41.016v-82.032H583.986V437.5c-17.578 -13.672 -39.063 -21.485 -62.5 -21.485 -56.641 0 -105.47 48.828 -105.47 105.47s48.829 103.515 105.47 103.515S625.002 578.124 625.002 521.483v-230.47h125zM833.987 83.982c44.921 0 82.031 37.11 82.031 82.031v500.002c0 44.922 -37.11 83.984 -82.031 83.984H333.985c-44.922 0 -83.984 -39.062 -83.984 -83.984V166.013c0 -44.922 39.062 -82.031 83.984 -82.031h500.002z"/></svg>