<svg height="1000" width="1000" xmlns="http://www.w3.org/2000/svg"><path d="M619.142 544.92c56.641 -39.062 89.844 -101.562 89.844 -169.922 0 -115.234 -93.75 -208.985 -208.985 -208.985s-208.985 93.75 -208.985 208.985c0 68.36 33.204 130.86 89.844 169.923l35.157 25.39v95.704h167.969V570.31zM500.002 83.983c160.156 0 291.016 130.86 291.016 291.016 0 99.61 -48.829 185.548 -125 238.282v95.704c0 23.437 -17.579 41.015 -41.016 41.015H375c-23.438 0 -41.016 -17.578 -41.016 -41.015V613.28c-76.172 -52.734 -125 -138.672 -125 -238.282C208.985 214.842 339.845 83.982 500 83.982zM375 875v-41.016h250V875c0 23.437 -17.578 41.015 -41.015 41.015h-167.97c-23.437 0 -41.015 -17.578 -41.015 -41.015z"/></svg>