<svg height="1000" width="1000" xmlns="http://www.w3.org/2000/svg"><path d="M812.502 396.483c56.64 0 103.516 46.875 103.516 103.516S869.143 603.515 812.502 603.515c-42.969 0 -80.078 -25.391 -95.703 -62.5H595.705c-15.625 37.109 -52.735 62.5 -95.704 62.5s-80.078 -25.391 -95.703 -62.5H283.204c-15.625 37.109 -52.735 62.5 -95.704 62.5 -56.64 0 -103.515 -46.876 -103.515 -103.516S130.86 396.483 187.5 396.483c42.97 0 80.079 25.39 95.704 62.5h121.094c15.625 -37.11 52.734 -62.5 95.703 -62.5s80.079 25.39 95.704 62.5h121.094c15.625 -37.11 52.734 -62.5 95.703 -62.5z"/></svg>