<svg height="1000" width="1000" xmlns="http://www.w3.org/2000/svg"><path d="M125 166.013h750.002v167.97H125v-167.97zM541.017 500v-83.985h333.985V500H541.017zm-416.017 0v-83.985h333.986V500H125zm666.018 333.985v-83.985h83.984v83.985h-83.984zm-166.016 0v-83.985h83.984v83.985h-83.984zm-166.016 0v-83.985h82.031v83.985h-82.031zm-167.97 0v-83.985h83.985v83.985h-83.985zm-166.016 0v-83.985h83.985v83.985H125zm541.017 -167.97v-82.03h208.985v82.03H666.017zm-269.532 0v-82.03h207.032v82.03H396.485zm-271.485 0v-82.03h208.985v82.03H125z"/></svg>