<svg height="1000" width="1000" xmlns="http://www.w3.org/2000/svg"><path d="M666.017 249.998c46.875 0 83.985 37.11 83.985 83.985h54.688c0 -76.172 -62.5 -138.673 -138.673 -138.673v54.688zM500.001 791.015c115.235 0 208.985 -91.797 208.985 -207.032S615.236 374.998 500.001 374.998s-208.985 93.75 -208.985 208.985 93.75 207.032 208.985 207.032zM708.986 374.998h207.032v458.986c0 44.922 -37.11 82.031 -82.031 82.031h-667.97c-44.923 0 -82.032 -37.11 -82.032 -82.031V333.983c0 -44.922 37.11 -83.985 82.031 -83.985H298.83L375 166.013h250v125c46.876 0 83.985 37.11 83.985 83.985zM666.017 138.67V83.982c138.673 0 250.001 111.328 250.001 250H861.33C861.33 226.562 773.44 138.67 666.017 138.67zM367.188 583.983c0 -74.219 58.594 -134.766 132.813 -134.766s132.813 60.547 132.813 134.766S574.22 716.796 500.001 716.796 367.188 658.202 367.188 583.983z"/></svg>