<svg height="1000" width="1000" xmlns="http://www.w3.org/2000/svg"><path d="M708.986 291.014c115.235 0 207.032 93.75 207.032 208.985S824.221 708.984 708.986 708.984H541.017v-80.079h167.97c70.312 0 128.906 -58.594 128.906 -128.906S779.299 371.092 708.986 371.092H541.017v-80.078h167.97zm-375 250v-82.031h332.031v82.031H333.985zM162.11 500c0 70.312 58.594 128.906 128.906 128.906h167.97v80.079h-167.97c-115.234 0 -207.031 -93.75 -207.031 -208.985S175.782 291.014 291.016 291.014h167.97v80.078h-167.97C220.704 371.092 162.11 429.686 162.11 500z"/></svg>