<svg height="1000" width="1000" xmlns="http://www.w3.org/2000/svg"><path d="M626.955 427.733c23.437 -23.438 39.062 -56.64 39.062 -93.75 0 -91.797 -74.219 -167.97 -166.016 -167.97s-166.016 76.173 -166.016 167.97h82.032c0 -44.922 39.062 -83.985 83.984 -83.985s83.985 39.063 83.985 83.985c0 23.437 -9.766 42.969 -25.39 58.594l-50.782 52.734c-29.297 31.25 -48.828 72.266 -48.828 117.188v21.484h82.031c0 -62.5 19.531 -87.89 48.828 -119.14zm-85.938 322.266v-83.984h-82.031v83.984h82.031zm250 -666.017c44.923 0 83.985 37.11 83.985 82.031V750c0 44.922 -39.062 83.985 -83.984 83.985H625.002l-125 125L375 833.984H208.985C162.11 833.984 125 794.921 125 749.999V166.013c0 -44.921 37.11 -82.031 83.985 -82.031h582.033z"/></svg>