<svg height="1000" width="1000" xmlns="http://www.w3.org/2000/svg"><path d="M648.44 699.218L603.516 529.296l136.72 -113.282 -175.782 -9.766L500 242.186l-64.453 164.062 -177.735 9.766 138.672 113.282 -44.922 169.922 148.438 -95.703zm185.547 -199.22c0 44.923 37.109 83.985 82.031 83.985V750c0 44.922 -37.11 83.985 -82.031 83.985h-667.97c-44.923 0 -82.032 -39.063 -82.032 -83.985V583.983c46.875 0 82.031 -39.062 82.031 -83.984s-37.11 -83.985 -82.031 -83.985V249.998c0 -44.922 37.11 -83.985 82.031 -83.985h667.97c44.922 0 82.032 39.063 82.032 83.985v166.016c-44.922 0 -82.031 39.063 -82.031 83.985z"/></svg>