<svg height="1000" width="1000" xmlns="http://www.w3.org/2000/svg"><path d="M750.002 416.014c23.437 0 41.016 -17.578 41.016 -41.016s-17.579 -41.015 -41.016 -41.015 -41.016 17.578 -41.016 41.015 17.578 41.016 41.016 41.016zm-250 0V208.982H250v207.032h250zM824.22 300.78c19.531 19.532 29.297 44.922 29.297 74.22v396.485C853.518 828.124 806.643 875 750.002 875S646.486 828.125 646.486 771.484V562.499h-62.5v312.5h-417.97V208.983c0 -44.922 39.063 -83.984 83.985 -83.984h250c44.922 0 83.985 39.062 83.985 83.984V500h41.016c44.922 0 83.984 39.062 83.984 83.984v187.5c0 23.438 17.578 41.017 41.016 41.017s41.016 -17.579 41.016 -41.016V470.702c-13.672 5.86 -25.391 7.812 -41.016 7.812 -56.64 0 -103.516 -46.875 -103.516 -103.516 0 -44.922 27.344 -82.031 66.406 -97.656l-87.89 -87.89 44.922 -42.97z"/></svg>