<svg height="1000" width="1000" xmlns="http://www.w3.org/2000/svg"><path d="M208.985 541.014h582.033l-62.5 -187.5H271.484zM728.517 750c35.157 0 62.5 -27.343 62.5 -62.5S763.675 625 728.518 625s-62.5 27.344 -62.5 62.5 27.344 62.5 62.5 62.5zm-457.032 0c35.156 0 62.5 -27.343 62.5 -62.5S306.641 625 271.485 625s-62.5 27.344 -62.5 62.5 27.344 62.5 62.5 62.5zm517.58 -416.016l85.937 250v332.032c0 23.438 -17.578 42.97 -41.015 42.97h-42.97c-23.437 0 -41.015 -19.532 -41.015 -42.97V875H250v41.015c0 23.438 -17.579 42.97 -41.016 42.97h-42.969C142.578 958.984 125 939.452 125 916.014V583.983l85.938 -250c7.813 -25.391 33.203 -42.97 60.547 -42.97h457.032c27.344 0 52.735 17.579 60.548 42.97zm-498.049 -125c-35.156 0 -62.5 -27.344 -62.5 -62.5 0 -41.017 62.5 -113.282 62.5 -113.282s62.5 72.265 62.5 113.281c0 35.157 -27.343 62.5 -62.5 62.5zm208.985 0c-35.156 0 -62.5 -27.344 -62.5 -62.5 0 -41.017 62.5 -113.282 62.5 -113.282s62.5 72.265 62.5 113.281c0 35.157 -27.343 62.5 -62.5 62.5zm208.985 0c-35.156 0 -62.5 -27.344 -62.5 -62.5 0 -41.017 62.5 -113.282 62.5 -113.282s62.5 72.265 62.5 113.281c0 35.157 -27.343 62.5 -62.5 62.5z"/></svg>