<svg height="1000" width="1000" xmlns="http://www.w3.org/2000/svg"><path d="M677.736 730.468L269.532 322.264c-37.11 48.828 -60.547 111.328 -60.547 177.735 0 162.11 128.906 291.016 291.016 291.016 66.407 0 128.907 -23.437 177.735 -60.547zM125 177.732l52.735 -52.734 697.267 697.267L822.268 875 736.33 789.062c-54.688 44.922 -121.094 76.172 -195.313 83.985v85.937h-82.031v-85.937C285.157 853.515 146.485 714.843 126.953 541.014H41.016v-82.031h85.937c7.813 -74.219 39.063 -140.625 83.985 -195.313zm748.05 281.251h85.937v82.031h-85.938c-5.86 46.876 -19.531 93.75 -41.016 132.813l-62.5 -62.5C783.205 578.124 791.018 539.061 791.018 500 791.018 337.889 662.11 208.982 500 208.982c-39.062 0 -78.125 7.813 -111.328 21.485l-62.5 -62.5C367.188 146.482 412.11 132.81 458.986 126.95V41.013h82.031v85.938c173.829 19.531 312.5 158.203 332.032 332.032z"/></svg>