<svg height="1000" width="1000" xmlns="http://www.w3.org/2000/svg"><path d="M208.985 458.983h582.033l-62.5 -187.5H271.484zm519.532 207.032c35.157 0 62.5 -27.344 62.5 -62.5s-27.343 -62.5 -62.5 -62.5 -62.5 27.343 -62.5 62.5 27.344 62.5 62.5 62.5zm-457.032 0c35.156 0 62.5 -27.344 62.5 -62.5s-27.344 -62.5 -62.5 -62.5 -62.5 27.343 -62.5 62.5 27.344 62.5 62.5 62.5zm517.58 -416.017l85.937 250v333.986c0 23.438 -17.578 41.016 -41.015 41.016h-42.97c-23.437 0 -41.015 -17.578 -41.015 -41.016v-42.969H250v42.969C250 857.422 232.422 875 208.985 875h-42.969C142.578 875 125 857.422 125 833.984V499.999l85.938 -250c7.813 -25.392 33.203 -41.017 60.547 -41.017h103.516v-83.984h250v83.984h103.516c27.344 0 52.735 15.625 60.548 41.016z"/></svg>