<svg height="1000" width="1000" xmlns="http://www.w3.org/2000/svg"><path d="M500.001 228.514c-56.64 0 -103.516 48.828 -103.516 105.469s46.876 103.516 103.516 103.516S603.517 390.623 603.517 333.983 556.642 228.513 500.001 228.513zM232.422 427.733c0 -41.016 25.391 -76.172 60.547 -93.75 -35.156 -17.579 -60.547 -52.735 -60.547 -93.75 0 -56.641 48.829 -105.47 105.47 -105.47 21.484 0 41.015 7.813 58.593 19.532v-7.813c0 -56.64 46.876 -105.469 103.516 -105.469s103.516 48.828 103.516 105.47v7.812c17.578 -11.72 37.11 -19.532 58.594 -19.532 56.64 0 105.47 48.829 105.47 105.47 0 41.015 -25.392 76.171 -60.548 93.75 35.156 17.578 60.547 52.734 60.547 93.75 0 56.64 -48.828 103.516 -105.469 103.516 -21.484 0 -41.016 -5.86 -58.594 -17.578v7.812C603.517 578.123 556.642 625 500.001 625S396.485 578.124 396.485 521.483v-7.812c-17.578 11.718 -37.11 17.578 -58.594 17.578 -56.64 0 -105.469 -46.875 -105.469 -103.516zm267.58 488.282C292.97 916.015 125 748.046 125 541.015c207.032 0 375.001 167.969 375.001 375zm0 0c0 -207.031 167.968 -375 375 -375 0 207.031 -167.969 375 -375 375z"/></svg>