<svg height="1000" width="1000" xmlns="http://www.w3.org/2000/svg"><path d="M500.001 541.014c115.235 0 208.985 -91.797 208.985 -207.031h-83.984c0 68.36 -56.641 125 -125 125S375 402.343 375 333.983h-83.985c0 115.234 93.75 207.031 208.985 207.031zm0 -416.016c-68.36 0 -125 56.64 -125 125h250c0 -68.36 -56.64 -125 -125 -125zm291.017 125c44.922 0 83.984 39.063 83.984 83.985v500c0 44.923 -39.062 82.032 -83.984 82.032H208.985C164.063 916.015 125 878.905 125 833.984V333.983c0 -44.922 39.063 -83.985 83.985 -83.985h82.031c0 -115.235 93.75 -208.985 208.985 -208.985s208.985 93.75 208.985 208.985h82.032z"/></svg>