<svg height="1000" width="1000" xmlns="http://www.w3.org/2000/svg"><path d="M750.002 771.484c35.156 0 62.5 -27.344 62.5 -62.5s-27.344 -62.5 -62.5 -62.5 -62.5 27.343 -62.5 62.5 27.344 62.5 62.5 62.5zm62.5 -375.001H708.986v103.516h185.548zm-562.501 375c35.156 0 62.5 -27.343 62.5 -62.5s-27.344 -62.5 -62.5 -62.5 -62.5 27.344 -62.5 62.5 27.343 62.5 62.5 62.5zm583.986 -437.5l125 166.016v208.985h-83.985c0 68.36 -56.64 125 -125 125s-125 -56.64 -125 -125H375c0 68.36 -56.64 125 -125 125s-125 -56.64 -125 -125H41.015V249.998c0 -44.922 39.062 -83.985 83.984 -83.985h583.986v167.97h125z"/></svg>