<svg height="1000" width="1000" xmlns="http://www.w3.org/2000/svg"><path d="M833.987 750V249.997h-667.97V750h667.97zm0 -583.987c46.875 0 82.031 37.11 82.031 83.985V750c0 46.875 -35.156 83.985 -82.031 83.985h-667.97c-46.876 0 -82.032 -37.11 -82.032 -83.985V250c0 -46.876 35.156 -83.986 82.031 -83.986h667.97zm-375.001 542.97v-42.968H375v-82.032h166.016v-42.969h-125C392.579 541.014 375 523.436 375 500v-125c0 -23.438 17.578 -41.016 41.016 -41.016h42.969v-42.97h82.031v42.97h83.985v82.031H458.986v42.969h125c23.437 0 41.016 17.578 41.016 41.016v125c0 23.438 -17.579 41.016 -41.016 41.016h-42.969v42.969h-82.031z"/></svg>