<svg height="1000" width="1000" xmlns="http://www.w3.org/2000/svg"><path d="M500.001 833.984c138.673 0 250 -111.328 250 -250s-111.327 -250.001 -250 -250.001 -250 111.328 -250 250 111.328 250.001 250 250.001zM291.016 166.014c-23.437 0 -41.015 19.53 -41.015 42.968s17.578 41.016 41.015 41.016 42.97 -17.578 42.97 -41.016 -19.532 -42.969 -42.97 -42.969zm125 0c-23.437 0 -41.015 19.53 -41.015 42.968s17.578 41.016 41.016 41.016 42.969 -17.578 42.969 -41.016 -19.532 -42.969 -42.97 -42.969zM750.003 83.981c46.875 0 83.985 35.156 83.985 82.031v667.97c0 46.876 -37.11 82.032 -83.985 82.032H250c-46.875 0 -83.985 -35.156 -83.985 -82.031v-667.97c0 -46.876 37.11 -82.032 83.985 -82.032h500zm-367.189 617.19L617.19 464.841c64.453 64.454 64.453 171.876 0 236.33s-169.922 64.452 -234.376 0z"/></svg>