<svg height="1000" width="1000" xmlns="http://www.w3.org/2000/svg"><path d="M488.283 478.514c115.579 114.24 231.024 228.612 345.704 343.751L781.252 875 640.627 736.327C570.314 839.843 500 916.015 500 916.015S208.985 593.75 208.985 374.998c0 -21.484 3.906 -42.968 7.812 -64.453L83.985 177.732l52.734 -52.734 347.657 347.657zM500 271.483c-31.25 0 -56.64 13.671 -76.172 35.156L289.063 173.826C341.798 119.138 417.97 83.982 500.001 83.982c162.11 0 291.017 128.907 291.017 291.016 0 70.313 -29.297 150.391 -70.313 228.517L570.314 451.17c21.484 -19.53 33.203 -44.922 33.203 -76.172 0 -56.64 -46.875 -103.515 -103.516 -103.515z"/></svg>