<svg height="1000" width="1000" xmlns="http://www.w3.org/2000/svg"><path d="M791.018 624.999v-83.985h-82.032V625h82.032zm0 166.016v-82.031h-82.032v82.031h82.032zM541.017 291.014v-82.032h-82.031v82.032h82.031zm0 167.969v-83.985h-82.031v83.985h82.031zm0 166.016v-83.985h-82.031V625h82.031zm0 166.016v-82.031h-82.031v82.031h82.031zm-250 -332.032v-83.985h-82.032v83.985h82.031zm0 166.016v-83.985h-82.032V625h82.031zm0 166.016v-82.031h-82.032v82.031h82.031zM625.001 458.983h250V875H125V291.014h250.001v-82.032l125 -125 125 125v250.001z"/></svg>