<svg height="1000" width="1000" xmlns="http://www.w3.org/2000/svg"><path d="M750.002 374.998v-83.984h-83.985v83.984h83.985zm0 166.016v-82.031h-83.985v82.031h83.985zm0 167.97v-83.985h-83.985v83.985h83.985zM333.985 374.998v-83.984h-83.984v83.984h83.984zm0 166.016v-82.031h-83.984v82.031h83.984zm0 167.97v-83.985h-83.984v83.985h83.984zM750.002 124.998h83.985V875h-83.985v-83.985h-83.985V875H333.985v-83.985h-83.984V875h-83.985V124.998h83.985v83.984h83.984v-83.984h332.032v83.984h83.985v-83.984z"/></svg>