<svg height="1000" width="1000" xmlns="http://www.w3.org/2000/svg"><path d="M228.516 291.014c35.157 0 62.5 -27.344 62.5 -62.5s-27.343 -62.5 -62.5 -62.5 -62.5 27.343 -62.5 62.5 27.344 62.5 62.5 62.5zM892.58 482.42c15.625 15.625 23.438 35.156 23.438 58.593s-7.813 42.97 -23.438 58.594l-292.97 292.97c-15.624 15.625 -35.155 23.437 -58.593 23.437s-42.969 -7.812 -58.594 -23.437l-375 -375.001C91.796 501.952 83.984 482.42 83.984 458.983v-292.97c0 -44.922 37.11 -82.031 82.031 -82.031h292.97c23.437 0 42.968 7.813 58.593 23.438z"/></svg>