<svg height="1000" width="1000" xmlns="http://www.w3.org/2000/svg"><path d="M750.002 833.984v-417.97H250v417.97h500zM371.095 249.998v83.985h257.813v-83.985C628.908 179.685 570.314 121.092 500 121.092S371.095 179.685 371.095 249.998zm378.907 83.985c44.922 0 83.985 37.11 83.985 82.031v417.97c0 44.922 -39.063 82.031 -83.985 82.031H250c-44.922 0 -83.985 -37.11 -83.985 -82.031v-417.97c0 -44.922 39.063 -82.031 83.985 -82.031h41.015v-83.985c0 -115.235 93.75 -208.985 208.985 -208.985s208.985 93.75 208.985 208.985v83.985h41.016zm-250 375c-44.923 0 -83.985 -39.062 -83.985 -83.984S455.079 541.014 500 541.014s83.985 39.063 83.985 83.985S544.923 708.984 500 708.984z"/></svg>