<svg height="1000" width="1000" xmlns="http://www.w3.org/2000/svg"><path d="M625.002 437.499v-62.5c0 -46.876 -37.11 -83.985 -82.032 -83.985H375.001v83.984h167.97v83.985h-83.985v82.031h83.984V625H375.001v83.985h167.97c44.921 0 82.03 -37.11 82.03 -83.985v-62.5c0 -35.156 -27.343 -62.5 -62.5 -62.5 35.157 0 62.5 -27.344 62.5 -62.5zM792.97 124.998c44.922 0 82.031 39.062 82.031 83.984v582.033c0 44.922 -37.11 83.985 -82.031 83.985H208.985C164.063 875 125 835.937 125 791.015V208.982c0 -44.922 39.063 -83.984 83.985 -83.984H792.97z"/></svg>