<svg height="1000" width="1000" xmlns="http://www.w3.org/2000/svg"><path d="M625.002 374.998v-83.984H458.986c-44.922 0 -83.985 37.11 -83.985 83.984V625c0 46.875 39.063 83.985 83.985 83.985h82.031c44.922 0 83.985 -37.11 83.985 -83.985v-83.985c0 -46.875 -39.063 -82.031 -83.985 -82.031h-82.031v-83.985h166.016zm166.016 -250c44.922 0 83.984 39.062 83.984 83.984v582.033c0 44.922 -39.062 83.985 -83.984 83.985H208.985C164.063 875 125 835.937 125 791.015V208.982c0 -44.922 39.063 -83.984 83.985 -83.984h582.033zM458.986 624.999v-83.985h82.031V625h-82.031z"/></svg>