<svg height="1000" width="1000" xmlns="http://www.w3.org/2000/svg"><path d="M625.002 458.983v-83.985c0 -46.875 -39.063 -83.984 -83.985 -83.984H375.001v83.984h166.016v83.985h-82.031c-44.922 0 -83.985 35.156 -83.985 82.031v167.97h250v-83.985H458.987v-83.985h82.031c44.922 0 83.985 -35.156 83.985 -82.031zM791.018 124.998c44.922 0 83.984 39.062 83.984 83.984v582.033c0 44.922 -39.062 83.985 -83.984 83.985H208.985C164.063 875 125 835.937 125 791.015V208.982c0 -44.922 39.063 -83.984 83.985 -83.984h582.033z"/></svg>