<svg height="1000" width="1000" xmlns="http://www.w3.org/2000/svg"><path d="M500.001 750V624.998l166.016 166.016 -166.016 167.97V833.983c-183.594 0 -333.985 -150.391 -333.985 -333.985 0 -64.454 19.531 -126.954 52.735 -177.735l60.547 60.547C259.766 417.967 250 457.03 250 499.999c0 138.672 111.328 250 250 250zm0 -583.987c183.595 0 333.986 150.392 333.986 333.986 0 64.453 -19.532 126.953 -52.735 177.735l-60.547 -60.547c19.531 -35.157 29.297 -74.22 29.297 -117.188a249.236 249.236 0 0 0 -250 -250v125L333.984 208.981 500.001 41.013v125z"/></svg>