<svg height="1000" width="1000" xmlns="http://www.w3.org/2000/svg"><path d="M500.001 833.984c183.595 0 333.986 -150.391 333.986 -333.985S683.595 166.013 500 166.013 166.016 316.405 166.016 500s150.391 333.985 333.985 333.985zm0 -750.002c230.47 0 416.017 185.547 416.017 416.017v333.985c0 44.922 -37.11 82.031 -82.031 82.031H500C269.531 916.015 83.985 730.468 83.985 500S269.532 83.982 500 83.982zm41.016 207.032v167.969h167.97v82.031h-167.97v167.97h-82.031v-167.97h-167.97v-82.031h167.97v-167.97h82.031z"/></svg>