<svg height="1000" width="1000" xmlns="http://www.w3.org/2000/svg"><path d="M708.986 708.984v-417.97h-417.97v417.97h417.97zM875.002 458.983h-83.984v82.031h83.984V625h-83.984v83.985c0 44.922 -37.11 82.031 -82.032 82.031h-83.984V875h-83.985v-83.985h-82.031V875H375v-83.985h-83.985c-44.922 0 -82.031 -37.11 -82.031 -82.031v-83.985H125v-83.985h83.985v-82.031H125v-83.985h83.985v-83.984c0 -44.922 37.11 -82.032 82.031 -82.032h83.985v-83.984h83.985v83.984h82.031v-83.984h83.985v83.984h83.984c44.922 0 82.032 37.11 82.032 82.032v83.984h83.984v83.985zm-333.985 82.031v-82.031h-82.031v82.031h82.031zm83.985 -166.016V625H375v-250h250z"/></svg>