<svg height="1000" width="1000" xmlns="http://www.w3.org/2000/svg"><path d="M177.735 124.998l697.267 697.267L822.268 875 648.439 701.17c-31.25 19.531 -70.313 31.25 -107.422 37.11V875h-82.031V738.28C322.266 718.75 208.985 601.562 208.985 458.984h70.313c0 125 105.469 210.938 220.703 210.938 33.203 0 66.407 -7.812 95.704 -21.484l-68.36 -68.36c-7.812 1.953 -17.578 3.906 -27.344 3.906 -68.36 0 -125 -56.64 -125 -125v-31.25l-250 -250zm447.267 339.844L375 216.795v-7.813c0 -68.36 56.64 -125 125 -125s125 56.64 125 125v255.86zm166.016 -5.859c0 48.828 -13.672 95.703 -37.11 136.72l-50.781 -52.735c11.719 -25.391 17.578 -52.735 17.578 -83.985h70.313z"/></svg>