<svg height="1000" width="1000" xmlns="http://www.w3.org/2000/svg"><path d="M558.595 753.906c72.266 -13.672 130.86 -54.688 130.86 -130.86 0 -105.47 -91.797 -142.579 -175.782 -164.063S404.298 414.061 404.298 378.905c0 -39.063 37.11 -68.36 99.61 -68.36 66.406 0 89.844 31.25 91.797 78.125h82.031C675.783 324.217 636.72 267.576 558.596 248.045v-82.032h-111.33v82.032C375.002 263.67 318.36 308.592 318.36 380.858c0 85.938 70.313 126.953 173.829 152.344 93.75 21.484 111.328 54.688 111.328 89.844 0 25.39 -17.578 66.406 -99.61 66.406 -76.172 0 -107.422 -35.156 -111.328 -78.125h-82.031c3.906 80.078 66.406 125 136.719 140.625v82.032h111.328v-80.078zM500.001 83.982c230.47 0 416.017 185.547 416.017 416.017S730.471 916.015 500.001 916.015 83.985 730.468 83.985 500 269.532 83.982 500 83.982z"/></svg>