<svg height="1000" width="1000" xmlns="http://www.w3.org/2000/svg"><path d="M222.657 169.92L830.08 779.296l-52.734 52.735 -91.797 -93.75c-25.391 23.437 -62.5 39.062 -101.563 46.875V875h-125v-89.844C378.907 767.578 310.548 716.796 304.688 624.999h91.797c3.907 48.828 39.063 87.89 125 87.89 56.641 0 85.938 -19.53 99.61 -39.062L474.611 529.296C376.954 499.999 312.5 451.17 312.5 365.233L169.922 222.654zm298.829 117.188c-25.391 0 -46.875 3.906 -64.454 11.718L396.485 238.28c19.532 -9.765 41.016 -17.578 62.5 -23.437v-89.844h125v91.797c87.892 21.484 130.86 85.938 132.814 158.203h-91.797c-1.954 -52.734 -29.297 -87.89 -103.516 -87.89z"/></svg>