<svg height="1000" width="1000" xmlns="http://www.w3.org/2000/svg"><path d="M833.987 791.015V291.014H500v42.969c117.188 0 208.985 89.844 208.985 207.031S617.19 750 500.001 750V675.78c-74.219 0 -132.813 -60.547 -132.813 -134.766S425.782 408.202 500.001 408.202V675.78c74.22 0 132.813 -60.547 132.813 -134.766S574.22 408.202 500.001 408.202v-74.22c-117.188 0 -208.985 89.845 -208.985 207.032S382.813 750 500.001 750v41.016h333.986zm0 -582.033c44.922 0 82.031 37.11 82.031 82.032v500.001c0 44.922 -37.11 83.985 -82.031 83.985h-667.97c-44.923 0 -82.032 -39.063 -82.032 -83.985V291.014c0 -44.922 37.11 -82.032 82.031 -82.032h134.766l74.219 -83.984h250l74.22 83.984h134.766z"/></svg>