<svg height="1000" width="1000" xmlns="http://www.w3.org/2000/svg"><path d="M791.018 562.499c35.156 0 62.5 -27.344 62.5 -62.5s-27.344 -62.5 -62.5 -62.5 -62.5 27.343 -62.5 62.5 27.343 62.5 62.5 62.5zm-207.032 0c35.156 0 62.5 -27.344 62.5 -62.5s-27.344 -62.5 -62.5 -62.5 -62.5 27.343 -62.5 62.5 27.344 62.5 62.5 62.5zm-208.985 0c35.156 0 62.5 -27.344 62.5 -62.5s-27.344 -62.5 -62.5 -62.5 -62.5 27.343 -62.5 62.5 27.344 62.5 62.5 62.5zM916.018 124.998c44.922 0 83.985 39.062 83.985 83.984v582.033c0 44.922 -39.063 83.985 -83.985 83.985H294.923c-29.297 0 -54.688 -15.625 -70.313 -37.11L0 500 224.61 162.107c15.625 -21.484 37.11 -37.11 66.406 -37.11h625.002z"/></svg>