<svg height="1000" width="1000" xmlns="http://www.w3.org/2000/svg"><path d="M791.018 708.984c68.36 0 125 -56.641 125 -125s-56.64 -125.001 -125 -125.001 -125 56.64 -125 125 56.64 125 125 125zM326.173 624.999H208.985v-83.985h117.188C308.595 492.186 261.719 458.983 208.985 458.983c-68.36 0 -125 56.64 -125 125s56.64 125 125 125c52.734 0 99.61 -35.156 117.188 -83.984zM810.549 376.952c107.422 7.812 189.454 95.703 189.454 207.031 0 117.188 -91.798 207.032 -208.985 207.032S583.986 701.171 583.986 583.983c0 -25.39 3.906 -50.781 11.719 -74.219L480.47 625h-68.36C392.58 720.702 310.548 791.015 208.985 791.015 91.797 791.015 0 701.171 0 583.983S91.797 374.998 208.985 374.998h482.423l-83.985 -83.984H458.986v-82.032H642.58z"/></svg>