<svg height="1000" width="1000" xmlns="http://www.w3.org/2000/svg"><path d="M705.08 498.046l85.938 -39.063L705.08 419.92l-39.063 -85.937 -39.062 85.937 -85.938 39.063 85.938 39.063 39.062 85.937zM468.75 634.765l115.235 -50.782L468.75 531.25 416.017 416.014 365.235 531.25l-115.234 52.734 115.234 50.782 50.782 115.234zm281.25 -468.752h166.017V750c0 44.922 -37.11 83.985 -82.031 83.985H166.016c-44.922 0 -82.031 -39.063 -82.031 -83.985V250c0 -44.923 37.11 -83.986 82.031 -83.986h42.969l82.031 125h125l-82.03 -125h82.03l83.985 125h125l-83.984 -125h83.985l83.984 125h125z"/></svg>