<svg height="1000" width="1000" xmlns="http://www.w3.org/2000/svg"><path d="M916.018 289.06L789.065 431.64c44.922 72.265 76.172 160.156 85.937 255.86h-83.984C783.205 619.14 761.72 554.685 730.47 498.045L562.5 687.499 396.485 519.53l-250 250 -62.5 -62.5 312.5 -312.5 166.016 167.969 119.141 -136.72C611.33 343.75 513.673 291.015 400.392 291.015c-97.657 0 -187.5 39.062 -257.814 101.563L83.985 333.983c85.937 -76.172 195.313 -125 316.407 -125 134.766 0 251.953 58.593 337.891 154.297L857.424 230.467z"/></svg>