<svg height="1000" width="1000" xmlns="http://www.w3.org/2000/svg"><path d="M333.985 624.999c0 -68.36 56.641 -125 125 -125 13.672 0 27.344 3.906 41.016 7.812V249.998h208.985v83.985h-125v292.97c0 68.359 -56.64 123.046 -125 123.046s-125 -56.64 -125 -125zm541.017 166.016V208.982H125v582.033h750.002zm0 -666.017c44.922 0 83.985 39.062 83.985 83.984v582.033c0 44.922 -39.063 83.985 -83.985 83.985H125C80.078 875 41.016 835.937 41.016 791.015V208.982c0 -44.922 39.062 -83.984 83.984 -83.984h750.002z"/></svg>