<svg height="1000" width="1000" xmlns="http://www.w3.org/2000/svg"><path d="M187.5 458.983c-35.156 0 -62.5 -27.344 -62.5 -62.5s27.344 -62.5 62.5 -62.5 62.5 27.343 62.5 62.5 -27.343 62.5 -62.5 62.5zm736.33 -76.172c0 150.39 -113.281 271.485 -257.813 289.063v162.11h125v82.031H125V708.984H83.985v-167.97C83.985 517.577 101.563 500 125 500h125c23.438 0 41.016 17.578 41.016 41.015v167.97h-41.015v125h333.985V669.92C445.314 646.483 339.845 527.343 339.845 382.811c0 -162.11 130.86 -292.97 292.97 -292.97s291.015 130.86 291.015 292.97z"/></svg>