<svg height="1000" width="1000" xmlns="http://www.w3.org/2000/svg"><path d="M875.002 666.015v-62.5c0 -35.157 -27.344 -62.5 -62.5 -62.5s-62.5 27.343 -62.5 62.5v62.5h125zm41.016 0c23.438 0 42.969 19.531 42.969 42.969V875c0 23.437 -19.531 41.015 -42.969 41.015H708.986c-23.437 0 -42.969 -17.578 -42.969 -41.015V708.984c0 -23.438 19.532 -42.97 42.97 -42.97v-62.5C708.986 546.875 755.86 500 812.501 500s103.516 46.875 103.516 103.516v62.5zm-103.516 -250c-103.516 0 -187.5 83.984 -187.5 187.5v11.718c-25.391 23.438 -41.016 56.641 -41.016 93.75v125.001H41.016l792.97 -792.97v376.953c-7.812 0 -13.671 -1.953 -21.484 -1.953z"/></svg>