<svg height="1000" width="1000" xmlns="http://www.w3.org/2000/svg"><path d="M208.985 541.014C292.969 457.03 404.298 417.967 513.673 421.874l-54.687 119.14C398.439 548.827 337.89 578.124 291.016 625zM708.986 625c-15.625 -15.625 -33.203 -29.297 -50.781 -41.016L681.642 462.89c39.063 19.532 76.172 44.922 109.376 78.125zM875.002 458.983C824.221 408.202 765.627 369.139 703.127 343.748L724.61 226.561c85.938 31.25 166.016 80.078 234.376 148.437zM41.016 374.998C197.266 218.748 412.11 160.154 613.283 195.31L564.455 306.64C408.205 287.108 244.14 339.842 125 458.983zM662.11 208.982c11.719 0 21.484 7.813 21.484 19.532l-101.562 537.11v1.954c-7.813 37.109 -42.97 66.406 -82.032 66.406 -46.875 0 -83.984 -37.11 -83.984 -83.985 0 -13.672 3.906 -29.297 9.765 -41.015L642.58 224.607c3.072 -9.216 8.91 -15.625 19.531 -15.625z"/></svg>