<svg height="1000" width="1000" xmlns="http://www.w3.org/2000/svg"><path d="M458.986 771.484l166.016 -167.97L458.986 437.5l-42.97 41.015 125.001 125 -125 125zm-42.97 -562.502v82.032h167.97v-82.032h-167.97zm167.97 -83.984c45.552 0 82.031 38.083 82.031 83.984v82.032h167.97c44.921 0 82.031 39.062 82.031 83.984v458.986c0 44.922 -37.11 82.031 -82.031 82.031h-667.97c-44.923 0 -82.032 -37.11 -82.032 -82.031V374.998c0 -44.922 37.11 -83.984 82.031 -83.984h167.97v-82.032c0 -44.922 37.109 -83.984 82.03 -83.984h167.97z"/></svg>