<svg height="1000" width="1000" xmlns="http://www.w3.org/2000/svg"><path d="M750.002 249.998V750H250V250h166.016v83.984h-82.032v332.032h332.032V333.983h-125v93.75c25.39 13.672 42.969 41.016 42.969 72.266 0 44.922 -39.063 83.984 -83.985 83.984S416.017 544.921 416.017 500c0 -31.25 17.578 -58.594 42.969 -72.266v-93.75c0 -44.922 37.109 -83.985 82.031 -83.985h208.985zm83.985 583.986v-667.97h-667.97v667.97h667.97zm0 -750.002c44.922 0 82.031 37.11 82.031 82.031v667.97c0 44.923 -37.11 82.032 -82.031 82.032h-667.97c-44.923 0 -82.032 -37.11 -82.032 -82.031v-667.97c0 -44.923 37.11 -82.032 82.031 -82.032h667.97z"/></svg>