<svg height="1000" width="1000" xmlns="http://www.w3.org/2000/svg"><path d="M371.095 249.998v50.781l-76.172 -76.172C306.64 121.091 392.579 41.013 500 41.013c115.235 0 208.985 93.75 208.985 208.985v83.985h41.016c44.922 0 83.985 37.11 83.985 82.031v347.657L402.345 333.983h226.563v-83.985C628.908 179.685 570.314 121.092 500 121.092S371.095 179.685 371.095 249.998zm503.907 658.205l-50.781 50.781L777.346 912.11c-7.813 1.953 -17.578 3.906 -27.344 3.906H250c-44.922 0 -83.985 -37.11 -83.985 -82.031v-417.97c0 -31.25 19.531 -58.594 44.922 -72.266L125 259.764l50.782 -50.782z"/></svg>