<svg height="1000" width="1000" xmlns="http://www.w3.org/2000/svg"><path d="M750.002 611.327L376.954 218.748c9.766 -3.906 19.531 -9.766 29.297 -13.672h1.953l11.719 -5.86c5.86 -1.952 11.719 -1.952 17.578 -3.906v-29.297c0 -35.156 27.344 -62.5 62.5 -62.5s62.5 27.344 62.5 62.5v29.297c119.141 29.297 187.5 134.766 187.5 263.673v152.344zm-250 304.688c-46.876 0 -83.985 -35.156 -83.985 -82.031h167.969c0 46.875 -37.11 82.031 -83.985 82.031zM326.171 255.857c182.848 188.9 366.545 376.949 548.83 566.408L822.268 875l-83.985 -83.985H166.016V750l83.985 -83.984V457.03c0 -52.735 11.718 -101.563 33.203 -142.579L166.016 199.217l52.735 -54.688z"/></svg>