<svg height="1000" width="1000" xmlns="http://www.w3.org/2000/svg"><path d="M603.517 408.202v-74.22H396.485v74.22H511.72L396.485 550.78V625h207.032V550.78H488.282zm146.485 257.813l83.985 83.984v41.016h-667.97L166.015 750l83.985 -83.984V458.983C250 332.03 318.36 224.607 437.5 195.31v-29.297c0 -35.156 27.344 -62.5 62.5 -62.5s62.5 27.344 62.5 62.5v29.297c119.141 29.297 187.5 136.72 187.5 263.673v207.032zm-250 250c-46.876 0 -83.985 -37.11 -83.985 -82.031h167.969c0 44.922 -39.063 82.031 -83.985 82.031z"/></svg>