<svg height="1000" width="1000" xmlns="http://www.w3.org/2000/svg"><path d="M500.001 916.015c-46.875 0 -83.984 -37.11 -83.984 -82.031h166.016c0 48.511 -36.353 82.031 -82.032 82.031zm250 -457.032v207.032l83.986 83.984v41.016h-667.97V750L250 666.015V458.983C250 330.076 318.36 224.607 437.5 195.31v-29.297c0 -35.156 27.344 -62.5 62.5 -62.5s62.5 27.344 62.5 62.5v29.297c119.141 29.297 187.5 136.72 187.5 263.673zm82.032 -21.484C826.174 326.17 769.533 230.467 685.55 169.919l58.594 -58.593c99.61 76.172 166.016 193.36 171.875 326.173h-83.985zM316.407 169.919C230.47 230.468 173.83 326.17 167.97 437.5H83.985C89.844 304.686 156.25 187.498 255.86 111.326z"/></svg>