<svg height="1000" width="1000" xmlns="http://www.w3.org/2000/svg"><path d="M666.017 708.984V458.983c0 -103.516 -62.5 -187.5 -166.016 -187.5s-166.016 83.984 -166.016 187.5v250h332.032zm83.985 -42.97L833.987 750v41.016h-667.97V750L250 666.015V458.983C250 330.076 318.36 224.607 437.5 195.31v-29.297c0 -35.156 27.344 -62.5 62.5 -62.5s62.5 27.344 62.5 62.5v29.297c119.141 29.297 187.5 136.72 187.5 263.673v207.032zm-250 250.001c-44.923 0 -83.985 -37.11 -83.985 -82.031h167.969c0 44.922 -39.063 82.031 -83.985 82.031z"/></svg>