<svg height="1000" width="1000" xmlns="http://www.w3.org/2000/svg"><path d="M699.22 757.812l58.594 -58.594L636.72 578.124c17.579 -29.297 29.297 -62.5 29.297 -99.61 0 -103.516 -83.984 -187.5 -187.5 -187.5s-187.5 83.984 -187.5 187.5 83.984 187.5 187.5 187.5c37.11 0 70.313 -11.718 99.61 -29.296zM833.988 166.013c44.922 0 82.031 39.063 82.031 83.985V750c0 44.922 -37.11 83.985 -82.031 83.985h-667.97c-44.923 0 -82.032 -39.063 -82.032 -83.985V250c0 -44.923 37.11 -83.986 82.031 -83.986h667.97zm-355.47 208.985c56.64 0 105.469 46.876 105.469 103.516s-48.828 105.47 -105.47 105.47S375.002 535.154 375.002 478.513 421.876 374.998 478.517 374.998z"/></svg>