<svg height="1000" width="1000" xmlns="http://www.w3.org/2000/svg"><path d="M791.018 124.998c44.922 0 83.984 39.062 83.984 83.984v250.001H666.017l42.97 -167.97 -167.97 42.97V124.998h250zm-82.032 583.986l-42.969 -167.97h208.985v250.001c0 44.922 -39.062 83.985 -83.984 83.985H541.017V666.015zm-375 -167.97l-42.97 167.97 167.97 -42.97V875H208.985C164.063 875 125 835.937 125 791.015v-250h208.985zM125 208.982c0 -44.922 39.063 -83.984 83.985 -83.984h250v208.985l-167.969 -42.97 42.97 167.97H125v-250z"/></svg>