<svg height="1000" width="1000" xmlns="http://www.w3.org/2000/svg"><path d="M958.987 228.514v605.47c0 91.797 -76.172 166.016 -167.97 166.016H488.283c-44.921 0 -87.89 -17.578 -119.14 -48.828L41.016 617.187S93.75 566.405 95.703 566.405c9.766 -7.812 21.485 -11.719 33.204 -11.719 9.765 0 17.578 1.953 25.39 5.86 1.953 0 179.688 101.563 179.688 101.563V166.013c0 -35.156 27.344 -62.5 62.5 -62.5s62.5 27.344 62.5 62.5v292.97h41.016V62.498c0 -35.157 27.344 -62.5 62.5 -62.5s62.5 27.343 62.5 62.5v396.485h41.016v-355.47c0 -35.156 27.344 -62.5 62.5 -62.5s62.5 27.344 62.5 62.5v355.47h42.97v-230.47c0 -35.156 27.343 -62.5 62.5 -62.5s62.5 27.344 62.5 62.5z"/></svg>