<svg height="1000" width="1000" xmlns="http://www.w3.org/2000/svg"><path d="M273.438 833.984h453.126C695.314 726.562 679.69 613.28 679.69 499.999s15.625 -226.563 46.875 -333.986H273.438c31.25 107.423 46.875 220.704 46.875 333.986s-15.625 226.563 -46.875 333.985zm556.642 46.875c1.953 3.906 3.907 7.813 3.907 11.719 0 13.672 -11.72 23.437 -27.344 23.437H193.36c-17.578 0 -27.344 -9.765 -27.344 -23.437 0 -3.906 1.953 -7.813 3.906 -11.719C214.844 757.812 238.282 628.905 238.282 500s-23.438 -257.813 -68.36 -380.86c-1.953 -3.907 -3.906 -7.813 -3.906 -11.72 0 -13.671 9.766 -23.437 27.344 -23.437h613.283c17.578 0 27.344 9.766 27.344 23.438 0 3.906 -1.954 7.812 -3.907 11.718 -44.922 123.048 -68.36 251.954 -68.36 380.86s23.438 257.814 68.36 380.861z"/></svg>