<svg height="1000" width="1000" xmlns="http://www.w3.org/2000/svg"><path d="M500.001 166.013c113.282 0 218.75 11.72 332.032 31.25l37.11 5.86 11.719 37.11c23.437 85.937 35.156 173.828 35.156 259.766s-11.719 173.828 -35.156 259.766l-11.72 37.11 -37.109 5.859c-113.281 19.531 -218.75 31.25 -332.032 31.25S281.251 822.265 167.97 802.734l-37.11 -5.86 -11.718 -37.109C95.703 673.827 83.985 585.936 83.985 499.999S95.703 326.17 119.14 240.232l11.719 -37.109 37.11 -5.86C281.25 177.734 386.72 166.014 500 166.014zm0 83.985c-101.562 0 -197.266 9.766 -304.688 27.344C175.782 351.56 166.016 425.78 166.016 499.999s9.766 148.438 29.297 222.657c107.422 17.578 203.126 27.343 304.688 27.343s197.266 -9.765 304.689 -27.343c19.53 -74.22 29.297 -148.438 29.297 -222.657S824.22 351.56 804.69 277.342C697.267 259.764 601.564 249.998 500 249.998z"/></svg>