<svg height="1000" width="1000" xmlns="http://www.w3.org/2000/svg"><path d="M500.001 708.984c115.235 0 208.985 -93.75 208.985 -208.985 0 -13.672 -1.953 -27.344 -3.906 -41.016h-87.89c3.905 13.672 7.812 27.344 7.812 41.016 0 68.36 -56.641 125 -125 125H333.984c39.063 50.781 97.657 83.985 166.016 83.985zm0 -417.97c-115.234 0 -208.985 93.75 -208.985 208.985 0 13.672 1.953 27.344 3.907 41.015h87.89C378.907 527.343 375.001 513.671 375.001 500c0 -68.36 56.64 -125 125 -125h166.016C626.955 324.216 568.361 291.013 500.001 291.013zm333.986 -125c44.921 0 82.031 39.062 82.031 83.984V750c0 44.922 -37.11 83.985 -82.031 83.985h-667.97c-44.923 0 -82.032 -39.063 -82.032 -83.985V250c0 -44.923 37.11 -83.986 82.031 -83.986h132.813L375 83.982h250l76.173 82.031h132.813z"/></svg>