<svg height="1000" width="1000" xmlns="http://www.w3.org/2000/svg"><path d="M687.502 271.483c-44.922 0 -83.985 37.109 -83.985 82.031s39.063 83.985 83.985 83.985 83.984 -39.063 83.984 -83.985 -39.062 -82.031 -83.984 -82.031zm0 228.516c-80.079 0 -146.485 -66.407 -146.485 -146.485S607.423 208.982 687.502 208.982s146.485 64.454 146.485 144.532S767.58 499.999 687.502 499.999zM312.5 271.483c-44.922 0 -83.985 37.109 -83.985 82.031s39.063 83.985 83.985 83.985 83.984 -39.063 83.984 -83.985 -39.062 -82.031 -83.984 -82.031zm0 228.516c-80.079 0 -146.485 -66.407 -146.485 -146.485S232.422 208.982 312.501 208.982s146.485 64.454 146.485 144.532S392.579 499.999 312.5 499.999zm583.986 228.516v-50.781c0 -23.438 -107.422 -74.22 -208.985 -74.22 -44.922 0 -87.891 11.72 -125 23.438 13.671 15.625 21.484 31.25 21.484 50.782v50.78h312.5zm-375.001 0v-50.781c0 -23.438 -107.422 -74.22 -208.985 -74.22s-208.985 50.782 -208.985 74.22v50.78h417.97zm166.016 -187.5c89.844 0 271.485 46.875 271.485 136.719v113.281H41.016V677.734c0 -89.844 181.64 -136.72 271.485 -136.72 50.781 0 126.953 15.625 187.5 42.97 60.547 -27.345 136.72 -42.97 187.5 -42.97z"/></svg>