<svg height="1000" width="1000" xmlns="http://www.w3.org/2000/svg"><path d="M791.018 853.515c35.156 0 62.5 -27.344 62.5 -62.5s-27.344 -62.5 -62.5 -62.5 -62.5 27.344 -62.5 62.5 27.343 62.5 62.5 62.5zM945.315 812.5l44.922 33.203c3.906 3.906 3.906 9.765 1.953 13.672l-41.016 72.265c-1.953 3.907 -9.765 7.813 -13.672 5.86l-50.781 -21.485c-9.766 7.813 -23.438 13.672 -35.156 19.532l-7.813 56.64c0 5.86 -5.86 7.813 -11.719 7.813h-82.031c-5.86 0 -11.719 -1.953 -11.719 -7.813l-7.812 -56.64c-13.672 -5.86 -23.438 -11.72 -35.157 -19.532L644.533 937.5c-5.86 1.953 -11.719 -1.953 -13.672 -5.86l-41.016 -72.265c-1.953 -3.907 -1.953 -9.766 1.953 -13.672L636.72 812.5c0 -5.86 -1.953 -13.672 -1.953 -21.485s1.953 -13.672 1.953 -19.531l-44.922 -35.157c-3.906 -3.906 -3.906 -9.765 -1.953 -13.671l41.016 -72.266c1.953 -3.907 9.766 -5.86 13.672 -3.907l50.781 21.485c11.72 -7.813 23.438 -15.625 35.157 -21.485l7.812 -54.687c0 -5.86 5.86 -7.813 11.719 -7.813h82.031c5.86 0 11.72 1.953 11.72 7.813l7.812 54.687c13.672 5.86 23.437 13.672 35.156 21.485l50.781 -21.485c5.86 -1.953 11.72 0 13.672 3.907l41.016 72.266c1.953 3.906 1.953 9.765 -1.953 13.671l-44.922 35.157c1.953 5.86 1.953 11.719 1.953 19.531s-1.953 15.625 -1.953 21.485zM791.018 478.514c-171.876 0 -312.501 140.626 -312.501 312.501 0 13.672 1.953 29.297 3.906 42.969H0L833.987 -.003l-1.954 482.424c-13.672 -1.954 -27.343 -3.907 -41.015 -3.907z"/></svg>