<svg height="1000" width="1000" xmlns="http://www.w3.org/2000/svg"><path d="M583.986 541.014V374.998c0 -44.922 -39.063 -83.984 -83.985 -83.984s-83.984 39.062 -83.984 83.984v166.016C416.017 585.936 455.079 625 500 625s83.985 -39.063 83.985 -83.985zm250 -332.032c44.922 0 82.032 37.11 82.032 82.032v500.001c0 44.922 -37.11 83.985 -82.031 83.985h-292.97v-87.891C658.205 767.578 750.002 664.062 750.002 541.014h-83.985c0 91.798 -74.219 167.97 -166.016 167.97S333.985 632.812 333.985 541.014h-83.984c0 123.048 91.797 226.564 208.985 246.095v87.89h-292.97c-44.922 0 -82.031 -39.062 -82.031 -83.984V291.014c0 -44.922 37.11 -82.032 82.031 -82.032H298.83L375 124.998h250l76.173 83.984h132.813z"/></svg>