<svg height="1000" width="1000" xmlns="http://www.w3.org/2000/svg"><path d="M750.002 750v-41.016c0 -83.985 -166.016 -128.907 -250 -128.907S250 625 250 708.984v41.015h500zm-250 -500.002c-68.36 0 -125.001 56.64 -125.001 125s56.64 125 125 125 125 -56.64 125 -125 -56.64 -125 -125 -125zm291.016 -125c44.922 0 83.984 39.062 83.984 83.984v582.033c0 44.922 -39.062 83.985 -83.984 83.985H208.985C162.11 875 125 835.937 125 791.015V208.982c0 -44.922 37.11 -83.984 83.985 -83.984H250V41.013h83.984v83.985h332.032V41.013h83.985v83.985h41.016z"/></svg>