<svg height="1000" width="1000" xmlns="http://www.w3.org/2000/svg"><path d="M750.002 666.015v-37.11C750.002 544.921 583.986 500 500.002 500S250 544.92 250 628.905v37.11h500zm-250 -445.314c-62.5 0 -113.282 50.782 -113.282 113.282S437.5 445.31 500 445.31 613.283 396.483 613.283 333.983 562.5 220.7 500 220.7zM791.017 83.982c44.922 0 83.984 37.11 83.984 82.031V750c0 44.922 -39.062 83.985 -83.984 83.985H625.002l-125 125L375 833.984H208.985C162.11 833.984 125 794.921 125 749.999V166.013c0 -44.921 37.11 -82.031 83.985 -82.031h582.033z"/></svg>