<svg height="1000" width="1000" xmlns="http://www.w3.org/2000/svg"><path d="M500.001 583.983c70.313 0 130.86 -35.156 166.016 -89.844 0 -54.687 -111.328 -85.937 -166.016 -85.937s-166.016 31.25 -166.016 85.937c35.157 54.688 95.704 89.844 166.016 89.844zm0 -417.97c-44.922 0 -83.984 39.063 -83.984 83.985 0 46.875 39.062 83.985 83.984 83.985s83.985 -37.11 83.985 -83.985c0 -44.922 -39.063 -83.985 -83.985 -83.985zm0 -82.031c160.157 0 291.017 130.86 291.017 291.016C791.018 593.75 500 916.015 500 916.015S208.985 593.75 208.985 374.998C208.985 214.842 339.845 83.982 500 83.982z"/></svg>