<svg height="1000" width="1000" xmlns="http://www.w3.org/2000/svg"><path d="M500.001 541.014c111.329 0 333.986 56.641 333.986 167.97v125h-667.97l-.001 -125c0 -111.329 222.657 -167.97 333.985 -167.97zm0 -375c91.797 0 166.016 76.172 166.016 167.969S591.798 499.999 500.001 499.999 333.985 425.779 333.985 333.983s74.22 -167.97 166.016 -167.97zm0 455.079c-123.047 0 -253.907 60.547 -253.907 87.89v44.923h507.814v-44.922c0 -27.344 -130.86 -87.891 -253.907 -87.891zm0 -375.001c-48.828 0 -87.89 39.062 -87.89 87.89S451.172 419.92 500 419.92s87.891 -37.11 87.891 -85.937 -39.062 -87.891 -87.89 -87.891z"/></svg>