<svg height="1000" width="1000" xmlns="http://www.w3.org/2000/svg"><path d="M722.658 619.14c54.688 54.687 123.047 113.281 109.375 199.219 -11.718 42.969 -42.968 85.938 -97.656 97.656 -31.25 5.86 -126.954 -17.578 -230.47 -17.578h-7.812c-103.516 0 -199.22 23.438 -230.47 17.578C210.939 904.297 179.689 861.328 167.97 818.36 156.25 734.374 222.657 673.827 277.344 619.139c37.11 -42.968 66.407 -78.125 103.516 -121.093 19.532 -23.438 42.97 -44.922 72.266 -54.688 3.906 -1.953 9.766 -3.906 13.672 -3.906 11.719 -1.953 21.484 -1.953 33.203 -1.953s23.438 0 33.203 1.953c3.907 0 9.766 1.953 13.672 3.906 29.297 9.766 52.735 31.25 72.266 54.688 37.11 42.968 66.407 78.125 103.516 121.094zM708.986 396.483c0 -56.64 46.875 -105.47 103.516 -105.47s103.516 48.83 103.516 105.47S869.143 499.999 812.502 499.999 708.986 453.124 708.986 396.483zm-187.5 -167.97c0 -56.64 46.875 -103.515 103.516 -103.515s103.515 46.875 103.515 103.516S681.642 333.983 625.002 333.983 521.486 285.154 521.486 228.513zm-250 0c0 -56.64 46.874 -103.515 103.515 -103.515s103.516 46.875 103.516 103.516S431.642 333.983 375 333.983 271.485 285.154 271.485 228.513zM83.984 396.484c0 -56.64 46.875 -105.47 103.515 -105.47s103.516 48.83 103.516 105.47S244.141 499.999 187.5 499.999 83.985 453.124 83.985 396.483z"/></svg>