<svg height="1000" width="1000" xmlns="http://www.w3.org/2000/svg"><path d="M988.284 695.312c7.812 7.812 11.719 17.578 11.719 29.297s-3.907 21.484 -11.72 29.297L884.769 857.422c-7.813 7.812 -17.578 11.718 -29.297 11.718s-21.484 -3.906 -29.297 -11.718c-33.203 -31.25 -70.313 -58.594 -111.328 -78.126 -13.672 -5.86 -23.438 -21.484 -23.438 -37.11V613.28c-60.547 -19.531 -125 -29.297 -191.407 -29.297s-130.86 9.766 -191.406 29.297v128.907c0 17.578 -9.766 33.203 -23.438 39.062 -41.016 19.532 -78.125 44.922 -111.328 76.173 -7.813 7.812 -17.579 11.718 -29.297 11.718s-21.485 -3.906 -29.297 -11.718L11.719 753.906C3.906 746.093 0 736.327 0 724.609s3.906 -21.485 11.719 -29.297C138.672 574.218 310.548 499.999 500 499.999s361.33 74.219 488.283 195.313zM271.485 228.514v146.484h-62.5v-250h250v62.5H312.502l187.5 187.5 250 -250 41.017 41.015L500 458.983z"/></svg>