<svg height="1000" width="1000" xmlns="http://www.w3.org/2000/svg"><path d="M958.987 333.983c23.437 0 41.016 17.578 41.016 41.015v416.017c0 23.438 -17.579 42.969 -41.016 42.969h-7.813l-125 -125h89.844v-292.97H750.002v216.798l-83.985 -83.985V374.998c0 -23.437 19.532 -41.015 42.97 -41.015h250zm-792.97 -72.266v447.267h447.266zM80.077 68.357C349.82 338.33 619.113 608.753 888.674 878.906L835.94 931.64l-97.657 -97.656H0v-125h83.985V249.998c0 -19.531 7.812 -39.063 19.53 -52.734L27.345 121.09zm835.94 181.641h-548.83l-83.984 -83.985h632.814v83.985z"/></svg>