<svg height="1000" width="1000" xmlns="http://www.w3.org/2000/svg"><path d="M396.485 458.983v-62.5c0 -33.203 -29.297 -54.688 -62.5 -54.688s-62.5 21.485 -62.5 54.688v62.5h125zm52.735 0c25.39 0 50.781 23.438 50.781 52.734v146.485c0 25.39 -25.39 50.782 -54.687 50.782H216.797c-25.39 0 -50.78 -25.391 -50.78 -54.688V507.811c0 -25.39 25.39 -48.828 50.78 -48.828v-62.5c0 -58.594 58.594 -105.47 117.188 -105.47S449.22 337.89 449.22 396.484v62.5zM791.018 41.013c44.922 0 83.984 39.063 83.984 83.985V875c0 44.922 -39.062 83.984 -83.984 83.984H375c-44.922 0 -83.985 -39.062 -83.985 -83.984V750h83.985v83.984h416.017v-667.97H375v83.984h-83.985v-125c0 -44.922 39.063 -83.985 83.985 -83.985h416.017z"/></svg>