<svg height="1000" width="1000" xmlns="http://www.w3.org/2000/svg"><path d="M800.783 166.013v-19.53c0 -39.063 -33.203 -72.267 -72.266 -72.267s-70.312 33.204 -70.312 72.266v19.531h142.578zm33.204 0c23.437 0 41.015 19.532 41.015 42.97v166.015c0 23.438 -17.578 41.016 -41.015 41.016H625.002c-23.438 0 -41.016 -17.578 -41.016 -41.016V208.982c0 -23.437 17.578 -42.969 41.016 -42.969v-19.53c0 -56.642 46.875 -105.47 103.515 -105.47s105.47 48.828 105.47 105.47v19.53zm0 480.47c23.437 0 41.015 17.579 41.015 41.016v146.485c0 23.438 -17.578 41.016 -41.015 41.016C443.36 875 125 556.64 125 166.013c0 -23.437 17.578 -41.015 41.016 -41.015h146.485c23.437 0 41.016 17.578 41.016 41.015 0 52.735 7.812 101.563 23.437 148.438 3.906 13.672 1.953 31.25 -9.766 42.97l-91.797 91.796c60.547 119.141 158.204 214.845 275.392 275.392l91.797 -91.797c11.719 -11.72 29.297 -13.672 42.969 -9.766 46.875 15.625 95.703 23.437 148.438 23.437z"/></svg>