<svg height="1000" width="1000" xmlns="http://www.w3.org/2000/svg"><path d="M583.986 833.984v-667.97h-417.97v667.97h417.97zm0 -792.97c44.922 0 82.031 39.062 82.031 83.984V875c0 44.922 -37.11 83.984 -82.031 83.984h-417.97c-44.922 0 -82.031 -39.062 -82.031 -83.984V124.998c0 -44.922 37.11 -83.985 82.031 -83.985h417.97zm166.016 367.188c50.781 54.687 50.781 128.906 0 179.688l-41.016 -42.97c21.485 -29.296 21.485 -66.406 0 -95.703zm87.89 -87.891c103.517 99.61 103.517 259.766 0 355.47l-42.968 -42.97c74.219 -80.078 74.219 -195.312 0 -269.531z"/></svg>