<svg height="1000" width="1000" xmlns="http://www.w3.org/2000/svg"><path d="M791.018 41.013c44.922 0 83.984 39.063 83.984 83.985V875c0 44.922 -39.062 83.984 -83.984 83.984H375c-44.922 0 -83.985 -39.062 -83.985 -83.984V750h83.985v83.984h416.017v-667.97H375v83.984h-83.985v-125c0 -44.922 39.063 -83.985 83.985 -83.985h416.017zm-457.033 542.97c44.922 0 82.032 -39.062 82.032 -83.984s-37.11 -83.985 -82.032 -83.985S250.001 455.077 250.001 500s39.062 83.984 83.984 83.984zm158.204 -62.5l44.922 37.11c3.906 3.906 7.812 7.812 3.906 11.718l-41.016 72.266c-3.906 3.906 -7.812 3.906 -11.718 3.906L433.595 625c-11.719 7.813 -25.39 17.578 -37.11 21.484l-9.765 52.735c-3.907 3.906 -7.813 9.766 -11.719 9.766h-83.985c-3.906 0 -11.718 -5.86 -7.812 -9.766l-7.813 -52.735C263.673 642.577 250.001 632.812 238.281 625l-58.593 17.578c-3.906 3.906 -9.766 -1.953 -13.672 -5.86L125 566.406c0 -3.906 0 -7.812 3.907 -15.625l46.875 -33.203v-42.969l-46.875 -33.203C125 437.499 121.094 433.592 125 429.686l41.016 -72.266c3.906 -3.906 9.766 -3.906 13.672 -3.906l52.734 21.484c11.72 -7.812 27.344 -17.578 39.063 -21.484l7.813 -52.735c3.906 -3.906 7.812 -9.765 11.718 -9.765h83.985c7.812 0 11.719 5.86 11.719 9.765l9.765 52.735c11.72 3.906 25.391 13.672 37.11 21.484l54.688 -17.578c3.906 -3.906 7.812 1.953 11.718 5.86l41.016 70.312c0 3.907 0 7.813 -3.906 11.72l-44.922 33.202v42.97z"/></svg>