<svg height="1000" width="1000" xmlns="http://www.w3.org/2000/svg"><path d="M791.018 41.013c44.922 0 83.984 39.063 83.984 83.985V875c0 44.922 -39.062 83.984 -83.984 83.984H375c-44.922 0 -83.985 -39.062 -83.985 -83.984V750h83.985v83.984h416.017v-667.97H375v83.984h-83.985v-125c0 -44.922 39.063 -83.985 83.985 -83.985h416.017zM541.017 341.795L375.001 507.811l166.016 167.97 -41.016 41.015L333.985 550.78 166.016 716.796 125 675.78 291.016 507.811 125 341.795l41.016 -41.016 167.97 166.017L500 300.779z"/></svg>