<svg height="1000" width="1000" xmlns="http://www.w3.org/2000/svg"><path d="M291.016 124.998v83.984h-82.031v-83.984h82.031zm167.97 0v83.984H375v-83.984h83.985zM125 458.983v82.031H41.016v-82.031H125zm0 -333.985v83.984H41.016c0 -41.015 42.969 -83.984 83.984 -83.984zm666.018 666.017V875h-82.032v-83.985h82.032zm0 -666.017v83.984h-82.032v-83.984h82.032zM625.002 791.015V875h-83.985v-83.985h83.985zM125 291.014v83.984H41.016v-83.984H125zM125 875C80.078 875 41.016 835.937 41.016 791.015V625h417.97v250H125zM875.002 124.998c41.016 0 83.985 42.969 83.985 83.984h-83.985v-83.984zm83.985 166.016v83.984h-83.985v-83.984h83.985zM625.002 124.998v83.984h-83.985v-83.984h83.985zm333.985 666.017c0 41.016 -42.969 83.985 -83.985 83.985v-83.985h83.985zm0 -332.032v82.031h-83.985v-82.031h83.985zm0 166.016v83.985h-83.985v-83.985h83.985z"/></svg>