<svg height="1000" width="1000" xmlns="http://www.w3.org/2000/svg"><path d="M125 791.015h416.017L408.204 613.28 304.688 748.046l-76.172 -89.844zM41.016 458.983h583.986V875H125C80.078 875 41.016 835.937 41.016 791.015V458.983zM208.985 124.998h82.031v83.984h-82.031v-83.984zm166.016 0h83.985v83.984H375v-83.984zm-250 0v83.984H41.015c0 -41.015 42.969 -83.984 83.984 -83.984zm583.985 666.017h82.032V875h-82.032v-83.985zm0 -666.017h82.032v83.984h-82.032v-83.984zM41.016 291.014H125v83.984H41.016v-83.984zM875.002 124.998c41.016 0 83.985 42.969 83.985 83.984h-83.985v-83.984zm0 166.016h83.985v83.984h-83.985v-83.984zM541.017 124.998h83.985v83.984h-83.985v-83.984zm417.97 666.017c0 41.016 -42.969 83.985 -83.985 83.985v-83.985h83.985zM875.002 458.983h83.985v82.031h-83.985v-82.031zm0 166.016h83.985v83.985h-83.985v-83.985z"/></svg>