<svg height="1000" width="1000" xmlns="http://www.w3.org/2000/svg"><path d="M552.736 447.264L666.017 500l-113.281 52.734L500 666.015 447.267 552.733 333.985 500l113.282 -52.735L500 333.983zm156.25 -31.25l-39.062 -85.938 -85.938 -39.062 85.938 -39.063 39.062 -85.938 39.063 85.938 85.938 39.063 -85.938 39.062zm83.985 0h82.031v375.001c0 44.922 -37.11 83.985 -82.031 83.985H208.985C164.063 875 125 835.937 125 791.015V208.982c0 -44.922 39.063 -83.984 83.985 -83.984h375v83.984h-375v582.033H792.97v-375z"/></svg>