<svg height="1000" width="1000" xmlns="http://www.w3.org/2000/svg"><path d="M583.986 478.514v-125h41.016v125h-41.016zM166.016 249.998v583.986h583.986v82.031H166.016c-44.922 0 -82.031 -37.11 -82.031 -82.031V249.998h82.031zm208.985 146.485v-42.969h41.016v42.969H375zm478.517 -42.969v-62.5h-125v250h62.5v-82.031h62.5v-62.5h-62.5v-42.969h62.5zm-166.016 125v-125c0 -35.156 -27.344 -62.5 -62.5 -62.5H521.486v250h103.516c35.156 0 62.5 -27.343 62.5 -62.5zM478.517 396.483v-42.969c0 -35.156 -27.344 -62.5 -62.5 -62.5H312.5v250H375v-82.031h41.016c35.156 0 62.5 -27.344 62.5 -62.5zM833.987 83.982c44.922 0 82.031 37.11 82.031 82.031v500.002c0 44.922 -37.11 83.984 -82.031 83.984H333.985c-44.922 0 -83.984 -39.062 -83.984 -83.984V166.013c0 -44.922 39.062 -82.031 83.984 -82.031h500.002z"/></svg>