<svg height="1000" width="1000" xmlns="http://www.w3.org/2000/svg"><path d="M583.986 228.514c0 -56.641 46.875 -103.516 103.516 -103.516s103.516 46.875 103.516 103.516S744.143 333.983 687.502 333.983 583.986 285.154 583.986 228.513zM361.329 499.999c-23.438 0 -33.203 -5.86 -48.828 -15.625 -7.813 -5.86 -17.578 -9.766 -31.25 -15.625L416.017 333.983 375 291.013c-46.875 -46.874 -89.844 -62.5 -166.016 -62.5V124.999c103.516 0 164.063 19.531 228.516 83.984L705.08 474.608c-5.86 3.906 -11.719 7.813 -17.578 9.766 -15.625 9.765 -25.39 15.625 -48.828 15.625s-31.25 -5.86 -46.876 -15.625c-19.53 -11.72 -44.922 -25.391 -91.797 -25.391s-72.266 13.672 -91.797 25.39C392.58 494.14 384.767 500 361.33 500zm554.689 187.5c-46.875 0 -70.313 -15.625 -89.844 -27.344 -15.625 -9.765 -25.39 -13.672 -48.828 -13.672s-31.25 3.907 -46.875 13.672c-19.532 11.72 -44.922 27.344 -91.797 27.344S568.36 671.874 548.83 660.155C533.204 650.39 523.439 646.483 500 646.483s-31.25 3.907 -46.875 13.672C433.595 671.875 408.204 687.5 361.33 687.5s-70.313 -15.625 -89.844 -27.344c-15.625 -9.765 -25.39 -13.672 -48.828 -13.672s-31.25 3.907 -46.875 13.672C156.25 671.875 130.86 687.5 83.985 687.5v-83.984c23.437 0 31.25 -3.907 46.875 -13.672 19.531 -11.72 44.922 -27.344 91.797 -27.344s70.312 15.625 89.844 27.344c15.625 9.765 25.39 13.672 48.828 13.672s31.25 -3.907 46.875 -13.672c19.531 -11.72 44.922 -27.344 91.797 -27.344s70.313 15.625 89.844 27.344c15.625 9.765 25.39 13.672 48.829 13.672s31.25 -3.907 46.875 -13.672c19.53 -11.72 44.922 -27.344 91.797 -27.344s70.312 15.625 89.844 27.344c15.625 9.765 25.39 13.672 48.828 13.672v83.984zm0 187.5c-46.875 0 -70.313 -15.624 -89.844 -27.343 -15.625 -9.766 -25.39 -13.672 -48.828 -13.672s-31.25 3.906 -46.875 13.672C710.939 859.375 685.549 875 638.674 875S568.36 859.375 548.83 847.656C533.204 837.89 523.439 833.984 500 833.984s-31.25 3.906 -46.875 13.672C433.595 859.375 408.204 875 361.33 875s-72.266 -15.625 -91.797 -27.344c-15.625 -9.766 -23.438 -13.672 -46.875 -13.672s-33.203 3.906 -48.828 13.672C154.297 859.375 130.859 875 83.985 875v-83.985c23.437 0 31.25 -3.906 46.875 -13.672C150.39 765.624 175.782 750 222.657 750s70.312 15.625 89.844 27.344c15.625 9.766 25.39 13.672 48.828 13.672s31.25 -3.906 46.875 -13.672C427.735 765.624 453.126 750 500.001 750s72.266 15.625 91.797 27.344c15.625 9.766 23.438 13.672 46.876 13.672s33.203 -3.906 48.828 -13.672C707.033 765.624 730.47 750 777.346 750s72.266 15.625 91.797 27.344c15.625 9.766 23.437 13.672 46.875 13.672V875z"/></svg>