<svg height="1000" width="1000" xmlns="http://www.w3.org/2000/svg"><path d="M136.72 103.513l41.015 42.97L875.002 843.75l-52.734 52.734L509.767 582.03h-1.953L500 583.983c-44.922 0 -83.984 -39.062 -83.984 -83.984l1.953 -7.813L351.563 425.78c-11.718 23.437 -17.578 46.875 -17.578 74.219 0 62.5 33.203 115.234 82.032 144.531L375 716.796c-74.219 -42.969 -125 -125 -125 -216.797 0 -50.782 13.672 -95.704 39.062 -134.766L230.47 304.686c-39.062 54.687 -64.453 121.094 -64.453 195.313 0 123.047 66.406 230.47 166.016 289.063l-41.016 72.266C166.016 789.062 83.985 654.296 83.985 499.998c0 -95.703 31.25 -185.547 85.937 -255.86l-85.937 -87.89zM500 166.013c-56.64 0 -109.375 13.672 -156.25 39.063L283.204 144.53C345.704 105.466 419.923 83.982 500 83.982c230.47 0 416.017 185.547 416.017 416.017 0 80.078 -21.484 154.297 -60.547 216.797l-62.5 -60.547C818.36 609.374 833.987 556.64 833.987 500 833.987 316.404 683.595 166.013 500 166.013zM732.424 593.75l-68.36 -68.36c1.953 -7.812 1.953 -17.578 1.953 -25.39 0 -91.797 -74.219 -166.016 -166.016 -166.016 -7.812 0 -17.578 0 -25.39 1.953l-68.36 -68.36c29.297 -11.719 60.547 -17.578 93.75 -17.578 138.673 0 250 111.328 250 250 0 33.204 -5.858 64.454 -17.577 93.751z"/></svg>