<svg height="1000" width="1000" xmlns="http://www.w3.org/2000/svg"><path d="M791.018 791.015V208.982H208.985v582.033h582.033zm0 -666.017c44.922 0 83.984 39.062 83.984 83.984v582.033c0 44.922 -39.062 83.985 -83.984 83.985H208.985C164.063 875 125 835.937 125 791.015V208.982c0 -44.922 39.063 -83.984 83.985 -83.984h582.033zM687.502 677.734v31.25H312.5v-31.25c0 -62.5 125 -93.75 187.5 -93.75s187.5 31.25 187.5 93.75zm-187.5 -167.97c-50.782 0 -93.751 -42.968 -93.751 -93.75s42.969 -93.75 93.75 -93.75 93.75 42.969 93.75 93.75 -42.968 93.75 -93.75 93.75z"/></svg>