<svg height="1000" width="1000" xmlns="http://www.w3.org/2000/svg"><path d="M746.096 724.609c54.687 -58.594 87.89 -138.673 87.89 -224.61 0 -138.673 -85.937 -259.767 -208.984 -308.595v17.578c0 44.922 -39.063 82.032 -83.985 82.032h-82.031v83.984c0 23.438 -19.532 41.016 -42.97 41.016h-82.03V500h250c23.437 0 41.016 17.578 41.016 41.015v125h41.015c37.11 0 68.36 25.391 80.079 58.595zm-287.11 105.469v-80.079C414.064 750 375 710.937 375 666.015v-41.016l-199.22 -199.22c-5.859 23.438 -9.765 48.829 -9.765 74.22 0 169.922 128.907 310.547 292.97 330.079zM500 83.982c230.47 0 416.017 185.547 416.017 416.017S730.471 916.015 500.001 916.015 83.985 730.468 83.985 500 269.532 83.982 500 83.982z"/></svg>