<svg height="1000" width="1000" xmlns="http://www.w3.org/2000/svg"><path d="M791.018 458.983v-83.985H625.002V208.982h-83.985v166.016H375.001v83.985h166.016v166.016h83.985V458.983h166.016zM833.987 83.982c44.921 0 82.031 37.11 82.031 82.031v500.002c0 44.922 -37.11 83.984 -82.031 83.984H333.985c-44.922 0 -83.984 -39.062 -83.984 -83.984V166.013c0 -44.922 39.062 -82.031 83.984 -82.031h500.002zm-667.97 166.016l-.001 583.986h583.986v82.031H166.016c-44.922 0 -82.031 -37.11 -82.031 -82.031V249.998h82.031z"/></svg>