<svg height="1000" width="1000" xmlns="http://www.w3.org/2000/svg"><path d="M833.987 499.999V333.983h-667.97v166.016h500v-83.985h83.985V500h83.985zm-542.97 333.985c68.359 0 125 -56.64 125 -125s-56.641 -125 -125 -125 -125 56.64 -125 125 56.64 125 125 125zM134.765 255.857L662.111 41.013l27.344 70.313L345.704 249.998h488.283c46.875 0 82.031 37.11 82.031 83.985v500.001c0 44.922 -35.156 82.031 -82.031 82.031h-667.97c-46.876 0 -82.032 -37.11 -82.032 -82.031V333.983c0 -35.157 19.53 -66.407 50.781 -78.126z"/></svg>