<svg height="1000" width="1000" xmlns="http://www.w3.org/2000/svg"><path d="M521.486 708.984v-31.25c0 -62.5 -125 -93.75 -187.5 -93.75s-187.501 31.25 -187.501 93.75v31.25h375zm-187.5 -386.72c-50.782 0 -93.751 42.969 -93.751 93.75s42.969 93.75 93.75 93.75 93.75 -42.968 93.75 -93.75 -42.968 -93.75 -93.75 -93.75zm250 -113.282c23.437 0 41.016 17.579 41.016 41.016V750c0 23.438 -17.579 41.016 -41.016 41.016H83.985c-23.438 0 -42.97 -17.578 -42.97 -41.016V250c0 -23.438 19.532 -41.017 42.97 -41.017h500zm125 582.033V208.982h82.032v582.033h-82.032zM875.002 208.982h83.985v582.033h-83.985V208.982z"/></svg>