<svg height="1000" width="1000" xmlns="http://www.w3.org/2000/svg"><path d="M835.94 83.982c162.11 167.97 162.11 419.923 0 582.033l-68.36 -66.407c115.235 -132.812 115.235 -324.22 0 -449.22zM699.22 222.654c83.985 91.797 83.985 218.75 0 302.735l-70.312 -70.312c35.156 -48.829 35.156 -113.282 0 -162.11zM375.002 625c111.328 0 333.985 54.688 333.985 166.016V875H41.016v-83.985C41.016 679.687 263.673 625 375 625zm-166.016 -250C208.985 283.2 283.204 208.981 375 208.981s166.016 74.22 166.016 166.016S466.798 541.014 375.001 541.014 208.985 466.796 208.985 374.998z"/></svg>