<svg height="1000" width="1000" xmlns="http://www.w3.org/2000/svg"><path d="M291.016 750c44.922 0 83.985 39.062 83.985 83.984s-39.063 82.031 -83.985 82.031 -82.031 -37.11 -82.031 -82.031 37.11 -83.985 82.031 -83.985zM648.44 541.013l-375 -375h560.548c23.437 0 41.015 19.53 41.015 42.968 0 7.813 -1.953 13.672 -5.86 19.532L720.706 498.046c-13.672 25.39 -41.016 42.968 -72.266 42.968zM308.595 625h210.938l-83.985 -83.985h-97.657l-37.109 68.36 -1.953 5.86c0 5.859 3.906 9.765 9.766 9.765zm638.673 322.266L894.534 1000 775.393 880.86c-15.625 21.483 -39.063 35.155 -66.407 35.155 -44.922 0 -83.984 -37.11 -83.984 -82.031 0 -27.344 13.672 -52.735 35.156 -68.36l-58.594 -56.64H291.016c-44.922 0 -82.031 -39.063 -82.031 -83.985 0 -13.672 3.906 -27.344 9.766 -39.063l56.64 -103.515L183.594 289.06 0 105.466 52.735 52.732z"/></svg>