<svg height="1000" width="1000" xmlns="http://www.w3.org/2000/svg"><path d="M550.783 632.812c0 6.377 12.354 13.671 19.531 13.671 3.906 0 9.766 0 13.672 -3.906l7.812 -9.765s3.907 -7.813 3.907 -11.72v-83.984s-3.907 -7.812 -3.907 -11.719c0 -5.376 -16.038 -13.672 -21.484 -13.672 -3.906 0 -7.813 1.954 -11.719 5.86l-7.812 7.812s-5.86 7.813 -5.86 11.72v83.984s5.86 7.812 5.86 11.719zm82.031 -41.016c0 11.719 0 25.39 -3.906 33.203l-11.719 25.39s-13.672 11.72 -21.484 11.72 -17.579 3.906 -25.391 3.906 -17.578 0 -25.39 -3.906 -11.72 -7.813 -19.532 -11.72c-13.172 -6.585 -17.578 -38.566 -17.578 -58.593v-29.297c0 -11.719 0 -25.39 3.906 -33.203l13.672 -25.391s11.719 -11.719 19.531 -11.719 17.578 -3.906 25.391 -3.906 17.578 0 25.39 3.906 13.673 7.813 21.485 11.719 7.813 13.672 11.719 25.39 3.906 21.485 3.906 33.204v29.297zM455.08 666.015h-39.062v-136.72L375 541.016v-29.297L449.22 488.28h5.86v177.735zm44.922 -457.033c183.595 0 333.986 148.438 333.986 332.032S683.595 875 500 875 166.016 724.609 166.016 541.014h83.985c0 136.72 113.281 250.001 250 250.001s250 -113.281 250 -250 -113.28 -250.001 -250 -250.001v167.969L291.016 249.998 500.001 41.013v167.97z"/></svg>