<svg height="1000" width="1000" xmlns="http://www.w3.org/2000/svg"><path d="M492.189 566.405c-3.5 1.4 -13.672 4.692 -13.672 7.813 0 3.906 -3.906 5.86 -3.906 5.86h-29.297l9.765 -91.798h99.61v29.297h-72.266l-3.906 37.11s3.906 0 3.906 -3.907 5.86 -1.953 5.86 -5.86 3.906 0 7.812 0h7.813c7.812 0 17.578 1.954 21.484 5.86s11.719 7.813 15.625 11.719c8.665 8.665 17.578 26.618 17.578 44.922 0 7.812 0 17.578 -3.906 21.484s-5.86 13.672 -13.672 21.485 -11.719 7.812 -15.625 11.719 -17.578 3.906 -25.39 3.906 -17.579 0 -21.485 -3.906 -11.719 -3.907 -19.531 -7.813c-10.93 -5.464 -17.579 -22.025 -17.579 -37.11h33.204c0 14.462 10.342 19.532 25.39 19.532 3.907 0 7.813 0 11.72 -3.906l9.765 -7.813s3.906 -7.812 3.906 -11.719v-25.39l-3.906 -7.813 -9.766 -9.766s-7.812 -3.906 -11.719 -3.906h-7.812zM500 208.982c183.595 0 333.986 148.438 333.986 332.032S683.595 875 500 875 166.016 724.609 166.016 541.014h83.985c0 136.72 113.281 250.001 250 250.001s250 -113.281 250 -250 -113.28 -250.001 -250 -250.001v167.969L291.016 249.998 500.001 41.013v167.97z"/></svg>