<svg height="1000" width="1000" xmlns="http://www.w3.org/2000/svg"><path d="M500.001 750c115.235 0 208.985 -93.75 208.985 -208.986S615.236 333.983 500.001 333.983c-74.219 0 -138.672 39.062 -175.781 95.703l-52.735 -54.688v166.016h166.016l-66.406 -66.406C394.532 427.733 443.36 396.483 500 396.483c80.079 0 146.485 64.453 146.485 144.531S580.08 687.5 500.001 687.5c-48.828 0 -93.75 -25.39 -119.14 -62.5h-72.266c31.25 74.219 105.469 125 191.406 125zM583.986 83.981l250 250v500.002c0 44.922 -39.062 82.031 -83.984 82.031H250c-44.922 0 -83.985 -37.11 -83.985 -82.031l1.953 -667.97c0 -44.922 37.11 -82.032 82.032 -82.032h333.985z"/></svg>