<svg height="1000" width="1000" xmlns="http://www.w3.org/2000/svg"><path d="M267.579 408.202S123.047 263.67 119.14 261.717l58.594 -60.547 148.438 148.438zM541.017 83.982v207.032h-82.031V83.982h82.031zm339.845 177.735c-3.907 1.953 -148.438 146.485 -148.438 146.485L673.83 349.608 822.268 201.17zm107.422 433.595c7.812 7.812 11.719 17.578 11.719 29.297s-3.907 21.484 -11.72 29.297L884.769 857.422c-7.813 7.812 -17.578 11.718 -29.297 11.718s-21.484 -3.906 -29.297 -11.718c-33.203 -31.25 -70.313 -58.594 -111.328 -78.126 -13.672 -5.86 -23.438 -21.484 -23.438 -37.11V613.28c-60.547 -19.531 -125 -29.297 -191.407 -29.297s-130.86 9.766 -191.406 29.297v128.907c0 17.578 -9.766 33.203 -23.438 39.062 -41.016 19.532 -78.125 44.922 -111.328 76.173 -7.813 7.812 -17.579 11.718 -29.297 11.718s-21.485 -3.906 -29.297 -11.718L11.719 753.906C3.906 746.093 0 736.327 0 724.609s3.906 -21.485 11.719 -29.297C138.672 574.218 310.548 499.999 500 499.999s361.33 74.219 488.283 195.313z"/></svg>