<svg height="1000" width="1000" xmlns="http://www.w3.org/2000/svg"><path d="M703.127 644.53c23.437 -31.25 37.11 -66.406 42.969 -103.516h83.984c-7.812 58.594 -29.297 113.282 -66.406 162.11zm-162.11 101.563c37.11 -5.86 72.266 -19.531 103.516 -42.969l60.547 60.547c-48.828 37.11 -105.47 58.594 -164.063 66.407v-83.985zM830.08 458.983h-83.984c-5.86 -37.11 -19.532 -72.266 -42.97 -103.516l60.548 -58.594c37.11 48.828 58.594 103.516 66.406 162.11zM648.44 230.467L458.985 416.014v-162.11C339.845 273.436 250 376.952 250 500s89.844 226.563 208.985 246.094v83.985C294.923 810.546 166.016 669.92 166.016 499.998S294.923 189.452 458.986 169.92V41.013z"/></svg>