<svg height="1000" width="1000" xmlns="http://www.w3.org/2000/svg"><path d="M806.643 277.342c146.484 146.485 146.484 382.813 0 529.298C734.377 880.86 636.72 916.015 541.017 916.015c-62.5 0 -123.047 -15.625 -179.688 -46.875l62.5 -60.547c37.11 17.578 76.172 25.391 117.188 25.391 74.219 0 150.391 -29.297 207.032 -85.938 113.281 -113.281 113.281 -298.829 0 -412.11C691.408 279.295 615.236 249.998 541.017 249.998v134.766L365.235 208.982 541.017 31.248v134.765c95.703 0 193.36 37.11 265.626 111.329zM154.297 537.108l152.344 152.344L458.986 537.108 306.64 384.764zM306.641 267.576l269.532 269.532L306.641 806.64 35.156 537.108z"/></svg>