<svg height="1000" width="1000" xmlns="http://www.w3.org/2000/svg"><path d="M541.017 169.92c164.063 19.531 292.97 160.156 292.97 330.079S705.08 810.546 541.017 830.078v-83.985C660.157 726.562 750.002 623.046 750.002 500S660.158 273.436 541.017 253.904v162.11L351.563 230.467 541.017 41.013V169.92zM294.923 763.67l60.547 -60.547c31.25 23.438 66.406 37.11 103.516 42.97v83.984C400.392 822.265 343.75 800.78 294.923 763.67zM253.907 541.014c5.86 37.11 19.531 72.266 41.016 103.516l-58.594 58.594c-37.11 -48.828 -58.594 -103.516 -66.407 -162.11h83.985zm42.969 -185.547c-21.485 31.25 -37.11 66.407 -42.97 103.516h-83.984c7.813 -58.594 31.25 -113.282 68.36 -162.11z"/></svg>