<svg height="1000" width="1000" xmlns="http://www.w3.org/2000/svg"><path d="M875.002 333.983v207.031h-83.984V333.983c0 -68.36 -56.641 -125 -125 -125H458.985v-83.985h207.031c115.235 0 208.985 93.75 208.985 208.985zM125 875v-83.985h83.985V875H125zm166.016 0v-83.985h83.985V875h-83.985zm167.97 0v-83.985h82.031V875h-82.031zM291.016 208.982v-83.984h83.985v83.984h-83.985zm-166.016 0v-83.984h83.985v83.984H125zm0 166.016v-83.984h83.985v83.984H125zm0 333.986v-83.985h83.985v83.985H125zm0 -167.97v-82.031h83.985v82.031H125zm666.018 167.97v-83.985h83.984v83.985h-83.984zm0 82.031h83.984V875h-83.984v-83.985z"/></svg>