<svg height="1000" width="1000" xmlns="http://www.w3.org/2000/svg"><path d="M625.002 750v-83.985h-83.985v83.984h83.985zm-146.485 0v-83.985h-82.032v83.984h82.032zm-144.532 0v-83.985h-83.984v83.984h83.984zM791.018 541.013c44.922 0 83.984 39.063 83.984 83.985v166.016c0 44.922 -39.062 83.985 -83.984 83.985H208.985C164.063 875 125 835.937 125 791.015V625c0 -44.922 39.063 -83.985 83.985 -83.985h416.017V374.998h83.984v166.016h82.032zM804.69 279.295l-33.204 33.203C742.19 283.201 703.126 271.483 666.017 271.483S591.798 283.2 562.501 312.498l-33.203 -33.203c37.11 -37.11 85.938 -58.594 136.72 -58.594s101.562 21.485 138.672 58.594zm37.109 -33.203C791.018 201.17 728.517 175.779 666.017 175.779S542.97 201.17 492.19 246.092l-33.203 -33.203c58.593 -58.594 132.812 -87.891 207.031 -87.891s150.391 29.297 208.985 87.89z"/></svg>