<svg height="1000" width="1000" xmlns="http://www.w3.org/2000/svg"><path d="M875.002 875l-125 125 -125 -125v-62.5L330.079 517.577c-13.672 1.953 -27.344 1.953 -39.063 1.953v-89.844c68.36 1.953 150.391 -35.156 195.313 -83.985l58.594 -64.453c14.857 -14.857 39.363 -31.25 68.36 -31.25h1.953c50.781 0 93.75 42.969 93.75 93.75v240.235c0 35.157 -15.625 66.407 -39.062 89.844L521.486 525.39v-95.703c-25.391 21.484 -60.547 42.969 -95.704 58.594L687.502 750h62.5zm-250 -833.987c44.922 0 83.984 39.063 83.984 83.985s-39.062 83.984 -83.984 83.984S541.017 169.92 541.017 124.998 580.08 41.013 625.002 41.013zM353.517 603.515l105.469 105.469H375L228.516 853.515l-62.5 -62.5z"/></svg>