<svg height="1000" width="1000" xmlns="http://www.w3.org/2000/svg"><path d="M708.986 83.982l125 125 -125 125v-83.984H375.001v-83.985h333.985V83.982zm41.016 500.001v-125H583.986v125h166.016zM458.986 833.984c23.437 0 41.015 -19.531 41.015 -42.969S482.423 750 458.986 750s-42.97 17.579 -42.97 41.016 19.532 42.969 42.97 42.969zm375 -125h82.032v82.031H583.986c0 68.36 -56.64 125 -125 125s-125 -56.64 -125 -125H250c-44.922 0 -83.985 -37.11 -83.985 -82.031v-125h292.97V458.982h-167.97v82.031l-125 -125 125 -125v83.984h458.986c44.922 0 83.985 39.063 83.985 83.985v250z"/></svg>