<svg height="1000" width="1000" xmlns="http://www.w3.org/2000/svg"><path d="M208.985 750h582.033l-187.5 -250.001 -144.532 187.5 -105.47 -125zm0 -250.001C371.095 499.999 500 369.139 500 207.029h-83.984c0 115.235 -91.797 208.985 -207.032 208.985V500zm0 -292.97v126.954c68.36 0 125 -58.594 125 -126.954h-125zm582.033 -82.031c44.922 0 83.984 39.062 83.984 83.984v582.033c0 44.922 -39.062 83.985 -83.984 83.985H208.985C164.063 875 125 835.937 125 791.015V208.982c0 -44.922 39.063 -83.984 83.985 -83.984h582.033z"/></svg>