<svg height="1000" width="1000" xmlns="http://www.w3.org/2000/svg"><path d="M708.986 791.015V208.982h-417.97v582.033h417.97zm0 -750.002c44.922 0 82.032 39.063 82.032 83.985V875c0 44.922 -37.11 83.984 -82.032 83.984h-417.97c-44.922 0 -82.031 -39.062 -82.031 -83.984V124.998c0 -44.922 37.11 -83.985 82.031 -83.985h417.97zM449.22 416.014v42.969h101.563v-42.969c0 -27.344 -23.438 -48.828 -50.782 -48.828S449.22 388.67 449.22 416.014zm-33.203 250C392.579 666.015 375 648.438 375 625v-125c0 -23.438 17.578 -41.016 41.016 -41.016v-42.969c0 -44.922 37.11 -82.031 83.984 -82.031 44.922 0 83.985 35.156 83.985 82.031v42.969c23.437 0 41.016 17.578 41.016 41.016v125c0 23.438 -17.579 41.016 -41.016 41.016h-167.97z"/></svg>