<svg height="1000" width="1000" xmlns="http://www.w3.org/2000/svg"><path d="M699.22 103.513v21.485H841.8v-21.485c0 -39.062 -31.25 -70.312 -70.313 -70.312s-72.265 31.25 -72.265 70.312zm-33.203 271.485c-23.437 0 -41.015 -17.578 -41.015 -41.015v-167.97c0 -23.437 17.578 -41.015 41.015 -41.015v-21.485c0 -56.64 48.829 -103.516 105.47 -103.516s103.515 46.876 103.515 103.516v21.485c23.438 0 41.016 17.578 41.016 41.015v167.97c0 23.437 -17.578 41.015 -41.016 41.015H666.017zm-312.5 478.517l54.687 -54.687L566.408 957.03l-27.344 1.953C277.344 958.984 62.5 755.86 41.016 500h62.5c15.625 156.25 113.281 289.063 250 353.516zM968.752 531.25c25.391 23.437 25.391 64.453 0 89.844L703.127 884.765c-23.438 25.391 -62.5 25.391 -87.891 0l-500.001 -500c-25.391 -23.439 -25.391 -62.501 0 -87.892L378.907 31.248c23.438 -25.391 64.454 -25.391 89.844 0L570.314 132.81l-58.594 58.594 -87.89 -85.938L187.5 339.842 660.158 812.5 894.534 576.17l-91.798 -91.796L861.33 425.78z"/></svg>