<svg height="1000" width="1000" xmlns="http://www.w3.org/2000/svg"><path d="M449.22 416.014v42.969h101.563v-42.969c0 -27.344 -23.438 -48.828 -50.782 -48.828S449.22 388.67 449.22 416.014zm-33.203 250C392.579 666.015 375 648.438 375 625v-125c0 -23.438 17.578 -41.016 41.016 -41.016v-42.969c0 -44.922 37.11 -82.031 83.984 -82.031 44.922 0 83.985 35.156 83.985 82.031v42.969c23.437 0 41.016 17.578 41.016 41.016v125c0 23.438 -17.579 41.016 -41.016 41.016h-167.97zm375 42.97v-417.97H208.986v417.97h582.033zm83.985 -500.002c44.922 0 83.985 37.11 83.985 82.032v417.97c0 44.922 -39.063 82.031 -83.985 82.031H125c-44.922 0 -83.984 -37.11 -83.984 -82.031v-417.97c0 -44.922 39.062 -82.032 83.984 -82.032h750.002z"/></svg>