<svg height="1000" width="1000" xmlns="http://www.w3.org/2000/svg"><path d="M312.5 894.531l56.642 -54.688 158.203 158.204L500.001 1000C238.281 1000 23.438 796.874 1.953 541.014h62.5c15.625 156.25 111.329 289.064 248.048 353.517zm304.69 -11.719L882.814 617.187 382.813 117.185 117.188 382.811zM425.781 72.263l501.955 501.955c25.39 23.437 25.39 62.5 0 87.89L662.11 927.735c-23.437 25.39 -62.5 25.39 -87.89 0L72.265 425.78c-25.39 -23.438 -25.39 -62.5 0 -87.891L337.89 72.263c23.438 -25.39 62.5 -25.39 87.891 0zm261.72 33.203l-56.641 54.688L472.657 1.951l27.344 -1.954c261.72 0 476.564 203.126 498.048 458.986h-62.5C919.924 302.733 824.221 169.92 687.502 105.466z"/></svg>