<svg height="1000" width="1000" xmlns="http://www.w3.org/2000/svg"><path d="M375.001 374.998V625h250v-250h-250zm-83.985 333.986v-417.97h417.97v417.97h-417.97zM625.002 208.982v-83.984h83.984v83.984h-83.984zm0 666.018v-83.985h83.984V875h-83.984zM791.018 708.984v-83.985h83.984v83.985h-83.984zm0 -333.986v-83.984h83.984v83.984h-83.984zm0 500.002v-83.985h83.984c0 44.922 -39.062 83.985 -83.984 83.985zm0 -333.986v-82.031h83.984v82.031h-83.984zM458.986 875v-83.985h82.031V875h-82.031zM375 124.998v83.984h-83.985v-83.984h83.985zm-250 583.986v-83.985h83.984v83.985H125zM208.984 875C164.063 875 125 835.937 125 791.015h83.985V875zM791.018 124.998c44.922 0 83.984 39.062 83.984 83.984h-83.984v-83.984zm-250.001 0v83.984h-82.031v-83.984h82.031zM125 374.998v-83.984h83.985v83.984H125zM291.016 875v-83.985h83.985V875h-83.985zM125 541.014v-82.031h83.985v82.031H125zm0 -332.032c0 -44.922 39.063 -83.984 83.985 -83.984v83.984H125z"/></svg>