<svg height="1000" width="1000" xmlns="http://www.w3.org/2000/svg"><path d="M500.001 728.515c-97.656 0 -179.688 -58.594 -212.89 -144.532h425.781C679.69 669.921 597.658 728.515 500.002 728.515zM369.141 414.06l-42.968 44.922L281.25 414.061l87.89 -87.89 89.845 87.89 -44.922 44.922zm171.876 0l89.844 -87.89 87.89 87.89 -44.921 44.922L630.86 414.061l-44.922 44.922zm-41.016 419.923c183.595 0 333.986 -150.391 333.986 -333.985S683.595 166.013 500 166.013 166.016 316.405 166.016 500s150.391 333.985 333.985 333.985zm0 -750.002c230.47 0 416.017 185.547 416.017 416.017S730.471 916.015 500.001 916.015 83.985 730.468 83.985 500 269.532 83.982 500 83.982z"/></svg>