<svg height="1000" width="1000" xmlns="http://www.w3.org/2000/svg"><path d="M500.001 583.983c97.657 0 179.688 58.594 212.891 144.532h-68.36c-29.296 -48.828 -82.03 -82.032 -144.53 -82.032S384.766 679.687 355.47 728.515h-68.36C320.313 642.577 402.345 583.983 500.001 583.983zm0 250.001c183.595 0 333.986 -150.391 333.986 -333.985S683.595 166.013 500 166.013 166.016 316.405 166.016 500s150.391 333.985 333.985 333.985zm0 -750.002c230.47 0 416.017 185.547 416.017 416.017S730.471 916.015 500.001 916.015 83.985 730.468 83.985 500 269.532 83.982 500 83.982zm-208.985 312.5c0 -35.156 27.344 -62.5 62.5 -62.5s62.5 27.344 62.5 62.5 -27.343 62.501 -62.5 62.501 -62.5 -27.344 -62.5 -62.5zm292.97 0c0 -35.156 27.344 -62.5 62.5 -62.5s62.5 27.344 62.5 62.5 -27.344 62.501 -62.5 62.501 -62.5 -27.344 -62.5 -62.5z"/></svg>