<svg height="1000" width="1000" xmlns="http://www.w3.org/2000/svg"><path d="M500.001 666.015c62.5 0 115.235 -33.203 144.532 -82.032h68.36C679.688 669.921 597.657 728.515 500 728.515S320.313 669.92 287.111 583.983h68.359C384.767 632.812 437.5 666.015 500 666.015zm0 167.969c183.595 0 333.986 -150.391 333.986 -333.985S683.595 166.013 500 166.013 166.016 316.405 166.016 500s150.391 333.985 333.985 333.985zm0 -750.002c230.47 0 416.017 185.547 416.017 416.017S730.471 916.015 500.001 916.015 83.985 730.468 83.985 500 269.532 83.982 500 83.982zm-208.985 312.5c0 -35.156 27.344 -62.5 62.5 -62.5s62.5 27.344 62.5 62.5 -27.343 62.501 -62.5 62.501 -62.5 -27.344 -62.5 -62.5zm292.97 0c0 -35.156 27.344 -62.5 62.5 -62.5s62.5 27.344 62.5 62.5 -27.344 62.501 -62.5 62.501 -62.5 -27.344 -62.5 -62.5z"/></svg>