<svg height="1000" width="1000" xmlns="http://www.w3.org/2000/svg"><path d="M500.001 583.983c97.657 0 179.688 58.594 212.891 144.532H287.11C320.313 642.577 402.345 583.983 500.001 583.983zM326.173 500L281.25 455.077l44.922 -42.97L281.25 367.187l44.922 -42.969 42.969 42.969 44.922 -42.969 44.922 42.969 -44.922 44.922 44.922 42.969 -44.922 44.922 -44.922 -44.922zM673.83 324.217l44.922 42.969 -44.922 44.922 44.922 42.969 -44.922 44.922L630.86 455.077l-44.922 44.922 -44.922 -44.922 44.922 -42.97 -44.922 -44.921 44.922 -42.969 44.922 42.969zM500 833.984c183.595 0 333.986 -150.391 333.986 -333.985S683.596 166.013 500 166.013 166.016 316.405 166.016 500s150.391 333.985 333.985 333.985zm0 -750.002c230.47 0 416.017 185.547 416.017 416.017S730.471 916.015 500.001 916.015 83.985 730.468 83.985 500 269.532 83.982 500 83.982z"/></svg>