<svg height="1000" width="1000" xmlns="http://www.w3.org/2000/svg"><path d="M708.986 666.015v-82.032h250v82.032c0 54.687 -35.156 99.61 -83.984 117.188v175.781h-83.984V783.203c-48.829 -17.579 -82.032 -62.5 -82.032 -117.188zM541.017 83.982v166.016h83.985v250H375v-250h83.985V83.982c0 -23.438 17.578 -42.969 41.015 -42.969s41.016 19.531 41.016 42.969zm333.985 166.016h83.985v250h-250v-250h82.03V83.982c0 -23.438 19.532 -42.969 42.97 -42.969s41.015 19.531 41.015 42.969v166.016zM41.016 666.015v-82.032h250v82.032c0 54.687 -33.203 99.61 -82.031 117.188v175.781H125V783.203C76.172 765.624 41.016 720.703 41.016 666.015zm333.985 0v-82.032h250v82.032c0 54.687 -35.156 99.61 -83.984 117.188v175.781h-82.031V783.203C410.157 765.624 375 720.703 375 666.015zM208.985 83.982v166.016h82.031v250h-250v-250H125V83.982c0 -23.438 17.578 -42.969 41.016 -42.969s42.969 19.531 42.969 42.969z"/></svg>