<svg height="1000" width="1000" xmlns="http://www.w3.org/2000/svg"><path d="M500.001 124.998c207.032 0 375.001 167.969 375.001 375S707.033 875 500.002 875c-85.938 0 -166.017 -29.297 -228.517 -78.126l58.594 -58.593c48.828 33.203 107.422 52.734 169.922 52.734 162.11 0 291.017 -128.906 291.017 -291.016S662.11 208.982 500 208.982 208.985 337.89 208.985 500h125L166.016 666.015 0 499.999h125C125 292.967 292.97 124.998 500.001 124.998zm83.985 375c0 44.923 -39.063 83.985 -83.985 83.985S416.017 544.921 416.017 500 455.079 416.014 500 416.014s83.985 39.063 83.985 83.985z"/></svg>