<svg height="1000" width="1000" xmlns="http://www.w3.org/2000/svg"><path d="M500.001 41.013c251.954 0 458.986 207.032 458.986 458.986h-83.985c0 -207.032 -167.969 -375.001 -375 -375.001S125 292.967 125 499.998H41.016C41.016 248.046 248.048 41.014 500 41.014zm41.016 554.69V732.42L683.595 875l-58.593 58.594 -125 -125L375 933.593 316.407 875 458.986 732.42V595.702c-37.11 -15.625 -62.5 -52.734 -62.5 -95.703 0 -56.641 46.875 -103.516 103.515 -103.516s103.516 46.875 103.516 103.516c0 42.969 -25.39 80.078 -62.5 95.703zm-41.016 -386.72c162.11 0 291.017 128.906 291.017 291.016h-82.032c0 -115.235 -93.75 -208.985 -208.985 -208.985s-208.985 93.75 -208.985 208.985h-82.031C208.985 337.889 337.89 208.982 500 208.982z"/></svg>