<svg height="1000" width="1000" xmlns="http://www.w3.org/2000/svg"><path d="M718.752 499.999c0 -9.766 0 -19.532 -1.953 -29.297l62.5 -46.875c5.86 -3.907 5.86 -13.672 1.953 -19.532L722.658 302.733c-3.906 -5.86 -11.719 -7.813 -17.578 -5.86l-72.266 29.297c-15.625 -11.719 -31.25 -21.484 -48.828 -29.297l-11.719 -76.172c-1.953 -5.86 -5.86 -11.719 -13.672 -11.719H441.407c-7.812 0 -11.718 3.907 -13.672 11.72l-11.718 78.124c-17.578 7.813 -33.204 15.625 -48.829 27.344l-72.265 -29.297c-5.86 -1.953 -13.672 1.953 -17.579 7.813l-58.593 99.61c-3.907 5.859 -3.907 15.624 1.953 19.53l62.5 46.876c-1.953 9.765 -1.953 19.531 -1.953 29.297s0 19.531 1.953 29.297l-62.5 46.875c-5.86 3.906 -5.86 13.672 -1.953 19.531l58.593 101.563c3.907 5.86 11.72 7.812 17.579 5.86l72.265 -29.298c15.625 11.72 31.25 21.485 48.829 29.297l11.718 76.172c1.954 5.86 5.86 11.72 13.672 11.72h117.188c7.813 0 11.719 -3.907 13.672 -11.72l11.719 -78.125c17.578 -7.812 33.203 -15.625 48.828 -27.344l72.266 29.297c5.86 1.953 13.672 -1.953 17.578 -7.812l58.594 -99.61c3.906 -5.86 3.906 -15.625 -1.953 -19.531l-62.5 -46.875c1.953 -9.766 1.953 -19.532 1.953 -29.297zm72.266 -375.001c46.875 0 83.984 39.062 83.984 83.984v582.033c0 44.922 -37.11 83.985 -83.984 83.985H208.985C162.11 875 125 835.937 125 791.015V208.982c0 -44.922 37.11 -83.984 83.985 -83.984h582.033zM500 416.014c44.922 0 83.985 39.063 83.985 83.985S544.923 583.983 500 583.983 416.017 544.921 416.017 500 455.079 416.014 500 416.014z"/></svg>