<svg height="1000" width="1000" xmlns="http://www.w3.org/2000/svg"><path d="M500.001 374.998V625c68.36 0 125 -56.64 125 -125s-56.64 -125 -125 -125zM333.985 666.015V562.499l-62.5 -62.5 62.5 -62.5V333.983h103.516l62.5 -62.5 62.5 62.5h103.516v103.516l62.5 62.5 -62.5 62.5v103.516H562.501l-62.5 62.5 -62.5 -62.5H333.985zm541.017 126.953V207.03H125v585.94h750.002zm0 -667.97c44.922 0 83.985 39.062 83.985 83.984v582.033c0 44.922 -39.063 83.985 -83.985 83.985H125C80.078 875 41.016 835.937 41.016 791.015V208.982c0 -44.922 39.062 -83.984 83.984 -83.984h750.002z"/></svg>