<svg height="1000" width="1000" xmlns="http://www.w3.org/2000/svg"><path d="M500.001 646.483c80.079 0 146.485 -66.406 146.485 -146.484S580.08 353.514 500.001 353.514 353.517 419.92 353.517 499.999 419.923 646.483 500 646.483zM810.55 541.014l87.89 68.36c7.813 5.86 9.766 17.578 3.907 27.344l-83.985 144.531c-5.859 9.766 -15.625 11.72 -25.39 7.813L689.455 748.046c-21.485 15.625 -44.922 31.25 -70.313 41.016l-15.625 109.375c-1.953 9.766 -9.765 17.578 -19.531 17.578h-167.97c-9.765 0 -17.577 -7.812 -19.53 -17.578L380.86 789.062c-25.39 -9.766 -48.828 -23.438 -70.312 -41.016l-103.516 41.016c-9.766 3.906 -19.532 1.953 -25.39 -7.813L97.655 636.718c-5.859 -9.766 -3.906 -21.485 3.907 -27.344l87.89 -68.36C187.5 527.343 187.5 513.671 187.5 500s0 -27.344 1.954 -41.016l-87.891 -68.36C93.75 384.764 91.797 373.045 97.656 363.28l83.985 -144.532c5.86 -9.766 15.625 -11.719 25.39 -7.813l103.517 41.016c21.484 -15.625 44.922 -31.25 70.312 -41.016L396.485 101.56c1.954 -9.765 9.766 -17.578 19.532 -17.578h167.969c9.766 0 17.578 7.813 19.531 17.578l15.625 109.375c25.39 9.766 48.828 23.438 70.313 41.016L792.97 210.935c9.765 -3.906 19.531 -1.953 25.39 7.813l83.985 144.532c5.86 9.765 3.906 21.484 -3.906 27.343l-87.891 68.36c1.953 13.672 1.953 27.344 1.953 41.016s0 27.344 -1.953 41.015z"/></svg>