<svg height="1000" width="1000" xmlns="http://www.w3.org/2000/svg"><path d="M500.001 -.003c126.954 0 242.188 50.782 324.22 134.766l-58.594 58.594C697.267 124.997 603.517 83.982 500.001 83.982S302.735 124.998 234.376 193.357l-58.594 -58.594C257.813 52.732 373.048 -.003 500.002 -.003zM292.97 251.951C345.704 199.217 419.923 166.013 500 166.013s154.298 33.204 207.032 85.938l-58.594 58.594c-37.11 -37.11 -91.797 -60.547 -148.438 -60.547s-111.328 23.438 -148.438 60.547zM500 625c44.922 0 83.985 -39.063 83.985 -83.985S544.923 458.983 500 458.983s-83.984 37.11 -83.984 82.031S455.079 625 500 625zm125 -250c23.438 0 41.016 17.578 41.016 41.015v500.001c0 23.438 -17.578 42.97 -41.015 42.97H375c-23.438 0 -41.016 -19.532 -41.016 -42.97v-500c0 -23.438 17.578 -41.017 41.016 -41.017h250z"/></svg>