<svg height="1000" width="1000" xmlns="http://www.w3.org/2000/svg"><path d="M646.486 624.999c35.156 0 62.5 27.344 62.5 62.5s-27.344 62.5 -62.5 62.5 -62.5 -27.343 -62.5 -62.5S611.33 625 646.486 625zm82.031 -208.985c35.157 0 62.5 27.344 62.5 62.5s-27.343 62.5 -62.5 62.5 -62.5 -27.343 -62.5 -62.5 27.344 -62.5 62.5 -62.5zM500.001 875c207.032 0 375.001 -167.97 375.001 -375.001s-167.969 -375.001 -375 -375.001S125 292.967 125 499.998 292.97 875 500.001 875zm0 -833.987c251.954 0 458.986 207.032 458.986 458.986S751.955 958.984 500 958.984 41.016 751.952 41.016 500 248.048 41.013 500 41.013zM353.517 625c35.156 0 62.5 27.344 62.5 62.5s-27.344 62.5 -62.5 62.5 -62.5 -27.343 -62.5 -62.5S318.36 625 353.516 625zM625.002 271.483c0 35.156 -27.344 62.5 -62.5 62.5h-125c-35.157 0 -62.501 -27.344 -62.501 -62.5s27.344 -62.5 62.5 -62.5h125c35.157 0 62.5 27.343 62.5 62.5zM333.985 478.514c0 35.157 -27.344 62.5 -62.5 62.5s-62.5 -27.343 -62.5 -62.5 27.344 -62.5 62.5 -62.5 62.5 27.344 62.5 62.5z"/></svg>