<svg height="1000" width="1000" xmlns="http://www.w3.org/2000/svg"><path d="M875.002 792.968V207.03H125v585.94h750.002zm0 -667.97c44.922 0 83.985 39.062 83.985 83.984v582.033c0 44.922 -39.063 83.985 -83.985 83.985H125C80.078 875 41.016 835.937 41.016 791.015V208.982c0 -44.922 39.062 -83.984 83.984 -83.984h750.002zM375.001 666.015c-68.36 0 -125 -56.641 -125 -125 0 -64.454 48.828 -117.188 111.328 -123.048h7.813c23.437 -48.828 72.265 -83.984 130.86 -83.984 74.218 0 134.765 54.687 144.53 125h1.954c56.64 0 103.516 46.875 103.516 103.516S703.127 666.015 646.486 666.015H375.001z"/></svg>