<svg height="1000" width="1000" xmlns="http://www.w3.org/2000/svg"><path d="M791.018 416.014c0 142.579 -113.282 261.72 -250.001 281.25v136.72h-82.031v-136.72C322.266 677.735 208.985 558.594 208.985 416.015h70.313c0 125 105.469 212.891 220.703 212.891s220.704 -87.89 220.704 -212.89h70.313zM625.002 1000v-83.985h83.984V1000h-83.984zm-166.016 0v-83.985h82.031V1000h-82.031zM500 541.014c-68.36 0 -125 -56.64 -125 -125v-250c0 -68.36 56.64 -125 125 -125s125 56.64 125 125v250c0 68.36 -56.64 125 -125 125zM291.016 1000v-83.985h83.985V1000h-83.985z"/></svg>