<svg height="1000" width="1000" xmlns="http://www.w3.org/2000/svg"><path d="M625.002 1000v-83.985h83.984V1000h-83.984zm64.453 -814.455c85.938 60.547 144.532 160.156 144.532 273.438 0 183.594 -150.391 332.032 -333.986 332.032S166.016 642.577 166.016 458.983c0 -113.282 58.594 -212.891 144.532 -273.438l58.594 58.594C296.876 289.06 250 369.139 250 458.983c0 138.672 111.328 250 250 250s250 -111.328 250 -250c0 -89.844 -48.827 -169.922 -121.093 -212.891zM541.017 83.982v416.017h-82.031V83.982h82.031zM458.986 1000v-83.985h82.031V1000h-82.031zm-167.97 0v-83.985h83.985V1000h-83.985z"/></svg>