<svg height="1000" width="1000" xmlns="http://www.w3.org/2000/svg"><path d="M750.002 669.921c66.406 0 121.094 54.688 121.094 121.094S816.408 914.062 750.002 914.062 628.908 857.422 628.908 791.015c0 -9.766 0 -19.531 1.953 -27.344L335.938 591.796c-23.437 21.484 -52.734 33.203 -85.937 33.203 -68.36 0 -125 -56.64 -125 -125s56.64 -125 125 -125c33.203 0 62.5 11.718 85.937 33.203l292.97 -169.923c-1.953 -9.765 -3.906 -19.531 -3.906 -29.297 0 -68.36 56.64 -125 125 -125s125 56.64 125 125 -56.64 125 -125 125c-33.203 0 -62.5 -13.671 -85.938 -35.156l-292.97 171.876c1.954 9.765 3.907 19.531 3.907 29.297s-1.953 19.531 -3.906 29.297L667.97 701.17c21.485 -19.531 50.782 -31.25 82.032 -31.25z"/></svg>