<svg height="1000" width="1000" xmlns="http://www.w3.org/2000/svg"><path d="M708.986 750c44.922 0 82.032 39.062 82.032 83.984s-37.11 82.031 -82.032 82.031 -83.984 -37.11 -83.984 -82.031 39.062 -83.985 83.984 -83.985zM41.016 83.981h136.719l39.062 82.031h617.19c23.437 0 41.015 19.532 41.015 42.97 0 7.812 -1.953 13.671 -5.86 19.53L720.706 498.047c-13.672 25.39 -41.016 42.968 -72.266 42.968H337.891l-37.109 68.36 -1.953 5.86c0 5.859 3.906 9.765 9.766 9.765h482.423v83.985H291.016c-44.922 0 -82.031 -39.063 -82.031 -83.985 0 -13.672 3.906 -27.344 9.766 -39.063l56.64 -103.515L125.001 166.013H41.015V83.982zm250 666.017c44.922 0 83.985 39.063 83.985 83.985s-39.063 82.031 -83.985 82.031 -82.031 -37.11 -82.031 -82.031 37.11 -83.985 82.031 -83.985z"/></svg>