<svg height="1000" width="1000" xmlns="http://www.w3.org/2000/svg"><path d="M500.001 708.984c44.922 0 83.985 -39.063 83.985 -83.985S544.923 541.014 500 541.014 416.017 580.077 416.017 625s39.062 83.985 83.984 83.985zm-125 -333.986h250l-125 -183.594zm341.798 0h199.219c23.438 0 42.969 17.579 42.969 41.016C925.173 550.821 887.009 681.277 851.565 814.453 841.799 849.609 810.549 875 771.486 875h-542.97c-39.062 0 -70.312 -25.391 -80.078 -60.547L42.968 427.733c-1.952 -3.906 -1.952 -7.813 -1.952 -11.719 0 -23.437 19.531 -41.016 42.969 -41.016h199.219L464.844 101.56c7.813 -11.719 21.485 -17.578 35.157 -17.578s27.344 5.86 35.157 17.578z"/></svg>