<svg height="1000" width="1000" xmlns="http://www.w3.org/2000/svg"><path d="M500.001 624.999L728.517 458.983l-228.516 -125v291.016zm0 -500.001v83.984h166.016v-83.984H500.001zm250 83.984h208.986v457.033c0 46.875 -37.11 83.984 -83.985 83.984H291.016c-46.875 0 -82.031 -37.11 -82.031 -83.984V208.982h207.032v-83.984c0 -46.875 37.11 -83.985 83.984 -83.985h166.016c46.875 0 83.985 37.11 83.985 83.985v83.984zm-625 166.016v458.986h666.017c0 46.875 -35.157 82.031 -82.032 82.031H125c-46.875 0 -83.984 -35.156 -83.984 -82.031V374.998H125z"/></svg>