<svg height="1000" width="1000" xmlns="http://www.w3.org/2000/svg"><path d="M646.486 603.515V712.89L500.001 896.484 17.578 291.014C35.156 279.295 220.704 124.998 500.001 124.998s464.845 154.297 482.423 166.016l-85.937 109.375c-11.72 -3.906 -25.391 -3.906 -42.97 -3.906 -117.187 0 -207.031 89.844 -207.031 207.032zm269.532 62.5v-62.5c0 -33.204 -29.297 -62.5 -62.5 -62.5s-62.5 29.296 -62.5 62.5v62.5h125zm42.969 0c21.484 0 41.016 21.484 41.016 42.969V875c0 21.484 -19.532 41.015 -41.016 41.015H750.002c-21.485 0 -41.016 -19.53 -41.016 -41.015V708.984c0 -21.485 19.531 -42.97 41.016 -42.97v-62.5C750.002 544.922 794.924 500 853.518 500s105.469 44.922 105.469 103.516v62.5z"/></svg>