<svg height="1000" width="1000" xmlns="http://www.w3.org/2000/svg"><path d="M708.986 624.999V458.983h-83.984v166.016h83.984zM541.017 541.014v-82.031h-82.031v82.031h82.031zm0 250.001V625h-82.031v166.016h82.031zM375.001 625V458.983h-83.985v166.016h83.985zm333.985 166.016v-82.031h-83.984v82.031h83.984zm-333.985 0v-82.031h-83.985v82.031h83.985zM832.033 166.013l1.954 667.97c0 44.923 -39.063 82.032 -83.985 82.032H250c-44.922 0 -83.985 -37.11 -83.985 -82.031V333.983l250 -250.001h333.986c44.922 0 82.031 37.11 82.031 82.031z"/></svg>