<svg height="1000" width="1000" xmlns="http://www.w3.org/2000/svg"><path d="M916.018 499.999c0 214.844 -164.063 392.579 -373.048 414.063v-83.984c164.063 -21.485 291.017 -162.11 291.017 -330.08S707.033 191.405 542.97 169.92V85.935C751.955 107.42 916.018 285.155 916.018 500zm-679.69 322.266l58.595 -58.594c46.875 35.157 103.516 58.594 164.063 66.407v83.984C375 906.25 298.829 873.047 236.329 822.265zm-66.406 -281.25c7.813 60.546 31.25 117.187 66.407 162.11l-58.594 60.546C126.953 701.171 93.75 625 85.938 541.014h83.984zM236.33 294.92c-35.157 46.875 -58.594 103.516 -66.407 164.063H85.938c7.812 -83.985 41.015 -160.157 91.797 -222.657zm222.657 -125c-60.547 7.812 -117.188 31.25 -164.063 66.406l-58.594 -58.594C298.829 126.951 375 93.748 458.986 85.935v83.985zm83.984 238.282l123.047 91.797c-83.632 62.201 -166.951 124.715 -250 187.5z"/></svg>