<svg height="1000" width="1000" xmlns="http://www.w3.org/2000/svg"><path d="M667.97 425.78c78.126 0 144.532 54.687 144.532 130.86v68.359h-62.5v-54.688c0 -54.687 -39.063 -83.984 -82.032 -83.984h-64.453c-76.172 0 -138.672 -64.453 -138.672 -140.626S527.345 207.03 603.517 207.03v62.5c-42.969 0 -76.172 29.297 -76.172 72.266s33.203 83.985 76.172 83.985h64.453zM785.158 322.264c78.125 37.11 130.86 117.188 130.86 208.985v93.75h-62.5v-93.75c0 -93.75 -72.266 -167.97 -166.016 -167.97v-62.5c42.969 0 76.172 -35.156 76.172 -78.125S730.47 146.482 687.502 146.482v-62.5c76.172 0 138.672 62.5 138.672 138.672 0 39.063 -15.625 74.22 -41.016 99.61zm-35.156 343.75h62.5v125.001h-62.5v-125zm103.516 0h62.5v125.001h-62.5v-125zm-769.533 0h625.001v125.001H83.985v-125z"/></svg>