<svg height="1000" width="1000" xmlns="http://www.w3.org/2000/svg"><path d="M708.986 664.062L585.94 541.014h123.047v123.048zM603.517 363.28c-76.172 0 -138.672 -64.454 -138.672 -140.626S527.345 83.982 603.517 83.982v62.5c-42.969 0 -76.172 29.297 -76.172 72.266s33.203 83.985 76.172 83.985h64.453c78.126 0 144.532 56.64 144.532 130.86v66.406h-62.5v-52.735c0 -54.687 -39.063 -83.984 -82.032 -83.984h-64.453zM785.158 203.123c78.125 37.11 130.86 117.188 130.86 210.938v85.938h-62.5V414.06c0 -93.75 -72.266 -169.922 -166.016 -169.922v-62.5c42.969 0 76.172 -35.157 76.172 -78.126h62.5c0 39.063 -15.625 74.22 -41.016 99.61zm-35.156 337.891h62.5v125h-62.5v-125zm103.516 0h62.5v125h-62.5v-125zM83.985 249.998l50.781 -52.734L843.752 906.25l-52.734 52.734L500 666.014H83.985v-125H375z"/></svg>