<svg height="1000" width="1000" xmlns="http://www.w3.org/2000/svg"><path d="M375.001 458.983v-83.985h250v74.22l-150.39 175.781H625v83.985h-250v-76.172L525.392 458.983H375.001zm125 375c162.11 .001 291.017 -130.859 291.017 -292.969S662.11 249.998 500 249.998 208.985 378.905 208.985 541.014 337.89 833.984 500 833.984zm0 -667.97c207.032 0 375.001 167.97 375.001 375.001s-167.969 375.001 -375 375.001S125 748.046 125 541.015 292.97 166.012 500.001 166.012zm416.017 72.266l-52.735 64.454L671.877 140.623l52.734 -62.5zM328.126 140.623L136.719 300.779l-52.734 -62.5L275.39 78.123z"/></svg>