<svg height="1000" width="1000" xmlns="http://www.w3.org/2000/svg"><path d="M644.533 400.39C591.798 429.685 542.97 466.795 500 511.717 457.032 466.796 408.204 429.686 355.47 400.389 365.235 285.154 412.11 173.826 501.954 83.982c87.891 87.89 134.766 199.22 142.579 316.407zM83.985 416.013c185.88 0 335.442 105.905 416.016 228.516C580.66 521.79 730.19 416.014 916.018 416.014c0 220.704 -138.672 408.204 -333.985 478.517 -27.344 9.766 -52.735 15.625 -82.032 21.484 -29.297 -3.906 -56.64 -11.718 -82.031 -21.484C222.657 824.218 83.985 636.718 83.985 416.014z"/></svg>