<svg height="1000" width="1000" xmlns="http://www.w3.org/2000/svg"><path d="M250 208.982V875h416.017v83.984H250.001c-46.875 0 -83.985 -39.062 -83.985 -83.984V208.982h83.985zm228.517 312.501c0 -56.64 48.828 -105.469 105.469 -105.469s103.516 48.828 103.516 105.47S640.627 624.998 583.986 624.998 478.516 578.124 478.516 521.483zM583.986 687.5c91.797 0 166.016 -74.219 166.016 -166.016S675.783 353.514 583.986 353.514s-167.97 76.172 -167.97 167.97 76.173 166.015 167.97 166.015zm0 -562.501c-44.922 0 -83.985 37.11 -83.985 83.984s39.063 82.032 83.985 82.032 82.031 -35.157 82.031 -82.032 -37.11 -83.984 -82.031 -83.984zM757.814 41.013c41.016 0 76.173 35.157 76.173 76.172v599.611c0 41.016 -35.157 74.22 -76.173 74.22h-349.61c-41.016 0 -74.219 -33.204 -74.219 -74.22v-599.61c0 -41.016 33.203 -76.173 74.22 -76.173h349.61z"/></svg>