<svg height="1000" width="1000" xmlns="http://www.w3.org/2000/svg"><path d="M625.002 833.984V499.999H375v333.985h250zm-5.86 -416.017c25.39 0 46.875 21.485 46.875 46.875V869.14c0 25.391 -21.484 46.875 -46.875 46.875H380.86c-25.39 0 -46.875 -21.484 -46.875 -46.875V464.842c0 -25.39 21.485 -48.828 46.875 -48.828zM500.002 41.013c125 0 240.234 52.735 322.266 134.766l-58.594 58.594C695.314 166.013 603.517 124.998 500 124.998S304.688 166.013 236.33 234.373l-58.594 -58.594C259.766 93.748 375 41.013 500 41.013zM291.015 294.92c52.735 -52.734 126.954 -85.938 208.985 -85.938s156.25 33.204 208.985 85.938l-60.547 58.594c-37.11 -37.11 -89.844 -60.547 -148.438 -60.547s-111.328 23.438 -148.438 60.547z"/></svg>