<svg height="1000" width="1000" xmlns="http://www.w3.org/2000/svg"><path d="M291.016 624.999c39.063 -54.688 87.891 -85.938 152.345 -101.563L376.954 457.03c-48.828 46.875 -72.266 105.469 -85.938 167.969zM99.61 72.263l822.267 822.268 -52.734 52.734L755.86 833.984H0v-83.985h166.016c-46.875 0 -82.031 -37.11 -82.031 -82.031v-417.97c0 -25.39 9.765 -44.922 27.343 -60.547L46.875 124.998zm816.408 595.705c0 31.25 -17.578 58.594 -42.969 72.266L642.58 509.764l66.407 -62.5L541.017 292.967v87.89c-7.813 1.954 -13.672 1.954 -21.484 3.907L300.782 167.967h533.205c44.922 0 82.031 35.156 82.031 82.031v417.97zm-31.25 82.031h115.235v83.985h-33.204z"/></svg>