<svg height="1000" width="1000" xmlns="http://www.w3.org/2000/svg"><path d="M478.517 249.998c0 74.219 31.25 142.579 80.078 191.407L150.391 849.609c-15.625 -15.625 -25.39 -35.156 -25.39 -58.594V208.982c0 -44.922 39.062 -83.984 83.984 -83.984h300.782c-19.531 37.11 -31.25 80.078 -31.25 125zm62.5 0c0 -115.235 93.75 -208.985 208.985 -208.985s208.985 93.75 208.985 208.985 -93.75 208.985 -208.985 208.985S541.017 365.233 541.017 249.998zm-17.578 347.657c62.5 -46.875 142.578 -76.172 226.563 -76.172 42.969 0 85.938 7.813 125 21.485v248.047c0 44.922 -39.062 83.985 -83.984 83.985H500V646.483c0 -19.53 9.766 -37.109 23.438 -48.828z"/></svg>