<svg height="1000" width="1000" xmlns="http://www.w3.org/2000/svg"><path d="M390.626 546.874c0 74.456 47.177 105.469 121.094 105.469 51.087 0 95.703 -20.84 95.703 -70.313 0 -46.711 -24.775 -57.31 -58.593 -74.219 -5.86 -1.953 -15.626 -5.86 -23.438 -7.812H125v-83.985h750.002V500h-162.11c1.954 3.906 5.86 9.765 7.813 13.672 7.812 19.53 13.672 42.968 13.672 68.36 0 90.34 -58.962 135.707 -130.86 156.25 -27.344 7.812 -56.64 11.718 -89.844 11.718 -19.531 0 -41.016 -1.953 -60.547 -5.859 -42.804 -8.56 -79.304 -20.416 -109.375 -42.969C299.149 667.72 267.579 623.216 267.579 546.874h123.047zM607.423 312.498c0 -60.111 -38.285 -87.89 -99.61 -87.89 -44.087 0 -77.399 14.173 -91.796 42.968 -3.907 7.813 -5.86 17.578 -5.86 27.344 0 19.531 11.72 37.11 31.25 50.781 15.625 9.766 31.25 19.532 58.594 29.297H308.595c-1.954 -3.906 -5.86 -5.859 -7.813 -9.765C289.063 345.7 285.157 322.263 285.157 294.92c0 -56.136 29.16 -96.376 62.5 -123.047 40.12 -28.084 93.384 -46.875 162.11 -46.875 68.488 0 125.26 19.569 162.11 52.734 34.297 30.868 60.547 74.115 60.547 134.766h-125z"/></svg>