<svg height="1000" width="1000" xmlns="http://www.w3.org/2000/svg"><path d="M244.141 822.265V558.593L388.673 906.25h-60.547c-44.922 0 -83.985 -39.063 -83.985 -83.985zm83.985 -457.032c23.437 0 41.016 -19.532 41.016 -42.97s-17.579 -41.015 -41.016 -41.015 -41.016 17.578 -41.016 41.016 17.578 42.969 41.016 42.969zM917.97 664.062c17.578 42.968 -1.953 91.797 -44.922 109.375L566.408 900.39c-9.766 3.907 -21.485 5.86 -33.204 5.86 -33.203 0 -62.5 -19.532 -76.172 -50.782l-207.031 -500c-3.907 -11.72 -5.86 -21.485 -5.86 -33.204 0 -31.25 19.532 -60.547 50.782 -74.22L603.517 121.092c11.719 -3.906 21.485 -5.859 33.203 -5.859 31.25 0 60.547 19.531 74.22 50.781zM105.47 818.359C62.5 800.78 42.969 753.906 60.547 710.937L162.11 466.796v375z"/></svg>