<svg height="1000" width="1000" xmlns="http://www.w3.org/2000/svg"><path d="M750.002 662.109v-287.11c0 -109.376 -111.328 -125 -250 -125C375 249.998 250 265.622 250 374.998v287.11c0 60.547 48.828 109.375 109.375 109.375L312.5 818.359v15.625h70.312l62.5 -62.5h117.188l62.5 62.5h62.5v-15.625l-46.874 -46.875c60.547 0 109.375 -48.828 109.375 -109.375zm-7.813 -544.924c111.329 42.97 173.829 134.766 173.829 251.954v546.876H83.985V369.14c0 -117.188 62.5 -208.985 173.828 -251.954C332.033 87.888 421.876 83.982 500.001 83.982s167.97 3.906 242.188 33.203zM292.97 374.998h416.017v208.985H292.97V374.998zm19.532 291.017c0 -23.438 17.578 -41.016 41.016 -41.016s42.968 17.578 42.968 41.016 -19.53 42.969 -42.968 42.969S312.5 689.452 312.5 666.014zm291.016 0c0 -23.438 19.531 -41.016 42.969 -41.016s41.016 17.578 41.016 41.016 -17.578 42.969 -41.016 42.969 -42.969 -19.532 -42.969 -42.97z"/></svg>