<svg height="1000" width="1000" xmlns="http://www.w3.org/2000/svg"><path d="M375.001 541.014c27.344 0 62.5 3.907 99.61 11.72C388.673 599.607 375 662.108 375 697.263v93.751H83.985V687.5c0 -97.656 193.36 -146.485 291.016 -146.485zm312.5 42.97c76.173 0 228.517 37.109 228.517 113.28v93.751H458.986v-93.75c0 -76.172 152.344 -113.282 228.516 -113.282zm-312.5 -125.001c-68.36 0 -125 -56.64 -125 -125s56.64 -125 125 -125 125 56.64 125 125 -56.64 125 -125 125zm312.5 41.016c-56.64 0 -103.515 -46.875 -103.515 -103.516s46.875 -105.47 103.516 -105.47 103.516 48.83 103.516 105.47S744.143 499.999 687.502 499.999z"/></svg>