<svg height="1000" width="1000" xmlns="http://www.w3.org/2000/svg"><path d="M500.001 416.014c44.922 0 83.985 39.063 83.985 83.985S544.923 583.983 500 583.983 416.017 544.921 416.017 500 455.079 416.014 500 416.014zM736.33 736.327C800.783 671.874 833.987 585.937 833.987 500S800.783 328.123 736.33 263.67l-60.547 60.547c48.828 48.828 74.219 111.328 74.219 175.782s-23.438 128.906 -72.266 177.735zM500.001 666.015c91.797 0 166.016 -74.22 166.016 -166.016S591.798 333.983 500.001 333.983 333.985 408.202 333.985 499.999s74.22 166.016 166.016 166.016zM324.22 675.78C275.39 626.952 250 564.452 250 500s23.438 -128.907 72.266 -177.735L263.673 263.67c-64.454 64.453 -97.657 150.391 -97.657 236.329s33.203 171.875 97.657 236.328zM833.987 166.013c44.921 0 82.031 39.063 82.031 83.985V750c0 44.922 -37.11 83.985 -82.031 83.985h-667.97c-44.923 0 -82.032 -39.063 -82.032 -83.985V250c0 -44.923 37.11 -83.986 82.031 -83.986h667.97z"/></svg>