<svg height="1000" width="1000" xmlns="http://www.w3.org/2000/svg"><path d="M833.987 166.013l-99.61 99.61c60.547 60.547 99.61 142.579 99.61 234.376 0 64.453 -19.532 125 -50.782 175.781l-62.5 -60.547C738.283 580.077 750.002 541.014 750.002 500c0 -68.36 -29.297 -130.86 -74.219 -175.782l-91.797 91.797v-250h250zM119.14 224.607l52.734 -52.734 654.299 656.252 -52.735 52.734 -97.656 -97.656c-29.297 17.578 -60.547 31.25 -93.75 39.062v-85.938c11.719 -3.906 23.437 -9.765 33.203 -15.625L279.298 384.764C261.719 419.92 250 458.983 250 499.999c0 68.36 29.297 130.86 74.219 175.781l91.797 -91.797v250h-250l99.609 -99.609C205.079 673.827 166.016 591.796 166.016 500c0 -64.454 19.531 -125 50.781 -175.782zm296.876 39.063c-11.72 3.906 -21.485 9.766 -31.25 15.625l-60.547 -62.5c29.297 -17.578 58.593 -31.25 91.797 -39.063v85.938z"/></svg>