<svg height="1000" width="1000" xmlns="http://www.w3.org/2000/svg"><path d="M458.986 541.014v-250h82.031v250h-82.031zm416.016 -375l-97.656 99.61c60.547 60.546 97.656 142.578 97.656 234.375 0 156.25 -105.469 285.157 -250 322.266v-85.938C722.658 703.124 791.018 609.374 791.018 500c0 -68.36 -27.344 -130.86 -72.266 -175.782l-93.75 91.797v-250h250zm-416.016 542.97v-83.985h82.031v83.985h-82.031zM125 499.999c0 -156.25 105.47 -285.157 250.001 -322.267v85.938C277.344 296.873 208.985 390.623 208.985 499.999c0 68.36 27.344 130.86 72.266 175.781L375 583.983v250.001h-250l97.656 -99.61C162.11 673.827 125 591.796 125 500z"/></svg>