<svg height="1000" width="1000" xmlns="http://www.w3.org/2000/svg"><path d="M708.986 875v-83.985h82.032V875h-82.032zm-167.969 0v-83.985h83.985V875h-83.985zM875.002 541.014v-82.031h83.985v82.031h-83.985zm0 333.986v-83.985h83.985c0 44.922 -39.063 83.985 -83.985 83.985zM208.985 208.982v-83.984h82.031v83.984h-82.031zm0 666.018v-83.985h82.031V875h-82.031zM375 208.982v-83.984h83.985v83.984H375zm500.001 500.002v-83.985h83.985v83.985h-83.985zm0 -583.986c44.922 0 83.985 39.062 83.985 83.984v166.016h-417.97v-250h333.985zM125 875C80.078 875 41.016 835.937 41.016 791.015H125V875zM41.016 708.984v-83.985H125v83.985H41.016zM375 875v-83.985h83.985V875H375zM41.016 208.982c0 -44.922 39.062 -83.984 83.984 -83.984v83.984H41.016zm0 332.032v-82.031H125v82.031H41.016zm0 -166.016v-83.984H125v83.984H41.016z"/></svg>