<svg height="1000" width="1000" xmlns="http://www.w3.org/2000/svg"><path d="M708.986 42.966c44.922 0 82.032 37.11 82.032 82.032v708.986c0 44.922 -37.11 82.031 -82.032 82.031h-87.89C617.188 857.422 603.516 802.734 582.032 750h126.953V208.982h-417.97v250.001c-27.343 -11.719 -52.734 -21.484 -82.031 -27.344V124.998c0 -44.922 37.11 -83.985 82.031 -83.985zM83.985 500c253.906 0 457.032 205.078 457.032 458.985h-82.031c0 -207.032 -167.97 -375 -375.001 -375v-83.985zm0 333.985c68.36 0 125 56.64 125 125h-125v-125zm0 -167.97c162.11 0 291.016 130.86 291.016 292.97h-83.985C291.016 843.75 199.22 750 83.985 750v-83.984z"/></svg>