<svg height="1000" width="1000" xmlns="http://www.w3.org/2000/svg"><path d="M500.001 -.003c261.72 0 476.564 201.173 498.048 457.033h-62.5C921.877 300.78 824.221 169.92 687.502 105.466l-56.641 54.688L472.657 1.951zm189.454 492.19c0 -68.235 -26.698 -111.33 -91.797 -111.33h-39.063v240.236h37.11c50.085 0 78.656 -27.25 89.844 -66.407 3.906 -13.672 3.906 -29.297 3.906 -46.875v-15.625zM597.658 333.982c74.574 0 119.01 37.757 140.625 91.797 7.813 19.531 9.766 42.969 9.766 66.406v15.625c0 51.574 -14.787 89.006 -41.016 115.235 -26.196 26.196 -59.672 42.969 -111.328 42.969H500V333.983h97.657zm-193.36 162.11c29.89 11.955 54.688 35.637 54.688 76.172 0 15.625 -3.907 27.343 -9.766 39.062s-11.719 23.438 -21.485 31.25c-18.316 14.654 -45.992 23.438 -78.125 23.438 -60.734 0 -105.469 -30.75 -105.469 -91.797h52.735c0 30.179 22.66 48.828 52.734 48.828 34.903 0 54.688 -16.679 54.688 -52.735 0 -36.803 -24.21 -52.734 -60.547 -52.734H312.5v-42.969h31.25c33.797 0 56.64 -15.685 56.64 -48.828 0 -32.275 -17.265 -48.828 -50.78 -48.828 -28.212 0 -48.829 16.76 -48.829 44.922h-54.688c0 -29.09 14.75 -47.953 29.297 -62.5 19.39 -15.512 40.818 -25.391 74.22 -25.391 50.092 0 78.878 19.085 95.703 52.734 5.859 11.719 7.812 23.438 7.812 39.063 0 35.523 -24.092 57.945 -48.828 70.312zM312.5 894.53l56.64 -54.688 158.204 158.204L500.001 1000C238.281 1000 23.438 796.874 1.953 541.014h62.5c15.625 156.25 111.329 289.064 248.048 353.517z"/></svg>