<svg height="1000" width="1000" xmlns="http://www.w3.org/2000/svg"><path d="M937.502 416.014c35.157 0 62.5 27.344 62.5 62.5V750c0 17.579 -5.859 33.204 -17.578 44.922L775.393 1000l-33.204 -33.203c-7.812 -7.813 -13.672 -19.532 -13.672 -33.203 9.671 -47.621 19.548 -95.037 29.297 -142.579H541.017c-23.438 0 -41.016 -17.578 -41.016 -41.016v-52.734c0 -7.813 1.953 -13.672 3.907 -21.485L599.61 455.077c9.766 -21.485 31.25 -39.063 56.64 -39.063h281.251zm-437.5 -166.016v52.735c0 7.812 -1.954 13.672 -3.907 21.484l-95.703 220.704c-9.766 21.484 -31.25 39.062 -56.641 39.062H62.5C27.343 583.983 0 556.64 0 521.483V249.998C0 232.42 5.86 216.795 17.578 205.076L224.61 -.003l33.203 33.204c7.813 7.812 13.672 19.53 13.672 33.203 -9.67 47.62 -19.547 95.036 -29.297 142.578h216.798c23.437 0 41.015 17.579 41.015 41.016z"/></svg>