<svg height="1000" width="1000" xmlns="http://www.w3.org/2000/svg"><path d="M500.001 833.984c52.735 0 103.516 -15.625 146.485 -41.016L248.048 394.53c-25.391 42.969 -39.063 93.75 -39.063 146.484 0 162.11 128.906 292.97 291.016 292.97zm-375 -667.97L865.236 906.25l-52.735 52.734L707.033 853.515c-60.547 39.063 -130.86 62.5 -207.032 62.5 -207.032 0 -375 -167.969 -375 -375 0 -76.173 23.437 -148.438 62.5 -207.032L72.265 218.748zm333.985 226.563v-58.594h82.031V476.56zM625.002 41.013v83.985H375V41.013h250zM792.97 189.451l58.594 58.594 -58.594 60.547c50.781 64.453 82.031 144.532 82.031 232.422 0 76.173 -23.437 148.438 -62.5 207.032L751.955 687.5c25.39 -42.969 39.063 -93.75 39.063 -146.485C791.018 378.904 662.11 249.998 500 249.998c-52.734 0 -101.562 13.672 -144.531 39.063l-62.5 -60.547c58.593 -39.063 130.86 -62.5 207.031 -62.5 87.891 0 169.923 31.25 234.376 82.031z"/></svg>