<svg height="1000" width="1000" xmlns="http://www.w3.org/2000/svg"><path d="M958.987 333.983c0 44.922 -39.063 82.031 -83.985 82.031 -7.812 0 -15.625 0 -21.484 -1.953L705.08 562.499c1.953 5.86 3.906 13.672 3.906 21.484 0 44.922 -39.062 82.032 -83.984 82.032s-83.985 -37.11 -83.985 -82.032c0 -7.812 1.953 -15.625 3.906 -21.484L437.501 455.077c-5.86 1.953 -13.672 3.906 -21.484 3.906s-15.625 -1.953 -21.485 -3.906L205.08 644.53c1.953 5.86 3.906 13.672 3.906 21.485 0 44.922 -39.063 83.984 -83.985 83.984S41.016 710.937 41.016 666.015 80.078 583.983 125 583.983c7.813 0 15.625 0 21.485 1.953L335.938 396.483c-1.953 -5.86 -1.953 -13.672 -1.953 -21.485 0 -44.922 37.11 -83.984 82.032 -83.984S500 330.076 500 374.998c0 7.813 0 15.625 -1.953 21.485l105.47 105.469c5.859 -1.953 13.671 -1.953 21.484 -1.953s15.625 0 21.484 1.953L794.924 355.467c-1.953 -5.86 -3.906 -13.672 -3.906 -21.484 0 -44.922 39.062 -83.985 83.984 -83.985s83.985 39.063 83.985 83.985z"/></svg>