<svg height="1000" width="1000" xmlns="http://www.w3.org/2000/svg"><path d="M500.001 833.984c162.11 0 291.017 -130.86 291.017 -292.97S662.11 249.998 500 249.998 208.985 378.905 208.985 541.014 337.89 833.984 500 833.984zm292.97 -525.392c50.781 64.453 82.031 144.532 82.031 232.422 0 207.032 -167.969 375.001 -375 375.001S125 748.046 125 541.015 292.97 166.012 500.001 166.012c87.891 0 169.923 33.204 234.376 83.985l58.594 -60.547a415.357 415.357 0 0 1 58.594 58.594zM458.986 583.983v-250h82.031v250h-82.031zM625.002 41.013v83.985H375V41.013h250z"/></svg>