<svg height="1000" width="1000" xmlns="http://www.w3.org/2000/svg"><path d="M500.001 833.984c183.595 0 333.986 -150.391 333.986 -333.985S683.595 166.013 500 166.013 166.016 316.405 166.016 500s150.391 333.985 333.985 333.985zm0 -750.002c230.47 0 416.017 185.547 416.017 416.017S730.471 916.015 500.001 916.015 83.985 730.468 83.985 500 269.532 83.982 500 83.982zm175.782 240.235c97.656 97.657 99.61 253.907 1.953 351.563s-255.86 97.657 -353.516 0L500 500v-250c64.454 0 126.954 25.39 175.782 74.218z"/></svg>