<svg height="1000" width="1000" xmlns="http://www.w3.org/2000/svg"><path d="M208.985 416.014h582.033l-62.5 -187.5H271.484zM728.517 625c35.157 0 62.5 -27.344 62.5 -62.5s-27.343 -62.5 -62.5 -62.5 -62.5 27.344 -62.5 62.5 27.344 62.5 62.5 62.5zm-457.032 0c35.156 0 62.5 -27.344 62.5 -62.5s-27.344 -62.5 -62.5 -62.5 -62.5 27.344 -62.5 62.5 27.344 62.5 62.5 62.5zm517.58 -416.017l85.937 250.001v332.032c0 23.438 -17.578 42.969 -41.015 42.969h-42.97c-23.437 0 -41.015 -19.531 -41.015 -42.969V750H250v41.016c0 23.438 -17.579 42.969 -41.016 42.969h-42.969C142.578 833.984 125 814.453 125 791.015V458.983l85.938 -250c7.813 -25.391 33.203 -42.97 60.547 -42.97h457.032c27.344 0 52.735 17.579 60.548 42.97z"/></svg>