<svg height="1000" width="1000" xmlns="http://www.w3.org/2000/svg"><path d="M730.47 435.545c-31.134 0 -60.546 14.792 -60.546 44.922 0 26.725 18.182 30.711 39.062 39.063 9.766 3.906 21.485 7.813 35.157 9.766 21.484 3.906 39.062 9.765 56.64 15.625s31.25 15.625 42.97 23.437 19.53 19.532 25.39 31.25 9.765 23.438 9.765 41.016c0 60.392 -39.244 85.998 -85.937 101.563 -17.578 5.86 -39.063 7.812 -60.547 7.812 -69.132 0 -122.292 -28.835 -142.579 -76.172 -5.86 -13.672 -9.765 -27.344 -9.765 -42.969h78.125c0 39.891 36.208 58.594 76.172 58.594 36.517 0 64.453 -11.51 64.453 -44.922 0 -26.511 -16.626 -32.822 -37.11 -41.015 -9.765 -3.907 -25.39 -7.813 -41.015 -11.72 -36.734 -7.346 -68.263 -20.117 -93.75 -37.109 -20.563 -13.708 -35.157 -37.992 -35.157 -70.312 0 -53.834 39.8 -87.486 82.032 -101.563 17.578 -5.86 35.156 -7.813 56.64 -7.813 79.945 0 146.485 37.375 146.485 115.235h-82.031c0 -25.428 -16.026 -43.557 -37.11 -48.828 -7.812 -1.953 -17.578 -5.86 -27.343 -5.86zM419.924 494.14c48.29 18.109 82.031 49.774 82.031 113.282 0 50 -17.294 85.237 -46.875 107.422 -27.413 23.497 -67.291 39.063 -117.188 39.063 -91.557 0 -164.062 -49.312 -164.062 -140.626h83.984c0 22.47 8.102 44.651 21.485 54.688 14.359 10.77 34.246 19.531 58.593 19.531 52.882 0 82.032 -27.491 82.032 -80.078 0 -55.91 -33.333 -80.078 -89.844 -80.078h-50.781v-64.454h48.828c40.054 0 68.57 -16.153 80.078 -44.922 3.906 -9.765 3.906 -19.531 3.906 -31.25 0 -48.608 -24.33 -74.219 -74.219 -74.219 -36.568 0 -58.067 14.572 -70.312 39.063 -3.906 7.812 -5.86 17.578 -5.86 29.297h-82.031c0 -67.06 44.824 -105.43 93.75 -125 19.532 -5.86 41.016 -9.766 64.453 -9.766 95.142 0 156.25 45.858 156.25 140.625 0 55.635 -35.894 88.26 -74.218 107.422z"/></svg>