<svg height="1000" width="1000" xmlns="http://www.w3.org/2000/svg"><path d="M537.11 550.78V445.311c0 -45.25 -4.457 -78.393 -19.53 -103.516 -10.402 -20.802 -29.696 -29.297 -58.594 -29.297 -11.72 0 -25.391 1.953 -35.157 5.86 -37.844 22.706 -44.922 66.394 -44.922 128.906V550.78c0 25.39 0 46.875 3.906 64.453s11.72 29.297 17.579 41.016c10.92 21.842 27.676 31.25 58.594 31.25 30.124 0 48.078 -10.22 58.593 -31.25 5.86 -11.719 11.72 -23.437 15.625 -41.016s3.907 -39.062 3.907 -64.453zM296.877 458.983c0 -125.23 40.403 -212.891 162.11 -212.891 50.65 0 93.454 16.36 117.187 46.875 29.714 38.204 42.97 94.841 42.97 166.016v80.078c0 124.82 -38.367 214.845 -160.157 214.845 -121.273 0 -162.11 -89.998 -162.11 -214.845v-80.078zm554.689 -23.438c-31.872 0 -58.594 13.044 -58.594 44.922 0 28.412 15.259 30.323 37.11 39.063 9.765 3.906 23.437 7.813 37.109 9.766 21.484 3.906 37.11 9.765 54.687 15.625s31.25 15.625 42.97 23.437 19.53 19.532 25.39 31.25 9.766 23.438 9.766 41.016c0 60.392 -39.245 85.998 -85.938 101.563 -17.578 5.86 -37.11 7.812 -58.594 7.812 -70.219 0 -123.944 -28.133 -144.532 -76.172 -5.86 -13.672 -9.765 -27.344 -9.765 -42.969h80.078c0 41.58 33.353 58.594 74.219 58.594 36.517 0 64.453 -11.51 64.453 -44.922 0 -26.511 -16.625 -32.822 -37.11 -41.015 -24.87 -9.949 -68.18 -17.756 -93.75 -27.344 -15.625 -5.86 -27.343 -13.672 -39.062 -21.485 -21.591 -14.394 -37.11 -36.28 -37.11 -70.312 0 -53.834 39.8 -87.486 82.032 -101.563 17.578 -5.86 35.156 -7.813 56.64 -7.813 79.945 0 146.485 37.375 146.485 115.235h-82.031c0 -23.98 -15.32 -43.869 -35.156 -48.828 -7.813 -1.953 -19.532 -5.86 -29.297 -5.86zM0 322.264l197.266 -72.266h11.719V750H125V349.608L0 392.577v-70.313z"/></svg>