<svg height="1000" width="1000" xmlns="http://www.w3.org/2000/svg"><path d="M822.268 583.983c3.906 -13.672 5.86 -29.297 7.812 -42.969H541.017v42.97h281.25zm-62.5 125c9.765 -13.671 21.484 -29.296 29.297 -42.968H541.017v42.969h218.75zM541.017 830.079c42.969 -5.86 83.985 -19.532 121.094 -39.063H541.017v39.063zm0 -414.064v42.969H830.08c-1.953 -13.672 -3.906 -29.297 -7.812 -42.969H541.017zm0 -125v42.969h248.048c-7.813 -13.672 -19.532 -29.297 -29.297 -42.97H541.017zm0 -121.094v39.062h121.094C625.001 189.452 583.986 175.78 541.017 169.92zm-82.031 660.158V169.92C294.923 189.45 166.016 330.076 166.016 499.999s128.907 310.547 292.97 330.079zM500 83.982c230.47 0 416.017 185.547 416.017 416.017S730.471 916.015 500.001 916.015 83.985 730.468 83.985 500 269.532 83.982 500 83.982z"/></svg>