<svg height="1000" width="1000" xmlns="http://www.w3.org/2000/svg"><path d="M785.158 662.109c21.485 9.765 37.11 31.25 37.11 56.64v7.813l-31.25 220.703C787.11 978.515 761.72 1000 730.47 1000H447.267c-17.578 0 -31.25 -5.86 -42.97 -17.578L197.268 775.39l33.202 -33.203c7.813 -7.813 19.532 -13.672 33.204 -13.672 3.906 0 5.859 1.953 9.765 1.953l142.579 29.297V312.498c0 -35.156 27.344 -62.5 62.5 -62.5s62.5 27.344 62.5 62.5v250h33.203c7.813 0 13.672 1.954 21.485 3.907zM375.001 468.749C324.22 435.545 291.016 376.952 291.016 312.499c0 -103.517 83.985 -187.501 187.5 -187.501s187.501 83.984 187.501 187.5c0 64.454 -31.25 123.047 -82.031 156.25v-156.25c0 -56.64 -48.828 -103.516 -105.47 -103.516S375.002 255.857 375.002 312.498v156.25z"/></svg>