<svg height="1000" width="1000" xmlns="http://www.w3.org/2000/svg"><path d="M794.924 205.076C871.096 281.248 916.018 384.764 916.018 500c0 230.47 -185.547 416.016 -416.017 416.016S83.985 730.468 83.985 500 269.532 83.982 500 83.982h41.016v343.75c25.39 13.673 42.969 41.017 42.969 72.267 0 44.922 -39.063 83.984 -83.985 83.984S416.017 544.921 416.017 500c0 -31.25 17.578 -58.594 42.969 -72.266v-87.89c-72.266 19.53 -125 82.03 -125 160.156 0 91.797 74.218 166.016 166.015 166.016s166.016 -74.22 166.016 -166.016c0 -44.922 -19.531 -85.938 -48.828 -117.188l58.594 -58.594c44.922 44.922 74.219 107.422 74.219 175.782 0 138.672 -111.328 250 -250 250S250 638.671 250 500c0 -123.047 89.844 -226.563 208.985 -246.095V169.92C294.923 189.45 166.016 330.076 166.016 499.999c0 183.594 150.391 333.985 333.985 333.985S833.987 683.593 833.987 499.999c0 -91.797 -37.11 -175.782 -97.657 -236.329z"/></svg>