<svg height="1000" width="1000" xmlns="http://www.w3.org/2000/svg"><path d="M500.001 374.998c46.875 0 83.985 -39.062 83.985 -83.984 0 -46.875 -39.063 -82.032 -83.985 -82.032 -46.875 0 -83.984 35.157 -83.984 82.032 0 44.922 37.11 83.984 83.984 83.984zm0 208.985c46.875 0 83.985 -39.062 83.985 -83.984S544.923 416.014 500 416.014c-46.875 0 -83.984 39.063 -83.984 83.985s37.11 83.984 83.984 83.984zm0 207.032c46.875 0 83.985 -37.11 83.985 -82.031S544.923 624.999 500 624.999c-46.875 0 -83.984 39.063 -83.984 83.985s37.11 82.031 83.984 82.031zm333.986 -375c0 78.124 -52.735 142.578 -125 162.109v46.875h125c0 78.125 -52.735 140.625 -125 160.157v48.828c0 23.438 -19.532 41.016 -42.97 41.016H333.985c-23.437 0 -42.969 -17.578 -42.969 -41.016v-48.828c-72.265 -19.532 -125 -82.032 -125 -160.157h125v-46.875c-72.265 -19.531 -125 -83.985 -125 -162.11h125V369.14c-72.265 -19.531 -125 -82.031 -125 -160.157h125v-42.969c0 -23.437 19.532 -41.015 42.97 -41.015h332.031c23.438 0 42.97 17.578 42.97 41.015v42.97h125c0 78.125 -52.735 140.625 -125 160.156v46.875h125z"/></svg>