<svg height="1000" width="1000" xmlns="http://www.w3.org/2000/svg"><path d="M687.502 708.984c35.156 0 62.5 -27.344 62.5 -62.5s-27.344 -62.5 -62.5 -62.5 -62.5 27.343 -62.5 62.5 27.343 62.5 62.5 62.5zM541.017 416.014h208.985V249.998H541.017v166.016zm-82.031 0V249.998H250v166.016h208.985zM312.5 708.984c35.156 0 62.5 -27.344 62.5 -62.5s-27.344 -62.5 -62.5 -62.5 -62.5 27.343 -62.5 62.5 27.343 62.5 62.5 62.5zM500 83.982c183.595 0 333.986 19.531 333.986 166.016v396.485c0 80.079 -66.407 144.532 -146.485 144.532l62.5 62.5V875h-83.985l-82.031 -83.985H425.782L343.751 875H250v-21.485l62.5 -62.5c-80.079 0 -146.485 -64.453 -146.485 -144.532V249.998c0 -146.485 167.97 -166.016 333.985 -166.016z"/></svg>