<svg height="1000" width="1000" xmlns="http://www.w3.org/2000/svg"><path d="M708.986 583.983V374.998h-417.97v208.985h417.97zm-208.985 187.5c35.157 0 62.5 -27.343 62.5 -62.5s-27.343 -62.5 -62.5 -62.5 -62.5 27.344 -62.5 62.5 27.344 62.5 62.5 62.5zm291.017 -66.406c0 70.313 -37.11 128.907 -107.423 128.907h3.907l62.5 62.5v19.531h-83.985l-82.031 -82.031H425.782l-82.031 82.031H250v-19.53l66.406 -66.407c-58.594 -13.672 -107.422 -64.454 -107.422 -125V353.513c0 -115.235 117.188 -140.625 248.047 -144.532l33.204 -62.5h-199.22v-62.5h417.97v62.5H572.267l-31.25 62.5c142.578 3.907 250 27.344 250 144.532v351.563z"/></svg>