<svg height="1000" width="1000" xmlns="http://www.w3.org/2000/svg"><path d="M240.235 371.092L125 958.984h87.891L285.157 625l89.844 83.985v250h83.985V644.53l-85.938 -85.937 25.39 -125c54.688 66.406 134.766 107.421 226.564 107.421v-82.031c-76.172 0 -144.532 -42.969 -181.641 -103.516l-39.063 -66.406C390.626 263.67 363.282 249.998 333.985 249.998c-9.765 0 -21.484 1.953 -31.25 5.86L83.985 345.7v195.313h82.031V402.342l74.219 -31.25zm156.25 -142.578c-44.922 0 -83.984 -37.11 -83.984 -82.032s39.062 -83.984 83.984 -83.984 82.032 39.062 82.032 83.984 -37.11 82.032 -82.032 82.032zm416.017 593.751V750l103.516 103.516 -103.516 105.47v-74.22H583.986v-62.5h228.516zm-125 -175.782h228.516v62.5H687.502v72.266L583.986 677.734l103.516 -105.47v74.22z"/></svg>