<svg height="1000" width="1000" xmlns="http://www.w3.org/2000/svg"><path d="M662.111 708.984h134.766l-68.36 -181.641zm109.375 -292.97l187.5 500.001h-83.984l-46.875 -125H630.861l-46.875 125H500l187.5 -500h83.985zM537.111 626.952l-33.203 85.938L375 583.983 166.016 791.015l-58.594 -58.594L320.313 523.436c-52.734 -58.594 -93.75 -121.094 -125 -189.453h83.985c25.39 48.828 56.64 95.703 95.703 138.672C435.548 406.248 480.47 330.076 507.814 249.998H41.016v-83.985h292.97V83.982h82.03v82.031h292.97v83.985H585.94c-31.25 97.657 -82.031 191.407 -154.297 271.485l-1.953 1.953z"/></svg>