<svg height="1000" width="1000" xmlns="http://www.w3.org/2000/svg"><path d="M521.486 333.983v175.781l144.531 87.891 -29.297 50.782L458.986 541.014V333.983h62.5zm353.516 87.89H591.798L707.033 304.687C593.752 191.404 408.204 187.498 294.923 300.779s-113.282 292.97 0 406.252 298.829 113.281 412.11 0c56.64 -56.641 83.985 -121.095 83.985 -203.126h83.984c0 82.031 -35.156 189.454 -109.375 261.72 -146.485 144.531 -384.767 144.531 -531.251 0s-146.485 -378.908 0 -523.44 380.86 -144.531 527.345 0L875.002 124.999v296.876z"/></svg>