<svg height="1000" width="1000" xmlns="http://www.w3.org/2000/svg"><path d="M625.002 291.014h166.016v167.969h-41.016v82.031c0 46.876 -37.11 83.985 -83.985 83.985h-125v126.953c29.297 15.626 50.781 46.876 50.781 82.032 0 50.781 -41.015 91.797 -91.797 91.797s-91.797 -41.016 -91.797 -91.797c0 -35.156 21.485 -66.406 50.782 -82.032V625h-125C287.11 624.999 250 587.889 250 541.014v-85.937c-29.297 -15.625 -50.782 -44.922 -50.782 -80.079 0 -50.781 41.016 -91.797 91.797 -91.797s91.797 41.016 91.797 91.797c0 35.157 -19.53 64.454 -48.828 80.079v85.937h125V208.982h-83.984l125 -167.969 125 167.97h-83.984v332.031h125v-82.031h-41.015v-167.97z"/></svg>