<svg height="1000" width="1000" xmlns="http://www.w3.org/2000/svg"><path d="M812.502 499.999c35.156 0 62.5 -27.344 62.5 -62.5s-27.344 -62.5 -62.5 -62.5 -62.5 27.343 -62.5 62.5 27.344 62.5 62.5 62.5zm-166.016 125c35.156 0 62.5 -27.344 62.5 -62.5s-27.344 -62.5 -62.5 -62.5 -62.5 27.344 -62.5 62.5 27.344 62.5 62.5 62.5zm-187.5 -83.985v-82.031h-125v-125H250v125H125v82.031h125v125h83.984v-125h125zM875.002 249.998c44.922 0 83.985 39.063 83.985 83.985v332.032c0 44.922 -39.063 83.984 -83.985 83.984H125C80.078 750 41.016 710.937 41.016 666.015V333.983c0 -44.922 39.062 -83.985 83.984 -83.985h750.002z"/></svg>