<svg height="1000" width="1000" xmlns="http://www.w3.org/2000/svg"><path d="M541.017 208.982c23.438 0 42.969 17.579 42.969 41.016V750c0 23.438 -19.531 41.016 -42.969 41.016h-125C392.579 791.015 375 773.437 375 750V250c0 -23.438 17.578 -41.017 41.016 -41.017h125zm292.97 0c23.437 0 41.015 17.579 41.015 41.016V750c0 23.438 -17.578 41.016 -41.015 41.016h-125c-23.438 0 -42.97 -17.578 -42.97 -41.016V250c0 -23.438 19.532 -41.017 42.97 -41.017h125zm-583.986 0c23.437 0 41.015 17.579 41.015 41.016V750c0 23.438 -17.578 41.016 -41.015 41.016H125c-23.438 0 -41.016 -17.578 -41.016 -41.016V250c0 -23.438 17.578 -41.017 41.015 -41.017h125z"/></svg>