<svg height="1000" width="1000" xmlns="http://www.w3.org/2000/svg"><path d="M750.002 208.982h166.016v166.016H750.002V208.982zm0 582.033V625h166.016v166.016H750.002zm-208.985 0V625h167.97v166.016h-167.97zm-207.032 0V625h166.016v166.016H333.985zm-208.985 0V625h166.016v166.016H125zM750.002 583.983V416.014h166.016v167.97H750.002zm-208.985 -375h167.97v166.015h-167.97V208.982zM333.985 374.997V208.982h166.016v166.016H333.985zm207.032 208.985V416.014h167.97v167.97h-167.97zm-207.032 0V416.014h166.016v167.97H333.985zm-208.985 0V416.014h166.016v167.97H125zm0 -208.985V208.982h166.016v166.016H125z"/></svg>