<svg height="1000" width="1000" xmlns="http://www.w3.org/2000/svg"><path d="M500.001 374.998c68.36 0 125 56.641 125 125S568.362 625 500.002 625s-125 -56.64 -125 -125 56.64 -125 125 -125zm0 333.986c115.235 0 208.985 -93.75 208.985 -208.985S615.236 291.014 500.001 291.014s-208.985 93.75 -208.985 208.985 93.75 208.985 208.985 208.985zm0 -521.486c208.985 0 386.72 128.906 458.986 312.5C886.72 683.594 708.987 812.5 500 812.5S113.281 683.593 41.016 499.999C113.282 316.404 291.016 187.498 500 187.498z"/></svg>