<svg height="1000" width="1000" xmlns="http://www.w3.org/2000/svg"><path d="M494.142 374.998h5.86c68.359 0 125 56.641 125 125v7.813zm-179.688 33.204c-13.672 27.343 -23.438 58.594 -23.438 91.797 0 115.234 93.75 208.985 208.985 208.985 33.203 0 64.454 -9.766 91.797 -23.438l-64.453 -64.453c-7.812 1.953 -17.578 3.906 -27.344 3.906 -68.36 0 -125 -56.64 -125 -125 0 -9.766 1.953 -19.532 3.906 -27.344zM83.984 177.732l52.735 -52.734L875.002 863.28l-52.734 52.734C775.424 869.76 728.258 823.827 681.642 777.343 625.002 800.781 564.455 812.5 500.002 812.5 291.015 812.5 113.281 683.593 41.015 499.999c33.203 -82.032 87.89 -152.344 156.25 -207.032C159.163 254.897 121.77 216.119 83.985 177.732zm416.017 113.282c-27.344 0 -52.734 5.86 -76.172 15.625l-89.844 -89.844c50.782 -19.531 107.422 -29.297 166.016 -29.297 208.985 0 384.767 128.906 457.033 312.5 -31.25 78.126 -80.079 144.532 -142.579 197.267L693.361 576.17c9.766 -23.438 15.625 -48.828 15.625 -76.172 0 -115.235 -93.75 -208.985 -208.985 -208.985z"/></svg>