<svg height="1000" width="1000" xmlns="http://www.w3.org/2000/svg"><path d="M771.486 624.999c80.079 0 144.532 -66.406 144.532 -146.485S851.565 333.983 771.486 333.983 625.002 398.436 625.002 478.514 691.408 625 771.486 625zm-542.97 0c80.079 0 146.485 -66.406 146.485 -146.485S308.595 333.983 228.516 333.983 83.985 398.436 83.985 478.514 148.438 625 228.516 625zm542.97 -375c126.954 0 228.517 101.562 228.517 228.515S898.44 708.984 771.486 708.984h-542.97C101.563 708.984 0 605.468 0 478.514S101.563 249.998 228.516 249.998s230.47 101.563 230.47 228.516c0 54.688 -19.532 107.422 -52.735 146.485h187.5C560.549 585.936 541.018 533.202 541.018 478.514c0 -126.953 103.516 -228.516 230.47 -228.516z"/></svg>