<svg height="1000" width="1000" xmlns="http://www.w3.org/2000/svg"><path d="M500.001 166.013v175.782l-87.89 -87.89zM177.735 124.998l697.267 697.267L822.268 875 736.33 789.062c-44.922 35.156 -95.703 62.5 -152.344 76.172v-85.938c35.156 -9.765 66.406 -27.344 93.75 -48.828L500.001 552.733v281.25L291.016 625H125v-250h197.266L125 177.731zm613.283 375c0 -132.812 -85.938 -244.14 -207.032 -279.297v-85.938c167.969 37.11 291.016 187.5 291.016 365.236 0 62.5 -15.625 123.047 -42.969 173.828l-62.5 -64.453c13.672 -33.203 21.485 -70.313 21.485 -109.375zm-103.516 0c0 9.766 0 17.579 -1.953 25.391L583.986 423.827V332.03c62.5 31.25 103.516 93.75 103.516 167.969z"/></svg>