<svg height="1000" width="1000" xmlns="http://www.w3.org/2000/svg"><path d="M416.017 873.047v-82.032c-44.922 0 -82.032 -37.11 -82.032 -82.031v-42.97L132.813 466.797C126.953 490.233 125 515.624 125 541.014c0 169.923 126.954 312.501 291.017 332.033zM789.065 499.999h83.984c1.953 13.672 1.953 27.344 1.953 41.015 0 230.47 -185.547 417.97 -416.016 417.97S41.016 771.484 41.016 541.014s187.5 -416.016 417.97 -416.016c42.968 0 85.937 7.812 125 19.531V250c0 44.921 -39.063 83.984 -83.985 83.984h-83.984v82.031c0 23.438 -17.578 42.969 -41.016 42.969h-83.985v82.031h250.001c23.438 0 42.969 19.532 42.969 42.97v125h41.016c37.11 0 68.36 23.437 80.078 56.64 54.688 -58.594 85.938 -138.672 85.938 -224.61 0 -13.671 0 -27.343 -1.953 -41.015zm93.75 -333.986v-19.53c0 -39.063 -31.25 -72.267 -70.313 -72.267S742.19 107.42 742.19 146.482v19.531h140.626zm33.203 0c23.438 0 42.969 19.532 42.969 42.97v166.015c0 23.438 -19.531 41.016 -42.969 41.016H708.986c-23.437 0 -42.969 -17.578 -42.969 -41.016V208.982c0 -23.437 19.532 -42.969 42.97 -42.969v-19.53c0 -56.642 46.874 -105.47 103.515 -105.47s103.516 48.828 103.516 105.47v19.53z"/></svg>