<svg height="1000" width="1000" xmlns="http://www.w3.org/2000/svg"><path d="M166.016 541.014v292.97h292.97v82.031h-292.97c-44.922 0 -82.031 -37.11 -82.031 -82.031v-292.97h82.031zm667.97 292.97v-292.97h82.032v292.97c0 44.922 -37.11 82.031 -82.031 82.031h-292.97v-82.031h292.97zm0 -750.002c44.922 0 82.032 37.11 82.032 82.031v292.97h-82.031v-292.97h-292.97V83.982h292.97zm-125 269.532c0 35.156 -27.344 62.5 -62.5 62.5s-62.5 -27.344 -62.5 -62.5 27.344 -62.5 62.5 -62.5 62.5 27.344 62.5 62.5zm-292.97 187.5l125.001 154.298 83.985 -111.329 125 166.016H250zm-250 -375v292.969H83.985v-292.97c0 -44.922 37.11 -82.031 82.031 -82.031h292.97v82.031h-292.97z"/></svg>