<svg height="1000" width="1000" xmlns="http://www.w3.org/2000/svg"><path d="M429.689 666.015h78.125L375 291.014h-83.985l-132.812 375h80.078l29.297 -82.03h132.813zM916.018 291.014h76.172l-85.938 375h-72.265l-62.5 -253.906 -62.5 253.907h-74.22l-3.906 -17.578C576.173 757.812 464.845 833.984 333.985 833.984 150.391 833.984 0 683.593 0 499.999S150.391 166.013 333.985 166.013c105.47 0 199.22 48.829 259.767 125h31.25l50.781 263.673 62.5 -263.672h66.407l62.5 263.672zM285.157 527.343l48.828 -152.345 46.875 152.345h-95.703z"/></svg>