<svg height="1000" width="1000" xmlns="http://www.w3.org/2000/svg"><path d="M148.438 773.437l74.219 -76.172 58.594 58.594 -74.22 76.172zm310.548 162.11V812.5h82.031v123.047h-82.031zM500 228.514c138.673 0 250 111.328 250 250s-111.327 250 -250 250 -250 -111.327 -250 -250 111.328 -250 250 -250zm333.986 208.985h125v83.984h-125V437.5zm-115.235 318.36l58.594 -56.641 74.219 74.219L792.97 832.03zM851.565 185.545l-74.22 74.219L718.753 201.17l74.219 -74.22zM541.017 23.435v123.047h-82.031V23.435h82.031zM166.016 437.499v83.984h-125V437.5h125zm115.235 -236.33l-58.594 58.595 -74.22 -74.22 58.595 -58.593z"/></svg>