<svg height="1000" width="1000" xmlns="http://www.w3.org/2000/svg"><path d="M687.502 249.998c-46.875 0 -83.985 -37.11 -83.985 -83.985s37.11 -82.031 83.985 -82.031 83.984 35.156 83.984 82.031 -37.11 83.985 -83.984 83.985zm-375.001 0c-46.875 0 -83.985 -37.11 -83.985 -83.985s37.11 -82.031 83.985 -82.031 83.984 35.156 83.984 82.031 -37.11 83.985 -83.984 83.985zM750 916.015h-125v-250h-125l105.47 -316.407c11.718 -33.204 44.921 -58.594 80.078 -58.594h3.906c35.156 0 68.36 25.39 80.078 58.594l105.47 316.407H750.001v250zm-521.485 0v-312.5h-62.5V374.998c0 -44.922 39.063 -83.984 83.985 -83.984h125c44.922 0 83.985 39.062 83.985 83.984v228.517h-62.5v312.5h-167.97z"/></svg>