<svg height="1000" width="1000" xmlns="http://www.w3.org/2000/svg"><path d="M750.002 208.982c44.922 0 83.985 37.11 83.985 82.032v89.844c-48.829 17.578 -83.985 62.5 -83.985 117.188v85.937H250v-85.937c0 -54.688 -35.157 -99.61 -83.985 -117.188v-89.844c0 -44.922 39.063 -82.032 83.985 -82.032h500zm125 207.032c44.922 0 83.985 39.063 83.985 83.985v208.985c0 44.922 -39.063 82.031 -83.985 82.031H125c-44.922 0 -83.984 -37.11 -83.984 -82.031V499.999c0 -44.922 39.062 -83.985 83.984 -83.985s83.985 39.063 83.985 83.985v125h582.033v-125c0 -44.922 39.062 -83.985 83.984 -83.985z"/></svg>