<svg height="1000" width="1000" xmlns="http://www.w3.org/2000/svg"><path d="M488.283 791.015c111.328 0 199.219 -87.89 199.219 -199.22 0 -58.593 -7.813 -113.28 -23.438 -167.968 -42.969 56.64 -119.14 91.797 -193.36 107.422S353.517 591.796 353.517 660.155c0 72.266 60.547 130.86 134.766 130.86zM562.5 27.341c162.11 130.86 271.486 332.032 271.486 556.642 0 183.595 -150.392 332.032 -333.986 332.032S166.016 767.578 166.016 583.983c0 -140.625 50.781 -271.485 134.766 -371.094v15.625c0 85.937 64.453 154.297 150.391 154.297S593.752 314.45 593.752 228.514c0 -89.844 -31.25 -201.173 -31.25 -201.173z"/></svg>