<svg height="1000" width="1000" xmlns="http://www.w3.org/2000/svg"><path d="M500.001 124.998c230.47 0 416.017 185.547 416.017 416.016 0 154.298 -82.031 289.064 -207.032 361.33l-42.969 -72.266c99.61 -58.594 167.97 -166.016 167.97 -289.064C833.987 357.42 683.595 208.982 500 208.982S166.016 357.42 166.016 541.014c0 123.048 66.406 230.47 166.016 289.064l-41.016 72.265C166.016 830.078 83.985 695.312 83.985 541.014 83.985 310.545 269.532 124.998 500 124.998zm250 416.016c0 91.798 -50.78 173.829 -125 216.798l-41.015 -72.266c48.828 -29.297 82.031 -82.031 82.031 -144.532 0 -91.797 -74.219 -166.016 -166.016 -166.016s-166.016 74.22 -166.016 166.016c0 62.5 33.203 115.235 82.032 144.532L375 757.812c-74.219 -42.969 -125 -125 -125 -216.798 0 -138.672 111.328 -250 250 -250s250 111.328 250 250zm-250 -82.031c44.922 0 83.985 37.11 83.985 82.031S544.923 625 500 625s-83.984 -39.063 -83.984 -83.985S455.079 458.983 500 458.983z"/></svg>