<svg height="1000" width="1000" xmlns="http://www.w3.org/2000/svg"><path d="M916.018 666.015v-62.5c0 -35.157 -27.344 -62.5 -62.5 -62.5s-62.5 27.343 -62.5 62.5v62.5h125zm42.969 0c23.437 0 41.016 19.531 41.016 42.969V875c0 23.437 -17.579 41.015 -41.016 41.015H750.002c-23.438 0 -41.016 -17.578 -41.016 -41.015V708.984c0 -23.438 17.578 -42.97 41.016 -42.97v-62.5C750.002 546.875 796.877 500 853.518 500s105.469 46.875 105.469 103.516v62.5zM853.517 396.483c-115.234 0 -207.031 91.797 -207.031 207.032v119.14l-146.485 193.36L0 249.998C138.672 144.53 312.5 83.982 500.001 83.982s361.33 60.547 500.002 166.016L888.674 398.436c-11.719 -1.953 -23.437 -1.953 -35.156 -1.953z"/></svg>