<svg height="1000" width="1000" xmlns="http://www.w3.org/2000/svg"><path d="M708.986 583.983l207.032 207.032 -60.547 62.5L646.486 644.53v-31.25l-11.719 -11.719c-46.875 41.016 -109.375 64.454 -175.781 64.454 -50.782 0 -97.657 -13.672 -138.673 -37.11l62.5 -60.547c23.438 9.766 48.829 15.625 76.173 15.625 103.515 0 187.5 -83.984 187.5 -187.5s-83.985 -187.5 -187.5 -187.5 -187.5 83.984 -187.5 187.5h144.53L244.142 562.499 83.985 396.483H187.5c0 -146.485 121.095 -271.485 271.486 -271.485S730.47 246.092 730.47 396.483c0 68.36 -25.391 128.906 -66.407 175.782l11.719 11.718h33.203z"/></svg>