<svg height="1000" width="1000" xmlns="http://www.w3.org/2000/svg"><path d="M291.016 374.998h208.985v41.016H291.016v-41.016zm105.47 208.985c103.515 0 187.5 -83.984 187.5 -187.5S500 208.983 396.486 208.983s-187.501 83.984 -187.501 187.5 83.984 187.5 187.5 187.5zm250 0l207.032 207.032 -62.5 62.5L583.986 646.483V613.28l-11.719 -11.719c-46.875 41.016 -109.375 64.454 -175.782 64.454C246.095 666.015 125 546.874 125 396.483S246.094 124.998 396.485 124.998s269.532 121.094 269.532 271.485c0 66.406 -23.437 128.906 -64.453 175.782l11.719 11.718h33.203z"/></svg>