<?xml version="1.0" encoding="UTF-8" standalone="no"?>
<svg
   xmlns:dc="http://purl.org/dc/elements/1.1/"
   xmlns:cc="http://creativecommons.org/ns#"
   xmlns:rdf="http://www.w3.org/1999/02/22-rdf-syntax-ns#"
   xmlns:svg="http://www.w3.org/2000/svg"
   xmlns="http://www.w3.org/2000/svg"
   xmlns:sodipodi="http://sodipodi.sourceforge.net/DTD/sodipodi-0.dtd"
   xmlns:inkscape="http://www.inkscape.org/namespaces/inkscape"
   id="svg4"
   width="14"
   height="16"
   version="1.1"
   viewBox="0 0 14 16"
   sodipodi:docname="archive.svg"
   inkscape:version="0.92.3 (2405546, 2018-03-11)">
  <metadata
     id="metadata9">
    <rdf:RDF>
      <cc:Work
         rdf:about="">
        <dc:format>image/svg+xml</dc:format>
        <dc:type
           rdf:resource="http://purl.org/dc/dcmitype/StillImage" />
      </cc:Work>
    </rdf:RDF>
  </metadata>
  <defs
     id="defs7" />
  <sodipodi:namedview
     pagecolor="#ffffff"
     bordercolor="#666666"
     borderopacity="1"
     objecttolerance="10"
     gridtolerance="10"
     guidetolerance="10"
     inkscape:pageopacity="0"
     inkscape:pageshadow="2"
     inkscape:window-width="3840"
     inkscape:window-height="2050"
     id="namedview5"
     showgrid="false"
     inkscape:zoom="64"
     inkscape:cx="12.401434"
     inkscape:cy="6.8766752"
     inkscape:window-x="0"
     inkscape:window-y="54"
     inkscape:window-maximized="1"
     inkscape:current-layer="svg4" />
  <path
     d="M 1 1 A 1 1 0 0 0 0 2 L 0 4 A 1 1 0 0 0 1 5 L 1 14 A 1 1 0 0 0 2 15 L 12 15 A 1 1 0 0 0 13 14 L 13 5 A 1 1 0 0 0 14 4 L 14 2 A 1 1 0 0 0 13 1 L 1 1 z M 1 2 L 13 2 L 13 4 L 1 4 L 1 2 z M 2 5 L 12 5 L 12 14 L 2 14 L 2 5 z M 4 7 L 4 8 L 10 8 L 10 7 L 4 7 z "
     id="path4755" />
</svg>
