<?xml version="1.0" encoding="UTF-8" standalone="no"?>
<svg
   xmlns:dc="http://purl.org/dc/elements/1.1/"
   xmlns:cc="http://creativecommons.org/ns#"
   xmlns:rdf="http://www.w3.org/1999/02/22-rdf-syntax-ns#"
   xmlns:svg="http://www.w3.org/2000/svg"
   xmlns="http://www.w3.org/2000/svg"
   xmlns:sodipodi="http://sodipodi.sourceforge.net/DTD/sodipodi-0.dtd"
   xmlns:inkscape="http://www.inkscape.org/namespaces/inkscape"
   id="svg4"
   width="16"
   height="16"
   version="1.1"
   viewBox="0 0 16 16"
   sodipodi:docname="broadcast.svg"
   inkscape:version="0.92.3 (2405546, 2018-03-11)">
  <metadata
     id="metadata10">
    <rdf:RDF>
      <cc:Work
         rdf:about="">
        <dc:format>image/svg+xml</dc:format>
        <dc:type
           rdf:resource="http://purl.org/dc/dcmitype/StillImage" />
      </cc:Work>
    </rdf:RDF>
  </metadata>
  <defs
     id="defs8" />
  <sodipodi:namedview
     pagecolor="#ffffff"
     bordercolor="#666666"
     borderopacity="1"
     objecttolerance="10"
     gridtolerance="10"
     guidetolerance="10"
     inkscape:pageopacity="0"
     inkscape:pageshadow="2"
     inkscape:window-width="1157"
     inkscape:window-height="480"
     id="namedview6"
     showgrid="false"
     inkscape:zoom="14.75"
     inkscape:cx="8"
     inkscape:cy="8"
     inkscape:window-x="0"
     inkscape:window-y="54"
     inkscape:window-maximized="0"
     inkscape:current-layer="svg4" />
  <path
     d="M 7.5 0 A 7.497 7.497 0 0 0 4 14.130859 L 4 13.080078 C 2.14 11.920078 0.91015625 9.86 0.91015625 7.5 A 6.59 6.59 0 0 1 7.5 0.91015625 A 6.59 6.59 0 0 1 14.089844 7.5 A 6.553 6.553 0 0 1 11 13.080078 L 11 14.130859 C 13.37 12.880859 15 10.38 15 7.5 C 15 3.36 11.64 0 7.5 0 z M 7.5 2.9902344 C 5.02 2.9902344 3 5.0102344 3 7.4902344 C 3 8.5602344 3.39 9.5190625 4 10.289062 L 4 8.3105469 A 3.593 3.593 0 0 1 7.5 3.9101562 C 9.48 3.9101562 11.089844 5.52 11.089844 7.5 C 11.089844 7.78 11.06 8.0405469 11 8.3105469 L 11 10.289062 C 11.61 9.5190625 12 8.5502344 12 7.4902344 C 12 5.0102344 9.98 2.9902344 7.5 2.9902344 z M 7 6 C 6.45 6 6 6.45 6 7 L 6 8 C 6 8.55 6.45 9 7 9 L 6 9 C 5.45 9 5 9.45 5 10 L 5 12 L 6 12 L 6 15 C 6 15.55 6.45 16 7 16 L 8 16 C 8.55 16 9 15.55 9 15 L 9 12 L 10 12 L 10 10 C 10 9.45 9.55 9 9 9 L 8 9 C 8.55 9 9 8.55 9 8 L 9 7 C 9 6.45 8.55 6 8 6 L 7 6 z M 7 7 L 8 7 L 8 8 L 7 8 L 7 7 z M 6 10 L 9 10 L 9 11 L 8 11 L 8 15 L 7 15 L 7 11 L 6 11 L 6 10 z "
     id="path4766" />
</svg>
