<svg id="svg34" width="16" height="16" version="1.1" viewBox="0 0 16 16" xmlns="http://www.w3.org/2000/svg"><path id="path18244" d="m8.5098 1c-4.15 0-7.5098 3.36-7.5098 7.5s3.36 7.5 7.5 7.5 7.5-3.36 7.5-7.5c0-1.03-0.19984-2.0202-0.58984-2.9102l-1 1c0.19 0.61 0.30078 1.2502 0.30078 1.9102 0 3.42-2.7812 6.1992-6.2012 6.1992-3.42 0-6.209-2.7792-6.209-6.1992s2.7792-6.1992 6.1992-6.1992c1.2 0 2.3095 0.33945 3.2695 0.93945l0.94141-0.93945a7.459 7.459 0 0 0-4.2012-1.3008zm6.9902 1-6.5 5c-0.06-0.02-1 0-1 0-0.55 0-1 0.45-1 1v1c0 0.55 0.45 1 1 1h1c0.55 0 1-0.45 1-1v-0.91992l6-5.5801-0.5-0.5zm-7.5 2v1h1v-1h-1zm-3 1v1h1v-1h-1zm-1 3v1h1v-1h-1zm8 0v1h1v-1h-1z"/></svg>
