<svg id="svg4" width="16" height="16" version="1.1" viewBox="0 0 16 16" xmlns="http://www.w3.org/2000/svg"><path id="path22820" d="m1 1c-0.55 0-1 0.45-1 1v12c0 0.55 0.45 1 1 1h10c0.55 0 1-0.45 1-1v-1h-1v1h-10v-12h7l1 1h1.5l-2-2h-7.5zm7.5488 3a0.58 0.58 0 0 0-0.54883 0.57031v1.4297h1v-1h3.5l1.5 1.5v4.5h-5v-1h-1v1.4297a0.58 0.58 0 0 0 0.58203 0.57031h5.8359a0.58 0.58 0 0 0 0.58203-0.57031v-5.4297l-2.043-2h-4.375a0.58 0.58 0 0 0-0.033203 0zm-1.8809 1-4 3 4 3v-2h2.832v-2h-2.832v-2zm3.332 2v1h3v-1h-3zm0 2v1h2v-1h-2z"/></svg>
