<svg id="svg4" width="16" height="14" version="1.1" viewBox="0 0 16 14" xmlns="http://www.w3.org/2000/svg"><path id="path9240" d="m14.447 0a0.50028 0.50028 0 0 0-0.33203 0.14648l-2.1094 2.1094c-1.115-0.773-2.4403-1.3301-3.9453-1.3301-5.06 0-8.0605 6-8.0605 6 0 0 1.1618 2.3231 3.2578 4.0781l-2.0645 2.0645a0.5 0.5 0 1 0 0.70703 0.70703l12.922-12.922a0.50028 0.50028 0 0 0-0.375-0.85352zm-6.4473 2.9258a3.98 3.98 0 0 1 2.4785 0.85742l-1.4336 1.4336c-0.304-0.186-0.66092-0.29102-1.0449-0.29102-1.11 0-2 0.89-2 2a1.999 1.999 0 0 0 0.29297 1.0449l-1.4336 1.4316c-0.538-0.68-0.85938-1.5386-0.85938-2.4766 0-2.2 1.8-4 4-4zm5.8574 0.9707-1.9922 1.9922h-0.001953c0.089 0.331 0.13672 0.67911 0.13672 1.0371 0 2.22-1.78 4-4 4-0.358 0-0.70516-0.047718-1.0352-0.13672l-1.5664 1.5664a6.609 6.609 0 0 0 2.6621 0.57031c4.94 0 7.9395-6 7.9395-6a14.873 14.873 0 0 0-2.1426-3.0293z"/></svg>
