<svg id="svg4" width="12" height="16" version="1.1" viewBox="0 0 12 16" xmlns="http://www.w3.org/2000/svg"><path id="path4798" d="m1 1a1 1 0 0 0-1 1v12a1 1 0 0 0 1 1h10a1 1 0 0 0 1-1v-9.5l-3.5-3.5h-7.5zm0 1h4a0.68 0.68 0 0 0-0.31055 0.19922 1.08 1.08 0 0 0-0.22852 0.4707 4.22 4.22 0 0 0-0.091797 1.4707c0.06 0.609 0.1748 1.2098 0.3418 1.7988a21.78 21.78 0 0 1-1.1113 2.6602c-0.5 1-0.80016 1.6598-0.91016 1.8398a7.156 7.156 0 0 0-0.68945 0.30078c-0.362 0.165-0.699 0.38062-1 0.64062v-9.3809zm4.4941 0h2.5059l3 3v4.1406a3.743 3.743 0 0 0-0.64062-0.28125 4.221 4.221 0 0 0-0.75-0.10938c-0.411 3e-3 -0.82052 0.030078-1.2285 0.080078a3 3 0 0 1-1-0.64062 6.07 6.07 0 0 1-1.291-2.3301c0.111-0.661 0.17722-1.33 0.19922-2 0.02-0.25 0.02-0.5 0-0.75a1.05 1.05 0 0 0-0.19922-0.87891 0.82 0.82 0 0 0-0.5957-0.23047zm-0.064453 4.7891c-0.0020352 0.0066991-0.005768 0.012835-0.0078125 0.019531a5.65 5.65 0 0 0 1.168 2.082c0.275 0.237 0.59445 0.4163 0.93945 0.5293-0.64 0.09-1.2286 0.20008-1.8086 0.33008-0.618 0.15-1.2235 0.34684-1.8105 0.58984s0.21938-0.44 0.60938-1.25c0.3619-0.73372 0.66329-1.4983 0.90234-2.2812a5.65 5.65 0 0 1-0.0019531-0.0078126l0.0097656-0.011719zm2.5605 3.4102c0.447 0.216 0.91262 0.39525 1.3906 0.53125 0.403 0.11 0.81252 0.18847 1.2285 0.23047h0.38086v3.0391h-9.4902a0.743 0.743 0 0 1-0.16992 0 2.12 2.12 0 0 0 0.73047-0.43945 10.14 10.14 0 0 0 1.7793-2.3809c0.31-0.13 0.58055-0.23055 0.81055-0.31055l0.41992-0.13867c0.45-0.13 0.93945-0.23008 1.4395-0.33008s1.0005-0.16117 1.4805-0.20117z"/></svg>
