<svg id="svg4" width="12" height="16" version="1.1" viewBox="0 0 12 16" xmlns="http://www.w3.org/2000/svg"><path id="path18324" d="m7 0-3 3 3 3v-2h1c0.27 0.02 0.47945 0.11055 0.68945 0.31055s0.30055 0.41945 0.31055 0.68945v6.2793a1.993 1.993 0 0 0 1 3.7207 1.993 1.993 0 0 0 1-3.7207v-6.2793c-0.03-0.78-0.33945-1.4705-0.93945-2.0605-0.6-0.59-1.2805-0.90945-2.0605-0.93945h-1v-2zm-3 3c0-1.11-0.89-2-2-2a1.993 1.993 0 0 0-1 3.7207v6.5586a1.993 1.993 0 0 0 1 3.7207 1.993 1.993 0 0 0 1-3.7207v-6.5586c0.59-0.34 1-0.9807 1-1.7207zm-2-1.1992c0.65 0 1.1992 0.54922 1.1992 1.1992 0 0.65-0.54922 1.1992-1.1992 1.1992-0.66 0-1.1992-0.54922-1.1992-1.1992s0.54922-1.1992 1.1992-1.1992zm0 10c0.65 0 1.1992 0.54922 1.1992 1.1992 0 0.66-0.54922 1.1992-1.1992 1.1992s-1.1992-0.54922-1.1992-1.1992 0.54922-1.1992 1.1992-1.1992zm8 0c0.65 0 1.1992 0.54922 1.1992 1.1992s-0.54922 1.1992-1.1992 1.1992c-0.66 0-1.1992-0.54922-1.1992-1.1992s0.54922-1.1992 1.1992-1.1992z"/></svg>
