<svg id="svg4" width="10" height="16" version="1.1" viewBox="0 0 10 16" xmlns="http://www.w3.org/2000/svg"><path id="path9263" d="m1.9902 1c-1.11 0-1.9902 0.89-1.9902 2a2 2 0 0 0 1 1.7207v6.5586c-0.59 0.35-1 0.9907-1 1.7207 0 1.11 0.89 2 2 2s2-0.89 2-2c0-0.53-0.1993-0.99938-0.5293-1.3594 0.09-0.06 0.47984-0.4107 0.58984-0.4707 0.25-0.11 0.55945-0.16992 0.93945-0.16992 1.05-0.05 1.95-0.45 2.75-1.25s1.2-1.9795 1.25-3.0195h-0.019531c0.61-0.36 1.0195-1.0005 1.0195-1.7305 0-1.11-0.89-2-2-2a1.993 1.993 0 0 0-1 3.7207v0.29883c-0.02 0.52-0.23086 0.98086-0.63086 1.3809s-0.85891 0.60891-1.3789 0.62891c-0.83 0.02-1.48 0.16117-2 0.45117v-4.7598a1.993 1.993 0 0 0-1-3.7207zm0.0097656 0.80078c0.66 0 1.1992 0.54922 1.1992 1.1992 0 0.65-0.54922 1.1992-1.1992 1.1992-0.65 0-1.1992-0.54922-1.1992-1.1992s0.54922-1.1992 1.1992-1.1992zm6 2.0098c0.65 0 1.1992 0.54922 1.1992 1.1992s-0.54922 1.2012-1.1992 1.2012c-0.66 0-1.1992-0.55117-1.1992-1.2012 0-0.65 0.54922-1.1992 1.1992-1.1992zm-6 8c0.65 0 1.1992 0.54922 1.1992 1.1992 0 0.65-0.54922 1.2012-1.1992 1.2012-0.66 0-1.1992-0.55117-1.1992-1.2012s0.54922-1.1992 1.1992-1.1992z"/></svg>
