<svg id="svg14" width="14" height="16" version="1.1" viewBox="0 0 14 16" xmlns="http://www.w3.org/2000/svg"><path id="path18293" d="m9 0-3 3 3 3v-2h1c0.27 0.02 0.47945 0.11055 0.68945 0.31055s0.30055 0.41945 0.31055 0.68945v6.2793a1.993 1.993 0 0 0 1 3.7207 1.993 1.993 0 0 0 1-3.7207v-6.2793c-0.03-0.78-0.33945-1.4705-0.93945-2.0605s-1.2805-0.90945-2.0605-0.93945h-1v-2zm-7 1a1.993 1.993 0 0 0-1 3.7207v6.2793c0.03 0.78 0.33945 1.4705 0.93945 2.0605s1.2805 0.90945 2.0605 0.93945h1v2l3-3-3-3v2h-1c-0.27-0.02-0.47945-0.11055-0.68945-0.31055s-0.30055-0.41945-0.31055-0.68945v-6.2793a1.993 1.993 0 0 0-1-3.7207zm0 0.80078c0.66 0 1.1992 0.54922 1.1992 1.1992 0 0.65-0.54922 1.1992-1.1992 1.1992-0.65 0-1.1992-0.54922-1.1992-1.1992s0.54922-1.1992 1.1992-1.1992zm10 10c0.65 0 1.1992 0.54922 1.1992 1.1992s-0.54922 1.1992-1.1992 1.1992c-0.66 0-1.1992-0.54922-1.1992-1.1992s0.54922-1.1992 1.1992-1.1992z"/></svg>
