<?xml version="1.0" encoding="UTF-8" standalone="no"?>
<svg
   xmlns:dc="http://purl.org/dc/elements/1.1/"
   xmlns:cc="http://creativecommons.org/ns#"
   xmlns:rdf="http://www.w3.org/1999/02/22-rdf-syntax-ns#"
   xmlns:svg="http://www.w3.org/2000/svg"
   xmlns="http://www.w3.org/2000/svg"
   xmlns:sodipodi="http://sodipodi.sourceforge.net/DTD/sodipodi-0.dtd"
   xmlns:inkscape="http://www.inkscape.org/namespaces/inkscape"
   id="svg4"
   width="16"
   height="16"
   version="1.1"
   viewBox="0 0 16 16"
   sodipodi:docname="github-action.svg"
   inkscape:version="0.92.3 (2405546, 2018-03-11)">
  <metadata
     id="metadata9">
    <rdf:RDF>
      <cc:Work
         rdf:about="">
        <dc:format>image/svg+xml</dc:format>
        <dc:type
           rdf:resource="http://purl.org/dc/dcmitype/StillImage" />
      </cc:Work>
    </rdf:RDF>
  </metadata>
  <defs
     id="defs7" />
  <sodipodi:namedview
     pagecolor="#ffffff"
     bordercolor="#666666"
     borderopacity="1"
     objecttolerance="10"
     gridtolerance="10"
     guidetolerance="10"
     inkscape:pageopacity="0"
     inkscape:pageshadow="2"
     inkscape:window-width="3840"
     inkscape:window-height="2050"
     id="namedview5"
     showgrid="false"
     inkscape:zoom="14.75"
     inkscape:cx="-16.983051"
     inkscape:cy="8"
     inkscape:window-x="0"
     inkscape:window-y="54"
     inkscape:window-maximized="1"
     inkscape:current-layer="svg4" />
  <path
     d="M 8.0292969 1 A 1 1 0 0 0 7 2 L 1 2 C 0.45 2 0 2.45 0 3 L 0 13 C 0 13.55 0.45 14 1 14 L 7 14 A 1 1 0 0 0 9 14 L 15 14 C 15.55 14 16 13.55 16 13 L 16 3 C 16 2.45 15.55 2 15 2 L 9 2 A 1 1 0 0 0 8.0292969 1 z M 1 3 L 15 3 L 15 13 L 1 13 L 1 3 z M 12.5 4 A 1.5 1.5 0 0 0 12.5 7 A 1.5 1.5 0 0 0 12.5 4 z "
     id="path4753" />
</svg>
