<svg id="svg4" width="12" height="16" version="1.1" viewBox="0 0 12 16" xmlns="http://www.w3.org/2000/svg"><path id="path4751" d="m3.7266 3c-0.892 0-1.8182 0.29383-2.5352 0.92383-0.737 0.648-1.1914 1.6004-1.1914 2.7754 0 0.962 0.43336 1.8909 0.94336 2.6719 0.523 0.798 1.2015 1.5562 1.8535 2.2012a24.57 24.57 0 0 0 1.793 1.5996c0.154 0.125 1.4316 1.0469 1.4316 1.0469s0.93767-0.67992 1.3887-1.0449a24.563 24.563 0 0 0 1.793-1.6016c0.652-0.645 1.3315-1.4031 1.8535-2.2031 0.509-0.779 0.94336-1.7079 0.94336-2.6699 0-1.175-0.45441-2.1274-1.1914-2.7754-0.717-0.631-1.6432-0.92383-2.5352-0.92383-1.002 0-1.7854 0.48553-2.2734 0.89453-0.487-0.409-1.2704-0.89453-2.2734-0.89453zm0 2c0.344 0 0.68714 0.17169 0.99414 0.42969 0.191 0.161 0.33208 0.31522 0.45508 0.44922 0.255 0.278 0.43217 0.4707 0.82617 0.4707a0.868 0.868 0 0 0 0.49609-0.13867c0.146-0.096 0.26453-0.23286 0.39453-0.38086 0.112-0.13 0.23267-0.27039 0.38867-0.40039 0.306-0.258 0.64723-0.42969 0.99023-0.42969 0.472 0 0.90984 0.15678 1.2148 0.42578 0.287 0.252 0.51367 0.64844 0.51367 1.2734 0 0.388-0.18919 0.92217-0.61719 1.5762-0.416 0.636-0.98794 1.284-1.5859 1.877-0.595 0.589-1.1925 1.0988-1.6445 1.4648l-0.15039 0.12305a22.6 22.6 0 0 1-1.7988-1.5879c-0.599-0.593-1.1699-1.241-1.5859-1.877-0.428-0.655-0.61719-1.1882-0.61719-1.5762 0-0.625 0.22667-1.0214 0.51367-1.2734 0.305-0.27 0.74189-0.42578 1.2129-0.42578z"/></svg>
