<svg id="svg24" width="16" height="16" version="1.1" viewBox="0 0 16 16" xmlns="http://www.w3.org/2000/svg"><path id="path18244" d="m4 4a4 4 0 0 0 0 8c0.69 0 1.3396-0.30214 1.8516-0.61914a9.587 9.587 0 0 0 1.457-1.1543 15.45 15.45 0 0 0 0.69141-0.69922 14.47 14.47 0 0 0 0.69141 0.69922 9.464 9.464 0 0 0 1.457 1.1543c0.512 0.318 1.1606 0.61914 1.8516 0.61914a4 4 0 0 0 0-8c-0.69 0-1.3396 0.30214-1.8516 0.61914a9.587 9.587 0 0 0-1.457 1.1543c-0.255 0.242-0.48941 0.48122-0.69141 0.69922-0.202-0.218-0.43641-0.45922-0.69141-0.69922-0.423-0.4-0.92603-0.8243-1.457-1.1543-0.512-0.318-1.1606-0.61914-1.8516-0.61914zm0 2c0.137 0 0.40288 0.073359 0.79688 0.31836a7.49 7.49 0 0 1 1.1367 0.9082 14.22 14.22 0 0 1 0.75391 0.77344c-0.21 0.232-0.46891 0.50344-0.75391 0.77344a7.49 7.49 0 0 1-1.1367 0.9082c-0.394 0.245-0.65988 0.31836-0.79688 0.31836a2 2 0 0 1 0-4zm8 0a2 2 0 0 1 0 4c-0.137 0-0.40288-0.073359-0.79688-0.31836-0.374-0.232-0.76672-0.5582-1.1367-0.9082-0.285-0.27-0.54391-0.54144-0.75391-0.77344 0.21-0.232 0.46891-0.50344 0.75391-0.77344a7.483 7.483 0 0 1 1.1367-0.9082c0.394-0.245 0.65988-0.31836 0.79688-0.31836z"/></svg>
