<svg id="svg24" width="14" height="16" version="1.1" viewBox="0 0 14 16" xmlns="http://www.w3.org/2000/svg"><path id="path13755" d="m7 0.98047c-3.86 0-7 3.12-7 7 0 3.88 3.14 7 7 7s7-3.14 7-7c0-3.86-3.14-7-7-7zm0 1.3086c3.14 0 5.6992 2.5414 5.6992 5.6914 0 3.15-2.5592 5.6992-5.6992 5.6992-3.14 0-5.6992-2.5592-5.6992-5.6992 2e-7 -3.14 2.5592-5.6797 5.6992-5.6797v-0.011719zm0 1.7207c-0.28 0-0.50922 0.099294-0.69922 0.2793-0.19 0.18-0.28125 0.42117-0.28125 0.70117a0.942 0.942 0 0 0 0.28125 0.69922c0.18 0.19 0.41922 0.30078 0.69922 0.30078a1 1 0 0 0 0.69922-0.30078c0.19-0.18 0.28125-0.41922 0.28125-0.69922 0-0.28-0.10125-0.51117-0.28125-0.70117-0.18-0.19-0.41922-0.2793-0.69922-0.2793zm-1 2.9805c-0.27 0.02-0.47945 0.13055-0.68945 0.31055-0.2 0.2-0.30055 0.43945-0.31055 0.68945h1v3c0.02 0.27 0.11055 0.49945 0.31055 0.68945 0.2 0.2 0.41945 0.31055 0.68945 0.31055h1c0.27 0 0.47945-0.11055 0.68945-0.31055 0.2-0.19 0.30055-0.41945 0.31055-0.68945h-1v-3c-0.02-0.25-0.11055-0.47945-0.31055-0.68945-0.2-0.19-0.41945-0.30055-0.68945-0.31055h-1z"/></svg>
