<svg id="svg14" width="13" height="16" version="1.1" viewBox="0 0 13 16" xmlns="http://www.w3.org/2000/svg"><path id="path9282" d="m9 0v1a1 1 0 0 0-1 1h-1a1 1 0 0 0-1 1v1h-5c-0.55 0-1 0.45-1 1v9c0 0.55 0.45 1 1 1h1v1l1-0.5 1 0.5v-1h4c0.55 0 1-0.45 1-1v-9c0-0.55-0.45-1-1-1h-1v-1h1a1 1 0 0 0 1-1h1a1 1 0 0 0 1 1h1v13h1v-13a1 1 0 0 0-1-1h-1a1 1 0 0 0-1-1v-1h-1zm1 4v2h1v-2h-1zm-8 1h6v7h-6v-7zm1 1v1h1v-1h-1zm7 1v2h1v-2h-1zm-7 1v1h1v-1h-1zm0 2v1h1v-1h-1zm7 0v2h1v-2h-1zm-9 3h1v1h-1v-1zm3 0h4v1h-4v-1zm6 0v2h1v-2h-1z"/></svg>
