<svg id="svg34" width="14" height="16" version="1.1" viewBox="0 0 14 16" xmlns="http://www.w3.org/2000/svg"><path id="path22736" d="m7 1c-2.19 0-4.1302 1.0198-5.4102 2.5898l-1.5898-1.5898v4h1.6699 2.3301l-1.5-1.5c1.05-1.33 2.67-2.1992 4.5-2.1992 3.14 0 5.6992 2.5592 5.6992 5.6992 0 0.34-0.029844 0.67-0.089844 1h1.3105c0.05-0.33 0.080078-0.66 0.080078-1 0-3.86-3.14-7-7-7zm-1 3v5h2v-5h-2zm-5.9199 3c-0.05 0.33-0.080078 0.66-0.080078 1 0 3.86 3.14 7 7 7 2.19 0 4.1302-1.0198 5.4102-2.5898l1.5898 1.5898v-4h-1.6699-2.3301l1.5 1.5c-1.05 1.33-2.67 2.1992-4.5 2.1992a5.71 5.71 0 0 1-5.6992-5.6992c0-0.34 0.029844-0.67 0.089844-1h-1.3105zm5.9199 3v2h2v-2h-2z"/></svg>
