<svg id="svg22" width="16" height="16" version="1.1" viewBox="0 0 16 16" xmlns="http://www.w3.org/2000/svg"><path id="path20" d="m8 0c-4.42 0-8 3.58-8 8 0 3.54 2.2907 6.5298 5.4707 7.5898 0.4 0.07 0.54883-0.16891 0.54883-0.37891 0-0.19-0.0097656-0.82024-0.0097656-1.4902-2.01 0.37-2.5295-0.49141-2.6895-0.94141-0.09-0.23-0.48031-0.93891-0.82031-1.1289-0.28-0.15-0.67977-0.52125-0.0097656-0.53125 0.63-0.01 1.0805 0.58031 1.2305 0.82031 0.72 1.21 1.8701 0.87016 2.3301 0.66016 0.07-0.52 0.27977-0.87031 0.50977-1.0703-1.78-0.2-3.6406-0.88922-3.6406-3.9492 0-0.87 0.31031-1.5904 0.82031-2.1504-0.08-0.2-0.35992-1.0191 0.080078-2.1191 0 0 0.66922-0.20969 2.1992 0.82031 0.64-0.18 1.32-0.27148 2-0.27148 0.68 0 1.36 0.091484 2 0.27148 1.53-1.04 2.2012-0.82031 2.2012-0.82031 0.44 1.1 0.16008 1.9191 0.080078 2.1191 0.51 0.56 0.81836 1.2704 0.81836 2.1504 0 3.07-1.8684 3.7492-3.6484 3.9492 0.29 0.25 0.53906 0.73047 0.53906 1.4805 0 1.07-0.009766 1.9312-0.009766 2.2012 0 0.21 0.15078 0.45891 0.55078 0.37891a8.013 8.013 0 0 0 5.4492-7.5898c0-4.42-3.58-8-8-8z"/></svg>
