<svg id="svg34" width="16" height="16" version="1.1" viewBox="0 0 16 16" xmlns="http://www.w3.org/2000/svg"><path id="path18208" d="m8.0098 2.7852a0.34 0.34 0 0 0-0.099609 0.015625l-7.6406 2.3789a0.35 0.35 0 0 0 0 0.66992l1.7305 0.55078v1.7695c-0.3 0.17-0.5 0.49938-0.5 0.85938 0 0.19 0.050625 0.36 0.14062 0.5-0.08 0.14-0.14062 0.31-0.14062 0.5v2.5801c0 0.55 2 0.55 2 0v-2.5801c0-0.19-0.050625-0.36-0.14062-0.5 0.08-0.14 0.14062-0.31 0.14062-0.5 0-0.38-0.2-0.68938-0.5-0.85938v-1.4492l4.8906 1.5293c0.06 0.02 0.13922 0.02 0.19922 0l7.6406-2.3809a0.35 0.35 0 0 0 0-0.66992l-7.6309-2.3887 0.0097656-0.0097657a0.34 0.34 0 0 0-0.099609-0.015625zm0.0097656 2.2148c0.55 0 1 0.22 1 0.5s-0.45 0.5-1 0.5c-0.55 0-1-0.22-1-0.5s0.45-0.5 1-0.5zm-4.0195 3v2.5c0 1 1.8 1.5 4 1.5s4-0.5 4-1.5v-2.5l-3.8301 1.1895c-0.10402 0.02837-0.21794 0.025286-0.33984 0l-3.8301-1.1895z"/></svg>
