<svg id="svg4" width="16" height="16" version="1.1" viewBox="0 0 16 16" xmlns="http://www.w3.org/2000/svg"><path id="path2" d="m4.5 1c-1.133 0-2.442 0.581-2.5 3-0.058 2.41 0.159 2.379 1 3 0.229 0.591 0 1 0 1s-3 1.366-3 4c0 0.439 0.46 1 1 1h6c1e-3 0.552 0.45514 0.99805 0.99414 0.99805h7.0059c0.55 0 1-0.561 1-1 0-2.634-3.0059-4-3.0059-4s-0.229-0.41 0-1c0.842-0.62 1.059-0.59 1-3-0.058-2.419-1.3611-3-2.4941-3s-2.442 0.581-2.5 3c-0.058 2.41 0.159 2.38 1 3 0.229 0.591 0 1 0 1s-0.80406 0.37088-1.5801 1.0898c-0.871-1.377-2.4199-2.0879-2.4199-2.0879s-0.229-0.41 0-1c0.841-0.621 1.058-0.59 1-3-0.058-2.42-1.367-3-2.5-3z"/></svg>
