<svg id="svg24" width="16" height="16" version="1.1" viewBox="0 0 16 16" xmlns="http://www.w3.org/2000/svg"><path id="path18212" d="m8.4707 1.5371a1.4 1.4 0 0 0-0.2207 0.023438l-6.5 1.7402c-0.45 0.13-0.75 0.51875-0.75 0.96875v7.4707c0 0.45 0.3 0.8407 0.75 0.9707l6.5 1.7285c0.16 0.05 0.34 0.05 0.5 0l6.5-1.7285c0.45-0.13 0.75-0.5207 0.75-0.9707v-7.4707c0-0.45-0.3-0.83875-0.75-0.96875l-6.5-1.7402a1.4 1.4 0 0 0-0.2793-0.023438zm0.029297 0.73242 6.5 1.7305-2 0.5293-6.5-1.7285 2-0.53125zm-4 1.0605 6.5 1.7305-2.5 0.66992-6.5-1.7305 2.5-0.66992zm-2.5 1.6699 6 1.6094v6.75l-6-1.5898v-6.7695zm13 0v6.7695l-6 1.5898v-6.75l2-0.54883v2.4395l2-0.5293v-2.4414l2-0.5293z"/></svg>
