<svg id="svg4" width="14" height="16" version="1.1" viewBox="0 0 14 16" xmlns="http://www.w3.org/2000/svg"><path id="path4755" d="m7 1c-3.86 0-7 3.14-7 7s3.14 7 7 7 7-3.14 7-7-3.14-7-7-7zm0 1.3008c3.14 0 5.6992 2.5592 5.6992 5.6992s-2.5592 5.6992-5.6992 5.6992a5.71 5.71 0 0 1-5.6992-5.6992c0-3.14 2.5592-5.6992 5.6992-5.6992zm0 1.6992c-1.5 0-3 1.5-3 3h2v-0.5c0-0.28 0.22-0.5 0.5-0.5h1c0.28 0 0.5 0.22 0.5 0.5v1c0 0.28-0.22 0.5-0.5 0.5h-0.5c-0.55 0-1 0.45-1 1h2s2-0.36 2-2.5c0-1.5-1.5-2.5-3-2.5zm-1 6v2h2v-2h-2z"/></svg>
