<svg id="svg14" width="16" height="16" version="1.1" viewBox="0 0 16 16" xmlns="http://www.w3.org/2000/svg"><path id="path18299" d="m1.8594 0.33008a0.651 0.651 0 0 0-0.44922 0.18945c-0.93 0.96-1.4004 2.2207-1.4004 3.4707 0 1.26 0.47039 2.5205 1.4004 3.4805 0.25 0.26 0.66016 0.26 0.91016 0s0.25-0.68141 0-0.94141c-0.68-0.7-1.0195-1.6191-1.0195-2.5391 0-0.92 0.33953-1.841 1.0195-2.541a0.66 0.66 0 0 0 0.0097656-0.92969 0.651 0.651 0 0 0-0.4707-0.18945zm12.281 0.0039063a0.628 0.628 0 0 0-0.46094 0.19531c-0.25 0.26-0.25 0.68141 0 0.94141 0.68 0.7 1.0195 1.6191 1.0195 2.5391s-0.33953 1.831-1.0195 2.541c-0.25 0.26-0.25 0.67945 0 0.93945a0.651 0.651 0 0 0 0.91992 0c0.93-0.96 1.4004-2.2205 1.4004-3.4805a5.048 5.048 0 0 0-1.4102-3.4805 0.628 0.628 0 0 0-0.44922-0.19531zm-9.8008 1.3652c-0.16 0-0.32922 0.061406-0.44922 0.19141-0.57 0.58-0.85156 1.3494-0.85156 2.1094s0.29156 1.5294 0.85156 2.1094c0.25 0.25 0.65844 0.25 0.89844 0 0.25-0.25 0.25-0.66992 0-0.91992-0.32-0.33-0.47852-0.75945-0.47852-1.1895s0.15852-0.85945 0.47852-1.1895c0.25-0.26 0.25-0.66992 0-0.91992a0.613 0.613 0 0 0-0.44922-0.19141zm7.3125 0.0039062a0.634 0.634 0 0 0-0.44141 0.1875c-0.25 0.25-0.25 0.66992 0 0.91992 0.32 0.33 0.47852 0.75945 0.47852 1.1895s-0.15852 0.85945-0.47852 1.1895c-0.25 0.26-0.25 0.66992 0 0.91992a0.63 0.63 0 0 0 0.89844 0c0.57-0.58 0.85156-1.3494 0.85156-2.1094 0-0.76-0.28156-1.5294-0.85156-2.1094a0.634 0.634 0 0 0-0.45703-0.1875zm-3.5645 0.67773a1.62 1.62 0 0 0-1.6875 1.6191c-0.01 0.89 0.71914 1.6191 1.6191 1.6191a1.62 1.62 0 0 0 0.068359-3.2383zm-1.2676 4.2383-3.1504 8.3711h1.4902l0.85938-1h4l0.83984 1h1.4902l-3.1387-8.3711c-0.38 0.2-0.78141 0.30078-1.1914 0.30078-0.41 0-0.82922-0.10078-1.1992-0.30078zm1.1895 0.78125 1.0098 3.5996h-2l0.99023-3.5996zm-0.99023 4.5898h2l1 1h-4l1-1z"/></svg>
