<svg id="svg14" width="10" height="16" version="1.1" viewBox="0 0 10 16" xmlns="http://www.w3.org/2000/svg"><path id="path18272" d="m2 1a1.993 1.993 0 0 0-1 3.7207v1.7793l3 3v1.7793a1.993 1.993 0 0 0 1 3.7207 1.993 1.993 0 0 0 1-3.7207v-1.7793l3-3v-1.7793a1.993 1.993 0 0 0-1-3.7207 1.993 1.993 0 0 0-1 3.7207v1.2793l-2 2-2-2v-1.2793a1.993 1.993 0 0 0-1-3.7207zm0 0.80078c0.65 0 1.1992 0.54922 1.1992 1.1992 0 0.65-0.54922 1.1992-1.1992 1.1992-0.66 0-1.1992-0.54922-1.1992-1.1992s0.54922-1.1992 1.1992-1.1992zm6 0c0.65 0 1.1992 0.54922 1.1992 1.1992s-0.54922 1.1992-1.1992 1.1992c-0.66 0-1.1992-0.54922-1.1992-1.1992 0-0.65 0.54922-1.1992 1.1992-1.1992zm-3 10c0.65 0 1.1992 0.54922 1.1992 1.1992 0 0.65-0.54922 1.1992-1.1992 1.1992-0.66 0-1.1992-0.54922-1.1992-1.1992 0-0.65 0.54922-1.1992 1.1992-1.1992z"/></svg>
