<svg id="svg14" width="16" height="16" version="1.1" viewBox="0 0 16 16" xmlns="http://www.w3.org/2000/svg"><path id="path22790" d="m16 0s-0.38008 0.079297-1.0801 0.2793c-0.69 0.2-1.5606 0.56008-2.6406 1.0801 0.07 0.7 0.31117 1.2506 0.70117 1.6406s0.96016 0.6407 1.6602 0.7207c0.51-1.08 0.85859-1.9602 1.0586-2.6602 0.21-0.68 0.30078-1.0605 0.30078-1.0605zm-4.8008 1.9297c-0.58 0.33-1.1585 0.70086-1.7285 1.1309-0.58 0.44-1.1414 0.93852-1.6914 1.4785-0.7 0.7-1.3293 1.8112-1.7793 2.4512h-3l-3 3.0098h3l2-2c-0.34 0.77-1.02 2.98-1 3l1 1c0.02 0.02 2.23-0.64 3-1l-2 2v3l3-3v-3c0.64-0.45 1.7492-1.0893 2.4492-1.7793 0.55-0.55 1.0507-1.1312 1.4707-1.7012 0.44-0.58 0.81062-1.1587 1.1406-1.7188-0.36-0.08-0.70125-0.18984-1.0312-0.33984a3.39 3.39 0 0 1-0.85938-0.63086c-0.27-0.27-0.47086-0.55086-0.63086-0.88086-0.16-0.31-0.26984-0.65953-0.33984-1.0195z"/></svg>
