<svg id="svg34" width="16" height="16" version="1.1" viewBox="0 0 16 16" xmlns="http://www.w3.org/2000/svg"><path id="path18206" d="m7 0c-3.31 0-6 2.69-6 6s2.69 6 6 6c1.3 0 2.4807-0.40938 3.4707-1.1094l3.8301 3.8086c0.19 0.2 0.44922 0.30078 0.69922 0.30078s0.51922-0.090781 0.69922-0.30078a0.996 0.996 0 0 0 0-1.4102v0.011719l-3.8086-3.8301a5.93 5.93 0 0 0 1.1094-3.4707c0-3.31-2.69-6-6-6zm0 1.3008c2.59 0 4.6992 2.1092 4.6992 4.6992s-2.1092 4.6992-4.6992 4.6992-4.6992-2.1092-4.6992-4.6992c0-2.59 2.1092-4.6992 4.6992-4.6992z"/></svg>
