<svg id="svg24" width="16" height="16" version="1.1" viewBox="0 0 16 16" xmlns="http://www.w3.org/2000/svg"><path id="path22766" d="m8 0c-4.42 0-8 3.58-8 8s3.58 8 8 8 8-3.58 8-8-3.58-8-8-8zm-0.076172 1.209a6.59 6.59 0 0 1 0.076172 0.0019531c0.92 0 1.8106 0.1693 2.6406 0.5293 0.81 0.34 1.5499 0.82922 2.1699 1.4492s1.1092 1.3599 1.4492 2.1699c0.36 0.83 0.5293 1.7206 0.5293 2.6406 0 0.92-0.1693 1.8106-0.5293 2.6406-0.34 0.81-0.82922 1.5499-1.4492 2.1699a6.72 6.72 0 0 1-2.1699 1.4492c-0.83 0.36-1.7206 0.5293-2.6406 0.5293-0.92 0-1.8106-0.1693-2.6406-0.5293-0.81-0.34-1.5499-0.82922-2.1699-1.4492a6.773 6.773 0 0 1-1.4492-2.1699 6.59 6.59 0 0 1-0.5293-2.6406c0-0.92 0.1693-1.8106 0.5293-2.6406 0.34-0.81 0.82922-1.5499 1.4492-2.1699s1.3599-1.1092 2.1699-1.4492a6.59 6.59 0 0 1 2.5645-0.53125zm-2.7246 3.8105c-0.67 0-1.1992 0.53141-1.1992 1.1914v0.58984c0 0.67 0.52922 1.1992 1.1992 1.1992h0.58984c0.66 0 1.1914-0.52922 1.1914-1.1992v-0.58984c0-0.66-0.53141-1.1914-1.1914-1.1914h-0.58984zm5 0c-0.67 0-1.1992 0.53141-1.1992 1.1914v0.58984c0 0.67 0.52922 1.1992 1.1992 1.1992h0.58984c0.66 0 1.1914-0.52922 1.1914-1.1992v-0.58984c0-0.66-0.53141-1.1914-1.1914-1.1914h-0.58984zm-6.5391 3.9805c-0.43 0-0.80016 0.61-0.66016 1 0.72 1.87 2.91 3 5 3s4.28-1.12 5-3c0.14-0.39-0.34-1-0.75-1h-8.5898z"/></svg>
