<svg id="svg4" width="12" height="16" version="1.1" viewBox="0 0 12 16" xmlns="http://www.w3.org/2000/svg"><path id="path4751" d="m10.9 2-1.3105 1.2598c-2.36-1.74-5.6996-1.569-7.8496 0.54102-1.24 1.23-1.8005 2.849-1.7305 4.459l1.75 0.34961a4.17 4.17 0 0 1 1.2012-3.6094 4.346 4.346 0 0 1 5.4082-0.53906l-1.1699 1.1387 4.3008 0.59961-0.59961-4.1992zm-0.66016 5.4004a4.15 4.15 0 0 1-1.2012 3.5996 4.346 4.346 0 0 1-5.4082 0.53906l1.1699-1.1387-4.3008-0.59961 0.59961 4.1992 1.3105-1.2598c2.36 1.74 5.6998 1.569 7.8398-0.54102a5.876 5.876 0 0 0 1.7402-4.459l-1.75-0.33984z"/></svg>
