<svg id="svg34" width="15" height="16" version="1.1" viewBox="0 0 15 16" xmlns="http://www.w3.org/2000/svg"><path id="path18264" d="m3.5 1.6094c-1.37 0-2.5 1.13-2.5 2.5v2.4707c0 0.66 0.27047 1.2995 0.73047 1.7695l6.0586 6.0605c0.39 0.39 1.0202 0.39 1.4102 0l4.5898-4.5898a0.996 0.996 0 0 0 0-1.4102l-6.0586-6.0703c-0.47-0.47-1.1095-0.73047-1.7695-0.73047h-2.4609zm0 0.91016h2.4707c0.42 0 0.82891 0.1607 1.1289 0.4707l6.1406 6.1289-4.7305 4.7305-6.1289-6.1504c-0.31-0.3-0.4707-0.69891-0.4707-1.1289v-2.4609c1e-7 -0.88 0.71984-1.5898 1.5898-1.5898zm-0.5 1.0898v2h2.0098v-2h-2-0.0097656z"/></svg>
