<svg id="svg29" width="14" height="16" version="1.1" viewBox="0 0 14 16" xmlns="http://www.w3.org/2000/svg"><path id="path22729" d="m6 0v1h1v-1h-1zm-5 1v1h1v-1h-1zm9.8008 1.1172a0.51 0.51 0 0 0-0.25 0.082031l-1.2012 0.83008 1.8398 3.2012 1.3301-0.64062c0.27-0.13 0.3607-0.43922 0.2207-0.69922l-1.4707-2.5215a0.51 0.51 0 0 0-0.46875-0.25195zm-6.8008 0.88281v1h1v-1h-1zm4.5098 0.60938 0.0019532 0.0039062 0.0078124-0.0039062h-0.0097656zm0.0019532 0.0039062-5.791 3.9473 1.2285 2.1387 6.3301-3.0293-1.7676-3.0566zm-6.6211 4.5176-1.2715 0.85938 0.011719 0.0097656a0.52 0.52 0 0 0-0.16016 0.66992l0.54883 0.91992c0.13 0.23 0.41062 0.30922 0.64062 0.19922l1.3906-0.6582-1.1602-2zm6.1094 0.86914-2 1-2 5h1l2-5v6h1v-5l2 4h1l-3-6z"/></svg>
