<svg id="svg14" width="16" height="16" version="1.1" viewBox="0 0 16 16" xmlns="http://www.w3.org/2000/svg"><path id="path9259" d="m8.332 2.0645c-0.21123-0.024492-0.43508 0.038594-0.61133 0.21484l-3.7207 3.7207h-2c-0.55 0-1 0.45-1 1v2c0 0.55 0.45 1 1 1h2l3.7207 3.7207c0.47 0.47 1.2793 0.13875 1.2793-0.53125v-10.379c0-0.41875-0.31592-0.70527-0.66797-0.74609zm5.3281 0.27539v0.019531l-0.66992 0.66992a6.996 6.996 0 0 1 2.0605 4.9805c0 1.94-0.78055 3.7005-2.0605 4.9805l0.66992 0.66992a7.973 7.973 0 0 0 2.3398-5.6602c0-2.22-0.88984-4.2202-2.3398-5.6602zm-1.4102 1.4297-0.68945 0.66992a5.05 5.05 0 0 1 1.4785 3.5801c0 1.39-0.55852 2.6605-1.4785 3.5605l0.68945 0.66992a5.971 5.971 0 0 0 1.75-4.2305c0-1.65-0.67-3.16-1.75-4.25zm-1.4199 1.4199-0.66992 0.66992c0.55 0.55 0.89062 1.3102 0.89062 2.1602 0 0.85-0.34062 1.6002-0.89062 2.1602l0.66992 0.66992c0.72-0.74 1.1699-1.7401 1.1699-2.8301a3.99 3.99 0 0 0-1.1699-2.8301z"/></svg>
