<svg id="svg4" width="16" height="16" version="1.1" viewBox="0 0 16 16" xmlns="http://www.w3.org/2000/svg"><path id="path9295" d="m7.9668 0.0019531a1.504 1.504 0 0 0-0.90039 0.32812l-1.3398 1.0801a1.5 1.5 0 0 1-0.76953 0.31055l-1.6973 0.18945c-0.7 0.08-1.2501 0.62913-1.3301 1.3281l-0.19141 1.6992c-0.03 0.3-0.15812 0.56125-0.32812 0.78125l-1.0801 1.3359a1.504 1.504 0 0 0 0 1.8789l1.0801 1.3398c0.17 0.22 0.28055 0.47953 0.31055 0.76953l0.18945 1.6973c0.08 0.7 0.62913 1.2501 1.3281 1.3301l1.6992 0.19141c0.3 0.03 0.56125 0.15812 0.78125 0.32812l1.3379 1.0801c0.55 0.439 1.3299 0.439 1.8789 0l1.3398-1.0801c0.22-0.17 0.47953-0.28055 0.76953-0.31055l1.6973-0.18945c0.7-0.08 1.2501-0.62912 1.3301-1.3281l0.19141-1.6992c0.03-0.3 0.15812-0.56125 0.32812-0.78125l1.0801-1.3379a1.504 1.504 0 0 0 0-1.8789l-0.001953 0.0019531-1.0801-1.3398a1.5 1.5 0 0 1-0.30859-0.77148l-0.18945-1.6973a1.51 1.51 0 0 0-1.3301-1.3301l-1.6992-0.18945c-0.3-0.03-0.5593-0.16008-0.7793-0.33008l-1.3379-1.0781a1.504 1.504 0 0 0-0.97852-0.32812zm-0.097656 3.998c0.44 0 0.82992 0.050859 1.1699 0.13086 0.34 0.09 0.63086 0.21867 0.88086 0.38867 0.23 0.17 0.41078 0.38086 0.55078 0.63086 0.13 0.25 0.18945 0.54891 0.18945 0.87891 0 0.22-7.8e-5 0.41984-0.080078 0.58984l-0.019531-0.0097656c-0.06 0.17-0.17078 0.3307-0.30078 0.4707-0.13 0.16-0.14008 0.19086-0.33008 0.38086-0.16 0.17-0.30953 0.29922-0.51953 0.44922-0.11 0.09-0.1993 0.18953-0.2793 0.26953s-0.14141 0.16953-0.19141 0.26953-0.079375 0.19078-0.10938 0.30078-0.029297 0.13-0.029297 0.25h-1.6699c0-0.22-7.031e-4 -0.31047 0.029297-0.48047 0.03-0.19 0.080625-0.35953 0.14062-0.51953 0.06-0.14 0.14-0.27992 0.25-0.41992 0.11-0.13 0.23016-0.25086 0.41016-0.38086 0.27-0.19 0.35852-0.29953 0.47852-0.51953s0.20117-0.37984 0.20117-0.58984c0-0.27-0.061172-0.45008-0.20117-0.58008-0.13-0.13-0.31008-0.18945-0.58008-0.18945-0.09 0-0.18883 0.018828-0.29883 0.048828s-0.17 0.090156-0.25 0.16016-0.14117 0.11117-0.20117 0.20117a0.41 0.41 0 0 0-0.089844 0.2793h-2c0-0.38 0.12953-0.56008 0.26953-0.83008 0.16-0.27 0.36133-0.49992 0.61133-0.66992s0.54891-0.29891 0.87891-0.37891 0.69984-0.13086 1.0898-0.13086zm-0.36914 6h1c0.28 0 0.5 0.22 0.5 0.5v1c0 0.28-0.22 0.5-0.5 0.5h-1c-0.27 0-0.5-0.22-0.5-0.5v-1c0-0.28 0.23-0.5 0.5-0.5z"/></svg>
