<svg id="svg4" width="16" height="16" version="1.1" viewBox="0 0 16 16" xmlns="http://www.w3.org/2000/svg"><path id="path4749" d="m7.97 0.00195a1.5 1.5 0 0 0-0.9 0.328l-1.34 1.08a1.5 1.5 0 0 1-0.77 0.311l-1.7 0.189c-0.7 0.08-1.25 0.629-1.33 1.33l-0.191 1.7c-0.03 0.3-0.158 0.561-0.328 0.781l-1.08 1.34a1.5 1.5 0 0 0 0 1.88l1.08 1.34c0.17 0.22 0.281 0.48 0.311 0.77l0.189 1.7c0.08 0.7 0.629 1.25 1.33 1.33l1.7 0.191c0.3 0.03 0.561 0.158 0.781 0.328l1.34 1.08c0.55 0.439 1.33 0.439 1.88 0l1.34-1.08c0.22-0.17 0.48-0.281 0.77-0.311l1.7-0.189c0.7-0.08 1.25-0.629 1.33-1.33l0.191-1.7c0.03-0.3 0.158-0.561 0.328-0.781l1.08-1.34a1.5 1.5 0 0 0 0-1.88l-0.00195 0.00195-1.08-1.34a1.5 1.5 0 0 1-0.309-0.771l-0.189-1.7a1.51 1.51 0 0 0-1.33-1.33l-1.7-0.189c-0.3-0.03-0.559-0.16-0.779-0.33l-1.34-1.08a1.5 1.5 0 0 0-0.979-0.328zm3.53 4.01 1.5 1.55-6.5 6.45-3.5-3.5 1.5-1.5 2 2 5-5z"/></svg>
