<?xml version="1.0" encoding="UTF-8" standalone="no"?>
<svg
   xmlns:dc="http://purl.org/dc/elements/1.1/"
   xmlns:cc="http://creativecommons.org/ns#"
   xmlns:rdf="http://www.w3.org/1999/02/22-rdf-syntax-ns#"
   xmlns:svg="http://www.w3.org/2000/svg"
   xmlns="http://www.w3.org/2000/svg"
   xmlns:sodipodi="http://sodipodi.sourceforge.net/DTD/sodipodi-0.dtd"
   xmlns:inkscape="http://www.inkscape.org/namespaces/inkscape"
   id="svg4"
   width="16"
   height="16"
   version="1.1"
   viewBox="0 0 16 16"
   sodipodi:docname="workflow-all.svg"
   inkscape:version="0.92.3 (2405546, 2018-03-11)">
  <metadata
     id="metadata10">
    <rdf:RDF>
      <cc:Work
         rdf:about="">
        <dc:format>image/svg+xml</dc:format>
        <dc:type
           rdf:resource="http://purl.org/dc/dcmitype/StillImage" />
      </cc:Work>
    </rdf:RDF>
  </metadata>
  <defs
     id="defs8" />
  <sodipodi:namedview
     pagecolor="#ffffff"
     bordercolor="#666666"
     borderopacity="1"
     objecttolerance="10"
     gridtolerance="10"
     guidetolerance="10"
     inkscape:pageopacity="0"
     inkscape:pageshadow="2"
     inkscape:window-width="1157"
     inkscape:window-height="480"
     id="namedview6"
     showgrid="false"
     inkscape:zoom="14.75"
     inkscape:cx="8"
     inkscape:cy="8"
     inkscape:window-x="0"
     inkscape:window-y="54"
     inkscape:window-maximized="0"
     inkscape:current-layer="svg4" />
  <path
     d="M 5.1464844 3.0019531 A 5 5 0 0 0 0 8 A 5 5 0 0 0 10 8 A 5 5 0 0 0 5.1464844 3.0019531 z M 7.7480469 3.0058594 A 5 5 0 0 0 7.25 3.0566406 A 5.001 5.001 0 0 1 7.25 12.943359 A 5 5 0 1 0 7.7480469 3.0058594 z M 10.748047 3.0058594 A 5 5 0 0 0 10.25 3.0566406 A 5.001 5.001 0 0 1 10.25 12.943359 A 5 5 0 1 0 10.748047 3.0058594 z M 3.5 5.5 L 7.5 8 L 3.5 10.5 L 3.5 5.5 z "
     id="path4755" />
</svg>
