<?xml version="1.0" encoding="UTF-8" standalone="no"?>
<svg
   xmlns:dc="http://purl.org/dc/elements/1.1/"
   xmlns:cc="http://creativecommons.org/ns#"
   xmlns:rdf="http://www.w3.org/1999/02/22-rdf-syntax-ns#"
   xmlns:svg="http://www.w3.org/2000/svg"
   xmlns="http://www.w3.org/2000/svg"
   xmlns:sodipodi="http://sodipodi.sourceforge.net/DTD/sodipodi-0.dtd"
   xmlns:inkscape="http://www.inkscape.org/namespaces/inkscape"
   id="svg4"
   width="16"
   height="16"
   version="1.1"
   viewBox="0 0 16 16"
   sodipodi:docname="workflow.svg"
   inkscape:version="0.92.3 (2405546, 2018-03-11)">
  <metadata
     id="metadata8">
    <rdf:RDF>
      <cc:Work
         rdf:about="">
        <dc:format>image/svg+xml</dc:format>
        <dc:type
           rdf:resource="http://purl.org/dc/dcmitype/StillImage" />
      </cc:Work>
    </rdf:RDF>
  </metadata>
  <defs
     id="defs6" />
  <sodipodi:namedview
     pagecolor="#ffffff"
     bordercolor="#666666"
     borderopacity="1"
     objecttolerance="10"
     gridtolerance="10"
     guidetolerance="10"
     inkscape:pageopacity="0"
     inkscape:pageshadow="2"
     inkscape:window-width="1157"
     inkscape:window-height="480"
     id="namedview4"
     showgrid="false"
     inkscape:zoom="14.75"
     inkscape:cx="8"
     inkscape:cy="8"
     inkscape:window-x="0"
     inkscape:window-y="54"
     inkscape:window-maximized="0"
     inkscape:current-layer="svg4" />
  <path
     d="M 2.5996094 0.001953125 A 2.5 2.5 0 0 0 2 4.9492188 L 2 12.998047 C 2 13.545047 2.453 13.998047 3 13.998047 L 5.0507812 13.998047 A 2.5 2.5 0 0 0 9.9492188 13.998047 L 11.050781 13.998047 A 2.5 2.5 0 1 0 11.050781 12.998047 L 9.9492188 12.998047 A 2.5 2.5 0 0 0 5.0507812 12.998047 L 3 12.998047 L 3 7.9980469 L 5.0507812 7.9980469 A 2.5 2.5 0 0 0 9.9492188 7.9980469 L 11.050781 7.9980469 A 2.5 2.5 0 1 0 11.050781 6.9980469 L 9.9492188 6.9980469 A 2.5 2.5 0 0 0 5.0507812 6.9980469 L 3 6.9980469 L 3 4.9492188 A 2.5 2.5 0 0 0 2.5996094 0.001953125 z M 7.4570312 6 A 1.5 1.5 0 0 1 9 7.4980469 A 1.5 1.5 0 0 1 6 7.4980469 A 1.5 1.5 0 0 1 7.4570312 6 z M 13.457031 6 A 1.5 1.5 0 0 1 15 7.4980469 A 1.5 1.5 0 0 1 12 7.4980469 A 1.5 1.5 0 0 1 13.457031 6 z M 13.5 11.996094 A 1.5 1.5 0 0 1 13.5 14.996094 L 13.5 14.998047 A 1.501 1.501 0 1 1 13.5 11.996094 z M 7.5 11.998047 A 1.5 1.5 0 0 1 7.5 14.998047 A 1.5 1.5 0 0 1 7.5 11.998047 z "
     id="path4757" />
</svg>
